solid CATIA STL
  facet normal  0.000000e+000  0.000000e+000  1.000000e+000
    outer loop
      vertex  3.236068e+000 -3.735114e+001  5.000000e+000
      vertex  1.236068e+000 -3.880423e+001  5.000000e+000
      vertex  4.485136e+000 -3.818333e+001  5.000000e+000
    endloop
  endfacet
  facet normal  0.000000e+000  -0.000000e+000  1.000000e+000
    outer loop
      vertex -2.585463e+000 -5.600000e+001  5.000000e+000
      vertex -8.485281e-001 -5.915147e+001  5.000000e+000
      vertex -7.868025e-015 -5.880000e+001  5.000000e+000
    endloop
  endfacet
  facet normal  -0.000000e+000  -0.000000e+000  1.000000e+000
    outer loop
      vertex -2.585463e+000 -5.600000e+001  5.000000e+000
      vertex -7.868025e-015 -5.880000e+001  5.000000e+000
      vertex  8.485281e-001 -5.915147e+001  5.000000e+000
    endloop
  endfacet
  facet normal  -0.000000e+000  -0.000000e+000  1.000000e+000
    outer loop
      vertex -2.585463e+000 -5.600000e+001  5.000000e+000
      vertex  8.485281e-001 -5.915147e+001  5.000000e+000
      vertex  3.960606e+000 -6.056000e+001  5.000000e+000
    endloop
  endfacet
  facet normal  0.000000e+000  0.000000e+000  1.000000e+000
    outer loop
      vertex -2.585463e+000 -5.600000e+001  5.000000e+000
      vertex  3.960606e+000 -6.056000e+001  5.000000e+000
      vertex  2.585463e+000 -5.600000e+001  5.000000e+000
    endloop
  endfacet
  facet normal  0.000000e+000  0.000000e+000  1.000000e+000
    outer loop
      vertex  3.960606e+000 -6.056000e+001  5.000000e+000
      vertex  8.485281e-001 -5.915147e+001  5.000000e+000
      vertex  1.200000e+000 -6.000000e+001  5.000000e+000
    endloop
  endfacet
  facet normal  0.000000e+000  0.000000e+000  1.000000e+000
    outer loop
      vertex  3.960606e+000 -6.056000e+001  5.000000e+000
      vertex  1.200000e+000 -6.000000e+001  5.000000e+000
      vertex  8.485281e-001 -6.084853e+001  5.000000e+000
    endloop
  endfacet
  facet normal  -0.000000e+000  0.000000e+000  1.000000e+000
    outer loop
      vertex  3.960606e+000 -6.056000e+001  5.000000e+000
      vertex  8.485281e-001 -6.084853e+001  5.000000e+000
      vertex -6.563219e-015 -6.120000e+001  5.000000e+000
    endloop
  endfacet
  facet normal  -0.000000e+000  0.000000e+000  9.999999e-001
    outer loop
      vertex  3.960606e+000 -6.056000e+001  5.000000e+000
      vertex -6.563219e-015 -6.120000e+001  5.000000e+000
      vertex  3.026670e+000 -6.261520e+001  5.000000e+000
    endloop
  endfacet
  facet normal  0.000000e+000  -0.000000e+000  9.999999e-001
    outer loop
      vertex -3.960606e+000 -6.056000e+001  5.000000e+000
      vertex -3.026670e+000 -6.261520e+001  5.000000e+000
      vertex -6.563219e-015 -6.120000e+001  5.000000e+000
    endloop
  endfacet
  facet normal  0.000000e+000  0.000000e+000  1.000000e+000
    outer loop
      vertex -3.960606e+000 -6.056000e+001  5.000000e+000
      vertex -6.563219e-015 -6.120000e+001  5.000000e+000
      vertex -8.485281e-001 -6.084853e+001  5.000000e+000
    endloop
  endfacet
  facet normal  0.000000e+000  0.000000e+000  1.000000e+000
    outer loop
      vertex -3.960606e+000 -6.056000e+001  5.000000e+000
      vertex -8.485281e-001 -6.084853e+001  5.000000e+000
      vertex -1.200000e+000 -6.000000e+001  5.000000e+000
    endloop
  endfacet
  facet normal  0.000000e+000  -0.000000e+000  1.000000e+000
    outer loop
      vertex -3.960606e+000 -6.056000e+001  5.000000e+000
      vertex -1.200000e+000 -6.000000e+001  5.000000e+000
      vertex -8.485281e-001 -5.915147e+001  5.000000e+000
    endloop
  endfacet
  facet normal  0.000000e+000  0.000000e+000  1.000000e+000
    outer loop
      vertex -3.960606e+000 -6.056000e+001  5.000000e+000
      vertex -8.485281e-001 -5.915147e+001  5.000000e+000
      vertex -2.585463e+000 -5.600000e+001  5.000000e+000
    endloop
  endfacet
  facet normal  0.000000e+000  0.000000e+000  1.000000e+000
    outer loop
      vertex -3.960606e+000 -6.056000e+001  5.000000e+000
      vertex -2.585463e+000 -5.600000e+001  5.000000e+000
      vertex -5.445833e+000 -3.577000e+001  5.000000e+000
    endloop
  endfacet
  facet normal  0.000000e+000  0.000000e+000  1.000000e+000
    outer loop
      vertex -3.960606e+000 -6.056000e+001  5.000000e+000
      vertex -5.445833e+000 -3.577000e+001  5.000000e+000
      vertex -7.426136e+000 -3.605000e+001  5.000000e+000
    endloop
  endfacet
  facet normal  0.000000e+000  0.000000e+000  1.000000e+000
    outer loop
      vertex  1.128725e+000 -6.383744e+001  5.000000e+000
      vertex  3.026670e+000 -6.261520e+001  5.000000e+000
      vertex -1.128725e+000 -6.383744e+001  5.000000e+000
    endloop
  endfacet
  facet normal  0.000000e+000  0.000000e+000  1.000000e+000
    outer loop
      vertex -1.128725e+000 -6.383744e+001  5.000000e+000
      vertex  3.026670e+000 -6.261520e+001  5.000000e+000
      vertex -6.563219e-015 -6.120000e+001  5.000000e+000
    endloop
  endfacet
  facet normal  0.000000e+000  0.000000e+000  1.000000e+000
    outer loop
      vertex -1.128725e+000 -6.383744e+001  5.000000e+000
      vertex -6.563219e-015 -6.120000e+001  5.000000e+000
      vertex -3.026670e+000 -6.261520e+001  5.000000e+000
    endloop
  endfacet
  facet normal  0.000000e+000  -0.000000e+000  9.999999e-001
    outer loop
      vertex -4.485135e+000 -3.818333e+001  5.000000e+000
      vertex -2.524055e+000 -3.988663e+001  5.000000e+000
      vertex -1.236068e+000 -3.880423e+001  5.000000e+000
    endloop
  endfacet
  facet normal  0.000000e+000  0.000000e+000  1.000000e+000
    outer loop
      vertex -1.236068e+000 -3.880423e+001  5.000000e+000
      vertex -2.524055e+000 -3.988663e+001  5.000000e+000
      vertex  6.788838e-008 -4.050000e+001  5.000000e+000
    endloop
  endfacet
  facet normal  0.000000e+000  -0.000000e+000  1.000000e+000
    outer loop
      vertex -1.236068e+000 -3.880423e+001  5.000000e+000
      vertex  6.788838e-008 -4.050000e+001  5.000000e+000
      vertex  1.236068e+000 -3.880423e+001  5.000000e+000
    endloop
  endfacet
  facet normal  0.000000e+000  0.000000e+000  1.000000e+000
    outer loop
      vertex  1.236068e+000 -3.880423e+001  5.000000e+000
      vertex  6.788838e-008 -4.050000e+001  5.000000e+000
      vertex  2.524055e+000 -3.988663e+001  5.000000e+000
    endloop
  endfacet
  facet normal  0.000000e+000  -0.000000e+000  1.000000e+000
    outer loop
      vertex  1.236068e+000 -3.880423e+001  5.000000e+000
      vertex  2.524055e+000 -3.988663e+001  5.000000e+000
      vertex  4.485136e+000 -3.818333e+001  5.000000e+000
    endloop
  endfacet
  facet normal  0.000000e+000  0.000000e+000  9.999999e-001
    outer loop
      vertex  5.662376e+000 -3.008192e+001  5.000000e+000
      vertex  3.111624e+000 -2.817594e+001  5.000000e+000
      vertex  1.236068e+000 -3.119577e+001  5.000000e+000
    endloop
  endfacet
  facet normal  0.000000e+000  -0.000000e+000  1.000000e+000
    outer loop
      vertex  1.236068e+000 -3.119577e+001  5.000000e+000
      vertex  3.111624e+000 -2.817594e+001  5.000000e+000
      vertex  4.884981e-015 -2.750000e+001  5.000000e+000
    endloop
  endfacet
  facet normal  0.000000e+000  0.000000e+000  1.000000e+000
    outer loop
      vertex  1.236068e+000 -3.119577e+001  5.000000e+000
      vertex  4.884981e-015 -2.750000e+001  5.000000e+000
      vertex -1.236068e+000 -3.119577e+001  5.000000e+000
    endloop
  endfacet
  facet normal  0.000000e+000  -0.000000e+000  1.000000e+000
    outer loop
      vertex -1.236068e+000 -3.119577e+001  5.000000e+000
      vertex  4.884981e-015 -2.750000e+001  5.000000e+000
      vertex -3.111624e+000 -2.817594e+001  5.000000e+000
    endloop
  endfacet
  facet normal  0.000000e+000  0.000000e+000  9.999999e-001
    outer loop
      vertex -1.236068e+000 -3.119577e+001  5.000000e+000
      vertex -3.111624e+000 -2.817594e+001  5.000000e+000
      vertex -5.662376e+000 -3.008192e+001  5.000000e+000
    endloop
  endfacet
  facet normal  0.000000e+000  0.000000e+000  1.000000e+000
    outer loop
      vertex -1.236068e+000 -3.119577e+001  5.000000e+000
      vertex -5.662376e+000 -3.008192e+001  5.000000e+000
      vertex -3.236068e+000 -3.264886e+001  5.000000e+000
    endloop
  endfacet
  facet normal  0.000000e+000  0.000000e+000  1.000000e+000
    outer loop
      vertex -3.236068e+000 -3.264886e+001  5.000000e+000
      vertex -5.662376e+000 -3.008192e+001  5.000000e+000
      vertex -7.192481e+000 -3.287439e+001  5.000000e+000
    endloop
  endfacet
  facet normal  -0.000000e+000  0.000000e+000  1.000000e+000
    outer loop
      vertex -3.236068e+000 -3.264886e+001  5.000000e+000
      vertex -7.192481e+000 -3.287439e+001  5.000000e+000
      vertex -4.000000e+000 -3.500000e+001  5.000000e+000
    endloop
  endfacet
  facet normal  0.000000e+000  0.000000e+000  1.000000e+000
    outer loop
      vertex -4.000000e+000 -3.500000e+001  5.000000e+000
      vertex -7.192481e+000 -3.287439e+001  5.000000e+000
      vertex -7.426136e+000 -3.605000e+001  5.000000e+000
    endloop
  endfacet
  facet normal  0.000000e+000  0.000000e+000  1.000000e+000
    outer loop
      vertex -4.000000e+000 -3.500000e+001  5.000000e+000
      vertex -7.426136e+000 -3.605000e+001  5.000000e+000
      vertex -5.445833e+000 -3.577000e+001  5.000000e+000
    endloop
  endfacet
  facet normal  -0.000000e+000  0.000000e+000  1.000000e+000
    outer loop
      vertex -4.000000e+000 -3.500000e+001  5.000000e+000
      vertex -5.445833e+000 -3.577000e+001  5.000000e+000
      vertex -3.236068e+000 -3.735114e+001  5.000000e+000
    endloop
  endfacet
  facet normal  0.000000e+000  0.000000e+000  1.000000e+000
    outer loop
      vertex -3.236068e+000 -3.735114e+001  5.000000e+000
      vertex -5.445833e+000 -3.577000e+001  5.000000e+000
      vertex -4.485135e+000 -3.818333e+001  5.000000e+000
    endloop
  endfacet
  facet normal  -0.000000e+000  0.000000e+000  1.000000e+000
    outer loop
      vertex -3.236068e+000 -3.735114e+001  5.000000e+000
      vertex -4.485135e+000 -3.818333e+001  5.000000e+000
      vertex -1.236068e+000 -3.880423e+001  5.000000e+000
    endloop
  endfacet
  facet normal  0.000000e+000  0.000000e+000  1.000000e+000
    outer loop
      vertex  3.236068e+000 -3.735114e+001  5.000000e+000
      vertex  4.485136e+000 -3.818333e+001  5.000000e+000
      vertex  4.000000e+000 -3.500000e+001  5.000000e+000
    endloop
  endfacet
  facet normal  0.000000e+000  0.000000e+000  1.000000e+000
    outer loop
      vertex  4.000000e+000 -3.500000e+001  5.000000e+000
      vertex  4.485136e+000 -3.818333e+001  5.000000e+000
      vertex  5.445833e+000 -3.577000e+001  5.000000e+000
    endloop
  endfacet
  facet normal  -0.000000e+000  -0.000000e+000  1.000000e+000
    outer loop
      vertex  4.000000e+000 -3.500000e+001  5.000000e+000
      vertex  5.445833e+000 -3.577000e+001  5.000000e+000
      vertex  7.426136e+000 -3.605000e+001  5.000000e+000
    endloop
  endfacet
  facet normal  -0.000000e+000  0.000000e+000  1.000000e+000
    outer loop
      vertex  5.662376e+000 -3.008192e+001  5.000000e+000
      vertex  1.236068e+000 -3.119577e+001  5.000000e+000
      vertex  7.192481e+000 -3.287439e+001  5.000000e+000
    endloop
  endfacet
  facet normal  0.000000e+000  0.000000e+000  1.000000e+000
    outer loop
      vertex  7.192481e+000 -3.287439e+001  5.000000e+000
      vertex  1.236068e+000 -3.119577e+001  5.000000e+000
      vertex  3.236068e+000 -3.264886e+001  5.000000e+000
    endloop
  endfacet
  facet normal  0.000000e+000  0.000000e+000  1.000000e+000
    outer loop
      vertex  7.192481e+000 -3.287439e+001  5.000000e+000
      vertex  3.236068e+000 -3.264886e+001  5.000000e+000
      vertex  7.426136e+000 -3.605000e+001  5.000000e+000
    endloop
  endfacet
  facet normal  0.000000e+000  0.000000e+000  1.000000e+000
    outer loop
      vertex  7.426136e+000 -3.605000e+001  5.000000e+000
      vertex  3.236068e+000 -3.264886e+001  5.000000e+000
      vertex  4.000000e+000 -3.500000e+001  5.000000e+000
    endloop
  endfacet
  facet normal  0.000000e+000  -0.000000e+000  1.000000e+000
    outer loop
      vertex  2.585463e+000 -5.600000e+001  5.000000e+000
      vertex  3.960606e+000 -6.056000e+001  5.000000e+000
      vertex  5.445833e+000 -3.577000e+001  5.000000e+000
    endloop
  endfacet
  facet normal  0.000000e+000  0.000000e+000  1.000000e+000
    outer loop
      vertex  5.445833e+000 -3.577000e+001  5.000000e+000
      vertex  3.960606e+000 -6.056000e+001  5.000000e+000
      vertex  7.426136e+000 -3.605000e+001  5.000000e+000
    endloop
  endfacet
  facet normal  2.122796e-001  9.772090e-001  1.351963e-016
    outer loop
      vertex  8.069373e-015 -2.750000e+001  0.000000e+000
      vertex  4.884981e-015 -2.750000e+001  5.000000e+000
      vertex  3.111624e+000 -2.817594e+001  0.000000e+000
    endloop
  endfacet
  facet normal  2.122796e-001  9.772090e-001  -0.000000e+000
    outer loop
      vertex  3.111624e+000 -2.817594e+001  0.000000e+000
      vertex  4.884981e-015 -2.750000e+001  5.000000e+000
      vertex  3.111624e+000 -2.817594e+001  5.000000e+000
    endloop
  endfacet
  facet normal  5.985758e-001  8.010662e-001  0.000000e+000
    outer loop
      vertex  3.111624e+000 -2.817594e+001  0.000000e+000
      vertex  3.111624e+000 -2.817594e+001  5.000000e+000
      vertex  5.662376e+000 -3.008192e+001  0.000000e+000
    endloop
  endfacet
  facet normal  5.985758e-001  8.010662e-001  -0.000000e+000
    outer loop
      vertex  5.662376e+000 -3.008192e+001  0.000000e+000
      vertex  3.111624e+000 -2.817594e+001  5.000000e+000
      vertex  5.662376e+000 -3.008192e+001  5.000000e+000
    endloop
  endfacet
  facet normal  8.769777e-001  4.805312e-001  0.000000e+000
    outer loop
      vertex  5.662376e+000 -3.008192e+001  0.000000e+000
      vertex  5.662376e+000 -3.008192e+001  5.000000e+000
      vertex  7.192481e+000 -3.287439e+001  0.000000e+000
    endloop
  endfacet
  facet normal  8.769777e-001  4.805312e-001  -0.000000e+000
    outer loop
      vertex  7.192481e+000 -3.287439e+001  0.000000e+000
      vertex  5.662376e+000 -3.008192e+001  5.000000e+000
      vertex  7.192481e+000 -3.287439e+001  5.000000e+000
    endloop
  endfacet
  facet normal  9.973040e-001  7.337993e-002  0.000000e+000
    outer loop
      vertex  7.192481e+000 -3.287439e+001  0.000000e+000
      vertex  7.192481e+000 -3.287439e+001  5.000000e+000
      vertex  7.426136e+000 -3.605000e+001  0.000000e+000
    endloop
  endfacet
  facet normal  9.973040e-001  7.337993e-002  -0.000000e+000
    outer loop
      vertex  7.426136e+000 -3.605000e+001  0.000000e+000
      vertex  7.192481e+000 -3.287439e+001  5.000000e+000
      vertex  7.426136e+000 -3.605000e+001  5.000000e+000
    endloop
  endfacet
  facet normal -9.973040e-001  7.337993e-002  0.000000e+000
    outer loop
      vertex -7.426136e+000 -3.605000e+001  0.000000e+000
      vertex -7.426136e+000 -3.605000e+001  5.000000e+000
      vertex -7.192481e+000 -3.287439e+001  0.000000e+000
    endloop
  endfacet
  facet normal -9.973040e-001  7.337993e-002  0.000000e+000
    outer loop
      vertex -7.192481e+000 -3.287439e+001  0.000000e+000
      vertex -7.426136e+000 -3.605000e+001  5.000000e+000
      vertex -7.192481e+000 -3.287439e+001  5.000000e+000
    endloop
  endfacet
  facet normal -8.769777e-001  4.805312e-001  0.000000e+000
    outer loop
      vertex -7.192481e+000 -3.287439e+001  0.000000e+000
      vertex -7.192481e+000 -3.287439e+001  5.000000e+000
      vertex -5.662376e+000 -3.008192e+001  0.000000e+000
    endloop
  endfacet
  facet normal -8.769777e-001  4.805312e-001  0.000000e+000
    outer loop
      vertex -5.662376e+000 -3.008192e+001  0.000000e+000
      vertex -7.192481e+000 -3.287439e+001  5.000000e+000
      vertex -5.662376e+000 -3.008192e+001  5.000000e+000
    endloop
  endfacet
  facet normal -5.985758e-001  8.010662e-001  0.000000e+000
    outer loop
      vertex -5.662376e+000 -3.008192e+001  0.000000e+000
      vertex -5.662376e+000 -3.008192e+001  5.000000e+000
      vertex -3.111624e+000 -2.817594e+001  0.000000e+000
    endloop
  endfacet
  facet normal -5.985758e-001  8.010662e-001  0.000000e+000
    outer loop
      vertex -3.111624e+000 -2.817594e+001  0.000000e+000
      vertex -5.662376e+000 -3.008192e+001  5.000000e+000
      vertex -3.111624e+000 -2.817594e+001  5.000000e+000
    endloop
  endfacet
  facet normal -2.122796e-001  9.772090e-001  0.000000e+000
    outer loop
      vertex -3.111624e+000 -2.817594e+001  0.000000e+000
      vertex -3.111624e+000 -2.817594e+001  5.000000e+000
      vertex  8.069373e-015 -2.750000e+001  0.000000e+000
    endloop
  endfacet
  facet normal -2.122796e-001  9.772090e-001 -1.351963e-016
    outer loop
      vertex  8.069373e-015 -2.750000e+001  0.000000e+000
      vertex -3.111624e+000 -2.817594e+001  5.000000e+000
      vertex  4.884981e-015 -2.750000e+001  5.000000e+000
    endloop
  endfacet
  facet normal -9.901516e-001 -1.400000e-001  0.000000e+000
    outer loop
      vertex -7.426136e+000 -3.605000e+001  0.000000e+000
      vertex -3.960606e+000 -6.056000e+001  0.000000e+000
      vertex -7.426136e+000 -3.605000e+001  5.000000e+000
    endloop
  endfacet
  facet normal -9.901516e-001 -1.400000e-001  0.000000e+000
    outer loop
      vertex -7.426136e+000 -3.605000e+001  5.000000e+000
      vertex -3.960606e+000 -6.056000e+001  0.000000e+000
      vertex -3.960606e+000 -6.056000e+001  5.000000e+000
    endloop
  endfacet
  facet normal  9.104074e-001 -4.137129e-001  0.000000e+000
    outer loop
      vertex  3.960606e+000 -6.056000e+001  0.000000e+000
      vertex  3.960606e+000 -6.056000e+001  5.000000e+000
      vertex  3.026670e+000 -6.261520e+001  0.000000e+000
    endloop
  endfacet
  facet normal  9.104074e-001 -4.137129e-001  0.000000e+000
    outer loop
      vertex  3.026670e+000 -6.261520e+001  0.000000e+000
      vertex  3.960606e+000 -6.056000e+001  5.000000e+000
      vertex  3.026670e+000 -6.261520e+001  5.000000e+000
    endloop
  endfacet
  facet normal  5.414271e-001 -8.407476e-001  0.000000e+000
    outer loop
      vertex  3.026670e+000 -6.261520e+001  0.000000e+000
      vertex  3.026670e+000 -6.261520e+001  5.000000e+000
      vertex  1.128725e+000 -6.383744e+001  0.000000e+000
    endloop
  endfacet
  facet normal  5.414271e-001 -8.407476e-001  0.000000e+000
    outer loop
      vertex  1.128725e+000 -6.383744e+001  0.000000e+000
      vertex  3.026670e+000 -6.261520e+001  5.000000e+000
      vertex  1.128725e+000 -6.383744e+001  5.000000e+000
    endloop
  endfacet
  facet normal  0.000000e+000 -9.999999e-001  -0.000000e+000
    outer loop
      vertex  1.128725e+000 -6.383744e+001  0.000000e+000
      vertex  1.128725e+000 -6.383744e+001  5.000000e+000
      vertex -1.128725e+000 -6.383744e+001  0.000000e+000
    endloop
  endfacet
  facet normal  0.000000e+000 -9.999999e-001  0.000000e+000
    outer loop
      vertex -1.128725e+000 -6.383744e+001  0.000000e+000
      vertex  1.128725e+000 -6.383744e+001  5.000000e+000
      vertex -1.128725e+000 -6.383744e+001  5.000000e+000
    endloop
  endfacet
  facet normal -5.414271e-001 -8.407476e-001  -0.000000e+000
    outer loop
      vertex -1.128725e+000 -6.383744e+001  0.000000e+000
      vertex -1.128725e+000 -6.383744e+001  5.000000e+000
      vertex -3.026670e+000 -6.261520e+001  0.000000e+000
    endloop
  endfacet
  facet normal -5.414271e-001 -8.407476e-001  0.000000e+000
    outer loop
      vertex -3.026670e+000 -6.261520e+001  0.000000e+000
      vertex -1.128725e+000 -6.383744e+001  5.000000e+000
      vertex -3.026670e+000 -6.261520e+001  5.000000e+000
    endloop
  endfacet
  facet normal -9.104074e-001 -4.137129e-001  -0.000000e+000
    outer loop
      vertex -3.026670e+000 -6.261520e+001  0.000000e+000
      vertex -3.026670e+000 -6.261520e+001  5.000000e+000
      vertex -3.960606e+000 -6.056000e+001  0.000000e+000
    endloop
  endfacet
  facet normal -9.104074e-001 -4.137129e-001  0.000000e+000
    outer loop
      vertex -3.960606e+000 -6.056000e+001  0.000000e+000
      vertex -3.026670e+000 -6.261520e+001  5.000000e+000
      vertex -3.960606e+000 -6.056000e+001  5.000000e+000
    endloop
  endfacet
  facet normal  9.901516e-001 -1.400000e-001  0.000000e+000
    outer loop
      vertex  3.960606e+000 -6.056000e+001  0.000000e+000
      vertex  7.426136e+000 -3.605000e+001  0.000000e+000
      vertex  3.960606e+000 -6.056000e+001  5.000000e+000
    endloop
  endfacet
  facet normal  9.901516e-001 -1.400000e-001  0.000000e+000
    outer loop
      vertex  3.960606e+000 -6.056000e+001  5.000000e+000
      vertex  7.426136e+000 -3.605000e+001  0.000000e+000
      vertex  7.426136e+000 -3.605000e+001  5.000000e+000
    endloop
  endfacet
  facet normal -3.826826e-001  9.238799e-001  0.000000e+000
    outer loop
      vertex -6.563219e-015 -6.120000e+001  0.000000e+000
      vertex  8.485281e-001 -6.084853e+001  5.000000e+000
      vertex  8.485281e-001 -6.084853e+001  0.000000e+000
    endloop
  endfacet
  facet normal -9.238798e-001  3.826828e-001  0.000000e+000
    outer loop
      vertex  8.485281e-001 -6.084853e+001  0.000000e+000
      vertex  8.485281e-001 -6.084853e+001  5.000000e+000
      vertex  1.200000e+000 -6.000000e+001  5.000000e+000
    endloop
  endfacet
  facet normal -9.238798e-001  3.826828e-001  0.000000e+000
    outer loop
      vertex  8.485281e-001 -6.084853e+001  0.000000e+000
      vertex  1.200000e+000 -6.000000e+001  5.000000e+000
      vertex  1.200000e+000 -6.000000e+001  0.000000e+000
    endloop
  endfacet
  facet normal -3.826826e-001  9.238799e-001  0.000000e+000
    outer loop
      vertex  8.485281e-001 -6.084853e+001  5.000000e+000
      vertex -6.563219e-015 -6.120000e+001  0.000000e+000
      vertex -6.563219e-015 -6.120000e+001  5.000000e+000
    endloop
  endfacet
  facet normal  3.826826e-001  9.238799e-001  0.000000e+000
    outer loop
      vertex -6.563219e-015 -6.120000e+001  5.000000e+000
      vertex -6.563219e-015 -6.120000e+001  0.000000e+000
      vertex -8.485281e-001 -6.084853e+001  0.000000e+000
    endloop
  endfacet
  facet normal  3.826826e-001  9.238799e-001  -0.000000e+000
    outer loop
      vertex -6.563219e-015 -6.120000e+001  5.000000e+000
      vertex -8.485281e-001 -6.084853e+001  0.000000e+000
      vertex -8.485281e-001 -6.084853e+001  5.000000e+000
    endloop
  endfacet
  facet normal  9.238798e-001  3.826828e-001  0.000000e+000
    outer loop
      vertex -8.485281e-001 -6.084853e+001  5.000000e+000
      vertex -8.485281e-001 -6.084853e+001  0.000000e+000
      vertex -1.200000e+000 -6.000000e+001  0.000000e+000
    endloop
  endfacet
  facet normal  9.238798e-001  3.826828e-001  -0.000000e+000
    outer loop
      vertex -8.485281e-001 -6.084853e+001  5.000000e+000
      vertex -1.200000e+000 -6.000000e+001  0.000000e+000
      vertex -1.200000e+000 -6.000000e+001  5.000000e+000
    endloop
  endfacet
  facet normal  3.826862e-001 -9.238784e-001  0.000000e+000
    outer loop
      vertex -7.868025e-015 -5.880000e+001  0.000000e+000
      vertex -8.485281e-001 -5.915147e+001  5.000000e+000
      vertex -8.485281e-001 -5.915147e+001  0.000000e+000
    endloop
  endfacet
  facet normal  9.238792e-001 -3.826843e-001  0.000000e+000
    outer loop
      vertex -8.485281e-001 -5.915147e+001  0.000000e+000
      vertex -8.485281e-001 -5.915147e+001  5.000000e+000
      vertex -1.200000e+000 -6.000000e+001  5.000000e+000
    endloop
  endfacet
  facet normal  9.238792e-001 -3.826843e-001  0.000000e+000
    outer loop
      vertex -8.485281e-001 -5.915147e+001  0.000000e+000
      vertex -1.200000e+000 -6.000000e+001  5.000000e+000
      vertex -1.200000e+000 -6.000000e+001  0.000000e+000
    endloop
  endfacet
  facet normal  3.826862e-001 -9.238784e-001  0.000000e+000
    outer loop
      vertex -8.485281e-001 -5.915147e+001  5.000000e+000
      vertex -7.868025e-015 -5.880000e+001  0.000000e+000
      vertex -7.868025e-015 -5.880000e+001  5.000000e+000
    endloop
  endfacet
  facet normal -3.826862e-001 -9.238784e-001  -0.000000e+000
    outer loop
      vertex -7.868025e-015 -5.880000e+001  5.000000e+000
      vertex -7.868025e-015 -5.880000e+001  0.000000e+000
      vertex  8.485281e-001 -5.915147e+001  0.000000e+000
    endloop
  endfacet
  facet normal -3.826862e-001 -9.238784e-001  0.000000e+000
    outer loop
      vertex -7.868025e-015 -5.880000e+001  5.000000e+000
      vertex  8.485281e-001 -5.915147e+001  0.000000e+000
      vertex  8.485281e-001 -5.915147e+001  5.000000e+000
    endloop
  endfacet
  facet normal -9.238792e-001 -3.826843e-001  -0.000000e+000
    outer loop
      vertex  8.485281e-001 -5.915147e+001  5.000000e+000
      vertex  8.485281e-001 -5.915147e+001  0.000000e+000
      vertex  1.200000e+000 -6.000000e+001  0.000000e+000
    endloop
  endfacet
  facet normal -9.238792e-001 -3.826843e-001  0.000000e+000
    outer loop
      vertex  8.485281e-001 -5.915147e+001  5.000000e+000
      vertex  1.200000e+000 -6.000000e+001  0.000000e+000
      vertex  1.200000e+000 -6.000000e+001  5.000000e+000
    endloop
  endfacet
  facet normal  0.000000e+000  -0.000000e+000  1.000000e+000
    outer loop
      vertex  5.551115e-016 -3.280000e+001  7.000000e+000
      vertex  1.443868e+000 -3.334011e+001  7.000000e+000
      vertex  3.236068e+000 -3.264886e+001  7.000000e+000
    endloop
  endfacet
  facet normal  0.000000e+000  0.000000e+000  1.000000e+000
    outer loop
      vertex  5.551115e-016 -3.280000e+001  7.000000e+000
      vertex  3.236068e+000 -3.264886e+001  7.000000e+000
      vertex  1.236068e+000 -3.119577e+001  7.000000e+000
    endloop
  endfacet
  facet normal  0.000000e+000  0.000000e+000  1.000000e+000
    outer loop
      vertex  5.551115e-016 -3.280000e+001  7.000000e+000
      vertex  1.236068e+000 -3.119577e+001  7.000000e+000
      vertex -1.236068e+000 -3.119577e+001  7.000000e+000
    endloop
  endfacet
  facet normal  0.000000e+000  0.000000e+000  1.000000e+000
    outer loop
      vertex  5.551115e-016 -3.280000e+001  7.000000e+000
      vertex -1.236068e+000 -3.119577e+001  7.000000e+000
      vertex -3.236068e+000 -3.264886e+001  7.000000e+000
    endloop
  endfacet
  facet normal  0.000000e+000  0.000000e+000  1.000000e+000
    outer loop
      vertex  5.551115e-016 -3.280000e+001  7.000000e+000
      vertex -3.236068e+000 -3.264886e+001  7.000000e+000
      vertex -1.443868e+000 -3.334011e+001  7.000000e+000
    endloop
  endfacet
  facet normal  -0.000000e+000  0.000000e+000  9.999999e-001
    outer loop
      vertex  3.236068e+000 -3.264886e+001  7.000000e+000
      vertex  1.443868e+000 -3.334011e+001  7.000000e+000
      vertex  4.000000e+000 -3.500000e+001  7.000000e+000
    endloop
  endfacet
  facet normal  0.000000e+000  0.000000e+000  1.000000e+000
    outer loop
      vertex  4.000000e+000 -3.500000e+001  7.000000e+000
      vertex  1.443868e+000 -3.334011e+001  7.000000e+000
      vertex  2.178788e+000 -3.469523e+001  7.000000e+000
    endloop
  endfacet
  facet normal  0.000000e+000  0.000000e+000  1.000000e+000
    outer loop
      vertex  4.000000e+000 -3.500000e+001  7.000000e+000
      vertex  2.178788e+000 -3.469523e+001  7.000000e+000
      vertex  3.236068e+000 -3.735114e+001  7.000000e+000
    endloop
  endfacet
  facet normal  0.000000e+000  0.000000e+000  1.000000e+000
    outer loop
      vertex  3.236068e+000 -3.735114e+001  7.000000e+000
      vertex  2.178788e+000 -3.469523e+001  7.000000e+000
      vertex  1.843909e+000 -3.620000e+001  7.000000e+000
    endloop
  endfacet
  facet normal  0.000000e+000  0.000000e+000  1.000000e+000
    outer loop
      vertex  3.236068e+000 -3.735114e+001  7.000000e+000
      vertex  1.843909e+000 -3.620000e+001  7.000000e+000
      vertex  1.236068e+000 -3.880423e+001  7.000000e+000
    endloop
  endfacet
  facet normal  0.000000e+000  -0.000000e+000  9.999999e-001
    outer loop
      vertex  1.236068e+000 -3.880423e+001  7.000000e+000
      vertex  1.843909e+000 -3.620000e+001  7.000000e+000
      vertex -1.843909e+000 -3.620000e+001  7.000000e+000
    endloop
  endfacet
  facet normal  0.000000e+000  0.000000e+000  1.000000e+000
    outer loop
      vertex  1.236068e+000 -3.880423e+001  7.000000e+000
      vertex -1.843909e+000 -3.620000e+001  7.000000e+000
      vertex -1.236068e+000 -3.880423e+001  7.000000e+000
    endloop
  endfacet
  facet normal  0.000000e+000  0.000000e+000  1.000000e+000
    outer loop
      vertex -1.236068e+000 -3.880423e+001  7.000000e+000
      vertex -1.843909e+000 -3.620000e+001  7.000000e+000
      vertex -3.236068e+000 -3.735114e+001  7.000000e+000
    endloop
  endfacet
  facet normal  0.000000e+000  0.000000e+000  1.000000e+000
    outer loop
      vertex -3.236068e+000 -3.735114e+001  7.000000e+000
      vertex -1.843909e+000 -3.620000e+001  7.000000e+000
      vertex -4.000000e+000 -3.500000e+001  7.000000e+000
    endloop
  endfacet
  facet normal  -0.000000e+000  0.000000e+000  1.000000e+000
    outer loop
      vertex -4.000000e+000 -3.500000e+001  7.000000e+000
      vertex -1.843909e+000 -3.620000e+001  7.000000e+000
      vertex -2.178788e+000 -3.469523e+001  7.000000e+000
    endloop
  endfacet
  facet normal  0.000000e+000  0.000000e+000  1.000000e+000
    outer loop
      vertex -4.000000e+000 -3.500000e+001  7.000000e+000
      vertex -2.178788e+000 -3.469523e+001  7.000000e+000
      vertex -3.236068e+000 -3.264886e+001  7.000000e+000
    endloop
  endfacet
  facet normal  0.000000e+000  0.000000e+000  1.000000e+000
    outer loop
      vertex -3.236068e+000 -3.264886e+001  7.000000e+000
      vertex -2.178788e+000 -3.469523e+001  7.000000e+000
      vertex -1.443868e+000 -3.334011e+001  7.000000e+000
    endloop
  endfacet
  facet normal -3.503596e-001 -9.366152e-001 -1.798732e-016
    outer loop
      vertex  1.443868e+000 -3.334011e+001 -4.000000e+000
      vertex  5.551115e-016 -3.280000e+001  7.000000e+000
      vertex  6.202467e-015 -3.280000e+001 -4.000000e+000
    endloop
  endfacet
  facet normal -3.503596e-001 -9.366152e-001  0.000000e+000
    outer loop
      vertex  5.551115e-016 -3.280000e+001  7.000000e+000
      vertex  1.443868e+000 -3.334011e+001 -4.000000e+000
      vertex  1.443868e+000 -3.334011e+001  7.000000e+000
    endloop
  endfacet
  facet normal -8.790492e-001 -4.767313e-001  -0.000000e+000
    outer loop
      vertex  1.443868e+000 -3.334011e+001  7.000000e+000
      vertex  1.443868e+000 -3.334011e+001 -4.000000e+000
      vertex  2.178788e+000 -3.469523e+001 -4.000000e+000
    endloop
  endfacet
  facet normal -8.790492e-001 -4.767313e-001  0.000000e+000
    outer loop
      vertex  1.443868e+000 -3.334011e+001  7.000000e+000
      vertex  2.178788e+000 -3.469523e+001 -4.000000e+000
      vertex  2.178788e+000 -3.469523e+001  7.000000e+000
    endloop
  endfacet
  facet normal -9.761203e-001  2.172309e-001  0.000000e+000
    outer loop
      vertex  2.178788e+000 -3.469523e+001  7.000000e+000
      vertex  2.178788e+000 -3.469523e+001 -4.000000e+000
      vertex  1.843909e+000 -3.620000e+001 -4.000000e+000
    endloop
  endfacet
  facet normal -9.761203e-001  2.172309e-001  0.000000e+000
    outer loop
      vertex  2.178788e+000 -3.469523e+001  7.000000e+000
      vertex  1.843909e+000 -3.620000e+001 -4.000000e+000
      vertex  1.843909e+000 -3.620000e+001  7.000000e+000
    endloop
  endfacet
  facet normal  9.761203e-001  2.172309e-001  0.000000e+000
    outer loop
      vertex -2.178788e+000 -3.469523e+001 -4.000000e+000
      vertex -1.843909e+000 -3.620000e+001  7.000000e+000
      vertex -1.843909e+000 -3.620000e+001 -4.000000e+000
    endloop
  endfacet
  facet normal  9.761203e-001  2.172309e-001  -0.000000e+000
    outer loop
      vertex -1.843909e+000 -3.620000e+001  7.000000e+000
      vertex -2.178788e+000 -3.469523e+001 -4.000000e+000
      vertex -2.178788e+000 -3.469523e+001  7.000000e+000
    endloop
  endfacet
  facet normal  8.790492e-001 -4.767313e-001  0.000000e+000
    outer loop
      vertex -2.178788e+000 -3.469523e+001  7.000000e+000
      vertex -2.178788e+000 -3.469523e+001 -4.000000e+000
      vertex -1.443868e+000 -3.334011e+001 -4.000000e+000
    endloop
  endfacet
  facet normal  8.790492e-001 -4.767313e-001  0.000000e+000
    outer loop
      vertex -2.178788e+000 -3.469523e+001  7.000000e+000
      vertex -1.443868e+000 -3.334011e+001 -4.000000e+000
      vertex -1.443868e+000 -3.334011e+001  7.000000e+000
    endloop
  endfacet
  facet normal  3.503596e-001 -9.366152e-001  0.000000e+000
    outer loop
      vertex -1.443868e+000 -3.334011e+001  7.000000e+000
      vertex -1.443868e+000 -3.334011e+001 -4.000000e+000
      vertex  6.202467e-015 -3.280000e+001 -4.000000e+000
    endloop
  endfacet
  facet normal  3.503596e-001 -9.366152e-001  1.798732e-016
    outer loop
      vertex -1.443868e+000 -3.334011e+001  7.000000e+000
      vertex  6.202467e-015 -3.280000e+001 -4.000000e+000
      vertex  5.551115e-016 -3.280000e+001  7.000000e+000
    endloop
  endfacet
  facet normal  0.000000e+000  9.999999e-001  0.000000e+000
    outer loop
      vertex  1.843909e+000 -3.620000e+001 -4.000000e+000
      vertex -1.843909e+000 -3.620000e+001 -4.000000e+000
      vertex  1.843909e+000 -3.620000e+001  7.000000e+000
    endloop
  endfacet
  facet normal  0.000000e+000  9.999999e-001  0.000000e+000
    outer loop
      vertex  1.843909e+000 -3.620000e+001  7.000000e+000
      vertex -1.843909e+000 -3.620000e+001 -4.000000e+000
      vertex -1.843909e+000 -3.620000e+001  7.000000e+000
    endloop
  endfacet
  facet normal  9.510566e-001 -3.090168e-001  0.000000e+000
    outer loop
      vertex  4.000000e+000 -3.500000e+001  5.000000e+000
      vertex  4.000000e+000 -3.500000e+001  7.000000e+000
      vertex  3.236068e+000 -3.735114e+001  5.000000e+000
    endloop
  endfacet
  facet normal  9.510566e-001 -3.090168e-001  0.000000e+000
    outer loop
      vertex  3.236068e+000 -3.735114e+001  5.000000e+000
      vertex  4.000000e+000 -3.500000e+001  7.000000e+000
      vertex  3.236068e+000 -3.735114e+001  7.000000e+000
    endloop
  endfacet
  facet normal  5.877847e-001 -8.090174e-001  0.000000e+000
    outer loop
      vertex  3.236068e+000 -3.735114e+001  5.000000e+000
      vertex  3.236068e+000 -3.735114e+001  7.000000e+000
      vertex  1.236068e+000 -3.880423e+001  5.000000e+000
    endloop
  endfacet
  facet normal  5.877847e-001 -8.090174e-001  0.000000e+000
    outer loop
      vertex  1.236068e+000 -3.880423e+001  5.000000e+000
      vertex  3.236068e+000 -3.735114e+001  7.000000e+000
      vertex  1.236068e+000 -3.880423e+001  7.000000e+000
    endloop
  endfacet
  facet normal  0.000000e+000 -1.000000e+000  -0.000000e+000
    outer loop
      vertex  1.236068e+000 -3.880423e+001  5.000000e+000
      vertex  1.236068e+000 -3.880423e+001  7.000000e+000
      vertex -1.236068e+000 -3.880423e+001  5.000000e+000
    endloop
  endfacet
  facet normal  0.000000e+000 -1.000000e+000  0.000000e+000
    outer loop
      vertex -1.236068e+000 -3.880423e+001  5.000000e+000
      vertex  1.236068e+000 -3.880423e+001  7.000000e+000
      vertex -1.236068e+000 -3.880423e+001  7.000000e+000
    endloop
  endfacet
  facet normal -5.877847e-001 -8.090174e-001  -0.000000e+000
    outer loop
      vertex -1.236068e+000 -3.880423e+001  5.000000e+000
      vertex -1.236068e+000 -3.880423e+001  7.000000e+000
      vertex -3.236068e+000 -3.735114e+001  5.000000e+000
    endloop
  endfacet
  facet normal -5.877847e-001 -8.090174e-001  0.000000e+000
    outer loop
      vertex -3.236068e+000 -3.735114e+001  5.000000e+000
      vertex -1.236068e+000 -3.880423e+001  7.000000e+000
      vertex -3.236068e+000 -3.735114e+001  7.000000e+000
    endloop
  endfacet
  facet normal -9.510566e-001 -3.090168e-001  -0.000000e+000
    outer loop
      vertex -3.236068e+000 -3.735114e+001  5.000000e+000
      vertex -3.236068e+000 -3.735114e+001  7.000000e+000
      vertex -4.000000e+000 -3.500000e+001  5.000000e+000
    endloop
  endfacet
  facet normal -9.510566e-001 -3.090168e-001  0.000000e+000
    outer loop
      vertex -4.000000e+000 -3.500000e+001  5.000000e+000
      vertex -3.236068e+000 -3.735114e+001  7.000000e+000
      vertex -4.000000e+000 -3.500000e+001  7.000000e+000
    endloop
  endfacet
  facet normal -9.510564e-001  3.090172e-001  0.000000e+000
    outer loop
      vertex -4.000000e+000 -3.500000e+001  5.000000e+000
      vertex -4.000000e+000 -3.500000e+001  7.000000e+000
      vertex -3.236068e+000 -3.264886e+001  5.000000e+000
    endloop
  endfacet
  facet normal -9.510564e-001  3.090172e-001  0.000000e+000
    outer loop
      vertex -3.236068e+000 -3.264886e+001  5.000000e+000
      vertex -4.000000e+000 -3.500000e+001  7.000000e+000
      vertex -3.236068e+000 -3.264886e+001  7.000000e+000
    endloop
  endfacet
  facet normal -5.877857e-001  8.090166e-001  0.000000e+000
    outer loop
      vertex -3.236068e+000 -3.264886e+001  5.000000e+000
      vertex -3.236068e+000 -3.264886e+001  7.000000e+000
      vertex -1.236068e+000 -3.119577e+001  5.000000e+000
    endloop
  endfacet
  facet normal -5.877857e-001  8.090166e-001  0.000000e+000
    outer loop
      vertex -1.236068e+000 -3.119577e+001  5.000000e+000
      vertex -3.236068e+000 -3.264886e+001  7.000000e+000
      vertex -1.236068e+000 -3.119577e+001  7.000000e+000
    endloop
  endfacet
  facet normal  0.000000e+000  1.000000e+000  0.000000e+000
    outer loop
      vertex -1.236068e+000 -3.119577e+001  5.000000e+000
      vertex -1.236068e+000 -3.119577e+001  7.000000e+000
      vertex  1.236068e+000 -3.119577e+001  5.000000e+000
    endloop
  endfacet
  facet normal  0.000000e+000  1.000000e+000  -0.000000e+000
    outer loop
      vertex  1.236068e+000 -3.119577e+001  5.000000e+000
      vertex -1.236068e+000 -3.119577e+001  7.000000e+000
      vertex  1.236068e+000 -3.119577e+001  7.000000e+000
    endloop
  endfacet
  facet normal  5.877857e-001  8.090166e-001  0.000000e+000
    outer loop
      vertex  1.236068e+000 -3.119577e+001  5.000000e+000
      vertex  1.236068e+000 -3.119577e+001  7.000000e+000
      vertex  3.236068e+000 -3.264886e+001  5.000000e+000
    endloop
  endfacet
  facet normal  5.877857e-001  8.090166e-001  -0.000000e+000
    outer loop
      vertex  3.236068e+000 -3.264886e+001  5.000000e+000
      vertex  1.236068e+000 -3.119577e+001  7.000000e+000
      vertex  3.236068e+000 -3.264886e+001  7.000000e+000
    endloop
  endfacet
  facet normal  9.510564e-001  3.090172e-001  0.000000e+000
    outer loop
      vertex  3.236068e+000 -3.264886e+001  5.000000e+000
      vertex  3.236068e+000 -3.264886e+001  7.000000e+000
      vertex  4.000000e+000 -3.500000e+001  5.000000e+000
    endloop
  endfacet
  facet normal  9.510564e-001  3.090172e-001  -0.000000e+000
    outer loop
      vertex  4.000000e+000 -3.500000e+001  5.000000e+000
      vertex  3.236068e+000 -3.264886e+001  7.000000e+000
      vertex  4.000000e+000 -3.500000e+001  7.000000e+000
    endloop
  endfacet
  facet normal  0.000000e+000  1.000000e+000  0.000000e+000
    outer loop
      vertex -7.000000e+000 -3.420000e+001 -4.000000e+000
      vertex -7.000000e+000 -3.420000e+001  0.000000e+000
      vertex -3.919183e+000 -3.420000e+001 -4.000000e+000
    endloop
  endfacet
  facet normal  0.000000e+000  1.000000e+000  -0.000000e+000
    outer loop
      vertex -3.919183e+000 -3.420000e+001 -4.000000e+000
      vertex -7.000000e+000 -3.420000e+001  0.000000e+000
      vertex -3.919183e+000 -3.420000e+001  0.000000e+000
    endloop
  endfacet
  facet normal -1.000000e+000  0.000000e+000  0.000000e+000
    outer loop
      vertex -7.000000e+000 -3.620000e+001 -4.000000e+000
      vertex -7.000000e+000 -3.620000e+001  0.000000e+000
      vertex -7.000000e+000 -3.420000e+001 -4.000000e+000
    endloop
  endfacet
  facet normal -1.000000e+000  0.000000e+000  0.000000e+000
    outer loop
      vertex -7.000000e+000 -3.420000e+001 -4.000000e+000
      vertex -7.000000e+000 -3.620000e+001  0.000000e+000
      vertex -7.000000e+000 -3.420000e+001  0.000000e+000
    endloop
  endfacet
  facet normal  0.000000e+000  0.000000e+000 -9.999999e-001
    outer loop
      vertex -3.815757e+000 -3.620000e+001 -4.000000e+000
      vertex -7.000000e+000 -3.620000e+001 -4.000000e+000
      vertex -3.919183e+000 -3.420000e+001 -4.000000e+000
    endloop
  endfacet
  facet normal  -0.000000e+000  0.000000e+000 -1.000000e+000
    outer loop
      vertex -3.919183e+000 -3.420000e+001 -4.000000e+000
      vertex -7.000000e+000 -3.620000e+001 -4.000000e+000
      vertex -7.000000e+000 -3.420000e+001 -4.000000e+000
    endloop
  endfacet
  facet normal  0.000000e+000 -9.999999e-001  0.000000e+000
    outer loop
      vertex -7.000000e+000 -3.620000e+001  0.000000e+000
      vertex -7.000000e+000 -3.620000e+001 -4.000000e+000
      vertex -3.815757e+000 -3.620000e+001  0.000000e+000
    endloop
  endfacet
  facet normal  0.000000e+000 -9.999999e-001  -0.000000e+000
    outer loop
      vertex -3.815757e+000 -3.620000e+001  0.000000e+000
      vertex -7.000000e+000 -3.620000e+001 -4.000000e+000
      vertex -3.815757e+000 -3.620000e+001 -4.000000e+000
    endloop
  endfacet
  facet normal  5.071460e-001  8.618602e-001  0.000000e+000
    outer loop
      vertex  1.000000e+000 -3.112702e+001 -4.000000e+000
      vertex  1.000000e+000 -3.112702e+001  2.220446e-015
      vertex  2.900069e+000 -3.224508e+001 -4.000000e+000
    endloop
  endfacet
  facet normal  5.071460e-001  8.618602e-001  -0.000000e+000
    outer loop
      vertex  2.900069e+000 -3.224508e+001 -4.000000e+000
      vertex  1.000000e+000 -3.112702e+001  2.220446e-015
      vertex  2.900069e+000 -3.224508e+001  0.000000e+000
    endloop
  endfacet
  facet normal  8.867419e-001  4.622649e-001  0.000000e+000
    outer loop
      vertex  2.900069e+000 -3.224508e+001 -4.000000e+000
      vertex  2.900069e+000 -3.224508e+001  0.000000e+000
      vertex  3.919183e+000 -3.420000e+001 -4.000000e+000
    endloop
  endfacet
  facet normal  8.867419e-001  4.622649e-001  -0.000000e+000
    outer loop
      vertex  3.919183e+000 -3.420000e+001 -4.000000e+000
      vertex  2.900069e+000 -3.224508e+001  0.000000e+000
      vertex  3.919183e+000 -3.420000e+001  0.000000e+000
    endloop
  endfacet
  facet normal  8.482902e-001 -5.295317e-001  0.000000e+000
    outer loop
      vertex  3.815757e+000 -3.620000e+001 -4.000000e+000
      vertex  3.815757e+000 -3.620000e+001  0.000000e+000
      vertex  2.753922e+000 -3.790102e+001 -4.000000e+000
    endloop
  endfacet
  facet normal  8.482902e-001 -5.295317e-001  0.000000e+000
    outer loop
      vertex  2.753922e+000 -3.790102e+001 -4.000000e+000
      vertex  3.815757e+000 -3.620000e+001  0.000000e+000
      vertex  2.753922e+000 -3.790102e+001 -1.490116e-008
    endloop
  endfacet
  facet normal  4.847130e-001 -8.746732e-001  0.000000e+000
    outer loop
      vertex  2.753922e+000 -3.790102e+001 -4.000000e+000
      vertex  2.753922e+000 -3.790102e+001 -1.490116e-008
      vertex  1.000000e+000 -3.887298e+001 -4.000000e+000
    endloop
  endfacet
  facet normal  4.847130e-001 -8.746732e-001  0.000000e+000
    outer loop
      vertex  1.000000e+000 -3.887298e+001 -4.000000e+000
      vertex  2.753922e+000 -3.790102e+001 -1.490116e-008
      vertex  1.000000e+000 -3.887298e+001 -1.490116e-008
    endloop
  endfacet
  facet normal  0.000000e+000  1.000000e+000  0.000000e+000
    outer loop
      vertex  3.919183e+000 -3.420000e+001 -4.000000e+000
      vertex  3.919183e+000 -3.420000e+001  0.000000e+000
      vertex  7.000000e+000 -3.420000e+001 -4.000000e+000
    endloop
  endfacet
  facet normal  0.000000e+000  1.000000e+000  -0.000000e+000
    outer loop
      vertex  7.000000e+000 -3.420000e+001 -4.000000e+000
      vertex  3.919183e+000 -3.420000e+001  0.000000e+000
      vertex  7.000000e+000 -3.420000e+001  0.000000e+000
    endloop
  endfacet
  facet normal  1.000000e+000  0.000000e+000  0.000000e+000
    outer loop
      vertex  7.000000e+000 -3.620000e+001  0.000000e+000
      vertex  7.000000e+000 -3.620000e+001 -4.000000e+000
      vertex  7.000000e+000 -3.420000e+001  0.000000e+000
    endloop
  endfacet
  facet normal  1.000000e+000  0.000000e+000  0.000000e+000
    outer loop
      vertex  7.000000e+000 -3.420000e+001  0.000000e+000
      vertex  7.000000e+000 -3.620000e+001 -4.000000e+000
      vertex  7.000000e+000 -3.420000e+001 -4.000000e+000
    endloop
  endfacet
  facet normal  0.000000e+000 -9.999999e-001  0.000000e+000
    outer loop
      vertex  3.815757e+000 -3.620000e+001  0.000000e+000
      vertex  3.815757e+000 -3.620000e+001 -4.000000e+000
      vertex  7.000000e+000 -3.620000e+001  0.000000e+000
    endloop
  endfacet
  facet normal  0.000000e+000 -9.999999e-001  -0.000000e+000
    outer loop
      vertex  7.000000e+000 -3.620000e+001  0.000000e+000
      vertex  3.815757e+000 -3.620000e+001 -4.000000e+000
      vertex  7.000000e+000 -3.620000e+001 -4.000000e+000
    endloop
  endfacet
  facet normal -4.847130e-001 -8.746732e-001  -0.000000e+000
    outer loop
      vertex -1.000000e+000 -3.887298e+001 -4.000000e+000
      vertex -1.000000e+000 -3.887298e+001  2.220446e-015
      vertex -2.753922e+000 -3.790102e+001 -4.000000e+000
    endloop
  endfacet
  facet normal -4.847130e-001 -8.746732e-001  0.000000e+000
    outer loop
      vertex -2.753922e+000 -3.790102e+001 -4.000000e+000
      vertex -1.000000e+000 -3.887298e+001  2.220446e-015
      vertex -2.753922e+000 -3.790102e+001  0.000000e+000
    endloop
  endfacet
  facet normal -8.482902e-001 -5.295317e-001  -0.000000e+000
    outer loop
      vertex -2.753922e+000 -3.790102e+001 -4.000000e+000
      vertex -2.753922e+000 -3.790102e+001  0.000000e+000
      vertex -3.815757e+000 -3.620000e+001 -4.000000e+000
    endloop
  endfacet
  facet normal -8.482902e-001 -5.295317e-001  0.000000e+000
    outer loop
      vertex -3.815757e+000 -3.620000e+001 -4.000000e+000
      vertex -2.753922e+000 -3.790102e+001  0.000000e+000
      vertex -3.815757e+000 -3.620000e+001  0.000000e+000
    endloop
  endfacet
  facet normal  1.000000e+000  0.000000e+000  -0.000000e+000
    outer loop
      vertex  1.000000e+000 -5.400000e+001 -3.019973e-008
      vertex  1.000000e+000 -5.000000e+001 -4.000000e+000
      vertex  1.000000e+000 -3.887298e+001 -1.490116e-008
    endloop
  endfacet
  facet normal  1.000000e+000  0.000000e+000  0.000000e+000
    outer loop
      vertex  1.000000e+000 -3.887298e+001 -1.490116e-008
      vertex  1.000000e+000 -5.000000e+001 -4.000000e+000
      vertex  1.000000e+000 -3.887298e+001 -4.000000e+000
    endloop
  endfacet
  facet normal -8.867419e-001  4.622649e-001  0.000000e+000
    outer loop
      vertex -3.919183e+000 -3.420000e+001 -4.000000e+000
      vertex -3.919183e+000 -3.420000e+001  0.000000e+000
      vertex -2.900069e+000 -3.224508e+001 -4.000000e+000
    endloop
  endfacet
  facet normal -8.867419e-001  4.622649e-001  0.000000e+000
    outer loop
      vertex -2.900069e+000 -3.224508e+001 -4.000000e+000
      vertex -3.919183e+000 -3.420000e+001  0.000000e+000
      vertex -2.900069e+000 -3.224508e+001 -1.490116e-008
    endloop
  endfacet
  facet normal -5.071460e-001  8.618602e-001  0.000000e+000
    outer loop
      vertex -2.900069e+000 -3.224508e+001 -4.000000e+000
      vertex -2.900069e+000 -3.224508e+001 -1.490116e-008
      vertex -1.000000e+000 -3.112702e+001 -4.000000e+000
    endloop
  endfacet
  facet normal -5.071460e-001  8.618602e-001  0.000000e+000
    outer loop
      vertex -1.000000e+000 -3.112702e+001 -4.000000e+000
      vertex -2.900069e+000 -3.224508e+001 -1.490116e-008
      vertex -1.000000e+000 -3.112702e+001  2.220446e-015
    endloop
  endfacet
  facet normal  0.000000e+000  0.000000e+000 -9.999999e-001
    outer loop
      vertex -7.000000e+000 -3.620000e+001  0.000000e+000
      vertex -7.426136e+000 -3.605000e+001  0.000000e+000
      vertex -7.000000e+000 -3.420000e+001  0.000000e+000
    endloop
  endfacet
  facet normal  -0.000000e+000 -4.603617e-009 -1.000000e+000
    outer loop
      vertex -1.000000e+000 -5.400000e+001 -3.019973e-008
      vertex  1.000000e+000 -5.400000e+001 -3.019973e-008
      vertex  3.960606e+000 -6.056000e+001  0.000000e+000
    endloop
  endfacet
  facet normal -3.167775e-009 -6.999056e-009 -1.000000e+000
    outer loop
      vertex -1.000000e+000 -5.400000e+001 -3.019973e-008
      vertex  3.960606e+000 -6.056000e+001  0.000000e+000
      vertex  8.485281e-001 -5.915147e+001  0.000000e+000
    endloop
  endfacet
  facet normal -2.852226e-009 -6.885826e-009 -9.999999e-001
    outer loop
      vertex -1.000000e+000 -5.400000e+001 -3.019973e-008
      vertex  8.485281e-001 -5.915147e+001  0.000000e+000
      vertex -7.868025e-015 -5.880000e+001  0.000000e+000
    endloop
  endfacet
  facet normal  2.399065e-009 -5.791806e-009 -1.000000e+000
    outer loop
      vertex -1.000000e+000 -5.400000e+001 -3.019973e-008
      vertex -7.868025e-015 -5.880000e+001  0.000000e+000
      vertex -8.485281e-001 -5.915147e+001  0.000000e+000
    endloop
  endfacet
  facet normal -1.705801e-015 -7.852493e-015 -9.999999e-001
    outer loop
      vertex  8.069373e-015 -2.750000e+001  0.000000e+000
      vertex  3.111624e+000 -2.817594e+001  0.000000e+000
      vertex  1.000000e+000 -2.800000e+001  2.220446e-015
    endloop
  endfacet
  facet normal  -0.000000e+000 -4.440892e-015 -1.000000e+000
    outer loop
      vertex  8.069373e-015 -2.750000e+001  0.000000e+000
      vertex  1.000000e+000 -2.800000e+001  2.220446e-015
      vertex -1.000000e+000 -2.800000e+001  2.220446e-015
    endloop
  endfacet
  facet normal  1.705801e-015 -7.852494e-015 -1.000000e+000
    outer loop
      vertex  8.069373e-015 -2.750000e+001  0.000000e+000
      vertex -1.000000e+000 -2.800000e+001  2.220446e-015
      vertex -3.111624e+000 -2.817594e+001  0.000000e+000
    endloop
  endfacet
  facet normal  0.000000e+000  0.000000e+000 -9.999999e-001
    outer loop
      vertex  7.426136e+000 -3.605000e+001  0.000000e+000
      vertex  3.960606e+000 -6.056000e+001  0.000000e+000
      vertex  7.000000e+000 -3.620000e+001  0.000000e+000
    endloop
  endfacet
  facet normal  0.000000e+000  0.000000e+000 -9.999999e-001
    outer loop
      vertex  7.426136e+000 -3.605000e+001  0.000000e+000
      vertex  7.000000e+000 -3.620000e+001  0.000000e+000
      vertex  7.000000e+000 -3.420000e+001  0.000000e+000
    endloop
  endfacet
  facet normal  0.000000e+000  0.000000e+000 -9.999999e-001
    outer loop
      vertex  7.426136e+000 -3.605000e+001  0.000000e+000
      vertex  7.000000e+000 -3.420000e+001  0.000000e+000
      vertex  7.192481e+000 -3.287439e+001  0.000000e+000
    endloop
  endfacet
  facet normal  0.000000e+000  0.000000e+000 -9.999999e-001
    outer loop
      vertex  3.960606e+000 -6.056000e+001  0.000000e+000
      vertex  3.026670e+000 -6.261520e+001  0.000000e+000
      vertex -6.563219e-015 -6.120000e+001  0.000000e+000
    endloop
  endfacet
  facet normal  0.000000e+000  0.000000e+000 -1.000000e+000
    outer loop
      vertex  3.960606e+000 -6.056000e+001  0.000000e+000
      vertex -6.563219e-015 -6.120000e+001  0.000000e+000
      vertex  8.485281e-001 -6.084853e+001  0.000000e+000
    endloop
  endfacet
  facet normal  0.000000e+000  0.000000e+000 -1.000000e+000
    outer loop
      vertex  3.960606e+000 -6.056000e+001  0.000000e+000
      vertex  8.485281e-001 -6.084853e+001  0.000000e+000
      vertex  1.200000e+000 -6.000000e+001  0.000000e+000
    endloop
  endfacet
  facet normal  0.000000e+000  0.000000e+000 -1.000000e+000
    outer loop
      vertex  3.960606e+000 -6.056000e+001  0.000000e+000
      vertex  1.200000e+000 -6.000000e+001  0.000000e+000
      vertex  8.485281e-001 -5.915147e+001  0.000000e+000
    endloop
  endfacet
  facet normal  0.000000e+000  0.000000e+000 -1.000000e+000
    outer loop
      vertex -3.960606e+000 -6.056000e+001  0.000000e+000
      vertex -7.426136e+000 -3.605000e+001  0.000000e+000
      vertex -7.000000e+000 -3.620000e+001  0.000000e+000
    endloop
  endfacet
  facet normal  0.000000e+000  0.000000e+000 -1.000000e+000
    outer loop
      vertex -3.960606e+000 -6.056000e+001  0.000000e+000
      vertex -7.000000e+000 -3.620000e+001  0.000000e+000
      vertex -3.815757e+000 -3.620000e+001  0.000000e+000
    endloop
  endfacet
  facet normal  0.000000e+000  -0.000000e+000 -9.999999e-001
    outer loop
      vertex -3.960606e+000 -6.056000e+001  0.000000e+000
      vertex -3.815757e+000 -3.620000e+001  0.000000e+000
      vertex -2.753922e+000 -3.790102e+001  0.000000e+000
    endloop
  endfacet
  facet normal  1.229698e-015 -6.548648e-017 -1.000000e+000
    outer loop
      vertex -3.960606e+000 -6.056000e+001  0.000000e+000
      vertex -2.753922e+000 -3.790102e+001  0.000000e+000
      vertex -1.000000e+000 -3.887298e+001  2.220446e-015
    endloop
  endfacet
  facet normal -1.462410e-008  1.996411e-009 -1.000000e+000
    outer loop
      vertex -3.960606e+000 -6.056000e+001  0.000000e+000
      vertex -1.000000e+000 -3.887298e+001  2.220446e-015
      vertex -1.000000e+000 -5.400000e+001 -3.019973e-008
    endloop
  endfacet
  facet normal  2.618454e-009 -5.785356e-009 -1.000000e+000
    outer loop
      vertex -3.960606e+000 -6.056000e+001  0.000000e+000
      vertex -1.000000e+000 -5.400000e+001 -3.019973e-008
      vertex -8.485281e-001 -5.915147e+001  0.000000e+000
    endloop
  endfacet
  facet normal  0.000000e+000  0.000000e+000 -1.000000e+000
    outer loop
      vertex -3.960606e+000 -6.056000e+001  0.000000e+000
      vertex -8.485281e-001 -5.915147e+001  0.000000e+000
      vertex -1.200000e+000 -6.000000e+001  0.000000e+000
    endloop
  endfacet
  facet normal  0.000000e+000  -0.000000e+000 -1.000000e+000
    outer loop
      vertex -3.960606e+000 -6.056000e+001  0.000000e+000
      vertex -1.200000e+000 -6.000000e+001  0.000000e+000
      vertex -8.485281e-001 -6.084853e+001  0.000000e+000
    endloop
  endfacet
  facet normal  -0.000000e+000  -0.000000e+000 -1.000000e+000
    outer loop
      vertex -3.960606e+000 -6.056000e+001  0.000000e+000
      vertex -8.485281e-001 -6.084853e+001  0.000000e+000
      vertex -6.563219e-015 -6.120000e+001  0.000000e+000
    endloop
  endfacet
  facet normal  -0.000000e+000  0.000000e+000 -9.999999e-001
    outer loop
      vertex -3.960606e+000 -6.056000e+001  0.000000e+000
      vertex -6.563219e-015 -6.120000e+001  0.000000e+000
      vertex -3.026670e+000 -6.261520e+001  0.000000e+000
    endloop
  endfacet
  facet normal  4.241519e-016 -2.324098e-016 -1.000000e+000
    outer loop
      vertex -7.192481e+000 -3.287439e+001  0.000000e+000
      vertex -5.662376e+000 -3.008192e+001  0.000000e+000
      vertex -1.000000e+000 -3.112702e+001  2.220446e-015
    endloop
  endfacet
  facet normal -7.225826e-009  2.560748e-008 -1.000000e+000
    outer loop
      vertex -7.192481e+000 -3.287439e+001  0.000000e+000
      vertex -1.000000e+000 -3.112702e+001  2.220446e-015
      vertex -2.900069e+000 -3.224508e+001 -1.490116e-008
    endloop
  endfacet
  facet normal -2.548797e-009 -6.293677e-009 -1.000000e+000
    outer loop
      vertex -7.192481e+000 -3.287439e+001  0.000000e+000
      vertex -2.900069e+000 -3.224508e+001 -1.490116e-008
      vertex -3.919183e+000 -3.420000e+001  0.000000e+000
    endloop
  endfacet
  facet normal  0.000000e+000  0.000000e+000 -1.000000e+000
    outer loop
      vertex -7.192481e+000 -3.287439e+001  0.000000e+000
      vertex -3.919183e+000 -3.420000e+001  0.000000e+000
      vertex -7.000000e+000 -3.420000e+001  0.000000e+000
    endloop
  endfacet
  facet normal  -0.000000e+000  0.000000e+000 -9.999999e-001
    outer loop
      vertex -7.192481e+000 -3.287439e+001  0.000000e+000
      vertex -7.000000e+000 -3.420000e+001  0.000000e+000
      vertex -7.426136e+000 -3.605000e+001  0.000000e+000
    endloop
  endfacet
  facet normal  1.244142e-008  1.011341e-009 -1.000000e+000
    outer loop
      vertex  3.960606e+000 -6.056000e+001  0.000000e+000
      vertex  1.000000e+000 -5.400000e+001 -3.019973e-008
      vertex  1.000000e+000 -3.887298e+001 -1.490116e-008
    endloop
  endfacet
  facet normal  3.539871e-010 -6.387759e-010 -1.000000e+000
    outer loop
      vertex  3.960606e+000 -6.056000e+001  0.000000e+000
      vertex  1.000000e+000 -3.887298e+001 -1.490116e-008
      vertex  2.753922e+000 -3.790102e+001 -1.490116e-008
    endloop
  endfacet
  facet normal  1.390100e-008  8.265804e-011 -9.999999e-001
    outer loop
      vertex  3.960606e+000 -6.056000e+001  0.000000e+000
      vertex  2.753922e+000 -3.790102e+001 -1.490116e-008
      vertex  3.815757e+000 -3.620000e+001  0.000000e+000
    endloop
  endfacet
  facet normal  0.000000e+000  0.000000e+000 -1.000000e+000
    outer loop
      vertex  3.960606e+000 -6.056000e+001  0.000000e+000
      vertex  3.815757e+000 -3.620000e+001  0.000000e+000
      vertex  7.000000e+000 -3.620000e+001  0.000000e+000
    endloop
  endfacet
  facet normal  0.000000e+000  0.000000e+000 -1.000000e+000
    outer loop
      vertex -3.026670e+000 -6.261520e+001  0.000000e+000
      vertex -6.563219e-015 -6.120000e+001  0.000000e+000
      vertex -1.128725e+000 -6.383744e+001  0.000000e+000
    endloop
  endfacet
  facet normal  0.000000e+000  0.000000e+000 -1.000000e+000
    outer loop
      vertex -1.128725e+000 -6.383744e+001  0.000000e+000
      vertex -6.563219e-015 -6.120000e+001  0.000000e+000
      vertex  3.026670e+000 -6.261520e+001  0.000000e+000
    endloop
  endfacet
  facet normal  0.000000e+000  0.000000e+000 -1.000000e+000
    outer loop
      vertex -1.128725e+000 -6.383744e+001  0.000000e+000
      vertex  3.026670e+000 -6.261520e+001  0.000000e+000
      vertex  1.128725e+000 -6.383744e+001  0.000000e+000
    endloop
  endfacet
  facet normal  1.183502e-015 -1.583865e-015 -1.000000e+000
    outer loop
      vertex -3.111624e+000 -2.817594e+001  0.000000e+000
      vertex -1.000000e+000 -2.800000e+001  2.220446e-015
      vertex -5.662376e+000 -3.008192e+001  0.000000e+000
    endloop
  endfacet
  facet normal  4.762478e-016  0.000000e+000 -1.000000e+000
    outer loop
      vertex -5.662376e+000 -3.008192e+001  0.000000e+000
      vertex -1.000000e+000 -2.800000e+001  2.220446e-015
      vertex -1.000000e+000 -3.112702e+001  2.220446e-015
    endloop
  endfacet
  facet normal -1.183502e-015 -1.583865e-015 -1.000000e+000
    outer loop
      vertex  5.662376e+000 -3.008192e+001  0.000000e+000
      vertex  1.000000e+000 -2.800000e+001  2.220446e-015
      vertex  3.111624e+000 -2.817594e+001  0.000000e+000
    endloop
  endfacet
  facet normal -4.762478e-016  0.000000e+000 -1.000000e+000
    outer loop
      vertex  1.000000e+000 -2.800000e+001  2.220446e-015
      vertex  5.662376e+000 -3.008192e+001  0.000000e+000
      vertex  1.000000e+000 -3.112702e+001  2.220446e-015
    endloop
  endfacet
  facet normal -4.241519e-016 -2.324098e-016 -1.000000e+000
    outer loop
      vertex  1.000000e+000 -3.112702e+001  2.220446e-015
      vertex  5.662376e+000 -3.008192e+001  0.000000e+000
      vertex  7.192481e+000 -3.287439e+001  0.000000e+000
    endloop
  endfacet
  facet normal  3.877818e-016  2.644988e-015 -1.000000e+000
    outer loop
      vertex  1.000000e+000 -3.112702e+001  2.220446e-015
      vertex  7.192481e+000 -3.287439e+001  0.000000e+000
      vertex  2.900069e+000 -3.224508e+001  0.000000e+000
    endloop
  endfacet
  facet normal  0.000000e+000  0.000000e+000 -1.000000e+000
    outer loop
      vertex  2.900069e+000 -3.224508e+001  0.000000e+000
      vertex  7.192481e+000 -3.287439e+001  0.000000e+000
      vertex  7.000000e+000 -3.420000e+001  0.000000e+000
    endloop
  endfacet
  facet normal  0.000000e+000  0.000000e+000 -1.000000e+000
    outer loop
      vertex  2.900069e+000 -3.224508e+001  0.000000e+000
      vertex  7.000000e+000 -3.420000e+001  0.000000e+000
      vertex  3.919183e+000 -3.420000e+001  0.000000e+000
    endloop
  endfacet
  facet normal  0.000000e+000  1.000000e+000  0.000000e+000
    outer loop
      vertex -1.000000e+000 -2.800000e+001 -4.000000e+000
      vertex -1.000000e+000 -2.800000e+001  2.220446e-015
      vertex  1.000000e+000 -2.800000e+001 -4.000000e+000
    endloop
  endfacet
  facet normal  0.000000e+000  1.000000e+000  -0.000000e+000
    outer loop
      vertex  1.000000e+000 -2.800000e+001 -4.000000e+000
      vertex -1.000000e+000 -2.800000e+001  2.220446e-015
      vertex  1.000000e+000 -2.800000e+001  2.220446e-015
    endloop
  endfacet
  facet normal -1.000000e+000  0.000000e+000  0.000000e+000
    outer loop
      vertex -1.000000e+000 -3.112702e+001 -4.000000e+000
      vertex -1.000000e+000 -3.112702e+001  2.220446e-015
      vertex -1.000000e+000 -2.800000e+001 -4.000000e+000
    endloop
  endfacet
  facet normal -1.000000e+000  0.000000e+000  0.000000e+000
    outer loop
      vertex -1.000000e+000 -2.800000e+001 -4.000000e+000
      vertex -1.000000e+000 -3.112702e+001  2.220446e-015
      vertex -1.000000e+000 -2.800000e+001  2.220446e-015
    endloop
  endfacet
  facet normal  1.000000e+000  0.000000e+000  0.000000e+000
    outer loop
      vertex  1.000000e+000 -3.112702e+001  2.220446e-015
      vertex  1.000000e+000 -3.112702e+001 -4.000000e+000
      vertex  1.000000e+000 -2.800000e+001  2.220446e-015
    endloop
  endfacet
  facet normal  1.000000e+000  0.000000e+000  0.000000e+000
    outer loop
      vertex  1.000000e+000 -2.800000e+001  2.220446e-015
      vertex  1.000000e+000 -3.112702e+001 -4.000000e+000
      vertex  1.000000e+000 -2.800000e+001 -4.000000e+000
    endloop
  endfacet
  facet normal -1.000000e+000  0.000000e+000  0.000000e+000
    outer loop
      vertex -1.000000e+000 -5.000000e+001 -4.000000e+000
      vertex -1.000000e+000 -5.400000e+001 -3.019973e-008
      vertex -1.000000e+000 -3.887298e+001 -4.000000e+000
    endloop
  endfacet
  facet normal -1.000000e+000  0.000000e+000  0.000000e+000
    outer loop
      vertex -1.000000e+000 -3.887298e+001 -4.000000e+000
      vertex -1.000000e+000 -5.400000e+001 -3.019973e-008
      vertex -1.000000e+000 -3.887298e+001  2.220446e-015
    endloop
  endfacet
  facet normal  0.000000e+000  0.000000e+000 -1.000000e+000
    outer loop
      vertex  2.900069e+000 -3.224508e+001 -4.000000e+000
      vertex  6.202467e-015 -3.280000e+001 -4.000000e+000
      vertex  1.000000e+000 -3.112702e+001 -4.000000e+000
    endloop
  endfacet
  facet normal  0.000000e+000  -0.000000e+000 -1.000000e+000
    outer loop
      vertex  6.202467e-015 -3.280000e+001 -4.000000e+000
      vertex  1.000000e+000 -2.800000e+001 -4.000000e+000
      vertex  1.000000e+000 -3.112702e+001 -4.000000e+000
    endloop
  endfacet
  facet normal  -0.000000e+000  0.000000e+000 -1.000000e+000
    outer loop
      vertex -1.843909e+000 -3.620000e+001 -4.000000e+000
      vertex  1.843909e+000 -3.620000e+001 -4.000000e+000
      vertex  1.000000e+000 -3.887298e+001 -4.000000e+000
    endloop
  endfacet
  facet normal  0.000000e+000  0.000000e+000 -9.999999e-001
    outer loop
      vertex -1.843909e+000 -3.620000e+001 -4.000000e+000
      vertex  1.000000e+000 -3.887298e+001 -4.000000e+000
      vertex -1.000000e+000 -3.887298e+001 -4.000000e+000
    endloop
  endfacet
  facet normal  0.000000e+000  0.000000e+000 -1.000000e+000
    outer loop
      vertex -1.843909e+000 -3.620000e+001 -4.000000e+000
      vertex -1.000000e+000 -3.887298e+001 -4.000000e+000
      vertex -2.753922e+000 -3.790102e+001 -4.000000e+000
    endloop
  endfacet
  facet normal  0.000000e+000  0.000000e+000 -1.000000e+000
    outer loop
      vertex -1.843909e+000 -3.620000e+001 -4.000000e+000
      vertex -2.753922e+000 -3.790102e+001 -4.000000e+000
      vertex -3.815757e+000 -3.620000e+001 -4.000000e+000
    endloop
  endfacet
  facet normal  0.000000e+000  0.000000e+000 -9.999999e-001
    outer loop
      vertex -1.843909e+000 -3.620000e+001 -4.000000e+000
      vertex -3.815757e+000 -3.620000e+001 -4.000000e+000
      vertex -3.919183e+000 -3.420000e+001 -4.000000e+000
    endloop
  endfacet
  facet normal  0.000000e+000  0.000000e+000 -1.000000e+000
    outer loop
      vertex -1.843909e+000 -3.620000e+001 -4.000000e+000
      vertex -3.919183e+000 -3.420000e+001 -4.000000e+000
      vertex -2.178788e+000 -3.469523e+001 -4.000000e+000
    endloop
  endfacet
  facet normal  -0.000000e+000  0.000000e+000 -1.000000e+000
    outer loop
      vertex  3.919183e+000 -3.420000e+001 -4.000000e+000
      vertex  7.000000e+000 -3.420000e+001 -4.000000e+000
      vertex  2.178788e+000 -3.469523e+001 -4.000000e+000
    endloop
  endfacet
  facet normal  0.000000e+000  0.000000e+000 -1.000000e+000
    outer loop
      vertex  3.919183e+000 -3.420000e+001 -4.000000e+000
      vertex  2.178788e+000 -3.469523e+001 -4.000000e+000
      vertex  1.443868e+000 -3.334011e+001 -4.000000e+000
    endloop
  endfacet
  facet normal  0.000000e+000  0.000000e+000 -1.000000e+000
    outer loop
      vertex  3.919183e+000 -3.420000e+001 -4.000000e+000
      vertex  1.443868e+000 -3.334011e+001 -4.000000e+000
      vertex  6.202467e-015 -3.280000e+001 -4.000000e+000
    endloop
  endfacet
  facet normal  0.000000e+000  0.000000e+000 -1.000000e+000
    outer loop
      vertex  3.919183e+000 -3.420000e+001 -4.000000e+000
      vertex  6.202467e-015 -3.280000e+001 -4.000000e+000
      vertex  2.900069e+000 -3.224508e+001 -4.000000e+000
    endloop
  endfacet
  facet normal  0.000000e+000  0.000000e+000 -1.000000e+000
    outer loop
      vertex  2.178788e+000 -3.469523e+001 -4.000000e+000
      vertex  3.815757e+000 -3.620000e+001 -4.000000e+000
      vertex  1.843909e+000 -3.620000e+001 -4.000000e+000
    endloop
  endfacet
  facet normal  0.000000e+000  0.000000e+000 -1.000000e+000
    outer loop
      vertex  1.843909e+000 -3.620000e+001 -4.000000e+000
      vertex  3.815757e+000 -3.620000e+001 -4.000000e+000
      vertex  2.753922e+000 -3.790102e+001 -4.000000e+000
    endloop
  endfacet
  facet normal  -0.000000e+000  0.000000e+000 -1.000000e+000
    outer loop
      vertex  1.843909e+000 -3.620000e+001 -4.000000e+000
      vertex  2.753922e+000 -3.790102e+001 -4.000000e+000
      vertex  1.000000e+000 -3.887298e+001 -4.000000e+000
    endloop
  endfacet
  facet normal  -0.000000e+000  0.000000e+000 -1.000000e+000
    outer loop
      vertex -1.000000e+000 -3.887298e+001 -4.000000e+000
      vertex  1.000000e+000 -3.887298e+001 -4.000000e+000
      vertex -1.000000e+000 -5.000000e+001 -4.000000e+000
    endloop
  endfacet
  facet normal  0.000000e+000  0.000000e+000 -1.000000e+000
    outer loop
      vertex -1.000000e+000 -5.000000e+001 -4.000000e+000
      vertex  1.000000e+000 -3.887298e+001 -4.000000e+000
      vertex  1.000000e+000 -5.000000e+001 -4.000000e+000
    endloop
  endfacet
  facet normal  0.000000e+000  -0.000000e+000 -1.000000e+000
    outer loop
      vertex -2.900069e+000 -3.224508e+001 -4.000000e+000
      vertex -1.000000e+000 -3.112702e+001 -4.000000e+000
      vertex  6.202467e-015 -3.280000e+001 -4.000000e+000
    endloop
  endfacet
  facet normal  0.000000e+000  0.000000e+000 -1.000000e+000
    outer loop
      vertex  6.202467e-015 -3.280000e+001 -4.000000e+000
      vertex -1.000000e+000 -3.112702e+001 -4.000000e+000
      vertex -1.000000e+000 -2.800000e+001 -4.000000e+000
    endloop
  endfacet
  facet normal  0.000000e+000  0.000000e+000 -1.000000e+000
    outer loop
      vertex  6.202467e-015 -3.280000e+001 -4.000000e+000
      vertex -1.000000e+000 -2.800000e+001 -4.000000e+000
      vertex  1.000000e+000 -2.800000e+001 -4.000000e+000
    endloop
  endfacet
  facet normal  0.000000e+000  0.000000e+000 -1.000000e+000
    outer loop
      vertex -2.178788e+000 -3.469523e+001 -4.000000e+000
      vertex -3.919183e+000 -3.420000e+001 -4.000000e+000
      vertex -1.443868e+000 -3.334011e+001 -4.000000e+000
    endloop
  endfacet
  facet normal  -0.000000e+000  0.000000e+000 -1.000000e+000
    outer loop
      vertex -1.443868e+000 -3.334011e+001 -4.000000e+000
      vertex -3.919183e+000 -3.420000e+001 -4.000000e+000
      vertex -2.900069e+000 -3.224508e+001 -4.000000e+000
    endloop
  endfacet
  facet normal  0.000000e+000  0.000000e+000 -1.000000e+000
    outer loop
      vertex -1.443868e+000 -3.334011e+001 -4.000000e+000
      vertex -2.900069e+000 -3.224508e+001 -4.000000e+000
      vertex  6.202467e-015 -3.280000e+001 -4.000000e+000
    endloop
  endfacet
  facet normal  0.000000e+000  0.000000e+000 -1.000000e+000
    outer loop
      vertex  2.178788e+000 -3.469523e+001 -4.000000e+000
      vertex  7.000000e+000 -3.420000e+001 -4.000000e+000
      vertex  3.815757e+000 -3.620000e+001 -4.000000e+000
    endloop
  endfacet
  facet normal  0.000000e+000  0.000000e+000 -9.999999e-001
    outer loop
      vertex  3.815757e+000 -3.620000e+001 -4.000000e+000
      vertex  7.000000e+000 -3.420000e+001 -4.000000e+000
      vertex  7.000000e+000 -3.620000e+001 -4.000000e+000
    endloop
  endfacet
  facet normal  0.000000e+000 -7.071068e-001 -7.071068e-001
    outer loop
      vertex  1.000000e+000 -5.400000e+001 -3.019973e-008
      vertex -1.000000e+000 -5.400000e+001 -3.019973e-008
      vertex  1.000000e+000 -5.000000e+001 -4.000000e+000
    endloop
  endfacet
  facet normal  -0.000000e+000 -7.071068e-001 -7.071068e-001
    outer loop
      vertex  1.000000e+000 -5.000000e+001 -4.000000e+000
      vertex -1.000000e+000 -5.400000e+001 -3.019973e-008
      vertex -1.000000e+000 -5.000000e+001 -4.000000e+000
    endloop
  endfacet
  facet normal  0.000000e+000  0.000000e+000  1.000000e+000
    outer loop
      vertex  2.585463e+000 -5.600000e+001  3.000000e+000
      vertex  5.445833e+000 -3.577000e+001  3.000000e+000
      vertex  4.485136e+000 -3.818333e+001  3.000000e+000
    endloop
  endfacet
  facet normal  0.000000e+000  0.000000e+000  9.999999e-001
    outer loop
      vertex  2.585463e+000 -5.600000e+001  3.000000e+000
      vertex  4.485136e+000 -3.818333e+001  3.000000e+000
      vertex  2.524055e+000 -3.988663e+001  3.000000e+000
    endloop
  endfacet
  facet normal  0.000000e+000  0.000000e+000  1.000000e+000
    outer loop
      vertex  2.585463e+000 -5.600000e+001  3.000000e+000
      vertex  2.524055e+000 -3.988663e+001  3.000000e+000
      vertex  6.788838e-008 -4.050000e+001  3.000000e+000
    endloop
  endfacet
  facet normal  0.000000e+000  0.000000e+000  9.999999e-001
    outer loop
      vertex  2.585463e+000 -5.600000e+001  3.000000e+000
      vertex  6.788838e-008 -4.050000e+001  3.000000e+000
      vertex -2.585463e+000 -5.600000e+001  3.000000e+000
    endloop
  endfacet
  facet normal  0.000000e+000  0.000000e+000  1.000000e+000
    outer loop
      vertex -2.585463e+000 -5.600000e+001  3.000000e+000
      vertex  6.788838e-008 -4.050000e+001  3.000000e+000
      vertex -2.524055e+000 -3.988663e+001  3.000000e+000
    endloop
  endfacet
  facet normal  0.000000e+000  0.000000e+000  1.000000e+000
    outer loop
      vertex -2.585463e+000 -5.600000e+001  3.000000e+000
      vertex -2.524055e+000 -3.988663e+001  3.000000e+000
      vertex -4.485135e+000 -3.818333e+001  3.000000e+000
    endloop
  endfacet
  facet normal  0.000000e+000  0.000000e+000  1.000000e+000
    outer loop
      vertex -2.585463e+000 -5.600000e+001  3.000000e+000
      vertex -4.485135e+000 -3.818333e+001  3.000000e+000
      vertex -5.445833e+000 -3.577000e+001  3.000000e+000
    endloop
  endfacet
  facet normal  0.000000e+000  1.000000e+000  -0.000000e+000
    outer loop
      vertex  2.585463e+000 -5.600000e+001  5.000000e+000
      vertex  2.585463e+000 -5.600000e+001  3.000000e+000
      vertex -2.585463e+000 -5.600000e+001  5.000000e+000
    endloop
  endfacet
  facet normal  0.000000e+000  1.000000e+000  0.000000e+000
    outer loop
      vertex -2.585463e+000 -5.600000e+001  5.000000e+000
      vertex  2.585463e+000 -5.600000e+001  3.000000e+000
      vertex -2.585463e+000 -5.600000e+001  3.000000e+000
    endloop
  endfacet
  facet normal  9.901515e-001  1.400000e-001  -0.000000e+000
    outer loop
      vertex -2.585463e+000 -5.600000e+001  5.000000e+000
      vertex -2.585463e+000 -5.600000e+001  3.000000e+000
      vertex -5.445833e+000 -3.577000e+001  5.000000e+000
    endloop
  endfacet
  facet normal  9.901515e-001  1.400000e-001  0.000000e+000
    outer loop
      vertex -5.445833e+000 -3.577000e+001  5.000000e+000
      vertex -2.585463e+000 -5.600000e+001  3.000000e+000
      vertex -5.445833e+000 -3.577000e+001  3.000000e+000
    endloop
  endfacet
  facet normal -9.290904e-001 -3.698528e-001  0.000000e+000
    outer loop
      vertex -5.445833e+000 -3.577000e+001  5.000000e+000
      vertex -5.445833e+000 -3.577000e+001  3.000000e+000
      vertex -4.485135e+000 -3.818333e+001  5.000000e+000
    endloop
  endfacet
  facet normal -9.290904e-001 -3.698528e-001  -0.000000e+000
    outer loop
      vertex -4.485135e+000 -3.818333e+001  5.000000e+000
      vertex -5.445833e+000 -3.577000e+001  3.000000e+000
      vertex -4.485135e+000 -3.818333e+001  3.000000e+000
    endloop
  endfacet
  facet normal -6.557440e-001 -7.549834e-001  0.000000e+000
    outer loop
      vertex -4.485135e+000 -3.818333e+001  5.000000e+000
      vertex -4.485135e+000 -3.818333e+001  3.000000e+000
      vertex -2.524055e+000 -3.988663e+001  5.000000e+000
    endloop
  endfacet
  facet normal -6.557440e-001 -7.549834e-001  -0.000000e+000
    outer loop
      vertex -2.524055e+000 -3.988663e+001  5.000000e+000
      vertex -4.485135e+000 -3.818333e+001  3.000000e+000
      vertex -2.524055e+000 -3.988663e+001  3.000000e+000
    endloop
  endfacet
  facet normal -2.361370e-001 -9.717198e-001  0.000000e+000
    outer loop
      vertex -2.524055e+000 -3.988663e+001  5.000000e+000
      vertex -2.524055e+000 -3.988663e+001  3.000000e+000
      vertex  6.788838e-008 -4.050000e+001  5.000000e+000
    endloop
  endfacet
  facet normal -2.361370e-001 -9.717198e-001  -0.000000e+000
    outer loop
      vertex  6.788838e-008 -4.050000e+001  5.000000e+000
      vertex -2.524055e+000 -3.988663e+001  3.000000e+000
      vertex  6.788838e-008 -4.050000e+001  3.000000e+000
    endloop
  endfacet
  facet normal  2.361369e-001 -9.717197e-001  0.000000e+000
    outer loop
      vertex  6.788838e-008 -4.050000e+001  5.000000e+000
      vertex  6.788838e-008 -4.050000e+001  3.000000e+000
      vertex  2.524055e+000 -3.988663e+001  5.000000e+000
    endloop
  endfacet
  facet normal  2.361369e-001 -9.717197e-001  0.000000e+000
    outer loop
      vertex  2.524055e+000 -3.988663e+001  5.000000e+000
      vertex  6.788838e-008 -4.050000e+001  3.000000e+000
      vertex  2.524055e+000 -3.988663e+001  3.000000e+000
    endloop
  endfacet
  facet normal  6.557439e-001 -7.549833e-001  0.000000e+000
    outer loop
      vertex  2.524055e+000 -3.988663e+001  5.000000e+000
      vertex  2.524055e+000 -3.988663e+001  3.000000e+000
      vertex  4.485136e+000 -3.818333e+001  5.000000e+000
    endloop
  endfacet
  facet normal  6.557439e-001 -7.549833e-001  0.000000e+000
    outer loop
      vertex  4.485136e+000 -3.818333e+001  5.000000e+000
      vertex  2.524055e+000 -3.988663e+001  3.000000e+000
      vertex  4.485136e+000 -3.818333e+001  3.000000e+000
    endloop
  endfacet
  facet normal  9.290904e-001 -3.698526e-001  0.000000e+000
    outer loop
      vertex  4.485136e+000 -3.818333e+001  5.000000e+000
      vertex  4.485136e+000 -3.818333e+001  3.000000e+000
      vertex  5.445833e+000 -3.577000e+001  5.000000e+000
    endloop
  endfacet
  facet normal  9.290904e-001 -3.698526e-001  0.000000e+000
    outer loop
      vertex  5.445833e+000 -3.577000e+001  5.000000e+000
      vertex  4.485136e+000 -3.818333e+001  3.000000e+000
      vertex  5.445833e+000 -3.577000e+001  3.000000e+000
    endloop
  endfacet
  facet normal -9.901515e-001  1.400000e-001  0.000000e+000
    outer loop
      vertex  5.445833e+000 -3.577000e+001  5.000000e+000
      vertex  5.445833e+000 -3.577000e+001  3.000000e+000
      vertex  2.585463e+000 -5.600000e+001  5.000000e+000
    endloop
  endfacet
  facet normal -9.901515e-001  1.400000e-001  0.000000e+000
    outer loop
      vertex  2.585463e+000 -5.600000e+001  5.000000e+000
      vertex  5.445833e+000 -3.577000e+001  3.000000e+000
      vertex  2.585463e+000 -5.600000e+001  3.000000e+000
    endloop
  endfacet
endsolid CATIA STL
