solid CATIA STL
  facet normal  0.000000e+000  0.000000e+000  9.999999e-001
    outer loop
      vertex -1.414214e+000 -9.461507e+001  5.400302e+000
      vertex  1.414214e+000 -9.461507e+001  5.400302e+000
      vertex -7.657138e-016 -9.402928e+001  5.400302e+000
    endloop
  endfacet
  facet normal  -0.000000e+000  0.000000e+000  1.000000e+000
    outer loop
      vertex  1.414214e+000 -9.461507e+001  5.400302e+000
      vertex -1.414214e+000 -9.461507e+001  5.400302e+000
      vertex  2.000000e+000 -9.602928e+001  5.400302e+000
    endloop
  endfacet
  facet normal  0.000000e+000  0.000000e+000  9.999999e-001
    outer loop
      vertex  2.000000e+000 -9.602928e+001  5.400302e+000
      vertex -1.414214e+000 -9.461507e+001  5.400302e+000
      vertex -2.000000e+000 -9.602928e+001  5.400302e+000
    endloop
  endfacet
  facet normal  -0.000000e+000  0.000000e+000  9.999999e-001
    outer loop
      vertex  2.000000e+000 -9.602928e+001  5.400302e+000
      vertex -2.000000e+000 -9.602928e+001  5.400302e+000
      vertex  1.414214e+000 -9.744350e+001  5.400302e+000
    endloop
  endfacet
  facet normal  0.000000e+000  0.000000e+000  1.000000e+000
    outer loop
      vertex  1.414214e+000 -9.744350e+001  5.400302e+000
      vertex -2.000000e+000 -9.602928e+001  5.400302e+000
      vertex -1.414214e+000 -9.744350e+001  5.400302e+000
    endloop
  endfacet
  facet normal  -0.000000e+000  0.000000e+000  9.999999e-001
    outer loop
      vertex  1.414214e+000 -9.744350e+001  5.400302e+000
      vertex -1.414214e+000 -9.744350e+001  5.400302e+000
      vertex  7.669517e-017 -9.802928e+001  5.400302e+000
    endloop
  endfacet
  facet normal -9.238797e-001 -3.826831e-001  0.000000e+000
    outer loop
      vertex -2.000000e+000 -9.602928e+001  5.400302e+000
      vertex -2.000000e+000 -9.602928e+001  3.436161e+000
      vertex -1.414214e+000 -9.744350e+001  5.400302e+000
    endloop
  endfacet
  facet normal -9.238796e-001 -3.826832e-001 -1.121457e-007
    outer loop
      vertex -1.414214e+000 -9.744350e+001  5.400302e+000
      vertex -2.000000e+000 -9.602928e+001  3.436161e+000
      vertex -1.414213e+000 -9.744350e+001  3.436161e+000
    endloop
  endfacet
  facet normal -3.826826e-001 -9.238799e-001 -4.645218e-008
    outer loop
      vertex -1.414214e+000 -9.744350e+001  5.400302e+000
      vertex -1.414213e+000 -9.744350e+001  3.436161e+000
      vertex  7.669517e-017 -9.802928e+001  5.400302e+000
    endloop
  endfacet
  facet normal -3.826827e-001 -9.238799e-001 -3.383352e-015
    outer loop
      vertex  7.669517e-017 -9.802928e+001  5.400302e+000
      vertex -1.414213e+000 -9.744350e+001  3.436161e+000
      vertex  1.744194e-014 -9.802928e+001  3.436161e+000
    endloop
  endfacet
  facet normal  3.826826e-001 -9.238799e-001  3.383351e-015
    outer loop
      vertex  7.669517e-017 -9.802928e+001  5.400302e+000
      vertex  1.744194e-014 -9.802928e+001  3.436161e+000
      vertex  1.414214e+000 -9.744350e+001  5.400302e+000
    endloop
  endfacet
  facet normal  3.826827e-001 -9.238799e-001 -4.645219e-008
    outer loop
      vertex  1.414214e+000 -9.744350e+001  5.400302e+000
      vertex  1.744194e-014 -9.802928e+001  3.436161e+000
      vertex  1.414213e+000 -9.744350e+001  3.436161e+000
    endloop
  endfacet
  facet normal  9.238797e-001 -3.826831e-001 -1.121457e-007
    outer loop
      vertex  1.414214e+000 -9.744350e+001  5.400302e+000
      vertex  1.414213e+000 -9.744350e+001  3.436161e+000
      vertex  2.000000e+000 -9.602928e+001  5.400302e+000
    endloop
  endfacet
  facet normal  9.238796e-001 -3.826832e-001  0.000000e+000
    outer loop
      vertex  2.000000e+000 -9.602928e+001  5.400302e+000
      vertex  1.414213e+000 -9.744350e+001  3.436161e+000
      vertex  2.000000e+000 -9.602928e+001  3.436161e+000
    endloop
  endfacet
  facet normal  9.238797e-001  3.826831e-001  -0.000000e+000
    outer loop
      vertex  2.000000e+000 -9.602928e+001  5.400302e+000
      vertex  2.000000e+000 -9.602928e+001  3.436161e+000
      vertex  1.414214e+000 -9.461507e+001  5.400302e+000
    endloop
  endfacet
  facet normal  9.696418e-001  1.928740e-001  1.503139e-001
    outer loop
      vertex  1.414214e+000 -9.461507e+001  5.400302e+000
      vertex  2.000000e+000 -9.602928e+001  3.436161e+000
      vertex  1.847759e+000 -9.526392e+001  3.436161e+000
    endloop
  endfacet
  facet normal  8.314707e-001  5.555687e-001  0.000000e+000
    outer loop
      vertex  1.414214e+000 -9.461507e+001  5.400302e+000
      vertex  1.847759e+000 -9.526392e+001  3.436161e+000
      vertex  1.414214e+000 -9.461507e+001  3.436161e+000
    endloop
  endfacet
  facet normal  3.826826e-001  9.238799e-001  -0.000000e+000
    outer loop
      vertex  1.414214e+000 -9.461507e+001  5.400302e+000
      vertex  1.414214e+000 -9.461507e+001  3.436161e+000
      vertex -7.657138e-016 -9.402928e+001  5.400302e+000
    endloop
  endfacet
  facet normal  5.492537e-001  8.220261e-001  1.503108e-001
    outer loop
      vertex -7.657138e-016 -9.402928e+001  5.400302e+000
      vertex  1.414214e+000 -9.461507e+001  3.436161e+000
      vertex  7.653669e-001 -9.418153e+001  3.436161e+000
    endloop
  endfacet
  facet normal  1.950948e-001  9.807844e-001  0.000000e+000
    outer loop
      vertex -7.657138e-016 -9.402928e+001  5.400302e+000
      vertex  7.653669e-001 -9.418153e+001  3.436161e+000
      vertex -3.673941e-016 -9.402928e+001  3.436161e+000
    endloop
  endfacet
  facet normal -3.826826e-001  9.238799e-001 -7.760645e-017
    outer loop
      vertex -7.657138e-016 -9.402928e+001  5.400302e+000
      vertex -3.673941e-016 -9.402928e+001  3.436161e+000
      vertex -1.414214e+000 -9.461507e+001  5.400302e+000
    endloop
  endfacet
  facet normal -1.928783e-001  9.696416e-001  1.503101e-001
    outer loop
      vertex -1.414214e+000 -9.461507e+001  5.400302e+000
      vertex -3.673941e-016 -9.402928e+001  3.436161e+000
      vertex -7.653669e-001 -9.418153e+001  3.436161e+000
    endloop
  endfacet
  facet normal -5.555657e-001  8.314727e-001  0.000000e+000
    outer loop
      vertex -1.414214e+000 -9.461507e+001  5.400302e+000
      vertex -7.653669e-001 -9.418153e+001  3.436161e+000
      vertex -1.414214e+000 -9.461507e+001  3.436161e+000
    endloop
  endfacet
  facet normal -9.238797e-001  3.826831e-001  0.000000e+000
    outer loop
      vertex -1.414214e+000 -9.461507e+001  5.400302e+000
      vertex -1.414214e+000 -9.461507e+001  3.436161e+000
      vertex -2.000000e+000 -9.602928e+001  5.400302e+000
    endloop
  endfacet
  facet normal -8.220239e-001  5.492565e-001  1.503132e-001
    outer loop
      vertex -2.000000e+000 -9.602928e+001  5.400302e+000
      vertex -1.414214e+000 -9.461507e+001  3.436161e+000
      vertex -1.847759e+000 -9.526392e+001  3.436161e+000
    endloop
  endfacet
  facet normal -9.807852e-001  1.950905e-001  0.000000e+000
    outer loop
      vertex -2.000000e+000 -9.602928e+001  5.400302e+000
      vertex -1.847759e+000 -9.526392e+001  3.436161e+000
      vertex -2.000000e+000 -9.602928e+001  3.436161e+000
    endloop
  endfacet
  facet normal  0.000000e+000  0.000000e+000 -1.000000e+000
    outer loop
      vertex  5.175680e-015 -1.000293e+002 -5.996975e-001
      vertex -2.000000e+000 -9.949339e+001 -5.996975e-001
      vertex -3.464102e+000 -9.802928e+001 -5.996975e-001
    endloop
  endfacet
  facet normal  0.000000e+000  0.000000e+000 -1.000000e+000
    outer loop
      vertex  5.175680e-015 -1.000293e+002 -5.996975e-001
      vertex -3.464102e+000 -9.802928e+001 -5.996975e-001
      vertex -1.808774e+000 -9.702928e+001 -5.996975e-001
    endloop
  endfacet
  facet normal  0.000000e+000  0.000000e+000 -1.000000e+000
    outer loop
      vertex  5.175680e-015 -1.000293e+002 -5.996975e-001
      vertex -1.808774e+000 -9.702928e+001 -5.996975e-001
      vertex  1.808774e+000 -9.702928e+001 -5.996975e-001
    endloop
  endfacet
  facet normal  0.000000e+000  -0.000000e+000 -1.000000e+000
    outer loop
      vertex  5.175680e-015 -1.000293e+002 -5.996975e-001
      vertex  1.808774e+000 -9.702928e+001 -5.996975e-001
      vertex  3.464102e+000 -9.802928e+001 -5.996975e-001
    endloop
  endfacet
  facet normal  0.000000e+000  0.000000e+000 -1.000000e+000
    outer loop
      vertex  5.175680e-015 -1.000293e+002 -5.996975e-001
      vertex  3.464102e+000 -9.802928e+001 -5.996975e-001
      vertex  2.000000e+000 -9.949339e+001 -5.996975e-001
    endloop
  endfacet
  facet normal  0.000000e+000  -0.000000e+000 -1.000000e+000
    outer loop
      vertex -3.464102e+000 -9.402928e+001 -5.996975e-001
      vertex -2.000000e+000 -9.256518e+001 -5.996975e-001
      vertex  5.551115e-016 -9.396249e+001 -5.996975e-001
    endloop
  endfacet
  facet normal  0.000000e+000  0.000000e+000 -1.000000e+000
    outer loop
      vertex  5.551115e-016 -9.396249e+001 -5.996975e-001
      vertex -2.000000e+000 -9.256518e+001 -5.996975e-001
      vertex -2.112825e-015 -9.202928e+001 -5.996975e-001
    endloop
  endfacet
  facet normal  0.000000e+000  0.000000e+000 -9.999999e-001
    outer loop
      vertex  5.551115e-016 -9.396249e+001 -5.996975e-001
      vertex -2.112825e-015 -9.202928e+001 -5.996975e-001
      vertex  3.464102e+000 -9.402928e+001 -5.996975e-001
    endloop
  endfacet
  facet normal  0.000000e+000  0.000000e+000 -1.000000e+000
    outer loop
      vertex  3.464102e+000 -9.402928e+001 -5.996975e-001
      vertex -2.112825e-015 -9.202928e+001 -5.996975e-001
      vertex  2.000000e+000 -9.256518e+001 -5.996975e-001
    endloop
  endfacet
  facet normal  0.000000e+000  0.000000e+000 -1.000000e+000
    outer loop
      vertex  3.464102e+000 -9.802928e+001 -5.996975e-001
      vertex  1.808774e+000 -9.702928e+001 -5.996975e-001
      vertex  4.000000e+000 -9.602928e+001 -5.996975e-001
    endloop
  endfacet
  facet normal  -0.000000e+000  0.000000e+000 -1.000000e+000
    outer loop
      vertex  4.000000e+000 -9.602928e+001 -5.996975e-001
      vertex  1.808774e+000 -9.702928e+001 -5.996975e-001
      vertex  2.030804e+000 -9.564523e+001 -5.996975e-001
    endloop
  endfacet
  facet normal  0.000000e+000  0.000000e+000 -9.999999e-001
    outer loop
      vertex  4.000000e+000 -9.602928e+001 -5.996975e-001
      vertex  2.030804e+000 -9.564523e+001 -5.996975e-001
      vertex  3.464102e+000 -9.402928e+001 -5.996975e-001
    endloop
  endfacet
  facet normal  0.000000e+000  0.000000e+000 -1.000000e+000
    outer loop
      vertex  3.464102e+000 -9.402928e+001 -5.996975e-001
      vertex  2.030804e+000 -9.564523e+001 -5.996975e-001
      vertex  1.318692e+000 -9.443784e+001 -5.996975e-001
    endloop
  endfacet
  facet normal  0.000000e+000  0.000000e+000 -1.000000e+000
    outer loop
      vertex  3.464102e+000 -9.402928e+001 -5.996975e-001
      vertex  1.318692e+000 -9.443784e+001 -5.996975e-001
      vertex  5.551115e-016 -9.396249e+001 -5.996975e-001
    endloop
  endfacet
  facet normal  0.000000e+000  0.000000e+000 -1.000000e+000
    outer loop
      vertex -1.808774e+000 -9.702928e+001 -5.996975e-001
      vertex -3.464102e+000 -9.802928e+001 -5.996975e-001
      vertex -2.030804e+000 -9.564523e+001 -5.996975e-001
    endloop
  endfacet
  facet normal  0.000000e+000  0.000000e+000 -1.000000e+000
    outer loop
      vertex -2.030804e+000 -9.564523e+001 -5.996975e-001
      vertex -3.464102e+000 -9.802928e+001 -5.996975e-001
      vertex -4.000000e+000 -9.602928e+001 -5.996975e-001
    endloop
  endfacet
  facet normal  0.000000e+000  0.000000e+000 -1.000000e+000
    outer loop
      vertex -2.030804e+000 -9.564523e+001 -5.996975e-001
      vertex -4.000000e+000 -9.602928e+001 -5.996975e-001
      vertex -1.318692e+000 -9.443784e+001 -5.996975e-001
    endloop
  endfacet
  facet normal  -0.000000e+000  0.000000e+000 -1.000000e+000
    outer loop
      vertex -1.318692e+000 -9.443784e+001 -5.996975e-001
      vertex -4.000000e+000 -9.602928e+001 -5.996975e-001
      vertex -3.464102e+000 -9.402928e+001 -5.996975e-001
    endloop
  endfacet
  facet normal  0.000000e+000  0.000000e+000 -1.000000e+000
    outer loop
      vertex -1.318692e+000 -9.443784e+001 -5.996975e-001
      vertex -3.464102e+000 -9.402928e+001 -5.996975e-001
      vertex  5.551115e-016 -9.396249e+001 -5.996975e-001
    endloop
  endfacet
  facet normal  2.588078e-001  9.658877e-001  8.915428e-003
    outer loop
      vertex  1.427471e+000 -9.242357e+001  6.785876e-001
      vertex  2.000000e+000 -9.256518e+001 -5.996975e-001
      vertex -2.112825e-015 -9.202928e+001 -5.996975e-001
    endloop
  endfacet
  facet normal  9.658875e-001  2.588088e-001  8.911180e-003
    outer loop
      vertex  3.464102e+000 -9.402928e+001 -5.996975e-001
      vertex  3.605718e+000 -9.460181e+001  6.785876e-001
      vertex  4.000000e+000 -9.602928e+001 -5.996975e-001
    endloop
  endfacet
  facet normal  8.261650e-001  5.426695e-001  1.515292e-001
    outer loop
      vertex  2.742159e+000 -9.328712e+001  6.785876e-001
      vertex  3.605718e+000 -9.460181e+001  6.785876e-001
      vertex  3.464102e+000 -9.402928e+001 -5.996975e-001
    endloop
  endfacet
  facet normal  7.070630e-001  7.070620e-001 -1.118078e-002
    outer loop
      vertex  2.000000e+000 -9.256518e+001 -5.996975e-001
      vertex  2.742159e+000 -9.328712e+001  6.785876e-001
      vertex  3.464102e+000 -9.402928e+001 -5.996975e-001
    endloop
  endfacet
  facet normal  5.426685e-001  8.261653e-001  1.515319e-001
    outer loop
      vertex  2.000000e+000 -9.256518e+001 -5.996975e-001
      vertex  1.427471e+000 -9.242357e+001  6.785876e-001
      vertex  2.742159e+000 -9.328712e+001  6.785876e-001
    endloop
  endfacet
  facet normal  7.611404e-001  4.999579e-001  4.131675e-001
    outer loop
      vertex  2.845666e+000 -9.438634e+001  1.818020e+000
      vertex  3.605718e+000 -9.460181e+001  6.785876e-001
      vertex  2.742159e+000 -9.328712e+001  6.785876e-001
    endloop
  endfacet
  facet normal  6.015338e-001  6.015334e-001  5.256563e-001
    outer loop
      vertex  2.742159e+000 -9.328712e+001  6.785876e-001
      vertex  1.642946e+000 -9.318362e+001  1.818020e+000
      vertex  2.845666e+000 -9.438634e+001  1.818020e+000
    endloop
  endfacet
  facet normal  4.999574e-001  7.611413e-001  4.131664e-001
    outer loop
      vertex  1.427471e+000 -9.242357e+001  6.785876e-001
      vertex  1.642946e+000 -9.318362e+001  1.818020e+000
      vertex  2.742159e+000 -9.328712e+001  6.785876e-001
    endloop
  endfacet
  facet normal  9.780017e-001  1.865478e-001  9.334193e-002
    outer loop
      vertex  4.000000e+000 -9.602928e+001 -5.996975e-001
      vertex  3.605718e+000 -9.460181e+001  6.785876e-001
      vertex  3.877999e+000 -9.602928e+001  6.785876e-001
    endloop
  endfacet
  facet normal  8.349265e-001  1.592572e-001  5.268157e-001
    outer loop
      vertex  3.877999e+000 -9.602928e+001  6.785876e-001
      vertex  3.605718e+000 -9.460181e+001  6.785876e-001
      vertex  2.845666e+000 -9.438634e+001  1.818020e+000
    endloop
  endfacet
  facet normal  8.632782e-001  2.313151e-001  4.486023e-001
    outer loop
      vertex  3.877999e+000 -9.602928e+001  6.785876e-001
      vertex  2.845666e+000 -9.438634e+001  1.818020e+000
      vertex  3.285892e+000 -9.602928e+001  1.818020e+000
    endloop
  endfacet
  facet normal  1.865505e-001  9.780011e-001  9.334204e-002
    outer loop
      vertex -2.112825e-015 -9.202928e+001 -5.996975e-001
      vertex  4.608791e-016 -9.215128e+001  6.785876e-001
      vertex  1.427471e+000 -9.242357e+001  6.785876e-001
    endloop
  endfacet
  facet normal  1.668842e-001  8.748991e-001  4.546439e-001
    outer loop
      vertex  1.427471e+000 -9.242357e+001  6.785876e-001
      vertex  4.608791e-016 -9.215128e+001  6.785876e-001
      vertex  0.000000e+000 -9.274339e+001  1.818020e+000
    endloop
  endfacet
  facet normal  2.223876e-001  8.299663e-001  5.115659e-001
    outer loop
      vertex  1.427471e+000 -9.242357e+001  6.785876e-001
      vertex  0.000000e+000 -9.274339e+001  1.818020e+000
      vertex  1.642946e+000 -9.318362e+001  1.818020e+000
    endloop
  endfacet
  facet normal -9.658875e-001  2.588088e-001  8.911180e-003
    outer loop
      vertex -3.605718e+000 -9.460181e+001  6.785876e-001
      vertex -3.464102e+000 -9.402928e+001 -5.996975e-001
      vertex -4.000000e+000 -9.602928e+001 -5.996975e-001
    endloop
  endfacet
  facet normal -2.588078e-001  9.658877e-001  8.915428e-003
    outer loop
      vertex -2.000000e+000 -9.256518e+001 -5.996975e-001
      vertex -1.427471e+000 -9.242357e+001  6.785876e-001
      vertex -2.112825e-015 -9.202928e+001 -5.996975e-001
    endloop
  endfacet
  facet normal -5.426685e-001  8.261653e-001  1.515319e-001
    outer loop
      vertex -2.742159e+000 -9.328712e+001  6.785876e-001
      vertex -1.427471e+000 -9.242357e+001  6.785876e-001
      vertex -2.000000e+000 -9.256518e+001 -5.996975e-001
    endloop
  endfacet
  facet normal -7.070630e-001  7.070620e-001 -1.118078e-002
    outer loop
      vertex -3.464102e+000 -9.402928e+001 -5.996975e-001
      vertex -2.742159e+000 -9.328712e+001  6.785876e-001
      vertex -2.000000e+000 -9.256518e+001 -5.996975e-001
    endloop
  endfacet
  facet normal -8.261650e-001  5.426695e-001  1.515292e-001
    outer loop
      vertex -3.464102e+000 -9.402928e+001 -5.996975e-001
      vertex -3.605718e+000 -9.460181e+001  6.785876e-001
      vertex -2.742159e+000 -9.328712e+001  6.785876e-001
    endloop
  endfacet
  facet normal -4.999574e-001  7.611414e-001  4.131664e-001
    outer loop
      vertex -1.642946e+000 -9.318362e+001  1.818020e+000
      vertex -1.427471e+000 -9.242357e+001  6.785876e-001
      vertex -2.742159e+000 -9.328712e+001  6.785876e-001
    endloop
  endfacet
  facet normal -6.015338e-001  6.015334e-001  5.256563e-001
    outer loop
      vertex -2.742159e+000 -9.328712e+001  6.785876e-001
      vertex -2.845666e+000 -9.438634e+001  1.818020e+000
      vertex -1.642946e+000 -9.318362e+001  1.818020e+000
    endloop
  endfacet
  facet normal -7.611404e-001  4.999579e-001  4.131675e-001
    outer loop
      vertex -3.605718e+000 -9.460181e+001  6.785876e-001
      vertex -2.845666e+000 -9.438634e+001  1.818020e+000
      vertex -2.742159e+000 -9.328712e+001  6.785876e-001
    endloop
  endfacet
  facet normal -1.865505e-001  9.780011e-001  9.334202e-002
    outer loop
      vertex -2.112825e-015 -9.202928e+001 -5.996975e-001
      vertex -1.427471e+000 -9.242357e+001  6.785876e-001
      vertex  4.608791e-016 -9.215128e+001  6.785876e-001
    endloop
  endfacet
  facet normal -1.592598e-001  8.349276e-001  5.268133e-001
    outer loop
      vertex  4.608791e-016 -9.215128e+001  6.785876e-001
      vertex -1.427471e+000 -9.242357e+001  6.785876e-001
      vertex -1.642946e+000 -9.318362e+001  1.818020e+000
    endloop
  endfacet
  facet normal -2.313132e-001  8.632775e-001  4.486047e-001
    outer loop
      vertex  4.608791e-016 -9.215128e+001  6.785876e-001
      vertex -1.642946e+000 -9.318362e+001  1.818020e+000
      vertex  0.000000e+000 -9.274339e+001  1.818020e+000
    endloop
  endfacet
  facet normal -9.780017e-001  1.865478e-001  9.334192e-002
    outer loop
      vertex -4.000000e+000 -9.602928e+001 -5.996975e-001
      vertex -3.877999e+000 -9.602928e+001  6.785876e-001
      vertex -3.605718e+000 -9.460181e+001  6.785876e-001
    endloop
  endfacet
  facet normal -8.749006e-001  1.668819e-001  4.546419e-001
    outer loop
      vertex -3.605718e+000 -9.460181e+001  6.785876e-001
      vertex -3.877999e+000 -9.602928e+001  6.785876e-001
      vertex -3.285892e+000 -9.602928e+001  1.818020e+000
    endloop
  endfacet
  facet normal -8.299651e-001  2.223888e-001  5.115674e-001
    outer loop
      vertex -3.605718e+000 -9.460181e+001  6.785876e-001
      vertex -3.285892e+000 -9.602928e+001  1.818020e+000
      vertex -2.845666e+000 -9.438634e+001  1.818020e+000
    endloop
  endfacet
  facet normal -2.588078e-001 -9.658878e-001  8.909663e-003
    outer loop
      vertex -1.427471e+000 -9.963500e+001  6.785876e-001
      vertex -2.000000e+000 -9.949339e+001 -5.996975e-001
      vertex  5.175680e-015 -1.000293e+002 -5.996975e-001
    endloop
  endfacet
  facet normal -9.658875e-001 -2.588088e-001  8.909639e-003
    outer loop
      vertex -3.464102e+000 -9.802928e+001 -5.996975e-001
      vertex -3.605718e+000 -9.745676e+001  6.785876e-001
      vertex -4.000000e+000 -9.602928e+001 -5.996975e-001
    endloop
  endfacet
  facet normal -8.261654e-001 -5.426698e-001  1.515261e-001
    outer loop
      vertex -2.742159e+000 -9.877145e+001  6.785876e-001
      vertex -3.605718e+000 -9.745676e+001  6.785876e-001
      vertex -3.464102e+000 -9.802928e+001 -5.996975e-001
    endloop
  endfacet
  facet normal -7.070630e-001 -7.070620e-001 -1.118499e-002
    outer loop
      vertex -2.000000e+000 -9.949339e+001 -5.996975e-001
      vertex -2.742159e+000 -9.877145e+001  6.785876e-001
      vertex -3.464102e+000 -9.802928e+001 -5.996975e-001
    endloop
  endfacet
  facet normal -5.426689e-001 -8.261659e-001  1.515270e-001
    outer loop
      vertex -2.000000e+000 -9.949339e+001 -5.996975e-001
      vertex -1.427471e+000 -9.963500e+001  6.785876e-001
      vertex -2.742159e+000 -9.877145e+001  6.785876e-001
    endloop
  endfacet
  facet normal -7.611393e-001 -4.999572e-001  4.131703e-001
    outer loop
      vertex -2.845666e+000 -9.767223e+001  1.818020e+000
      vertex -3.605718e+000 -9.745676e+001  6.785876e-001
      vertex -2.742159e+000 -9.877145e+001  6.785876e-001
    endloop
  endfacet
  facet normal -6.015325e-001 -6.015322e-001  5.256593e-001
    outer loop
      vertex -2.742159e+000 -9.877145e+001  6.785876e-001
      vertex -1.642946e+000 -9.887495e+001  1.818020e+000
      vertex -2.845666e+000 -9.767223e+001  1.818020e+000
    endloop
  endfacet
  facet normal -4.999563e-001 -7.611397e-001  4.131706e-001
    outer loop
      vertex -1.427471e+000 -9.963500e+001  6.785876e-001
      vertex -1.642946e+000 -9.887495e+001  1.818020e+000
      vertex -2.742159e+000 -9.877145e+001  6.785876e-001
    endloop
  endfacet
  facet normal -9.780018e-001 -1.865469e-001  9.334192e-002
    outer loop
      vertex -4.000000e+000 -9.602928e+001 -5.996975e-001
      vertex -3.605718e+000 -9.745676e+001  6.785876e-001
      vertex -3.877999e+000 -9.602928e+001  6.785876e-001
    endloop
  endfacet
  facet normal -8.349262e-001 -1.592562e-001  5.268167e-001
    outer loop
      vertex -3.877999e+000 -9.602928e+001  6.785876e-001
      vertex -3.605718e+000 -9.745676e+001  6.785876e-001
      vertex -2.845666e+000 -9.767223e+001  1.818020e+000
    endloop
  endfacet
  facet normal -8.632782e-001 -2.313151e-001  4.486023e-001
    outer loop
      vertex -3.877999e+000 -9.602928e+001  6.785876e-001
      vertex -2.845666e+000 -9.767223e+001  1.818020e+000
      vertex -3.285892e+000 -9.602928e+001  1.818020e+000
    endloop
  endfacet
  facet normal -1.865455e-001 -9.780021e-001  9.334213e-002
    outer loop
      vertex  5.175680e-015 -1.000293e+002 -5.996975e-001
      vertex  4.608791e-016 -9.990728e+001  6.785876e-001
      vertex -1.427471e+000 -9.963500e+001  6.785876e-001
    endloop
  endfacet
  facet normal -1.668801e-001 -8.749022e-001  4.546397e-001
    outer loop
      vertex -1.427471e+000 -9.963500e+001  6.785876e-001
      vertex  4.608791e-016 -9.990728e+001  6.785876e-001
      vertex  4.024058e-016 -9.931518e+001  1.818020e+000
    endloop
  endfacet
  facet normal -2.223907e-001 -8.299636e-001  5.115691e-001
    outer loop
      vertex -1.427471e+000 -9.963500e+001  6.785876e-001
      vertex  4.024058e-016 -9.931518e+001  1.818020e+000
      vertex -1.642946e+000 -9.887495e+001  1.818020e+000
    endloop
  endfacet
  facet normal  9.658875e-001 -2.588088e-001  8.909639e-003
    outer loop
      vertex  3.605718e+000 -9.745676e+001  6.785876e-001
      vertex  3.464102e+000 -9.802928e+001 -5.996975e-001
      vertex  4.000000e+000 -9.602928e+001 -5.996975e-001
    endloop
  endfacet
  facet normal  2.588078e-001 -9.658877e-001  8.909663e-003
    outer loop
      vertex  2.000000e+000 -9.949339e+001 -5.996975e-001
      vertex  1.427471e+000 -9.963500e+001  6.785876e-001
      vertex  5.175680e-015 -1.000293e+002 -5.996975e-001
    endloop
  endfacet
  facet normal  5.426689e-001 -8.261659e-001  1.515270e-001
    outer loop
      vertex  2.742159e+000 -9.877145e+001  6.785876e-001
      vertex  1.427471e+000 -9.963500e+001  6.785876e-001
      vertex  2.000000e+000 -9.949339e+001 -5.996975e-001
    endloop
  endfacet
  facet normal  7.070630e-001 -7.070620e-001 -1.118499e-002
    outer loop
      vertex  3.464102e+000 -9.802928e+001 -5.996975e-001
      vertex  2.742159e+000 -9.877145e+001  6.785876e-001
      vertex  2.000000e+000 -9.949339e+001 -5.996975e-001
    endloop
  endfacet
  facet normal  8.261654e-001 -5.426698e-001  1.515261e-001
    outer loop
      vertex  3.464102e+000 -9.802928e+001 -5.996975e-001
      vertex  3.605718e+000 -9.745676e+001  6.785876e-001
      vertex  2.742159e+000 -9.877145e+001  6.785876e-001
    endloop
  endfacet
  facet normal  4.999563e-001 -7.611398e-001  4.131706e-001
    outer loop
      vertex  1.642946e+000 -9.887495e+001  1.818020e+000
      vertex  1.427471e+000 -9.963500e+001  6.785876e-001
      vertex  2.742159e+000 -9.877145e+001  6.785876e-001
    endloop
  endfacet
  facet normal  6.015325e-001 -6.015322e-001  5.256593e-001
    outer loop
      vertex  2.742159e+000 -9.877145e+001  6.785876e-001
      vertex  2.845666e+000 -9.767223e+001  1.818020e+000
      vertex  1.642946e+000 -9.887495e+001  1.818020e+000
    endloop
  endfacet
  facet normal  7.611393e-001 -4.999572e-001  4.131703e-001
    outer loop
      vertex  3.605718e+000 -9.745676e+001  6.785876e-001
      vertex  2.845666e+000 -9.767223e+001  1.818020e+000
      vertex  2.742159e+000 -9.877145e+001  6.785876e-001
    endloop
  endfacet
  facet normal  1.865455e-001 -9.780021e-001  9.334215e-002
    outer loop
      vertex  5.175680e-015 -1.000293e+002 -5.996975e-001
      vertex  1.427471e+000 -9.963500e+001  6.785876e-001
      vertex  4.608791e-016 -9.990728e+001  6.785876e-001
    endloop
  endfacet
  facet normal  1.592549e-001 -8.349254e-001  5.268183e-001
    outer loop
      vertex  4.608791e-016 -9.990728e+001  6.785876e-001
      vertex  1.427471e+000 -9.963500e+001  6.785876e-001
      vertex  1.642946e+000 -9.887495e+001  1.818020e+000
    endloop
  endfacet
  facet normal  2.313176e-001 -8.632789e-001  4.485997e-001
    outer loop
      vertex  4.608791e-016 -9.990728e+001  6.785876e-001
      vertex  1.642946e+000 -9.887495e+001  1.818020e+000
      vertex  4.024058e-016 -9.931518e+001  1.818020e+000
    endloop
  endfacet
  facet normal  9.780018e-001 -1.865469e-001  9.334192e-002
    outer loop
      vertex  4.000000e+000 -9.602928e+001 -5.996975e-001
      vertex  3.877999e+000 -9.602928e+001  6.785876e-001
      vertex  3.605718e+000 -9.745676e+001  6.785876e-001
    endloop
  endfacet
  facet normal  8.749007e-001 -1.668811e-001  4.546420e-001
    outer loop
      vertex  3.605718e+000 -9.745676e+001  6.785876e-001
      vertex  3.877999e+000 -9.602928e+001  6.785876e-001
      vertex  3.285892e+000 -9.602928e+001  1.818020e+000
    endloop
  endfacet
  facet normal  8.299644e-001 -2.223887e-001  5.115685e-001
    outer loop
      vertex  3.605718e+000 -9.745676e+001  6.785876e-001
      vertex  3.285892e+000 -9.602928e+001  1.818020e+000
      vertex  2.845666e+000 -9.767223e+001  1.818020e+000
    endloop
  endfacet
  facet normal -7.663350e-001  2.053392e-001  6.087417e-001
    outer loop
      vertex -3.285892e+000 -9.602928e+001  1.818020e+000
      vertex -2.029052e+000 -9.602928e+001  3.400237e+000
      vertex -2.845666e+000 -9.438634e+001  1.818020e+000
    endloop
  endfacet
  facet normal -7.663350e-001 -2.053392e-001  6.087417e-001
    outer loop
      vertex -3.285892e+000 -9.602928e+001  1.818020e+000
      vertex -2.845666e+000 -9.767223e+001  1.818020e+000
      vertex -2.029052e+000 -9.602928e+001  3.400237e+000
    endloop
  endfacet
  facet normal -2.053410e-001 -7.663341e-001  6.087422e-001
    outer loop
      vertex  2.484871e-016 -9.805833e+001  3.400237e+000
      vertex -1.642946e+000 -9.887495e+001  1.818020e+000
      vertex  4.024058e-016 -9.931518e+001  1.818020e+000
    endloop
  endfacet
  facet normal -2.881110e-001 -6.955659e-001  6.581643e-001
    outer loop
      vertex  2.484871e-016 -9.805833e+001  3.400237e+000
      vertex -1.434756e+000 -9.746404e+001  3.400237e+000
      vertex -1.642946e+000 -9.887495e+001  1.818020e+000
    endloop
  endfacet
  facet normal -2.881136e-001  6.955634e-001  6.581658e-001
    outer loop
      vertex -4.101294e-015 -9.400023e+001  3.400237e+000
      vertex -1.642946e+000 -9.318362e+001  1.818020e+000
      vertex -1.434756e+000 -9.459453e+001  3.400237e+000
    endloop
  endfacet
  facet normal -2.053381e-001  7.663364e-001  6.087404e-001
    outer loop
      vertex -4.101294e-015 -9.400023e+001  3.400237e+000
      vertex  0.000000e+000 -9.274339e+001  1.818020e+000
      vertex -1.642946e+000 -9.318362e+001  1.818020e+000
    endloop
  endfacet
  facet normal -5.728655e-001 -5.728651e-001  5.862172e-001
    outer loop
      vertex -1.434756e+000 -9.746404e+001  3.400237e+000
      vertex -2.845666e+000 -9.767223e+001  1.818020e+000
      vertex -1.642946e+000 -9.887495e+001  1.818020e+000
    endloop
  endfacet
  facet normal -6.955650e-001 -2.881115e-001  6.581650e-001
    outer loop
      vertex -2.029052e+000 -9.602928e+001  3.400237e+000
      vertex -2.845666e+000 -9.767223e+001  1.818020e+000
      vertex -1.434756e+000 -9.746404e+001  3.400237e+000
    endloop
  endfacet
  facet normal -6.955640e-001  2.881126e-001  6.581656e-001
    outer loop
      vertex -2.029052e+000 -9.602928e+001  3.400237e+000
      vertex -1.434756e+000 -9.459453e+001  3.400237e+000
      vertex -2.845666e+000 -9.438634e+001  1.818020e+000
    endloop
  endfacet
  facet normal -5.728646e-001  5.728642e-001  5.862191e-001
    outer loop
      vertex -1.642946e+000 -9.318362e+001  1.818020e+000
      vertex -2.845666e+000 -9.438634e+001  1.818020e+000
      vertex -1.434756e+000 -9.459453e+001  3.400237e+000
    endloop
  endfacet
  facet normal  2.053381e-001  7.663364e-001  6.087403e-001
    outer loop
      vertex -4.101294e-015 -9.400023e+001  3.400237e+000
      vertex  1.642946e+000 -9.318362e+001  1.818020e+000
      vertex  0.000000e+000 -9.274339e+001  1.818020e+000
    endloop
  endfacet
  facet normal  2.881136e-001  6.955633e-001  6.581658e-001
    outer loop
      vertex -4.101294e-015 -9.400023e+001  3.400237e+000
      vertex  1.434756e+000 -9.459453e+001  3.400237e+000
      vertex  1.642946e+000 -9.318362e+001  1.818020e+000
    endloop
  endfacet
  facet normal  2.881109e-001 -6.955659e-001  6.581643e-001
    outer loop
      vertex  2.484871e-016 -9.805833e+001  3.400237e+000
      vertex  1.642946e+000 -9.887495e+001  1.818020e+000
      vertex  1.434756e+000 -9.746404e+001  3.400237e+000
    endloop
  endfacet
  facet normal  2.053410e-001 -7.663341e-001  6.087422e-001
    outer loop
      vertex  2.484871e-016 -9.805833e+001  3.400237e+000
      vertex  4.024058e-016 -9.931518e+001  1.818020e+000
      vertex  1.642946e+000 -9.887495e+001  1.818020e+000
    endloop
  endfacet
  facet normal  5.728646e-001  5.728642e-001  5.862191e-001
    outer loop
      vertex  1.434756e+000 -9.459453e+001  3.400237e+000
      vertex  2.845666e+000 -9.438634e+001  1.818020e+000
      vertex  1.642946e+000 -9.318362e+001  1.818020e+000
    endloop
  endfacet
  facet normal  5.728655e-001 -5.728651e-001  5.862172e-001
    outer loop
      vertex  1.642946e+000 -9.887495e+001  1.818020e+000
      vertex  2.845666e+000 -9.767223e+001  1.818020e+000
      vertex  1.434756e+000 -9.746404e+001  3.400237e+000
    endloop
  endfacet
  facet normal  6.955650e-001 -2.881114e-001  6.581650e-001
    outer loop
      vertex  2.029052e+000 -9.602928e+001  3.400237e+000
      vertex  1.434756e+000 -9.746404e+001  3.400237e+000
      vertex  2.845666e+000 -9.767223e+001  1.818020e+000
    endloop
  endfacet
  facet normal  7.663350e-001 -2.053392e-001  6.087417e-001
    outer loop
      vertex  2.029052e+000 -9.602928e+001  3.400237e+000
      vertex  2.845666e+000 -9.767223e+001  1.818020e+000
      vertex  3.285892e+000 -9.602928e+001  1.818020e+000
    endloop
  endfacet
  facet normal  7.663350e-001  2.053392e-001  6.087417e-001
    outer loop
      vertex  2.029052e+000 -9.602928e+001  3.400237e+000
      vertex  3.285892e+000 -9.602928e+001  1.818020e+000
      vertex  2.845666e+000 -9.438634e+001  1.818020e+000
    endloop
  endfacet
  facet normal  6.955640e-001  2.881126e-001  6.581656e-001
    outer loop
      vertex  2.029052e+000 -9.602928e+001  3.400237e+000
      vertex  2.845666e+000 -9.438634e+001  1.818020e+000
      vertex  1.434756e+000 -9.459453e+001  3.400237e+000
    endloop
  endfacet
  facet normal  1.528504e-001  7.684125e-001  6.214330e-001
    outer loop
      vertex -3.673941e-016 -9.402928e+001  3.436161e+000
      vertex  7.653669e-001 -9.418153e+001  3.436161e+000
      vertex -4.101294e-015 -9.400023e+001  3.400237e+000
    endloop
  endfacet
  facet normal  1.053926e-001  2.544386e-001 -9.613290e-001
    outer loop
      vertex  7.653669e-001 -9.418153e+001  3.436161e+000
      vertex  1.434756e+000 -9.459453e+001  3.400237e+000
      vertex -4.101294e-015 -9.400023e+001  3.400237e+000
    endloop
  endfacet
  facet normal  2.544336e-001  1.053900e-001 -9.613305e-001
    outer loop
      vertex  1.434756e+000 -9.459453e+001  3.400237e+000
      vertex  1.847759e+000 -9.526392e+001  3.436161e+000
      vertex  2.029052e+000 -9.602928e+001  3.400237e+000
    endloop
  endfacet
  facet normal  7.684250e-001  1.528494e-001  6.214177e-001
    outer loop
      vertex  1.847759e+000 -9.526392e+001  3.436161e+000
      vertex  2.000000e+000 -9.602928e+001  3.436161e+000
      vertex  2.029052e+000 -9.602928e+001  3.400237e+000
    endloop
  endfacet
  facet normal  6.514604e-001  4.352901e-001  6.213871e-001
    outer loop
      vertex  1.414214e+000 -9.461507e+001  3.436161e+000
      vertex  1.847759e+000 -9.526392e+001  3.436161e+000
      vertex  1.434756e+000 -9.459453e+001  3.400237e+000
    endloop
  endfacet
  facet normal  4.352948e-001  6.514724e-001  6.213710e-001
    outer loop
      vertex  7.653669e-001 -9.418153e+001  3.436161e+000
      vertex  1.414214e+000 -9.461507e+001  3.436161e+000
      vertex  1.434756e+000 -9.459453e+001  3.400237e+000
    endloop
  endfacet
  facet normal -7.684250e-001  1.528494e-001  6.214177e-001
    outer loop
      vertex -2.000000e+000 -9.602928e+001  3.436161e+000
      vertex -1.847759e+000 -9.526392e+001  3.436161e+000
      vertex -2.029052e+000 -9.602928e+001  3.400237e+000
    endloop
  endfacet
  facet normal -2.544336e-001  1.053900e-001 -9.613305e-001
    outer loop
      vertex -1.847759e+000 -9.526392e+001  3.436161e+000
      vertex -1.434756e+000 -9.459453e+001  3.400237e+000
      vertex -2.029052e+000 -9.602928e+001  3.400237e+000
    endloop
  endfacet
  facet normal -1.053926e-001  2.544386e-001 -9.613290e-001
    outer loop
      vertex -1.434756e+000 -9.459453e+001  3.400237e+000
      vertex -7.653669e-001 -9.418153e+001  3.436161e+000
      vertex -4.101294e-015 -9.400023e+001  3.400237e+000
    endloop
  endfacet
  facet normal -1.528504e-001  7.684124e-001  6.214330e-001
    outer loop
      vertex -7.653669e-001 -9.418153e+001  3.436161e+000
      vertex -3.673941e-016 -9.402928e+001  3.436161e+000
      vertex -4.101294e-015 -9.400023e+001  3.400237e+000
    endloop
  endfacet
  facet normal -4.352950e-001  6.514727e-001  6.213707e-001
    outer loop
      vertex -1.414214e+000 -9.461507e+001  3.436161e+000
      vertex -7.653669e-001 -9.418153e+001  3.436161e+000
      vertex -1.434756e+000 -9.459453e+001  3.400237e+000
    endloop
  endfacet
  facet normal -6.514603e-001  4.352901e-001  6.213871e-001
    outer loop
      vertex -1.847759e+000 -9.526392e+001  3.436161e+000
      vertex -1.414214e+000 -9.461507e+001  3.436161e+000
      vertex -1.434756e+000 -9.459453e+001  3.400237e+000
    endloop
  endfacet
  facet normal -7.401215e-001 -3.065673e-001  5.985287e-001
    outer loop
      vertex -2.029052e+000 -9.602928e+001  3.400237e+000
      vertex -1.434756e+000 -9.746404e+001  3.400237e+000
      vertex -2.000000e+000 -9.602928e+001  3.436161e+000
    endloop
  endfacet
  facet normal -7.401055e-001 -3.065615e-001  5.985515e-001
    outer loop
      vertex -2.000000e+000 -9.602928e+001  3.436161e+000
      vertex -1.434756e+000 -9.746404e+001  3.400237e+000
      vertex -1.414213e+000 -9.744350e+001  3.436161e+000
    endloop
  endfacet
  facet normal -3.065533e-001 -7.400898e-001  5.985752e-001
    outer loop
      vertex -1.434756e+000 -9.746404e+001  3.400237e+000
      vertex  2.484871e-016 -9.805833e+001  3.400237e+000
      vertex -1.414213e+000 -9.744350e+001  3.436161e+000
    endloop
  endfacet
  facet normal -3.065630e-001 -7.401103e-001  5.985449e-001
    outer loop
      vertex -1.414213e+000 -9.744350e+001  3.436161e+000
      vertex  2.484871e-016 -9.805833e+001  3.400237e+000
      vertex  1.744194e-014 -9.802928e+001  3.436161e+000
    endloop
  endfacet
  facet normal  3.065620e-001 -7.401109e-001  5.985444e-001
    outer loop
      vertex  2.484871e-016 -9.805833e+001  3.400237e+000
      vertex  1.434756e+000 -9.746404e+001  3.400237e+000
      vertex  1.744194e-014 -9.802928e+001  3.436161e+000
    endloop
  endfacet
  facet normal  3.065542e-001 -7.400891e-001  5.985755e-001
    outer loop
      vertex  1.744194e-014 -9.802928e+001  3.436161e+000
      vertex  1.434756e+000 -9.746404e+001  3.400237e+000
      vertex  1.414213e+000 -9.744350e+001  3.436161e+000
    endloop
  endfacet
  facet normal  7.401060e-001 -3.065609e-001  5.985513e-001
    outer loop
      vertex  1.434756e+000 -9.746404e+001  3.400237e+000
      vertex  2.029052e+000 -9.602928e+001  3.400237e+000
      vertex  1.414213e+000 -9.744350e+001  3.436161e+000
    endloop
  endfacet
  facet normal  7.401212e-001 -3.065681e-001  5.985286e-001
    outer loop
      vertex  1.414213e+000 -9.744350e+001  3.436161e+000
      vertex  2.029052e+000 -9.602928e+001  3.400237e+000
      vertex  2.000000e+000 -9.602928e+001  3.436161e+000
    endloop
  endfacet
  facet normal  0.000000e+000  0.000000e+000 -1.000000e+000
    outer loop
      vertex  1.808774e+000 -9.702928e+001  1.400302e+000
      vertex -1.808774e+000 -9.702928e+001  1.400302e+000
      vertex  2.030804e+000 -9.564523e+001  1.400302e+000
    endloop
  endfacet
  facet normal  -0.000000e+000  0.000000e+000 -1.000000e+000
    outer loop
      vertex  2.030804e+000 -9.564523e+001  1.400302e+000
      vertex -1.808774e+000 -9.702928e+001  1.400302e+000
      vertex -2.030804e+000 -9.564523e+001  1.400302e+000
    endloop
  endfacet
  facet normal  0.000000e+000  0.000000e+000 -1.000000e+000
    outer loop
      vertex  2.030804e+000 -9.564523e+001  1.400302e+000
      vertex -2.030804e+000 -9.564523e+001  1.400302e+000
      vertex  1.318692e+000 -9.443784e+001  1.400302e+000
    endloop
  endfacet
  facet normal  -0.000000e+000  0.000000e+000 -1.000000e+000
    outer loop
      vertex  1.318692e+000 -9.443784e+001  1.400302e+000
      vertex -2.030804e+000 -9.564523e+001  1.400302e+000
      vertex -1.318692e+000 -9.443784e+001  1.400302e+000
    endloop
  endfacet
  facet normal  0.000000e+000  0.000000e+000 -1.000000e+000
    outer loop
      vertex  1.318692e+000 -9.443784e+001  1.400302e+000
      vertex -1.318692e+000 -9.443784e+001  1.400302e+000
      vertex -3.330669e-016 -9.396249e+001  1.400302e+000
    endloop
  endfacet
  facet normal -3.391112e-001 -9.407463e-001 -1.505956e-016
    outer loop
      vertex  1.318692e+000 -9.443784e+001 -5.996975e-001
      vertex -3.330669e-016 -9.396249e+001  1.400302e+000
      vertex  5.551115e-016 -9.396249e+001 -5.996975e-001
    endloop
  endfacet
  facet normal -3.391112e-001 -9.407463e-001  0.000000e+000
    outer loop
      vertex -3.330669e-016 -9.396249e+001  1.400302e+000
      vertex  1.318692e+000 -9.443784e+001 -5.996975e-001
      vertex  1.318692e+000 -9.443784e+001  1.400302e+000
    endloop
  endfacet
  facet normal -8.613467e-001 -5.080175e-001  -0.000000e+000
    outer loop
      vertex  1.318692e+000 -9.443784e+001  1.400302e+000
      vertex  1.318692e+000 -9.443784e+001 -5.996975e-001
      vertex  2.030804e+000 -9.564523e+001 -5.996975e-001
    endloop
  endfacet
  facet normal -8.613467e-001 -5.080175e-001  0.000000e+000
    outer loop
      vertex  1.318692e+000 -9.443784e+001  1.400302e+000
      vertex  2.030804e+000 -9.564523e+001 -5.996975e-001
      vertex  2.030804e+000 -9.564523e+001  1.400302e+000
    endloop
  endfacet
  facet normal -9.873759e-001  1.583947e-001  0.000000e+000
    outer loop
      vertex  2.030804e+000 -9.564523e+001  1.400302e+000
      vertex  2.030804e+000 -9.564523e+001 -5.996975e-001
      vertex  1.808774e+000 -9.702928e+001 -5.996975e-001
    endloop
  endfacet
  facet normal -9.873759e-001  1.583947e-001  0.000000e+000
    outer loop
      vertex  2.030804e+000 -9.564523e+001  1.400302e+000
      vertex  1.808774e+000 -9.702928e+001 -5.996975e-001
      vertex  1.808774e+000 -9.702928e+001  1.400302e+000
    endloop
  endfacet
  facet normal  9.873759e-001  1.583947e-001  0.000000e+000
    outer loop
      vertex -2.030804e+000 -9.564523e+001 -5.996975e-001
      vertex -1.808774e+000 -9.702928e+001  1.400302e+000
      vertex -1.808774e+000 -9.702928e+001 -5.996975e-001
    endloop
  endfacet
  facet normal  9.873759e-001  1.583947e-001  -0.000000e+000
    outer loop
      vertex -1.808774e+000 -9.702928e+001  1.400302e+000
      vertex -2.030804e+000 -9.564523e+001 -5.996975e-001
      vertex -2.030804e+000 -9.564523e+001  1.400302e+000
    endloop
  endfacet
  facet normal  8.613467e-001 -5.080175e-001  0.000000e+000
    outer loop
      vertex -2.030804e+000 -9.564523e+001  1.400302e+000
      vertex -2.030804e+000 -9.564523e+001 -5.996975e-001
      vertex -1.318692e+000 -9.443784e+001 -5.996975e-001
    endloop
  endfacet
  facet normal  8.613467e-001 -5.080175e-001  0.000000e+000
    outer loop
      vertex -2.030804e+000 -9.564523e+001  1.400302e+000
      vertex -1.318692e+000 -9.443784e+001 -5.996975e-001
      vertex -1.318692e+000 -9.443784e+001  1.400302e+000
    endloop
  endfacet
  facet normal  3.391112e-001 -9.407463e-001  0.000000e+000
    outer loop
      vertex -1.318692e+000 -9.443784e+001  1.400302e+000
      vertex -1.318692e+000 -9.443784e+001 -5.996975e-001
      vertex  5.551115e-016 -9.396249e+001 -5.996975e-001
    endloop
  endfacet
  facet normal  3.391112e-001 -9.407463e-001  1.505956e-016
    outer loop
      vertex -1.318692e+000 -9.443784e+001  1.400302e+000
      vertex  5.551115e-016 -9.396249e+001 -5.996975e-001
      vertex -3.330669e-016 -9.396249e+001  1.400302e+000
    endloop
  endfacet
  facet normal  0.000000e+000  9.999999e-001  0.000000e+000
    outer loop
      vertex -1.808774e+000 -9.702928e+001 -5.996975e-001
      vertex -1.808774e+000 -9.702928e+001  1.400302e+000
      vertex  1.808774e+000 -9.702928e+001 -5.996975e-001
    endloop
  endfacet
  facet normal  0.000000e+000  9.999999e-001  -0.000000e+000
    outer loop
      vertex  1.808774e+000 -9.702928e+001 -5.996975e-001
      vertex -1.808774e+000 -9.702928e+001  1.400302e+000
      vertex  1.808774e+000 -9.702928e+001  1.400302e+000
    endloop
  endfacet
endsolid CATIA STL
