solid CATIA STL
  facet normal  -0.000000e+000  0.000000e+000 -1.000000e+000
    outer loop
      vertex -2.500000e+000  4.330127e+000 -2.500000e+001
      vertex -1.449569e+000  1.449569e+000 -2.500000e+001
      vertex -2.050000e+000 -8.317703e-016 -2.500000e+001
    endloop
  endfacet
  facet normal  0.000000e+000  0.000000e+000 -1.000000e+000
    outer loop
      vertex  2.500000e+000 -4.330127e+000 -2.500000e+001
      vertex  1.722546e-015 -5.000000e+000 -2.500000e+001
      vertex  7.062441e-016 -2.050000e+000 -2.500000e+001
    endloop
  endfacet
  facet normal  0.000000e+000  0.000000e+000 -1.000000e+000
    outer loop
      vertex  2.500000e+000 -4.330127e+000 -2.500000e+001
      vertex  7.062441e-016 -2.050000e+000 -2.500000e+001
      vertex  1.449569e+000 -1.449569e+000 -2.500000e+001
    endloop
  endfacet
  facet normal  0.000000e+000  0.000000e+000 -1.000000e+000
    outer loop
      vertex  2.500000e+000 -4.330127e+000 -2.500000e+001
      vertex  1.449569e+000 -1.449569e+000 -2.500000e+001
      vertex  2.050000e+000  1.255263e-016 -2.500000e+001
    endloop
  endfacet
  facet normal  0.000000e+000  0.000000e+000 -1.000000e+000
    outer loop
      vertex  2.500000e+000 -4.330127e+000 -2.500000e+001
      vertex  2.050000e+000  1.255263e-016 -2.500000e+001
      vertex  5.000000e+000  3.061617e-016 -2.500000e+001
    endloop
  endfacet
  facet normal  0.000000e+000  0.000000e+000 -1.000000e+000
    outer loop
      vertex  2.500000e+000 -4.330127e+000 -2.500000e+001
      vertex  5.000000e+000  3.061617e-016 -2.500000e+001
      vertex  4.330127e+000 -2.500000e+000 -2.500000e+001
    endloop
  endfacet
  facet normal  0.000000e+000  0.000000e+000 -1.000000e+000
    outer loop
      vertex -2.500000e+000  4.330127e+000 -2.500000e+001
      vertex -2.050000e+000 -8.317703e-016 -2.500000e+001
      vertex -4.330127e+000  2.500000e+000 -2.500000e+001
    endloop
  endfacet
  facet normal  0.000000e+000  -0.000000e+000 -1.000000e+000
    outer loop
      vertex -4.330127e+000  2.500000e+000 -2.500000e+001
      vertex -2.050000e+000 -8.317703e-016 -2.500000e+001
      vertex -5.000000e+000 -2.028708e-015 -2.500000e+001
    endloop
  endfacet
  facet normal  0.000000e+000  0.000000e+000 -9.999999e-001
    outer loop
      vertex -2.050000e+000 -8.317703e-016 -2.500000e+001
      vertex -2.500000e+000 -4.330127e+000 -2.500000e+001
      vertex -5.000000e+000 -2.028708e-015 -2.500000e+001
    endloop
  endfacet
  facet normal  0.000000e+000  0.000000e+000 -1.000000e+000
    outer loop
      vertex -5.000000e+000 -2.028708e-015 -2.500000e+001
      vertex -2.500000e+000 -4.330127e+000 -2.500000e+001
      vertex -4.330127e+000 -2.500000e+000 -2.500000e+001
    endloop
  endfacet
  facet normal  -0.000000e+000  0.000000e+000 -1.000000e+000
    outer loop
      vertex -2.050000e+000 -8.317703e-016 -2.500000e+001
      vertex -1.449569e+000 -1.449569e+000 -2.500000e+001
      vertex -2.500000e+000 -4.330127e+000 -2.500000e+001
    endloop
  endfacet
  facet normal  0.000000e+000  0.000000e+000 -1.000000e+000
    outer loop
      vertex -2.500000e+000 -4.330127e+000 -2.500000e+001
      vertex -1.449569e+000 -1.449569e+000 -2.500000e+001
      vertex  7.062441e-016 -2.050000e+000 -2.500000e+001
    endloop
  endfacet
  facet normal  0.000000e+000  -0.000000e+000 -1.000000e+000
    outer loop
      vertex -2.500000e+000 -4.330127e+000 -2.500000e+001
      vertex  7.062441e-016 -2.050000e+000 -2.500000e+001
      vertex  1.722546e-015 -5.000000e+000 -2.500000e+001
    endloop
  endfacet
  facet normal  0.000000e+000  0.000000e+000 -1.000000e+000
    outer loop
      vertex  2.050000e+000  1.255263e-016 -2.500000e+001
      vertex  1.449569e+000  1.449569e+000 -2.500000e+001
      vertex  2.500000e+000  4.330127e+000 -2.500000e+001
    endloop
  endfacet
  facet normal  0.000000e+000  0.000000e+000 -1.000000e+000
    outer loop
      vertex  2.500000e+000  4.330127e+000 -2.500000e+001
      vertex  1.449569e+000  1.449569e+000 -2.500000e+001
      vertex -1.110223e-017  2.050000e+000 -2.500000e+001
    endloop
  endfacet
  facet normal  0.000000e+000  0.000000e+000 -1.000000e+000
    outer loop
      vertex  2.500000e+000  4.330127e+000 -2.500000e+001
      vertex -1.110223e-017  2.050000e+000 -2.500000e+001
      vertex -2.334870e-015  5.000000e+000 -2.500000e+001
    endloop
  endfacet
  facet normal  0.000000e+000  -0.000000e+000 -1.000000e+000
    outer loop
      vertex -2.334870e-015  5.000000e+000 -2.500000e+001
      vertex -1.110223e-017  2.050000e+000 -2.500000e+001
      vertex -1.449569e+000  1.449569e+000 -2.500000e+001
    endloop
  endfacet
  facet normal  0.000000e+000  0.000000e+000 -9.999999e-001
    outer loop
      vertex -2.334870e-015  5.000000e+000 -2.500000e+001
      vertex -1.449569e+000  1.449569e+000 -2.500000e+001
      vertex -2.500000e+000  4.330127e+000 -2.500000e+001
    endloop
  endfacet
  facet normal  0.000000e+000  0.000000e+000 -1.000000e+000
    outer loop
      vertex  5.000000e+000  3.061617e-016 -2.500000e+001
      vertex  2.050000e+000  1.255263e-016 -2.500000e+001
      vertex  4.330127e+000  2.500000e+000 -2.500000e+001
    endloop
  endfacet
  facet normal  -0.000000e+000  0.000000e+000 -1.000000e+000
    outer loop
      vertex  4.330127e+000  2.500000e+000 -2.500000e+001
      vertex  2.050000e+000  1.255263e-016 -2.500000e+001
      vertex  2.500000e+000  4.330127e+000 -2.500000e+001
    endloop
  endfacet
  facet normal -8.048787e-001  5.934178e-001  5.059162e-003
    outer loop
      vertex -3.158368e+000  3.876173e+000  0.000000e+000
      vertex -4.330127e+000  2.500000e+000 -2.500000e+001
      vertex -4.636748e+000  1.870980e+000  0.000000e+000
    endloop
  endfacet
  facet normal -9.659147e-001 -2.588160e-001 -4.808188e-003
    outer loop
      vertex -5.000000e+000 -2.028708e-015 -2.500000e+001
      vertex -4.330127e+000 -2.500000e+000 -2.500000e+001
      vertex -4.964027e+000 -5.986942e-001  0.000000e+000
    endloop
  endfacet
  facet normal -9.913229e-001  1.313692e-001  4.572438e-003
    outer loop
      vertex -5.000000e+000 -2.028708e-015 -2.500000e+001
      vertex -4.964027e+000 -5.986942e-001  0.000000e+000
      vertex -4.636748e+000  1.870980e+000  0.000000e+000
    endloop
  endfacet
  facet normal -9.659121e-001  2.588153e-001 -5.334746e-003
    outer loop
      vertex -5.000000e+000 -2.028708e-015 -2.500000e+001
      vertex -4.636748e+000  1.870980e+000  0.000000e+000
      vertex -4.330127e+000  2.500000e+000 -2.500000e+001
    endloop
  endfacet
  facet normal -7.070950e-001  7.070950e-001 -5.781574e-003
    outer loop
      vertex -2.500000e+000  4.330127e+000 -2.500000e+001
      vertex -4.330127e+000  2.500000e+000 -2.500000e+001
      vertex -3.158368e+000  3.876173e+000  0.000000e+000
    endloop
  endfacet
  facet normal -4.186196e-001  9.081452e-001  5.466047e-003
    outer loop
      vertex -2.500000e+000  4.330127e+000 -2.500000e+001
      vertex -3.158368e+000  3.876173e+000  0.000000e+000
      vertex -8.959031e-001  4.919081e+000  0.000000e+000
    endloop
  endfacet
  facet normal -3.446594e-001  9.387279e-001  0.000000e+000
    outer loop
      vertex -2.500000e+000  4.330127e+000 -2.500000e+001
      vertex -8.959031e-001  4.919081e+000  0.000000e+000
      vertex -8.959031e-001  4.919081e+000 -1.700000e+001
    endloop
  endfacet
  facet normal -8.981812e-002  9.944274e-001 -5.519932e-002
    outer loop
      vertex -2.500000e+000  4.330127e+000 -2.500000e+001
      vertex -8.959031e-001  4.919081e+000 -1.700000e+001
      vertex -1.110223e-015  5.000000e+000 -1.700000e+001
    endloop
  endfacet
  facet normal -2.588190e-001  9.659259e-001  3.962023e-017
    outer loop
      vertex -2.500000e+000  4.330127e+000 -2.500000e+001
      vertex -1.110223e-015  5.000000e+000 -1.700000e+001
      vertex -2.334870e-015  5.000000e+000 -2.500000e+001
    endloop
  endfacet
  facet normal -2.588190e-001 -9.659259e-001  4.638663e-018
    outer loop
      vertex -2.500000e+000 -4.330127e+000 -2.500000e+001
      vertex  1.722546e-015 -5.000000e+000 -2.500000e+001
      vertex  2.170607e-015 -5.000000e+000  0.000000e+000
    endloop
  endfacet
  facet normal -1.552558e-001 -9.878137e-001 -1.094279e-002
    outer loop
      vertex -2.500000e+000 -4.330127e+000 -2.500000e+001
      vertex  2.170607e-015 -5.000000e+000  0.000000e+000
      vertex -1.533822e+000 -4.758927e+000  0.000000e+000
    endloop
  endfacet
  facet normal -4.508225e-001 -8.926111e-001  2.112916e-003
    outer loop
      vertex -2.500000e+000 -4.330127e+000 -2.500000e+001
      vertex -1.533822e+000 -4.758927e+000  0.000000e+000
      vertex -2.919739e+000 -4.058956e+000  0.000000e+000
    endloop
  endfacet
  facet normal -5.426525e-001 -8.399574e-001  -0.000000e+000
    outer loop
      vertex -2.500000e+000 -4.330127e+000 -2.500000e+001
      vertex -2.919739e+000 -4.058956e+000  0.000000e+000
      vertex -2.919739e+000 -4.058956e+000 -1.700000e+001
    endloop
  endfacet
  facet normal -6.476242e-001 -7.619162e-001 -8.152911e-003
    outer loop
      vertex -2.500000e+000 -4.330127e+000 -2.500000e+001
      vertex -2.919739e+000 -4.058956e+000 -1.700000e+001
      vertex -3.535534e+000 -3.535534e+000 -1.700000e+001
    endloop
  endfacet
  facet normal -7.614937e-001 -6.472651e-001 -3.428001e-002
    outer loop
      vertex -2.500000e+000 -4.330127e+000 -2.500000e+001
      vertex -3.535534e+000 -3.535534e+000 -1.700000e+001
      vertex -4.058956e+000 -2.919739e+000 -1.700000e+001
    endloop
  endfacet
  facet normal -7.070459e-001 -7.070459e-001 -1.313052e-002
    outer loop
      vertex -2.500000e+000 -4.330127e+000 -2.500000e+001
      vertex -4.058956e+000 -2.919739e+000 -1.700000e+001
      vertex -4.330127e+000 -2.500000e+000 -2.500000e+001
    endloop
  endfacet
  facet normal -8.399574e-001 -5.426525e-001  -0.000000e+000
    outer loop
      vertex -4.058956e+000 -2.919739e+000 -1.700000e+001
      vertex -4.058956e+000 -2.919739e+000  0.000000e+000
      vertex -4.330127e+000 -2.500000e+000 -2.500000e+001
    endloop
  endfacet
  facet normal -9.316656e-001 -3.632949e-001  4.006084e-003
    outer loop
      vertex -4.330127e+000 -2.500000e+000 -2.500000e+001
      vertex -4.058956e+000 -2.919739e+000  0.000000e+000
      vertex -4.964027e+000 -5.986942e-001  0.000000e+000
    endloop
  endfacet
  facet normal  8.048787e-001  5.934178e-001  5.059162e-003
    outer loop
      vertex  3.158368e+000  3.876173e+000  0.000000e+000
      vertex  4.636748e+000  1.870980e+000  0.000000e+000
      vertex  4.330127e+000  2.500000e+000 -2.500000e+001
    endloop
  endfacet
  facet normal  7.070950e-001  7.070950e-001 -5.781575e-003
    outer loop
      vertex  4.330127e+000  2.500000e+000 -2.500000e+001
      vertex  2.500000e+000  4.330127e+000 -2.500000e+001
      vertex  3.158368e+000  3.876173e+000  0.000000e+000
    endloop
  endfacet
  facet normal  9.659121e-001  2.588153e-001 -5.334746e-003
    outer loop
      vertex  5.000000e+000  3.061617e-016 -2.500000e+001
      vertex  4.330127e+000  2.500000e+000 -2.500000e+001
      vertex  4.636748e+000  1.870980e+000  0.000000e+000
    endloop
  endfacet
  facet normal  9.913229e-001  1.313692e-001  4.572438e-003
    outer loop
      vertex  5.000000e+000  3.061617e-016 -2.500000e+001
      vertex  4.636748e+000  1.870980e+000  0.000000e+000
      vertex  4.964027e+000 -5.986942e-001  0.000000e+000
    endloop
  endfacet
  facet normal  9.659147e-001 -2.588160e-001 -4.808189e-003
    outer loop
      vertex  5.000000e+000  3.061617e-016 -2.500000e+001
      vertex  4.964027e+000 -5.986942e-001  0.000000e+000
      vertex  4.330127e+000 -2.500000e+000 -2.500000e+001
    endloop
  endfacet
  facet normal  9.316655e-001 -3.632949e-001  4.006085e-003
    outer loop
      vertex  4.330127e+000 -2.500000e+000 -2.500000e+001
      vertex  4.964027e+000 -5.986942e-001  0.000000e+000
      vertex  4.058956e+000 -2.919739e+000  0.000000e+000
    endloop
  endfacet
  facet normal  8.399574e-001 -5.426525e-001  0.000000e+000
    outer loop
      vertex  4.330127e+000 -2.500000e+000 -2.500000e+001
      vertex  4.058956e+000 -2.919739e+000  0.000000e+000
      vertex  4.058956e+000 -2.919739e+000 -1.700000e+001
    endloop
  endfacet
  facet normal  7.619162e-001 -6.476242e-001 -8.152911e-003
    outer loop
      vertex  4.330127e+000 -2.500000e+000 -2.500000e+001
      vertex  4.058956e+000 -2.919739e+000 -1.700000e+001
      vertex  3.535534e+000 -3.535534e+000 -1.700000e+001
    endloop
  endfacet
  facet normal  6.472651e-001 -7.614937e-001 -3.428001e-002
    outer loop
      vertex  4.330127e+000 -2.500000e+000 -2.500000e+001
      vertex  3.535534e+000 -3.535534e+000 -1.700000e+001
      vertex  2.919739e+000 -4.058956e+000 -1.700000e+001
    endloop
  endfacet
  facet normal  7.070459e-001 -7.070459e-001 -1.313052e-002
    outer loop
      vertex  4.330127e+000 -2.500000e+000 -2.500000e+001
      vertex  2.919739e+000 -4.058956e+000 -1.700000e+001
      vertex  2.500000e+000 -4.330127e+000 -2.500000e+001
    endloop
  endfacet
  facet normal  1.552651e-001 -9.878728e-001 -2.782728e-018
    outer loop
      vertex  2.170607e-015 -5.000000e+000  0.000000e+000
      vertex  1.722546e-015 -5.000000e+000 -2.500000e+001
      vertex  1.533822e+000 -4.758927e+000  0.000000e+000
    endloop
  endfacet
  facet normal  2.588134e-001 -9.659050e-001 -6.564817e-003
    outer loop
      vertex  1.533822e+000 -4.758927e+000  0.000000e+000
      vertex  1.722546e-015 -5.000000e+000 -2.500000e+001
      vertex  2.500000e+000 -4.330127e+000 -2.500000e+001
    endloop
  endfacet
  facet normal  4.508225e-001 -8.926111e-001  2.112916e-003
    outer loop
      vertex  1.533822e+000 -4.758927e+000  0.000000e+000
      vertex  2.500000e+000 -4.330127e+000 -2.500000e+001
      vertex  2.919739e+000 -4.058956e+000  0.000000e+000
    endloop
  endfacet
  facet normal  5.426525e-001 -8.399574e-001  0.000000e+000
    outer loop
      vertex  2.919739e+000 -4.058956e+000  0.000000e+000
      vertex  2.500000e+000 -4.330127e+000 -2.500000e+001
      vertex  2.919739e+000 -4.058956e+000 -1.700000e+001
    endloop
  endfacet
  facet normal  4.186259e-001  9.081588e-001  0.000000e+000
    outer loop
      vertex  8.959031e-001  4.919081e+000  0.000000e+000
      vertex  3.158368e+000  3.876173e+000  0.000000e+000
      vertex  8.959031e-001  4.919081e+000 -1.700000e+001
    endloop
  endfacet
  facet normal  3.750377e-001  9.269835e-001  6.955834e-003
    outer loop
      vertex  8.959031e-001  4.919081e+000 -1.700000e+001
      vertex  3.158368e+000  3.876173e+000  0.000000e+000
      vertex  2.500000e+000  4.330127e+000 -2.500000e+001
    endloop
  endfacet
  facet normal  8.981812e-002  9.944274e-001 -5.519931e-002
    outer loop
      vertex  8.959031e-001  4.919081e+000 -1.700000e+001
      vertex  2.500000e+000  4.330127e+000 -2.500000e+001
      vertex -1.110223e-015  5.000000e+000 -1.700000e+001
    endloop
  endfacet
  facet normal  2.588190e-001  9.659259e-001 -3.962023e-017
    outer loop
      vertex -1.110223e-015  5.000000e+000 -1.700000e+001
      vertex  2.500000e+000  4.330127e+000 -2.500000e+001
      vertex -2.334870e-015  5.000000e+000 -2.500000e+001
    endloop
  endfacet
  facet normal  9.238794e-001 -3.826834e-001  0.000000e+000
    outer loop
      vertex -2.050000e+000 -8.317703e-016  3.000000e+000
      vertex -1.449569e+000  1.449569e+000 -2.500000e+001
      vertex -1.449569e+000  1.449569e+000  3.000000e+000
    endloop
  endfacet
  facet normal  3.826834e-001 -9.238794e-001  0.000000e+000
    outer loop
      vertex -1.449569e+000  1.449569e+000  3.000000e+000
      vertex -1.449569e+000  1.449569e+000 -2.500000e+001
      vertex -1.110223e-017  2.050000e+000 -2.500000e+001
    endloop
  endfacet
  facet normal  3.826834e-001 -9.238794e-001  1.293189e-017
    outer loop
      vertex -1.449569e+000  1.449569e+000  3.000000e+000
      vertex -1.110223e-017  2.050000e+000 -2.500000e+001
      vertex -9.572966e-016  2.050000e+000  3.000000e+000
    endloop
  endfacet
  facet normal  9.238794e-001 -3.826834e-001  0.000000e+000
    outer loop
      vertex -1.449569e+000  1.449569e+000 -2.500000e+001
      vertex -2.050000e+000 -8.317703e-016  3.000000e+000
      vertex -2.050000e+000 -8.317703e-016 -2.500000e+001
    endloop
  endfacet
  facet normal  9.238794e-001  3.826834e-001  -0.000000e+000
    outer loop
      vertex -2.050000e+000 -8.317703e-016 -2.500000e+001
      vertex -2.050000e+000 -8.317703e-016  3.000000e+000
      vertex -1.449569e+000 -1.449569e+000  3.000000e+000
    endloop
  endfacet
  facet normal  9.238794e-001  3.826834e-001  0.000000e+000
    outer loop
      vertex -2.050000e+000 -8.317703e-016 -2.500000e+001
      vertex -1.449569e+000 -1.449569e+000  3.000000e+000
      vertex -1.449569e+000 -1.449569e+000 -2.500000e+001
    endloop
  endfacet
  facet normal  3.826834e-001  9.238794e-001  -0.000000e+000
    outer loop
      vertex -1.449569e+000 -1.449569e+000 -2.500000e+001
      vertex -1.449569e+000 -1.449569e+000  3.000000e+000
      vertex  1.616627e-015 -2.050000e+000  3.000000e+000
    endloop
  endfacet
  facet normal  3.826834e-001  9.238794e-001 -1.244244e-017
    outer loop
      vertex -1.449569e+000 -1.449569e+000 -2.500000e+001
      vertex  1.616627e-015 -2.050000e+000  3.000000e+000
      vertex  7.062441e-016 -2.050000e+000 -2.500000e+001
    endloop
  endfacet
  facet normal -9.238794e-001  3.826834e-001  0.000000e+000
    outer loop
      vertex  2.050000e+000  5.807177e-016  3.000000e+000
      vertex  1.449569e+000 -1.449569e+000 -2.500000e+001
      vertex  1.449569e+000 -1.449569e+000  3.000000e+000
    endloop
  endfacet
  facet normal -3.826834e-001  9.238794e-001  0.000000e+000
    outer loop
      vertex  1.449569e+000 -1.449569e+000  3.000000e+000
      vertex  1.449569e+000 -1.449569e+000 -2.500000e+001
      vertex  7.062441e-016 -2.050000e+000 -2.500000e+001
    endloop
  endfacet
  facet normal -3.826834e-001  9.238794e-001  1.244244e-017
    outer loop
      vertex  1.449569e+000 -1.449569e+000  3.000000e+000
      vertex  7.062441e-016 -2.050000e+000 -2.500000e+001
      vertex  1.616627e-015 -2.050000e+000  3.000000e+000
    endloop
  endfacet
  facet normal -9.238794e-001  3.826834e-001 -6.221222e-018
    outer loop
      vertex  1.449569e+000 -1.449569e+000 -2.500000e+001
      vertex  2.050000e+000  5.807177e-016  3.000000e+000
      vertex  2.050000e+000  1.255263e-016 -2.500000e+001
    endloop
  endfacet
  facet normal -9.238794e-001 -3.826834e-001  6.221222e-018
    outer loop
      vertex  2.050000e+000  1.255263e-016 -2.500000e+001
      vertex  2.050000e+000  5.807177e-016  3.000000e+000
      vertex  1.449569e+000  1.449569e+000  3.000000e+000
    endloop
  endfacet
  facet normal -9.238794e-001 -3.826834e-001  -0.000000e+000
    outer loop
      vertex  2.050000e+000  1.255263e-016 -2.500000e+001
      vertex  1.449569e+000  1.449569e+000  3.000000e+000
      vertex  1.449569e+000  1.449569e+000 -2.500000e+001
    endloop
  endfacet
  facet normal -3.826834e-001 -9.238794e-001  0.000000e+000
    outer loop
      vertex  1.449569e+000  1.449569e+000 -2.500000e+001
      vertex  1.449569e+000  1.449569e+000  3.000000e+000
      vertex -9.572966e-016  2.050000e+000  3.000000e+000
    endloop
  endfacet
  facet normal -3.826834e-001 -9.238794e-001 -1.293189e-017
    outer loop
      vertex  1.449569e+000  1.449569e+000 -2.500000e+001
      vertex -9.572966e-016  2.050000e+000  3.000000e+000
      vertex -1.110223e-017  2.050000e+000 -2.500000e+001
    endloop
  endfacet
  facet normal  0.000000e+000  0.000000e+000  1.000000e+000
    outer loop
      vertex -1.000000e+001  1.000000e+001  3.000000e+000
      vertex -1.000000e+001 -1.000000e+001  3.000000e+000
      vertex -1.449569e+000 -1.449569e+000  3.000000e+000
    endloop
  endfacet
  facet normal  0.000000e+000  0.000000e+000  1.000000e+000
    outer loop
      vertex -1.000000e+001  1.000000e+001  3.000000e+000
      vertex -1.449569e+000 -1.449569e+000  3.000000e+000
      vertex -2.050000e+000 -8.317703e-016  3.000000e+000
    endloop
  endfacet
  facet normal  0.000000e+000  -0.000000e+000  1.000000e+000
    outer loop
      vertex -1.000000e+001  1.000000e+001  3.000000e+000
      vertex -2.050000e+000 -8.317703e-016  3.000000e+000
      vertex -1.449569e+000  1.449569e+000  3.000000e+000
    endloop
  endfacet
  facet normal  0.000000e+000  -0.000000e+000  1.000000e+000
    outer loop
      vertex -1.000000e+001  1.000000e+001  3.000000e+000
      vertex -1.449569e+000  1.449569e+000  3.000000e+000
      vertex  1.000000e+001  1.000000e+001  3.000000e+000
    endloop
  endfacet
  facet normal  0.000000e+000  0.000000e+000  9.999999e-001
    outer loop
      vertex  1.000000e+001 -1.000000e+001  3.000000e+000
      vertex  1.000000e+001  1.000000e+001  3.000000e+000
      vertex  2.050000e+000  5.807177e-016  3.000000e+000
    endloop
  endfacet
  facet normal  0.000000e+000  0.000000e+000  1.000000e+000
    outer loop
      vertex  1.000000e+001 -1.000000e+001  3.000000e+000
      vertex  2.050000e+000  5.807177e-016  3.000000e+000
      vertex  1.449569e+000 -1.449569e+000  3.000000e+000
    endloop
  endfacet
  facet normal  0.000000e+000  0.000000e+000  1.000000e+000
    outer loop
      vertex  1.000000e+001 -1.000000e+001  3.000000e+000
      vertex  1.449569e+000 -1.449569e+000  3.000000e+000
      vertex  1.616627e-015 -2.050000e+000  3.000000e+000
    endloop
  endfacet
  facet normal  0.000000e+000  0.000000e+000  1.000000e+000
    outer loop
      vertex  1.000000e+001 -1.000000e+001  3.000000e+000
      vertex  1.616627e-015 -2.050000e+000  3.000000e+000
      vertex -1.449569e+000 -1.449569e+000  3.000000e+000
    endloop
  endfacet
  facet normal  0.000000e+000  0.000000e+000  1.000000e+000
    outer loop
      vertex  1.000000e+001 -1.000000e+001  3.000000e+000
      vertex -1.449569e+000 -1.449569e+000  3.000000e+000
      vertex -1.000000e+001 -1.000000e+001  3.000000e+000
    endloop
  endfacet
  facet normal  0.000000e+000  0.000000e+000  1.000000e+000
    outer loop
      vertex  1.000000e+001  1.000000e+001  3.000000e+000
      vertex -1.449569e+000  1.449569e+000  3.000000e+000
      vertex -9.572966e-016  2.050000e+000  3.000000e+000
    endloop
  endfacet
  facet normal  -0.000000e+000  0.000000e+000  1.000000e+000
    outer loop
      vertex  1.000000e+001  1.000000e+001  3.000000e+000
      vertex -9.572966e-016  2.050000e+000  3.000000e+000
      vertex  1.449569e+000  1.449569e+000  3.000000e+000
    endloop
  endfacet
  facet normal  -0.000000e+000  0.000000e+000  1.000000e+000
    outer loop
      vertex  1.000000e+001  1.000000e+001  3.000000e+000
      vertex  1.449569e+000  1.449569e+000  3.000000e+000
      vertex  2.050000e+000  5.807177e-016  3.000000e+000
    endloop
  endfacet
  facet normal  0.000000e+000 -1.000000e+000  0.000000e+000
    outer loop
      vertex -1.000000e+001 -1.000000e+001 -2.220446e-015
      vertex  1.000000e+001 -1.000000e+001 -2.220446e-015
      vertex -1.000000e+001 -1.000000e+001  3.000000e+000
    endloop
  endfacet
  facet normal  0.000000e+000 -1.000000e+000  0.000000e+000
    outer loop
      vertex -1.000000e+001 -1.000000e+001  3.000000e+000
      vertex  1.000000e+001 -1.000000e+001 -2.220446e-015
      vertex  1.000000e+001 -1.000000e+001  3.000000e+000
    endloop
  endfacet
  facet normal  1.000000e+000  0.000000e+000  0.000000e+000
    outer loop
      vertex  1.000000e+001 -1.000000e+001 -2.220446e-015
      vertex  1.000000e+001  1.000000e+001  0.000000e+000
      vertex  1.000000e+001 -1.000000e+001  3.000000e+000
    endloop
  endfacet
  facet normal  1.000000e+000  -0.000000e+000  0.000000e+000
    outer loop
      vertex  1.000000e+001 -1.000000e+001  3.000000e+000
      vertex  1.000000e+001  1.000000e+001  0.000000e+000
      vertex  1.000000e+001  1.000000e+001  3.000000e+000
    endloop
  endfacet
  facet normal  0.000000e+000  1.000000e+000  -0.000000e+000
    outer loop
      vertex  1.000000e+001  1.000000e+001  3.000000e+000
      vertex  1.000000e+001  1.000000e+001  0.000000e+000
      vertex -1.000000e+001  1.000000e+001  3.000000e+000
    endloop
  endfacet
  facet normal  0.000000e+000  1.000000e+000  0.000000e+000
    outer loop
      vertex -1.000000e+001  1.000000e+001  3.000000e+000
      vertex  1.000000e+001  1.000000e+001  0.000000e+000
      vertex -2.220446e-015  1.000000e+001 -5.966392e-010
    endloop
  endfacet
  facet normal  0.000000e+000  1.000000e+000  0.000000e+000
    outer loop
      vertex -1.000000e+001  1.000000e+001  3.000000e+000
      vertex -2.220446e-015  1.000000e+001 -5.966392e-010
      vertex -1.000000e+001  1.000000e+001  0.000000e+000
    endloop
  endfacet
  facet normal -1.000000e+000  0.000000e+000  0.000000e+000
    outer loop
      vertex -1.000000e+001  1.000000e+001  0.000000e+000
      vertex -1.000000e+001 -1.000000e+001 -2.220446e-015
      vertex -1.000000e+001  1.000000e+001  3.000000e+000
    endloop
  endfacet
  facet normal -1.000000e+000  -0.000000e+000  0.000000e+000
    outer loop
      vertex -1.000000e+001  1.000000e+001  3.000000e+000
      vertex -1.000000e+001 -1.000000e+001 -2.220446e-015
      vertex -1.000000e+001 -1.000000e+001  3.000000e+000
    endloop
  endfacet
  facet normal  -0.000000e+000  0.000000e+000 -1.000000e+000
    outer loop
      vertex -8.816349e-001  5.000000e+000 -1.700000e+001
      vertex -1.110223e-015  5.000000e+000 -1.700000e+001
      vertex -8.959031e-001  4.919081e+000 -1.700000e+001
    endloop
  endfacet
  facet normal -9.848078e-001  1.736482e-001  0.000000e+000
    outer loop
      vertex -8.959031e-001  4.919081e+000  0.000000e+000
      vertex -2.220446e-015  1.000000e+001 -5.966392e-010
      vertex -8.959031e-001  4.919081e+000 -1.700000e+001
    endloop
  endfacet
  facet normal -9.848078e-001  1.736478e-001  1.120108e-007
    outer loop
      vertex -8.959031e-001  4.919081e+000 -1.700000e+001
      vertex -2.220446e-015  1.000000e+001 -5.966392e-010
      vertex -8.816349e-001  5.000000e+000 -1.700000e+001
    endloop
  endfacet
  facet normal  5.891834e-011 -1.278163e-010 -1.000000e+000
    outer loop
      vertex -2.220446e-015  1.000000e+001 -5.966392e-010
      vertex -8.959031e-001  4.919081e+000  0.000000e+000
      vertex -3.158368e+000  3.876173e+000  0.000000e+000
    endloop
  endfacet
  facet normal  4.398100e-010 -3.242614e-010 -1.000000e+000
    outer loop
      vertex -2.220446e-015  1.000000e+001 -5.966392e-010
      vertex -3.158368e+000  3.876173e+000  0.000000e+000
      vertex -4.636748e+000  1.870980e+000  0.000000e+000
    endloop
  endfacet
  facet normal -5.966392e-011 -3.936423e-011 -1.000000e+000
    outer loop
      vertex -2.220446e-015  1.000000e+001 -5.966392e-010
      vertex -4.636748e+000  1.870980e+000  0.000000e+000
      vertex -1.000000e+001  1.000000e+001  0.000000e+000
    endloop
  endfacet
  facet normal  2.551671e-016  9.950016e-017 -1.000000e+000
    outer loop
      vertex -4.058956e+000 -2.919739e+000  0.000000e+000
      vertex -1.000000e+001 -1.000000e+001 -2.220446e-015
      vertex -4.964027e+000 -5.986942e-001  0.000000e+000
    endloop
  endfacet
  facet normal  2.336572e-016  1.110223e-016 -1.000000e+000
    outer loop
      vertex -4.964027e+000 -5.986942e-001  0.000000e+000
      vertex -1.000000e+001 -1.000000e+001 -2.220446e-015
      vertex -1.000000e+001  1.000000e+001  0.000000e+000
    endloop
  endfacet
  facet normal  0.000000e+000  0.000000e+000 -1.000000e+000
    outer loop
      vertex -4.964027e+000 -5.986942e-001  0.000000e+000
      vertex -1.000000e+001  1.000000e+001  0.000000e+000
      vertex -4.636748e+000  1.870980e+000  0.000000e+000
    endloop
  endfacet
  facet normal -2.551671e-016  9.950018e-017 -1.000000e+000
    outer loop
      vertex  4.058956e+000 -2.919739e+000  0.000000e+000
      vertex  4.964027e+000 -5.986942e-001  0.000000e+000
      vertex  1.000000e+001 -1.000000e+001 -2.220446e-015
    endloop
  endfacet
  facet normal -2.336572e-016  1.110223e-016 -1.000000e+000
    outer loop
      vertex  1.000000e+001  1.000000e+001  0.000000e+000
      vertex  1.000000e+001 -1.000000e+001 -2.220446e-015
      vertex  4.964027e+000 -5.986942e-001  0.000000e+000
    endloop
  endfacet
  facet normal  0.000000e+000  0.000000e+000 -1.000000e+000
    outer loop
      vertex  1.000000e+001  1.000000e+001  0.000000e+000
      vertex  4.964027e+000 -5.986942e-001  0.000000e+000
      vertex  4.636748e+000  1.870980e+000  0.000000e+000
    endloop
  endfacet
  facet normal  0.000000e+000  0.000000e+000 -1.000000e+000
    outer loop
      vertex  1.000000e+001  1.000000e+001  0.000000e+000
      vertex  4.636748e+000  1.870980e+000  0.000000e+000
      vertex  3.158368e+000  3.876173e+000  0.000000e+000
    endloop
  endfacet
  facet normal  0.000000e+000  0.000000e+000 -1.000000e+000
    outer loop
      vertex  1.000000e+001  1.000000e+001  0.000000e+000
      vertex  3.158368e+000  3.876173e+000  0.000000e+000
      vertex  8.959031e-001  4.919081e+000  0.000000e+000
    endloop
  endfacet
  facet normal  5.966391e-011 -1.069070e-010 -1.000000e+000
    outer loop
      vertex  1.000000e+001  1.000000e+001  0.000000e+000
      vertex  8.959031e-001  4.919081e+000  0.000000e+000
      vertex -2.220446e-015  1.000000e+001 -5.966392e-010
    endloop
  endfacet
  facet normal  0.000000e+000  0.000000e+000 -1.000000e+000
    outer loop
      vertex  4.101101e+000 -2.969966e+000 -1.700000e+001
      vertex  3.535534e+000 -3.535534e+000 -1.700000e+001
      vertex  4.058956e+000 -2.919739e+000 -1.700000e+001
    endloop
  endfacet
  facet normal -6.427876e-001 -7.660444e-001  6.069541e-009
    outer loop
      vertex  1.000000e+001 -1.000000e+001 -2.220446e-015
      vertex  2.919739e+000 -4.058956e+000  0.000000e+000
      vertex  2.969966e+000 -4.101101e+000 -1.700000e+001
    endloop
  endfacet
  facet normal -6.427888e-001 -7.660434e-001  0.000000e+000
    outer loop
      vertex  2.969966e+000 -4.101101e+000 -1.700000e+001
      vertex  2.919739e+000 -4.058956e+000  0.000000e+000
      vertex  2.919739e+000 -4.058956e+000 -1.700000e+001
    endloop
  endfacet
  facet normal  1.178374e-016  2.333136e-016 -9.999999e-001
    outer loop
      vertex -2.919739e+000 -4.058956e+000  0.000000e+000
      vertex -1.533822e+000 -4.758927e+000  0.000000e+000
      vertex -1.000000e+001 -1.000000e+001 -2.220446e-015
    endloop
  endfacet
  facet normal  0.000000e+000  4.236625e-016 -1.000000e+000
    outer loop
      vertex  1.000000e+001 -1.000000e+001 -2.220446e-015
      vertex -1.000000e+001 -1.000000e+001 -2.220446e-015
      vertex -1.533822e+000 -4.758927e+000  0.000000e+000
    endloop
  endfacet
  facet normal  1.017972e-016  6.476835e-016 -1.000000e+000
    outer loop
      vertex  1.000000e+001 -1.000000e+001 -2.220446e-015
      vertex -1.533822e+000 -4.758927e+000  0.000000e+000
      vertex  2.170607e-015 -5.000000e+000  0.000000e+000
    endloop
  endfacet
  facet normal -5.310490e-017  3.378794e-016 -1.000000e+000
    outer loop
      vertex  1.000000e+001 -1.000000e+001 -2.220446e-015
      vertex  2.170607e-015 -5.000000e+000  0.000000e+000
      vertex  1.533822e+000 -4.758927e+000  0.000000e+000
    endloop
  endfacet
  facet normal -1.178374e-016  2.333136e-016 -9.999999e-001
    outer loop
      vertex  1.000000e+001 -1.000000e+001 -2.220446e-015
      vertex  1.533822e+000 -4.758927e+000  0.000000e+000
      vertex  2.919739e+000 -4.058956e+000  0.000000e+000
    endloop
  endfacet
  facet normal  0.000000e+000  0.000000e+000 -1.000000e+000
    outer loop
      vertex -2.969966e+000 -4.101101e+000 -1.700000e+001
      vertex -3.535534e+000 -3.535534e+000 -1.700000e+001
      vertex -2.919739e+000 -4.058956e+000 -1.700000e+001
    endloop
  endfacet
  facet normal  6.427876e-001 -7.660444e-001  0.000000e+000
    outer loop
      vertex -2.919739e+000 -4.058956e+000  0.000000e+000
      vertex -1.000000e+001 -1.000000e+001 -2.220446e-015
      vertex -2.919739e+000 -4.058956e+000 -1.700000e+001
    endloop
  endfacet
  facet normal  6.427888e-001 -7.660434e-001  8.555904e-007
    outer loop
      vertex -2.919739e+000 -4.058956e+000 -1.700000e+001
      vertex -1.000000e+001 -1.000000e+001 -2.220446e-015
      vertex -2.969966e+000 -4.101101e+000 -1.700000e+001
    endloop
  endfacet
  facet normal -7.660444e-001  6.427876e-001  6.069541e-009
    outer loop
      vertex -1.000000e+001 -1.000000e+001 -2.220446e-015
      vertex -4.058956e+000 -2.919739e+000  0.000000e+000
      vertex -4.101101e+000 -2.969966e+000 -1.700000e+001
    endloop
  endfacet
  facet normal -7.660434e-001  6.427888e-001  0.000000e+000
    outer loop
      vertex -4.101101e+000 -2.969966e+000 -1.700000e+001
      vertex -4.058956e+000 -2.919739e+000  0.000000e+000
      vertex -4.058956e+000 -2.919739e+000 -1.700000e+001
    endloop
  endfacet
  facet normal  9.848078e-001  1.736482e-001  1.783897e-009
    outer loop
      vertex -2.220446e-015  1.000000e+001 -5.966392e-010
      vertex  8.959031e-001  4.919081e+000  0.000000e+000
      vertex  8.816349e-001  5.000000e+000 -1.700000e+001
    endloop
  endfacet
  facet normal  9.848078e-001  1.736478e-001  0.000000e+000
    outer loop
      vertex  8.816349e-001  5.000000e+000 -1.700000e+001
      vertex  8.959031e-001  4.919081e+000  0.000000e+000
      vertex  8.959031e-001  4.919081e+000 -1.700000e+001
    endloop
  endfacet
  facet normal  -0.000000e+000  -0.000000e+000 -1.000000e+000
    outer loop
      vertex -1.110223e-015  5.000000e+000 -1.700000e+001
      vertex  8.816349e-001  5.000000e+000 -1.700000e+001
      vertex  8.959031e-001  4.919081e+000 -1.700000e+001
    endloop
  endfacet
  facet normal  0.000000e+000  9.593655e-001 -2.821663e-001
    outer loop
      vertex -8.816349e-001  5.000000e+000 -1.700000e+001
      vertex -2.220446e-015  1.000000e+001 -5.966392e-010
      vertex -1.110223e-015  5.000000e+000 -1.700000e+001
    endloop
  endfacet
  facet normal  0.000000e+000  9.593655e-001 -2.821663e-001
    outer loop
      vertex -2.220446e-015  1.000000e+001 -5.966392e-010
      vertex  8.816349e-001  5.000000e+000 -1.700000e+001
      vertex -1.110223e-015  5.000000e+000 -1.700000e+001
    endloop
  endfacet
  facet normal  0.000000e+000  0.000000e+000 -1.000000e+000
    outer loop
      vertex -3.535534e+000 -3.535534e+000 -1.700000e+001
      vertex -4.101101e+000 -2.969966e+000 -1.700000e+001
      vertex -4.058956e+000 -2.919739e+000 -1.700000e+001
    endloop
  endfacet
  facet normal -6.227658e-001 -6.227663e-001 -4.736295e-001
    outer loop
      vertex -2.969966e+000 -4.101101e+000 -1.700000e+001
      vertex -1.000000e+001 -1.000000e+001 -2.220446e-015
      vertex -3.535534e+000 -3.535534e+000 -1.700000e+001
    endloop
  endfacet
  facet normal -6.227660e-001 -6.227660e-001 -4.736294e-001
    outer loop
      vertex -1.000000e+001 -1.000000e+001 -2.220446e-015
      vertex -4.101101e+000 -2.969966e+000 -1.700000e+001
      vertex -3.535534e+000 -3.535534e+000 -1.700000e+001
    endloop
  endfacet
  facet normal  0.000000e+000  0.000000e+000 -1.000000e+000
    outer loop
      vertex  3.535534e+000 -3.535534e+000 -1.700000e+001
      vertex  2.969966e+000 -4.101101e+000 -1.700000e+001
      vertex  2.919739e+000 -4.058956e+000 -1.700000e+001
    endloop
  endfacet
  facet normal  7.660444e-001  6.427876e-001  0.000000e+000
    outer loop
      vertex  4.058956e+000 -2.919739e+000  0.000000e+000
      vertex  1.000000e+001 -1.000000e+001 -2.220446e-015
      vertex  4.058956e+000 -2.919739e+000 -1.700000e+001
    endloop
  endfacet
  facet normal  7.660434e-001  6.427888e-001  8.555904e-007
    outer loop
      vertex  4.058956e+000 -2.919739e+000 -1.700000e+001
      vertex  1.000000e+001 -1.000000e+001 -2.220446e-015
      vertex  4.101101e+000 -2.969966e+000 -1.700000e+001
    endloop
  endfacet
  facet normal  6.227663e-001 -6.227658e-001 -4.736295e-001
    outer loop
      vertex  4.101101e+000 -2.969966e+000 -1.700000e+001
      vertex  1.000000e+001 -1.000000e+001 -2.220446e-015
      vertex  3.535534e+000 -3.535534e+000 -1.700000e+001
    endloop
  endfacet
  facet normal  6.227660e-001 -6.227660e-001 -4.736294e-001
    outer loop
      vertex  1.000000e+001 -1.000000e+001 -2.220446e-015
      vertex  2.969966e+000 -4.101101e+000 -1.700000e+001
      vertex  3.535534e+000 -3.535534e+000 -1.700000e+001
    endloop
  endfacet
endsolid CATIA STL
