solid CATIA STL
  facet normal  1.000000e+000  0.000000e+000  0.000000e+000
    outer loop
      vertex  9.794763e+002  2.248000e+002  6.032343e+001
      vertex  9.794763e+002  2.368000e+002  6.032343e+001
      vertex  9.794763e+002  2.248000e+002  6.722581e+001
    endloop
  endfacet
  facet normal  1.000000e+000  0.000000e+000  0.000000e+000
    outer loop
      vertex  9.794763e+002  2.248000e+002  6.722581e+001
      vertex  9.794763e+002  2.368000e+002  6.032343e+001
      vertex  9.794763e+002  2.382142e+002  6.090921e+001
    endloop
  endfacet
  facet normal  1.000000e+000  0.000000e+000  0.000000e+000
    outer loop
      vertex  9.794763e+002  2.248000e+002  6.722581e+001
      vertex  9.794763e+002  2.382142e+002  6.090921e+001
      vertex  9.794763e+002  2.360500e+002  6.722581e+001
    endloop
  endfacet
  facet normal  1.000000e+000  0.000000e+000  0.000000e+000
    outer loop
      vertex  9.794763e+002  2.360500e+002  6.722581e+001
      vertex  9.794763e+002  2.382142e+002  6.090921e+001
      vertex  9.794763e+002  2.388000e+002  6.232343e+001
    endloop
  endfacet
  facet normal  1.000000e+000  0.000000e+000  0.000000e+000
    outer loop
      vertex  9.794763e+002  2.360500e+002  6.722581e+001
      vertex  9.794763e+002  2.388000e+002  6.232343e+001
      vertex  9.794763e+002  2.360500e+002  6.972925e+001
    endloop
  endfacet
  facet normal  1.000000e+000  -0.000000e+000  0.000000e+000
    outer loop
      vertex  9.794763e+002  2.360500e+002  6.972925e+001
      vertex  9.794763e+002  2.388000e+002  6.232343e+001
      vertex  9.794763e+002  2.388000e+002  7.775806e+001
    endloop
  endfacet
  facet normal  9.999999e-001  0.000000e+000  0.000000e+000
    outer loop
      vertex  9.794763e+002  2.360500e+002  6.972925e+001
      vertex  9.794763e+002  2.388000e+002  7.775806e+001
      vertex  9.794763e+002  2.248000e+002  6.972925e+001
    endloop
  endfacet
  facet normal  1.000000e+000  0.000000e+000  0.000000e+000
    outer loop
      vertex  9.794763e+002  2.248000e+002  6.972925e+001
      vertex  9.794763e+002  2.388000e+002  7.775806e+001
      vertex  9.794763e+002  2.248000e+002  7.976080e+001
    endloop
  endfacet
  facet normal  1.000000e+000  0.000000e+000  0.000000e+000
    outer loop
      vertex  9.794763e+002  2.388000e+002  7.775806e+001
      vertex  9.794763e+002  2.384231e+002  7.892816e+001
      vertex  9.794763e+002  2.248000e+002  7.976080e+001
    endloop
  endfacet
  facet normal  1.000000e+000  0.000000e+000  0.000000e+000
    outer loop
      vertex  9.794763e+002  2.248000e+002  7.976080e+001
      vertex  9.794763e+002  2.384231e+002  7.892816e+001
      vertex  9.794763e+002  2.377115e+002  7.954073e+001
    endloop
  endfacet
  facet normal  9.999999e-001  0.000000e+000  0.000000e+000
    outer loop
      vertex  9.794763e+002  2.248000e+002  7.976080e+001
      vertex  9.794763e+002  2.377115e+002  7.954073e+001
      vertex  9.794763e+002  2.368000e+002  7.976080e+001
    endloop
  endfacet
  facet normal  0.000000e+000  1.000000e+000  0.000000e+000
    outer loop
      vertex  9.403362e+002  2.388000e+002  6.232343e+001
      vertex  9.398212e+002  2.388000e+002  6.246626e+001
      vertex  9.794763e+002  2.388000e+002  6.232343e+001
    endloop
  endfacet
  facet normal  0.000000e+000  1.000000e+000  0.000000e+000
    outer loop
      vertex  9.401992e+002  2.388000e+002  7.981647e+001
      vertex  9.794763e+002  2.388000e+002  7.775806e+001
      vertex  9.393375e+002  2.388000e+002  6.337576e+001
    endloop
  endfacet
  facet normal  -0.000000e+000  1.000000e+000  0.000000e+000
    outer loop
      vertex  9.393375e+002  2.388000e+002  6.337576e+001
      vertex  9.794763e+002  2.388000e+002  7.775806e+001
      vertex  9.794763e+002  2.388000e+002  6.232343e+001
    endloop
  endfacet
  facet normal  0.000000e+000  9.999999e-001  0.000000e+000
    outer loop
      vertex  9.393375e+002  2.388000e+002  6.337576e+001
      vertex  9.794763e+002  2.388000e+002  6.232343e+001
      vertex  9.394532e+002  2.388000e+002  6.285395e+001
    endloop
  endfacet
  facet normal  0.000000e+000  1.000000e+000  0.000000e+000
    outer loop
      vertex  9.394532e+002  2.388000e+002  6.285395e+001
      vertex  9.794763e+002  2.388000e+002  6.232343e+001
      vertex  9.398212e+002  2.388000e+002  6.246626e+001
    endloop
  endfacet
  facet normal  -0.000000e+000  0.000000e+000 -9.999999e-001
    outer loop
      vertex  9.403362e+002  2.368000e+002  6.032343e+001
      vertex  9.794763e+002  2.368000e+002  6.032343e+001
      vertex  9.403362e+002  2.108000e+002  6.032343e+001
    endloop
  endfacet
  facet normal  0.000000e+000  0.000000e+000 -1.000000e+000
    outer loop
      vertex  9.403362e+002  2.108000e+002  6.032343e+001
      vertex  9.794763e+002  2.368000e+002  6.032343e+001
      vertex  9.794763e+002  2.248000e+002  6.032343e+001
    endloop
  endfacet
  facet normal  0.000000e+000  -0.000000e+000 -1.000000e+000
    outer loop
      vertex  9.403362e+002  2.108000e+002  6.032343e+001
      vertex  9.794763e+002  2.248000e+002  6.032343e+001
      vertex  9.794763e+002  2.108000e+002  6.032343e+001
    endloop
  endfacet
  facet normal -3.338080e-001  0.000000e+000  9.426411e-001
    outer loop
      vertex  9.403038e+002  2.108000e+002  8.181374e+001
      vertex  9.403038e+002  2.368000e+002  8.181374e+001
      vertex  9.388609e+002  2.108000e+002  8.130276e+001
    endloop
  endfacet
  facet normal -3.338080e-001  0.000000e+000  9.426411e-001
    outer loop
      vertex  9.388609e+002  2.108000e+002  8.130276e+001
      vertex  9.403038e+002  2.368000e+002  8.181374e+001
      vertex  9.388609e+002  2.368000e+002  8.130276e+001
    endloop
  endfacet
  facet normal -9.025852e-001  0.000000e+000  4.305112e-001
    outer loop
      vertex  9.388609e+002  2.108000e+002  8.130276e+001
      vertex  9.388609e+002  2.368000e+002  8.130276e+001
      vertex  9.382019e+002  2.108000e+002  7.992115e+001
    endloop
  endfacet
  facet normal -9.025852e-001  0.000000e+000  4.305112e-001
    outer loop
      vertex  9.382019e+002  2.108000e+002  7.992115e+001
      vertex  9.388609e+002  2.368000e+002  8.130276e+001
      vertex  9.382019e+002  2.368000e+002  7.992115e+001
    endloop
  endfacet
  facet normal -9.762959e-001  -0.000000e+000 -2.164397e-001
    outer loop
      vertex  9.373403e+002  2.108000e+002  6.348043e+001
      vertex  9.373403e+002  2.368000e+002  6.348043e+001
      vertex  9.376873e+002  2.108000e+002  6.191501e+001
    endloop
  endfacet
  facet normal -9.762959e-001  0.000000e+000 -2.164397e-001
    outer loop
      vertex  9.376873e+002  2.108000e+002  6.191501e+001
      vertex  9.373403e+002  2.368000e+002  6.348043e+001
      vertex  9.376873e+002  2.368000e+002  6.191501e+001
    endloop
  endfacet
  facet normal -7.253643e-001  -0.000000e+000 -6.883652e-001
    outer loop
      vertex  9.376873e+002  2.108000e+002  6.191501e+001
      vertex  9.376873e+002  2.368000e+002  6.191501e+001
      vertex  9.387911e+002  2.108000e+002  6.075192e+001
    endloop
  endfacet
  facet normal -7.253643e-001  0.000000e+000 -6.883652e-001
    outer loop
      vertex  9.387911e+002  2.108000e+002  6.075192e+001
      vertex  9.376873e+002  2.368000e+002  6.191501e+001
      vertex  9.387911e+002  2.368000e+002  6.075192e+001
    endloop
  endfacet
  facet normal -2.672394e-001  -0.000000e+000 -9.636302e-001
    outer loop
      vertex  9.387911e+002  2.108000e+002  6.075192e+001
      vertex  9.387911e+002  2.368000e+002  6.075192e+001
      vertex  9.403362e+002  2.108000e+002  6.032343e+001
    endloop
  endfacet
  facet normal -2.672394e-001  0.000000e+000 -9.636302e-001
    outer loop
      vertex  9.403362e+002  2.108000e+002  6.032343e+001
      vertex  9.387911e+002  2.368000e+002  6.075192e+001
      vertex  9.403362e+002  2.368000e+002  6.032343e+001
    endloop
  endfacet
  facet normal  5.233597e-002  0.000000e+000  9.986295e-001
    outer loop
      vertex  9.403038e+002  2.108000e+002  8.181374e+001
      vertex  9.794763e+002  2.108000e+002  7.976080e+001
      vertex  9.403038e+002  2.368000e+002  8.181374e+001
    endloop
  endfacet
  facet normal  5.233597e-002  0.000000e+000  9.986295e-001
    outer loop
      vertex  9.403038e+002  2.368000e+002  8.181374e+001
      vertex  9.794763e+002  2.108000e+002  7.976080e+001
      vertex  9.794763e+002  2.248000e+002  7.976080e+001
    endloop
  endfacet
  facet normal  5.233597e-002  -0.000000e+000  9.986296e-001
    outer loop
      vertex  9.403038e+002  2.368000e+002  8.181374e+001
      vertex  9.794763e+002  2.248000e+002  7.976080e+001
      vertex  9.794763e+002  2.368000e+002  7.976080e+001
    endloop
  endfacet
  facet normal -9.986295e-001 -7.993975e-006  5.233667e-002
    outer loop
      vertex  9.382019e+002  2.368000e+002  7.992115e+001
      vertex  9.373403e+002  2.368000e+002  6.348043e+001
      vertex  9.376039e+002  2.320500e+002  6.851080e+001
    endloop
  endfacet
  facet normal -9.986297e-001 -1.357220e-006  5.233391e-002
    outer loop
      vertex  9.382019e+002  2.368000e+002  7.992115e+001
      vertex  9.376039e+002  2.320500e+002  6.851080e+001
      vertex  9.379446e+002  2.320500e+002  7.501080e+001
    endloop
  endfacet
  facet normal -9.986296e-001  0.000000e+000  5.233259e-002
    outer loop
      vertex  9.382019e+002  2.368000e+002  7.992115e+001
      vertex  9.379446e+002  2.320500e+002  7.501080e+001
      vertex  9.379446e+002  2.255500e+002  7.501080e+001
    endloop
  endfacet
  facet normal -9.986295e-001 -1.870021e-006  5.233687e-002
    outer loop
      vertex  9.382019e+002  2.368000e+002  7.992115e+001
      vertex  9.379446e+002  2.255500e+002  7.501080e+001
      vertex  9.380352e+002  2.192963e+002  7.673884e+001
    endloop
  endfacet
  facet normal -9.986307e-001  2.292569e-006  5.231404e-002
    outer loop
      vertex  9.382019e+002  2.368000e+002  7.992115e+001
      vertex  9.380352e+002  2.192963e+002  7.673884e+001
      vertex  9.381296e+002  2.186612e+002  7.854129e+001
    endloop
  endfacet
  facet normal -9.986271e-001 -2.982296e-006  5.238318e-002
    outer loop
      vertex  9.382019e+002  2.368000e+002  7.992115e+001
      vertex  9.381296e+002  2.186612e+002  7.854129e+001
      vertex  9.381729e+002  2.169358e+002  7.936732e+001
    endloop
  endfacet
  facet normal -9.986327e-001  0.000000e+000  5.227651e-002
    outer loop
      vertex  9.382019e+002  2.108000e+002  7.992115e+001
      vertex  9.382019e+002  2.368000e+002  7.992115e+001
      vertex  9.381729e+002  2.169358e+002  7.936732e+001
    endloop
  endfacet
  facet normal -9.986286e-001  6.982782e-006  5.235365e-002
    outer loop
      vertex  9.382019e+002  2.108000e+002  7.992115e+001
      vertex  9.381729e+002  2.169358e+002  7.936732e+001
      vertex  9.381396e+002  2.151309e+002  7.873306e+001
    endloop
  endfacet
  facet normal -9.986303e-001 -2.176191e-006  5.232036e-002
    outer loop
      vertex  9.382019e+002  2.108000e+002  7.992115e+001
      vertex  9.381396e+002  2.151309e+002  7.873306e+001
      vertex  9.380494e+002  2.143037e+002  7.701004e+001
    endloop
  endfacet
  facet normal -9.986284e-001  2.825348e-005  5.235688e-002
    outer loop
      vertex  9.382019e+002  2.108000e+002  7.992115e+001
      vertex  9.380494e+002  2.143037e+002  7.701004e+001
      vertex  9.379549e+002  2.149388e+002  7.520759e+001
    endloop
  endfacet
  facet normal -9.986295e-001  5.985015e-006  5.233738e-002
    outer loop
      vertex  9.382019e+002  2.108000e+002  7.992115e+001
      vertex  9.379549e+002  2.149388e+002  7.520759e+001
      vertex  9.376497e+002  2.143000e+002  6.938472e+001
    endloop
  endfacet
  facet normal -9.986296e-001  3.810792e-006  5.233667e-002
    outer loop
      vertex  9.382019e+002  2.108000e+002  7.992115e+001
      vertex  9.376497e+002  2.143000e+002  6.938472e+001
      vertex  9.373403e+002  2.108000e+002  6.348043e+001
    endloop
  endfacet
  facet normal -9.986293e-001 -3.570711e-006  5.234103e-002
    outer loop
      vertex  9.373403e+002  2.108000e+002  6.348043e+001
      vertex  9.376497e+002  2.143000e+002  6.938472e+001
      vertex  9.375572e+002  2.150322e+002  6.761938e+001
    endloop
  endfacet
  facet normal -9.986293e-001 -2.698450e-006  5.234013e-002
    outer loop
      vertex  9.373403e+002  2.108000e+002  6.348043e+001
      vertex  9.375572e+002  2.150322e+002  6.761938e+001
      vertex  9.375189e+002  2.168000e+002  6.688815e+001
    endloop
  endfacet
  facet normal -9.986311e-001  1.716623e-005  5.230524e-002
    outer loop
      vertex  9.373403e+002  2.108000e+002  6.348043e+001
      vertex  9.375189e+002  2.168000e+002  6.688815e+001
      vertex  9.375572e+002  2.185678e+002  6.761938e+001
    endloop
  endfacet
  facet normal -9.986301e-001  6.468363e-006  5.232528e-002
    outer loop
      vertex  9.373403e+002  2.108000e+002  6.348043e+001
      vertex  9.375572e+002  2.185678e+002  6.761938e+001
      vertex  9.376039e+002  2.255500e+002  6.851080e+001
    endloop
  endfacet
  facet normal -9.986290e-001  0.000000e+000  5.234419e-002
    outer loop
      vertex  9.373403e+002  2.108000e+002  6.348043e+001
      vertex  9.376039e+002  2.255500e+002  6.851080e+001
      vertex  9.376039e+002  2.320500e+002  6.851080e+001
    endloop
  endfacet
  facet normal -9.986290e-001  0.000000e+000  5.234419e-002
    outer loop
      vertex  9.373403e+002  2.108000e+002  6.348043e+001
      vertex  9.376039e+002  2.320500e+002  6.851080e+001
      vertex  9.373403e+002  2.368000e+002  6.348043e+001
    endloop
  endfacet
  facet normal -9.986293e-001 -1.223233e-006  5.233920e-002
    outer loop
      vertex  9.380352e+002  2.192963e+002  7.673884e+001
      vertex  9.379446e+002  2.255500e+002  7.501080e+001
      vertex  9.376497e+002  2.193000e+002  6.938472e+001
    endloop
  endfacet
  facet normal -9.986296e-001  3.558191e-006  5.233391e-002
    outer loop
      vertex  9.376497e+002  2.193000e+002  6.938472e+001
      vertex  9.379446e+002  2.255500e+002  7.501080e+001
      vertex  9.376039e+002  2.255500e+002  6.851080e+001
    endloop
  endfacet
  facet normal -9.986293e-001  4.501515e-006  5.234065e-002
    outer loop
      vertex  9.376497e+002  2.193000e+002  6.938472e+001
      vertex  9.376039e+002  2.255500e+002  6.851080e+001
      vertex  9.375572e+002  2.185678e+002  6.761938e+001
    endloop
  endfacet
  facet normal -9.986295e-001  1.469142e-005  5.233643e-002
    outer loop
      vertex  9.376497e+002  2.143000e+002  6.938472e+001
      vertex  9.379549e+002  2.149388e+002  7.520759e+001
      vertex  9.377422e+002  2.150322e+002  7.115006e+001
    endloop
  endfacet
  facet normal -9.986296e-001  9.852213e-006  5.233632e-002
    outer loop
      vertex  9.377422e+002  2.150322e+002  7.115006e+001
      vertex  9.379549e+002  2.149388e+002  7.520759e+001
      vertex  9.379116e+002  2.166642e+002  7.438155e+001
    endloop
  endfacet
  facet normal -9.986293e-001  2.812040e-006  5.233987e-002
    outer loop
      vertex  9.377422e+002  2.150322e+002  7.115006e+001
      vertex  9.379116e+002  2.166642e+002  7.438155e+001
      vertex  9.377806e+002  2.168000e+002  7.188129e+001
    endloop
  endfacet
  facet normal -9.986294e-001 -2.145917e-005  5.233855e-002
    outer loop
      vertex  9.377806e+002  2.168000e+002  7.188129e+001
      vertex  9.379116e+002  2.166642e+002  7.438155e+001
      vertex  9.379448e+002  2.184691e+002  7.501582e+001
    endloop
  endfacet
  facet normal -9.986299e-001 -6.619908e-006  5.233067e-002
    outer loop
      vertex  9.377806e+002  2.168000e+002  7.188129e+001
      vertex  9.379448e+002  2.184691e+002  7.501582e+001
      vertex  9.377422e+002  2.185678e+002  7.115006e+001
    endloop
  endfacet
  facet normal -9.986297e-001  4.712303e-005  5.233204e-002
    outer loop
      vertex  9.377422e+002  2.185678e+002  7.115006e+001
      vertex  9.379448e+002  2.184691e+002  7.501582e+001
      vertex  9.380352e+002  2.192963e+002  7.673884e+001
    endloop
  endfacet
  facet normal -9.986293e-001 -7.968189e-006  5.233920e-002
    outer loop
      vertex  9.377422e+002  2.185678e+002  7.115006e+001
      vertex  9.380352e+002  2.192963e+002  7.673884e+001
      vertex  9.376497e+002  2.193000e+002  6.938472e+001
    endloop
  endfacet
  facet normal  0.000000e+000  3.826822e-001 -9.238800e-001
    outer loop
      vertex  9.794763e+002  2.368000e+002  6.032343e+001
      vertex  9.403362e+002  2.368000e+002  6.032343e+001
      vertex  9.794763e+002  2.382142e+002  6.090921e+001
    endloop
  endfacet
  facet normal  0.000000e+000  3.826822e-001 -9.238800e-001
    outer loop
      vertex  9.794763e+002  2.382142e+002  6.090921e+001
      vertex  9.403362e+002  2.368000e+002  6.032343e+001
      vertex  9.403362e+002  2.382142e+002  6.090921e+001
    endloop
  endfacet
  facet normal  0.000000e+000  9.238800e-001 -3.826822e-001
    outer loop
      vertex  9.794763e+002  2.382142e+002  6.090921e+001
      vertex  9.403362e+002  2.382142e+002  6.090921e+001
      vertex  9.794763e+002  2.388000e+002  6.232343e+001
    endloop
  endfacet
  facet normal  0.000000e+000  9.238800e-001 -3.826822e-001
    outer loop
      vertex  9.794763e+002  2.388000e+002  6.232343e+001
      vertex  9.403362e+002  2.382142e+002  6.090921e+001
      vertex  9.403362e+002  2.388000e+002  6.232343e+001
    endloop
  endfacet
  facet normal  4.835215e-002  3.826826e-001  9.226137e-001
    outer loop
      vertex  9.403038e+002  2.368000e+002  8.181374e+001
      vertex  9.794763e+002  2.368000e+002  7.976080e+001
      vertex  9.402732e+002  2.382142e+002  8.122875e+001
    endloop
  endfacet
  facet normal  4.482045e-002  2.344614e-001  9.710916e-001
    outer loop
      vertex  9.402732e+002  2.382142e+002  8.122875e+001
      vertex  9.794763e+002  2.368000e+002  7.976080e+001
      vertex  9.794763e+002  2.377115e+002  7.954073e+001
    endloop
  endfacet
  facet normal  4.096614e-002  6.518114e-001  7.572738e-001
    outer loop
      vertex  9.402732e+002  2.382142e+002  8.122875e+001
      vertex  9.794763e+002  2.377115e+002  7.954073e+001
      vertex  9.794763e+002  2.384231e+002  7.892816e+001
    endloop
  endfacet
  facet normal  1.291682e-002  9.517697e-001  3.065412e-001
    outer loop
      vertex  9.794763e+002  2.384231e+002  7.892816e+001
      vertex  9.794763e+002  2.388000e+002  7.775806e+001
      vertex  9.402732e+002  2.382142e+002  8.122875e+001
    endloop
  endfacet
  facet normal  2.002795e-002  9.238802e-001  3.821575e-001
    outer loop
      vertex  9.402732e+002  2.382142e+002  8.122875e+001
      vertex  9.794763e+002  2.388000e+002  7.775806e+001
      vertex  9.401992e+002  2.388000e+002  7.981647e+001
    endloop
  endfacet
  facet normal -1.365585e-001  9.124873e-001  3.856406e-001
    outer loop
      vertex  9.401992e+002  2.388000e+002  7.981647e+001
      vertex  9.392529e+002  2.382142e+002  8.086745e+001
      vertex  9.402732e+002  2.382142e+002  8.122875e+001
    endloop
  endfacet
  facet normal -3.692624e-001  9.124852e-001  1.761141e-001
    outer loop
      vertex  9.401992e+002  2.388000e+002  7.981647e+001
      vertex  9.387869e+002  2.382142e+002  7.989050e+001
      vertex  9.392529e+002  2.382142e+002  8.086745e+001
    endloop
  endfacet
  facet normal -8.429737e-001  3.574299e-001  4.020436e-001
    outer loop
      vertex  9.387869e+002  2.382142e+002  7.989050e+001
      vertex  9.382019e+002  2.368000e+002  7.992115e+001
      vertex  9.392529e+002  2.382142e+002  8.086745e+001
    endloop
  endfacet
  facet normal -8.429691e-001  3.574049e-001  4.020757e-001
    outer loop
      vertex  9.392529e+002  2.382142e+002  8.086745e+001
      vertex  9.382019e+002  2.368000e+002  7.992115e+001
      vertex  9.388609e+002  2.368000e+002  8.130276e+001
    endloop
  endfacet
  facet normal -3.117509e-001  3.574019e-001  8.803836e-001
    outer loop
      vertex  9.392529e+002  2.382142e+002  8.086745e+001
      vertex  9.388609e+002  2.368000e+002  8.130276e+001
      vertex  9.402732e+002  2.382142e+002  8.122875e+001
    endloop
  endfacet
  facet normal -3.117592e-001  3.574098e-001  8.803774e-001
    outer loop
      vertex  9.402732e+002  2.382142e+002  8.122875e+001
      vertex  9.388609e+002  2.368000e+002  8.130276e+001
      vertex  9.403038e+002  2.368000e+002  8.181374e+001
    endloop
  endfacet
  facet normal -3.821681e-001  9.238757e-001  2.002886e-002
    outer loop
      vertex  9.401992e+002  2.388000e+002  7.981647e+001
      vertex  9.393375e+002  2.388000e+002  6.337576e+001
      vertex  9.387869e+002  2.382142e+002  7.989050e+001
    endloop
  endfacet
  facet normal -3.821683e-001  9.238757e-001  2.002886e-002
    outer loop
      vertex  9.387869e+002  2.382142e+002  7.989050e+001
      vertex  9.393375e+002  2.388000e+002  6.337576e+001
      vertex  9.379253e+002  2.382142e+002  6.344978e+001
    endloop
  endfacet
  facet normal -9.226048e-001  3.827044e-001  4.835232e-002
    outer loop
      vertex  9.387869e+002  2.382142e+002  7.989050e+001
      vertex  9.379253e+002  2.382142e+002  6.344978e+001
      vertex  9.382019e+002  2.368000e+002  7.992115e+001
    endloop
  endfacet
  facet normal -9.226048e-001  3.827044e-001  4.835232e-002
    outer loop
      vertex  9.382019e+002  2.368000e+002  7.992115e+001
      vertex  9.379253e+002  2.382142e+002  6.344978e+001
      vertex  9.373403e+002  2.368000e+002  6.348043e+001
    endloop
  endfacet
  facet normal -3.855580e-001  9.187130e-001 -8.550669e-002
    outer loop
      vertex  9.393375e+002  2.388000e+002  6.337576e+001
      vertex  9.394532e+002  2.388000e+002  6.285395e+001
      vertex  9.379253e+002  2.382142e+002  6.344978e+001
    endloop
  endfacet
  facet normal -3.855435e-001  9.187235e-001 -8.545919e-002
    outer loop
      vertex  9.379253e+002  2.382142e+002  6.344978e+001
      vertex  9.394532e+002  2.388000e+002  6.285395e+001
      vertex  9.382045e+002  2.382142e+002  6.219002e+001
    endloop
  endfacet
  facet normal -9.067315e-001  3.707333e-001 -2.009852e-001
    outer loop
      vertex  9.379253e+002  2.382142e+002  6.344978e+001
      vertex  9.382045e+002  2.382142e+002  6.219002e+001
      vertex  9.373403e+002  2.368000e+002  6.348043e+001
    endloop
  endfacet
  facet normal -9.067354e-001  3.707053e-001 -2.010185e-001
    outer loop
      vertex  9.373403e+002  2.368000e+002  6.348043e+001
      vertex  9.382045e+002  2.382142e+002  6.219002e+001
      vertex  9.376873e+002  2.368000e+002  6.191501e+001
    endloop
  endfacet
  facet normal -1.055390e-001  9.187219e-001 -3.805413e-001
    outer loop
      vertex  9.398212e+002  2.388000e+002  6.246626e+001
      vertex  9.403362e+002  2.388000e+002  6.232343e+001
      vertex  9.390928e+002  2.382142e+002  6.125404e+001
    endloop
  endfacet
  facet normal -1.055351e-001  9.187207e-001 -3.805452e-001
    outer loop
      vertex  9.390928e+002  2.382142e+002  6.125404e+001
      vertex  9.403362e+002  2.388000e+002  6.232343e+001
      vertex  9.403362e+002  2.382142e+002  6.090921e+001
    endloop
  endfacet
  facet normal -2.481988e-001  3.707081e-001 -8.949709e-001
    outer loop
      vertex  9.390928e+002  2.382142e+002  6.125404e+001
      vertex  9.403362e+002  2.382142e+002  6.090921e+001
      vertex  9.387911e+002  2.368000e+002  6.075192e+001
    endloop
  endfacet
  facet normal -2.481985e-001  3.707078e-001 -8.949711e-001
    outer loop
      vertex  9.387911e+002  2.368000e+002  6.075192e+001
      vertex  9.403362e+002  2.382142e+002  6.090921e+001
      vertex  9.403362e+002  2.368000e+002  6.032343e+001
    endloop
  endfacet
  facet normal -2.864479e-001  9.187232e-001 -2.718369e-001
    outer loop
      vertex  9.394532e+002  2.388000e+002  6.285395e+001
      vertex  9.398212e+002  2.388000e+002  6.246626e+001
      vertex  9.382045e+002  2.382142e+002  6.219002e+001
    endloop
  endfacet
  facet normal -2.864476e-001  9.187229e-001 -2.718382e-001
    outer loop
      vertex  9.382045e+002  2.382142e+002  6.219002e+001
      vertex  9.398212e+002  2.388000e+002  6.246626e+001
      vertex  9.390928e+002  2.382142e+002  6.125404e+001
    endloop
  endfacet
  facet normal -6.736807e-001  3.707055e-001 -6.393214e-001
    outer loop
      vertex  9.382045e+002  2.382142e+002  6.219002e+001
      vertex  9.390928e+002  2.382142e+002  6.125404e+001
      vertex  9.376873e+002  2.368000e+002  6.191501e+001
    endloop
  endfacet
  facet normal -6.736818e-001  3.707078e-001 -6.393189e-001
    outer loop
      vertex  9.376873e+002  2.368000e+002  6.191501e+001
      vertex  9.390928e+002  2.382142e+002  6.125404e+001
      vertex  9.387911e+002  2.368000e+002  6.075192e+001
    endloop
  endfacet
  facet normal  0.000000e+000  1.000000e+000  -0.000000e+000
    outer loop
      vertex  9.872394e+002  2.248000e+002  7.935395e+001
      vertex  9.867550e+002  2.248000e+002  7.011071e+001
      vertex  9.794763e+002  2.248000e+002  7.976080e+001
    endloop
  endfacet
  facet normal  0.000000e+000  1.000000e+000  0.000000e+000
    outer loop
      vertex  9.794763e+002  2.248000e+002  7.976080e+001
      vertex  9.867550e+002  2.248000e+002  7.011071e+001
      vertex  9.794763e+002  2.248000e+002  6.972925e+001
    endloop
  endfacet
  facet normal  0.000000e+000  1.000000e+000  0.000000e+000
    outer loop
      vertex  9.862607e+002  2.248000e+002  6.067898e+001
      vertex  9.794763e+002  2.248000e+002  6.032343e+001
      vertex  9.866235e+002  2.248000e+002  6.760038e+001
    endloop
  endfacet
  facet normal  0.000000e+000  1.000000e+000  0.000000e+000
    outer loop
      vertex  9.866235e+002  2.248000e+002  6.760038e+001
      vertex  9.794763e+002  2.248000e+002  6.032343e+001
      vertex  9.794763e+002  2.248000e+002  6.722581e+001
    endloop
  endfacet
  facet normal  5.233539e-002  0.000000e+000 -9.986296e-001
    outer loop
      vertex  9.483630e+002  2.215500e+002  6.809867e+001
      vertex  9.483630e+002  2.360500e+002  6.809867e+001
      vertex  9.562269e+002  2.320500e+002  6.851080e+001
    endloop
  endfacet
  facet normal  5.233539e-002  0.000000e+000 -9.986296e-001
    outer loop
      vertex  9.483630e+002  2.215500e+002  6.809867e+001
      vertex  9.562269e+002  2.320500e+002  6.851080e+001
      vertex  9.562269e+002  2.255500e+002  6.851080e+001
    endloop
  endfacet
  facet normal  5.234552e-002 -1.996403e-005 -9.986290e-001
    outer loop
      vertex  9.483630e+002  2.215500e+002  6.809867e+001
      vertex  9.562269e+002  2.255500e+002  6.851080e+001
      vertex  9.564763e+002  2.255500e+002  6.852386e+001
    endloop
  endfacet
  facet normal  5.233612e-002 -8.447370e-007 -9.986295e-001
    outer loop
      vertex  9.483630e+002  2.215500e+002  6.809867e+001
      vertex  9.564763e+002  2.255500e+002  6.852386e+001
      vertex  9.794763e+002  2.248000e+002  6.972925e+001
    endloop
  endfacet
  facet normal  5.233583e-002  1.892180e-006 -9.986295e-001
    outer loop
      vertex  9.483630e+002  2.215500e+002  6.809867e+001
      vertex  9.794763e+002  2.248000e+002  6.972925e+001
      vertex  9.867550e+002  2.248000e+002  7.011071e+001
    endloop
  endfacet
  facet normal  5.233599e-002  0.000000e+000 -9.986295e-001
    outer loop
      vertex  9.483630e+002  2.215500e+002  6.809867e+001
      vertex  9.867550e+002  2.248000e+002  7.011071e+001
      vertex  9.867550e+002  2.215500e+002  7.011071e+001
    endloop
  endfacet
  facet normal  5.233615e-002  0.000000e+000 -9.986295e-001
    outer loop
      vertex  9.564763e+002  2.255500e+002  6.852386e+001
      vertex  9.564763e+002  2.320500e+002  6.852386e+001
      vertex  9.794763e+002  2.248000e+002  6.972925e+001
    endloop
  endfacet
  facet normal  5.233615e-002  0.000000e+000 -9.986295e-001
    outer loop
      vertex  9.794763e+002  2.248000e+002  6.972925e+001
      vertex  9.564763e+002  2.320500e+002  6.852386e+001
      vertex  9.794763e+002  2.360500e+002  6.972925e+001
    endloop
  endfacet
  facet normal  5.234552e-002 -5.404315e-005 -9.986290e-001
    outer loop
      vertex  9.564763e+002  2.320500e+002  6.852386e+001
      vertex  9.562269e+002  2.320500e+002  6.851080e+001
      vertex  9.794763e+002  2.360500e+002  6.972925e+001
    endloop
  endfacet
  facet normal  5.233603e-002  1.254999e-006 -9.986296e-001
    outer loop
      vertex  9.794763e+002  2.360500e+002  6.972925e+001
      vertex  9.562269e+002  2.320500e+002  6.851080e+001
      vertex  9.483630e+002  2.360500e+002  6.809867e+001
    endloop
  endfacet
  facet normal -5.233588e-002  0.000000e+000  9.986296e-001
    outer loop
      vertex  9.484939e+002  2.215500e+002  6.560210e+001
      vertex  9.866235e+002  2.215500e+002  6.760038e+001
      vertex  9.866235e+002  2.248000e+002  6.760038e+001
    endloop
  endfacet
  facet normal -5.233531e-002 -6.642005e-006  9.986296e-001
    outer loop
      vertex  9.484939e+002  2.215500e+002  6.560210e+001
      vertex  9.866235e+002  2.248000e+002  6.760038e+001
      vertex  9.794763e+002  2.248000e+002  6.722581e+001
    endloop
  endfacet
  facet normal -5.233600e-002  0.000000e+000  9.986295e-001
    outer loop
      vertex  9.484939e+002  2.215500e+002  6.560210e+001
      vertex  9.794763e+002  2.248000e+002  6.722581e+001
      vertex  9.794763e+002  2.360500e+002  6.722581e+001
    endloop
  endfacet
  facet normal -5.233600e-002  0.000000e+000  9.986295e-001
    outer loop
      vertex  9.484939e+002  2.215500e+002  6.560210e+001
      vertex  9.794763e+002  2.360500e+002  6.722581e+001
      vertex  9.484939e+002  2.360500e+002  6.560210e+001
    endloop
  endfacet
  facet normal  0.000000e+000 -1.000000e+000  -0.000000e+000
    outer loop
      vertex  9.794763e+002  2.360500e+002  6.722581e+001
      vertex  9.794763e+002  2.360500e+002  6.972925e+001
      vertex  9.484939e+002  2.360500e+002  6.560210e+001
    endloop
  endfacet
  facet normal  0.000000e+000 -1.000000e+000  0.000000e+000
    outer loop
      vertex  9.484939e+002  2.360500e+002  6.560210e+001
      vertex  9.794763e+002  2.360500e+002  6.972925e+001
      vertex  9.483630e+002  2.360500e+002  6.809867e+001
    endloop
  endfacet
  facet normal  9.986297e-001  0.000000e+000 -5.233200e-002
    outer loop
      vertex  9.867550e+002  2.215500e+002  7.011071e+001
      vertex  9.867550e+002  2.248000e+002  7.011071e+001
      vertex  9.869680e+002  2.192963e+002  7.417438e+001
    endloop
  endfacet
  facet normal  9.986297e-001  1.926715e-006 -5.233093e-002
    outer loop
      vertex  9.867550e+002  2.215500e+002  7.011071e+001
      vertex  9.869680e+002  2.192963e+002  7.417438e+001
      vertex  9.865826e+002  2.193000e+002  6.682026e+001
    endloop
  endfacet
  facet normal  9.986301e-001 -8.211986e-006 -5.232403e-002
    outer loop
      vertex  9.867550e+002  2.215500e+002  7.011071e+001
      vertex  9.865826e+002  2.193000e+002  6.682026e+001
      vertex  9.866235e+002  2.215500e+002  6.760038e+001
    endloop
  endfacet
  facet normal  9.986296e-001  8.631243e-006 -5.233516e-002
    outer loop
      vertex  9.872394e+002  2.108000e+002  7.935395e+001
      vertex  9.862607e+002  2.108000e+002  6.067898e+001
      vertex  9.869822e+002  2.143037e+002  7.444558e+001
    endloop
  endfacet
  facet normal  9.986289e-001 -1.116537e-005 -5.234925e-002
    outer loop
      vertex  9.872394e+002  2.108000e+002  7.935395e+001
      vertex  9.869822e+002  2.143037e+002  7.444558e+001
      vertex  9.870725e+002  2.151309e+002  7.616860e+001
    endloop
  endfacet
  facet normal  9.986306e-001  1.346692e-005 -5.231586e-002
    outer loop
      vertex  9.872394e+002  2.108000e+002  7.935395e+001
      vertex  9.870725e+002  2.151309e+002  7.616860e+001
      vertex  9.871057e+002  2.169358e+002  7.680286e+001
    endloop
  endfacet
  facet normal  9.986288e-001  0.000000e+000 -5.234815e-002
    outer loop
      vertex  9.872394e+002  2.108000e+002  7.935395e+001
      vertex  9.871057e+002  2.169358e+002  7.680286e+001
      vertex  9.872394e+002  2.248000e+002  7.935395e+001
    endloop
  endfacet
  facet normal  9.986298e-001  0.000000e+000 -5.233060e-002
    outer loop
      vertex  9.862607e+002  2.108000e+002  6.067898e+001
      vertex  9.862607e+002  2.248000e+002  6.067898e+001
      vertex  9.864901e+002  2.185678e+002  6.505491e+001
    endloop
  endfacet
  facet normal  9.986323e-001 -2.589416e-005 -5.228475e-002
    outer loop
      vertex  9.862607e+002  2.108000e+002  6.067898e+001
      vertex  9.864901e+002  2.185678e+002  6.505491e+001
      vertex  9.864517e+002  2.168000e+002  6.432368e+001
    endloop
  endfacet
  facet normal  9.986295e-001  4.916112e-006 -5.233534e-002
    outer loop
      vertex  9.862607e+002  2.108000e+002  6.067898e+001
      vertex  9.864517e+002  2.168000e+002  6.432368e+001
      vertex  9.864901e+002  2.150322e+002  6.505491e+001
    endloop
  endfacet
  facet normal  9.986293e-001  8.472202e-006 -5.233877e-002
    outer loop
      vertex  9.862607e+002  2.108000e+002  6.067898e+001
      vertex  9.864901e+002  2.150322e+002  6.505491e+001
      vertex  9.865826e+002  2.143000e+002  6.682026e+001
    endloop
  endfacet
  facet normal  9.986294e-001  8.897604e-006 -5.233901e-002
    outer loop
      vertex  9.862607e+002  2.108000e+002  6.067898e+001
      vertex  9.865826e+002  2.143000e+002  6.682026e+001
      vertex  9.868878e+002  2.149388e+002  7.264313e+001
    endloop
  endfacet
  facet normal  9.986301e-001 -3.260972e-005 -5.232469e-002
    outer loop
      vertex  9.862607e+002  2.108000e+002  6.067898e+001
      vertex  9.868878e+002  2.149388e+002  7.264313e+001
      vertex  9.869822e+002  2.143037e+002  7.444558e+001
    endloop
  endfacet
  facet normal  9.986299e-001 -6.273066e-006 -5.232887e-002
    outer loop
      vertex  9.871057e+002  2.169358e+002  7.680286e+001
      vertex  9.870624e+002  2.186612e+002  7.597683e+001
      vertex  9.872394e+002  2.248000e+002  7.935395e+001
    endloop
  endfacet
  facet normal  9.986290e-001  3.100093e-006 -5.234587e-002
    outer loop
      vertex  9.872394e+002  2.248000e+002  7.935395e+001
      vertex  9.870624e+002  2.186612e+002  7.597683e+001
      vertex  9.869680e+002  2.192963e+002  7.417438e+001
    endloop
  endfacet
  facet normal  9.986294e-001 -4.385363e-006 -5.233793e-002
    outer loop
      vertex  9.872394e+002  2.248000e+002  7.935395e+001
      vertex  9.869680e+002  2.192963e+002  7.417438e+001
      vertex  9.867550e+002  2.248000e+002  7.011071e+001
    endloop
  endfacet
  facet normal  9.986290e-001  0.000000e+000 -5.234765e-002
    outer loop
      vertex  9.866235e+002  2.215500e+002  6.760038e+001
      vertex  9.865826e+002  2.193000e+002  6.682026e+001
      vertex  9.866235e+002  2.248000e+002  6.760038e+001
    endloop
  endfacet
  facet normal  9.986293e-001 -8.101346e-007 -5.234194e-002
    outer loop
      vertex  9.866235e+002  2.248000e+002  6.760038e+001
      vertex  9.865826e+002  2.193000e+002  6.682026e+001
      vertex  9.864901e+002  2.185678e+002  6.505491e+001
    endloop
  endfacet
  facet normal  9.986296e-001 -3.449742e-006 -5.233550e-002
    outer loop
      vertex  9.866235e+002  2.248000e+002  6.760038e+001
      vertex  9.864901e+002  2.185678e+002  6.505491e+001
      vertex  9.862607e+002  2.248000e+002  6.067898e+001
    endloop
  endfacet
  facet normal  9.986295e-001 -1.467244e-005 -5.233643e-002
    outer loop
      vertex  9.865826e+002  2.143000e+002  6.682026e+001
      vertex  9.866751e+002  2.150322e+002  6.858560e+001
      vertex  9.868878e+002  2.149388e+002  7.264313e+001
    endloop
  endfacet
  facet normal  9.986295e-001 -4.562189e-006 -5.233620e-002
    outer loop
      vertex  9.868878e+002  2.149388e+002  7.264313e+001
      vertex  9.866751e+002  2.150322e+002  6.858560e+001
      vertex  9.867134e+002  2.168000e+002  6.931683e+001
    endloop
  endfacet
  facet normal  9.986308e-001  3.623018e-005 -5.231345e-002
    outer loop
      vertex  9.868878e+002  2.149388e+002  7.264313e+001
      vertex  9.867134e+002  2.168000e+002  6.931683e+001
      vertex  9.868444e+002  2.166642e+002  7.181709e+001
    endloop
  endfacet
  facet normal  9.986306e-001  1.348735e-005 -5.231467e-002
    outer loop
      vertex  9.868444e+002  2.166642e+002  7.181709e+001
      vertex  9.867134e+002  2.168000e+002  6.931683e+001
      vertex  9.866751e+002  2.185678e+002  6.858560e+001
    endloop
  endfacet
  facet normal  9.986298e-001 -1.466943e-005 -5.233122e-002
    outer loop
      vertex  9.868444e+002  2.166642e+002  7.181709e+001
      vertex  9.866751e+002  2.185678e+002  6.858560e+001
      vertex  9.868777e+002  2.184691e+002  7.245135e+001
    endloop
  endfacet
  facet normal  9.986298e-001  3.002408e-005 -5.233007e-002
    outer loop
      vertex  9.868777e+002  2.184691e+002  7.245135e+001
      vertex  9.866751e+002  2.185678e+002  6.858560e+001
      vertex  9.865826e+002  2.193000e+002  6.682026e+001
    endloop
  endfacet
  facet normal  9.986298e-001  2.428064e-005 -5.233093e-002
    outer loop
      vertex  9.868777e+002  2.184691e+002  7.245135e+001
      vertex  9.865826e+002  2.193000e+002  6.682026e+001
      vertex  9.869680e+002  2.192963e+002  7.417438e+001
    endloop
  endfacet
  facet normal  5.233517e-002  -0.000000e+000  9.986296e-001
    outer loop
      vertex  9.794763e+002  2.248000e+002  7.976080e+001
      vertex  9.794763e+002  2.108000e+002  7.976080e+001
      vertex  9.872394e+002  2.248000e+002  7.935395e+001
    endloop
  endfacet
  facet normal  5.233517e-002  0.000000e+000  9.986296e-001
    outer loop
      vertex  9.872394e+002  2.248000e+002  7.935395e+001
      vertex  9.794763e+002  2.108000e+002  7.976080e+001
      vertex  9.872394e+002  2.108000e+002  7.935395e+001
    endloop
  endfacet
  facet normal  5.233547e-002  0.000000e+000 -9.986295e-001
    outer loop
      vertex  9.862607e+002  2.108000e+002  6.067898e+001
      vertex  9.794763e+002  2.108000e+002  6.032343e+001
      vertex  9.862607e+002  2.248000e+002  6.067898e+001
    endloop
  endfacet
  facet normal  5.233547e-002  0.000000e+000 -9.986295e-001
    outer loop
      vertex  9.862607e+002  2.248000e+002  6.067898e+001
      vertex  9.794763e+002  2.108000e+002  6.032343e+001
      vertex  9.794763e+002  2.248000e+002  6.032343e+001
    endloop
  endfacet
  facet normal -1.000000e+000  0.000000e+000  0.000000e+000
    outer loop
      vertex  9.564763e+002  2.255500e+002  6.852386e+001
      vertex  9.564763e+002  2.255500e+002  7.501080e+001
      vertex  9.564763e+002  2.320500e+002  6.852386e+001
    endloop
  endfacet
  facet normal -1.000000e+000  0.000000e+000  0.000000e+000
    outer loop
      vertex  9.564763e+002  2.320500e+002  6.852386e+001
      vertex  9.564763e+002  2.255500e+002  7.501080e+001
      vertex  9.564763e+002  2.320500e+002  7.501080e+001
    endloop
  endfacet
  facet normal  0.000000e+000  0.000000e+000 -1.000000e+000
    outer loop
      vertex  9.379446e+002  2.255500e+002  7.501080e+001
      vertex  9.379446e+002  2.320500e+002  7.501080e+001
      vertex  9.564763e+002  2.255500e+002  7.501080e+001
    endloop
  endfacet
  facet normal  0.000000e+000  0.000000e+000 -1.000000e+000
    outer loop
      vertex  9.564763e+002  2.255500e+002  7.501080e+001
      vertex  9.379446e+002  2.320500e+002  7.501080e+001
      vertex  9.564763e+002  2.320500e+002  7.501080e+001
    endloop
  endfacet
  facet normal  0.000000e+000  1.000000e+000  0.000000e+000
    outer loop
      vertex  9.564763e+002  2.255500e+002  6.852386e+001
      vertex  9.562269e+002  2.255500e+002  6.851080e+001
      vertex  9.564763e+002  2.255500e+002  7.501080e+001
    endloop
  endfacet
  facet normal  0.000000e+000  9.999999e-001  0.000000e+000
    outer loop
      vertex  9.564763e+002  2.255500e+002  7.501080e+001
      vertex  9.562269e+002  2.255500e+002  6.851080e+001
      vertex  9.376039e+002  2.255500e+002  6.851080e+001
    endloop
  endfacet
  facet normal  0.000000e+000  1.000000e+000  0.000000e+000
    outer loop
      vertex  9.564763e+002  2.255500e+002  7.501080e+001
      vertex  9.376039e+002  2.255500e+002  6.851080e+001
      vertex  9.379446e+002  2.255500e+002  7.501080e+001
    endloop
  endfacet
  facet normal  0.000000e+000 -1.000000e+000  -0.000000e+000
    outer loop
      vertex  9.564763e+002  2.320500e+002  6.852386e+001
      vertex  9.564763e+002  2.320500e+002  7.501080e+001
      vertex  9.562269e+002  2.320500e+002  6.851080e+001
    endloop
  endfacet
  facet normal  0.000000e+000 -1.000000e+000  0.000000e+000
    outer loop
      vertex  9.562269e+002  2.320500e+002  6.851080e+001
      vertex  9.564763e+002  2.320500e+002  7.501080e+001
      vertex  9.379446e+002  2.320500e+002  7.501080e+001
    endloop
  endfacet
  facet normal  0.000000e+000 -9.999999e-001  -0.000000e+000
    outer loop
      vertex  9.562269e+002  2.320500e+002  6.851080e+001
      vertex  9.379446e+002  2.320500e+002  7.501080e+001
      vertex  9.376039e+002  2.320500e+002  6.851080e+001
    endloop
  endfacet
  facet normal  0.000000e+000  0.000000e+000  9.999999e-001
    outer loop
      vertex  9.376039e+002  2.320500e+002  6.851080e+001
      vertex  9.376039e+002  2.255500e+002  6.851080e+001
      vertex  9.562269e+002  2.320500e+002  6.851080e+001
    endloop
  endfacet
  facet normal  0.000000e+000  0.000000e+000  9.999999e-001
    outer loop
      vertex  9.562269e+002  2.320500e+002  6.851080e+001
      vertex  9.376039e+002  2.255500e+002  6.851080e+001
      vertex  9.562269e+002  2.255500e+002  6.851080e+001
    endloop
  endfacet
  facet normal  0.000000e+000  1.000000e+000  0.000000e+000
    outer loop
      vertex  9.866235e+002  2.215500e+002  6.760038e+001
      vertex  9.484939e+002  2.215500e+002  6.560210e+001
      vertex  9.867550e+002  2.215500e+002  7.011071e+001
    endloop
  endfacet
  facet normal  0.000000e+000  9.999999e-001  0.000000e+000
    outer loop
      vertex  9.867550e+002  2.215500e+002  7.011071e+001
      vertex  9.484939e+002  2.215500e+002  6.560210e+001
      vertex  9.483630e+002  2.215500e+002  6.809867e+001
    endloop
  endfacet
  facet normal  9.986292e-001  -0.000000e+000  5.234372e-002
    outer loop
      vertex  9.483630e+002  2.360500e+002  6.809867e+001
      vertex  9.483630e+002  2.215500e+002  6.809867e+001
      vertex  9.484939e+002  2.360500e+002  6.560210e+001
    endloop
  endfacet
  facet normal  9.986292e-001  0.000000e+000  5.234372e-002
    outer loop
      vertex  9.484939e+002  2.360500e+002  6.560210e+001
      vertex  9.483630e+002  2.215500e+002  6.809867e+001
      vertex  9.484939e+002  2.215500e+002  6.560210e+001
    endloop
  endfacet
  facet normal -4.936856e-002  3.319365e-001 -9.420090e-001
    outer loop
      vertex  9.381729e+002  2.169358e+002  7.936732e+001
      vertex  9.870725e+002  2.151309e+002  7.616860e+001
      vertex  9.381396e+002  2.151309e+002  7.873306e+001
    endloop
  endfacet
  facet normal -2.262464e-002  9.017316e-001 -4.317041e-001
    outer loop
      vertex  9.381396e+002  2.151309e+002  7.873306e+001
      vertex  9.870725e+002  2.151309e+002  7.616860e+001
      vertex  9.869822e+002  2.143037e+002  7.444558e+001
    endloop
  endfacet
  facet normal -2.262470e-002  9.017311e-001 -4.317048e-001
    outer loop
      vertex  9.381396e+002  2.151309e+002  7.873306e+001
      vertex  9.869822e+002  2.143037e+002  7.444558e+001
      vertex  9.380494e+002  2.143037e+002  7.701004e+001
    endloop
  endfacet
  facet normal -4.936865e-002  3.319350e-001 -9.420095e-001
    outer loop
      vertex  9.870725e+002  2.151309e+002  7.616860e+001
      vertex  9.381729e+002  2.169358e+002  7.936732e+001
      vertex  9.871057e+002  2.169358e+002  7.680286e+001
    endloop
  endfacet
  facet normal -4.719293e-002 -4.322996e-001 -9.004943e-001
    outer loop
      vertex  9.871057e+002  2.169358e+002  7.680286e+001
      vertex  9.381729e+002  2.169358e+002  7.936732e+001
      vertex  9.381296e+002  2.186612e+002  7.854129e+001
    endloop
  endfacet
  facet normal -4.719290e-002 -4.322982e-001 -9.004949e-001
    outer loop
      vertex  9.871057e+002  2.169358e+002  7.680286e+001
      vertex  9.381296e+002  2.186612e+002  7.854129e+001
      vertex  9.870624e+002  2.186612e+002  7.597683e+001
    endloop
  endfacet
  facet normal -1.737223e-002 -9.433016e-001 -3.314821e-001
    outer loop
      vertex  9.870624e+002  2.186612e+002  7.597683e+001
      vertex  9.381296e+002  2.186612e+002  7.854129e+001
      vertex  9.380352e+002  2.192963e+002  7.673884e+001
    endloop
  endfacet
  facet normal -1.737222e-002 -9.433018e-001 -3.314815e-001
    outer loop
      vertex  9.870624e+002  2.186612e+002  7.597683e+001
      vertex  9.380352e+002  2.192963e+002  7.673884e+001
      vertex  9.869680e+002  2.192963e+002  7.417438e+001
    endloop
  endfacet
  facet normal  4.936859e-002 -3.319350e-001  9.420094e-001
    outer loop
      vertex  9.379116e+002  2.166642e+002  7.438155e+001
      vertex  9.868777e+002  2.184691e+002  7.245135e+001
      vertex  9.379448e+002  2.184691e+002  7.501582e+001
    endloop
  endfacet
  facet normal  2.262467e-002 -9.017312e-001  4.317048e-001
    outer loop
      vertex  9.379448e+002  2.184691e+002  7.501582e+001
      vertex  9.868777e+002  2.184691e+002  7.245135e+001
      vertex  9.869680e+002  2.192963e+002  7.417438e+001
    endloop
  endfacet
  facet normal  2.262467e-002 -9.017316e-001  4.317041e-001
    outer loop
      vertex  9.379448e+002  2.184691e+002  7.501582e+001
      vertex  9.869680e+002  2.192963e+002  7.417438e+001
      vertex  9.380352e+002  2.192963e+002  7.673884e+001
    endloop
  endfacet
  facet normal  4.936871e-002 -3.319401e-001  9.420077e-001
    outer loop
      vertex  9.868777e+002  2.184691e+002  7.245135e+001
      vertex  9.379116e+002  2.166642e+002  7.438155e+001
      vertex  9.868444e+002  2.166642e+002  7.181709e+001
    endloop
  endfacet
  facet normal  4.719310e-002  4.322983e-001  9.004948e-001
    outer loop
      vertex  9.868444e+002  2.166642e+002  7.181709e+001
      vertex  9.379116e+002  2.166642e+002  7.438155e+001
      vertex  9.379549e+002  2.149388e+002  7.520759e+001
    endloop
  endfacet
  facet normal  4.719279e-002  4.323029e-001  9.004927e-001
    outer loop
      vertex  9.868444e+002  2.166642e+002  7.181709e+001
      vertex  9.379549e+002  2.149388e+002  7.520759e+001
      vertex  9.868878e+002  2.149388e+002  7.264313e+001
    endloop
  endfacet
  facet normal  1.737220e-002  9.433017e-001  3.314815e-001
    outer loop
      vertex  9.868878e+002  2.149388e+002  7.264313e+001
      vertex  9.379549e+002  2.149388e+002  7.520759e+001
      vertex  9.380494e+002  2.143037e+002  7.701004e+001
    endloop
  endfacet
  facet normal  1.737225e-002  9.433016e-001  3.314821e-001
    outer loop
      vertex  9.868878e+002  2.149388e+002  7.264313e+001
      vertex  9.380494e+002  2.143037e+002  7.701004e+001
      vertex  9.869822e+002  2.143037e+002  7.444558e+001
    endloop
  endfacet
  facet normal -4.835210e-002  3.826827e-001 -9.226137e-001
    outer loop
      vertex  9.377806e+002  2.168000e+002  7.188129e+001
      vertex  9.866751e+002  2.150322e+002  6.858560e+001
      vertex  9.377422e+002  2.150322e+002  7.115006e+001
    endloop
  endfacet
  facet normal -2.002788e-002  9.238812e-001 -3.821549e-001
    outer loop
      vertex  9.377422e+002  2.150322e+002  7.115006e+001
      vertex  9.866751e+002  2.150322e+002  6.858560e+001
      vertex  9.865826e+002  2.143000e+002  6.682026e+001
    endloop
  endfacet
  facet normal -2.002788e-002  9.238812e-001 -3.821549e-001
    outer loop
      vertex  9.377422e+002  2.150322e+002  7.115006e+001
      vertex  9.865826e+002  2.143000e+002  6.682026e+001
      vertex  9.376497e+002  2.143000e+002  6.938472e+001
    endloop
  endfacet
  facet normal -4.835232e-002  3.826793e-001 -9.226151e-001
    outer loop
      vertex  9.866751e+002  2.150322e+002  6.858560e+001
      vertex  9.377806e+002  2.168000e+002  7.188129e+001
      vertex  9.867134e+002  2.168000e+002  6.931683e+001
    endloop
  endfacet
  facet normal -4.835217e-002 -3.826856e-001 -9.226124e-001
    outer loop
      vertex  9.867134e+002  2.168000e+002  6.931683e+001
      vertex  9.377806e+002  2.168000e+002  7.188129e+001
      vertex  9.377422e+002  2.185678e+002  7.115006e+001
    endloop
  endfacet
  facet normal -4.835211e-002 -3.826823e-001 -9.226140e-001
    outer loop
      vertex  9.867134e+002  2.168000e+002  6.931683e+001
      vertex  9.377422e+002  2.185678e+002  7.115006e+001
      vertex  9.866751e+002  2.185678e+002  6.858560e+001
    endloop
  endfacet
  facet normal -2.002823e-002 -9.238783e-001 -3.821617e-001
    outer loop
      vertex  9.866751e+002  2.185678e+002  6.858560e+001
      vertex  9.377422e+002  2.185678e+002  7.115006e+001
      vertex  9.376497e+002  2.193000e+002  6.938472e+001
    endloop
  endfacet
  facet normal -2.002823e-002 -9.238783e-001 -3.821617e-001
    outer loop
      vertex  9.866751e+002  2.185678e+002  6.858560e+001
      vertex  9.376497e+002  2.193000e+002  6.938472e+001
      vertex  9.865826e+002  2.193000e+002  6.682026e+001
    endloop
  endfacet
  facet normal  4.835217e-002 -3.826856e-001  9.226124e-001
    outer loop
      vertex  9.375189e+002  2.168000e+002  6.688815e+001
      vertex  9.864901e+002  2.185678e+002  6.505491e+001
      vertex  9.375572e+002  2.185678e+002  6.761938e+001
    endloop
  endfacet
  facet normal  2.002822e-002 -9.238789e-001  3.821603e-001
    outer loop
      vertex  9.375572e+002  2.185678e+002  6.761938e+001
      vertex  9.864901e+002  2.185678e+002  6.505491e+001
      vertex  9.865826e+002  2.193000e+002  6.682026e+001
    endloop
  endfacet
  facet normal  2.002823e-002 -9.238783e-001  3.821617e-001
    outer loop
      vertex  9.375572e+002  2.185678e+002  6.761938e+001
      vertex  9.865826e+002  2.193000e+002  6.682026e+001
      vertex  9.376497e+002  2.193000e+002  6.938472e+001
    endloop
  endfacet
  facet normal  4.835211e-002 -3.826823e-001  9.226140e-001
    outer loop
      vertex  9.864901e+002  2.185678e+002  6.505491e+001
      vertex  9.375189e+002  2.168000e+002  6.688815e+001
      vertex  9.864517e+002  2.168000e+002  6.432368e+001
    endloop
  endfacet
  facet normal  4.835210e-002  3.826827e-001  9.226137e-001
    outer loop
      vertex  9.864517e+002  2.168000e+002  6.432368e+001
      vertex  9.375189e+002  2.168000e+002  6.688815e+001
      vertex  9.375572e+002  2.150322e+002  6.761938e+001
    endloop
  endfacet
  facet normal  4.835232e-002  3.826793e-001  9.226151e-001
    outer loop
      vertex  9.864517e+002  2.168000e+002  6.432368e+001
      vertex  9.375572e+002  2.150322e+002  6.761938e+001
      vertex  9.864901e+002  2.150322e+002  6.505491e+001
    endloop
  endfacet
  facet normal  2.002794e-002  9.238812e-001  3.821549e-001
    outer loop
      vertex  9.864901e+002  2.150322e+002  6.505491e+001
      vertex  9.375572e+002  2.150322e+002  6.761938e+001
      vertex  9.376497e+002  2.143000e+002  6.938472e+001
    endloop
  endfacet
  facet normal  2.002781e-002  9.238818e-001  3.821535e-001
    outer loop
      vertex  9.864901e+002  2.150322e+002  6.505491e+001
      vertex  9.376497e+002  2.143000e+002  6.938472e+001
      vertex  9.865826e+002  2.143000e+002  6.682026e+001
    endloop
  endfacet
  facet normal  0.000000e+000 -1.000000e+000  0.000000e+000
    outer loop
      vertex  9.387911e+002  2.108000e+002  6.075192e+001
      vertex  9.862607e+002  2.108000e+002  6.067898e+001
      vertex  9.376873e+002  2.108000e+002  6.191501e+001
    endloop
  endfacet
  facet normal  0.000000e+000 -1.000000e+000  0.000000e+000
    outer loop
      vertex  9.376873e+002  2.108000e+002  6.191501e+001
      vertex  9.862607e+002  2.108000e+002  6.067898e+001
      vertex  9.872394e+002  2.108000e+002  7.935395e+001
    endloop
  endfacet
  facet normal  0.000000e+000 -1.000000e+000  0.000000e+000
    outer loop
      vertex  9.376873e+002  2.108000e+002  6.191501e+001
      vertex  9.872394e+002  2.108000e+002  7.935395e+001
      vertex  9.373403e+002  2.108000e+002  6.348043e+001
    endloop
  endfacet
  facet normal  0.000000e+000 -1.000000e+000  0.000000e+000
    outer loop
      vertex  9.373403e+002  2.108000e+002  6.348043e+001
      vertex  9.872394e+002  2.108000e+002  7.935395e+001
      vertex  9.794763e+002  2.108000e+002  7.976080e+001
    endloop
  endfacet
  facet normal  -0.000000e+000 -1.000000e+000  0.000000e+000
    outer loop
      vertex  9.373403e+002  2.108000e+002  6.348043e+001
      vertex  9.794763e+002  2.108000e+002  7.976080e+001
      vertex  9.382019e+002  2.108000e+002  7.992115e+001
    endloop
  endfacet
  facet normal  0.000000e+000 -1.000000e+000  0.000000e+000
    outer loop
      vertex  9.382019e+002  2.108000e+002  7.992115e+001
      vertex  9.794763e+002  2.108000e+002  7.976080e+001
      vertex  9.403038e+002  2.108000e+002  8.181374e+001
    endloop
  endfacet
  facet normal  0.000000e+000 -9.999999e-001  0.000000e+000
    outer loop
      vertex  9.382019e+002  2.108000e+002  7.992115e+001
      vertex  9.403038e+002  2.108000e+002  8.181374e+001
      vertex  9.388609e+002  2.108000e+002  8.130276e+001
    endloop
  endfacet
  facet normal  0.000000e+000 -1.000000e+000  0.000000e+000
    outer loop
      vertex  9.862607e+002  2.108000e+002  6.067898e+001
      vertex  9.387911e+002  2.108000e+002  6.075192e+001
      vertex  9.794763e+002  2.108000e+002  6.032343e+001
    endloop
  endfacet
  facet normal  0.000000e+000 -1.000000e+000  0.000000e+000
    outer loop
      vertex  9.794763e+002  2.108000e+002  6.032343e+001
      vertex  9.387911e+002  2.108000e+002  6.075192e+001
      vertex  9.403362e+002  2.108000e+002  6.032343e+001
    endloop
  endfacet
endsolid CATIA STL
