solid CATIA STL
  facet normal  3.385528e-001 -9.374183e-001 -8.141676e-002
    outer loop
      vertex  3.742557e+002  9.999545e+002  5.984293e+001
      vertex  3.733828e+002  9.998386e+002  5.754804e+001
      vertex  3.743340e+002  9.999828e+002  5.984293e+001
    endloop
  endfacet
  facet normal  3.385082e-001 -9.374362e-001 -8.139729e-002
    outer loop
      vertex  3.743340e+002  9.999828e+002  5.984293e+001
      vertex  3.733828e+002  9.998386e+002  5.754804e+001
      vertex  3.734615e+002  9.998670e+002  5.754804e+001
    endloop
  endfacet
  facet normal  7.487478e-001 -6.123572e-001 -2.537628e-001
    outer loop
      vertex  3.743340e+002  9.999828e+002  5.984293e+001
      vertex  3.734615e+002  9.998670e+002  5.754804e+001
      vertex  3.743539e+002  1.000007e+003  5.984293e+001
    endloop
  endfacet
  facet normal  7.460608e-001 -6.161526e-001 -2.524863e-001
    outer loop
      vertex  3.743539e+002  1.000007e+003  5.984293e+001
      vertex  3.734615e+002  9.998670e+002  5.754804e+001
      vertex  3.734818e+002  9.998915e+002  5.754804e+001
    endloop
  endfacet
  facet normal  9.138246e-001 -2.284560e-001 -3.357566e-001
    outer loop
      vertex  3.743539e+002  1.000007e+003  5.984293e+001
      vertex  3.734818e+002  9.998915e+002  5.754804e+001
      vertex  3.743606e+002  1.000034e+003  5.984293e+001
    endloop
  endfacet
  facet normal  9.135333e-001 -2.299134e-001 -3.355544e-001
    outer loop
      vertex  3.743606e+002  1.000034e+003  5.984293e+001
      vertex  3.734818e+002  9.998915e+002  5.754804e+001
      vertex  3.734886e+002  9.999188e+002  5.754804e+001
    endloop
  endfacet
  facet normal  7.881156e-002 -9.943700e-001  7.083087e-002
    outer loop
      vertex  3.363059e+002  9.962654e+002  5.984293e+001
      vertex  3.088432e+002  9.940888e+002  5.984293e+001
      vertex  3.130273e+002  9.942570e+002  5.754804e+001
    endloop
  endfacet
  facet normal  8.519137e-002 -9.963338e-001  7.834770e-003
    outer loop
      vertex  3.130273e+002  9.942570e+002  5.754804e+001
      vertex  3.451164e+002  9.970007e+002  5.754804e+001
      vertex  3.363059e+002  9.962654e+002  5.984293e+001
    endloop
  endfacet
  facet normal  9.386104e-002 -9.947142e-001  4.163801e-002
    outer loop
      vertex  3.363059e+002  9.962654e+002  5.984293e+001
      vertex  3.451164e+002  9.970007e+002  5.754804e+001
      vertex  3.612408e+002  9.986183e+002  5.984293e+001
    endloop
  endfacet
  facet normal  5.902312e-002 -9.976599e-001  3.451115e-002
    outer loop
      vertex  3.130273e+002  9.942570e+002  5.754804e+001
      vertex  3.088432e+002  9.940888e+002  5.984293e+001
      vertex  2.947702e+002  9.932562e+002  5.984293e+001
    endloop
  endfacet
  facet normal  5.858631e-002 -9.978017e-001  3.097426e-002
    outer loop
      vertex  3.130273e+002  9.942570e+002  5.754804e+001
      vertex  2.947702e+002  9.932562e+002  5.984293e+001
      vertex  2.862360e+002  9.926839e+002  5.754804e+001
    endloop
  endfacet
  facet normal  1.520307e-002 -9.941697e-001  1.067491e-001
    outer loop
      vertex  2.682611e+002  9.925230e+002  5.984293e+001
      vertex  2.663463e+002  9.922473e+002  5.754804e+001
      vertex  2.815201e+002  9.927258e+002  5.984293e+001
    endloop
  endfacet
  facet normal  2.190110e-002 -9.977599e-001  6.321035e-002
    outer loop
      vertex  2.815201e+002  9.927258e+002  5.984293e+001
      vertex  2.663463e+002  9.922473e+002  5.754804e+001
      vertex  2.862360e+002  9.926839e+002  5.754804e+001
    endloop
  endfacet
  facet normal  3.980181e-002 -9.941979e-001  9.993091e-002
    outer loop
      vertex  2.815201e+002  9.927258e+002  5.984293e+001
      vertex  2.862360e+002  9.926839e+002  5.754804e+001
      vertex  2.947702e+002  9.932562e+002  5.984293e+001
    endloop
  endfacet
  facet normal  1.063640e-001 -9.942791e-001  9.782247e-003
    outer loop
      vertex  3.733828e+002  9.998386e+002  5.754804e+001
      vertex  3.742557e+002  9.999545e+002  5.984293e+001
      vertex  3.712672e+002  9.996122e+002  5.754804e+001
    endloop
  endfacet
  facet normal  1.021206e-001 -9.946534e-001  1.536406e-002
    outer loop
      vertex  3.712672e+002  9.996122e+002  5.754804e+001
      vertex  3.742557e+002  9.999545e+002  5.984293e+001
      vertex  3.612408e+002  9.986183e+002  5.984293e+001
    endloop
  endfacet
  facet normal  9.936893e-002 -9.950456e-001  3.171996e-003
    outer loop
      vertex  3.712672e+002  9.996122e+002  5.754804e+001
      vertex  3.612408e+002  9.986183e+002  5.984293e+001
      vertex  3.451164e+002  9.970007e+002  5.754804e+001
    endloop
  endfacet
  facet normal -6.317876e-001 -4.102571e-001  6.576729e-001
    outer loop
      vertex  2.223422e+002  9.995703e+002  5.754804e+001
      vertex  2.227628e+002  9.989225e+002  5.754804e+001
      vertex  2.248512e+002  9.993853e+002  5.984293e+001
    endloop
  endfacet
  facet normal -5.624089e-001 -5.451126e-001  6.217303e-001
    outer loop
      vertex  2.248512e+002  9.993853e+002  5.984293e+001
      vertex  2.227628e+002  9.989225e+002  5.754804e+001
      vertex  2.256447e+002  9.985667e+002  5.984293e+001
    endloop
  endfacet
  facet normal -5.201948e-001 -6.514989e-001  5.522196e-001
    outer loop
      vertex  2.256447e+002  9.985667e+002  5.984293e+001
      vertex  2.227628e+002  9.989225e+002  5.754804e+001
      vertex  2.242039e+002  9.977719e+002  5.754804e+001
    endloop
  endfacet
  facet normal -4.466119e-001 -7.208324e-001  5.300363e-001
    outer loop
      vertex  2.256447e+002  9.985667e+002  5.984293e+001
      vertex  2.242039e+002  9.977719e+002  5.754804e+001
      vertex  2.275055e+002  9.974137e+002  5.984293e+001
    endloop
  endfacet
  facet normal -3.873762e-001 -8.154764e-001  4.300441e-001
    outer loop
      vertex  2.242039e+002  9.977719e+002  5.754804e+001
      vertex  2.270706e+002  9.964101e+002  5.754804e+001
      vertex  2.275055e+002  9.974137e+002  5.984293e+001
    endloop
  endfacet
  facet normal -3.404490e-001 -8.360931e-001  4.301661e-001
    outer loop
      vertex  2.275055e+002  9.974137e+002  5.984293e+001
      vertex  2.270706e+002  9.964101e+002  5.754804e+001
      vertex  2.302388e+002  9.963007e+002  5.984293e+001
    endloop
  endfacet
  facet normal -6.905504e-001 -1.500467e-001  7.075494e-001
    outer loop
      vertex  2.246063e+002  9.999647e+002  5.984293e+001
      vertex  2.222911e+002  9.997982e+002  5.754804e+001
      vertex  2.246513e+002  9.997576e+002  5.984293e+001
    endloop
  endfacet
  facet normal -6.901015e-001 -1.545988e-001  7.070072e-001
    outer loop
      vertex  2.246513e+002  9.997576e+002  5.984293e+001
      vertex  2.222911e+002  9.997982e+002  5.754804e+001
      vertex  2.223422e+002  9.995703e+002  5.754804e+001
    endloop
  endfacet
  facet normal -6.467345e-001 -3.472261e-001  6.790938e-001
    outer loop
      vertex  2.246513e+002  9.997576e+002  5.984293e+001
      vertex  2.223422e+002  9.995703e+002  5.754804e+001
      vertex  2.248512e+002  9.993853e+002  5.984293e+001
    endloop
  endfacet
  facet normal -2.595873e-001 -9.129472e-001  3.148677e-001
    outer loop
      vertex  2.302388e+002  9.963007e+002  5.984293e+001
      vertex  2.270706e+002  9.964101e+002  5.754804e+001
      vertex  2.337787e+002  9.952942e+002  5.984293e+001
    endloop
  endfacet
  facet normal -2.671207e-001 -9.005938e-001  3.428954e-001
    outer loop
      vertex  2.337787e+002  9.952942e+002  5.984293e+001
      vertex  2.270706e+002  9.964101e+002  5.754804e+001
      vertex  2.318222e+002  9.950007e+002  5.754804e+001
    endloop
  endfacet
  facet normal -1.811687e-001 -9.441658e-001  2.751891e-001
    outer loop
      vertex  2.337787e+002  9.952942e+002  5.984293e+001
      vertex  2.318222e+002  9.950007e+002  5.754804e+001
      vertex  2.394941e+002  9.941975e+002  5.984293e+001
    endloop
  endfacet
  facet normal -1.721219e-001 -9.551115e-001  2.411145e-001
    outer loop
      vertex  2.394941e+002  9.941975e+002  5.984293e+001
      vertex  2.318222e+002  9.950007e+002  5.754804e+001
      vertex  2.389357e+002  9.937188e+002  5.754804e+001
    endloop
  endfacet
  facet normal -1.195864e-001 -9.656874e-001  2.305365e-001
    outer loop
      vertex  2.394941e+002  9.941975e+002  5.984293e+001
      vertex  2.389357e+002  9.937188e+002  5.754804e+001
      vertex  2.454347e+002  9.934619e+002  5.984293e+001
    endloop
  endfacet
  facet normal -1.059166e-001 -9.759219e-001  1.906783e-001
    outer loop
      vertex  2.454347e+002  9.934619e+002  5.984293e+001
      vertex  2.389357e+002  9.937188e+002  5.754804e+001
      vertex  2.455937e+002  9.929962e+002  5.754804e+001
    endloop
  endfacet
  facet normal -6.178473e-002 -9.789832e-001  1.943570e-001
    outer loop
      vertex  2.454347e+002  9.934619e+002  5.984293e+001
      vertex  2.455937e+002  9.929962e+002  5.754804e+001
      vertex  2.576067e+002  9.926937e+002  5.984293e+001
    endloop
  endfacet
  facet normal -1.013843e-002 -9.917732e-001  1.276058e-001
    outer loop
      vertex  2.663463e+002  9.922473e+002  5.754804e+001
      vertex  2.682611e+002  9.925230e+002  5.984293e+001
      vertex  2.592890e+002  9.923195e+002  5.754804e+001
    endloop
  endfacet
  facet normal -1.583491e-002 -9.886202e-001  1.495973e-001
    outer loop
      vertex  2.592890e+002  9.923195e+002  5.754804e+001
      vertex  2.682611e+002  9.925230e+002  5.984293e+001
      vertex  2.576067e+002  9.926937e+002  5.984293e+001
    endloop
  endfacet
  facet normal -4.896374e-002 -9.908622e-001  1.256771e-001
    outer loop
      vertex  2.592890e+002  9.923195e+002  5.754804e+001
      vertex  2.576067e+002  9.926937e+002  5.984293e+001
      vertex  2.455937e+002  9.929962e+002  5.754804e+001
    endloop
  endfacet
  facet normal -7.021638e-001 -3.695599e-002  7.110557e-001
    outer loop
      vertex  2.222909e+002  9.998016e+002  5.754804e+001
      vertex  2.222911e+002  9.997982e+002  5.754804e+001
      vertex  2.246061e+002  9.999681e+002  5.984293e+001
    endloop
  endfacet
  facet normal -7.019668e-001 -4.002442e-002  7.110842e-001
    outer loop
      vertex  2.246061e+002  9.999681e+002  5.984293e+001
      vertex  2.222911e+002  9.997982e+002  5.754804e+001
      vertex  2.246063e+002  9.999647e+002  5.984293e+001
    endloop
  endfacet
  facet normal -7.033412e-001 -1.598503e-002  7.106727e-001
    outer loop
      vertex  2.222902e+002  9.998339e+002  5.754804e+001
      vertex  2.222909e+002  9.998016e+002  5.754804e+001
      vertex  2.246052e+002  1.000000e+003  5.984293e+001
    endloop
  endfacet
  facet normal -7.031435e-001 -1.953176e-002  7.107798e-001
    outer loop
      vertex  2.246052e+002  1.000000e+003  5.984293e+001
      vertex  2.222909e+002  9.998016e+002  5.754804e+001
      vertex  2.246061e+002  9.999681e+002  5.984293e+001
    endloop
  endfacet
  facet normal -5.462840e-001  6.757313e-001  4.949354e-001
    outer loop
      vertex  2.224324e+002  1.000211e+003  5.754804e+001
      vertex  2.249862e+002  1.000595e+003  5.984293e+001
      vertex  2.228478e+002  1.000547e+003  5.754804e+001
    endloop
  endfacet
  facet normal -6.891810e-001  2.597670e-001  6.764251e-001
    outer loop
      vertex  2.222902e+002  9.998339e+002  5.754804e+001
      vertex  2.246052e+002  1.000000e+003  5.984293e+001
      vertex  2.224324e+002  1.000211e+003  5.754804e+001
    endloop
  endfacet
  facet normal -7.057595e-001  1.811802e-001  6.848922e-001
    outer loop
      vertex  2.224324e+002  1.000211e+003  5.754804e+001
      vertex  2.246052e+002  1.000000e+003  5.984293e+001
      vertex  2.246740e+002  1.000268e+003  5.984293e+001
    endloop
  endfacet
  facet normal -5.953837e-001  5.687783e-001  5.674589e-001
    outer loop
      vertex  2.224324e+002  1.000211e+003  5.754804e+001
      vertex  2.246740e+002  1.000268e+003  5.984293e+001
      vertex  2.249862e+002  1.000595e+003  5.984293e+001
    endloop
  endfacet
  facet normal -2.566037e-002  9.989806e-001 -3.713948e-002
    outer loop
      vertex  2.443478e+002  1.002659e+003  5.984293e+001
      vertex  2.422707e+002  1.002521e+003  5.754804e+001
      vertex  2.345414e+002  1.002407e+003  5.984293e+001
    endloop
  endfacet
  facet normal -2.261099e-002  9.993837e-001 -2.684917e-002
    outer loop
      vertex  2.345414e+002  1.002407e+003  5.984293e+001
      vertex  2.422707e+002  1.002521e+003  5.754804e+001
      vertex  2.331794e+002  1.002315e+003  5.754804e+001
    endloop
  endfacet
  facet normal -9.917294e-002  9.948932e-001  1.876974e-002
    outer loop
      vertex  2.345414e+002  1.002407e+003  5.984293e+001
      vertex  2.331794e+002  1.002315e+003  5.754804e+001
      vertex  2.294312e+002  1.001898e+003  5.984293e+001
    endloop
  endfacet
  facet normal -8.533859e-002  9.954885e-001  4.147375e-002
    outer loop
      vertex  2.294312e+002  1.001898e+003  5.984293e+001
      vertex  2.331794e+002  1.002315e+003  5.754804e+001
      vertex  2.280538e+002  1.001875e+003  5.754804e+001
    endloop
  endfacet
  facet normal -2.032567e-001  9.726448e-001  1.124673e-001
    outer loop
      vertex  2.294312e+002  1.001898e+003  5.984293e+001
      vertex  2.280538e+002  1.001875e+003  5.754804e+001
      vertex  2.267236e+002  1.001332e+003  5.984293e+001
    endloop
  endfacet
  facet normal -1.903075e-001  9.743173e-001  1.203691e-001
    outer loop
      vertex  2.267236e+002  1.001332e+003  5.984293e+001
      vertex  2.280538e+002  1.001875e+003  5.754804e+001
      vertex  2.243181e+002  1.001146e+003  5.754804e+001
    endloop
  endfacet
  facet normal -3.331649e-001  9.015617e-001  2.760208e-001
    outer loop
      vertex  2.267236e+002  1.001332e+003  5.984293e+001
      vertex  2.243181e+002  1.001146e+003  5.754804e+001
      vertex  2.254233e+002  1.000852e+003  5.984293e+001
    endloop
  endfacet
  facet normal -3.612362e-001  8.869913e-001  2.876717e-001
    outer loop
      vertex  2.254233e+002  1.000852e+003  5.984293e+001
      vertex  2.243181e+002  1.001146e+003  5.754804e+001
      vertex  2.228478e+002  1.000547e+003  5.754804e+001
    endloop
  endfacet
  facet normal -4.611547e-001  7.851746e-001  4.133245e-001
    outer loop
      vertex  2.254233e+002  1.000852e+003  5.984293e+001
      vertex  2.228478e+002  1.000547e+003  5.754804e+001
      vertex  2.249862e+002  1.000595e+003  5.984293e+001
    endloop
  endfacet
  facet normal  4.525121e-002  9.929116e-001 -1.099052e-001
    outer loop
      vertex  2.760653e+002  1.001600e+003  5.984293e+001
      vertex  2.844023e+002  1.000966e+003  5.754804e+001
      vertex  2.567910e+002  1.002225e+003  5.754804e+001
    endloop
  endfacet
  facet normal  4.421746e-002  9.925467e-001 -1.135599e-001
    outer loop
      vertex  3.093754e+002  1.000116e+003  5.984293e+001
      vertex  2.844023e+002  1.000966e+003  5.754804e+001
      vertex  2.760653e+002  1.001600e+003  5.984293e+001
    endloop
  endfacet
  facet normal  3.865845e-002  9.979468e-001 -5.106634e-002
    outer loop
      vertex  3.171714e+002  9.996970e+002  5.754804e+001
      vertex  2.844023e+002  1.000966e+003  5.754804e+001
      vertex  3.093754e+002  1.000116e+003  5.984293e+001
    endloop
  endfacet
  facet normal  2.636900e-002  9.953778e-001 -9.234542e-002
    outer loop
      vertex  3.171714e+002  9.996970e+002  5.754804e+001
      vertex  3.093754e+002  1.000116e+003  5.984293e+001
      vertex  3.259662e+002  9.996769e+002  5.984293e+001
    endloop
  endfacet
  facet normal  8.760515e-003  9.996534e-001 -2.482621e-002
    outer loop
      vertex  3.171714e+002  9.996970e+002  5.754804e+001
      vertex  3.259662e+002  9.996769e+002  5.984293e+001
      vertex  3.425490e+002  9.995316e+002  5.984293e+001
    endloop
  endfacet
  facet normal  1.123680e-002  9.985689e-001 -5.228803e-002
    outer loop
      vertex  3.171714e+002  9.996970e+002  5.754804e+001
      vertex  3.425490e+002  9.995316e+002  5.984293e+001
      vertex  3.434070e+002  9.994018e+002  5.754804e+001
    endloop
  endfacet
  facet normal -1.742296e-002  9.978638e-001 -6.296293e-002
    outer loop
      vertex  3.434070e+002  9.994018e+002  5.754804e+001
      vertex  3.425490e+002  9.995316e+002  5.984293e+001
      vertex  3.695231e+002  9.998578e+002  5.754804e+001
    endloop
  endfacet
  facet normal -1.370359e-002  9.997260e-001 -1.898091e-002
    outer loop
      vertex  3.695231e+002  9.998578e+002  5.754804e+001
      vertex  3.425490e+002  9.995316e+002  5.984293e+001
      vertex  3.662821e+002  9.998569e+002  5.984293e+001
    endloop
  endfacet
  facet normal -3.171275e-002  9.985098e-001 -4.441512e-002
    outer loop
      vertex  3.695231e+002  9.998578e+002  5.754804e+001
      vertex  3.662821e+002  9.998569e+002  5.984293e+001
      vertex  3.733858e+002  9.999805e+002  5.754804e+001
    endloop
  endfacet
  facet normal -2.981451e-002  9.988129e-001 -3.852289e-002
    outer loop
      vertex  3.733858e+002  9.999805e+002  5.754804e+001
      vertex  3.662821e+002  9.998569e+002  5.984293e+001
      vertex  3.742586e+002  1.000095e+003  5.984293e+001
    endloop
  endfacet
  facet normal  2.029836e-002  9.966995e-001 -7.859918e-002
    outer loop
      vertex  2.422707e+002  1.002521e+003  5.754804e+001
      vertex  2.443478e+002  1.002659e+003  5.984293e+001
      vertex  2.567910e+002  1.002225e+003  5.754804e+001
    endloop
  endfacet
  facet normal  1.603682e-002  9.947234e-001 -1.013318e-001
    outer loop
      vertex  2.567910e+002  1.002225e+003  5.754804e+001
      vertex  2.443478e+002  1.002659e+003  5.984293e+001
      vertex  2.549255e+002  1.002489e+003  5.984293e+001
    endloop
  endfacet
  facet normal  4.184438e-002  9.958770e-001 -8.048505e-002
    outer loop
      vertex  2.567910e+002  1.002225e+003  5.754804e+001
      vertex  2.549255e+002  1.002489e+003  5.984293e+001
      vertex  2.760653e+002  1.001600e+003  5.984293e+001
    endloop
  endfacet
  facet normal  1.161451e-001  9.888183e-001 -9.353402e-002
    outer loop
      vertex  3.733858e+002  9.999805e+002  5.754804e+001
      vertex  3.742586e+002  1.000095e+003  5.984293e+001
      vertex  3.734430e+002  9.999738e+002  5.754804e+001
    endloop
  endfacet
  facet normal  1.174906e-001  9.886151e-001 -9.400155e-002
    outer loop
      vertex  3.734430e+002  9.999738e+002  5.754804e+001
      vertex  3.742586e+002  1.000095e+003  5.984293e+001
      vertex  3.743156e+002  1.000088e+003  5.984293e+001
    endloop
  endfacet
  facet normal  4.194624e-001  8.846374e-001 -2.036369e-001
    outer loop
      vertex  3.734430e+002  9.999738e+002  5.754804e+001
      vertex  3.743156e+002  1.000088e+003  5.984293e+001
      vertex  3.734630e+002  9.999642e+002  5.754804e+001
    endloop
  endfacet
  facet normal  4.240521e-001  8.820834e-001 -2.052040e-001
    outer loop
      vertex  3.734630e+002  9.999642e+002  5.754804e+001
      vertex  3.743156e+002  1.000088e+003  5.984293e+001
      vertex  3.743354e+002  1.000079e+003  5.984293e+001
    endloop
  endfacet
  facet normal  6.942374e-001  6.557840e-001 -2.966170e-001
    outer loop
      vertex  3.734630e+002  9.999642e+002  5.754804e+001
      vertex  3.743354e+002  1.000079e+003  5.984293e+001
      vertex  3.734823e+002  9.999438e+002  5.754804e+001
    endloop
  endfacet
  facet normal  6.968544e-001  6.526438e-001 -2.974053e-001
    outer loop
      vertex  3.734823e+002  9.999438e+002  5.754804e+001
      vertex  3.743354e+002  1.000079e+003  5.984293e+001
      vertex  3.743543e+002  1.000059e+003  5.984293e+001
    endloop
  endfacet
  facet normal  9.057653e-001  2.303751e-001 -3.556914e-001
    outer loop
      vertex  3.743606e+002  1.000034e+003  5.984293e+001
      vertex  3.734886e+002  9.999188e+002  5.754804e+001
      vertex  3.743543e+002  1.000059e+003  5.984293e+001
    endloop
  endfacet
  facet normal  9.059067e-001  2.297907e-001 -3.557094e-001
    outer loop
      vertex  3.743543e+002  1.000059e+003  5.984293e+001
      vertex  3.734886e+002  9.999188e+002  5.754804e+001
      vertex  3.734823e+002  9.999438e+002  5.754804e+001
    endloop
  endfacet
  facet normal  0.000000e+000  0.000000e+000 -1.000000e+000
    outer loop
      vertex  3.712672e+002  9.996122e+002  5.754804e+001
      vertex  3.434070e+002  9.994018e+002  5.754804e+001
      vertex  3.733828e+002  9.998386e+002  5.754804e+001
    endloop
  endfacet
  facet normal  0.000000e+000  0.000000e+000 -1.000000e+000
    outer loop
      vertex  3.451164e+002  9.970007e+002  5.754804e+001
      vertex  3.434070e+002  9.994018e+002  5.754804e+001
      vertex  3.712672e+002  9.996122e+002  5.754804e+001
    endloop
  endfacet
  facet normal  0.000000e+000  0.000000e+000 -1.000000e+000
    outer loop
      vertex  2.567910e+002  1.002225e+003  5.754804e+001
      vertex  2.331794e+002  1.002315e+003  5.754804e+001
      vertex  2.422707e+002  1.002521e+003  5.754804e+001
    endloop
  endfacet
  facet normal  0.000000e+000  0.000000e+000 -9.999999e-001
    outer loop
      vertex  3.171714e+002  9.996970e+002  5.754804e+001
      vertex  2.223422e+002  9.995703e+002  5.754804e+001
      vertex  2.222911e+002  9.997982e+002  5.754804e+001
    endloop
  endfacet
  facet normal  0.000000e+000  -0.000000e+000 -1.000000e+000
    outer loop
      vertex  3.695231e+002  9.998578e+002  5.754804e+001
      vertex  3.733858e+002  9.999805e+002  5.754804e+001
      vertex  3.734430e+002  9.999738e+002  5.754804e+001
    endloop
  endfacet
  facet normal  0.000000e+000  -0.000000e+000 -1.000000e+000
    outer loop
      vertex  3.695231e+002  9.998578e+002  5.754804e+001
      vertex  3.734430e+002  9.999738e+002  5.754804e+001
      vertex  3.734630e+002  9.999642e+002  5.754804e+001
    endloop
  endfacet
  facet normal  0.000000e+000  -0.000000e+000 -1.000000e+000
    outer loop
      vertex  3.695231e+002  9.998578e+002  5.754804e+001
      vertex  3.734630e+002  9.999642e+002  5.754804e+001
      vertex  3.734823e+002  9.999438e+002  5.754804e+001
    endloop
  endfacet
  facet normal  0.000000e+000  -0.000000e+000 -1.000000e+000
    outer loop
      vertex  3.695231e+002  9.998578e+002  5.754804e+001
      vertex  3.734823e+002  9.999438e+002  5.754804e+001
      vertex  3.734886e+002  9.999188e+002  5.754804e+001
    endloop
  endfacet
  facet normal  0.000000e+000  0.000000e+000 -1.000000e+000
    outer loop
      vertex  3.695231e+002  9.998578e+002  5.754804e+001
      vertex  3.734886e+002  9.999188e+002  5.754804e+001
      vertex  3.734818e+002  9.998915e+002  5.754804e+001
    endloop
  endfacet
  facet normal  0.000000e+000  0.000000e+000 -1.000000e+000
    outer loop
      vertex  3.695231e+002  9.998578e+002  5.754804e+001
      vertex  3.734818e+002  9.998915e+002  5.754804e+001
      vertex  3.734615e+002  9.998670e+002  5.754804e+001
    endloop
  endfacet
  facet normal  0.000000e+000  0.000000e+000 -9.999999e-001
    outer loop
      vertex  3.695231e+002  9.998578e+002  5.754804e+001
      vertex  3.734615e+002  9.998670e+002  5.754804e+001
      vertex  3.733828e+002  9.998386e+002  5.754804e+001
    endloop
  endfacet
  facet normal  -0.000000e+000  0.000000e+000 -1.000000e+000
    outer loop
      vertex  3.695231e+002  9.998578e+002  5.754804e+001
      vertex  3.733828e+002  9.998386e+002  5.754804e+001
      vertex  3.434070e+002  9.994018e+002  5.754804e+001
    endloop
  endfacet
  facet normal  0.000000e+000  0.000000e+000 -1.000000e+000
    outer loop
      vertex  2.844023e+002  1.000966e+003  5.754804e+001
      vertex  3.171714e+002  9.996970e+002  5.754804e+001
      vertex  2.222911e+002  9.997982e+002  5.754804e+001
    endloop
  endfacet
  facet normal  0.000000e+000  0.000000e+000 -1.000000e+000
    outer loop
      vertex  2.844023e+002  1.000966e+003  5.754804e+001
      vertex  2.222911e+002  9.997982e+002  5.754804e+001
      vertex  2.222909e+002  9.998016e+002  5.754804e+001
    endloop
  endfacet
  facet normal  0.000000e+000  0.000000e+000 -1.000000e+000
    outer loop
      vertex  2.844023e+002  1.000966e+003  5.754804e+001
      vertex  2.222909e+002  9.998016e+002  5.754804e+001
      vertex  2.228478e+002  1.000547e+003  5.754804e+001
    endloop
  endfacet
  facet normal  0.000000e+000  0.000000e+000 -1.000000e+000
    outer loop
      vertex  2.844023e+002  1.000966e+003  5.754804e+001
      vertex  2.228478e+002  1.000547e+003  5.754804e+001
      vertex  2.243181e+002  1.001146e+003  5.754804e+001
    endloop
  endfacet
  facet normal  0.000000e+000  0.000000e+000 -1.000000e+000
    outer loop
      vertex  2.844023e+002  1.000966e+003  5.754804e+001
      vertex  2.243181e+002  1.001146e+003  5.754804e+001
      vertex  2.280538e+002  1.001875e+003  5.754804e+001
    endloop
  endfacet
  facet normal  0.000000e+000  0.000000e+000 -1.000000e+000
    outer loop
      vertex  2.844023e+002  1.000966e+003  5.754804e+001
      vertex  2.280538e+002  1.001875e+003  5.754804e+001
      vertex  2.331794e+002  1.002315e+003  5.754804e+001
    endloop
  endfacet
  facet normal  0.000000e+000  0.000000e+000 -9.999999e-001
    outer loop
      vertex  2.844023e+002  1.000966e+003  5.754804e+001
      vertex  2.331794e+002  1.002315e+003  5.754804e+001
      vertex  2.567910e+002  1.002225e+003  5.754804e+001
    endloop
  endfacet
  facet normal  0.000000e+000  0.000000e+000 -1.000000e+000
    outer loop
      vertex  2.224324e+002  1.000211e+003  5.754804e+001
      vertex  2.228478e+002  1.000547e+003  5.754804e+001
      vertex  2.222902e+002  9.998339e+002  5.754804e+001
    endloop
  endfacet
  facet normal  0.000000e+000  0.000000e+000 -1.000000e+000
    outer loop
      vertex  2.222902e+002  9.998339e+002  5.754804e+001
      vertex  2.228478e+002  1.000547e+003  5.754804e+001
      vertex  2.222909e+002  9.998016e+002  5.754804e+001
    endloop
  endfacet
  facet normal  0.000000e+000  0.000000e+000 -1.000000e+000
    outer loop
      vertex  2.389357e+002  9.937188e+002  5.754804e+001
      vertex  2.318222e+002  9.950007e+002  5.754804e+001
      vertex  3.130273e+002  9.942570e+002  5.754804e+001
    endloop
  endfacet
  facet normal  0.000000e+000  0.000000e+000 -1.000000e+000
    outer loop
      vertex  3.130273e+002  9.942570e+002  5.754804e+001
      vertex  2.318222e+002  9.950007e+002  5.754804e+001
      vertex  2.270706e+002  9.964101e+002  5.754804e+001
    endloop
  endfacet
  facet normal  0.000000e+000  0.000000e+000 -9.999999e-001
    outer loop
      vertex  3.130273e+002  9.942570e+002  5.754804e+001
      vertex  2.270706e+002  9.964101e+002  5.754804e+001
      vertex  3.451164e+002  9.970007e+002  5.754804e+001
    endloop
  endfacet
  facet normal  -0.000000e+000  0.000000e+000 -1.000000e+000
    outer loop
      vertex  3.451164e+002  9.970007e+002  5.754804e+001
      vertex  2.270706e+002  9.964101e+002  5.754804e+001
      vertex  2.242039e+002  9.977719e+002  5.754804e+001
    endloop
  endfacet
  facet normal  0.000000e+000  0.000000e+000 -1.000000e+000
    outer loop
      vertex  3.451164e+002  9.970007e+002  5.754804e+001
      vertex  2.242039e+002  9.977719e+002  5.754804e+001
      vertex  2.227628e+002  9.989225e+002  5.754804e+001
    endloop
  endfacet
  facet normal  0.000000e+000  0.000000e+000 -1.000000e+000
    outer loop
      vertex  3.451164e+002  9.970007e+002  5.754804e+001
      vertex  2.227628e+002  9.989225e+002  5.754804e+001
      vertex  3.434070e+002  9.994018e+002  5.754804e+001
    endloop
  endfacet
  facet normal  -0.000000e+000  0.000000e+000 -1.000000e+000
    outer loop
      vertex  3.434070e+002  9.994018e+002  5.754804e+001
      vertex  2.227628e+002  9.989225e+002  5.754804e+001
      vertex  2.223422e+002  9.995703e+002  5.754804e+001
    endloop
  endfacet
  facet normal  0.000000e+000  0.000000e+000 -1.000000e+000
    outer loop
      vertex  3.434070e+002  9.994018e+002  5.754804e+001
      vertex  2.223422e+002  9.995703e+002  5.754804e+001
      vertex  3.171714e+002  9.996970e+002  5.754804e+001
    endloop
  endfacet
  facet normal  0.000000e+000  0.000000e+000 -1.000000e+000
    outer loop
      vertex  3.130273e+002  9.942570e+002  5.754804e+001
      vertex  2.862360e+002  9.926839e+002  5.754804e+001
      vertex  2.389357e+002  9.937188e+002  5.754804e+001
    endloop
  endfacet
  facet normal  0.000000e+000  0.000000e+000 -1.000000e+000
    outer loop
      vertex  2.389357e+002  9.937188e+002  5.754804e+001
      vertex  2.862360e+002  9.926839e+002  5.754804e+001
      vertex  2.455937e+002  9.929962e+002  5.754804e+001
    endloop
  endfacet
  facet normal  0.000000e+000  0.000000e+000 -9.999999e-001
    outer loop
      vertex  2.862360e+002  9.926839e+002  5.754804e+001
      vertex  2.663463e+002  9.922473e+002  5.754804e+001
      vertex  2.455937e+002  9.929962e+002  5.754804e+001
    endloop
  endfacet
  facet normal  0.000000e+000  0.000000e+000 -9.999999e-001
    outer loop
      vertex  2.455937e+002  9.929962e+002  5.754804e+001
      vertex  2.663463e+002  9.922473e+002  5.754804e+001
      vertex  2.592890e+002  9.923195e+002  5.754804e+001
    endloop
  endfacet
  facet normal  1.020580e-001 -9.940435e-001 -3.823187e-002
    outer loop
      vertex  4.307242e+002  9.999830e+002  2.098429e+002
      vertex  3.612408e+002  9.986183e+002  5.984293e+001
      vertex  3.742557e+002  9.999545e+002  5.984293e+001
    endloop
  endfacet
  facet normal  9.942707e-002 -9.943563e-001 -3.701031e-002
    outer loop
      vertex  4.307242e+002  9.999830e+002  2.098429e+002
      vertex  4.211677e+002  9.990274e+002  2.098429e+002
      vertex  3.612408e+002  9.986183e+002  5.984293e+001
    endloop
  endfacet
  facet normal  9.388563e-002 -9.949748e-001 -3.479476e-002
    outer loop
      vertex  4.211677e+002  9.990274e+002  2.098429e+002
      vertex  3.363059e+002  9.962654e+002  5.984293e+001
      vertex  3.612408e+002  9.986183e+002  5.984293e+001
    endloop
  endfacet
  facet normal  4.000204e-002 -9.991996e-001 -8.806493e-006
    outer loop
      vertex  2.947702e+002  9.932562e+002  5.984293e+001
      vertex  4.032512e+002  9.975978e+002  2.098429e+002
      vertex  2.815201e+002  9.927258e+002  5.984293e+001
    endloop
  endfacet
  facet normal  3.270979e-002 -9.994473e-001  5.917215e-003
    outer loop
      vertex  2.815201e+002  9.927258e+002  5.984293e+001
      vertex  4.032512e+002  9.975978e+002  2.098429e+002
      vertex  3.909762e+002  9.971961e+002  2.098429e+002
    endloop
  endfacet
  facet normal  1.528780e-002 -9.997094e-001  1.863798e-002
    outer loop
      vertex  2.815201e+002  9.927258e+002  5.984293e+001
      vertex  3.909762e+002  9.971961e+002  2.098429e+002
      vertex  2.682611e+002  9.925230e+002  5.984293e+001
    endloop
  endfacet
  facet normal  7.898260e-002 -9.965281e-001 -2.633484e-002
    outer loop
      vertex  3.363059e+002  9.962654e+002  5.984293e+001
      vertex  4.211677e+002  9.990274e+002  2.098429e+002
      vertex  3.088432e+002  9.940888e+002  5.984293e+001
    endloop
  endfacet
  facet normal  7.950918e-002 -9.964756e-001 -2.673090e-002
    outer loop
      vertex  3.088432e+002  9.940888e+002  5.984293e+001
      vertex  4.211677e+002  9.990274e+002  2.098429e+002
      vertex  4.032512e+002  9.975978e+002  2.098429e+002
    endloop
  endfacet
  facet normal  5.905265e-002 -9.981593e-001 -1.381646e-002
    outer loop
      vertex  3.088432e+002  9.940888e+002  5.984293e+001
      vertex  4.032512e+002  9.975978e+002  2.098429e+002
      vertex  2.947702e+002  9.932562e+002  5.984293e+001
    endloop
  endfacet
  facet normal -6.989034e-001 -1.517933e-001  6.989226e-001
    outer loop
      vertex  3.746056e+002  9.999868e+002  2.098429e+002
      vertex  2.246063e+002  9.999647e+002  5.984293e+001
      vertex  3.746225e+002  9.999091e+002  2.098429e+002
    endloop
  endfacet
  facet normal -6.989002e-001 -1.518232e-001  6.989194e-001
    outer loop
      vertex  3.746225e+002  9.999091e+002  2.098429e+002
      vertex  2.246063e+002  9.999647e+002  5.984293e+001
      vertex  2.246513e+002  9.997576e+002  5.984293e+001
    endloop
  endfacet
  facet normal -6.609645e-001 -3.548882e-001  6.611961e-001
    outer loop
      vertex  3.746225e+002  9.999091e+002  2.098429e+002
      vertex  2.246513e+002  9.997576e+002  5.984293e+001
      vertex  3.746974e+002  9.997695e+002  2.098429e+002
    endloop
  endfacet
  facet normal -6.609709e-001 -3.548644e-001  6.612024e-001
    outer loop
      vertex  3.746974e+002  9.997695e+002  2.098429e+002
      vertex  2.246513e+002  9.997576e+002  5.984293e+001
      vertex  2.248512e+002  9.993853e+002  5.984293e+001
    endloop
  endfacet
  facet normal -6.076898e-001 -5.104837e-001  6.083745e-001
    outer loop
      vertex  3.746974e+002  9.997695e+002  2.098429e+002
      vertex  2.248512e+002  9.993853e+002  5.984293e+001
      vertex  3.748340e+002  9.996069e+002  2.098429e+002
    endloop
  endfacet
  facet normal -5.830057e-001 -5.650775e-001  5.837738e-001
    outer loop
      vertex  3.748340e+002  9.996069e+002  2.098429e+002
      vertex  2.248512e+002  9.993853e+002  5.984293e+001
      vertex  2.256447e+002  9.985667e+002  5.984293e+001
    endloop
  endfacet
  facet normal -4.863706e-001 -7.242600e-001  4.887648e-001
    outer loop
      vertex  3.748340e+002  9.996069e+002  2.098429e+002
      vertex  2.256447e+002  9.985667e+002  5.984293e+001
      vertex  3.756928e+002  9.990302e+002  2.098429e+002
    endloop
  endfacet
  facet normal -4.654611e-001 -7.512560e-001  4.679320e-001
    outer loop
      vertex  3.756928e+002  9.990302e+002  2.098429e+002
      vertex  2.256447e+002  9.985667e+002  5.984293e+001
      vertex  2.275055e+002  9.974137e+002  5.984293e+001
    endloop
  endfacet
  facet normal -3.522308e-001 -8.650275e-001  3.572962e-001
    outer loop
      vertex  3.756928e+002  9.990302e+002  2.098429e+002
      vertex  2.275055e+002  9.974137e+002  5.984293e+001
      vertex  2.302388e+002  9.963007e+002  5.984293e+001
    endloop
  endfacet
  facet normal -3.041958e-001 -9.002893e-001  3.113585e-001
    outer loop
      vertex  3.756928e+002  9.990302e+002  2.098429e+002
      vertex  2.302388e+002  9.963007e+002  5.984293e+001
      vertex  3.780453e+002  9.982353e+002  2.098429e+002
    endloop
  endfacet
  facet normal -2.632390e-001 -9.257891e-001  2.713296e-001
    outer loop
      vertex  3.780453e+002  9.982353e+002  2.098429e+002
      vertex  2.302388e+002  9.963007e+002  5.984293e+001
      vertex  2.337787e+002  9.952942e+002  5.984293e+001
    endloop
  endfacet
  facet normal -1.847673e-001 -9.629202e-001  1.965853e-001
    outer loop
      vertex  3.780453e+002  9.982353e+002  2.098429e+002
      vertex  2.337787e+002  9.952942e+002  5.984293e+001
      vertex  2.394941e+002  9.941975e+002  5.984293e+001
    endloop
  endfacet
  facet normal -1.530852e-001 -9.738939e-001  1.676168e-001
    outer loop
      vertex  3.780453e+002  9.982353e+002  2.098429e+002
      vertex  2.394941e+002  9.941975e+002  5.984293e+001
      vertex  3.824163e+002  9.975482e+002  2.098429e+002
    endloop
  endfacet
  facet normal -1.217220e-001 -9.829331e-001  1.379353e-001
    outer loop
      vertex  3.824163e+002  9.975482e+002  2.098429e+002
      vertex  2.394941e+002  9.941975e+002  5.984293e+001
      vertex  2.454347e+002  9.934619e+002  5.984293e+001
    endloop
  endfacet
  facet normal -6.276461e-002 -9.944525e-001  8.440866e-002
    outer loop
      vertex  3.824163e+002  9.975482e+002  2.098429e+002
      vertex  2.454347e+002  9.934619e+002  5.984293e+001
      vertex  3.869808e+002  9.972601e+002  2.098429e+002
    endloop
  endfacet
  facet normal -6.276108e-002 -9.944530e-001  8.440530e-002
    outer loop
      vertex  3.869808e+002  9.972601e+002  2.098429e+002
      vertex  2.454347e+002  9.934619e+002  5.984293e+001
      vertex  2.576067e+002  9.926937e+002  5.984293e+001
    endloop
  endfacet
  facet normal -1.600710e-002 -9.988938e-001  4.421552e-002
    outer loop
      vertex  3.869808e+002  9.972601e+002  2.098429e+002
      vertex  2.576067e+002  9.926937e+002  5.984293e+001
      vertex  3.909762e+002  9.971961e+002  2.098429e+002
    endloop
  endfacet
  facet normal -1.599947e-002 -9.988942e-001  4.420870e-002
    outer loop
      vertex  3.909762e+002  9.971961e+002  2.098429e+002
      vertex  2.576067e+002  9.926937e+002  5.984293e+001
      vertex  2.682611e+002  9.925230e+002  5.984293e+001
    endloop
  endfacet
  facet normal -7.065489e-001 -3.966590e-002  7.065517e-001
    outer loop
      vertex  2.246063e+002  9.999647e+002  5.984293e+001
      vertex  3.746056e+002  9.999868e+002  2.098429e+002
      vertex  2.246061e+002  9.999681e+002  5.984293e+001
    endloop
  endfacet
  facet normal -7.068142e-001 -2.872134e-002  7.068160e-001
    outer loop
      vertex  2.246061e+002  9.999681e+002  5.984293e+001
      vertex  3.746056e+002  9.999868e+002  2.098429e+002
      vertex  3.746056e+002  9.999880e+002  2.098429e+002
    endloop
  endfacet
  facet normal -7.069704e-001 -1.963807e-002  7.069704e-001
    outer loop
      vertex  2.246052e+002  1.000000e+003  5.984293e+001
      vertex  2.246061e+002  9.999681e+002  5.984293e+001
      vertex  3.746052e+002  1.000000e+003  2.098429e+002
    endloop
  endfacet
  facet normal -7.069676e-001 -1.983838e-002  7.069676e-001
    outer loop
      vertex  3.746052e+002  1.000000e+003  2.098429e+002
      vertex  2.246061e+002  9.999681e+002  5.984293e+001
      vertex  3.746056e+002  9.999880e+002  2.098429e+002
    endloop
  endfacet
  facet normal -1.668717e-001  9.709596e-001  1.714385e-001
    outer loop
      vertex  3.753996e+002  1.000500e+003  2.098429e+002
      vertex  3.772194e+002  1.000812e+003  2.098429e+002
      vertex  2.294312e+002  1.001898e+003  5.984293e+001
    endloop
  endfacet
  facet normal -3.854386e-002  9.981775e-001  4.643295e-002
    outer loop
      vertex  3.820087e+002  1.000997e+003  2.098429e+002
      vertex  2.443478e+002  1.002659e+003  5.984293e+001
      vertex  3.772194e+002  1.000812e+003  2.098429e+002
    endloop
  endfacet
  facet normal -2.566232e-002  9.990567e-001  3.503316e-002
    outer loop
      vertex  3.772194e+002  1.000812e+003  2.098429e+002
      vertex  2.443478e+002  1.002659e+003  5.984293e+001
      vertex  2.345414e+002  1.002407e+003  5.984293e+001
    endloop
  endfacet
  facet normal -9.864882e-002  9.896353e-001  1.043567e-001
    outer loop
      vertex  3.772194e+002  1.000812e+003  2.098429e+002
      vertex  2.345414e+002  1.002407e+003  5.984293e+001
      vertex  2.294312e+002  1.001898e+003  5.984293e+001
    endloop
  endfacet
  facet normal -6.957375e-001  1.786022e-001  6.957375e-001
    outer loop
      vertex  2.246052e+002  1.000000e+003  5.984293e+001
      vertex  3.746052e+002  1.000000e+003  2.098429e+002
      vertex  2.246740e+002  1.000268e+003  5.984293e+001
    endloop
  endfacet
  facet normal -6.957248e-001  1.787003e-001  6.957249e-001
    outer loop
      vertex  2.246740e+002  1.000268e+003  5.984293e+001
      vertex  3.746052e+002  1.000000e+003  2.098429e+002
      vertex  3.746310e+002  1.000101e+003  2.098429e+002
    endloop
  endfacet
  facet normal -5.857846e-001  5.596223e-001  5.862417e-001
    outer loop
      vertex  2.246740e+002  1.000268e+003  5.984293e+001
      vertex  3.746310e+002  1.000101e+003  2.098429e+002
      vertex  2.249862e+002  1.000595e+003  5.984293e+001
    endloop
  endfacet
  facet normal -5.858076e-001  5.595745e-001  5.862644e-001
    outer loop
      vertex  2.249862e+002  1.000595e+003  5.984293e+001
      vertex  3.746310e+002  1.000101e+003  2.098429e+002
      vertex  3.747481e+002  1.000223e+003  2.098429e+002
    endloop
  endfacet
  facet normal -4.515628e-001  7.688349e-001  4.527515e-001
    outer loop
      vertex  2.249862e+002  1.000595e+003  5.984293e+001
      vertex  3.747481e+002  1.000223e+003  2.098429e+002
      vertex  2.254233e+002  1.000852e+003  5.984293e+001
    endloop
  endfacet
  facet normal -4.515204e-001  7.688845e-001  4.527096e-001
    outer loop
      vertex  2.254233e+002  1.000852e+003  5.984293e+001
      vertex  3.747481e+002  1.000223e+003  2.098429e+002
      vertex  3.749120e+002  1.000319e+003  2.098429e+002
    endloop
  endfacet
  facet normal -3.272951e-001  8.856776e-001  3.293221e-001
    outer loop
      vertex  2.254233e+002  1.000852e+003  5.984293e+001
      vertex  3.749120e+002  1.000319e+003  2.098429e+002
      vertex  2.267236e+002  1.001332e+003  5.984293e+001
    endloop
  endfacet
  facet normal -3.272745e-001  8.856928e-001  3.293018e-001
    outer loop
      vertex  2.267236e+002  1.001332e+003  5.984293e+001
      vertex  3.749120e+002  1.000319e+003  2.098429e+002
      vertex  3.753996e+002  1.000500e+003  2.098429e+002
    endloop
  endfacet
  facet normal -2.002612e-001  9.583088e-001  2.038127e-001
    outer loop
      vertex  2.267236e+002  1.001332e+003  5.984293e+001
      vertex  3.753996e+002  1.000500e+003  2.098429e+002
      vertex  2.294312e+002  1.001898e+003  5.984293e+001
    endloop
  endfacet
  facet normal -4.465016e-003  9.999900e-001 -2.291811e-004
    outer loop
      vertex  4.277340e+002  9.999464e+002  2.098429e+002
      vertex  3.425490e+002  9.995316e+002  5.984293e+001
      vertex  4.126156e+002  9.998788e+002  2.098429e+002
    endloop
  endfacet
  facet normal  8.763036e-003  9.999411e-001 -6.408029e-003
    outer loop
      vertex  4.126156e+002  9.998788e+002  2.098429e+002
      vertex  3.425490e+002  9.995316e+002  5.984293e+001
      vertex  3.259662e+002  9.996769e+002  5.984293e+001
    endloop
  endfacet
  facet normal -2.983722e-002  9.994872e-001  1.162776e-002
    outer loop
      vertex  4.307252e+002  1.000036e+003  2.098429e+002
      vertex  3.742586e+002  1.000095e+003  5.984293e+001
      vertex  4.277340e+002  9.999464e+002  2.098429e+002
    endloop
  endfacet
  facet normal -2.983463e-002  9.994872e-001  1.162684e-002
    outer loop
      vertex  4.277340e+002  9.999464e+002  2.098429e+002
      vertex  3.742586e+002  1.000095e+003  5.984293e+001
      vertex  3.662821e+002  9.998569e+002  5.984293e+001
    endloop
  endfacet
  facet normal -1.370589e-002  9.998935e-001  5.018979e-003
    outer loop
      vertex  4.277340e+002  9.999464e+002  2.098429e+002
      vertex  3.662821e+002  9.998569e+002  5.984293e+001
      vertex  3.425490e+002  9.995316e+002  5.984293e+001
    endloop
  endfacet
  facet normal  1.611968e-002  9.998632e-001 -3.715268e-003
    outer loop
      vertex  2.443478e+002  1.002659e+003  5.984293e+001
      vertex  3.820087e+002  1.000997e+003  2.098429e+002
      vertex  2.549255e+002  1.002489e+003  5.984293e+001
    endloop
  endfacet
  facet normal  1.612359e-002  9.998631e-001 -3.718581e-003
    outer loop
      vertex  2.549255e+002  1.002489e+003  5.984293e+001
      vertex  3.820087e+002  1.000997e+003  2.098429e+002
      vertex  3.859753e+002  1.000933e+003  2.098429e+002
    endloop
  endfacet
  facet normal  4.196604e-002  9.987726e-001 -2.630755e-002
    outer loop
      vertex  2.549255e+002  1.002489e+003  5.984293e+001
      vertex  3.859753e+002  1.000933e+003  2.098429e+002
      vertex  2.760653e+002  1.001600e+003  5.984293e+001
    endloop
  endfacet
  facet normal  4.196321e-002  9.987728e-001 -2.630548e-002
    outer loop
      vertex  2.760653e+002  1.001600e+003  5.984293e+001
      vertex  3.859753e+002  1.000933e+003  2.098429e+002
      vertex  3.939027e+002  1.000600e+003  2.098429e+002
    endloop
  endfacet
  facet normal  4.448755e-002  9.986092e-001 -2.828964e-002
    outer loop
      vertex  2.760653e+002  1.001600e+003  5.984293e+001
      vertex  3.939027e+002  1.000600e+003  2.098429e+002
      vertex  3.093754e+002  1.000116e+003  5.984293e+001
    endloop
  endfacet
  facet normal  3.850591e-002  9.989476e-001 -2.491999e-002
    outer loop
      vertex  3.093754e+002  1.000116e+003  5.984293e+001
      vertex  3.939027e+002  1.000600e+003  2.098429e+002
      vertex  4.126156e+002  9.998788e+002  2.098429e+002
    endloop
  endfacet
  facet normal  2.647850e-002  9.995109e-001 -1.664102e-002
    outer loop
      vertex  3.093754e+002  1.000116e+003  5.984293e+001
      vertex  4.126156e+002  9.998788e+002  2.098429e+002
      vertex  3.259662e+002  9.996769e+002  5.984293e+001
    endloop
  endfacet
  facet normal  9.104484e-001  2.321744e-001 -3.423136e-001
    outer loop
      vertex  4.307635e+002  1.000013e+003  2.098429e+002
      vertex  3.743606e+002  1.000034e+003  5.984293e+001
      vertex  4.307611e+002  1.000022e+003  2.098429e+002
    endloop
  endfacet
  facet normal  9.105738e-001  2.316126e-001 -3.423608e-001
    outer loop
      vertex  4.307611e+002  1.000022e+003  2.098429e+002
      vertex  3.743606e+002  1.000034e+003  5.984293e+001
      vertex  3.743543e+002  1.000059e+003  5.984293e+001
    endloop
  endfacet
  facet normal  7.029670e-001  6.603355e-001 -2.641867e-001
    outer loop
      vertex  4.307611e+002  1.000022e+003  2.098429e+002
      vertex  3.743543e+002  1.000059e+003  5.984293e+001
      vertex  4.307540e+002  1.000030e+003  2.098429e+002
    endloop
  endfacet
  facet normal  7.039070e-001  6.591915e-001 -2.645403e-001
    outer loop
      vertex  4.307540e+002  1.000030e+003  2.098429e+002
      vertex  3.743543e+002  1.000059e+003  5.984293e+001
      vertex  3.743354e+002  1.000079e+003  5.984293e+001
    endloop
  endfacet
  facet normal  4.252904e-001  8.908613e-001 -1.596697e-001
    outer loop
      vertex  4.307540e+002  1.000030e+003  2.098429e+002
      vertex  3.743354e+002  1.000079e+003  5.984293e+001
      vertex  4.307466e+002  1.000033e+003  2.098429e+002
    endloop
  endfacet
  facet normal  4.276725e-001  8.895587e-001 -1.605661e-001
    outer loop
      vertex  4.307466e+002  1.000033e+003  2.098429e+002
      vertex  3.743354e+002  1.000079e+003  5.984293e+001
      vertex  3.743156e+002  1.000088e+003  5.984293e+001
    endloop
  endfacet
  facet normal  1.188584e-001  9.919202e-001 -4.435050e-002
    outer loop
      vertex  4.307466e+002  1.000033e+003  2.098429e+002
      vertex  3.743156e+002  1.000088e+003  5.984293e+001
      vertex  4.307252e+002  1.000036e+003  2.098429e+002
    endloop
  endfacet
  facet normal  1.178890e-001  9.920521e-001 -4.398593e-002
    outer loop
      vertex  4.307252e+002  1.000036e+003  2.098429e+002
      vertex  3.743156e+002  1.000088e+003  5.984293e+001
      vertex  3.742586e+002  1.000095e+003  5.984293e+001
    endloop
  endfacet
  facet normal  2.954112e-001 -9.488966e-001 -1.110295e-001
    outer loop
      vertex  4.307242e+002  9.999830e+002  2.098429e+002
      vertex  3.742557e+002  9.999545e+002  5.984293e+001
      vertex  4.307500e+002  9.999910e+002  2.098429e+002
    endloop
  endfacet
  facet normal  3.369624e-001 -9.329566e-001 -1.266827e-001
    outer loop
      vertex  4.307500e+002  9.999910e+002  2.098429e+002
      vertex  3.742557e+002  9.999545e+002  5.984293e+001
      vertex  3.743340e+002  9.999828e+002  5.984293e+001
    endloop
  endfacet
  facet normal  6.412770e-001 -7.284306e-001 -2.411487e-001
    outer loop
      vertex  4.307500e+002  9.999910e+002  2.098429e+002
      vertex  3.743340e+002  9.999828e+002  5.984293e+001
      vertex  4.307579e+002  9.999980e+002  2.098429e+002
    endloop
  endfacet
  facet normal  7.431943e-001 -6.079006e-001 -2.794981e-001
    outer loop
      vertex  4.307579e+002  9.999980e+002  2.098429e+002
      vertex  3.743340e+002  9.999828e+002  5.984293e+001
      vertex  3.743539e+002  1.000007e+003  5.984293e+001
    endloop
  endfacet
  facet normal  9.113961e-001 -2.277938e-001 -3.427349e-001
    outer loop
      vertex  3.743606e+002  1.000034e+003  5.984293e+001
      vertex  4.307635e+002  1.000013e+003  2.098429e+002
      vertex  3.743539e+002  1.000007e+003  5.984293e+001
    endloop
  endfacet
  facet normal  8.829277e-001 -3.319613e-001 -3.320249e-001
    outer loop
      vertex  3.743539e+002  1.000007e+003  5.984293e+001
      vertex  4.307635e+002  1.000013e+003  2.098429e+002
      vertex  4.307579e+002  9.999980e+002  2.098429e+002
    endloop
  endfacet
  facet normal  0.000000e+000  0.000000e+000  1.000000e+000
    outer loop
      vertex  4.307611e+002  1.000022e+003  2.098429e+002
      vertex  4.307579e+002  9.999980e+002  2.098429e+002
      vertex  4.307635e+002  1.000013e+003  2.098429e+002
    endloop
  endfacet
  facet normal  0.000000e+000  -0.000000e+000  1.000000e+000
    outer loop
      vertex  4.307540e+002  1.000030e+003  2.098429e+002
      vertex  4.307579e+002  9.999980e+002  2.098429e+002
      vertex  4.307611e+002  1.000022e+003  2.098429e+002
    endloop
  endfacet
  facet normal  0.000000e+000  0.000000e+000  1.000000e+000
    outer loop
      vertex  4.307500e+002  9.999910e+002  2.098429e+002
      vertex  4.307579e+002  9.999980e+002  2.098429e+002
      vertex  4.307540e+002  1.000030e+003  2.098429e+002
    endloop
  endfacet
  facet normal  -0.000000e+000  -0.000000e+000  1.000000e+000
    outer loop
      vertex  3.746056e+002  9.999880e+002  2.098429e+002
      vertex  3.746056e+002  9.999868e+002  2.098429e+002
      vertex  3.746225e+002  9.999091e+002  2.098429e+002
    endloop
  endfacet
  facet normal  0.000000e+000  -0.000000e+000  1.000000e+000
    outer loop
      vertex  3.746056e+002  9.999880e+002  2.098429e+002
      vertex  3.746225e+002  9.999091e+002  2.098429e+002
      vertex  3.746310e+002  1.000101e+003  2.098429e+002
    endloop
  endfacet
  facet normal  0.000000e+000  0.000000e+000  1.000000e+000
    outer loop
      vertex  3.746056e+002  9.999880e+002  2.098429e+002
      vertex  3.746310e+002  1.000101e+003  2.098429e+002
      vertex  3.746052e+002  1.000000e+003  2.098429e+002
    endloop
  endfacet
  facet normal  0.000000e+000  0.000000e+000  1.000000e+000
    outer loop
      vertex  4.307540e+002  1.000030e+003  2.098429e+002
      vertex  4.307466e+002  1.000033e+003  2.098429e+002
      vertex  4.307500e+002  9.999910e+002  2.098429e+002
    endloop
  endfacet
  facet normal  0.000000e+000  0.000000e+000  9.999999e-001
    outer loop
      vertex  4.307500e+002  9.999910e+002  2.098429e+002
      vertex  4.307466e+002  1.000033e+003  2.098429e+002
      vertex  4.307252e+002  1.000036e+003  2.098429e+002
    endloop
  endfacet
  facet normal  0.000000e+000  0.000000e+000  1.000000e+000
    outer loop
      vertex  4.307500e+002  9.999910e+002  2.098429e+002
      vertex  4.307252e+002  1.000036e+003  2.098429e+002
      vertex  4.307242e+002  9.999830e+002  2.098429e+002
    endloop
  endfacet
  facet normal  0.000000e+000  -0.000000e+000  1.000000e+000
    outer loop
      vertex  4.307242e+002  9.999830e+002  2.098429e+002
      vertex  4.307252e+002  1.000036e+003  2.098429e+002
      vertex  4.277340e+002  9.999464e+002  2.098429e+002
    endloop
  endfacet
  facet normal  -0.000000e+000  0.000000e+000  1.000000e+000
    outer loop
      vertex  4.307242e+002  9.999830e+002  2.098429e+002
      vertex  4.277340e+002  9.999464e+002  2.098429e+002
      vertex  4.211677e+002  9.990274e+002  2.098429e+002
    endloop
  endfacet
  facet normal  0.000000e+000  -0.000000e+000  1.000000e+000
    outer loop
      vertex  4.211677e+002  9.990274e+002  2.098429e+002
      vertex  4.277340e+002  9.999464e+002  2.098429e+002
      vertex  4.126156e+002  9.998788e+002  2.098429e+002
    endloop
  endfacet
  facet normal  0.000000e+000  0.000000e+000  9.999999e-001
    outer loop
      vertex  4.211677e+002  9.990274e+002  2.098429e+002
      vertex  4.126156e+002  9.998788e+002  2.098429e+002
      vertex  4.032512e+002  9.975978e+002  2.098429e+002
    endloop
  endfacet
  facet normal  0.000000e+000  -0.000000e+000  1.000000e+000
    outer loop
      vertex  4.032512e+002  9.975978e+002  2.098429e+002
      vertex  4.126156e+002  9.998788e+002  2.098429e+002
      vertex  3.939027e+002  1.000600e+003  2.098429e+002
    endloop
  endfacet
  facet normal  0.000000e+000  0.000000e+000  1.000000e+000
    outer loop
      vertex  4.032512e+002  9.975978e+002  2.098429e+002
      vertex  3.939027e+002  1.000600e+003  2.098429e+002
      vertex  3.909762e+002  9.971961e+002  2.098429e+002
    endloop
  endfacet
  facet normal  0.000000e+000  0.000000e+000  1.000000e+000
    outer loop
      vertex  3.772194e+002  1.000812e+003  2.098429e+002
      vertex  3.824163e+002  9.975482e+002  2.098429e+002
      vertex  3.820087e+002  1.000997e+003  2.098429e+002
    endloop
  endfacet
  facet normal  0.000000e+000  0.000000e+000  9.999999e-001
    outer loop
      vertex  3.820087e+002  1.000997e+003  2.098429e+002
      vertex  3.824163e+002  9.975482e+002  2.098429e+002
      vertex  3.869808e+002  9.972601e+002  2.098429e+002
    endloop
  endfacet
  facet normal  0.000000e+000  0.000000e+000  1.000000e+000
    outer loop
      vertex  3.820087e+002  1.000997e+003  2.098429e+002
      vertex  3.869808e+002  9.972601e+002  2.098429e+002
      vertex  3.859753e+002  1.000933e+003  2.098429e+002
    endloop
  endfacet
  facet normal  0.000000e+000  0.000000e+000  1.000000e+000
    outer loop
      vertex  3.859753e+002  1.000933e+003  2.098429e+002
      vertex  3.869808e+002  9.972601e+002  2.098429e+002
      vertex  3.909762e+002  9.971961e+002  2.098429e+002
    endloop
  endfacet
  facet normal  0.000000e+000  -0.000000e+000  1.000000e+000
    outer loop
      vertex  3.859753e+002  1.000933e+003  2.098429e+002
      vertex  3.909762e+002  9.971961e+002  2.098429e+002
      vertex  3.939027e+002  1.000600e+003  2.098429e+002
    endloop
  endfacet
  facet normal  0.000000e+000  0.000000e+000  1.000000e+000
    outer loop
      vertex  3.824163e+002  9.975482e+002  2.098429e+002
      vertex  3.772194e+002  1.000812e+003  2.098429e+002
      vertex  3.780453e+002  9.982353e+002  2.098429e+002
    endloop
  endfacet
  facet normal  0.000000e+000  0.000000e+000  1.000000e+000
    outer loop
      vertex  3.780453e+002  9.982353e+002  2.098429e+002
      vertex  3.772194e+002  1.000812e+003  2.098429e+002
      vertex  3.753996e+002  1.000500e+003  2.098429e+002
    endloop
  endfacet
  facet normal  0.000000e+000  0.000000e+000  1.000000e+000
    outer loop
      vertex  3.780453e+002  9.982353e+002  2.098429e+002
      vertex  3.753996e+002  1.000500e+003  2.098429e+002
      vertex  3.756928e+002  9.990302e+002  2.098429e+002
    endloop
  endfacet
  facet normal  0.000000e+000  0.000000e+000  1.000000e+000
    outer loop
      vertex  3.756928e+002  9.990302e+002  2.098429e+002
      vertex  3.753996e+002  1.000500e+003  2.098429e+002
      vertex  3.749120e+002  1.000319e+003  2.098429e+002
    endloop
  endfacet
  facet normal  0.000000e+000  0.000000e+000  1.000000e+000
    outer loop
      vertex  3.756928e+002  9.990302e+002  2.098429e+002
      vertex  3.749120e+002  1.000319e+003  2.098429e+002
      vertex  3.748340e+002  9.996069e+002  2.098429e+002
    endloop
  endfacet
  facet normal  0.000000e+000  -0.000000e+000  1.000000e+000
    outer loop
      vertex  3.748340e+002  9.996069e+002  2.098429e+002
      vertex  3.749120e+002  1.000319e+003  2.098429e+002
      vertex  3.747481e+002  1.000223e+003  2.098429e+002
    endloop
  endfacet
  facet normal  0.000000e+000  0.000000e+000  1.000000e+000
    outer loop
      vertex  3.748340e+002  9.996069e+002  2.098429e+002
      vertex  3.747481e+002  1.000223e+003  2.098429e+002
      vertex  3.746974e+002  9.997695e+002  2.098429e+002
    endloop
  endfacet
  facet normal  0.000000e+000  -0.000000e+000  1.000000e+000
    outer loop
      vertex  3.746974e+002  9.997695e+002  2.098429e+002
      vertex  3.747481e+002  1.000223e+003  2.098429e+002
      vertex  3.746310e+002  1.000101e+003  2.098429e+002
    endloop
  endfacet
  facet normal  0.000000e+000  0.000000e+000  1.000000e+000
    outer loop
      vertex  3.746974e+002  9.997695e+002  2.098429e+002
      vertex  3.746310e+002  1.000101e+003  2.098429e+002
      vertex  3.746225e+002  9.999091e+002  2.098429e+002
    endloop
  endfacet
endsolid CATIA STL
