  0
SECTION
  2
HEADER
  9
$ACADVER
  1
AC1015
  9
$ACADMAINTVER
 70
     6
  9
$DWGCODEPAGE
  3
ANSI_1252
  9
$INSBASE
 10
0.0
 20
0.0
 30
0.0
  9
$EXTMIN
 10
0.0
 20
0.0
 30
0.0
  9
$EXTMAX
 10
267.662231
 20
156.791077
 30
2.0
  9
$LIMMIN
 10
0.0
 20
0.0
  9
$LIMMAX
 10
420.0
 20
297.0
  9
$ORTHOMODE
 70
     0
  9
$REGENMODE
 70
     1
  9
$FILLMODE
 70
     1
  9
$QTEXTMODE
 70
     0
  9
$MIRRTEXT
 70
     1
  9
$LTSCALE
 40
1.0
  9
$ATTMODE
 70
     1
  9
$TEXTSIZE
 40
2.5
  9
$TRACEWID
 40
1.0
  9
$TEXTSTYLE
  7
Standard
  9
$CLAYER
  8
0
  9
$CELTYPE
  6
ByLayer
  9
$CECOLOR
 62
   256
  9
$CELTSCALE
 40
1.0
  9
$DISPSILH
 70
     0
  9
$DIMSCALE
 40
1.0
  9
$DIMASZ
 40
2.5
  9
$DIMEXO
 40
0.625
  9
$DIMDLI
 40
3.75
  9
$DIMRND
 40
0.0
  9
$DIMDLE
 40
0.0
  9
$DIMEXE
 40
1.25
  9
$DIMTP
 40
0.0
  9
$DIMTM
 40
0.0
  9
$DIMTXT
 40
2.5
  9
$DIMCEN
 40
2.5
  9
$DIMTSZ
 40
0.0
  9
$DIMTOL
 70
     0
  9
$DIMLIM
 70
     0
  9
$DIMTIH
 70
     0
  9
$DIMTOH
 70
     0
  9
$DIMSE1
 70
     0
  9
$DIMSE2
 70
     0
  9
$DIMTAD
 70
     1
  9
$DIMZIN
 70
     8
  9
$DIMBLK
  1

  9
$DIMASO
 70
     1
  9
$DIMSHO
 70
     1
  9
$DIMPOST
  1

  9
$DIMAPOST
  1

  9
$DIMALT
 70
     0
  9
$DIMALTD
 70
     3
  9
$DIMALTF
 40
0.03937
  9
$DIMLFAC
 40
1.0
  9
$DIMTOFL
 70
     1
  9
$DIMTVP
 40
0.0
  9
$DIMTIX
 70
     0
  9
$DIMSOXD
 70
     0
  9
$DIMSAH
 70
     0
  9
$DIMBLK1
  1

  9
$DIMBLK2
  1

  9
$DIMSTYLE
  2

  9
$DIMCLRD
 70
     0
  9
$DIMCLRE
 70
     0
  9
$DIMCLRT
 70
     0
  9
$DIMTFAC
 40
1.0
  9
$DIMGAP
 40
0.625
  9
$DIMJUST
 70
     0
  9
$DIMSD1
 70
     0
  9
$DIMSD2
 70
     0
  9
$DIMTOLJ
 70
     0
  9
$DIMTZIN
 70
     8
  9
$DIMALTZ
 70
     0
  9
$DIMALTTZ
 70
     0
  9
$DIMUPT
 70
     0
  9
$DIMDEC
 70
     2
  9
$DIMTDEC
 70
     2
  9
$DIMALTU
 70
     2
  9
$DIMALTTD
 70
     3
  9
$DIMTXSTY
  7
Standard
  9
$DIMAUNIT
 70
     0
  9
$DIMADEC
 70
     0
  9
$DIMALTRND
 40
0.0
  9
$DIMAZIN
 70
     0
  9
$DIMDSEP
 70
    44
  9
$DIMATFIT
 70
     0
  9
$DIMFRAC
 70
     0
  9
$DIMLDRBLK
  1

  9
$DIMLUNIT
 70
     2
  9
$DIMLWD
 70
    -2
  9
$DIMLWE
 70
    -2
  9
$DIMTMOVE
 70
     0
  9
$LUNITS
 70
     2
  9
$LUPREC
 70
     4
  9
$SKETCHINC
 40
1.0
  9
$FILLETRAD
 40
2.5
  9
$AUNITS
 70
     0
  9
$AUPREC
 70
     0
  9
$MENU
  1
.
  9
$ELEVATION
 40
0.0
  9
$PELEVATION
 40
0.0
  9
$THICKNESS
 40
0.0
  9
$LIMCHECK
 70
     0
  9
$CHAMFERA
 40
2.5
  9
$CHAMFERB
 40
2.5
  9
$CHAMFERC
 40
0.0
  9
$CHAMFERD
 40
0.0
  9
$SKPOLY
 70
     0
  9
$TDCREATE
 40
0.000000000
  9
$TDUCREATE
 40
0.000000000
  9
$TDUPDATE
 40
0.000000000
  9
$TDUUPDATE
 40
0.000000000
  9
$TDINDWG
 40
0.0000000000
  9
$TDUSRTIMER
 40
0.0000000000
  9
$USRTIMER
 70
     1
  9
$ANGBASE
 50
0.0
  9
$ANGDIR
 70
     0
  9
$PDMODE
 70
     0
  9
$PDSIZE
 40
0.0
  9
$PLINEWID
 40
0.0
  9
$SPLFRAME
 70
     0
  9
$SPLINETYPE
 70
     6
  9
$SPLINESEGS
 70
     8
  9
$HANDSEED
  5
3DF
  9
$SURFTAB1
 70
     6
  9
$SURFTAB2
 70
     6
  9
$SURFTYPE
 70
     6
  9
$SURFU
 70
     6
  9
$SURFV
 70
     6
  9
$UCSBASE
  2

  9
$UCSNAME
  2

  9
$UCSORG
 10
0.0
 20
0.0
 30
0.0
  9
$UCSXDIR
 10
1.0
 20
0.0
 30
0.0
  9
$UCSYDIR
 10
0.0
 20
1.0
 30
0.0
  9
$UCSORTHOREF
  2

  9
$UCSORTHOVIEW
 70
     1
  9
$UCSORGTOP
 10
0.0
 20
0.0
 30
0.0
  9
$UCSORGBOTTOM
 10
0.0
 20
0.0
 30
0.0
  9
$UCSORGLEFT
 10
0.0
 20
0.0
 30
0.0
  9
$UCSORGRIGHT
 10
0.0
 20
0.0
 30
0.0
  9
$UCSORGFRONT
 10
0.0
 20
0.0
 30
0.0
  9
$UCSORGBACK
 10
0.0
 20
0.0
 30
0.0
  9
$PUCSBASE
  2

  9
$PUCSNAME
  2

  9
$PUCSORG
 10
0.0
 20
0.0
 30
0.0
  9
$PUCSXDIR
 10
1.0
 20
0.0
 30
0.0
  9
$PUCSYDIR
 10
0.0
 20
1.0
 30
0.0
  9
$PUCSORTHOREF
  2

  9
$PUCSORTHOVIEW
 70
     0
  9
$PUCSORGTOP
 10
0.0
 20
0.0
 30
0.0
  9
$PUCSORGBOTTOM
 10
0.0
 20
0.0
 30
0.0
  9
$PUCSORGLEFT
 10
0.0
 20
0.0
 30
0.0
  9
$PUCSORGRIGHT
 10
0.0
 20
0.0
 30
0.0
  9
$PUCSORGFRONT
 10
0.0
 20
0.0
 30
0.0
  9
$PUCSORGBACK
 10
0.0
 20
0.0
 30
0.0
  9
$USERI1
 70
     0
  9
$USERI2
 70
     0
  9
$USERI3
 70
     0
  9
$USERI4
 70
     0
  9
$USERI5
 70
     0
  9
$USERR1
 40
0.0
  9
$USERR2
 40
0.0
  9
$USERR3
 40
0.0
  9
$USERR4
 40
0.0
  9
$USERR5
 40
0.0
  9
$WORLDVIEW
 70
     1
  9
$SHADEDGE
 70
     3
  9
$SHADEDIF
 70
    70
  9
$TILEMODE
 70
     1
  9
$MAXACTVP
 70
    48
  9
$PINSBASE
 10
0.0
 20
0.0
 30
0.0
  9
$PLIMCHECK
 70
     0
  9
$PEXTMIN
 10
0.0
 20
0.0
 30
0.0
  9
$PEXTMAX
 10
267.662231
 20
156.791077
 30
2.0
  9
$PLIMMIN
 10
0.0
 20
0.0
  9
$PLIMMAX
 10
420.0
 20
297.0
  9
$UNITMODE
 70
     0
  9
$VISRETAIN
 70
     0
  9
$PLINEGEN
 70
     0
  9
$PSLTSCALE
 70
     1
  9
$TREEDEPTH
 70
  3020
  9
$CMLSTYLE
  2
Standard
  9
$CMLJUST
 70
     0
  9
$CMLSCALE
 40
20.0
  9
$PROXYGRAPHICS
 70
     1
  9
$MEASUREMENT
 70
     1
  9
$CELWEIGHT
370
    -1
  9
$ENDCAPS
280
     0
  9
$JOINSTYLE
280
     0
  9
$LWDISPLAY
290
     0
  9
$INSUNITS
 70
     0
  9
$HYPERLINKBASE
  1

  9
$STYLESHEET
  1

  9
$XEDIT
290
     1
  9
$CEPSNTYPE
380
     0
  9
$PSTYLEMODE
290
     0
  9
$FINGERPRINTGUID
  2

  9
$VERSIONGUID
  2

  9
$EXTNAMES
290
     0
  9
$PSVPSCALE
 40
0.0
  0
ENDSEC
  0
SECTION
  2
CLASSES
  0
CLASS
  1
LWPOLYLINE
  2
AcDbPolyline
  3
AutoCAD 2000
 90
        0
280
     0
281
     1
  0
CLASS
  1
IMAGE
  2
AcDbRasterImage
  3
ISM
 90
      127
280
     0
281
     1
  0
CLASS
  1
OLE2FRAME
  2
AcDbOle2Frame
  3
AutoCAD 2000
 90
        0
280
     0
281
     1
  0
CLASS
  1
HATCH
  2
AcDbHatch
  3
AutoCAD 2000
 90
        0
280
     0
281
     1
  0
CLASS
  1
DICTIONARYVAR
  2
AcDbDictionaryVar
  3
AutoCAD 2000
 90
        0
280
     0
281
     0
  0
CLASS
  1
RASTERVARIABLES
  2
AcDbRasterVariables
  3
ISM
 90
        0
280
     0
281
     0
  0
CLASS
  1
IMAGEDEF
  2
AcDbRasterImageDef
  3
ISM
 90
        0
280
     0
281
     0
  0
CLASS
  1
IMAGEDEF_REACTOR
  2
AcDbRasterImageDefReactor
  3
ISM
 90
        1
280
     0
281
     0
  0
CLASS
  1
IDBUFFER
  2
AcDbIdBuffer
  3
AutoCAD 2000
 90
        0
280
     0
281
     0
  0
CLASS
  1
SPATIAL_FILTER
  2
AcDbSpatialFilter
  3
AutoCAD 2000
 90
        0
280
     0
281
     0
  0
CLASS
  1
XRECORD
  2
AcDbXrecord
  3
AutoCAD 2000
 90
        0
280
     0
281
     0
  0
CLASS
  1
SORTENTSTABLE
  2
AcDbSortentsTable
  3
AutoCAD 2000
 90
        0
280
     0
281
     0
  0
CLASS
  1
LAYER_INDEX
  2
AcDbLayerIndex
  3
AutoCAD 2000
 90
        0
280
     0
281
     0
  0
CLASS
  1
SPATIAL_INDEX
  2
AcDbSpatialIndex
  3
AutoCAD 2000
 90
        0
280
     0
281
     0
  0
CLASS
  1
OBJECT_PTR
  2
CAseDLPNTableRecord
  3
"ASE-LPNTableRecord"
 90
        1
280
     0
281
     0
  0
CLASS
  1
LAYOUT
  2
AcDbLayout
  3
AutoCAD 2000
 90
        0
280
     0
281
     0
  0
CLASS
  1
PLOTSETTINGS
  2
AcDbPlotSettings
  3
AutoCAD 2000
 90
        0
280
     0
281
     0
  0
CLASS
  1
ACDBDICTIONARYWDFLT
  2
AcDbDictionaryWithDefault
  3
AutoCAD 2000
 90
        0
280
     0
281
     0
  0
CLASS
  1
ACDBPLACEHOLDER
  2
AcDbPlaceHolder
  3
AutoCAD 2000
 90
        0
280
     0
281
     0
  0
CLASS
  1
VBA_PROJECT
  2
AcDbVbaProject
  3
acadvba
 90
        0
280
     0
281
     0
  0
CLASS
  1
WIPEOUT
  2
AcDbWipeout
  3
WipeOut|AutoCAD Express Tool|expresstools@autodesk.com
 90
      127
280
     0
281
     1
  0
CLASS
  1
WIPEOUTVARIABLES
  2
AcDbWipeoutVariables
  3
WipeOut|AutoCAD Express Tool|expresstools@autodesk.com
 90
        0
280
     0
281
     0
  0
CLASS
  1
RTEXT
  2
RText
  3
RText|AutoCAD Express Tool|expresstools@autodesk.com
 90
        0
280
     0
281
     1
  0
CLASS
  1
ARCALIGNEDTEXT
  2
AcDbArcAlignedText
  3
ATEXT|AutoCAD Express Tool|expresstools@autodesk.com
 90
        0
280
     0
281
     1
  0
ENDSEC
  0
SECTION
  2
TABLES
  0
TABLE
  2
VPORT
  5
7
100
AcDbSymbolTable
 70
     1
  0
VPORT
  5
15
100
AcDbSymbolTableRecord
100
AcDbViewportTableRecord
  2
*ACTIVE
 70
     0
 10
0.0
 20
0.0
 11
1.0
 21
1.0
 12
6.591288
 22
4.579184
 13
0.0
 23
0.0
 14
1.0
 24
1.0
 15
0.0
 25
0.0
 16
0.0
 26
0.0
 36
1.0
 17
0.0
 27
0.0
 37
0.0
 40
9.158369
 41
0.688564
 42
50.0
 43
0.0
 44
0.0
 50
0.0
 51
0.0
 71
     0
 72
   100
 73
     1
 74
     1
 75
     0
 76
     0
 77
     0
 78
     0
281
     0
 65
     0
110
0.0
120
0.0
130
0.0
111
1.0
121
0.0
131
0.0
112
0.0
122
1.0
132
0.0
345
0
346
0
 79
     0
146
0.0
  0
ENDTAB
  0
TABLE
  2
LTYPE
  5
4
100
AcDbSymbolTable
 70
     3
  0
LTYPE
  5
11
100
AcDbSymbolTableRecord
100
AcDbLinetypeTableRecord
  2
ByBlock
 70
    64
  3

 72
    65
 73
     0
 40
0.0
  0
LTYPE
  5
12
100
AcDbSymbolTableRecord
100
AcDbLinetypeTableRecord
  2
ByLayer
 70
    64
  3

 72
    65
 73
     0
 40
0.0
  0
LTYPE
  5
13
100
AcDbSymbolTableRecord
100
AcDbLinetypeTableRecord
  2
Continuous
 70
    64
  3
Solid line
 72
    65
 73
     0
 40
0.0
  0
ENDTAB
  0
TABLE
  2
LAYER
  5
2
100
AcDbSymbolTable
 70
     1
  0
LAYER
  5
14
100
AcDbSymbolTableRecord
100
AcDbLayerTableRecord
  2
0
 70
     0
 62
     7
  6
Continuous
290
     1
370
    -3
390
1D
  0
ENDTAB
  0
TABLE
  2
STYLE
  5
3
100
AcDbSymbolTable
 70
     1
  0
STYLE
  5
17
100
AcDbSymbolTableRecord
100
AcDbTextStyleTableRecord
  2
Standard
 70
     0
 40
0.0
 41
1.0
 50
0.0
 71
     0
 42
0.0
  3
txt
  4

  0
ENDTAB
  0
TABLE
  2
VIEW
  5
5
100
AcDbSymbolTable
 70
     0
  0
ENDTAB
  0
TABLE
  2
UCS
  5
6
100
AcDbSymbolTable
 70
     0
  0
ENDTAB
  0
TABLE
  2
APPID
  5
8
100
AcDbSymbolTable
 70
     1
  0
APPID
  5
16
100
AcDbSymbolTableRecord
100
AcDbRegAppTableRecord
  2
ACAD
 70
     0
  0
ENDTAB
  0
TABLE
  2
DIMSTYLE
  5
9
100
AcDbSymbolTable
 70
     1
100
AcDbDimStyleTable
 71
     0
  0
DIMSTYLE
105
18
100
AcDbSymbolTableRecord
100
AcDbDimStyleTableRecord
  2
Standard
 70
     0
  3

  4

 40
1.0
 41
0.18
 42
0.0625
 43
0.38
 44
0.18
 45
0.0
 46
0.0
 47
0.0
 48
0.0
 71
     0
 72
     0
 73
     1
 74
     1
 75
     0
 76
     0
 77
     0
 78
     0
 79
     0
140
0.18
141
0.09
142
0.0
143
25.4
144
1.0
145
0.0
146
1.0
147
0.09
148
0.0
170
     0
171
     2
172
     0
173
     0
174
     0
175
     0
176
     0
177
     0
178
     0
179
     0
271
     4
272
     4
273
     2
274
     2
275
     0
276
     0
277
     2
278
    46
279
     0
280
     0
281
     0
282
     0
283
     1
284
     0
285
     0
286
     0
288
     0
289
     3
340
17
341
0
342
0
343
0
344
0
371
    -2
372
    -2
  0
ENDTAB
  0
TABLE
  2
BLOCK_RECORD
  5
1
100
AcDbSymbolTable
 70
     0
  0
BLOCK_RECORD
  5
A
100
AcDbSymbolTableRecord
100
AcDbBlockTableRecord
  2
*MODEL_SPACE
340
20
  0
BLOCK_RECORD
  5
B
100
AcDbSymbolTableRecord
100
AcDbBlockTableRecord
  2
*PAPER_SPACE
340
21
  0
ENDTAB
  0
ENDSEC
  0
SECTION
  2
BLOCKS
  0
BLOCK
  5
D
100
AcDbEntity
  8
0
390
0
100
AcDbBlockBegin
  2
*MODEL_SPACE
 70
     0
 10
0.0
 20
0.0
 30
0.0
  3
*MODEL_SPACE
  1

  0
ENDBLK
  5
E
100
AcDbEntity
  8
0
390
0
100
AcDbBlockEnd
  0
BLOCK
  5
F
100
AcDbEntity
 67
     1
  8
0
390
0
100
AcDbBlockBegin
  2
*PAPER_SPACE
 70
     0
 10
0.0
 20
0.0
 30
0.0
  3
*PAPER_SPACE
  1

  0
ENDBLK
  5
10
100
AcDbEntity
 67
     1
  8
0
390
0
100
AcDbBlockEnd
  0
ENDSEC
  0
SECTION
  2
ENTITIES
  0
VIEWPORT
  5
3DE
100
AcDbEntity
 67
     1
  8
0
370
     0
390
0
 62
     0
 48
0.0
100
AcDbViewport
 10
0.0
 20
0.0
 30
0.0
 40
1000.0
 41
1000.0
 68
     1
 69
     1
 12
0.0
 22
0.0
 13
0.0
 23
0.0
 14
1.0
 24
1.0
 15
1.0
 25
1.0
 16
0.0
 26
0.0
 36
1.0
 17
0.0
 27
0.0
 37
0.0
 42
50.0
 43
0.0
 44
0.0
 45
1000.0
 50
0.0
 51
0.0
 72
   100
 90
        0
340
0
  1

281
     0
 71
     0
 74
     1
110
0.0
120
0.0
130
0.0
111
1.0
121
0.0
131
0.0
112
0.0
122
1.0
132
0.0
345
0
346
0
 79
     0
146
0.0
  0
POLYLINE
  5
24
100
AcDbEntity
  8
0
370
    13
390
0
 62
     7
100
AcDb2dPolyline
 66
     1
 10
0.0
 20
0.0
 30
0.0
 70
     1
 71
    10
  0
VERTEX
  5
25
100
AcDbEntity
  8
0
370
     0
390
0
100
AcDbVertex
100
AcDb2dVertex
 10
214.206879
 20
-17.730713
 30
0.0
  0
VERTEX
  5
26
100
AcDbEntity
  8
0
370
     0
390
0
100
AcDbVertex
100
AcDb2dVertex
 10
214.675903
 20
-17.730713
 30
0.0
  0
VERTEX
  5
27
100
AcDbEntity
  8
0
370
     0
390
0
100
AcDbVertex
100
AcDb2dVertex
 10
214.675903
 20
-16.121923
 30
0.0
  0
VERTEX
  5
28
100
AcDbEntity
  8
0
370
     0
390
0
100
AcDbVertex
100
AcDb2dVertex
 10
216.148529
 20
-16.121923
 30
0.0
  0
VERTEX
  5
29
100
AcDbEntity
  8
0
370
     0
390
0
100
AcDbVertex
100
AcDb2dVertex
 10
216.148529
 20
-15.703335
 30
0.0
  0
VERTEX
  5
2A
100
AcDbEntity
  8
0
370
     0
390
0
100
AcDbVertex
100
AcDb2dVertex
 10
214.675903
 20
-15.703335
 30
0.0
  0
VERTEX
  5
2B
100
AcDbEntity
  8
0
370
     0
390
0
100
AcDbVertex
100
AcDb2dVertex
 10
214.675903
 20
-14.654345
 30
0.0
  0
VERTEX
  5
2C
100
AcDbEntity
  8
0
370
     0
390
0
100
AcDbVertex
100
AcDb2dVertex
 10
216.48642
 20
-14.654345
 30
0.0
  0
VERTEX
  5
2D
100
AcDbEntity
  8
0
370
     0
390
0
100
AcDbVertex
100
AcDb2dVertex
 10
216.48642
 20
-14.230713
 30
0.0
  0
VERTEX
  5
2E
100
AcDbEntity
  8
0
370
     0
390
0
100
AcDbVertex
100
AcDb2dVertex
 10
214.206879
 20
-14.230713
 30
0.0
  0
SEQEND
  5
2F
100
AcDbEntity
  8
0
370
     0
390
0
  0
POLYLINE
  5
30
100
AcDbEntity
  8
0
370
    13
390
0
 62
     7
100
AcDb2dPolyline
 66
     1
 10
0.0
 20
0.0
 30
0.0
 70
     1
 71
    22
  0
VERTEX
  5
31
100
AcDbEntity
  8
0
370
     0
390
0
100
AcDbVertex
100
AcDb2dVertex
 10
217.399246
 20
-17.730713
 30
0.0
  0
VERTEX
  5
32
100
AcDbEntity
  8
0
370
     0
390
0
100
AcDbVertex
100
AcDb2dVertex
 10
217.843048
 20
-17.730713
 30
0.0
  0
VERTEX
  5
33
100
AcDbEntity
  8
0
370
     0
390
0
100
AcDbVertex
100
AcDb2dVertex
 10
217.843048
 20
-16.182442
 30
0.0
  0
VERTEX
  5
34
100
AcDbEntity
  8
0
370
     0
390
0
100
AcDbVertex
100
AcDb2dVertex
 10
217.888443
 20
-15.809243
 30
0.0
  0
VERTEX
  5
35
100
AcDbEntity
  8
0
370
     0
390
0
100
AcDbVertex
100
AcDb2dVertex
 10
218.024612
 20
-15.541952
 30
0.0
  0
VERTEX
  5
36
100
AcDbEntity
  8
0
370
     0
390
0
100
AcDbVertex
100
AcDb2dVertex
 10
218.246506
 20
-15.380569
 30
0.0
  0
VERTEX
  5
37
100
AcDbEntity
  8
0
370
     0
390
0
100
AcDbVertex
100
AcDb2dVertex
 10
218.544052
 20
-15.325093
 30
0.0
  0
VERTEX
  5
38
100
AcDbEntity
  8
0
370
     0
390
0
100
AcDbVertex
100
AcDb2dVertex
 10
218.765961
 20
-15.360395
 30
0.0
  0
VERTEX
  5
39
100
AcDbEntity
  8
0
370
     0
390
0
100
AcDbVertex
100
AcDb2dVertex
 10
218.932388
 20
-15.46126
 30
0.0
  0
VERTEX
  5
3A
100
AcDbEntity
  8
0
370
     0
390
0
100
AcDbVertex
100
AcDb2dVertex
 10
219.033249
 20
-15.63273
 30
0.0
  0
VERTEX
  5
3B
100
AcDbEntity
  8
0
370
     0
390
0
100
AcDbVertex
100
AcDb2dVertex
 10
219.068558
 20
-15.864718
 30
0.0
  0
VERTEX
  5
3C
100
AcDbEntity
  8
0
370
     0
390
0
100
AcDbVertex
100
AcDb2dVertex
 10
219.517395
 20
-15.864718
 30
0.0
  0
VERTEX
  5
3D
100
AcDbEntity
  8
0
370
     0
390
0
100
AcDbVertex
100
AcDb2dVertex
 10
219.456879
 20
-15.456217
 30
0.0
  0
VERTEX
  5
3E
100
AcDbEntity
  8
0
370
     0
390
0
100
AcDbVertex
100
AcDb2dVertex
 10
219.290451
 20
-15.16371
 30
0.0
  0
VERTEX
  5
3F
100
AcDbEntity
  8
0
370
     0
390
0
100
AcDbVertex
100
AcDb2dVertex
 10
219.013077
 20
-14.987197
 30
0.0
  0
VERTEX
  5
40
100
AcDbEntity
  8
0
370
     0
390
0
100
AcDbVertex
100
AcDb2dVertex
 10
218.634842
 20
-14.926678
 30
0.0
  0
VERTEX
  5
41
100
AcDbEntity
  8
0
370
     0
390
0
100
AcDbVertex
100
AcDb2dVertex
 10
218.377625
 20
-14.967024
 30
0.0
  0
VERTEX
  5
42
100
AcDbEntity
  8
0
370
     0
390
0
100
AcDbVertex
100
AcDb2dVertex
 10
218.155731
 20
-15.067888
 30
0.0
  0
VERTEX
  5
43
100
AcDbEntity
  8
0
370
     0
390
0
100
AcDbVertex
100
AcDb2dVertex
 10
217.959045
 20
-15.239359
 30
0.0
  0
VERTEX
  5
44
100
AcDbEntity
  8
0
370
     0
390
0
100
AcDbVertex
100
AcDb2dVertex
 10
217.802704
 20
-15.471347
 30
0.0
  0
VERTEX
  5
45
100
AcDbEntity
  8
0
370
     0
390
0
100
AcDbVertex
100
AcDb2dVertex
 10
217.802704
 20
-15.022499
 30
0.0
  0
VERTEX
  5
46
100
AcDbEntity
  8
0
370
     0
390
0
100
AcDbVertex
100
AcDb2dVertex
 10
217.399246
 20
-15.022499
 30
0.0
  0
SEQEND
  5
47
100
AcDbEntity
  8
0
370
     0
390
0
  0
POLYLINE
  5
48
100
AcDbEntity
  8
0
370
    13
390
0
 62
     7
100
AcDb2dPolyline
 66
     1
 10
0.0
 20
0.0
 30
0.0
 70
     1
 71
    16
  0
VERTEX
  5
49
100
AcDbEntity
  8
0
370
     0
390
0
100
AcDbVertex
100
AcDb2dVertex
 10
220.137726
 20
-16.379128
 30
0.0
  0
VERTEX
  5
4A
100
AcDbEntity
  8
0
370
     0
390
0
100
AcDbVertex
100
AcDb2dVertex
 10
220.218414
 20
-16.994402
 30
0.0
  0
VERTEX
  5
4B
100
AcDbEntity
  8
0
370
     0
390
0
100
AcDbVertex
100
AcDb2dVertex
 10
220.450394
 20
-17.448292
 30
0.0
  0
VERTEX
  5
4C
100
AcDbEntity
  8
0
370
     0
390
0
100
AcDbVertex
100
AcDb2dVertex
 10
220.818558
 20
-17.730713
 30
0.0
  0
VERTEX
  5
4D
100
AcDbEntity
  8
0
370
     0
390
0
100
AcDbVertex
100
AcDb2dVertex
 10
221.31279
 20
-17.826534
 30
0.0
  0
VERTEX
  5
4E
100
AcDbEntity
  8
0
370
     0
390
0
100
AcDbVertex
100
AcDb2dVertex
 10
221.801987
 20
-17.730713
 30
0.0
  0
VERTEX
  5
4F
100
AcDbEntity
  8
0
370
     0
390
0
100
AcDbVertex
100
AcDb2dVertex
 10
222.170135
 20
-17.453335
 30
0.0
  0
VERTEX
  5
50
100
AcDbEntity
  8
0
370
     0
390
0
100
AcDbVertex
100
AcDb2dVertex
 10
222.40213
 20
-16.999445
 30
0.0
  0
VERTEX
  5
51
100
AcDbEntity
  8
0
370
     0
390
0
100
AcDbVertex
100
AcDb2dVertex
 10
222.487869
 20
-16.379128
 30
0.0
  0
VERTEX
  5
52
100
AcDbEntity
  8
0
370
     0
390
0
100
AcDbVertex
100
AcDb2dVertex
 10
222.40213
 20
-15.763854
 30
0.0
  0
VERTEX
  5
53
100
AcDbEntity
  8
0
370
     0
390
0
100
AcDbVertex
100
AcDb2dVertex
 10
222.170135
 20
-15.30492
 30
0.0
  0
VERTEX
  5
54
100
AcDbEntity
  8
0
370
     0
390
0
100
AcDbVertex
100
AcDb2dVertex
 10
221.801987
 20
-15.027543
 30
0.0
  0
VERTEX
  5
55
100
AcDbEntity
  8
0
370
     0
390
0
100
AcDbVertex
100
AcDb2dVertex
 10
221.31279
 20
-14.926678
 30
0.0
  0
VERTEX
  5
56
100
AcDbEntity
  8
0
370
     0
390
0
100
AcDbVertex
100
AcDb2dVertex
 10
220.818558
 20
-15.027543
 30
0.0
  0
VERTEX
  5
57
100
AcDbEntity
  8
0
370
     0
390
0
100
AcDbVertex
100
AcDb2dVertex
 10
220.450394
 20
-15.309963
 30
0.0
  0
VERTEX
  5
58
100
AcDbEntity
  8
0
370
     0
390
0
100
AcDbVertex
100
AcDb2dVertex
 10
220.218414
 20
-15.763854
 30
0.0
  0
SEQEND
  5
59
100
AcDbEntity
  8
0
370
     0
390
0
  0
POLYLINE
  5
5A
100
AcDbEntity
  8
0
370
    13
390
0
 62
     7
100
AcDb2dPolyline
 66
     1
 10
0.0
 20
0.0
 30
0.0
 70
     1
 71
    16
  0
VERTEX
  5
5B
100
AcDbEntity
  8
0
370
     0
390
0
100
AcDbVertex
100
AcDb2dVertex
 10
220.591614
 20
-16.374084
 30
0.0
  0
VERTEX
  5
5C
100
AcDbEntity
  8
0
370
     0
390
0
100
AcDbVertex
100
AcDb2dVertex
 10
220.636993
 20
-15.920195
 30
0.0
  0
VERTEX
  5
5D
100
AcDbEntity
  8
0
370
     0
390
0
100
AcDbVertex
100
AcDb2dVertex
 10
220.778214
 20
-15.592384
 30
0.0
  0
VERTEX
  5
5E
100
AcDbEntity
  8
0
370
     0
390
0
100
AcDbVertex
100
AcDb2dVertex
 10
221.005157
 20
-15.390656
 30
0.0
  0
VERTEX
  5
5F
100
AcDbEntity
  8
0
370
     0
390
0
100
AcDbVertex
100
AcDb2dVertex
 10
221.31279
 20
-15.32005
 30
0.0
  0
VERTEX
  5
60
100
AcDbEntity
  8
0
370
     0
390
0
100
AcDbVertex
100
AcDb2dVertex
 10
221.615387
 20
-15.390656
 30
0.0
  0
VERTEX
  5
61
100
AcDbEntity
  8
0
370
     0
390
0
100
AcDbVertex
100
AcDb2dVertex
 10
221.842331
 20
-15.587341
 30
0.0
  0
VERTEX
  5
62
100
AcDbEntity
  8
0
370
     0
390
0
100
AcDbVertex
100
AcDb2dVertex
 10
221.983536
 20
-15.920195
 30
0.0
  0
VERTEX
  5
63
100
AcDbEntity
  8
0
370
     0
390
0
100
AcDbVertex
100
AcDb2dVertex
 10
222.033966
 20
-16.374084
 30
0.0
  0
VERTEX
  5
64
100
AcDbEntity
  8
0
370
     0
390
0
100
AcDbVertex
100
AcDb2dVertex
 10
221.983536
 20
-16.833019
 30
0.0
  0
VERTEX
  5
65
100
AcDbEntity
  8
0
370
     0
390
0
100
AcDbVertex
100
AcDb2dVertex
 10
221.842331
 20
-17.165871
 30
0.0
  0
VERTEX
  5
66
100
AcDbEntity
  8
0
370
     0
390
0
100
AcDbVertex
100
AcDb2dVertex
 10
221.615387
 20
-17.367601
 30
0.0
  0
VERTEX
  5
67
100
AcDbEntity
  8
0
370
     0
390
0
100
AcDbVertex
100
AcDb2dVertex
 10
221.31279
 20
-17.433163
 30
0.0
  0
VERTEX
  5
68
100
AcDbEntity
  8
0
370
     0
390
0
100
AcDbVertex
100
AcDb2dVertex
 10
221.005157
 20
-17.367601
 30
0.0
  0
VERTEX
  5
69
100
AcDbEntity
  8
0
370
     0
390
0
100
AcDbVertex
100
AcDb2dVertex
 10
220.778214
 20
-17.165871
 30
0.0
  0
VERTEX
  5
6A
100
AcDbEntity
  8
0
370
     0
390
0
100
AcDbVertex
100
AcDb2dVertex
 10
220.636993
 20
-16.833019
 30
0.0
  0
SEQEND
  5
6B
100
AcDbEntity
  8
0
370
     0
390
0
  0
POLYLINE
  5
6C
100
AcDbEntity
  8
0
370
    13
390
0
 62
     7
100
AcDb2dPolyline
 66
     1
 10
0.0
 20
0.0
 30
0.0
 70
     1
 71
    24
  0
VERTEX
  5
6D
100
AcDbEntity
  8
0
370
     0
390
0
100
AcDbVertex
100
AcDb2dVertex
 10
223.304871
 20
-17.730713
 30
0.0
  0
VERTEX
  5
6E
100
AcDbEntity
  8
0
370
     0
390
0
100
AcDbVertex
100
AcDb2dVertex
 10
223.748672
 20
-17.730713
 30
0.0
  0
VERTEX
  5
6F
100
AcDbEntity
  8
0
370
     0
390
0
100
AcDbVertex
100
AcDb2dVertex
 10
223.748672
 20
-16.167313
 30
0.0
  0
VERTEX
  5
70
100
AcDbEntity
  8
0
370
     0
390
0
100
AcDbVertex
100
AcDb2dVertex
 10
223.794052
 20
-15.809243
 30
0.0
  0
VERTEX
  5
71
100
AcDbEntity
  8
0
370
     0
390
0
100
AcDbVertex
100
AcDb2dVertex
 10
223.940308
 20
-15.546995
 30
0.0
  0
VERTEX
  5
72
100
AcDbEntity
  8
0
370
     0
390
0
100
AcDbVertex
100
AcDb2dVertex
 10
224.167252
 20
-15.385612
 30
0.0
  0
VERTEX
  5
73
100
AcDbEntity
  8
0
370
     0
390
0
100
AcDbVertex
100
AcDb2dVertex
 10
224.469849
 20
-15.325093
 30
0.0
  0
VERTEX
  5
74
100
AcDbEntity
  8
0
370
     0
390
0
100
AcDbVertex
100
AcDb2dVertex
 10
224.711929
 20
-15.375525
 30
0.0
  0
VERTEX
  5
75
100
AcDbEntity
  8
0
370
     0
390
0
100
AcDbVertex
100
AcDb2dVertex
 10
224.86322
 20
-15.511693
 30
0.0
  0
VERTEX
  5
76
100
AcDbEntity
  8
0
370
     0
390
0
100
AcDbVertex
100
AcDb2dVertex
 10
224.938873
 20
-15.738638
 30
0.0
  0
VERTEX
  5
77
100
AcDbEntity
  8
0
370
     0
390
0
100
AcDbVertex
100
AcDb2dVertex
 10
224.964081
 20
-16.041231
 30
0.0
  0
VERTEX
  5
78
100
AcDbEntity
  8
0
370
     0
390
0
100
AcDbVertex
100
AcDb2dVertex
 10
224.964081
 20
-17.730713
 30
0.0
  0
VERTEX
  5
79
100
AcDbEntity
  8
0
370
     0
390
0
100
AcDbVertex
100
AcDb2dVertex
 10
225.407898
 20
-17.730713
 30
0.0
  0
VERTEX
  5
7A
100
AcDbEntity
  8
0
370
     0
390
0
100
AcDbVertex
100
AcDb2dVertex
 10
225.407898
 20
-15.950454
 30
0.0
  0
VERTEX
  5
7B
100
AcDbEntity
  8
0
370
     0
390
0
100
AcDbVertex
100
AcDb2dVertex
 10
225.387726
 20
-15.592384
 30
0.0
  0
VERTEX
  5
7C
100
AcDbEntity
  8
0
370
     0
390
0
100
AcDbVertex
100
AcDb2dVertex
 10
225.296936
 20
-15.294834
 30
0.0
  0
VERTEX
  5
7D
100
AcDbEntity
  8
0
370
     0
390
0
100
AcDbVertex
100
AcDb2dVertex
 10
224.99939
 20
-15.022499
 30
0.0
  0
VERTEX
  5
7E
100
AcDbEntity
  8
0
370
     0
390
0
100
AcDbVertex
100
AcDb2dVertex
 10
224.535416
 20
-14.926678
 30
0.0
  0
VERTEX
  5
7F
100
AcDbEntity
  8
0
370
     0
390
0
100
AcDbVertex
100
AcDb2dVertex
 10
224.278214
 20
-14.961981
 30
0.0
  0
VERTEX
  5
80
100
AcDbEntity
  8
0
370
     0
390
0
100
AcDbVertex
100
AcDb2dVertex
 10
224.061356
 20
-15.057802
 30
0.0
  0
VERTEX
  5
81
100
AcDbEntity
  8
0
370
     0
390
0
100
AcDbVertex
100
AcDb2dVertex
 10
223.874756
 20
-15.219186
 30
0.0
  0
VERTEX
  5
82
100
AcDbEntity
  8
0
370
     0
390
0
100
AcDbVertex
100
AcDb2dVertex
 10
223.7285
 20
-15.436045
 30
0.0
  0
VERTEX
  5
83
100
AcDbEntity
  8
0
370
     0
390
0
100
AcDbVertex
100
AcDb2dVertex
 10
223.7285
 20
-15.022499
 30
0.0
  0
VERTEX
  5
84
100
AcDbEntity
  8
0
370
     0
390
0
100
AcDbVertex
100
AcDb2dVertex
 10
223.304871
 20
-15.022499
 30
0.0
  0
SEQEND
  5
85
100
AcDbEntity
  8
0
370
     0
390
0
  0
POLYLINE
  5
86
100
AcDbEntity
  8
0
370
    13
390
0
 62
     7
100
AcDb2dPolyline
 66
     1
 10
0.0
 20
0.0
 30
0.0
 70
     1
 71
    22
  0
VERTEX
  5
87
100
AcDbEntity
  8
0
370
     0
390
0
100
AcDbVertex
100
AcDb2dVertex
 10
226.935989
 20
-15.49152
 30
0.0
  0
VERTEX
  5
88
100
AcDbEntity
  8
0
370
     0
390
0
100
AcDbVertex
100
AcDb2dVertex
 10
226.935989
 20
-16.848148
 30
0.0
  0
VERTEX
  5
89
100
AcDbEntity
  8
0
370
     0
390
0
100
AcDbVertex
100
AcDb2dVertex
 10
226.966248
 20
-17.286909
 30
0.0
  0
VERTEX
  5
8A
100
AcDbEntity
  8
0
370
     0
390
0
100
AcDbVertex
100
AcDb2dVertex
 10
227.107452
 20
-17.589502
 30
0.0
  0
VERTEX
  5
8B
100
AcDbEntity
  8
0
370
     0
390
0
100
AcDbVertex
100
AcDb2dVertex
 10
227.389877
 20
-17.766016
 30
0.0
  0
VERTEX
  5
8C
100
AcDbEntity
  8
0
370
     0
390
0
100
AcDbVertex
100
AcDb2dVertex
 10
227.868988
 20
-17.826534
 30
0.0
  0
VERTEX
  5
8D
100
AcDbEntity
  8
0
370
     0
390
0
100
AcDbVertex
100
AcDb2dVertex
 10
228.393478
 20
-17.801317
 30
0.0
  0
VERTEX
  5
8E
100
AcDbEntity
  8
0
370
     0
390
0
100
AcDbVertex
100
AcDb2dVertex
 10
228.393478
 20
-17.418034
 30
0.0
  0
VERTEX
  5
8F
100
AcDbEntity
  8
0
370
     0
390
0
100
AcDbVertex
100
AcDb2dVertex
 10
228.010193
 20
-17.448292
 30
0.0
  0
VERTEX
  5
90
100
AcDbEntity
  8
0
370
     0
390
0
100
AcDbVertex
100
AcDb2dVertex
 10
227.662216
 20
-17.407946
 30
0.0
  0
VERTEX
  5
91
100
AcDbEntity
  8
0
370
     0
390
0
100
AcDbVertex
100
AcDb2dVertex
 10
227.475616
 20
-17.281866
 30
0.0
  0
VERTEX
  5
92
100
AcDbEntity
  8
0
370
     0
390
0
100
AcDbVertex
100
AcDb2dVertex
 10
227.394928
 20
-17.070049
 30
0.0
  0
VERTEX
  5
93
100
AcDbEntity
  8
0
370
     0
390
0
100
AcDbVertex
100
AcDb2dVertex
 10
227.379791
 20
-16.772499
 30
0.0
  0
VERTEX
  5
94
100
AcDbEntity
  8
0
370
     0
390
0
100
AcDbVertex
100
AcDb2dVertex
 10
227.379791
 20
-15.49152
 30
0.0
  0
VERTEX
  5
95
100
AcDbEntity
  8
0
370
     0
390
0
100
AcDbVertex
100
AcDb2dVertex
 10
228.393478
 20
-15.49152
 30
0.0
  0
VERTEX
  5
96
100
AcDbEntity
  8
0
370
     0
390
0
100
AcDbVertex
100
AcDb2dVertex
 10
228.393478
 20
-15.113277
 30
0.0
  0
VERTEX
  5
97
100
AcDbEntity
  8
0
370
     0
390
0
100
AcDbVertex
100
AcDb2dVertex
 10
227.379791
 20
-15.113277
 30
0.0
  0
VERTEX
  5
98
100
AcDbEntity
  8
0
370
     0
390
0
100
AcDbVertex
100
AcDb2dVertex
 10
227.379791
 20
-14.321491
 30
0.0
  0
VERTEX
  5
99
100
AcDbEntity
  8
0
370
     0
390
0
100
AcDbVertex
100
AcDb2dVertex
 10
226.935989
 20
-14.321491
 30
0.0
  0
VERTEX
  5
9A
100
AcDbEntity
  8
0
370
     0
390
0
100
AcDbVertex
100
AcDb2dVertex
 10
226.935989
 20
-15.113277
 30
0.0
  0
VERTEX
  5
9B
100
AcDbEntity
  8
0
370
     0
390
0
100
AcDbVertex
100
AcDb2dVertex
 10
226.169418
 20
-15.113277
 30
0.0
  0
VERTEX
  5
9C
100
AcDbEntity
  8
0
370
     0
390
0
100
AcDbVertex
100
AcDb2dVertex
 10
226.169418
 20
-15.49152
 30
0.0
  0
SEQEND
  5
9D
100
AcDbEntity
  8
0
370
     0
390
0
  0
POLYLINE
  5
9E
100
AcDbEntity
  8
0
370
    13
390
0
 62
     7
100
AcDb2dPolyline
 66
     1
 10
0.0
 20
0.0
 30
0.0
 70
     1
 71
     7
  0
VERTEX
  5
9F
100
AcDbEntity
  8
0
370
     0
390
0
100
AcDbVertex
100
AcDb2dVertex
 10
233.224899
 20
-17.730713
 30
0.0
  0
VERTEX
  5
A0
100
AcDbEntity
  8
0
370
     0
390
0
100
AcDbVertex
100
AcDb2dVertex
 10
233.693909
 20
-17.730713
 30
0.0
  0
VERTEX
  5
A1
100
AcDbEntity
  8
0
370
     0
390
0
100
AcDbVertex
100
AcDb2dVertex
 10
234.682388
 20
-15.022499
 30
0.0
  0
VERTEX
  5
A2
100
AcDbEntity
  8
0
370
     0
390
0
100
AcDbVertex
100
AcDb2dVertex
 10
234.22345
 20
-15.022499
 30
0.0
  0
VERTEX
  5
A3
100
AcDbEntity
  8
0
370
     0
390
0
100
AcDbVertex
100
AcDb2dVertex
 10
233.461929
 20
-17.206217
 30
0.0
  0
VERTEX
  5
A4
100
AcDbEntity
  8
0
370
     0
390
0
100
AcDbVertex
100
AcDb2dVertex
 10
232.685272
 20
-15.022499
 30
0.0
  0
VERTEX
  5
A5
100
AcDbEntity
  8
0
370
     0
390
0
100
AcDbVertex
100
AcDb2dVertex
 10
232.221298
 20
-15.022499
 30
0.0
  0
SEQEND
  5
A6
100
AcDbEntity
  8
0
370
     0
390
0
  0
POLYLINE
  5
A7
100
AcDbEntity
  8
0
370
    13
390
0
 62
     7
100
AcDb2dPolyline
 66
     1
 10
0.0
 20
0.0
 30
0.0
 70
     1
 71
    10
  0
VERTEX
  5
A8
100
AcDbEntity
  8
0
370
     0
390
0
100
AcDbVertex
100
AcDb2dVertex
 10
236.805588
 20
-17.357513
 30
0.0
  0
VERTEX
  5
A9
100
AcDbEntity
  8
0
370
     0
390
0
100
AcDbVertex
100
AcDb2dVertex
 10
236.805588
 20
-15.113277
 30
0.0
  0
VERTEX
  5
AA
100
AcDbEntity
  8
0
370
     0
390
0
100
AcDbVertex
100
AcDb2dVertex
 10
235.665817
 20
-15.113277
 30
0.0
  0
VERTEX
  5
AB
100
AcDbEntity
  8
0
370
     0
390
0
100
AcDbVertex
100
AcDb2dVertex
 10
235.665817
 20
-15.49152
 30
0.0
  0
VERTEX
  5
AC
100
AcDbEntity
  8
0
370
     0
390
0
100
AcDbVertex
100
AcDb2dVertex
 10
236.361786
 20
-15.49152
 30
0.0
  0
VERTEX
  5
AD
100
AcDbEntity
  8
0
370
     0
390
0
100
AcDbVertex
100
AcDb2dVertex
 10
236.361786
 20
-17.357513
 30
0.0
  0
VERTEX
  5
AE
100
AcDbEntity
  8
0
370
     0
390
0
100
AcDbVertex
100
AcDb2dVertex
 10
235.45401
 20
-17.357513
 30
0.0
  0
VERTEX
  5
AF
100
AcDbEntity
  8
0
370
     0
390
0
100
AcDbVertex
100
AcDb2dVertex
 10
235.45401
 20
-17.730713
 30
0.0
  0
VERTEX
  5
B0
100
AcDbEntity
  8
0
370
     0
390
0
100
AcDbVertex
100
AcDb2dVertex
 10
237.72345
 20
-17.730713
 30
0.0
  0
VERTEX
  5
B1
100
AcDbEntity
  8
0
370
     0
390
0
100
AcDbVertex
100
AcDb2dVertex
 10
237.72345
 20
-17.357513
 30
0.0
  0
SEQEND
  5
B2
100
AcDbEntity
  8
0
370
     0
390
0
  0
POLYLINE
  5
B3
100
AcDbEntity
  8
0
370
    13
390
0
 62
     7
100
AcDb2dPolyline
 66
     1
 10
0.0
 20
0.0
 30
0.0
 70
     1
 71
     4
  0
VERTEX
  5
B4
100
AcDbEntity
  8
0
370
     0
390
0
100
AcDbVertex
100
AcDb2dVertex
 10
236.820709
 20
-14.109675
 30
0.0
  0
VERTEX
  5
B5
100
AcDbEntity
  8
0
370
     0
390
0
100
AcDbVertex
100
AcDb2dVertex
 10
236.3517
 20
-14.109675
 30
0.0
  0
VERTEX
  5
B6
100
AcDbEntity
  8
0
370
     0
390
0
100
AcDbVertex
100
AcDb2dVertex
 10
236.3517
 20
-14.613998
 30
0.0
  0
VERTEX
  5
B7
100
AcDbEntity
  8
0
370
     0
390
0
100
AcDbVertex
100
AcDb2dVertex
 10
236.820709
 20
-14.613998
 30
0.0
  0
SEQEND
  5
B8
100
AcDbEntity
  8
0
370
     0
390
0
  0
POLYLINE
  5
B9
100
AcDbEntity
  8
0
370
    13
390
0
 62
     7
100
AcDb2dPolyline
 66
     1
 10
0.0
 20
0.0
 30
0.0
 70
     1
 71
    27
  0
VERTEX
  5
BA
100
AcDbEntity
  8
0
370
     0
390
0
100
AcDbVertex
100
AcDb2dVertex
 10
238.873306
 20
-16.505209
 30
0.0
  0
VERTEX
  5
BB
100
AcDbEntity
  8
0
370
     0
390
0
100
AcDbVertex
100
AcDb2dVertex
 10
240.648529
 20
-16.505209
 30
0.0
  0
VERTEX
  5
BC
100
AcDbEntity
  8
0
370
     0
390
0
100
AcDbVertex
100
AcDb2dVertex
 10
240.653564
 20
-16.298437
 30
0.0
  0
VERTEX
  5
BD
100
AcDbEntity
  8
0
370
     0
390
0
100
AcDbVertex
100
AcDb2dVertex
 10
240.572876
 20
-15.718465
 30
0.0
  0
VERTEX
  5
BE
100
AcDbEntity
  8
0
370
     0
390
0
100
AcDbVertex
100
AcDb2dVertex
 10
240.350983
 20
-15.284747
 30
0.0
  0
VERTEX
  5
BF
100
AcDbEntity
  8
0
370
     0
390
0
100
AcDbVertex
100
AcDb2dVertex
 10
239.997955
 20
-15.022499
 30
0.0
  0
VERTEX
  5
C0
100
AcDbEntity
  8
0
370
     0
390
0
100
AcDbVertex
100
AcDb2dVertex
 10
239.528931
 20
-14.926678
 30
0.0
  0
VERTEX
  5
C1
100
AcDbEntity
  8
0
370
     0
390
0
100
AcDbVertex
100
AcDb2dVertex
 10
239.069992
 20
-15.027543
 30
0.0
  0
VERTEX
  5
C2
100
AcDbEntity
  8
0
370
     0
390
0
100
AcDbVertex
100
AcDb2dVertex
 10
238.716965
 20
-15.309963
 30
0.0
  0
VERTEX
  5
C3
100
AcDbEntity
  8
0
370
     0
390
0
100
AcDbVertex
100
AcDb2dVertex
 10
238.490021
 20
-15.768897
 30
0.0
  0
VERTEX
  5
C4
100
AcDbEntity
  8
0
370
     0
390
0
100
AcDbVertex
100
AcDb2dVertex
 10
238.409332
 20
-16.374084
 30
0.0
  0
VERTEX
  5
C5
100
AcDbEntity
  8
0
370
     0
390
0
100
AcDbVertex
100
AcDb2dVertex
 10
238.484985
 20
-16.994402
 30
0.0
  0
VERTEX
  5
C6
100
AcDbEntity
  8
0
370
     0
390
0
100
AcDbVertex
100
AcDb2dVertex
 10
238.711929
 20
-17.448292
 30
0.0
  0
VERTEX
  5
C7
100
AcDbEntity
  8
0
370
     0
390
0
100
AcDbVertex
100
AcDb2dVertex
 10
239.059906
 20
-17.730713
 30
0.0
  0
VERTEX
  5
C8
100
AcDbEntity
  8
0
370
     0
390
0
100
AcDbVertex
100
AcDb2dVertex
 10
239.513794
 20
-17.826534
 30
0.0
  0
VERTEX
  5
C9
100
AcDbEntity
  8
0
370
     0
390
0
100
AcDbVertex
100
AcDb2dVertex
 10
239.907166
 20
-17.760973
 30
0.0
  0
VERTEX
  5
CA
100
AcDbEntity
  8
0
370
     0
390
0
100
AcDbVertex
100
AcDb2dVertex
 10
240.229935
 20
-17.589502
 30
0.0
  0
VERTEX
  5
CB
100
AcDbEntity
  8
0
370
     0
390
0
100
AcDbVertex
100
AcDb2dVertex
 10
240.466965
 20
-17.317167
 30
0.0
  0
VERTEX
  5
CC
100
AcDbEntity
  8
0
370
     0
390
0
100
AcDbVertex
100
AcDb2dVertex
 10
240.603134
 20
-16.954056
 30
0.0
  0
VERTEX
  5
CD
100
AcDbEntity
  8
0
370
     0
390
0
100
AcDbVertex
100
AcDb2dVertex
 10
240.164368
 20
-16.954056
 30
0.0
  0
VERTEX
  5
CE
100
AcDbEntity
  8
0
370
     0
390
0
100
AcDbVertex
100
AcDb2dVertex
 10
240.073593
 20
-17.155785
 30
0.0
  0
VERTEX
  5
CF
100
AcDbEntity
  8
0
370
     0
390
0
100
AcDbVertex
100
AcDb2dVertex
 10
239.942474
 20
-17.307081
 30
0.0
  0
VERTEX
  5
D0
100
AcDbEntity
  8
0
370
     0
390
0
100
AcDbVertex
100
AcDb2dVertex
 10
239.569275
 20
-17.42812
 30
0.0
  0
VERTEX
  5
D1
100
AcDbEntity
  8
0
370
     0
390
0
100
AcDbVertex
100
AcDb2dVertex
 10
239.281815
 20
-17.372644
 30
0.0
  0
VERTEX
  5
D2
100
AcDbEntity
  8
0
370
     0
390
0
100
AcDbVertex
100
AcDb2dVertex
 10
239.064957
 20
-17.196131
 30
0.0
  0
VERTEX
  5
D3
100
AcDbEntity
  8
0
370
     0
390
0
100
AcDbVertex
100
AcDb2dVertex
 10
238.923737
 20
-16.908667
 30
0.0
  0
VERTEX
  5
D4
100
AcDbEntity
  8
0
370
     0
390
0
100
AcDbVertex
100
AcDb2dVertex
 10
238.873306
 20
-16.520338
 30
0.0
  0
SEQEND
  5
D5
100
AcDbEntity
  8
0
370
     0
390
0
  0
POLYLINE
  5
D6
100
AcDbEntity
  8
0
370
    13
390
0
 62
     7
100
AcDb2dPolyline
 66
     1
 10
0.0
 20
0.0
 30
0.0
 70
     1
 71
     9
  0
VERTEX
  5
D7
100
AcDbEntity
  8
0
370
     0
390
0
100
AcDbVertex
100
AcDb2dVertex
 10
238.873306
 20
-16.13201
 30
0.0
  0
VERTEX
  5
D8
100
AcDbEntity
  8
0
370
     0
390
0
100
AcDbVertex
100
AcDb2dVertex
 10
238.928787
 20
-15.784027
 30
0.0
  0
VERTEX
  5
D9
100
AcDbEntity
  8
0
370
     0
390
0
100
AcDbVertex
100
AcDb2dVertex
 10
239.064957
 20
-15.526822
 30
0.0
  0
VERTEX
  5
DA
100
AcDbEntity
  8
0
370
     0
390
0
100
AcDbVertex
100
AcDb2dVertex
 10
239.271729
 20
-15.370482
 30
0.0
  0
VERTEX
  5
DB
100
AcDbEntity
  8
0
370
     0
390
0
100
AcDbVertex
100
AcDb2dVertex
 10
239.544067
 20
-15.315006
 30
0.0
  0
VERTEX
  5
DC
100
AcDbEntity
  8
0
370
     0
390
0
100
AcDbVertex
100
AcDb2dVertex
 10
239.811356
 20
-15.370482
 30
0.0
  0
VERTEX
  5
DD
100
AcDbEntity
  8
0
370
     0
390
0
100
AcDbVertex
100
AcDb2dVertex
 10
240.018127
 20
-15.526822
 30
0.0
  0
VERTEX
  5
DE
100
AcDbEntity
  8
0
370
     0
390
0
100
AcDbVertex
100
AcDb2dVertex
 10
240.144196
 20
-15.784027
 30
0.0
  0
VERTEX
  5
DF
100
AcDbEntity
  8
0
370
     0
390
0
100
AcDbVertex
100
AcDb2dVertex
 10
240.18959
 20
-16.13201
 30
0.0
  0
SEQEND
  5
E0
100
AcDbEntity
  8
0
370
     0
390
0
  0
POLYLINE
  5
E1
100
AcDbEntity
  8
0
370
    13
390
0
 62
     7
100
AcDb2dPolyline
 66
     1
 10
0.0
 20
0.0
 30
0.0
 70
     1
 71
    13
  0
VERTEX
  5
E2
100
AcDbEntity
  8
0
370
     0
390
0
100
AcDbVertex
100
AcDb2dVertex
 10
242.161499
 20
-17.730713
 30
0.0
  0
VERTEX
  5
E3
100
AcDbEntity
  8
0
370
     0
390
0
100
AcDbVertex
100
AcDb2dVertex
 10
242.564957
 20
-15.431001
 30
0.0
  0
VERTEX
  5
E4
100
AcDbEntity
  8
0
370
     0
390
0
100
AcDbVertex
100
AcDb2dVertex
 10
242.968414
 20
-17.730713
 30
0.0
  0
VERTEX
  5
E5
100
AcDbEntity
  8
0
370
     0
390
0
100
AcDbVertex
100
AcDb2dVertex
 10
243.392044
 20
-17.730713
 30
0.0
  0
VERTEX
  5
E6
100
AcDbEntity
  8
0
370
     0
390
0
100
AcDbVertex
100
AcDb2dVertex
 10
244.057739
 20
-15.022499
 30
0.0
  0
VERTEX
  5
E7
100
AcDbEntity
  8
0
370
     0
390
0
100
AcDbVertex
100
AcDb2dVertex
 10
243.629074
 20
-15.022499
 30
0.0
  0
VERTEX
  5
E8
100
AcDbEntity
  8
0
370
     0
390
0
100
AcDbVertex
100
AcDb2dVertex
 10
243.180222
 20
-17.322212
 30
0.0
  0
VERTEX
  5
E9
100
AcDbEntity
  8
0
370
     0
390
0
100
AcDbVertex
100
AcDb2dVertex
 10
242.781815
 20
-15.022499
 30
0.0
  0
VERTEX
  5
EA
100
AcDbEntity
  8
0
370
     0
390
0
100
AcDbVertex
100
AcDb2dVertex
 10
242.343048
 20
-15.022499
 30
0.0
  0
VERTEX
  5
EB
100
AcDbEntity
  8
0
370
     0
390
0
100
AcDbVertex
100
AcDb2dVertex
 10
241.944641
 20
-17.322212
 30
0.0
  0
VERTEX
  5
EC
100
AcDbEntity
  8
0
370
     0
390
0
100
AcDbVertex
100
AcDb2dVertex
 10
241.495789
 20
-15.022499
 30
0.0
  0
VERTEX
  5
ED
100
AcDbEntity
  8
0
370
     0
390
0
100
AcDbVertex
100
AcDb2dVertex
 10
241.072159
 20
-15.022499
 30
0.0
  0
VERTEX
  5
EE
100
AcDbEntity
  8
0
370
     0
390
0
100
AcDbVertex
100
AcDb2dVertex
 10
241.737854
 20
-17.730713
 30
0.0
  0
SEQEND
  5
EF
100
AcDbEntity
  8
0
370
     0
390
0
  0
POLYLINE
  5
F0
100
AcDbEntity
  8
0
370
    13
390
0
 62
     7
100
AcDb2dPolyline
 66
     1
 10
0.0
 20
0.0
 30
0.0
 70
     1
 71
    51
  0
VERTEX
  5
F1
100
AcDbEntity
  8
0
370
     0
390
0
100
AcDbVertex
100
AcDb2dVertex
 10
214.443909
 20
-22.622643
 30
0.0
  0
VERTEX
  5
F2
100
AcDbEntity
  8
0
370
     0
390
0
100
AcDbVertex
100
AcDb2dVertex
 10
213.984985
 20
-22.622643
 30
0.0
  0
VERTEX
  5
F3
100
AcDbEntity
  8
0
370
     0
390
0
100
AcDbVertex
100
AcDb2dVertex
 10
214.085846
 20
-23.157225
 30
0.0
  0
VERTEX
  5
F4
100
AcDbEntity
  8
0
370
     0
390
0
100
AcDbVertex
100
AcDb2dVertex
 10
214.338013
 20
-23.550596
 30
0.0
  0
VERTEX
  5
F5
100
AcDbEntity
  8
0
370
     0
390
0
100
AcDbVertex
100
AcDb2dVertex
 10
214.726334
 20
-23.787628
 30
0.0
  0
VERTEX
  5
F6
100
AcDbEntity
  8
0
370
     0
390
0
100
AcDbVertex
100
AcDb2dVertex
 10
215.250824
 20
-23.873363
 30
0.0
  0
VERTEX
  5
F7
100
AcDbEntity
  8
0
370
     0
390
0
100
AcDbVertex
100
AcDb2dVertex
 10
215.770279
 20
-23.792671
 30
0.0
  0
VERTEX
  5
F8
100
AcDbEntity
  8
0
370
     0
390
0
100
AcDbVertex
100
AcDb2dVertex
 10
216.158615
 20
-23.57077
 30
0.0
  0
VERTEX
  5
F9
100
AcDbEntity
  8
0
370
     0
390
0
100
AcDbVertex
100
AcDb2dVertex
 10
216.405731
 20
-23.222788
 30
0.0
  0
VERTEX
  5
FA
100
AcDbEntity
  8
0
370
     0
390
0
100
AcDbVertex
100
AcDb2dVertex
 10
216.496506
 20
-22.763853
 30
0.0
  0
VERTEX
  5
FB
100
AcDbEntity
  8
0
370
     0
390
0
100
AcDbVertex
100
AcDb2dVertex
 10
216.420853
 20
-22.350309
 30
0.0
  0
VERTEX
  5
FC
100
AcDbEntity
  8
0
370
     0
390
0
100
AcDbVertex
100
AcDb2dVertex
 10
216.209045
 20
-22.083017
 30
0.0
  0
VERTEX
  5
FD
100
AcDbEntity
  8
0
370
     0
390
0
100
AcDbVertex
100
AcDb2dVertex
 10
215.866104
 20
-21.906506
 30
0.0
  0
VERTEX
  5
FE
100
AcDbEntity
  8
0
370
     0
390
0
100
AcDbVertex
100
AcDb2dVertex
 10
215.407166
 20
-21.775381
 30
0.0
  0
VERTEX
  5
FF
100
AcDbEntity
  8
0
370
     0
390
0
100
AcDbVertex
100
AcDb2dVertex
 10
215.013794
 20
-21.67956
 30
0.0
  0
VERTEX
  5
100
100
AcDbEntity
  8
0
370
     0
390
0
100
AcDbVertex
100
AcDb2dVertex
 10
214.756592
 20
-21.568607
 30
0.0
  0
VERTEX
  5
101
100
AcDbEntity
  8
0
370
     0
390
0
100
AcDbVertex
100
AcDb2dVertex
 10
214.610336
 20
-21.407225
 30
0.0
  0
VERTEX
  5
102
100
AcDbEntity
  8
0
370
     0
390
0
100
AcDbVertex
100
AcDb2dVertex
 10
214.564957
 20
-21.155064
 30
0.0
  0
VERTEX
  5
103
100
AcDbEntity
  8
0
370
     0
390
0
100
AcDbVertex
100
AcDb2dVertex
 10
214.610336
 20
-20.928118
 30
0.0
  0
VERTEX
  5
104
100
AcDbEntity
  8
0
370
     0
390
0
100
AcDbVertex
100
AcDb2dVertex
 10
214.74147
 20
-20.756649
 30
0.0
  0
VERTEX
  5
105
100
AcDbEntity
  8
0
370
     0
390
0
100
AcDbVertex
100
AcDb2dVertex
 10
214.943192
 20
-20.640656
 30
0.0
  0
VERTEX
  5
106
100
AcDbEntity
  8
0
370
     0
390
0
100
AcDbVertex
100
AcDb2dVertex
 10
215.220566
 20
-20.600309
 30
0.0
  0
VERTEX
  5
107
100
AcDbEntity
  8
0
370
     0
390
0
100
AcDbVertex
100
AcDb2dVertex
 10
215.502991
 20
-20.650742
 30
0.0
  0
VERTEX
  5
108
100
AcDbEntity
  8
0
370
     0
390
0
100
AcDbVertex
100
AcDb2dVertex
 10
215.724899
 20
-20.786907
 30
0.0
  0
VERTEX
  5
109
100
AcDbEntity
  8
0
370
     0
390
0
100
AcDbVertex
100
AcDb2dVertex
 10
215.871155
 20
-21.013853
 30
0.0
  0
VERTEX
  5
10A
100
AcDbEntity
  8
0
370
     0
390
0
100
AcDbVertex
100
AcDb2dVertex
 10
215.941757
 20
-21.321491
 30
0.0
  0
VERTEX
  5
10B
100
AcDbEntity
  8
0
370
     0
390
0
100
AcDbVertex
100
AcDb2dVertex
 10
216.400681
 20
-21.321491
 30
0.0
  0
VERTEX
  5
10C
100
AcDbEntity
  8
0
370
     0
390
0
100
AcDbVertex
100
AcDb2dVertex
 10
216.400681
 20
-21.311403
 30
0.0
  0
VERTEX
  5
10D
100
AcDbEntity
  8
0
370
     0
390
0
100
AcDbVertex
100
AcDb2dVertex
 10
216.319992
 20
-20.837341
 30
0.0
  0
VERTEX
  5
10E
100
AcDbEntity
  8
0
370
     0
390
0
100
AcDbVertex
100
AcDb2dVertex
 10
216.082962
 20
-20.484314
 30
0.0
  0
VERTEX
  5
10F
100
AcDbEntity
  8
0
370
     0
390
0
100
AcDbVertex
100
AcDb2dVertex
 10
215.709763
 20
-20.262413
 30
0.0
  0
VERTEX
  5
110
100
AcDbEntity
  8
0
370
     0
390
0
100
AcDbVertex
100
AcDb2dVertex
 10
215.205444
 20
-20.186764
 30
0.0
  0
VERTEX
  5
111
100
AcDbEntity
  8
0
370
     0
390
0
100
AcDbVertex
100
AcDb2dVertex
 10
214.751556
 20
-20.262413
 30
0.0
  0
VERTEX
  5
112
100
AcDbEntity
  8
0
370
     0
390
0
100
AcDbVertex
100
AcDb2dVertex
 10
214.398529
 20
-20.474228
 30
0.0
  0
VERTEX
  5
113
100
AcDbEntity
  8
0
370
     0
390
0
100
AcDbVertex
100
AcDb2dVertex
 10
214.171585
 20
-20.802038
 30
0.0
  0
VERTEX
  5
114
100
AcDbEntity
  8
0
370
     0
390
0
100
AcDbVertex
100
AcDb2dVertex
 10
214.090881
 20
-21.22567
 30
0.0
  0
VERTEX
  5
115
100
AcDbEntity
  8
0
370
     0
390
0
100
AcDbVertex
100
AcDb2dVertex
 10
214.156448
 20
-21.60391
 30
0.0
  0
VERTEX
  5
116
100
AcDbEntity
  8
0
370
     0
390
0
100
AcDbVertex
100
AcDb2dVertex
 10
214.348099
 20
-21.861116
 30
0.0
  0
VERTEX
  5
117
100
AcDbEntity
  8
0
370
     0
390
0
100
AcDbVertex
100
AcDb2dVertex
 10
214.650681
 20
-22.032585
 30
0.0
  0
VERTEX
  5
118
100
AcDbEntity
  8
0
370
     0
390
0
100
AcDbVertex
100
AcDb2dVertex
 10
215.064224
 20
-22.16371
 30
0.0
  0
VERTEX
  5
119
100
AcDbEntity
  8
0
370
     0
390
0
100
AcDbVertex
100
AcDb2dVertex
 10
215.472733
 20
-22.279703
 30
0.0
  0
VERTEX
  5
11A
100
AcDbEntity
  8
0
370
     0
390
0
100
AcDbVertex
100
AcDb2dVertex
 10
215.780365
 20
-22.390654
 30
0.0
  0
VERTEX
  5
11B
100
AcDbEntity
  8
0
370
     0
390
0
100
AcDbVertex
100
AcDb2dVertex
 10
215.966965
 20
-22.552038
 30
0.0
  0
VERTEX
  5
11C
100
AcDbEntity
  8
0
370
     0
390
0
100
AcDbVertex
100
AcDb2dVertex
 10
216.032532
 20
-22.814285
 30
0.0
  0
VERTEX
  5
11D
100
AcDbEntity
  8
0
370
     0
390
0
100
AcDbVertex
100
AcDb2dVertex
 10
215.972015
 20
-23.081577
 30
0.0
  0
VERTEX
  5
11E
100
AcDbEntity
  8
0
370
     0
390
0
100
AcDbVertex
100
AcDb2dVertex
 10
215.815674
 20
-23.283306
 30
0.0
  0
VERTEX
  5
11F
100
AcDbEntity
  8
0
370
     0
390
0
100
AcDbVertex
100
AcDb2dVertex
 10
215.578644
 20
-23.409386
 30
0.0
  0
VERTEX
  5
120
100
AcDbEntity
  8
0
370
     0
390
0
100
AcDbVertex
100
AcDb2dVertex
 10
215.270996
 20
-23.449732
 30
0.0
  0
VERTEX
  5
121
100
AcDbEntity
  8
0
370
     0
390
0
100
AcDbVertex
100
AcDb2dVertex
 10
214.92807
 20
-23.394257
 30
0.0
  0
VERTEX
  5
122
100
AcDbEntity
  8
0
370
     0
390
0
100
AcDbVertex
100
AcDb2dVertex
 10
214.665817
 20
-23.232874
 30
0.0
  0
VERTEX
  5
123
100
AcDbEntity
  8
0
370
     0
390
0
100
AcDbVertex
100
AcDb2dVertex
 10
214.49939
 20
-22.970625
 30
0.0
  0
SEQEND
  5
124
100
AcDbEntity
  8
0
370
     0
390
0
  0
POLYLINE
  5
125
100
AcDbEntity
  8
0
370
    13
390
0
 62
     7
100
AcDb2dPolyline
 66
     1
 10
0.0
 20
0.0
 30
0.0
 70
     1
 71
    34
  0
VERTEX
  5
126
100
AcDbEntity
  8
0
370
     0
390
0
100
AcDbVertex
100
AcDb2dVertex
 10
218.957596
 20
-21.967024
 30
0.0
  0
VERTEX
  5
127
100
AcDbEntity
  8
0
370
     0
390
0
100
AcDbVertex
100
AcDb2dVertex
 10
219.396362
 20
-21.967024
 30
0.0
  0
VERTEX
  5
128
100
AcDbEntity
  8
0
370
     0
390
0
100
AcDbVertex
100
AcDb2dVertex
 10
219.305588
 20
-21.563564
 30
0.0
  0
VERTEX
  5
129
100
AcDbEntity
  8
0
370
     0
390
0
100
AcDbVertex
100
AcDb2dVertex
 10
219.08873
 20
-21.245842
 30
0.0
  0
VERTEX
  5
12A
100
AcDbEntity
  8
0
370
     0
390
0
100
AcDbVertex
100
AcDb2dVertex
 10
218.750824
 20
-21.049156
 30
0.0
  0
VERTEX
  5
12B
100
AcDbEntity
  8
0
370
     0
390
0
100
AcDbVertex
100
AcDb2dVertex
 10
218.312073
 20
-20.973507
 30
0.0
  0
VERTEX
  5
12C
100
AcDbEntity
  8
0
370
     0
390
0
100
AcDbVertex
100
AcDb2dVertex
 10
217.827927
 20
-21.074371
 30
0.0
  0
VERTEX
  5
12D
100
AcDbEntity
  8
0
370
     0
390
0
100
AcDbVertex
100
AcDb2dVertex
 10
217.459763
 20
-21.356792
 30
0.0
  0
VERTEX
  5
12E
100
AcDbEntity
  8
0
370
     0
390
0
100
AcDbVertex
100
AcDb2dVertex
 10
217.227783
 20
-21.815727
 30
0.0
  0
VERTEX
  5
12F
100
AcDbEntity
  8
0
370
     0
390
0
100
AcDbVertex
100
AcDb2dVertex
 10
217.147079
 20
-22.431
 30
0.0
  0
VERTEX
  5
130
100
AcDbEntity
  8
0
370
     0
390
0
100
AcDbVertex
100
AcDb2dVertex
 10
217.222733
 20
-23.041231
 30
0.0
  0
VERTEX
  5
131
100
AcDbEntity
  8
0
370
     0
390
0
100
AcDbVertex
100
AcDb2dVertex
 10
217.449677
 20
-23.495121
 30
0.0
  0
VERTEX
  5
132
100
AcDbEntity
  8
0
370
     0
390
0
100
AcDbVertex
100
AcDb2dVertex
 10
217.807739
 20
-23.777542
 30
0.0
  0
VERTEX
  5
133
100
AcDbEntity
  8
0
370
     0
390
0
100
AcDbVertex
100
AcDb2dVertex
 10
218.296936
 20
-23.873363
 30
0.0
  0
VERTEX
  5
134
100
AcDbEntity
  8
0
370
     0
390
0
100
AcDbVertex
100
AcDb2dVertex
 10
218.730652
 20
-23.797714
 30
0.0
  0
VERTEX
  5
135
100
AcDbEntity
  8
0
370
     0
390
0
100
AcDbVertex
100
AcDb2dVertex
 10
219.068558
 20
-23.585899
 30
0.0
  0
VERTEX
  5
136
100
AcDbEntity
  8
0
370
     0
390
0
100
AcDbVertex
100
AcDb2dVertex
 10
219.300537
 20
-23.253046
 30
0.0
  0
VERTEX
  5
137
100
AcDbEntity
  8
0
370
     0
390
0
100
AcDbVertex
100
AcDb2dVertex
 10
219.401413
 20
-22.809242
 30
0.0
  0
VERTEX
  5
138
100
AcDbEntity
  8
0
370
     0
390
0
100
AcDbVertex
100
AcDb2dVertex
 10
218.977783
 20
-22.809242
 30
0.0
  0
VERTEX
  5
139
100
AcDbEntity
  8
0
370
     0
390
0
100
AcDbVertex
100
AcDb2dVertex
 10
218.90213
 20
-23.091663
 30
0.0
  0
VERTEX
  5
13A
100
AcDbEntity
  8
0
370
     0
390
0
100
AcDbVertex
100
AcDb2dVertex
 10
218.76091
 20
-23.303478
 30
0.0
  0
VERTEX
  5
13B
100
AcDbEntity
  8
0
370
     0
390
0
100
AcDbVertex
100
AcDb2dVertex
 10
218.559189
 20
-23.434603
 30
0.0
  0
VERTEX
  5
13C
100
AcDbEntity
  8
0
370
     0
390
0
100
AcDbVertex
100
AcDb2dVertex
 10
218.312073
 20
-23.474949
 30
0.0
  0
VERTEX
  5
13D
100
AcDbEntity
  8
0
370
     0
390
0
100
AcDbVertex
100
AcDb2dVertex
 10
218.004425
 20
-23.409386
 30
0.0
  0
VERTEX
  5
13E
100
AcDbEntity
  8
0
370
     0
390
0
100
AcDbVertex
100
AcDb2dVertex
 10
217.782532
 20
-23.207657
 30
0.0
  0
VERTEX
  5
13F
100
AcDbEntity
  8
0
370
     0
390
0
100
AcDbVertex
100
AcDb2dVertex
 10
217.646362
 20
-22.879848
 30
0.0
  0
VERTEX
  5
140
100
AcDbEntity
  8
0
370
     0
390
0
100
AcDbVertex
100
AcDb2dVertex
 10
217.600967
 20
-22.415871
 30
0.0
  0
VERTEX
  5
141
100
AcDbEntity
  8
0
370
     0
390
0
100
AcDbVertex
100
AcDb2dVertex
 10
217.646362
 20
-21.961981
 30
0.0
  0
VERTEX
  5
142
100
AcDbEntity
  8
0
370
     0
390
0
100
AcDbVertex
100
AcDb2dVertex
 10
217.787567
 20
-21.634171
 30
0.0
  0
VERTEX
  5
143
100
AcDbEntity
  8
0
370
     0
390
0
100
AcDbVertex
100
AcDb2dVertex
 10
218.014526
 20
-21.432442
 30
0.0
  0
VERTEX
  5
144
100
AcDbEntity
  8
0
370
     0
390
0
100
AcDbVertex
100
AcDb2dVertex
 10
218.312073
 20
-21.361835
 30
0.0
  0
VERTEX
  5
145
100
AcDbEntity
  8
0
370
     0
390
0
100
AcDbVertex
100
AcDb2dVertex
 10
218.57431
 20
-21.407225
 30
0.0
  0
VERTEX
  5
146
100
AcDbEntity
  8
0
370
     0
390
0
100
AcDbVertex
100
AcDb2dVertex
 10
218.770996
 20
-21.52322
 30
0.0
  0
VERTEX
  5
147
100
AcDbEntity
  8
0
370
     0
390
0
100
AcDbVertex
100
AcDb2dVertex
 10
218.90213
 20
-21.714863
 30
0.0
  0
SEQEND
  5
148
100
AcDbEntity
  8
0
370
     0
390
0
  0
POLYLINE
  5
149
100
AcDbEntity
  8
0
370
    13
390
0
 62
     7
100
AcDb2dPolyline
 66
     1
 10
0.0
 20
0.0
 30
0.0
 70
     1
 71
    42
  0
VERTEX
  5
14A
100
AcDbEntity
  8
0
370
     0
390
0
100
AcDbVertex
100
AcDb2dVertex
 10
221.877625
 20
-23.424517
 30
0.0
  0
VERTEX
  5
14B
100
AcDbEntity
  8
0
370
     0
390
0
100
AcDbVertex
100
AcDb2dVertex
 10
221.877625
 20
-23.439646
 30
0.0
  0
VERTEX
  5
14C
100
AcDbEntity
  8
0
370
     0
390
0
100
AcDbVertex
100
AcDb2dVertex
 10
221.902847
 20
-23.611116
 30
0.0
  0
VERTEX
  5
14D
100
AcDbEntity
  8
0
370
     0
390
0
100
AcDbVertex
100
AcDb2dVertex
 10
221.9785
 20
-23.732153
 30
0.0
  0
VERTEX
  5
14E
100
AcDbEntity
  8
0
370
     0
390
0
100
AcDbVertex
100
AcDb2dVertex
 10
222.296219
 20
-23.827974
 30
0.0
  0
VERTEX
  5
14F
100
AcDbEntity
  8
0
370
     0
390
0
100
AcDbVertex
100
AcDb2dVertex
 10
222.543335
 20
-23.787628
 30
0.0
  0
VERTEX
  5
150
100
AcDbEntity
  8
0
370
     0
390
0
100
AcDbVertex
100
AcDb2dVertex
 10
222.543335
 20
-23.444689
 30
0.0
  0
VERTEX
  5
151
100
AcDbEntity
  8
0
370
     0
390
0
100
AcDbVertex
100
AcDb2dVertex
 10
222.437424
 20
-23.459818
 30
0.0
  0
VERTEX
  5
152
100
AcDbEntity
  8
0
370
     0
390
0
100
AcDbVertex
100
AcDb2dVertex
 10
222.296219
 20
-23.394257
 30
0.0
  0
VERTEX
  5
153
100
AcDbEntity
  8
0
370
     0
390
0
100
AcDbVertex
100
AcDb2dVertex
 10
222.270996
 20
-23.192528
 30
0.0
  0
VERTEX
  5
154
100
AcDbEntity
  8
0
370
     0
390
0
100
AcDbVertex
100
AcDb2dVertex
 10
222.270996
 20
-21.79051
 30
0.0
  0
VERTEX
  5
155
100
AcDbEntity
  8
0
370
     0
390
0
100
AcDbVertex
100
AcDb2dVertex
 10
222.21048
 20
-21.432442
 30
0.0
  0
VERTEX
  5
156
100
AcDbEntity
  8
0
370
     0
390
0
100
AcDbVertex
100
AcDb2dVertex
 10
222.033966
 20
-21.180281
 30
0.0
  0
VERTEX
  5
157
100
AcDbEntity
  8
0
370
     0
390
0
100
AcDbVertex
100
AcDb2dVertex
 10
221.726334
 20
-21.028984
 30
0.0
  0
VERTEX
  5
158
100
AcDbEntity
  8
0
370
     0
390
0
100
AcDbVertex
100
AcDb2dVertex
 10
221.292618
 20
-20.973507
 30
0.0
  0
VERTEX
  5
159
100
AcDbEntity
  8
0
370
     0
390
0
100
AcDbVertex
100
AcDb2dVertex
 10
220.868988
 20
-21.034027
 30
0.0
  0
VERTEX
  5
15A
100
AcDbEntity
  8
0
370
     0
390
0
100
AcDbVertex
100
AcDb2dVertex
 10
220.556305
 20
-21.205496
 30
0.0
  0
VERTEX
  5
15B
100
AcDbEntity
  8
0
370
     0
390
0
100
AcDbVertex
100
AcDb2dVertex
 10
220.359619
 20
-21.472788
 30
0.0
  0
VERTEX
  5
15C
100
AcDbEntity
  8
0
370
     0
390
0
100
AcDbVertex
100
AcDb2dVertex
 10
220.294052
 20
-21.825813
 30
0.0
  0
VERTEX
  5
15D
100
AcDbEntity
  8
0
370
     0
390
0
100
AcDbVertex
100
AcDb2dVertex
 10
220.294052
 20
-21.856071
 30
0.0
  0
VERTEX
  5
15E
100
AcDbEntity
  8
0
370
     0
390
0
100
AcDbVertex
100
AcDb2dVertex
 10
220.692474
 20
-21.856071
 30
0.0
  0
VERTEX
  5
15F
100
AcDbEntity
  8
0
370
     0
390
0
100
AcDbVertex
100
AcDb2dVertex
 10
220.727783
 20
-21.644257
 30
0.0
  0
VERTEX
  5
160
100
AcDbEntity
  8
0
370
     0
390
0
100
AcDbVertex
100
AcDb2dVertex
 10
220.83873
 20
-21.49296
 30
0.0
  0
VERTEX
  5
161
100
AcDbEntity
  8
0
370
     0
390
0
100
AcDbVertex
100
AcDb2dVertex
 10
221.020279
 20
-21.402182
 30
0.0
  0
VERTEX
  5
162
100
AcDbEntity
  8
0
370
     0
390
0
100
AcDbVertex
100
AcDb2dVertex
 10
221.277481
 20
-21.366879
 30
0.0
  0
VERTEX
  5
163
100
AcDbEntity
  8
0
370
     0
390
0
100
AcDbVertex
100
AcDb2dVertex
 10
221.524612
 20
-21.392096
 30
0.0
  0
VERTEX
  5
164
100
AcDbEntity
  8
0
370
     0
390
0
100
AcDbVertex
100
AcDb2dVertex
 10
221.701126
 20
-21.467743
 30
0.0
  0
VERTEX
  5
165
100
AcDbEntity
  8
0
370
     0
390
0
100
AcDbVertex
100
AcDb2dVertex
 10
221.807022
 20
-21.598867
 30
0.0
  0
VERTEX
  5
166
100
AcDbEntity
  8
0
370
     0
390
0
100
AcDbVertex
100
AcDb2dVertex
 10
221.842331
 20
-21.780424
 30
0.0
  0
VERTEX
  5
167
100
AcDbEntity
  8
0
370
     0
390
0
100
AcDbVertex
100
AcDb2dVertex
 10
221.822159
 20
-21.992239
 30
0.0
  0
VERTEX
  5
168
100
AcDbEntity
  8
0
370
     0
390
0
100
AcDbVertex
100
AcDb2dVertex
 10
221.74147
 20
-22.098146
 30
0.0
  0
VERTEX
  5
169
100
AcDbEntity
  8
0
370
     0
390
0
100
AcDbVertex
100
AcDb2dVertex
 10
221.539734
 20
-22.148579
 30
0.0
  0
VERTEX
  5
16A
100
AcDbEntity
  8
0
370
     0
390
0
100
AcDbVertex
100
AcDb2dVertex
 10
221.161499
 20
-22.188925
 30
0.0
  0
VERTEX
  5
16B
100
AcDbEntity
  8
0
370
     0
390
0
100
AcDbVertex
100
AcDb2dVertex
 10
220.727783
 20
-22.279703
 30
0.0
  0
VERTEX
  5
16C
100
AcDbEntity
  8
0
370
     0
390
0
100
AcDbVertex
100
AcDb2dVertex
 10
220.420135
 20
-22.441086
 30
0.0
  0
VERTEX
  5
16D
100
AcDbEntity
  8
0
370
     0
390
0
100
AcDbVertex
100
AcDb2dVertex
 10
220.238586
 20
-22.693249
 30
0.0
  0
VERTEX
  5
16E
100
AcDbEntity
  8
0
370
     0
390
0
100
AcDbVertex
100
AcDb2dVertex
 10
220.183105
 20
-23.066446
 30
0.0
  0
VERTEX
  5
16F
100
AcDbEntity
  8
0
370
     0
390
0
100
AcDbVertex
100
AcDb2dVertex
 10
220.233536
 20
-23.3993
 30
0.0
  0
VERTEX
  5
170
100
AcDbEntity
  8
0
370
     0
390
0
100
AcDbVertex
100
AcDb2dVertex
 10
220.389877
 20
-23.646418
 30
0.0
  0
VERTEX
  5
171
100
AcDbEntity
  8
0
370
     0
390
0
100
AcDbVertex
100
AcDb2dVertex
 10
220.642044
 20
-23.802759
 30
0.0
  0
VERTEX
  5
172
100
AcDbEntity
  8
0
370
     0
390
0
100
AcDbVertex
100
AcDb2dVertex
 10
220.990021
 20
-23.858234
 30
0.0
  0
VERTEX
  5
173
100
AcDbEntity
  8
0
370
     0
390
0
100
AcDbVertex
100
AcDb2dVertex
 10
221.459045
 20
-23.752325
 30
0.0
  0
SEQEND
  5
174
100
AcDbEntity
  8
0
370
     0
390
0
  0
POLYLINE
  5
175
100
AcDbEntity
  8
0
370
    13
390
0
 62
     7
100
AcDb2dPolyline
 66
     1
 10
0.0
 20
0.0
 30
0.0
 70
     1
 71
    14
  0
VERTEX
  5
176
100
AcDbEntity
  8
0
370
     0
390
0
100
AcDbVertex
100
AcDb2dVertex
 10
221.827194
 20
-22.829414
 30
0.0
  0
VERTEX
  5
177
100
AcDbEntity
  8
0
370
     0
390
0
100
AcDbVertex
100
AcDb2dVertex
 10
221.766678
 20
-23.091663
 30
0.0
  0
VERTEX
  5
178
100
AcDbEntity
  8
0
370
     0
390
0
100
AcDbVertex
100
AcDb2dVertex
 10
221.605301
 20
-23.293392
 30
0.0
  0
VERTEX
  5
179
100
AcDbEntity
  8
0
370
     0
390
0
100
AcDbVertex
100
AcDb2dVertex
 10
221.36322
 20
-23.424517
 30
0.0
  0
VERTEX
  5
17A
100
AcDbEntity
  8
0
370
     0
390
0
100
AcDbVertex
100
AcDb2dVertex
 10
221.065674
 20
-23.469906
 30
0.0
  0
VERTEX
  5
17B
100
AcDbEntity
  8
0
370
     0
390
0
100
AcDbVertex
100
AcDb2dVertex
 10
220.874023
 20
-23.444689
 30
0.0
  0
VERTEX
  5
17C
100
AcDbEntity
  8
0
370
     0
390
0
100
AcDbVertex
100
AcDb2dVertex
 10
220.737869
 20
-23.363997
 30
0.0
  0
VERTEX
  5
17D
100
AcDbEntity
  8
0
370
     0
390
0
100
AcDbVertex
100
AcDb2dVertex
 10
220.65213
 20
-23.222788
 30
0.0
  0
VERTEX
  5
17E
100
AcDbEntity
  8
0
370
     0
390
0
100
AcDbVertex
100
AcDb2dVertex
 10
220.626907
 20
-23.026102
 30
0.0
  0
VERTEX
  5
17F
100
AcDbEntity
  8
0
370
     0
390
0
100
AcDbVertex
100
AcDb2dVertex
 10
220.647079
 20
-22.849588
 30
0.0
  0
VERTEX
  5
180
100
AcDbEntity
  8
0
370
     0
390
0
100
AcDbVertex
100
AcDb2dVertex
 10
220.727783
 20
-22.723507
 30
0.0
  0
VERTEX
  5
181
100
AcDbEntity
  8
0
370
     0
390
0
100
AcDbVertex
100
AcDb2dVertex
 10
221.050537
 20
-22.582296
 30
0.0
  0
VERTEX
  5
182
100
AcDbEntity
  8
0
370
     0
390
0
100
AcDbVertex
100
AcDb2dVertex
 10
221.459045
 20
-22.521778
 30
0.0
  0
VERTEX
  5
183
100
AcDbEntity
  8
0
370
     0
390
0
100
AcDbVertex
100
AcDb2dVertex
 10
221.827194
 20
-22.400742
 30
0.0
  0
SEQEND
  5
184
100
AcDbEntity
  8
0
370
     0
390
0
  0
POLYLINE
  5
185
100
AcDbEntity
  8
0
370
    13
390
0
 62
     7
100
AcDb2dPolyline
 66
     1
 10
0.0
 20
0.0
 30
0.0
 70
     1
 71
    10
  0
VERTEX
  5
186
100
AcDbEntity
  8
0
370
     0
390
0
100
AcDbVertex
100
AcDb2dVertex
 10
224.187424
 20
-20.529703
 30
0.0
  0
VERTEX
  5
187
100
AcDbEntity
  8
0
370
     0
390
0
100
AcDbVertex
100
AcDb2dVertex
 10
224.187424
 20
-23.404343
 30
0.0
  0
VERTEX
  5
188
100
AcDbEntity
  8
0
370
     0
390
0
100
AcDbVertex
100
AcDb2dVertex
 10
223.274612
 20
-23.404343
 30
0.0
  0
VERTEX
  5
189
100
AcDbEntity
  8
0
370
     0
390
0
100
AcDbVertex
100
AcDb2dVertex
 10
223.274612
 20
-23.777542
 30
0.0
  0
VERTEX
  5
18A
100
AcDbEntity
  8
0
370
     0
390
0
100
AcDbVertex
100
AcDb2dVertex
 10
225.539017
 20
-23.777542
 30
0.0
  0
VERTEX
  5
18B
100
AcDbEntity
  8
0
370
     0
390
0
100
AcDbVertex
100
AcDb2dVertex
 10
225.539017
 20
-23.404343
 30
0.0
  0
VERTEX
  5
18C
100
AcDbEntity
  8
0
370
     0
390
0
100
AcDbVertex
100
AcDb2dVertex
 10
224.631241
 20
-23.404343
 30
0.0
  0
VERTEX
  5
18D
100
AcDbEntity
  8
0
370
     0
390
0
100
AcDbVertex
100
AcDb2dVertex
 10
224.631241
 20
-20.156506
 30
0.0
  0
VERTEX
  5
18E
100
AcDbEntity
  8
0
370
     0
390
0
100
AcDbVertex
100
AcDb2dVertex
 10
223.49147
 20
-20.156506
 30
0.0
  0
VERTEX
  5
18F
100
AcDbEntity
  8
0
370
     0
390
0
100
AcDbVertex
100
AcDb2dVertex
 10
223.49147
 20
-20.529703
 30
0.0
  0
SEQEND
  5
190
100
AcDbEntity
  8
0
370
     0
390
0
  0
POLYLINE
  5
191
100
AcDbEntity
  8
0
370
    13
390
0
 62
     7
100
AcDb2dPolyline
 66
     1
 10
0.0
 20
0.0
 30
0.0
 70
     1
 71
    27
  0
VERTEX
  5
192
100
AcDbEntity
  8
0
370
     0
390
0
100
AcDbVertex
100
AcDb2dVertex
 10
226.729218
 20
-22.552038
 30
0.0
  0
VERTEX
  5
193
100
AcDbEntity
  8
0
370
     0
390
0
100
AcDbVertex
100
AcDb2dVertex
 10
228.504425
 20
-22.552038
 30
0.0
  0
VERTEX
  5
194
100
AcDbEntity
  8
0
370
     0
390
0
100
AcDbVertex
100
AcDb2dVertex
 10
228.509476
 20
-22.345266
 30
0.0
  0
VERTEX
  5
195
100
AcDbEntity
  8
0
370
     0
390
0
100
AcDbVertex
100
AcDb2dVertex
 10
228.428787
 20
-21.765295
 30
0.0
  0
VERTEX
  5
196
100
AcDbEntity
  8
0
370
     0
390
0
100
AcDbVertex
100
AcDb2dVertex
 10
228.206879
 20
-21.331577
 30
0.0
  0
VERTEX
  5
197
100
AcDbEntity
  8
0
370
     0
390
0
100
AcDbVertex
100
AcDb2dVertex
 10
227.853851
 20
-21.069328
 30
0.0
  0
VERTEX
  5
198
100
AcDbEntity
  8
0
370
     0
390
0
100
AcDbVertex
100
AcDb2dVertex
 10
227.384842
 20
-20.973507
 30
0.0
  0
VERTEX
  5
199
100
AcDbEntity
  8
0
370
     0
390
0
100
AcDbVertex
100
AcDb2dVertex
 10
226.925903
 20
-21.074371
 30
0.0
  0
VERTEX
  5
19A
100
AcDbEntity
  8
0
370
     0
390
0
100
AcDbVertex
100
AcDb2dVertex
 10
226.572876
 20
-21.356792
 30
0.0
  0
VERTEX
  5
19B
100
AcDbEntity
  8
0
370
     0
390
0
100
AcDbVertex
100
AcDb2dVertex
 10
226.345932
 20
-21.815727
 30
0.0
  0
VERTEX
  5
19C
100
AcDbEntity
  8
0
370
     0
390
0
100
AcDbVertex
100
AcDb2dVertex
 10
226.265244
 20
-22.420914
 30
0.0
  0
VERTEX
  5
19D
100
AcDbEntity
  8
0
370
     0
390
0
100
AcDbVertex
100
AcDb2dVertex
 10
226.340881
 20
-23.041231
 30
0.0
  0
VERTEX
  5
19E
100
AcDbEntity
  8
0
370
     0
390
0
100
AcDbVertex
100
AcDb2dVertex
 10
226.567841
 20
-23.495121
 30
0.0
  0
VERTEX
  5
19F
100
AcDbEntity
  8
0
370
     0
390
0
100
AcDbVertex
100
AcDb2dVertex
 10
226.915817
 20
-23.777542
 30
0.0
  0
VERTEX
  5
1A0
100
AcDbEntity
  8
0
370
     0
390
0
100
AcDbVertex
100
AcDb2dVertex
 10
227.369705
 20
-23.873363
 30
0.0
  0
VERTEX
  5
1A1
100
AcDbEntity
  8
0
370
     0
390
0
100
AcDbVertex
100
AcDb2dVertex
 10
227.763077
 20
-23.807802
 30
0.0
  0
VERTEX
  5
1A2
100
AcDbEntity
  8
0
370
     0
390
0
100
AcDbVertex
100
AcDb2dVertex
 10
228.085846
 20
-23.636332
 30
0.0
  0
VERTEX
  5
1A3
100
AcDbEntity
  8
0
370
     0
390
0
100
AcDbVertex
100
AcDb2dVertex
 10
228.322876
 20
-23.363997
 30
0.0
  0
VERTEX
  5
1A4
100
AcDbEntity
  8
0
370
     0
390
0
100
AcDbVertex
100
AcDb2dVertex
 10
228.459045
 20
-23.000885
 30
0.0
  0
VERTEX
  5
1A5
100
AcDbEntity
  8
0
370
     0
390
0
100
AcDbVertex
100
AcDb2dVertex
 10
228.020279
 20
-23.000885
 30
0.0
  0
VERTEX
  5
1A6
100
AcDbEntity
  8
0
370
     0
390
0
100
AcDbVertex
100
AcDb2dVertex
 10
227.929504
 20
-23.202614
 30
0.0
  0
VERTEX
  5
1A7
100
AcDbEntity
  8
0
370
     0
390
0
100
AcDbVertex
100
AcDb2dVertex
 10
227.798386
 20
-23.35391
 30
0.0
  0
VERTEX
  5
1A8
100
AcDbEntity
  8
0
370
     0
390
0
100
AcDbVertex
100
AcDb2dVertex
 10
227.425186
 20
-23.474949
 30
0.0
  0
VERTEX
  5
1A9
100
AcDbEntity
  8
0
370
     0
390
0
100
AcDbVertex
100
AcDb2dVertex
 10
227.137726
 20
-23.419474
 30
0.0
  0
VERTEX
  5
1AA
100
AcDbEntity
  8
0
370
     0
390
0
100
AcDbVertex
100
AcDb2dVertex
 10
226.920853
 20
-23.24296
 30
0.0
  0
VERTEX
  5
1AB
100
AcDbEntity
  8
0
370
     0
390
0
100
AcDbVertex
100
AcDb2dVertex
 10
226.779648
 20
-22.955496
 30
0.0
  0
VERTEX
  5
1AC
100
AcDbEntity
  8
0
370
     0
390
0
100
AcDbVertex
100
AcDb2dVertex
 10
226.729218
 20
-22.567167
 30
0.0
  0
SEQEND
  5
1AD
100
AcDbEntity
  8
0
370
     0
390
0
  0
POLYLINE
  5
1AE
100
AcDbEntity
  8
0
370
    13
390
0
 62
     7
100
AcDb2dPolyline
 66
     1
 10
0.0
 20
0.0
 30
0.0
 70
     1
 71
     9
  0
VERTEX
  5
1AF
100
AcDbEntity
  8
0
370
     0
390
0
100
AcDbVertex
100
AcDb2dVertex
 10
226.729218
 20
-22.178839
 30
0.0
  0
VERTEX
  5
1B0
100
AcDbEntity
  8
0
370
     0
390
0
100
AcDbVertex
100
AcDb2dVertex
 10
226.784698
 20
-21.830856
 30
0.0
  0
VERTEX
  5
1B1
100
AcDbEntity
  8
0
370
     0
390
0
100
AcDbVertex
100
AcDb2dVertex
 10
226.920853
 20
-21.573652
 30
0.0
  0
VERTEX
  5
1B2
100
AcDbEntity
  8
0
370
     0
390
0
100
AcDbVertex
100
AcDb2dVertex
 10
227.127625
 20
-21.417313
 30
0.0
  0
VERTEX
  5
1B3
100
AcDbEntity
  8
0
370
     0
390
0
100
AcDbVertex
100
AcDb2dVertex
 10
227.399963
 20
-21.361835
 30
0.0
  0
VERTEX
  5
1B4
100
AcDbEntity
  8
0
370
     0
390
0
100
AcDbVertex
100
AcDb2dVertex
 10
227.667252
 20
-21.417313
 30
0.0
  0
VERTEX
  5
1B5
100
AcDbEntity
  8
0
370
     0
390
0
100
AcDbVertex
100
AcDb2dVertex
 10
227.874023
 20
-21.573652
 30
0.0
  0
VERTEX
  5
1B6
100
AcDbEntity
  8
0
370
     0
390
0
100
AcDbVertex
100
AcDb2dVertex
 10
228.000107
 20
-21.830856
 30
0.0
  0
VERTEX
  5
1B7
100
AcDbEntity
  8
0
370
     0
390
0
100
AcDbVertex
100
AcDb2dVertex
 10
228.045502
 20
-22.178839
 30
0.0
  0
SEQEND
  5
1B8
100
AcDbEntity
  8
0
370
     0
390
0
  0
POLYLINE
  5
1B9
100
AcDbEntity
  8
0
370
    13
390
0
 62
     7
100
AcDb2dPolyline
 66
     1
 10
0.0
 20
0.0
 30
0.0
 70
     1
 71
     4
  0
VERTEX
  5
1BA
100
AcDbEntity
  8
0
370
     0
390
0
100
AcDbVertex
100
AcDb2dVertex
 10
230.072876
 20
-23.777542
 30
0.0
  0
VERTEX
  5
1BB
100
AcDbEntity
  8
0
370
     0
390
0
100
AcDbVertex
100
AcDb2dVertex
 10
230.768845
 20
-23.777542
 30
0.0
  0
VERTEX
  5
1BC
100
AcDbEntity
  8
0
370
     0
390
0
100
AcDbVertex
100
AcDb2dVertex
 10
230.768845
 20
-23.026102
 30
0.0
  0
VERTEX
  5
1BD
100
AcDbEntity
  8
0
370
     0
390
0
100
AcDbVertex
100
AcDb2dVertex
 10
230.072876
 20
-23.026102
 30
0.0
  0
SEQEND
  5
1BE
100
AcDbEntity
  8
0
370
     0
390
0
  0
POLYLINE
  5
1BF
100
AcDbEntity
  8
0
370
    13
390
0
 62
     7
100
AcDb2dPolyline
 66
     1
 10
0.0
 20
0.0
 30
0.0
 70
     1
 71
     4
  0
VERTEX
  5
1C0
100
AcDbEntity
  8
0
370
     0
390
0
100
AcDbVertex
100
AcDb2dVertex
 10
230.072876
 20
-21.82077
 30
0.0
  0
VERTEX
  5
1C1
100
AcDbEntity
  8
0
370
     0
390
0
100
AcDbVertex
100
AcDb2dVertex
 10
230.768845
 20
-21.82077
 30
0.0
  0
VERTEX
  5
1C2
100
AcDbEntity
  8
0
370
     0
390
0
100
AcDbVertex
100
AcDb2dVertex
 10
230.768845
 20
-21.069328
 30
0.0
  0
VERTEX
  5
1C3
100
AcDbEntity
  8
0
370
     0
390
0
100
AcDbVertex
100
AcDb2dVertex
 10
230.072876
 20
-21.069328
 30
0.0
  0
SEQEND
  5
1C4
100
AcDbEntity
  8
0
370
     0
390
0
  0
POLYLINE
  5
1C5
100
AcDbEntity
  8
0
370
    13
390
0
 62
     7
100
AcDb2dPolyline
 66
     1
 10
0.0
 20
0.0
 30
0.0
 70
     1
 71
    10
  0
VERTEX
  5
1C6
100
AcDbEntity
  8
0
370
     0
390
0
100
AcDbVertex
100
AcDb2dVertex
 10
239.438156
 20
-23.777542
 30
0.0
  0
VERTEX
  5
1C7
100
AcDbEntity
  8
0
370
     0
390
0
100
AcDbVertex
100
AcDb2dVertex
 10
239.897079
 20
-23.777542
 30
0.0
  0
VERTEX
  5
1C8
100
AcDbEntity
  8
0
370
     0
390
0
100
AcDbVertex
100
AcDb2dVertex
 10
239.897079
 20
-20.252327
 30
0.0
  0
VERTEX
  5
1C9
100
AcDbEntity
  8
0
370
     0
390
0
100
AcDbVertex
100
AcDb2dVertex
 10
239.554138
 20
-20.252327
 30
0.0
  0
VERTEX
  5
1CA
100
AcDbEntity
  8
0
370
     0
390
0
100
AcDbVertex
100
AcDb2dVertex
 10
239.463364
 20
-20.559963
 30
0.0
  0
VERTEX
  5
1CB
100
AcDbEntity
  8
0
370
     0
390
0
100
AcDbVertex
100
AcDb2dVertex
 10
239.281815
 20
-20.766735
 30
0.0
  0
VERTEX
  5
1CC
100
AcDbEntity
  8
0
370
     0
390
0
100
AcDbVertex
100
AcDb2dVertex
 10
239.004425
 20
-20.887772
 30
0.0
  0
VERTEX
  5
1CD
100
AcDbEntity
  8
0
370
     0
390
0
100
AcDbVertex
100
AcDb2dVertex
 10
238.621155
 20
-20.928118
 30
0.0
  0
VERTEX
  5
1CE
100
AcDbEntity
  8
0
370
     0
390
0
100
AcDbVertex
100
AcDb2dVertex
 10
238.621155
 20
-21.286188
 30
0.0
  0
VERTEX
  5
1CF
100
AcDbEntity
  8
0
370
     0
390
0
100
AcDbVertex
100
AcDb2dVertex
 10
239.438156
 20
-21.286188
 30
0.0
  0
SEQEND
  5
1D0
100
AcDbEntity
  8
0
370
     0
390
0
  0
POLYLINE
  5
1D1
100
AcDbEntity
  8
0
370
    13
390
0
 62
     7
100
AcDb2dPolyline
 66
     1
 10
0.0
 20
0.0
 30
0.0
 70
     1
 71
     4
  0
VERTEX
  5
1D2
100
AcDbEntity
  8
0
370
     0
390
0
100
AcDbVertex
100
AcDb2dVertex
 10
242.216965
 20
-23.777542
 30
0.0
  0
VERTEX
  5
1D3
100
AcDbEntity
  8
0
370
     0
390
0
100
AcDbVertex
100
AcDb2dVertex
 10
242.912933
 20
-23.777542
 30
0.0
  0
VERTEX
  5
1D4
100
AcDbEntity
  8
0
370
     0
390
0
100
AcDbVertex
100
AcDb2dVertex
 10
242.912933
 20
-23.026102
 30
0.0
  0
VERTEX
  5
1D5
100
AcDbEntity
  8
0
370
     0
390
0
100
AcDbVertex
100
AcDb2dVertex
 10
242.216965
 20
-23.026102
 30
0.0
  0
SEQEND
  5
1D6
100
AcDbEntity
  8
0
370
     0
390
0
  0
POLYLINE
  5
1D7
100
AcDbEntity
  8
0
370
    13
390
0
 62
     7
100
AcDb2dPolyline
 66
     1
 10
0.0
 20
0.0
 30
0.0
 70
     1
 71
     4
  0
VERTEX
  5
1D8
100
AcDbEntity
  8
0
370
     0
390
0
100
AcDbVertex
100
AcDb2dVertex
 10
242.216965
 20
-21.82077
 30
0.0
  0
VERTEX
  5
1D9
100
AcDbEntity
  8
0
370
     0
390
0
100
AcDbVertex
100
AcDb2dVertex
 10
242.912933
 20
-21.82077
 30
0.0
  0
VERTEX
  5
1DA
100
AcDbEntity
  8
0
370
     0
390
0
100
AcDbVertex
100
AcDb2dVertex
 10
242.912933
 20
-21.069328
 30
0.0
  0
VERTEX
  5
1DB
100
AcDbEntity
  8
0
370
     0
390
0
100
AcDbVertex
100
AcDb2dVertex
 10
242.216965
 20
-21.069328
 30
0.0
  0
SEQEND
  5
1DC
100
AcDbEntity
  8
0
370
     0
390
0
  0
POLYLINE
  5
1DD
100
AcDbEntity
  8
0
370
    13
390
0
 62
     7
100
AcDb2dPolyline
 66
     1
 10
0.0
 20
0.0
 30
0.0
 70
     1
 71
    10
  0
VERTEX
  5
1DE
100
AcDbEntity
  8
0
370
     0
390
0
100
AcDbVertex
100
AcDb2dVertex
 10
245.510193
 20
-23.777542
 30
0.0
  0
VERTEX
  5
1DF
100
AcDbEntity
  8
0
370
     0
390
0
100
AcDbVertex
100
AcDb2dVertex
 10
245.969131
 20
-23.777542
 30
0.0
  0
VERTEX
  5
1E0
100
AcDbEntity
  8
0
370
     0
390
0
100
AcDbVertex
100
AcDb2dVertex
 10
245.969131
 20
-20.252327
 30
0.0
  0
VERTEX
  5
1E1
100
AcDbEntity
  8
0
370
     0
390
0
100
AcDbVertex
100
AcDb2dVertex
 10
245.62619
 20
-20.252327
 30
0.0
  0
VERTEX
  5
1E2
100
AcDbEntity
  8
0
370
     0
390
0
100
AcDbVertex
100
AcDb2dVertex
 10
245.535416
 20
-20.559963
 30
0.0
  0
VERTEX
  5
1E3
100
AcDbEntity
  8
0
370
     0
390
0
100
AcDbVertex
100
AcDb2dVertex
 10
245.353851
 20
-20.766735
 30
0.0
  0
VERTEX
  5
1E4
100
AcDbEntity
  8
0
370
     0
390
0
100
AcDbVertex
100
AcDb2dVertex
 10
245.076477
 20
-20.887772
 30
0.0
  0
VERTEX
  5
1E5
100
AcDbEntity
  8
0
370
     0
390
0
100
AcDbVertex
100
AcDb2dVertex
 10
244.693192
 20
-20.928118
 30
0.0
  0
VERTEX
  5
1E6
100
AcDbEntity
  8
0
370
     0
390
0
100
AcDbVertex
100
AcDb2dVertex
 10
244.693192
 20
-21.286188
 30
0.0
  0
VERTEX
  5
1E7
100
AcDbEntity
  8
0
370
     0
390
0
100
AcDbVertex
100
AcDb2dVertex
 10
245.510193
 20
-21.286188
 30
0.0
  0
SEQEND
  5
1E8
100
AcDbEntity
  8
0
370
     0
390
0
  0
ARC
  5
1E9
100
AcDbEntity
  8
0
370
    35
390
0
 62
     7
100
AcDbCircle
 10
244.458115
 20
149.377228
 30
0.0
 40
0.782571
210
0.0
220
0.0
230
1.0
100
AcDbArc
 50
172.681375
 51
275.431275
  0
LINE
  5
1EA
100
AcDbEntity
  8
0
370
    13
390
0
 62
     7
 48
0.007859
100
AcDbLine
 10
244.438919
 20
148.297806
 30
0.0
 11
244.532211
 21
148.598022
 31
0.0
210
0.0
220
0.0
230
1.0
  0
ARC
  5
1EB
100
AcDbEntity
  8
0
370
    35
390
0
 62
     7
100
AcDbCircle
 10
244.363815
 20
149.082962
 30
0.0
 40
0.78836
210
0.0
220
0.0
230
1.0
100
AcDbArc
 50
161.445892
 51
275.464682
  0
ARC
  5
1EC
100
AcDbEntity
  8
0
370
    35
390
0
 62
     7
100
AcDbCircle
 10
244.351639
 20
149.080994
 30
0.0
 40
0.776647
210
0.0
220
0.0
230
1.0
100
AcDbArc
 50
152.962155
 51
161.022079
  0
POLYLINE
  5
1ED
100
AcDbEntity
  8
0
370
    35
390
0
 62
     7
100
AcDb2dPolyline
 66
     1
 10
0.0
 20
0.0
 30
0.0
 71
     9
  0
VERTEX
  5
1EE
100
AcDbEntity
  8
0
370
     0
390
0
100
AcDbVertex
100
AcDb2dVertex
 10
267.662231
 20
148.026016
 30
0.0
  0
VERTEX
  5
1EF
100
AcDbEntity
  8
0
370
     0
390
0
100
AcDbVertex
100
AcDb2dVertex
 10
249.412979
 20
146.288513
 30
0.0
  0
VERTEX
  5
1F0
100
AcDbEntity
  8
0
370
     0
390
0
100
AcDbVertex
100
AcDb2dVertex
 10
232.456329
 20
144.65715
 30
0.0
  0
VERTEX
  5
1F1
100
AcDbEntity
  8
0
370
     0
390
0
100
AcDbVertex
100
AcDb2dVertex
 10
223.998764
 20
143.858978
 30
0.0
  0
VERTEX
  5
1F2
100
AcDbEntity
  8
0
370
     0
390
0
100
AcDbVertex
100
AcDb2dVertex
 10
211.286179
 20
142.703506
 30
0.0
  0
VERTEX
  5
1F3
100
AcDbEntity
  8
0
370
     0
390
0
100
AcDbVertex
100
AcDb2dVertex
 10
202.657074
 20
141.966644
 30
0.0
  0
VERTEX
  5
1F4
100
AcDbEntity
  8
0
370
     0
390
0
100
AcDbVertex
100
AcDb2dVertex
 10
194.023026
 20
141.288483
 30
0.0
  0
VERTEX
  5
1F5
100
AcDbEntity
  8
0
370
     0
390
0
100
AcDbVertex
100
AcDb2dVertex
 10
188.53949
 20
140.901169
 30
0.0
  0
VERTEX
  5
1F6
100
AcDbEntity
  8
0
370
     0
390
0
100
AcDbVertex
100
AcDb2dVertex
 10
183.053085
 20
140.560547
 30
0.0
  0
SEQEND
  5
1F7
100
AcDbEntity
  8
0
370
     0
390
0
  0
ARC
  5
1F8
100
AcDbEntity
  8
0
370
    35
390
0
 62
     7
100
AcDbCircle
 10
160.849319
 20
526.920837
 30
0.0
 40
386.997599
210
0.0
220
0.0
230
1.0
100
AcDbArc
 50
272.325001
 51
273.289116
  0
LINE
  5
1F9
100
AcDbEntity
  8
0
370
    35
390
0
 62
     7
 48
0.153738
100
AcDbLine
 10
176.54895
 20
140.242004
 30
0.0
 11
176.54895
 21
146.391541
 31
0.0
210
0.0
220
0.0
230
1.0
  0
LINE
  5
1FA
100
AcDbEntity
  8
0
370
    35
390
0
 62
     7
 48
0.0125
100
AcDbLine
 10
176.54895
 20
146.391541
 30
0.0
 11
176.04895
 21
146.391541
 31
0.0
210
0.0
220
0.0
230
1.0
  0
LINE
  5
1FB
100
AcDbEntity
  8
0
370
    35
390
0
 62
     7
 48
0.0125
100
AcDbLine
 10
176.04895
 20
146.391541
 30
0.0
 11
175.54895
 21
146.391541
 31
0.0
210
0.0
220
0.0
230
1.0
  0
LINE
  5
1FC
100
AcDbEntity
  8
0
370
    35
390
0
 62
     7
 48
0.1547
100
AcDbLine
 10
175.54895
 20
140.203522
 30
0.0
 11
175.54895
 21
146.391541
 31
0.0
210
0.0
220
0.0
230
1.0
  0
POLYLINE
  5
1FD
100
AcDbEntity
  8
0
370
    35
390
0
 62
     7
100
AcDb2dPolyline
 66
     1
 10
0.0
 20
0.0
 30
0.0
 71
    16
  0
VERTEX
  5
1FE
100
AcDbEntity
  8
0
370
     0
390
0
100
AcDbVertex
100
AcDb2dVertex
 10
152.345444
 20
142.326233
 30
0.0
  0
VERTEX
  5
1FF
100
AcDbEntity
  8
0
370
     0
390
0
100
AcDbVertex
100
AcDb2dVertex
 10
152.431152
 20
142.102631
 30
0.0
  0
VERTEX
  5
200
100
AcDbEntity
  8
0
370
     0
390
0
100
AcDbVertex
100
AcDb2dVertex
 10
152.540848
 20
141.984238
 30
0.0
  0
VERTEX
  5
201
100
AcDbEntity
  8
0
370
     0
390
0
100
AcDbVertex
100
AcDb2dVertex
 10
152.865448
 20
141.746506
 30
0.0
  0
VERTEX
  5
202
100
AcDbEntity
  8
0
370
     0
390
0
100
AcDbVertex
100
AcDb2dVertex
 10
153.076218
 20
141.628906
 30
0.0
  0
VERTEX
  5
203
100
AcDbEntity
  8
0
370
     0
390
0
100
AcDbVertex
100
AcDb2dVertex
 10
153.738419
 20
141.346222
 30
0.0
  0
VERTEX
  5
204
100
AcDbEntity
  8
0
370
     0
390
0
100
AcDbVertex
100
AcDb2dVertex
 10
154.780533
 20
141.031281
 30
0.0
  0
VERTEX
  5
205
100
AcDbEntity
  8
0
370
     0
390
0
100
AcDbVertex
100
AcDb2dVertex
 10
155.57373
 20
140.851395
 30
0.0
  0
VERTEX
  5
206
100
AcDbEntity
  8
0
370
     0
390
0
100
AcDbVertex
100
AcDb2dVertex
 10
156.369476
 20
140.705963
 30
0.0
  0
VERTEX
  5
207
100
AcDbEntity
  8
0
370
     0
390
0
100
AcDbVertex
100
AcDb2dVertex
 10
158.157791
 20
140.461578
 30
0.0
  0
VERTEX
  5
208
100
AcDbEntity
  8
0
370
     0
390
0
100
AcDbVertex
100
AcDb2dVertex
 10
159.963287
 20
140.289505
 30
0.0
  0
VERTEX
  5
209
100
AcDbEntity
  8
0
370
     0
390
0
100
AcDbVertex
100
AcDb2dVertex
 10
163.003448
 20
140.119324
 30
0.0
  0
VERTEX
  5
20A
100
AcDbEntity
  8
0
370
     0
390
0
100
AcDbVertex
100
AcDb2dVertex
 10
164.560913
 20
140.074173
 30
0.0
  0
VERTEX
  5
20B
100
AcDbEntity
  8
0
370
     0
390
0
100
AcDbVertex
100
AcDb2dVertex
 10
167.681702
 20
140.041412
 30
0.0
  0
VERTEX
  5
20C
100
AcDbEntity
  8
0
370
     0
390
0
100
AcDbVertex
100
AcDb2dVertex
 10
170.803192
 20
140.070435
 30
0.0
  0
VERTEX
  5
20D
100
AcDbEntity
  8
0
370
     0
390
0
100
AcDbVertex
100
AcDb2dVertex
 10
175.54895
 20
140.203522
 30
0.0
  0
SEQEND
  5
20E
100
AcDbEntity
  8
0
370
     0
390
0
  0
LINE
  5
20F
100
AcDbEntity
  8
0
370
    35
390
0
 62
     7
 48
0.000909
100
AcDbLine
 10
152.345444
 20
142.326233
 30
0.0
 11
152.344604
 21
142.362564
 31
0.0
210
0.0
220
0.0
230
1.0
  0
POLYLINE
  5
210
100
AcDbEntity
  8
0
370
    35
390
0
 62
     7
100
AcDb2dPolyline
 66
     1
 10
0.0
 20
0.0
 30
0.0
 71
    15
  0
VERTEX
  5
211
100
AcDbEntity
  8
0
370
     0
390
0
100
AcDbVertex
100
AcDb2dVertex
 10
152.344604
 20
142.362564
 30
0.0
  0
VERTEX
  5
212
100
AcDbEntity
  8
0
370
     0
390
0
100
AcDbVertex
100
AcDb2dVertex
 10
152.357361
 20
142.49646
 30
0.0
  0
VERTEX
  5
213
100
AcDbEntity
  8
0
370
     0
390
0
100
AcDbVertex
100
AcDb2dVertex
 10
152.429855
 20
142.755524
 30
0.0
  0
VERTEX
  5
214
100
AcDbEntity
  8
0
370
     0
390
0
100
AcDbVertex
100
AcDb2dVertex
 10
152.666382
 20
143.232513
 30
0.0
  0
VERTEX
  5
215
100
AcDbEntity
  8
0
370
     0
390
0
100
AcDbVertex
100
AcDb2dVertex
 10
152.890762
 20
143.562744
 30
0.0
  0
VERTEX
  5
216
100
AcDbEntity
  8
0
370
     0
390
0
100
AcDbVertex
100
AcDb2dVertex
 10
153.143478
 20
143.87265
 30
0.0
  0
VERTEX
  5
217
100
AcDbEntity
  8
0
370
     0
390
0
100
AcDbVertex
100
AcDb2dVertex
 10
153.506241
 20
144.25032
 30
0.0
  0
VERTEX
  5
218
100
AcDbEntity
  8
0
370
     0
390
0
100
AcDbVertex
100
AcDb2dVertex
 10
153.894211
 20
144.601227
 30
0.0
  0
VERTEX
  5
219
100
AcDbEntity
  8
0
370
     0
390
0
100
AcDbVertex
100
AcDb2dVertex
 10
154.413391
 20
145.020523
 30
0.0
  0
VERTEX
  5
21A
100
AcDbEntity
  8
0
370
     0
390
0
100
AcDbVertex
100
AcDb2dVertex
 10
154.951019
 20
145.415466
 30
0.0
  0
VERTEX
  5
21B
100
AcDbEntity
  8
0
370
     0
390
0
100
AcDbVertex
100
AcDb2dVertex
 10
155.7211
 20
145.92926
 30
0.0
  0
VERTEX
  5
21C
100
AcDbEntity
  8
0
370
     0
390
0
100
AcDbVertex
100
AcDb2dVertex
 10
156.515274
 20
146.404816
 30
0.0
  0
VERTEX
  5
21D
100
AcDbEntity
  8
0
370
     0
390
0
100
AcDbVertex
100
AcDb2dVertex
 10
157.458405
 20
146.912231
 30
0.0
  0
VERTEX
  5
21E
100
AcDbEntity
  8
0
370
     0
390
0
100
AcDbVertex
100
AcDb2dVertex
 10
158.420929
 20
147.382599
 30
0.0
  0
VERTEX
  5
21F
100
AcDbEntity
  8
0
370
     0
390
0
100
AcDbVertex
100
AcDb2dVertex
 10
159.515228
 20
147.874756
 30
0.0
  0
SEQEND
  5
220
100
AcDbEntity
  8
0
370
     0
390
0
  0
POLYLINE
  5
221
100
AcDbEntity
  8
0
370
    35
390
0
 62
     7
100
AcDb2dPolyline
 66
     1
 10
0.0
 20
0.0
 30
0.0
 71
    17
  0
VERTEX
  5
222
100
AcDbEntity
  8
0
370
     0
390
0
100
AcDbVertex
100
AcDb2dVertex
 10
159.515228
 20
147.874756
 30
0.0
  0
VERTEX
  5
223
100
AcDbEntity
  8
0
370
     0
390
0
100
AcDbVertex
100
AcDb2dVertex
 10
160.770599
 20
148.394989
 30
0.0
  0
VERTEX
  5
224
100
AcDbEntity
  8
0
370
     0
390
0
100
AcDbVertex
100
AcDb2dVertex
 10
162.265457
 20
148.960754
 30
0.0
  0
VERTEX
  5
225
100
AcDbEntity
  8
0
370
     0
390
0
100
AcDbVertex
100
AcDb2dVertex
 10
163.777298
 20
149.481491
 30
0.0
  0
VERTEX
  5
226
100
AcDbEntity
  8
0
370
     0
390
0
100
AcDbVertex
100
AcDb2dVertex
 10
165.5112
 20
150.026825
 30
0.0
  0
VERTEX
  5
227
100
AcDbEntity
  8
0
370
     0
390
0
100
AcDbVertex
100
AcDb2dVertex
 10
167.257843
 20
150.53064
 30
0.0
  0
VERTEX
  5
228
100
AcDbEntity
  8
0
370
     0
390
0
100
AcDbVertex
100
AcDb2dVertex
 10
169.285446
 20
151.066971
 30
0.0
  0
VERTEX
  5
229
100
AcDbEntity
  8
0
370
     0
390
0
100
AcDbVertex
100
AcDb2dVertex
 10
171.323425
 20
151.559677
 30
0.0
  0
VERTEX
  5
22A
100
AcDbEntity
  8
0
370
     0
390
0
100
AcDbVertex
100
AcDb2dVertex
 10
173.690582
 20
152.080933
 30
0.0
  0
VERTEX
  5
22B
100
AcDbEntity
  8
0
370
     0
390
0
100
AcDbVertex
100
AcDb2dVertex
 10
176.067352
 20
152.55661
 30
0.0
  0
VERTEX
  5
22C
100
AcDbEntity
  8
0
370
     0
390
0
100
AcDbVertex
100
AcDb2dVertex
 10
178.770203
 20
153.046906
 30
0.0
  0
VERTEX
  5
22D
100
AcDbEntity
  8
0
370
     0
390
0
100
AcDbVertex
100
AcDb2dVertex
 10
181.481125
 20
153.490128
 30
0.0
  0
VERTEX
  5
22E
100
AcDbEntity
  8
0
370
     0
390
0
100
AcDbVertex
100
AcDb2dVertex
 10
184.266006
 20
153.900024
 30
0.0
  0
VERTEX
  5
22F
100
AcDbEntity
  8
0
370
     0
390
0
100
AcDbVertex
100
AcDb2dVertex
 10
187.05658
 20
154.269623
 30
0.0
  0
VERTEX
  5
230
100
AcDbEntity
  8
0
370
     0
390
0
100
AcDbVertex
100
AcDb2dVertex
 10
192.650253
 20
154.904236
 30
0.0
  0
VERTEX
  5
231
100
AcDbEntity
  8
0
370
     0
390
0
100
AcDbVertex
100
AcDb2dVertex
 10
199.126617
 20
155.487991
 30
0.0
  0
VERTEX
  5
232
100
AcDbEntity
  8
0
370
     0
390
0
100
AcDbVertex
100
AcDb2dVertex
 10
205.614471
 20
155.925537
 30
0.0
  0
SEQEND
  5
233
100
AcDbEntity
  8
0
370
     0
390
0
  0
POLYLINE
  5
234
100
AcDbEntity
  8
0
370
    35
390
0
 62
     7
100
AcDb2dPolyline
 66
     1
 10
0.0
 20
0.0
 30
0.0
 71
    12
  0
VERTEX
  5
235
100
AcDbEntity
  8
0
370
     0
390
0
100
AcDbVertex
100
AcDb2dVertex
 10
262.638611
 20
155.526886
 30
0.0
  0
VERTEX
  5
236
100
AcDbEntity
  8
0
370
     0
390
0
100
AcDbVertex
100
AcDb2dVertex
 10
256.96759
 20
155.839783
 30
0.0
  0
VERTEX
  5
237
100
AcDbEntity
  8
0
370
     0
390
0
100
AcDbVertex
100
AcDb2dVertex
 10
251.731033
 20
156.075043
 30
0.0
  0
VERTEX
  5
238
100
AcDbEntity
  8
0
370
     0
390
0
100
AcDbVertex
100
AcDb2dVertex
 10
246.492569
 20
156.261719
 30
0.0
  0
VERTEX
  5
239
100
AcDbEntity
  8
0
370
     0
390
0
100
AcDbVertex
100
AcDb2dVertex
 10
241.25267
 20
156.402679
 30
0.0
  0
VERTEX
  5
23A
100
AcDbEntity
  8
0
370
     0
390
0
100
AcDbVertex
100
AcDb2dVertex
 10
236.011765
 20
156.49881
 30
0.0
  0
VERTEX
  5
23B
100
AcDbEntity
  8
0
370
     0
390
0
100
AcDbVertex
100
AcDb2dVertex
 10
230.770203
 20
156.5466
 30
0.0
  0
VERTEX
  5
23C
100
AcDbEntity
  8
0
370
     0
390
0
100
AcDbVertex
100
AcDb2dVertex
 10
222.381454
 20
156.504517
 30
0.0
  0
VERTEX
  5
23D
100
AcDbEntity
  8
0
370
     0
390
0
100
AcDbVertex
100
AcDb2dVertex
 10
218.185928
 20
156.424179
 30
0.0
  0
VERTEX
  5
23E
100
AcDbEntity
  8
0
370
     0
390
0
100
AcDbVertex
100
AcDb2dVertex
 10
213.991379
 20
156.302643
 30
0.0
  0
VERTEX
  5
23F
100
AcDbEntity
  8
0
370
     0
390
0
100
AcDbVertex
100
AcDb2dVertex
 10
209.801819
 20
156.137848
 30
0.0
  0
VERTEX
  5
240
100
AcDbEntity
  8
0
370
     0
390
0
100
AcDbVertex
100
AcDb2dVertex
 10
205.614471
 20
155.925537
 30
0.0
  0
SEQEND
  5
241
100
AcDbEntity
  8
0
370
     0
390
0
  0
LINE
  5
242
100
AcDbEntity
  8
0
370
    35
390
0
 62
     7
 48
0.099189
100
AcDbLine
 10
262.638611
 20
155.526886
 30
0.0
 11
262.638611
 21
151.559341
 31
0.0
210
0.0
220
0.0
230
1.0
  0
LINE
  5
243
100
AcDbEntity
  8
0
370
    35
390
0
 62
     7
 48
0.025
100
AcDbLine
 10
262.638611
 20
151.559341
 30
0.0
 11
263.638611
 21
151.559341
 31
0.0
210
0.0
220
0.0
230
1.0
  0
LINE
  5
244
100
AcDbEntity
  8
0
370
    35
390
0
 62
     7
 48
0.097649
100
AcDbLine
 10
263.638611
 20
155.465302
 30
0.0
 11
263.638611
 21
151.559341
 31
0.0
210
0.0
220
0.0
230
1.0
  0
ARC
  5
245
100
AcDbEntity
  8
0
370
    35
390
0
 62
     7
100
AcDbCircle
 10
231.544968
 20
-357.603088
 30
0.0
 40
514.071161
210
0.0
220
0.0
230
1.0
100
AcDbArc
 50
85.998154
 51
86.420676
  0
LINE
  5
246
100
AcDbEntity
  8
0
370
    35
390
0
 62
     7
 48
0.007927
100
AcDbLine
 10
267.421326
 20
155.214676
 30
0.0
 11
267.170471
 21
155.020752
 31
0.0
210
0.0
220
0.0
230
1.0
  0
POLYLINE
  5
247
100
AcDbEntity
  8
0
370
    35
390
0
 62
     7
100
AcDb2dPolyline
 66
     1
 10
0.0
 20
0.0
 30
0.0
 71
     6
  0
VERTEX
  5
248
100
AcDbEntity
  8
0
370
     0
390
0
100
AcDbVertex
100
AcDb2dVertex
 10
267.170471
 20
148.403625
 30
0.0
  0
VERTEX
  5
249
100
AcDbEntity
  8
0
370
     0
390
0
100
AcDbVertex
100
AcDb2dVertex
 10
266.621643
 20
148.918732
 30
0.0
  0
VERTEX
  5
24A
100
AcDbEntity
  8
0
370
     0
390
0
100
AcDbVertex
100
AcDb2dVertex
 10
266.17334
 20
149.529236
 30
0.0
  0
VERTEX
  5
24B
100
AcDbEntity
  8
0
370
     0
390
0
100
AcDbVertex
100
AcDb2dVertex
 10
265.841736
 20
150.214066
 30
0.0
  0
VERTEX
  5
24C
100
AcDbEntity
  8
0
370
     0
390
0
100
AcDbVertex
100
AcDb2dVertex
 10
265.639404
 20
150.943634
 30
0.0
  0
VERTEX
  5
24D
100
AcDbEntity
  8
0
370
     0
390
0
100
AcDbVertex
100
AcDb2dVertex
 10
265.569641
 20
151.698792
 30
0.0
  0
SEQEND
  5
24E
100
AcDbEntity
  8
0
370
     0
390
0
  0
POLYLINE
  5
24F
100
AcDbEntity
  8
0
370
    35
390
0
 62
     7
100
AcDb2dPolyline
 66
     1
 10
0.0
 20
0.0
 30
0.0
 71
     6
  0
VERTEX
  5
250
100
AcDbEntity
  8
0
370
     0
390
0
100
AcDbVertex
100
AcDb2dVertex
 10
265.569641
 20
151.698792
 30
0.0
  0
VERTEX
  5
251
100
AcDbEntity
  8
0
370
     0
390
0
100
AcDbVertex
100
AcDb2dVertex
 10
265.642395
 20
152.496979
 30
0.0
  0
VERTEX
  5
252
100
AcDbEntity
  8
0
370
     0
390
0
100
AcDbVertex
100
AcDb2dVertex
 10
265.852234
 20
153.237762
 30
0.0
  0
VERTEX
  5
253
100
AcDbEntity
  8
0
370
     0
390
0
100
AcDbVertex
100
AcDb2dVertex
 10
266.192017
 20
153.925888
 30
0.0
  0
VERTEX
  5
254
100
AcDbEntity
  8
0
370
     0
390
0
100
AcDbVertex
100
AcDb2dVertex
 10
266.650024
 20
154.537262
 30
0.0
  0
VERTEX
  5
255
100
AcDbEntity
  8
0
370
     0
390
0
100
AcDbVertex
100
AcDb2dVertex
 10
267.170471
 20
155.020752
 30
0.0
  0
SEQEND
  5
256
100
AcDbEntity
  8
0
370
     0
390
0
  0
ARC
  5
257
100
AcDbEntity
  8
0
370
    35
390
0
 62
     7
100
AcDbCircle
 10
295.091675
 20
184.259781
 30
0.0
 40
45.44512
210
0.0
220
0.0
230
1.0
100
AcDbArc
 50
232.092086
 51
232.873801
  0
ARC
  5
258
100
AcDbEntity
  8
0
370
    35
390
0
 62
     7
100
AcDbCircle
 10
258.598511
 20
151.166885
 30
0.0
 40
2.242894
210
0.0
220
0.0
230
1.0
100
AcDbArc
 50
78.346662
 51
86.82975
  0
LINE
  5
259
100
AcDbEntity
  8
0
370
    35
390
0
 62
     7
 48
0.049801
100
AcDbLine
 10
258.722534
 20
153.406342
 30
0.0
 11
256.733337
 21
153.512665
 31
0.0
210
0.0
220
0.0
230
1.0
  0
ARC
  5
25A
100
AcDbEntity
  8
0
370
    35
390
0
 62
     7
100
AcDbCircle
 10
256.617737
 20
151.262817
 30
0.0
 40
2.252824
210
0.0
220
0.0
230
1.0
100
AcDbArc
 50
87.058793
 51
95.995543
  0
ARC
  5
25B
100
AcDbEntity
  8
0
370
    35
390
0
 62
     7
100
AcDbCircle
 10
256.465271
 20
152.725815
 30
0.0
 40
0.782086
210
0.0
220
0.0
230
1.0
100
AcDbArc
 50
96.085045
 51
173.796636
  0
ARC
  5
25C
100
AcDbEntity
  8
0
370
    35
390
0
 62
     7
100
AcDbCircle
 10
256.455444
 20
152.722397
 30
0.0
 40
0.772813
210
0.0
220
0.0
230
1.0
100
AcDbArc
 50
173.465536
 51
229.292377
  0
ARC
  5
25D
100
AcDbEntity
  8
0
370
    35
390
0
 62
     7
100
AcDbCircle
 10
257.415283
 20
153.841599
 30
0.0
 40
2.247163
210
0.0
220
0.0
230
1.0
100
AcDbArc
 50
229.352128
 51
237.876327
  0
LINE
  5
25E
100
AcDbEntity
  8
0
370
    35
390
0
 62
     7
 48
0.060373
100
AcDbLine
 10
258.265564
 20
150.654404
 30
0.0
 11
256.220337
 21
151.938477
 31
0.0
210
0.0
220
0.0
230
1.0
  0
ARC
  5
25F
100
AcDbEntity
  8
0
370
    35
390
0
 62
     7
100
AcDbCircle
 10
259.465881
 20
152.566879
 30
0.0
 40
2.257963
210
0.0
220
0.0
230
1.0
100
AcDbArc
 50
237.886272
 51
246.407411
  0
ARC
  5
260
100
AcDbEntity
  8
0
370
    35
390
0
 62
     7
100
AcDbCircle
 10
258.874512
 20
151.215912
 30
0.0
 40
0.783325
210
0.0
220
0.0
230
1.0
100
AcDbArc
 50
246.49914
 51
352.192931
  0
ARC
  5
261
100
AcDbEntity
  8
0
370
    35
390
0
 62
     7
100
AcDbCircle
 10
257.416931
 20
151.409073
 30
0.0
 40
2.253404
210
0.0
220
0.0
230
1.0
100
AcDbArc
 50
352.361615
 51
358.756798
  0
LINE
  5
262
100
AcDbEntity
  8
0
370
    35
390
0
 62
     7
 48
0.00122
100
AcDbLine
 10
259.6698
 20
151.360184
 30
0.0
 11
259.670288
 21
151.408997
 31
0.0
210
0.0
220
0.0
230
1.0
  0
LINE
  5
263
100
AcDbEntity
  8
0
370
    35
390
0
 62
     7
 48
0.029762
100
AcDbLine
 10
259.670288
 20
151.408997
 30
0.0
 11
259.670288
 21
152.599487
 31
0.0
210
0.0
220
0.0
230
1.0
  0
ARC
  5
264
100
AcDbEntity
  8
0
370
    35
390
0
 62
     7
100
AcDbCircle
 10
258.890808
 20
152.601318
 30
0.0
 40
0.779254
210
0.0
220
0.0
230
1.0
100
AcDbArc
 50
359.865093
 51
78.092408
  0
ARC
  5
265
100
AcDbEntity
  8
0
370
    35
390
0
 62
     7
100
AcDbCircle
 10
248.291153
 20
150.875305
 30
0.0
 40
2.287389
210
0.0
220
0.0
230
1.0
100
AcDbArc
 50
57.72018
 51
117.484294
  0
ARC
  5
266
100
AcDbEntity
  8
0
370
    35
390
0
 62
     7
100
AcDbCircle
 10
249.614731
 20
148.370453
 30
0.0
 40
5.120242
210
0.0
220
0.0
230
1.0
100
AcDbArc
 50
117.687902
 51
136.102926
  0
LINE
  5
267
100
AcDbEntity
  8
0
370
    35
390
0
 62
     7
 48
0.069042
100
AcDbLine
 10
245.925156
 20
151.920654
 30
0.0
 11
244.012222
 21
149.928772
 31
0.0
210
0.0
220
0.0
230
1.0
  0
ARC
  5
268
100
AcDbEntity
  8
0
370
    35
390
0
 62
     7
100
AcDbCircle
 10
245.513229
 20
148.486755
 30
0.0
 40
2.081422
210
0.0
220
0.0
230
1.0
100
AcDbArc
 50
136.147991
 51
152.927662
  0
LINE
  5
269
100
AcDbEntity
  8
0
370
    35
390
0
 62
     7
 48
0.201192
100
AcDbLine
 10
252.451889
 20
149.044296
 30
0.0
 11
244.438919
 21
148.297806
 31
0.0
210
0.0
220
0.0
230
1.0
  0
ARC
  5
26A
100
AcDbEntity
  8
0
370
    35
390
0
 62
     7
100
AcDbCircle
 10
252.258926
 20
151.112732
 30
0.0
 40
2.077398
210
0.0
220
0.0
230
1.0
100
AcDbArc
 50
275.330448
 51
288.676228
  0
ARC
  5
26B
100
AcDbEntity
  8
0
370
    35
390
0
 62
     7
100
AcDbCircle
 10
252.672073
 20
149.882919
 30
0.0
 40
0.780206
210
0.0
220
0.0
230
1.0
100
AcDbArc
 50
288.852583
 51
354.111503
  0
ARC
  5
26C
100
AcDbEntity
  8
0
370
    35
390
0
 62
     7
100
AcDbCircle
 10
252.662186
 20
149.888046
 30
0.0
 40
0.790774
210
0.0
220
0.0
230
1.0
100
AcDbArc
 50
353.81529
 51
57.840876
  0
LINE
  5
26D
100
AcDbEntity
  8
0
370
    35
390
0
 62
     7
 48
0.105527
100
AcDbLine
 10
253.083115
 20
150.55751
 30
0.0
 11
249.512802
 21
152.809265
 31
0.0
210
0.0
220
0.0
230
1.0
  0
ARC
  5
26E
100
AcDbEntity
  8
0
370
    35
390
0
 62
     7
100
AcDbCircle
 10
241.863388
 20
151.917404
 30
0.0
 40
2.086775
210
0.0
220
0.0
230
1.0
100
AcDbArc
 50
72.333008
 51
88.435828
  0
ARC
  5
26F
100
AcDbEntity
  8
0
370
    35
390
0
 62
     7
100
AcDbCircle
 10
226.451996
 20
-407.08313
 30
0.0
 40
561.299398
210
0.0
220
0.0
230
1.0
100
AcDbArc
 50
88.420835
 51
89.593183
  0
ARC
  5
270
100
AcDbEntity
  8
0
370
    35
390
0
 62
     7
100
AcDbCircle
 10
230.410675
 20
153.42572
 30
0.0
 40
0.762033
210
0.0
220
0.0
230
1.0
100
AcDbArc
 50
144.600077
 51
222.239483
  0
ARC
  5
271
100
AcDbEntity
  8
0
370
    35
390
0
 62
     7
100
AcDbCircle
 10
230.430191
 20
153.419189
 30
0.0
 40
0.78249
210
0.0
220
0.0
230
1.0
100
AcDbArc
 50
89.473163
 51
145.037838
  0
ARC
  5
272
100
AcDbEntity
  8
0
370
    35
390
0
 62
     7
100
AcDbCircle
 10
231.399109
 20
154.348282
 30
0.0
 40
2.113524
210
0.0
220
0.0
230
1.0
100
AcDbArc
 50
222.742335
 51
237.80696
  0
LINE
  5
273
100
AcDbEntity
  8
0
370
    35
390
0
 62
     7
 48
0.173932
100
AcDbLine
 10
236.161194
 20
148.853821
 30
0.0
 11
230.273071
 21
152.559692
 31
0.0
210
0.0
220
0.0
230
1.0
  0
ARC
  5
274
100
AcDbEntity
  8
0
370
    35
390
0
 62
     7
100
AcDbCircle
 10
238.834045
 20
153.100266
 30
0.0
 40
5.01761
210
0.0
220
0.0
230
1.0
100
AcDbArc
 50
237.812287
 51
243.750686
  0
ARC
  5
275
100
AcDbEntity
  8
0
370
    35
390
0
 62
     7
100
AcDbCircle
 10
237.62999
 20
150.664856
 30
0.0
 40
2.300958
210
0.0
220
0.0
230
1.0
100
AcDbArc
 50
243.819657
 51
303.847645
  0
ARC
  5
276
100
AcDbEntity
  8
0
370
    35
390
0
 62
     7
100
AcDbCircle
 10
236.093491
 20
152.950989
 30
0.0
 40
5.055476
210
0.0
220
0.0
230
1.0
100
AcDbArc
 50
303.878866
 51
316.169334
  0
LINE
  5
277
100
AcDbEntity
  8
0
370
    35
390
0
 62
     7
 48
0.11053
100
AcDbLine
 10
242.80101
 20
152.640533
 30
0.0
 11
239.740463
 21
149.449921
 31
0.0
210
0.0
220
0.0
230
1.0
  0
ARC
  5
278
100
AcDbEntity
  8
0
370
    35
390
0
 62
     7
100
AcDbCircle
 10
242.256271
 20
153.182434
 30
0.0
 40
0.763131
210
0.0
220
0.0
230
1.0
100
AcDbArc
 50
341.44768
 51
71.613782
  0
ARC
  5
279
100
AcDbEntity
  8
0
370
    35
390
0
 62
     7
100
AcDbCircle
 10
242.235916
 20
153.183472
 30
0.0
 40
0.783648
210
0.0
220
0.0
230
1.0
100
AcDbArc
 50
316.146801
 51
341.851258
  0
ARC
  5
27A
100
AcDbEntity
  8
0
370
    35
390
0
 62
     7
100
AcDbCircle
 10
221.436279
 20
148.167175
 30
0.0
 40
5.570343
210
0.0
220
0.0
230
1.0
100
AcDbArc
 50
57.661447
 51
66.056064
  0
ARC
  5
27B
100
AcDbEntity
  8
0
370
    35
390
0
 62
     7
100
AcDbCircle
 10
222.795044
 20
151.213974
 30
0.0
 40
2.234571
210
0.0
220
0.0
230
1.0
100
AcDbArc
 50
66.192367
 51
124.050292
  0
ARC
  5
27C
100
AcDbEntity
  8
0
370
    35
390
0
 62
     7
100
AcDbCircle
 10
224.68779
 20
148.413284
 30
0.0
 40
5.614986
210
0.0
220
0.0
230
1.0
100
AcDbArc
 50
124.050893
 51
135.831098
  0
LINE
  5
27D
100
AcDbEntity
  8
0
370
    35
390
0
 62
     7
 48
0.148314
100
AcDbLine
 10
220.660233
 20
152.325653
 30
0.0
 11
216.528351
 21
148.068558
 31
0.0
210
0.0
220
0.0
230
1.0
  0
ARC
  5
27E
100
AcDbEntity
  8
0
370
    35
390
0
 62
     7
100
AcDbCircle
 10
218.462112
 20
146.184692
 30
0.0
 40
2.699452
210
0.0
220
0.0
230
1.0
100
AcDbArc
 50
137.177915
 51
155.955512
  0
LINE
  5
27F
100
AcDbEntity
  8
0
370
    35
390
0
 62
     7
 48
0.001684
100
AcDbLine
 10
216.482056
 20
148.019653
 30
0.0
 11
216.528351
 21
148.068558
 31
0.0
210
0.0
220
0.0
230
1.0
  0
POLYLINE
  5
280
100
AcDbEntity
  8
0
370
    35
390
0
 62
     7
100
AcDb2dPolyline
 66
     1
 10
0.0
 20
0.0
 30
0.0
 71
     7
  0
VERTEX
  5
281
100
AcDbEntity
  8
0
370
     0
390
0
100
AcDbVertex
100
AcDb2dVertex
 10
216.969894
 20
145.766602
 30
0.0
  0
VERTEX
  5
282
100
AcDbEntity
  8
0
370
     0
390
0
100
AcDbVertex
100
AcDb2dVertex
 10
216.616898
 20
145.841461
 30
0.0
  0
VERTEX
  5
283
100
AcDbEntity
  8
0
370
     0
390
0
100
AcDbVertex
100
AcDb2dVertex
 10
216.306076
 20
146.02475
 30
0.0
  0
VERTEX
  5
284
100
AcDbEntity
  8
0
370
     0
390
0
100
AcDbVertex
100
AcDb2dVertex
 10
216.07132
 20
146.295654
 30
0.0
  0
VERTEX
  5
285
100
AcDbEntity
  8
0
370
     0
390
0
100
AcDbVertex
100
AcDb2dVertex
 10
215.937836
 20
146.618958
 30
0.0
  0
VERTEX
  5
286
100
AcDbEntity
  8
0
370
     0
390
0
100
AcDbVertex
100
AcDb2dVertex
 10
215.913788
 20
146.961151
 30
0.0
  0
VERTEX
  5
287
100
AcDbEntity
  8
0
370
     0
390
0
100
AcDbVertex
100
AcDb2dVertex
 10
215.997055
 20
147.2845
 30
0.0
  0
SEQEND
  5
288
100
AcDbEntity
  8
0
370
     0
390
0
  0
ARC
  5
289
100
AcDbEntity
  8
0
370
    35
390
0
 62
     7
100
AcDbCircle
 10
217.100647
 20
148.569122
 30
0.0
 40
2.805562
210
0.0
220
0.0
230
1.0
100
AcDbArc
 50
267.328806
 51
274.889935
  0
ARC
  5
28A
100
AcDbEntity
  8
0
370
    35
390
0
 62
     7
100
AcDbCircle
 10
-43.1166
 20
3179.618896
 30
0.0
 40
3045.004906
210
0.0
220
0.0
230
1.0
100
AcDbArc
 50
274.906826
 51
275.130562
  0
POLYLINE
  5
28B
100
AcDbEntity
  8
0
370
    35
390
0
 62
     7
100
AcDb2dPolyline
 66
     1
 10
0.0
 20
0.0
 30
0.0
 71
     4
  0
VERTEX
  5
28C
100
AcDbEntity
  8
0
370
     0
390
0
100
AcDbVertex
100
AcDb2dVertex
 10
229.184799
 20
146.813568
 30
0.0
  0
VERTEX
  5
28D
100
AcDbEntity
  8
0
370
     0
390
0
100
AcDbVertex
100
AcDb2dVertex
 10
229.691422
 20
146.906769
 30
0.0
  0
VERTEX
  5
28E
100
AcDbEntity
  8
0
370
     0
390
0
100
AcDbVertex
100
AcDb2dVertex
 10
230.155075
 20
147.08551
 30
0.0
  0
VERTEX
  5
28F
100
AcDbEntity
  8
0
370
     0
390
0
100
AcDbVertex
100
AcDb2dVertex
 10
230.549576
 20
147.330582
 30
0.0
  0
SEQEND
  5
290
100
AcDbEntity
  8
0
370
     0
390
0
  0
POLYLINE
  5
291
100
AcDbEntity
  8
0
370
    35
390
0
 62
     7
100
AcDb2dPolyline
 66
     1
 10
0.0
 20
0.0
 30
0.0
 71
     6
  0
VERTEX
  5
292
100
AcDbEntity
  8
0
370
     0
390
0
100
AcDbVertex
100
AcDb2dVertex
 10
230.426773
 20
149.068817
 30
0.0
  0
VERTEX
  5
293
100
AcDbEntity
  8
0
370
     0
390
0
100
AcDbVertex
100
AcDb2dVertex
 10
230.694244
 20
148.831848
 30
0.0
  0
VERTEX
  5
294
100
AcDbEntity
  8
0
370
     0
390
0
100
AcDbVertex
100
AcDb2dVertex
 10
230.871368
 20
148.525391
 30
0.0
  0
VERTEX
  5
295
100
AcDbEntity
  8
0
370
     0
390
0
100
AcDbVertex
100
AcDb2dVertex
 10
230.941177
 20
148.184174
 30
0.0
  0
VERTEX
  5
296
100
AcDbEntity
  8
0
370
     0
390
0
100
AcDbVertex
100
AcDb2dVertex
 10
230.917206
 20
147.913544
 30
0.0
  0
VERTEX
  5
297
100
AcDbEntity
  8
0
370
     0
390
0
100
AcDbVertex
100
AcDb2dVertex
 10
230.827194
 20
147.663773
 30
0.0
  0
SEQEND
  5
298
100
AcDbEntity
  8
0
370
     0
390
0
  0
ARC
  5
299
100
AcDbEntity
  8
0
370
    35
390
0
 62
     7
100
AcDbCircle
 10
229.948105
 20
148.113617
 30
0.0
 40
0.987427
210
0.0
220
0.0
230
1.0
100
AcDbArc
 50
307.528899
 51
332.900972
  0
LINE
  5
29A
100
AcDbEntity
  8
0
370
    35
390
0
 62
     7
 48
0.177845
100
AcDbLine
 10
230.426773
 20
149.068817
 30
0.0
 11
224.415985
 21
152.873596
 31
0.0
210
0.0
220
0.0
230
1.0
  0
ARC
  5
29B
100
AcDbEntity
  8
0
370
    35
390
0
 62
     7
100
AcDbCircle
 10
215.105835
 20
151.25885
 30
0.0
 40
2.70267
210
0.0
220
0.0
230
1.0
100
AcDbArc
 50
64.610031
 51
91.685099
  0
ARC
  5
29C
100
AcDbEntity
  8
0
370
    35
390
0
 62
     7
100
AcDbCircle
 10
224.479034
 20
-208.469849
 30
0.0
 40
362.553423
210
0.0
220
0.0
230
1.0
100
AcDbArc
 50
91.494011
 51
92.938213
  0
ARC
  5
29D
100
AcDbEntity
  8
0
370
    35
390
0
 62
     7
100
AcDbCircle
 10
221.308945
 20
-144.074997
 30
0.0
 40
298.080423
210
0.0
220
0.0
230
1.0
100
AcDbArc
 50
92.964141
 51
93.871518
  0
ARC
  5
29E
100
AcDbEntity
  8
0
370
    35
390
0
 62
     7
100
AcDbCircle
 10
201.365601
 20
150.617767
 30
0.0
 40
2.71357
210
0.0
220
0.0
230
1.0
100
AcDbArc
 50
93.863362
 51
107.596127
  0
ARC
  5
29F
100
AcDbEntity
  8
0
370
    35
390
0
 62
     7
100
AcDbCircle
 10
200.89238
 20
152.139496
 30
0.0
 40
1.120997
210
0.0
220
0.0
230
1.0
100
AcDbArc
 50
123.544612
 51
219.178356
  0
ARC
  5
2A0
100
AcDbEntity
  8
0
370
    35
390
0
 62
     7
100
AcDbCircle
 10
200.879303
 20
152.157593
 30
0.0
 40
1.098748
210
0.0
220
0.0
230
1.0
100
AcDbArc
 50
107.697562
 51
123.49706
  0
ARC
  5
2A1
100
AcDbEntity
  8
0
370
    35
390
0
 62
     7
100
AcDbCircle
 10
202.140503
 20
153.185684
 30
0.0
 40
2.748988
210
0.0
220
0.0
230
1.0
100
AcDbArc
 50
219.647167
 51
237.668211
  0
LINE
  5
2A2
100
AcDbEntity
  8
0
370
    35
390
0
 62
     7
 48
0.221602
100
AcDbLine
 10
208.162064
 20
146.125229
 30
0.0
 11
200.670273
 21
150.862869
 31
0.0
210
0.0
220
0.0
230
1.0
  0
ARC
  5
2A3
100
AcDbEntity
  8
0
370
    35
390
0
 62
     7
100
AcDbCircle
 10
209.355835
 20
148.005554
 30
0.0
 40
2.22687
210
0.0
220
0.0
230
1.0
100
AcDbArc
 50
237.589719
 51
295.338025
  0
ARC
  5
2A4
100
AcDbEntity
  8
0
370
    35
390
0
 62
     7
100
AcDbCircle
 10
207.89502
 20
151.03064
 30
0.0
 40
5.585676
210
0.0
220
0.0
230
1.0
100
AcDbArc
 50
295.601329
 51
315.575791
  0
LINE
  5
2A5
100
AcDbEntity
  8
0
370
    35
390
0
 62
     7
 48
0.000732
100
AcDbLine
 10
211.884216
 20
147.12085
 30
0.0
 11
211.904648
 21
147.1418
 31
0.0
210
0.0
220
0.0
230
1.0
  0
LINE
  5
2A6
100
AcDbEntity
  8
0
370
    35
390
0
 62
     7
 48
0.13336
100
AcDbLine
 10
216.557175
 20
151.936676
 30
0.0
 11
212.842438
 21
148.108292
 31
0.0
210
0.0
220
0.0
230
1.0
  0
LINE
  5
2A7
100
AcDbEntity
  8
0
370
    35
390
0
 62
     7
 48
0.033667
100
AcDbLine
 10
212.842438
 20
148.108292
 30
0.0
 11
211.904648
 21
147.1418
 31
0.0
210
0.0
220
0.0
230
1.0
  0
POLYLINE
  5
2A8
100
AcDbEntity
  8
0
370
    35
390
0
 62
     7
100
AcDb2dPolyline
 66
     1
 10
0.0
 20
0.0
 30
0.0
 71
     7
  0
VERTEX
  5
2A9
100
AcDbEntity
  8
0
370
     0
390
0
100
AcDbVertex
100
AcDb2dVertex
 10
216.264526
 20
153.700134
 30
0.0
  0
VERTEX
  5
2AA
100
AcDbEntity
  8
0
370
     0
390
0
100
AcDbVertex
100
AcDb2dVertex
 10
216.537766
 20
153.510498
 30
0.0
  0
VERTEX
  5
2AB
100
AcDbEntity
  8
0
370
     0
390
0
100
AcDbVertex
100
AcDb2dVertex
 10
216.743027
 20
153.239105
 30
0.0
  0
VERTEX
  5
2AC
100
AcDbEntity
  8
0
370
     0
390
0
100
AcDbVertex
100
AcDb2dVertex
 10
216.856018
 20
152.91217
 30
0.0
  0
VERTEX
  5
2AD
100
AcDbEntity
  8
0
370
     0
390
0
100
AcDbVertex
100
AcDb2dVertex
 10
216.863831
 20
152.570313
 30
0.0
  0
VERTEX
  5
2AE
100
AcDbEntity
  8
0
370
     0
390
0
100
AcDbVertex
100
AcDb2dVertex
 10
216.76738
 20
152.240723
 30
0.0
  0
VERTEX
  5
2AF
100
AcDbEntity
  8
0
370
     0
390
0
100
AcDbVertex
100
AcDb2dVertex
 10
216.575546
 20
151.95607
 30
0.0
  0
SEQEND
  5
2B0
100
AcDbEntity
  8
0
370
     0
390
0
  0
LINE
  5
2B1
100
AcDbEntity
  8
0
370
    35
390
0
 62
     7
 48
0.000668
100
AcDbLine
 10
216.575546
 20
151.95607
 30
0.0
 11
216.557175
 21
151.936676
 31
0.0
210
0.0
220
0.0
230
1.0
  0
ARC
  5
2B2
100
AcDbEntity
  8
0
370
    35
390
0
 62
     7
100
AcDbCircle
 10
191.635345
 20
146.595551
 30
0.0
 40
5.564427
210
0.0
220
0.0
230
1.0
100
AcDbArc
 50
57.664876
 51
65.111504
  0
ARC
  5
2B3
100
AcDbEntity
  8
0
370
    35
390
0
 62
     7
100
AcDbCircle
 10
193.039597
 20
149.612518
 30
0.0
 40
2.236865
210
0.0
220
0.0
230
1.0
100
AcDbArc
 50
65.217453
 51
121.604073
  0
LINE
  5
2B4
100
AcDbEntity
  8
0
370
    35
390
0
 62
     7
 48
0.001468
100
AcDbLine
 10
191.86734
 20
151.51767
 30
0.0
 11
191.817719
 21
151.486237
 31
0.0
210
0.0
220
0.0
230
1.0
  0
ARC
  5
2B5
100
AcDbEntity
  8
0
370
    35
390
0
 62
     7
100
AcDbCircle
 10
194.882858
 20
146.791138
 30
0.0
 40
5.607061
210
0.0
220
0.0
230
1.0
100
AcDbArc
 50
123.137956
 51
135.832833
  0
LINE
  5
2B6
100
AcDbEntity
  8
0
370
    35
390
0
 62
     7
 48
0.176673
100
AcDbLine
 10
185.939423
 20
145.626297
 30
0.0
 11
190.860855
 21
150.697876
 31
0.0
210
0.0
220
0.0
230
1.0
  0
ARC
  5
2B7
100
AcDbEntity
  8
0
370
    35
390
0
 62
     7
100
AcDbCircle
 10
187.87944
 20
143.73912
 30
0.0
 40
2.706382
210
0.0
220
0.0
230
1.0
100
AcDbArc
 50
135.7911
 51
154.929454
  0
POLYLINE
  5
2B8
100
AcDbEntity
  8
0
370
    35
390
0
 62
     7
100
AcDb2dPolyline
 66
     1
 10
0.0
 20
0.0
 30
0.0
 71
     7
  0
VERTEX
  5
2B9
100
AcDbEntity
  8
0
370
     0
390
0
100
AcDbVertex
100
AcDb2dVertex
 10
186.348907
 20
143.345886
 30
0.0
  0
VERTEX
  5
2BA
100
AcDbEntity
  8
0
370
     0
390
0
100
AcDbVertex
100
AcDb2dVertex
 10
186.003098
 20
143.43338
 30
0.0
  0
VERTEX
  5
2BB
100
AcDbEntity
  8
0
370
     0
390
0
100
AcDbVertex
100
AcDb2dVertex
 10
185.702118
 20
143.625381
 30
0.0
  0
VERTEX
  5
2BC
100
AcDbEntity
  8
0
370
     0
390
0
100
AcDbVertex
100
AcDb2dVertex
 10
185.478134
 20
143.900787
 30
0.0
  0
VERTEX
  5
2BD
100
AcDbEntity
  8
0
370
     0
390
0
100
AcDbVertex
100
AcDb2dVertex
 10
185.354568
 20
144.225159
 30
0.0
  0
VERTEX
  5
2BE
100
AcDbEntity
  8
0
370
     0
390
0
100
AcDbVertex
100
AcDb2dVertex
 10
185.338791
 20
144.565674
 30
0.0
  0
VERTEX
  5
2BF
100
AcDbEntity
  8
0
370
     0
390
0
100
AcDbVertex
100
AcDb2dVertex
 10
185.428192
 20
144.885834
 30
0.0
  0
SEQEND
  5
2C0
100
AcDbEntity
  8
0
370
     0
390
0
  0
ARC
  5
2C1
100
AcDbEntity
  8
0
370
    35
390
0
 62
     7
100
AcDbCircle
 10
186.592361
 20
146.129333
 30
0.0
 40
2.794065
210
0.0
220
0.0
230
1.0
100
AcDbArc
 50
265.001522
 51
273.330589
  0
ARC
  5
2C2
100
AcDbEntity
  8
0
370
    35
390
0
 62
     7
100
AcDbCircle
 10
138.330109
 20
955.783386
 30
0.0
 40
813.886184
210
0.0
220
0.0
230
1.0
100
AcDbArc
 50
273.411001
 51
274.405872
  0
POLYLINE
  5
2C3
100
AcDbEntity
  8
0
370
    35
390
0
 62
     7
100
AcDb2dPolyline
 66
     1
 10
0.0
 20
0.0
 30
0.0
 71
     4
  0
VERTEX
  5
2C4
100
AcDbEntity
  8
0
370
     0
390
0
100
AcDbVertex
100
AcDb2dVertex
 10
200.853882
 20
144.301331
 30
0.0
  0
VERTEX
  5
2C5
100
AcDbEntity
  8
0
370
     0
390
0
100
AcDbVertex
100
AcDb2dVertex
 10
201.36319
 20
144.388214
 30
0.0
  0
VERTEX
  5
2C6
100
AcDbEntity
  8
0
370
     0
390
0
100
AcDbVertex
100
AcDb2dVertex
 10
201.830231
 20
144.561905
 30
0.0
  0
VERTEX
  5
2C7
100
AcDbEntity
  8
0
370
     0
390
0
100
AcDbVertex
100
AcDb2dVertex
 10
202.228333
 20
144.803284
 30
0.0
  0
SEQEND
  5
2C8
100
AcDbEntity
  8
0
370
     0
390
0
  0
POLYLINE
  5
2C9
100
AcDbEntity
  8
0
370
    35
390
0
 62
     7
100
AcDb2dPolyline
 66
     1
 10
0.0
 20
0.0
 30
0.0
 71
     7
  0
VERTEX
  5
2CA
100
AcDbEntity
  8
0
370
     0
390
0
100
AcDbVertex
100
AcDb2dVertex
 10
202.113525
 20
146.548904
 30
0.0
  0
VERTEX
  5
2CB
100
AcDbEntity
  8
0
370
     0
390
0
100
AcDbVertex
100
AcDb2dVertex
 10
202.382339
 20
146.310349
 30
0.0
  0
VERTEX
  5
2CC
100
AcDbEntity
  8
0
370
     0
390
0
100
AcDbVertex
100
AcDb2dVertex
 10
202.559708
 20
146.001648
 30
0.0
  0
VERTEX
  5
2CD
100
AcDbEntity
  8
0
370
     0
390
0
100
AcDbVertex
100
AcDb2dVertex
 10
202.628433
 20
145.658173
 30
0.0
  0
VERTEX
  5
2CE
100
AcDbEntity
  8
0
370
     0
390
0
100
AcDbVertex
100
AcDb2dVertex
 10
202.595795
 20
145.357605
 30
0.0
  0
VERTEX
  5
2CF
100
AcDbEntity
  8
0
370
     0
390
0
100
AcDbVertex
100
AcDb2dVertex
 10
202.482407
 20
145.085815
 30
0.0
  0
VERTEX
  5
2D0
100
AcDbEntity
  8
0
370
     0
390
0
100
AcDbVertex
100
AcDb2dVertex
 10
202.302567
 20
144.864838
 30
0.0
  0
SEQEND
  5
2D1
100
AcDbEntity
  8
0
370
     0
390
0
  0
ARC
  5
2D2
100
AcDbEntity
  8
0
370
    35
390
0
 62
     7
100
AcDbCircle
 10
201.651291
 20
145.574585
 30
0.0
 40
0.963267
210
0.0
220
0.0
230
1.0
100
AcDbArc
 50
306.801654
 51
312.540103
  0
LINE
  5
2D3
100
AcDbEntity
  8
0
370
    35
390
0
 62
     7
 48
0.221958
100
AcDbLine
 10
202.113525
 20
146.548904
 30
0.0
 11
194.611603
 21
151.297119
 31
0.0
210
0.0
220
0.0
230
1.0
  0
ARC
  5
2D4
100
AcDbEntity
  8
0
370
    35
390
0
 62
     7
100
AcDbCircle
 10
181.116547
 20
145.448135
 30
0.0
 40
1.593304
210
0.0
220
0.0
230
1.0
100
AcDbArc
 50
179.445694
 51
215.892653
  0
ARC
  5
2D5
100
AcDbEntity
  8
0
370
    35
390
0
 62
     7
100
AcDbCircle
 10
180.340073
 20
144.901276
 30
0.0
 40
0.642903
210
0.0
220
0.0
230
1.0
100
AcDbArc
 50
216.980046
 51
272.772556
  0
ARC
  5
2D6
100
AcDbEntity
  8
0
370
    35
390
0
 62
     7
100
AcDbCircle
 10
180.289749
 20
145.666565
 30
0.0
 40
1.41032
210
0.0
220
0.0
230
1.0
100
AcDbArc
 50
273.310836
 51
301.639565
  0
ARC
  5
2D7
100
AcDbEntity
  8
0
370
    35
390
0
 62
     7
100
AcDbCircle
 10
180.23494
 20
145.779053
 30
0.0
 40
1.535278
210
0.0
220
0.0
230
1.0
100
AcDbArc
 50
301.17878
 51
315.54445
  0
LINE
  5
2D8
100
AcDbEntity
  8
0
370
    35
390
0
 62
     7
 48
0.165684
100
AcDbLine
 10
181.330811
 20
144.703827
 30
0.0
 11
185.96991
 21
149.436752
 31
0.0
210
0.0
220
0.0
230
1.0
  0
ARC
  5
2D9
100
AcDbEntity
  8
0
370
    35
390
0
 62
     7
100
AcDbCircle
 10
184.759094
 20
150.622314
 30
0.0
 40
1.694599
210
0.0
220
0.0
230
1.0
100
AcDbArc
 50
315.603822
 51
328.140245
  0
POLYLINE
  5
2DA
100
AcDbEntity
  8
0
370
    35
390
0
 62
     7
100
AcDb2dPolyline
 66
     1
 10
0.0
 20
0.0
 30
0.0
 71
     6
  0
VERTEX
  5
2DB
100
AcDbEntity
  8
0
370
     0
390
0
100
AcDbVertex
100
AcDb2dVertex
 10
185.896881
 20
151.133408
 30
0.0
  0
VERTEX
  5
2DC
100
AcDbEntity
  8
0
370
     0
390
0
100
AcDbVertex
100
AcDb2dVertex
 10
186.12056
 20
150.944366
 30
0.0
  0
VERTEX
  5
2DD
100
AcDbEntity
  8
0
370
     0
390
0
100
AcDbVertex
100
AcDb2dVertex
 10
186.281631
 20
150.682281
 30
0.0
  0
VERTEX
  5
2DE
100
AcDbEntity
  8
0
370
     0
390
0
100
AcDbVertex
100
AcDb2dVertex
 10
186.356232
 20
150.371704
 30
0.0
  0
VERTEX
  5
2DF
100
AcDbEntity
  8
0
370
     0
390
0
100
AcDbVertex
100
AcDb2dVertex
 10
186.329605
 20
150.040298
 30
0.0
  0
VERTEX
  5
2E0
100
AcDbEntity
  8
0
370
     0
390
0
100
AcDbVertex
100
AcDb2dVertex
 10
186.19838
 20
149.727844
 30
0.0
  0
SEQEND
  5
2E1
100
AcDbEntity
  8
0
370
     0
390
0
  0
POLYLINE
  5
2E2
100
AcDbEntity
  8
0
370
    35
390
0
 62
     7
100
AcDb2dPolyline
 66
     1
 10
0.0
 20
0.0
 30
0.0
 71
     4
  0
VERTEX
  5
2E3
100
AcDbEntity
  8
0
370
     0
390
0
100
AcDbVertex
100
AcDb2dVertex
 10
185.896881
 20
151.133408
 30
0.0
  0
VERTEX
  5
2E4
100
AcDbEntity
  8
0
370
     0
390
0
100
AcDbVertex
100
AcDb2dVertex
 10
185.351044
 20
151.380707
 30
0.0
  0
VERTEX
  5
2E5
100
AcDbEntity
  8
0
370
     0
390
0
100
AcDbVertex
100
AcDb2dVertex
 10
184.710999
 20
151.510712
 30
0.0
  0
VERTEX
  5
2E6
100
AcDbEntity
  8
0
370
     0
390
0
100
AcDbVertex
100
AcDb2dVertex
 10
184.033051
 20
151.494934
 30
0.0
  0
SEQEND
  5
2E7
100
AcDbEntity
  8
0
370
     0
390
0
  0
ARC
  5
2E8
100
AcDbEntity
  8
0
370
    35
390
0
 62
     7
100
AcDbCircle
 10
206.765518
 20
-15.499207
 30
0.0
 40
168.534257
210
0.0
220
0.0
230
1.0
100
AcDbArc
 50
97.751871
 51
98.795264
  0
ARC
  5
2E9
100
AcDbEntity
  8
0
370
    35
390
0
 62
     7
100
AcDbCircle
 10
181.45369
 20
148.093597
 30
0.0
 40
2.994753
210
0.0
220
0.0
230
1.0
100
AcDbArc
 50
98.792293
 51
116.870247
  0
ARC
  5
2EA
100
AcDbEntity
  8
0
370
    35
390
0
 62
     7
100
AcDbCircle
 10
180.59494
 20
149.814697
 30
0.0
 40
1.071913
210
0.0
220
0.0
230
1.0
100
AcDbArc
 50
117.503965
 51
180.27073
  0
LINE
  5
2EB
100
AcDbEntity
  8
0
370
    35
390
0
 62
     7
 48
0.108652
100
AcDbLine
 10
179.522537
 20
149.809631
 30
0.0
 11
179.522537
 21
145.463562
 31
0.0
210
0.0
220
0.0
230
1.0
  0
ARC
  5
2EC
100
AcDbEntity
  8
0
370
    35
390
0
 62
     7
100
AcDbCircle
 10
171.458466
 20
146.243835
 30
0.0
 40
2.831113
210
0.0
220
0.0
230
1.0
100
AcDbArc
 50
77.132725
 51
103.515663
  0
ARC
  5
2ED
100
AcDbEntity
  8
0
370
    35
390
0
 62
     7
100
AcDbCircle
 10
192.247086
 20
58.741707
 30
0.0
 40
92.76905
210
0.0
220
0.0
230
1.0
100
AcDbArc
 50
103.369087
 51
104.364519
  0
ARC
  5
2EE
100
AcDbEntity
  8
0
370
    35
390
0
 62
     7
100
AcDbCircle
 10
169.944122
 20
145.831024
 30
0.0
 40
2.869244
210
0.0
220
0.0
230
1.0
100
AcDbArc
 50
104.370318
 51
110.96102
  0
ARC
  5
2EF
100
AcDbEntity
  8
0
370
    35
390
0
 62
     7
100
AcDbCircle
 10
169.313293
 20
147.480911
 30
0.0
 40
1.102901
210
0.0
220
0.0
230
1.0
100
AcDbArc
 50
115.09452
 51
170.460799
  0
LINE
  5
2F0
100
AcDbEntity
  8
0
370
    35
390
0
 62
     7
 48
0.001961
100
AcDbLine
 10
168.845535
 20
148.479721
 30
0.0
 11
168.917709
 21
148.510406
 31
0.0
210
0.0
220
0.0
230
1.0
  0
ARC
  5
2F1
100
AcDbEntity
  8
0
370
    35
390
0
 62
     7
100
AcDbCircle
 10
171.115158
 20
147.183289
 30
0.0
 40
2.929118
210
0.0
220
0.0
230
1.0
100
AcDbArc
 50
170.560383
 51
179.999418
  0
LINE
  5
2F2
100
AcDbEntity
  8
0
370
    35
390
0
 62
     7
 48
0.083038
100
AcDbLine
 10
168.186035
 20
147.183304
 30
0.0
 11
168.186035
 21
143.861801
 31
0.0
210
0.0
220
0.0
230
1.0
  0
ARC
  5
2F3
100
AcDbEntity
  8
0
370
    35
390
0
 62
     7
100
AcDbCircle
 10
169.956757
 20
143.861816
 30
0.0
 40
1.770725
210
0.0
220
0.0
230
1.0
100
AcDbArc
 50
180.000514
 51
185.686278
  0
ARC
  5
2F4
100
AcDbEntity
  8
0
370
    35
390
0
 62
     7
100
AcDbCircle
 10
169.260223
 20
143.785828
 30
0.0
 40
1.069533
210
0.0
220
0.0
230
1.0
100
AcDbArc
 50
185.333184
 51
243.460307
  0
ARC
  5
2F5
100
AcDbEntity
  8
0
370
    35
390
0
 62
     7
100
AcDbCircle
 10
170.01918
 20
145.391083
 30
0.0
 40
2.844731
210
0.0
220
0.0
230
1.0
100
AcDbArc
 50
244.231121
 51
270.587257
  0
ARC
  5
2F6
100
AcDbEntity
  8
0
370
    35
390
0
 62
     7
100
AcDbCircle
 10
168.606094
 20
334.334442
 30
0.0
 40
191.793687
210
0.0
220
0.0
230
1.0
100
AcDbArc
 50
270.430853
 51
270.891112
  0
ARC
  5
2F7
100
AcDbEntity
  8
0
370
    35
390
0
 62
     7
100
AcDbCircle
 10
171.544159
 20
145.46991
 30
0.0
 40
2.906304
210
0.0
220
0.0
230
1.0
100
AcDbArc
 50
270.882205
 51
277.106707
  0
ARC
  5
2F8
100
AcDbEntity
  8
0
370
    35
390
0
 62
     7
100
AcDbCircle
 10
171.769669
 20
143.677094
 30
0.0
 40
1.09838
210
0.0
220
0.0
230
1.0
100
AcDbArc
 50
300.160959
 51
346.934062
  0
ARC
  5
2F9
100
AcDbEntity
  8
0
370
    35
390
0
 62
     7
100
AcDbCircle
 10
171.76712
 20
143.677765
 30
0.0
 40
1.100338
210
0.0
220
0.0
230
1.0
100
AcDbArc
 50
277.131418
 51
300.25848
  0
ARC
  5
2FA
100
AcDbEntity
  8
0
370
    35
390
0
 62
     7
100
AcDbCircle
 10
169.989227
 20
144.0802
 30
0.0
 40
2.923771
210
0.0
220
0.0
230
1.0
100
AcDbArc
 50
347.126845
 51
359.999896
  0
LINE
  5
2FB
100
AcDbEntity
  8
0
370
    35
390
0
 62
     7
 48
0.096653
100
AcDbLine
 10
172.91301
 20
144.0802
 30
0.0
 11
172.91301
 21
147.946335
 31
0.0
210
0.0
220
0.0
230
1.0
  0
POLYLINE
  5
2FC
100
AcDbEntity
  8
0
370
    35
390
0
 62
     7
100
AcDb2dPolyline
 66
     1
 10
0.0
 20
0.0
 30
0.0
 71
     6
  0
VERTEX
  5
2FD
100
AcDbEntity
  8
0
370
     0
390
0
100
AcDbVertex
100
AcDb2dVertex
 10
172.91301
 20
147.946335
 30
0.0
  0
VERTEX
  5
2FE
100
AcDbEntity
  8
0
370
     0
390
0
100
AcDbVertex
100
AcDb2dVertex
 10
172.859421
 20
148.286224
 30
0.0
  0
VERTEX
  5
2FF
100
AcDbEntity
  8
0
370
     0
390
0
100
AcDbVertex
100
AcDb2dVertex
 10
172.704819
 20
148.590912
 30
0.0
  0
VERTEX
  5
300
100
AcDbEntity
  8
0
370
     0
390
0
100
AcDbVertex
100
AcDb2dVertex
 10
172.467224
 20
148.829651
 30
0.0
  0
VERTEX
  5
301
100
AcDbEntity
  8
0
370
     0
390
0
100
AcDbVertex
100
AcDb2dVertex
 10
172.285156
 20
148.936401
 30
0.0
  0
VERTEX
  5
302
100
AcDbEntity
  8
0
370
     0
390
0
100
AcDbVertex
100
AcDb2dVertex
 10
172.088867
 20
149.00354
 30
0.0
  0
SEQEND
  5
303
100
AcDbEntity
  8
0
370
     0
390
0
  0
ARC
  5
304
100
AcDbEntity
  8
0
370
    35
390
0
 62
     7
100
AcDbCircle
 10
163.482605
 20
143.900208
 30
0.0
 40
2.775932
210
0.0
220
0.0
230
1.0
100
AcDbArc
 50
81.926439
 51
110.613431
  0
POLYLINE
  5
305
100
AcDbEntity
  8
0
370
    35
390
0
 62
     7
100
AcDb2dPolyline
 66
     1
 10
0.0
 20
0.0
 30
0.0
 71
     5
  0
VERTEX
  5
306
100
AcDbEntity
  8
0
370
     0
390
0
100
AcDbVertex
100
AcDb2dVertex
 10
156.664459
 20
143.625244
 30
0.0
  0
VERTEX
  5
307
100
AcDbEntity
  8
0
370
     0
390
0
100
AcDbVertex
100
AcDb2dVertex
 10
157.448563
 20
144.142883
 30
0.0
  0
VERTEX
  5
308
100
AcDbEntity
  8
0
370
     0
390
0
100
AcDbVertex
100
AcDb2dVertex
 10
158.278931
 20
144.6241
 30
0.0
  0
VERTEX
  5
309
100
AcDbEntity
  8
0
370
     0
390
0
100
AcDbVertex
100
AcDb2dVertex
 10
159.442276
 20
145.214951
 30
0.0
  0
VERTEX
  5
30A
100
AcDbEntity
  8
0
370
     0
390
0
100
AcDbVertex
100
AcDb2dVertex
 10
160.052872
 20
145.496811
 30
0.0
  0
SEQEND
  5
30B
100
AcDbEntity
  8
0
370
     0
390
0
  0
ARC
  5
30C
100
AcDbEntity
  8
0
370
    35
390
0
 62
     7
100
AcDbCircle
 10
176.803482
 20
107.984207
 30
0.0
 40
41.082796
210
0.0
220
0.0
230
1.0
100
AcDbArc
 50
110.367142
 51
114.062329
  0
ARC
  5
30D
100
AcDbEntity
  8
0
370
    35
390
0
 62
     7
100
AcDbCircle
 10
160.544098
 20
143.742447
 30
0.0
 40
3.881448
210
0.0
220
0.0
230
1.0
100
AcDbArc
 50
181.7303
 51
187.61373
  0
POLYLINE
  5
30E
100
AcDbEntity
  8
0
370
    35
390
0
 62
     7
100
AcDb2dPolyline
 66
     1
 10
0.0
 20
0.0
 30
0.0
 71
     5
  0
VERTEX
  5
30F
100
AcDbEntity
  8
0
370
     0
390
0
100
AcDbVertex
100
AcDb2dVertex
 10
156.696854
 20
143.22818
 30
0.0
  0
VERTEX
  5
310
100
AcDbEntity
  8
0
370
     0
390
0
100
AcDbVertex
100
AcDb2dVertex
 10
157.757248
 20
143.057556
 30
0.0
  0
VERTEX
  5
311
100
AcDbEntity
  8
0
370
     0
390
0
100
AcDbVertex
100
AcDb2dVertex
 10
159.929779
 20
142.808777
 30
0.0
  0
VERTEX
  5
312
100
AcDbEntity
  8
0
370
     0
390
0
100
AcDbVertex
100
AcDb2dVertex
 10
161.235291
 20
142.704651
 30
0.0
  0
VERTEX
  5
313
100
AcDbEntity
  8
0
370
     0
390
0
100
AcDbVertex
100
AcDb2dVertex
 10
163.216339
 20
142.595749
 30
0.0
  0
SEQEND
  5
314
100
AcDbEntity
  8
0
370
     0
390
0
  0
ARC
  5
315
100
AcDbEntity
  8
0
370
    35
390
0
 62
     7
100
AcDbCircle
 10
163.291595
 20
144.331802
 30
0.0
 40
1.737647
210
0.0
220
0.0
230
1.0
100
AcDbArc
 50
267.51803
 51
287.629563
  0
ARC
  5
316
100
AcDbEntity
  8
0
370
    35
390
0
 62
     7
100
AcDbCircle
 10
163.524811
 20
143.62561
 30
0.0
 40
0.992738
210
0.0
220
0.0
230
1.0
100
AcDbArc
 50
297.405667
 51
327.559617
  0
ARC
  5
317
100
AcDbEntity
  8
0
370
    35
390
0
 62
     7
100
AcDbCircle
 10
163.504105
 20
143.658722
 30
0.0
 40
1.031769
210
0.0
220
0.0
230
1.0
100
AcDbArc
 50
287.702666
 51
297.579728
  0
ARC
  5
318
100
AcDbEntity
  8
0
370
    35
390
0
 62
     7
100
AcDbCircle
 10
161.977158
 20
144.560974
 30
0.0
 40
2.801787
210
0.0
220
0.0
230
1.0
100
AcDbArc
 50
328.394215
 51
0.371014
  0
LINE
  5
319
100
AcDbEntity
  8
0
370
    35
390
0
 62
     7
 48
0.024889
100
AcDbLine
 10
164.779678
 20
144.579132
 30
0.0
 11
164.779678
 21
145.574692
 31
0.0
210
0.0
220
0.0
230
1.0
  0
POLYLINE
  5
31A
100
AcDbEntity
  8
0
370
    35
390
0
 62
     7
100
AcDb2dPolyline
 66
     1
 10
0.0
 20
0.0
 30
0.0
 71
     6
  0
VERTEX
  5
31B
100
AcDbEntity
  8
0
370
     0
390
0
100
AcDbVertex
100
AcDb2dVertex
 10
164.779678
 20
145.574692
 30
0.0
  0
VERTEX
  5
31C
100
AcDbEntity
  8
0
370
     0
390
0
100
AcDbVertex
100
AcDb2dVertex
 10
164.735199
 20
145.885162
 30
0.0
  0
VERTEX
  5
31D
100
AcDbEntity
  8
0
370
     0
390
0
100
AcDbVertex
100
AcDb2dVertex
 10
164.605896
 20
146.168915
 30
0.0
  0
VERTEX
  5
31E
100
AcDbEntity
  8
0
370
     0
390
0
100
AcDbVertex
100
AcDb2dVertex
 10
164.404373
 20
146.402084
 30
0.0
  0
VERTEX
  5
31F
100
AcDbEntity
  8
0
370
     0
390
0
100
AcDbVertex
100
AcDb2dVertex
 10
164.15271
 20
146.564697
 30
0.0
  0
VERTEX
  5
320
100
AcDbEntity
  8
0
370
     0
390
0
100
AcDbVertex
100
AcDb2dVertex
 10
163.872406
 20
146.648163
 30
0.0
  0
SEQEND
  5
321
100
AcDbEntity
  8
0
370
     0
390
0
  0
LINE
  5
322
100
AcDbEntity
  8
0
370
    35
390
0
 62
     7
 48
0.199784
100
AcDbLine
 10
252.488693
 20
149.343719
 30
0.0
 11
244.532211
 21
148.598022
 31
0.0
210
0.0
220
0.0
230
1.0
  0
LINE
  5
323
100
AcDbEntity
  8
0
370
    13
390
0
 62
     7
 48
0.007542
100
AcDbLine
 10
252.451889
 20
149.044296
 30
0.0
 11
252.488693
 21
149.343719
 31
0.0
210
0.0
220
0.0
230
1.0
  0
LINE
  5
324
100
AcDbEntity
  8
0
370
    35
390
0
 62
     7
 48
0.147008
100
AcDbLine
 10
176.047516
 20
140.511215
 30
0.0
 11
176.047516
 21
146.391541
 31
0.0
210
0.0
220
0.0
230
1.0
  0
POLYLINE
  5
325
100
AcDbEntity
  8
0
370
    35
390
0
 62
     7
100
AcDb2dPolyline
 66
     1
 10
0.0
 20
0.0
 30
0.0
 71
    17
  0
VERTEX
  5
326
100
AcDbEntity
  8
0
370
     0
390
0
100
AcDbVertex
100
AcDb2dVertex
 10
160.12677
 20
148.13913
 30
0.0
  0
VERTEX
  5
327
100
AcDbEntity
  8
0
370
     0
390
0
100
AcDbVertex
100
AcDb2dVertex
 10
161.401962
 20
148.667175
 30
0.0
  0
VERTEX
  5
328
100
AcDbEntity
  8
0
370
     0
390
0
100
AcDbVertex
100
AcDb2dVertex
 10
162.896378
 20
149.231781
 30
0.0
  0
VERTEX
  5
329
100
AcDbEntity
  8
0
370
     0
390
0
100
AcDbVertex
100
AcDb2dVertex
 10
164.407761
 20
149.751373
 30
0.0
  0
VERTEX
  5
32A
100
AcDbEntity
  8
0
370
     0
390
0
100
AcDbVertex
100
AcDb2dVertex
 10
166.113861
 20
150.287399
 30
0.0
  0
VERTEX
  5
32B
100
AcDbEntity
  8
0
370
     0
390
0
100
AcDbVertex
100
AcDb2dVertex
 10
167.831757
 20
150.783035
 30
0.0
  0
VERTEX
  5
32C
100
AcDbEntity
  8
0
370
     0
390
0
100
AcDbVertex
100
AcDb2dVertex
 10
169.888809
 20
151.327148
 30
0.0
  0
VERTEX
  5
32D
100
AcDbEntity
  8
0
370
     0
390
0
100
AcDbVertex
100
AcDb2dVertex
 10
171.957275
 20
151.826416
 30
0.0
  0
VERTEX
  5
32E
100
AcDbEntity
  8
0
370
     0
390
0
100
AcDbVertex
100
AcDb2dVertex
 10
174.324326
 20
152.346436
 30
0.0
  0
VERTEX
  5
32F
100
AcDbEntity
  8
0
370
     0
390
0
100
AcDbVertex
100
AcDb2dVertex
 10
176.700928
 20
152.820923
 30
0.0
  0
VERTEX
  5
330
100
AcDbEntity
  8
0
370
     0
390
0
100
AcDbVertex
100
AcDb2dVertex
 10
179.405701
 20
153.310272
 30
0.0
  0
VERTEX
  5
331
100
AcDbEntity
  8
0
370
     0
390
0
100
AcDbVertex
100
AcDb2dVertex
 10
182.118546
 20
153.752472
 30
0.0
  0
VERTEX
  5
332
100
AcDbEntity
  8
0
370
     0
390
0
100
AcDbVertex
100
AcDb2dVertex
 10
184.887695
 20
154.158859
 30
0.0
  0
VERTEX
  5
333
100
AcDbEntity
  8
0
370
     0
390
0
100
AcDbVertex
100
AcDb2dVertex
 10
187.66243
 20
154.525467
 30
0.0
  0
VERTEX
  5
334
100
AcDbEntity
  8
0
370
     0
390
0
100
AcDbVertex
100
AcDb2dVertex
 10
193.224258
 20
155.155396
 30
0.0
  0
VERTEX
  5
335
100
AcDbEntity
  8
0
370
     0
390
0
100
AcDbVertex
100
AcDb2dVertex
 10
199.575317
 20
155.72821
 30
0.0
  0
VERTEX
  5
336
100
AcDbEntity
  8
0
370
     0
390
0
100
AcDbVertex
100
AcDb2dVertex
 10
205.937515
 20
156.15979
 30
0.0
  0
SEQEND
  5
337
100
AcDbEntity
  8
0
370
     0
390
0
  0
POLYLINE
  5
338
100
AcDbEntity
  8
0
370
    35
390
0
 62
     7
100
AcDb2dPolyline
 66
     1
 10
0.0
 20
0.0
 30
0.0
 71
    12
  0
VERTEX
  5
339
100
AcDbEntity
  8
0
370
     0
390
0
100
AcDbVertex
100
AcDb2dVertex
 10
262.638611
 20
155.794037
 30
0.0
  0
VERTEX
  5
33A
100
AcDbEntity
  8
0
370
     0
390
0
100
AcDbVertex
100
AcDb2dVertex
 10
256.940613
 20
156.105011
 30
0.0
  0
VERTEX
  5
33B
100
AcDbEntity
  8
0
370
     0
390
0
100
AcDbVertex
100
AcDb2dVertex
 10
251.733871
 20
156.335571
 30
0.0
  0
VERTEX
  5
33C
100
AcDbEntity
  8
0
370
     0
390
0
100
AcDbVertex
100
AcDb2dVertex
 10
246.525192
 20
156.517838
 30
0.0
  0
VERTEX
  5
33D
100
AcDbEntity
  8
0
370
     0
390
0
100
AcDbVertex
100
AcDb2dVertex
 10
241.31514
 20
156.654694
 30
0.0
  0
VERTEX
  5
33E
100
AcDbEntity
  8
0
370
     0
390
0
100
AcDbVertex
100
AcDb2dVertex
 10
236.104141
 20
156.746948
 30
0.0
  0
VERTEX
  5
33F
100
AcDbEntity
  8
0
370
     0
390
0
100
AcDbVertex
100
AcDb2dVertex
 10
230.892487
 20
156.791077
 30
0.0
  0
VERTEX
  5
340
100
AcDbEntity
  8
0
370
     0
390
0
100
AcDbVertex
100
AcDb2dVertex
 10
222.570602
 20
156.743958
 30
0.0
  0
VERTEX
  5
341
100
AcDbEntity
  8
0
370
     0
390
0
100
AcDbVertex
100
AcDb2dVertex
 10
218.387619
 20
156.661163
 30
0.0
  0
VERTEX
  5
342
100
AcDbEntity
  8
0
370
     0
390
0
100
AcDbVertex
100
AcDb2dVertex
 10
214.205627
 20
156.537155
 30
0.0
  0
VERTEX
  5
343
100
AcDbEntity
  8
0
370
     0
390
0
100
AcDbVertex
100
AcDb2dVertex
 10
210.070465
 20
156.37178
 30
0.0
  0
VERTEX
  5
344
100
AcDbEntity
  8
0
370
     0
390
0
100
AcDbVertex
100
AcDb2dVertex
 10
205.937515
 20
156.15979
 30
0.0
  0
SEQEND
  5
345
100
AcDbEntity
  8
0
370
     0
390
0
  0
LINE
  5
346
100
AcDbEntity
  8
0
370
    35
390
0
 62
     7
 48
0.025
100
AcDbLine
 10
262.638611
 20
151.849365
 30
0.0
 11
263.638611
 21
151.849365
 31
0.0
210
0.0
220
0.0
230
1.0
  0
ARC
  5
347
100
AcDbEntity
  8
0
370
    35
390
0
 62
     7
100
AcDbCircle
 10
231.997513
 20
-354.410553
 30
0.0
 40
511.123838
210
0.0
220
0.0
230
1.0
100
AcDbArc
 50
86.027646
 51
86.450838
  0
POLYLINE
  5
348
100
AcDbEntity
  8
0
370
    35
390
0
 62
     7
100
AcDb2dPolyline
 66
     1
 10
0.0
 20
0.0
 30
0.0
 71
     6
  0
VERTEX
  5
349
100
AcDbEntity
  8
0
370
     0
390
0
100
AcDbVertex
100
AcDb2dVertex
 10
267.174133
 20
148.699524
 30
0.0
  0
VERTEX
  5
34A
100
AcDbEntity
  8
0
370
     0
390
0
100
AcDbVertex
100
AcDb2dVertex
 10
266.62384
 20
149.212997
 30
0.0
  0
VERTEX
  5
34B
100
AcDbEntity
  8
0
370
     0
390
0
100
AcDbVertex
100
AcDb2dVertex
 10
266.174194
 20
149.822372
 30
0.0
  0
VERTEX
  5
34C
100
AcDbEntity
  8
0
370
     0
390
0
100
AcDbVertex
100
AcDb2dVertex
 10
265.841614
 20
150.5065
 30
0.0
  0
VERTEX
  5
34D
100
AcDbEntity
  8
0
370
     0
390
0
100
AcDbVertex
100
AcDb2dVertex
 10
265.652466
 20
151.164063
 30
0.0
  0
VERTEX
  5
34E
100
AcDbEntity
  8
0
370
     0
390
0
100
AcDbVertex
100
AcDb2dVertex
 10
265.571655
 20
151.844604
 30
0.0
  0
SEQEND
  5
34F
100
AcDbEntity
  8
0
370
     0
390
0
  0
LINE
  5
350
100
AcDbEntity
  8
0
370
    35
390
0
 62
     7
 48
0.01482
100
AcDbLine
 10
267.645325
 20
148.339844
 30
0.0
 11
267.174133
 21
148.699524
 31
0.0
210
0.0
220
0.0
230
1.0
  0
ARC
  5
351
100
AcDbEntity
  8
0
370
    35
390
0
 62
     7
100
AcDbCircle
 10
256.478149
 20
152.998871
 30
0.0
 40
0.764423
210
0.0
220
0.0
230
1.0
100
AcDbArc
 50
183.850255
 51
229.52056
  0
ARC
  5
352
100
AcDbEntity
  8
0
370
    35
390
0
 62
     7
100
AcDbCircle
 10
257.456421
 20
154.146088
 30
0.0
 40
2.272136
210
0.0
220
0.0
230
1.0
100
AcDbArc
 50
229.535874
 51
237.911885
  0
LINE
  5
353
100
AcDbEntity
  8
0
370
    35
390
0
 62
     7
 48
0.059979
100
AcDbLine
 10
258.282104
 20
150.946625
 30
0.0
 11
256.249451
 21
152.221069
 31
0.0
210
0.0
220
0.0
230
1.0
  0
ARC
  5
354
100
AcDbEntity
  8
0
370
    35
390
0
 62
     7
100
AcDbCircle
 10
259.494202
 20
152.880493
 30
0.0
 40
2.282291
210
0.0
220
0.0
230
1.0
100
AcDbArc
 50
237.922431
 51
246.297937
  0
ARC
  5
355
100
AcDbEntity
  8
0
370
    35
390
0
 62
     7
100
AcDbCircle
 10
258.887695
 20
151.50209
 30
0.0
 40
0.776465
210
0.0
220
0.0
230
1.0
100
AcDbArc
 50
246.389188
 51
352.324159
  0
LINE
  5
356
100
AcDbEntity
  8
0
370
    35
390
0
 62
     7
 48
0.003263
100
AcDbLine
 10
259.656921
 20
151.398407
 30
0.0
 11
259.670288
 21
151.528259
 31
0.0
210
0.0
220
0.0
230
1.0
  0
ARC
  5
357
100
AcDbEntity
  8
0
370
    35
390
0
 62
     7
100
AcDbCircle
 10
252.292618
 20
151.432449
 30
0.0
 40
2.097901
210
0.0
220
0.0
230
1.0
100
AcDbArc
 50
275.362973
 51
288.485508
  0
ARC
  5
358
100
AcDbEntity
  8
0
370
    35
390
0
 62
     7
100
AcDbCircle
 10
252.71196
 20
150.173615
 30
0.0
 40
0.771101
210
0.0
220
0.0
230
1.0
100
AcDbArc
 50
288.590283
 51
343.228716
  0
ARC
  5
359
100
AcDbEntity
  8
0
370
    35
390
0
 62
     7
100
AcDbCircle
 10
230.579361
 20
153.683441
 30
0.0
 40
0.751561
210
0.0
220
0.0
230
1.0
100
AcDbArc
 50
156.24167
 51
222.686082
  0
ARC
  5
35A
100
AcDbEntity
  8
0
370
    35
390
0
 62
     7
100
AcDbCircle
 10
231.588669
 20
154.632263
 30
0.0
 40
2.136519
210
0.0
220
0.0
230
1.0
100
AcDbArc
 50
223.039134
 51
237.840564
  0
LINE
  5
35B
100
AcDbEntity
  8
0
370
    35
390
0
 62
     7
 48
0.172735
100
AcDbLine
 10
236.301392
 20
149.146881
 30
0.0
 11
230.451447
 21
152.823547
 31
0.0
210
0.0
220
0.0
230
1.0
  0
ARC
  5
35C
100
AcDbEntity
  8
0
370
    35
390
0
 62
     7
100
AcDbCircle
 10
238.919006
 20
153.311417
 30
0.0
 40
4.91886
210
0.0
220
0.0
230
1.0
100
AcDbArc
 50
237.848624
 51
243.8646
  0
ARC
  5
35D
100
AcDbEntity
  8
0
370
    35
390
0
 62
     7
100
AcDbCircle
 10
237.759491
 20
150.954468
 30
0.0
 40
2.292262
210
0.0
220
0.0
230
1.0
100
AcDbArc
 50
243.932915
 51
303.773668
  0
ARC
  5
35E
100
AcDbEntity
  8
0
370
    35
390
0
 62
     7
100
AcDbCircle
 10
236.276352
 20
153.167267
 30
0.0
 40
4.956169
210
0.0
220
0.0
230
1.0
100
AcDbArc
 50
303.805117
 51
316.255384
  0
LINE
  5
35F
100
AcDbEntity
  8
0
370
    35
390
0
 62
     7
 48
0.109768
100
AcDbLine
 10
242.891495
 20
152.913528
 30
0.0
 11
239.856827
 21
149.740341
 31
0.0
210
0.0
220
0.0
230
1.0
  0
ARC
  5
360
100
AcDbEntity
  8
0
370
    35
390
0
 62
     7
100
AcDbCircle
 10
242.328018
 20
153.452698
 30
0.0
 40
0.779876
210
0.0
220
0.0
230
1.0
100
AcDbArc
 50
316.263614
 51
331.330018
  0
ARC
  5
361
100
AcDbEntity
  8
0
370
    35
390
0
 62
     7
100
AcDbCircle
 10
218.666183
 20
146.525726
 30
0.0
 40
2.617441
210
0.0
220
0.0
230
1.0
100
AcDbArc
 50
140.594362
 51
156.391279
  0
POLYLINE
  5
362
100
AcDbEntity
  8
0
370
    35
390
0
 62
     7
100
AcDb2dPolyline
 66
     1
 10
0.0
 20
0.0
 30
0.0
 71
     7
  0
VERTEX
  5
363
100
AcDbEntity
  8
0
370
     0
390
0
100
AcDbVertex
100
AcDb2dVertex
 10
217.238449
 20
146.068115
 30
0.0
  0
VERTEX
  5
364
100
AcDbEntity
  8
0
370
     0
390
0
100
AcDbVertex
100
AcDb2dVertex
 10
216.888245
 20
146.142609
 30
0.0
  0
VERTEX
  5
365
100
AcDbEntity
  8
0
370
     0
390
0
100
AcDbVertex
100
AcDb2dVertex
 10
216.579712
 20
146.324265
 30
0.0
  0
VERTEX
  5
366
100
AcDbEntity
  8
0
370
     0
390
0
100
AcDbVertex
100
AcDb2dVertex
 10
216.346237
 20
146.59259
 30
0.0
  0
VERTEX
  5
367
100
AcDbEntity
  8
0
370
     0
390
0
100
AcDbVertex
100
AcDb2dVertex
 10
216.212708
 20
146.91304
 30
0.0
  0
VERTEX
  5
368
100
AcDbEntity
  8
0
370
     0
390
0
100
AcDbVertex
100
AcDb2dVertex
 10
216.187241
 20
147.252533
 30
0.0
  0
VERTEX
  5
369
100
AcDbEntity
  8
0
370
     0
390
0
100
AcDbVertex
100
AcDb2dVertex
 10
216.267929
 20
147.573944
 30
0.0
  0
SEQEND
  5
36A
100
AcDbEntity
  8
0
370
     0
390
0
  0
ARC
  5
36B
100
AcDbEntity
  8
0
370
    35
390
0
 62
     7
100
AcDbCircle
 10
217.369873
 20
148.81073
 30
0.0
 40
2.745756
210
0.0
220
0.0
230
1.0
100
AcDbArc
 50
267.256399
 51
274.922351
  0
ARC
  5
36C
100
AcDbEntity
  8
0
370
    35
390
0
 62
     7
100
AcDbCircle
 10
-42.986763
 20
3161.512695
 30
0.0
 40
3026.676925
210
0.0
220
0.0
230
1.0
100
AcDbArc
 50
274.939194
 51
275.162541
  0
POLYLINE
  5
36D
100
AcDbEntity
  8
0
370
    35
390
0
 62
     7
100
AcDb2dPolyline
 66
     1
 10
0.0
 20
0.0
 30
0.0
 71
     4
  0
VERTEX
  5
36E
100
AcDbEntity
  8
0
370
     0
390
0
100
AcDbVertex
100
AcDb2dVertex
 10
229.358093
 20
147.113449
 30
0.0
  0
VERTEX
  5
36F
100
AcDbEntity
  8
0
370
     0
390
0
100
AcDbVertex
100
AcDb2dVertex
 10
229.860641
 20
147.206848
 30
0.0
  0
VERTEX
  5
370
100
AcDbEntity
  8
0
370
     0
390
0
100
AcDbVertex
100
AcDb2dVertex
 10
230.319916
 20
147.386322
 30
0.0
  0
VERTEX
  5
371
100
AcDbEntity
  8
0
370
     0
390
0
100
AcDbVertex
100
AcDb2dVertex
 10
230.709579
 20
147.632507
 30
0.0
  0
SEQEND
  5
372
100
AcDbEntity
  8
0
370
     0
390
0
  0
ARC
  5
373
100
AcDbEntity
  8
0
370
    35
390
0
 62
     7
100
AcDbCircle
 10
230.111008
 20
148.399673
 30
0.0
 40
0.973076
210
0.0
220
0.0
230
1.0
100
AcDbArc
 50
307.962247
 51
323.305331
  0
ARC
  5
374
100
AcDbEntity
  8
0
370
    35
390
0
 62
     7
100
AcDbCircle
 10
201.257095
 20
152.385895
 30
0.0
 40
1.116379
210
0.0
220
0.0
230
1.0
100
AcDbArc
 50
134.897425
 51
218.979844
  0
ARC
  5
375
100
AcDbEntity
  8
0
370
    35
390
0
 62
     7
100
AcDbCircle
 10
202.46785
 20
153.393097
 30
0.0
 40
2.690771
210
0.0
220
0.0
230
1.0
100
AcDbArc
 50
219.434406
 51
237.7056
  0
LINE
  5
376
100
AcDbEntity
  8
0
370
    35
390
0
 62
     7
 48
0.219918
100
AcDbLine
 10
208.468109
 20
146.421692
 30
0.0
 11
201.030243
 21
151.11853
 31
0.0
210
0.0
220
0.0
230
1.0
  0
ARC
  5
377
100
AcDbEntity
  8
0
370
    35
390
0
 62
     7
100
AcDbCircle
 10
209.656143
 20
148.295746
 30
0.0
 40
2.218513
210
0.0
220
0.0
230
1.0
100
AcDbArc
 50
237.627817
 51
295.143727
  0
ARC
  5
378
100
AcDbEntity
  8
0
370
    35
390
0
 62
     7
100
AcDbCircle
 10
208.25415
 20
151.224121
 30
0.0
 40
5.464679
210
0.0
220
0.0
230
1.0
100
AcDbArc
 50
295.404866
 51
314.297913
  0
LINE
  5
379
100
AcDbEntity
  8
0
370
    35
390
0
 62
     7
 48
0.117372
100
AcDbLine
 10
216.643524
 20
152.036804
 30
0.0
 11
213.379288
 21
148.662415
 31
0.0
210
0.0
220
0.0
230
1.0
  0
ARC
  5
37A
100
AcDbEntity
  8
0
370
    35
390
0
 62
     7
100
AcDbCircle
 10
195.211807
 20
147.129364
 30
0.0
 40
5.491365
210
0.0
220
0.0
230
1.0
100
AcDbArc
 50
125.179978
 51
135.916748
  0
LINE
  5
37B
100
AcDbEntity
  8
0
370
    35
390
0
 62
     7
 48
0.175309
100
AcDbLine
 10
186.391479
 20
145.909851
 30
0.0
 11
191.267212
 21
150.949707
 31
0.0
210
0.0
220
0.0
230
1.0
  0
ARC
  5
37C
100
AcDbEntity
  8
0
370
    35
390
0
 62
     7
100
AcDbCircle
 10
188.29129
 20
144.067169
 30
0.0
 40
2.646534
210
0.0
220
0.0
230
1.0
100
AcDbArc
 50
135.874401
 51
155.295785
  0
POLYLINE
  5
37D
100
AcDbEntity
  8
0
370
    35
390
0
 62
     7
100
AcDb2dPolyline
 66
     1
 10
0.0
 20
0.0
 30
0.0
 71
     7
  0
VERTEX
  5
37E
100
AcDbEntity
  8
0
370
     0
390
0
100
AcDbVertex
100
AcDb2dVertex
 10
186.805573
 20
143.645203
 30
0.0
  0
VERTEX
  5
37F
100
AcDbEntity
  8
0
370
     0
390
0
100
AcDbVertex
100
AcDb2dVertex
 10
186.462494
 20
143.732269
 30
0.0
  0
VERTEX
  5
380
100
AcDbEntity
  8
0
370
     0
390
0
100
AcDbVertex
100
AcDb2dVertex
 10
186.163757
 20
143.922638
 30
0.0
  0
VERTEX
  5
381
100
AcDbEntity
  8
0
370
     0
390
0
100
AcDbVertex
100
AcDb2dVertex
 10
185.94101
 20
144.195511
 30
0.0
  0
VERTEX
  5
382
100
AcDbEntity
  8
0
370
     0
390
0
100
AcDbVertex
100
AcDb2dVertex
 10
185.817383
 20
144.517044
 30
0.0
  0
VERTEX
  5
383
100
AcDbEntity
  8
0
370
     0
390
0
100
AcDbVertex
100
AcDb2dVertex
 10
185.800247
 20
144.854919
 30
0.0
  0
VERTEX
  5
384
100
AcDbEntity
  8
0
370
     0
390
0
100
AcDbVertex
100
AcDb2dVertex
 10
185.887131
 20
145.173157
 30
0.0
  0
SEQEND
  5
385
100
AcDbEntity
  8
0
370
     0
390
0
  0
ARC
  5
386
100
AcDbEntity
  8
0
370
    35
390
0
 62
     7
100
AcDbCircle
 10
187.047684
 20
146.369202
 30
0.0
 40
2.73476
210
0.0
220
0.0
230
1.0
100
AcDbArc
 50
264.920932
 51
273.364808
  0
ARC
  5
387
100
AcDbEntity
  8
0
370
    35
390
0
 62
     7
100
AcDbCircle
 10
138.565598
 20
951.703857
 30
0.0
 40
809.528335
210
0.0
220
0.0
230
1.0
100
AcDbArc
 50
273.444844
 51
274.437332
  0
ARC
  5
388
100
AcDbEntity
  8
0
370
    35
390
0
 62
     7
100
AcDbCircle
 10
201.013718
 20
147.203217
 30
0.0
 40
2.608119
210
0.0
220
0.0
230
1.0
100
AcDbArc
 50
274.045881
 51
303.146045
  0
ARC
  5
389
100
AcDbEntity
  8
0
370
    35
390
0
 62
     7
100
AcDbCircle
 10
181.618332
 20
145.735962
 30
0.0
 40
1.607665
210
0.0
220
0.0
230
1.0
100
AcDbArc
 50
179.476116
 51
215.294656
  0
ARC
  5
38A
100
AcDbEntity
  8
0
370
    35
390
0
 62
     7
100
AcDbCircle
 10
180.820206
 20
145.184998
 30
0.0
 40
0.637185
210
0.0
220
0.0
230
1.0
100
AcDbArc
 50
216.323638
 51
272.15357
  0
ARC
  5
38B
100
AcDbEntity
  8
0
370
    35
390
0
 62
     7
100
AcDbCircle
 10
180.789948
 20
145.866089
 30
0.0
 40
1.319151
210
0.0
220
0.0
230
1.0
100
AcDbArc
 50
272.355293
 51
290.631042
  0
ARC
  5
38C
100
AcDbEntity
  8
0
370
    35
390
0
 62
     7
100
AcDbCircle
 10
181.083786
 20
150.062775
 30
0.0
 40
1.073551
210
0.0
220
0.0
230
1.0
100
AcDbArc
 50
128.491923
 51
180.14668
  0
LINE
  5
38D
100
AcDbEntity
  8
0
370
    35
390
0
 62
     7
 48
0.107734
100
AcDbLine
 10
180.01001
 20
150.060028
 30
0.0
 11
180.01001
 21
145.750671
 31
0.0
210
0.0
220
0.0
230
1.0
  0
ARC
  5
38E
100
AcDbEntity
  8
0
370
    35
390
0
 62
     7
100
AcDbCircle
 10
169.850693
 20
147.737549
 30
0.0
 40
1.098136
210
0.0
220
0.0
230
1.0
100
AcDbArc
 50
129.004856
 51
170.335806
  0
ARC
  5
38F
100
AcDbEntity
  8
0
370
    35
390
0
 62
     7
100
AcDbCircle
 10
171.592682
 20
147.445465
 30
0.0
 40
2.864415
210
0.0
220
0.0
230
1.0
100
AcDbArc
 50
170.42561
 51
179.999623
  0
LINE
  5
390
100
AcDbEntity
  8
0
370
    35
390
0
 62
     7
 48
0.082364
100
AcDbLine
 10
168.728256
 20
147.445496
 30
0.0
 11
168.728256
 21
144.150925
 31
0.0
210
0.0
220
0.0
230
1.0
  0
ARC
  5
391
100
AcDbEntity
  8
0
370
    35
390
0
 62
     7
100
AcDbCircle
 10
170.512283
 20
144.15094
 30
0.0
 40
1.784022
210
0.0
220
0.0
230
1.0
100
AcDbArc
 50
180.000569
 51
185.598196
  0
ARC
  5
392
100
AcDbEntity
  8
0
370
    35
390
0
 62
     7
100
AcDbCircle
 10
169.79866
 20
144.074493
 30
0.0
 40
1.065802
210
0.0
220
0.0
230
1.0
100
AcDbArc
 50
185.25043
 51
243.111107
  0
ARC
  5
393
100
AcDbEntity
  8
0
370
    35
390
0
 62
     7
100
AcDbCircle
 10
170.541061
 20
145.621643
 30
0.0
 40
2.781456
210
0.0
220
0.0
230
1.0
100
AcDbArc
 50
243.8852
 51
270.62328
  0
ARC
  5
394
100
AcDbEntity
  8
0
370
    35
390
0
 62
     7
100
AcDbCircle
 10
169.038986
 20
333.368774
 30
0.0
 40
190.534907
210
0.0
220
0.0
230
1.0
100
AcDbArc
 50
270.460796
 51
270.920331
  0
ARC
  5
395
100
AcDbEntity
  8
0
370
    35
390
0
 62
     7
100
AcDbCircle
 10
172.054184
 20
145.700714
 30
0.0
 40
2.842637
210
0.0
220
0.0
230
1.0
100
AcDbArc
 50
270.911302
 51
277.22364
  0
ARC
  5
396
100
AcDbEntity
  8
0
370
    35
390
0
 62
     7
100
AcDbCircle
 10
172.273911
 20
143.9655
 30
0.0
 40
1.093562
210
0.0
220
0.0
230
1.0
100
AcDbArc
 50
277.234589
 51
284.836357
  0
POLYLINE
  5
397
100
AcDbEntity
  8
0
370
    35
390
0
 62
     7
100
AcDb2dPolyline
 66
     1
 10
0.0
 20
0.0
 30
0.0
 71
     4
  0
VERTEX
  5
398
100
AcDbEntity
  8
0
370
     0
390
0
100
AcDbVertex
100
AcDb2dVertex
 10
157.284821
 20
143.906677
 30
0.0
  0
VERTEX
  5
399
100
AcDbEntity
  8
0
370
     0
390
0
100
AcDbVertex
100
AcDb2dVertex
 10
158.062973
 20
144.419952
 30
0.0
  0
VERTEX
  5
39A
100
AcDbEntity
  8
0
370
     0
390
0
100
AcDbVertex
100
AcDb2dVertex
 10
158.886795
 20
144.897247
 30
0.0
  0
VERTEX
  5
39B
100
AcDbEntity
  8
0
370
     0
390
0
100
AcDbVertex
100
AcDb2dVertex
 10
160.355865
 20
145.631104
 30
0.0
  0
SEQEND
  5
39C
100
AcDbEntity
  8
0
370
     0
390
0
  0
ARC
  5
39D
100
AcDbEntity
  8
0
370
    35
390
0
 62
     7
100
AcDbCircle
 10
161.196686
 20
143.903717
 30
0.0
 40
3.911893
210
0.0
220
0.0
230
1.0
100
AcDbArc
 50
179.956647
 51
185.766874
  0
POLYLINE
  5
39E
100
AcDbEntity
  8
0
370
    35
390
0
 62
     7
100
AcDb2dPolyline
 66
     1
 10
0.0
 20
0.0
 30
0.0
 71
     5
  0
VERTEX
  5
39F
100
AcDbEntity
  8
0
370
     0
390
0
100
AcDbVertex
100
AcDb2dVertex
 10
157.304565
 20
143.510651
 30
0.0
  0
VERTEX
  5
3A0
100
AcDbEntity
  8
0
370
     0
390
0
100
AcDbVertex
100
AcDb2dVertex
 10
158.356628
 20
143.34198
 30
0.0
  0
VERTEX
  5
3A1
100
AcDbEntity
  8
0
370
     0
390
0
100
AcDbVertex
100
AcDb2dVertex
 10
160.51178
 20
143.096283
 30
0.0
  0
VERTEX
  5
3A2
100
AcDbEntity
  8
0
370
     0
390
0
100
AcDbVertex
100
AcDb2dVertex
 10
161.806671
 20
142.993561
 30
0.0
  0
VERTEX
  5
3A3
100
AcDbEntity
  8
0
370
     0
390
0
100
AcDbVertex
100
AcDb2dVertex
 10
163.771561
 20
142.886337
 30
0.0
  0
SEQEND
  5
3A4
100
AcDbEntity
  8
0
370
     0
390
0
  0
ARC
  5
3A5
100
AcDbEntity
  8
0
370
    35
390
0
 62
     7
100
AcDbCircle
 10
163.845963
 20
144.643982
 30
0.0
 40
1.75921
210
0.0
220
0.0
230
1.0
100
AcDbArc
 50
267.576264
 51
282.626702
  0
LINE
  5
3A6
100
AcDbEntity
  8
0
370
    35
390
0
 62
     7
 48
0.007857
100
AcDbLine
 10
267.645325
 20
148.339844
 30
0.0
 11
267.662231
 21
148.026016
 31
0.0
210
0.0
220
0.0
230
1.0
  0
LINE
  5
3A7
100
AcDbEntity
  8
0
370
    35
390
0
 62
     7
 48
0.014647
100
AcDbLine
 10
176.047516
 20
140.511215
 30
0.0
 11
175.54895
 21
140.203522
 31
0.0
210
0.0
220
0.0
230
1.0
  0
LINE
  5
3A8
100
AcDbEntity
  8
0
370
    35
390
0
 62
     7
 48
0.006679
100
AcDbLine
 10
262.638611
 20
155.526886
 30
0.0
 11
262.638611
 21
155.794037
 31
0.0
210
0.0
220
0.0
230
1.0
  0
LINE
  5
3A9
100
AcDbEntity
  8
0
370
    35
390
0
 62
     7
 48
0.006692
100
AcDbLine
 10
263.638611
 20
155.465302
 30
0.0
 11
263.638611
 21
155.732971
 31
0.0
210
0.0
220
0.0
230
1.0
  0
LINE
  5
3AA
100
AcDbEntity
  8
0
370
    35
390
0
 62
     7
 48
0.006778
100
AcDbLine
 10
267.405701
 20
155.485352
 30
0.0
 11
267.421326
 21
155.214676
 31
0.0
210
0.0
220
0.0
230
1.0
  0
LINE
  5
3AB
100
AcDbEntity
  8
0
370
    13
390
0
 62
     7
 48
0.007061
100
AcDbLine
 10
255.951462
 20
152.136627
 30
0.0
 11
255.981888
 21
152.417419
 31
0.0
210
0.0
220
0.0
230
1.0
  0
LINE
  5
3AC
100
AcDbEntity
  8
0
370
    13
390
0
 62
     7
 48
0.007102
100
AcDbLine
 10
256.220337
 20
151.938477
 30
0.0
 11
256.249451
 21
152.221069
 31
0.0
210
0.0
220
0.0
230
1.0
  0
LINE
  5
3AD
100
AcDbEntity
  8
0
370
    13
390
0
 62
     7
 48
0.007317
100
AcDbLine
 10
258.265564
 20
150.654404
 30
0.0
 11
258.282104
 21
150.946625
 31
0.0
210
0.0
220
0.0
230
1.0
  0
LINE
  5
3AE
100
AcDbEntity
  8
0
370
    13
390
0
 62
     7
 48
0.007336
100
AcDbLine
 10
258.562195
 20
150.49765
 30
0.0
 11
258.576721
 21
150.79071
 31
0.0
210
0.0
220
0.0
230
1.0
  0
LINE
  5
3AF
100
AcDbEntity
  8
0
370
    13
390
0
 62
     7
 48
0.007223
100
AcDbLine
 10
259.65033
 20
151.109558
 30
0.0
 11
259.656921
 21
151.398407
 31
0.0
210
0.0
220
0.0
230
1.0
  0
LINE
  5
3B0
100
AcDbEntity
  8
0
370
    13
390
0
 62
     7
 48
0.007499
100
AcDbLine
 10
252.924118
 20
149.144745
 30
0.0
 11
252.957779
 21
149.44281
 31
0.0
210
0.0
220
0.0
230
1.0
  0
LINE
  5
3B1
100
AcDbEntity
  8
0
370
    13
390
0
 62
     7
 48
0.007914
100
AcDbLine
 10
229.846939
 20
152.913864
 30
0.0
 11
230.027145
 21
153.174118
 31
0.0
210
0.0
220
0.0
230
1.0
  0
LINE
  5
3B2
100
AcDbEntity
  8
0
370
    13
390
0
 62
     7
 48
0.007962
100
AcDbLine
 10
230.273071
 20
152.559692
 30
0.0
 11
230.451447
 21
152.823547
 31
0.0
210
0.0
220
0.0
230
1.0
  0
LINE
  5
3B3
100
AcDbEntity
  8
0
370
    13
390
0
 62
     7
 48
0.008122
100
AcDbLine
 10
236.161194
 20
148.853821
 30
0.0
 11
236.301392
 21
149.146881
 31
0.0
210
0.0
220
0.0
230
1.0
  0
LINE
  5
3B4
100
AcDbEntity
  8
0
370
    13
390
0
 62
     7
 48
0.008145
100
AcDbLine
 10
236.614868
 20
148.600082
 30
0.0
 11
236.752289
 21
148.895477
 31
0.0
210
0.0
220
0.0
230
1.0
  0
LINE
  5
3B5
100
AcDbEntity
  8
0
370
    13
390
0
 62
     7
 48
0.007987
100
AcDbLine
 10
238.911606
 20
148.753845
 30
0.0
 11
239.033813
 21
149.049011
 31
0.0
210
0.0
220
0.0
230
1.0
  0
LINE
  5
3B6
100
AcDbEntity
  8
0
370
    13
390
0
 62
     7
 48
0.007822
100
AcDbLine
 10
239.740463
 20
149.449921
 30
0.0
 11
239.856827
 21
149.740341
 31
0.0
210
0.0
220
0.0
230
1.0
  0
LINE
  5
3B7
100
AcDbEntity
  8
0
370
    13
390
0
 62
     7
 48
0.00719
100
AcDbLine
 10
242.80101
 20
152.640533
 30
0.0
 11
242.891495
 21
152.913528
 31
0.0
210
0.0
220
0.0
230
1.0
  0
LINE
  5
3B8
100
AcDbEntity
  8
0
370
    13
390
0
 62
     7
 48
0.009911
100
AcDbLine
 10
215.997055
 20
147.2845
 30
0.0
 11
216.267929
 21
147.573944
 31
0.0
210
0.0
220
0.0
230
1.0
  0
LINE
  5
3B9
100
AcDbEntity
  8
0
370
    13
390
0
 62
     7
 48
0.010094
100
AcDbLine
 10
216.969894
 20
145.766602
 30
0.0
 11
217.238449
 21
146.068115
 31
0.0
210
0.0
220
0.0
230
1.0
  0
LINE
  5
3BA
100
AcDbEntity
  8
0
370
    13
390
0
 62
     7
 48
0.010044
100
AcDbLine
 10
217.339798
 20
145.773758
 30
0.0
 11
217.605484
 21
146.075104
 31
0.0
210
0.0
220
0.0
230
1.0
  0
LINE
  5
3BB
100
AcDbEntity
  8
0
370
    13
390
0
 62
     7
 48
0.008659
100
AcDbLine
 10
229.184799
 20
146.813568
 30
0.0
 11
229.358093
 21
147.113449
 31
0.0
210
0.0
220
0.0
230
1.0
  0
LINE
  5
3BC
100
AcDbEntity
  8
0
370
    13
390
0
 62
     7
 48
0.008543
100
AcDbLine
 10
230.549576
 20
147.330582
 30
0.0
 11
230.709579
 21
147.632507
 31
0.0
210
0.0
220
0.0
230
1.0
  0
LINE
  5
3BD
100
AcDbEntity
  8
0
370
    13
390
0
 62
     7
 48
0.011109
100
AcDbLine
 10
200.023865
 20
151.431717
 30
0.0
 11
200.389679
 21
151.683975
 31
0.0
210
0.0
220
0.0
230
1.0
  0
LINE
  5
3BE
100
AcDbEntity
  8
0
370
    13
390
0
 62
     7
 48
0.011038
100
AcDbLine
 10
200.670273
 20
150.862869
 30
0.0
 11
201.030243
 21
151.11853
 31
0.0
210
0.0
220
0.0
230
1.0
  0
LINE
  5
3BF
100
AcDbEntity
  8
0
370
    13
390
0
 62
     7
 48
0.010652
100
AcDbLine
 10
208.162064
 20
146.125229
 30
0.0
 11
208.468109
 21
146.421692
 31
0.0
210
0.0
220
0.0
230
1.0
  0
LINE
  5
3C0
100
AcDbEntity
  8
0
370
    13
390
0
 62
     7
 48
0.010332
100
AcDbLine
 10
210.308609
 20
145.993408
 30
0.0
 11
210.598541
 21
146.287933
 31
0.0
210
0.0
220
0.0
230
1.0
  0
LINE
  5
3C1
100
AcDbEntity
  8
0
370
    13
390
0
 62
     7
 48
0.001326
100
AcDbLine
 10
216.557175
 20
151.936676
 30
0.0
 11
216.593201
 21
151.975586
 31
0.0
210
0.0
220
0.0
230
1.0
  0
LINE
  5
3C2
100
AcDbEntity
  8
0
370
    13
390
0
 62
     7
 48
0.002885
100
AcDbLine
 10
191.817719
 20
151.486237
 30
0.0
 11
191.915985
 21
151.546753
 31
0.0
210
0.0
220
0.0
230
1.0
  0
LINE
  5
3C3
100
AcDbEntity
  8
0
370
    13
390
0
 62
     7
 48
0.011952
100
AcDbLine
 10
190.860855
 20
150.697876
 30
0.0
 11
191.267212
 21
150.949707
 31
0.0
210
0.0
220
0.0
230
1.0
  0
LINE
  5
3C4
100
AcDbEntity
  8
0
370
    13
390
0
 62
     7
 48
0.013341
100
AcDbLine
 10
185.939423
 20
145.626297
 30
0.0
 11
186.391479
 21
145.909851
 31
0.0
210
0.0
220
0.0
230
1.0
  0
LINE
  5
3C5
100
AcDbEntity
  8
0
370
    13
390
0
 62
     7
 48
0.013537
100
AcDbLine
 10
185.428192
 20
144.885834
 30
0.0
 11
185.887131
 21
145.173157
 31
0.0
210
0.0
220
0.0
230
1.0
  0
LINE
  5
3C6
100
AcDbEntity
  8
0
370
    13
390
0
 62
     7
 48
0.01365
100
AcDbLine
 10
186.348907
 20
143.345886
 30
0.0
 11
186.805573
 21
143.645203
 31
0.0
210
0.0
220
0.0
230
1.0
  0
LINE
  5
3C7
100
AcDbEntity
  8
0
370
    13
390
0
 62
     7
 48
0.013583
100
AcDbLine
 10
186.754684
 20
143.339981
 30
0.0
 11
187.208191
 21
143.63916
 31
0.0
210
0.0
220
0.0
230
1.0
  0
LINE
  5
3C8
100
AcDbEntity
  8
0
370
    13
390
0
 62
     7
 48
0.011404
100
AcDbLine
 10
200.853882
 20
144.301331
 30
0.0
 11
201.197769
 21
144.601059
 31
0.0
210
0.0
220
0.0
230
1.0
  0
LINE
  5
3C9
100
AcDbEntity
  8
0
370
    13
390
0
 62
     7
 48
0.004721
100
AcDbLine
 10
202.228333
 20
144.803284
 30
0.0
 11
202.367752
 21
144.930634
 31
0.0
210
0.0
220
0.0
230
1.0
  0
LINE
  5
3CA
100
AcDbEntity
  8
0
370
    13
390
0
 62
     7
 48
0.014143
100
AcDbLine
 10
179.522537
 20
145.463562
 30
0.0
 11
180.01001
 21
145.750671
 31
0.0
210
0.0
220
0.0
230
1.0
  0
LINE
  5
3CB
100
AcDbEntity
  8
0
370
    13
390
0
 62
     7
 48
0.014067
100
AcDbLine
 10
179.826569
 20
144.514603
 30
0.0
 11
180.306915
 21
144.807617
 31
0.0
210
0.0
220
0.0
230
1.0
  0
LINE
  5
3CC
100
AcDbEntity
  8
0
370
    13
390
0
 62
     7
 48
0.013859
100
AcDbLine
 10
180.371185
 20
144.259033
 30
0.0
 11
180.844162
 21
144.548157
 31
0.0
210
0.0
220
0.0
230
1.0
  0
LINE
  5
3CD
100
AcDbEntity
  8
0
370
    35
390
0
 62
     7
 48
0.000177
100
AcDbLine
 10
180.100204
 20
150.764923
 30
0.0
 11
180.106506
 21
150.768127
 31
0.0
210
0.0
220
0.0
230
1.0
  0
LINE
  5
3CE
100
AcDbEntity
  8
0
370
    13
390
0
 62
     7
 48
0.013701
100
AcDbLine
 10
179.522537
 20
149.809631
 30
0.0
 11
180.01001
 21
150.060028
 31
0.0
210
0.0
220
0.0
230
1.0
  0
LINE
  5
3CF
100
AcDbEntity
  8
0
370
    13
390
0
 62
     7
 48
0.01502
100
AcDbLine
 10
168.225708
 20
147.663666
 30
0.0
 11
168.768173
 21
147.921906
 31
0.0
210
0.0
220
0.0
230
1.0
  0
LINE
  5
3D0
100
AcDbEntity
  8
0
370
    13
390
0
 62
     7
 48
0.015057
100
AcDbLine
 10
168.186035
 20
147.183304
 30
0.0
 11
168.728256
 21
147.445496
 31
0.0
210
0.0
220
0.0
230
1.0
  0
LINE
  5
3D1
100
AcDbEntity
  8
0
370
    13
390
0
 62
     7
 48
0.015362
100
AcDbLine
 10
168.186035
 20
143.861801
 30
0.0
 11
168.728256
 21
144.150925
 31
0.0
210
0.0
220
0.0
230
1.0
  0
LINE
  5
3D2
100
AcDbEntity
  8
0
370
    13
390
0
 62
     7
 48
0.015374
100
AcDbLine
 10
168.194748
 20
143.686371
 30
0.0
 11
168.736771
 21
143.976898
 31
0.0
210
0.0
220
0.0
230
1.0
  0
LINE
  5
3D3
100
AcDbEntity
  8
0
370
    13
390
0
 62
     7
 48
0.015257
100
AcDbLine
 10
168.782608
 20
142.829575
 30
0.0
 11
169.316925
 21
143.124466
 31
0.0
210
0.0
220
0.0
230
1.0
  0
LINE
  5
3D4
100
AcDbEntity
  8
0
370
    13
390
0
 62
     7
 48
0.014997
100
AcDbLine
 10
170.04834
 20
142.546204
 30
0.0
 11
170.57132
 21
142.840042
 31
0.0
210
0.0
220
0.0
230
1.0
  0
LINE
  5
3D5
100
AcDbEntity
  8
0
370
    13
390
0
 62
     7
 48
0.014733
100
AcDbLine
 10
171.588913
 20
142.563965
 30
0.0
 11
172.099396
 21
142.858429
 31
0.0
210
0.0
220
0.0
230
1.0
  0
LINE
  5
3D6
100
AcDbEntity
  8
0
370
    13
390
0
 62
     7
 48
0.01468
100
AcDbLine
 10
171.903717
 20
142.585938
 30
0.0
 11
172.411621
 21
142.880646
 31
0.0
210
0.0
220
0.0
230
1.0
  0
LINE
  5
3D7
100
AcDbEntity
  8
0
370
    35
390
0
 62
     7
 48
0.01703
100
AcDbLine
 10
156.664459
 20
143.625244
 30
0.0
 11
157.284821
 21
143.906677
 31
0.0
210
0.0
220
0.0
230
1.0
  0
LINE
  5
3D8
100
AcDbEntity
  8
0
370
    35
390
0
 62
     7
 48
0.016754
100
AcDbLine
 10
156.696854
 20
143.22818
 30
0.0
 11
157.304565
 21
143.510651
 31
0.0
210
0.0
220
0.0
230
1.0
  0
LINE
  5
3D9
100
AcDbEntity
  8
0
370
    13
390
0
 62
     7
 48
0.015667
100
AcDbLine
 10
163.216339
 20
142.595749
 30
0.0
 11
163.771561
 21
142.886337
 31
0.0
210
0.0
220
0.0
230
1.0
  0
LINE
  5
3DA
100
AcDbEntity
  8
0
370
    13
390
0
 62
     7
 48
0.008883
100
AcDbLine
 10
163.817856
 20
142.675812
 30
0.0
 11
164.132553
 21
142.840759
 31
0.0
210
0.0
220
0.0
230
1.0
  0
LINE
  5
3DB
100
AcDbEntity
  8
0
370
    13
390
0
 62
     7
 48
0.007398
100
AcDbLine
 10
267.170471
 20
148.403625
 30
0.0
 11
267.174133
 21
148.699524
 31
0.0
210
0.0
220
0.0
230
1.0
  0
LINE
  5
3DC
100
AcDbEntity
  8
0
370
    35
390
0
 62
     7
 48
0.016656
100
AcDbLine
 10
159.515228
 20
147.874756
 30
0.0
 11
160.12677
 21
148.13913
 31
0.0
210
0.0
220
0.0
230
1.0
  0
LINE
  5
3DD
100
AcDbEntity
  8
0
370
    35
390
0
 62
     7
 48
0.019288
100
AcDbLine
 10
212.842438
 20
148.108292
 30
0.0
 11
213.379288
 21
148.662415
 31
0.0
210
0.0
220
0.0
230
1.0
  0
ENDSEC
  0
SECTION
  2
OBJECTS
  0
DICTIONARY
  5
19
100
AcDbDictionary
280
     0
281
     1
  3
ACAD_GROUP
350
1A
  3
ACAD_MLINESTYLE
350
1B
  3
ACAD_LAYOUT
350
1E
  3
ACAD_PLOTSETTINGS
350
22
  3
ACAD_PLOTSTYLENAME
350
1F
  3
ACAD_WIPEOUT_VARS
350
23
  0
DICTIONARY
  5
1A
102
{ACAD_REACTORS
330
19
102
}
100
AcDbDictionary
280
     0
281
     1
  0
DICTIONARY
  5
1B
102
{ACAD_REACTORS
330
19
102
}
100
AcDbDictionary
280
     0
281
     1
  3
Standard
350
1C
  0
MLINESTYLE
  5
1C
102
{ACAD_REACTORS
330
1B
102
}
100
AcDbMlineStyle
  2
Standard
 70
     0
  3

 62
     0
 51
90.0
 52
90.0
 71
     2
 49
0.5
 62
   256
  6
ByLayer
 49
-0.5
 62
   256
  6
ByLayer
  0
ACDBDICTIONARYWDFLT
  5
1F
102
{ACAD_REACTORS
330
19
102
}
100
AcDbDictionary
281
     1
  3
Normal
350
1D
100
AcDbDictionaryWithDefault
340
1D
  0
ACDBPLACEHOLDER
  5
1D
102
{ACAD_REACTORS
330
1F
102
}
  0
LAYOUT
  5
20
102
{ACAD_REACTORS
330
1E
102
}
100
AcDbPlotSettings
  1

  2

  4

  6

 40
0.0
 41
0.0
 42
0.0
 43
0.0
 44
0.0
 45
0.0
 46
0.0
 47
0.0
 48
0.0
 49
0.0
140
0.0
141
0.0
142
1.0
143
1.0
 70
  1024
 72
     0
 73
     0
 74
     0
  7

 75
     0
147
1.0
148
0.0
149
0.0
100
AcDbLayout
  1
Model
 70
     0
 71
     0
 10
0.0
 20
0.0
 11
0.0
 21
0.0
 12
0.0
 22
0.0
 32
0.0
 14
0.0
 24
0.0
 34
0.0
 15
0.0
 25
0.0
 35
0.0
146
0.0
 13
0.0
 23
0.0
 33
0.0
 16
0.0
 26
0.0
 36
0.0
 17
0.0
 27
0.0
 37
0.0
 76
     0
330
A
331
0
345
0
346
0
  0
LAYOUT
  5
21
102
{ACAD_REACTORS
330
1E
102
}
100
AcDbPlotSettings
  1

  2

  4

  6

 40
0.0
 41
0.0
 42
0.0
 43
0.0
 44
0.0
 45
0.0
 46
0.0
 47
0.0
 48
0.0
 49
0.0
140
0.0
141
0.0
142
1.0
143
1.0
 70
     0
 72
     0
 73
     0
 74
     0
  7

 75
     0
147
1.0
148
0.0
149
0.0
100
AcDbLayout
  1
Layout1
 70
     0
 71
     0
 10
0.0
 20
0.0
 11
0.0
 21
0.0
 12
0.0
 22
0.0
 32
0.0
 14
0.0
 24
0.0
 34
0.0
 15
0.0
 25
0.0
 35
0.0
146
0.0
 13
0.0
 23
0.0
 33
0.0
 16
0.0
 26
0.0
 36
0.0
 17
0.0
 27
0.0
 37
0.0
 76
     0
330
B
331
0
345
0
346
0
  0
DICTIONARY
  5
1E
102
{ACAD_REACTORS
330
19
102
}
100
AcDbDictionary
280
     0
281
     1
  3
Layout1
350
21
  3
Model
350
20
  0
DICTIONARY
  5
22
102
{ACAD_REACTORS
330
19
102
}
100
AcDbDictionary
280
     0
281
     1
  0
WIPEOUTVARIABLES
  5
23
100
AcDbWipeoutVariables
 70
     1
  0
ENDSEC
  0
EOF
