  0
SECTION
  2
HEADER
  9
$ACADVER
  1
AC1015
  9
$ACADMAINTVER
 70
     6
  9
$DWGCODEPAGE
  3
ANSI_1252
  9
$INSBASE
 10
0.0
 20
0.0
 30
0.0
  9
$EXTMIN
 10
0.0
 20
0.0
 30
0.0
  9
$EXTMAX
 10
376.16272
 20
164.718781
 30
2.0
  9
$LIMMIN
 10
0.0
 20
0.0
  9
$LIMMAX
 10
420.0
 20
297.0
  9
$ORTHOMODE
 70
     0
  9
$REGENMODE
 70
     1
  9
$FILLMODE
 70
     1
  9
$QTEXTMODE
 70
     0
  9
$MIRRTEXT
 70
     1
  9
$LTSCALE
 40
1.0
  9
$ATTMODE
 70
     1
  9
$TEXTSIZE
 40
2.5
  9
$TRACEWID
 40
1.0
  9
$TEXTSTYLE
  7
Standard
  9
$CLAYER
  8
0
  9
$CELTYPE
  6
ByLayer
  9
$CECOLOR
 62
   256
  9
$CELTSCALE
 40
1.0
  9
$DISPSILH
 70
     0
  9
$DIMSCALE
 40
1.0
  9
$DIMASZ
 40
2.5
  9
$DIMEXO
 40
0.625
  9
$DIMDLI
 40
3.75
  9
$DIMRND
 40
0.0
  9
$DIMDLE
 40
0.0
  9
$DIMEXE
 40
1.25
  9
$DIMTP
 40
0.0
  9
$DIMTM
 40
0.0
  9
$DIMTXT
 40
2.5
  9
$DIMCEN
 40
2.5
  9
$DIMTSZ
 40
0.0
  9
$DIMTOL
 70
     0
  9
$DIMLIM
 70
     0
  9
$DIMTIH
 70
     0
  9
$DIMTOH
 70
     0
  9
$DIMSE1
 70
     0
  9
$DIMSE2
 70
     0
  9
$DIMTAD
 70
     1
  9
$DIMZIN
 70
     8
  9
$DIMBLK
  1

  9
$DIMASO
 70
     1
  9
$DIMSHO
 70
     1
  9
$DIMPOST
  1

  9
$DIMAPOST
  1

  9
$DIMALT
 70
     0
  9
$DIMALTD
 70
     3
  9
$DIMALTF
 40
0.03937
  9
$DIMLFAC
 40
1.0
  9
$DIMTOFL
 70
     1
  9
$DIMTVP
 40
0.0
  9
$DIMTIX
 70
     0
  9
$DIMSOXD
 70
     0
  9
$DIMSAH
 70
     0
  9
$DIMBLK1
  1

  9
$DIMBLK2
  1

  9
$DIMSTYLE
  2

  9
$DIMCLRD
 70
     0
  9
$DIMCLRE
 70
     0
  9
$DIMCLRT
 70
     0
  9
$DIMTFAC
 40
1.0
  9
$DIMGAP
 40
0.625
  9
$DIMJUST
 70
     0
  9
$DIMSD1
 70
     0
  9
$DIMSD2
 70
     0
  9
$DIMTOLJ
 70
     0
  9
$DIMTZIN
 70
     8
  9
$DIMALTZ
 70
     0
  9
$DIMALTTZ
 70
     0
  9
$DIMUPT
 70
     0
  9
$DIMDEC
 70
     2
  9
$DIMTDEC
 70
     2
  9
$DIMALTU
 70
     2
  9
$DIMALTTD
 70
     3
  9
$DIMTXSTY
  7
Standard
  9
$DIMAUNIT
 70
     0
  9
$DIMADEC
 70
     0
  9
$DIMALTRND
 40
0.0
  9
$DIMAZIN
 70
     0
  9
$DIMDSEP
 70
    44
  9
$DIMATFIT
 70
     0
  9
$DIMFRAC
 70
     0
  9
$DIMLDRBLK
  1

  9
$DIMLUNIT
 70
     2
  9
$DIMLWD
 70
    -2
  9
$DIMLWE
 70
    -2
  9
$DIMTMOVE
 70
     0
  9
$LUNITS
 70
     2
  9
$LUPREC
 70
     4
  9
$SKETCHINC
 40
1.0
  9
$FILLETRAD
 40
2.5
  9
$AUNITS
 70
     0
  9
$AUPREC
 70
     0
  9
$MENU
  1
.
  9
$ELEVATION
 40
0.0
  9
$PELEVATION
 40
0.0
  9
$THICKNESS
 40
0.0
  9
$LIMCHECK
 70
     0
  9
$CHAMFERA
 40
2.5
  9
$CHAMFERB
 40
2.5
  9
$CHAMFERC
 40
0.0
  9
$CHAMFERD
 40
0.0
  9
$SKPOLY
 70
     0
  9
$TDCREATE
 40
0.000000000
  9
$TDUCREATE
 40
0.000000000
  9
$TDUPDATE
 40
0.000000000
  9
$TDUUPDATE
 40
0.000000000
  9
$TDINDWG
 40
0.0000000000
  9
$TDUSRTIMER
 40
0.0000000000
  9
$USRTIMER
 70
     1
  9
$ANGBASE
 50
0.0
  9
$ANGDIR
 70
     0
  9
$PDMODE
 70
     0
  9
$PDSIZE
 40
0.0
  9
$PLINEWID
 40
0.0
  9
$SPLFRAME
 70
     0
  9
$SPLINETYPE
 70
     6
  9
$SPLINESEGS
 70
     8
  9
$HANDSEED
  5
399
  9
$SURFTAB1
 70
     6
  9
$SURFTAB2
 70
     6
  9
$SURFTYPE
 70
     6
  9
$SURFU
 70
     6
  9
$SURFV
 70
     6
  9
$UCSBASE
  2

  9
$UCSNAME
  2

  9
$UCSORG
 10
0.0
 20
0.0
 30
0.0
  9
$UCSXDIR
 10
1.0
 20
0.0
 30
0.0
  9
$UCSYDIR
 10
0.0
 20
1.0
 30
0.0
  9
$UCSORTHOREF
  2

  9
$UCSORTHOVIEW
 70
     1
  9
$UCSORGTOP
 10
0.0
 20
0.0
 30
0.0
  9
$UCSORGBOTTOM
 10
0.0
 20
0.0
 30
0.0
  9
$UCSORGLEFT
 10
0.0
 20
0.0
 30
0.0
  9
$UCSORGRIGHT
 10
0.0
 20
0.0
 30
0.0
  9
$UCSORGFRONT
 10
0.0
 20
0.0
 30
0.0
  9
$UCSORGBACK
 10
0.0
 20
0.0
 30
0.0
  9
$PUCSBASE
  2

  9
$PUCSNAME
  2

  9
$PUCSORG
 10
0.0
 20
0.0
 30
0.0
  9
$PUCSXDIR
 10
1.0
 20
0.0
 30
0.0
  9
$PUCSYDIR
 10
0.0
 20
1.0
 30
0.0
  9
$PUCSORTHOREF
  2

  9
$PUCSORTHOVIEW
 70
     0
  9
$PUCSORGTOP
 10
0.0
 20
0.0
 30
0.0
  9
$PUCSORGBOTTOM
 10
0.0
 20
0.0
 30
0.0
  9
$PUCSORGLEFT
 10
0.0
 20
0.0
 30
0.0
  9
$PUCSORGRIGHT
 10
0.0
 20
0.0
 30
0.0
  9
$PUCSORGFRONT
 10
0.0
 20
0.0
 30
0.0
  9
$PUCSORGBACK
 10
0.0
 20
0.0
 30
0.0
  9
$USERI1
 70
     0
  9
$USERI2
 70
     0
  9
$USERI3
 70
     0
  9
$USERI4
 70
     0
  9
$USERI5
 70
     0
  9
$USERR1
 40
0.0
  9
$USERR2
 40
0.0
  9
$USERR3
 40
0.0
  9
$USERR4
 40
0.0
  9
$USERR5
 40
0.0
  9
$WORLDVIEW
 70
     1
  9
$SHADEDGE
 70
     3
  9
$SHADEDIF
 70
    70
  9
$TILEMODE
 70
     1
  9
$MAXACTVP
 70
    48
  9
$PINSBASE
 10
0.0
 20
0.0
 30
0.0
  9
$PLIMCHECK
 70
     0
  9
$PEXTMIN
 10
0.0
 20
0.0
 30
0.0
  9
$PEXTMAX
 10
376.16272
 20
164.718781
 30
2.0
  9
$PLIMMIN
 10
0.0
 20
0.0
  9
$PLIMMAX
 10
420.0
 20
297.0
  9
$UNITMODE
 70
     0
  9
$VISRETAIN
 70
     0
  9
$PLINEGEN
 70
     0
  9
$PSLTSCALE
 70
     1
  9
$TREEDEPTH
 70
  3020
  9
$CMLSTYLE
  2
Standard
  9
$CMLJUST
 70
     0
  9
$CMLSCALE
 40
20.0
  9
$PROXYGRAPHICS
 70
     1
  9
$MEASUREMENT
 70
     1
  9
$CELWEIGHT
370
    -1
  9
$ENDCAPS
280
     0
  9
$JOINSTYLE
280
     0
  9
$LWDISPLAY
290
     0
  9
$INSUNITS
 70
     0
  9
$HYPERLINKBASE
  1

  9
$STYLESHEET
  1

  9
$XEDIT
290
     1
  9
$CEPSNTYPE
380
     0
  9
$PSTYLEMODE
290
     0
  9
$FINGERPRINTGUID
  2

  9
$VERSIONGUID
  2

  9
$EXTNAMES
290
     0
  9
$PSVPSCALE
 40
0.0
  0
ENDSEC
  0
SECTION
  2
CLASSES
  0
CLASS
  1
LWPOLYLINE
  2
AcDbPolyline
  3
AutoCAD 2000
 90
        0
280
     0
281
     1
  0
CLASS
  1
IMAGE
  2
AcDbRasterImage
  3
ISM
 90
      127
280
     0
281
     1
  0
CLASS
  1
OLE2FRAME
  2
AcDbOle2Frame
  3
AutoCAD 2000
 90
        0
280
     0
281
     1
  0
CLASS
  1
HATCH
  2
AcDbHatch
  3
AutoCAD 2000
 90
        0
280
     0
281
     1
  0
CLASS
  1
DICTIONARYVAR
  2
AcDbDictionaryVar
  3
AutoCAD 2000
 90
        0
280
     0
281
     0
  0
CLASS
  1
RASTERVARIABLES
  2
AcDbRasterVariables
  3
ISM
 90
        0
280
     0
281
     0
  0
CLASS
  1
IMAGEDEF
  2
AcDbRasterImageDef
  3
ISM
 90
        0
280
     0
281
     0
  0
CLASS
  1
IMAGEDEF_REACTOR
  2
AcDbRasterImageDefReactor
  3
ISM
 90
        1
280
     0
281
     0
  0
CLASS
  1
IDBUFFER
  2
AcDbIdBuffer
  3
AutoCAD 2000
 90
        0
280
     0
281
     0
  0
CLASS
  1
SPATIAL_FILTER
  2
AcDbSpatialFilter
  3
AutoCAD 2000
 90
        0
280
     0
281
     0
  0
CLASS
  1
XRECORD
  2
AcDbXrecord
  3
AutoCAD 2000
 90
        0
280
     0
281
     0
  0
CLASS
  1
SORTENTSTABLE
  2
AcDbSortentsTable
  3
AutoCAD 2000
 90
        0
280
     0
281
     0
  0
CLASS
  1
LAYER_INDEX
  2
AcDbLayerIndex
  3
AutoCAD 2000
 90
        0
280
     0
281
     0
  0
CLASS
  1
SPATIAL_INDEX
  2
AcDbSpatialIndex
  3
AutoCAD 2000
 90
        0
280
     0
281
     0
  0
CLASS
  1
OBJECT_PTR
  2
CAseDLPNTableRecord
  3
"ASE-LPNTableRecord"
 90
        1
280
     0
281
     0
  0
CLASS
  1
LAYOUT
  2
AcDbLayout
  3
AutoCAD 2000
 90
        0
280
     0
281
     0
  0
CLASS
  1
PLOTSETTINGS
  2
AcDbPlotSettings
  3
AutoCAD 2000
 90
        0
280
     0
281
     0
  0
CLASS
  1
ACDBDICTIONARYWDFLT
  2
AcDbDictionaryWithDefault
  3
AutoCAD 2000
 90
        0
280
     0
281
     0
  0
CLASS
  1
ACDBPLACEHOLDER
  2
AcDbPlaceHolder
  3
AutoCAD 2000
 90
        0
280
     0
281
     0
  0
CLASS
  1
VBA_PROJECT
  2
AcDbVbaProject
  3
acadvba
 90
        0
280
     0
281
     0
  0
CLASS
  1
WIPEOUT
  2
AcDbWipeout
  3
WipeOut|AutoCAD Express Tool|expresstools@autodesk.com
 90
      127
280
     0
281
     1
  0
CLASS
  1
WIPEOUTVARIABLES
  2
AcDbWipeoutVariables
  3
WipeOut|AutoCAD Express Tool|expresstools@autodesk.com
 90
        0
280
     0
281
     0
  0
CLASS
  1
RTEXT
  2
RText
  3
RText|AutoCAD Express Tool|expresstools@autodesk.com
 90
        0
280
     0
281
     1
  0
CLASS
  1
ARCALIGNEDTEXT
  2
AcDbArcAlignedText
  3
ATEXT|AutoCAD Express Tool|expresstools@autodesk.com
 90
        0
280
     0
281
     1
  0
ENDSEC
  0
SECTION
  2
TABLES
  0
TABLE
  2
VPORT
  5
7
100
AcDbSymbolTable
 70
     1
  0
VPORT
  5
15
100
AcDbSymbolTableRecord
100
AcDbViewportTableRecord
  2
*ACTIVE
 70
     0
 10
0.0
 20
0.0
 11
1.0
 21
1.0
 12
6.591288
 22
4.579184
 13
0.0
 23
0.0
 14
1.0
 24
1.0
 15
0.0
 25
0.0
 16
0.0
 26
0.0
 36
1.0
 17
0.0
 27
0.0
 37
0.0
 40
9.158369
 41
0.688564
 42
50.0
 43
0.0
 44
0.0
 50
0.0
 51
0.0
 71
     0
 72
   100
 73
     1
 74
     1
 75
     0
 76
     0
 77
     0
 78
     0
281
     0
 65
     0
110
0.0
120
0.0
130
0.0
111
1.0
121
0.0
131
0.0
112
0.0
122
1.0
132
0.0
345
0
346
0
 79
     0
146
0.0
  0
ENDTAB
  0
TABLE
  2
LTYPE
  5
4
100
AcDbSymbolTable
 70
     3
  0
LTYPE
  5
11
100
AcDbSymbolTableRecord
100
AcDbLinetypeTableRecord
  2
ByBlock
 70
    64
  3

 72
    65
 73
     0
 40
0.0
  0
LTYPE
  5
12
100
AcDbSymbolTableRecord
100
AcDbLinetypeTableRecord
  2
ByLayer
 70
    64
  3

 72
    65
 73
     0
 40
0.0
  0
LTYPE
  5
13
100
AcDbSymbolTableRecord
100
AcDbLinetypeTableRecord
  2
Continuous
 70
    64
  3
Solid line
 72
    65
 73
     0
 40
0.0
  0
ENDTAB
  0
TABLE
  2
LAYER
  5
2
100
AcDbSymbolTable
 70
     1
  0
LAYER
  5
14
100
AcDbSymbolTableRecord
100
AcDbLayerTableRecord
  2
0
 70
     0
 62
     7
  6
Continuous
290
     1
370
    -3
390
1D
  0
ENDTAB
  0
TABLE
  2
STYLE
  5
3
100
AcDbSymbolTable
 70
     1
  0
STYLE
  5
17
100
AcDbSymbolTableRecord
100
AcDbTextStyleTableRecord
  2
Standard
 70
     0
 40
0.0
 41
1.0
 50
0.0
 71
     0
 42
0.0
  3
txt
  4

  0
ENDTAB
  0
TABLE
  2
VIEW
  5
5
100
AcDbSymbolTable
 70
     0
  0
ENDTAB
  0
TABLE
  2
UCS
  5
6
100
AcDbSymbolTable
 70
     0
  0
ENDTAB
  0
TABLE
  2
APPID
  5
8
100
AcDbSymbolTable
 70
     1
  0
APPID
  5
16
100
AcDbSymbolTableRecord
100
AcDbRegAppTableRecord
  2
ACAD
 70
     0
  0
ENDTAB
  0
TABLE
  2
DIMSTYLE
  5
9
100
AcDbSymbolTable
 70
     1
100
AcDbDimStyleTable
 71
     0
  0
DIMSTYLE
105
18
100
AcDbSymbolTableRecord
100
AcDbDimStyleTableRecord
  2
Standard
 70
     0
  3

  4

 40
1.0
 41
0.18
 42
0.0625
 43
0.38
 44
0.18
 45
0.0
 46
0.0
 47
0.0
 48
0.0
 71
     0
 72
     0
 73
     1
 74
     1
 75
     0
 76
     0
 77
     0
 78
     0
 79
     0
140
0.18
141
0.09
142
0.0
143
25.4
144
1.0
145
0.0
146
1.0
147
0.09
148
0.0
170
     0
171
     2
172
     0
173
     0
174
     0
175
     0
176
     0
177
     0
178
     0
179
     0
271
     4
272
     4
273
     2
274
     2
275
     0
276
     0
277
     2
278
    46
279
     0
280
     0
281
     0
282
     0
283
     1
284
     0
285
     0
286
     0
288
     0
289
     3
340
17
341
0
342
0
343
0
344
0
371
    -2
372
    -2
  0
ENDTAB
  0
TABLE
  2
BLOCK_RECORD
  5
1
100
AcDbSymbolTable
 70
     0
  0
BLOCK_RECORD
  5
A
100
AcDbSymbolTableRecord
100
AcDbBlockTableRecord
  2
*MODEL_SPACE
340
20
  0
BLOCK_RECORD
  5
B
100
AcDbSymbolTableRecord
100
AcDbBlockTableRecord
  2
*PAPER_SPACE
340
21
  0
ENDTAB
  0
ENDSEC
  0
SECTION
  2
BLOCKS
  0
BLOCK
  5
D
100
AcDbEntity
  8
0
390
0
100
AcDbBlockBegin
  2
*MODEL_SPACE
 70
     0
 10
0.0
 20
0.0
 30
0.0
  3
*MODEL_SPACE
  1

  0
ENDBLK
  5
E
100
AcDbEntity
  8
0
390
0
100
AcDbBlockEnd
  0
BLOCK
  5
F
100
AcDbEntity
 67
     1
  8
0
390
0
100
AcDbBlockBegin
  2
*PAPER_SPACE
 70
     0
 10
0.0
 20
0.0
 30
0.0
  3
*PAPER_SPACE
  1

  0
ENDBLK
  5
10
100
AcDbEntity
 67
     1
  8
0
390
0
100
AcDbBlockEnd
  0
ENDSEC
  0
SECTION
  2
ENTITIES
  0
VIEWPORT
  5
398
100
AcDbEntity
 67
     1
  8
0
370
     0
390
0
 62
     0
 48
0.0
100
AcDbViewport
 10
0.0
 20
0.0
 30
0.0
 40
1000.0
 41
1000.0
 68
     1
 69
     1
 12
0.0
 22
0.0
 13
0.0
 23
0.0
 14
1.0
 24
1.0
 15
1.0
 25
1.0
 16
0.0
 26
0.0
 36
1.0
 17
0.0
 27
0.0
 37
0.0
 42
50.0
 43
0.0
 44
0.0
 45
1000.0
 50
0.0
 51
0.0
 72
   100
 90
        0
340
0
  1

281
     0
 71
     0
 74
     1
110
0.0
120
0.0
130
0.0
111
1.0
121
0.0
131
0.0
112
0.0
122
1.0
132
0.0
345
0
346
0
 79
     0
146
0.0
  0
POLYLINE
  5
24
100
AcDbEntity
  8
0
370
    13
390
0
 62
     7
100
AcDb2dPolyline
 66
     1
 10
0.0
 20
0.0
 30
0.0
 70
     1
 71
    10
  0
VERTEX
  5
25
100
AcDbEntity
  8
0
370
     0
390
0
100
AcDbVertex
100
AcDb2dVertex
 10
206.723083
 20
-24.355293
 30
0.0
  0
VERTEX
  5
26
100
AcDbEntity
  8
0
370
     0
390
0
100
AcDbVertex
100
AcDb2dVertex
 10
207.192108
 20
-24.355293
 30
0.0
  0
VERTEX
  5
27
100
AcDbEntity
  8
0
370
     0
390
0
100
AcDbVertex
100
AcDb2dVertex
 10
207.192108
 20
-22.746504
 30
0.0
  0
VERTEX
  5
28
100
AcDbEntity
  8
0
370
     0
390
0
100
AcDbVertex
100
AcDb2dVertex
 10
208.664734
 20
-22.746504
 30
0.0
  0
VERTEX
  5
29
100
AcDbEntity
  8
0
370
     0
390
0
100
AcDbVertex
100
AcDb2dVertex
 10
208.664734
 20
-22.327915
 30
0.0
  0
VERTEX
  5
2A
100
AcDbEntity
  8
0
370
     0
390
0
100
AcDbVertex
100
AcDb2dVertex
 10
207.192108
 20
-22.327915
 30
0.0
  0
VERTEX
  5
2B
100
AcDbEntity
  8
0
370
     0
390
0
100
AcDbVertex
100
AcDb2dVertex
 10
207.192108
 20
-21.278925
 30
0.0
  0
VERTEX
  5
2C
100
AcDbEntity
  8
0
370
     0
390
0
100
AcDbVertex
100
AcDb2dVertex
 10
209.002625
 20
-21.278925
 30
0.0
  0
VERTEX
  5
2D
100
AcDbEntity
  8
0
370
     0
390
0
100
AcDbVertex
100
AcDb2dVertex
 10
209.002625
 20
-20.855293
 30
0.0
  0
VERTEX
  5
2E
100
AcDbEntity
  8
0
370
     0
390
0
100
AcDbVertex
100
AcDb2dVertex
 10
206.723083
 20
-20.855293
 30
0.0
  0
SEQEND
  5
2F
100
AcDbEntity
  8
0
370
     0
390
0
  0
POLYLINE
  5
30
100
AcDbEntity
  8
0
370
    13
390
0
 62
     7
100
AcDb2dPolyline
 66
     1
 10
0.0
 20
0.0
 30
0.0
 70
     1
 71
    22
  0
VERTEX
  5
31
100
AcDbEntity
  8
0
370
     0
390
0
100
AcDbVertex
100
AcDb2dVertex
 10
209.915451
 20
-24.355293
 30
0.0
  0
VERTEX
  5
32
100
AcDbEntity
  8
0
370
     0
390
0
100
AcDbVertex
100
AcDb2dVertex
 10
210.359253
 20
-24.355293
 30
0.0
  0
VERTEX
  5
33
100
AcDbEntity
  8
0
370
     0
390
0
100
AcDbVertex
100
AcDb2dVertex
 10
210.359253
 20
-22.807022
 30
0.0
  0
VERTEX
  5
34
100
AcDbEntity
  8
0
370
     0
390
0
100
AcDbVertex
100
AcDb2dVertex
 10
210.404648
 20
-22.433823
 30
0.0
  0
VERTEX
  5
35
100
AcDbEntity
  8
0
370
     0
390
0
100
AcDbVertex
100
AcDb2dVertex
 10
210.540817
 20
-22.166533
 30
0.0
  0
VERTEX
  5
36
100
AcDbEntity
  8
0
370
     0
390
0
100
AcDbVertex
100
AcDb2dVertex
 10
210.762711
 20
-22.00515
 30
0.0
  0
VERTEX
  5
37
100
AcDbEntity
  8
0
370
     0
390
0
100
AcDbVertex
100
AcDb2dVertex
 10
211.060257
 20
-21.949673
 30
0.0
  0
VERTEX
  5
38
100
AcDbEntity
  8
0
370
     0
390
0
100
AcDbVertex
100
AcDb2dVertex
 10
211.282166
 20
-21.984976
 30
0.0
  0
VERTEX
  5
39
100
AcDbEntity
  8
0
370
     0
390
0
100
AcDbVertex
100
AcDb2dVertex
 10
211.448593
 20
-22.08584
 30
0.0
  0
VERTEX
  5
3A
100
AcDbEntity
  8
0
370
     0
390
0
100
AcDbVertex
100
AcDb2dVertex
 10
211.549454
 20
-22.257311
 30
0.0
  0
VERTEX
  5
3B
100
AcDbEntity
  8
0
370
     0
390
0
100
AcDbVertex
100
AcDb2dVertex
 10
211.584763
 20
-22.4893
 30
0.0
  0
VERTEX
  5
3C
100
AcDbEntity
  8
0
370
     0
390
0
100
AcDbVertex
100
AcDb2dVertex
 10
212.0336
 20
-22.4893
 30
0.0
  0
VERTEX
  5
3D
100
AcDbEntity
  8
0
370
     0
390
0
100
AcDbVertex
100
AcDb2dVertex
 10
211.973083
 20
-22.080797
 30
0.0
  0
VERTEX
  5
3E
100
AcDbEntity
  8
0
370
     0
390
0
100
AcDbVertex
100
AcDb2dVertex
 10
211.806656
 20
-21.78829
 30
0.0
  0
VERTEX
  5
3F
100
AcDbEntity
  8
0
370
     0
390
0
100
AcDbVertex
100
AcDb2dVertex
 10
211.529282
 20
-21.611778
 30
0.0
  0
VERTEX
  5
40
100
AcDbEntity
  8
0
370
     0
390
0
100
AcDbVertex
100
AcDb2dVertex
 10
211.151047
 20
-21.551258
 30
0.0
  0
VERTEX
  5
41
100
AcDbEntity
  8
0
370
     0
390
0
100
AcDbVertex
100
AcDb2dVertex
 10
210.893829
 20
-21.591604
 30
0.0
  0
VERTEX
  5
42
100
AcDbEntity
  8
0
370
     0
390
0
100
AcDbVertex
100
AcDb2dVertex
 10
210.671936
 20
-21.692469
 30
0.0
  0
VERTEX
  5
43
100
AcDbEntity
  8
0
370
     0
390
0
100
AcDbVertex
100
AcDb2dVertex
 10
210.47525
 20
-21.863939
 30
0.0
  0
VERTEX
  5
44
100
AcDbEntity
  8
0
370
     0
390
0
100
AcDbVertex
100
AcDb2dVertex
 10
210.318909
 20
-22.095928
 30
0.0
  0
VERTEX
  5
45
100
AcDbEntity
  8
0
370
     0
390
0
100
AcDbVertex
100
AcDb2dVertex
 10
210.318909
 20
-21.647079
 30
0.0
  0
VERTEX
  5
46
100
AcDbEntity
  8
0
370
     0
390
0
100
AcDbVertex
100
AcDb2dVertex
 10
209.915451
 20
-21.647079
 30
0.0
  0
SEQEND
  5
47
100
AcDbEntity
  8
0
370
     0
390
0
  0
POLYLINE
  5
48
100
AcDbEntity
  8
0
370
    13
390
0
 62
     7
100
AcDb2dPolyline
 66
     1
 10
0.0
 20
0.0
 30
0.0
 70
     1
 71
    16
  0
VERTEX
  5
49
100
AcDbEntity
  8
0
370
     0
390
0
100
AcDbVertex
100
AcDb2dVertex
 10
212.653931
 20
-23.003708
 30
0.0
  0
VERTEX
  5
4A
100
AcDbEntity
  8
0
370
     0
390
0
100
AcDbVertex
100
AcDb2dVertex
 10
212.734619
 20
-23.618982
 30
0.0
  0
VERTEX
  5
4B
100
AcDbEntity
  8
0
370
     0
390
0
100
AcDbVertex
100
AcDb2dVertex
 10
212.966599
 20
-24.072872
 30
0.0
  0
VERTEX
  5
4C
100
AcDbEntity
  8
0
370
     0
390
0
100
AcDbVertex
100
AcDb2dVertex
 10
213.334763
 20
-24.355293
 30
0.0
  0
VERTEX
  5
4D
100
AcDbEntity
  8
0
370
     0
390
0
100
AcDbVertex
100
AcDb2dVertex
 10
213.828995
 20
-24.451115
 30
0.0
  0
VERTEX
  5
4E
100
AcDbEntity
  8
0
370
     0
390
0
100
AcDbVertex
100
AcDb2dVertex
 10
214.318192
 20
-24.355293
 30
0.0
  0
VERTEX
  5
4F
100
AcDbEntity
  8
0
370
     0
390
0
100
AcDbVertex
100
AcDb2dVertex
 10
214.68634
 20
-24.077915
 30
0.0
  0
VERTEX
  5
50
100
AcDbEntity
  8
0
370
     0
390
0
100
AcDbVertex
100
AcDb2dVertex
 10
214.918335
 20
-23.624025
 30
0.0
  0
VERTEX
  5
51
100
AcDbEntity
  8
0
370
     0
390
0
100
AcDbVertex
100
AcDb2dVertex
 10
215.004074
 20
-23.003708
 30
0.0
  0
VERTEX
  5
52
100
AcDbEntity
  8
0
370
     0
390
0
100
AcDbVertex
100
AcDb2dVertex
 10
214.918335
 20
-22.388435
 30
0.0
  0
VERTEX
  5
53
100
AcDbEntity
  8
0
370
     0
390
0
100
AcDbVertex
100
AcDb2dVertex
 10
214.68634
 20
-21.929501
 30
0.0
  0
VERTEX
  5
54
100
AcDbEntity
  8
0
370
     0
390
0
100
AcDbVertex
100
AcDb2dVertex
 10
214.318192
 20
-21.652122
 30
0.0
  0
VERTEX
  5
55
100
AcDbEntity
  8
0
370
     0
390
0
100
AcDbVertex
100
AcDb2dVertex
 10
213.828995
 20
-21.551258
 30
0.0
  0
VERTEX
  5
56
100
AcDbEntity
  8
0
370
     0
390
0
100
AcDbVertex
100
AcDb2dVertex
 10
213.334763
 20
-21.652122
 30
0.0
  0
VERTEX
  5
57
100
AcDbEntity
  8
0
370
     0
390
0
100
AcDbVertex
100
AcDb2dVertex
 10
212.966599
 20
-21.934544
 30
0.0
  0
VERTEX
  5
58
100
AcDbEntity
  8
0
370
     0
390
0
100
AcDbVertex
100
AcDb2dVertex
 10
212.734619
 20
-22.388435
 30
0.0
  0
SEQEND
  5
59
100
AcDbEntity
  8
0
370
     0
390
0
  0
POLYLINE
  5
5A
100
AcDbEntity
  8
0
370
    13
390
0
 62
     7
100
AcDb2dPolyline
 66
     1
 10
0.0
 20
0.0
 30
0.0
 70
     1
 71
    16
  0
VERTEX
  5
5B
100
AcDbEntity
  8
0
370
     0
390
0
100
AcDbVertex
100
AcDb2dVertex
 10
213.107819
 20
-22.998665
 30
0.0
  0
VERTEX
  5
5C
100
AcDbEntity
  8
0
370
     0
390
0
100
AcDbVertex
100
AcDb2dVertex
 10
213.153198
 20
-22.544775
 30
0.0
  0
VERTEX
  5
5D
100
AcDbEntity
  8
0
370
     0
390
0
100
AcDbVertex
100
AcDb2dVertex
 10
213.294418
 20
-22.216965
 30
0.0
  0
VERTEX
  5
5E
100
AcDbEntity
  8
0
370
     0
390
0
100
AcDbVertex
100
AcDb2dVertex
 10
213.521362
 20
-22.015236
 30
0.0
  0
VERTEX
  5
5F
100
AcDbEntity
  8
0
370
     0
390
0
100
AcDbVertex
100
AcDb2dVertex
 10
213.828995
 20
-21.94463
 30
0.0
  0
VERTEX
  5
60
100
AcDbEntity
  8
0
370
     0
390
0
100
AcDbVertex
100
AcDb2dVertex
 10
214.131592
 20
-22.015236
 30
0.0
  0
VERTEX
  5
61
100
AcDbEntity
  8
0
370
     0
390
0
100
AcDbVertex
100
AcDb2dVertex
 10
214.358536
 20
-22.211922
 30
0.0
  0
VERTEX
  5
62
100
AcDbEntity
  8
0
370
     0
390
0
100
AcDbVertex
100
AcDb2dVertex
 10
214.499741
 20
-22.544775
 30
0.0
  0
VERTEX
  5
63
100
AcDbEntity
  8
0
370
     0
390
0
100
AcDbVertex
100
AcDb2dVertex
 10
214.550171
 20
-22.998665
 30
0.0
  0
VERTEX
  5
64
100
AcDbEntity
  8
0
370
     0
390
0
100
AcDbVertex
100
AcDb2dVertex
 10
214.499741
 20
-23.4576
 30
0.0
  0
VERTEX
  5
65
100
AcDbEntity
  8
0
370
     0
390
0
100
AcDbVertex
100
AcDb2dVertex
 10
214.358536
 20
-23.790451
 30
0.0
  0
VERTEX
  5
66
100
AcDbEntity
  8
0
370
     0
390
0
100
AcDbVertex
100
AcDb2dVertex
 10
214.131592
 20
-23.992182
 30
0.0
  0
VERTEX
  5
67
100
AcDbEntity
  8
0
370
     0
390
0
100
AcDbVertex
100
AcDb2dVertex
 10
213.828995
 20
-24.057743
 30
0.0
  0
VERTEX
  5
68
100
AcDbEntity
  8
0
370
     0
390
0
100
AcDbVertex
100
AcDb2dVertex
 10
213.521362
 20
-23.992182
 30
0.0
  0
VERTEX
  5
69
100
AcDbEntity
  8
0
370
     0
390
0
100
AcDbVertex
100
AcDb2dVertex
 10
213.294418
 20
-23.790451
 30
0.0
  0
VERTEX
  5
6A
100
AcDbEntity
  8
0
370
     0
390
0
100
AcDbVertex
100
AcDb2dVertex
 10
213.153198
 20
-23.4576
 30
0.0
  0
SEQEND
  5
6B
100
AcDbEntity
  8
0
370
     0
390
0
  0
POLYLINE
  5
6C
100
AcDbEntity
  8
0
370
    13
390
0
 62
     7
100
AcDb2dPolyline
 66
     1
 10
0.0
 20
0.0
 30
0.0
 70
     1
 71
    24
  0
VERTEX
  5
6D
100
AcDbEntity
  8
0
370
     0
390
0
100
AcDbVertex
100
AcDb2dVertex
 10
215.821075
 20
-24.355293
 30
0.0
  0
VERTEX
  5
6E
100
AcDbEntity
  8
0
370
     0
390
0
100
AcDbVertex
100
AcDb2dVertex
 10
216.264877
 20
-24.355293
 30
0.0
  0
VERTEX
  5
6F
100
AcDbEntity
  8
0
370
     0
390
0
100
AcDbVertex
100
AcDb2dVertex
 10
216.264877
 20
-22.791893
 30
0.0
  0
VERTEX
  5
70
100
AcDbEntity
  8
0
370
     0
390
0
100
AcDbVertex
100
AcDb2dVertex
 10
216.310257
 20
-22.433823
 30
0.0
  0
VERTEX
  5
71
100
AcDbEntity
  8
0
370
     0
390
0
100
AcDbVertex
100
AcDb2dVertex
 10
216.456512
 20
-22.171576
 30
0.0
  0
VERTEX
  5
72
100
AcDbEntity
  8
0
370
     0
390
0
100
AcDbVertex
100
AcDb2dVertex
 10
216.683456
 20
-22.010193
 30
0.0
  0
VERTEX
  5
73
100
AcDbEntity
  8
0
370
     0
390
0
100
AcDbVertex
100
AcDb2dVertex
 10
216.986053
 20
-21.949673
 30
0.0
  0
VERTEX
  5
74
100
AcDbEntity
  8
0
370
     0
390
0
100
AcDbVertex
100
AcDb2dVertex
 10
217.228134
 20
-22.000107
 30
0.0
  0
VERTEX
  5
75
100
AcDbEntity
  8
0
370
     0
390
0
100
AcDbVertex
100
AcDb2dVertex
 10
217.379425
 20
-22.136272
 30
0.0
  0
VERTEX
  5
76
100
AcDbEntity
  8
0
370
     0
390
0
100
AcDbVertex
100
AcDb2dVertex
 10
217.455078
 20
-22.363218
 30
0.0
  0
VERTEX
  5
77
100
AcDbEntity
  8
0
370
     0
390
0
100
AcDbVertex
100
AcDb2dVertex
 10
217.480286
 20
-22.665812
 30
0.0
  0
VERTEX
  5
78
100
AcDbEntity
  8
0
370
     0
390
0
100
AcDbVertex
100
AcDb2dVertex
 10
217.480286
 20
-24.355293
 30
0.0
  0
VERTEX
  5
79
100
AcDbEntity
  8
0
370
     0
390
0
100
AcDbVertex
100
AcDb2dVertex
 10
217.924103
 20
-24.355293
 30
0.0
  0
VERTEX
  5
7A
100
AcDbEntity
  8
0
370
     0
390
0
100
AcDbVertex
100
AcDb2dVertex
 10
217.924103
 20
-22.575033
 30
0.0
  0
VERTEX
  5
7B
100
AcDbEntity
  8
0
370
     0
390
0
100
AcDbVertex
100
AcDb2dVertex
 10
217.903931
 20
-22.216965
 30
0.0
  0
VERTEX
  5
7C
100
AcDbEntity
  8
0
370
     0
390
0
100
AcDbVertex
100
AcDb2dVertex
 10
217.813141
 20
-21.919415
 30
0.0
  0
VERTEX
  5
7D
100
AcDbEntity
  8
0
370
     0
390
0
100
AcDbVertex
100
AcDb2dVertex
 10
217.515594
 20
-21.647079
 30
0.0
  0
VERTEX
  5
7E
100
AcDbEntity
  8
0
370
     0
390
0
100
AcDbVertex
100
AcDb2dVertex
 10
217.05162
 20
-21.551258
 30
0.0
  0
VERTEX
  5
7F
100
AcDbEntity
  8
0
370
     0
390
0
100
AcDbVertex
100
AcDb2dVertex
 10
216.794418
 20
-21.586561
 30
0.0
  0
VERTEX
  5
80
100
AcDbEntity
  8
0
370
     0
390
0
100
AcDbVertex
100
AcDb2dVertex
 10
216.57756
 20
-21.682383
 30
0.0
  0
VERTEX
  5
81
100
AcDbEntity
  8
0
370
     0
390
0
100
AcDbVertex
100
AcDb2dVertex
 10
216.390961
 20
-21.843765
 30
0.0
  0
VERTEX
  5
82
100
AcDbEntity
  8
0
370
     0
390
0
100
AcDbVertex
100
AcDb2dVertex
 10
216.244705
 20
-22.060625
 30
0.0
  0
VERTEX
  5
83
100
AcDbEntity
  8
0
370
     0
390
0
100
AcDbVertex
100
AcDb2dVertex
 10
216.244705
 20
-21.647079
 30
0.0
  0
VERTEX
  5
84
100
AcDbEntity
  8
0
370
     0
390
0
100
AcDbVertex
100
AcDb2dVertex
 10
215.821075
 20
-21.647079
 30
0.0
  0
SEQEND
  5
85
100
AcDbEntity
  8
0
370
     0
390
0
  0
POLYLINE
  5
86
100
AcDbEntity
  8
0
370
    13
390
0
 62
     7
100
AcDb2dPolyline
 66
     1
 10
0.0
 20
0.0
 30
0.0
 70
     1
 71
    22
  0
VERTEX
  5
87
100
AcDbEntity
  8
0
370
     0
390
0
100
AcDbVertex
100
AcDb2dVertex
 10
219.452194
 20
-22.1161
 30
0.0
  0
VERTEX
  5
88
100
AcDbEntity
  8
0
370
     0
390
0
100
AcDbVertex
100
AcDb2dVertex
 10
219.452194
 20
-23.472729
 30
0.0
  0
VERTEX
  5
89
100
AcDbEntity
  8
0
370
     0
390
0
100
AcDbVertex
100
AcDb2dVertex
 10
219.482452
 20
-23.911489
 30
0.0
  0
VERTEX
  5
8A
100
AcDbEntity
  8
0
370
     0
390
0
100
AcDbVertex
100
AcDb2dVertex
 10
219.623657
 20
-24.214083
 30
0.0
  0
VERTEX
  5
8B
100
AcDbEntity
  8
0
370
     0
390
0
100
AcDbVertex
100
AcDb2dVertex
 10
219.906082
 20
-24.390596
 30
0.0
  0
VERTEX
  5
8C
100
AcDbEntity
  8
0
370
     0
390
0
100
AcDbVertex
100
AcDb2dVertex
 10
220.385193
 20
-24.451115
 30
0.0
  0
VERTEX
  5
8D
100
AcDbEntity
  8
0
370
     0
390
0
100
AcDbVertex
100
AcDb2dVertex
 10
220.909683
 20
-24.425898
 30
0.0
  0
VERTEX
  5
8E
100
AcDbEntity
  8
0
370
     0
390
0
100
AcDbVertex
100
AcDb2dVertex
 10
220.909683
 20
-24.042614
 30
0.0
  0
VERTEX
  5
8F
100
AcDbEntity
  8
0
370
     0
390
0
100
AcDbVertex
100
AcDb2dVertex
 10
220.526398
 20
-24.072872
 30
0.0
  0
VERTEX
  5
90
100
AcDbEntity
  8
0
370
     0
390
0
100
AcDbVertex
100
AcDb2dVertex
 10
220.178421
 20
-24.032526
 30
0.0
  0
VERTEX
  5
91
100
AcDbEntity
  8
0
370
     0
390
0
100
AcDbVertex
100
AcDb2dVertex
 10
219.991821
 20
-23.906446
 30
0.0
  0
VERTEX
  5
92
100
AcDbEntity
  8
0
370
     0
390
0
100
AcDbVertex
100
AcDb2dVertex
 10
219.911133
 20
-23.69463
 30
0.0
  0
VERTEX
  5
93
100
AcDbEntity
  8
0
370
     0
390
0
100
AcDbVertex
100
AcDb2dVertex
 10
219.895996
 20
-23.397079
 30
0.0
  0
VERTEX
  5
94
100
AcDbEntity
  8
0
370
     0
390
0
100
AcDbVertex
100
AcDb2dVertex
 10
219.895996
 20
-22.1161
 30
0.0
  0
VERTEX
  5
95
100
AcDbEntity
  8
0
370
     0
390
0
100
AcDbVertex
100
AcDb2dVertex
 10
220.909683
 20
-22.1161
 30
0.0
  0
VERTEX
  5
96
100
AcDbEntity
  8
0
370
     0
390
0
100
AcDbVertex
100
AcDb2dVertex
 10
220.909683
 20
-21.737858
 30
0.0
  0
VERTEX
  5
97
100
AcDbEntity
  8
0
370
     0
390
0
100
AcDbVertex
100
AcDb2dVertex
 10
219.895996
 20
-21.737858
 30
0.0
  0
VERTEX
  5
98
100
AcDbEntity
  8
0
370
     0
390
0
100
AcDbVertex
100
AcDb2dVertex
 10
219.895996
 20
-20.946072
 30
0.0
  0
VERTEX
  5
99
100
AcDbEntity
  8
0
370
     0
390
0
100
AcDbVertex
100
AcDb2dVertex
 10
219.452194
 20
-20.946072
 30
0.0
  0
VERTEX
  5
9A
100
AcDbEntity
  8
0
370
     0
390
0
100
AcDbVertex
100
AcDb2dVertex
 10
219.452194
 20
-21.737858
 30
0.0
  0
VERTEX
  5
9B
100
AcDbEntity
  8
0
370
     0
390
0
100
AcDbVertex
100
AcDb2dVertex
 10
218.685623
 20
-21.737858
 30
0.0
  0
VERTEX
  5
9C
100
AcDbEntity
  8
0
370
     0
390
0
100
AcDbVertex
100
AcDb2dVertex
 10
218.685623
 20
-22.1161
 30
0.0
  0
SEQEND
  5
9D
100
AcDbEntity
  8
0
370
     0
390
0
  0
POLYLINE
  5
9E
100
AcDbEntity
  8
0
370
    13
390
0
 62
     7
100
AcDb2dPolyline
 66
     1
 10
0.0
 20
0.0
 30
0.0
 70
     1
 71
     7
  0
VERTEX
  5
9F
100
AcDbEntity
  8
0
370
     0
390
0
100
AcDbVertex
100
AcDb2dVertex
 10
225.741104
 20
-24.355293
 30
0.0
  0
VERTEX
  5
A0
100
AcDbEntity
  8
0
370
     0
390
0
100
AcDbVertex
100
AcDb2dVertex
 10
226.210114
 20
-24.355293
 30
0.0
  0
VERTEX
  5
A1
100
AcDbEntity
  8
0
370
     0
390
0
100
AcDbVertex
100
AcDb2dVertex
 10
227.198593
 20
-21.647079
 30
0.0
  0
VERTEX
  5
A2
100
AcDbEntity
  8
0
370
     0
390
0
100
AcDbVertex
100
AcDb2dVertex
 10
226.739655
 20
-21.647079
 30
0.0
  0
VERTEX
  5
A3
100
AcDbEntity
  8
0
370
     0
390
0
100
AcDbVertex
100
AcDb2dVertex
 10
225.978134
 20
-23.830797
 30
0.0
  0
VERTEX
  5
A4
100
AcDbEntity
  8
0
370
     0
390
0
100
AcDbVertex
100
AcDb2dVertex
 10
225.201477
 20
-21.647079
 30
0.0
  0
VERTEX
  5
A5
100
AcDbEntity
  8
0
370
     0
390
0
100
AcDbVertex
100
AcDb2dVertex
 10
224.737503
 20
-21.647079
 30
0.0
  0
SEQEND
  5
A6
100
AcDbEntity
  8
0
370
     0
390
0
  0
POLYLINE
  5
A7
100
AcDbEntity
  8
0
370
    13
390
0
 62
     7
100
AcDb2dPolyline
 66
     1
 10
0.0
 20
0.0
 30
0.0
 70
     1
 71
    10
  0
VERTEX
  5
A8
100
AcDbEntity
  8
0
370
     0
390
0
100
AcDbVertex
100
AcDb2dVertex
 10
229.321793
 20
-23.982094
 30
0.0
  0
VERTEX
  5
A9
100
AcDbEntity
  8
0
370
     0
390
0
100
AcDbVertex
100
AcDb2dVertex
 10
229.321793
 20
-21.737858
 30
0.0
  0
VERTEX
  5
AA
100
AcDbEntity
  8
0
370
     0
390
0
100
AcDbVertex
100
AcDb2dVertex
 10
228.182022
 20
-21.737858
 30
0.0
  0
VERTEX
  5
AB
100
AcDbEntity
  8
0
370
     0
390
0
100
AcDbVertex
100
AcDb2dVertex
 10
228.182022
 20
-22.1161
 30
0.0
  0
VERTEX
  5
AC
100
AcDbEntity
  8
0
370
     0
390
0
100
AcDbVertex
100
AcDb2dVertex
 10
228.877991
 20
-22.1161
 30
0.0
  0
VERTEX
  5
AD
100
AcDbEntity
  8
0
370
     0
390
0
100
AcDbVertex
100
AcDb2dVertex
 10
228.877991
 20
-23.982094
 30
0.0
  0
VERTEX
  5
AE
100
AcDbEntity
  8
0
370
     0
390
0
100
AcDbVertex
100
AcDb2dVertex
 10
227.970215
 20
-23.982094
 30
0.0
  0
VERTEX
  5
AF
100
AcDbEntity
  8
0
370
     0
390
0
100
AcDbVertex
100
AcDb2dVertex
 10
227.970215
 20
-24.355293
 30
0.0
  0
VERTEX
  5
B0
100
AcDbEntity
  8
0
370
     0
390
0
100
AcDbVertex
100
AcDb2dVertex
 10
230.239655
 20
-24.355293
 30
0.0
  0
VERTEX
  5
B1
100
AcDbEntity
  8
0
370
     0
390
0
100
AcDbVertex
100
AcDb2dVertex
 10
230.239655
 20
-23.982094
 30
0.0
  0
SEQEND
  5
B2
100
AcDbEntity
  8
0
370
     0
390
0
  0
POLYLINE
  5
B3
100
AcDbEntity
  8
0
370
    13
390
0
 62
     7
100
AcDb2dPolyline
 66
     1
 10
0.0
 20
0.0
 30
0.0
 70
     1
 71
     4
  0
VERTEX
  5
B4
100
AcDbEntity
  8
0
370
     0
390
0
100
AcDbVertex
100
AcDb2dVertex
 10
229.336914
 20
-20.734257
 30
0.0
  0
VERTEX
  5
B5
100
AcDbEntity
  8
0
370
     0
390
0
100
AcDbVertex
100
AcDb2dVertex
 10
228.867905
 20
-20.734257
 30
0.0
  0
VERTEX
  5
B6
100
AcDbEntity
  8
0
370
     0
390
0
100
AcDbVertex
100
AcDb2dVertex
 10
228.867905
 20
-21.238579
 30
0.0
  0
VERTEX
  5
B7
100
AcDbEntity
  8
0
370
     0
390
0
100
AcDbVertex
100
AcDb2dVertex
 10
229.336914
 20
-21.238579
 30
0.0
  0
SEQEND
  5
B8
100
AcDbEntity
  8
0
370
     0
390
0
  0
POLYLINE
  5
B9
100
AcDbEntity
  8
0
370
    13
390
0
 62
     7
100
AcDb2dPolyline
 66
     1
 10
0.0
 20
0.0
 30
0.0
 70
     1
 71
    27
  0
VERTEX
  5
BA
100
AcDbEntity
  8
0
370
     0
390
0
100
AcDbVertex
100
AcDb2dVertex
 10
231.389511
 20
-23.129789
 30
0.0
  0
VERTEX
  5
BB
100
AcDbEntity
  8
0
370
     0
390
0
100
AcDbVertex
100
AcDb2dVertex
 10
233.164734
 20
-23.129789
 30
0.0
  0
VERTEX
  5
BC
100
AcDbEntity
  8
0
370
     0
390
0
100
AcDbVertex
100
AcDb2dVertex
 10
233.169769
 20
-22.923018
 30
0.0
  0
VERTEX
  5
BD
100
AcDbEntity
  8
0
370
     0
390
0
100
AcDbVertex
100
AcDb2dVertex
 10
233.089081
 20
-22.343046
 30
0.0
  0
VERTEX
  5
BE
100
AcDbEntity
  8
0
370
     0
390
0
100
AcDbVertex
100
AcDb2dVertex
 10
232.867188
 20
-21.909328
 30
0.0
  0
VERTEX
  5
BF
100
AcDbEntity
  8
0
370
     0
390
0
100
AcDbVertex
100
AcDb2dVertex
 10
232.51416
 20
-21.647079
 30
0.0
  0
VERTEX
  5
C0
100
AcDbEntity
  8
0
370
     0
390
0
100
AcDbVertex
100
AcDb2dVertex
 10
232.045135
 20
-21.551258
 30
0.0
  0
VERTEX
  5
C1
100
AcDbEntity
  8
0
370
     0
390
0
100
AcDbVertex
100
AcDb2dVertex
 10
231.586197
 20
-21.652122
 30
0.0
  0
VERTEX
  5
C2
100
AcDbEntity
  8
0
370
     0
390
0
100
AcDbVertex
100
AcDb2dVertex
 10
231.23317
 20
-21.934544
 30
0.0
  0
VERTEX
  5
C3
100
AcDbEntity
  8
0
370
     0
390
0
100
AcDbVertex
100
AcDb2dVertex
 10
231.006226
 20
-22.393478
 30
0.0
  0
VERTEX
  5
C4
100
AcDbEntity
  8
0
370
     0
390
0
100
AcDbVertex
100
AcDb2dVertex
 10
230.925537
 20
-22.998665
 30
0.0
  0
VERTEX
  5
C5
100
AcDbEntity
  8
0
370
     0
390
0
100
AcDbVertex
100
AcDb2dVertex
 10
231.00119
 20
-23.618982
 30
0.0
  0
VERTEX
  5
C6
100
AcDbEntity
  8
0
370
     0
390
0
100
AcDbVertex
100
AcDb2dVertex
 10
231.228134
 20
-24.072872
 30
0.0
  0
VERTEX
  5
C7
100
AcDbEntity
  8
0
370
     0
390
0
100
AcDbVertex
100
AcDb2dVertex
 10
231.576111
 20
-24.355293
 30
0.0
  0
VERTEX
  5
C8
100
AcDbEntity
  8
0
370
     0
390
0
100
AcDbVertex
100
AcDb2dVertex
 10
232.029999
 20
-24.451115
 30
0.0
  0
VERTEX
  5
C9
100
AcDbEntity
  8
0
370
     0
390
0
100
AcDbVertex
100
AcDb2dVertex
 10
232.42337
 20
-24.385553
 30
0.0
  0
VERTEX
  5
CA
100
AcDbEntity
  8
0
370
     0
390
0
100
AcDbVertex
100
AcDb2dVertex
 10
232.74614
 20
-24.214083
 30
0.0
  0
VERTEX
  5
CB
100
AcDbEntity
  8
0
370
     0
390
0
100
AcDbVertex
100
AcDb2dVertex
 10
232.98317
 20
-23.941748
 30
0.0
  0
VERTEX
  5
CC
100
AcDbEntity
  8
0
370
     0
390
0
100
AcDbVertex
100
AcDb2dVertex
 10
233.119339
 20
-23.578636
 30
0.0
  0
VERTEX
  5
CD
100
AcDbEntity
  8
0
370
     0
390
0
100
AcDbVertex
100
AcDb2dVertex
 10
232.680573
 20
-23.578636
 30
0.0
  0
VERTEX
  5
CE
100
AcDbEntity
  8
0
370
     0
390
0
100
AcDbVertex
100
AcDb2dVertex
 10
232.589798
 20
-23.780365
 30
0.0
  0
VERTEX
  5
CF
100
AcDbEntity
  8
0
370
     0
390
0
100
AcDbVertex
100
AcDb2dVertex
 10
232.458679
 20
-23.931662
 30
0.0
  0
VERTEX
  5
D0
100
AcDbEntity
  8
0
370
     0
390
0
100
AcDbVertex
100
AcDb2dVertex
 10
232.08548
 20
-24.0527
 30
0.0
  0
VERTEX
  5
D1
100
AcDbEntity
  8
0
370
     0
390
0
100
AcDbVertex
100
AcDb2dVertex
 10
231.798019
 20
-23.997225
 30
0.0
  0
VERTEX
  5
D2
100
AcDbEntity
  8
0
370
     0
390
0
100
AcDbVertex
100
AcDb2dVertex
 10
231.581161
 20
-23.820711
 30
0.0
  0
VERTEX
  5
D3
100
AcDbEntity
  8
0
370
     0
390
0
100
AcDbVertex
100
AcDb2dVertex
 10
231.439941
 20
-23.533247
 30
0.0
  0
VERTEX
  5
D4
100
AcDbEntity
  8
0
370
     0
390
0
100
AcDbVertex
100
AcDb2dVertex
 10
231.389511
 20
-23.144918
 30
0.0
  0
SEQEND
  5
D5
100
AcDbEntity
  8
0
370
     0
390
0
  0
POLYLINE
  5
D6
100
AcDbEntity
  8
0
370
    13
390
0
 62
     7
100
AcDb2dPolyline
 66
     1
 10
0.0
 20
0.0
 30
0.0
 70
     1
 71
     9
  0
VERTEX
  5
D7
100
AcDbEntity
  8
0
370
     0
390
0
100
AcDbVertex
100
AcDb2dVertex
 10
231.389511
 20
-22.75659
 30
0.0
  0
VERTEX
  5
D8
100
AcDbEntity
  8
0
370
     0
390
0
100
AcDbVertex
100
AcDb2dVertex
 10
231.444992
 20
-22.408607
 30
0.0
  0
VERTEX
  5
D9
100
AcDbEntity
  8
0
370
     0
390
0
100
AcDbVertex
100
AcDb2dVertex
 10
231.581161
 20
-22.151403
 30
0.0
  0
VERTEX
  5
DA
100
AcDbEntity
  8
0
370
     0
390
0
100
AcDbVertex
100
AcDb2dVertex
 10
231.787933
 20
-21.995064
 30
0.0
  0
VERTEX
  5
DB
100
AcDbEntity
  8
0
370
     0
390
0
100
AcDbVertex
100
AcDb2dVertex
 10
232.060272
 20
-21.939587
 30
0.0
  0
VERTEX
  5
DC
100
AcDbEntity
  8
0
370
     0
390
0
100
AcDbVertex
100
AcDb2dVertex
 10
232.32756
 20
-21.995064
 30
0.0
  0
VERTEX
  5
DD
100
AcDbEntity
  8
0
370
     0
390
0
100
AcDbVertex
100
AcDb2dVertex
 10
232.534332
 20
-22.151403
 30
0.0
  0
VERTEX
  5
DE
100
AcDbEntity
  8
0
370
     0
390
0
100
AcDbVertex
100
AcDb2dVertex
 10
232.6604
 20
-22.408607
 30
0.0
  0
VERTEX
  5
DF
100
AcDbEntity
  8
0
370
     0
390
0
100
AcDbVertex
100
AcDb2dVertex
 10
232.705795
 20
-22.75659
 30
0.0
  0
SEQEND
  5
E0
100
AcDbEntity
  8
0
370
     0
390
0
  0
POLYLINE
  5
E1
100
AcDbEntity
  8
0
370
    13
390
0
 62
     7
100
AcDb2dPolyline
 66
     1
 10
0.0
 20
0.0
 30
0.0
 70
     1
 71
    13
  0
VERTEX
  5
E2
100
AcDbEntity
  8
0
370
     0
390
0
100
AcDbVertex
100
AcDb2dVertex
 10
234.677704
 20
-24.355293
 30
0.0
  0
VERTEX
  5
E3
100
AcDbEntity
  8
0
370
     0
390
0
100
AcDbVertex
100
AcDb2dVertex
 10
235.081161
 20
-22.055582
 30
0.0
  0
VERTEX
  5
E4
100
AcDbEntity
  8
0
370
     0
390
0
100
AcDbVertex
100
AcDb2dVertex
 10
235.484619
 20
-24.355293
 30
0.0
  0
VERTEX
  5
E5
100
AcDbEntity
  8
0
370
     0
390
0
100
AcDbVertex
100
AcDb2dVertex
 10
235.908249
 20
-24.355293
 30
0.0
  0
VERTEX
  5
E6
100
AcDbEntity
  8
0
370
     0
390
0
100
AcDbVertex
100
AcDb2dVertex
 10
236.573944
 20
-21.647079
 30
0.0
  0
VERTEX
  5
E7
100
AcDbEntity
  8
0
370
     0
390
0
100
AcDbVertex
100
AcDb2dVertex
 10
236.145279
 20
-21.647079
 30
0.0
  0
VERTEX
  5
E8
100
AcDbEntity
  8
0
370
     0
390
0
100
AcDbVertex
100
AcDb2dVertex
 10
235.696426
 20
-23.946793
 30
0.0
  0
VERTEX
  5
E9
100
AcDbEntity
  8
0
370
     0
390
0
100
AcDbVertex
100
AcDb2dVertex
 10
235.298019
 20
-21.647079
 30
0.0
  0
VERTEX
  5
EA
100
AcDbEntity
  8
0
370
     0
390
0
100
AcDbVertex
100
AcDb2dVertex
 10
234.859253
 20
-21.647079
 30
0.0
  0
VERTEX
  5
EB
100
AcDbEntity
  8
0
370
     0
390
0
100
AcDbVertex
100
AcDb2dVertex
 10
234.460846
 20
-23.946793
 30
0.0
  0
VERTEX
  5
EC
100
AcDbEntity
  8
0
370
     0
390
0
100
AcDbVertex
100
AcDb2dVertex
 10
234.011993
 20
-21.647079
 30
0.0
  0
VERTEX
  5
ED
100
AcDbEntity
  8
0
370
     0
390
0
100
AcDbVertex
100
AcDb2dVertex
 10
233.588364
 20
-21.647079
 30
0.0
  0
VERTEX
  5
EE
100
AcDbEntity
  8
0
370
     0
390
0
100
AcDbVertex
100
AcDb2dVertex
 10
234.254059
 20
-24.355293
 30
0.0
  0
SEQEND
  5
EF
100
AcDbEntity
  8
0
370
     0
390
0
  0
POLYLINE
  5
F0
100
AcDbEntity
  8
0
370
    13
390
0
 62
     7
100
AcDb2dPolyline
 66
     1
 10
0.0
 20
0.0
 30
0.0
 70
     1
 71
    51
  0
VERTEX
  5
F1
100
AcDbEntity
  8
0
370
     0
390
0
100
AcDbVertex
100
AcDb2dVertex
 10
206.960114
 20
-29.247223
 30
0.0
  0
VERTEX
  5
F2
100
AcDbEntity
  8
0
370
     0
390
0
100
AcDbVertex
100
AcDb2dVertex
 10
206.50119
 20
-29.247223
 30
0.0
  0
VERTEX
  5
F3
100
AcDbEntity
  8
0
370
     0
390
0
100
AcDbVertex
100
AcDb2dVertex
 10
206.602051
 20
-29.781805
 30
0.0
  0
VERTEX
  5
F4
100
AcDbEntity
  8
0
370
     0
390
0
100
AcDbVertex
100
AcDb2dVertex
 10
206.854218
 20
-30.175177
 30
0.0
  0
VERTEX
  5
F5
100
AcDbEntity
  8
0
370
     0
390
0
100
AcDbVertex
100
AcDb2dVertex
 10
207.242538
 20
-30.412209
 30
0.0
  0
VERTEX
  5
F6
100
AcDbEntity
  8
0
370
     0
390
0
100
AcDbVertex
100
AcDb2dVertex
 10
207.767029
 20
-30.497944
 30
0.0
  0
VERTEX
  5
F7
100
AcDbEntity
  8
0
370
     0
390
0
100
AcDbVertex
100
AcDb2dVertex
 10
208.286484
 20
-30.417252
 30
0.0
  0
VERTEX
  5
F8
100
AcDbEntity
  8
0
370
     0
390
0
100
AcDbVertex
100
AcDb2dVertex
 10
208.67482
 20
-30.195351
 30
0.0
  0
VERTEX
  5
F9
100
AcDbEntity
  8
0
370
     0
390
0
100
AcDbVertex
100
AcDb2dVertex
 10
208.921936
 20
-29.847368
 30
0.0
  0
VERTEX
  5
FA
100
AcDbEntity
  8
0
370
     0
390
0
100
AcDbVertex
100
AcDb2dVertex
 10
209.012711
 20
-29.388433
 30
0.0
  0
VERTEX
  5
FB
100
AcDbEntity
  8
0
370
     0
390
0
100
AcDbVertex
100
AcDb2dVertex
 10
208.937057
 20
-28.97489
 30
0.0
  0
VERTEX
  5
FC
100
AcDbEntity
  8
0
370
     0
390
0
100
AcDbVertex
100
AcDb2dVertex
 10
208.72525
 20
-28.707598
 30
0.0
  0
VERTEX
  5
FD
100
AcDbEntity
  8
0
370
     0
390
0
100
AcDbVertex
100
AcDb2dVertex
 10
208.382309
 20
-28.531086
 30
0.0
  0
VERTEX
  5
FE
100
AcDbEntity
  8
0
370
     0
390
0
100
AcDbVertex
100
AcDb2dVertex
 10
207.92337
 20
-28.399961
 30
0.0
  0
VERTEX
  5
FF
100
AcDbEntity
  8
0
370
     0
390
0
100
AcDbVertex
100
AcDb2dVertex
 10
207.529999
 20
-28.30414
 30
0.0
  0
VERTEX
  5
100
100
AcDbEntity
  8
0
370
     0
390
0
100
AcDbVertex
100
AcDb2dVertex
 10
207.272797
 20
-28.193188
 30
0.0
  0
VERTEX
  5
101
100
AcDbEntity
  8
0
370
     0
390
0
100
AcDbVertex
100
AcDb2dVertex
 10
207.126541
 20
-28.031805
 30
0.0
  0
VERTEX
  5
102
100
AcDbEntity
  8
0
370
     0
390
0
100
AcDbVertex
100
AcDb2dVertex
 10
207.081161
 20
-27.779644
 30
0.0
  0
VERTEX
  5
103
100
AcDbEntity
  8
0
370
     0
390
0
100
AcDbVertex
100
AcDb2dVertex
 10
207.126541
 20
-27.552698
 30
0.0
  0
VERTEX
  5
104
100
AcDbEntity
  8
0
370
     0
390
0
100
AcDbVertex
100
AcDb2dVertex
 10
207.257675
 20
-27.381229
 30
0.0
  0
VERTEX
  5
105
100
AcDbEntity
  8
0
370
     0
390
0
100
AcDbVertex
100
AcDb2dVertex
 10
207.459396
 20
-27.265236
 30
0.0
  0
VERTEX
  5
106
100
AcDbEntity
  8
0
370
     0
390
0
100
AcDbVertex
100
AcDb2dVertex
 10
207.736771
 20
-27.22489
 30
0.0
  0
VERTEX
  5
107
100
AcDbEntity
  8
0
370
     0
390
0
100
AcDbVertex
100
AcDb2dVertex
 10
208.019196
 20
-27.275322
 30
0.0
  0
VERTEX
  5
108
100
AcDbEntity
  8
0
370
     0
390
0
100
AcDbVertex
100
AcDb2dVertex
 10
208.241104
 20
-27.411488
 30
0.0
  0
VERTEX
  5
109
100
AcDbEntity
  8
0
370
     0
390
0
100
AcDbVertex
100
AcDb2dVertex
 10
208.38736
 20
-27.638433
 30
0.0
  0
VERTEX
  5
10A
100
AcDbEntity
  8
0
370
     0
390
0
100
AcDbVertex
100
AcDb2dVertex
 10
208.457962
 20
-27.946072
 30
0.0
  0
VERTEX
  5
10B
100
AcDbEntity
  8
0
370
     0
390
0
100
AcDbVertex
100
AcDb2dVertex
 10
208.916885
 20
-27.946072
 30
0.0
  0
VERTEX
  5
10C
100
AcDbEntity
  8
0
370
     0
390
0
100
AcDbVertex
100
AcDb2dVertex
 10
208.916885
 20
-27.935984
 30
0.0
  0
VERTEX
  5
10D
100
AcDbEntity
  8
0
370
     0
390
0
100
AcDbVertex
100
AcDb2dVertex
 10
208.836197
 20
-27.461922
 30
0.0
  0
VERTEX
  5
10E
100
AcDbEntity
  8
0
370
     0
390
0
100
AcDbVertex
100
AcDb2dVertex
 10
208.599167
 20
-27.108894
 30
0.0
  0
VERTEX
  5
10F
100
AcDbEntity
  8
0
370
     0
390
0
100
AcDbVertex
100
AcDb2dVertex
 10
208.225967
 20
-26.886993
 30
0.0
  0
VERTEX
  5
110
100
AcDbEntity
  8
0
370
     0
390
0
100
AcDbVertex
100
AcDb2dVertex
 10
207.721649
 20
-26.811344
 30
0.0
  0
VERTEX
  5
111
100
AcDbEntity
  8
0
370
     0
390
0
100
AcDbVertex
100
AcDb2dVertex
 10
207.267761
 20
-26.886993
 30
0.0
  0
VERTEX
  5
112
100
AcDbEntity
  8
0
370
     0
390
0
100
AcDbVertex
100
AcDb2dVertex
 10
206.914734
 20
-27.098808
 30
0.0
  0
VERTEX
  5
113
100
AcDbEntity
  8
0
370
     0
390
0
100
AcDbVertex
100
AcDb2dVertex
 10
206.68779
 20
-27.426619
 30
0.0
  0
VERTEX
  5
114
100
AcDbEntity
  8
0
370
     0
390
0
100
AcDbVertex
100
AcDb2dVertex
 10
206.607086
 20
-27.85025
 30
0.0
  0
VERTEX
  5
115
100
AcDbEntity
  8
0
370
     0
390
0
100
AcDbVertex
100
AcDb2dVertex
 10
206.672653
 20
-28.228491
 30
0.0
  0
VERTEX
  5
116
100
AcDbEntity
  8
0
370
     0
390
0
100
AcDbVertex
100
AcDb2dVertex
 10
206.864304
 20
-28.485697
 30
0.0
  0
VERTEX
  5
117
100
AcDbEntity
  8
0
370
     0
390
0
100
AcDbVertex
100
AcDb2dVertex
 10
207.166885
 20
-28.657166
 30
0.0
  0
VERTEX
  5
118
100
AcDbEntity
  8
0
370
     0
390
0
100
AcDbVertex
100
AcDb2dVertex
 10
207.580429
 20
-28.78829
 30
0.0
  0
VERTEX
  5
119
100
AcDbEntity
  8
0
370
     0
390
0
100
AcDbVertex
100
AcDb2dVertex
 10
207.988937
 20
-28.904284
 30
0.0
  0
VERTEX
  5
11A
100
AcDbEntity
  8
0
370
     0
390
0
100
AcDbVertex
100
AcDb2dVertex
 10
208.29657
 20
-29.015234
 30
0.0
  0
VERTEX
  5
11B
100
AcDbEntity
  8
0
370
     0
390
0
100
AcDbVertex
100
AcDb2dVertex
 10
208.48317
 20
-29.176619
 30
0.0
  0
VERTEX
  5
11C
100
AcDbEntity
  8
0
370
     0
390
0
100
AcDbVertex
100
AcDb2dVertex
 10
208.548737
 20
-29.438866
 30
0.0
  0
VERTEX
  5
11D
100
AcDbEntity
  8
0
370
     0
390
0
100
AcDbVertex
100
AcDb2dVertex
 10
208.48822
 20
-29.706158
 30
0.0
  0
VERTEX
  5
11E
100
AcDbEntity
  8
0
370
     0
390
0
100
AcDbVertex
100
AcDb2dVertex
 10
208.331879
 20
-29.907887
 30
0.0
  0
VERTEX
  5
11F
100
AcDbEntity
  8
0
370
     0
390
0
100
AcDbVertex
100
AcDb2dVertex
 10
208.094849
 20
-30.033966
 30
0.0
  0
VERTEX
  5
120
100
AcDbEntity
  8
0
370
     0
390
0
100
AcDbVertex
100
AcDb2dVertex
 10
207.787201
 20
-30.074312
 30
0.0
  0
VERTEX
  5
121
100
AcDbEntity
  8
0
370
     0
390
0
100
AcDbVertex
100
AcDb2dVertex
 10
207.444275
 20
-30.018837
 30
0.0
  0
VERTEX
  5
122
100
AcDbEntity
  8
0
370
     0
390
0
100
AcDbVertex
100
AcDb2dVertex
 10
207.182022
 20
-29.857454
 30
0.0
  0
VERTEX
  5
123
100
AcDbEntity
  8
0
370
     0
390
0
100
AcDbVertex
100
AcDb2dVertex
 10
207.015594
 20
-29.595205
 30
0.0
  0
SEQEND
  5
124
100
AcDbEntity
  8
0
370
     0
390
0
  0
POLYLINE
  5
125
100
AcDbEntity
  8
0
370
    13
390
0
 62
     7
100
AcDb2dPolyline
 66
     1
 10
0.0
 20
0.0
 30
0.0
 70
     1
 71
    34
  0
VERTEX
  5
126
100
AcDbEntity
  8
0
370
     0
390
0
100
AcDbVertex
100
AcDb2dVertex
 10
211.473801
 20
-28.591604
 30
0.0
  0
VERTEX
  5
127
100
AcDbEntity
  8
0
370
     0
390
0
100
AcDbVertex
100
AcDb2dVertex
 10
211.912567
 20
-28.591604
 30
0.0
  0
VERTEX
  5
128
100
AcDbEntity
  8
0
370
     0
390
0
100
AcDbVertex
100
AcDb2dVertex
 10
211.821793
 20
-28.188145
 30
0.0
  0
VERTEX
  5
129
100
AcDbEntity
  8
0
370
     0
390
0
100
AcDbVertex
100
AcDb2dVertex
 10
211.604935
 20
-27.870422
 30
0.0
  0
VERTEX
  5
12A
100
AcDbEntity
  8
0
370
     0
390
0
100
AcDbVertex
100
AcDb2dVertex
 10
211.267029
 20
-27.673737
 30
0.0
  0
VERTEX
  5
12B
100
AcDbEntity
  8
0
370
     0
390
0
100
AcDbVertex
100
AcDb2dVertex
 10
210.828278
 20
-27.598087
 30
0.0
  0
VERTEX
  5
12C
100
AcDbEntity
  8
0
370
     0
390
0
100
AcDbVertex
100
AcDb2dVertex
 10
210.344131
 20
-27.698952
 30
0.0
  0
VERTEX
  5
12D
100
AcDbEntity
  8
0
370
     0
390
0
100
AcDbVertex
100
AcDb2dVertex
 10
209.975967
 20
-27.981373
 30
0.0
  0
VERTEX
  5
12E
100
AcDbEntity
  8
0
370
     0
390
0
100
AcDbVertex
100
AcDb2dVertex
 10
209.743988
 20
-28.440308
 30
0.0
  0
VERTEX
  5
12F
100
AcDbEntity
  8
0
370
     0
390
0
100
AcDbVertex
100
AcDb2dVertex
 10
209.663284
 20
-29.05558
 30
0.0
  0
VERTEX
  5
130
100
AcDbEntity
  8
0
370
     0
390
0
100
AcDbVertex
100
AcDb2dVertex
 10
209.738937
 20
-29.665812
 30
0.0
  0
VERTEX
  5
131
100
AcDbEntity
  8
0
370
     0
390
0
100
AcDbVertex
100
AcDb2dVertex
 10
209.965881
 20
-30.119701
 30
0.0
  0
VERTEX
  5
132
100
AcDbEntity
  8
0
370
     0
390
0
100
AcDbVertex
100
AcDb2dVertex
 10
210.323944
 20
-30.402122
 30
0.0
  0
VERTEX
  5
133
100
AcDbEntity
  8
0
370
     0
390
0
100
AcDbVertex
100
AcDb2dVertex
 10
210.813141
 20
-30.497944
 30
0.0
  0
VERTEX
  5
134
100
AcDbEntity
  8
0
370
     0
390
0
100
AcDbVertex
100
AcDb2dVertex
 10
211.246857
 20
-30.422295
 30
0.0
  0
VERTEX
  5
135
100
AcDbEntity
  8
0
370
     0
390
0
100
AcDbVertex
100
AcDb2dVertex
 10
211.584763
 20
-30.21048
 30
0.0
  0
VERTEX
  5
136
100
AcDbEntity
  8
0
370
     0
390
0
100
AcDbVertex
100
AcDb2dVertex
 10
211.816742
 20
-29.877626
 30
0.0
  0
VERTEX
  5
137
100
AcDbEntity
  8
0
370
     0
390
0
100
AcDbVertex
100
AcDb2dVertex
 10
211.917618
 20
-29.433823
 30
0.0
  0
VERTEX
  5
138
100
AcDbEntity
  8
0
370
     0
390
0
100
AcDbVertex
100
AcDb2dVertex
 10
211.493988
 20
-29.433823
 30
0.0
  0
VERTEX
  5
139
100
AcDbEntity
  8
0
370
     0
390
0
100
AcDbVertex
100
AcDb2dVertex
 10
211.418335
 20
-29.716244
 30
0.0
  0
VERTEX
  5
13A
100
AcDbEntity
  8
0
370
     0
390
0
100
AcDbVertex
100
AcDb2dVertex
 10
211.277115
 20
-29.928059
 30
0.0
  0
VERTEX
  5
13B
100
AcDbEntity
  8
0
370
     0
390
0
100
AcDbVertex
100
AcDb2dVertex
 10
211.075394
 20
-30.059183
 30
0.0
  0
VERTEX
  5
13C
100
AcDbEntity
  8
0
370
     0
390
0
100
AcDbVertex
100
AcDb2dVertex
 10
210.828278
 20
-30.099529
 30
0.0
  0
VERTEX
  5
13D
100
AcDbEntity
  8
0
370
     0
390
0
100
AcDbVertex
100
AcDb2dVertex
 10
210.52063
 20
-30.033966
 30
0.0
  0
VERTEX
  5
13E
100
AcDbEntity
  8
0
370
     0
390
0
100
AcDbVertex
100
AcDb2dVertex
 10
210.298737
 20
-29.832237
 30
0.0
  0
VERTEX
  5
13F
100
AcDbEntity
  8
0
370
     0
390
0
100
AcDbVertex
100
AcDb2dVertex
 10
210.162567
 20
-29.504429
 30
0.0
  0
VERTEX
  5
140
100
AcDbEntity
  8
0
370
     0
390
0
100
AcDbVertex
100
AcDb2dVertex
 10
210.117172
 20
-29.040451
 30
0.0
  0
VERTEX
  5
141
100
AcDbEntity
  8
0
370
     0
390
0
100
AcDbVertex
100
AcDb2dVertex
 10
210.162567
 20
-28.586561
 30
0.0
  0
VERTEX
  5
142
100
AcDbEntity
  8
0
370
     0
390
0
100
AcDbVertex
100
AcDb2dVertex
 10
210.303772
 20
-28.258751
 30
0.0
  0
VERTEX
  5
143
100
AcDbEntity
  8
0
370
     0
390
0
100
AcDbVertex
100
AcDb2dVertex
 10
210.530731
 20
-28.057022
 30
0.0
  0
VERTEX
  5
144
100
AcDbEntity
  8
0
370
     0
390
0
100
AcDbVertex
100
AcDb2dVertex
 10
210.828278
 20
-27.986416
 30
0.0
  0
VERTEX
  5
145
100
AcDbEntity
  8
0
370
     0
390
0
100
AcDbVertex
100
AcDb2dVertex
 10
211.090515
 20
-28.031805
 30
0.0
  0
VERTEX
  5
146
100
AcDbEntity
  8
0
370
     0
390
0
100
AcDbVertex
100
AcDb2dVertex
 10
211.287201
 20
-28.1478
 30
0.0
  0
VERTEX
  5
147
100
AcDbEntity
  8
0
370
     0
390
0
100
AcDbVertex
100
AcDb2dVertex
 10
211.418335
 20
-28.339443
 30
0.0
  0
SEQEND
  5
148
100
AcDbEntity
  8
0
370
     0
390
0
  0
POLYLINE
  5
149
100
AcDbEntity
  8
0
370
    13
390
0
 62
     7
100
AcDb2dPolyline
 66
     1
 10
0.0
 20
0.0
 30
0.0
 70
     1
 71
    42
  0
VERTEX
  5
14A
100
AcDbEntity
  8
0
370
     0
390
0
100
AcDbVertex
100
AcDb2dVertex
 10
214.393829
 20
-30.049097
 30
0.0
  0
VERTEX
  5
14B
100
AcDbEntity
  8
0
370
     0
390
0
100
AcDbVertex
100
AcDb2dVertex
 10
214.393829
 20
-30.064226
 30
0.0
  0
VERTEX
  5
14C
100
AcDbEntity
  8
0
370
     0
390
0
100
AcDbVertex
100
AcDb2dVertex
 10
214.419052
 20
-30.235697
 30
0.0
  0
VERTEX
  5
14D
100
AcDbEntity
  8
0
370
     0
390
0
100
AcDbVertex
100
AcDb2dVertex
 10
214.494705
 20
-30.356733
 30
0.0
  0
VERTEX
  5
14E
100
AcDbEntity
  8
0
370
     0
390
0
100
AcDbVertex
100
AcDb2dVertex
 10
214.812424
 20
-30.452555
 30
0.0
  0
VERTEX
  5
14F
100
AcDbEntity
  8
0
370
     0
390
0
100
AcDbVertex
100
AcDb2dVertex
 10
215.05954
 20
-30.412209
 30
0.0
  0
VERTEX
  5
150
100
AcDbEntity
  8
0
370
     0
390
0
100
AcDbVertex
100
AcDb2dVertex
 10
215.05954
 20
-30.069269
 30
0.0
  0
VERTEX
  5
151
100
AcDbEntity
  8
0
370
     0
390
0
100
AcDbVertex
100
AcDb2dVertex
 10
214.953629
 20
-30.084398
 30
0.0
  0
VERTEX
  5
152
100
AcDbEntity
  8
0
370
     0
390
0
100
AcDbVertex
100
AcDb2dVertex
 10
214.812424
 20
-30.018837
 30
0.0
  0
VERTEX
  5
153
100
AcDbEntity
  8
0
370
     0
390
0
100
AcDbVertex
100
AcDb2dVertex
 10
214.787201
 20
-29.817108
 30
0.0
  0
VERTEX
  5
154
100
AcDbEntity
  8
0
370
     0
390
0
100
AcDbVertex
100
AcDb2dVertex
 10
214.787201
 20
-28.415091
 30
0.0
  0
VERTEX
  5
155
100
AcDbEntity
  8
0
370
     0
390
0
100
AcDbVertex
100
AcDb2dVertex
 10
214.726685
 20
-28.057022
 30
0.0
  0
VERTEX
  5
156
100
AcDbEntity
  8
0
370
     0
390
0
100
AcDbVertex
100
AcDb2dVertex
 10
214.550171
 20
-27.804861
 30
0.0
  0
VERTEX
  5
157
100
AcDbEntity
  8
0
370
     0
390
0
100
AcDbVertex
100
AcDb2dVertex
 10
214.242538
 20
-27.653564
 30
0.0
  0
VERTEX
  5
158
100
AcDbEntity
  8
0
370
     0
390
0
100
AcDbVertex
100
AcDb2dVertex
 10
213.808823
 20
-27.598087
 30
0.0
  0
VERTEX
  5
159
100
AcDbEntity
  8
0
370
     0
390
0
100
AcDbVertex
100
AcDb2dVertex
 10
213.385193
 20
-27.658607
 30
0.0
  0
VERTEX
  5
15A
100
AcDbEntity
  8
0
370
     0
390
0
100
AcDbVertex
100
AcDb2dVertex
 10
213.07251
 20
-27.830076
 30
0.0
  0
VERTEX
  5
15B
100
AcDbEntity
  8
0
370
     0
390
0
100
AcDbVertex
100
AcDb2dVertex
 10
212.875824
 20
-28.097368
 30
0.0
  0
VERTEX
  5
15C
100
AcDbEntity
  8
0
370
     0
390
0
100
AcDbVertex
100
AcDb2dVertex
 10
212.810257
 20
-28.450394
 30
0.0
  0
VERTEX
  5
15D
100
AcDbEntity
  8
0
370
     0
390
0
100
AcDbVertex
100
AcDb2dVertex
 10
212.810257
 20
-28.480652
 30
0.0
  0
VERTEX
  5
15E
100
AcDbEntity
  8
0
370
     0
390
0
100
AcDbVertex
100
AcDb2dVertex
 10
213.208679
 20
-28.480652
 30
0.0
  0
VERTEX
  5
15F
100
AcDbEntity
  8
0
370
     0
390
0
100
AcDbVertex
100
AcDb2dVertex
 10
213.243988
 20
-28.268837
 30
0.0
  0
VERTEX
  5
160
100
AcDbEntity
  8
0
370
     0
390
0
100
AcDbVertex
100
AcDb2dVertex
 10
213.354935
 20
-28.11754
 30
0.0
  0
VERTEX
  5
161
100
AcDbEntity
  8
0
370
     0
390
0
100
AcDbVertex
100
AcDb2dVertex
 10
213.536484
 20
-28.026762
 30
0.0
  0
VERTEX
  5
162
100
AcDbEntity
  8
0
370
     0
390
0
100
AcDbVertex
100
AcDb2dVertex
 10
213.793686
 20
-27.991459
 30
0.0
  0
VERTEX
  5
163
100
AcDbEntity
  8
0
370
     0
390
0
100
AcDbVertex
100
AcDb2dVertex
 10
214.040817
 20
-28.016676
 30
0.0
  0
VERTEX
  5
164
100
AcDbEntity
  8
0
370
     0
390
0
100
AcDbVertex
100
AcDb2dVertex
 10
214.217331
 20
-28.092323
 30
0.0
  0
VERTEX
  5
165
100
AcDbEntity
  8
0
370
     0
390
0
100
AcDbVertex
100
AcDb2dVertex
 10
214.323227
 20
-28.223448
 30
0.0
  0
VERTEX
  5
166
100
AcDbEntity
  8
0
370
     0
390
0
100
AcDbVertex
100
AcDb2dVertex
 10
214.358536
 20
-28.405005
 30
0.0
  0
VERTEX
  5
167
100
AcDbEntity
  8
0
370
     0
390
0
100
AcDbVertex
100
AcDb2dVertex
 10
214.338364
 20
-28.616819
 30
0.0
  0
VERTEX
  5
168
100
AcDbEntity
  8
0
370
     0
390
0
100
AcDbVertex
100
AcDb2dVertex
 10
214.257675
 20
-28.722727
 30
0.0
  0
VERTEX
  5
169
100
AcDbEntity
  8
0
370
     0
390
0
100
AcDbVertex
100
AcDb2dVertex
 10
214.055939
 20
-28.773159
 30
0.0
  0
VERTEX
  5
16A
100
AcDbEntity
  8
0
370
     0
390
0
100
AcDbVertex
100
AcDb2dVertex
 10
213.677704
 20
-28.813505
 30
0.0
  0
VERTEX
  5
16B
100
AcDbEntity
  8
0
370
     0
390
0
100
AcDbVertex
100
AcDb2dVertex
 10
213.243988
 20
-28.904284
 30
0.0
  0
VERTEX
  5
16C
100
AcDbEntity
  8
0
370
     0
390
0
100
AcDbVertex
100
AcDb2dVertex
 10
212.93634
 20
-29.065666
 30
0.0
  0
VERTEX
  5
16D
100
AcDbEntity
  8
0
370
     0
390
0
100
AcDbVertex
100
AcDb2dVertex
 10
212.754791
 20
-29.317829
 30
0.0
  0
VERTEX
  5
16E
100
AcDbEntity
  8
0
370
     0
390
0
100
AcDbVertex
100
AcDb2dVertex
 10
212.69931
 20
-29.691027
 30
0.0
  0
VERTEX
  5
16F
100
AcDbEntity
  8
0
370
     0
390
0
100
AcDbVertex
100
AcDb2dVertex
 10
212.749741
 20
-30.02388
 30
0.0
  0
VERTEX
  5
170
100
AcDbEntity
  8
0
370
     0
390
0
100
AcDbVertex
100
AcDb2dVertex
 10
212.906082
 20
-30.270998
 30
0.0
  0
VERTEX
  5
171
100
AcDbEntity
  8
0
370
     0
390
0
100
AcDbVertex
100
AcDb2dVertex
 10
213.158249
 20
-30.42734
 30
0.0
  0
VERTEX
  5
172
100
AcDbEntity
  8
0
370
     0
390
0
100
AcDbVertex
100
AcDb2dVertex
 10
213.506226
 20
-30.482815
 30
0.0
  0
VERTEX
  5
173
100
AcDbEntity
  8
0
370
     0
390
0
100
AcDbVertex
100
AcDb2dVertex
 10
213.97525
 20
-30.376905
 30
0.0
  0
SEQEND
  5
174
100
AcDbEntity
  8
0
370
     0
390
0
  0
POLYLINE
  5
175
100
AcDbEntity
  8
0
370
    13
390
0
 62
     7
100
AcDb2dPolyline
 66
     1
 10
0.0
 20
0.0
 30
0.0
 70
     1
 71
    14
  0
VERTEX
  5
176
100
AcDbEntity
  8
0
370
     0
390
0
100
AcDbVertex
100
AcDb2dVertex
 10
214.343399
 20
-29.453995
 30
0.0
  0
VERTEX
  5
177
100
AcDbEntity
  8
0
370
     0
390
0
100
AcDbVertex
100
AcDb2dVertex
 10
214.282883
 20
-29.716244
 30
0.0
  0
VERTEX
  5
178
100
AcDbEntity
  8
0
370
     0
390
0
100
AcDbVertex
100
AcDb2dVertex
 10
214.121506
 20
-29.917973
 30
0.0
  0
VERTEX
  5
179
100
AcDbEntity
  8
0
370
     0
390
0
100
AcDbVertex
100
AcDb2dVertex
 10
213.879425
 20
-30.049097
 30
0.0
  0
VERTEX
  5
17A
100
AcDbEntity
  8
0
370
     0
390
0
100
AcDbVertex
100
AcDb2dVertex
 10
213.581879
 20
-30.094486
 30
0.0
  0
VERTEX
  5
17B
100
AcDbEntity
  8
0
370
     0
390
0
100
AcDbVertex
100
AcDb2dVertex
 10
213.390228
 20
-30.069269
 30
0.0
  0
VERTEX
  5
17C
100
AcDbEntity
  8
0
370
     0
390
0
100
AcDbVertex
100
AcDb2dVertex
 10
213.254074
 20
-29.988577
 30
0.0
  0
VERTEX
  5
17D
100
AcDbEntity
  8
0
370
     0
390
0
100
AcDbVertex
100
AcDb2dVertex
 10
213.168335
 20
-29.847368
 30
0.0
  0
VERTEX
  5
17E
100
AcDbEntity
  8
0
370
     0
390
0
100
AcDbVertex
100
AcDb2dVertex
 10
213.143112
 20
-29.650682
 30
0.0
  0
VERTEX
  5
17F
100
AcDbEntity
  8
0
370
     0
390
0
100
AcDbVertex
100
AcDb2dVertex
 10
213.163284
 20
-29.474169
 30
0.0
  0
VERTEX
  5
180
100
AcDbEntity
  8
0
370
     0
390
0
100
AcDbVertex
100
AcDb2dVertex
 10
213.243988
 20
-29.348087
 30
0.0
  0
VERTEX
  5
181
100
AcDbEntity
  8
0
370
     0
390
0
100
AcDbVertex
100
AcDb2dVertex
 10
213.566742
 20
-29.206877
 30
0.0
  0
VERTEX
  5
182
100
AcDbEntity
  8
0
370
     0
390
0
100
AcDbVertex
100
AcDb2dVertex
 10
213.97525
 20
-29.146358
 30
0.0
  0
VERTEX
  5
183
100
AcDbEntity
  8
0
370
     0
390
0
100
AcDbVertex
100
AcDb2dVertex
 10
214.343399
 20
-29.025322
 30
0.0
  0
SEQEND
  5
184
100
AcDbEntity
  8
0
370
     0
390
0
  0
POLYLINE
  5
185
100
AcDbEntity
  8
0
370
    13
390
0
 62
     7
100
AcDb2dPolyline
 66
     1
 10
0.0
 20
0.0
 30
0.0
 70
     1
 71
    10
  0
VERTEX
  5
186
100
AcDbEntity
  8
0
370
     0
390
0
100
AcDbVertex
100
AcDb2dVertex
 10
216.703629
 20
-27.154284
 30
0.0
  0
VERTEX
  5
187
100
AcDbEntity
  8
0
370
     0
390
0
100
AcDbVertex
100
AcDb2dVertex
 10
216.703629
 20
-30.028923
 30
0.0
  0
VERTEX
  5
188
100
AcDbEntity
  8
0
370
     0
390
0
100
AcDbVertex
100
AcDb2dVertex
 10
215.790817
 20
-30.028923
 30
0.0
  0
VERTEX
  5
189
100
AcDbEntity
  8
0
370
     0
390
0
100
AcDbVertex
100
AcDb2dVertex
 10
215.790817
 20
-30.402122
 30
0.0
  0
VERTEX
  5
18A
100
AcDbEntity
  8
0
370
     0
390
0
100
AcDbVertex
100
AcDb2dVertex
 10
218.055222
 20
-30.402122
 30
0.0
  0
VERTEX
  5
18B
100
AcDbEntity
  8
0
370
     0
390
0
100
AcDbVertex
100
AcDb2dVertex
 10
218.055222
 20
-30.028923
 30
0.0
  0
VERTEX
  5
18C
100
AcDbEntity
  8
0
370
     0
390
0
100
AcDbVertex
100
AcDb2dVertex
 10
217.147446
 20
-30.028923
 30
0.0
  0
VERTEX
  5
18D
100
AcDbEntity
  8
0
370
     0
390
0
100
AcDbVertex
100
AcDb2dVertex
 10
217.147446
 20
-26.781086
 30
0.0
  0
VERTEX
  5
18E
100
AcDbEntity
  8
0
370
     0
390
0
100
AcDbVertex
100
AcDb2dVertex
 10
216.007675
 20
-26.781086
 30
0.0
  0
VERTEX
  5
18F
100
AcDbEntity
  8
0
370
     0
390
0
100
AcDbVertex
100
AcDb2dVertex
 10
216.007675
 20
-27.154284
 30
0.0
  0
SEQEND
  5
190
100
AcDbEntity
  8
0
370
     0
390
0
  0
POLYLINE
  5
191
100
AcDbEntity
  8
0
370
    13
390
0
 62
     7
100
AcDb2dPolyline
 66
     1
 10
0.0
 20
0.0
 30
0.0
 70
     1
 71
    27
  0
VERTEX
  5
192
100
AcDbEntity
  8
0
370
     0
390
0
100
AcDbVertex
100
AcDb2dVertex
 10
219.245422
 20
-29.176619
 30
0.0
  0
VERTEX
  5
193
100
AcDbEntity
  8
0
370
     0
390
0
100
AcDbVertex
100
AcDb2dVertex
 10
221.02063
 20
-29.176619
 30
0.0
  0
VERTEX
  5
194
100
AcDbEntity
  8
0
370
     0
390
0
100
AcDbVertex
100
AcDb2dVertex
 10
221.025681
 20
-28.969847
 30
0.0
  0
VERTEX
  5
195
100
AcDbEntity
  8
0
370
     0
390
0
100
AcDbVertex
100
AcDb2dVertex
 10
220.944992
 20
-28.389875
 30
0.0
  0
VERTEX
  5
196
100
AcDbEntity
  8
0
370
     0
390
0
100
AcDbVertex
100
AcDb2dVertex
 10
220.723083
 20
-27.956158
 30
0.0
  0
VERTEX
  5
197
100
AcDbEntity
  8
0
370
     0
390
0
100
AcDbVertex
100
AcDb2dVertex
 10
220.370056
 20
-27.693909
 30
0.0
  0
VERTEX
  5
198
100
AcDbEntity
  8
0
370
     0
390
0
100
AcDbVertex
100
AcDb2dVertex
 10
219.901047
 20
-27.598087
 30
0.0
  0
VERTEX
  5
199
100
AcDbEntity
  8
0
370
     0
390
0
100
AcDbVertex
100
AcDb2dVertex
 10
219.442108
 20
-27.698952
 30
0.0
  0
VERTEX
  5
19A
100
AcDbEntity
  8
0
370
     0
390
0
100
AcDbVertex
100
AcDb2dVertex
 10
219.089081
 20
-27.981373
 30
0.0
  0
VERTEX
  5
19B
100
AcDbEntity
  8
0
370
     0
390
0
100
AcDbVertex
100
AcDb2dVertex
 10
218.862137
 20
-28.440308
 30
0.0
  0
VERTEX
  5
19C
100
AcDbEntity
  8
0
370
     0
390
0
100
AcDbVertex
100
AcDb2dVertex
 10
218.781448
 20
-29.045494
 30
0.0
  0
VERTEX
  5
19D
100
AcDbEntity
  8
0
370
     0
390
0
100
AcDbVertex
100
AcDb2dVertex
 10
218.857086
 20
-29.665812
 30
0.0
  0
VERTEX
  5
19E
100
AcDbEntity
  8
0
370
     0
390
0
100
AcDbVertex
100
AcDb2dVertex
 10
219.084045
 20
-30.119701
 30
0.0
  0
VERTEX
  5
19F
100
AcDbEntity
  8
0
370
     0
390
0
100
AcDbVertex
100
AcDb2dVertex
 10
219.432022
 20
-30.402122
 30
0.0
  0
VERTEX
  5
1A0
100
AcDbEntity
  8
0
370
     0
390
0
100
AcDbVertex
100
AcDb2dVertex
 10
219.88591
 20
-30.497944
 30
0.0
  0
VERTEX
  5
1A1
100
AcDbEntity
  8
0
370
     0
390
0
100
AcDbVertex
100
AcDb2dVertex
 10
220.279282
 20
-30.432383
 30
0.0
  0
VERTEX
  5
1A2
100
AcDbEntity
  8
0
370
     0
390
0
100
AcDbVertex
100
AcDb2dVertex
 10
220.602051
 20
-30.260912
 30
0.0
  0
VERTEX
  5
1A3
100
AcDbEntity
  8
0
370
     0
390
0
100
AcDbVertex
100
AcDb2dVertex
 10
220.839081
 20
-29.988577
 30
0.0
  0
VERTEX
  5
1A4
100
AcDbEntity
  8
0
370
     0
390
0
100
AcDbVertex
100
AcDb2dVertex
 10
220.97525
 20
-29.625465
 30
0.0
  0
VERTEX
  5
1A5
100
AcDbEntity
  8
0
370
     0
390
0
100
AcDbVertex
100
AcDb2dVertex
 10
220.536484
 20
-29.625465
 30
0.0
  0
VERTEX
  5
1A6
100
AcDbEntity
  8
0
370
     0
390
0
100
AcDbVertex
100
AcDb2dVertex
 10
220.445709
 20
-29.827194
 30
0.0
  0
VERTEX
  5
1A7
100
AcDbEntity
  8
0
370
     0
390
0
100
AcDbVertex
100
AcDb2dVertex
 10
220.31459
 20
-29.978491
 30
0.0
  0
VERTEX
  5
1A8
100
AcDbEntity
  8
0
370
     0
390
0
100
AcDbVertex
100
AcDb2dVertex
 10
219.941391
 20
-30.099529
 30
0.0
  0
VERTEX
  5
1A9
100
AcDbEntity
  8
0
370
     0
390
0
100
AcDbVertex
100
AcDb2dVertex
 10
219.653931
 20
-30.044054
 30
0.0
  0
VERTEX
  5
1AA
100
AcDbEntity
  8
0
370
     0
390
0
100
AcDbVertex
100
AcDb2dVertex
 10
219.437057
 20
-29.86754
 30
0.0
  0
VERTEX
  5
1AB
100
AcDbEntity
  8
0
370
     0
390
0
100
AcDbVertex
100
AcDb2dVertex
 10
219.295853
 20
-29.580076
 30
0.0
  0
VERTEX
  5
1AC
100
AcDbEntity
  8
0
370
     0
390
0
100
AcDbVertex
100
AcDb2dVertex
 10
219.245422
 20
-29.191748
 30
0.0
  0
SEQEND
  5
1AD
100
AcDbEntity
  8
0
370
     0
390
0
  0
POLYLINE
  5
1AE
100
AcDbEntity
  8
0
370
    13
390
0
 62
     7
100
AcDb2dPolyline
 66
     1
 10
0.0
 20
0.0
 30
0.0
 70
     1
 71
     9
  0
VERTEX
  5
1AF
100
AcDbEntity
  8
0
370
     0
390
0
100
AcDbVertex
100
AcDb2dVertex
 10
219.245422
 20
-28.803419
 30
0.0
  0
VERTEX
  5
1B0
100
AcDbEntity
  8
0
370
     0
390
0
100
AcDbVertex
100
AcDb2dVertex
 10
219.300903
 20
-28.455437
 30
0.0
  0
VERTEX
  5
1B1
100
AcDbEntity
  8
0
370
     0
390
0
100
AcDbVertex
100
AcDb2dVertex
 10
219.437057
 20
-28.198233
 30
0.0
  0
VERTEX
  5
1B2
100
AcDbEntity
  8
0
370
     0
390
0
100
AcDbVertex
100
AcDb2dVertex
 10
219.643829
 20
-28.041893
 30
0.0
  0
VERTEX
  5
1B3
100
AcDbEntity
  8
0
370
     0
390
0
100
AcDbVertex
100
AcDb2dVertex
 10
219.916168
 20
-27.986416
 30
0.0
  0
VERTEX
  5
1B4
100
AcDbEntity
  8
0
370
     0
390
0
100
AcDbVertex
100
AcDb2dVertex
 10
220.183456
 20
-28.041893
 30
0.0
  0
VERTEX
  5
1B5
100
AcDbEntity
  8
0
370
     0
390
0
100
AcDbVertex
100
AcDb2dVertex
 10
220.390228
 20
-28.198233
 30
0.0
  0
VERTEX
  5
1B6
100
AcDbEntity
  8
0
370
     0
390
0
100
AcDbVertex
100
AcDb2dVertex
 10
220.516312
 20
-28.455437
 30
0.0
  0
VERTEX
  5
1B7
100
AcDbEntity
  8
0
370
     0
390
0
100
AcDbVertex
100
AcDb2dVertex
 10
220.561707
 20
-28.803419
 30
0.0
  0
SEQEND
  5
1B8
100
AcDbEntity
  8
0
370
     0
390
0
  0
POLYLINE
  5
1B9
100
AcDbEntity
  8
0
370
    13
390
0
 62
     7
100
AcDb2dPolyline
 66
     1
 10
0.0
 20
0.0
 30
0.0
 70
     1
 71
     4
  0
VERTEX
  5
1BA
100
AcDbEntity
  8
0
370
     0
390
0
100
AcDbVertex
100
AcDb2dVertex
 10
222.589081
 20
-30.402122
 30
0.0
  0
VERTEX
  5
1BB
100
AcDbEntity
  8
0
370
     0
390
0
100
AcDbVertex
100
AcDb2dVertex
 10
223.285049
 20
-30.402122
 30
0.0
  0
VERTEX
  5
1BC
100
AcDbEntity
  8
0
370
     0
390
0
100
AcDbVertex
100
AcDb2dVertex
 10
223.285049
 20
-29.650682
 30
0.0
  0
VERTEX
  5
1BD
100
AcDbEntity
  8
0
370
     0
390
0
100
AcDbVertex
100
AcDb2dVertex
 10
222.589081
 20
-29.650682
 30
0.0
  0
SEQEND
  5
1BE
100
AcDbEntity
  8
0
370
     0
390
0
  0
POLYLINE
  5
1BF
100
AcDbEntity
  8
0
370
    13
390
0
 62
     7
100
AcDb2dPolyline
 66
     1
 10
0.0
 20
0.0
 30
0.0
 70
     1
 71
     4
  0
VERTEX
  5
1C0
100
AcDbEntity
  8
0
370
     0
390
0
100
AcDbVertex
100
AcDb2dVertex
 10
222.589081
 20
-28.445351
 30
0.0
  0
VERTEX
  5
1C1
100
AcDbEntity
  8
0
370
     0
390
0
100
AcDbVertex
100
AcDb2dVertex
 10
223.285049
 20
-28.445351
 30
0.0
  0
VERTEX
  5
1C2
100
AcDbEntity
  8
0
370
     0
390
0
100
AcDbVertex
100
AcDb2dVertex
 10
223.285049
 20
-27.693909
 30
0.0
  0
VERTEX
  5
1C3
100
AcDbEntity
  8
0
370
     0
390
0
100
AcDbVertex
100
AcDb2dVertex
 10
222.589081
 20
-27.693909
 30
0.0
  0
SEQEND
  5
1C4
100
AcDbEntity
  8
0
370
     0
390
0
  0
POLYLINE
  5
1C5
100
AcDbEntity
  8
0
370
    13
390
0
 62
     7
100
AcDb2dPolyline
 66
     1
 10
0.0
 20
0.0
 30
0.0
 70
     1
 71
    10
  0
VERTEX
  5
1C6
100
AcDbEntity
  8
0
370
     0
390
0
100
AcDbVertex
100
AcDb2dVertex
 10
231.954361
 20
-30.402122
 30
0.0
  0
VERTEX
  5
1C7
100
AcDbEntity
  8
0
370
     0
390
0
100
AcDbVertex
100
AcDb2dVertex
 10
232.413284
 20
-30.402122
 30
0.0
  0
VERTEX
  5
1C8
100
AcDbEntity
  8
0
370
     0
390
0
100
AcDbVertex
100
AcDb2dVertex
 10
232.413284
 20
-26.876907
 30
0.0
  0
VERTEX
  5
1C9
100
AcDbEntity
  8
0
370
     0
390
0
100
AcDbVertex
100
AcDb2dVertex
 10
232.070343
 20
-26.876907
 30
0.0
  0
VERTEX
  5
1CA
100
AcDbEntity
  8
0
370
     0
390
0
100
AcDbVertex
100
AcDb2dVertex
 10
231.979568
 20
-27.184544
 30
0.0
  0
VERTEX
  5
1CB
100
AcDbEntity
  8
0
370
     0
390
0
100
AcDbVertex
100
AcDb2dVertex
 10
231.798019
 20
-27.391315
 30
0.0
  0
VERTEX
  5
1CC
100
AcDbEntity
  8
0
370
     0
390
0
100
AcDbVertex
100
AcDb2dVertex
 10
231.52063
 20
-27.512352
 30
0.0
  0
VERTEX
  5
1CD
100
AcDbEntity
  8
0
370
     0
390
0
100
AcDbVertex
100
AcDb2dVertex
 10
231.13736
 20
-27.552698
 30
0.0
  0
VERTEX
  5
1CE
100
AcDbEntity
  8
0
370
     0
390
0
100
AcDbVertex
100
AcDb2dVertex
 10
231.13736
 20
-27.910769
 30
0.0
  0
VERTEX
  5
1CF
100
AcDbEntity
  8
0
370
     0
390
0
100
AcDbVertex
100
AcDb2dVertex
 10
231.954361
 20
-27.910769
 30
0.0
  0
SEQEND
  5
1D0
100
AcDbEntity
  8
0
370
     0
390
0
  0
POLYLINE
  5
1D1
100
AcDbEntity
  8
0
370
    13
390
0
 62
     7
100
AcDb2dPolyline
 66
     1
 10
0.0
 20
0.0
 30
0.0
 70
     1
 71
     4
  0
VERTEX
  5
1D2
100
AcDbEntity
  8
0
370
     0
390
0
100
AcDbVertex
100
AcDb2dVertex
 10
234.73317
 20
-30.402122
 30
0.0
  0
VERTEX
  5
1D3
100
AcDbEntity
  8
0
370
     0
390
0
100
AcDbVertex
100
AcDb2dVertex
 10
235.429138
 20
-30.402122
 30
0.0
  0
VERTEX
  5
1D4
100
AcDbEntity
  8
0
370
     0
390
0
100
AcDbVertex
100
AcDb2dVertex
 10
235.429138
 20
-29.650682
 30
0.0
  0
VERTEX
  5
1D5
100
AcDbEntity
  8
0
370
     0
390
0
100
AcDbVertex
100
AcDb2dVertex
 10
234.73317
 20
-29.650682
 30
0.0
  0
SEQEND
  5
1D6
100
AcDbEntity
  8
0
370
     0
390
0
  0
POLYLINE
  5
1D7
100
AcDbEntity
  8
0
370
    13
390
0
 62
     7
100
AcDb2dPolyline
 66
     1
 10
0.0
 20
0.0
 30
0.0
 70
     1
 71
     4
  0
VERTEX
  5
1D8
100
AcDbEntity
  8
0
370
     0
390
0
100
AcDbVertex
100
AcDb2dVertex
 10
234.73317
 20
-28.445351
 30
0.0
  0
VERTEX
  5
1D9
100
AcDbEntity
  8
0
370
     0
390
0
100
AcDbVertex
100
AcDb2dVertex
 10
235.429138
 20
-28.445351
 30
0.0
  0
VERTEX
  5
1DA
100
AcDbEntity
  8
0
370
     0
390
0
100
AcDbVertex
100
AcDb2dVertex
 10
235.429138
 20
-27.693909
 30
0.0
  0
VERTEX
  5
1DB
100
AcDbEntity
  8
0
370
     0
390
0
100
AcDbVertex
100
AcDb2dVertex
 10
234.73317
 20
-27.693909
 30
0.0
  0
SEQEND
  5
1DC
100
AcDbEntity
  8
0
370
     0
390
0
  0
POLYLINE
  5
1DD
100
AcDbEntity
  8
0
370
    13
390
0
 62
     7
100
AcDb2dPolyline
 66
     1
 10
0.0
 20
0.0
 30
0.0
 70
     1
 71
    10
  0
VERTEX
  5
1DE
100
AcDbEntity
  8
0
370
     0
390
0
100
AcDbVertex
100
AcDb2dVertex
 10
238.026398
 20
-30.402122
 30
0.0
  0
VERTEX
  5
1DF
100
AcDbEntity
  8
0
370
     0
390
0
100
AcDbVertex
100
AcDb2dVertex
 10
238.485336
 20
-30.402122
 30
0.0
  0
VERTEX
  5
1E0
100
AcDbEntity
  8
0
370
     0
390
0
100
AcDbVertex
100
AcDb2dVertex
 10
238.485336
 20
-26.876907
 30
0.0
  0
VERTEX
  5
1E1
100
AcDbEntity
  8
0
370
     0
390
0
100
AcDbVertex
100
AcDb2dVertex
 10
238.142395
 20
-26.876907
 30
0.0
  0
VERTEX
  5
1E2
100
AcDbEntity
  8
0
370
     0
390
0
100
AcDbVertex
100
AcDb2dVertex
 10
238.05162
 20
-27.184544
 30
0.0
  0
VERTEX
  5
1E3
100
AcDbEntity
  8
0
370
     0
390
0
100
AcDbVertex
100
AcDb2dVertex
 10
237.870056
 20
-27.391315
 30
0.0
  0
VERTEX
  5
1E4
100
AcDbEntity
  8
0
370
     0
390
0
100
AcDbVertex
100
AcDb2dVertex
 10
237.592682
 20
-27.512352
 30
0.0
  0
VERTEX
  5
1E5
100
AcDbEntity
  8
0
370
     0
390
0
100
AcDbVertex
100
AcDb2dVertex
 10
237.209396
 20
-27.552698
 30
0.0
  0
VERTEX
  5
1E6
100
AcDbEntity
  8
0
370
     0
390
0
100
AcDbVertex
100
AcDb2dVertex
 10
237.209396
 20
-27.910769
 30
0.0
  0
VERTEX
  5
1E7
100
AcDbEntity
  8
0
370
     0
390
0
100
AcDbVertex
100
AcDb2dVertex
 10
238.026398
 20
-27.910769
 30
0.0
  0
SEQEND
  5
1E8
100
AcDbEntity
  8
0
370
     0
390
0
  0
LINE
  5
1E9
100
AcDbEntity
  8
0
370
    35
390
0
 62
     7
 48
0.39741
100
AcDbLine
 10
95.717934
 20
160.541931
 30
0.0
 11
95.717934
 21
144.645538
 31
0.0
210
0.0
220
0.0
230
1.0
  0
LINE
  5
1EA
100
AcDbEntity
  8
0
370
    35
390
0
 62
     7
 48
0.0125
100
AcDbLine
 10
95.717934
 20
144.645538
 30
0.0
 11
96.217934
 21
144.645538
 31
0.0
210
0.0
220
0.0
230
1.0
  0
LINE
  5
1EB
100
AcDbEntity
  8
0
370
    35
390
0
 62
     7
 48
0.006268
100
AcDbLine
 10
96.217934
 20
144.645538
 30
0.0
 11
96.468651
 21
144.645538
 31
0.0
210
0.0
220
0.0
230
1.0
  0
ARC
  5
1EC
100
AcDbEntity
  8
0
370
    35
390
0
 62
     7
100
AcDbCircle
 10
272.121979
 20
146.095795
 30
0.0
 40
1.984647
210
0.0
220
0.0
230
1.0
100
AcDbArc
 50
185.163932
 51
272.721268
  0
POLYLINE
  5
1ED
100
AcDbEntity
  8
0
370
    35
390
0
 62
     7
100
AcDb2dPolyline
 66
     1
 10
0.0
 20
0.0
 30
0.0
 71
     3
  0
VERTEX
  5
1EE
100
AcDbEntity
  8
0
370
     0
390
0
100
AcDbVertex
100
AcDb2dVertex
 10
307.041718
 20
145.641785
 30
0.0
  0
VERTEX
  5
1EF
100
AcDbEntity
  8
0
370
     0
390
0
100
AcDbVertex
100
AcDb2dVertex
 10
295.123413
 20
145.15506
 30
0.0
  0
VERTEX
  5
1F0
100
AcDbEntity
  8
0
370
     0
390
0
100
AcDbVertex
100
AcDb2dVertex
 10
272.216187
 20
144.113464
 30
0.0
  0
SEQEND
  5
1F1
100
AcDbEntity
  8
0
370
     0
390
0
  0
ARC
  5
1F2
100
AcDbEntity
  8
0
370
    35
390
0
 62
     7
100
AcDbCircle
 10
255.064926
 20
150.265381
 30
0.0
 40
1.980316
210
0.0
220
0.0
230
1.0
100
AcDbArc
 50
177.639109
 51
214.911182
  0
ARC
  5
1F3
100
AcDbEntity
  8
0
370
    35
390
0
 62
     7
100
AcDbCircle
 10
255.079544
 20
150.275299
 30
0.0
 40
1.998018
210
0.0
220
0.0
230
1.0
100
AcDbArc
 50
214.904078
 51
234.994124
  0
LINE
  5
1F4
100
AcDbEntity
  8
0
370
    35
390
0
 62
     7
 48
0.125414
100
AcDbLine
 10
258.043579
 20
145.762619
 30
0.0
 11
253.933365
 21
148.638733
 31
0.0
210
0.0
220
0.0
230
1.0
  0
ARC
  5
1F5
100
AcDbEntity
  8
0
370
    35
390
0
 62
     7
100
AcDbCircle
 10
259.188629
 20
147.400482
 30
0.0
 40
1.998423
210
0.0
220
0.0
230
1.0
100
AcDbArc
 50
235.042331
 51
255.06779
  0
ARC
  5
1F6
100
AcDbEntity
  8
0
370
    35
390
0
 62
     7
100
AcDbCircle
 10
259.183929
 20
147.386642
 30
0.0
 40
1.983873
210
0.0
220
0.0
230
1.0
100
AcDbArc
 50
255.096101
 51
342.009196
  0
ARC
  5
1F7
100
AcDbEntity
  8
0
370
    35
390
0
 62
     7
100
AcDbCircle
 10
259.170624
 20
147.390121
 30
0.0
 40
1.997564
210
0.0
220
0.0
230
1.0
100
AcDbArc
 50
342.032206
 51
355.49461
  0
LINE
  5
1F8
100
AcDbEntity
  8
0
370
    35
390
0
 62
     7
 48
0.001971
100
AcDbLine
 10
229.529755
 20
144.572067
 30
0.0
 11
229.511337
 21
144.495392
 31
0.0
210
0.0
220
0.0
230
1.0
  0
ARC
  5
1F9
100
AcDbEntity
  8
0
370
    35
390
0
 62
     7
100
AcDbCircle
 10
231.449509
 20
144.070709
 30
0.0
 40
1.984291
210
0.0
220
0.0
230
1.0
100
AcDbArc
 50
167.641188
 51
272.894802
  0
ARC
  5
1FA
100
AcDbEntity
  8
0
370
    35
390
0
 62
     7
100
AcDbCircle
 10
1865.445801
 20
-32034.884766
 30
0.0
 40
32218.431685
210
0.0
220
0.0
230
1.0
100
AcDbArc
 50
92.876011
 51
92.90689
  0
ARC
  5
1FB
100
AcDbEntity
  8
0
370
    35
390
0
 62
     7
100
AcDbCircle
 10
248.788406
 20
144.965332
 30
0.0
 40
2.003252
210
0.0
220
0.0
230
1.0
100
AcDbArc
 50
272.953405
 51
303.125489
  0
ARC
  5
1FC
100
AcDbEntity
  8
0
370
    35
390
0
 62
     7
100
AcDbCircle
 10
248.799271
 20
144.945374
 30
0.0
 40
1.980521
210
0.0
220
0.0
230
1.0
100
AcDbArc
 50
303.177556
 51
349.652712
  0
ARC
  5
1FD
100
AcDbEntity
  8
0
370
    35
390
0
 62
     7
100
AcDbCircle
 10
204.459503
 20
153.984436
 30
0.0
 40
1.980135
210
0.0
220
0.0
230
1.0
100
AcDbArc
 50
149.456164
 51
200.128726
  0
ARC
  5
1FE
100
AcDbEntity
  8
0
370
    35
390
0
 62
     7
100
AcDbCircle
 10
204.483322
 20
153.997208
 30
0.0
 40
2.007007
210
0.0
220
0.0
230
1.0
100
AcDbArc
 50
200.236958
 51
234.885961
  0
LINE
  5
1FF
100
AcDbEntity
  8
0
370
    35
390
0
 62
     7
 48
0.371968
100
AcDbLine
 10
215.519379
 20
143.825073
 30
0.0
 11
203.328918
 21
152.35553
 31
0.0
210
0.0
220
0.0
230
1.0
  0
LINE
  5
200
100
AcDbEntity
  8
0
370
    35
390
0
 62
     7
 48
0.027917
100
AcDbLine
 10
216.434509
 20
143.18512
 30
0.0
 11
215.519379
 21
143.825073
 31
0.0
210
0.0
220
0.0
230
1.0
  0
ARC
  5
201
100
AcDbEntity
  8
0
370
    35
390
0
 62
     7
100
AcDbCircle
 10
218.712448
 20
146.445038
 30
0.0
 40
3.976975
210
0.0
220
0.0
230
1.0
100
AcDbArc
 50
235.05509
 51
309.51439
  0
LINE
  5
202
100
AcDbEntity
  8
0
370
    35
390
0
 62
     7
 48
0.058109
100
AcDbLine
 10
221.242874
 20
143.376953
 30
0.0
 11
223.035034
 21
144.857086
 31
0.0
210
0.0
220
0.0
230
1.0
  0
LINE
  5
203
100
AcDbEntity
  8
0
370
    35
390
0
 62
     7
 48
0.23803
100
AcDbLine
 10
230.37233
 20
150.924835
 30
0.0
 11
223.035034
 21
144.857086
 31
0.0
210
0.0
220
0.0
230
1.0
  0
ARC
  5
204
100
AcDbEntity
  8
0
370
    35
390
0
 62
     7
100
AcDbCircle
 10
229.109818
 20
152.452591
 30
0.0
 40
1.981884
210
0.0
220
0.0
230
1.0
100
AcDbArc
 50
309.569841
 51
337.865669
  0
ARC
  5
205
100
AcDbEntity
  8
0
370
    35
390
0
 62
     7
100
AcDbCircle
 10
175.041885
 20
141.326401
 30
0.0
 40
1.987367
210
0.0
220
0.0
230
1.0
100
AcDbArc
 50
142.639772
 51
272.526478
  0
LINE
  5
206
100
AcDbEntity
  8
0
370
    35
390
0
 62
     7
 48
0.021126
100
AcDbLine
 10
175.129486
 20
139.340881
 30
0.0
 11
175.973679
 21
139.378387
 31
0.0
210
0.0
220
0.0
230
1.0
  0
ARC
  5
207
100
AcDbEntity
  8
0
370
    35
390
0
 62
     7
100
AcDbCircle
 10
-113.462532
 20
6548.606445
 30
0.0
 40
6415.760145
210
0.0
220
0.0
230
1.0
100
AcDbArc
 50
272.585682
 51
272.82799
  0
ARC
  5
208
100
AcDbEntity
  8
0
370
    35
390
0
 62
     7
100
AcDbCircle
 10
142.948746
 20
1361.155396
 30
0.0
 40
1221.976696
210
0.0
220
0.0
230
1.0
100
AcDbArc
 50
272.820401
 51
272.987611
  0
ARC
  5
209
100
AcDbEntity
  8
0
370
    35
390
0
 62
     7
100
AcDbCircle
 10
206.534836
 20
142.821564
 30
0.0
 40
1.984725
210
0.0
220
0.0
230
1.0
100
AcDbArc
 50
272.987085
 51
328.238705
  0
ARC
  5
20A
100
AcDbEntity
  8
0
370
    35
390
0
 62
     7
100
AcDbCircle
 10
143.262543
 20
154.768173
 30
0.0
 40
1.987812
210
0.0
220
0.0
230
1.0
100
AcDbArc
 50
129.761819
 51
234.907858
  0
LINE
  5
20B
100
AcDbEntity
  8
0
370
    35
390
0
 62
     7
 48
0.049228
100
AcDbLine
 10
142.119781
 20
153.141708
 30
0.0
 11
143.732086
 21
152.011246
 31
0.0
210
0.0
220
0.0
230
1.0
  0
LINE
  5
20C
100
AcDbEntity
  8
0
370
    35
390
0
 62
     7
100
AcDbLine
 10
160.130798
 20
140.535324
 30
0.0
 11
143.732086
 21
152.011246
 31
0.0
210
0.0
220
0.0
230
1.0
  0
ARC
  5
20D
100
AcDbEntity
  8
0
370
    35
390
0
 62
     7
100
AcDbCircle
 10
162.410248
 20
143.79245
 30
0.0
 40
3.975514
210
0.0
220
0.0
230
1.0
100
AcDbArc
 50
235.014396
 51
309.467894
  0
ARC
  5
20E
100
AcDbEntity
  8
0
370
    35
390
0
 62
     7
100
AcDbCircle
 10
-1296.943481
 20
1915.892822
 30
0.0
 40
2299.635023
210
0.0
220
0.0
230
1.0
100
AcDbArc
 50
309.472006
 51
309.585219
  0
LINE
  5
20F
100
AcDbEntity
  8
0
370
    35
390
0
 62
     7
 48
0.382313
100
AcDbLine
 10
180.227509
 20
153.360397
 30
0.0
 11
168.441986
 21
143.615509
 31
0.0
210
0.0
220
0.0
230
1.0
  0
LINE
  5
210
100
AcDbEntity
  8
0
370
    35
390
0
 62
     7
 48
0.002355
100
AcDbLine
 10
180.29866
 20
153.422104
 30
0.0
 11
180.227509
 21
153.360397
 31
0.0
210
0.0
220
0.0
230
1.0
  0
ARC
  5
211
100
AcDbEntity
  8
0
370
    35
390
0
 62
     7
100
AcDbCircle
 10
130.979416
 20
151.216003
 30
0.0
 40
3.978651
210
0.0
220
0.0
230
1.0
100
AcDbArc
 50
124.95047
 51
129.514293
  0
LINE
  5
212
100
AcDbEntity
  8
0
370
    35
390
0
 62
     7
 48
0.070879
100
AcDbLine
 10
126.261818
 20
152.480133
 30
0.0
 11
128.447922
 21
154.2854
 31
0.0
210
0.0
220
0.0
230
1.0
  0
LINE
  5
213
100
AcDbEntity
  8
0
370
    35
390
0
 62
     7
 48
0.404576
100
AcDbLine
 10
113.789993
 20
142.167801
 30
0.0
 11
126.261818
 21
152.480133
 31
0.0
210
0.0
220
0.0
230
1.0
  0
LINE
  5
214
100
AcDbEntity
  8
0
370
    35
390
0
 62
     7
 48
0.05347
100
AcDbLine
 10
112.142853
 20
140.803452
 30
0.0
 11
113.789993
 21
142.167801
 31
0.0
210
0.0
220
0.0
230
1.0
  0
ARC
  5
215
100
AcDbEntity
  8
0
370
    35
390
0
 62
     7
100
AcDbCircle
 10
113.412323
 20
139.274673
 30
0.0
 40
1.98731
210
0.0
220
0.0
230
1.0
100
AcDbArc
 50
129.705702
 51
270.793126
  0
LINE
  5
216
100
AcDbEntity
  8
0
370
    35
390
0
 62
     7
 48
0.023157
100
AcDbLine
 10
113.439835
 20
137.287445
 30
0.0
 11
114.366035
 21
137.300873
 31
0.0
210
0.0
220
0.0
230
1.0
  0
POLYLINE
  5
217
100
AcDbEntity
  8
0
370
    35
390
0
 62
     7
100
AcDb2dPolyline
 66
     1
 10
0.0
 20
0.0
 30
0.0
 71
     4
  0
VERTEX
  5
218
100
AcDbEntity
  8
0
370
     0
390
0
100
AcDbVertex
100
AcDb2dVertex
 10
114.366035
 20
137.300873
 30
0.0
  0
VERTEX
  5
219
100
AcDbEntity
  8
0
370
     0
390
0
100
AcDbVertex
100
AcDb2dVertex
 10
125.633568
 20
137.52861
 30
0.0
  0
VERTEX
  5
21A
100
AcDbEntity
  8
0
370
     0
390
0
100
AcDbVertex
100
AcDb2dVertex
 10
136.905396
 20
137.8461
 30
0.0
  0
VERTEX
  5
21B
100
AcDbEntity
  8
0
370
     0
390
0
100
AcDbVertex
100
AcDb2dVertex
 10
146.570282
 20
138.172272
 30
0.0
  0
SEQEND
  5
21C
100
AcDbEntity
  8
0
370
     0
390
0
  0
ARC
  5
21D
100
AcDbEntity
  8
0
370
    35
390
0
 62
     7
100
AcDbCircle
 10
114.428032
 20
1029.379883
 30
0.0
 40
891.787111
210
0.0
220
0.0
230
1.0
100
AcDbArc
 50
272.065529
 51
272.295105
  0
ARC
  5
21E
100
AcDbEntity
  8
0
370
    35
390
0
 62
     7
100
AcDbCircle
 10
150.061874
 20
140.290009
 30
0.0
 40
1.983451
210
0.0
220
0.0
230
1.0
100
AcDbArc
 50
272.283343
 51
306.485147
  0
ARC
  5
21F
100
AcDbEntity
  8
0
370
    35
390
0
 62
     7
100
AcDbCircle
 10
103.512856
 20
141.415817
 30
0.0
 40
1.987866
210
0.0
220
0.0
230
1.0
100
AcDbArc
 50
179.978722
 51
255.221497
  0
ARC
  5
220
100
AcDbEntity
  8
0
370
    35
390
0
 62
     7
100
AcDbCircle
 10
103.509651
 20
141.409454
 30
0.0
 40
1.980833
210
0.0
220
0.0
230
1.0
100
AcDbArc
 50
255.26424
 51
293.394973
  0
ARC
  5
221
100
AcDbEntity
  8
0
370
    35
390
0
 62
     7
100
AcDbCircle
 10
103.512817
 20
151.827637
 30
0.0
 40
1.987887
210
0.0
220
0.0
230
1.0
100
AcDbArc
 50
124.717041
 51
179.99032
  0
LINE
  5
222
100
AcDbEntity
  8
0
370
    35
390
0
 62
     7
 48
0.260286
100
AcDbLine
 10
101.524834
 20
151.827972
 30
0.0
 11
101.524834
 21
141.41655
 31
0.0
210
0.0
220
0.0
230
1.0
  0
ARC
  5
223
100
AcDbEntity
  8
0
370
    35
390
0
 62
     7
100
AcDbCircle
 10
83.131706
 20
148.386688
 30
0.0
 40
1.987627
210
0.0
220
0.0
230
1.0
100
AcDbArc
 50
123.663676
 51
179.944339
  0
LINE
  5
224
100
AcDbEntity
  8
0
370
    35
390
0
 62
     7
 48
0.028341
100
AcDbLine
 10
81.144005
 20
148.388611
 30
0.0
 11
81.143486
 21
147.254974
 31
0.0
210
0.0
220
0.0
230
1.0
  0
LINE
  5
225
100
AcDbEntity
  8
0
370
    35
390
0
 62
     7
 48
0.194273
100
AcDbLine
 10
81.143486
 20
147.254974
 30
0.0
 11
81.143486
 21
139.484039
 31
0.0
210
0.0
220
0.0
230
1.0
  0
ARC
  5
226
100
AcDbEntity
  8
0
370
    35
390
0
 62
     7
100
AcDbCircle
 10
83.135948
 20
139.484207
 30
0.0
 40
1.99246
210
0.0
220
0.0
230
1.0
100
AcDbArc
 50
180.004967
 51
191.847832
  0
ARC
  5
227
100
AcDbEntity
  8
0
370
    35
390
0
 62
     7
100
AcDbCircle
 10
83.130379
 20
139.483093
 30
0.0
 40
1.986695
210
0.0
220
0.0
230
1.0
100
AcDbArc
 50
191.849485
 51
267.670486
  0
ARC
  5
228
100
AcDbEntity
  8
0
370
    35
390
0
 62
     7
100
AcDbCircle
 10
94.266472
 20
415.044891
 30
0.0
 40
277.77344
210
0.0
220
0.0
230
1.0
100
AcDbArc
 50
267.685697
 51
268.332625
  0
ARC
  5
229
100
AcDbEntity
  8
0
370
    35
390
0
 62
     7
100
AcDbCircle
 10
98.052635
 20
546.433716
 30
0.0
 40
409.216858
210
0.0
220
0.0
230
1.0
100
AcDbArc
 50
268.338008
 51
268.842998
  0
LINE
  5
22A
100
AcDbEntity
  8
0
370
    35
390
0
 62
     7
 48
0.018543
100
AcDbLine
 10
89.789673
 20
137.300262
 30
0.0
 11
90.531242
 21
137.285995
 31
0.0
210
0.0
220
0.0
230
1.0
  0
ARC
  5
22B
100
AcDbEntity
  8
0
370
    35
390
0
 62
     7
100
AcDbCircle
 10
90.567703
 20
139.271957
 30
0.0
 40
1.98629
210
0.0
220
0.0
230
1.0
100
AcDbArc
 50
268.948292
 51
291.79871
  0
POLYLINE
  5
22C
100
AcDbEntity
  8
0
370
    35
390
0
 62
     7
100
AcDb2dPolyline
 66
     1
 10
0.0
 20
0.0
 30
0.0
 71
     6
  0
VERTEX
  5
22D
100
AcDbEntity
  8
0
370
     0
390
0
100
AcDbVertex
100
AcDb2dVertex
 10
56.71859
 20
140.5159
 30
0.0
  0
VERTEX
  5
22E
100
AcDbEntity
  8
0
370
     0
390
0
100
AcDbVertex
100
AcDb2dVertex
 10
57.864883
 20
141.345062
 30
0.0
  0
VERTEX
  5
22F
100
AcDbEntity
  8
0
370
     0
390
0
100
AcDbVertex
100
AcDb2dVertex
 10
59.103973
 20
142.140244
 30
0.0
  0
VERTEX
  5
230
100
AcDbEntity
  8
0
370
     0
390
0
100
AcDbVertex
100
AcDb2dVertex
 10
60.38784
 20
142.880829
 30
0.0
  0
VERTEX
  5
231
100
AcDbEntity
  8
0
370
     0
390
0
100
AcDbVertex
100
AcDb2dVertex
 10
61.717812
 20
143.572144
 30
0.0
  0
VERTEX
  5
232
100
AcDbEntity
  8
0
370
     0
390
0
100
AcDbVertex
100
AcDb2dVertex
 10
62.940681
 20
144.152725
 30
0.0
  0
SEQEND
  5
233
100
AcDbEntity
  8
0
370
     0
390
0
  0
ARC
  5
234
100
AcDbEntity
  8
0
370
    35
390
0
 62
     7
100
AcDbCircle
 10
65.473297
 20
168.970932
 30
0.0
 40
29.771784
210
0.0
220
0.0
230
1.0
100
AcDbArc
 50
252.898515
 51
257.125398
  0
POLYLINE
  5
235
100
AcDbEntity
  8
0
370
    35
390
0
 62
     7
100
AcDb2dPolyline
 66
     1
 10
0.0
 20
0.0
 30
0.0
 71
     7
  0
VERTEX
  5
236
100
AcDbEntity
  8
0
370
     0
390
0
100
AcDbVertex
100
AcDb2dVertex
 10
58.839508
 20
139.947144
 30
0.0
  0
VERTEX
  5
237
100
AcDbEntity
  8
0
370
     0
390
0
100
AcDbVertex
100
AcDb2dVertex
 10
61.027298
 20
139.498703
 30
0.0
  0
VERTEX
  5
238
100
AcDbEntity
  8
0
370
     0
390
0
100
AcDbVertex
100
AcDb2dVertex
 10
63.272484
 20
139.121246
 30
0.0
  0
VERTEX
  5
239
100
AcDbEntity
  8
0
370
     0
390
0
100
AcDbVertex
100
AcDb2dVertex
 10
66.313911
 20
138.70163
 30
0.0
  0
VERTEX
  5
23A
100
AcDbEntity
  8
0
370
     0
390
0
100
AcDbVertex
100
AcDb2dVertex
 10
67.83963
 20
138.524155
 30
0.0
  0
VERTEX
  5
23B
100
AcDbEntity
  8
0
370
     0
390
0
100
AcDbVertex
100
AcDb2dVertex
 10
70.923256
 20
138.221313
 30
0.0
  0
VERTEX
  5
23C
100
AcDbEntity
  8
0
370
     0
390
0
100
AcDbVertex
100
AcDb2dVertex
 10
74.029457
 20
137.975937
 30
0.0
  0
SEQEND
  5
23D
100
AcDbEntity
  8
0
370
     0
390
0
  0
ARC
  5
23E
100
AcDbEntity
  8
0
370
    35
390
0
 62
     7
100
AcDbCircle
 10
74.170616
 20
139.961807
 30
0.0
 40
1.990882
210
0.0
220
0.0
230
1.0
100
AcDbArc
 50
265.93402
 51
288.671597
  0
POLYLINE
  5
23F
100
AcDbEntity
  8
0
370
    35
390
0
 62
     7
100
AcDb2dPolyline
 66
     1
 10
0.0
 20
0.0
 30
0.0
 71
    12
  0
VERTEX
  5
240
100
AcDbEntity
  8
0
370
     0
390
0
100
AcDbVertex
100
AcDb2dVertex
 10
116.295403
 20
132.300247
 30
0.0
  0
VERTEX
  5
241
100
AcDbEntity
  8
0
370
     0
390
0
100
AcDbVertex
100
AcDb2dVertex
 10
124.386253
 20
132.319366
 30
0.0
  0
VERTEX
  5
242
100
AcDbEntity
  8
0
370
     0
390
0
100
AcDbVertex
100
AcDb2dVertex
 10
132.488098
 20
132.383118
 30
0.0
  0
VERTEX
  5
243
100
AcDbEntity
  8
0
370
     0
390
0
100
AcDbVertex
100
AcDb2dVertex
 10
141.621613
 20
132.502838
 30
0.0
  0
VERTEX
  5
244
100
AcDbEntity
  8
0
370
     0
390
0
100
AcDbVertex
100
AcDb2dVertex
 10
150.754547
 20
132.665451
 30
0.0
  0
VERTEX
  5
245
100
AcDbEntity
  8
0
370
     0
390
0
100
AcDbVertex
100
AcDb2dVertex
 10
166.829544
 20
133.045151
 30
0.0
  0
VERTEX
  5
246
100
AcDbEntity
  8
0
370
     0
390
0
100
AcDbVertex
100
AcDb2dVertex
 10
180.88208
 20
133.468735
 30
0.0
  0
VERTEX
  5
247
100
AcDbEntity
  8
0
370
     0
390
0
100
AcDbVertex
100
AcDb2dVertex
 10
199.347549
 20
134.151474
 30
0.0
  0
VERTEX
  5
248
100
AcDbEntity
  8
0
370
     0
390
0
100
AcDbVertex
100
AcDb2dVertex
 10
211.287048
 20
134.673569
 30
0.0
  0
VERTEX
  5
249
100
AcDbEntity
  8
0
370
     0
390
0
100
AcDbVertex
100
AcDb2dVertex
 10
226.473587
 20
135.430267
 30
0.0
  0
VERTEX
  5
24A
100
AcDbEntity
  8
0
370
     0
390
0
100
AcDbVertex
100
AcDb2dVertex
 10
243.965897
 20
136.415115
 30
0.0
  0
VERTEX
  5
24B
100
AcDbEntity
  8
0
370
     0
390
0
100
AcDbVertex
100
AcDb2dVertex
 10
265.154816
 20
137.720001
 30
0.0
  0
SEQEND
  5
24C
100
AcDbEntity
  8
0
370
     0
390
0
  0
POLYLINE
  5
24D
100
AcDbEntity
  8
0
370
    35
390
0
 62
     7
100
AcDb2dPolyline
 66
     1
 10
0.0
 20
0.0
 30
0.0
 71
    19
  0
VERTEX
  5
24E
100
AcDbEntity
  8
0
370
     0
390
0
100
AcDbVertex
100
AcDb2dVertex
 10
45.287704
 20
138.024399
 30
0.0
  0
VERTEX
  5
24F
100
AcDbEntity
  8
0
370
     0
390
0
100
AcDbVertex
100
AcDb2dVertex
 10
45.526497
 20
137.957382
 30
0.0
  0
VERTEX
  5
250
100
AcDbEntity
  8
0
370
     0
390
0
100
AcDbVertex
100
AcDb2dVertex
 10
45.876518
 20
137.873718
 30
0.0
  0
VERTEX
  5
251
100
AcDbEntity
  8
0
370
     0
390
0
100
AcDbVertex
100
AcDb2dVertex
 10
46.283424
 20
137.758698
 30
0.0
  0
VERTEX
  5
252
100
AcDbEntity
  8
0
370
     0
390
0
100
AcDbVertex
100
AcDb2dVertex
 10
46.709908
 20
137.624725
 30
0.0
  0
VERTEX
  5
253
100
AcDbEntity
  8
0
370
     0
390
0
100
AcDbVertex
100
AcDb2dVertex
 10
49.376602
 20
136.807159
 30
0.0
  0
VERTEX
  5
254
100
AcDbEntity
  8
0
370
     0
390
0
100
AcDbVertex
100
AcDb2dVertex
 10
51.53434
 20
136.25119
 30
0.0
  0
VERTEX
  5
255
100
AcDbEntity
  8
0
370
     0
390
0
100
AcDbVertex
100
AcDb2dVertex
 10
53.896255
 20
135.760193
 30
0.0
  0
VERTEX
  5
256
100
AcDbEntity
  8
0
370
     0
390
0
100
AcDbVertex
100
AcDb2dVertex
 10
56.650269
 20
135.28418
 30
0.0
  0
VERTEX
  5
257
100
AcDbEntity
  8
0
370
     0
390
0
100
AcDbVertex
100
AcDb2dVertex
 10
58.624634
 20
134.985687
 30
0.0
  0
VERTEX
  5
258
100
AcDbEntity
  8
0
370
     0
390
0
100
AcDbVertex
100
AcDb2dVertex
 10
62.503372
 20
134.478104
 30
0.0
  0
VERTEX
  5
259
100
AcDbEntity
  8
0
370
     0
390
0
100
AcDbVertex
100
AcDb2dVertex
 10
66.82402
 20
134.026382
 30
0.0
  0
VERTEX
  5
25A
100
AcDbEntity
  8
0
370
     0
390
0
100
AcDbVertex
100
AcDb2dVertex
 10
69.853851
 20
133.764862
 30
0.0
  0
VERTEX
  5
25B
100
AcDbEntity
  8
0
370
     0
390
0
100
AcDbVertex
100
AcDb2dVertex
 10
73.393448
 20
133.502075
 30
0.0
  0
VERTEX
  5
25C
100
AcDbEntity
  8
0
370
     0
390
0
100
AcDbVertex
100
AcDb2dVertex
 10
80.515274
 20
133.079117
 30
0.0
  0
VERTEX
  5
25D
100
AcDbEntity
  8
0
370
     0
390
0
100
AcDbVertex
100
AcDb2dVertex
 10
87.67688
 20
132.770782
 30
0.0
  0
VERTEX
  5
25E
100
AcDbEntity
  8
0
370
     0
390
0
100
AcDbVertex
100
AcDb2dVertex
 10
94.848007
 20
132.556747
 30
0.0
  0
VERTEX
  5
25F
100
AcDbEntity
  8
0
370
     0
390
0
100
AcDbVertex
100
AcDb2dVertex
 10
105.627701
 20
132.364899
 30
0.0
  0
VERTEX
  5
260
100
AcDbEntity
  8
0
370
     0
390
0
100
AcDbVertex
100
AcDb2dVertex
 10
116.295403
 20
132.300247
 30
0.0
  0
SEQEND
  5
261
100
AcDbEntity
  8
0
370
     0
390
0
  0
POLYLINE
  5
262
100
AcDbEntity
  8
0
370
    35
390
0
 62
     7
100
AcDb2dPolyline
 66
     1
 10
0.0
 20
0.0
 30
0.0
 71
     7
  0
VERTEX
  5
263
100
AcDbEntity
  8
0
370
     0
390
0
100
AcDbVertex
100
AcDb2dVertex
 10
43.894417
 20
139.696045
 30
0.0
  0
VERTEX
  5
264
100
AcDbEntity
  8
0
370
     0
390
0
100
AcDbVertex
100
AcDb2dVertex
 10
43.95507
 20
139.495529
 30
0.0
  0
VERTEX
  5
265
100
AcDbEntity
  8
0
370
     0
390
0
100
AcDbVertex
100
AcDb2dVertex
 10
44.154297
 20
139.120712
 30
0.0
  0
VERTEX
  5
266
100
AcDbEntity
  8
0
370
     0
390
0
100
AcDbVertex
100
AcDb2dVertex
 10
44.440018
 20
138.767166
 30
0.0
  0
VERTEX
  5
267
100
AcDbEntity
  8
0
370
     0
390
0
100
AcDbVertex
100
AcDb2dVertex
 10
44.953964
 20
138.283188
 30
0.0
  0
VERTEX
  5
268
100
AcDbEntity
  8
0
370
     0
390
0
100
AcDbVertex
100
AcDb2dVertex
 10
45.135368
 20
138.133331
 30
0.0
  0
VERTEX
  5
269
100
AcDbEntity
  8
0
370
     0
390
0
100
AcDbVertex
100
AcDb2dVertex
 10
45.287704
 20
138.024399
 30
0.0
  0
SEQEND
  5
26A
100
AcDbEntity
  8
0
370
     0
390
0
  0
ARC
  5
26B
100
AcDbEntity
  8
0
370
    35
390
0
 62
     7
100
AcDbCircle
 10
46.208771
 20
140.193497
 30
0.0
 40
2.367375
210
0.0
220
0.0
230
1.0
100
AcDbArc
 50
180.981671
 51
192.130725
  0
ARC
  5
26C
100
AcDbEntity
  8
0
370
    35
390
0
 62
     7
100
AcDbCircle
 10
46.19043
 20
140.219955
 30
0.0
 40
2.349633
210
0.0
220
0.0
230
1.0
100
AcDbArc
 50
176.427543
 51
181.634309
  0
POLYLINE
  5
26D
100
AcDbEntity
  8
0
370
    35
390
0
 62
     7
100
AcDb2dPolyline
 66
     1
 10
0.0
 20
0.0
 30
0.0
 71
     3
  0
VERTEX
  5
26E
100
AcDbEntity
  8
0
370
     0
390
0
100
AcDbVertex
100
AcDb2dVertex
 10
43.845474
 20
140.366348
 30
0.0
  0
VERTEX
  5
26F
100
AcDbEntity
  8
0
370
     0
390
0
100
AcDbVertex
100
AcDb2dVertex
 10
43.991493
 20
141.047653
 30
0.0
  0
VERTEX
  5
270
100
AcDbEntity
  8
0
370
     0
390
0
100
AcDbVertex
100
AcDb2dVertex
 10
44.144753
 20
141.445694
 30
0.0
  0
SEQEND
  5
271
100
AcDbEntity
  8
0
370
     0
390
0
  0
POLYLINE
  5
272
100
AcDbEntity
  8
0
370
    35
390
0
 62
     7
100
AcDb2dPolyline
 66
     1
 10
0.0
 20
0.0
 30
0.0
 71
     9
  0
VERTEX
  5
273
100
AcDbEntity
  8
0
370
     0
390
0
100
AcDbVertex
100
AcDb2dVertex
 10
44.144753
 20
141.445694
 30
0.0
  0
VERTEX
  5
274
100
AcDbEntity
  8
0
370
     0
390
0
100
AcDbVertex
100
AcDb2dVertex
 10
44.390923
 20
141.904663
 30
0.0
  0
VERTEX
  5
275
100
AcDbEntity
  8
0
370
     0
390
0
100
AcDbVertex
100
AcDb2dVertex
 10
44.862373
 20
142.631958
 30
0.0
  0
VERTEX
  5
276
100
AcDbEntity
  8
0
370
     0
390
0
100
AcDbVertex
100
AcDb2dVertex
 10
45.378555
 20
143.302414
 30
0.0
  0
VERTEX
  5
277
100
AcDbEntity
  8
0
370
     0
390
0
100
AcDbVertex
100
AcDb2dVertex
 10
45.945007
 20
143.941177
 30
0.0
  0
VERTEX
  5
278
100
AcDbEntity
  8
0
370
     0
390
0
100
AcDbVertex
100
AcDb2dVertex
 10
46.550659
 20
144.547363
 30
0.0
  0
VERTEX
  5
279
100
AcDbEntity
  8
0
370
     0
390
0
100
AcDbVertex
100
AcDb2dVertex
 10
47.514709
 20
145.409607
 30
0.0
  0
VERTEX
  5
27A
100
AcDbEntity
  8
0
370
     0
390
0
100
AcDbVertex
100
AcDb2dVertex
 10
48.5261
 20
146.225281
 30
0.0
  0
VERTEX
  5
27B
100
AcDbEntity
  8
0
370
     0
390
0
100
AcDbVertex
100
AcDb2dVertex
 10
50.189629
 20
147.435379
 30
0.0
  0
SEQEND
  5
27C
100
AcDbEntity
  8
0
370
     0
390
0
  0
POLYLINE
  5
27D
100
AcDbEntity
  8
0
370
    35
390
0
 62
     7
100
AcDb2dPolyline
 66
     1
 10
0.0
 20
0.0
 30
0.0
 71
    17
  0
VERTEX
  5
27E
100
AcDbEntity
  8
0
370
     0
390
0
100
AcDbVertex
100
AcDb2dVertex
 10
50.189629
 20
147.435379
 30
0.0
  0
VERTEX
  5
27F
100
AcDbEntity
  8
0
370
     0
390
0
100
AcDbVertex
100
AcDb2dVertex
 10
51.684692
 20
148.416306
 30
0.0
  0
VERTEX
  5
280
100
AcDbEntity
  8
0
370
     0
390
0
100
AcDbVertex
100
AcDb2dVertex
 10
53.71154
 20
149.605713
 30
0.0
  0
VERTEX
  5
281
100
AcDbEntity
  8
0
370
     0
390
0
100
AcDbVertex
100
AcDb2dVertex
 10
55.906448
 20
150.761017
 30
0.0
  0
VERTEX
  5
282
100
AcDbEntity
  8
0
370
     0
390
0
100
AcDbVertex
100
AcDb2dVertex
 10
58.39827
 20
151.951233
 30
0.0
  0
VERTEX
  5
283
100
AcDbEntity
  8
0
370
     0
390
0
100
AcDbVertex
100
AcDb2dVertex
 10
61.160187
 20
153.145477
 30
0.0
  0
VERTEX
  5
284
100
AcDbEntity
  8
0
370
     0
390
0
100
AcDbVertex
100
AcDb2dVertex
 10
64.164429
 20
154.311584
 30
0.0
  0
VERTEX
  5
285
100
AcDbEntity
  8
0
370
     0
390
0
100
AcDbVertex
100
AcDb2dVertex
 10
67.360085
 20
155.421921
 30
0.0
  0
VERTEX
  5
286
100
AcDbEntity
  8
0
370
     0
390
0
100
AcDbVertex
100
AcDb2dVertex
 10
70.805817
 20
156.495499
 30
0.0
  0
VERTEX
  5
287
100
AcDbEntity
  8
0
370
     0
390
0
100
AcDbVertex
100
AcDb2dVertex
 10
73.192825
 20
157.173859
 30
0.0
  0
VERTEX
  5
288
100
AcDbEntity
  8
0
370
     0
390
0
100
AcDbVertex
100
AcDb2dVertex
 10
75.816132
 20
157.863983
 30
0.0
  0
VERTEX
  5
289
100
AcDbEntity
  8
0
370
     0
390
0
100
AcDbVertex
100
AcDb2dVertex
 10
78.453026
 20
158.503296
 30
0.0
  0
VERTEX
  5
28A
100
AcDbEntity
  8
0
370
     0
390
0
100
AcDbVertex
100
AcDb2dVertex
 10
81.283226
 20
159.132843
 30
0.0
  0
VERTEX
  5
28B
100
AcDbEntity
  8
0
370
     0
390
0
100
AcDbVertex
100
AcDb2dVertex
 10
84.125351
 20
159.710449
 30
0.0
  0
VERTEX
  5
28C
100
AcDbEntity
  8
0
370
     0
390
0
100
AcDbVertex
100
AcDb2dVertex
 10
87.153084
 20
160.270599
 30
0.0
  0
VERTEX
  5
28D
100
AcDbEntity
  8
0
370
     0
390
0
100
AcDbVertex
100
AcDb2dVertex
 10
90.190125
 20
160.779724
 30
0.0
  0
VERTEX
  5
28E
100
AcDbEntity
  8
0
370
     0
390
0
100
AcDbVertex
100
AcDb2dVertex
 10
95.468651
 20
161.556046
 30
0.0
  0
SEQEND
  5
28F
100
AcDbEntity
  8
0
370
     0
390
0
  0
LINE
  5
290
100
AcDbEntity
  8
0
370
    35
390
0
 62
     7
 48
0.42933
100
AcDbLine
 10
95.468651
 20
161.556046
 30
0.0
 11
95.468651
 21
144.382843
 31
0.0
210
0.0
220
0.0
230
1.0
  0
LINE
  5
291
100
AcDbEntity
  8
0
370
    35
390
0
 62
     7
 48
0.0125
100
AcDbLine
 10
95.468651
 20
144.382843
 30
0.0
 11
95.968651
 21
144.382843
 31
0.0
210
0.0
220
0.0
230
1.0
  0
LINE
  5
292
100
AcDbEntity
  8
0
370
    35
390
0
 62
     7
 48
0.0125
100
AcDbLine
 10
95.968651
 20
144.382843
 30
0.0
 11
96.468651
 21
144.382843
 31
0.0
210
0.0
220
0.0
230
1.0
  0
LINE
  5
293
100
AcDbEntity
  8
0
370
    35
390
0
 62
     7
 48
0.432663
100
AcDbLine
 10
96.468651
 20
161.689377
 30
0.0
 11
96.468651
 21
144.382843
 31
0.0
210
0.0
220
0.0
230
1.0
  0
POLYLINE
  5
294
100
AcDbEntity
  8
0
370
    35
390
0
 62
     7
100
AcDb2dPolyline
 66
     1
 10
0.0
 20
0.0
 30
0.0
 71
    11
  0
VERTEX
  5
295
100
AcDbEntity
  8
0
370
     0
390
0
100
AcDbVertex
100
AcDb2dVertex
 10
96.468651
 20
161.689377
 30
0.0
  0
VERTEX
  5
296
100
AcDbEntity
  8
0
370
     0
390
0
100
AcDbVertex
100
AcDb2dVertex
 10
100.45076
 20
162.180801
 30
0.0
  0
VERTEX
  5
297
100
AcDbEntity
  8
0
370
     0
390
0
100
AcDbVertex
100
AcDb2dVertex
 10
104.14563
 20
162.583694
 30
0.0
  0
VERTEX
  5
298
100
AcDbEntity
  8
0
370
     0
390
0
100
AcDbVertex
100
AcDb2dVertex
 10
108.181526
 20
162.971451
 30
0.0
  0
VERTEX
  5
299
100
AcDbEntity
  8
0
370
     0
390
0
100
AcDbVertex
100
AcDb2dVertex
 10
112.221992
 20
163.310272
 30
0.0
  0
VERTEX
  5
29A
100
AcDbEntity
  8
0
370
     0
390
0
100
AcDbVertex
100
AcDb2dVertex
 10
117.920143
 20
163.712906
 30
0.0
  0
VERTEX
  5
29B
100
AcDbEntity
  8
0
370
     0
390
0
100
AcDbVertex
100
AcDb2dVertex
 10
126.097603
 20
164.156998
 30
0.0
  0
VERTEX
  5
29C
100
AcDbEntity
  8
0
370
     0
390
0
100
AcDbVertex
100
AcDb2dVertex
 10
131.120605
 20
164.36145
 30
0.0
  0
VERTEX
  5
29D
100
AcDbEntity
  8
0
370
     0
390
0
100
AcDbVertex
100
AcDb2dVertex
 10
136.142288
 20
164.517258
 30
0.0
  0
VERTEX
  5
29E
100
AcDbEntity
  8
0
370
     0
390
0
100
AcDbVertex
100
AcDb2dVertex
 10
141.247253
 20
164.628891
 30
0.0
  0
VERTEX
  5
29F
100
AcDbEntity
  8
0
370
     0
390
0
100
AcDbVertex
100
AcDb2dVertex
 10
149.571686
 20
164.718781
 30
0.0
  0
SEQEND
  5
2A0
100
AcDbEntity
  8
0
370
     0
390
0
  0
POLYLINE
  5
2A1
100
AcDbEntity
  8
0
370
    35
390
0
 62
     7
100
AcDb2dPolyline
 66
     1
 10
0.0
 20
0.0
 30
0.0
 71
    28
  0
VERTEX
  5
2A2
100
AcDbEntity
  8
0
370
     0
390
0
100
AcDbVertex
100
AcDb2dVertex
 10
149.571686
 20
164.718781
 30
0.0
  0
VERTEX
  5
2A3
100
AcDbEntity
  8
0
370
     0
390
0
100
AcDbVertex
100
AcDb2dVertex
 10
158.665131
 20
164.693665
 30
0.0
  0
VERTEX
  5
2A4
100
AcDbEntity
  8
0
370
     0
390
0
100
AcDbVertex
100
AcDb2dVertex
 10
164.750488
 20
164.614487
 30
0.0
  0
VERTEX
  5
2A5
100
AcDbEntity
  8
0
370
     0
390
0
100
AcDbVertex
100
AcDb2dVertex
 10
170.834686
 20
164.491989
 30
0.0
  0
VERTEX
  5
2A6
100
AcDbEntity
  8
0
370
     0
390
0
100
AcDbVertex
100
AcDb2dVertex
 10
177.982101
 20
164.298615
 30
0.0
  0
VERTEX
  5
2A7
100
AcDbEntity
  8
0
370
     0
390
0
100
AcDbVertex
100
AcDb2dVertex
 10
185.127441
 20
164.056793
 30
0.0
  0
VERTEX
  5
2A8
100
AcDbEntity
  8
0
370
     0
390
0
100
AcDbVertex
100
AcDb2dVertex
 10
193.036438
 20
163.735199
 30
0.0
  0
VERTEX
  5
2A9
100
AcDbEntity
  8
0
370
     0
390
0
100
AcDbVertex
100
AcDb2dVertex
 10
205.006622
 20
163.139572
 30
0.0
  0
VERTEX
  5
2AA
100
AcDbEntity
  8
0
370
     0
390
0
100
AcDbVertex
100
AcDb2dVertex
 10
217.195663
 20
162.401077
 30
0.0
  0
VERTEX
  5
2AB
100
AcDbEntity
  8
0
370
     0
390
0
100
AcDbVertex
100
AcDb2dVertex
 10
225.416901
 20
161.831207
 30
0.0
  0
VERTEX
  5
2AC
100
AcDbEntity
  8
0
370
     0
390
0
100
AcDbVertex
100
AcDb2dVertex
 10
233.633911
 20
161.205261
 30
0.0
  0
VERTEX
  5
2AD
100
AcDbEntity
  8
0
370
     0
390
0
100
AcDbVertex
100
AcDb2dVertex
 10
244.894882
 20
160.249435
 30
0.0
  0
VERTEX
  5
2AE
100
AcDbEntity
  8
0
370
     0
390
0
100
AcDbVertex
100
AcDb2dVertex
 10
255.758102
 20
159.213348
 30
0.0
  0
VERTEX
  5
2AF
100
AcDbEntity
  8
0
370
     0
390
0
100
AcDbVertex
100
AcDb2dVertex
 10
266.072632
 20
158.116974
 30
0.0
  0
VERTEX
  5
2B0
100
AcDbEntity
  8
0
370
     0
390
0
100
AcDbVertex
100
AcDb2dVertex
 10
276.082092
 20
156.941559
 30
0.0
  0
VERTEX
  5
2B1
100
AcDbEntity
  8
0
370
     0
390
0
100
AcDbVertex
100
AcDb2dVertex
 10
286.99472
 20
155.530426
 30
0.0
  0
VERTEX
  5
2B2
100
AcDbEntity
  8
0
370
     0
390
0
100
AcDbVertex
100
AcDb2dVertex
 10
298.162537
 20
153.965637
 30
0.0
  0
VERTEX
  5
2B3
100
AcDbEntity
  8
0
370
     0
390
0
100
AcDbVertex
100
AcDb2dVertex
 10
310.375732
 20
152.157623
 30
0.0
  0
VERTEX
  5
2B4
100
AcDbEntity
  8
0
370
     0
390
0
100
AcDbVertex
100
AcDb2dVertex
 10
324.416626
 20
150.031815
 30
0.0
  0
VERTEX
  5
2B5
100
AcDbEntity
  8
0
370
     0
390
0
100
AcDbVertex
100
AcDb2dVertex
 10
333.788452
 20
148.628952
 30
0.0
  0
VERTEX
  5
2B6
100
AcDbEntity
  8
0
370
     0
390
0
100
AcDbVertex
100
AcDb2dVertex
 10
340.649445
 20
147.6315
 30
0.0
  0
VERTEX
  5
2B7
100
AcDbEntity
  8
0
370
     0
390
0
100
AcDbVertex
100
AcDb2dVertex
 10
350.560211
 20
146.261536
 30
0.0
  0
VERTEX
  5
2B8
100
AcDbEntity
  8
0
370
     0
390
0
100
AcDbVertex
100
AcDb2dVertex
 10
359.296814
 20
145.161163
 30
0.0
  0
VERTEX
  5
2B9
100
AcDbEntity
  8
0
370
     0
390
0
100
AcDbVertex
100
AcDb2dVertex
 10
361.380188
 20
144.917816
 30
0.0
  0
VERTEX
  5
2BA
100
AcDbEntity
  8
0
370
     0
390
0
100
AcDbVertex
100
AcDb2dVertex
 10
367.608978
 20
144.25
 30
0.0
  0
VERTEX
  5
2BB
100
AcDbEntity
  8
0
370
     0
390
0
100
AcDbVertex
100
AcDb2dVertex
 10
370.867126
 20
143.944611
 30
0.0
  0
VERTEX
  5
2BC
100
AcDbEntity
  8
0
370
     0
390
0
100
AcDbVertex
100
AcDb2dVertex
 10
374.149994
 20
143.681381
 30
0.0
  0
VERTEX
  5
2BD
100
AcDbEntity
  8
0
370
     0
390
0
100
AcDbVertex
100
AcDb2dVertex
 10
375.87262
 20
143.565948
 30
0.0
  0
SEQEND
  5
2BE
100
AcDbEntity
  8
0
370
     0
390
0
  0
LINE
  5
2BF
100
AcDbEntity
  8
0
370
    35
390
0
 62
     7
 48
0.007265
100
AcDbLine
 10
375.87262
 20
143.565948
 30
0.0
 11
376.16272
 21
143.548859
 31
0.0
210
0.0
220
0.0
230
1.0
  0
ARC
  5
2C0
100
AcDbEntity
  8
0
370
    35
390
0
 62
     7
100
AcDbCircle
 10
374.760986
 20
255.047455
 30
0.0
 40
111.507223
210
0.0
220
0.0
230
1.0
100
AcDbArc
 50
269.521666
 51
270.720255
  0
POLYLINE
  5
2C1
100
AcDbEntity
  8
0
370
    35
390
0
 62
     7
100
AcDb2dPolyline
 66
     1
 10
0.0
 20
0.0
 30
0.0
 71
     9
  0
VERTEX
  5
2C2
100
AcDbEntity
  8
0
370
     0
390
0
100
AcDbVertex
100
AcDb2dVertex
 10
266.154816
 20
137.783386
 30
0.0
  0
VERTEX
  5
2C3
100
AcDbEntity
  8
0
370
     0
390
0
100
AcDbVertex
100
AcDb2dVertex
 10
294.787598
 20
139.610336
 30
0.0
  0
VERTEX
  5
2C4
100
AcDbEntity
  8
0
370
     0
390
0
100
AcDbVertex
100
AcDb2dVertex
 10
307.64975
 20
140.406723
 30
0.0
  0
VERTEX
  5
2C5
100
AcDbEntity
  8
0
370
     0
390
0
100
AcDbVertex
100
AcDb2dVertex
 10
323.732758
 20
141.347992
 30
0.0
  0
VERTEX
  5
2C6
100
AcDbEntity
  8
0
370
     0
390
0
100
AcDbVertex
100
AcDb2dVertex
 10
341.959198
 20
142.302368
 30
0.0
  0
VERTEX
  5
2C7
100
AcDbEntity
  8
0
370
     0
390
0
100
AcDbVertex
100
AcDb2dVertex
 10
355.780579
 20
142.920807
 30
0.0
  0
VERTEX
  5
2C8
100
AcDbEntity
  8
0
370
     0
390
0
100
AcDbVertex
100
AcDb2dVertex
 10
371.213837
 20
143.464355
 30
0.0
  0
VERTEX
  5
2C9
100
AcDbEntity
  8
0
370
     0
390
0
100
AcDbVertex
100
AcDb2dVertex
 10
373.555237
 20
143.537567
 30
0.0
  0
VERTEX
  5
2CA
100
AcDbEntity
  8
0
370
     0
390
0
100
AcDbVertex
100
AcDb2dVertex
 10
373.719421
 20
143.543701
 30
0.0
  0
SEQEND
  5
2CB
100
AcDbEntity
  8
0
370
     0
390
0
  0
LINE
  5
2CC
100
AcDbEntity
  8
0
370
    35
390
0
 62
     7
 48
0.002766
100
AcDbLine
 10
373.719421
 20
143.543701
 30
0.0
 11
373.830078
 21
143.544067
 31
0.0
210
0.0
220
0.0
230
1.0
  0
LINE
  5
2CD
100
AcDbEntity
  8
0
370
    35
390
0
 62
     7
 48
0.223934
100
AcDbLine
 10
266.154816
 20
137.783386
 30
0.0
 11
266.154816
 21
146.740738
 31
0.0
210
0.0
220
0.0
230
1.0
  0
LINE
  5
2CE
100
AcDbEntity
  8
0
370
    35
390
0
 62
     7
 48
0.025
100
AcDbLine
 10
266.154816
 20
146.740738
 30
0.0
 11
265.154816
 21
146.740738
 31
0.0
210
0.0
220
0.0
230
1.0
  0
LINE
  5
2CF
100
AcDbEntity
  8
0
370
    35
390
0
 62
     7
 48
0.225518
100
AcDbLine
 10
265.154816
 20
137.720001
 30
0.0
 11
265.154816
 21
146.740738
 31
0.0
210
0.0
220
0.0
230
1.0
  0
LINE
  5
2D0
100
AcDbEntity
  8
0
370
    35
390
0
 62
     7
 48
0.015066
100
AcDbLine
 10
270.145355
 20
146.403305
 30
0.0
 11
270.145447
 21
145.800674
 31
0.0
210
0.0
220
0.0
230
1.0
  0
ARC
  5
2D1
100
AcDbEntity
  8
0
370
    35
390
0
 62
     7
100
AcDbCircle
 10
272.137177
 20
145.801514
 30
0.0
 40
1.9918
210
0.0
220
0.0
230
1.0
100
AcDbArc
 50
181.572632
 51
272.717518
  0
LINE
  5
2D2
100
AcDbEntity
  8
0
370
    35
390
0
 62
     7
 48
0.001346
100
AcDbLine
 10
270.14621
 20
145.746857
 30
0.0
 11
270.145447
 21
145.800674
 31
0.0
210
0.0
220
0.0
230
1.0
  0
POLYLINE
  5
2D3
100
AcDbEntity
  8
0
370
    35
390
0
 62
     7
100
AcDb2dPolyline
 66
     1
 10
0.0
 20
0.0
 30
0.0
 71
     4
  0
VERTEX
  5
2D4
100
AcDbEntity
  8
0
370
     0
390
0
100
AcDbVertex
100
AcDb2dVertex
 10
308.708069
 20
145.401413
 30
0.0
  0
VERTEX
  5
2D5
100
AcDbEntity
  8
0
370
     0
390
0
100
AcDbVertex
100
AcDb2dVertex
 10
295.983582
 20
144.887939
 30
0.0
  0
VERTEX
  5
2D6
100
AcDbEntity
  8
0
370
     0
390
0
100
AcDbVertex
100
AcDb2dVertex
 10
283.227112
 20
144.324829
 30
0.0
  0
VERTEX
  5
2D7
100
AcDbEntity
  8
0
370
     0
390
0
100
AcDbVertex
100
AcDb2dVertex
 10
272.231628
 20
143.812012
 30
0.0
  0
SEQEND
  5
2D8
100
AcDbEntity
  8
0
370
     0
390
0
  0
POLYLINE
  5
2D9
100
AcDbEntity
  8
0
370
    35
390
0
 62
     7
100
AcDb2dPolyline
 66
     1
 10
0.0
 20
0.0
 30
0.0
 71
     5
  0
VERTEX
  5
2DA
100
AcDbEntity
  8
0
370
     0
390
0
100
AcDbVertex
100
AcDb2dVertex
 10
272.362762
 20
150.168076
 30
0.0
  0
VERTEX
  5
2DB
100
AcDbEntity
  8
0
370
     0
390
0
100
AcDbVertex
100
AcDb2dVertex
 10
279.606537
 20
149.314713
 30
0.0
  0
VERTEX
  5
2DC
100
AcDbEntity
  8
0
370
     0
390
0
100
AcDbVertex
100
AcDb2dVertex
 10
290.429504
 20
147.941803
 30
0.0
  0
VERTEX
  5
2DD
100
AcDbEntity
  8
0
370
     0
390
0
100
AcDbVertex
100
AcDb2dVertex
 10
299.521881
 20
146.707062
 30
0.0
  0
VERTEX
  5
2DE
100
AcDbEntity
  8
0
370
     0
390
0
100
AcDbVertex
100
AcDb2dVertex
 10
308.708069
 20
145.401413
 30
0.0
  0
SEQEND
  5
2DF
100
AcDbEntity
  8
0
370
     0
390
0
  0
ARC
  5
2E0
100
AcDbEntity
  8
0
370
    35
390
0
 62
     7
100
AcDbCircle
 10
272.137177
 20
148.189087
 30
0.0
 40
1.99188
210
0.0
220
0.0
230
1.0
100
AcDbArc
 50
83.496187
 51
179.99521
  0
LINE
  5
2E1
100
AcDbEntity
  8
0
370
    35
390
0
 62
     7
 48
0.044649
100
AcDbLine
 10
270.145355
 20
148.189255
 30
0.0
 11
270.145355
 21
146.403305
 31
0.0
210
0.0
220
0.0
230
1.0
  0
ARC
  5
2E2
100
AcDbEntity
  8
0
370
    35
390
0
 62
     7
100
AcDbCircle
 10
259.167328
 20
149.571777
 30
0.0
 40
2.001134
210
0.0
220
0.0
230
1.0
100
AcDbArc
 50
64.242464
 51
84.217284
  0
ARC
  5
2E3
100
AcDbEntity
  8
0
370
    35
390
0
 62
     7
100
AcDbCircle
 10
156.86319
 20
-864.891052
 30
0.0
 40
1021.609399
210
0.0
220
0.0
230
1.0
100
AcDbArc
 50
84.241395
 51
84.474168
  0
ARC
  5
2E4
100
AcDbEntity
  8
0
370
    35
390
0
 62
     7
100
AcDbCircle
 10
255.046768
 20
149.97818
 30
0.0
 40
2.001838
210
0.0
220
0.0
230
1.0
100
AcDbArc
 50
84.502001
 51
105.49723
  0
ARC
  5
2E5
100
AcDbEntity
  8
0
370
    35
390
0
 62
     7
100
AcDbCircle
 10
255.044601
 20
149.989273
 30
0.0
 40
1.990639
210
0.0
220
0.0
230
1.0
100
AcDbArc
 50
105.522263
 51
173.66133
  0
ARC
  5
2E6
100
AcDbEntity
  8
0
370
    35
390
0
 62
     7
100
AcDbCircle
 10
255.041519
 20
149.987762
 30
0.0
 40
1.987906
210
0.0
220
0.0
230
1.0
100
AcDbArc
 50
173.608601
 51
214.870706
  0
ARC
  5
2E7
100
AcDbEntity
  8
0
370
    35
390
0
 62
     7
100
AcDbCircle
 10
255.052536
 20
149.995117
 30
0.0
 40
2.001192
210
0.0
220
0.0
230
1.0
100
AcDbArc
 50
214.862865
 51
234.985285
  0
LINE
  5
2E8
100
AcDbEntity
  8
0
370
    35
390
0
 62
     7
 48
0.125808
100
AcDbLine
 10
258.027008
 20
145.470398
 30
0.0
 11
253.904282
 21
148.35614
 31
0.0
210
0.0
220
0.0
230
1.0
  0
ARC
  5
2E9
100
AcDbEntity
  8
0
370
    35
390
0
 62
     7
100
AcDbCircle
 10
259.173981
 20
147.110519
 30
0.0
 40
2.001395
210
0.0
220
0.0
230
1.0
100
AcDbArc
 50
235.034176
 51
255.092925
  0
ARC
  5
2EA
100
AcDbEntity
  8
0
370
    35
390
0
 62
     7
100
AcDbCircle
 10
259.170471
 20
147.101059
 30
0.0
 40
1.991375
210
0.0
220
0.0
230
1.0
100
AcDbArc
 50
255.120779
 51
341.980142
  0
ARC
  5
2EB
100
AcDbEntity
  8
0
370
    35
390
0
 62
     7
100
AcDbCircle
 10
259.161285
 20
147.103226
 30
0.0
 40
2.000757
210
0.0
220
0.0
230
1.0
100
AcDbArc
 50
342.002615
 51
358.737281
  0
LINE
  5
2EC
100
AcDbEntity
  8
0
370
    35
390
0
 62
     7
 48
0.001085
100
AcDbLine
 10
261.16153
 20
147.059128
 30
0.0
 11
261.162018
 21
147.102539
 31
0.0
210
0.0
220
0.0
230
1.0
  0
LINE
  5
2ED
100
AcDbEntity
  8
0
370
    35
390
0
 62
     7
 48
0.061964
100
AcDbLine
 10
261.162018
 20
147.102539
 30
0.0
 11
261.162018
 21
149.5811
 31
0.0
210
0.0
220
0.0
230
1.0
  0
ARC
  5
2EE
100
AcDbEntity
  8
0
370
    35
390
0
 62
     7
100
AcDbCircle
 10
259.170715
 20
149.581055
 30
0.0
 40
1.99128
210
0.0
220
0.0
230
1.0
100
AcDbArc
 50
0.001342
 51
64.214652
  0
ARC
  5
2EF
100
AcDbEntity
  8
0
370
    35
390
0
 62
     7
100
AcDbCircle
 10
240.011673
 20
148.340302
 30
0.0
 40
3.987499
210
0.0
220
0.0
230
1.0
100
AcDbArc
 50
55.00948
 51
129.509635
  0
LINE
  5
2F0
100
AcDbEntity
  8
0
370
    35
390
0
 62
     7
 48
0.08938
100
AcDbLine
 10
234.717758
 20
149.140594
 30
0.0
 11
237.474823
 21
151.416702
 31
0.0
210
0.0
220
0.0
230
1.0
  0
LINE
  5
2F1
100
AcDbEntity
  8
0
370
    35
390
0
 62
     7
 48
0.150127
100
AcDbLine
 10
234.717758
 20
149.140594
 30
0.0
 11
230.088852
 21
145.31514
 31
0.0
210
0.0
220
0.0
230
1.0
  0
ARC
  5
2F2
100
AcDbEntity
  8
0
370
    35
390
0
 62
     7
100
AcDbCircle
 10
231.360397
 20
143.77655
 30
0.0
 40
1.996021
210
0.0
220
0.0
230
1.0
100
AcDbArc
 50
129.571311
 51
160.935376
  0
ARC
  5
2F3
100
AcDbEntity
  8
0
370
    35
390
0
 62
     7
100
AcDbCircle
 10
231.359879
 20
143.776718
 30
0.0
 40
1.995476
210
0.0
220
0.0
230
1.0
100
AcDbArc
 50
160.935294
 51
167.668945
  0
ARC
  5
2F4
100
AcDbEntity
  8
0
370
    35
390
0
 62
     7
100
AcDbCircle
 10
231.356125
 20
143.777893
 30
0.0
 40
1.991686
210
0.0
220
0.0
230
1.0
100
AcDbArc
 50
167.679122
 51
272.887269
  0
ARC
  5
2F5
100
AcDbEntity
  8
0
370
    35
390
0
 62
     7
100
AcDbCircle
 10
1851.164795
 20
-31829.052734
 30
0.0
 40
32011.843969
210
0.0
220
0.0
230
1.0
100
AcDbArc
 50
92.869064
 51
92.900244
  0
ARC
  5
2F6
100
AcDbEntity
  8
0
370
    35
390
0
 62
     7
100
AcDbCircle
 10
248.75145
 20
144.67009
 30
0.0
 40
2.007455
210
0.0
220
0.0
230
1.0
100
AcDbArc
 50
272.952156
 51
303.160545
  0
ARC
  5
2F7
100
AcDbEntity
  8
0
370
    35
390
0
 62
     7
100
AcDbCircle
 10
248.758987
 20
144.655975
 30
0.0
 40
1.989703
210
0.0
220
0.0
230
1.0
100
AcDbArc
 50
353.83858
 51
55.027723
  0
ARC
  5
2F8
100
AcDbEntity
  8
0
370
    35
390
0
 62
     7
100
AcDbCircle
 10
248.760147
 20
144.653015
 30
0.0
 40
1.988316
210
0.0
220
0.0
230
1.0
100
AcDbArc
 50
303.219319
 51
353.91969
  0
LINE
  5
2F9
100
AcDbEntity
  8
0
370
    35
390
0
 62
     7
 48
0.231958
100
AcDbLine
 10
249.899429
 20
146.286362
 30
0.0
 11
242.298264
 21
151.60704
 31
0.0
210
0.0
220
0.0
230
1.0
  0
ARC
  5
2FA
100
AcDbEntity
  8
0
370
    35
390
0
 62
     7
100
AcDbCircle
 10
229.003845
 20
152.166763
 30
0.0
 40
2.012587
210
0.0
220
0.0
230
1.0
100
AcDbArc
 50
48.819433
 51
85.669273
  0
ARC
  5
2FB
100
AcDbEntity
  8
0
370
    35
390
0
 62
     7
100
AcDbCircle
 10
146.607117
 20
-972.394287
 30
0.0
 40
1129.587463
210
0.0
220
0.0
230
1.0
100
AcDbArc
 50
85.809169
 51
87.067734
  0
ARC
  5
2FC
100
AcDbEntity
  8
0
370
    35
390
0
 62
     7
100
AcDbCircle
 10
204.29007
 20
153.727112
 30
0.0
 40
1.988978
210
0.0
220
0.0
230
1.0
100
AcDbArc
 50
87.077979
 51
145.055883
  0
ARC
  5
2FD
100
AcDbEntity
  8
0
370
    35
390
0
 62
     7
100
AcDbCircle
 10
204.28775
 20
153.724945
 30
0.0
 40
1.988342
210
0.0
220
0.0
230
1.0
100
AcDbArc
 50
144.966298
 51
200.065752
  0
ARC
  5
2FE
100
AcDbEntity
  8
0
370
    35
390
0
 62
     7
100
AcDbCircle
 10
204.307419
 20
153.736252
 30
0.0
 40
2.010801
210
0.0
220
0.0
230
1.0
100
AcDbArc
 50
200.17595
 51
234.875838
  0
LINE
  5
2FF
100
AcDbEntity
  8
0
370
    35
390
0
 62
     7
 48
0.373168
100
AcDbLine
 10
215.379181
 20
143.531998
 30
0.0
 11
203.150558
 21
152.091675
 31
0.0
210
0.0
220
0.0
230
1.0
  0
LINE
  5
300
100
AcDbEntity
  8
0
370
    35
390
0
 62
     7
 48
0.028008
100
AcDbLine
 10
216.297089
 20
142.889709
 30
0.0
 11
215.379181
 21
143.531998
 31
0.0
210
0.0
220
0.0
230
1.0
  0
ARC
  5
301
100
AcDbEntity
  8
0
370
    35
390
0
 62
     7
100
AcDbCircle
 10
218.582581
 20
146.15741
 30
0.0
 40
3.987669
210
0.0
220
0.0
230
1.0
100
AcDbArc
 50
235.030173
 51
309.530312
  0
LINE
  5
302
100
AcDbEntity
  8
0
370
    35
390
0
 62
     7
 48
0.058297
100
AcDbLine
 10
221.120667
 20
143.081787
 30
0.0
 11
222.918671
 21
144.566666
 31
0.0
210
0.0
220
0.0
230
1.0
  0
LINE
  5
303
100
AcDbEntity
  8
0
370
    35
390
0
 62
     7
 48
0.238807
100
AcDbLine
 10
230.281845
 20
150.65184
 30
0.0
 11
222.918671
 21
144.566666
 31
0.0
210
0.0
220
0.0
230
1.0
  0
ARC
  5
304
100
AcDbEntity
  8
0
370
    35
390
0
 62
     7
100
AcDbCircle
 10
229.013596
 20
152.186905
 30
0.0
 40
1.990984
210
0.0
220
0.0
230
1.0
100
AcDbArc
 50
341.944564
 51
48.64902
  0
ARC
  5
305
100
AcDbEntity
  8
0
370
    35
390
0
 62
     7
100
AcDbCircle
 10
229.015289
 20
152.185562
 30
0.0
 40
1.989063
210
0.0
220
0.0
230
1.0
100
AcDbArc
 50
309.550027
 51
341.966178
  0
LINE
  5
306
100
AcDbEntity
  8
0
370
    35
390
0
 62
     7
 48
0.047013
100
AcDbLine
 10
194.171967
 20
153.503082
 30
0.0
 11
192.631134
 21
154.581161
 31
0.0
210
0.0
220
0.0
230
1.0
  0
ARC
  5
307
100
AcDbEntity
  8
0
370
    35
390
0
 62
     7
100
AcDbCircle
 10
190.346329
 20
151.313797
 30
0.0
 40
3.987014
210
0.0
220
0.0
230
1.0
100
AcDbArc
 50
55.035684
 51
129.532297
  0
LINE
  5
308
100
AcDbEntity
  8
0
370
    35
390
0
 62
     7
 48
0.06614
100
AcDbLine
 10
187.808563
 20
154.388824
 30
0.0
 11
185.768661
 21
152.704193
 31
0.0
210
0.0
220
0.0
230
1.0
  0
LINE
  5
309
100
AcDbEntity
  8
0
370
    35
390
0
 62
     7
 48
0.341142
100
AcDbLine
 10
185.768661
 20
152.704193
 30
0.0
 11
175.249817
 21
144.01178
 31
0.0
210
0.0
220
0.0
230
1.0
  0
LINE
  5
30A
100
AcDbEntity
  8
0
370
    35
390
0
 62
     7
 48
0.05673
100
AcDbLine
 10
175.249817
 20
144.01178
 30
0.0
 11
173.501282
 21
142.56543
 31
0.0
210
0.0
220
0.0
230
1.0
  0
ARC
  5
30B
100
AcDbEntity
  8
0
370
    35
390
0
 62
     7
100
AcDbCircle
 10
174.77272
 20
141.03064
 30
0.0
 40
1.993167
210
0.0
220
0.0
230
1.0
100
AcDbArc
 50
136.864082
 51
272.536375
  0
ARC
  5
30C
100
AcDbEntity
  8
0
370
    35
390
0
 62
     7
100
AcDbCircle
 10
174.771881
 20
141.03064
 30
0.0
 40
1.992474
210
0.0
220
0.0
230
1.0
100
AcDbArc
 50
129.620134
 51
136.84773
  0
LINE
  5
30D
100
AcDbEntity
  8
0
370
    35
390
0
 62
     7
 48
0.021197
100
AcDbLine
 10
174.860931
 20
139.039368
 30
0.0
 11
175.707993
 21
139.077042
 31
0.0
210
0.0
220
0.0
230
1.0
  0
ARC
  5
30E
100
AcDbEntity
  8
0
370
    35
390
0
 62
     7
100
AcDbCircle
 10
-113.978256
 20
6569.109375
 30
0.0
 40
6436.554848
210
0.0
220
0.0
230
1.0
100
AcDbArc
 50
272.579548
 51
272.821897
  0
LINE
  5
30F
100
AcDbEntity
  8
0
370
    35
390
0
 62
     7
 48
0.089486
100
AcDbLine
 10
206.478241
 20
140.537659
 30
0.0
 11
202.903244
 21
140.35907
 31
0.0
210
0.0
220
0.0
230
1.0
  0
ARC
  5
310
100
AcDbEntity
  8
0
370
    35
390
0
 62
     7
100
AcDbCircle
 10
206.37587
 20
142.527359
 30
0.0
 40
1.993219
210
0.0
220
0.0
230
1.0
100
AcDbArc
 50
333.067736
 51
55.009374
  0
ARC
  5
311
100
AcDbEntity
  8
0
370
    35
390
0
 62
     7
100
AcDbCircle
 10
206.37706
 20
142.527008
 30
0.0
 40
1.991956
210
0.0
220
0.0
230
1.0
100
AcDbArc
 50
272.911953
 51
333.0615
  0
LINE
  5
312
100
AcDbEntity
  8
0
370
    35
390
0
 62
     7
 48
0.407298
100
AcDbLine
 10
207.51886
 20
144.160309
 30
0.0
 11
194.171967
 21
153.503082
 31
0.0
210
0.0
220
0.0
230
1.0
  0
ARC
  5
313
100
AcDbEntity
  8
0
370
    35
390
0
 62
     7
100
AcDbCircle
 10
165.320862
 20
-442.634399
 30
0.0
 40
599.420922
210
0.0
220
0.0
230
1.0
100
AcDbArc
 50
88.714568
 51
88.99884
  0
ARC
  5
314
100
AcDbEntity
  8
0
370
    35
390
0
 62
     7
100
AcDbCircle
 10
162.566254
 20
-576.170227
 30
0.0
 40
732.983828
210
0.0
220
0.0
230
1.0
100
AcDbArc
 50
88.965932
 51
90.588977
  0
ARC
  5
315
100
AcDbEntity
  8
0
370
    35
390
0
 62
     7
100
AcDbCircle
 10
161.413925
 20
-430.800293
 30
0.0
 40
587.608883
210
0.0
220
0.0
230
1.0
100
AcDbArc
 50
90.622328
 51
91.666487
  0
LINE
  5
316
100
AcDbEntity
  8
0
370
    35
390
0
 62
     7
 48
0.037312
100
AcDbLine
 10
144.325317
 20
156.559937
 30
0.0
 11
142.833542
 21
156.513733
 31
0.0
210
0.0
220
0.0
230
1.0
  0
ARC
  5
317
100
AcDbEntity
  8
0
370
    35
390
0
 62
     7
100
AcDbCircle
 10
142.898743
 20
154.521362
 30
0.0
 40
1.993423
210
0.0
220
0.0
230
1.0
100
AcDbArc
 50
123.417407
 51
234.950766
  0
ARC
  5
318
100
AcDbEntity
  8
0
370
    35
390
0
 62
     7
100
AcDbCircle
 10
142.898499
 20
154.522278
 30
0.0
 40
1.992518
210
0.0
220
0.0
230
1.0
100
AcDbArc
 50
91.868107
 51
123.425712
  0
LINE
  5
319
100
AcDbEntity
  8
0
370
    35
390
0
 62
     7
 48
0.049397
100
AcDbLine
 10
141.753967
 20
152.889435
 30
0.0
 11
143.372131
 21
151.755585
 31
0.0
210
0.0
220
0.0
230
1.0
  0
LINE
  5
31A
100
AcDbEntity
  8
0
370
    35
390
0
 62
     7
100
AcDbLine
 10
159.824768
 20
140.238861
 30
0.0
 11
143.372131
 21
151.755585
 31
0.0
210
0.0
220
0.0
230
1.0
  0
ARC
  5
31B
100
AcDbEntity
  8
0
370
    35
390
0
 62
     7
100
AcDbCircle
 10
162.111069
 20
143.505051
 30
0.0
 40
3.986882
210
0.0
220
0.0
230
1.0
100
AcDbArc
 50
235.00833
 51
309.505364
  0
LINE
  5
31C
100
AcDbEntity
  8
0
370
    35
390
0
 62
     7
 48
0.113989
100
AcDbLine
 10
164.647293
 20
140.42894
 30
0.0
 11
168.163605
 21
143.331543
 31
0.0
210
0.0
220
0.0
230
1.0
  0
LINE
  5
31D
100
AcDbEntity
  8
0
370
    35
390
0
 62
     7
 48
0.383623
100
AcDbLine
 10
179.992325
 20
153.1064
 30
0.0
 11
168.163605
 21
143.331543
 31
0.0
210
0.0
220
0.0
230
1.0
  0
ARC
  5
31E
100
AcDbEntity
  8
0
370
    35
390
0
 62
     7
100
AcDbCircle
 10
178.721527
 20
154.642548
 30
0.0
 40
1.994387
210
0.0
220
0.0
230
1.0
100
AcDbArc
 50
317.295847
 51
88.670923
  0
ARC
  5
31F
100
AcDbEntity
  8
0
370
    35
390
0
 62
     7
100
AcDbCircle
 10
178.713394
 20
154.654266
 30
0.0
 40
2.007865
210
0.0
220
0.0
230
1.0
100
AcDbArc
 50
309.565217
 51
317.207232
  0
LINE
  5
320
100
AcDbEntity
  8
0
370
    35
390
0
 62
     7
 48
0.041576
100
AcDbLine
 10
134.234238
 20
153.278397
 30
0.0
 11
132.871628
 21
154.231827
 31
0.0
210
0.0
220
0.0
230
1.0
  0
ARC
  5
321
100
AcDbEntity
  8
0
370
    35
390
0
 62
     7
100
AcDbCircle
 10
130.586624
 20
150.964432
 30
0.0
 40
3.987157
210
0.0
220
0.0
230
1.0
100
AcDbArc
 50
55.033498
 51
121.589429
  0
ARC
  5
322
100
AcDbEntity
  8
0
370
    35
390
0
 62
     7
100
AcDbCircle
 10
130.587692
 20
150.963577
 30
0.0
 40
3.98843
210
0.0
220
0.0
230
1.0
100
AcDbArc
 50
121.596041
 51
129.53201
  0
LINE
  5
323
100
AcDbEntity
  8
0
370
    35
390
0
 62
     7
 48
0.07112
100
AcDbLine
 10
125.855476
 20
152.228317
 30
0.0
 11
128.049011
 21
154.039734
 31
0.0
210
0.0
220
0.0
230
1.0
  0
LINE
  5
324
100
AcDbEntity
  8
0
370
    35
390
0
 62
     7
 48
0.405962
100
AcDbLine
 10
113.337936
 20
141.884247
 30
0.0
 11
125.855476
 21
152.228317
 31
0.0
210
0.0
220
0.0
230
1.0
  0
LINE
  5
325
100
AcDbEntity
  8
0
370
    35
390
0
 62
     7
 48
0.053663
100
AcDbLine
 10
111.683907
 20
140.516113
 30
0.0
 11
113.337936
 21
141.884247
 31
0.0
210
0.0
220
0.0
230
1.0
  0
ARC
  5
326
100
AcDbEntity
  8
0
370
    35
390
0
 62
     7
100
AcDbCircle
 10
112.955254
 20
138.981171
 30
0.0
 40
1.993168
210
0.0
220
0.0
230
1.0
100
AcDbArc
 50
129.633767
 51
270.802681
  0
LINE
  5
327
100
AcDbEntity
  8
0
370
    35
390
0
 62
     7
 48
0.023236
100
AcDbLine
 10
112.98317
 20
136.988144
 30
0.0
 11
113.912529
 21
137.001678
 31
0.0
210
0.0
220
0.0
230
1.0
  0
POLYLINE
  5
328
100
AcDbEntity
  8
0
370
    35
390
0
 62
     7
100
AcDb2dPolyline
 66
     1
 10
0.0
 20
0.0
 30
0.0
 71
     5
  0
VERTEX
  5
329
100
AcDbEntity
  8
0
370
     0
390
0
100
AcDbVertex
100
AcDb2dVertex
 10
113.912529
 20
137.001678
 30
0.0
  0
VERTEX
  5
32A
100
AcDbEntity
  8
0
370
     0
390
0
100
AcDbVertex
100
AcDb2dVertex
 10
121.180138
 20
137.135986
 30
0.0
  0
VERTEX
  5
32B
100
AcDbEntity
  8
0
370
     0
390
0
100
AcDbVertex
100
AcDb2dVertex
 10
128.450134
 20
137.3116
 30
0.0
  0
VERTEX
  5
32C
100
AcDbEntity
  8
0
370
     0
390
0
100
AcDbVertex
100
AcDb2dVertex
 10
142.9935
 20
137.759003
 30
0.0
  0
VERTEX
  5
32D
100
AcDbEntity
  8
0
370
     0
390
0
100
AcDbVertex
100
AcDb2dVertex
 10
146.226379
 20
137.872543
 30
0.0
  0
SEQEND
  5
32E
100
AcDbEntity
  8
0
370
     0
390
0
  0
ARC
  5
32F
100
AcDbEntity
  8
0
370
    35
390
0
 62
     7
100
AcDbCircle
 10
100.443657
 20
1413.266968
 30
0.0
 40
1276.215925
210
0.0
220
0.0
230
1.0
100
AcDbArc
 50
272.055857
 51
272.216872
  0
ARC
  5
330
100
AcDbEntity
  8
0
370
    35
390
0
 62
     7
100
AcDbCircle
 10
149.732239
 20
139.997086
 30
0.0
 40
1.992969
210
0.0
220
0.0
230
1.0
100
AcDbArc
 50
312.86202
 51
55.014165
  0
ARC
  5
331
100
AcDbEntity
  8
0
370
    35
390
0
 62
     7
100
AcDbCircle
 10
149.733444
 20
139.995926
 30
0.0
 40
1.991216
210
0.0
220
0.0
230
1.0
100
AcDbArc
 50
272.211879
 51
312.85938
  0
LINE
  5
332
100
AcDbEntity
  8
0
370
    35
390
0
 62
     7
100
AcDbLine
 10
150.874985
 20
141.629944
 30
0.0
 11
134.234238
 21
153.278397
 31
0.0
210
0.0
220
0.0
230
1.0
  0
ARC
  5
333
100
AcDbEntity
  8
0
370
    35
390
0
 62
     7
100
AcDbCircle
 10
103.030998
 20
141.129089
 30
0.0
 40
1.993518
210
0.0
220
0.0
230
1.0
100
AcDbArc
 50
179.990402
 51
255.309879
  0
ARC
  5
334
100
AcDbEntity
  8
0
370
    35
390
0
 62
     7
100
AcDbCircle
 10
103.02919
 20
141.125534
 30
0.0
 40
1.989599
210
0.0
220
0.0
230
1.0
100
AcDbArc
 50
255.334181
 51
301.49359
  0
ARC
  5
335
100
AcDbEntity
  8
0
370
    35
390
0
 62
     7
100
AcDbCircle
 10
103.029686
 20
141.125168
 30
0.0
 40
1.989029
210
0.0
220
0.0
230
1.0
100
AcDbArc
 50
301.486814
 51
309.466381
  0
LINE
  5
336
100
AcDbEntity
  8
0
370
    35
390
0
 62
     7
 48
0.068878
100
AcDbLine
 10
106.41954
 20
141.342529
 30
0.0
 11
104.293961
 21
139.589645
 31
0.0
210
0.0
220
0.0
230
1.0
  0
LINE
  5
337
100
AcDbEntity
  8
0
370
    35
390
0
 62
     7
 48
0.400428
100
AcDbLine
 10
106.41954
 20
141.342529
 30
0.0
 11
118.766731
 21
151.545197
 31
0.0
210
0.0
220
0.0
230
1.0
  0
ARC
  5
338
100
AcDbEntity
  8
0
370
    35
390
0
 62
     7
100
AcDbCircle
 10
117.489357
 20
153.088104
 30
0.0
 40
2.003078
210
0.0
220
0.0
230
1.0
100
AcDbArc
 50
309.621563
 51
335.171473
  0
ARC
  5
339
100
AcDbEntity
  8
0
370
    35
390
0
 62
     7
100
AcDbCircle
 10
117.498238
 20
153.081955
 30
0.0
 40
1.992556
210
0.0
220
0.0
230
1.0
100
AcDbArc
 50
335.224624
 51
94.673361
  0
ARC
  5
33A
100
AcDbEntity
  8
0
370
    35
390
0
 62
     7
100
AcDbCircle
 10
145.2202
 20
-184.825317
 30
0.0
 40
341.034691
210
0.0
220
0.0
230
1.0
100
AcDbArc
 50
94.689952
 51
95.518775
  0
ARC
  5
33B
100
AcDbEntity
  8
0
370
    35
390
0
 62
     7
100
AcDbCircle
 10
144.848801
 20
-181.231232
 30
0.0
 40
337.42136
210
0.0
220
0.0
230
1.0
100
AcDbArc
 50
95.514697
 51
96.768406
  0
ARC
  5
33C
100
AcDbEntity
  8
0
370
    35
390
0
 62
     7
100
AcDbCircle
 10
137.85553
 20
-121.650749
 30
0.0
 40
277.431783
210
0.0
220
0.0
230
1.0
100
AcDbArc
 50
96.784395
 51
97.26369
  0
ARC
  5
33D
100
AcDbEntity
  8
0
370
    35
390
0
 62
     7
100
AcDbCircle
 10
103.030357
 20
151.577606
 30
0.0
 40
1.99285
210
0.0
220
0.0
230
1.0
100
AcDbArc
 50
116.836232
 51
180.000801
  0
ARC
  5
33E
100
AcDbEntity
  8
0
370
    35
390
0
 62
     7
100
AcDbCircle
 10
103.031914
 20
151.575455
 30
0.0
 40
1.995349
210
0.0
220
0.0
230
1.0
100
AcDbArc
 50
97.306707
 51
116.848322
  0
LINE
  5
33F
100
AcDbEntity
  8
0
370
    35
390
0
 62
     7
 48
0.261204
100
AcDbLine
 10
101.037369
 20
151.577576
 30
0.0
 11
101.037369
 21
141.129425
 31
0.0
210
0.0
220
0.0
230
1.0
  0
ARC
  5
340
100
AcDbEntity
  8
0
370
    35
390
0
 62
     7
100
AcDbCircle
 10
122.907341
 20
-35.354683
 30
0.0
 40
189.855128
210
0.0
220
0.0
230
1.0
100
AcDbArc
 50
100.069518
 51
101.014475
  0
ARC
  5
341
100
AcDbEntity
  8
0
370
    35
390
0
 62
     7
100
AcDbCircle
 10
122.1576
 20
-31.534706
 30
0.0
 40
185.962205
210
0.0
220
0.0
230
1.0
100
AcDbArc
 50
101.012597
 51
102.179254
  0
LINE
  5
342
100
AcDbEntity
  8
0
370
    35
390
0
 62
     7
 48
0.019458
100
AcDbLine
 10
82.924988
 20
150.241882
 30
0.0
 11
82.164612
 21
150.075729
 31
0.0
210
0.0
220
0.0
230
1.0
  0
ARC
  5
343
100
AcDbEntity
  8
0
370
    35
390
0
 62
     7
100
AcDbCircle
 10
82.594673
 20
148.129425
 30
0.0
 40
1.993046
210
0.0
220
0.0
230
1.0
100
AcDbArc
 50
115.033308
 51
179.972602
  0
ARC
  5
344
100
AcDbEntity
  8
0
370
    35
390
0
 62
     7
100
AcDbCircle
 10
82.595123
 20
148.131226
 30
0.0
 40
1.991595
210
0.0
220
0.0
230
1.0
100
AcDbArc
 50
102.483963
 51
115.066872
  0
LINE
  5
345
100
AcDbEntity
  8
0
370
    35
390
0
 62
     7
 48
0.02844
100
AcDbLine
 10
80.601532
 20
148.130386
 30
0.0
 11
80.601257
 21
146.992798
 31
0.0
210
0.0
220
0.0
230
1.0
  0
LINE
  5
346
100
AcDbEntity
  8
0
370
    35
390
0
 62
     7
 48
0.194947
100
AcDbLine
 10
80.601257
 20
146.992798
 30
0.0
 11
80.601257
 21
139.194916
 31
0.0
210
0.0
220
0.0
230
1.0
  0
ARC
  5
347
100
AcDbEntity
  8
0
370
    35
390
0
 62
     7
100
AcDbCircle
 10
82.597977
 20
139.195084
 30
0.0
 40
1.996725
210
0.0
220
0.0
230
1.0
100
AcDbArc
 50
180.005022
 51
191.863665
  0
ARC
  5
348
100
AcDbEntity
  8
0
370
    35
390
0
 62
     7
100
AcDbCircle
 10
82.594269
 20
139.194489
 30
0.0
 40
1.992892
210
0.0
220
0.0
230
1.0
100
AcDbArc
 50
191.868815
 51
267.729861
  0
ARC
  5
349
100
AcDbEntity
  8
0
370
    35
390
0
 62
     7
100
AcDbCircle
 10
94.640404
 20
444.82486
 30
0.0
 40
307.860617
210
0.0
220
0.0
230
1.0
100
AcDbArc
 50
267.742825
 51
268.32863
  0
ARC
  5
34A
100
AcDbEntity
  8
0
370
    35
390
0
 62
     7
100
AcDbCircle
 10
97.606804
 20
547.467407
 30
0.0
 40
410.546058
210
0.0
220
0.0
230
1.0
100
AcDbArc
 50
268.332619
 51
268.837718
  0
LINE
  5
34B
100
AcDbEntity
  8
0
370
    35
390
0
 62
     7
 48
0.018607
100
AcDbLine
 10
89.279182
 20
137.005783
 30
0.0
 11
90.023338
 21
136.991302
 31
0.0
210
0.0
220
0.0
230
1.0
  0
ARC
  5
34C
100
AcDbEntity
  8
0
370
    35
390
0
 62
     7
100
AcDbCircle
 10
90.060448
 20
138.984238
 30
0.0
 40
1.993119
210
0.0
220
0.0
230
1.0
100
AcDbArc
 50
300.221488
 51
359.960694
  0
ARC
  5
34D
100
AcDbEntity
  8
0
370
    35
390
0
 62
     7
100
AcDbCircle
 10
90.060707
 20
138.982544
 30
0.0
 40
1.991592
210
0.0
220
0.0
230
1.0
100
AcDbArc
 50
268.925001
 51
300.239472
  0
LINE
  5
34E
100
AcDbEntity
  8
0
370
    35
390
0
 62
     7
 48
0.038856
100
AcDbLine
 10
92.054031
 20
140.537109
 30
0.0
 11
92.05352
 21
138.98288
 31
0.0
210
0.0
220
0.0
230
1.0
  0
LINE
  5
34F
100
AcDbEntity
  8
0
370
    35
390
0
 62
     7
 48
0.226913
100
AcDbLine
 10
92.054031
 20
140.537109
 30
0.0
 11
92.054031
 21
149.613617
 31
0.0
210
0.0
220
0.0
230
1.0
  0
ARC
  5
350
100
AcDbEntity
  8
0
370
    35
390
0
 62
     7
100
AcDbCircle
 10
90.060867
 20
149.613586
 30
0.0
 40
1.993223
210
0.0
220
0.0
230
1.0
100
AcDbArc
 50
0.000824
 51
100.066007
  0
ARC
  5
351
100
AcDbEntity
  8
0
370
    35
390
0
 62
     7
100
AcDbCircle
 10
99.621246
 20
56.176781
 30
0.0
 40
95.364172
210
0.0
220
0.0
230
1.0
100
AcDbArc
 50
106.169888
 51
108.180033
  0
POLYLINE
  5
352
100
AcDbEntity
  8
0
370
    35
390
0
 62
     7
100
AcDb2dPolyline
 66
     1
 10
0.0
 20
0.0
 30
0.0
 71
     6
  0
VERTEX
  5
353
100
AcDbEntity
  8
0
370
     0
390
0
100
AcDbVertex
100
AcDb2dVertex
 10
56.098228
 20
140.234467
 30
0.0
  0
VERTEX
  5
354
100
AcDbEntity
  8
0
370
     0
390
0
100
AcDbVertex
100
AcDb2dVertex
 10
57.248314
 20
141.066513
 30
0.0
  0
VERTEX
  5
355
100
AcDbEntity
  8
0
370
     0
390
0
100
AcDbVertex
100
AcDb2dVertex
 10
58.491631
 20
141.864487
 30
0.0
  0
VERTEX
  5
356
100
AcDbEntity
  8
0
370
     0
390
0
100
AcDbVertex
100
AcDb2dVertex
 10
59.779884
 20
142.607635
 30
0.0
  0
VERTEX
  5
357
100
AcDbEntity
  8
0
370
     0
390
0
100
AcDbVertex
100
AcDb2dVertex
 10
61.114426
 20
143.301315
 30
0.0
  0
VERTEX
  5
358
100
AcDbEntity
  8
0
370
     0
390
0
100
AcDbVertex
100
AcDb2dVertex
 10
62.651382
 20
144.024048
 30
0.0
  0
SEQEND
  5
359
100
AcDbEntity
  8
0
370
     0
390
0
  0
POLYLINE
  5
35A
100
AcDbEntity
  8
0
370
    35
390
0
 62
     7
100
AcDb2dPolyline
 66
     1
 10
0.0
 20
0.0
 30
0.0
 71
     5
  0
VERTEX
  5
35B
100
AcDbEntity
  8
0
370
     0
390
0
100
AcDbVertex
100
AcDb2dVertex
 10
62.651382
 20
144.024048
 30
0.0
  0
VERTEX
  5
35C
100
AcDbEntity
  8
0
370
     0
390
0
100
AcDbVertex
100
AcDb2dVertex
 10
64.015572
 20
144.614014
 30
0.0
  0
VERTEX
  5
35D
100
AcDbEntity
  8
0
370
     0
390
0
100
AcDbVertex
100
AcDb2dVertex
 10
65.401871
 20
145.17514
 30
0.0
  0
VERTEX
  5
35E
100
AcDbEntity
  8
0
370
     0
390
0
100
AcDbVertex
100
AcDb2dVertex
 10
67.61776
 20
146.006973
 30
0.0
  0
VERTEX
  5
35F
100
AcDbEntity
  8
0
370
     0
390
0
100
AcDbVertex
100
AcDb2dVertex
 10
69.867287
 20
146.780365
 30
0.0
  0
SEQEND
  5
360
100
AcDbEntity
  8
0
370
     0
390
0
  0
ARC
  5
361
100
AcDbEntity
  8
0
370
    35
390
0
 62
     7
100
AcDbCircle
 10
64.879745
 20
168.884491
 30
0.0
 40
29.966057
210
0.0
220
0.0
230
1.0
100
AcDbArc
 50
252.959181
 51
257.182533
  0
POLYLINE
  5
362
100
AcDbEntity
  8
0
370
    35
390
0
 62
     7
100
AcDb2dPolyline
 66
     1
 10
0.0
 20
0.0
 30
0.0
 71
     7
  0
VERTEX
  5
363
100
AcDbEntity
  8
0
370
     0
390
0
100
AcDbVertex
100
AcDb2dVertex
 10
58.231796
 20
139.664673
 30
0.0
  0
VERTEX
  5
364
100
AcDbEntity
  8
0
370
     0
390
0
100
AcDbVertex
100
AcDb2dVertex
 10
60.427071
 20
139.214447
 30
0.0
  0
VERTEX
  5
365
100
AcDbEntity
  8
0
370
     0
390
0
100
AcDbVertex
100
AcDb2dVertex
 10
62.679916
 20
138.83548
 30
0.0
  0
VERTEX
  5
366
100
AcDbEntity
  8
0
370
     0
390
0
100
AcDbVertex
100
AcDb2dVertex
 10
65.73185
 20
138.414154
 30
0.0
  0
VERTEX
  5
367
100
AcDbEntity
  8
0
370
     0
390
0
100
AcDbVertex
100
AcDb2dVertex
 10
67.262856
 20
138.235931
 30
0.0
  0
VERTEX
  5
368
100
AcDbEntity
  8
0
370
     0
390
0
100
AcDbVertex
100
AcDb2dVertex
 10
70.357246
 20
137.931793
 30
0.0
  0
VERTEX
  5
369
100
AcDbEntity
  8
0
370
     0
390
0
100
AcDbVertex
100
AcDb2dVertex
 10
73.474243
 20
137.685349
 30
0.0
  0
SEQEND
  5
36A
100
AcDbEntity
  8
0
370
     0
390
0
  0
ARC
  5
36B
100
AcDbEntity
  8
0
370
    35
390
0
 62
     7
100
AcDbCircle
 10
73.615883
 20
139.675201
 30
0.0
 40
1.994885
210
0.0
220
0.0
230
1.0
100
AcDbArc
 50
265.928365
 51
297.692289
  0
ARC
  5
36C
100
AcDbEntity
  8
0
370
    35
390
0
 62
     7
100
AcDbCircle
 10
73.616135
 20
139.674652
 30
0.0
 40
1.994271
210
0.0
220
0.0
230
1.0
100
AcDbArc
 50
297.693252
 51
307.739627
  0
ARC
  5
36D
100
AcDbEntity
  8
0
370
    35
390
0
 62
     7
100
AcDbCircle
 10
73.617668
 20
139.672714
 30
0.0
 40
1.99179
210
0.0
220
0.0
230
1.0
100
AcDbArc
 50
307.73877
 51
359.917578
  0
LINE
  5
36E
100
AcDbEntity
  8
0
370
    35
390
0
 62
     7
 48
0.096229
100
AcDbLine
 10
75.612366
 20
143.519012
 30
0.0
 11
75.609459
 21
139.669846
 31
0.0
210
0.0
220
0.0
230
1.0
  0
LINE
  5
36F
100
AcDbEntity
  8
0
370
    35
390
0
 62
     7
 48
0.058386
100
AcDbLine
 10
75.612366
 20
143.519012
 30
0.0
 11
75.612366
 21
145.854462
 31
0.0
210
0.0
220
0.0
230
1.0
  0
ARC
  5
370
100
AcDbEntity
  8
0
370
    35
390
0
 62
     7
100
AcDbCircle
 10
73.619202
 20
145.854385
 30
0.0
 40
1.99325
210
0.0
220
0.0
230
1.0
100
AcDbArc
 50
0.001803
 51
106.186752
  0
LINE
  5
371
100
AcDbEntity
  8
0
370
    13
390
0
 62
     7
 48
0.007102
100
AcDbLine
 10
253.904282
 20
148.35614
 30
0.0
 11
253.933365
 21
148.638733
 31
0.0
210
0.0
220
0.0
230
1.0
  0
LINE
  5
372
100
AcDbEntity
  8
0
370
    13
390
0
 62
     7
 48
0.007317
100
AcDbLine
 10
258.027008
 20
145.470398
 30
0.0
 11
258.043579
 21
145.762619
 31
0.0
210
0.0
220
0.0
230
1.0
  0
LINE
  5
373
100
AcDbEntity
  8
0
370
    13
390
0
 62
     7
 48
0.007061
100
AcDbLine
 10
253.410507
 20
148.851212
 30
0.0
 11
253.440964
 21
149.132019
 31
0.0
210
0.0
220
0.0
230
1.0
  0
LINE
  5
374
100
AcDbEntity
  8
0
370
    13
390
0
 62
     7
 48
0.007336
100
AcDbLine
 10
258.659119
 20
145.176483
 30
0.0
 11
258.673676
 21
145.469543
 31
0.0
210
0.0
220
0.0
230
1.0
  0
LINE
  5
375
100
AcDbEntity
  8
0
370
    13
390
0
 62
     7
 48
0.007224
100
AcDbLine
 10
261.064117
 20
146.485046
 30
0.0
 11
261.07077
 21
146.773911
 31
0.0
210
0.0
220
0.0
230
1.0
  0
LINE
  5
376
100
AcDbEntity
  8
0
370
    13
390
0
 62
     7
 48
0.007962
100
AcDbLine
 10
203.150558
 20
152.091675
 30
0.0
 11
203.328918
 21
152.35553
 31
0.0
210
0.0
220
0.0
230
1.0
  0
LINE
  5
377
100
AcDbEntity
  8
0
370
    13
390
0
 62
     7
 48
0.008145
100
AcDbLine
 10
216.297089
 20
142.889709
 30
0.0
 11
216.434509
 21
143.18512
 31
0.0
210
0.0
220
0.0
230
1.0
  0
LINE
  5
378
100
AcDbEntity
  8
0
370
    13
390
0
 62
     7
 48
0.007914
100
AcDbLine
 10
202.42009
 20
153.04274
 30
0.0
 11
202.600296
 21
153.303009
 31
0.0
210
0.0
220
0.0
230
1.0
  0
LINE
  5
379
100
AcDbEntity
  8
0
370
    13
390
0
 62
     7
 48
0.007987
100
AcDbLine
 10
221.120667
 20
143.081787
 30
0.0
 11
221.242874
 21
143.376953
 31
0.0
210
0.0
220
0.0
230
1.0
  0
LINE
  5
37A
100
AcDbEntity
  8
0
370
    13
390
0
 62
     7
 48
0.00719
100
AcDbLine
 10
230.281845
 20
150.65184
 30
0.0
 11
230.37233
 21
150.924835
 31
0.0
210
0.0
220
0.0
230
1.0
  0
LINE
  5
37B
100
AcDbEntity
  8
0
370
    13
390
0
 62
     7
 48
0.011109
100
AcDbLine
 10
141.753967
 20
152.889435
 30
0.0
 11
142.119781
 21
153.141708
 31
0.0
210
0.0
220
0.0
230
1.0
  0
LINE
  5
37C
100
AcDbEntity
  8
0
370
    13
390
0
 62
     7
 48
0.010652
100
AcDbLine
 10
159.824768
 20
140.238861
 30
0.0
 11
160.130798
 21
140.535324
 31
0.0
210
0.0
220
0.0
230
1.0
  0
LINE
  5
37D
100
AcDbEntity
  8
0
370
    13
390
0
 62
     7
 48
0.010332
100
AcDbLine
 10
164.647293
 20
140.42894
 30
0.0
 11
164.937225
 21
140.723465
 31
0.0
210
0.0
220
0.0
230
1.0
  0
LINE
  5
37E
100
AcDbEntity
  8
0
370
    13
390
0
 62
     7
 48
0.008654
100
AcDbLine
 10
179.992325
 20
153.1064
 30
0.0
 11
180.227509
 21
153.360397
 31
0.0
210
0.0
220
0.0
230
1.0
  0
LINE
  5
37F
100
AcDbEntity
  8
0
370
    13
390
0
 62
     7
 48
0.014067
100
AcDbLine
 10
102.525459
 20
139.200745
 30
0.0
 11
103.005806
 21
139.493759
 31
0.0
210
0.0
220
0.0
230
1.0
  0
LINE
  5
380
100
AcDbEntity
  8
0
370
    13
390
0
 62
     7
 48
0.0137
100
AcDbLine
 10
101.037369
 20
151.577576
 30
0.0
 11
101.524834
 21
151.827972
 31
0.0
210
0.0
220
0.0
230
1.0
  0
LINE
  5
381
100
AcDbEntity
  8
0
370
    13
390
0
 62
     7
 48
0.014144
100
AcDbLine
 10
101.037369
 20
141.129425
 30
0.0
 11
101.524834
 21
141.41655
 31
0.0
210
0.0
220
0.0
230
1.0
  0
LINE
  5
382
100
AcDbEntity
  8
0
370
    13
390
0
 62
     7
 48
0.015667
100
AcDbLine
 10
73.474243
 20
137.685349
 30
0.0
 11
74.029457
 21
137.975937
 31
0.0
210
0.0
220
0.0
230
1.0
  0
LINE
  5
383
100
AcDbEntity
  8
0
370
    35
390
0
 62
     7
 48
0.01703
100
AcDbLine
 10
56.098228
 20
140.234467
 30
0.0
 11
56.71859
 21
140.5159
 31
0.0
210
0.0
220
0.0
230
1.0
  0
LINE
  5
384
100
AcDbEntity
  8
0
370
    13
390
0
 62
     7
 48
0.004072
100
AcDbLine
 10
373.667206
 20
143.541428
 30
0.0
 11
373.830078
 21
143.544067
 31
0.0
210
0.0
220
0.0
230
1.0
  0
ARC
  5
385
100
AcDbEntity
  8
0
370
    35
390
0
 62
     7
100
AcDbCircle
 10
368.645538
 20
573.740723
 30
0.0
 40
430.257485
210
0.0
220
0.0
230
1.0
100
AcDbArc
 50
270.550722
 51
271.001085
  0
ARC
  5
386
100
AcDbEntity
  8
0
370
    35
390
0
 62
     7
100
AcDbCircle
 10
108.211029
 20
167.481705
 30
0.0
 40
14.291194
210
0.0
220
0.0
230
1.0
100
AcDbArc
 50
206.922046
 51
209.051645
  0
LINE
  5
387
100
AcDbEntity
  8
0
370
    35
390
0
 62
     7
 48
0.007106
100
AcDbLine
 10
95.468651
 20
144.508942
 30
0.0
 11
95.717934
 21
144.645538
 31
0.0
210
0.0
220
0.0
230
1.0
  0
LINE
  5
388
100
AcDbEntity
  8
0
370
    13
390
0
 62
     7
 48
0.01468
100
AcDbLine
 10
90.023338
 20
136.991302
 30
0.0
 11
90.531242
 21
137.285995
 31
0.0
210
0.0
220
0.0
230
1.0
  0
LINE
  5
389
100
AcDbEntity
  8
0
370
    13
390
0
 62
     7
 48
0.01502
100
AcDbLine
 10
80.601532
 20
148.130386
 30
0.0
 11
81.144005
 21
148.388611
 31
0.0
210
0.0
220
0.0
230
1.0
  0
LINE
  5
38A
100
AcDbEntity
  8
0
370
    13
390
0
 62
     7
 48
0.015362
100
AcDbLine
 10
80.601257
 20
139.194916
 30
0.0
 11
81.143486
 21
139.484039
 31
0.0
210
0.0
220
0.0
230
1.0
  0
LINE
  5
38B
100
AcDbEntity
  8
0
370
    13
390
0
 62
     7
 48
0.015257
100
AcDbLine
 10
82.515327
 20
137.203125
 30
0.0
 11
83.049629
 21
137.498016
 31
0.0
210
0.0
220
0.0
230
1.0
  0
LINE
  5
38C
100
AcDbEntity
  8
0
370
    13
390
0
 62
     7
 48
0.015375
100
AcDbLine
 10
80.643906
 20
138.784592
 30
0.0
 11
81.185936
 21
139.075134
 31
0.0
210
0.0
220
0.0
230
1.0
  0
LINE
  5
38D
100
AcDbEntity
  8
0
370
    13
390
0
 62
     7
 48
0.011193
100
AcDbLine
 10
149.810303
 20
138.006195
 30
0.0
 11
150.1409
 21
138.308136
 31
0.0
210
0.0
220
0.0
230
1.0
  0
LINE
  5
38E
100
AcDbEntity
  8
0
370
    13
390
0
 62
     7
 48
0.011712
100
AcDbLine
 10
128.049011
 20
154.039734
 30
0.0
 11
128.447922
 21
154.2854
 31
0.0
210
0.0
220
0.0
230
1.0
  0
LINE
  5
38F
100
AcDbEntity
  8
0
370
    13
390
0
 62
     7
 48
0.01365
100
AcDbLine
 10
112.98317
 20
136.988144
 30
0.0
 11
113.439835
 21
137.287445
 31
0.0
210
0.0
220
0.0
230
1.0
  0
LINE
  5
390
100
AcDbEntity
  8
0
370
    13
390
0
 62
     7
 48
0.013537
100
AcDbLine
 10
111.683907
 20
140.516113
 30
0.0
 11
112.142853
 21
140.803452
 31
0.0
210
0.0
220
0.0
230
1.0
  0
LINE
  5
391
100
AcDbEntity
  8
0
370
    13
390
0
 62
     7
 48
0.008542
100
AcDbLine
 10
206.478241
 20
140.537659
 30
0.0
 11
206.63826
 21
140.839569
 31
0.0
210
0.0
220
0.0
230
1.0
  0
LINE
  5
392
100
AcDbEntity
  8
0
370
    13
390
0
 62
     7
 48
0.010094
100
AcDbLine
 10
174.860931
 20
139.039368
 30
0.0
 11
175.129486
 21
139.340881
 31
0.0
210
0.0
220
0.0
230
1.0
  0
LINE
  5
393
100
AcDbEntity
  8
0
370
    13
390
0
 62
     7
 48
0.007499
100
AcDbLine
 10
249.849472
 20
142.989609
 30
0.0
 11
249.883102
 21
143.287689
 31
0.0
210
0.0
220
0.0
230
1.0
  0
LINE
  5
394
100
AcDbEntity
  8
0
370
    13
390
0
 62
     7
 48
0.007542
100
AcDbLine
 10
248.854813
 20
142.665344
 30
0.0
 11
248.891617
 21
142.964767
 31
0.0
210
0.0
220
0.0
230
1.0
  0
LINE
  5
395
100
AcDbEntity
  8
0
370
    13
390
0
 62
     7
 48
0.007859
100
AcDbLine
 10
231.456451
 20
141.788849
 30
0.0
 11
231.549728
 21
142.08905
 31
0.0
210
0.0
220
0.0
230
1.0
  0
LINE
  5
396
100
AcDbEntity
  8
0
370
    13
390
0
 62
     7
 48
0.007546
100
AcDbLine
 10
272.231628
 20
143.812012
 30
0.0
 11
272.216187
 21
144.113464
 31
0.0
210
0.0
220
0.0
230
1.0
  0
LINE
  5
397
100
AcDbEntity
  8
0
370
    35
390
0
 62
     7
 48
0.011806
100
AcDbLine
 10
372.781067
 20
143.503143
 30
0.0
 11
372.308838
 21
143.498947
 31
0.0
210
0.0
220
0.0
230
1.0
  0
ENDSEC
  0
SECTION
  2
OBJECTS
  0
DICTIONARY
  5
19
100
AcDbDictionary
280
     0
281
     1
  3
ACAD_GROUP
350
1A
  3
ACAD_MLINESTYLE
350
1B
  3
ACAD_LAYOUT
350
1E
  3
ACAD_PLOTSETTINGS
350
22
  3
ACAD_PLOTSTYLENAME
350
1F
  3
ACAD_WIPEOUT_VARS
350
23
  0
DICTIONARY
  5
1A
102
{ACAD_REACTORS
330
19
102
}
100
AcDbDictionary
280
     0
281
     1
  0
DICTIONARY
  5
1B
102
{ACAD_REACTORS
330
19
102
}
100
AcDbDictionary
280
     0
281
     1
  3
Standard
350
1C
  0
MLINESTYLE
  5
1C
102
{ACAD_REACTORS
330
1B
102
}
100
AcDbMlineStyle
  2
Standard
 70
     0
  3

 62
     0
 51
90.0
 52
90.0
 71
     2
 49
0.5
 62
   256
  6
ByLayer
 49
-0.5
 62
   256
  6
ByLayer
  0
ACDBDICTIONARYWDFLT
  5
1F
102
{ACAD_REACTORS
330
19
102
}
100
AcDbDictionary
281
     1
  3
Normal
350
1D
100
AcDbDictionaryWithDefault
340
1D
  0
ACDBPLACEHOLDER
  5
1D
102
{ACAD_REACTORS
330
1F
102
}
  0
LAYOUT
  5
20
102
{ACAD_REACTORS
330
1E
102
}
100
AcDbPlotSettings
  1

  2

  4

  6

 40
0.0
 41
0.0
 42
0.0
 43
0.0
 44
0.0
 45
0.0
 46
0.0
 47
0.0
 48
0.0
 49
0.0
140
0.0
141
0.0
142
1.0
143
1.0
 70
  1024
 72
     0
 73
     0
 74
     0
  7

 75
     0
147
1.0
148
0.0
149
0.0
100
AcDbLayout
  1
Model
 70
     0
 71
     0
 10
0.0
 20
0.0
 11
0.0
 21
0.0
 12
0.0
 22
0.0
 32
0.0
 14
0.0
 24
0.0
 34
0.0
 15
0.0
 25
0.0
 35
0.0
146
0.0
 13
0.0
 23
0.0
 33
0.0
 16
0.0
 26
0.0
 36
0.0
 17
0.0
 27
0.0
 37
0.0
 76
     0
330
A
331
0
345
0
346
0
  0
LAYOUT
  5
21
102
{ACAD_REACTORS
330
1E
102
}
100
AcDbPlotSettings
  1

  2

  4

  6

 40
0.0
 41
0.0
 42
0.0
 43
0.0
 44
0.0
 45
0.0
 46
0.0
 47
0.0
 48
0.0
 49
0.0
140
0.0
141
0.0
142
1.0
143
1.0
 70
     0
 72
     0
 73
     0
 74
     0
  7

 75
     0
147
1.0
148
0.0
149
0.0
100
AcDbLayout
  1
Layout1
 70
     0
 71
     0
 10
0.0
 20
0.0
 11
0.0
 21
0.0
 12
0.0
 22
0.0
 32
0.0
 14
0.0
 24
0.0
 34
0.0
 15
0.0
 25
0.0
 35
0.0
146
0.0
 13
0.0
 23
0.0
 33
0.0
 16
0.0
 26
0.0
 36
0.0
 17
0.0
 27
0.0
 37
0.0
 76
     0
330
B
331
0
345
0
346
0
  0
DICTIONARY
  5
1E
102
{ACAD_REACTORS
330
19
102
}
100
AcDbDictionary
280
     0
281
     1
  3
Layout1
350
21
  3
Model
350
20
  0
DICTIONARY
  5
22
102
{ACAD_REACTORS
330
19
102
}
100
AcDbDictionary
280
     0
281
     1
  0
WIPEOUTVARIABLES
  5
23
100
AcDbWipeoutVariables
 70
     1
  0
ENDSEC
  0
EOF
