  0
SECTION
  2
HEADER
  9
$ACADVER
  1
AC1015
  9
$ACADMAINTVER
 70
     6
  9
$DWGCODEPAGE
  3
ANSI_1252
  9
$INSBASE
 10
0.0
 20
0.0
 30
0.0
  9
$EXTMIN
 10
0.0
 20
0.0
 30
0.0
  9
$EXTMAX
 10
270.126953
 20
155.715378
 30
2.0
  9
$LIMMIN
 10
0.0
 20
0.0
  9
$LIMMAX
 10
420.0
 20
297.0
  9
$ORTHOMODE
 70
     0
  9
$REGENMODE
 70
     1
  9
$FILLMODE
 70
     1
  9
$QTEXTMODE
 70
     0
  9
$MIRRTEXT
 70
     1
  9
$LTSCALE
 40
1.0
  9
$ATTMODE
 70
     1
  9
$TEXTSIZE
 40
2.5
  9
$TRACEWID
 40
1.0
  9
$TEXTSTYLE
  7
Standard
  9
$CLAYER
  8
0
  9
$CELTYPE
  6
ByLayer
  9
$CECOLOR
 62
   256
  9
$CELTSCALE
 40
1.0
  9
$DISPSILH
 70
     0
  9
$DIMSCALE
 40
1.0
  9
$DIMASZ
 40
2.5
  9
$DIMEXO
 40
0.625
  9
$DIMDLI
 40
3.75
  9
$DIMRND
 40
0.0
  9
$DIMDLE
 40
0.0
  9
$DIMEXE
 40
1.25
  9
$DIMTP
 40
0.0
  9
$DIMTM
 40
0.0
  9
$DIMTXT
 40
2.5
  9
$DIMCEN
 40
2.5
  9
$DIMTSZ
 40
0.0
  9
$DIMTOL
 70
     0
  9
$DIMLIM
 70
     0
  9
$DIMTIH
 70
     0
  9
$DIMTOH
 70
     0
  9
$DIMSE1
 70
     0
  9
$DIMSE2
 70
     0
  9
$DIMTAD
 70
     1
  9
$DIMZIN
 70
     8
  9
$DIMBLK
  1

  9
$DIMASO
 70
     1
  9
$DIMSHO
 70
     1
  9
$DIMPOST
  1

  9
$DIMAPOST
  1

  9
$DIMALT
 70
     0
  9
$DIMALTD
 70
     3
  9
$DIMALTF
 40
0.03937
  9
$DIMLFAC
 40
1.0
  9
$DIMTOFL
 70
     1
  9
$DIMTVP
 40
0.0
  9
$DIMTIX
 70
     0
  9
$DIMSOXD
 70
     0
  9
$DIMSAH
 70
     0
  9
$DIMBLK1
  1

  9
$DIMBLK2
  1

  9
$DIMSTYLE
  2

  9
$DIMCLRD
 70
     0
  9
$DIMCLRE
 70
     0
  9
$DIMCLRT
 70
     0
  9
$DIMTFAC
 40
1.0
  9
$DIMGAP
 40
0.625
  9
$DIMJUST
 70
     0
  9
$DIMSD1
 70
     0
  9
$DIMSD2
 70
     0
  9
$DIMTOLJ
 70
     0
  9
$DIMTZIN
 70
     8
  9
$DIMALTZ
 70
     0
  9
$DIMALTTZ
 70
     0
  9
$DIMUPT
 70
     0
  9
$DIMDEC
 70
     2
  9
$DIMTDEC
 70
     2
  9
$DIMALTU
 70
     2
  9
$DIMALTTD
 70
     3
  9
$DIMTXSTY
  7
Standard
  9
$DIMAUNIT
 70
     0
  9
$DIMADEC
 70
     0
  9
$DIMALTRND
 40
0.0
  9
$DIMAZIN
 70
     0
  9
$DIMDSEP
 70
    44
  9
$DIMATFIT
 70
     0
  9
$DIMFRAC
 70
     0
  9
$DIMLDRBLK
  1

  9
$DIMLUNIT
 70
     2
  9
$DIMLWD
 70
    -2
  9
$DIMLWE
 70
    -2
  9
$DIMTMOVE
 70
     0
  9
$LUNITS
 70
     2
  9
$LUPREC
 70
     4
  9
$SKETCHINC
 40
1.0
  9
$FILLETRAD
 40
2.5
  9
$AUNITS
 70
     0
  9
$AUPREC
 70
     0
  9
$MENU
  1
.
  9
$ELEVATION
 40
0.0
  9
$PELEVATION
 40
0.0
  9
$THICKNESS
 40
0.0
  9
$LIMCHECK
 70
     0
  9
$CHAMFERA
 40
2.5
  9
$CHAMFERB
 40
2.5
  9
$CHAMFERC
 40
0.0
  9
$CHAMFERD
 40
0.0
  9
$SKPOLY
 70
     0
  9
$TDCREATE
 40
0.000000000
  9
$TDUCREATE
 40
0.000000000
  9
$TDUPDATE
 40
0.000000000
  9
$TDUUPDATE
 40
0.000000000
  9
$TDINDWG
 40
0.0000000000
  9
$TDUSRTIMER
 40
0.0000000000
  9
$USRTIMER
 70
     1
  9
$ANGBASE
 50
0.0
  9
$ANGDIR
 70
     0
  9
$PDMODE
 70
     0
  9
$PDSIZE
 40
0.0
  9
$PLINEWID
 40
0.0
  9
$SPLFRAME
 70
     0
  9
$SPLINETYPE
 70
     6
  9
$SPLINESEGS
 70
     8
  9
$HANDSEED
  5
36C
  9
$SURFTAB1
 70
     6
  9
$SURFTAB2
 70
     6
  9
$SURFTYPE
 70
     6
  9
$SURFU
 70
     6
  9
$SURFV
 70
     6
  9
$UCSBASE
  2

  9
$UCSNAME
  2

  9
$UCSORG
 10
0.0
 20
0.0
 30
0.0
  9
$UCSXDIR
 10
1.0
 20
0.0
 30
0.0
  9
$UCSYDIR
 10
0.0
 20
1.0
 30
0.0
  9
$UCSORTHOREF
  2

  9
$UCSORTHOVIEW
 70
     1
  9
$UCSORGTOP
 10
0.0
 20
0.0
 30
0.0
  9
$UCSORGBOTTOM
 10
0.0
 20
0.0
 30
0.0
  9
$UCSORGLEFT
 10
0.0
 20
0.0
 30
0.0
  9
$UCSORGRIGHT
 10
0.0
 20
0.0
 30
0.0
  9
$UCSORGFRONT
 10
0.0
 20
0.0
 30
0.0
  9
$UCSORGBACK
 10
0.0
 20
0.0
 30
0.0
  9
$PUCSBASE
  2

  9
$PUCSNAME
  2

  9
$PUCSORG
 10
0.0
 20
0.0
 30
0.0
  9
$PUCSXDIR
 10
1.0
 20
0.0
 30
0.0
  9
$PUCSYDIR
 10
0.0
 20
1.0
 30
0.0
  9
$PUCSORTHOREF
  2

  9
$PUCSORTHOVIEW
 70
     0
  9
$PUCSORGTOP
 10
0.0
 20
0.0
 30
0.0
  9
$PUCSORGBOTTOM
 10
0.0
 20
0.0
 30
0.0
  9
$PUCSORGLEFT
 10
0.0
 20
0.0
 30
0.0
  9
$PUCSORGRIGHT
 10
0.0
 20
0.0
 30
0.0
  9
$PUCSORGFRONT
 10
0.0
 20
0.0
 30
0.0
  9
$PUCSORGBACK
 10
0.0
 20
0.0
 30
0.0
  9
$USERI1
 70
     0
  9
$USERI2
 70
     0
  9
$USERI3
 70
     0
  9
$USERI4
 70
     0
  9
$USERI5
 70
     0
  9
$USERR1
 40
0.0
  9
$USERR2
 40
0.0
  9
$USERR3
 40
0.0
  9
$USERR4
 40
0.0
  9
$USERR5
 40
0.0
  9
$WORLDVIEW
 70
     1
  9
$SHADEDGE
 70
     3
  9
$SHADEDIF
 70
    70
  9
$TILEMODE
 70
     1
  9
$MAXACTVP
 70
    48
  9
$PINSBASE
 10
0.0
 20
0.0
 30
0.0
  9
$PLIMCHECK
 70
     0
  9
$PEXTMIN
 10
0.0
 20
0.0
 30
0.0
  9
$PEXTMAX
 10
270.126953
 20
155.715378
 30
2.0
  9
$PLIMMIN
 10
0.0
 20
0.0
  9
$PLIMMAX
 10
420.0
 20
297.0
  9
$UNITMODE
 70
     0
  9
$VISRETAIN
 70
     0
  9
$PLINEGEN
 70
     0
  9
$PSLTSCALE
 70
     1
  9
$TREEDEPTH
 70
  3020
  9
$CMLSTYLE
  2
Standard
  9
$CMLJUST
 70
     0
  9
$CMLSCALE
 40
20.0
  9
$PROXYGRAPHICS
 70
     1
  9
$MEASUREMENT
 70
     1
  9
$CELWEIGHT
370
    -1
  9
$ENDCAPS
280
     0
  9
$JOINSTYLE
280
     0
  9
$LWDISPLAY
290
     0
  9
$INSUNITS
 70
     0
  9
$HYPERLINKBASE
  1

  9
$STYLESHEET
  1

  9
$XEDIT
290
     1
  9
$CEPSNTYPE
380
     0
  9
$PSTYLEMODE
290
     0
  9
$FINGERPRINTGUID
  2

  9
$VERSIONGUID
  2

  9
$EXTNAMES
290
     0
  9
$PSVPSCALE
 40
0.0
  0
ENDSEC
  0
SECTION
  2
CLASSES
  0
CLASS
  1
LWPOLYLINE
  2
AcDbPolyline
  3
AutoCAD 2000
 90
        0
280
     0
281
     1
  0
CLASS
  1
IMAGE
  2
AcDbRasterImage
  3
ISM
 90
      127
280
     0
281
     1
  0
CLASS
  1
OLE2FRAME
  2
AcDbOle2Frame
  3
AutoCAD 2000
 90
        0
280
     0
281
     1
  0
CLASS
  1
HATCH
  2
AcDbHatch
  3
AutoCAD 2000
 90
        0
280
     0
281
     1
  0
CLASS
  1
DICTIONARYVAR
  2
AcDbDictionaryVar
  3
AutoCAD 2000
 90
        0
280
     0
281
     0
  0
CLASS
  1
RASTERVARIABLES
  2
AcDbRasterVariables
  3
ISM
 90
        0
280
     0
281
     0
  0
CLASS
  1
IMAGEDEF
  2
AcDbRasterImageDef
  3
ISM
 90
        0
280
     0
281
     0
  0
CLASS
  1
IMAGEDEF_REACTOR
  2
AcDbRasterImageDefReactor
  3
ISM
 90
        1
280
     0
281
     0
  0
CLASS
  1
IDBUFFER
  2
AcDbIdBuffer
  3
AutoCAD 2000
 90
        0
280
     0
281
     0
  0
CLASS
  1
SPATIAL_FILTER
  2
AcDbSpatialFilter
  3
AutoCAD 2000
 90
        0
280
     0
281
     0
  0
CLASS
  1
XRECORD
  2
AcDbXrecord
  3
AutoCAD 2000
 90
        0
280
     0
281
     0
  0
CLASS
  1
SORTENTSTABLE
  2
AcDbSortentsTable
  3
AutoCAD 2000
 90
        0
280
     0
281
     0
  0
CLASS
  1
LAYER_INDEX
  2
AcDbLayerIndex
  3
AutoCAD 2000
 90
        0
280
     0
281
     0
  0
CLASS
  1
SPATIAL_INDEX
  2
AcDbSpatialIndex
  3
AutoCAD 2000
 90
        0
280
     0
281
     0
  0
CLASS
  1
OBJECT_PTR
  2
CAseDLPNTableRecord
  3
"ASE-LPNTableRecord"
 90
        1
280
     0
281
     0
  0
CLASS
  1
LAYOUT
  2
AcDbLayout
  3
AutoCAD 2000
 90
        0
280
     0
281
     0
  0
CLASS
  1
PLOTSETTINGS
  2
AcDbPlotSettings
  3
AutoCAD 2000
 90
        0
280
     0
281
     0
  0
CLASS
  1
ACDBDICTIONARYWDFLT
  2
AcDbDictionaryWithDefault
  3
AutoCAD 2000
 90
        0
280
     0
281
     0
  0
CLASS
  1
ACDBPLACEHOLDER
  2
AcDbPlaceHolder
  3
AutoCAD 2000
 90
        0
280
     0
281
     0
  0
CLASS
  1
VBA_PROJECT
  2
AcDbVbaProject
  3
acadvba
 90
        0
280
     0
281
     0
  0
CLASS
  1
WIPEOUT
  2
AcDbWipeout
  3
WipeOut|AutoCAD Express Tool|expresstools@autodesk.com
 90
      127
280
     0
281
     1
  0
CLASS
  1
WIPEOUTVARIABLES
  2
AcDbWipeoutVariables
  3
WipeOut|AutoCAD Express Tool|expresstools@autodesk.com
 90
        0
280
     0
281
     0
  0
CLASS
  1
RTEXT
  2
RText
  3
RText|AutoCAD Express Tool|expresstools@autodesk.com
 90
        0
280
     0
281
     1
  0
CLASS
  1
ARCALIGNEDTEXT
  2
AcDbArcAlignedText
  3
ATEXT|AutoCAD Express Tool|expresstools@autodesk.com
 90
        0
280
     0
281
     1
  0
ENDSEC
  0
SECTION
  2
TABLES
  0
TABLE
  2
VPORT
  5
7
100
AcDbSymbolTable
 70
     1
  0
VPORT
  5
15
100
AcDbSymbolTableRecord
100
AcDbViewportTableRecord
  2
*ACTIVE
 70
     0
 10
0.0
 20
0.0
 11
1.0
 21
1.0
 12
6.591288
 22
4.579184
 13
0.0
 23
0.0
 14
1.0
 24
1.0
 15
0.0
 25
0.0
 16
0.0
 26
0.0
 36
1.0
 17
0.0
 27
0.0
 37
0.0
 40
9.158369
 41
0.688564
 42
50.0
 43
0.0
 44
0.0
 50
0.0
 51
0.0
 71
     0
 72
   100
 73
     1
 74
     1
 75
     0
 76
     0
 77
     0
 78
     0
281
     0
 65
     0
110
0.0
120
0.0
130
0.0
111
1.0
121
0.0
131
0.0
112
0.0
122
1.0
132
0.0
345
0
346
0
 79
     0
146
0.0
  0
ENDTAB
  0
TABLE
  2
LTYPE
  5
4
100
AcDbSymbolTable
 70
     3
  0
LTYPE
  5
11
100
AcDbSymbolTableRecord
100
AcDbLinetypeTableRecord
  2
ByBlock
 70
    64
  3

 72
    65
 73
     0
 40
0.0
  0
LTYPE
  5
12
100
AcDbSymbolTableRecord
100
AcDbLinetypeTableRecord
  2
ByLayer
 70
    64
  3

 72
    65
 73
     0
 40
0.0
  0
LTYPE
  5
13
100
AcDbSymbolTableRecord
100
AcDbLinetypeTableRecord
  2
Continuous
 70
    64
  3
Solid line
 72
    65
 73
     0
 40
0.0
  0
ENDTAB
  0
TABLE
  2
LAYER
  5
2
100
AcDbSymbolTable
 70
     1
  0
LAYER
  5
14
100
AcDbSymbolTableRecord
100
AcDbLayerTableRecord
  2
0
 70
     0
 62
     7
  6
Continuous
290
     1
370
    -3
390
1D
  0
ENDTAB
  0
TABLE
  2
STYLE
  5
3
100
AcDbSymbolTable
 70
     1
  0
STYLE
  5
17
100
AcDbSymbolTableRecord
100
AcDbTextStyleTableRecord
  2
Standard
 70
     0
 40
0.0
 41
1.0
 50
0.0
 71
     0
 42
0.0
  3
txt
  4

  0
ENDTAB
  0
TABLE
  2
VIEW
  5
5
100
AcDbSymbolTable
 70
     0
  0
ENDTAB
  0
TABLE
  2
UCS
  5
6
100
AcDbSymbolTable
 70
     0
  0
ENDTAB
  0
TABLE
  2
APPID
  5
8
100
AcDbSymbolTable
 70
     1
  0
APPID
  5
16
100
AcDbSymbolTableRecord
100
AcDbRegAppTableRecord
  2
ACAD
 70
     0
  0
ENDTAB
  0
TABLE
  2
DIMSTYLE
  5
9
100
AcDbSymbolTable
 70
     1
100
AcDbDimStyleTable
 71
     0
  0
DIMSTYLE
105
18
100
AcDbSymbolTableRecord
100
AcDbDimStyleTableRecord
  2
Standard
 70
     0
  3

  4

 40
1.0
 41
0.18
 42
0.0625
 43
0.38
 44
0.18
 45
0.0
 46
0.0
 47
0.0
 48
0.0
 71
     0
 72
     0
 73
     1
 74
     1
 75
     0
 76
     0
 77
     0
 78
     0
 79
     0
140
0.18
141
0.09
142
0.0
143
25.4
144
1.0
145
0.0
146
1.0
147
0.09
148
0.0
170
     0
171
     2
172
     0
173
     0
174
     0
175
     0
176
     0
177
     0
178
     0
179
     0
271
     4
272
     4
273
     2
274
     2
275
     0
276
     0
277
     2
278
    46
279
     0
280
     0
281
     0
282
     0
283
     1
284
     0
285
     0
286
     0
288
     0
289
     3
340
17
341
0
342
0
343
0
344
0
371
    -2
372
    -2
  0
ENDTAB
  0
TABLE
  2
BLOCK_RECORD
  5
1
100
AcDbSymbolTable
 70
     0
  0
BLOCK_RECORD
  5
A
100
AcDbSymbolTableRecord
100
AcDbBlockTableRecord
  2
*MODEL_SPACE
340
20
  0
BLOCK_RECORD
  5
B
100
AcDbSymbolTableRecord
100
AcDbBlockTableRecord
  2
*PAPER_SPACE
340
21
  0
ENDTAB
  0
ENDSEC
  0
SECTION
  2
BLOCKS
  0
BLOCK
  5
D
100
AcDbEntity
  8
0
390
0
100
AcDbBlockBegin
  2
*MODEL_SPACE
 70
     0
 10
0.0
 20
0.0
 30
0.0
  3
*MODEL_SPACE
  1

  0
ENDBLK
  5
E
100
AcDbEntity
  8
0
390
0
100
AcDbBlockEnd
  0
BLOCK
  5
F
100
AcDbEntity
 67
     1
  8
0
390
0
100
AcDbBlockBegin
  2
*PAPER_SPACE
 70
     0
 10
0.0
 20
0.0
 30
0.0
  3
*PAPER_SPACE
  1

  0
ENDBLK
  5
10
100
AcDbEntity
 67
     1
  8
0
390
0
100
AcDbBlockEnd
  0
ENDSEC
  0
SECTION
  2
ENTITIES
  0
VIEWPORT
  5
36B
100
AcDbEntity
 67
     1
  8
0
370
     0
390
0
 62
     0
 48
0.0
100
AcDbViewport
 10
0.0
 20
0.0
 30
0.0
 40
1000.0
 41
1000.0
 68
     1
 69
     1
 12
0.0
 22
0.0
 13
0.0
 23
0.0
 14
1.0
 24
1.0
 15
1.0
 25
1.0
 16
0.0
 26
0.0
 36
1.0
 17
0.0
 27
0.0
 37
0.0
 42
50.0
 43
0.0
 44
0.0
 45
1000.0
 50
0.0
 51
0.0
 72
   100
 90
        0
340
0
  1

281
     0
 71
     0
 74
     1
110
0.0
120
0.0
130
0.0
111
1.0
121
0.0
131
0.0
112
0.0
122
1.0
132
0.0
345
0
346
0
 79
     0
146
0.0
  0
POLYLINE
  5
24
100
AcDbEntity
  8
0
370
    13
390
0
 62
     7
100
AcDb2dPolyline
 66
     1
 10
0.0
 20
0.0
 30
0.0
 70
     1
 71
    10
  0
VERTEX
  5
25
100
AcDbEntity
  8
0
370
     0
390
0
100
AcDbVertex
100
AcDb2dVertex
 10
195.33905
 20
-19.13084
 30
0.0
  0
VERTEX
  5
26
100
AcDbEntity
  8
0
370
     0
390
0
100
AcDbVertex
100
AcDb2dVertex
 10
195.808075
 20
-19.13084
 30
0.0
  0
VERTEX
  5
27
100
AcDbEntity
  8
0
370
     0
390
0
100
AcDbVertex
100
AcDb2dVertex
 10
195.808075
 20
-17.522051
 30
0.0
  0
VERTEX
  5
28
100
AcDbEntity
  8
0
370
     0
390
0
100
AcDbVertex
100
AcDb2dVertex
 10
197.280701
 20
-17.522051
 30
0.0
  0
VERTEX
  5
29
100
AcDbEntity
  8
0
370
     0
390
0
100
AcDbVertex
100
AcDb2dVertex
 10
197.280701
 20
-17.103462
 30
0.0
  0
VERTEX
  5
2A
100
AcDbEntity
  8
0
370
     0
390
0
100
AcDbVertex
100
AcDb2dVertex
 10
195.808075
 20
-17.103462
 30
0.0
  0
VERTEX
  5
2B
100
AcDbEntity
  8
0
370
     0
390
0
100
AcDbVertex
100
AcDb2dVertex
 10
195.808075
 20
-16.054472
 30
0.0
  0
VERTEX
  5
2C
100
AcDbEntity
  8
0
370
     0
390
0
100
AcDbVertex
100
AcDb2dVertex
 10
197.618591
 20
-16.054472
 30
0.0
  0
VERTEX
  5
2D
100
AcDbEntity
  8
0
370
     0
390
0
100
AcDbVertex
100
AcDb2dVertex
 10
197.618591
 20
-15.63084
 30
0.0
  0
VERTEX
  5
2E
100
AcDbEntity
  8
0
370
     0
390
0
100
AcDbVertex
100
AcDb2dVertex
 10
195.33905
 20
-15.63084
 30
0.0
  0
SEQEND
  5
2F
100
AcDbEntity
  8
0
370
     0
390
0
  0
POLYLINE
  5
30
100
AcDbEntity
  8
0
370
    13
390
0
 62
     7
100
AcDb2dPolyline
 66
     1
 10
0.0
 20
0.0
 30
0.0
 70
     1
 71
    22
  0
VERTEX
  5
31
100
AcDbEntity
  8
0
370
     0
390
0
100
AcDbVertex
100
AcDb2dVertex
 10
198.531418
 20
-19.13084
 30
0.0
  0
VERTEX
  5
32
100
AcDbEntity
  8
0
370
     0
390
0
100
AcDbVertex
100
AcDb2dVertex
 10
198.97522
 20
-19.13084
 30
0.0
  0
VERTEX
  5
33
100
AcDbEntity
  8
0
370
     0
390
0
100
AcDbVertex
100
AcDb2dVertex
 10
198.97522
 20
-17.582569
 30
0.0
  0
VERTEX
  5
34
100
AcDbEntity
  8
0
370
     0
390
0
100
AcDbVertex
100
AcDb2dVertex
 10
199.020615
 20
-17.20937
 30
0.0
  0
VERTEX
  5
35
100
AcDbEntity
  8
0
370
     0
390
0
100
AcDbVertex
100
AcDb2dVertex
 10
199.156784
 20
-16.94208
 30
0.0
  0
VERTEX
  5
36
100
AcDbEntity
  8
0
370
     0
390
0
100
AcDbVertex
100
AcDb2dVertex
 10
199.378677
 20
-16.780697
 30
0.0
  0
VERTEX
  5
37
100
AcDbEntity
  8
0
370
     0
390
0
100
AcDbVertex
100
AcDb2dVertex
 10
199.676224
 20
-16.72522
 30
0.0
  0
VERTEX
  5
38
100
AcDbEntity
  8
0
370
     0
390
0
100
AcDbVertex
100
AcDb2dVertex
 10
199.898132
 20
-16.760523
 30
0.0
  0
VERTEX
  5
39
100
AcDbEntity
  8
0
370
     0
390
0
100
AcDbVertex
100
AcDb2dVertex
 10
200.06456
 20
-16.861387
 30
0.0
  0
VERTEX
  5
3A
100
AcDbEntity
  8
0
370
     0
390
0
100
AcDbVertex
100
AcDb2dVertex
 10
200.165421
 20
-17.032858
 30
0.0
  0
VERTEX
  5
3B
100
AcDbEntity
  8
0
370
     0
390
0
100
AcDbVertex
100
AcDb2dVertex
 10
200.200729
 20
-17.264847
 30
0.0
  0
VERTEX
  5
3C
100
AcDbEntity
  8
0
370
     0
390
0
100
AcDbVertex
100
AcDb2dVertex
 10
200.649567
 20
-17.264847
 30
0.0
  0
VERTEX
  5
3D
100
AcDbEntity
  8
0
370
     0
390
0
100
AcDbVertex
100
AcDb2dVertex
 10
200.58905
 20
-16.856344
 30
0.0
  0
VERTEX
  5
3E
100
AcDbEntity
  8
0
370
     0
390
0
100
AcDbVertex
100
AcDb2dVertex
 10
200.422623
 20
-16.563837
 30
0.0
  0
VERTEX
  5
3F
100
AcDbEntity
  8
0
370
     0
390
0
100
AcDbVertex
100
AcDb2dVertex
 10
200.145248
 20
-16.387325
 30
0.0
  0
VERTEX
  5
40
100
AcDbEntity
  8
0
370
     0
390
0
100
AcDbVertex
100
AcDb2dVertex
 10
199.767014
 20
-16.326805
 30
0.0
  0
VERTEX
  5
41
100
AcDbEntity
  8
0
370
     0
390
0
100
AcDbVertex
100
AcDb2dVertex
 10
199.509796
 20
-16.367151
 30
0.0
  0
VERTEX
  5
42
100
AcDbEntity
  8
0
370
     0
390
0
100
AcDbVertex
100
AcDb2dVertex
 10
199.287903
 20
-16.468016
 30
0.0
  0
VERTEX
  5
43
100
AcDbEntity
  8
0
370
     0
390
0
100
AcDbVertex
100
AcDb2dVertex
 10
199.091217
 20
-16.639486
 30
0.0
  0
VERTEX
  5
44
100
AcDbEntity
  8
0
370
     0
390
0
100
AcDbVertex
100
AcDb2dVertex
 10
198.934875
 20
-16.871475
 30
0.0
  0
VERTEX
  5
45
100
AcDbEntity
  8
0
370
     0
390
0
100
AcDbVertex
100
AcDb2dVertex
 10
198.934875
 20
-16.422626
 30
0.0
  0
VERTEX
  5
46
100
AcDbEntity
  8
0
370
     0
390
0
100
AcDbVertex
100
AcDb2dVertex
 10
198.531418
 20
-16.422626
 30
0.0
  0
SEQEND
  5
47
100
AcDbEntity
  8
0
370
     0
390
0
  0
POLYLINE
  5
48
100
AcDbEntity
  8
0
370
    13
390
0
 62
     7
100
AcDb2dPolyline
 66
     1
 10
0.0
 20
0.0
 30
0.0
 70
     1
 71
    16
  0
VERTEX
  5
49
100
AcDbEntity
  8
0
370
     0
390
0
100
AcDbVertex
100
AcDb2dVertex
 10
201.269897
 20
-17.779255
 30
0.0
  0
VERTEX
  5
4A
100
AcDbEntity
  8
0
370
     0
390
0
100
AcDbVertex
100
AcDb2dVertex
 10
201.350586
 20
-18.394529
 30
0.0
  0
VERTEX
  5
4B
100
AcDbEntity
  8
0
370
     0
390
0
100
AcDbVertex
100
AcDb2dVertex
 10
201.582565
 20
-18.848419
 30
0.0
  0
VERTEX
  5
4C
100
AcDbEntity
  8
0
370
     0
390
0
100
AcDbVertex
100
AcDb2dVertex
 10
201.950729
 20
-19.13084
 30
0.0
  0
VERTEX
  5
4D
100
AcDbEntity
  8
0
370
     0
390
0
100
AcDbVertex
100
AcDb2dVertex
 10
202.444962
 20
-19.226662
 30
0.0
  0
VERTEX
  5
4E
100
AcDbEntity
  8
0
370
     0
390
0
100
AcDbVertex
100
AcDb2dVertex
 10
202.934158
 20
-19.13084
 30
0.0
  0
VERTEX
  5
4F
100
AcDbEntity
  8
0
370
     0
390
0
100
AcDbVertex
100
AcDb2dVertex
 10
203.302307
 20
-18.853462
 30
0.0
  0
VERTEX
  5
50
100
AcDbEntity
  8
0
370
     0
390
0
100
AcDbVertex
100
AcDb2dVertex
 10
203.534302
 20
-18.399572
 30
0.0
  0
VERTEX
  5
51
100
AcDbEntity
  8
0
370
     0
390
0
100
AcDbVertex
100
AcDb2dVertex
 10
203.620041
 20
-17.779255
 30
0.0
  0
VERTEX
  5
52
100
AcDbEntity
  8
0
370
     0
390
0
100
AcDbVertex
100
AcDb2dVertex
 10
203.534302
 20
-17.163982
 30
0.0
  0
VERTEX
  5
53
100
AcDbEntity
  8
0
370
     0
390
0
100
AcDbVertex
100
AcDb2dVertex
 10
203.302307
 20
-16.705048
 30
0.0
  0
VERTEX
  5
54
100
AcDbEntity
  8
0
370
     0
390
0
100
AcDbVertex
100
AcDb2dVertex
 10
202.934158
 20
-16.42767
 30
0.0
  0
VERTEX
  5
55
100
AcDbEntity
  8
0
370
     0
390
0
100
AcDbVertex
100
AcDb2dVertex
 10
202.444962
 20
-16.326805
 30
0.0
  0
VERTEX
  5
56
100
AcDbEntity
  8
0
370
     0
390
0
100
AcDbVertex
100
AcDb2dVertex
 10
201.950729
 20
-16.42767
 30
0.0
  0
VERTEX
  5
57
100
AcDbEntity
  8
0
370
     0
390
0
100
AcDbVertex
100
AcDb2dVertex
 10
201.582565
 20
-16.710091
 30
0.0
  0
VERTEX
  5
58
100
AcDbEntity
  8
0
370
     0
390
0
100
AcDbVertex
100
AcDb2dVertex
 10
201.350586
 20
-17.163982
 30
0.0
  0
SEQEND
  5
59
100
AcDbEntity
  8
0
370
     0
390
0
  0
POLYLINE
  5
5A
100
AcDbEntity
  8
0
370
    13
390
0
 62
     7
100
AcDb2dPolyline
 66
     1
 10
0.0
 20
0.0
 30
0.0
 70
     1
 71
    16
  0
VERTEX
  5
5B
100
AcDbEntity
  8
0
370
     0
390
0
100
AcDbVertex
100
AcDb2dVertex
 10
201.723785
 20
-17.774212
 30
0.0
  0
VERTEX
  5
5C
100
AcDbEntity
  8
0
370
     0
390
0
100
AcDbVertex
100
AcDb2dVertex
 10
201.769165
 20
-17.320322
 30
0.0
  0
VERTEX
  5
5D
100
AcDbEntity
  8
0
370
     0
390
0
100
AcDbVertex
100
AcDb2dVertex
 10
201.910385
 20
-16.992512
 30
0.0
  0
VERTEX
  5
5E
100
AcDbEntity
  8
0
370
     0
390
0
100
AcDbVertex
100
AcDb2dVertex
 10
202.137329
 20
-16.790783
 30
0.0
  0
VERTEX
  5
5F
100
AcDbEntity
  8
0
370
     0
390
0
100
AcDbVertex
100
AcDb2dVertex
 10
202.444962
 20
-16.720177
 30
0.0
  0
VERTEX
  5
60
100
AcDbEntity
  8
0
370
     0
390
0
100
AcDbVertex
100
AcDb2dVertex
 10
202.747559
 20
-16.790783
 30
0.0
  0
VERTEX
  5
61
100
AcDbEntity
  8
0
370
     0
390
0
100
AcDbVertex
100
AcDb2dVertex
 10
202.974503
 20
-16.987469
 30
0.0
  0
VERTEX
  5
62
100
AcDbEntity
  8
0
370
     0
390
0
100
AcDbVertex
100
AcDb2dVertex
 10
203.115707
 20
-17.320322
 30
0.0
  0
VERTEX
  5
63
100
AcDbEntity
  8
0
370
     0
390
0
100
AcDbVertex
100
AcDb2dVertex
 10
203.166138
 20
-17.774212
 30
0.0
  0
VERTEX
  5
64
100
AcDbEntity
  8
0
370
     0
390
0
100
AcDbVertex
100
AcDb2dVertex
 10
203.115707
 20
-18.233147
 30
0.0
  0
VERTEX
  5
65
100
AcDbEntity
  8
0
370
     0
390
0
100
AcDbVertex
100
AcDb2dVertex
 10
202.974503
 20
-18.565998
 30
0.0
  0
VERTEX
  5
66
100
AcDbEntity
  8
0
370
     0
390
0
100
AcDbVertex
100
AcDb2dVertex
 10
202.747559
 20
-18.767729
 30
0.0
  0
VERTEX
  5
67
100
AcDbEntity
  8
0
370
     0
390
0
100
AcDbVertex
100
AcDb2dVertex
 10
202.444962
 20
-18.83329
 30
0.0
  0
VERTEX
  5
68
100
AcDbEntity
  8
0
370
     0
390
0
100
AcDbVertex
100
AcDb2dVertex
 10
202.137329
 20
-18.767729
 30
0.0
  0
VERTEX
  5
69
100
AcDbEntity
  8
0
370
     0
390
0
100
AcDbVertex
100
AcDb2dVertex
 10
201.910385
 20
-18.565998
 30
0.0
  0
VERTEX
  5
6A
100
AcDbEntity
  8
0
370
     0
390
0
100
AcDbVertex
100
AcDb2dVertex
 10
201.769165
 20
-18.233147
 30
0.0
  0
SEQEND
  5
6B
100
AcDbEntity
  8
0
370
     0
390
0
  0
POLYLINE
  5
6C
100
AcDbEntity
  8
0
370
    13
390
0
 62
     7
100
AcDb2dPolyline
 66
     1
 10
0.0
 20
0.0
 30
0.0
 70
     1
 71
    24
  0
VERTEX
  5
6D
100
AcDbEntity
  8
0
370
     0
390
0
100
AcDbVertex
100
AcDb2dVertex
 10
204.437042
 20
-19.13084
 30
0.0
  0
VERTEX
  5
6E
100
AcDbEntity
  8
0
370
     0
390
0
100
AcDbVertex
100
AcDb2dVertex
 10
204.880844
 20
-19.13084
 30
0.0
  0
VERTEX
  5
6F
100
AcDbEntity
  8
0
370
     0
390
0
100
AcDbVertex
100
AcDb2dVertex
 10
204.880844
 20
-17.56744
 30
0.0
  0
VERTEX
  5
70
100
AcDbEntity
  8
0
370
     0
390
0
100
AcDbVertex
100
AcDb2dVertex
 10
204.926224
 20
-17.20937
 30
0.0
  0
VERTEX
  5
71
100
AcDbEntity
  8
0
370
     0
390
0
100
AcDbVertex
100
AcDb2dVertex
 10
205.072479
 20
-16.947123
 30
0.0
  0
VERTEX
  5
72
100
AcDbEntity
  8
0
370
     0
390
0
100
AcDbVertex
100
AcDb2dVertex
 10
205.299423
 20
-16.78574
 30
0.0
  0
VERTEX
  5
73
100
AcDbEntity
  8
0
370
     0
390
0
100
AcDbVertex
100
AcDb2dVertex
 10
205.60202
 20
-16.72522
 30
0.0
  0
VERTEX
  5
74
100
AcDbEntity
  8
0
370
     0
390
0
100
AcDbVertex
100
AcDb2dVertex
 10
205.844101
 20
-16.775654
 30
0.0
  0
VERTEX
  5
75
100
AcDbEntity
  8
0
370
     0
390
0
100
AcDbVertex
100
AcDb2dVertex
 10
205.995392
 20
-16.911819
 30
0.0
  0
VERTEX
  5
76
100
AcDbEntity
  8
0
370
     0
390
0
100
AcDbVertex
100
AcDb2dVertex
 10
206.071045
 20
-17.138765
 30
0.0
  0
VERTEX
  5
77
100
AcDbEntity
  8
0
370
     0
390
0
100
AcDbVertex
100
AcDb2dVertex
 10
206.096252
 20
-17.441359
 30
0.0
  0
VERTEX
  5
78
100
AcDbEntity
  8
0
370
     0
390
0
100
AcDbVertex
100
AcDb2dVertex
 10
206.096252
 20
-19.13084
 30
0.0
  0
VERTEX
  5
79
100
AcDbEntity
  8
0
370
     0
390
0
100
AcDbVertex
100
AcDb2dVertex
 10
206.54007
 20
-19.13084
 30
0.0
  0
VERTEX
  5
7A
100
AcDbEntity
  8
0
370
     0
390
0
100
AcDbVertex
100
AcDb2dVertex
 10
206.54007
 20
-17.35058
 30
0.0
  0
VERTEX
  5
7B
100
AcDbEntity
  8
0
370
     0
390
0
100
AcDbVertex
100
AcDb2dVertex
 10
206.519897
 20
-16.992512
 30
0.0
  0
VERTEX
  5
7C
100
AcDbEntity
  8
0
370
     0
390
0
100
AcDbVertex
100
AcDb2dVertex
 10
206.429108
 20
-16.694962
 30
0.0
  0
VERTEX
  5
7D
100
AcDbEntity
  8
0
370
     0
390
0
100
AcDbVertex
100
AcDb2dVertex
 10
206.131561
 20
-16.422626
 30
0.0
  0
VERTEX
  5
7E
100
AcDbEntity
  8
0
370
     0
390
0
100
AcDbVertex
100
AcDb2dVertex
 10
205.667587
 20
-16.326805
 30
0.0
  0
VERTEX
  5
7F
100
AcDbEntity
  8
0
370
     0
390
0
100
AcDbVertex
100
AcDb2dVertex
 10
205.410385
 20
-16.362108
 30
0.0
  0
VERTEX
  5
80
100
AcDbEntity
  8
0
370
     0
390
0
100
AcDbVertex
100
AcDb2dVertex
 10
205.193527
 20
-16.45793
 30
0.0
  0
VERTEX
  5
81
100
AcDbEntity
  8
0
370
     0
390
0
100
AcDbVertex
100
AcDb2dVertex
 10
205.006927
 20
-16.619312
 30
0.0
  0
VERTEX
  5
82
100
AcDbEntity
  8
0
370
     0
390
0
100
AcDbVertex
100
AcDb2dVertex
 10
204.860672
 20
-16.836172
 30
0.0
  0
VERTEX
  5
83
100
AcDbEntity
  8
0
370
     0
390
0
100
AcDbVertex
100
AcDb2dVertex
 10
204.860672
 20
-16.422626
 30
0.0
  0
VERTEX
  5
84
100
AcDbEntity
  8
0
370
     0
390
0
100
AcDbVertex
100
AcDb2dVertex
 10
204.437042
 20
-16.422626
 30
0.0
  0
SEQEND
  5
85
100
AcDbEntity
  8
0
370
     0
390
0
  0
POLYLINE
  5
86
100
AcDbEntity
  8
0
370
    13
390
0
 62
     7
100
AcDb2dPolyline
 66
     1
 10
0.0
 20
0.0
 30
0.0
 70
     1
 71
    22
  0
VERTEX
  5
87
100
AcDbEntity
  8
0
370
     0
390
0
100
AcDbVertex
100
AcDb2dVertex
 10
208.068161
 20
-16.891647
 30
0.0
  0
VERTEX
  5
88
100
AcDbEntity
  8
0
370
     0
390
0
100
AcDbVertex
100
AcDb2dVertex
 10
208.068161
 20
-18.248276
 30
0.0
  0
VERTEX
  5
89
100
AcDbEntity
  8
0
370
     0
390
0
100
AcDbVertex
100
AcDb2dVertex
 10
208.098419
 20
-18.687037
 30
0.0
  0
VERTEX
  5
8A
100
AcDbEntity
  8
0
370
     0
390
0
100
AcDbVertex
100
AcDb2dVertex
 10
208.239624
 20
-18.98963
 30
0.0
  0
VERTEX
  5
8B
100
AcDbEntity
  8
0
370
     0
390
0
100
AcDbVertex
100
AcDb2dVertex
 10
208.522049
 20
-19.166143
 30
0.0
  0
VERTEX
  5
8C
100
AcDbEntity
  8
0
370
     0
390
0
100
AcDbVertex
100
AcDb2dVertex
 10
209.00116
 20
-19.226662
 30
0.0
  0
VERTEX
  5
8D
100
AcDbEntity
  8
0
370
     0
390
0
100
AcDbVertex
100
AcDb2dVertex
 10
209.52565
 20
-19.201445
 30
0.0
  0
VERTEX
  5
8E
100
AcDbEntity
  8
0
370
     0
390
0
100
AcDbVertex
100
AcDb2dVertex
 10
209.52565
 20
-18.818161
 30
0.0
  0
VERTEX
  5
8F
100
AcDbEntity
  8
0
370
     0
390
0
100
AcDbVertex
100
AcDb2dVertex
 10
209.142365
 20
-18.848419
 30
0.0
  0
VERTEX
  5
90
100
AcDbEntity
  8
0
370
     0
390
0
100
AcDbVertex
100
AcDb2dVertex
 10
208.794388
 20
-18.808073
 30
0.0
  0
VERTEX
  5
91
100
AcDbEntity
  8
0
370
     0
390
0
100
AcDbVertex
100
AcDb2dVertex
 10
208.607788
 20
-18.681993
 30
0.0
  0
VERTEX
  5
92
100
AcDbEntity
  8
0
370
     0
390
0
100
AcDbVertex
100
AcDb2dVertex
 10
208.5271
 20
-18.470177
 30
0.0
  0
VERTEX
  5
93
100
AcDbEntity
  8
0
370
     0
390
0
100
AcDbVertex
100
AcDb2dVertex
 10
208.511963
 20
-18.172626
 30
0.0
  0
VERTEX
  5
94
100
AcDbEntity
  8
0
370
     0
390
0
100
AcDbVertex
100
AcDb2dVertex
 10
208.511963
 20
-16.891647
 30
0.0
  0
VERTEX
  5
95
100
AcDbEntity
  8
0
370
     0
390
0
100
AcDbVertex
100
AcDb2dVertex
 10
209.52565
 20
-16.891647
 30
0.0
  0
VERTEX
  5
96
100
AcDbEntity
  8
0
370
     0
390
0
100
AcDbVertex
100
AcDb2dVertex
 10
209.52565
 20
-16.513405
 30
0.0
  0
VERTEX
  5
97
100
AcDbEntity
  8
0
370
     0
390
0
100
AcDbVertex
100
AcDb2dVertex
 10
208.511963
 20
-16.513405
 30
0.0
  0
VERTEX
  5
98
100
AcDbEntity
  8
0
370
     0
390
0
100
AcDbVertex
100
AcDb2dVertex
 10
208.511963
 20
-15.721619
 30
0.0
  0
VERTEX
  5
99
100
AcDbEntity
  8
0
370
     0
390
0
100
AcDbVertex
100
AcDb2dVertex
 10
208.068161
 20
-15.721619
 30
0.0
  0
VERTEX
  5
9A
100
AcDbEntity
  8
0
370
     0
390
0
100
AcDbVertex
100
AcDb2dVertex
 10
208.068161
 20
-16.513405
 30
0.0
  0
VERTEX
  5
9B
100
AcDbEntity
  8
0
370
     0
390
0
100
AcDbVertex
100
AcDb2dVertex
 10
207.30159
 20
-16.513405
 30
0.0
  0
VERTEX
  5
9C
100
AcDbEntity
  8
0
370
     0
390
0
100
AcDbVertex
100
AcDb2dVertex
 10
207.30159
 20
-16.891647
 30
0.0
  0
SEQEND
  5
9D
100
AcDbEntity
  8
0
370
     0
390
0
  0
POLYLINE
  5
9E
100
AcDbEntity
  8
0
370
    13
390
0
 62
     7
100
AcDb2dPolyline
 66
     1
 10
0.0
 20
0.0
 30
0.0
 70
     1
 71
     7
  0
VERTEX
  5
9F
100
AcDbEntity
  8
0
370
     0
390
0
100
AcDbVertex
100
AcDb2dVertex
 10
214.357071
 20
-19.13084
 30
0.0
  0
VERTEX
  5
A0
100
AcDbEntity
  8
0
370
     0
390
0
100
AcDbVertex
100
AcDb2dVertex
 10
214.82608
 20
-19.13084
 30
0.0
  0
VERTEX
  5
A1
100
AcDbEntity
  8
0
370
     0
390
0
100
AcDbVertex
100
AcDb2dVertex
 10
215.81456
 20
-16.422626
 30
0.0
  0
VERTEX
  5
A2
100
AcDbEntity
  8
0
370
     0
390
0
100
AcDbVertex
100
AcDb2dVertex
 10
215.355621
 20
-16.422626
 30
0.0
  0
VERTEX
  5
A3
100
AcDbEntity
  8
0
370
     0
390
0
100
AcDbVertex
100
AcDb2dVertex
 10
214.594101
 20
-18.606344
 30
0.0
  0
VERTEX
  5
A4
100
AcDbEntity
  8
0
370
     0
390
0
100
AcDbVertex
100
AcDb2dVertex
 10
213.817444
 20
-16.422626
 30
0.0
  0
VERTEX
  5
A5
100
AcDbEntity
  8
0
370
     0
390
0
100
AcDbVertex
100
AcDb2dVertex
 10
213.35347
 20
-16.422626
 30
0.0
  0
SEQEND
  5
A6
100
AcDbEntity
  8
0
370
     0
390
0
  0
POLYLINE
  5
A7
100
AcDbEntity
  8
0
370
    13
390
0
 62
     7
100
AcDb2dPolyline
 66
     1
 10
0.0
 20
0.0
 30
0.0
 70
     1
 71
    10
  0
VERTEX
  5
A8
100
AcDbEntity
  8
0
370
     0
390
0
100
AcDbVertex
100
AcDb2dVertex
 10
217.937759
 20
-18.757641
 30
0.0
  0
VERTEX
  5
A9
100
AcDbEntity
  8
0
370
     0
390
0
100
AcDbVertex
100
AcDb2dVertex
 10
217.937759
 20
-16.513405
 30
0.0
  0
VERTEX
  5
AA
100
AcDbEntity
  8
0
370
     0
390
0
100
AcDbVertex
100
AcDb2dVertex
 10
216.797989
 20
-16.513405
 30
0.0
  0
VERTEX
  5
AB
100
AcDbEntity
  8
0
370
     0
390
0
100
AcDbVertex
100
AcDb2dVertex
 10
216.797989
 20
-16.891647
 30
0.0
  0
VERTEX
  5
AC
100
AcDbEntity
  8
0
370
     0
390
0
100
AcDbVertex
100
AcDb2dVertex
 10
217.493958
 20
-16.891647
 30
0.0
  0
VERTEX
  5
AD
100
AcDbEntity
  8
0
370
     0
390
0
100
AcDbVertex
100
AcDb2dVertex
 10
217.493958
 20
-18.757641
 30
0.0
  0
VERTEX
  5
AE
100
AcDbEntity
  8
0
370
     0
390
0
100
AcDbVertex
100
AcDb2dVertex
 10
216.586182
 20
-18.757641
 30
0.0
  0
VERTEX
  5
AF
100
AcDbEntity
  8
0
370
     0
390
0
100
AcDbVertex
100
AcDb2dVertex
 10
216.586182
 20
-19.13084
 30
0.0
  0
VERTEX
  5
B0
100
AcDbEntity
  8
0
370
     0
390
0
100
AcDbVertex
100
AcDb2dVertex
 10
218.855621
 20
-19.13084
 30
0.0
  0
VERTEX
  5
B1
100
AcDbEntity
  8
0
370
     0
390
0
100
AcDbVertex
100
AcDb2dVertex
 10
218.855621
 20
-18.757641
 30
0.0
  0
SEQEND
  5
B2
100
AcDbEntity
  8
0
370
     0
390
0
  0
POLYLINE
  5
B3
100
AcDbEntity
  8
0
370
    13
390
0
 62
     7
100
AcDb2dPolyline
 66
     1
 10
0.0
 20
0.0
 30
0.0
 70
     1
 71
     4
  0
VERTEX
  5
B4
100
AcDbEntity
  8
0
370
     0
390
0
100
AcDbVertex
100
AcDb2dVertex
 10
217.952881
 20
-15.509803
 30
0.0
  0
VERTEX
  5
B5
100
AcDbEntity
  8
0
370
     0
390
0
100
AcDbVertex
100
AcDb2dVertex
 10
217.483871
 20
-15.509803
 30
0.0
  0
VERTEX
  5
B6
100
AcDbEntity
  8
0
370
     0
390
0
100
AcDbVertex
100
AcDb2dVertex
 10
217.483871
 20
-16.014126
 30
0.0
  0
VERTEX
  5
B7
100
AcDbEntity
  8
0
370
     0
390
0
100
AcDbVertex
100
AcDb2dVertex
 10
217.952881
 20
-16.014126
 30
0.0
  0
SEQEND
  5
B8
100
AcDbEntity
  8
0
370
     0
390
0
  0
POLYLINE
  5
B9
100
AcDbEntity
  8
0
370
    13
390
0
 62
     7
100
AcDb2dPolyline
 66
     1
 10
0.0
 20
0.0
 30
0.0
 70
     1
 71
    27
  0
VERTEX
  5
BA
100
AcDbEntity
  8
0
370
     0
390
0
100
AcDbVertex
100
AcDb2dVertex
 10
220.005478
 20
-17.905336
 30
0.0
  0
VERTEX
  5
BB
100
AcDbEntity
  8
0
370
     0
390
0
100
AcDbVertex
100
AcDb2dVertex
 10
221.780701
 20
-17.905336
 30
0.0
  0
VERTEX
  5
BC
100
AcDbEntity
  8
0
370
     0
390
0
100
AcDbVertex
100
AcDb2dVertex
 10
221.785736
 20
-17.698565
 30
0.0
  0
VERTEX
  5
BD
100
AcDbEntity
  8
0
370
     0
390
0
100
AcDbVertex
100
AcDb2dVertex
 10
221.705048
 20
-17.118593
 30
0.0
  0
VERTEX
  5
BE
100
AcDbEntity
  8
0
370
     0
390
0
100
AcDbVertex
100
AcDb2dVertex
 10
221.483154
 20
-16.684875
 30
0.0
  0
VERTEX
  5
BF
100
AcDbEntity
  8
0
370
     0
390
0
100
AcDbVertex
100
AcDb2dVertex
 10
221.130127
 20
-16.422626
 30
0.0
  0
VERTEX
  5
C0
100
AcDbEntity
  8
0
370
     0
390
0
100
AcDbVertex
100
AcDb2dVertex
 10
220.661102
 20
-16.326805
 30
0.0
  0
VERTEX
  5
C1
100
AcDbEntity
  8
0
370
     0
390
0
100
AcDbVertex
100
AcDb2dVertex
 10
220.202164
 20
-16.42767
 30
0.0
  0
VERTEX
  5
C2
100
AcDbEntity
  8
0
370
     0
390
0
100
AcDbVertex
100
AcDb2dVertex
 10
219.849136
 20
-16.710091
 30
0.0
  0
VERTEX
  5
C3
100
AcDbEntity
  8
0
370
     0
390
0
100
AcDbVertex
100
AcDb2dVertex
 10
219.622192
 20
-17.169025
 30
0.0
  0
VERTEX
  5
C4
100
AcDbEntity
  8
0
370
     0
390
0
100
AcDbVertex
100
AcDb2dVertex
 10
219.541504
 20
-17.774212
 30
0.0
  0
VERTEX
  5
C5
100
AcDbEntity
  8
0
370
     0
390
0
100
AcDbVertex
100
AcDb2dVertex
 10
219.617157
 20
-18.394529
 30
0.0
  0
VERTEX
  5
C6
100
AcDbEntity
  8
0
370
     0
390
0
100
AcDbVertex
100
AcDb2dVertex
 10
219.844101
 20
-18.848419
 30
0.0
  0
VERTEX
  5
C7
100
AcDbEntity
  8
0
370
     0
390
0
100
AcDbVertex
100
AcDb2dVertex
 10
220.192078
 20
-19.13084
 30
0.0
  0
VERTEX
  5
C8
100
AcDbEntity
  8
0
370
     0
390
0
100
AcDbVertex
100
AcDb2dVertex
 10
220.645966
 20
-19.226662
 30
0.0
  0
VERTEX
  5
C9
100
AcDbEntity
  8
0
370
     0
390
0
100
AcDbVertex
100
AcDb2dVertex
 10
221.039337
 20
-19.1611
 30
0.0
  0
VERTEX
  5
CA
100
AcDbEntity
  8
0
370
     0
390
0
100
AcDbVertex
100
AcDb2dVertex
 10
221.362106
 20
-18.98963
 30
0.0
  0
VERTEX
  5
CB
100
AcDbEntity
  8
0
370
     0
390
0
100
AcDbVertex
100
AcDb2dVertex
 10
221.599136
 20
-18.717295
 30
0.0
  0
VERTEX
  5
CC
100
AcDbEntity
  8
0
370
     0
390
0
100
AcDbVertex
100
AcDb2dVertex
 10
221.735306
 20
-18.354183
 30
0.0
  0
VERTEX
  5
CD
100
AcDbEntity
  8
0
370
     0
390
0
100
AcDbVertex
100
AcDb2dVertex
 10
221.296539
 20
-18.354183
 30
0.0
  0
VERTEX
  5
CE
100
AcDbEntity
  8
0
370
     0
390
0
100
AcDbVertex
100
AcDb2dVertex
 10
221.205765
 20
-18.555912
 30
0.0
  0
VERTEX
  5
CF
100
AcDbEntity
  8
0
370
     0
390
0
100
AcDbVertex
100
AcDb2dVertex
 10
221.074646
 20
-18.707209
 30
0.0
  0
VERTEX
  5
D0
100
AcDbEntity
  8
0
370
     0
390
0
100
AcDbVertex
100
AcDb2dVertex
 10
220.701447
 20
-18.828247
 30
0.0
  0
VERTEX
  5
D1
100
AcDbEntity
  8
0
370
     0
390
0
100
AcDbVertex
100
AcDb2dVertex
 10
220.413986
 20
-18.772772
 30
0.0
  0
VERTEX
  5
D2
100
AcDbEntity
  8
0
370
     0
390
0
100
AcDbVertex
100
AcDb2dVertex
 10
220.197128
 20
-18.596258
 30
0.0
  0
VERTEX
  5
D3
100
AcDbEntity
  8
0
370
     0
390
0
100
AcDbVertex
100
AcDb2dVertex
 10
220.055908
 20
-18.308794
 30
0.0
  0
VERTEX
  5
D4
100
AcDbEntity
  8
0
370
     0
390
0
100
AcDbVertex
100
AcDb2dVertex
 10
220.005478
 20
-17.920465
 30
0.0
  0
SEQEND
  5
D5
100
AcDbEntity
  8
0
370
     0
390
0
  0
POLYLINE
  5
D6
100
AcDbEntity
  8
0
370
    13
390
0
 62
     7
100
AcDb2dPolyline
 66
     1
 10
0.0
 20
0.0
 30
0.0
 70
     1
 71
     9
  0
VERTEX
  5
D7
100
AcDbEntity
  8
0
370
     0
390
0
100
AcDbVertex
100
AcDb2dVertex
 10
220.005478
 20
-17.532137
 30
0.0
  0
VERTEX
  5
D8
100
AcDbEntity
  8
0
370
     0
390
0
100
AcDbVertex
100
AcDb2dVertex
 10
220.060959
 20
-17.184155
 30
0.0
  0
VERTEX
  5
D9
100
AcDbEntity
  8
0
370
     0
390
0
100
AcDbVertex
100
AcDb2dVertex
 10
220.197128
 20
-16.92695
 30
0.0
  0
VERTEX
  5
DA
100
AcDbEntity
  8
0
370
     0
390
0
100
AcDbVertex
100
AcDb2dVertex
 10
220.4039
 20
-16.770611
 30
0.0
  0
VERTEX
  5
DB
100
AcDbEntity
  8
0
370
     0
390
0
100
AcDbVertex
100
AcDb2dVertex
 10
220.676239
 20
-16.715134
 30
0.0
  0
VERTEX
  5
DC
100
AcDbEntity
  8
0
370
     0
390
0
100
AcDbVertex
100
AcDb2dVertex
 10
220.943527
 20
-16.770611
 30
0.0
  0
VERTEX
  5
DD
100
AcDbEntity
  8
0
370
     0
390
0
100
AcDbVertex
100
AcDb2dVertex
 10
221.150299
 20
-16.92695
 30
0.0
  0
VERTEX
  5
DE
100
AcDbEntity
  8
0
370
     0
390
0
100
AcDbVertex
100
AcDb2dVertex
 10
221.276367
 20
-17.184155
 30
0.0
  0
VERTEX
  5
DF
100
AcDbEntity
  8
0
370
     0
390
0
100
AcDbVertex
100
AcDb2dVertex
 10
221.321762
 20
-17.532137
 30
0.0
  0
SEQEND
  5
E0
100
AcDbEntity
  8
0
370
     0
390
0
  0
POLYLINE
  5
E1
100
AcDbEntity
  8
0
370
    13
390
0
 62
     7
100
AcDb2dPolyline
 66
     1
 10
0.0
 20
0.0
 30
0.0
 70
     1
 71
    13
  0
VERTEX
  5
E2
100
AcDbEntity
  8
0
370
     0
390
0
100
AcDbVertex
100
AcDb2dVertex
 10
223.293671
 20
-19.13084
 30
0.0
  0
VERTEX
  5
E3
100
AcDbEntity
  8
0
370
     0
390
0
100
AcDbVertex
100
AcDb2dVertex
 10
223.697128
 20
-16.831129
 30
0.0
  0
VERTEX
  5
E4
100
AcDbEntity
  8
0
370
     0
390
0
100
AcDbVertex
100
AcDb2dVertex
 10
224.100586
 20
-19.13084
 30
0.0
  0
VERTEX
  5
E5
100
AcDbEntity
  8
0
370
     0
390
0
100
AcDbVertex
100
AcDb2dVertex
 10
224.524216
 20
-19.13084
 30
0.0
  0
VERTEX
  5
E6
100
AcDbEntity
  8
0
370
     0
390
0
100
AcDbVertex
100
AcDb2dVertex
 10
225.189911
 20
-16.422626
 30
0.0
  0
VERTEX
  5
E7
100
AcDbEntity
  8
0
370
     0
390
0
100
AcDbVertex
100
AcDb2dVertex
 10
224.761246
 20
-16.422626
 30
0.0
  0
VERTEX
  5
E8
100
AcDbEntity
  8
0
370
     0
390
0
100
AcDbVertex
100
AcDb2dVertex
 10
224.312393
 20
-18.72234
 30
0.0
  0
VERTEX
  5
E9
100
AcDbEntity
  8
0
370
     0
390
0
100
AcDbVertex
100
AcDb2dVertex
 10
223.913986
 20
-16.422626
 30
0.0
  0
VERTEX
  5
EA
100
AcDbEntity
  8
0
370
     0
390
0
100
AcDbVertex
100
AcDb2dVertex
 10
223.47522
 20
-16.422626
 30
0.0
  0
VERTEX
  5
EB
100
AcDbEntity
  8
0
370
     0
390
0
100
AcDbVertex
100
AcDb2dVertex
 10
223.076813
 20
-18.72234
 30
0.0
  0
VERTEX
  5
EC
100
AcDbEntity
  8
0
370
     0
390
0
100
AcDbVertex
100
AcDb2dVertex
 10
222.62796
 20
-16.422626
 30
0.0
  0
VERTEX
  5
ED
100
AcDbEntity
  8
0
370
     0
390
0
100
AcDbVertex
100
AcDb2dVertex
 10
222.20433
 20
-16.422626
 30
0.0
  0
VERTEX
  5
EE
100
AcDbEntity
  8
0
370
     0
390
0
100
AcDbVertex
100
AcDb2dVertex
 10
222.870026
 20
-19.13084
 30
0.0
  0
SEQEND
  5
EF
100
AcDbEntity
  8
0
370
     0
390
0
  0
POLYLINE
  5
F0
100
AcDbEntity
  8
0
370
    13
390
0
 62
     7
100
AcDb2dPolyline
 66
     1
 10
0.0
 20
0.0
 30
0.0
 70
     1
 71
    51
  0
VERTEX
  5
F1
100
AcDbEntity
  8
0
370
     0
390
0
100
AcDbVertex
100
AcDb2dVertex
 10
195.57608
 20
-24.02277
 30
0.0
  0
VERTEX
  5
F2
100
AcDbEntity
  8
0
370
     0
390
0
100
AcDbVertex
100
AcDb2dVertex
 10
195.117157
 20
-24.02277
 30
0.0
  0
VERTEX
  5
F3
100
AcDbEntity
  8
0
370
     0
390
0
100
AcDbVertex
100
AcDb2dVertex
 10
195.218018
 20
-24.557352
 30
0.0
  0
VERTEX
  5
F4
100
AcDbEntity
  8
0
370
     0
390
0
100
AcDbVertex
100
AcDb2dVertex
 10
195.470184
 20
-24.950724
 30
0.0
  0
VERTEX
  5
F5
100
AcDbEntity
  8
0
370
     0
390
0
100
AcDbVertex
100
AcDb2dVertex
 10
195.858505
 20
-25.187756
 30
0.0
  0
VERTEX
  5
F6
100
AcDbEntity
  8
0
370
     0
390
0
100
AcDbVertex
100
AcDb2dVertex
 10
196.382996
 20
-25.273491
 30
0.0
  0
VERTEX
  5
F7
100
AcDbEntity
  8
0
370
     0
390
0
100
AcDbVertex
100
AcDb2dVertex
 10
196.902451
 20
-25.192799
 30
0.0
  0
VERTEX
  5
F8
100
AcDbEntity
  8
0
370
     0
390
0
100
AcDbVertex
100
AcDb2dVertex
 10
197.290787
 20
-24.970898
 30
0.0
  0
VERTEX
  5
F9
100
AcDbEntity
  8
0
370
     0
390
0
100
AcDbVertex
100
AcDb2dVertex
 10
197.537903
 20
-24.622915
 30
0.0
  0
VERTEX
  5
FA
100
AcDbEntity
  8
0
370
     0
390
0
100
AcDbVertex
100
AcDb2dVertex
 10
197.628677
 20
-24.16398
 30
0.0
  0
VERTEX
  5
FB
100
AcDbEntity
  8
0
370
     0
390
0
100
AcDbVertex
100
AcDb2dVertex
 10
197.553024
 20
-23.750437
 30
0.0
  0
VERTEX
  5
FC
100
AcDbEntity
  8
0
370
     0
390
0
100
AcDbVertex
100
AcDb2dVertex
 10
197.341217
 20
-23.483145
 30
0.0
  0
VERTEX
  5
FD
100
AcDbEntity
  8
0
370
     0
390
0
100
AcDbVertex
100
AcDb2dVertex
 10
196.998276
 20
-23.306633
 30
0.0
  0
VERTEX
  5
FE
100
AcDbEntity
  8
0
370
     0
390
0
100
AcDbVertex
100
AcDb2dVertex
 10
196.539337
 20
-23.175508
 30
0.0
  0
VERTEX
  5
FF
100
AcDbEntity
  8
0
370
     0
390
0
100
AcDbVertex
100
AcDb2dVertex
 10
196.145966
 20
-23.079687
 30
0.0
  0
VERTEX
  5
100
100
AcDbEntity
  8
0
370
     0
390
0
100
AcDbVertex
100
AcDb2dVertex
 10
195.888763
 20
-22.968735
 30
0.0
  0
VERTEX
  5
101
100
AcDbEntity
  8
0
370
     0
390
0
100
AcDbVertex
100
AcDb2dVertex
 10
195.742508
 20
-22.807352
 30
0.0
  0
VERTEX
  5
102
100
AcDbEntity
  8
0
370
     0
390
0
100
AcDbVertex
100
AcDb2dVertex
 10
195.697128
 20
-22.555191
 30
0.0
  0
VERTEX
  5
103
100
AcDbEntity
  8
0
370
     0
390
0
100
AcDbVertex
100
AcDb2dVertex
 10
195.742508
 20
-22.328245
 30
0.0
  0
VERTEX
  5
104
100
AcDbEntity
  8
0
370
     0
390
0
100
AcDbVertex
100
AcDb2dVertex
 10
195.873642
 20
-22.156776
 30
0.0
  0
VERTEX
  5
105
100
AcDbEntity
  8
0
370
     0
390
0
100
AcDbVertex
100
AcDb2dVertex
 10
196.075363
 20
-22.040783
 30
0.0
  0
VERTEX
  5
106
100
AcDbEntity
  8
0
370
     0
390
0
100
AcDbVertex
100
AcDb2dVertex
 10
196.352737
 20
-22.000437
 30
0.0
  0
VERTEX
  5
107
100
AcDbEntity
  8
0
370
     0
390
0
100
AcDbVertex
100
AcDb2dVertex
 10
196.635162
 20
-22.050869
 30
0.0
  0
VERTEX
  5
108
100
AcDbEntity
  8
0
370
     0
390
0
100
AcDbVertex
100
AcDb2dVertex
 10
196.857071
 20
-22.187035
 30
0.0
  0
VERTEX
  5
109
100
AcDbEntity
  8
0
370
     0
390
0
100
AcDbVertex
100
AcDb2dVertex
 10
197.003326
 20
-22.41398
 30
0.0
  0
VERTEX
  5
10A
100
AcDbEntity
  8
0
370
     0
390
0
100
AcDbVertex
100
AcDb2dVertex
 10
197.073929
 20
-22.721619
 30
0.0
  0
VERTEX
  5
10B
100
AcDbEntity
  8
0
370
     0
390
0
100
AcDbVertex
100
AcDb2dVertex
 10
197.532852
 20
-22.721619
 30
0.0
  0
VERTEX
  5
10C
100
AcDbEntity
  8
0
370
     0
390
0
100
AcDbVertex
100
AcDb2dVertex
 10
197.532852
 20
-22.711531
 30
0.0
  0
VERTEX
  5
10D
100
AcDbEntity
  8
0
370
     0
390
0
100
AcDbVertex
100
AcDb2dVertex
 10
197.452164
 20
-22.237469
 30
0.0
  0
VERTEX
  5
10E
100
AcDbEntity
  8
0
370
     0
390
0
100
AcDbVertex
100
AcDb2dVertex
 10
197.215134
 20
-21.884441
 30
0.0
  0
VERTEX
  5
10F
100
AcDbEntity
  8
0
370
     0
390
0
100
AcDbVertex
100
AcDb2dVertex
 10
196.841934
 20
-21.66254
 30
0.0
  0
VERTEX
  5
110
100
AcDbEntity
  8
0
370
     0
390
0
100
AcDbVertex
100
AcDb2dVertex
 10
196.337616
 20
-21.586891
 30
0.0
  0
VERTEX
  5
111
100
AcDbEntity
  8
0
370
     0
390
0
100
AcDbVertex
100
AcDb2dVertex
 10
195.883728
 20
-21.66254
 30
0.0
  0
VERTEX
  5
112
100
AcDbEntity
  8
0
370
     0
390
0
100
AcDbVertex
100
AcDb2dVertex
 10
195.530701
 20
-21.874355
 30
0.0
  0
VERTEX
  5
113
100
AcDbEntity
  8
0
370
     0
390
0
100
AcDbVertex
100
AcDb2dVertex
 10
195.303757
 20
-22.202166
 30
0.0
  0
VERTEX
  5
114
100
AcDbEntity
  8
0
370
     0
390
0
100
AcDbVertex
100
AcDb2dVertex
 10
195.223053
 20
-22.625797
 30
0.0
  0
VERTEX
  5
115
100
AcDbEntity
  8
0
370
     0
390
0
100
AcDbVertex
100
AcDb2dVertex
 10
195.28862
 20
-23.004038
 30
0.0
  0
VERTEX
  5
116
100
AcDbEntity
  8
0
370
     0
390
0
100
AcDbVertex
100
AcDb2dVertex
 10
195.48027
 20
-23.261244
 30
0.0
  0
VERTEX
  5
117
100
AcDbEntity
  8
0
370
     0
390
0
100
AcDbVertex
100
AcDb2dVertex
 10
195.782852
 20
-23.432713
 30
0.0
  0
VERTEX
  5
118
100
AcDbEntity
  8
0
370
     0
390
0
100
AcDbVertex
100
AcDb2dVertex
 10
196.196396
 20
-23.563837
 30
0.0
  0
VERTEX
  5
119
100
AcDbEntity
  8
0
370
     0
390
0
100
AcDbVertex
100
AcDb2dVertex
 10
196.604904
 20
-23.679831
 30
0.0
  0
VERTEX
  5
11A
100
AcDbEntity
  8
0
370
     0
390
0
100
AcDbVertex
100
AcDb2dVertex
 10
196.912537
 20
-23.790781
 30
0.0
  0
VERTEX
  5
11B
100
AcDbEntity
  8
0
370
     0
390
0
100
AcDbVertex
100
AcDb2dVertex
 10
197.099136
 20
-23.952166
 30
0.0
  0
VERTEX
  5
11C
100
AcDbEntity
  8
0
370
     0
390
0
100
AcDbVertex
100
AcDb2dVertex
 10
197.164703
 20
-24.214413
 30
0.0
  0
VERTEX
  5
11D
100
AcDbEntity
  8
0
370
     0
390
0
100
AcDbVertex
100
AcDb2dVertex
 10
197.104187
 20
-24.481705
 30
0.0
  0
VERTEX
  5
11E
100
AcDbEntity
  8
0
370
     0
390
0
100
AcDbVertex
100
AcDb2dVertex
 10
196.947845
 20
-24.683434
 30
0.0
  0
VERTEX
  5
11F
100
AcDbEntity
  8
0
370
     0
390
0
100
AcDbVertex
100
AcDb2dVertex
 10
196.710815
 20
-24.809513
 30
0.0
  0
VERTEX
  5
120
100
AcDbEntity
  8
0
370
     0
390
0
100
AcDbVertex
100
AcDb2dVertex
 10
196.403168
 20
-24.849859
 30
0.0
  0
VERTEX
  5
121
100
AcDbEntity
  8
0
370
     0
390
0
100
AcDbVertex
100
AcDb2dVertex
 10
196.060242
 20
-24.794384
 30
0.0
  0
VERTEX
  5
122
100
AcDbEntity
  8
0
370
     0
390
0
100
AcDbVertex
100
AcDb2dVertex
 10
195.797989
 20
-24.633001
 30
0.0
  0
VERTEX
  5
123
100
AcDbEntity
  8
0
370
     0
390
0
100
AcDbVertex
100
AcDb2dVertex
 10
195.631561
 20
-24.370752
 30
0.0
  0
SEQEND
  5
124
100
AcDbEntity
  8
0
370
     0
390
0
  0
POLYLINE
  5
125
100
AcDbEntity
  8
0
370
    13
390
0
 62
     7
100
AcDb2dPolyline
 66
     1
 10
0.0
 20
0.0
 30
0.0
 70
     1
 71
    34
  0
VERTEX
  5
126
100
AcDbEntity
  8
0
370
     0
390
0
100
AcDbVertex
100
AcDb2dVertex
 10
200.089767
 20
-23.367151
 30
0.0
  0
VERTEX
  5
127
100
AcDbEntity
  8
0
370
     0
390
0
100
AcDbVertex
100
AcDb2dVertex
 10
200.528534
 20
-23.367151
 30
0.0
  0
VERTEX
  5
128
100
AcDbEntity
  8
0
370
     0
390
0
100
AcDbVertex
100
AcDb2dVertex
 10
200.437759
 20
-22.963692
 30
0.0
  0
VERTEX
  5
129
100
AcDbEntity
  8
0
370
     0
390
0
100
AcDbVertex
100
AcDb2dVertex
 10
200.220901
 20
-22.645969
 30
0.0
  0
VERTEX
  5
12A
100
AcDbEntity
  8
0
370
     0
390
0
100
AcDbVertex
100
AcDb2dVertex
 10
199.882996
 20
-22.449284
 30
0.0
  0
VERTEX
  5
12B
100
AcDbEntity
  8
0
370
     0
390
0
100
AcDbVertex
100
AcDb2dVertex
 10
199.444244
 20
-22.373634
 30
0.0
  0
VERTEX
  5
12C
100
AcDbEntity
  8
0
370
     0
390
0
100
AcDbVertex
100
AcDb2dVertex
 10
198.960098
 20
-22.474499
 30
0.0
  0
VERTEX
  5
12D
100
AcDbEntity
  8
0
370
     0
390
0
100
AcDbVertex
100
AcDb2dVertex
 10
198.591934
 20
-22.75692
 30
0.0
  0
VERTEX
  5
12E
100
AcDbEntity
  8
0
370
     0
390
0
100
AcDbVertex
100
AcDb2dVertex
 10
198.359955
 20
-23.215855
 30
0.0
  0
VERTEX
  5
12F
100
AcDbEntity
  8
0
370
     0
390
0
100
AcDbVertex
100
AcDb2dVertex
 10
198.279251
 20
-23.831127
 30
0.0
  0
VERTEX
  5
130
100
AcDbEntity
  8
0
370
     0
390
0
100
AcDbVertex
100
AcDb2dVertex
 10
198.354904
 20
-24.441359
 30
0.0
  0
VERTEX
  5
131
100
AcDbEntity
  8
0
370
     0
390
0
100
AcDbVertex
100
AcDb2dVertex
 10
198.581848
 20
-24.895248
 30
0.0
  0
VERTEX
  5
132
100
AcDbEntity
  8
0
370
     0
390
0
100
AcDbVertex
100
AcDb2dVertex
 10
198.939911
 20
-25.17767
 30
0.0
  0
VERTEX
  5
133
100
AcDbEntity
  8
0
370
     0
390
0
100
AcDbVertex
100
AcDb2dVertex
 10
199.429108
 20
-25.273491
 30
0.0
  0
VERTEX
  5
134
100
AcDbEntity
  8
0
370
     0
390
0
100
AcDbVertex
100
AcDb2dVertex
 10
199.862823
 20
-25.197842
 30
0.0
  0
VERTEX
  5
135
100
AcDbEntity
  8
0
370
     0
390
0
100
AcDbVertex
100
AcDb2dVertex
 10
200.200729
 20
-24.986027
 30
0.0
  0
VERTEX
  5
136
100
AcDbEntity
  8
0
370
     0
390
0
100
AcDbVertex
100
AcDb2dVertex
 10
200.432709
 20
-24.653173
 30
0.0
  0
VERTEX
  5
137
100
AcDbEntity
  8
0
370
     0
390
0
100
AcDbVertex
100
AcDb2dVertex
 10
200.533585
 20
-24.20937
 30
0.0
  0
VERTEX
  5
138
100
AcDbEntity
  8
0
370
     0
390
0
100
AcDbVertex
100
AcDb2dVertex
 10
200.109955
 20
-24.20937
 30
0.0
  0
VERTEX
  5
139
100
AcDbEntity
  8
0
370
     0
390
0
100
AcDbVertex
100
AcDb2dVertex
 10
200.034302
 20
-24.491791
 30
0.0
  0
VERTEX
  5
13A
100
AcDbEntity
  8
0
370
     0
390
0
100
AcDbVertex
100
AcDb2dVertex
 10
199.893082
 20
-24.703606
 30
0.0
  0
VERTEX
  5
13B
100
AcDbEntity
  8
0
370
     0
390
0
100
AcDbVertex
100
AcDb2dVertex
 10
199.69136
 20
-24.83473
 30
0.0
  0
VERTEX
  5
13C
100
AcDbEntity
  8
0
370
     0
390
0
100
AcDbVertex
100
AcDb2dVertex
 10
199.444244
 20
-24.875076
 30
0.0
  0
VERTEX
  5
13D
100
AcDbEntity
  8
0
370
     0
390
0
100
AcDbVertex
100
AcDb2dVertex
 10
199.136597
 20
-24.809513
 30
0.0
  0
VERTEX
  5
13E
100
AcDbEntity
  8
0
370
     0
390
0
100
AcDbVertex
100
AcDb2dVertex
 10
198.914703
 20
-24.607784
 30
0.0
  0
VERTEX
  5
13F
100
AcDbEntity
  8
0
370
     0
390
0
100
AcDbVertex
100
AcDb2dVertex
 10
198.778534
 20
-24.279976
 30
0.0
  0
VERTEX
  5
140
100
AcDbEntity
  8
0
370
     0
390
0
100
AcDbVertex
100
AcDb2dVertex
 10
198.733139
 20
-23.815998
 30
0.0
  0
VERTEX
  5
141
100
AcDbEntity
  8
0
370
     0
390
0
100
AcDbVertex
100
AcDb2dVertex
 10
198.778534
 20
-23.362108
 30
0.0
  0
VERTEX
  5
142
100
AcDbEntity
  8
0
370
     0
390
0
100
AcDbVertex
100
AcDb2dVertex
 10
198.919739
 20
-23.034298
 30
0.0
  0
VERTEX
  5
143
100
AcDbEntity
  8
0
370
     0
390
0
100
AcDbVertex
100
AcDb2dVertex
 10
199.146698
 20
-22.832569
 30
0.0
  0
VERTEX
  5
144
100
AcDbEntity
  8
0
370
     0
390
0
100
AcDbVertex
100
AcDb2dVertex
 10
199.444244
 20
-22.761963
 30
0.0
  0
VERTEX
  5
145
100
AcDbEntity
  8
0
370
     0
390
0
100
AcDbVertex
100
AcDb2dVertex
 10
199.706482
 20
-22.807352
 30
0.0
  0
VERTEX
  5
146
100
AcDbEntity
  8
0
370
     0
390
0
100
AcDbVertex
100
AcDb2dVertex
 10
199.903168
 20
-22.923347
 30
0.0
  0
VERTEX
  5
147
100
AcDbEntity
  8
0
370
     0
390
0
100
AcDbVertex
100
AcDb2dVertex
 10
200.034302
 20
-23.11499
 30
0.0
  0
SEQEND
  5
148
100
AcDbEntity
  8
0
370
     0
390
0
  0
POLYLINE
  5
149
100
AcDbEntity
  8
0
370
    13
390
0
 62
     7
100
AcDb2dPolyline
 66
     1
 10
0.0
 20
0.0
 30
0.0
 70
     1
 71
    42
  0
VERTEX
  5
14A
100
AcDbEntity
  8
0
370
     0
390
0
100
AcDbVertex
100
AcDb2dVertex
 10
203.009796
 20
-24.824644
 30
0.0
  0
VERTEX
  5
14B
100
AcDbEntity
  8
0
370
     0
390
0
100
AcDbVertex
100
AcDb2dVertex
 10
203.009796
 20
-24.839773
 30
0.0
  0
VERTEX
  5
14C
100
AcDbEntity
  8
0
370
     0
390
0
100
AcDbVertex
100
AcDb2dVertex
 10
203.035019
 20
-25.011244
 30
0.0
  0
VERTEX
  5
14D
100
AcDbEntity
  8
0
370
     0
390
0
100
AcDbVertex
100
AcDb2dVertex
 10
203.110672
 20
-25.13228
 30
0.0
  0
VERTEX
  5
14E
100
AcDbEntity
  8
0
370
     0
390
0
100
AcDbVertex
100
AcDb2dVertex
 10
203.428391
 20
-25.228102
 30
0.0
  0
VERTEX
  5
14F
100
AcDbEntity
  8
0
370
     0
390
0
100
AcDbVertex
100
AcDb2dVertex
 10
203.675507
 20
-25.187756
 30
0.0
  0
VERTEX
  5
150
100
AcDbEntity
  8
0
370
     0
390
0
100
AcDbVertex
100
AcDb2dVertex
 10
203.675507
 20
-24.844816
 30
0.0
  0
VERTEX
  5
151
100
AcDbEntity
  8
0
370
     0
390
0
100
AcDbVertex
100
AcDb2dVertex
 10
203.569595
 20
-24.859945
 30
0.0
  0
VERTEX
  5
152
100
AcDbEntity
  8
0
370
     0
390
0
100
AcDbVertex
100
AcDb2dVertex
 10
203.428391
 20
-24.794384
 30
0.0
  0
VERTEX
  5
153
100
AcDbEntity
  8
0
370
     0
390
0
100
AcDbVertex
100
AcDb2dVertex
 10
203.403168
 20
-24.592655
 30
0.0
  0
VERTEX
  5
154
100
AcDbEntity
  8
0
370
     0
390
0
100
AcDbVertex
100
AcDb2dVertex
 10
203.403168
 20
-23.190638
 30
0.0
  0
VERTEX
  5
155
100
AcDbEntity
  8
0
370
     0
390
0
100
AcDbVertex
100
AcDb2dVertex
 10
203.342651
 20
-22.832569
 30
0.0
  0
VERTEX
  5
156
100
AcDbEntity
  8
0
370
     0
390
0
100
AcDbVertex
100
AcDb2dVertex
 10
203.166138
 20
-22.580408
 30
0.0
  0
VERTEX
  5
157
100
AcDbEntity
  8
0
370
     0
390
0
100
AcDbVertex
100
AcDb2dVertex
 10
202.858505
 20
-22.429111
 30
0.0
  0
VERTEX
  5
158
100
AcDbEntity
  8
0
370
     0
390
0
100
AcDbVertex
100
AcDb2dVertex
 10
202.424789
 20
-22.373634
 30
0.0
  0
VERTEX
  5
159
100
AcDbEntity
  8
0
370
     0
390
0
100
AcDbVertex
100
AcDb2dVertex
 10
202.00116
 20
-22.434155
 30
0.0
  0
VERTEX
  5
15A
100
AcDbEntity
  8
0
370
     0
390
0
100
AcDbVertex
100
AcDb2dVertex
 10
201.688477
 20
-22.605623
 30
0.0
  0
VERTEX
  5
15B
100
AcDbEntity
  8
0
370
     0
390
0
100
AcDbVertex
100
AcDb2dVertex
 10
201.491791
 20
-22.872915
 30
0.0
  0
VERTEX
  5
15C
100
AcDbEntity
  8
0
370
     0
390
0
100
AcDbVertex
100
AcDb2dVertex
 10
201.426224
 20
-23.225941
 30
0.0
  0
VERTEX
  5
15D
100
AcDbEntity
  8
0
370
     0
390
0
100
AcDbVertex
100
AcDb2dVertex
 10
201.426224
 20
-23.256199
 30
0.0
  0
VERTEX
  5
15E
100
AcDbEntity
  8
0
370
     0
390
0
100
AcDbVertex
100
AcDb2dVertex
 10
201.824646
 20
-23.256199
 30
0.0
  0
VERTEX
  5
15F
100
AcDbEntity
  8
0
370
     0
390
0
100
AcDbVertex
100
AcDb2dVertex
 10
201.859955
 20
-23.044384
 30
0.0
  0
VERTEX
  5
160
100
AcDbEntity
  8
0
370
     0
390
0
100
AcDbVertex
100
AcDb2dVertex
 10
201.970901
 20
-22.893087
 30
0.0
  0
VERTEX
  5
161
100
AcDbEntity
  8
0
370
     0
390
0
100
AcDbVertex
100
AcDb2dVertex
 10
202.152451
 20
-22.802309
 30
0.0
  0
VERTEX
  5
162
100
AcDbEntity
  8
0
370
     0
390
0
100
AcDbVertex
100
AcDb2dVertex
 10
202.409653
 20
-22.767006
 30
0.0
  0
VERTEX
  5
163
100
AcDbEntity
  8
0
370
     0
390
0
100
AcDbVertex
100
AcDb2dVertex
 10
202.656784
 20
-22.792223
 30
0.0
  0
VERTEX
  5
164
100
AcDbEntity
  8
0
370
     0
390
0
100
AcDbVertex
100
AcDb2dVertex
 10
202.833298
 20
-22.86787
 30
0.0
  0
VERTEX
  5
165
100
AcDbEntity
  8
0
370
     0
390
0
100
AcDbVertex
100
AcDb2dVertex
 10
202.939194
 20
-22.998995
 30
0.0
  0
VERTEX
  5
166
100
AcDbEntity
  8
0
370
     0
390
0
100
AcDbVertex
100
AcDb2dVertex
 10
202.974503
 20
-23.180552
 30
0.0
  0
VERTEX
  5
167
100
AcDbEntity
  8
0
370
     0
390
0
100
AcDbVertex
100
AcDb2dVertex
 10
202.95433
 20
-23.392366
 30
0.0
  0
VERTEX
  5
168
100
AcDbEntity
  8
0
370
     0
390
0
100
AcDbVertex
100
AcDb2dVertex
 10
202.873642
 20
-23.498274
 30
0.0
  0
VERTEX
  5
169
100
AcDbEntity
  8
0
370
     0
390
0
100
AcDbVertex
100
AcDb2dVertex
 10
202.671906
 20
-23.548706
 30
0.0
  0
VERTEX
  5
16A
100
AcDbEntity
  8
0
370
     0
390
0
100
AcDbVertex
100
AcDb2dVertex
 10
202.293671
 20
-23.589052
 30
0.0
  0
VERTEX
  5
16B
100
AcDbEntity
  8
0
370
     0
390
0
100
AcDbVertex
100
AcDb2dVertex
 10
201.859955
 20
-23.679831
 30
0.0
  0
VERTEX
  5
16C
100
AcDbEntity
  8
0
370
     0
390
0
100
AcDbVertex
100
AcDb2dVertex
 10
201.552307
 20
-23.841213
 30
0.0
  0
VERTEX
  5
16D
100
AcDbEntity
  8
0
370
     0
390
0
100
AcDbVertex
100
AcDb2dVertex
 10
201.370758
 20
-24.093376
 30
0.0
  0
VERTEX
  5
16E
100
AcDbEntity
  8
0
370
     0
390
0
100
AcDbVertex
100
AcDb2dVertex
 10
201.315277
 20
-24.466574
 30
0.0
  0
VERTEX
  5
16F
100
AcDbEntity
  8
0
370
     0
390
0
100
AcDbVertex
100
AcDb2dVertex
 10
201.365707
 20
-24.799427
 30
0.0
  0
VERTEX
  5
170
100
AcDbEntity
  8
0
370
     0
390
0
100
AcDbVertex
100
AcDb2dVertex
 10
201.522049
 20
-25.046545
 30
0.0
  0
VERTEX
  5
171
100
AcDbEntity
  8
0
370
     0
390
0
100
AcDbVertex
100
AcDb2dVertex
 10
201.774216
 20
-25.202887
 30
0.0
  0
VERTEX
  5
172
100
AcDbEntity
  8
0
370
     0
390
0
100
AcDbVertex
100
AcDb2dVertex
 10
202.122192
 20
-25.258362
 30
0.0
  0
VERTEX
  5
173
100
AcDbEntity
  8
0
370
     0
390
0
100
AcDbVertex
100
AcDb2dVertex
 10
202.591217
 20
-25.152452
 30
0.0
  0
SEQEND
  5
174
100
AcDbEntity
  8
0
370
     0
390
0
  0
POLYLINE
  5
175
100
AcDbEntity
  8
0
370
    13
390
0
 62
     7
100
AcDb2dPolyline
 66
     1
 10
0.0
 20
0.0
 30
0.0
 70
     1
 71
    14
  0
VERTEX
  5
176
100
AcDbEntity
  8
0
370
     0
390
0
100
AcDbVertex
100
AcDb2dVertex
 10
202.959366
 20
-24.229542
 30
0.0
  0
VERTEX
  5
177
100
AcDbEntity
  8
0
370
     0
390
0
100
AcDbVertex
100
AcDb2dVertex
 10
202.898849
 20
-24.491791
 30
0.0
  0
VERTEX
  5
178
100
AcDbEntity
  8
0
370
     0
390
0
100
AcDbVertex
100
AcDb2dVertex
 10
202.737473
 20
-24.69352
 30
0.0
  0
VERTEX
  5
179
100
AcDbEntity
  8
0
370
     0
390
0
100
AcDbVertex
100
AcDb2dVertex
 10
202.495392
 20
-24.824644
 30
0.0
  0
VERTEX
  5
17A
100
AcDbEntity
  8
0
370
     0
390
0
100
AcDbVertex
100
AcDb2dVertex
 10
202.197845
 20
-24.870033
 30
0.0
  0
VERTEX
  5
17B
100
AcDbEntity
  8
0
370
     0
390
0
100
AcDbVertex
100
AcDb2dVertex
 10
202.006195
 20
-24.844816
 30
0.0
  0
VERTEX
  5
17C
100
AcDbEntity
  8
0
370
     0
390
0
100
AcDbVertex
100
AcDb2dVertex
 10
201.870041
 20
-24.764124
 30
0.0
  0
VERTEX
  5
17D
100
AcDbEntity
  8
0
370
     0
390
0
100
AcDbVertex
100
AcDb2dVertex
 10
201.784302
 20
-24.622915
 30
0.0
  0
VERTEX
  5
17E
100
AcDbEntity
  8
0
370
     0
390
0
100
AcDbVertex
100
AcDb2dVertex
 10
201.759079
 20
-24.426229
 30
0.0
  0
VERTEX
  5
17F
100
AcDbEntity
  8
0
370
     0
390
0
100
AcDbVertex
100
AcDb2dVertex
 10
201.779251
 20
-24.249716
 30
0.0
  0
VERTEX
  5
180
100
AcDbEntity
  8
0
370
     0
390
0
100
AcDbVertex
100
AcDb2dVertex
 10
201.859955
 20
-24.123634
 30
0.0
  0
VERTEX
  5
181
100
AcDbEntity
  8
0
370
     0
390
0
100
AcDbVertex
100
AcDb2dVertex
 10
202.182709
 20
-23.982424
 30
0.0
  0
VERTEX
  5
182
100
AcDbEntity
  8
0
370
     0
390
0
100
AcDbVertex
100
AcDb2dVertex
 10
202.591217
 20
-23.921906
 30
0.0
  0
VERTEX
  5
183
100
AcDbEntity
  8
0
370
     0
390
0
100
AcDbVertex
100
AcDb2dVertex
 10
202.959366
 20
-23.800869
 30
0.0
  0
SEQEND
  5
184
100
AcDbEntity
  8
0
370
     0
390
0
  0
POLYLINE
  5
185
100
AcDbEntity
  8
0
370
    13
390
0
 62
     7
100
AcDb2dPolyline
 66
     1
 10
0.0
 20
0.0
 30
0.0
 70
     1
 71
    10
  0
VERTEX
  5
186
100
AcDbEntity
  8
0
370
     0
390
0
100
AcDbVertex
100
AcDb2dVertex
 10
205.319595
 20
-21.929831
 30
0.0
  0
VERTEX
  5
187
100
AcDbEntity
  8
0
370
     0
390
0
100
AcDbVertex
100
AcDb2dVertex
 10
205.319595
 20
-24.80447
 30
0.0
  0
VERTEX
  5
188
100
AcDbEntity
  8
0
370
     0
390
0
100
AcDbVertex
100
AcDb2dVertex
 10
204.406784
 20
-24.80447
 30
0.0
  0
VERTEX
  5
189
100
AcDbEntity
  8
0
370
     0
390
0
100
AcDbVertex
100
AcDb2dVertex
 10
204.406784
 20
-25.17767
 30
0.0
  0
VERTEX
  5
18A
100
AcDbEntity
  8
0
370
     0
390
0
100
AcDbVertex
100
AcDb2dVertex
 10
206.671188
 20
-25.17767
 30
0.0
  0
VERTEX
  5
18B
100
AcDbEntity
  8
0
370
     0
390
0
100
AcDbVertex
100
AcDb2dVertex
 10
206.671188
 20
-24.80447
 30
0.0
  0
VERTEX
  5
18C
100
AcDbEntity
  8
0
370
     0
390
0
100
AcDbVertex
100
AcDb2dVertex
 10
205.763412
 20
-24.80447
 30
0.0
  0
VERTEX
  5
18D
100
AcDbEntity
  8
0
370
     0
390
0
100
AcDbVertex
100
AcDb2dVertex
 10
205.763412
 20
-21.556633
 30
0.0
  0
VERTEX
  5
18E
100
AcDbEntity
  8
0
370
     0
390
0
100
AcDbVertex
100
AcDb2dVertex
 10
204.623642
 20
-21.556633
 30
0.0
  0
VERTEX
  5
18F
100
AcDbEntity
  8
0
370
     0
390
0
100
AcDbVertex
100
AcDb2dVertex
 10
204.623642
 20
-21.929831
 30
0.0
  0
SEQEND
  5
190
100
AcDbEntity
  8
0
370
     0
390
0
  0
POLYLINE
  5
191
100
AcDbEntity
  8
0
370
    13
390
0
 62
     7
100
AcDb2dPolyline
 66
     1
 10
0.0
 20
0.0
 30
0.0
 70
     1
 71
    27
  0
VERTEX
  5
192
100
AcDbEntity
  8
0
370
     0
390
0
100
AcDbVertex
100
AcDb2dVertex
 10
207.861389
 20
-23.952166
 30
0.0
  0
VERTEX
  5
193
100
AcDbEntity
  8
0
370
     0
390
0
100
AcDbVertex
100
AcDb2dVertex
 10
209.636597
 20
-23.952166
 30
0.0
  0
VERTEX
  5
194
100
AcDbEntity
  8
0
370
     0
390
0
100
AcDbVertex
100
AcDb2dVertex
 10
209.641647
 20
-23.745394
 30
0.0
  0
VERTEX
  5
195
100
AcDbEntity
  8
0
370
     0
390
0
100
AcDbVertex
100
AcDb2dVertex
 10
209.560959
 20
-23.165422
 30
0.0
  0
VERTEX
  5
196
100
AcDbEntity
  8
0
370
     0
390
0
100
AcDbVertex
100
AcDb2dVertex
 10
209.33905
 20
-22.731705
 30
0.0
  0
VERTEX
  5
197
100
AcDbEntity
  8
0
370
     0
390
0
100
AcDbVertex
100
AcDb2dVertex
 10
208.986023
 20
-22.469456
 30
0.0
  0
VERTEX
  5
198
100
AcDbEntity
  8
0
370
     0
390
0
100
AcDbVertex
100
AcDb2dVertex
 10
208.517014
 20
-22.373634
 30
0.0
  0
VERTEX
  5
199
100
AcDbEntity
  8
0
370
     0
390
0
100
AcDbVertex
100
AcDb2dVertex
 10
208.058075
 20
-22.474499
 30
0.0
  0
VERTEX
  5
19A
100
AcDbEntity
  8
0
370
     0
390
0
100
AcDbVertex
100
AcDb2dVertex
 10
207.705048
 20
-22.75692
 30
0.0
  0
VERTEX
  5
19B
100
AcDbEntity
  8
0
370
     0
390
0
100
AcDbVertex
100
AcDb2dVertex
 10
207.478104
 20
-23.215855
 30
0.0
  0
VERTEX
  5
19C
100
AcDbEntity
  8
0
370
     0
390
0
100
AcDbVertex
100
AcDb2dVertex
 10
207.397415
 20
-23.821041
 30
0.0
  0
VERTEX
  5
19D
100
AcDbEntity
  8
0
370
     0
390
0
100
AcDbVertex
100
AcDb2dVertex
 10
207.473053
 20
-24.441359
 30
0.0
  0
VERTEX
  5
19E
100
AcDbEntity
  8
0
370
     0
390
0
100
AcDbVertex
100
AcDb2dVertex
 10
207.700012
 20
-24.895248
 30
0.0
  0
VERTEX
  5
19F
100
AcDbEntity
  8
0
370
     0
390
0
100
AcDbVertex
100
AcDb2dVertex
 10
208.047989
 20
-25.17767
 30
0.0
  0
VERTEX
  5
1A0
100
AcDbEntity
  8
0
370
     0
390
0
100
AcDbVertex
100
AcDb2dVertex
 10
208.501877
 20
-25.273491
 30
0.0
  0
VERTEX
  5
1A1
100
AcDbEntity
  8
0
370
     0
390
0
100
AcDbVertex
100
AcDb2dVertex
 10
208.895248
 20
-25.20793
 30
0.0
  0
VERTEX
  5
1A2
100
AcDbEntity
  8
0
370
     0
390
0
100
AcDbVertex
100
AcDb2dVertex
 10
209.218018
 20
-25.036459
 30
0.0
  0
VERTEX
  5
1A3
100
AcDbEntity
  8
0
370
     0
390
0
100
AcDbVertex
100
AcDb2dVertex
 10
209.455048
 20
-24.764124
 30
0.0
  0
VERTEX
  5
1A4
100
AcDbEntity
  8
0
370
     0
390
0
100
AcDbVertex
100
AcDb2dVertex
 10
209.591217
 20
-24.401012
 30
0.0
  0
VERTEX
  5
1A5
100
AcDbEntity
  8
0
370
     0
390
0
100
AcDbVertex
100
AcDb2dVertex
 10
209.152451
 20
-24.401012
 30
0.0
  0
VERTEX
  5
1A6
100
AcDbEntity
  8
0
370
     0
390
0
100
AcDbVertex
100
AcDb2dVertex
 10
209.061676
 20
-24.602741
 30
0.0
  0
VERTEX
  5
1A7
100
AcDbEntity
  8
0
370
     0
390
0
100
AcDbVertex
100
AcDb2dVertex
 10
208.930557
 20
-24.754038
 30
0.0
  0
VERTEX
  5
1A8
100
AcDbEntity
  8
0
370
     0
390
0
100
AcDbVertex
100
AcDb2dVertex
 10
208.557358
 20
-24.875076
 30
0.0
  0
VERTEX
  5
1A9
100
AcDbEntity
  8
0
370
     0
390
0
100
AcDbVertex
100
AcDb2dVertex
 10
208.269897
 20
-24.819601
 30
0.0
  0
VERTEX
  5
1AA
100
AcDbEntity
  8
0
370
     0
390
0
100
AcDbVertex
100
AcDb2dVertex
 10
208.053024
 20
-24.643087
 30
0.0
  0
VERTEX
  5
1AB
100
AcDbEntity
  8
0
370
     0
390
0
100
AcDbVertex
100
AcDb2dVertex
 10
207.911819
 20
-24.355623
 30
0.0
  0
VERTEX
  5
1AC
100
AcDbEntity
  8
0
370
     0
390
0
100
AcDbVertex
100
AcDb2dVertex
 10
207.861389
 20
-23.967295
 30
0.0
  0
SEQEND
  5
1AD
100
AcDbEntity
  8
0
370
     0
390
0
  0
POLYLINE
  5
1AE
100
AcDbEntity
  8
0
370
    13
390
0
 62
     7
100
AcDb2dPolyline
 66
     1
 10
0.0
 20
0.0
 30
0.0
 70
     1
 71
     9
  0
VERTEX
  5
1AF
100
AcDbEntity
  8
0
370
     0
390
0
100
AcDbVertex
100
AcDb2dVertex
 10
207.861389
 20
-23.578966
 30
0.0
  0
VERTEX
  5
1B0
100
AcDbEntity
  8
0
370
     0
390
0
100
AcDbVertex
100
AcDb2dVertex
 10
207.91687
 20
-23.230984
 30
0.0
  0
VERTEX
  5
1B1
100
AcDbEntity
  8
0
370
     0
390
0
100
AcDbVertex
100
AcDb2dVertex
 10
208.053024
 20
-22.97378
 30
0.0
  0
VERTEX
  5
1B2
100
AcDbEntity
  8
0
370
     0
390
0
100
AcDbVertex
100
AcDb2dVertex
 10
208.259796
 20
-22.81744
 30
0.0
  0
VERTEX
  5
1B3
100
AcDbEntity
  8
0
370
     0
390
0
100
AcDbVertex
100
AcDb2dVertex
 10
208.532135
 20
-22.761963
 30
0.0
  0
VERTEX
  5
1B4
100
AcDbEntity
  8
0
370
     0
390
0
100
AcDbVertex
100
AcDb2dVertex
 10
208.799423
 20
-22.81744
 30
0.0
  0
VERTEX
  5
1B5
100
AcDbEntity
  8
0
370
     0
390
0
100
AcDbVertex
100
AcDb2dVertex
 10
209.006195
 20
-22.97378
 30
0.0
  0
VERTEX
  5
1B6
100
AcDbEntity
  8
0
370
     0
390
0
100
AcDbVertex
100
AcDb2dVertex
 10
209.132278
 20
-23.230984
 30
0.0
  0
VERTEX
  5
1B7
100
AcDbEntity
  8
0
370
     0
390
0
100
AcDbVertex
100
AcDb2dVertex
 10
209.177673
 20
-23.578966
 30
0.0
  0
SEQEND
  5
1B8
100
AcDbEntity
  8
0
370
     0
390
0
  0
POLYLINE
  5
1B9
100
AcDbEntity
  8
0
370
    13
390
0
 62
     7
100
AcDb2dPolyline
 66
     1
 10
0.0
 20
0.0
 30
0.0
 70
     1
 71
     4
  0
VERTEX
  5
1BA
100
AcDbEntity
  8
0
370
     0
390
0
100
AcDbVertex
100
AcDb2dVertex
 10
211.205048
 20
-25.17767
 30
0.0
  0
VERTEX
  5
1BB
100
AcDbEntity
  8
0
370
     0
390
0
100
AcDbVertex
100
AcDb2dVertex
 10
211.901016
 20
-25.17767
 30
0.0
  0
VERTEX
  5
1BC
100
AcDbEntity
  8
0
370
     0
390
0
100
AcDbVertex
100
AcDb2dVertex
 10
211.901016
 20
-24.426229
 30
0.0
  0
VERTEX
  5
1BD
100
AcDbEntity
  8
0
370
     0
390
0
100
AcDbVertex
100
AcDb2dVertex
 10
211.205048
 20
-24.426229
 30
0.0
  0
SEQEND
  5
1BE
100
AcDbEntity
  8
0
370
     0
390
0
  0
POLYLINE
  5
1BF
100
AcDbEntity
  8
0
370
    13
390
0
 62
     7
100
AcDb2dPolyline
 66
     1
 10
0.0
 20
0.0
 30
0.0
 70
     1
 71
     4
  0
VERTEX
  5
1C0
100
AcDbEntity
  8
0
370
     0
390
0
100
AcDbVertex
100
AcDb2dVertex
 10
211.205048
 20
-23.220898
 30
0.0
  0
VERTEX
  5
1C1
100
AcDbEntity
  8
0
370
     0
390
0
100
AcDbVertex
100
AcDb2dVertex
 10
211.901016
 20
-23.220898
 30
0.0
  0
VERTEX
  5
1C2
100
AcDbEntity
  8
0
370
     0
390
0
100
AcDbVertex
100
AcDb2dVertex
 10
211.901016
 20
-22.469456
 30
0.0
  0
VERTEX
  5
1C3
100
AcDbEntity
  8
0
370
     0
390
0
100
AcDbVertex
100
AcDb2dVertex
 10
211.205048
 20
-22.469456
 30
0.0
  0
SEQEND
  5
1C4
100
AcDbEntity
  8
0
370
     0
390
0
  0
POLYLINE
  5
1C5
100
AcDbEntity
  8
0
370
    13
390
0
 62
     7
100
AcDb2dPolyline
 66
     1
 10
0.0
 20
0.0
 30
0.0
 70
     1
 71
    10
  0
VERTEX
  5
1C6
100
AcDbEntity
  8
0
370
     0
390
0
100
AcDbVertex
100
AcDb2dVertex
 10
220.570328
 20
-25.17767
 30
0.0
  0
VERTEX
  5
1C7
100
AcDbEntity
  8
0
370
     0
390
0
100
AcDbVertex
100
AcDb2dVertex
 10
221.029251
 20
-25.17767
 30
0.0
  0
VERTEX
  5
1C8
100
AcDbEntity
  8
0
370
     0
390
0
100
AcDbVertex
100
AcDb2dVertex
 10
221.029251
 20
-21.652454
 30
0.0
  0
VERTEX
  5
1C9
100
AcDbEntity
  8
0
370
     0
390
0
100
AcDbVertex
100
AcDb2dVertex
 10
220.68631
 20
-21.652454
 30
0.0
  0
VERTEX
  5
1CA
100
AcDbEntity
  8
0
370
     0
390
0
100
AcDbVertex
100
AcDb2dVertex
 10
220.595535
 20
-21.960091
 30
0.0
  0
VERTEX
  5
1CB
100
AcDbEntity
  8
0
370
     0
390
0
100
AcDbVertex
100
AcDb2dVertex
 10
220.413986
 20
-22.166862
 30
0.0
  0
VERTEX
  5
1CC
100
AcDbEntity
  8
0
370
     0
390
0
100
AcDbVertex
100
AcDb2dVertex
 10
220.136597
 20
-22.287899
 30
0.0
  0
VERTEX
  5
1CD
100
AcDbEntity
  8
0
370
     0
390
0
100
AcDbVertex
100
AcDb2dVertex
 10
219.753326
 20
-22.328245
 30
0.0
  0
VERTEX
  5
1CE
100
AcDbEntity
  8
0
370
     0
390
0
100
AcDbVertex
100
AcDb2dVertex
 10
219.753326
 20
-22.686316
 30
0.0
  0
VERTEX
  5
1CF
100
AcDbEntity
  8
0
370
     0
390
0
100
AcDbVertex
100
AcDb2dVertex
 10
220.570328
 20
-22.686316
 30
0.0
  0
SEQEND
  5
1D0
100
AcDbEntity
  8
0
370
     0
390
0
  0
POLYLINE
  5
1D1
100
AcDbEntity
  8
0
370
    13
390
0
 62
     7
100
AcDb2dPolyline
 66
     1
 10
0.0
 20
0.0
 30
0.0
 70
     1
 71
     4
  0
VERTEX
  5
1D2
100
AcDbEntity
  8
0
370
     0
390
0
100
AcDbVertex
100
AcDb2dVertex
 10
223.349136
 20
-25.17767
 30
0.0
  0
VERTEX
  5
1D3
100
AcDbEntity
  8
0
370
     0
390
0
100
AcDbVertex
100
AcDb2dVertex
 10
224.045105
 20
-25.17767
 30
0.0
  0
VERTEX
  5
1D4
100
AcDbEntity
  8
0
370
     0
390
0
100
AcDbVertex
100
AcDb2dVertex
 10
224.045105
 20
-24.426229
 30
0.0
  0
VERTEX
  5
1D5
100
AcDbEntity
  8
0
370
     0
390
0
100
AcDbVertex
100
AcDb2dVertex
 10
223.349136
 20
-24.426229
 30
0.0
  0
SEQEND
  5
1D6
100
AcDbEntity
  8
0
370
     0
390
0
  0
POLYLINE
  5
1D7
100
AcDbEntity
  8
0
370
    13
390
0
 62
     7
100
AcDb2dPolyline
 66
     1
 10
0.0
 20
0.0
 30
0.0
 70
     1
 71
     4
  0
VERTEX
  5
1D8
100
AcDbEntity
  8
0
370
     0
390
0
100
AcDbVertex
100
AcDb2dVertex
 10
223.349136
 20
-23.220898
 30
0.0
  0
VERTEX
  5
1D9
100
AcDbEntity
  8
0
370
     0
390
0
100
AcDbVertex
100
AcDb2dVertex
 10
224.045105
 20
-23.220898
 30
0.0
  0
VERTEX
  5
1DA
100
AcDbEntity
  8
0
370
     0
390
0
100
AcDbVertex
100
AcDb2dVertex
 10
224.045105
 20
-22.469456
 30
0.0
  0
VERTEX
  5
1DB
100
AcDbEntity
  8
0
370
     0
390
0
100
AcDbVertex
100
AcDb2dVertex
 10
223.349136
 20
-22.469456
 30
0.0
  0
SEQEND
  5
1DC
100
AcDbEntity
  8
0
370
     0
390
0
  0
POLYLINE
  5
1DD
100
AcDbEntity
  8
0
370
    13
390
0
 62
     7
100
AcDb2dPolyline
 66
     1
 10
0.0
 20
0.0
 30
0.0
 70
     1
 71
    10
  0
VERTEX
  5
1DE
100
AcDbEntity
  8
0
370
     0
390
0
100
AcDbVertex
100
AcDb2dVertex
 10
226.642365
 20
-25.17767
 30
0.0
  0
VERTEX
  5
1DF
100
AcDbEntity
  8
0
370
     0
390
0
100
AcDbVertex
100
AcDb2dVertex
 10
227.101303
 20
-25.17767
 30
0.0
  0
VERTEX
  5
1E0
100
AcDbEntity
  8
0
370
     0
390
0
100
AcDbVertex
100
AcDb2dVertex
 10
227.101303
 20
-21.652454
 30
0.0
  0
VERTEX
  5
1E1
100
AcDbEntity
  8
0
370
     0
390
0
100
AcDbVertex
100
AcDb2dVertex
 10
226.758362
 20
-21.652454
 30
0.0
  0
VERTEX
  5
1E2
100
AcDbEntity
  8
0
370
     0
390
0
100
AcDbVertex
100
AcDb2dVertex
 10
226.667587
 20
-21.960091
 30
0.0
  0
VERTEX
  5
1E3
100
AcDbEntity
  8
0
370
     0
390
0
100
AcDbVertex
100
AcDb2dVertex
 10
226.486023
 20
-22.166862
 30
0.0
  0
VERTEX
  5
1E4
100
AcDbEntity
  8
0
370
     0
390
0
100
AcDbVertex
100
AcDb2dVertex
 10
226.208649
 20
-22.287899
 30
0.0
  0
VERTEX
  5
1E5
100
AcDbEntity
  8
0
370
     0
390
0
100
AcDbVertex
100
AcDb2dVertex
 10
225.825363
 20
-22.328245
 30
0.0
  0
VERTEX
  5
1E6
100
AcDbEntity
  8
0
370
     0
390
0
100
AcDbVertex
100
AcDb2dVertex
 10
225.825363
 20
-22.686316
 30
0.0
  0
VERTEX
  5
1E7
100
AcDbEntity
  8
0
370
     0
390
0
100
AcDbVertex
100
AcDb2dVertex
 10
226.642365
 20
-22.686316
 30
0.0
  0
SEQEND
  5
1E8
100
AcDbEntity
  8
0
370
     0
390
0
  0
LINE
  5
1E9
100
AcDbEntity
  8
0
370
    35
390
0
 62
     7
 48
0.044031
100
AcDbLine
 10
230.088455
 20
151.430664
 30
0.0
 11
228.564224
 21
152.313095
 31
0.0
210
0.0
220
0.0
230
1.0
  0
LINE
  5
1EA
100
AcDbEntity
  8
0
370
    13
390
0
 62
     7
 48
0.007102
100
AcDbLine
 10
228.564224
 20
152.313095
 30
0.0
 11
228.593307
 21
152.595688
 31
0.0
210
0.0
220
0.0
230
1.0
  0
LINE
  5
1EB
100
AcDbEntity
  8
0
370
    35
390
0
 62
     7
 48
0.04364
100
AcDbLine
 10
230.105057
 20
151.722885
 30
0.0
 11
228.593307
 21
152.595688
 31
0.0
210
0.0
220
0.0
230
1.0
  0
LINE
  5
1EC
100
AcDbEntity
  8
0
370
    13
390
0
 62
     7
 48
0.007317
100
AcDbLine
 10
230.088455
 20
151.430664
 30
0.0
 11
230.105057
 21
151.722885
 31
0.0
210
0.0
220
0.0
230
1.0
  0
LINE
  5
1ED
100
AcDbEntity
  8
0
370
    35
390
0
 62
     7
 48
0.006131
100
AcDbLine
 10
230.30098
 20
151.308304
 30
0.0
 11
230.088455
 21
151.430664
 31
0.0
210
0.0
220
0.0
230
1.0
  0
LINE
  5
1EE
100
AcDbEntity
  8
0
370
    35
390
0
 62
     7
 48
0.006076
100
AcDbLine
 10
230.315536
 20
151.601364
 30
0.0
 11
230.105057
 21
151.722885
 31
0.0
210
0.0
220
0.0
230
1.0
  0
LINE
  5
1EF
100
AcDbEntity
  8
0
370
    13
390
0
 62
     7
 48
0.007336
100
AcDbLine
 10
230.30098
 20
151.308304
 30
0.0
 11
230.315536
 21
151.601364
 31
0.0
210
0.0
220
0.0
230
1.0
  0
POLYLINE
  5
1F0
100
AcDbEntity
  8
0
370
    35
390
0
 62
     7
100
AcDb2dPolyline
 66
     1
 10
0.0
 20
0.0
 30
0.0
 71
     8
  0
VERTEX
  5
1F1
100
AcDbEntity
  8
0
370
     0
390
0
100
AcDbVertex
100
AcDb2dVertex
 10
269.746582
 20
153.454559
 30
0.0
  0
VERTEX
  5
1F2
100
AcDbEntity
  8
0
370
     0
390
0
100
AcDbVertex
100
AcDb2dVertex
 10
268.587372
 20
153.485779
 30
0.0
  0
VERTEX
  5
1F3
100
AcDbEntity
  8
0
370
     0
390
0
100
AcDbVertex
100
AcDb2dVertex
 10
266.270691
 20
153.5961
 30
0.0
  0
VERTEX
  5
1F4
100
AcDbEntity
  8
0
370
     0
390
0
100
AcDbVertex
100
AcDb2dVertex
 10
261.063171
 20
153.933426
 30
0.0
  0
VERTEX
  5
1F5
100
AcDbEntity
  8
0
370
     0
390
0
100
AcDbVertex
100
AcDb2dVertex
 10
253.20369
 20
154.494202
 30
0.0
  0
VERTEX
  5
1F6
100
AcDbEntity
  8
0
370
     0
390
0
100
AcDbVertex
100
AcDb2dVertex
 10
245.340958
 20
155.006668
 30
0.0
  0
VERTEX
  5
1F7
100
AcDbEntity
  8
0
370
     0
390
0
100
AcDbVertex
100
AcDb2dVertex
 10
240.05751
 20
155.286118
 30
0.0
  0
VERTEX
  5
1F8
100
AcDbEntity
  8
0
370
     0
390
0
100
AcDbVertex
100
AcDb2dVertex
 10
234.770798
 20
155.496414
 30
0.0
  0
SEQEND
  5
1F9
100
AcDbEntity
  8
0
370
     0
390
0
  0
LINE
  5
1FA
100
AcDbEntity
  8
0
370
    35
390
0
 62
     7
 48
0.002685
100
AcDbLine
 10
269.853973
 20
153.452866
 30
0.0
 11
269.746582
 21
153.454559
 31
0.0
210
0.0
220
0.0
230
1.0
  0
LINE
  5
1FB
100
AcDbEntity
  8
0
370
    35
390
0
 62
     7
 48
0.111211
100
AcDbLine
 10
167.953461
 20
146.374207
 30
0.0
 11
167.953461
 21
141.925766
 31
0.0
210
0.0
220
0.0
230
1.0
  0
POLYLINE
  5
1FC
100
AcDbEntity
  8
0
370
    35
390
0
 62
     7
100
AcDb2dPolyline
 66
     1
 10
0.0
 20
0.0
 30
0.0
 71
    13
  0
VERTEX
  5
1FD
100
AcDbEntity
  8
0
370
     0
390
0
100
AcDbVertex
100
AcDb2dVertex
 10
190.529892
 20
154.520584
 30
0.0
  0
VERTEX
  5
1FE
100
AcDbEntity
  8
0
370
     0
390
0
100
AcDbVertex
100
AcDb2dVertex
 10
186.288864
 20
154.110931
 30
0.0
  0
VERTEX
  5
1FF
100
AcDbEntity
  8
0
370
     0
390
0
100
AcDbVertex
100
AcDb2dVertex
 10
182.061737
 20
153.620087
 30
0.0
  0
VERTEX
  5
200
100
AcDbEntity
  8
0
370
     0
390
0
100
AcDbVertex
100
AcDb2dVertex
 10
177.840546
 20
153.040756
 30
0.0
  0
VERTEX
  5
201
100
AcDbEntity
  8
0
370
     0
390
0
100
AcDbVertex
100
AcDb2dVertex
 10
173.636246
 20
152.359436
 30
0.0
  0
VERTEX
  5
202
100
AcDbEntity
  8
0
370
     0
390
0
100
AcDbVertex
100
AcDb2dVertex
 10
169.454651
 20
151.551483
 30
0.0
  0
VERTEX
  5
203
100
AcDbEntity
  8
0
370
     0
390
0
100
AcDbVertex
100
AcDb2dVertex
 10
167.375259
 20
151.091278
 30
0.0
  0
VERTEX
  5
204
100
AcDbEntity
  8
0
370
     0
390
0
100
AcDbVertex
100
AcDb2dVertex
 10
165.305832
 20
150.58757
 30
0.0
  0
VERTEX
  5
205
100
AcDbEntity
  8
0
370
     0
390
0
100
AcDbVertex
100
AcDb2dVertex
 10
163.249557
 20
150.033432
 30
0.0
  0
VERTEX
  5
206
100
AcDbEntity
  8
0
370
     0
390
0
100
AcDbVertex
100
AcDb2dVertex
 10
161.209991
 20
149.420883
 30
0.0
  0
VERTEX
  5
207
100
AcDbEntity
  8
0
370
     0
390
0
100
AcDbVertex
100
AcDb2dVertex
 10
159.352264
 20
148.797058
 30
0.0
  0
VERTEX
  5
208
100
AcDbEntity
  8
0
370
     0
390
0
100
AcDbVertex
100
AcDb2dVertex
 10
157.520996
 20
148.100571
 30
0.0
  0
VERTEX
  5
209
100
AcDbEntity
  8
0
370
     0
390
0
100
AcDbVertex
100
AcDb2dVertex
 10
156.772537
 20
147.785858
 30
0.0
  0
SEQEND
  5
20A
100
AcDbEntity
  8
0
370
     0
390
0
  0
POLYLINE
  5
20B
100
AcDbEntity
  8
0
370
    35
390
0
 62
     7
100
AcDb2dPolyline
 66
     1
 10
0.0
 20
0.0
 30
0.0
 71
    10
  0
VERTEX
  5
20C
100
AcDbEntity
  8
0
370
     0
390
0
100
AcDbVertex
100
AcDb2dVertex
 10
233.770798
 20
155.528107
 30
0.0
  0
VERTEX
  5
20D
100
AcDbEntity
  8
0
370
     0
390
0
100
AcDbVertex
100
AcDb2dVertex
 10
229.491409
 20
155.63504
 30
0.0
  0
VERTEX
  5
20E
100
AcDbEntity
  8
0
370
     0
390
0
100
AcDbVertex
100
AcDb2dVertex
 10
221.560379
 20
155.715378
 30
0.0
  0
VERTEX
  5
20F
100
AcDbEntity
  8
0
370
     0
390
0
100
AcDbVertex
100
AcDb2dVertex
 10
213.629166
 20
155.655655
 30
0.0
  0
VERTEX
  5
210
100
AcDbEntity
  8
0
370
     0
390
0
100
AcDbVertex
100
AcDb2dVertex
 10
209.457703
 20
155.566895
 30
0.0
  0
VERTEX
  5
211
100
AcDbEntity
  8
0
370
     0
390
0
100
AcDbVertex
100
AcDb2dVertex
 10
205.30838
 20
155.432205
 30
0.0
  0
VERTEX
  5
212
100
AcDbEntity
  8
0
370
     0
390
0
100
AcDbVertex
100
AcDb2dVertex
 10
201.551529
 20
155.266556
 30
0.0
  0
VERTEX
  5
213
100
AcDbEntity
  8
0
370
     0
390
0
100
AcDbVertex
100
AcDb2dVertex
 10
197.778671
 20
155.056686
 30
0.0
  0
VERTEX
  5
214
100
AcDbEntity
  8
0
370
     0
390
0
100
AcDbVertex
100
AcDb2dVertex
 10
194.152557
 20
154.811844
 30
0.0
  0
VERTEX
  5
215
100
AcDbEntity
  8
0
370
     0
390
0
100
AcDbVertex
100
AcDb2dVertex
 10
190.529892
 20
154.520584
 30
0.0
  0
SEQEND
  5
216
100
AcDbEntity
  8
0
370
     0
390
0
  0
LINE
  5
217
100
AcDbEntity
  8
0
370
    35
390
0
 62
     7
 48
0.025
100
AcDbLine
 10
233.770798
 20
152.534012
 30
0.0
 11
234.770798
 21
152.534012
 31
0.0
210
0.0
220
0.0
230
1.0
  0
LINE
  5
218
100
AcDbEntity
  8
0
370
    35
390
0
 62
     7
 48
0.001122
100
AcDbLine
 10
237.083664
 20
152.351868
 30
0.0
 11
237.073654
 21
152.395599
 31
0.0
210
0.0
220
0.0
230
1.0
  0
ARC
  5
219
100
AcDbEntity
  8
0
370
    35
390
0
 62
     7
100
AcDbCircle
 10
237.565567
 20
152.485321
 30
0.0
 40
0.500029
210
0.0
220
0.0
230
1.0
100
AcDbArc
 50
195.479184
 51
277.059934
  0
ARC
  5
21A
100
AcDbEntity
  8
0
370
    35
390
0
 62
     7
100
AcDbCircle
 10
471.380493
 20
-1732.717285
 30
0.0
 40
1899.146885
210
0.0
220
0.0
230
1.0
100
AcDbArc
 50
96.872061
 51
97.070088
  0
ARC
  5
21B
100
AcDbEntity
  8
0
370
    35
390
0
 62
     7
100
AcDbCircle
 10
228.630081
 20
153.149338
 30
0.0
 40
0.497799
210
0.0
220
0.0
230
1.0
100
AcDbArc
 50
189.695367
 51
240.135221
  0
LINE
  5
21C
100
AcDbEntity
  8
0
370
    35
390
0
 62
     7
 48
0.006096
100
AcDbLine
 10
228.593307
 20
152.595688
 30
0.0
 11
228.382156
 21
152.717606
 31
0.0
210
0.0
220
0.0
230
1.0
  0
ARC
  5
21D
100
AcDbEntity
  8
0
370
    35
390
0
 62
     7
100
AcDbCircle
 10
230.565445
 20
152.034576
 30
0.0
 40
0.500195
210
0.0
220
0.0
230
1.0
100
AcDbArc
 50
240.019913
 51
350.949564
  0
ARC
  5
21E
100
AcDbEntity
  8
0
370
    35
390
0
 62
     7
100
AcDbCircle
 10
219.487778
 20
150.202591
 30
0.0
 40
0.500186
210
0.0
220
0.0
230
1.0
100
AcDbArc
 50
179.03617
 51
277.229473
  0
LINE
  5
21F
100
AcDbEntity
  8
0
370
    35
390
0
 62
     7
 48
0.141207
100
AcDbLine
 10
225.153793
 20
150.419617
 30
0.0
 11
219.550705
 21
149.706512
 31
0.0
210
0.0
220
0.0
230
1.0
  0
LINE
  5
220
100
AcDbEntity
  8
0
370
    35
390
0
 62
     7
 48
0.00852
100
AcDbLine
 10
225.491867
 20
150.462585
 30
0.0
 11
225.153793
 21
150.419617
 31
0.0
210
0.0
220
0.0
230
1.0
  0
ARC
  5
221
100
AcDbEntity
  8
0
370
    35
390
0
 62
     7
100
AcDbCircle
 10
225.430038
 20
150.956833
 30
0.0
 40
0.498056
210
0.0
220
0.0
230
1.0
100
AcDbArc
 50
277.131241
 51
336.933676
  0
ARC
  5
222
100
AcDbEntity
  8
0
370
    35
390
0
 62
     7
100
AcDbCircle
 10
208.916183
 20
153.050278
 30
0.0
 40
0.498513
210
0.0
220
0.0
230
1.0
100
AcDbArc
 50
162.908481
 51
240.089527
  0
LINE
  5
223
100
AcDbEntity
  8
0
370
    35
390
0
 62
     7
 48
0.010046
100
AcDbLine
 10
209.015594
 20
152.417252
 30
0.0
 11
208.667603
 21
152.618164
 31
0.0
210
0.0
220
0.0
230
1.0
  0
LINE
  5
224
100
AcDbEntity
  8
0
370
    35
390
0
 62
     7
 48
0.122977
100
AcDbLine
 10
213.27565
 20
149.957703
 30
0.0
 11
209.015594
 21
152.417252
 31
0.0
210
0.0
220
0.0
230
1.0
  0
ARC
  5
225
100
AcDbEntity
  8
0
370
    35
390
0
 62
     7
100
AcDbCircle
 10
214.276291
 20
151.691147
 30
0.0
 40
2.001535
210
0.0
220
0.0
230
1.0
100
AcDbArc
 50
240.004067
 51
250.559483
  0
ARC
  5
226
100
AcDbEntity
  8
0
370
    35
390
0
 62
     7
100
AcDbCircle
 10
214.27565
 20
151.689774
 30
0.0
 40
2.000024
210
0.0
220
0.0
230
1.0
100
AcDbArc
 50
250.56384
 51
299.418947
  0
ARC
  5
227
100
AcDbEntity
  8
0
370
    35
390
0
 62
     7
100
AcDbCircle
 10
214.271072
 20
151.695114
 30
0.0
 40
2.006936
210
0.0
220
0.0
230
1.0
100
AcDbArc
 50
299.457558
 51
321.332134
  0
LINE
  5
228
100
AcDbEntity
  8
0
370
    35
390
0
 62
     7
 48
0.078321
100
AcDbLine
 10
217.793839
 20
152.88855
 30
0.0
 11
215.838058
 21
150.441193
 31
0.0
210
0.0
220
0.0
230
1.0
  0
LINE
  5
229
100
AcDbEntity
  8
0
370
    35
390
0
 62
     7
 48
0.000882
100
AcDbLine
 10
217.814865
 20
152.91687
 30
0.0
 11
217.793839
 21
152.88855
 31
0.0
210
0.0
220
0.0
230
1.0
  0
LINE
  5
22A
100
AcDbEntity
  8
0
370
    35
390
0
 62
     7
 48
0.097095
100
AcDbLine
 10
198.905701
 20
148.84761
 30
0.0
 11
201.330292
 21
151.881622
 31
0.0
210
0.0
220
0.0
230
1.0
  0
ARC
  5
22B
100
AcDbEntity
  8
0
370
    35
390
0
 62
     7
100
AcDbCircle
 10
199.69574
 20
148.220184
 30
0.0
 40
1.008927
210
0.0
220
0.0
230
1.0
100
AcDbArc
 50
141.543895
 51
179.237524
  0
ARC
  5
22C
100
AcDbEntity
  8
0
370
    35
390
0
 62
     7
100
AcDbCircle
 10
199.68692
 20
148.223343
 30
0.0
 40
1.000014
210
0.0
220
0.0
230
1.0
100
AcDbArc
 50
179.411571
 51
262.736419
  0
ARC
  5
22D
100
AcDbEntity
  8
0
370
    35
390
0
 62
     7
100
AcDbCircle
 10
199.686905
 20
148.224594
 30
0.0
 40
1.001257
210
0.0
220
0.0
230
1.0
100
AcDbArc
 50
262.746077
 51
276.938609
  0
ARC
  5
22E
100
AcDbEntity
  8
0
370
    35
390
0
 62
     7
100
AcDbCircle
 10
-89.320374
 20
2516.776611
 30
0.0
 40
2387.120349
210
0.0
220
0.0
230
1.0
100
AcDbArc
 50
276.95675
 51
277.1479
  0
ARC
  5
22F
100
AcDbEntity
  8
0
370
    35
390
0
 62
     7
100
AcDbCircle
 10
207.587112
 20
149.200531
 30
0.0
 40
0.999988
210
0.0
220
0.0
230
1.0
100
AcDbArc
 50
277.138495
 51
322.458832
  0
ARC
  5
230
100
AcDbEntity
  8
0
370
    35
390
0
 62
     7
100
AcDbCircle
 10
187.661011
 20
151.237061
 30
0.0
 40
1.00001
210
0.0
220
0.0
230
1.0
100
AcDbArc
 50
136.352637
 51
206.247442
  0
ARC
  5
231
100
AcDbEntity
  8
0
370
    35
390
0
 62
     7
100
AcDbCircle
 10
187.666962
 20
151.242645
 30
0.0
 40
1.007871
210
0.0
220
0.0
230
1.0
100
AcDbArc
 50
206.38283
 51
239.865059
  0
LINE
  5
232
100
AcDbEntity
  8
0
370
    35
390
0
 62
     7
 48
0.149849
100
AcDbLine
 10
192.351913
 20
147.374069
 30
0.0
 11
187.160995
 21
150.371033
 31
0.0
210
0.0
220
0.0
230
1.0
  0
ARC
  5
233
100
AcDbEntity
  8
0
370
    35
390
0
 62
     7
100
AcDbCircle
 10
193.351913
 20
149.106125
 30
0.0
 40
2.000011
210
0.0
220
0.0
230
1.0
100
AcDbArc
 50
240.00012
 51
309.861296
  0
ARC
  5
234
100
AcDbEntity
  8
0
370
    35
390
0
 62
     7
100
AcDbCircle
 10
180.894669
 20
148.790802
 30
0.0
 40
2.003172
210
0.0
220
0.0
230
1.0
100
AcDbArc
 50
128.280064
 51
141.335356
  0
LINE
  5
235
100
AcDbEntity
  8
0
370
    35
390
0
 62
     7
 48
0.118976
100
AcDbLine
 10
176.359589
 20
146.324539
 30
0.0
 11
179.330566
 21
150.042297
 31
0.0
210
0.0
220
0.0
230
1.0
  0
ARC
  5
236
100
AcDbEntity
  8
0
370
    35
390
0
 62
     7
100
AcDbCircle
 10
177.14949
 20
145.696976
 30
0.0
 40
1.008907
210
0.0
220
0.0
230
1.0
100
AcDbArc
 50
141.53391
 51
177.258217
  0
ARC
  5
237
100
AcDbEntity
  8
0
370
    35
390
0
 62
     7
100
AcDbCircle
 10
177.140793
 20
145.700272
 30
0.0
 40
1.000014
210
0.0
220
0.0
230
1.0
100
AcDbArc
 50
177.422264
 51
259.893483
  0
ARC
  5
238
100
AcDbEntity
  8
0
370
    35
390
0
 62
     7
100
AcDbCircle
 10
177.140839
 20
145.701782
 30
0.0
 40
1.001514
210
0.0
220
0.0
230
1.0
100
AcDbArc
 50
259.906023
 51
275.489127
  0
ARC
  5
239
100
AcDbEntity
  8
0
370
    35
390
0
 62
     7
100
AcDbCircle
 10
114.834167
 20
786.911499
 30
0.0
 40
645.231724
210
0.0
220
0.0
230
1.0
100
AcDbArc
 50
275.549943
 51
276.391183
  0
ARC
  5
23A
100
AcDbEntity
  8
0
370
    35
390
0
 62
     7
100
AcDbCircle
 10
186.548035
 20
146.684082
 30
0.0
 40
1.000792
210
0.0
220
0.0
230
1.0
100
AcDbArc
 50
276.357503
 51
299.107067
  0
LINE
  5
23B
100
AcDbEntity
  8
0
370
    35
390
0
 62
     7
 48
0.017435
100
AcDbLine
 10
171.453461
 20
145.616425
 30
0.0
 11
171.453461
 21
146.313828
 31
0.0
210
0.0
220
0.0
230
1.0
  0
ARC
  5
23C
100
AcDbEntity
  8
0
370
    35
390
0
 62
     7
100
AcDbCircle
 10
171.953476
 20
145.61644
 30
0.0
 40
0.500016
210
0.0
220
0.0
230
1.0
100
AcDbArc
 50
180.00117
 51
237.362587
  0
ARC
  5
23D
100
AcDbEntity
  8
0
370
    35
390
0
 62
     7
100
AcDbCircle
 10
171.953796
 20
145.617859
 30
0.0
 40
0.501397
210
0.0
220
0.0
230
1.0
100
AcDbArc
 50
237.419059
 51
269.952856
  0
LINE
  5
23E
100
AcDbEntity
  8
0
370
    35
390
0
 62
     7
 48
0.00147
100
AcDbLine
 10
171.732468
 20
149.786011
 30
0.0
 11
171.77449
 21
149.827164
 31
0.0
210
0.0
220
0.0
230
1.0
  0
ARC
  5
23F
100
AcDbEntity
  8
0
370
    35
390
0
 62
     7
100
AcDbCircle
 10
172.453476
 20
149.093048
 30
0.0
 40
1.000012
210
0.0
220
0.0
230
1.0
100
AcDbArc
 50
136.136189
 51
179.999691
  0
LINE
  5
240
100
AcDbEntity
  8
0
370
    35
390
0
 62
     7
 48
0.069481
100
AcDbLine
 10
171.453461
 20
149.093048
 30
0.0
 11
171.453461
 21
146.313828
 31
0.0
210
0.0
220
0.0
230
1.0
  0
ARC
  5
241
100
AcDbEntity
  8
0
370
    35
390
0
 62
     7
100
AcDbCircle
 10
163.453461
 20
146.969604
 30
0.0
 40
1.00001
210
0.0
220
0.0
230
1.0
100
AcDbArc
 50
130.968741
 51
161.843436
  0
ARC
  5
242
100
AcDbEntity
  8
0
370
    35
390
0
 62
     7
100
AcDbCircle
 10
163.455627
 20
146.969269
 30
0.0
 40
1.00218
210
0.0
220
0.0
230
1.0
100
AcDbArc
 50
161.863571
 51
179.980115
  0
LINE
  5
243
100
AcDbEntity
  8
0
370
    35
390
0
 62
     7
 48
0.054303
100
AcDbLine
 10
162.453461
 20
146.96962
 30
0.0
 11
162.453461
 21
144.797516
 31
0.0
210
0.0
220
0.0
230
1.0
  0
LINE
  5
244
100
AcDbEntity
  8
0
370
    35
390
0
 62
     7
 48
0.002878
100
AcDbLine
 10
162.453461
 20
144.682388
 30
0.0
 11
162.453461
 21
144.797516
 31
0.0
210
0.0
220
0.0
230
1.0
  0
ARC
  5
245
100
AcDbEntity
  8
0
370
    35
390
0
 62
     7
100
AcDbCircle
 10
163.453476
 20
144.682404
 30
0.0
 40
1.000014
210
0.0
220
0.0
230
1.0
100
AcDbArc
 50
180.000323
 51
272.36439
  0
LINE
  5
246
100
AcDbEntity
  8
0
370
    35
390
0
 62
     7
 48
0.025204
100
AcDbLine
 10
164.501862
 20
143.728516
 30
0.0
 11
163.494736
 21
143.683243
 31
0.0
210
0.0
220
0.0
230
1.0
  0
ARC
  5
247
100
AcDbEntity
  8
0
370
    35
390
0
 62
     7
100
AcDbCircle
 10
164.453308
 20
144.728348
 30
0.0
 40
1.001
210
0.0
220
0.0
230
1.0
100
AcDbArc
 50
272.780048
 51
283.279258
  0
POLYLINE
  5
248
100
AcDbEntity
  8
0
370
    35
390
0
 62
     7
100
AcDb2dPolyline
 66
     1
 10
0.0
 20
0.0
 30
0.0
 71
     4
  0
VERTEX
  5
249
100
AcDbEntity
  8
0
370
     0
390
0
100
AcDbVertex
100
AcDb2dVertex
 10
154.265137
 20
144.233292
 30
0.0
  0
VERTEX
  5
24A
100
AcDbEntity
  8
0
370
     0
390
0
100
AcDbVertex
100
AcDb2dVertex
 10
155.160965
 20
144.775528
 30
0.0
  0
VERTEX
  5
24B
100
AcDbEntity
  8
0
370
     0
390
0
100
AcDbVertex
100
AcDb2dVertex
 10
156.109055
 20
145.27417
 30
0.0
  0
VERTEX
  5
24C
100
AcDbEntity
  8
0
370
     0
390
0
100
AcDbVertex
100
AcDb2dVertex
 10
156.8396
 20
145.624496
 30
0.0
  0
SEQEND
  5
24D
100
AcDbEntity
  8
0
370
     0
390
0
  0
ARC
  5
24E
100
AcDbEntity
  8
0
370
    35
390
0
 62
     7
100
AcDbCircle
 10
160.942734
 20
134.091003
 30
0.0
 40
12.143142
210
0.0
220
0.0
230
1.0
100
AcDbArc
 50
123.360525
 51
126.275486
  0
POLYLINE
  5
24F
100
AcDbEntity
  8
0
370
    35
390
0
 62
     7
100
AcDb2dPolyline
 66
     1
 10
0.0
 20
0.0
 30
0.0
 71
     5
  0
VERTEX
  5
250
100
AcDbEntity
  8
0
370
     0
390
0
100
AcDbVertex
100
AcDb2dVertex
 10
158.037704
 20
143.593994
 30
0.0
  0
VERTEX
  5
251
100
AcDbEntity
  8
0
370
     0
390
0
100
AcDbVertex
100
AcDb2dVertex
 10
156.74614
 20
143.63063
 30
0.0
  0
VERTEX
  5
252
100
AcDbEntity
  8
0
370
     0
390
0
100
AcDbVertex
100
AcDb2dVertex
 10
155.465652
 20
143.703781
 30
0.0
  0
VERTEX
  5
253
100
AcDbEntity
  8
0
370
     0
390
0
100
AcDbVertex
100
AcDb2dVertex
 10
154.60582
 20
143.778488
 30
0.0
  0
VERTEX
  5
254
100
AcDbEntity
  8
0
370
     0
390
0
100
AcDbVertex
100
AcDb2dVertex
 10
153.758026
 20
143.880569
 30
0.0
  0
SEQEND
  5
255
100
AcDbEntity
  8
0
370
     0
390
0
  0
LINE
  5
256
100
AcDbEntity
  8
0
370
    35
390
0
 62
     7
 48
0.010153
100
AcDbLine
 10
158.443802
 20
143.58876
 30
0.0
 11
158.037704
 21
143.593994
 31
0.0
210
0.0
220
0.0
230
1.0
  0
ARC
  5
257
100
AcDbEntity
  8
0
370
    35
390
0
 62
     7
100
AcDbCircle
 10
158.453445
 20
144.587799
 30
0.0
 40
0.999082
210
0.0
220
0.0
230
1.0
100
AcDbArc
 50
269.44708
 51
278.819063
  0
LINE
  5
258
100
AcDbEntity
  8
0
370
    35
390
0
 62
     7
 48
0.006147
100
AcDbLine
 10
228.564224
 20
152.313095
 30
0.0
 11
228.35173
 21
152.436798
 31
0.0
210
0.0
220
0.0
230
1.0
  0
LINE
  5
259
100
AcDbEntity
  8
0
370
    13
390
0
 62
     7
 48
0.007061
100
AcDbLine
 10
228.35173
 20
152.436798
 30
0.0
 11
228.382156
 21
152.717606
 31
0.0
210
0.0
220
0.0
230
1.0
  0
POLYLINE
  5
25A
100
AcDbEntity
  8
0
370
    35
390
0
 62
     7
100
AcDb2dPolyline
 66
     1
 10
0.0
 20
0.0
 30
0.0
 71
     9
  0
VERTEX
  5
25B
100
AcDbEntity
  8
0
370
     0
390
0
100
AcDbVertex
100
AcDb2dVertex
 10
270.018768
 20
153.137634
 30
0.0
  0
VERTEX
  5
25C
100
AcDbEntity
  8
0
370
     0
390
0
100
AcDbVertex
100
AcDb2dVertex
 10
268.85553
 20
153.169998
 30
0.0
  0
VERTEX
  5
25D
100
AcDbEntity
  8
0
370
     0
390
0
100
AcDbVertex
100
AcDb2dVertex
 10
266.530884
 20
153.282715
 30
0.0
  0
VERTEX
  5
25E
100
AcDbEntity
  8
0
370
     0
390
0
100
AcDbVertex
100
AcDb2dVertex
 10
261.923584
 20
153.582108
 30
0.0
  0
VERTEX
  5
25F
100
AcDbEntity
  8
0
370
     0
390
0
100
AcDbVertex
100
AcDb2dVertex
 10
255.016281
 20
154.081573
 30
0.0
  0
VERTEX
  5
260
100
AcDbEntity
  8
0
370
     0
390
0
100
AcDbVertex
100
AcDb2dVertex
 10
247.043686
 20
154.625595
 30
0.0
  0
VERTEX
  5
261
100
AcDbEntity
  8
0
370
     0
390
0
100
AcDbVertex
100
AcDb2dVertex
 10
243.054977
 20
154.860397
 30
0.0
  0
VERTEX
  5
262
100
AcDbEntity
  8
0
370
     0
390
0
100
AcDbVertex
100
AcDb2dVertex
 10
239.064285
 20
155.059143
 30
0.0
  0
VERTEX
  5
263
100
AcDbEntity
  8
0
370
     0
390
0
100
AcDbVertex
100
AcDb2dVertex
 10
234.770798
 20
155.228149
 30
0.0
  0
SEQEND
  5
264
100
AcDbEntity
  8
0
370
     0
390
0
  0
LINE
  5
265
100
AcDbEntity
  8
0
370
    35
390
0
 62
     7
 48
0.002705
100
AcDbLine
 10
270.126953
 20
153.135834
 30
0.0
 11
270.018768
 21
153.137634
 31
0.0
210
0.0
220
0.0
230
1.0
  0
LINE
  5
266
100
AcDbEntity
  8
0
370
    35
390
0
 62
     7
 48
0.002496
100
AcDbLine
 10
270.027344
 20
153.128891
 30
0.0
 11
270.126953
 21
153.135834
 31
0.0
210
0.0
220
0.0
230
1.0
  0
POLYLINE
  5
267
100
AcDbEntity
  8
0
370
    35
390
0
 62
     7
100
AcDb2dPolyline
 66
     1
 10
0.0
 20
0.0
 30
0.0
 71
    13
  0
VERTEX
  5
268
100
AcDbEntity
  8
0
370
     0
390
0
100
AcDbVertex
100
AcDb2dVertex
 10
270.027344
 20
153.128891
 30
0.0
  0
VERTEX
  5
269
100
AcDbEntity
  8
0
370
     0
390
0
100
AcDbVertex
100
AcDb2dVertex
 10
268.11731
 20
152.9785
 30
0.0
  0
VERTEX
  5
26A
100
AcDbEntity
  8
0
370
     0
390
0
100
AcDbVertex
100
AcDb2dVertex
 10
264.30011
 20
152.642548
 30
0.0
  0
VERTEX
  5
26B
100
AcDbEntity
  8
0
370
     0
390
0
100
AcDbVertex
100
AcDb2dVertex
 10
259.619537
 20
152.185455
 30
0.0
  0
VERTEX
  5
26C
100
AcDbEntity
  8
0
370
     0
390
0
100
AcDbVertex
100
AcDb2dVertex
 10
250.26915
 20
151.167297
 30
0.0
  0
VERTEX
  5
26D
100
AcDbEntity
  8
0
370
     0
390
0
100
AcDbVertex
100
AcDb2dVertex
 10
243.844284
 20
150.41333
 30
0.0
  0
VERTEX
  5
26E
100
AcDbEntity
  8
0
370
     0
390
0
100
AcDbVertex
100
AcDb2dVertex
 10
230.949417
 20
148.828049
 30
0.0
  0
VERTEX
  5
26F
100
AcDbEntity
  8
0
370
     0
390
0
100
AcDbVertex
100
AcDb2dVertex
 10
208.422714
 20
145.99292
 30
0.0
  0
VERTEX
  5
270
100
AcDbEntity
  8
0
370
     0
390
0
100
AcDbVertex
100
AcDb2dVertex
 10
201.984543
 20
145.198898
 30
0.0
  0
VERTEX
  5
271
100
AcDbEntity
  8
0
370
     0
390
0
100
AcDbVertex
100
AcDb2dVertex
 10
192.322586
 20
144.046768
 30
0.0
  0
VERTEX
  5
272
100
AcDbEntity
  8
0
370
     0
390
0
100
AcDbVertex
100
AcDb2dVertex
 10
186.007996
 20
143.333359
 30
0.0
  0
VERTEX
  5
273
100
AcDbEntity
  8
0
370
     0
390
0
100
AcDbVertex
100
AcDb2dVertex
 10
179.688217
 20
142.667191
 30
0.0
  0
VERTEX
  5
274
100
AcDbEntity
  8
0
370
     0
390
0
100
AcDbVertex
100
AcDb2dVertex
 10
173.361649
 20
142.072098
 30
0.0
  0
SEQEND
  5
275
100
AcDbEntity
  8
0
370
     0
390
0
  0
ARC
  5
276
100
AcDbEntity
  8
0
370
    35
390
0
 62
     7
100
AcDbCircle
 10
147.726379
 20
436.388184
 30
0.0
 40
295.430265
210
0.0
220
0.0
230
1.0
100
AcDbArc
 50
274.023396
 51
274.977962
  0
LINE
  5
277
100
AcDbEntity
  8
0
370
    35
390
0
 62
     7
 48
0.117202
100
AcDbLine
 10
168.45488
 20
141.686127
 30
0.0
 11
168.45488
 21
146.374207
 31
0.0
210
0.0
220
0.0
230
1.0
  0
LINE
  5
278
100
AcDbEntity
  8
0
370
    35
390
0
 62
     7
 48
0.0125
100
AcDbLine
 10
168.45488
 20
146.374207
 30
0.0
 11
167.95488
 21
146.374207
 31
0.0
210
0.0
220
0.0
230
1.0
  0
LINE
  5
279
100
AcDbEntity
  8
0
370
    35
390
0
 62
     7
 48
0.0125
100
AcDbLine
 10
167.95488
 20
146.374207
 30
0.0
 11
167.45488
 21
146.374207
 31
0.0
210
0.0
220
0.0
230
1.0
  0
LINE
  5
27A
100
AcDbEntity
  8
0
370
    35
390
0
 62
     7
 48
0.118895
100
AcDbLine
 10
167.45488
 20
141.618408
 30
0.0
 11
167.45488
 21
146.374207
 31
0.0
210
0.0
220
0.0
230
1.0
  0
POLYLINE
  5
27B
100
AcDbEntity
  8
0
370
    35
390
0
 62
     7
100
AcDb2dPolyline
 66
     1
 10
0.0
 20
0.0
 30
0.0
 71
    13
  0
VERTEX
  5
27C
100
AcDbEntity
  8
0
370
     0
390
0
100
AcDbVertex
100
AcDb2dVertex
 10
149.92453
 20
142.727356
 30
0.0
  0
VERTEX
  5
27D
100
AcDbEntity
  8
0
370
     0
390
0
100
AcDbVertex
100
AcDb2dVertex
 10
150.011719
 20
142.539124
 30
0.0
  0
VERTEX
  5
27E
100
AcDbEntity
  8
0
370
     0
390
0
100
AcDbVertex
100
AcDb2dVertex
 10
150.241974
 20
142.352509
 30
0.0
  0
VERTEX
  5
27F
100
AcDbEntity
  8
0
370
     0
390
0
100
AcDbVertex
100
AcDb2dVertex
 10
150.637634
 20
142.149292
 30
0.0
  0
VERTEX
  5
280
100
AcDbEntity
  8
0
370
     0
390
0
100
AcDbVertex
100
AcDb2dVertex
 10
151.268311
 20
141.932068
 30
0.0
  0
VERTEX
  5
281
100
AcDbEntity
  8
0
370
     0
390
0
100
AcDbVertex
100
AcDb2dVertex
 10
152.24794
 20
141.706345
 30
0.0
  0
VERTEX
  5
282
100
AcDbEntity
  8
0
370
     0
390
0
100
AcDbVertex
100
AcDb2dVertex
 10
152.986816
 20
141.588715
 30
0.0
  0
VERTEX
  5
283
100
AcDbEntity
  8
0
370
     0
390
0
100
AcDbVertex
100
AcDb2dVertex
 10
153.943588
 20
141.477951
 30
0.0
  0
VERTEX
  5
284
100
AcDbEntity
  8
0
370
     0
390
0
100
AcDbVertex
100
AcDb2dVertex
 10
155.875778
 20
141.341827
 30
0.0
  0
VERTEX
  5
285
100
AcDbEntity
  8
0
370
     0
390
0
100
AcDbVertex
100
AcDb2dVertex
 10
158.253601
 20
141.284393
 30
0.0
  0
VERTEX
  5
286
100
AcDbEntity
  8
0
370
     0
390
0
100
AcDbVertex
100
AcDb2dVertex
 10
160.630173
 20
141.30513
 30
0.0
  0
VERTEX
  5
287
100
AcDbEntity
  8
0
370
     0
390
0
100
AcDbVertex
100
AcDb2dVertex
 10
163.009476
 20
141.37825
 30
0.0
  0
VERTEX
  5
288
100
AcDbEntity
  8
0
370
     0
390
0
100
AcDbVertex
100
AcDb2dVertex
 10
167.45488
 20
141.618408
 30
0.0
  0
SEQEND
  5
289
100
AcDbEntity
  8
0
370
     0
390
0
  0
LINE
  5
28A
100
AcDbEntity
  8
0
370
    35
390
0
 62
     7
 48
0.000693
100
AcDbLine
 10
149.92453
 20
142.727356
 30
0.0
 11
149.923065
 21
142.75502
 31
0.0
210
0.0
220
0.0
230
1.0
  0
POLYLINE
  5
28B
100
AcDbEntity
  8
0
370
    35
390
0
 62
     7
100
AcDb2dPolyline
 66
     1
 10
0.0
 20
0.0
 30
0.0
 71
    14
  0
VERTEX
  5
28C
100
AcDbEntity
  8
0
370
     0
390
0
100
AcDbVertex
100
AcDb2dVertex
 10
149.923065
 20
142.75502
 30
0.0
  0
VERTEX
  5
28D
100
AcDbEntity
  8
0
370
     0
390
0
100
AcDbVertex
100
AcDb2dVertex
 10
149.931976
 20
142.871796
 30
0.0
  0
VERTEX
  5
28E
100
AcDbEntity
  8
0
370
     0
390
0
100
AcDbVertex
100
AcDb2dVertex
 10
149.993805
 20
143.097946
 30
0.0
  0
VERTEX
  5
28F
100
AcDbEntity
  8
0
370
     0
390
0
100
AcDbVertex
100
AcDb2dVertex
 10
150.208069
 20
143.524811
 30
0.0
  0
VERTEX
  5
290
100
AcDbEntity
  8
0
370
     0
390
0
100
AcDbVertex
100
AcDb2dVertex
 10
150.413864
 20
143.819031
 30
0.0
  0
VERTEX
  5
291
100
AcDbEntity
  8
0
370
     0
390
0
100
AcDbVertex
100
AcDb2dVertex
 10
150.645905
 20
144.093063
 30
0.0
  0
VERTEX
  5
292
100
AcDbEntity
  8
0
370
     0
390
0
100
AcDbVertex
100
AcDb2dVertex
 10
150.987015
 20
144.434601
 30
0.0
  0
VERTEX
  5
293
100
AcDbEntity
  8
0
370
     0
390
0
100
AcDbVertex
100
AcDb2dVertex
 10
151.349762
 20
144.75267
 30
0.0
  0
VERTEX
  5
294
100
AcDbEntity
  8
0
370
     0
390
0
100
AcDbVertex
100
AcDb2dVertex
 10
151.865784
 20
145.158707
 30
0.0
  0
VERTEX
  5
295
100
AcDbEntity
  8
0
370
     0
390
0
100
AcDbVertex
100
AcDb2dVertex
 10
152.400818
 20
145.538528
 30
0.0
  0
VERTEX
  5
296
100
AcDbEntity
  8
0
370
     0
390
0
100
AcDbVertex
100
AcDb2dVertex
 10
153.148956
 20
146.012253
 30
0.0
  0
VERTEX
  5
297
100
AcDbEntity
  8
0
370
     0
390
0
100
AcDbVertex
100
AcDb2dVertex
 10
153.921127
 20
146.44696
 30
0.0
  0
VERTEX
  5
298
100
AcDbEntity
  8
0
370
     0
390
0
100
AcDbVertex
100
AcDb2dVertex
 10
154.827835
 20
146.908722
 30
0.0
  0
VERTEX
  5
299
100
AcDbEntity
  8
0
370
     0
390
0
100
AcDbVertex
100
AcDb2dVertex
 10
156.159637
 20
147.519958
 30
0.0
  0
SEQEND
  5
29A
100
AcDbEntity
  8
0
370
     0
390
0
  0
POLYLINE
  5
29B
100
AcDbEntity
  8
0
370
    35
390
0
 62
     7
100
AcDb2dPolyline
 66
     1
 10
0.0
 20
0.0
 30
0.0
 71
    13
  0
VERTEX
  5
29C
100
AcDbEntity
  8
0
370
     0
390
0
100
AcDbVertex
100
AcDb2dVertex
 10
156.159637
 20
147.519958
 30
0.0
  0
VERTEX
  5
29D
100
AcDbEntity
  8
0
370
     0
390
0
100
AcDbVertex
100
AcDb2dVertex
 10
158.204132
 20
148.337387
 30
0.0
  0
VERTEX
  5
29E
100
AcDbEntity
  8
0
370
     0
390
0
100
AcDbVertex
100
AcDb2dVertex
 10
160.522263
 20
149.131622
 30
0.0
  0
VERTEX
  5
29F
100
AcDbEntity
  8
0
370
     0
390
0
100
AcDbVertex
100
AcDb2dVertex
 10
162.868973
 20
149.833984
 30
0.0
  0
VERTEX
  5
2A0
100
AcDbEntity
  8
0
370
     0
390
0
100
AcDbVertex
100
AcDb2dVertex
 10
164.645447
 20
150.310715
 30
0.0
  0
VERTEX
  5
2A1
100
AcDbEntity
  8
0
370
     0
390
0
100
AcDbVertex
100
AcDb2dVertex
 10
166.720062
 20
150.8172
 30
0.0
  0
VERTEX
  5
2A2
100
AcDbEntity
  8
0
370
     0
390
0
100
AcDbVertex
100
AcDb2dVertex
 10
168.804779
 20
151.279831
 30
0.0
  0
VERTEX
  5
2A3
100
AcDbEntity
  8
0
370
     0
390
0
100
AcDbVertex
100
AcDb2dVertex
 10
170.90773
 20
151.70549
 30
0.0
  0
VERTEX
  5
2A4
100
AcDbEntity
  8
0
370
     0
390
0
100
AcDbVertex
100
AcDb2dVertex
 10
173.017654
 20
152.095535
 30
0.0
  0
VERTEX
  5
2A5
100
AcDbEntity
  8
0
370
     0
390
0
100
AcDbVertex
100
AcDb2dVertex
 10
177.253632
 20
152.782562
 30
0.0
  0
VERTEX
  5
2A6
100
AcDbEntity
  8
0
370
     0
390
0
100
AcDbVertex
100
AcDb2dVertex
 10
181.504974
 20
153.365707
 30
0.0
  0
VERTEX
  5
2A7
100
AcDbEntity
  8
0
370
     0
390
0
100
AcDbVertex
100
AcDb2dVertex
 10
185.851379
 20
153.868927
 30
0.0
  0
VERTEX
  5
2A8
100
AcDbEntity
  8
0
370
     0
390
0
100
AcDbVertex
100
AcDb2dVertex
 10
190.206833
 20
154.286331
 30
0.0
  0
SEQEND
  5
2A9
100
AcDbEntity
  8
0
370
     0
390
0
  0
POLYLINE
  5
2AA
100
AcDbEntity
  8
0
370
    35
390
0
 62
     7
100
AcDb2dPolyline
 66
     1
 10
0.0
 20
0.0
 30
0.0
 71
     9
  0
VERTEX
  5
2AB
100
AcDbEntity
  8
0
370
     0
390
0
100
AcDbVertex
100
AcDb2dVertex
 10
233.770798
 20
155.260757
 30
0.0
  0
VERTEX
  5
2AC
100
AcDbEntity
  8
0
370
     0
390
0
100
AcDbVertex
100
AcDb2dVertex
 10
231.077896
 20
155.336014
 30
0.0
  0
VERTEX
  5
2AD
100
AcDbEntity
  8
0
370
     0
390
0
100
AcDbVertex
100
AcDb2dVertex
 10
223.08757
 20
155.454834
 30
0.0
  0
VERTEX
  5
2AE
100
AcDbEntity
  8
0
370
     0
390
0
100
AcDbVertex
100
AcDb2dVertex
 10
215.096359
 20
155.429916
 30
0.0
  0
VERTEX
  5
2AF
100
AcDbEntity
  8
0
370
     0
390
0
100
AcDbVertex
100
AcDb2dVertex
 10
211.101242
 20
155.365204
 30
0.0
  0
VERTEX
  5
2B0
100
AcDbEntity
  8
0
370
     0
390
0
100
AcDbVertex
100
AcDb2dVertex
 10
207.106979
 20
155.260468
 30
0.0
  0
VERTEX
  5
2B1
100
AcDbEntity
  8
0
370
     0
390
0
100
AcDbVertex
100
AcDb2dVertex
 10
201.46817
 20
155.035065
 30
0.0
  0
VERTEX
  5
2B2
100
AcDbEntity
  8
0
370
     0
390
0
100
AcDbVertex
100
AcDb2dVertex
 10
195.833954
 20
154.713486
 30
0.0
  0
VERTEX
  5
2B3
100
AcDbEntity
  8
0
370
     0
390
0
100
AcDbVertex
100
AcDb2dVertex
 10
190.206833
 20
154.286331
 30
0.0
  0
SEQEND
  5
2B4
100
AcDbEntity
  8
0
370
     0
390
0
  0
LINE
  5
2B5
100
AcDbEntity
  8
0
370
    35
390
0
 62
     7
 48
0.07542
100
AcDbLine
 10
233.770798
 20
155.260757
 30
0.0
 11
233.770798
 21
152.243973
 31
0.0
210
0.0
220
0.0
230
1.0
  0
LINE
  5
2B6
100
AcDbEntity
  8
0
370
    35
390
0
 62
     7
 48
0.025
100
AcDbLine
 10
233.770798
 20
152.243973
 30
0.0
 11
234.770798
 21
152.243973
 31
0.0
210
0.0
220
0.0
230
1.0
  0
LINE
  5
2B7
100
AcDbEntity
  8
0
370
    35
390
0
 62
     7
 48
0.074604
100
AcDbLine
 10
234.770798
 20
155.228149
 30
0.0
 11
234.770798
 21
152.243973
 31
0.0
210
0.0
220
0.0
230
1.0
  0
ARC
  5
2B8
100
AcDbEntity
  8
0
370
    35
390
0
 62
     7
100
AcDbCircle
 10
237.593582
 20
152.194
 30
0.0
 40
0.519937
210
0.0
220
0.0
230
1.0
100
AcDbArc
 50
181.606223
 51
195.139505
  0
LINE
  5
2B9
100
AcDbEntity
  8
0
370
    35
390
0
 62
     7
 48
0.000361
100
AcDbLine
 10
237.073868
 20
152.179428
 30
0.0
 11
237.073654
 21
152.193878
 31
0.0
210
0.0
220
0.0
230
1.0
  0
ARC
  5
2BA
100
AcDbEntity
  8
0
370
    35
390
0
 62
     7
100
AcDbCircle
 10
237.580917
 20
152.190765
 30
0.0
 40
0.506866
210
0.0
220
0.0
230
1.0
100
AcDbArc
 50
195.159846
 51
276.970595
  0
ARC
  5
2BB
100
AcDbEntity
  8
0
370
    35
390
0
 62
     7
100
AcDbCircle
 10
456.60141
 20
-1635.88916
 30
0.0
 40
1800.93681
210
0.0
220
0.0
230
1.0
100
AcDbArc
 50
96.718573
 51
96.983331
  0
ARC
  5
2BC
100
AcDbEntity
  8
0
370
    35
390
0
 62
     7
100
AcDbCircle
 10
219.89537
 20
-264.925629
 30
0.0
 40
418.414663
210
0.0
220
0.0
230
1.0
100
AcDbArc
 50
86.436071
 51
87.574609
  0
ARC
  5
2BD
100
AcDbEntity
  8
0
370
    35
390
0
 62
     7
100
AcDbCircle
 10
237.580795
 20
152.607315
 30
0.0
 40
0.507157
210
0.0
220
0.0
230
1.0
100
AcDbArc
 50
87.605946
 51
179.997874
  0
LINE
  5
2BE
100
AcDbEntity
  8
0
370
    35
390
0
 62
     7
 48
0.010336
100
AcDbLine
 10
237.073654
 20
152.60733
 30
0.0
 11
237.073654
 21
152.193878
 31
0.0
210
0.0
220
0.0
230
1.0
  0
LINE
  5
2BF
100
AcDbEntity
  8
0
370
    35
390
0
 62
     7
 48
0.006102
100
AcDbLine
 10
230.567551
 20
153.33876
 30
0.0
 11
230.323563
 21
153.345001
 31
0.0
210
0.0
220
0.0
230
1.0
  0
LINE
  5
2C0
100
AcDbEntity
  8
0
370
    35
390
0
 62
     7
 48
0.036316
100
AcDbLine
 10
230.323563
 20
153.345001
 30
0.0
 11
228.871231
 21
153.375656
 31
0.0
210
0.0
220
0.0
230
1.0
  0
LINE
  5
2C1
100
AcDbEntity
  8
0
370
    35
390
0
 62
     7
 48
0.006417
100
AcDbLine
 10
228.614578
 20
153.379898
 30
0.0
 11
228.871231
 21
153.375656
 31
0.0
210
0.0
220
0.0
230
1.0
  0
ARC
  5
2C2
100
AcDbEntity
  8
0
370
    35
390
0
 62
     7
100
AcDbCircle
 10
228.607101
 20
152.874786
 30
0.0
 40
0.505211
210
0.0
220
0.0
230
1.0
100
AcDbArc
 50
89.154097
 51
173.819025
  0
ARC
  5
2C3
100
AcDbEntity
  8
0
370
    35
390
0
 62
     7
100
AcDbCircle
 10
228.60524
 20
152.872223
 30
0.0
 40
0.503798
210
0.0
220
0.0
230
1.0
100
AcDbArc
 50
173.505957
 51
239.790733
  0
ARC
  5
2C4
100
AcDbEntity
  8
0
370
    35
390
0
 62
     7
100
AcDbCircle
 10
230.552475
 20
151.747879
 30
0.0
 40
0.506494
210
0.0
220
0.0
230
1.0
100
AcDbArc
 50
240.223002
 51
359.732957
  0
LINE
  5
2C5
100
AcDbEntity
  8
0
370
    35
390
0
 62
     7
 48
0.005492
100
AcDbLine
 10
231.059372
 20
151.965195
 30
0.0
 11
231.058914
 21
151.745514
 31
0.0
210
0.0
220
0.0
230
1.0
  0
LINE
  5
2C6
100
AcDbEntity
  8
0
370
    35
390
0
 62
     7
 48
0.021688
100
AcDbLine
 10
231.059372
 20
151.965195
 30
0.0
 11
231.059372
 21
152.832703
 31
0.0
210
0.0
220
0.0
230
1.0
  0
ARC
  5
2C7
100
AcDbEntity
  8
0
370
    35
390
0
 62
     7
100
AcDbCircle
 10
230.553116
 20
152.832733
 30
0.0
 40
0.506215
210
0.0
220
0.0
230
1.0
100
AcDbArc
 50
359.996474
 51
88.364848
  0
ARC
  5
2C8
100
AcDbEntity
  8
0
370
    35
390
0
 62
     7
100
AcDbCircle
 10
222.080887
 20
150.853149
 30
0.0
 40
2.003693
210
0.0
220
0.0
230
1.0
100
AcDbArc
 50
59.925327
 51
108.46423
  0
ARC
  5
2C9
100
AcDbEntity
  8
0
370
    35
390
0
 62
     7
100
AcDbCircle
 10
222.103989
 20
150.79805
 30
0.0
 40
2.063364
210
0.0
220
0.0
230
1.0
100
AcDbArc
 50
108.588164
 51
141.085835
  0
LINE
  5
2CA
100
AcDbEntity
  8
0
370
    35
390
0
 62
     7
 48
0.049148
100
AcDbLine
 10
220.49855
 20
152.094116
 30
0.0
 11
219.266678
 21
150.562012
 31
0.0
210
0.0
220
0.0
230
1.0
  0
LINE
  5
2CB
100
AcDbEntity
  8
0
370
    35
390
0
 62
     7
 48
0.010862
100
AcDbLine
 10
219.266678
 20
150.562012
 30
0.0
 11
218.996048
 21
150.222122
 31
0.0
210
0.0
220
0.0
230
1.0
  0
ARC
  5
2CC
100
AcDbEntity
  8
0
370
    35
390
0
 62
     7
100
AcDbCircle
 10
219.394272
 20
149.909103
 30
0.0
 40
0.506899
210
0.0
220
0.0
230
1.0
100
AcDbArc
 50
161.223323
 51
277.15973
  0
ARC
  5
2CD
100
AcDbEntity
  8
0
370
    35
390
0
 62
     7
100
AcDbCircle
 10
219.393997
 20
149.908035
 30
0.0
 40
0.506957
210
0.0
220
0.0
230
1.0
100
AcDbArc
 50
141.716535
 51
161.099519
  0
LINE
  5
2CE
100
AcDbEntity
  8
0
370
    35
390
0
 62
     7
 48
0.14261
100
AcDbLine
 10
225.116989
 20
150.120193
 30
0.0
 11
219.457443
 21
149.406296
 31
0.0
210
0.0
220
0.0
230
1.0
  0
LINE
  5
2CF
100
AcDbEntity
  8
0
370
    35
390
0
 62
     7
 48
0.008603
100
AcDbLine
 10
225.116989
 20
150.120193
 30
0.0
 11
225.458237
 21
150.164505
 31
0.0
210
0.0
220
0.0
230
1.0
  0
ARC
  5
2D0
100
AcDbEntity
  8
0
370
    35
390
0
 62
     7
100
AcDbCircle
 10
225.391769
 20
150.665176
 30
0.0
 40
0.505087
210
0.0
220
0.0
230
1.0
100
AcDbArc
 50
277.559521
 51
354.042661
  0
ARC
  5
2D1
100
AcDbEntity
  8
0
370
    35
390
0
 62
     7
100
AcDbCircle
 10
225.392227
 20
150.667435
 30
0.0
 40
0.504963
210
0.0
220
0.0
230
1.0
100
AcDbArc
 50
353.783863
 51
60.023293
  0
LINE
  5
2D2
100
AcDbEntity
  8
0
370
    35
390
0
 62
     7
 48
0.073944
100
AcDbLine
 10
225.644547
 20
151.104874
 30
0.0
 11
223.084976
 21
152.587097
 31
0.0
210
0.0
220
0.0
230
1.0
  0
LINE
  5
2D3
100
AcDbEntity
  8
0
370
    35
390
0
 62
     7
 48
0.010667
100
AcDbLine
 10
217.310898
 20
153.438293
 30
0.0
 11
216.884201
 21
153.437134
 31
0.0
210
0.0
220
0.0
230
1.0
  0
ARC
  5
2D4
100
AcDbEntity
  8
0
370
    35
390
0
 62
     7
100
AcDbCircle
 10
219.891983
 20
-266.310608
 30
0.0
 40
419.758285
210
0.0
220
0.0
230
1.0
100
AcDbArc
 50
90.410552
 51
91.523545
  0
ARC
  5
2D5
100
AcDbEntity
  8
0
370
    35
390
0
 62
     7
100
AcDbCircle
 10
208.744141
 20
152.792786
 30
0.0
 40
0.505172
210
0.0
220
0.0
230
1.0
100
AcDbArc
 50
144.891111
 51
239.444484
  0
ARC
  5
2D6
100
AcDbEntity
  8
0
370
    35
390
0
 62
     7
100
AcDbCircle
 10
208.74408
 20
152.794952
 30
0.0
 40
0.504181
210
0.0
220
0.0
230
1.0
100
AcDbArc
 50
91.421939
 51
145.088559
  0
LINE
  5
2D7
100
AcDbEntity
  8
0
370
    35
390
0
 62
     7
 48
0.01013
100
AcDbLine
 10
208.837219
 20
152.153397
 30
0.0
 11
208.487411
 21
152.357895
 31
0.0
210
0.0
220
0.0
230
1.0
  0
LINE
  5
2D8
100
AcDbEntity
  8
0
370
    35
390
0
 62
     7
 48
0.124169
100
AcDbLine
 10
213.135452
 20
149.664642
 30
0.0
 11
208.837219
 21
152.153397
 31
0.0
210
0.0
220
0.0
230
1.0
  0
ARC
  5
2D9
100
AcDbEntity
  8
0
370
    35
390
0
 62
     7
100
AcDbCircle
 10
214.162369
 20
151.438446
 30
0.0
 40
2.049625
210
0.0
220
0.0
230
1.0
100
AcDbArc
 50
239.931449
 51
250.337249
  0
ARC
  5
2DA
100
AcDbEntity
  8
0
370
    35
390
0
 62
     7
100
AcDbCircle
 10
214.146927
 20
151.395859
 30
0.0
 40
2.004326
210
0.0
220
0.0
230
1.0
100
AcDbArc
 50
250.34397
 51
299.563932
  0
ARC
  5
2DB
100
AcDbEntity
  8
0
370
    35
390
0
 62
     7
100
AcDbCircle
 10
214.120987
 20
151.439209
 30
0.0
 40
2.054833
210
0.0
220
0.0
230
1.0
100
AcDbArc
 50
299.596628
 51
321.168558
  0
LINE
  5
2DC
100
AcDbEntity
  8
0
370
    35
390
0
 62
     7
 48
0.079066
100
AcDbLine
 10
217.703354
 20
152.615555
 30
0.0
 11
215.721664
 21
150.150772
 31
0.0
210
0.0
220
0.0
230
1.0
  0
ARC
  5
2DD
100
AcDbEntity
  8
0
370
    35
390
0
 62
     7
100
AcDbCircle
 10
217.309311
 20
152.932693
 30
0.0
 40
0.505789
210
0.0
220
0.0
230
1.0
100
AcDbArc
 50
341.893734
 51
89.821031
  0
ARC
  5
2DE
100
AcDbEntity
  8
0
370
    35
390
0
 62
     7
100
AcDbCircle
 10
217.308456
 20
152.93335
 30
0.0
 40
0.506869
210
0.0
220
0.0
230
1.0
100
AcDbArc
 50
321.173086
 51
341.853026
  0
ARC
  5
2DF
100
AcDbEntity
  8
0
370
    35
390
0
 62
     7
100
AcDbCircle
 10
202.731766
 20
150.411331
 30
0.0
 40
2.057729
210
0.0
220
0.0
230
1.0
100
AcDbArc
 50
59.928524
 51
75.415909
  0
ARC
  5
2E0
100
AcDbEntity
  8
0
370
    35
390
0
 62
     7
100
AcDbCircle
 10
202.746887
 20
150.467117
 30
0.0
 40
1.99994
210
0.0
220
0.0
230
1.0
100
AcDbArc
 50
75.43265
 51
119.367186
  0
ARC
  5
2E1
100
AcDbEntity
  8
0
370
    35
390
0
 62
     7
100
AcDbCircle
 10
202.778946
 20
150.412766
 30
0.0
 40
2.06305
210
0.0
220
0.0
230
1.0
100
AcDbArc
 50
119.403154
 51
138.969474
  0
LINE
  5
2E2
100
AcDbEntity
  8
0
370
    35
390
0
 62
     7
 48
0.001955
100
AcDbLine
 10
201.222672
 20
151.767075
 30
0.0
 11
201.172485
 21
151.707108
 31
0.0
210
0.0
220
0.0
230
1.0
  0
LINE
  5
2E3
100
AcDbEntity
  8
0
370
    35
390
0
 62
     7
 48
0.100912
100
AcDbLine
 10
198.642151
 20
148.562164
 30
0.0
 11
201.172485
 21
151.707108
 31
0.0
210
0.0
220
0.0
230
1.0
  0
ARC
  5
2E4
100
AcDbEntity
  8
0
370
    35
390
0
 62
     7
100
AcDbCircle
 10
199.44812
 20
147.91687
 30
0.0
 40
1.032503
210
0.0
220
0.0
230
1.0
100
AcDbArc
 50
141.31828
 51
178.484878
  0
ARC
  5
2E5
100
AcDbEntity
  8
0
370
    35
390
0
 62
     7
100
AcDbCircle
 10
199.415405
 20
147.921814
 30
0.0
 40
0.99962
210
0.0
220
0.0
230
1.0
100
AcDbArc
 50
178.718416
 51
262.904141
  0
ARC
  5
2E6
100
AcDbEntity
  8
0
370
    35
390
0
 62
     7
100
AcDbCircle
 10
199.419083
 20
147.95137
 30
0.0
 40
1.029428
210
0.0
220
0.0
230
1.0
100
AcDbArc
 50
262.904688
 51
276.867889
  0
ARC
  5
2E7
100
AcDbEntity
  8
0
370
    35
390
0
 62
     7
100
AcDbCircle
 10
-87.508118
 20
2524.003418
 30
0.0
 40
2394.343157
210
0.0
220
0.0
230
1.0
100
AcDbArc
 50
276.885573
 51
277.078341
  0
ARC
  5
2E8
100
AcDbEntity
  8
0
370
    35
390
0
 62
     7
100
AcDbCircle
 10
207.413452
 20
148.923599
 30
0.0
 40
1.022717
210
0.0
220
0.0
230
1.0
100
AcDbArc
 50
276.998312
 51
331.798485
  0
LINE
  5
2E9
100
AcDbEntity
  8
0
370
    35
390
0
 62
     7
 48
0.001943
100
AcDbLine
 10
208.314667
 20
148.440353
 30
0.0
 11
208.348618
 21
148.510284
 31
0.0
210
0.0
220
0.0
230
1.0
  0
ARC
  5
2EA
100
AcDbEntity
  8
0
370
    35
390
0
 62
     7
100
AcDbCircle
 10
207.433624
 20
148.911285
 30
0.0
 40
0.999055
210
0.0
220
0.0
230
1.0
100
AcDbArc
 50
336.334424
 51
59.938387
  0
LINE
  5
2EB
100
AcDbEntity
  8
0
370
    35
390
0
 62
     7
 48
0.120512
100
AcDbLine
 10
207.934113
 20
149.775986
 30
0.0
 11
203.762848
 21
152.192093
 31
0.0
210
0.0
220
0.0
230
1.0
  0
ARC
  5
2EC
100
AcDbEntity
  8
0
370
    35
390
0
 62
     7
100
AcDbCircle
 10
196.692642
 20
151.728073
 30
0.0
 40
1.025324
210
0.0
220
0.0
230
1.0
100
AcDbArc
 50
44.009269
 51
93.67084
  0
ARC
  5
2ED
100
AcDbEntity
  8
0
370
    35
390
0
 62
     7
100
AcDbCircle
 10
214.166428
 20
-125.089828
 30
0.0
 40
278.394053
210
0.0
220
0.0
230
1.0
100
AcDbArc
 50
93.612148
 51
94.894782
  0
ARC
  5
2EE
100
AcDbEntity
  8
0
370
    35
390
0
 62
     7
100
AcDbCircle
 10
210.475784
 20
-80.954697
 30
0.0
 40
234.104797
210
0.0
220
0.0
230
1.0
100
AcDbArc
 50
94.916496
 51
95.705294
  0
ARC
  5
2EF
100
AcDbEntity
  8
0
370
    35
390
0
 62
     7
100
AcDbCircle
 10
187.306335
 20
150.965408
 30
0.0
 40
1.030209
210
0.0
220
0.0
230
1.0
100
AcDbArc
 50
95.756131
 51
120.740888
  0
ARC
  5
2F0
100
AcDbEntity
  8
0
370
    35
390
0
 62
     7
100
AcDbCircle
 10
187.292099
 20
150.991699
 30
0.0
 40
1.000324
210
0.0
220
0.0
230
1.0
100
AcDbArc
 50
123.588899
 51
206.680408
  0
LINE
  5
2F1
100
AcDbEntity
  8
0
370
    35
390
0
 62
     7
 48
0.001213
100
AcDbLine
 10
186.738693
 20
151.824997
 30
0.0
 11
186.779755
 21
151.850845
 31
0.0
210
0.0
220
0.0
230
1.0
  0
ARC
  5
2F2
100
AcDbEntity
  8
0
370
    35
390
0
 62
     7
100
AcDbCircle
 10
187.320969
 20
151.009048
 30
0.0
 40
1.033949
210
0.0
220
0.0
230
1.0
100
AcDbArc
 50
206.821069
 51
239.809202
  0
LINE
  5
2F3
100
AcDbEntity
  8
0
370
    35
390
0
 62
     7
 48
0.151526
100
AcDbLine
 10
192.045868
 20
147.077606
 30
0.0
 11
186.801025
 21
150.115372
 31
0.0
210
0.0
220
0.0
230
1.0
  0
ARC
  5
2F4
100
AcDbEntity
  8
0
370
    35
390
0
 62
     7
100
AcDbCircle
 10
193.048187
 20
148.807999
 30
0.0
 40
1.999726
210
0.0
220
0.0
230
1.0
100
AcDbArc
 50
239.918553
 51
283.68812
  0
ARC
  5
2F5
100
AcDbEntity
  8
0
370
    35
390
0
 62
     7
100
AcDbCircle
 10
193.034515
 20
148.861694
 30
0.0
 40
2.05514
210
0.0
220
0.0
230
1.0
100
AcDbArc
 50
283.704287
 51
315.546653
  0
ARC
  5
2F6
100
AcDbEntity
  8
0
370
    35
390
0
 62
     7
100
AcDbCircle
 10
193.0345
 20
148.862061
 30
0.0
 40
2.055411
210
0.0
220
0.0
230
1.0
100
AcDbArc
 50
315.539751
 51
321.18047
  0
LINE
  5
2F7
100
AcDbEntity
  8
0
370
    35
390
0
 62
     7
 48
0.113785
100
AcDbLine
 10
194.635925
 20
147.573578
 30
0.0
 11
197.489014
 21
151.119736
 31
0.0
210
0.0
220
0.0
230
1.0
  0
ARC
  5
2F8
100
AcDbEntity
  8
0
370
    35
390
0
 62
     7
100
AcDbCircle
 10
196.70993
 20
151.746628
 30
0.0
 40
0.999977
210
0.0
220
0.0
230
1.0
100
AcDbArc
 50
321.177915
 51
43.932952
  0
ARC
  5
2F9
100
AcDbEntity
  8
0
370
    35
390
0
 62
     7
100
AcDbCircle
 10
180.483459
 20
148.496185
 30
0.0
 40
2.057454
210
0.0
220
0.0
230
1.0
100
AcDbArc
 50
59.926666
 51
73.650941
  0
ARC
  5
2FA
100
AcDbEntity
  8
0
370
    35
390
0
 62
     7
100
AcDbCircle
 10
180.500061
 20
148.551147
 30
0.0
 40
2.000048
210
0.0
220
0.0
230
1.0
100
AcDbArc
 50
73.663816
 51
117.679419
  0
ARC
  5
2FB
100
AcDbEntity
  8
0
370
    35
390
0
 62
     7
100
AcDbCircle
 10
180.531494
 20
148.495132
 30
0.0
 40
2.06429
210
0.0
220
0.0
230
1.0
100
AcDbArc
 50
121.675941
 51
141.13377
  0
ARC
  5
2FC
100
AcDbEntity
  8
0
370
    35
390
0
 62
     7
100
AcDbCircle
 10
180.518417
 20
148.516525
 30
0.0
 40
2.039229
210
0.0
220
0.0
230
1.0
100
AcDbArc
 50
117.684269
 51
121.678768
  0
LINE
  5
2FD
100
AcDbEntity
  8
0
370
    35
390
0
 62
     7
 48
0.12031
100
AcDbLine
 10
175.907516
 20
146.040985
 30
0.0
 11
178.924225
 21
149.790466
 31
0.0
210
0.0
220
0.0
230
1.0
  0
ARC
  5
2FE
100
AcDbEntity
  8
0
370
    35
390
0
 62
     7
100
AcDbCircle
 10
176.712769
 20
145.395813
 30
0.0
 40
1.031859
210
0.0
220
0.0
230
1.0
100
AcDbArc
 50
141.297681
 51
176.549311
  0
ARC
  5
2FF
100
AcDbEntity
  8
0
370
    35
390
0
 62
     7
100
AcDbCircle
 10
176.680923
 20
145.401245
 30
0.0
 40
0.999714
210
0.0
220
0.0
230
1.0
100
AcDbArc
 50
176.751048
 51
260.077092
  0
ARC
  5
300
100
AcDbEntity
  8
0
370
    35
390
0
 62
     7
100
AcDbCircle
 10
176.685974
 20
145.430649
 30
0.0
 40
1.029561
210
0.0
220
0.0
230
1.0
100
AcDbArc
 50
260.082187
 51
275.414773
  0
ARC
  5
301
100
AcDbEntity
  8
0
370
    35
390
0
 62
     7
100
AcDbCircle
 10
114.903183
 20
789.891296
 30
0.0
 40
648.445354
210
0.0
220
0.0
230
1.0
100
AcDbArc
 50
275.475965
 51
276.322669
  0
ARC
  5
302
100
AcDbEntity
  8
0
370
    35
390
0
 62
     7
100
AcDbCircle
 10
186.203094
 20
146.409378
 30
0.0
 40
1.025749
210
0.0
220
0.0
230
1.0
100
AcDbArc
 50
276.261341
 51
311.753886
  0
ARC
  5
303
100
AcDbEntity
  8
0
370
    35
390
0
 62
     7
100
AcDbCircle
 10
186.209167
 20
146.402023
 30
0.0
 40
1.016176
210
0.0
220
0.0
230
1.0
100
AcDbArc
 50
311.774418
 51
335.711105
  0
ARC
  5
304
100
AcDbEntity
  8
0
370
    35
390
0
 62
     7
100
AcDbCircle
 10
186.224335
 20
146.393967
 30
0.0
 40
0.999087
210
0.0
220
0.0
230
1.0
100
AcDbArc
 50
335.77407
 51
59.938817
  0
LINE
  5
305
100
AcDbEntity
  8
0
370
    35
390
0
 62
     7
 48
0.150532
100
AcDbLine
 10
186.724823
 20
147.258713
 30
0.0
 11
181.514465
 21
150.276672
 31
0.0
210
0.0
220
0.0
230
1.0
  0
ARC
  5
306
100
AcDbEntity
  8
0
370
    35
390
0
 62
     7
100
AcDbCircle
 10
209.714447
 20
146.074387
 30
0.0
 40
38.748534
210
0.0
220
0.0
230
1.0
100
AcDbArc
 50
180.07051
 51
181.110502
  0
ARC
  5
307
100
AcDbEntity
  8
0
370
    35
390
0
 62
     7
100
AcDbCircle
 10
171.473404
 20
145.332184
 30
0.0
 40
0.500366
210
0.0
220
0.0
230
1.0
100
AcDbArc
 50
181.003801
 51
238.348047
  0
ARC
  5
308
100
AcDbEntity
  8
0
370
    35
390
0
 62
     7
100
AcDbCircle
 10
171.477722
 20
145.342056
 30
0.0
 40
0.511123
210
0.0
220
0.0
230
1.0
100
AcDbArc
 50
238.516643
 51
301.284265
  0
ARC
  5
309
100
AcDbEntity
  8
0
370
    35
390
0
 62
     7
100
AcDbCircle
 10
171.476028
 20
145.347275
 30
0.0
 40
0.51652
210
0.0
220
0.0
230
1.0
100
AcDbArc
 50
301.144164
 51
321.115593
  0
LINE
  5
30A
100
AcDbEntity
  8
0
370
    35
390
0
 62
     7
 48
0.107885
100
AcDbLine
 10
171.878098
 20
145.023026
 30
0.0
 11
174.584366
 21
148.384415
 31
0.0
210
0.0
220
0.0
230
1.0
  0
LINE
  5
30B
100
AcDbEntity
  8
0
370
    35
390
0
 62
     7
 48
0.006018
100
AcDbLine
 10
174.734589
 20
148.57251
 30
0.0
 11
174.584366
 21
148.384415
 31
0.0
210
0.0
220
0.0
230
1.0
  0
ARC
  5
30C
100
AcDbEntity
  8
0
370
    35
390
0
 62
     7
100
AcDbCircle
 10
173.953323
 20
149.191605
 30
0.0
 40
0.996819
210
0.0
220
0.0
230
1.0
100
AcDbArc
 50
321.605632
 51
25.661
  0
ARC
  5
30D
100
AcDbEntity
  8
0
370
    35
390
0
 62
     7
100
AcDbCircle
 10
173.930161
 20
149.175949
 30
0.0
 40
1.024772
210
0.0
220
0.0
230
1.0
100
AcDbArc
 50
25.889468
 51
99.966389
  0
ARC
  5
30E
100
AcDbEntity
  8
0
370
    35
390
0
 62
     7
100
AcDbCircle
 10
196.662384
 20
17.995953
 30
0.0
 40
134.160108
210
0.0
220
0.0
230
1.0
100
AcDbArc
 50
99.832203
 51
100.682002
  0
ARC
  5
30F
100
AcDbEntity
  8
0
370
    35
390
0
 62
     7
100
AcDbCircle
 10
171.984604
 20
148.819
 30
0.0
 40
1.029153
210
0.0
220
0.0
230
1.0
100
AcDbArc
 50
117.10944
 51
135.38745
  0
ARC
  5
310
100
AcDbEntity
  8
0
370
    35
390
0
 62
     7
100
AcDbCircle
 10
171.987396
 20
148.818527
 30
0.0
 40
1.03085
210
0.0
220
0.0
230
1.0
100
AcDbArc
 50
100.770842
 51
117.235525
  0
ARC
  5
311
100
AcDbEntity
  8
0
370
    35
390
0
 62
     7
100
AcDbCircle
 10
171.963333
 20
148.842697
 30
0.0
 40
0.997345
210
0.0
220
0.0
230
1.0
100
AcDbArc
 50
135.498358
 51
180.001866
  0
LINE
  5
312
100
AcDbEntity
  8
0
370
    35
390
0
 62
     7
 48
0.070399
100
AcDbLine
 10
170.965988
 20
148.842651
 30
0.0
 11
170.965988
 21
146.026703
 31
0.0
210
0.0
220
0.0
230
1.0
  0
ARC
  5
313
100
AcDbEntity
  8
0
370
    35
390
0
 62
     7
100
AcDbCircle
 10
163.938324
 20
146.980301
 30
0.0
 40
1.027096
210
0.0
220
0.0
230
1.0
100
AcDbArc
 50
56.309312
 51
105.501431
  0
ARC
  5
314
100
AcDbEntity
  8
0
370
    35
390
0
 62
     7
100
AcDbCircle
 10
182.965134
 20
78.198631
 30
0.0
 40
72.391954
210
0.0
220
0.0
230
1.0
100
AcDbArc
 50
105.463387
 51
106.308507
  0
ARC
  5
315
100
AcDbEntity
  8
0
370
    35
390
0
 62
     7
100
AcDbCircle
 10
162.92627
 20
146.689178
 30
0.0
 40
1.030109
210
0.0
220
0.0
230
1.0
100
AcDbArc
 50
106.319947
 51
115.118576
  0
LINE
  5
316
100
AcDbEntity
  8
0
370
    35
390
0
 62
     7
 48
0.001531
100
AcDbLine
 10
162.488998
 20
147.621872
 30
0.0
 11
162.434357
 21
147.594238
 31
0.0
210
0.0
220
0.0
230
1.0
  0
ARC
  5
317
100
AcDbEntity
  8
0
370
    35
390
0
 62
     7
100
AcDbCircle
 10
162.911484
 20
146.716766
 30
0.0
 40
0.998805
210
0.0
220
0.0
230
1.0
100
AcDbArc
 50
118.53475
 51
162.145412
  0
ARC
  5
318
100
AcDbEntity
  8
0
370
    35
390
0
 62
     7
100
AcDbCircle
 10
162.942825
 20
146.707123
 30
0.0
 40
1.031605
210
0.0
220
0.0
230
1.0
100
AcDbArc
 50
162.169509
 51
179.982629
  0
LINE
  5
319
100
AcDbEntity
  8
0
370
    35
390
0
 62
     7
 48
0.054976
100
AcDbLine
 10
161.911224
 20
146.707443
 30
0.0
 11
161.911224
 21
144.508392
 31
0.0
210
0.0
220
0.0
230
1.0
  0
LINE
  5
31A
100
AcDbEntity
  8
0
370
    35
390
0
 62
     7
 48
0.002913
100
AcDbLine
 10
161.911423
 20
144.391861
 30
0.0
 11
161.911224
 21
144.508392
 31
0.0
210
0.0
220
0.0
230
1.0
  0
ARC
  5
31B
100
AcDbEntity
  8
0
370
    35
390
0
 62
     7
100
AcDbCircle
 10
162.90976
 20
144.395279
 30
0.0
 40
0.998327
210
0.0
220
0.0
230
1.0
100
AcDbArc
 50
180.196418
 51
222.816142
  0
ARC
  5
31C
100
AcDbEntity
  8
0
370
    35
390
0
 62
     7
100
AcDbCircle
 10
162.929947
 20
144.415634
 30
0.0
 40
1.027024
210
0.0
220
0.0
230
1.0
100
AcDbArc
 50
222.883297
 51
272.332534
  0
LINE
  5
31D
100
AcDbEntity
  8
0
370
    35
390
0
 62
     7
 48
0.025515
100
AcDbLine
 10
162.971741
 20
143.389404
 30
0.0
 11
163.991364
 21
143.434036
 31
0.0
210
0.0
220
0.0
230
1.0
  0
ARC
  5
31E
100
AcDbEntity
  8
0
370
    35
390
0
 62
     7
100
AcDbCircle
 10
163.942642
 20
144.462997
 30
0.0
 40
1.030122
210
0.0
220
0.0
230
1.0
100
AcDbArc
 50
272.711535
 51
284.383112
  0
ARC
  5
31F
100
AcDbEntity
  8
0
370
    35
390
0
 62
     7
100
AcDbCircle
 10
163.950333
 20
144.432587
 30
0.0
 40
0.998736
210
0.0
220
0.0
230
1.0
100
AcDbArc
 50
300.2504
 51
335.599697
  0
ARC
  5
320
100
AcDbEntity
  8
0
370
    35
390
0
 62
     7
100
AcDbCircle
 10
163.950363
 20
144.43248
 30
0.0
 40
0.998639
210
0.0
220
0.0
230
1.0
100
AcDbArc
 50
284.388945
 51
300.252306
  0
ARC
  5
321
100
AcDbEntity
  8
0
370
    35
390
0
 62
     7
100
AcDbCircle
 10
163.918777
 20
144.445755
 30
0.0
 40
1.032937
210
0.0
220
0.0
230
1.0
100
AcDbArc
 50
335.65802
 51
359.957807
  0
LINE
  5
322
100
AcDbEntity
  8
0
370
    35
390
0
 62
     7
 48
0.063991
100
AcDbLine
 10
164.951706
 20
144.444992
 30
0.0
 11
164.951706
 21
147.004623
 31
0.0
210
0.0
220
0.0
230
1.0
  0
ARC
  5
323
100
AcDbEntity
  8
0
370
    35
390
0
 62
     7
100
AcDbCircle
 10
163.953201
 20
147.0047
 30
0.0
 40
0.998493
210
0.0
220
0.0
230
1.0
100
AcDbArc
 50
359.995246
 51
56.242759
  0
ARC
  5
324
100
AcDbEntity
  8
0
370
    35
390
0
 62
     7
100
AcDbCircle
 10
157.890381
 20
144.956192
 30
0.0
 40
1.026429
210
0.0
220
0.0
230
1.0
100
AcDbArc
 50
59.840223
 51
112.5062
  0
POLYLINE
  5
325
100
AcDbEntity
  8
0
370
    35
390
0
 62
     7
100
AcDb2dPolyline
 66
     1
 10
0.0
 20
0.0
 30
0.0
 71
     4
  0
VERTEX
  5
326
100
AcDbEntity
  8
0
370
     0
390
0
100
AcDbVertex
100
AcDb2dVertex
 10
153.644791
 20
143.951843
 30
0.0
  0
VERTEX
  5
327
100
AcDbEntity
  8
0
370
     0
390
0
100
AcDbVertex
100
AcDb2dVertex
 10
154.364777
 20
144.395401
 30
0.0
  0
VERTEX
  5
328
100
AcDbEntity
  8
0
370
     0
390
0
100
AcDbVertex
100
AcDb2dVertex
 10
155.121613
 20
144.808334
 30
0.0
  0
VERTEX
  5
329
100
AcDbEntity
  8
0
370
     0
390
0
100
AcDbVertex
100
AcDb2dVertex
 10
156.532913
 20
145.488373
 30
0.0
  0
SEQEND
  5
32A
100
AcDbEntity
  8
0
370
     0
390
0
  0
ARC
  5
32B
100
AcDbEntity
  8
0
370
    35
390
0
 62
     7
100
AcDbCircle
 10
170.52298
 20
114.384964
 30
0.0
 40
34.104906
210
0.0
220
0.0
230
1.0
100
AcDbArc
 50
112.452972
 51
114.217825
  0
ARC
  5
32C
100
AcDbEntity
  8
0
370
    35
390
0
 62
     7
100
AcDbCircle
 10
160.309311
 20
134.113098
 30
0.0
 40
11.883464
210
0.0
220
0.0
230
1.0
100
AcDbArc
 50
124.112761
 51
127.044497
  0
POLYLINE
  5
32D
100
AcDbEntity
  8
0
370
    35
390
0
 62
     7
100
AcDb2dPolyline
 66
     1
 10
0.0
 20
0.0
 30
0.0
 71
     4
  0
VERTEX
  5
32E
100
AcDbEntity
  8
0
370
     0
390
0
100
AcDbVertex
100
AcDb2dVertex
 10
153.150314
 20
143.598083
 30
0.0
  0
VERTEX
  5
32F
100
AcDbEntity
  8
0
370
     0
390
0
100
AcDbVertex
100
AcDb2dVertex
 10
153.863724
 20
143.508911
 30
0.0
  0
VERTEX
  5
330
100
AcDbEntity
  8
0
370
     0
390
0
100
AcDbVertex
100
AcDb2dVertex
 10
155.311859
 20
143.387238
 30
0.0
  0
VERTEX
  5
331
100
AcDbEntity
  8
0
370
     0
390
0
100
AcDbVertex
100
AcDb2dVertex
 10
157.482498
 20
143.303406
 30
0.0
  0
SEQEND
  5
332
100
AcDbEntity
  8
0
370
     0
390
0
  0
LINE
  5
333
100
AcDbEntity
  8
0
370
    35
390
0
 62
     7
 48
0.010267
100
AcDbLine
 10
157.482498
 20
143.303406
 30
0.0
 11
157.893173
 21
143.300171
 31
0.0
210
0.0
220
0.0
230
1.0
  0
ARC
  5
334
100
AcDbEntity
  8
0
370
    35
390
0
 62
     7
100
AcDbCircle
 10
157.892349
 20
144.297607
 30
0.0
 40
0.99743
210
0.0
220
0.0
230
1.0
100
AcDbArc
 50
270.047044
 51
297.180947
  0
LINE
  5
335
100
AcDbEntity
  8
0
370
    35
390
0
 62
     7
 48
0.000928
100
AcDbLine
 10
158.347977
 20
143.410324
 30
0.0
 11
158.380692
 21
143.427902
 31
0.0
210
0.0
220
0.0
230
1.0
  0
ARC
  5
336
100
AcDbEntity
  8
0
370
    35
390
0
 62
     7
100
AcDbCircle
 10
157.877151
 20
144.319839
 30
0.0
 40
1.024411
210
0.0
220
0.0
230
1.0
100
AcDbArc
 50
299.446999
 51
0.08196
  0
LINE
  5
337
100
AcDbEntity
  8
0
370
    35
390
0
 62
     7
 48
0.01649
100
AcDbLine
 10
158.901703
 20
144.321304
 30
0.0
 11
158.901703
 21
144.980896
 31
0.0
210
0.0
220
0.0
230
1.0
  0
ARC
  5
338
100
AcDbEntity
  8
0
370
    35
390
0
 62
     7
100
AcDbCircle
 10
157.903198
 20
144.980988
 30
0.0
 40
0.998498
210
0.0
220
0.0
230
1.0
100
AcDbArc
 50
359.994524
 51
59.761423
  0
LINE
  5
339
100
AcDbEntity
  8
0
370
    35
390
0
 62
     7
 48
0.006706
100
AcDbLine
 10
234.770798
 20
155.228149
 30
0.0
 11
234.770798
 21
155.496384
 31
0.0
210
0.0
220
0.0
230
1.0
  0
LINE
  5
33A
100
AcDbEntity
  8
0
370
    35
390
0
 62
     7
 48
0.010459
100
AcDbLine
 10
270.126953
 20
153.135834
 30
0.0
 11
269.853973
 21
153.452866
 31
0.0
210
0.0
220
0.0
230
1.0
  0
LINE
  5
33B
100
AcDbEntity
  8
0
370
    35
390
0
 62
     7
 48
0.014643
100
AcDbLine
 10
167.953461
 20
141.925781
 30
0.0
 11
167.45488
 21
141.618408
 31
0.0
210
0.0
220
0.0
230
1.0
  0
LINE
  5
33C
100
AcDbEntity
  8
0
370
    35
390
0
 62
     7
 48
0.006683
100
AcDbLine
 10
233.770798
 20
155.260757
 30
0.0
 11
233.770798
 21
155.528076
 31
0.0
210
0.0
220
0.0
230
1.0
  0
LINE
  5
33D
100
AcDbEntity
  8
0
370
    13
390
0
 62
     7
 48
0.007344
100
AcDbLine
 10
237.09169
 20
152.058212
 30
0.0
 11
237.083664
 21
152.351868
 31
0.0
210
0.0
220
0.0
230
1.0
  0
LINE
  5
33E
100
AcDbEntity
  8
0
370
    13
390
0
 62
     7
 48
0.007546
100
AcDbLine
 10
237.642441
 20
151.687637
 30
0.0
 11
237.626999
 21
151.98909
 31
0.0
210
0.0
220
0.0
230
1.0
  0
LINE
  5
33F
100
AcDbEntity
  8
0
370
    13
390
0
 62
     7
 48
0.007859
100
AcDbLine
 10
219.457443
 20
149.406296
 30
0.0
 11
219.550705
 21
149.706512
 31
0.0
210
0.0
220
0.0
230
1.0
  0
LINE
  5
340
100
AcDbEntity
  8
0
370
    13
390
0
 62
     7
 48
0.007542
100
AcDbLine
 10
225.116989
 20
150.120193
 30
0.0
 11
225.153793
 21
150.419617
 31
0.0
210
0.0
220
0.0
230
1.0
  0
LINE
  5
341
100
AcDbEntity
  8
0
370
    13
390
0
 62
     7
 48
0.007499
100
AcDbLine
 10
225.458237
 20
150.164505
 30
0.0
 11
225.491867
 21
150.462585
 31
0.0
210
0.0
220
0.0
230
1.0
  0
LINE
  5
342
100
AcDbEntity
  8
0
370
    13
390
0
 62
     7
 48
0.007914
100
AcDbLine
 10
208.487411
 20
152.357895
 30
0.0
 11
208.667603
 21
152.618164
 31
0.0
210
0.0
220
0.0
230
1.0
  0
LINE
  5
343
100
AcDbEntity
  8
0
370
    13
390
0
 62
     7
 48
0.007962
100
AcDbLine
 10
208.837219
 20
152.153397
 30
0.0
 11
209.015594
 21
152.417252
 31
0.0
210
0.0
220
0.0
230
1.0
  0
LINE
  5
344
100
AcDbEntity
  8
0
370
    13
390
0
 62
     7
 48
0.008122
100
AcDbLine
 10
213.135452
 20
149.664642
 30
0.0
 11
213.27565
 21
149.957703
 31
0.0
210
0.0
220
0.0
230
1.0
  0
LINE
  5
345
100
AcDbEntity
  8
0
370
    13
390
0
 62
     7
 48
0.008145
100
AcDbLine
 10
213.472702
 20
149.508331
 30
0.0
 11
213.610123
 21
149.803726
 31
0.0
210
0.0
220
0.0
230
1.0
  0
LINE
  5
346
100
AcDbEntity
  8
0
370
    13
390
0
 62
     7
 48
0.007822
100
AcDbLine
 10
215.721664
 20
150.150772
 30
0.0
 11
215.838058
 21
150.441193
 31
0.0
210
0.0
220
0.0
230
1.0
  0
LINE
  5
347
100
AcDbEntity
  8
0
370
    13
390
0
 62
     7
 48
0.00719
100
AcDbLine
 10
217.703354
 20
152.615555
 30
0.0
 11
217.793839
 21
152.88855
 31
0.0
210
0.0
220
0.0
230
1.0
  0
LINE
  5
348
100
AcDbEntity
  8
0
370
    13
390
0
 62
     7
 48
0.003917
100
AcDbLine
 10
201.172485
 20
151.707108
 30
0.0
 11
201.27533
 21
151.825317
 31
0.0
210
0.0
220
0.0
230
1.0
  0
LINE
  5
349
100
AcDbEntity
  8
0
370
    13
390
0
 62
     7
 48
0.009713
100
AcDbLine
 10
198.642151
 20
148.562164
 30
0.0
 11
198.905701
 21
148.84761
 31
0.0
210
0.0
220
0.0
230
1.0
  0
LINE
  5
34A
100
AcDbEntity
  8
0
370
    13
390
0
 62
     7
 48
0.009911
100
AcDbLine
 10
198.416077
 20
147.944168
 30
0.0
 11
198.686951
 21
148.233612
 31
0.0
210
0.0
220
0.0
230
1.0
  0
LINE
  5
34B
100
AcDbEntity
  8
0
370
    13
390
0
 62
     7
 48
0.010095
100
AcDbLine
 10
199.291931
 20
146.929825
 30
0.0
 11
199.560486
 21
147.231354
 31
0.0
210
0.0
220
0.0
230
1.0
  0
LINE
  5
34C
100
AcDbEntity
  8
0
370
    13
390
0
 62
     7
 48
0.010043
100
AcDbLine
 10
199.542175
 20
146.929337
 30
0.0
 11
199.807861
 21
147.230667
 31
0.0
210
0.0
220
0.0
230
1.0
  0
LINE
  5
34D
100
AcDbEntity
  8
0
370
    13
390
0
 62
     7
 48
0.008659
100
AcDbLine
 10
207.538071
 20
147.908401
 30
0.0
 11
207.71138
 21
148.208282
 31
0.0
210
0.0
220
0.0
230
1.0
  0
LINE
  5
34E
100
AcDbEntity
  8
0
370
    13
390
0
 62
     7
 48
0.011109
100
AcDbLine
 10
186.3983
 20
150.542542
 30
0.0
 11
186.764114
 21
150.794815
 31
0.0
210
0.0
220
0.0
230
1.0
  0
LINE
  5
34F
100
AcDbEntity
  8
0
370
    13
390
0
 62
     7
 48
0.011038
100
AcDbLine
 10
186.801025
 20
150.115372
 30
0.0
 11
187.160995
 21
150.371033
 31
0.0
210
0.0
220
0.0
230
1.0
  0
LINE
  5
350
100
AcDbEntity
  8
0
370
    13
390
0
 62
     7
 48
0.010652
100
AcDbLine
 10
192.045868
 20
147.077606
 30
0.0
 11
192.351913
 21
147.374069
 31
0.0
210
0.0
220
0.0
230
1.0
  0
LINE
  5
351
100
AcDbEntity
  8
0
370
    13
390
0
 62
     7
 48
0.010332
100
AcDbLine
 10
193.521408
 20
146.865082
 30
0.0
 11
193.81134
 21
147.159607
 31
0.0
210
0.0
220
0.0
230
1.0
  0
LINE
  5
352
100
AcDbEntity
  8
0
370
    13
390
0
 62
     7
 48
0.011951
100
AcDbLine
 10
178.924225
 20
149.790466
 30
0.0
 11
179.330566
 21
150.042297
 31
0.0
210
0.0
220
0.0
230
1.0
  0
LINE
  5
353
100
AcDbEntity
  8
0
370
    13
390
0
 62
     7
 48
0.013341
100
AcDbLine
 10
175.907516
 20
146.040985
 30
0.0
 11
176.359589
 21
146.324539
 31
0.0
210
0.0
220
0.0
230
1.0
  0
LINE
  5
354
100
AcDbEntity
  8
0
370
    13
390
0
 62
     7
 48
0.013537
100
AcDbLine
 10
175.682861
 20
145.457901
 30
0.0
 11
176.1418
 21
145.745239
 31
0.0
210
0.0
220
0.0
230
1.0
  0
LINE
  5
355
100
AcDbEntity
  8
0
370
    13
390
0
 62
     7
 48
0.01365
100
AcDbLine
 10
176.508652
 20
144.416473
 30
0.0
 11
176.965317
 21
144.715775
 31
0.0
210
0.0
220
0.0
230
1.0
  0
LINE
  5
356
100
AcDbEntity
  8
0
370
    13
390
0
 62
     7
 48
0.013583
100
AcDbLine
 10
176.783127
 20
144.405685
 30
0.0
 11
177.236649
 21
144.704865
 31
0.0
210
0.0
220
0.0
230
1.0
  0
LINE
  5
357
100
AcDbEntity
  8
0
370
    13
390
0
 62
     7
 48
0.011404
100
AcDbLine
 10
186.314972
 20
145.389725
 30
0.0
 11
186.658859
 21
145.689453
 31
0.0
210
0.0
220
0.0
230
1.0
  0
LINE
  5
358
100
AcDbEntity
  8
0
370
    13
390
0
 62
     7
 48
0.014144
100
AcDbLine
 10
170.965988
 20
146.026703
 30
0.0
 11
171.453461
 21
146.313828
 31
0.0
210
0.0
220
0.0
230
1.0
  0
LINE
  5
359
100
AcDbEntity
  8
0
370
    13
390
0
 62
     7
 48
0.014067
100
AcDbLine
 10
170.973114
 20
145.32341
 30
0.0
 11
171.453461
 21
145.616425
 31
0.0
210
0.0
220
0.0
230
1.0
  0
LINE
  5
35A
100
AcDbEntity
  8
0
370
    13
390
0
 62
     7
 48
0.013859
100
AcDbLine
 10
171.210831
 20
144.906235
 30
0.0
 11
171.683807
 21
145.195374
 31
0.0
210
0.0
220
0.0
230
1.0
  0
LINE
  5
35B
100
AcDbEntity
  8
0
370
    13
390
0
 62
     7
 48
0.013475
100
AcDbLine
 10
171.251999
 20
149.541763
 30
0.0
 11
171.732468
 21
149.786011
 31
0.0
210
0.0
220
0.0
230
1.0
  0
LINE
  5
35C
100
AcDbEntity
  8
0
370
    13
390
0
 62
     7
 48
0.013701
100
AcDbLine
 10
170.965988
 20
148.842651
 30
0.0
 11
171.453461
 21
149.093048
 31
0.0
210
0.0
220
0.0
230
1.0
  0
LINE
  5
35D
100
AcDbEntity
  8
0
370
    13
390
0
 62
     7
 48
0.003081
100
AcDbLine
 10
162.434357
 20
147.594238
 30
0.0
 11
162.545975
 21
147.646515
 31
0.0
210
0.0
220
0.0
230
1.0
  0
LINE
  5
35E
100
AcDbEntity
  8
0
370
    13
390
0
 62
     7
 48
0.01502
100
AcDbLine
 10
161.96077
 20
147.02301
 30
0.0
 11
162.50325
 21
147.281235
 31
0.0
210
0.0
220
0.0
230
1.0
  0
LINE
  5
35F
100
AcDbEntity
  8
0
370
    13
390
0
 62
     7
 48
0.015057
100
AcDbLine
 10
161.911224
 20
146.707443
 30
0.0
 11
162.453461
 21
146.96962
 31
0.0
210
0.0
220
0.0
230
1.0
  0
LINE
  5
360
100
AcDbEntity
  8
0
370
    13
390
0
 62
     7
 48
0.015363
100
AcDbLine
 10
161.911224
 20
144.508392
 30
0.0
 11
162.453461
 21
144.797516
 31
0.0
210
0.0
220
0.0
230
1.0
  0
LINE
  5
361
100
AcDbEntity
  8
0
370
    13
390
0
 62
     7
 48
0.015375
100
AcDbLine
 10
161.911423
 20
144.391861
 30
0.0
 11
162.453461
 21
144.682388
 31
0.0
210
0.0
220
0.0
230
1.0
  0
LINE
  5
362
100
AcDbEntity
  8
0
370
    13
390
0
 62
     7
 48
0.015257
100
AcDbLine
 10
162.177444
 20
143.716766
 30
0.0
 11
162.711746
 21
144.011673
 31
0.0
210
0.0
220
0.0
230
1.0
  0
LINE
  5
363
100
AcDbEntity
  8
0
370
    13
390
0
 62
     7
 48
0.014997
100
AcDbLine
 10
162.971741
 20
143.389404
 30
0.0
 11
163.494736
 21
143.683243
 31
0.0
210
0.0
220
0.0
230
1.0
  0
LINE
  5
364
100
AcDbEntity
  8
0
370
    13
390
0
 62
     7
 48
0.014734
100
AcDbLine
 10
163.991364
 20
143.434036
 30
0.0
 11
164.501862
 21
143.728516
 31
0.0
210
0.0
220
0.0
230
1.0
  0
LINE
  5
365
100
AcDbEntity
  8
0
370
    13
390
0
 62
     7
 48
0.013542
100
AcDbLine
 10
164.198532
 20
143.465164
 30
0.0
 11
164.667038
 21
143.737015
 31
0.0
210
0.0
220
0.0
230
1.0
  0
LINE
  5
366
100
AcDbEntity
  8
0
370
    35
390
0
 62
     7
 48
0.01703
100
AcDbLine
 10
153.644791
 20
143.951843
 30
0.0
 11
154.265137
 21
144.233292
 31
0.0
210
0.0
220
0.0
230
1.0
  0
LINE
  5
367
100
AcDbEntity
  8
0
370
    35
390
0
 62
     7
 48
0.016754
100
AcDbLine
 10
153.150314
 20
143.598083
 30
0.0
 11
153.758026
 21
143.880569
 31
0.0
210
0.0
220
0.0
230
1.0
  0
LINE
  5
368
100
AcDbEntity
  8
0
370
    13
390
0
 62
     7
 48
0.015666
100
AcDbLine
 10
157.482498
 20
143.303406
 30
0.0
 11
158.037704
 21
143.593994
 31
0.0
210
0.0
220
0.0
230
1.0
  0
LINE
  5
369
100
AcDbEntity
  8
0
370
    13
390
0
 62
     7
 48
0.015542
100
AcDbLine
 10
157.893173
 20
143.300171
 30
0.0
 11
158.443802
 21
143.58876
 31
0.0
210
0.0
220
0.0
230
1.0
  0
LINE
  5
36A
100
AcDbEntity
  8
0
370
    35
390
0
 62
     7
 48
0.016702
100
AcDbLine
 10
156.159637
 20
147.519958
 30
0.0
 11
156.772537
 21
147.785858
 31
0.0
210
0.0
220
0.0
230
1.0
  0
ENDSEC
  0
SECTION
  2
OBJECTS
  0
DICTIONARY
  5
19
100
AcDbDictionary
280
     0
281
     1
  3
ACAD_GROUP
350
1A
  3
ACAD_MLINESTYLE
350
1B
  3
ACAD_LAYOUT
350
1E
  3
ACAD_PLOTSETTINGS
350
22
  3
ACAD_PLOTSTYLENAME
350
1F
  3
ACAD_WIPEOUT_VARS
350
23
  0
DICTIONARY
  5
1A
102
{ACAD_REACTORS
330
19
102
}
100
AcDbDictionary
280
     0
281
     1
  0
DICTIONARY
  5
1B
102
{ACAD_REACTORS
330
19
102
}
100
AcDbDictionary
280
     0
281
     1
  3
Standard
350
1C
  0
MLINESTYLE
  5
1C
102
{ACAD_REACTORS
330
1B
102
}
100
AcDbMlineStyle
  2
Standard
 70
     0
  3

 62
     0
 51
90.0
 52
90.0
 71
     2
 49
0.5
 62
   256
  6
ByLayer
 49
-0.5
 62
   256
  6
ByLayer
  0
ACDBDICTIONARYWDFLT
  5
1F
102
{ACAD_REACTORS
330
19
102
}
100
AcDbDictionary
281
     1
  3
Normal
350
1D
100
AcDbDictionaryWithDefault
340
1D
  0
ACDBPLACEHOLDER
  5
1D
102
{ACAD_REACTORS
330
1F
102
}
  0
LAYOUT
  5
20
102
{ACAD_REACTORS
330
1E
102
}
100
AcDbPlotSettings
  1

  2

  4

  6

 40
0.0
 41
0.0
 42
0.0
 43
0.0
 44
0.0
 45
0.0
 46
0.0
 47
0.0
 48
0.0
 49
0.0
140
0.0
141
0.0
142
1.0
143
1.0
 70
  1024
 72
     0
 73
     0
 74
     0
  7

 75
     0
147
1.0
148
0.0
149
0.0
100
AcDbLayout
  1
Model
 70
     0
 71
     0
 10
0.0
 20
0.0
 11
0.0
 21
0.0
 12
0.0
 22
0.0
 32
0.0
 14
0.0
 24
0.0
 34
0.0
 15
0.0
 25
0.0
 35
0.0
146
0.0
 13
0.0
 23
0.0
 33
0.0
 16
0.0
 26
0.0
 36
0.0
 17
0.0
 27
0.0
 37
0.0
 76
     0
330
A
331
0
345
0
346
0
  0
LAYOUT
  5
21
102
{ACAD_REACTORS
330
1E
102
}
100
AcDbPlotSettings
  1

  2

  4

  6

 40
0.0
 41
0.0
 42
0.0
 43
0.0
 44
0.0
 45
0.0
 46
0.0
 47
0.0
 48
0.0
 49
0.0
140
0.0
141
0.0
142
1.0
143
1.0
 70
     0
 72
     0
 73
     0
 74
     0
  7

 75
     0
147
1.0
148
0.0
149
0.0
100
AcDbLayout
  1
Layout1
 70
     0
 71
     0
 10
0.0
 20
0.0
 11
0.0
 21
0.0
 12
0.0
 22
0.0
 32
0.0
 14
0.0
 24
0.0
 34
0.0
 15
0.0
 25
0.0
 35
0.0
146
0.0
 13
0.0
 23
0.0
 33
0.0
 16
0.0
 26
0.0
 36
0.0
 17
0.0
 27
0.0
 37
0.0
 76
     0
330
B
331
0
345
0
346
0
  0
DICTIONARY
  5
1E
102
{ACAD_REACTORS
330
19
102
}
100
AcDbDictionary
280
     0
281
     1
  3
Layout1
350
21
  3
Model
350
20
  0
DICTIONARY
  5
22
102
{ACAD_REACTORS
330
19
102
}
100
AcDbDictionary
280
     0
281
     1
  0
WIPEOUTVARIABLES
  5
23
100
AcDbWipeoutVariables
 70
     1
  0
ENDSEC
  0
EOF
