  0
SECTION
  2
HEADER
  9
$ACADVER
  1
AC1027
  9
$ACADMAINTVER
 70
   125
  9
$DWGCODEPAGE
  3
ANSI_1252
  9
$LASTSAVEDBY
  1
poojars
  9
$REQUIREDVERSIONS
160
                 0
  9
$INSBASE
 10
0.0
 20
0.0
 30
0.0
  9
$EXTMIN
 10
53.760517
 20
145.496694
 30
-15.932318
  9
$EXTMAX
 10
565.677605
 20
346.756284
 30
-5.384749
  9
$LIMMIN
 10
0.0
 20
0.0
  9
$LIMMAX
 10
594.0
 20
420.0
  9
$ORTHOMODE
 70
     0
  9
$REGENMODE
 70
     1
  9
$FILLMODE
 70
     1
  9
$QTEXTMODE
 70
     0
  9
$MIRRTEXT
 70
     0
  9
$LTSCALE
 40
0.75
  9
$ATTMODE
 70
     1
  9
$TEXTSIZE
 40
3.5
  9
$TRACEWID
 40
1.0
  9
$TEXTSTYLE
  7
Standard
  9
$CLAYER
  8
0
  9
$CELTYPE
  6
ByLayer
  9
$CECOLOR
 62
   256
  9
$CELTSCALE
 40
1.0
  9
$DISPSILH
 70
     0
  9
$DIMSCALE
 40
1.0
  9
$DIMASZ
 40
3.5
  9
$DIMEXO
 40
2.0
  9
$DIMDLI
 40
9.899495
  9
$DIMRND
 40
0.0
  9
$DIMDLE
 40
0.0
  9
$DIMEXE
 40
2.0
  9
$DIMTP
 40
0.1
  9
$DIMTM
 40
0.1
  9
$DIMTXT
 40
3.5
  9
$DIMCEN
 40
0.0
  9
$DIMTSZ
 40
0.0
  9
$DIMTOL
 70
     0
  9
$DIMLIM
 70
     0
  9
$DIMTIH
 70
     0
  9
$DIMTOH
 70
     0
  9
$DIMSE1
 70
     0
  9
$DIMSE2
 70
     0
  9
$DIMTAD
 70
     1
  9
$DIMZIN
 70
    12
  9
$DIMBLK
  1

  9
$DIMASO
 70
     1
  9
$DIMSHO
 70
     1
  9
$DIMPOST
  1

  9
$DIMAPOST
  1
in
  9
$DIMALT
 70
     0
  9
$DIMALTD
 70
     4
  9
$DIMALTF
 40
0.03937
  9
$DIMLFAC
 40
1.0
  9
$DIMTOFL
 70
     1
  9
$DIMTVP
 40
0.0
  9
$DIMTIX
 70
     0
  9
$DIMSOXD
 70
     0
  9
$DIMSAH
 70
     0
  9
$DIMBLK1
  1

  9
$DIMBLK2
  1

  9
$DIMSTYLE
  2
ISO-25
  9
$DIMCLRD
 70
   256
  9
$DIMCLRE
 70
   256
  9
$DIMCLRT
 70
   256
  9
$DIMTFAC
 40
0.714
  9
$DIMGAP
 40
1.5
  9
$DIMJUST
 70
     0
  9
$DIMSD1
 70
     0
  9
$DIMSD2
 70
     0
  9
$DIMTOLJ
 70
     0
  9
$DIMTZIN
 70
    12
  9
$DIMALTZ
 70
    12
  9
$DIMALTTZ
 70
    12
  9
$DIMUPT
 70
     0
  9
$DIMDEC
 70
     2
  9
$DIMTDEC
 70
     2
  9
$DIMALTU
 70
     2
  9
$DIMALTTD
 70
     4
  9
$DIMTXSTY
  7
Standard
  9
$DIMAUNIT
 70
     0
  9
$DIMADEC
 70
     2
  9
$DIMALTRND
 40
0.0
  9
$DIMAZIN
 70
     3
  9
$DIMDSEP
 70
    46
  9
$DIMATFIT
 70
     3
  9
$DIMFRAC
 70
     0
  9
$DIMLDRBLK
  1

  9
$DIMLUNIT
 70
     2
  9
$DIMLWD
 70
    -2
  9
$DIMLWE
 70
    -2
  9
$DIMTMOVE
 70
     0
  9
$DIMFXL
 40
1.0
  9
$DIMFXLON
 70
     0
  9
$DIMJOGANG
 40
0.785398
  9
$DIMTFILL
 70
     0
  9
$DIMTFILLCLR
 70
     0
  9
$DIMARCSYM
 70
     0
  9
$DIMLTYPE
  6

  9
$DIMLTEX1
  6

  9
$DIMLTEX2
  6

  9
$DIMTXTDIRECTION
 70
     0
  9
$LUNITS
 70
     2
  9
$LUPREC
 70
     4
  9
$SKETCHINC
 40
1.0
  9
$FILLETRAD
 40
0.0
  9
$AUNITS
 70
     0
  9
$AUPREC
 70
     0
  9
$MENU
  1
.
  9
$ELEVATION
 40
0.0
  9
$PELEVATION
 40
0.0
  9
$THICKNESS
 40
0.0
  9
$LIMCHECK
 70
     0
  9
$CHAMFERA
 40
0.0
  9
$CHAMFERB
 40
0.0
  9
$CHAMFERC
 40
0.0
  9
$CHAMFERD
 40
0.0
  9
$SKPOLY
 70
     0
  9
$TDCREATE
 40
2459384.851215278
  9
$TDUCREATE
 40
2459384.767881944
  9
$TDUPDATE
 40
2459384.851215278
  9
$TDUUPDATE
 40
2459384.767881944
  9
$TDINDWG
 40
0.0000000000
  9
$TDUSRTIMER
 40
0.0000000000
  9
$USRTIMER
 70
     1
  9
$ANGBASE
 50
0.0
  9
$ANGDIR
 70
     0
  9
$PDMODE
 70
     0
  9
$PDSIZE
 40
0.0
  9
$PLINEWID
 40
0.0
  9
$SPLFRAME
 70
     0
  9
$SPLINETYPE
 70
     6
  9
$SPLINESEGS
 70
     8
  9
$HANDSEED
  5
E9
  9
$SURFTAB1
 70
     6
  9
$SURFTAB2
 70
     6
  9
$SURFTYPE
 70
     6
  9
$SURFU
 70
     6
  9
$SURFV
 70
     6
  9
$UCSBASE
  2

  9
$UCSNAME
  2

  9
$UCSORG
 10
0.0
 20
0.0
 30
0.0
  9
$UCSXDIR
 10
1.0
 20
0.0
 30
0.0
  9
$UCSYDIR
 10
0.0
 20
1.0
 30
0.0
  9
$UCSORTHOREF
  2

  9
$UCSORTHOVIEW
 70
     0
  9
$UCSORGTOP
 10
0.0
 20
0.0
 30
0.0
  9
$UCSORGBOTTOM
 10
0.0
 20
0.0
 30
0.0
  9
$UCSORGLEFT
 10
0.0
 20
0.0
 30
0.0
  9
$UCSORGRIGHT
 10
0.0
 20
0.0
 30
0.0
  9
$UCSORGFRONT
 10
0.0
 20
0.0
 30
0.0
  9
$UCSORGBACK
 10
0.0
 20
0.0
 30
0.0
  9
$PUCSBASE
  2

  9
$PUCSNAME
  2

  9
$PUCSORG
 10
0.0
 20
0.0
 30
0.0
  9
$PUCSXDIR
 10
1.0
 20
0.0
 30
0.0
  9
$PUCSYDIR
 10
0.0
 20
1.0
 30
0.0
  9
$PUCSORTHOREF
  2

  9
$PUCSORTHOVIEW
 70
     0
  9
$PUCSORGTOP
 10
0.0
 20
0.0
 30
0.0
  9
$PUCSORGBOTTOM
 10
0.0
 20
0.0
 30
0.0
  9
$PUCSORGLEFT
 10
0.0
 20
0.0
 30
0.0
  9
$PUCSORGRIGHT
 10
0.0
 20
0.0
 30
0.0
  9
$PUCSORGFRONT
 10
0.0
 20
0.0
 30
0.0
  9
$PUCSORGBACK
 10
0.0
 20
0.0
 30
0.0
  9
$USERI1
 70
     0
  9
$USERI2
 70
     0
  9
$USERI3
 70
     0
  9
$USERI4
 70
     0
  9
$USERI5
 70
     0
  9
$USERR1
 40
0.0
  9
$USERR2
 40
0.0
  9
$USERR3
 40
0.0
  9
$USERR4
 40
0.0
  9
$USERR5
 40
0.0
  9
$WORLDVIEW
 70
     1
  9
$SHADEDGE
 70
     3
  9
$SHADEDIF
 70
    70
  9
$TILEMODE
 70
     1
  9
$MAXACTVP
 70
    64
  9
$PINSBASE
 10
0.0
 20
0.0
 30
0.0
  9
$PLIMCHECK
 70
     0
  9
$PEXTMIN
 10
1.000000E+20
 20
1.000000E+20
 30
1.000000E+20
  9
$PEXTMAX
 10
-1.000000E+20
 20
-1.000000E+20
 30
-1.000000E+20
  9
$PLIMMIN
 10
0.0
 20
0.0
  9
$PLIMMAX
 10
12.0
 20
9.0
  9
$UNITMODE
 70
     0
  9
$VISRETAIN
 70
     1
  9
$PLINEGEN
 70
     0
  9
$PSLTSCALE
 70
     1
  9
$TREEDEPTH
 70
  3020
  9
$CMLSTYLE
  2
Standard
  9
$CMLJUST
 70
     0
  9
$CMLSCALE
 40
20.0
  9
$PROXYGRAPHICS
 70
     1
  9
$MEASUREMENT
 70
     1
  9
$CELWEIGHT
370
    -1
  9
$ENDCAPS
280
     0
  9
$JOINSTYLE
280
     0
  9
$LWDISPLAY
290
     0
  9
$INSUNITS
 70
     4
  9
$HYPERLINKBASE
  1

  9
$STYLESHEET
  1

  9
$XEDIT
290
     1
  9
$CEPSNTYPE
380
     0
  9
$PSTYLEMODE
290
     1
  9
$FINGERPRINTGUID
  2
{E9379BE3-217F-954F-A40C-A7123432A420}
  9
$VERSIONGUID
  2
{D8209065-B253-3D48-9AB1-080A3A522D11}
  9
$EXTNAMES
290
     1
  9
$PSVPSCALE
 40
0.0
  9
$OLESTARTUP
290
     0
  9
$SORTENTS
280
   127
  9
$INDEXCTL
280
     0
  9
$HIDETEXT
280
     1
  9
$XCLIPFRAME
280
     0
  9
$HALOGAP
280
     0
  9
$OBSCOLOR
 70
   257
  9
$OBSLTYPE
280
     0
  9
$INTERSECTIONDISPLAY
280
     0
  9
$INTERSECTIONCOLOR
 70
   257
  9
$DIMASSOC
280
     2
  9
$PROJECTNAME
  1

  9
$CAMERADISPLAY
290
     0
  9
$LENSLENGTH
 40
50.0
  9
$CAMERAHEIGHT
 40
0.0
  9
$STEPSPERSEC
 40
2.0
  9
$STEPSIZE
 40
6.0
  9
$3DDWFPREC
 40
2.0
  9
$PSOLWIDTH
 40
5.0
  9
$PSOLHEIGHT
 40
80.0
  9
$LOFTANG1
 40
1.570796
  9
$LOFTANG2
 40
1.570796
  9
$LOFTMAG1
 40
0.0
  9
$LOFTMAG2
 40
0.0
  9
$LOFTPARAM
 70
     7
  9
$LOFTNORMALS
280
     1
  9
$LATITUDE
 40
37.795
  9
$LONGITUDE
 40
-122.394
  9
$NORTHDIRECTION
 40
0.0
  9
$TIMEZONE
 70
 -8000
  9
$LIGHTGLYPHDISPLAY
280
     1
  9
$TILEMODELIGHTSYNCH
280
     1
  9
$CMATERIAL
347
11
  9
$SOLIDHIST
280
     0
  9
$SHOWHIST
280
     1
  9
$DWFFRAME
280
     2
  9
$DGNFRAME
280
     0
  9
$REALWORLDSCALE
290
     1
  9
$INTERFERECOLOR
 62
     1
  9
$INTERFEREOBJVS
345
33
  9
$INTERFEREVPVS
346
30
  9
$CSHADOW
280
     0
  9
$SHADOWPLANELOCATION
 40
0.0
  0
ENDSEC
  0
SECTION
  2
CLASSES
  0
CLASS
  1
ACDBDICTIONARYWDFLT
  2
AcDbDictionaryWithDefault
  3
ObjectDBX Classes
 90
        0
 91
        1
280
     0
281
     0
  0
CLASS
  1
MATERIAL
  2
AcDbMaterial
  3
ObjectDBX Classes
 90
     1153
 91
        3
280
     0
281
     0
  0
CLASS
  1
VISUALSTYLE
  2
AcDbVisualStyle
  3
ObjectDBX Classes
 90
     4095
 91
       24
280
     0
281
     0
  0
CLASS
  1
SCALE
  2
AcDbScale
  3
ObjectDBX Classes
 90
     1153
 91
       17
280
     0
281
     0
  0
CLASS
  1
TABLESTYLE
  2
AcDbTableStyle
  3
ObjectDBX Classes
 90
     4095
 91
        1
280
     0
281
     0
  0
CLASS
  1
MLEADERSTYLE
  2
AcDbMLeaderStyle
  3
ACDB_MLEADERSTYLE_CLASS
 90
     4095
 91
        1
280
     0
281
     0
  0
CLASS
  1
ACDBSECTIONVIEWSTYLE
  2
AcDbSectionViewStyle
  3
ObjectDBX Classes
 90
     1025
 91
        1
280
     0
281
     0
  0
CLASS
  1
ACDBDETAILVIEWSTYLE
  2
AcDbDetailViewStyle
  3
ObjectDBX Classes
 90
     1025
 91
        1
280
     0
281
     0
  0
CLASS
  1
ACMESCOPE
  2
AcMeScope
  3
AcMeServices
 90
     1024
 91
        1
280
     0
281
     0
  0
CLASS
  1
ACMECOMMANDHISTORY
  2
AcMeCommandHistory
  3
AcMeServices
 90
     1024
 91
        1
280
     0
281
     0
  0
CLASS
  1
ACIMSYSVARMAN
  2
AcImSysVarManager
  3
AcMeServices
 90
     1024
 91
        1
280
     0
281
     0
  0
CLASS
  1
ACIMINTSYSVAR
  2
AcImIntSysVar
  3
AcMeServices
 90
     1024
 91
        1
280
     0
281
     0
  0
CLASS
  1
ACMESTATEMGR
  2
AcMeStateMgr
  3
AcMeServices
 90
     1024
 91
        1
280
     0
281
     0
  0
CLASS
  1
ACGREFMASTER
  2
AcGrefMaster
  3
AcAttribServices
 90
     1024
 91
        1
280
     0
281
     0
  0
CLASS
  1
SORTENTSTABLE
  2
AcDbSortentsTable
  3
ObjectDBX Classes
 90
        0
 91
        1
280
     0
281
     0
  0
CLASS
  1
DICTIONARYVAR
  2
AcDbDictionaryVar
  3
ObjectDBX Classes
 90
        0
 91
        6
280
     0
281
     0
  0
CLASS
  1
CELLSTYLEMAP
  2
AcDbCellStyleMap
  3
ObjectDBX Classes
 90
     1152
 91
        1
280
     0
281
     0
  0
ENDSEC
  0
SECTION
  2
TABLES
  0
TABLE
  2
VPORT
  5
8
330
0
100
AcDbSymbolTable
 70
     1
1001
ACAD
1000
DbSaveVer
1071
      246
  0
VPORT
  5
57
330
8
100
AcDbSymbolTableRecord
100
AcDbViewportTableRecord
  2
*Active
 70
     0
 10
0.0
 20
0.0
 11
1.0
 21
1.0
 12
309.719061
 22
246.126489
 13
0.0
 23
0.0
 14
0.5
 24
0.5
 15
0.0
 25
0.0
 16
0.0
 26
0.0
 36
1.0
 17
0.0
 27
0.0
 37
0.0
 40
227.429832
 41
2.250879
 42
50.0
 43
0.0
 44
0.0
 50
0.0
 51
0.0
 71
     0
 72
 20000
 73
     1
 74
     0
 75
     0
 76
     0
 77
     0
 78
     0
281
     0
 65
     1
110
0.0
120
0.0
130
0.0
111
1.0
121
0.0
131
0.0
112
0.0
122
1.0
132
0.0
 79
     0
146
0.0
348
2F
 60
     3
 61
     5
292
     1
282
     1
141
0.0
142
0.0
 63
   250
421
  3355443
  0
ENDTAB
  0
TABLE
  2
LTYPE
  5
5
330
0
100
AcDbSymbolTable
 70
    14
  0
LTYPE
  5
5B
330
5
100
AcDbSymbolTableRecord
100
AcDbLinetypeTableRecord
  2
ByBlock
 70
     0
  3

 72
    65
 73
     0
 40
0.0
  0
LTYPE
  5
5C
330
5
100
AcDbSymbolTableRecord
100
AcDbLinetypeTableRecord
  2
ByLayer
 70
     0
  3

 72
    65
 73
     0
 40
0.0
  0
LTYPE
  5
5D
330
5
100
AcDbSymbolTableRecord
100
AcDbLinetypeTableRecord
  2
Continuous
 70
     0
  3
Solid line
 72
    65
 73
     0
 40
0.0
  0
LTYPE
  5
80
330
5
100
AcDbSymbolTableRecord
100
AcDbLinetypeTableRecord
  2
HIDDEN
 70
     0
  3
Hidden __ __ __ __ __ __ __ __ __ __ __ __ __ _
 72
    65
 73
     2
 40
9.525
 49
6.35
 74
     0
 49
-3.175
 74
     0
  0
LTYPE
  5
81
330
5
100
AcDbSymbolTableRecord
100
AcDbLinetypeTableRecord
  2
PHANTOM2
 70
     0
  3
Phantom (.5x) ___ _ _ ___ _ _ ___ _ _ ___ _ _
 72
    65
 73
     6
 40
31.75
 49
15.875
 74
     0
 49
-3.175
 74
     0
 49
3.175
 74
     0
 49
-3.175
 74
     0
 49
3.175
 74
     0
 49
-3.175
 74
     0
  0
LTYPE
  5
82
330
5
100
AcDbSymbolTableRecord
100
AcDbLinetypeTableRecord
  2
CENTER
 70
     0
  3
Center ____ _ ____ _ ____ _ ____ _ ____ _ ____
 72
    65
 73
     4
 40
50.8
 49
31.75
 74
     0
 49
-6.35
 74
     0
 49
6.35
 74
     0
 49
-6.35
 74
     0
  0
LTYPE
  5
91
330
5
100
AcDbSymbolTableRecord
100
AcDbLinetypeTableRecord
  2
AM_ISO02W050
 70
     0
  3
__ __ __ __ __ __ __ __ __ __ __ __ __ __ __
 72
    65
 73
     2
 40
7.5
 49
6.0
 74
     0
 49
-1.5
 74
     0
  0
LTYPE
  5
92
330
5
100
AcDbSymbolTableRecord
100
AcDbLinetypeTableRecord
  2
AM_ISO08W050
 70
     0
  3
____ . ____ . ____ . ____ . ____ . ____ . ____
 72
    65
 73
     4
 40
18.0
 49
12.0
 74
     0
 49
-1.5
 74
     0
 49
3.0
 74
     0
 49
-1.5
 74
     0
  0
LTYPE
  5
93
330
5
100
AcDbSymbolTableRecord
100
AcDbLinetypeTableRecord
  2
AM_ISO09W050
 70
     0
  3
_____ . . _____ . . _____ . . ____ .. ____
 72
    65
 73
     6
 40
22.5
 49
12.0
 74
     0
 49
-1.5
 74
     0
 49
3.0
 74
     0
 49
-1.5
 74
     0
 49
3.0
 74
     0
 49
-1.5
 74
     0
  0
LTYPE
  5
94
330
5
100
AcDbSymbolTableRecord
100
AcDbLinetypeTableRecord
  2
Amconstr
 70
     0
  3
_______________________
 72
    65
 73
     2
 40
9999.0
 49
9999.0
 74
     0
 49
0.0
 74
     0
  0
LTYPE
  5
95
330
5
100
AcDbSymbolTableRecord
100
AcDbLinetypeTableRecord
  2
AM_ISO08W050x2
 70
     0
  3
__ . __ . __ . __ . __ . __
 72
    65
 73
     4
 40
9.0
 49
6.0
 74
     0
 49
-0.75
 74
     0
 49
1.5
 74
     0
 49
-0.75
 74
     0
  0
LTYPE
  5
96
330
5
100
AcDbSymbolTableRecord
100
AcDbLinetypeTableRecord
  2
AM_ISO02W050x2
 70
     0
  3
 _ _ _ _ _ _ _ _ _ _ _ _
 72
    65
 73
     2
 40
3.75
 49
3.0
 74
     0
 49
-0.75
 74
     0
  0
LTYPE
  5
97
330
5
100
AcDbSymbolTableRecord
100
AcDbLinetypeTableRecord
  2
Amzigzag
 70
     0
  3
/\/-/\/-/\/-/\/-/\/-/\/
 72
    65
 73
     2
 40
11.0001
 49
0.0001
 74
     4
 75
   136
340
8E
 46
0.04
 50
0.0
 44
0.0
 45
0.0
 49
-11.0
 74
     0
  0
LTYPE
  5
98
330
5
100
AcDbSymbolTableRecord
100
AcDbLinetypeTableRecord
  2
ACISOWELD
 70
     0
  3
_ _ _ _ _
 72
    65
 73
     2
 40
2.0
 49
2.0
 74
     0
 49
-1.0
 74
     0
  0
LTYPE
  5
99
330
5
100
AcDbSymbolTableRecord
100
AcDbLinetypeTableRecord
  2
ACISOTGL
 70
     0
  3
_ _ _ _ _
 72
    65
 73
     2
 40
3.0
 49
2.0
 74
     0
 49
-1.0
 74
     0
  0
LTYPE
  5
9A
330
5
100
AcDbSymbolTableRecord
100
AcDbLinetypeTableRecord
  2
ACISOTGB
 70
     0
  3
__ . . __ . .
 72
    65
 73
     6
 40
9.0
 49
4.0
 74
     0
 49
-1.0
 74
     0
 49
1.0
 74
     0
 49
-1.0
 74
     0
 49
1.0
 74
     0
 49
-1.0
 74
     0
  0
ENDTAB
  0
TABLE
  2
LAYER
  5
2
330
0
100
AcDbSymbolTable
 70
     3
  0
LAYER
  5
54
330
2
100
AcDbSymbolTableRecord
100
AcDbLayerTableRecord
  2
0
 70
     0
 62
     7
  6
Continuous
370
    -3
390
F
347
21
348
0
1001
AcAecLayerStandard
1000

1000

  0
LAYER
  5
A5
330
2
100
AcDbSymbolTableRecord
100
AcDbLayerTableRecord
  2
Visible
 70
     0
 62
     7
  6
Continuous
370
    50
390
F
347
21
348
0
  0
ENDTAB
  0
TABLE
  2
STYLE
  5
3
330
0
100
AcDbSymbolTable
 70
     4
  0
STYLE
  5
55
330
3
100
AcDbSymbolTableRecord
100
AcDbTextStyleTableRecord
  2
Standard
 70
     0
 40
0.0
 41
1.0
 50
0.0
 71
     0
 42
3.5
  3
arial.ttf
  4

1001
ACAD
1000
Arial
1071
       34
  0
STYLE
  5
5A
330
3
100
AcDbSymbolTableRecord
100
AcDbTextStyleTableRecord
  2
Annotative
 70
     0
 40
0.0
 41
1.0
 50
0.0
 71
     0
 42
0.2
  3
txt
  4

1001
AcadAnnotative
1000
AnnotativeData
1002
{
1070
     1
1070
     1
1002
}
  0
STYLE
  5
8E
330
3
100
AcDbSymbolTableRecord
100
AcDbTextStyleTableRecord
  2

 70
     1
 40
0.0
 41
1.0
 50
0.0
 71
     0
 42
10.0
  3
genltshp.shx
  4

  0
STYLE
  5
8F
330
3
100
AcDbSymbolTableRecord
100
AcDbTextStyleTableRecord
  2
ACISOGDT
 70
     0
 40
0.0
 41
1.0
 50
0.0
 71
     0
 42
10.0
  3
amgdt.shx
  4

  0
ENDTAB
  0
TABLE
  2
VIEW
  5
6
330
0
100
AcDbSymbolTable
 70
     0
  0
ENDTAB
  0
TABLE
  2
UCS
  5
7
330
0
100
AcDbSymbolTable
 70
     0
  0
ENDTAB
  0
TABLE
  2
APPID
  5
9
330
0
100
AcDbSymbolTable
 70
    17
  0
APPID
  5
56
330
9
100
AcDbSymbolTableRecord
100
AcDbRegAppTableRecord
  2
ACAD
 70
     0
  0
APPID
  5
5E
330
9
100
AcDbSymbolTableRecord
100
AcDbRegAppTableRecord
  2
AcadAnnotative
 70
     0
  0
APPID
  5
78
330
9
100
AcDbSymbolTableRecord
100
AcDbRegAppTableRecord
  2
ACAD_PSEXT
 70
     0
  0
APPID
  5
79
330
9
100
AcDbSymbolTableRecord
100
AcDbRegAppTableRecord
  2
MCAD_NO_VIS
 70
     0
  0
APPID
  5
7A
330
9
100
AcDbSymbolTableRecord
100
AcDbRegAppTableRecord
  2
ACAD_TEMP_GRAPHIC
 70
     0
  0
APPID
  5
83
330
9
100
AcDbSymbolTableRecord
100
AcDbRegAppTableRecord
  2
ACAD_DSTYLE_DIMJAG
 70
     0
  0
APPID
  5
84
330
9
100
AcDbSymbolTableRecord
100
AcDbRegAppTableRecord
  2
ACAD_DSTYLE_DIMTALN
 70
     0
  0
APPID
  5
85
330
9
100
AcDbSymbolTableRecord
100
AcDbRegAppTableRecord
  2
ACAD_NAV_VCDISPLAY
 70
     0
  0
APPID
  5
86
330
9
100
AcDbSymbolTableRecord
100
AcDbRegAppTableRecord
  2
ACAD_DSTYLE_DIMBREAK
 70
     0
  0
APPID
  5
87
330
9
100
AcDbSymbolTableRecord
100
AcDbRegAppTableRecord
  2
FUSIONCURRENTTITLEBLOCK
 70
     0
  0
APPID
  5
88
330
9
100
AcDbSymbolTableRecord
100
AcDbRegAppTableRecord
  2
AcSynergy
 70
     0
  0
APPID
  5
89
330
9
100
AcDbSymbolTableRecord
100
AcDbRegAppTableRecord
  2
ACAD_VIEW_EDGE_ID
 70
     0
  0
APPID
  5
8A
330
9
100
AcDbSymbolTableRecord
100
AcDbRegAppTableRecord
  2
GENIUS_GENSCREG_15
 70
     0
  0
APPID
  5
8B
330
9
100
AcDbSymbolTableRecord
100
AcDbRegAppTableRecord
  2
GENIUS_GENOBJ-N-SDF_13
 70
     0
  0
APPID
  5
8C
330
9
100
AcDbSymbolTableRecord
100
AcDbRegAppTableRecord
  2
GENIUS_GENODEF_13
 70
     0
  0
APPID
  5
8D
330
9
100
AcDbSymbolTableRecord
100
AcDbRegAppTableRecord
  2
ACATTRIBSERVICES
 70
     0
  0
APPID
  5
DA
330
9
100
AcDbSymbolTableRecord
100
AcDbRegAppTableRecord
  2
AcAecLayerStandard
 70
     0
  0
ENDTAB
  0
TABLE
  2
DIMSTYLE
  5
A
330
0
100
AcDbSymbolTable
 70
     3
100
AcDbDimStyleTable
 71
     1
340
9D
  0
DIMSTYLE
105
58
330
A
100
AcDbSymbolTableRecord
100
AcDbDimStyleTableRecord
  2
Standard
 70
     0
 43
9.899495
 78
    12
 79
     3
140
3.5
179
     2
271
     2
272
     2
284
    12
285
    12
286
    12
340
55
  0
DIMSTYLE
105
59
330
A
100
AcDbSymbolTableRecord
100
AcDbDimStyleTableRecord
  2
Annotative
 70
     0
 40
0.0
 41
2.5
 42
0.625
 43
9.899495
 44
1.25
 73
     0
 74
     0
 77
     1
 78
    12
 79
     3
140
3.5
141
2.5
143
0.03937
147
0.625
171
     3
172
     1
179
     2
271
     2
272
     2
274
     3
278
    44
283
     0
284
    12
285
    12
286
    12
340
55
1001
AcadAnnotative
1000
AnnotativeData
1002
{
1070
     1
1070
     1
1002
}
  0
DIMSTYLE
105
9D
330
A
100
AcDbSymbolTableRecord
100
AcDbDimStyleTableRecord
  2
ISO-25
 70
     0
  4
in
 41
3.5
 42
2.0
 43
9.899495
 44
2.0
 47
0.1
 48
0.1
 73
     0
 74
     0
 77
     1
 78
    12
 79
     3
140
3.5
141
0.0
143
0.03937
146
0.714
147
1.5
171
     4
172
     1
176
   256
177
   256
178
   256
179
     2
271
     2
272
     2
274
     4
283
     0
284
    12
285
    12
286
    12
340
55
1001
ACAD_DSTYLE_DIMBREAK
1070
   391
1040
3.5
1001
ACAD_DSTYLE_DIMJAG
1070
   388
1040
1.5
1001
ACAD_DSTYLE_DIMTALN
1070
   392
1070
     1
  0
ENDTAB
  0
TABLE
  2
BLOCK_RECORD
  5
1
330
0
100
AcDbSymbolTable
 70
     2
  0
BLOCK_RECORD
  5
70
102
{ACAD_XDICTIONARY
360
9E
102
}
330
1
100
AcDbSymbolTableRecord
100
AcDbBlockTableRecord
  2
*Model_Space
340
73
 70
     0
280
     1
281
     0
  0
BLOCK_RECORD
  5
6C
330
1
100
AcDbSymbolTableRecord
100
AcDbBlockTableRecord
  2
*Paper_Space
340
6F
 70
     0
280
     1
281
     0
  0
BLOCK_RECORD
  5
74
330
1
100
AcDbSymbolTableRecord
100
AcDbBlockTableRecord
  2
*Paper_Space0
340
77
 70
     0
280
     1
281
     0
  0
ENDTAB
  0
ENDSEC
  0
SECTION
  2
BLOCKS
  0
BLOCK
  5
71
330
70
100
AcDbEntity
  8
0
100
AcDbBlockBegin
  2
*Model_Space
 70
     0
 10
0.0
 20
0.0
 30
0.0
  3
*Model_Space
  1

  0
ENDBLK
  5
72
330
70
100
AcDbEntity
  8
0
100
AcDbBlockEnd
  0
BLOCK
  5
6D
330
6C
100
AcDbEntity
 67
     1
  8
0
100
AcDbBlockBegin
  2
*Paper_Space
 70
     0
 10
0.0
 20
0.0
 30
0.0
  3
*Paper_Space
  1

  0
ENDBLK
  5
6E
330
6C
100
AcDbEntity
 67
     1
  8
0
100
AcDbBlockEnd
  0
BLOCK
  5
75
330
74
100
AcDbEntity
 67
     1
  8
0
100
AcDbBlockBegin
  2
*Paper_Space0
 70
     0
 10
0.0
 20
0.0
 30
0.0
  3
*Paper_Space0
  1

  0
ENDBLK
  5
76
330
74
100
AcDbEntity
 67
     1
  8
0
100
AcDbBlockEnd
  0
ENDSEC
  0
SECTION
  2
ENTITIES
  0
SPLINE
  5
C0
330
70
100
AcDbEntity
  8
Visible
100
AcDbSpline
 70
     0
 71
     3
 72
    18
 73
    14
 74
     0
 42
0.000000001
 43
0.0000000001
 40
0.0
 40
0.0
 40
0.0
 40
0.0
 40
10.41393545553514
 40
10.41393545553514
 40
12.96572311122814
 40
12.96572311122814
 40
15.92055693575482
 40
15.92055693575482
 40
18.91545239946391
 40
18.91545239946391
 40
20.3718553610356
 40
20.3718553610356
 40
22.39474098676576
 40
22.39474098676576
 40
22.39474098676576
 40
22.39474098676576
 10
309.7190609675981
 20
346.7562233109693
 30
-5.384752502120228
 10
275.0059427825345
 20
346.756284479965
 30
-5.38474929638906
 10
249.8077081128467
 20
341.6624514581908
 30
-5.651705773098811
 10
205.4521197382546
 20
332.0440986249778
 30
-6.155782285448303
 10
197.0396057337184
 20
330.2046988877337
 30
-6.252181141089394
 10
170.3201983551171
 20
324.5800338648169
 30
-6.546957344151451
 10
158.4063027782231
 20
322.1421534245073
 30
-6.674721243987342
 10
135.2610918755235
 20
315.8007615002898
 30
-7.00705951229893
 10
123.2137534449375
 20
311.7299923910687
 30
-7.220399481287202
 10
105.1258997758614
 20
300.1751024374353
 30
-7.825965603617042
 10
99.77959404204376
 20
295.8658190092247
 30
-8.051805579781699
 10
88.01366363594388
 20
284.0257275271342
 30
-8.672318480866081
 10
83.46872568471736
 20
277.3777552434985
 30
-9.020723943595825
 10
80.91906096759704
 20
273.3759326912132
 30
-9.230450576645935
1001
ACAD_VIEW_EDGE_ID
1071
        0
1071
       -1
1071
        2
1071
        0
  0
LINE
  5
C1
330
70
100
AcDbEntity
  8
Visible
100
AcDbLine
 10
565.677605
 20
145.496694
 30
-15.932318
 11
550.480735
 21
145.496694
 31
-15.932318
  0
SPLINE
  5
C2
330
70
100
AcDbEntity
  8
Visible
100
AcDbSpline
210
-0.0000000000052486
220
0.0523359562418322
230
-0.998629534754632
 70
     8
 71
     3
 72
    10
 73
     6
 74
     0
 42
0.000000001
 43
0.0000000001
 40
0.0
 40
0.0
 40
0.0
 40
0.0
 40
4.352547636978926
 40
4.352547636978926
 40
12.89278021966844
 40
12.89278021966844
 40
12.89278021966844
 40
12.89278021966844
 10
538.5190609675992
 20
273.3759326912132
 30
-9.230450576645914
 10
546.3087430056567
 20
261.1527236078673
 30
-9.871041820416273
 10
551.689980114912
 20
247.6020559926492
 30
-10.58120221798516
 10
562.8449124722265
 20
205.9314260879819
 30
-12.76506739261424
 10
564.2319144778084
 20
175.5270668818539
 30
-14.3584923390787
 10
565.677605395358
 20
145.4966936566816
 30
-15.93231751085091
1001
ACAD_VIEW_EDGE_ID
1071
        5
1071
       -1
1071
        2
1071
        0
  0
SPLINE
  5
C3
330
70
100
AcDbEntity
  8
Visible
100
AcDbSpline
210
-0.0000000000000007
220
-0.0523359562429468
230
0.9986295347545738
 70
     8
 71
     3
 72
    18
 73
    14
 74
     0
 42
0.000000001
 43
0.0000000001
 40
0.0
 40
0.0
 40
0.0
 40
0.0
 40
10.41423430567208
 40
10.41423430567208
 40
12.96629602675474
 40
12.96629602675474
 40
16.30328569258391
 40
16.30328569258391
 40
18.39507449402475
 40
18.39507449402475
 40
19.33173842951467
 40
19.33173842951467
 40
20.63528643416163
 40
20.63528643416163
 40
20.63528643416163
 40
20.63528643416163
 10
309.7190609675981
 20
346.7562233109693
 30
-5.384752502120271
 10
344.4331753197839
 20
346.7562844817203
 30
-5.384749296297108
 10
369.6318262181685
 20
341.6621583929482
 30
-5.651721131997398
 10
413.9898213659326
 20
332.0432672143724
 30
-6.1558258578318
 10
422.4004669079532
 20
330.2042781242399
 30
-6.25220319219737
 10
450.9761141973358
 20
324.188882002105
 30
-6.567456744466312
 10
465.6011106508303
 20
321.2225211819132
 30
-6.722917127578746
 10
487.3671238080041
 20
314.55991458887
 30
-7.072089543356682
 10
499.3761426775018
 20
310.254796998146
 30
-7.29771119583895
 10
516.590544050492
 20
298.3736151304092
 30
-7.920377552784884
 10
521.4453404285795
 20
294.2184522505759
 30
-8.138140411876293
 10
532.0770820829348
 20
283.0977370517339
 30
-8.720952399486769
 10
536.2246955597802
 20
276.9770505835131
 30
-9.041723984973998
 10
538.5190609675992
 20
273.3759326912132
 30
-9.230450576645935
1001
ACAD_VIEW_EDGE_ID
1071
        6
1071
       -1
1071
        2
1071
        0
  0
SPLINE
  5
C4
330
70
100
AcDbEntity
  8
Visible
100
AcDbSpline
210
-0.0000000000052439
220
-0.0523359562418334
230
0.9986295347546322
 70
     8
 71
     3
 72
    10
 73
     6
 74
     0
 42
0.000000001
 43
0.0000000001
 40
0.0
 40
0.0
 40
0.0
 40
0.0
 40
4.352547637302152
 40
4.352547637302152
 40
12.89278021969703
 40
12.89278021969703
 40
12.89278021969703
 40
12.89278021969703
 10
80.91906096759704
 20
273.3759326912132
 30
-9.230450576645893
 10
73.12937892896115
 20
261.1527236069596
 30
-9.871041820463844
 10
67.7481418194875
 20
247.6020559906392
 30
-10.58120221809045
 10
56.59320946286425
 20
205.9314260856881
 30
-12.76506739273439
 10
55.20620745732959
 20
175.5270668806333
 30
-14.35849233914268
 10
53.76051653983814
 20
145.4966936566816
 30
-15.93231751085091
1001
ACAD_VIEW_EDGE_ID
1071
        7
1071
       -1
1071
        2
1071
        0
  0
LINE
  5
C5
330
70
100
AcDbEntity
  8
Visible
100
AcDbLine
 10
68.957397
 20
145.496694
 30
-15.932318
 11
53.760517
 21
145.496694
 31
-15.932318
  0
SPLINE
  5
C6
330
70
100
AcDbEntity
  8
Visible
100
AcDbSpline
 70
     0
 71
     3
 72
    20
 73
    16
 74
     0
 42
0.000000001
 43
0.0000000001
 40
0.0
 40
0.0
 40
0.0
 40
0.0
 40
27.01768216182475
 40
27.01768216182475
 40
27.01768216182475
 40
61.34289631829012
 40
61.34289631829012
 40
61.34289631829012
 40
109.2239920933462
 40
109.2239920933462
 40
109.2239920933462
 40
141.5295630608778
 40
141.5295630608778
 40
141.5295630608778
 40
162.5307503577271
 40
162.5307503577271
 40
162.5307503577271
 40
162.5307503577271
 10
77.71067391527139
 20
224.0000948197121
 30
-11.81812858973076
 10
76.89325957018991
 20
220.6646917183316
 30
-11.99292965928784
 10
76.12160932447295
 20
217.1147160618475
 30
-12.17897599994135
 10
75.40513966830258
 20
213.3354297518072
 30
-12.37704000273438
 10
74.49488488636598
 20
208.5339515504657
 30
-12.62867481255397
 10
73.67593904701789
 20
203.3547567719233
 30
-12.90010490933966
 10
72.96693696399962
 20
197.8936196570703
 30
-13.18631097791207
 10
71.97793230733623
 20
190.2757435370531
 30
-13.58554694824724
 10
71.20718480154938
 20
182.1183483708228
 30
-14.01305791361082
 10
70.59867266348738
 20
173.7852438834034
 30
-14.44977741433139
 10
70.18810703748204
 20
168.1628642356409
 30
-14.74443384595767
 10
69.84699362687024
 20
162.4573519673031
 30
-15.04344707313457
 10
69.53641822942518
 20
156.7189527810042
 30
-15.34418383137613
 10
69.33451955076998
 20
152.9885374846253
 30
-15.53968661302412
 10
69.14535764944957
 20
149.2443126395901
 30
-15.73591312235766
 10
68.95739665294968
 20
145.4966936566598
 30
-15.93231751085203
1001
ACAD_VIEW_EDGE_ID
1071
        9
1071
       -1
1071
        2
1071
        0
  0
ELLIPSE
  5
C7
330
70
100
AcDbEntity
  8
Visible
100
AcDbEllipse
 10
82.345024
 20
223.212676
 30
-11.859395
 11
2.65711967024867
 21
4.448636616312993
 31
0.2331431658981867
210
0.0
220
-0.0523359562429439
230
0.9986295347545739
 40
0.8944043348595307
 41
1.903646069356652
 42
1.904061888351832
1001
ACAD_VIEW_EDGE_ID
1071
       10
1071
       -1
1071
        2
1071
        0
  0
SPLINE
  5
C8
330
70
100
AcDbEntity
  8
Visible
100
AcDbSpline
 70
     0
 71
     3
 72
    38
 73
    34
 74
     0
 42
0.000000001
 43
0.0000000001
 40
0.0000000732311782
 40
0.0000000732311782
 40
0.0000000732311782
 40
0.0000000732311782
 40
0.7058396380864204
 40
0.7058396380864204
 40
0.7058396380864204
 40
1.316848994923855
 40
1.316848994923855
 40
1.316848994923855
 40
1.32756292494487
 40
1.32756292494487
 40
1.32756292494487
 40
2.646937808055962
 40
2.646937808055962
 40
2.646937808055962
 40
3.755565443659242
 40
3.755565443659242
 40
3.755565443659242
 40
5.30711096421329
 40
5.30711096421329
 40
5.30711096421329
 40
24.63716871235741
 40
24.63716871235741
 40
24.63716871235741
 40
29.33020704997636
 40
29.33020704997636
 40
29.33020704997636
 40
70.70417834218052
 40
70.70417834218052
 40
70.70417834218052
 40
88.89384401574149
 40
88.89384401574149
 40
88.89384401574149
 40
152.0045478988366
 40
152.0045478988366
 40
152.0045478988366
 40
152.0045478988366
 10
77.71118130260401
 20
224.0021644758908
 30
-11.81802012364659
 10
77.73233351119415
 20
224.088798793935
 30
-11.81347981142813
 10
77.75412549848806
 20
224.1773537729932
 30
-11.80883884171304
 10
77.7758948531191
 20
224.2655734980326
 30
-11.80421544201216
 10
77.79473947452243
 20
224.3419408202135
 30
-11.8002132004005
 10
77.81357965734969
 20
224.4180902651842
 30
-11.79622237668305
 10
77.83214045483873
 20
224.492983267186
 30
-11.79229740076427
 10
77.83246591480565
 20
224.4942965013852
 30
-11.79222857707628
 10
77.8327913694975
 20
224.4956096720507
 30
-11.79215975671787
 10
77.83311681885061
 20
224.4969227790043
 30
-11.79209093969852
 10
77.87319452141128
 20
224.6586263116242
 30
-11.78361641665322
 10
77.91316759047004
 20
224.8193013475029
 30
-11.77519579483515
 10
77.953166877267
 20
224.9792745544546
 30
-11.76681195432373
 10
77.98677697195126
 20
225.1136948170006
 30
-11.75976728688127
 10
78.02041980085959
 20
225.2476502728296
 30
-11.75274697891591
 10
78.05417764137565
 20
225.3813576909706
 30
-11.74573967004048
 10
78.10142238303524
 20
225.5684837728222
 30
-11.73593280762097
 10
78.14886830322757
 20
225.7550608540532
 30
-11.72615471715373
 10
78.19648979064004
 20
225.9410237244447
 30
-11.71640881608742
 10
78.78978601657945
 20
228.2578574725012
 30
-11.59498870438358
 10
79.40776428411663
 20
230.4736480705251
 30
-11.47886403958082
 10
80.04086569889841
 20
232.5824391670612
 30
-11.36834698146049
 10
80.1945729071158
 20
233.0944209516492
 30
-11.34151515315055
 10
80.34925547030615
 20
233.6002862047626
 30
-11.31500387863685
 10
80.5048156369212
 20
234.1000238725046
 30
-11.28881373720603
 10
81.87623888232337
 20
238.505726624393
 30
-11.05792063944225
 10
83.31603033975625
 20
242.4407416768863
 30
-10.85169523935278
 10
84.79855980908359
 20
246.0211645108702
 30
-10.66405322978458
 10
85.45033952845733
 20
247.5952627249426
 30
-10.58155823803591
 10
86.11057140731828
 20
249.1003627717091
 30
-10.50267928694794
 10
86.77425266880346
 20
250.5370023247924
 30
-10.42738819835009
 10
89.07695533074729
 20
255.5215542703026
 30
-10.16615890019751
 10
91.45043789466035
 20
259.7631493617191
 30
-9.943866320805902
 10
93.84255831024892
 20
263.4875313843804
 30
-9.748679729796528
1001
ACAD_VIEW_EDGE_ID
1071
       11
1071
       -1
1071
        2
1071
        0
  0
LINE
  5
C9
330
70
100
AcDbEntity
  8
Visible
100
AcDbLine
 10
93.843761
 20
263.489402
 30
-9.748582
 11
93.842558
 21
263.487531
 31
-9.74868
  0
SPLINE
  5
CA
330
70
100
AcDbEntity
  8
Visible
100
AcDbSpline
 70
     0
 71
     3
 72
    77
 73
    73
 74
     0
 42
0.000000001
 43
0.0000000001
 40
0.0
 40
0.0
 40
0.0
 40
0.0
 40
8.201410500111737
 40
8.201410500111737
 40
8.201410500111737
 40
8.235283544117555
 40
8.235283544117555
 40
8.235283544117555
 40
43.62928443298114
 40
43.62928443298114
 40
43.62928443298114
 40
86.14459361961491
 40
86.14459361961491
 40
86.14459361961491
 40
106.0358940206193
 40
106.0358940206193
 40
106.0358940206193
 40
123.7054512151217
 40
123.7054512151217
 40
123.7054512151217
 40
141.4515869297358
 40
141.4515869297358
 40
141.4515869297358
 40
146.7963989011817
 40
146.7963989011817
 40
146.7963989011817
 40
150.4667931780312
 40
150.4667931780312
 40
150.4667931780312
 40
150.8142641210465
 40
150.8142641210465
 40
150.8142641210465
 40
151.6902632168584
 40
151.6902632168584
 40
151.6902632168584
 40
154.0320373152766
 40
154.0320373152766
 40
154.0320373152766
 40
156.7354012282308
 40
156.7354012282308
 40
156.7354012282308
 40
157.2244266958618
 40
157.2244266958618
 40
157.2244266958618
 40
157.5257291382783
 40
157.5257291382783
 40
157.5257291382783
 40
158.3653496383087
 40
158.3653496383087
 40
158.3653496383087
 40
159.0620798709165
 40
159.0620798709165
 40
159.0620798709165
 40
159.3271198604863
 40
159.3271198604863
 40
159.3271198604863
 40
159.7520130005568
 40
159.7520130005568
 40
159.7520130005568
 40
161.1490012345226
 40
161.1490012345226
 40
161.1490012345226
 40
161.4334976785112
 40
161.4334976785112
 40
161.4334976785112
 40
161.4713555150855
 40
161.4713555150855
 40
161.4713555150855
 40
161.7388065009565
 40
161.7388065009565
 40
161.7388065009565
 40
162.5704661865331
 40
162.5704661865331
 40
162.5704661865331
 40
162.5704661865331
 10
152.5949209842292
 20
302.0594096126388
 30
-7.727213249077529
 10
151.3775804411507
 20
301.7443279979852
 30
-7.743725976794436
 10
150.1615303114467
 20
301.4201438904438
 30
-7.760715745949589
 10
148.9517738015002
 20
301.0869607833356
 30
-7.778177132687787
 10
148.9467773273572
 20
301.0855846875947
 30
-7.778249250809594
 10
148.9417809707975
 20
301.0842084407832
 30
-7.778321376848722
 10
148.9367847326612
 20
301.0828320430319
 30
-7.778393510798345
 10
143.7162070651993
 20
299.6446317068112
 30
-7.853766396583246
 10
138.5884831206695
 20
298.0477140531857
 30
-7.937457304508072
 10
133.7888908323184
 20
296.1675704924746
 30
-8.035991453258255
 10
128.02361578614
 20
293.9091401711939
 30
-8.154350771062112
 10
122.5544827880367
 20
291.1400558887526
 30
-8.299472328953932
 10
117.4370668120627
 20
287.7564593776224
 30
-8.476799108090666
 10
115.0428219999612
 20
286.1734029227537
 30
-8.559763581369395
 10
112.7225466655927
 20
284.4538613785171
 30
-8.649880935087836
 10
110.4853297102872
 20
282.5858182228676
 30
-8.747780928480786
 10
108.4979969491614
 20
280.9264246832263
 30
-8.834746058850591
 10
106.5837320279588
 20
279.1563883962135
 30
-8.92750973035929
 10
104.7471446545569
 20
277.2781604725515
 30
-9.02594348465891
 10
102.9025976508383
 20
275.3917924515881
 30
-9.124803843380504
 10
101.1341536806576
 20
273.3938361308628
 30
-9.229512297120393
 10
99.4519579918615
 20
271.2998553152538
 30
-9.339253181538886
 10
98.94531137310515
 20
270.669186536923
 30
-9.372305131677755
 10
98.44476165062042
 20
270.0278420219547
 30
-9.405916573460004
 10
97.9474628408152
 20
269.3717477488172
 30
-9.44030101731542
 10
97.60595733694572
 20
268.9211940758232
 30
-9.463913534764827
 10
97.26573340372125
 20
268.4632312470221
 30
-9.487914349616517
 10
96.93306033191403
 20
268.006874295239
 30
-9.511831004019811
 10
96.90156665105497
 20
267.9636716394962
 30
-9.514095159266489
 10
96.8701465475333
 20
267.920492368743
 30
-9.516358088959684
 10
96.83881294927051
 20
267.8773551916238
 30
-9.518618812616907
 10
96.75981870731085
 20
267.7686032832607
 30
-9.524318258626458
 10
96.68138870787334
 20
267.6601384638834
 30
-9.530002658939018
 10
96.60351294150132
 20
267.5519304975878
 30
-9.535673598153309
 10
96.39533070312246
 20
267.2626623762808
 30
-9.550833498008472
 10
96.19179413619349
 20
266.9761631877864
 30
-9.565848284454986
 10
95.98946002647608
 20
266.6875944261083
 30
-9.580971532214491
 10
95.75588381136004
 20
266.3544681961885
 30
-9.598429937902459
 10
95.52303269502045
 20
266.0173937785039
 30
-9.616095259828796
 10
95.28733427014776
 20
265.6714591127511
 30
-9.634224927437969
 10
95.24469756411964
 20
265.6088812034723
 30
-9.637504496695406
 10
95.19705892785168
 20
265.5387911407725
 30
-9.641177761223374
 10
95.15054656156644
 20
265.4701600100998
 30
-9.644774566373683
 10
95.12188897521992
 20
265.427874426492
 30
-9.646990659907487
 10
95.09364448693849
 20
265.3861246332381
 30
-9.64917867386206
 10
95.0672324695388
 20
265.3470256685632
 30
-9.651227763772965
 10
94.99363176760562
 20
265.2380710513753
 30
-9.656937833302457
 10
94.91950727879521
 20
265.1278773457379
 30
-9.662712840705857
 10
94.84702661789198
 20
265.0197184062927
 30
-9.668381210531791
 10
94.78688103101195
 20
264.9299664254449
 30
-9.673084912534292
 10
94.72807255272527
 20
264.8419241446718
 30
-9.677699012952658
 10
94.67142034533026
 20
264.7567934813505
 30
-9.682160521966153
 10
94.64986953591505
 20
264.7244093116078
 30
-9.683857704386355
 10
94.6283651538779
 20
264.6920466639604
 30
-9.685553758881091
 10
94.60703567293421
 20
264.659893911301
 30
-9.687238813246274
 10
94.57284177582369
 20
264.6083489196881
 30
-9.689940171790603
 10
94.53909596341327
 20
264.5573412092999
 30
-9.692613372617259
 10
94.50615422587906
 20
264.5074252778322
 30
-9.695229355736373
 10
94.39784647646593
 20
264.3433087921258
 30
-9.703830336295993
 10
94.29055162638906
 20
264.1793976392855
 30
-9.712420555816045
 10
94.17385968124108
 20
263.9999919985585
 30
-9.721822807037412
 10
94.15009538414052
 20
263.9634560667746
 30
-9.723737574086221
 10
94.12609149134732
 20
263.9265053780837
 30
-9.725674077623544
 10
94.1020028725161
 20
263.8893758375707
 30
-9.72761995438762
 10
94.09879740891847
 20
263.8844350233467
 30
-9.727878891488899
 10
94.09567197144315
 20
263.8796167044729
 30
-9.728131408880891
 10
94.0926071007234
 20
263.8748909844053
 30
-9.728379073375293
 10
94.0709549734638
 20
263.8415055982969
 30
-9.73012872732248
 10
94.05227176426889
 20
263.8126660994476
 30
-9.731640141411965
 10
94.02961019268515
 20
263.777643409192
 30
-9.733475602832811
 10
93.95914226961577
 20
263.668737624188
 30
-9.739183113175982
 10
93.88771169392567
 20
263.5578887808333
 30
-9.744992454892241
 10
93.84376071622318
 20
263.4894023490433
 30
-9.748581676693419
1001
ACAD_VIEW_EDGE_ID
1071
       13
1071
       -1
1071
        2
1071
        0
  0
SPLINE
  5
CB
330
70
100
AcDbEntity
  8
Visible
100
AcDbSpline
 70
     0
 71
     3
 72
    41
 73
    37
 74
     0
 42
0.000000001
 43
0.0000000001
 40
0.0
 40
0.0
 40
0.0
 40
0.0
 40
33.11499880217457
 40
33.11499880217457
 40
33.11499880217457
 40
81.78896118622803
 40
81.78896118622803
 40
81.78896118622803
 40
93.93794130824916
 40
93.93794130824916
 40
93.93794130824916
 40
120.4275024422729
 40
120.4275024422729
 40
120.4275024422729
 40
131.792555011189
 40
131.792555011189
 40
131.792555011189
 40
146.4625256640595
 40
146.4625256640595
 40
146.4625256640595
 40
154.1956201106484
 40
154.1956201106484
 40
154.1956201106484
 40
154.7358871329841
 40
154.7358871329841
 40
154.7358871329841
 40
165.1695724510362
 40
165.1695724510362
 40
165.1695724510362
 40
189.0708891787537
 40
189.0708891787537
 40
189.0708891787537
 40
218.3846095076031
 40
218.3846095076031
 40
218.3846095076031
 40
228.9476178294505
 40
228.9476178294505
 40
228.9476178294505
 40
228.9476178294505
 10
261.0953798000028
 20
324.7889020086113
 30
-6.536011028373934
 10
255.7746628344558
 20
323.9395287474636
 30
-6.580524794773111
 10
250.4465478641996
 20
322.9724707498408
 30
-6.631206156862184
 10
245.1381969507893
 20
321.936857412089
 30
-6.685480352095979
 10
237.3357363732066
 20
320.4146648567657
 30
-6.765255083570878
 10
229.6071045707122
 20
318.7535711904202
 30
-6.85230931377972
 10
221.8509454757495
 20
317.0698516029279
 30
-6.940549318307837
 10
219.9150146812844
 20
316.6495966083167
 30
-6.96257394931117
 10
217.9662916346097
 20
316.2253224571723
 30
-6.984809215378582
 10
216.0342609381896
 20
315.8049314212349
 30
-7.006840976002706
 10
211.8216731545563
 20
314.8883134059961
 30
-7.054878890632679
 10
207.526667394317
 20
313.9555979092583
 30
-7.103760438530954
 10
203.2637926985262
 20
313.040670754448
 30
-7.151709738999954
 10
201.4348535640784
 20
312.6481314006051
 30
-7.172281854850268
 10
199.6085766742071
 20
312.2580352678724
 30
-7.192725926877521
 10
197.7880770967967
 20
311.871236270521
 30
-7.212997203339483
 10
195.4381825219807
 20
311.3719574589777
 30
-7.239163297071975
 10
193.0984309178602
 20
310.8783096233437
 30
-7.265034283810777
 10
190.7679854372454
 20
310.3897622638924
 30
-7.29063796598303
 10
189.5395197892467
 20
310.1322305372323
 30
-7.304134631866254
 10
188.3350767384672
 20
309.8805802623738
 30
-7.317323063918351
 10
187.1212053160725
 20
309.6276522367152
 30
-7.33057846009531
 10
187.0363990715086
 20
309.6099816040551
 30
-7.331504538713886
 10
186.9513836932601
 20
309.5922707859663
 30
-7.332432723361776
 10
186.8661033625049
 20
309.5745081486693
 30
-7.333363623739536
 10
185.2191619462719
 20
309.2314744999112
 30
-7.351341255544703
 10
183.5653346133968
 20
308.888304820035
 30
-7.36932601642443
 10
181.9238680940016
 20
308.548279968958
 30
-7.387145963758399
 10
178.1636232733035
 20
307.7693565671943
 30
-7.427967609448984
 10
174.4308938844842
 20
307.0009123536201
 30
-7.468240064092803
 10
170.700871019877
 20
306.2153591084916
 30
-7.509409165188742
 10
166.1261922137309
 20
305.251918960259
 30
-7.559900923842199
 10
161.6917809769347
 20
304.2884850530172
 30
-7.610392355350199
 10
157.3155038361801
 20
303.2363975498447
 30
-7.665529924989371
 10
155.7385408530481
 20
302.8572846659572
 30
-7.685398389326593
 10
154.1655375446535
 20
302.4659289386782
 30
-7.705908473964157
 10
152.594920984231
 20
302.0594096126388
 30
-7.727213249077564
1001
ACAD_VIEW_EDGE_ID
1071
       14
1071
       -1
1071
        2
1071
        0
  0
SPLINE
  5
CC
330
70
100
AcDbEntity
  8
Visible
100
AcDbSpline
210
-0.0000000000027493
220
-0.0523359562078513
230
0.998629534756413
 70
     8
 71
     3
 72
    11
 73
     7
 74
     0
 42
0.000000001
 43
0.0000000001
 40
0.0
 40
0.0
 40
0.0
 40
0.0
 40
69.06036562839223
 40
69.06036562839223
 40
69.06036562839223
 40
100.1840167064025
 40
100.1840167064025
 40
100.1840167064025
 40
100.1840167064025
 10
261.0953798000028
 20
324.7889020086113
 30
-6.536011028373955
 10
272.2051339330556
 20
326.5070502596864
 30
-6.445966694056039
 10
283.3248523179918
 20
327.7089909716214
 30
-6.382975650555373
 10
294.5244853264139
 20
328.2386750236965
 30
-6.355216085686414
 10
299.5718589796543
 20
328.477389392905
 30
-6.342705595723074
 10
304.6349785456532
 20
328.5852285832862
 30
-6.337053983223057
 10
309.7190609183035
 20
328.5852285804449
 30
-6.337053983310866
1001
ACAD_VIEW_EDGE_ID
1071
       15
1071
       -1
1071
        2
1071
        0
  0
SPLINE
  5
CD
330
70
100
AcDbEntity
  8
Visible
100
AcDbSpline
 70
     0
 71
     3
 72
    11
 73
     7
 74
     0
 42
0.000000001
 43
0.0000000001
 40
0.0
 40
0.0
 40
0.0
 40
0.0
 40
69.06037639519972
 40
69.06037639519972
 40
69.06037639519972
 40
100.184161593821
 40
100.184161593821
 40
100.184161593821
 40
100.184161593821
 10
358.34281193887
 20
324.7888912035269
 30
-6.536011594644435
 10
347.2330561059043
 20
326.5070417491879
 30
-6.445967140072319
 10
336.1133362046203
 20
327.7089853481102
 30
-6.382975945623556
 10
324.9137017569774
 20
328.2386719356309
 30
-6.355216247711432
 10
319.8663064914654
 20
328.4773884389742
 30
-6.342705645828068
 10
314.8031651998954
 20
328.5852285775236
 30
-6.337053983464038
 10
309.7190609183035
 20
328.5852285804449
 30
-6.337053983310937
1001
ACAD_VIEW_EDGE_ID
1071
       16
1071
       -1
1071
        2
1071
        0
  0
SPLINE
  5
CE
330
70
100
AcDbEntity
  8
Visible
100
AcDbSpline
 70
     0
 71
     3
 72
    38
 73
    34
 74
     0
 42
0.000000001
 43
0.0000000001
 40
0.0
 40
0.0
 40
0.0
 40
0.0
 40
33.64079161661749
 40
33.64079161661749
 40
33.64079161661749
 40
83.64720889108969
 40
83.64720889108969
 40
83.64720889108969
 40
93.93408781610679
 40
93.93408781610679
 40
93.93408781610679
 40
119.5541601801587
 40
119.5541601801587
 40
119.5541601801587
 40
137.6216038491582
 40
137.6216038491582
 40
137.6216038491582
 40
150.2672116794329
 40
150.2672116794329
 40
150.2672116794329
 40
154.7328524416235
 40
154.7328524416235
 40
154.7328524416235
 40
165.1334120780919
 40
165.1334120780919
 40
165.1334120780919
 40
189.0678901942813
 40
189.0678901942813
 40
189.0678901942813
 40
218.3926818507656
 40
218.3926818507656
 40
218.3926818507656
 40
228.9446412811003
 40
228.9446412811003
 40
228.9446412811003
 40
228.9446412811003
 10
358.34281193887
 20
324.7888912035269
 30
-6.536011594644435
 10
363.747986226781
 20
323.9260393284003
 30
-6.581231745270052
 10
369.1589477513571
 20
322.9420860411374
 30
-6.63279855197176
 10
374.5533079881206
 20
321.8873756368375
 30
-6.688073582049376
 10
382.5719251479841
 20
320.3195680423505
 30
-6.770238896421929
 10
390.5042667100115
 20
318.6087774088664
 30
-6.859897634367356
 10
398.4775805310019
 20
316.8764150187035
 30
-6.950686900122789
 10
400.1177802969141
 20
316.5200487134752
 30
-6.96936326678572
 10
401.767922869234
 20
316.1608078469362
 30
-6.988190282833173
 10
403.403923150152
 20
315.8048159522969
 30
-7.006847027474179
 10
407.4784773361462
 20
314.9181973609684
 30
-7.053312738917327
 10
411.6309692097711
 20
314.0162806592652
 30
-7.100580190324407
 10
415.7547284908414
 20
313.1305522658804
 30
-7.146999248383977
 10
418.66283067949
 20
312.5059307727752
 30
-7.179734273669716
 10
421.5641901399976
 20
311.8875280996162
 30
-7.212143384639176
 10
424.448626791891
 20
311.2780007197507
 30
-7.244087361037912
 10
426.4674765738163
 20
310.8513856241771
 30
-7.266445310810915
 10
428.4979622018527
 20
310.4249129149612
 30
-7.28879579841832
 10
430.4806341707663
 20
310.0105844056961
 30
-7.310509835482072
 10
431.1807903737153
 20
309.8642693922339
 30
-7.318177880413173
 10
431.8673759162029
 20
309.7210414881792
 30
-7.325684136796226
 10
432.572213992531
 20
309.574235832677
 30
-7.333377895187275
 10
434.2137948623967
 20
309.2323227554007
 30
-7.351296800275257
 10
435.8624977536164
 20
308.8902172045546
 30
-7.369225792441071
 10
437.4987821653048
 20
308.551268557665
 30
-7.386989338309888
 10
441.2643115995197
 20
307.7712567837789
 30
-7.427868023181076
 10
445.0022547164516
 20
307.001776718429
 30
-7.468194764661781
 10
448.7373404643549
 20
306.2151803151446
 30
-7.509418535349126
 10
453.3136095120717
 20
305.2514335590204
 30
-7.559926362627969
 10
457.7497023552259
 20
304.2876580664434
 30
-7.610435695899283
 10
462.1275900867367
 20
303.2351509963173
 30
-7.66559525412056
 10
463.7028883624952
 20
302.8564266720605
 30
-7.685443354914056
 10
465.2742411155323
 20
302.4654820672804
 30
-7.705931893501784
 10
466.8432104924268
 20
302.0594072312997
 30
-7.727213373878321
1001
ACAD_VIEW_EDGE_ID
1071
       17
1071
       -1
1071
        2
1071
        0
  0
SPLINE
  5
CF
330
70
100
AcDbEntity
  8
Visible
100
AcDbSpline
 70
     0
 71
     3
 72
    74
 73
    70
 74
     0
 42
0.000000001
 43
0.0000000001
 40
0.0
 40
0.0
 40
0.0
 40
0.0
 40
8.235213061118459
 40
8.235213061118459
 40
8.235213061118459
 40
43.62920602676052
 40
43.62920602676052
 40
43.62920602676052
 40
86.1449946647971
 40
86.1449946647971
 40
86.1449946647971
 40
106.0364088622038
 40
106.0364088622038
 40
106.0364088622038
 40
123.7059239348881
 40
123.7059239348881
 40
123.7059239348881
 40
141.4518537631183
 40
141.4518537631183
 40
141.4518537631183
 40
146.8001322625994
 40
146.8001322625994
 40
146.8001322625994
 40
150.4707600250048
 40
150.4707600250048
 40
150.4707600250048
 40
150.814367955057
 40
150.814367955057
 40
150.814367955057
 40
151.6943079040435
 40
151.6943079040435
 40
151.6943079040435
 40
154.0320892615242
 40
154.0320892615242
 40
154.0320892615242
 40
156.7399476087885
 40
156.7399476087885
 40
156.7399476087885
 40
157.2243472925601
 40
157.2243472925601
 40
157.2243472925601
 40
157.5296495164423
 40
157.5296495164423
 40
157.5296495164423
 40
158.3693469066128
 40
158.3693469066128
 40
158.3693469066128
 40
159.0673116613412
 40
159.0673116613412
 40
159.0673116613412
 40
159.3265612248863
 40
159.3265612248863
 40
159.3265612248863
 40
159.7587602975123
 40
159.7587602975123
 40
159.7587602975123
 40
161.1582204268763
 40
161.1582204268763
 40
161.1582204268763
 40
161.4447128059956
 40
161.4447128059956
 40
161.4447128059956
 40
161.6930397237231
 40
161.6930397237231
 40
161.6930397237231
 40
162.2730651256845
 40
162.2730651256845
 40
162.2730651256845
 40
162.5086943489027
 40
162.5086943489027
 40
162.5086943489027
 40
162.5086943489027
 10
466.8432104924268
 20
302.0594072312997
 30
-7.727213373878328
 10
468.0655451109323
 20
301.7430471542648
 30
-7.743793102969505
 10
469.2865828699886
 20
301.4175113767415
 30
-7.760853710146591
 10
470.5012460067319
 20
301.0829035438419
 30
-7.77838976359952
 10
475.7217276382834
 20
299.644797790419
 30
-7.853757692510576
 10
480.8494087003346
 20
298.0479310221417
 30
-7.937445933646969
 10
485.6491090739
 20
296.1676278746927
 30
-8.035988445983676
 10
491.4145802601142
 20
293.9089798812347
 30
-8.154359171502989
 10
496.8840772539952
 20
291.1394060476014
 30
-8.299506385683372
 10
502.0016903832292
 20
287.7555277553838
 30
-8.476847932343233
 10
504.3960141325169
 20
286.1723482622983
 30
-8.55981885378263
 10
506.7163400916033
 20
284.4527231396532
 30
-8.649940587655734
 10
508.9535752749652
 20
282.5846449277214
 30
-8.747842418273712
 10
510.9409081212507
 20
280.9252336965692
 30
-8.83480847581896
 10
512.8551491519138
 20
279.155219242135
 30
-8.927571002457995
 10
514.6916898371146
 20
277.2770522952233
 30
-9.02600156124744
 10
516.5361729478372
 20
275.3907629031
 30
-9.124857799352767
 10
518.304534062463
 20
273.3929239079152
 30
-9.229560104706436
 10
519.9866302532027
 20
271.2990951604406
 30
-9.339293019565047
 10
520.4935813669562
 20
270.6680558528296
 30
-9.372364388318587
 10
520.9944256833387
 20
270.026330268558
 30
-9.405995801098285
 10
521.4920137687913
 20
269.369837851993
 30
-9.440401110766678
 10
521.8335181689253
 20
268.9192743126605
 30
-9.464014145288956
 10
522.1737389507416
 20
268.4613034347349
 30
-9.488015381977376
 10
522.506395298049
 20
268.0049573262786
 30
-9.511931468105956
 10
522.5375353008803
 20
267.9622387092295
 30
-9.514170255959569
 10
522.568603236803
 20
267.9195431332701
 30
-9.5164078362818
 10
522.5995865809618
 20
267.8768887227889
 30
-9.518643259211472
 10
522.6789313221452
 20
267.76765573804
 30
-9.524367917365886
 10
522.7577066348422
 20
267.6587125829319
 30
-9.530077386193227
 10
522.8359227742166
 20
267.5500284730406
 30
-9.535773279035986
 10
523.0437235823265
 20
267.2612818531707
 30
-9.550905848158848
 10
523.2468945754681
 20
266.9752945679793
 30
-9.56589380663906
 10
523.448867455696
 20
266.6872447729511
 30
-9.580989856694237
 10
523.6828131785896
 20
266.3535959313249
 30
-9.598475651514959
 10
523.9160330618269
 20
266.0159838845848
 30
-9.616169149238167
 10
524.1521128304047
 20
265.6694777847879
 30
-9.634328764436503
 10
524.19434434719
 20
265.6074924725453
 30
-9.637577276999344
 10
524.241560003753
 20
265.5380241250023
 30
-9.641217958814259
 10
524.287705556806
 20
265.4699350621031
 30
-9.644786355397783
 10
524.3167896797768
 20
265.4270206197089
 30
-9.647035406025075
 10
524.3454641405133
 20
265.3846345629609
 30
-9.649256765136335
 10
524.3722261945822
 20
265.3450160459306
 30
-9.651333083632366
 10
524.4458320356152
 20
265.2360500353661
 30
-9.657043750263341
 10
524.51995576857
 20
265.1258539346636
 30
-9.662818883186801
 10
524.5924181884911
 20
265.0177187720583
 30
-9.668486006921412
 10
524.6526496668048
 20
264.9278357580933
 30
-9.673196576078517
 10
524.7115269061559
 20
264.8396870918386
 30
-9.677816251923744
 10
524.7682413962648
 20
264.7544582220689
 30
-9.68228290771912
 10
524.7893072261758
 20
264.7228011116786
 30
-9.683941986573188
 10
524.8103187241995
 20
264.6911794340322
 30
-9.685599208481619
 10
524.8311654462486
 20
264.6597548131558
 30
-9.687246103077853
 10
524.8659193482945
 20
264.6073663276547
 30
-9.689991667265005
 10
524.9002144253081
 20
264.555526756858
 30
-9.6927084640404
 10
524.9337132177152
 20
264.50476287729
 30
-9.695368886236366
 10
525.0421822712687
 20
264.340389490193
 30
-9.703983330427348
 10
525.1497632927693
 20
264.1760280904928
 30
-9.712597146385498
 10
525.2667300393623
 20
263.9961875337103
 30
-9.722022190591445
 10
525.2906750455877
 20
263.9593712301285
 30
-9.723951651303622
 10
525.3181717607112
 20
263.9170425258562
 30
-9.726170004705977
 10
525.3455405952863
 20
263.8748430247306
 30
-9.72838158683821
 10
525.3692634543476
 20
263.8382651859883
 30
-9.730298550130171
 10
525.3929247138075
 20
263.8017306897054
 30
-9.732213241952123
 10
525.4139407985585
 20
263.7692452274932
 30
-9.733915732885691
 10
525.4630287633918
 20
263.6933678580535
 30
-9.737892297315802
 10
525.5119329166919
 20
263.6175668201104
 30
-9.741864861381742
 10
525.55141526244
 20
263.5562158727735
 30
-9.745080128288577
 10
525.5674545504243
 20
263.5312926952447
 30
-9.746386296675581
 10
525.5819087803829
 20
263.5088016869395
 30
-9.747565000474729
 10
525.5943598025623
 20
263.4894015818572
 30
-9.74858171689992
1001
ACAD_VIEW_EDGE_ID
1071
       18
1071
       -1
1071
        2
1071
        0
  0
LINE
  5
D0
330
70
100
AcDbEntity
  8
Visible
100
AcDbLine
 10
525.59436
 20
263.489402
 30
-9.748582
 11
525.595562
 21
263.48753
 31
-9.74868
  0
SPLINE
  5
D1
330
70
100
AcDbEntity
  8
Visible
100
AcDbSpline
 70
     0
 71
     3
 72
    44
 73
    40
 74
     0
 42
0.000000001
 43
0.0000000001
 40
0.0
 40
0.0
 40
0.0
 40
0.0
 40
1.005146089918329
 40
1.005146089918329
 40
1.005146089918329
 40
1.329867287197908
 40
1.329867287197908
 40
1.329867287197908
 40
3.989596052779364
 40
3.989596052779364
 40
3.989596052779364
 40
4.286524587626591
 40
4.286524587626591
 40
4.286524587626591
 40
5.319461682451159
 40
5.319461682451159
 40
5.319461682451159
 40
17.8029484585879
 40
17.8029484585879
 40
17.8029484585879
 40
24.82041676204301
 40
24.82041676204301
 40
24.82041676204301
 40
30.30748298905276
 40
30.30748298905276
 40
30.30748298905276
 40
36.37829946286612
 40
36.37829946286612
 40
36.37829946286612
 40
42.30177809699125
 40
42.30177809699125
 40
42.30177809699125
 40
89.20661478635201
 40
89.20661478635201
 40
89.20661478635201
 40
118.4289010124847
 40
118.4289010124847
 40
118.4289010124847
 40
152.0166609660165
 40
152.0166609660165
 40
152.0166609660165
 40
152.0166609660165
 10
541.7270386440377
 20
224.0021914628651
 30
-11.81801870931915
 10
541.696923701229
 20
224.1255265409109
 30
-11.81155499177103
 10
541.6662558698899
 20
224.2497865456262
 30
-11.80504280100554
 10
541.6356991833763
 20
224.3733090673668
 30
-11.79856925986233
 10
541.6258275797063
 20
224.4132140936636
 30
-11.79647792602366
 10
541.615958282251
 20
224.4530664861231
 30
-11.79438935061603
 10
541.6060927468625
 20
224.4928649755311
 30
-11.79230360016731
 10
541.5252860471973
 20
224.8188467346336
 30
-11.77521962008601
 10
541.4450396564334
 20
225.1403053692647
 30
-11.75837268691356
 10
541.3640269523912
 20
225.4605638221292
 30
-11.74158865260233
 10
541.3549828032919
 20
225.4963170441915
 30
-11.73971490563183
 10
541.3459298413745
 20
225.5320535976261
 30
-11.7378420322274
 10
541.336868817023
 20
225.5677716423743
 30
-11.73597012882194
 10
541.3053478715064
 20
225.6920254241649
 30
-11.72945826405141
 10
541.2737312190929
 20
225.8160503341933
 30
-11.72295839393997
 10
541.2420298559482
 20
225.9398221587835
 30
-11.71647178747543
 10
540.858905317591
 20
227.4356576198806
 30
-11.63807837278654
 10
540.4651336124116
 20
228.8902890491499
 30
-11.56184436991904
 10
540.0641960966513
 20
230.3001929753646
 30
-11.48795443613241
 10
539.8388130479106
 20
231.0927564867088
 30
-11.44641794255567
 10
539.6114028395877
 20
231.870126161255
 30
-11.4056777242277
 10
539.3815782841884
 20
232.6346470936205
 30
-11.36561087997413
 10
539.2018749351246
 20
233.232437750652
 30
-11.3342819991841
 10
539.0209915275136
 20
233.8213848597152
 30
-11.30341658908678
 10
538.8388853475753
 20
234.4021620188523
 30
-11.27297934789415
 10
538.6374055127417
 20
235.0447260775745
 30
-11.23930399250294
 10
538.4344345613735
 20
235.6772751452081
 30
-11.20615350058379
 10
538.2298426828092
 20
236.3008667866379
 30
-11.17347244747699
 10
538.0302162196112
 20
236.9093239489266
 30
-11.14158455881261
 10
537.8291657294612
 20
237.5088763194326
 30
-11.11016335050973
 10
537.6268808295881
 20
238.0995237023453
 30
-11.07920883284467
 10
536.0250956659565
 20
242.7765421821514
 30
-10.83409668075333
 10
534.3472657788261
 20
246.8988634145116
 30
-10.61805497937227
 10
532.6318178798573
 20
250.6060677780806
 30
-10.42376863131615
 10
531.5630728836494
 20
252.9157013821477
 30
-10.30272586316143
 10
530.4817365032086
 20
255.0578993149211
 30
-10.19045802674104
 10
529.3907821767443
 20
257.0656136383459
 30
-10.08523817765819
 10
528.1368518116105
 20
259.3732574081932
 30
-9.964299692353051
 10
526.8685582602593
 20
261.505572771026
 30
-9.852549779353282
 10
525.5955619479646
 20
263.4875304460639
 30
-9.748679778971592
1001
ACAD_VIEW_EDGE_ID
1071
       20
1071
       -1
1071
        2
1071
        0
  0
LINE
  5
D2
330
70
100
AcDbEntity
  8
Visible
100
AcDbLine
 10
541.727039
 20
224.002191
 30
-11.818019
 11
541.727546
 21
224.000122
 31
-11.818127
  0
SPLINE
  5
D3
330
70
100
AcDbEntity
  8
Visible
100
AcDbSpline
210
0.0000000000161553
220
0.0523359562447397
230
-0.9986295347544798
 70
     8
 71
     3
 72
    20
 73
    16
 74
     0
 42
0.000000001
 43
0.0000000001
 40
0.0000000184604315
 40
0.0000000184604315
 40
0.0000000184604315
 40
0.0000000184604315
 40
26.53486712066772
 40
26.53486712066772
 40
26.53486712066772
 40
61.40322395439783
 40
61.40322395439783
 40
61.40322395439783
 40
105.8567654201899
 40
105.8567654201899
 40
105.8567654201899
 40
141.6610727306111
 40
141.6610727306111
 40
141.6610727306111
 40
162.6758407185224
 40
162.6758407185224
 40
162.6758407185224
 40
162.6758407185224
 10
541.7275460524543
 20
224.000121833782
 30
-11.81812717398333
 10
542.5301511999532
 20
220.7253306036601
 30
-11.98975170996959
 10
543.2892026088884
 20
217.2412381919094
 30
-12.17234525609331
 10
543.9947168420603
 20
213.5371391751796
 30
-12.36646885979954
 10
544.921803529125
 20
208.6697378889657
 30
-12.6215585520828
 10
545.7539355532936
 20
203.4176318236677
 30
-12.8968097675551
 10
546.4727183963804
 20
197.8807443646892
 30
-13.18698574339474
 10
547.38909203201
 20
190.8217866563354
 30
-13.55693004090994
 10
548.1182632413692
 20
183.3094276059655
 30
-13.9506360959453
 10
548.7039750501135
 20
175.6033137193953
 30
-14.35449641163549
 10
549.1757261166003
 20
169.396562566033
 30
-14.67977845613991
 10
549.5580164582988
 20
163.0683365196837
 30
-15.01142672998534
 10
549.9018507661294
 20
156.7149736449864
 30
-15.34439236924175
 10
550.1036588375082
 20
152.9859684837593
 30
-15.53982124868507
 10
550.2928795862535
 20
149.2415807450798
 30
-15.7360562948822
 10
550.4807349457169
 20
145.4966936566125
 30
-15.93231751085446
1001
ACAD_VIEW_EDGE_ID
1071
       22
1071
       -1
1071
        2
1071
        0
  0
SPLINE
  5
D4
330
70
100
AcDbEntity
  8
Visible
100
AcDbSpline
210
-0.0000000000000031
220
-0.0523359562429489
230
0.9986295347545736
 70
     8
 71
     3
 72
    32
 73
    28
 74
     0
 42
0.000000001
 43
0.0000000001
 40
15.44987561144304
 40
15.44987561144304
 40
15.44987561144304
 40
15.44987561144304
 40
20.00485278983568
 40
20.00485278983568
 40
20.00485278983568
 40
20.94409187589169
 40
20.94409187589169
 40
20.94409187589169
 40
40.419248441236
 40
40.419248441236
 40
40.419248441236
 40
56.35268694343682
 40
56.35268694343682
 40
56.35268694343682
 40
76.24804605740377
 40
76.24804605740377
 40
76.24804605740377
 40
118.7624598516592
 40
118.7624598516592
 40
118.7624598516592
 40
146.411882929626
 40
146.411882929626
 40
146.411882929626
 40
154.1445094989367
 40
154.1445094989367
 40
154.1445094989367
 40
162.3835915649634
 40
162.3835915649634
 40
162.3835915649634
 40
162.3835915649634
 10
521.8331472449427
 20
268.9164357566824
 30
-10.46553525370203
 10
521.4094654486379
 20
269.4745697561521
 30
-10.43628469024752
 10
520.9807542507223
 20
270.0257456240888
 30
-10.40739878701457
 10
520.5522196240544
 20
270.56277434199
 30
-10.37925430449809
 10
520.463855521375
 20
270.673509992781
 30
-10.37345089495265
 10
520.3752203454496
 20
270.7840188943956
 30
-10.36765936882807
 10
520.286194628099
 20
270.8944421849119
 30
-10.36187232939097
 10
518.4402431451472
 20
273.1840731246775
 30
-10.24187785646013
 10
516.4829305243983
 20
275.3647886787985
 30
-10.12759139702068
 10
514.4369679204955
 20
277.4046002566538
 30
-10.02068940206938
 10
512.7630805133413
 20
279.0734552526483
 30
-9.933228417783872
 10
511.0256072182528
 20
280.653128142696
 30
-9.850441269622891
 10
509.2284833787089
 20
282.1415488586299
 30
-9.772436445261895
 10
506.9844966739529
 20
284.0000720300141
 30
-9.675035373103511
 10
504.6587152372194
 20
285.706782171248
 30
-9.585590484721613
 10
502.2564852547239
 20
287.2766840611257
 30
-9.503315412980846
 10
497.123157481159
 20
290.6314090590695
 30
-9.32750172573337
 10
491.6339524719059
 20
293.3646914869805
 30
-9.184256463533095
 10
485.8475728125013
 20
295.5800098114578
 30
-9.068156549742226
 10
482.0843771098188
 20
297.0207511539666
 30
-8.992650495460168
 10
478.1281650335822
 20
298.2800245068975
 30
-8.926654775522784
 10
474.061207026054
 20
299.4371235544822
 30
-8.866013784028361
 10
472.9238137626707
 20
299.7607257798681
 30
-8.849054510024814
 10
471.7809702241575
 20
300.0748923659776
 30
-8.832589736921846
 10
470.6357088511849
 20
300.3800848655737
 30
-8.816595275764179
 10
469.4154375301277
 20
300.7052662289261
 30
-8.799553242646631
 10
468.1891252843525
 20
301.0211555602418
 30
-8.782998184293269
 10
466.9613654674868
 20
301.327780418078
 30
-8.76692865642105
1001
ACAD_VIEW_EDGE_ID
1071
       30
1071
       -1
1071
        2
1071
        0
  0
SPLINE
  5
D5
330
70
100
AcDbEntity
  8
Visible
100
AcDbSpline
210
-0.0000000000000296
220
-0.0523359562430887
230
0.9986295347545663
 70
     8
 71
     3
 72
    35
 73
    31
 74
     0
 42
0.000000001
 43
0.0000000001
 40
0.0
 40
0.0
 40
0.0
 40
0.0
 40
27.27958663096962
 40
27.27958663096962
 40
27.27958663096962
 40
39.92873457642626
 40
39.92873457642626
 40
39.92873457642626
 40
56.2940084462691
 40
56.2940084462691
 40
56.2940084462691
 40
71.2888616571049
 40
71.2888616571049
 40
71.2888616571049
 40
73.72988580296667
 40
73.72988580296667
 40
73.72988580296667
 40
134.3945876293469
 40
134.3945876293469
 40
134.3945876293469
 40
157.09883620311
 40
157.09883620311
 40
157.09883620311
 40
192.4663251009177
 40
192.4663251009177
 40
192.4663251009177
 40
194.5041434852533
 40
194.5041434852533
 40
194.5041434852533
 40
228.1427762372286
 40
228.1427762372286
 40
228.1427762372286
 40
228.1427762372286
 10
466.9613654674868
 20
301.327780418078
 30
-8.766928656421065
 10
462.8962548134368
 20
302.343014798018
 30
-8.713722477116675
 10
458.8472416839831
 20
303.2476592992789
 30
-8.666312067764884
 10
454.6854856656827
 20
304.123447145701
 30
-8.62041397161073
 10
452.7557398707594
 20
304.5295372447963
 30
-8.599131691328317
 10
450.8187641563872
 20
304.9263212604528
 30
-8.578337122212801
 10
448.8159708618659
 20
305.3311697467052
 30
-8.557119912102123
 10
446.2247875734046
 20
305.854956517318
 30
-8.529669410636522
 10
443.5147198185986
 20
306.3938561164978
 30
-8.50142687938694
 10
440.8950900303571
 20
306.9150379590937
 30
-8.474112896413892
 10
438.494826860071
 20
307.3925762690542
 30
-8.449086174066223
 10
436.1540803991556
 20
307.8584358569824
 30
-8.424671507605204
 10
433.7762156697117
 20
308.3347854584517
 30
-8.39970708282987
 10
433.3891211687824
 20
308.4123307910213
 30
-8.395643104156171
 10
433.0018105879444
 20
308.4899957161888
 30
-8.391572857899937
 10
432.6144108644675
 20
308.567761434093
 30
-8.38749732932019
 10
422.9866942553599
 20
310.5004068350045
 30
-8.286211675716842
 10
413.1950554984341
 20
312.539977038381
 30
-8.17932233066606
 10
403.3904116379817
 20
314.6189066510269
 30
-8.070370246381585
 10
399.72094546271
 20
315.3969626419366
 30
-8.02959405974007
 10
396.07318480106
 20
316.1728287815804
 30
-7.988932638340472
 10
392.4565327451037
 20
316.933722168551
 30
-7.949055905658262
 10
386.8227016574656
 20
318.1190020217291
 30
-7.886938020724223
 10
381.1769991183082
 20
319.2864072919456
 30
-7.82575690298885
 10
375.493336908663
 20
320.3863736832409
 30
-7.7681101071351
 10
375.1658533438931
 20
320.4497519949109
 30
-7.7647885905658
 10
374.8383910319753
 20
320.5128760890748
 30
-7.761480396971464
 10
374.5109889680152
 20
320.5757282690629
 30
-7.758186453795147
 10
369.1065045073337
 20
321.6132404519758
 30
-7.703812744309672
 10
363.6993856240915
 20
322.5801019137926
 30
-7.653141682221587
 10
358.2929780042232
 20
323.4294972093449
 30
-7.608626761048071
1001
ACAD_VIEW_EDGE_ID
1071
       31
1071
       -1
1071
        2
1071
        0
  0
SPLINE
  5
D6
330
70
100
AcDbEntity
  8
Visible
100
AcDbSpline
210
-0.0000000000000074
220
-0.0523359562430327
230
0.9986295347545691
 70
     8
 71
     3
 72
    11
 73
     7
 74
     0
 42
0.000000001
 43
0.0000000001
 40
0.0
 40
0.0
 40
0.0
 40
0.0
 40
68.74445803076814
 40
68.74445803076814
 40
68.74445803076814
 40
100.1563139317337
 40
100.1563139317337
 40
100.1563139317337
 40
100.1563139317337
 10
358.2929780042232
 20
323.4294972093449
 30
-7.608626761048071
 10
347.2443552952773
 20
325.1653352761641
 30
-7.517655342771078
 10
336.1844422843697
 20
326.3824959298563
 30
-7.453866655880304
 10
325.0441943023961
 20
326.9232189659415
 30
-7.425528562351928
 10
319.9538077558318
 20
327.1702950878353
 30
-7.412579851489695
 10
314.8469111604609
 20
327.2818690883742
 30
-7.406732505895703
 10
309.7190609675981
 20
327.2818690883742
 30
-7.406732505895725
1001
ACAD_VIEW_EDGE_ID
1071
       32
1071
       -1
1071
        2
1071
        0
  0
SPLINE
  5
D7
330
70
100
AcDbEntity
  8
Visible
100
AcDbSpline
210
-0.0000000000000005
220
-0.0523359562429312
230
0.9986295347545745
 70
     8
 71
     3
 72
    11
 73
     7
 74
     0
 42
0.000000001
 43
0.0000000001
 40
0.0
 40
0.0
 40
0.0
 40
0.0
 40
68.78517925229151
 40
68.78517925229151
 40
68.78517925229151
 40
100.1630353077977
 40
100.1630353077977
 40
100.1630353077977
 40
100.1630353077977
 10
309.7190609675981
 20
327.2818690883742
 30
-7.406732505895689
 10
298.4901766951425
 20
327.2818690883742
 30
-7.406732505895732
 10
287.3659960939713
 20
326.7059146574611
 30
-7.436916998588074
 10
276.2869308524332
 20
325.4738188985812
 30
-7.501488401175045
 10
271.232974198434
 20
324.9117716118107
 30
-7.530944051326727
 10
266.1882689159284
 20
324.2218165969152
 30
-7.567103061462617
 10
261.1452137522501
 20
323.4295081789223
 30
-7.608626186156833
1001
ACAD_VIEW_EDGE_ID
1071
       33
1071
       -1
1071
        2
1071
        0
  0
SPLINE
  5
D8
330
70
100
AcDbEntity
  8
Visible
100
AcDbSpline
210
0.0000000000000111
220
-0.0523359562429968
230
0.9986295347545711
 70
     8
 71
     3
 72
    41
 73
    37
 74
     0
 42
0.000000001
 43
0.0000000001
 40
0.0
 40
0.0
 40
0.0
 40
0.0
 40
33.12260681932157
 40
33.12260681932157
 40
33.12260681932157
 40
75.6935169137241
 40
75.6935169137241
 40
75.6935169137241
 40
93.90358993728192
 40
93.90358993728192
 40
93.90358993728192
 40
115.2945976590149
 40
115.2945976590149
 40
115.2945976590149
 40
138.0980972124937
 40
138.0980972124937
 40
138.0980972124937
 40
150.4199849744264
 40
150.4199849744264
 40
150.4199849744264
 40
154.6429720761579
 40
154.6429720761579
 40
154.6429720761579
 40
168.720768335683
 40
168.720768335683
 40
168.720768335683
 40
186.6686792639113
 40
186.6686792639113
 40
186.6686792639113
 40
188.8867344194796
 40
188.8867344194796
 40
188.8867344194796
 40
221.7839621554082
 40
221.7839621554082
 40
221.7839621554082
 40
228.7577986739153
 40
228.7577986739153
 40
228.7577986739153
 40
228.7577986739153
 10
261.1452137522483
 20
323.4295081789223
 30
-7.608626186156868
 10
255.8217419044849
 20
322.5931438281405
 30
-7.652458184452875
 10
250.4913004833233
 20
321.6416517234193
 30
-7.702323772666694
 10
245.180758831706
 20
320.6243652140383
 30
-7.755637499517895
 10
238.3553723989062
 20
319.3168952806682
 30
-7.824159095205125
 10
231.5729848128504
 20
317.9043777652932
 30
-7.898186001384303
 10
224.7894961761485
 20
316.4715703756374
 30
-7.973276254816504
 10
221.8878005545394
 20
315.8586746885012
 30
-8.005396756711476
 10
218.9958191163241
 20
315.2440094913381
 30
-8.037609994697383
 10
216.0477103178837
 20
314.6189066554107
 30
-8.070370246151966
 10
212.5846260133676
 20
313.8846108855396
 30
-8.108853056787815
 10
209.0848593846622
 20
313.1447763092583
 30
-8.147626143967528
 10
205.6359153626727
 20
312.4231761877436
 30
-8.185443603866531
 10
201.9592305384467
 20
311.6539273396829
 30
-8.225758227709356
 10
198.2894197329824
 20
310.8946670617661
 30
-8.265549372772781
 10
194.6445013947432
 20
310.150510888956
 30
-8.304548945229569
 10
192.6749670888403
 20
309.748405553446
 30
-8.325622392901443
 10
190.6997051627422
 20
309.3480277443741
 30
-8.346605304749125
 10
188.7892993727928
 20
308.9630697676002
 30
-8.366780097429199
 10
188.1345604913895
 20
308.8311360410444
 30
-8.373694451050511
 10
187.4823539113913
 20
308.699975863412
 30
-8.38056826469063
 10
186.823711173718
 20
308.5677614547694
 30
-8.387497328236797
 10
184.6280524976646
 20
308.1270100476249
 30
-8.410596130701136
 10
182.3726111470005
 20
307.6771467355338
 30
-8.434172467868698
 10
180.1545915295246
 20
307.2356987001349
 30
-8.457307779072777
 10
177.3268180770865
 20
306.6728925710577
 30
-8.486803198464627
 10
174.5171679648811
 20
306.1155822375094
 30
-8.51601059541732
 10
171.6737410678997
 20
305.5432698365312
 30
-8.546004217408729
 10
171.3223420826052
 20
305.4725418015714
 30
-8.549710916654021
 10
170.9715255680767
 20
305.4017929786151
 30
-8.553418705352122
 10
170.6221511847016
 20
305.3311697692407
 30
-8.557119910921258
 10
165.44038254107
 20
304.2837170959447
 30
-8.612014579432823
 10
160.5125252305169
 20
303.2529357674448
 30
-8.66603553978593
 10
155.5983565529313
 20
302.0873866465918
 30
-8.727119380855071
 10
154.5566089243166
 20
301.8403035462052
 30
-8.740068457444685
 10
153.5159834118021
 20
301.5873204005984
 30
-8.753326742302036
 10
152.4767661486512
 20
301.3277828358405
 30
-8.766928529711464
1001
ACAD_VIEW_EDGE_ID
1071
       34
1071
       -1
1071
        2
1071
        0
  0
SPLINE
  5
D9
330
70
100
AcDbEntity
  8
Visible
100
AcDbSpline
210
-0.0000000000000023
220
-0.0523359562429401
230
0.9986295347545741
 70
     8
 71
     3
 72
    26
 73
    22
 74
     0
 42
0.000000001
 43
0.0000000001
 40
0.0
 40
0.0
 40
0.0
 40
0.0
 40
8.239118858119415
 40
8.239118858119415
 40
8.239118858119415
 40
43.64787311800593
 40
43.64787311800593
 40
43.64787311800593
 40
86.16221939184919
 40
86.16221939184919
 40
86.16221939184919
 40
106.0510036109904
 40
106.0510036109904
 40
106.0510036109904
 40
131.5294826980951
 40
131.5294826980951
 40
131.5294826980951
 40
141.4555701529649
 40
141.4555701529649
 40
141.4555701529649
 40
146.9689518698316
 40
146.9689518698316
 40
146.9689518698316
 40
146.9689518698316
 10
152.4767661486512
 20
301.3277828358405
 30
-8.766928529711478
 10
151.2490008392997
 20
301.0211566569087
 30
-8.782998126819421
 10
150.0225016001277
 20
300.7052175141562
 30
-8.799555795679587
 10
148.8024131487545
 20
300.3800848828232
 30
-8.816595274860219
 10
143.5589140690681
 20
298.9827823747546
 30
-8.889824796294796
 10
138.4097457719654
 20
297.425041638171
 30
-8.971462528997648
 10
133.5905491631038
 20
295.5800098269374
 30
-9.068156548931114
 10
127.8042684064548
 20
293.3647293702088
 30
-9.184254478157541
 10
122.3150215498808
 20
290.6314463683084
 30
-9.327499770439075
 10
117.1816367143947
 20
287.2766840833047
 30
-9.503315411818668
 10
114.7801700977106
 20
285.7072810690097
 30
-9.585564338598004
 10
112.4529495737024
 20
283.9995124076813
 30
-9.675064701667338
 10
110.2096385865752
 20
282.1415488836574
 30
-9.772436443950326
 10
107.3358504534408
 20
279.7614091893538
 30
-9.897174279712281
 10
104.61451617075
 20
277.1462759533224
 30
-10.0342276051419
 10
102.0601305071814
 20
274.3087006276237
 30
-10.18293862651013
 10
101.0649747365641
 20
273.2032178102854
 30
-10.2408745260023
 10
100.0927533568719
 20
272.0613982932755
 30
-10.30071475123093
 10
99.15192818594915
 20
270.8944432751814
 30
-10.36187227225235
 10
98.62935286916581
 20
270.2462655827712
 30
-10.39584182569236
 10
98.10989599031746
 20
269.5817473683255
 30
-10.43066774960459
 10
97.59815756375246
 20
268.9074769426825
 30
-10.46600476524879
1001
ACAD_VIEW_EDGE_ID
1071
       35
1071
       -1
1071
        2
1071
        0
  0
ENDSEC
  0
SECTION
  2
OBJECTS
  0
DICTIONARY
  5
C
330
0
100
AcDbDictionary
281
     1
  3
ACAD_COLOR
350
63
  3
ACAD_DETAILVIEWSTYLE
350
6A
  3
ACAD_GROUP
350
D
  3
ACAD_LAYOUT
350
62
  3
ACAD_MATERIAL
350
10
  3
ACAD_MLEADERSTYLE
350
66
  3
ACAD_MLINESTYLE
350
5F
  3
ACAD_PLOTSETTINGS
350
61
  3
ACAD_PLOTSTYLENAME
350
E
  3
ACAD_SCALELIST
350
42
  3
ACAD_SECTIONVIEWSTYLE
350
68
  3
ACAD_TABLESTYLE
350
64
  3
ACAD_VISUALSTYLE
350
29
  3
ACDB_RECOMPOSE_DATA
350
E4
  3
AcDbVariableDictionary
350
DB
  0
DICTIONARY
  5
9E
330
70
100
AcDbDictionary
280
     1
281
     1
  3
ACAD_SORTENTS
360
9F
  0
DICTIONARY
  5
63
102
{ACAD_REACTORS
330
C
102
}
330
C
100
AcDbDictionary
281
     1
  0
DICTIONARY
  5
6A
102
{ACAD_REACTORS
330
C
102
}
330
C
100
AcDbDictionary
281
     1
  3
Imperial24
350
6B
  0
DICTIONARY
  5
D
102
{ACAD_REACTORS
330
C
102
}
330
C
100
AcDbDictionary
281
     1
  0
DICTIONARY
  5
62
102
{ACAD_REACTORS
330
C
102
}
330
C
100
AcDbDictionary
281
     1
  3
Model
350
73
  3
Sheet1
350
6F
  3
Sheet2
350
77
  0
DICTIONARY
  5
10
102
{ACAD_REACTORS
330
C
102
}
330
C
100
AcDbDictionary
281
     1
  3
ByBlock
350
19
  3
ByLayer
350
11
  3
Global
350
21
  0
DICTIONARY
  5
66
102
{ACAD_REACTORS
330
C
102
}
330
C
100
AcDbDictionary
281
     1
  3
Standard
350
67
  0
DICTIONARY
  5
5F
102
{ACAD_REACTORS
330
C
102
}
330
C
100
AcDbDictionary
281
     1
  3
Standard
350
60
  0
DICTIONARY
  5
61
102
{ACAD_REACTORS
330
C
102
}
330
C
100
AcDbDictionary
281
     1
  0
ACDBDICTIONARYWDFLT
  5
E
102
{ACAD_REACTORS
330
C
102
}
330
C
100
AcDbDictionary
281
     1
  3
Normal
350
F
100
AcDbDictionaryWithDefault
340
F
  0
DICTIONARY
  5
42
102
{ACAD_REACTORS
330
C
102
}
330
C
100
AcDbDictionary
281
     1
  3
A0
350
43
  3
A1
350
44
  3
A2
350
45
  3
A3
350
46
  3
A4
350
47
  3
A5
350
48
  3
A6
350
49
  3
A7
350
4A
  3
A8
350
4B
  3
A9
350
4C
  3
B0
350
4D
  3
B1
350
4E
  3
B2
350
4F
  3
B3
350
50
  3
B4
350
51
  3
B5
350
52
  3
B6
350
53
  0
DICTIONARY
  5
68
102
{ACAD_REACTORS
330
C
102
}
330
C
100
AcDbDictionary
281
     1
  3
Imperial24
350
69
  0
DICTIONARY
  5
64
102
{ACAD_REACTORS
330
C
102
}
330
C
100
AcDbDictionary
281
     1
  3
Standard
350
65
  0
DICTIONARY
  5
29
102
{ACAD_REACTORS
330
C
102
}
330
C
100
AcDbDictionary
281
     1
  3
2dWireframe
350
2F
  3
Basic
350
2E
  3
Brighten
350
35
  3
ColorChange
350
39
  3
Conceptual
350
32
  3
Dim
350
34
  3
EdgeColorOff
350
41
  3
Facepattern
350
38
  3
Flat
350
2A
  3
FlatWithEdges
350
2B
  3
Gouraud
350
2C
  3
GouraudWithEdges
350
2D
  3
Hidden
350
31
  3
JitterOff
350
3F
  3
Linepattern
350
37
  3
OverhangOff
350
40
  3
Realistic
350
33
  3
Shaded
350
3E
  3
Shaded with edges
350
3D
  3
Shades of Gray
350
3A
  3
Sketchy
350
3B
  3
Thicken
350
36
  3
Wireframe
350
30
  3
X-Ray
350
3C
  0
XRECORD
  5
E4
102
{ACAD_REACTORS
330
C
102
}
330
C
100
AcDbXrecord
280
     1
 90
        1
330
65
  0
DICTIONARY
  5
DB
102
{ACAD_REACTORS
330
C
102
}
330
C
100
AcDbDictionary
281
     1
  3
ANNOALLVISIBLE
350
E0
  3
CANNOSCALE
350
E1
  3
CMLEADERSTYLE
350
DD
  3
CTABLESTYLE
350
DC
  3
CVIEWDETAILSTYLE
350
DE
  3
CVIEWSECTIONSTYLE
350
DF
  0
SORTENTSTABLE
  5
9F
102
{ACAD_REACTORS
330
9E
102
}
330
9E
100
AcDbSortentsTable
330
70
  0
ACDBDETAILVIEWSTYLE
  5
6B
102
{ACAD_XDICTIONARY
360
E7
102
}
102
{ACAD_REACTORS
330
6A
102
}
330
6A
100
AcDbModelDocViewStyle
 70
     0
  3
Imperial24
290
     0
100
AcDbDetailViewStyle
 70
     0
 71
     0
 90
        3
 71
     1
340
55
 62
   256
 40
0.24
340
0
 62
   256
 40
0.24
300

 40
0.36
280
     3
 71
     2
340
5D
 90
       25
 62
   256
 71
     3
340
55
 62
   256
 40
0.24
 90
        1
 40
0.75
 90
        1
300
%<\AcVar ViewType \f "%tc1">% %<\AcVar ViewDetailId>%\PSCALE %<\AcVar ViewScale \f "%sn">%
 71
     4
340
5D
 90
       25
 62
   256
340
5D
 90
       25
 62
   256
280
     0
  0
LAYOUT
  5
73
102
{ACAD_REACTORS
330
62
102
}
330
62
100
AcDbPlotSettings
  1

  2
AutoCAD PDF (High Quality Print).pc3
  4
ISO_full_bleed_A2_(594.00_x_420.00_MM)
  6

 40
0.0
 41
0.0
 42
0.0
 43
0.0
 44
594.0
 45
420.0
 46
0.0
 47
0.0
 48
0.0
 49
0.0
140
0.0
141
0.0
142
1.0
143
1.716458
 70
 11952
 72
     1
 73
     0
 74
     0
  7

 75
     0
147
0.582595
 76
     0
 77
     2
 78
   300
148
212.787893
149
16.336261
100
AcDbLayout
  1
Model
 70
     1
 71
     0
 10
0.0
 20
0.0
 11
12.0
 21
9.0
 12
0.0
 22
0.0
 32
0.0
 14
0.0
 24
0.0
 34
0.0
 15
0.0
 25
0.0
 35
0.0
146
0.0
 13
0.0
 23
0.0
 33
0.0
 16
1.0
 26
0.0
 36
0.0
 17
0.0
 27
1.0
 37
0.0
 76
     0
330
70
1001
ACAD_PSEXT
1000
AutoCAD PDF (High Quality Print).pc3
1000
DWG To PDF
1000
File
1000

1070
     0
  0
LAYOUT
  5
6F
102
{ACAD_REACTORS
330
62
102
}
330
62
100
AcDbPlotSettings
  1

  2
None
  4

  6

 40
0.0
 41
0.0
 42
0.0
 43
0.0
 44
0.0
 45
0.0
 46
0.0
 47
0.0
 48
0.0
 49
0.0
140
0.0
141
0.0
142
1.0
143
1.0
 70
   688
 72
     0
 73
     0
 74
     5
  7

 75
    16
147
1.0
 76
     0
 77
     2
 78
   300
148
0.0
149
0.0
100
AcDbLayout
  1
Sheet1
 70
     1
 71
     1
 10
0.0
 20
0.0
 11
12.0
 21
9.0
 12
0.0
 22
0.0
 32
0.0
 14
0.0
 24
0.0
 34
0.0
 15
0.0
 25
0.0
 35
0.0
146
0.0
 13
0.0
 23
0.0
 33
0.0
 16
1.0
 26
0.0
 36
0.0
 17
0.0
 27
1.0
 37
0.0
 76
     0
330
6C
  0
LAYOUT
  5
77
102
{ACAD_REACTORS
330
62
102
}
330
62
100
AcDbPlotSettings
  1

  2
None
  4

  6

 40
0.0
 41
0.0
 42
0.0
 43
0.0
 44
0.0
 45
0.0
 46
0.0
 47
0.0
 48
0.0
 49
0.0
140
0.0
141
0.0
142
1.0
143
1.0
 70
   688
 72
     0
 73
     0
 74
     5
  7

 75
    16
147
1.0
 76
     0
 77
     2
 78
   300
148
0.0
149
0.0
100
AcDbLayout
  1
Sheet2
 70
     1
 71
     2
 10
0.0
 20
0.0
 11
12.0
 21
9.0
 12
0.0
 22
0.0
 32
0.0
 14
0.0
 24
0.0
 34
0.0
 15
0.0
 25
0.0
 35
0.0
146
0.0
 13
0.0
 23
0.0
 33
0.0
 16
1.0
 26
0.0
 36
0.0
 17
0.0
 27
1.0
 37
0.0
 76
     0
330
74
  0
MATERIAL
  5
19
102
{ACAD_XDICTIONARY
360
1A
102
}
102
{ACAD_REACTORS
330
10
102
}
330
10
100
AcDbMaterial
  1
ByBlock
 72
     0
 43
0.020833
 43
0.0
 43
0.0
 43
0.0
 43
0.0
 43
0.020833
 43
0.0
 43
0.0
 43
0.0
 43
0.0
 43
1.0
 43
0.0
 43
0.0
 43
0.0
 43
0.0
 43
1.0
 77
     0
 47
0.020833
 47
0.0
 47
0.0
 47
0.0
 47
0.0
 47
0.020833
 47
0.0
 47
0.0
 47
0.0
 47
0.0
 47
1.0
 47
0.0
 47
0.0
 47
0.0
 47
0.0
 47
1.0
171
     0
 49
0.020833
 49
0.0
 49
0.0
 49
0.0
 49
0.0
 49
0.020833
 49
0.0
 49
0.0
 49
0.0
 49
0.0
 49
1.0
 49
0.0
 49
0.0
 49
0.0
 49
0.0
 49
1.0
175
     0
142
0.020833
142
0.0
142
0.0
142
0.0
142
0.0
142
0.020833
142
0.0
142
0.0
142
0.0
142
0.0
142
1.0
142
0.0
142
0.0
142
0.0
142
0.0
142
1.0
179
     0
144
0.020833
144
0.0
144
0.0
144
0.0
144
0.0
144
0.020833
144
0.0
144
0.0
144
0.0
144
0.0
144
1.0
144
0.0
144
0.0
144
0.0
144
0.0
144
1.0
147
0.020833
147
0.0
147
0.0
147
0.0
147
0.0
147
0.020833
147
0.0
147
0.0
147
0.0
147
0.0
147
1.0
147
0.0
147
0.0
147
0.0
147
0.0
147
1.0
  0
MATERIAL
  5
11
102
{ACAD_XDICTIONARY
360
12
102
}
102
{ACAD_REACTORS
330
10
102
}
330
10
100
AcDbMaterial
  1
ByLayer
 72
     0
 43
0.020833
 43
0.0
 43
0.0
 43
0.0
 43
0.0
 43
0.020833
 43
0.0
 43
0.0
 43
0.0
 43
0.0
 43
1.0
 43
0.0
 43
0.0
 43
0.0
 43
0.0
 43
1.0
 77
     0
 47
0.020833
 47
0.0
 47
0.0
 47
0.0
 47
0.0
 47
0.020833
 47
0.0
 47
0.0
 47
0.0
 47
0.0
 47
1.0
 47
0.0
 47
0.0
 47
0.0
 47
0.0
 47
1.0
171
     0
 49
0.020833
 49
0.0
 49
0.0
 49
0.0
 49
0.0
 49
0.020833
 49
0.0
 49
0.0
 49
0.0
 49
0.0
 49
1.0
 49
0.0
 49
0.0
 49
0.0
 49
0.0
 49
1.0
175
     0
142
0.020833
142
0.0
142
0.0
142
0.0
142
0.0
142
0.020833
142
0.0
142
0.0
142
0.0
142
0.0
142
1.0
142
0.0
142
0.0
142
0.0
142
0.0
142
1.0
179
     0
144
0.020833
144
0.0
144
0.0
144
0.0
144
0.0
144
0.020833
144
0.0
144
0.0
144
0.0
144
0.0
144
1.0
144
0.0
144
0.0
144
0.0
144
0.0
144
1.0
147
0.020833
147
0.0
147
0.0
147
0.0
147
0.0
147
0.020833
147
0.0
147
0.0
147
0.0
147
0.0
147
1.0
147
0.0
147
0.0
147
0.0
147
0.0
147
1.0
  0
MATERIAL
  5
21
102
{ACAD_XDICTIONARY
360
22
102
}
102
{ACAD_REACTORS
330
10
102
}
330
10
100
AcDbMaterial
  1
Global
 72
     0
 43
0.020833
 43
0.0
 43
0.0
 43
0.0
 43
0.0
 43
0.020833
 43
0.0
 43
0.0
 43
0.0
 43
0.0
 43
1.0
 43
0.0
 43
0.0
 43
0.0
 43
0.0
 43
1.0
 77
     0
 47
0.020833
 47
0.0
 47
0.0
 47
0.0
 47
0.0
 47
0.020833
 47
0.0
 47
0.0
 47
0.0
 47
0.0
 47
1.0
 47
0.0
 47
0.0
 47
0.0
 47
0.0
 47
1.0
171
     0
 49
0.020833
 49
0.0
 49
0.0
 49
0.0
 49
0.0
 49
0.020833
 49
0.0
 49
0.0
 49
0.0
 49
0.0
 49
1.0
 49
0.0
 49
0.0
 49
0.0
 49
0.0
 49
1.0
175
     0
142
0.020833
142
0.0
142
0.0
142
0.0
142
0.0
142
0.020833
142
0.0
142
0.0
142
0.0
142
0.0
142
1.0
142
0.0
142
0.0
142
0.0
142
0.0
142
1.0
179
     0
144
0.020833
144
0.0
144
0.0
144
0.0
144
0.0
144
0.020833
144
0.0
144
0.0
144
0.0
144
0.0
144
1.0
144
0.0
144
0.0
144
0.0
144
0.0
144
1.0
147
0.020833
147
0.0
147
0.0
147
0.0
147
0.0
147
0.020833
147
0.0
147
0.0
147
0.0
147
0.0
147
1.0
147
0.0
147
0.0
147
0.0
147
0.0
147
1.0
  0
MLEADERSTYLE
  5
67
102
{ACAD_REACTORS
330
66
102
}
330
66
100
AcDbMLeaderStyle
179
     2
170
     2
171
     1
172
     0
 90
        2
 40
0.0
 41
0.0
173
     1
 91
-1056964608
340
5B
 92
       -2
290
     1
 42
0.09
291
     1
 43
0.36
  3
Standard
 44
0.18
300

342
55
174
     1
178
     6
175
     1
176
     0
 93
-1056964608
 45
0.18
292
     0
297
     0
 46
0.18
 94
-1056964608
 47
1.0
 49
1.0
140
1.0
293
     1
141
0.0
294
     1
177
     0
142
1.0
295
     0
296
     0
143
0.125
271
     0
272
     9
273
     9
298
     1
  0
MLINESTYLE
  5
60
102
{ACAD_REACTORS
330
5F
102
}
330
5F
100
AcDbMlineStyle
  2
STANDARD
 70
     0
  3

 62
   256
 51
90.0
 52
90.0
 71
     0
  0
ACDBPLACEHOLDER
  5
F
102
{ACAD_REACTORS
330
E
102
}
330
E
  0
SCALE
  5
43
102
{ACAD_REACTORS
330
42
102
}
330
42
100
AcDbScale
 70
     0
300
1:1
140
1.0
141
1.0
290
     1
  0
SCALE
  5
44
102
{ACAD_REACTORS
330
42
102
}
330
42
100
AcDbScale
 70
     0
300
1:2
140
1.0
141
2.0
290
     0
  0
SCALE
  5
45
102
{ACAD_REACTORS
330
42
102
}
330
42
100
AcDbScale
 70
     0
300
1:4
140
1.0
141
4.0
290
     0
  0
SCALE
  5
46
102
{ACAD_REACTORS
330
42
102
}
330
42
100
AcDbScale
 70
     0
300
1:5
140
1.0
141
5.0
290
     0
  0
SCALE
  5
47
102
{ACAD_REACTORS
330
42
102
}
330
42
100
AcDbScale
 70
     0
300
1:8
140
1.0
141
8.0
290
     0
  0
SCALE
  5
48
102
{ACAD_REACTORS
330
42
102
}
330
42
100
AcDbScale
 70
     0
300
1:10
140
1.0
141
10.0
290
     0
  0
SCALE
  5
49
102
{ACAD_REACTORS
330
42
102
}
330
42
100
AcDbScale
 70
     0
300
1:16
140
1.0
141
16.0
290
     0
  0
SCALE
  5
4A
102
{ACAD_REACTORS
330
42
102
}
330
42
100
AcDbScale
 70
     0
300
1:20
140
1.0
141
20.0
290
     0
  0
SCALE
  5
4B
102
{ACAD_REACTORS
330
42
102
}
330
42
100
AcDbScale
 70
     0
300
1:30
140
1.0
141
30.0
290
     0
  0
SCALE
  5
4C
102
{ACAD_REACTORS
330
42
102
}
330
42
100
AcDbScale
 70
     0
300
1:40
140
1.0
141
40.0
290
     0
  0
SCALE
  5
4D
102
{ACAD_REACTORS
330
42
102
}
330
42
100
AcDbScale
 70
     0
300
1:50
140
1.0
141
50.0
290
     0
  0
SCALE
  5
4E
102
{ACAD_REACTORS
330
42
102
}
330
42
100
AcDbScale
 70
     0
300
1:100
140
1.0
141
100.0
290
     0
  0
SCALE
  5
4F
102
{ACAD_REACTORS
330
42
102
}
330
42
100
AcDbScale
 70
     0
300
2:1
140
2.0
141
1.0
290
     0
  0
SCALE
  5
50
102
{ACAD_REACTORS
330
42
102
}
330
42
100
AcDbScale
 70
     0
300
4:1
140
4.0
141
1.0
290
     0
  0
SCALE
  5
51
102
{ACAD_REACTORS
330
42
102
}
330
42
100
AcDbScale
 70
     0
300
8:1
140
8.0
141
1.0
290
     0
  0
SCALE
  5
52
102
{ACAD_REACTORS
330
42
102
}
330
42
100
AcDbScale
 70
     0
300
10:1
140
10.0
141
1.0
290
     0
  0
SCALE
  5
53
102
{ACAD_REACTORS
330
42
102
}
330
42
100
AcDbScale
 70
     0
300
100:1
140
100.0
141
1.0
290
     0
  0
ACDBSECTIONVIEWSTYLE
  5
69
102
{ACAD_XDICTIONARY
360
E5
102
}
102
{ACAD_REACTORS
330
68
102
}
330
68
100
AcDbModelDocViewStyle
 70
     0
  3
Imperial24
290
     0
100
AcDbSectionViewStyle
 70
     0
 71
     0
 90
       78
 71
     1
340
55
 62
   256
 40
0.24
340
0
340
0
 62
   256
 40
0.24
300
I, O, Q, S, X, Z
 40
0.48
 90
        3
 40
0.18
 90
        1
 71
     2
340
5D
 90
       25
 62
   256
340
5D
 90
       50
 62
   256
 40
0.24
 40
0.0
 40
0.24
 71
     3
340
55
 62
   256
 40
0.24
 90
        1
 40
0.75
 90
        1
300
%<\AcVar ViewType \f "%tc1">% %<\AcVar ViewSectionStartId>%-%<\AcVar ViewSectionEndId>%\PSCALE %<\AcVar ViewScale \f "%sn">%
 71
     4
 62
   256
 62
   257
300
ANSI31
 40
1.0
 90
        0
290
     0
290
     0
 90
        6
 40
0.0
 40
1.570796
 40
0.261799
 40
1.308997
 40
-0.261799
 40
1.832596
  0
TABLESTYLE
  5
65
102
{ACAD_XDICTIONARY
360
E2
102
}
102
{ACAD_REACTORS
330
64
102
}
330
64
100
AcDbTableStyle
280
     0
  3
Standard
 70
     0
 71
     0
 40
1.5
 41
1.5
280
     0
281
     0
  7
Standard
140
0.18
170
     2
 62
     0
 63
     7
283
     0
 90
      512
 91
        0
  1

274
    -2
284
     1
 64
     0
275
    -2
285
     1
 65
     0
276
    -2
286
     1
 66
     0
277
    -2
287
     1
 67
     0
278
    -2
288
     1
 68
     0
279
    -2
289
     1
 69
     0
  7
Standard
140
0.25
170
     5
 62
     0
 63
     7
283
     0
 90
      512
 91
        0
  1

274
    -2
284
     1
 64
     0
275
    -2
285
     1
 65
     0
276
    -2
286
     1
 66
     0
277
    -2
287
     1
 67
     0
278
    -2
288
     1
 68
     0
279
    -2
289
     1
 69
     0
  7
Standard
140
0.18
170
     5
 62
     0
 63
     7
283
     0
 90
      512
 91
        0
  1

274
    -2
284
     1
 64
     0
275
    -2
285
     1
 65
     0
276
    -2
286
     1
 66
     0
277
    -2
287
     1
 67
     0
278
    -2
288
     1
 68
     0
279
    -2
289
     1
 69
     0
  0
VISUALSTYLE
  5
2F
102
{ACAD_REACTORS
330
29
102
}
330
29
100
AcDbVisualStyle
  2
2dWireframe
 70
     4
177
     3
291
     0
 70
    58
 90
        0
176
     1
 90
        2
176
     1
 90
        0
176
     1
 90
        0
176
     1
 40
0.6
176
     1
 40
30.0
176
     1
 62
     7
420
 16777215
176
     1
 90
        1
176
     1
 90
        4
176
     1
 62
     7
176
     1
 62
   257
176
     1
 90
        1
176
     1
 90
        1
176
     1
 40
1.0
176
     1
 90
        0
176
     1
 62
   257
176
     1
 40
1.0
176
     1
 90
        1
176
     1
 90
        6
176
     1
 90
        2
176
     1
 62
     7
176
     1
 90
        5
176
     1
 90
        0
176
     1
 90
        0
176
     1
290
     0
176
     1
 90
        1
176
     1
 40
0.0
176
     1
 90
        0
176
     1
290
     1
176
     1
290
     1
176
     1
290
     0
176
     1
290
     0
176
     1
290
     0
176
     1
290
     0
176
     1
290
     0
176
     1
290
     0
176
     1
290
     0
176
     1
 90
       50
176
     1
 40
0.0
176
     1
 40
1.0
176
     1
 90
        0
176
     1
 62
    18
420
        0
176
     1
 90
       50
176
     1
 90
        3
176
     1
 62
     5
420
      255
176
     1
290
     0
176
     1
 90
       50
176
     1
 90
       50
176
     1
 90
       50
176
     1
290
     0
176
     1
 90
       50
176
     1
 62
   256
176
     0
 40
1.0
176
     0
 90
        2
176
     1
  1
strokes_ogs.tif
176
     1
290
     0
176
     1
 40
1.0
176
     1
 40
1.0
176
     1
1001
ACAD
1000
AcDbSavedByObjectVersion
1070
     0
  0
VISUALSTYLE
  5
2E
102
{ACAD_REACTORS
330
29
102
}
330
29
100
AcDbVisualStyle
  2
Basic
 70
     7
177
     3
291
     1
 70
    58
 90
        1
176
     1
 90
        0
176
     1
 90
        1
176
     1
 90
        0
176
     1
 40
0.6
176
     1
 40
30.0
176
     1
 62
     7
420
 16777215
176
     1
 90
        0
176
     1
 90
        4
176
     1
 62
     7
176
     1
 62
   257
176
     1
 90
        1
176
     1
 90
        1
176
     1
 40
1.0
176
     1
 90
        8
176
     1
 62
     7
176
     1
 40
1.0
176
     1
 90
        1
176
     1
 90
        6
176
     1
 90
        2
176
     1
 62
     7
176
     1
 90
        5
176
     1
 90
        0
176
     1
 90
        0
176
     1
290
     0
176
     1
 90
        1
176
     1
 40
0.0
176
     1
 90
        0
176
     1
290
     0
176
     1
290
     1
176
     1
290
     1
176
     1
290
     0
176
     1
290
     0
176
     1
290
     0
176
     1
290
     0
176
     1
290
     0
176
     1
290
     0
176
     1
 90
       50
176
     1
 40
0.0
176
     1
 40
1.0
176
     1
 90
        0
176
     1
 62
    18
420
        0
176
     1
 90
       50
176
     1
 90
        3
176
     1
 62
     5
420
      255
176
     1
290
     0
176
     1
 90
       50
176
     1
 90
       50
176
     1
 90
       50
176
     1
290
     0
176
     1
 90
       50
176
     1
 62
   256
176
     0
 40
1.0
176
     0
 90
        2
176
     1
  1
strokes_ogs.tif
176
     1
290
     0
176
     1
 40
1.0
176
     1
 40
1.0
176
     1
1001
ACAD
1000
AcDbSavedByObjectVersion
1070
     0
  0
VISUALSTYLE
  5
35
102
{ACAD_REACTORS
330
29
102
}
330
29
100
AcDbVisualStyle
  2
Brighten
 70
    12
177
     3
291
     1
 70
    58
 90
        2
176
     1
 90
        2
176
     1
 90
        0
176
     1
 90
        0
176
     1
 40
0.6
176
     1
 40
30.0
176
     1
 62
     7
420
 16777215
176
     1
 90
        1
176
     1
 90
        4
176
     1
 62
     7
176
     1
 62
   257
176
     1
 90
        1
176
     1
 90
        1
176
     1
 40
1.0
176
     1
 90
        8
176
     1
 62
     7
176
     1
 40
1.0
176
     1
 90
        1
176
     1
 90
        6
176
     1
 90
        2
176
     1
 62
     7
176
     1
 90
        5
176
     1
 90
        0
176
     1
 90
        0
176
     1
290
     0
176
     1
 90
        1
176
     1
 40
50.0
176
     1
 90
        0
176
     1
290
     0
176
     1
290
     1
176
     1
290
     1
176
     1
290
     0
176
     1
290
     0
176
     1
290
     0
176
     1
290
     0
176
     1
290
     0
176
     1
290
     0
176
     1
 90
       50
176
     1
 40
0.0
176
     1
 40
1.0
176
     1
 90
        0
176
     1
 62
    18
420
        0
176
     1
 90
       50
176
     1
 90
        3
176
     1
 62
     5
420
      255
176
     1
290
     0
176
     1
 90
       50
176
     1
 90
       50
176
     1
 90
       50
176
     1
290
     0
176
     1
 90
       50
176
     1
 62
   256
176
     0
 40
1.0
176
     0
 90
        2
176
     1
  1
strokes_ogs.tif
176
     1
290
     0
176
     1
 40
1.0
176
     1
 40
1.0
176
     1
1001
ACAD
1000
AcDbSavedByObjectVersion
1070
     0
  0
VISUALSTYLE
  5
39
102
{ACAD_REACTORS
330
29
102
}
330
29
100
AcDbVisualStyle
  2
ColorChange
 70
    16
177
     3
291
     1
 70
    58
 90
        2
176
     1
 90
        2
176
     1
 90
        3
176
     1
 90
        0
176
     1
 40
0.6
176
     1
 40
30.0
176
     1
 62
     8
420
  8421504
176
     1
 90
        1
176
     1
 90
        4
176
     1
 62
     7
176
     1
 62
   257
176
     1
 90
        1
176
     1
 90
        1
176
     1
 40
1.0
176
     1
 90
        8
176
     1
 62
     8
420
  8421504
176
     1
 40
1.0
176
     1
 90
        1
176
     1
 90
        6
176
     1
 90
        2
176
     1
 62
     7
176
     1
 90
        5
176
     1
 90
        0
176
     1
 90
        0
176
     1
290
     0
176
     1
 90
        1
176
     1
 40
0.0
176
     1
 90
        0
176
     1
290
     0
176
     1
290
     1
176
     1
290
     1
176
     1
290
     0
176
     1
290
     0
176
     1
290
     0
176
     1
290
     0
176
     1
290
     0
176
     1
290
     0
176
     1
 90
       50
176
     1
 40
0.0
176
     1
 40
1.0
176
     1
 90
        0
176
     1
 62
    18
420
        0
176
     1
 90
       50
176
     1
 90
        3
176
     1
 62
     5
420
      255
176
     1
290
     0
176
     1
 90
       50
176
     1
 90
       50
176
     1
 90
       50
176
     1
290
     0
176
     1
 90
       50
176
     1
 62
   256
176
     0
 40
1.0
176
     0
 90
        2
176
     1
  1
strokes_ogs.tif
176
     1
290
     0
176
     1
 40
1.0
176
     1
 40
1.0
176
     1
1001
ACAD
1000
AcDbSavedByObjectVersion
1070
     0
  0
VISUALSTYLE
  5
32
102
{ACAD_REACTORS
330
29
102
}
330
29
100
AcDbVisualStyle
  2
Conceptual
 70
     9
177
     3
291
     0
 70
    58
 90
        3
176
     1
 90
        2
176
     1
 90
        0
176
     1
 90
        0
176
     1
 40
0.6
176
     1
 40
30.0
176
     1
 62
     7
420
 16777215
176
     1
 90
        2
176
     1
 90
        2
176
     1
 62
     7
176
     1
 62
   257
176
     1
 90
        1
176
     1
 90
        1
176
     1
 40
179.0
176
     1
 90
        8
176
     1
 62
     7
176
     1
 40
1.0
176
     1
 90
        1
176
     1
 90
        6
176
     1
 90
        2
176
     1
 62
     7
176
     1
 90
        3
176
     1
 90
        0
176
     1
 90
        0
176
     1
290
     0
176
     1
 90
        1
176
     1
 40
0.0
176
     1
 90
        0
176
     1
290
     0
176
     1
290
     1
176
     1
290
     1
176
     1
290
     0
176
     1
290
     0
176
     1
290
     0
176
     1
290
     0
176
     1
290
     0
176
     1
290
     0
176
     1
 90
       50
176
     1
 40
0.0
176
     1
 40
1.0
176
     1
 90
        0
176
     1
 62
    18
420
        0
176
     1
 90
       50
176
     1
 90
        3
176
     1
 62
     5
420
      255
176
     1
290
     0
176
     1
 90
       50
176
     1
 90
       50
176
     1
 90
       50
176
     1
290
     0
176
     1
 90
       50
176
     1
 62
   256
176
     0
 40
1.0
176
     0
 90
        2
176
     1
  1
strokes_ogs.tif
176
     1
290
     0
176
     1
 40
1.0
176
     1
 40
1.0
176
     1
1001
ACAD
1000
AcDbSavedByObjectVersion
1070
     0
  0
VISUALSTYLE
  5
34
102
{ACAD_REACTORS
330
29
102
}
330
29
100
AcDbVisualStyle
  2
Dim
 70
    11
177
     3
291
     1
 70
    58
 90
        2
176
     1
 90
        2
176
     1
 90
        0
176
     1
 90
        0
176
     1
 40
0.6
176
     1
 40
30.0
176
     1
 62
     7
420
 16777215
176
     1
 90
        1
176
     1
 90
        4
176
     1
 62
     7
176
     1
 62
   257
176
     1
 90
        1
176
     1
 90
        1
176
     1
 40
1.0
176
     1
 90
        8
176
     1
 62
     7
176
     1
 40
1.0
176
     1
 90
        1
176
     1
 90
        6
176
     1
 90
        2
176
     1
 62
     7
176
     1
 90
        5
176
     1
 90
        0
176
     1
 90
        0
176
     1
290
     0
176
     1
 90
        1
176
     1
 40
-50.0
176
     1
 90
        0
176
     1
290
     0
176
     1
290
     1
176
     1
290
     1
176
     1
290
     0
176
     1
290
     0
176
     1
290
     0
176
     1
290
     0
176
     1
290
     0
176
     1
290
     0
176
     1
 90
       50
176
     1
 40
0.0
176
     1
 40
1.0
176
     1
 90
        0
176
     1
 62
    18
420
        0
176
     1
 90
       50
176
     1
 90
        3
176
     1
 62
     5
420
      255
176
     1
290
     0
176
     1
 90
       50
176
     1
 90
       50
176
     1
 90
       50
176
     1
290
     0
176
     1
 90
       50
176
     1
 62
   256
176
     0
 40
1.0
176
     0
 90
        2
176
     1
  1
strokes_ogs.tif
176
     1
290
     0
176
     1
 40
1.0
176
     1
 40
1.0
176
     1
1001
ACAD
1000
AcDbSavedByObjectVersion
1070
     0
  0
VISUALSTYLE
  5
41
102
{ACAD_REACTORS
330
29
102
}
330
29
100
AcDbVisualStyle
  2
EdgeColorOff
 70
    22
177
     3
291
     1
 70
    58
 90
        2
176
     0
 90
        2
176
     0
 90
        0
176
     0
 90
        0
176
     0
 40
0.6
176
     0
 40
30.0
176
     0
 62
     7
420
 16777215
176
     0
 90
        1
176
     0
 90
        4
176
     0
 62
     7
176
     0
 62
   257
176
     0
 90
        1
176
     0
 90
        1
176
     0
 40
1.0
176
     0
 90
        8
176
     2
 62
     7
176
     0
 40
1.0
176
     0
 90
        1
176
     0
 90
        6
176
     0
 90
        2
176
     0
 62
     7
176
     0
 90
        5
176
     0
 90
        0
176
     0
 90
        0
176
     0
290
     0
176
     0
 90
        1
176
     0
 40
0.0
176
     0
 90
        0
176
     0
290
     0
176
     0
290
     1
176
     0
290
     1
176
     0
290
     0
176
     0
290
     0
176
     0
290
     0
176
     0
290
     0
176
     0
290
     0
176
     0
290
     0
176
     0
 90
       50
176
     0
 40
0.0
176
     0
 40
1.0
176
     0
 90
        0
176
     0
 62
    18
420
        0
176
     0
 90
       50
176
     0
 90
        3
176
     0
 62
     5
420
      255
176
     0
290
     0
176
     0
 90
       50
176
     0
 90
       50
176
     0
 90
       50
176
     0
290
     0
176
     0
 90
       50
176
     0
 62
   256
176
     0
 40
1.0
176
     0
 90
        2
176
     0
  1
strokes_ogs.tif
176
     0
290
     0
176
     0
 40
1.0
176
     0
 40
1.0
176
     0
1001
ACAD
1000
AcDbSavedByObjectVersion
1070
     0
  0
VISUALSTYLE
  5
38
102
{ACAD_REACTORS
330
29
102
}
330
29
100
AcDbVisualStyle
  2
Facepattern
 70
    15
177
     3
291
     1
 70
    58
 90
        2
176
     1
 90
        2
176
     1
 90
        0
176
     1
 90
        0
176
     1
 40
0.6
176
     1
 40
30.0
176
     1
 62
     7
420
 16777215
176
     1
 90
        1
176
     1
 90
        4
176
     1
 62
     7
176
     1
 62
   257
176
     1
 90
        1
176
     1
 90
        1
176
     1
 40
1.0
176
     1
 90
        8
176
     1
 62
     7
176
     1
 40
1.0
176
     1
 90
        1
176
     1
 90
        6
176
     1
 90
        2
176
     1
 62
     7
176
     1
 90
        5
176
     1
 90
        0
176
     1
 90
        0
176
     1
290
     0
176
     1
 90
        1
176
     1
 40
0.0
176
     1
 90
        0
176
     1
290
     0
176
     1
290
     1
176
     1
290
     1
176
     1
290
     0
176
     1
290
     0
176
     1
290
     0
176
     1
290
     0
176
     1
290
     0
176
     1
290
     0
176
     1
 90
       50
176
     1
 40
0.0
176
     1
 40
1.0
176
     1
 90
        0
176
     1
 62
    18
420
        0
176
     1
 90
       50
176
     1
 90
        3
176
     1
 62
     5
420
      255
176
     1
290
     0
176
     1
 90
       50
176
     1
 90
       50
176
     1
 90
       50
176
     1
290
     0
176
     1
 90
       50
176
     1
 62
   256
176
     0
 40
1.0
176
     0
 90
        2
176
     1
  1
strokes_ogs.tif
176
     1
290
     0
176
     1
 40
1.0
176
     1
 40
1.0
176
     1
1001
ACAD
1000
AcDbSavedByObjectVersion
1070
     0
  0
VISUALSTYLE
  5
2A
102
{ACAD_REACTORS
330
29
102
}
330
29
100
AcDbVisualStyle
  2
Flat
 70
     0
177
     3
291
     1
 70
    58
 90
        2
176
     1
 90
        1
176
     1
 90
        1
176
     1
 90
        2
176
     1
 40
0.6
176
     1
 40
30.0
176
     1
 62
     7
420
 16777215
176
     1
 90
        0
176
     1
 90
        0
176
     1
 62
     7
176
     1
 62
   257
176
     1
 90
        1
176
     1
 90
        1
176
     1
 40
1.0
176
     1
 90
        8
176
     1
 62
     7
176
     1
 40
1.0
176
     1
 90
        1
176
     1
 90
        6
176
     1
 90
        2
176
     1
 62
     7
176
     1
 90
        5
176
     1
 90
        0
176
     1
 90
        0
176
     1
290
     0
176
     1
 90
       13
176
     1
 40
0.0
176
     1
 90
        0
176
     1
290
     0
176
     1
290
     1
176
     1
290
     1
176
     1
290
     0
176
     1
290
     0
176
     1
290
     0
176
     1
290
     0
176
     1
290
     0
176
     1
290
     0
176
     1
 90
       50
176
     1
 40
0.0
176
     1
 40
1.0
176
     1
 90
        0
176
     1
 62
    18
420
        0
176
     1
 90
       50
176
     1
 90
        3
176
     1
 62
     5
420
      255
176
     1
290
     0
176
     1
 90
       50
176
     1
 90
       50
176
     1
 90
       50
176
     1
290
     0
176
     1
 90
       50
176
     1
 62
   256
176
     0
 40
1.0
176
     0
 90
        2
176
     1
  1
strokes_ogs.tif
176
     1
290
     0
176
     1
 40
1.0
176
     1
 40
1.0
176
     1
1001
ACAD
1000
AcDbSavedByObjectVersion
1070
     0
  0
VISUALSTYLE
  5
2B
102
{ACAD_REACTORS
330
29
102
}
330
29
100
AcDbVisualStyle
  2
FlatWithEdges
 70
     1
177
     3
291
     1
 70
    58
 90
        2
176
     1
 90
        1
176
     1
 90
        1
176
     1
 90
        2
176
     1
 40
0.6
176
     1
 40
30.0
176
     1
 62
     7
420
 16777215
176
     1
 90
        1
176
     1
 90
        0
176
     1
 62
     7
176
     1
 62
   257
176
     1
 90
        1
176
     1
 90
        1
176
     1
 40
1.0
176
     1
 90
        0
176
     1
 62
   257
176
     1
 40
1.0
176
     1
 90
        1
176
     1
 90
        6
176
     1
 90
        2
176
     1
 62
     7
176
     1
 90
        5
176
     1
 90
        0
176
     1
 90
        0
176
     1
290
     0
176
     1
 90
       13
176
     1
 40
0.0
176
     1
 90
        0
176
     1
290
     0
176
     1
290
     1
176
     1
290
     1
176
     1
290
     0
176
     1
290
     0
176
     1
290
     0
176
     1
290
     0
176
     1
290
     0
176
     1
290
     0
176
     1
 90
       50
176
     1
 40
0.0
176
     1
 40
1.0
176
     1
 90
        0
176
     1
 62
    18
420
        0
176
     1
 90
       50
176
     1
 90
        3
176
     1
 62
     5
420
      255
176
     1
290
     0
176
     1
 90
       50
176
     1
 90
       50
176
     1
 90
       50
176
     1
290
     0
176
     1
 90
       50
176
     1
 62
   256
176
     0
 40
1.0
176
     0
 90
        2
176
     1
  1
strokes_ogs.tif
176
     1
290
     0
176
     1
 40
1.0
176
     1
 40
1.0
176
     1
1001
ACAD
1000
AcDbSavedByObjectVersion
1070
     0
  0
VISUALSTYLE
  5
2C
102
{ACAD_REACTORS
330
29
102
}
330
29
100
AcDbVisualStyle
  2
Gouraud
 70
     2
177
     3
291
     1
 70
    58
 90
        2
176
     1
 90
        2
176
     1
 90
        1
176
     1
 90
        2
176
     1
 40
0.6
176
     1
 40
30.0
176
     1
 62
     7
420
 16777215
176
     1
 90
        0
176
     1
 90
        0
176
     1
 62
     7
176
     1
 62
   257
176
     1
 90
        1
176
     1
 90
        1
176
     1
 40
1.0
176
     1
 90
        0
176
     1
 62
     7
176
     1
 40
1.0
176
     1
 90
        1
176
     1
 90
        6
176
     1
 90
        2
176
     1
 62
     7
176
     1
 90
        5
176
     1
 90
        0
176
     1
 90
        0
176
     1
290
     0
176
     1
 90
       13
176
     1
 40
0.0
176
     1
 90
        0
176
     1
290
     0
176
     1
290
     1
176
     1
290
     1
176
     1
290
     0
176
     1
290
     0
176
     1
290
     0
176
     1
290
     0
176
     1
290
     0
176
     1
290
     0
176
     1
 90
       50
176
     1
 40
0.0
176
     1
 40
1.0
176
     1
 90
        0
176
     1
 62
    18
420
        0
176
     1
 90
       50
176
     1
 90
        3
176
     1
 62
     5
420
      255
176
     1
290
     0
176
     1
 90
       50
176
     1
 90
       50
176
     1
 90
       50
176
     1
290
     0
176
     1
 90
       50
176
     1
 62
   256
176
     0
 40
1.0
176
     0
 90
        2
176
     1
  1
strokes_ogs.tif
176
     1
290
     0
176
     1
 40
1.0
176
     1
 40
1.0
176
     1
1001
ACAD
1000
AcDbSavedByObjectVersion
1070
     0
  0
VISUALSTYLE
  5
2D
102
{ACAD_REACTORS
330
29
102
}
330
29
100
AcDbVisualStyle
  2
GouraudWithEdges
 70
     3
177
     3
291
     1
 70
    58
 90
        2
176
     1
 90
        2
176
     1
 90
        1
176
     1
 90
        2
176
     1
 40
0.6
176
     1
 40
30.0
176
     1
 62
     7
420
 16777215
176
     1
 90
        1
176
     1
 90
        0
176
     1
 62
     7
176
     1
 62
   257
176
     1
 90
        1
176
     1
 90
        1
176
     1
 40
1.0
176
     1
 90
        0
176
     1
 62
   257
176
     1
 40
1.0
176
     1
 90
        1
176
     1
 90
        6
176
     1
 90
        2
176
     1
 62
     7
176
     1
 90
        5
176
     1
 90
        0
176
     1
 90
        0
176
     1
290
     0
176
     1
 90
       13
176
     1
 40
0.0
176
     1
 90
        0
176
     1
290
     0
176
     1
290
     1
176
     1
290
     1
176
     1
290
     0
176
     1
290
     0
176
     1
290
     0
176
     1
290
     0
176
     1
290
     0
176
     1
290
     0
176
     1
 90
       50
176
     1
 40
0.0
176
     1
 40
1.0
176
     1
 90
        0
176
     1
 62
    18
420
        0
176
     1
 90
       50
176
     1
 90
        3
176
     1
 62
     5
420
      255
176
     1
290
     0
176
     1
 90
       50
176
     1
 90
       50
176
     1
 90
       50
176
     1
290
     0
176
     1
 90
       50
176
     1
 62
   256
176
     0
 40
1.0
176
     0
 90
        2
176
     1
  1
strokes_ogs.tif
176
     1
290
     0
176
     1
 40
1.0
176
     1
 40
1.0
176
     1
1001
ACAD
1000
AcDbSavedByObjectVersion
1070
     0
  0
VISUALSTYLE
  5
31
102
{ACAD_REACTORS
330
29
102
}
330
29
100
AcDbVisualStyle
  2
Hidden
 70
     6
177
     3
291
     0
 70
    58
 90
        1
176
     1
 90
        2
176
     1
 90
        2
176
     1
 90
        0
176
     1
 40
0.6
176
     1
 40
30.0
176
     1
 62
     7
420
 16777215
176
     1
 90
        2
176
     1
 90
        2
176
     1
 62
     7
176
     1
 62
   257
176
     1
 90
        2
176
     1
 90
        1
176
     1
 40
40.0
176
     1
 90
        0
176
     1
 62
   257
176
     1
 40
1.0
176
     1
 90
        1
176
     1
 90
        6
176
     1
 90
        2
176
     1
 62
     7
176
     1
 90
        3
176
     1
 90
        0
176
     1
 90
        0
176
     1
290
     0
176
     1
 90
        1
176
     1
 40
0.0
176
     1
 90
        0
176
     1
290
     0
176
     1
290
     1
176
     1
290
     1
176
     1
290
     0
176
     1
290
     0
176
     1
290
     0
176
     1
290
     0
176
     1
290
     0
176
     1
290
     0
176
     1
 90
       50
176
     1
 40
0.0
176
     1
 40
1.0
176
     1
 90
        0
176
     1
 62
    18
420
        0
176
     1
 90
       50
176
     1
 90
        3
176
     1
 62
     5
420
      255
176
     1
290
     0
176
     1
 90
       50
176
     1
 90
       50
176
     1
 90
       50
176
     1
290
     0
176
     1
 90
       50
176
     1
 62
   256
176
     0
 40
1.0
176
     0
 90
        2
176
     1
  1
strokes_ogs.tif
176
     1
290
     0
176
     1
 40
1.0
176
     1
 40
1.0
176
     1
1001
ACAD
1000
AcDbSavedByObjectVersion
1070
     0
  0
VISUALSTYLE
  5
3F
102
{ACAD_REACTORS
330
29
102
}
330
29
100
AcDbVisualStyle
  2
JitterOff
 70
    20
177
     3
291
     1
 70
    58
 90
        2
176
     0
 90
        2
176
     0
 90
        0
176
     0
 90
        0
176
     0
 40
0.6
176
     0
 40
30.0
176
     0
 62
     7
420
 16777215
176
     0
 90
        1
176
     0
 90
        4
176
     0
 62
     7
176
     0
 62
   257
176
     0
 90
        1
176
     0
 90
        1
176
     0
 40
1.0
176
     0
 90
       10
176
     2
 62
     7
176
     0
 40
1.0
176
     0
 90
        1
176
     0
 90
        6
176
     0
 90
        2
176
     0
 62
     7
176
     0
 90
        5
176
     0
 90
        0
176
     0
 90
        0
176
     0
290
     0
176
     0
 90
        1
176
     0
 40
0.0
176
     0
 90
        0
176
     0
290
     0
176
     0
290
     1
176
     0
290
     1
176
     0
290
     0
176
     0
290
     0
176
     0
290
     0
176
     0
290
     0
176
     0
290
     0
176
     0
290
     0
176
     0
 90
       50
176
     0
 40
0.0
176
     0
 40
1.0
176
     0
 90
        0
176
     0
 62
    18
420
        0
176
     0
 90
       50
176
     0
 90
        3
176
     0
 62
     5
420
      255
176
     0
290
     0
176
     0
 90
       50
176
     0
 90
       50
176
     0
 90
       50
176
     0
290
     0
176
     0
 90
       50
176
     0
 62
   256
176
     0
 40
1.0
176
     0
 90
        2
176
     0
  1
strokes_ogs.tif
176
     0
290
     0
176
     0
 40
1.0
176
     0
 40
1.0
176
     0
1001
ACAD
1000
AcDbSavedByObjectVersion
1070
     0
  0
VISUALSTYLE
  5
37
102
{ACAD_REACTORS
330
29
102
}
330
29
100
AcDbVisualStyle
  2
Linepattern
 70
    14
177
     3
291
     1
 70
    58
 90
        2
176
     1
 90
        2
176
     1
 90
        0
176
     1
 90
        0
176
     1
 40
0.6
176
     1
 40
30.0
176
     1
 62
     7
420
 16777215
176
     1
 90
        1
176
     1
 90
        4
176
     1
 62
     7
176
     1
 62
   257
176
     1
 90
        7
176
     1
 90
        7
176
     1
 40
1.0
176
     1
 90
        8
176
     1
 62
     7
176
     1
 40
1.0
176
     1
 90
        1
176
     1
 90
        6
176
     1
 90
        2
176
     1
 62
     7
176
     1
 90
        5
176
     1
 90
        0
176
     1
 90
        0
176
     1
290
     0
176
     1
 90
        1
176
     1
 40
0.0
176
     1
 90
        0
176
     1
290
     0
176
     1
290
     1
176
     1
290
     1
176
     1
290
     0
176
     1
290
     0
176
     1
290
     0
176
     1
290
     0
176
     1
290
     0
176
     1
290
     0
176
     1
 90
       50
176
     1
 40
0.0
176
     1
 40
1.0
176
     1
 90
        0
176
     1
 62
    18
420
        0
176
     1
 90
       50
176
     1
 90
        3
176
     1
 62
     5
420
      255
176
     1
290
     0
176
     1
 90
       50
176
     1
 90
       50
176
     1
 90
       50
176
     1
290
     0
176
     1
 90
       50
176
     1
 62
   256
176
     0
 40
1.0
176
     0
 90
        2
176
     1
  1
strokes_ogs.tif
176
     1
290
     0
176
     1
 40
1.0
176
     1
 40
1.0
176
     1
1001
ACAD
1000
AcDbSavedByObjectVersion
1070
     0
  0
VISUALSTYLE
  5
40
102
{ACAD_REACTORS
330
29
102
}
330
29
100
AcDbVisualStyle
  2
OverhangOff
 70
    21
177
     3
291
     1
 70
    58
 90
        2
176
     0
 90
        2
176
     0
 90
        0
176
     0
 90
        0
176
     0
 40
0.6
176
     0
 40
30.0
176
     0
 62
     7
420
 16777215
176
     0
 90
        1
176
     0
 90
        4
176
     0
 62
     7
176
     0
 62
   257
176
     0
 90
        1
176
     0
 90
        1
176
     0
 40
1.0
176
     0
 90
        9
176
     2
 62
     7
176
     0
 40
1.0
176
     0
 90
        1
176
     0
 90
        6
176
     0
 90
        2
176
     0
 62
     7
176
     0
 90
        5
176
     0
 90
        0
176
     0
 90
        0
176
     0
290
     0
176
     0
 90
        1
176
     0
 40
0.0
176
     0
 90
        0
176
     0
290
     0
176
     0
290
     1
176
     0
290
     1
176
     0
290
     0
176
     0
290
     0
176
     0
290
     0
176
     0
290
     0
176
     0
290
     0
176
     0
290
     0
176
     0
 90
       50
176
     0
 40
0.0
176
     0
 40
1.0
176
     0
 90
        0
176
     0
 62
    18
420
        0
176
     0
 90
       50
176
     0
 90
        3
176
     0
 62
     5
420
      255
176
     0
290
     0
176
     0
 90
       50
176
     0
 90
       50
176
     0
 90
       50
176
     0
290
     0
176
     0
 90
       50
176
     0
 62
   256
176
     0
 40
1.0
176
     0
 90
        2
176
     0
  1
strokes_ogs.tif
176
     0
290
     0
176
     0
 40
1.0
176
     0
 40
1.0
176
     0
1001
ACAD
1000
AcDbSavedByObjectVersion
1070
     0
  0
VISUALSTYLE
  5
33
102
{ACAD_REACTORS
330
29
102
}
330
29
100
AcDbVisualStyle
  2
Realistic
 70
     8
177
     3
291
     0
 70
    58
 90
        2
176
     1
 90
        3
176
     1
 90
        0
176
     1
 90
        2
176
     1
 40
0.6
176
     1
 40
30.0
176
     1
 62
     7
420
 16777215
176
     1
 90
        0
176
     1
 90
        0
176
     1
 62
     7
176
     1
 62
   257
176
     1
 90
        1
176
     1
 90
        1
176
     1
 40
1.0
176
     1
 90
        8
176
     1
 62
   257
176
     1
 40
1.0
176
     1
 90
        1
176
     1
 90
        6
176
     1
 90
        2
176
     1
 62
     7
176
     1
 90
        3
176
     1
 90
        0
176
     1
 90
        0
176
     1
290
     0
176
     1
 90
       13
176
     1
 40
0.0
176
     1
 90
        0
176
     1
290
     0
176
     1
290
     1
176
     1
290
     1
176
     1
290
     0
176
     1
290
     0
176
     1
290
     0
176
     1
290
     0
176
     1
290
     0
176
     1
290
     0
176
     1
 90
       50
176
     1
 40
0.0
176
     1
 40
1.0
176
     1
 90
        0
176
     1
 62
    18
420
        0
176
     1
 90
       50
176
     1
 90
        3
176
     1
 62
     5
420
      255
176
     1
290
     0
176
     1
 90
       50
176
     1
 90
       50
176
     1
 90
       50
176
     1
290
     0
176
     1
 90
       50
176
     1
 62
   256
176
     0
 40
1.0
176
     0
 90
        2
176
     1
  1
strokes_ogs.tif
176
     1
290
     0
176
     1
 40
1.0
176
     1
 40
1.0
176
     1
1001
ACAD
1000
AcDbSavedByObjectVersion
1070
     0
  0
VISUALSTYLE
  5
3E
102
{ACAD_REACTORS
330
29
102
}
330
29
100
AcDbVisualStyle
  2
Shaded
 70
    27
177
     3
291
     0
 70
    58
 90
        2
176
     1
 90
        2
176
     1
 90
        1
176
     1
 90
        2
176
     1
 40
0.6
176
     1
 40
30.0
176
     1
 62
     7
420
 16777215
176
     1
 90
        0
176
     1
 90
        4
176
     1
 62
     7
176
     1
 62
   257
176
     1
 90
        1
176
     1
 90
        1
176
     1
 40
1.0
176
     1
 90
        8
176
     1
 62
   257
176
     1
 40
1.0
176
     1
 90
        1
176
     1
 90
        6
176
     1
 90
        2
176
     1
 62
     8
420
  7895160
176
     1
 90
        3
176
     1
 90
        0
176
     1
 90
        0
176
     1
290
     0
176
     1
 90
        5
176
     1
 40
0.0
176
     1
 90
        0
176
     1
290
     0
176
     1
290
     1
176
     1
290
     1
176
     1
290
     0
176
     1
290
     0
176
     1
290
     0
176
     1
290
     0
176
     1
290
     0
176
     1
290
     0
176
     1
 90
       50
176
     1
 40
0.0
176
     1
 40
1.0
176
     1
 90
        0
176
     1
 62
    18
420
        0
176
     1
 90
       50
176
     1
 90
        3
176
     1
 62
     5
420
      255
176
     1
290
     0
176
     1
 90
       50
176
     1
 90
       50
176
     1
 90
       50
176
     1
290
     0
176
     1
 90
       50
176
     1
 62
   256
176
     0
 40
1.0
176
     0
 90
        2
176
     1
  1
strokes_ogs.tif
176
     1
290
     0
176
     1
 40
1.0
176
     1
 40
1.0
176
     1
1001
ACAD
1000
AcDbSavedByObjectVersion
1070
     0
  0
VISUALSTYLE
  5
3D
102
{ACAD_REACTORS
330
29
102
}
330
29
100
AcDbVisualStyle
  2
Shaded with edges
 70
    26
177
     3
291
     0
 70
    58
 90
        2
176
     1
 90
        2
176
     1
 90
        1
176
     1
 90
        2
176
     1
 40
0.6
176
     1
 40
30.0
176
     1
 62
     7
420
 16777215
176
     1
 90
        1
176
     1
 90
        2
176
     1
 62
     7
176
     1
 62
   257
176
     1
 90
        2
176
     1
 90
        1
176
     1
 40
1.0
176
     1
 90
        8
176
     1
 62
   257
176
     1
 40
1.0
176
     1
 90
        1
176
     1
 90
        6
176
     1
 90
        2
176
     1
 62
     7
176
     1
 90
        3
176
     1
 90
        0
176
     1
 90
        0
176
     1
290
     0
176
     1
 90
        5
176
     1
 40
0.0
176
     1
 90
        0
176
     1
290
     0
176
     1
290
     1
176
     1
290
     1
176
     1
290
     0
176
     1
290
     0
176
     1
290
     0
176
     1
290
     0
176
     1
290
     0
176
     1
290
     0
176
     1
 90
       50
176
     1
 40
0.0
176
     1
 40
1.0
176
     1
 90
        0
176
     1
 62
    18
420
        0
176
     1
 90
       50
176
     1
 90
        3
176
     1
 62
     5
420
      255
176
     1
290
     0
176
     1
 90
       50
176
     1
 90
       50
176
     1
 90
       50
176
     1
290
     0
176
     1
 90
       50
176
     1
 62
   256
176
     0
 40
1.0
176
     0
 90
        2
176
     1
  1
strokes_ogs.tif
176
     1
290
     0
176
     1
 40
1.0
176
     1
 40
1.0
176
     1
1001
ACAD
1000
AcDbSavedByObjectVersion
1070
     0
  0
VISUALSTYLE
  5
3A
102
{ACAD_REACTORS
330
29
102
}
330
29
100
AcDbVisualStyle
  2
Shades of Gray
 70
    23
177
     3
291
     0
 70
    58
 90
        2
176
     1
 90
        2
176
     1
 90
        3
176
     1
 90
        0
176
     1
 40
0.6
176
     1
 40
30.0
176
     1
 62
     7
420
 16777215
176
     1
 90
        2
176
     1
 90
        2
176
     1
 62
     7
176
     1
 62
     7
176
     1
 90
        1
176
     1
 90
        1
176
     1
 40
40.0
176
     1
 90
        8
176
     1
 62
     7
176
     1
 40
1.0
176
     1
 90
        1
176
     1
 90
        6
176
     1
 90
        2
176
     1
 62
     7
176
     1
 90
        3
176
     1
 90
        0
176
     1
 90
        0
176
     1
290
     0
176
     1
 90
        1
176
     1
 40
0.0
176
     1
 90
        0
176
     1
290
     0
176
     1
290
     1
176
     1
290
     1
176
     1
290
     0
176
     1
290
     0
176
     1
290
     0
176
     1
290
     0
176
     1
290
     0
176
     1
290
     0
176
     1
 90
       50
176
     1
 40
0.0
176
     1
 40
1.0
176
     1
 90
        0
176
     1
 62
    18
420
        0
176
     1
 90
       50
176
     1
 90
        3
176
     1
 62
     5
420
      255
176
     1
290
     0
176
     1
 90
       50
176
     1
 90
       50
176
     1
 90
       50
176
     1
290
     0
176
     1
 90
       50
176
     1
 62
   256
176
     0
 40
1.0
176
     0
 90
        2
176
     1
  1
strokes_ogs.tif
176
     1
290
     0
176
     1
 40
1.0
176
     1
 40
1.0
176
     1
1001
ACAD
1000
AcDbSavedByObjectVersion
1070
     0
  0
VISUALSTYLE
  5
3B
102
{ACAD_REACTORS
330
29
102
}
330
29
100
AcDbVisualStyle
  2
Sketchy
 70
    24
177
     3
291
     0
 70
    58
 90
        1
176
     1
 90
        2
176
     1
 90
        2
176
     1
 90
        0
176
     1
 40
0.6
176
     1
 40
30.0
176
     1
 62
     7
420
 16777215
176
     1
 90
        2
176
     1
 90
        2
176
     1
 62
     7
176
     1
 62
     7
176
     1
 90
        1
176
     1
 90
        1
176
     1
 40
40.0
176
     1
 90
       11
176
     1
 62
     7
176
     1
 40
1.0
176
     1
 90
        1
176
     1
 90
        6
176
     1
 90
        2
176
     1
 62
     7
176
     1
 90
        6
176
     1
 90
        0
176
     1
 90
        0
176
     1
290
     0
176
     1
 90
        1
176
     1
 40
0.0
176
     1
 90
        0
176
     1
290
     0
176
     1
290
     1
176
     1
290
     1
176
     1
290
     0
176
     1
290
     0
176
     1
290
     0
176
     1
290
     0
176
     1
290
     0
176
     1
290
     0
176
     1
 90
       50
176
     1
 40
0.0
176
     1
 40
1.0
176
     1
 90
        0
176
     1
 62
    18
420
        0
176
     1
 90
       50
176
     1
 90
        3
176
     1
 62
     5
420
      255
176
     1
290
     0
176
     1
 90
       50
176
     1
 90
       50
176
     1
 90
       50
176
     1
290
     0
176
     1
 90
       50
176
     1
 62
   256
176
     0
 40
1.0
176
     0
 90
        2
176
     1
  1
strokes_ogs.tif
176
     1
290
     0
176
     1
 40
1.0
176
     1
 40
1.0
176
     1
1001
ACAD
1000
AcDbSavedByObjectVersion
1070
     0
  0
VISUALSTYLE
  5
36
102
{ACAD_REACTORS
330
29
102
}
330
29
100
AcDbVisualStyle
  2
Thicken
 70
    13
177
     3
291
     1
 70
    58
 90
        2
176
     1
 90
        2
176
     1
 90
        0
176
     1
 90
        0
176
     1
 40
0.6
176
     1
 40
30.0
176
     1
 62
     7
420
 16777215
176
     1
 90
        1
176
     1
 90
        4
176
     1
 62
     7
176
     1
 62
   257
176
     1
 90
        1
176
     1
 90
        1
176
     1
 40
1.0
176
     1
 90
       12
176
     1
 62
     7
176
     1
 40
1.0
176
     1
 90
        1
176
     1
 90
        6
176
     1
 90
        2
176
     1
 62
     7
176
     1
 90
        5
176
     1
 90
        0
176
     1
 90
        0
176
     1
290
     0
176
     1
 90
        1
176
     1
 40
0.0
176
     1
 90
        0
176
     1
290
     0
176
     1
290
     1
176
     1
290
     1
176
     1
290
     0
176
     1
290
     0
176
     1
290
     0
176
     1
290
     0
176
     1
290
     0
176
     1
290
     0
176
     1
 90
       50
176
     1
 40
0.0
176
     1
 40
1.0
176
     1
 90
        0
176
     1
 62
    18
420
        0
176
     1
 90
       50
176
     1
 90
        3
176
     1
 62
     5
420
      255
176
     1
290
     0
176
     1
 90
       50
176
     1
 90
       50
176
     1
 90
       50
176
     1
290
     0
176
     1
 90
       50
176
     1
 62
   256
176
     0
 40
1.0
176
     0
 90
        2
176
     1
  1
strokes_ogs.tif
176
     1
290
     0
176
     1
 40
1.0
176
     1
 40
1.0
176
     1
1001
ACAD
1000
AcDbSavedByObjectVersion
1070
     0
  0
VISUALSTYLE
  5
30
102
{ACAD_REACTORS
330
29
102
}
330
29
100
AcDbVisualStyle
  2
Wireframe
 70
     5
177
     3
291
     0
 70
    58
 90
        0
176
     1
 90
        2
176
     1
 90
        0
176
     1
 90
        0
176
     1
 40
0.6
176
     1
 40
30.0
176
     1
 62
     7
420
 16777215
176
     1
 90
        1
176
     1
 90
        4
176
     1
 62
     7
176
     1
 62
   257
176
     1
 90
        1
176
     1
 90
        1
176
     1
 40
1.0
176
     1
 90
        0
176
     1
 62
   257
176
     1
 40
1.0
176
     1
 90
        1
176
     1
 90
        6
176
     1
 90
        2
176
     1
 62
     7
176
     1
 90
        3
176
     1
 90
        0
176
     1
 90
        0
176
     1
290
     0
176
     1
 90
        1
176
     1
 40
0.0
176
     1
 90
        0
176
     1
290
     0
176
     1
290
     1
176
     1
290
     1
176
     1
290
     0
176
     1
290
     0
176
     1
290
     0
176
     1
290
     0
176
     1
290
     0
176
     1
290
     0
176
     1
 90
       50
176
     1
 40
0.0
176
     1
 40
1.0
176
     1
 90
        0
176
     1
 62
    18
420
        0
176
     1
 90
       50
176
     1
 90
        3
176
     1
 62
     5
420
      255
176
     1
290
     0
176
     1
 90
       50
176
     1
 90
       50
176
     1
 90
       50
176
     1
290
     0
176
     1
 90
       50
176
     1
 62
   256
176
     0
 40
1.0
176
     0
 90
        2
176
     1
  1
strokes_ogs.tif
176
     1
290
     0
176
     1
 40
1.0
176
     1
 40
1.0
176
     1
1001
ACAD
1000
AcDbSavedByObjectVersion
1070
     0
  0
VISUALSTYLE
  5
3C
102
{ACAD_REACTORS
330
29
102
}
330
29
100
AcDbVisualStyle
  2
X-Ray
 70
    25
177
     3
291
     0
 70
    58
 90
        2
176
     1
 90
        2
176
     1
 90
        1
176
     1
 90
        1
176
     1
 40
0.5
176
     1
 40
30.0
176
     1
 62
     7
420
 16777215
176
     1
 90
        1
176
     1
 90
        0
176
     1
 62
     7
176
     1
 62
   257
176
     1
 90
        1
176
     1
 90
        1
176
     1
 40
1.0
176
     1
 90
        8
176
     1
 62
     7
176
     1
 40
1.0
176
     1
 90
        1
176
     1
 90
        6
176
     1
 90
        2
176
     1
 62
     7
176
     1
 90
        3
176
     1
 90
        0
176
     1
 90
        0
176
     1
290
     0
176
     1
 90
       13
176
     1
 40
0.0
176
     1
 90
        0
176
     1
290
     0
176
     1
290
     1
176
     1
290
     1
176
     1
290
     0
176
     1
290
     0
176
     1
290
     0
176
     1
290
     0
176
     1
290
     0
176
     1
290
     0
176
     1
 90
       50
176
     1
 40
0.0
176
     1
 40
1.0
176
     1
 90
        0
176
     1
 62
    18
420
        0
176
     1
 90
       50
176
     1
 90
        3
176
     1
 62
     5
420
      255
176
     1
290
     0
176
     1
 90
       50
176
     1
 90
       50
176
     1
 90
       50
176
     1
290
     0
176
     1
 90
       50
176
     1
 62
   256
176
     0
 40
1.0
176
     0
 90
        2
176
     1
  1
strokes_ogs.tif
176
     1
290
     0
176
     1
 40
1.0
176
     1
 40
1.0
176
     1
1001
ACAD
1000
AcDbSavedByObjectVersion
1070
     0
  0
DICTIONARYVAR
  5
E0
102
{ACAD_REACTORS
330
DB
102
}
330
DB
100
DictionaryVariables
280
     0
  1
0
  0
DICTIONARYVAR
  5
E1
102
{ACAD_REACTORS
330
DB
102
}
330
DB
100
DictionaryVariables
280
     0
  1
1:1
  0
DICTIONARYVAR
  5
DD
102
{ACAD_REACTORS
330
DB
102
}
330
DB
100
DictionaryVariables
280
     0
  1
STANDARD
  0
DICTIONARYVAR
  5
DC
102
{ACAD_REACTORS
330
DB
102
}
330
DB
100
DictionaryVariables
280
     0
  1
STANDARD
  0
DICTIONARYVAR
  5
DE
102
{ACAD_REACTORS
330
DB
102
}
330
DB
100
DictionaryVariables
280
     0
  1
Imperial24
  0
DICTIONARYVAR
  5
DF
102
{ACAD_REACTORS
330
DB
102
}
330
DB
100
DictionaryVariables
280
     0
  1
Imperial24
  0
DICTIONARY
  5
E7
330
6B
100
AcDbDictionary
280
     1
281
     1
  3
ACAD_XREC_ROUNDTRIP
360
E8
  0
DICTIONARY
  5
1A
330
19
100
AcDbDictionary
280
     1
281
     1
  3
BUMPTILE
360
1C
  3
DIFFUSETILE
360
1B
  3
OPACITYTILE
360
1F
  3
REFLECTIONTILE
360
1E
  3
REFRACTIONTILE
360
20
  3
SPECULARTILE
360
1D
  0
DICTIONARY
  5
12
330
11
100
AcDbDictionary
280
     1
281
     1
  3
BUMPTILE
360
14
  3
DIFFUSETILE
360
13
  3
OPACITYTILE
360
17
  3
REFLECTIONTILE
360
16
  3
REFRACTIONTILE
360
18
  3
SPECULARTILE
360
15
  0
DICTIONARY
  5
22
330
21
100
AcDbDictionary
280
     1
281
     1
  3
BUMPTILE
360
24
  3
DIFFUSETILE
360
23
  3
OPACITYTILE
360
27
  3
REFLECTIONTILE
360
26
  3
REFRACTIONTILE
360
28
  3
SPECULARTILE
360
25
  0
DICTIONARY
  5
E5
330
69
100
AcDbDictionary
280
     1
281
     1
  3
ACAD_XREC_ROUNDTRIP
360
E6
  0
DICTIONARY
  5
E2
330
65
100
AcDbDictionary
280
     1
281
     1
  3
ACAD_ROUNDTRIP_2008_TABLESTYLE_CELLSTYLEMAP
360
E3
  0
XRECORD
  5
E8
102
{ACAD_REACTORS
330
E7
102
}
330
E7
100
AcDbXrecord
280
     1
102
DISPLAYNAME
  1
Imperial24
102
FLAGS
 90
        0
  0
XRECORD
  5
1C
102
{ACAD_REACTORS
330
1A
102
}
330
1A
100
AcDbXrecord
280
     1
270
     1
271
     1
  0
XRECORD
  5
1B
102
{ACAD_REACTORS
330
1A
102
}
330
1A
100
AcDbXrecord
280
     1
270
     1
271
     1
  0
XRECORD
  5
1F
102
{ACAD_REACTORS
330
1A
102
}
330
1A
100
AcDbXrecord
280
     1
270
     1
271
     1
  0
XRECORD
  5
1E
102
{ACAD_REACTORS
330
1A
102
}
330
1A
100
AcDbXrecord
280
     1
270
     1
271
     1
  0
XRECORD
  5
20
102
{ACAD_REACTORS
330
1A
102
}
330
1A
100
AcDbXrecord
280
     1
270
     1
271
     1
  0
XRECORD
  5
1D
102
{ACAD_REACTORS
330
1A
102
}
330
1A
100
AcDbXrecord
280
     1
270
     1
271
     1
  0
XRECORD
  5
14
102
{ACAD_REACTORS
330
12
102
}
330
12
100
AcDbXrecord
280
     1
270
     1
271
     1
  0
XRECORD
  5
13
102
{ACAD_REACTORS
330
12
102
}
330
12
100
AcDbXrecord
280
     1
270
     1
271
     1
  0
XRECORD
  5
17
102
{ACAD_REACTORS
330
12
102
}
330
12
100
AcDbXrecord
280
     1
270
     1
271
     1
  0
XRECORD
  5
16
102
{ACAD_REACTORS
330
12
102
}
330
12
100
AcDbXrecord
280
     1
270
     1
271
     1
  0
XRECORD
  5
18
102
{ACAD_REACTORS
330
12
102
}
330
12
100
AcDbXrecord
280
     1
270
     1
271
     1
  0
XRECORD
  5
15
102
{ACAD_REACTORS
330
12
102
}
330
12
100
AcDbXrecord
280
     1
270
     1
271
     1
  0
XRECORD
  5
24
102
{ACAD_REACTORS
330
22
102
}
330
22
100
AcDbXrecord
280
     1
270
     1
271
     1
  0
XRECORD
  5
23
102
{ACAD_REACTORS
330
22
102
}
330
22
100
AcDbXrecord
280
     1
270
     1
271
     1
  0
XRECORD
  5
27
102
{ACAD_REACTORS
330
22
102
}
330
22
100
AcDbXrecord
280
     1
270
     1
271
     1
  0
XRECORD
  5
26
102
{ACAD_REACTORS
330
22
102
}
330
22
100
AcDbXrecord
280
     1
270
     1
271
     1
  0
XRECORD
  5
28
102
{ACAD_REACTORS
330
22
102
}
330
22
100
AcDbXrecord
280
     1
270
     1
271
     1
  0
XRECORD
  5
25
102
{ACAD_REACTORS
330
22
102
}
330
22
100
AcDbXrecord
280
     1
270
     1
271
     1
  0
XRECORD
  5
E6
102
{ACAD_REACTORS
330
E5
102
}
330
E5
100
AcDbXrecord
280
     1
102
DISPLAYNAME
  1
Imperial24
102
FLAGS
 90
        0
  0
CELLSTYLEMAP
  5
E3
102
{ACAD_REACTORS
330
E2
102
}
330
E2
100
AcDbCellStyleMap
 90
        3
300
CELLSTYLE
  1
TABLEFORMAT_BEGIN
 90
        5
170
     1
 91
        0
 92
    32768
 62
   257
 93
        1
300
CONTENTFORMAT
  1
CONTENTFORMAT_BEGIN
 90
        0
 91
        0
 92
      512
 93
        0
300

 40
0.0
140
1.0
 94
        5
 62
     0
340
55
144
0.25
309
CONTENTFORMAT_END
171
     1
301
MARGIN
  1
CELLMARGIN_BEGIN
 40
1.5
 40
1.5
 40
1.5
 40
1.5
 40
0.18
 40
0.18
309
CELLMARGIN_END
 94
        0
309
TABLEFORMAT_END
  1
CELLSTYLE_BEGIN
 90
        1
 91
        1
300
_TITLE
309
CELLSTYLE_END
300
CELLSTYLE
  1
TABLEFORMAT_BEGIN
 90
        5
170
     1
 91
        0
 92
        0
 62
   257
 93
        1
300
CONTENTFORMAT
  1
CONTENTFORMAT_BEGIN
 90
        0
 91
        0
 92
      512
 93
        0
300

 40
0.0
140
1.0
 94
        5
 62
     0
340
55
144
0.18
309
CONTENTFORMAT_END
171
     1
301
MARGIN
  1
CELLMARGIN_BEGIN
 40
1.5
 40
1.5
 40
1.5
 40
1.5
 40
0.18
 40
0.18
309
CELLMARGIN_END
 94
        0
309
TABLEFORMAT_END
  1
CELLSTYLE_BEGIN
 90
        2
 91
        1
300
_HEADER
309
CELLSTYLE_END
300
CELLSTYLE
  1
TABLEFORMAT_BEGIN
 90
        5
170
     1
 91
        0
 92
        0
 62
   257
 93
        1
300
CONTENTFORMAT
  1
CONTENTFORMAT_BEGIN
 90
        0
 91
        0
 92
      512
 93
        0
300

 40
0.0
140
1.0
 94
        2
 62
     0
340
55
144
0.18
309
CONTENTFORMAT_END
171
     1
301
MARGIN
  1
CELLMARGIN_BEGIN
 40
1.5
 40
1.5
 40
1.5
 40
1.5
 40
0.18
 40
0.18
309
CELLMARGIN_END
 94
        0
309
TABLEFORMAT_END
  1
CELLSTYLE_BEGIN
 90
        3
 91
        2
300
_DATA
309
CELLSTYLE_END
  0
ENDSEC
  0
EOF
