solid CATIA STL
  facet normal -3.557381e-004  4.540350e-001 -8.909838e-001
    outer loop
      vertex  3.782591e+002 -9.516269e+002  1.053584e+002
      vertex  3.782626e+002 -9.516793e+002  1.053317e+002
      vertex  3.782458e+002 -9.516919e+002  1.053253e+002
    endloop
  endfacet
  facet normal -7.190302e-004  4.540154e-001 -8.909936e-001
    outer loop
      vertex  3.782626e+002 -9.516793e+002  1.053317e+002
      vertex  3.782591e+002 -9.516269e+002  1.053584e+002
      vertex  3.782711e+002 -9.516546e+002  1.053443e+002
    endloop
  endfacet
  facet normal -3.394949e-004  4.541102e-001 -8.909455e-001
    outer loop
      vertex  2.488542e+002 -9.522583e+002  1.050367e+002
      vertex  2.488878e+002 -9.520673e+002  1.051340e+002
      vertex  2.490692e+002 -9.517360e+002  1.053028e+002
    endloop
  endfacet
  facet normal  2.267207e-007  4.539992e-001 -8.910021e-001
    outer loop
      vertex  2.488542e+002 -9.522583e+002  1.050367e+002
      vertex  2.490692e+002 -9.517360e+002  1.053028e+002
      vertex  3.285481e+002 -9.517325e+002  1.053046e+002
    endloop
  endfacet
  facet normal -1.723379e-006  4.542367e-001 -8.908811e-001
    outer loop
      vertex  2.488542e+002 -9.522583e+002  1.050367e+002
      vertex  3.285481e+002 -9.517325e+002  1.053046e+002
      vertex  2.488543e+002 -9.522629e+002  1.050343e+002
    endloop
  endfacet
  facet normal  4.864662e-008  4.539832e-001 -8.910102e-001
    outer loop
      vertex  2.490692e+002 -9.517360e+002  1.053028e+002
      vertex  2.497529e+002 -9.510624e+002  1.056460e+002
      vertex  3.734813e+002 -9.511297e+002  1.056117e+002
    endloop
  endfacet
  facet normal -1.753732e-007  4.540197e-001 -8.909916e-001
    outer loop
      vertex  2.490692e+002 -9.517360e+002  1.053028e+002
      vertex  3.734813e+002 -9.511297e+002  1.056117e+002
      vertex  3.564221e+002 -9.513741e+002  1.054872e+002
    endloop
  endfacet
  facet normal  2.308169e-007  4.539240e-001 -8.910404e-001
    outer loop
      vertex  2.490692e+002 -9.517360e+002  1.053028e+002
      vertex  3.564221e+002 -9.513741e+002  1.054872e+002
      vertex  3.285481e+002 -9.517325e+002  1.053046e+002
    endloop
  endfacet
  facet normal  3.835637e-008  4.540022e-001 -8.910006e-001
    outer loop
      vertex  3.007372e+002 -9.528582e+002  1.047310e+002
      vertex  2.491736e+002 -9.527205e+002  1.048012e+002
      vertex  2.489498e+002 -9.525206e+002  1.049030e+002
    endloop
  endfacet
  facet normal  7.504781e-009  4.539984e-001 -8.910024e-001
    outer loop
      vertex  3.007372e+002 -9.528582e+002  1.047310e+002
      vertex  2.489498e+002 -9.525206e+002  1.049030e+002
      vertex  2.488561e+002 -9.522894e+002  1.050208e+002
    endloop
  endfacet
  facet normal -2.914393e-006  4.537869e-001 -8.911103e-001
    outer loop
      vertex  3.007372e+002 -9.528582e+002  1.047310e+002
      vertex  2.488561e+002 -9.522894e+002  1.050208e+002
      vertex  2.488543e+002 -9.522629e+002  1.050343e+002
    endloop
  endfacet
  facet normal  2.107692e-007  4.540032e-001 -8.910001e-001
    outer loop
      vertex  3.007372e+002 -9.528582e+002  1.047310e+002
      vertex  2.488543e+002 -9.522629e+002  1.050343e+002
      vertex  3.285481e+002 -9.517325e+002  1.053046e+002
    endloop
  endfacet
  facet normal  3.529525e-007  4.539904e-001 -8.910065e-001
    outer loop
      vertex  3.781858e+002 -9.517018e+002  1.053202e+002
      vertex  3.564221e+002 -9.513741e+002  1.054872e+002
      vertex  3.734813e+002 -9.511297e+002  1.056117e+002
    endloop
  endfacet
  facet normal  1.197651e-005  4.540663e-001 -8.909679e-001
    outer loop
      vertex  3.781858e+002 -9.517018e+002  1.053202e+002
      vertex  3.734813e+002 -9.511297e+002  1.056117e+002
      vertex  3.781762e+002 -9.515925e+002  1.053759e+002
    endloop
  endfacet
  facet normal -2.996782e-004  4.540448e-001 -8.909788e-001
    outer loop
      vertex  3.781858e+002 -9.517018e+002  1.053202e+002
      vertex  3.781762e+002 -9.515925e+002  1.053759e+002
      vertex  3.782398e+002 -9.516109e+002  1.053665e+002
    endloop
  endfacet
  facet normal  6.386445e-004  4.536019e-001 -8.912042e-001
    outer loop
      vertex  3.781858e+002 -9.517018e+002  1.053202e+002
      vertex  3.782398e+002 -9.516109e+002  1.053665e+002
      vertex  3.782591e+002 -9.516269e+002  1.053584e+002
    endloop
  endfacet
  facet normal  1.965237e-004  4.539457e-001 -8.910294e-001
    outer loop
      vertex  3.781858e+002 -9.517018e+002  1.053202e+002
      vertex  3.782591e+002 -9.516269e+002  1.053584e+002
      vertex  3.782458e+002 -9.516919e+002  1.053253e+002
    endloop
  endfacet
  facet normal  2.702015e-007  4.539801e-001 -8.910118e-001
    outer loop
      vertex  2.665322e+002 -9.465898e+002  1.079249e+002
      vertex  2.741555e+002 -9.458713e+002  1.082910e+002
      vertex  3.201179e+002 -9.464960e+002  1.079727e+002
    endloop
  endfacet
  facet normal  6.272842e-007  4.540010e-001 -8.910011e-001
    outer loop
      vertex  3.201179e+002 -9.464960e+002  1.079727e+002
      vertex  2.741555e+002 -9.458713e+002  1.082910e+002
      vertex  2.853604e+002 -9.454139e+002  1.085241e+002
    endloop
  endfacet
  facet normal -4.456084e-007  4.539738e-001 -8.910151e-001
    outer loop
      vertex  3.201179e+002 -9.464960e+002  1.079727e+002
      vertex  2.853604e+002 -9.454139e+002  1.085241e+002
      vertex  3.015661e+002 -9.455833e+002  1.084378e+002
    endloop
  endfacet
  facet normal  2.230996e-007  4.540016e-001 -8.910009e-001
    outer loop
      vertex  3.410301e+002 -9.481014e+002  1.071547e+002
      vertex  2.665322e+002 -9.465898e+002  1.079249e+002
      vertex  3.201179e+002 -9.464960e+002  1.079727e+002
    endloop
  endfacet
  facet normal -2.267396e-007  4.539840e-001 -8.910099e-001
    outer loop
      vertex  2.665322e+002 -9.465898e+002  1.079249e+002
      vertex  3.410301e+002 -9.481014e+002  1.071547e+002
      vertex  2.592769e+002 -9.477316e+002  1.073431e+002
    endloop
  endfacet
  facet normal -2.083125e-007  4.539873e-001 -8.910082e-001
    outer loop
      vertex  2.592769e+002 -9.477316e+002  1.073431e+002
      vertex  3.410301e+002 -9.481014e+002  1.071547e+002
      vertex  3.734813e+002 -9.511297e+002  1.056117e+002
    endloop
  endfacet
  facet normal -2.181438e-007  4.539871e-001 -8.910082e-001
    outer loop
      vertex  2.592769e+002 -9.477316e+002  1.073431e+002
      vertex  3.734813e+002 -9.511297e+002  1.056117e+002
      vertex  2.552748e+002 -9.486870e+002  1.068564e+002
    endloop
  endfacet
  facet normal  5.847005e-008  4.539975e-001 -8.910030e-001
    outer loop
      vertex  2.552748e+002 -9.486870e+002  1.068564e+002
      vertex  3.734813e+002 -9.511297e+002  1.056117e+002
      vertex  2.497529e+002 -9.510624e+002  1.056460e+002
    endloop
  endfacet
  facet normal  1.113366e-005  4.539771e-001 -8.910133e-001
    outer loop
      vertex  2.552748e+002 -9.486870e+002  1.068564e+002
      vertex  2.497529e+002 -9.510624e+002  1.056460e+002
      vertex  2.516974e+002 -9.499495e+002  1.062131e+002
    endloop
  endfacet
  facet normal -3.819366e-008  4.539793e-001 -8.910122e-001
    outer loop
      vertex  3.007372e+002 -9.528582e+002  1.047310e+002
      vertex  2.782164e+002 -9.539037e+002  1.041983e+002
      vertex  2.491736e+002 -9.527205e+002  1.048012e+002
    endloop
  endfacet
  facet normal -1.855327e-006  4.539439e-001 -8.910303e-001
    outer loop
      vertex  2.491736e+002 -9.527205e+002  1.048012e+002
      vertex  2.782164e+002 -9.539037e+002  1.041983e+002
      vertex  2.498614e+002 -9.530461e+002  1.046353e+002
    endloop
  endfacet
  facet normal  1.406260e-007  4.539963e-001 -8.910035e-001
    outer loop
      vertex  2.782164e+002 -9.539037e+002  1.041983e+002
      vertex  2.556018e+002 -9.539689e+002  1.041651e+002
      vertex  2.498614e+002 -9.530461e+002  1.046353e+002
    endloop
  endfacet
  facet normal -5.294989e-006  4.539696e-001 -8.910172e-001
    outer loop
      vertex  2.498614e+002 -9.530461e+002  1.046353e+002
      vertex  2.556018e+002 -9.539689e+002  1.041651e+002
      vertex  2.519420e+002 -9.535566e+002  1.043751e+002
    endloop
  endfacet
  facet normal  1.258814e-007  4.540004e-001 -8.910015e-001
    outer loop
      vertex  2.556018e+002 -9.539689e+002  1.041651e+002
      vertex  2.782164e+002 -9.539037e+002  1.041983e+002
      vertex  2.629231e+002 -9.542026e+002  1.040460e+002
    endloop
  endfacet
  facet normal -1.992307e-006  4.540864e-001 -8.909576e-001
    outer loop
      vertex  2.629231e+002 -9.542026e+002  1.040460e+002
      vertex  2.782164e+002 -9.539037e+002  1.041983e+002
      vertex  2.667932e+002 -9.541930e+002  1.040509e+002
    endloop
  endfacet
  facet normal  6.648619e-001  7.347207e-001  1.347002e-001
    outer loop
      vertex  3.782591e+002 -9.516269e+002  1.053584e+002
      vertex  3.782398e+002 -9.516109e+002  1.053665e+002
      vertex  3.794056e+002 -9.529046e+002  1.066688e+002
    endloop
  endfacet
  facet normal  2.548684e-001  8.752726e-001  4.110229e-001
    outer loop
      vertex  3.805784e+002 -9.544321e+002  1.087052e+002
      vertex  3.812404e+002 -9.556522e+002  1.108929e+002
      vertex  3.812890e+002 -9.556636e+002  1.108871e+002
    endloop
  endfacet
  facet normal  2.557048e-001  8.751735e-001  4.107146e-001
    outer loop
      vertex  3.812404e+002 -9.556522e+002  1.108929e+002
      vertex  3.805784e+002 -9.544321e+002  1.087052e+002
      vertex  3.805291e+002 -9.544205e+002  1.087112e+002
    endloop
  endfacet
  facet normal  2.555880e-001  8.370474e-001  4.837629e-001
    outer loop
      vertex  3.805291e+002 -9.544205e+002  1.087112e+002
      vertex  3.805784e+002 -9.544321e+002  1.087052e+002
      vertex  3.793879e+002 -9.528948e+002  1.066742e+002
    endloop
  endfacet
  facet normal  2.560465e-001  8.370531e-001  4.835103e-001
    outer loop
      vertex  3.805291e+002 -9.544205e+002  1.087112e+002
      vertex  3.793879e+002 -9.528948e+002  1.066742e+002
      vertex  3.793380e+002 -9.528832e+002  1.066805e+002
    endloop
  endfacet
  facet normal  2.546929e-001  7.923616e-001  5.543417e-001
    outer loop
      vertex  3.793380e+002 -9.528832e+002  1.066805e+002
      vertex  3.793879e+002 -9.528948e+002  1.066742e+002
      vertex  3.782398e+002 -9.516109e+002  1.053665e+002
    endloop
  endfacet
  facet normal  3.083024e-001  7.991264e-001  5.160878e-001
    outer loop
      vertex  3.793380e+002 -9.528832e+002  1.066805e+002
      vertex  3.782398e+002 -9.516109e+002  1.053665e+002
      vertex  3.781762e+002 -9.515925e+002  1.053759e+002
    endloop
  endfacet
  facet normal  8.325056e-001  4.920157e-001 -2.546663e-001
    outer loop
      vertex  3.794228e+002 -9.529229e+002  1.066587e+002
      vertex  3.782711e+002 -9.516546e+002  1.053443e+002
      vertex  3.782591e+002 -9.516269e+002  1.053584e+002
    endloop
  endfacet
  facet normal  8.434110e-001  4.243814e-001 -3.294818e-001
    outer loop
      vertex  3.782711e+002 -9.516546e+002  1.053443e+002
      vertex  3.794228e+002 -9.529229e+002  1.066587e+002
      vertex  3.794286e+002 -9.529431e+002  1.066476e+002
    endloop
  endfacet
  facet normal  8.933110e-001  3.850793e-001 -2.317528e-001
    outer loop
      vertex  3.794286e+002 -9.529431e+002  1.066476e+002
      vertex  3.794228e+002 -9.529229e+002  1.066587e+002
      vertex  3.806127e+002 -9.544604e+002  1.086907e+002
    endloop
  endfacet
  facet normal  8.952643e-001  3.752514e-001 -2.401835e-001
    outer loop
      vertex  3.794286e+002 -9.529431e+002  1.066476e+002
      vertex  3.806127e+002 -9.544604e+002  1.086907e+002
      vertex  3.806184e+002 -9.544807e+002  1.086802e+002
    endloop
  endfacet
  facet normal  9.376243e-001  3.258134e-001 -1.212693e-001
    outer loop
      vertex  3.806184e+002 -9.544807e+002  1.086802e+002
      vertex  3.806127e+002 -9.544604e+002  1.086907e+002
      vertex  3.813228e+002 -9.556916e+002  1.108730e+002
    endloop
  endfacet
  facet normal  9.382252e-001  3.235314e-001 -1.227224e-001
    outer loop
      vertex  3.806184e+002 -9.544807e+002  1.086802e+002
      vertex  3.813228e+002 -9.556916e+002  1.108730e+002
      vertex  3.813284e+002 -9.557117e+002  1.108628e+002
    endloop
  endfacet
  facet normal  7.335034e-001  6.793713e-001  2.067313e-002
    outer loop
      vertex  3.782591e+002 -9.516269e+002  1.053584e+002
      vertex  3.794056e+002 -9.529046e+002  1.066688e+002
      vertex  3.794228e+002 -9.529229e+002  1.066587e+002
    endloop
  endfacet
  facet normal  7.444041e-001  6.643921e-001  6.667602e-002
    outer loop
      vertex  3.794228e+002 -9.529229e+002  1.066587e+002
      vertex  3.794056e+002 -9.529046e+002  1.066688e+002
      vertex  3.805958e+002 -9.544420e+002  1.087001e+002
    endloop
  endfacet
  facet normal  7.492025e-001  6.595864e-001  6.034278e-002
    outer loop
      vertex  3.794228e+002 -9.529229e+002  1.066587e+002
      vertex  3.805958e+002 -9.544420e+002  1.087001e+002
      vertex  3.806127e+002 -9.544604e+002  1.086907e+002
    endloop
  endfacet
  facet normal  7.591226e-001  6.407984e-001  1.145006e-001
    outer loop
      vertex  3.806127e+002 -9.544604e+002  1.086907e+002
      vertex  3.805958e+002 -9.544420e+002  1.087001e+002
      vertex  3.813061e+002 -9.556734e+002  1.108822e+002
    endloop
  endfacet
  facet normal  7.599022e-001  6.399968e-001  1.138102e-001
    outer loop
      vertex  3.806127e+002 -9.544604e+002  1.086907e+002
      vertex  3.813061e+002 -9.556734e+002  1.108822e+002
      vertex  3.813228e+002 -9.556916e+002  1.108730e+002
    endloop
  endfacet
  facet normal  5.318887e-001  7.889614e-001  3.076266e-001
    outer loop
      vertex  3.782398e+002 -9.516109e+002  1.053665e+002
      vertex  3.793879e+002 -9.528948e+002  1.066742e+002
      vertex  3.794056e+002 -9.529046e+002  1.066688e+002
    endloop
  endfacet
  facet normal  5.307553e-001  7.958856e-001  2.913159e-001
    outer loop
      vertex  3.794056e+002 -9.529046e+002  1.066688e+002
      vertex  3.793879e+002 -9.528948e+002  1.066742e+002
      vertex  3.805784e+002 -9.544321e+002  1.087052e+002
    endloop
  endfacet
  facet normal  5.354778e-001  7.941754e-001  2.873134e-001
    outer loop
      vertex  3.794056e+002 -9.529046e+002  1.066688e+002
      vertex  3.805784e+002 -9.544321e+002  1.087052e+002
      vertex  3.805958e+002 -9.544420e+002  1.087001e+002
    endloop
  endfacet
  facet normal  5.347648e-001  7.984747e-001  2.765225e-001
    outer loop
      vertex  3.805958e+002 -9.544420e+002  1.087001e+002
      vertex  3.805784e+002 -9.544321e+002  1.087052e+002
      vertex  3.812890e+002 -9.556636e+002  1.108871e+002
    endloop
  endfacet
  facet normal  5.343945e-001  7.986484e-001  2.767369e-001
    outer loop
      vertex  3.805958e+002 -9.544420e+002  1.087001e+002
      vertex  3.812890e+002 -9.556636e+002  1.108871e+002
      vertex  3.813061e+002 -9.556734e+002  1.108822e+002
    endloop
  endfacet
  facet normal  9.318312e-001 -8.718271e-002 -3.522638e-001
    outer loop
      vertex  3.806131e+002 -9.544993e+002  1.086706e+002
      vertex  3.813284e+002 -9.557117e+002  1.108628e+002
      vertex  3.813232e+002 -9.557302e+002  1.108535e+002
    endloop
  endfacet
  facet normal  9.323834e-001 -8.512291e-002 -3.513049e-001
    outer loop
      vertex  3.813284e+002 -9.557117e+002  1.108628e+002
      vertex  3.806131e+002 -9.544993e+002  1.086706e+002
      vertex  3.806184e+002 -9.544807e+002  1.086802e+002
    endloop
  endfacet
  facet normal  8.662900e-001  9.983922e-003 -4.994416e-001
    outer loop
      vertex  3.806184e+002 -9.544807e+002  1.086802e+002
      vertex  3.806131e+002 -9.544993e+002  1.086706e+002
      vertex  3.794233e+002 -9.529615e+002  1.066375e+002
    endloop
  endfacet
  facet normal  8.686927e-001  1.780387e-002 -4.950313e-001
    outer loop
      vertex  3.806184e+002 -9.544807e+002  1.086802e+002
      vertex  3.794233e+002 -9.529615e+002  1.066375e+002
      vertex  3.794286e+002 -9.529431e+002  1.066476e+002
    endloop
  endfacet
  facet normal  7.905962e-001  1.004808e-001 -6.040373e-001
    outer loop
      vertex  3.794286e+002 -9.529431e+002  1.066476e+002
      vertex  3.794233e+002 -9.529615e+002  1.066375e+002
      vertex  3.782626e+002 -9.516793e+002  1.053317e+002
    endloop
  endfacet
  facet normal  7.729511e-001  5.500766e-002 -6.320766e-001
    outer loop
      vertex  3.794286e+002 -9.529431e+002  1.066476e+002
      vertex  3.782626e+002 -9.516793e+002  1.053317e+002
      vertex  3.782711e+002 -9.516546e+002  1.053443e+002
    endloop
  endfacet
  facet normal  6.024446e-001 -2.323278e-001 -7.635996e-001
    outer loop
      vertex  3.794233e+002 -9.529615e+002  1.066375e+002
      vertex  3.794070e+002 -9.529766e+002  1.066293e+002
      vertex  3.782626e+002 -9.516793e+002  1.053317e+002
    endloop
  endfacet
  facet normal  3.800499e-001 -4.646848e-001 -7.997688e-001
    outer loop
      vertex  3.782626e+002 -9.516793e+002  1.053317e+002
      vertex  3.794070e+002 -9.529766e+002  1.066293e+002
      vertex  3.793900e+002 -9.529837e+002  1.066253e+002
    endloop
  endfacet
  facet normal  5.363100e-001 -3.135930e-001 -7.836013e-001
    outer loop
      vertex  3.782626e+002 -9.516793e+002  1.053317e+002
      vertex  3.793900e+002 -9.529837e+002  1.066253e+002
      vertex  3.782458e+002 -9.516919e+002  1.053253e+002
    endloop
  endfacet
  facet normal  1.120312e-001 -6.538450e-001 -7.482886e-001
    outer loop
      vertex  3.782458e+002 -9.516919e+002  1.053253e+002
      vertex  3.793900e+002 -9.529837e+002  1.066253e+002
      vertex  3.793412e+002 -9.529888e+002  1.066225e+002
    endloop
  endfacet
  facet normal  1.667810e-001 -6.233054e-001 -7.639858e-001
    outer loop
      vertex  3.782458e+002 -9.516919e+002  1.053253e+002
      vertex  3.793412e+002 -9.529888e+002  1.066225e+002
      vertex  3.781858e+002 -9.517018e+002  1.053202e+002
    endloop
  endfacet
  facet normal  1.174746e-001 -8.482768e-001 -5.163586e-001
    outer loop
      vertex  3.812428e+002 -9.557574e+002  1.108397e+002
      vertex  3.805317e+002 -9.545269e+002  1.086564e+002
      vertex  3.812907e+002 -9.557524e+002  1.108423e+002
    endloop
  endfacet
  facet normal  1.189999e-001 -8.478779e-001 -5.166644e-001
    outer loop
      vertex  3.812907e+002 -9.557524e+002  1.108423e+002
      vertex  3.805317e+002 -9.545269e+002  1.086564e+002
      vertex  3.805802e+002 -9.545217e+002  1.086590e+002
    endloop
  endfacet
  facet normal  1.162466e-001 -7.582794e-001 -6.414818e-001
    outer loop
      vertex  3.805317e+002 -9.545269e+002  1.086564e+002
      vertex  3.793412e+002 -9.529888e+002  1.066225e+002
      vertex  3.805802e+002 -9.545217e+002  1.086590e+002
    endloop
  endfacet
  facet normal  1.167911e-001 -7.580572e-001 -6.416457e-001
    outer loop
      vertex  3.805802e+002 -9.545217e+002  1.086590e+002
      vertex  3.793412e+002 -9.529888e+002  1.066225e+002
      vertex  3.793900e+002 -9.529837e+002  1.066253e+002
    endloop
  endfacet
  facet normal  4.284230e-001 -7.203510e-001 -5.454798e-001
    outer loop
      vertex  3.812907e+002 -9.557524e+002  1.108423e+002
      vertex  3.805802e+002 -9.545217e+002  1.086590e+002
      vertex  3.813073e+002 -9.557452e+002  1.108459e+002
    endloop
  endfacet
  facet normal  4.258313e-001 -7.218865e-001 -5.454791e-001
    outer loop
      vertex  3.813073e+002 -9.557452e+002  1.108459e+002
      vertex  3.805802e+002 -9.545217e+002  1.086590e+002
      vertex  3.805970e+002 -9.545146e+002  1.086627e+002
    endloop
  endfacet
  facet normal  4.055915e-001 -5.990397e-001 -6.903963e-001
    outer loop
      vertex  3.805802e+002 -9.545217e+002  1.086590e+002
      vertex  3.793900e+002 -9.529837e+002  1.066253e+002
      vertex  3.805970e+002 -9.545146e+002  1.086627e+002
    endloop
  endfacet
  facet normal  4.100372e-001 -5.957830e-001 -6.905882e-001
    outer loop
      vertex  3.805970e+002 -9.545146e+002  1.086627e+002
      vertex  3.793900e+002 -9.529837e+002  1.066253e+002
      vertex  3.794070e+002 -9.529766e+002  1.066293e+002
    endloop
  endfacet
  facet normal  7.091903e-001 -4.899699e-001 -5.069307e-001
    outer loop
      vertex  3.813073e+002 -9.557452e+002  1.108459e+002
      vertex  3.805970e+002 -9.545146e+002  1.086627e+002
      vertex  3.813232e+002 -9.557302e+002  1.108535e+002
    endloop
  endfacet
  facet normal  7.107028e-001 -4.882460e-001 -5.064754e-001
    outer loop
      vertex  3.813232e+002 -9.557302e+002  1.108535e+002
      vertex  3.805970e+002 -9.545146e+002  1.086627e+002
      vertex  3.806131e+002 -9.544993e+002  1.086706e+002
    endloop
  endfacet
  facet normal  6.618069e-001 -3.584518e-001 -6.584254e-001
    outer loop
      vertex  3.805970e+002 -9.545146e+002  1.086627e+002
      vertex  3.794070e+002 -9.529766e+002  1.066293e+002
      vertex  3.806131e+002 -9.544993e+002  1.086706e+002
    endloop
  endfacet
  facet normal  6.635071e-001 -3.563460e-001 -6.578569e-001
    outer loop
      vertex  3.806131e+002 -9.544993e+002  1.086706e+002
      vertex  3.794070e+002 -9.529766e+002  1.066293e+002
      vertex  3.794233e+002 -9.529615e+002  1.066375e+002
    endloop
  endfacet
  facet normal -7.060418e-001 -3.381164e-001  6.222398e-001
    outer loop
      vertex  2.488543e+002 -9.522629e+002  1.050343e+002
      vertex  2.556411e+002 -9.556605e+002  1.108887e+002
      vertex  2.488542e+002 -9.522583e+002  1.050367e+002
    endloop
  endfacet
  facet normal -7.033325e-001 -2.768977e-001  6.547145e-001
    outer loop
      vertex  2.488542e+002 -9.522583e+002  1.050367e+002
      vertex  2.556411e+002 -9.556605e+002  1.108887e+002
      vertex  2.556415e+002 -9.556559e+002  1.108910e+002
    endloop
  endfacet
  facet normal -6.915379e-001 -2.276921e-001  6.855156e-001
    outer loop
      vertex  2.506721e+002 -9.529640e+002  1.066362e+002
      vertex  2.488878e+002 -9.520673e+002  1.051340e+002
      vertex  2.488542e+002 -9.522583e+002  1.050367e+002
    endloop
  endfacet
  facet normal -6.975181e-001 -1.759524e-001  6.946288e-001
    outer loop
      vertex  2.556803e+002 -9.555015e+002  1.109691e+002
      vertex  2.532057e+002 -9.542424e+002  1.088032e+002
      vertex  2.556415e+002 -9.556559e+002  1.108910e+002
    endloop
  endfacet
  facet normal -4.527275e-001  3.800057e-001  8.066185e-001
    outer loop
      vertex  2.530446e+002 -9.512454e+002  1.075797e+002
      vertex  2.516974e+002 -9.499495e+002  1.062131e+002
      vertex  2.497529e+002 -9.510624e+002  1.056460e+002
    endloop
  endfacet
  facet normal -3.351122e-001  4.962448e-001  8.009000e-001
    outer loop
      vertex  2.516974e+002 -9.499495e+002  1.062131e+002
      vertex  2.530446e+002 -9.512454e+002  1.075797e+002
      vertex  2.560911e+002 -9.501546e+002  1.081786e+002
    endloop
  endfacet
  facet normal -3.267814e-001  5.257629e-001  7.853581e-001
    outer loop
      vertex  2.560911e+002 -9.501546e+002  1.081786e+002
      vertex  2.552748e+002 -9.486870e+002  1.068564e+002
      vertex  2.516974e+002 -9.499495e+002  1.062131e+002
    endloop
  endfacet
  facet normal -4.653140e-001  3.990619e-001  7.900838e-001
    outer loop
      vertex  2.555896e+002 -9.525397e+002  1.096806e+002
      vertex  2.512842e+002 -9.522780e+002  1.070128e+002
      vertex  2.538241e+002 -9.535587e+002  1.091555e+002
    endloop
  endfacet
  facet normal -5.900943e-001  1.552639e-001  7.922637e-001
    outer loop
      vertex  2.538241e+002 -9.535587e+002  1.091555e+002
      vertex  2.512842e+002 -9.522780e+002  1.070128e+002
      vertex  2.508048e+002 -9.527573e+002  1.067496e+002
    endloop
  endfacet
  facet normal -5.826691e-001  1.823861e-001  7.919798e-001
    outer loop
      vertex  2.538241e+002 -9.535587e+002  1.091555e+002
      vertex  2.508048e+002 -9.527573e+002  1.067496e+002
      vertex  2.533405e+002 -9.540358e+002  1.089097e+002
    endloop
  endfacet
  facet normal -6.488362e-001 -1.311324e-003  7.609270e-001
    outer loop
      vertex  2.533405e+002 -9.540358e+002  1.089097e+002
      vertex  2.508048e+002 -9.527573e+002  1.067496e+002
      vertex  2.506721e+002 -9.529640e+002  1.066362e+002
    endloop
  endfacet
  facet normal -6.425775e-001  2.465726e-002  7.658239e-001
    outer loop
      vertex  2.533405e+002 -9.540358e+002  1.089097e+002
      vertex  2.506721e+002 -9.529640e+002  1.066362e+002
      vertex  2.532057e+002 -9.542424e+002  1.088032e+002
    endloop
  endfacet
  facet normal -6.852995e-001 -1.502458e-001  7.125943e-001
    outer loop
      vertex  2.532057e+002 -9.542424e+002  1.088032e+002
      vertex  2.506721e+002 -9.529640e+002  1.066362e+002
      vertex  2.488542e+002 -9.522583e+002  1.050367e+002
    endloop
  endfacet
  facet normal -6.666234e-001 -5.023287e-002  7.437002e-001
    outer loop
      vertex  2.532057e+002 -9.542424e+002  1.088032e+002
      vertex  2.488542e+002 -9.522583e+002  1.050367e+002
      vertex  2.556415e+002 -9.556559e+002  1.108910e+002
    endloop
  endfacet
  facet normal -4.735180e-001  3.679060e-001  8.002661e-001
    outer loop
      vertex  2.512842e+002 -9.522780e+002  1.070128e+002
      vertex  2.555896e+002 -9.525397e+002  1.096806e+002
      vertex  2.530446e+002 -9.512454e+002  1.075797e+002
    endloop
  endfacet
  facet normal -3.329125e-001  5.676153e-001  7.529821e-001
    outer loop
      vertex  2.530446e+002 -9.512454e+002  1.075797e+002
      vertex  2.555896e+002 -9.525397e+002  1.096806e+002
      vertex  2.586357e+002 -9.514786e+002  1.102275e+002
    endloop
  endfacet
  facet normal -3.432860e-001  5.349364e-001  7.720089e-001
    outer loop
      vertex  2.530446e+002 -9.512454e+002  1.075797e+002
      vertex  2.586357e+002 -9.514786e+002  1.102275e+002
      vertex  2.560911e+002 -9.501546e+002  1.081786e+002
    endloop
  endfacet
  facet normal -2.261800e-001  6.657313e-001  7.110868e-001
    outer loop
      vertex  2.560911e+002 -9.501546e+002  1.081786e+002
      vertex  2.586357e+002 -9.514786e+002  1.102275e+002
      vertex  2.633246e+002 -9.504511e+002  1.107570e+002
    endloop
  endfacet
  facet normal -2.378980e-001  6.293872e-001  7.397812e-001
    outer loop
      vertex  2.560911e+002 -9.501546e+002  1.081786e+002
      vertex  2.633246e+002 -9.504511e+002  1.107570e+002
      vertex  2.607885e+002 -9.490754e+002  1.087710e+002
    endloop
  endfacet
  facet normal -1.368541e-001  7.238874e-001  6.762086e-001
    outer loop
      vertex  2.607885e+002 -9.490754e+002  1.087710e+002
      vertex  2.633246e+002 -9.504511e+002  1.107570e+002
      vertex  2.708034e+002 -9.494966e+002  1.112488e+002
    endloop
  endfacet
  facet normal -1.490630e-001  6.798249e-001  7.180657e-001
    outer loop
      vertex  2.607885e+002 -9.490754e+002  1.087710e+002
      vertex  2.708034e+002 -9.494966e+002  1.112488e+002
      vertex  2.682902e+002 -9.480343e+002  1.093426e+002
    endloop
  endfacet
  facet normal -6.480332e-002  7.486594e-001  6.597800e-001
    outer loop
      vertex  2.682902e+002 -9.480343e+002  1.093426e+002
      vertex  2.708034e+002 -9.494966e+002  1.112488e+002
      vertex  2.811395e+002 -9.488813e+002  1.115658e+002
    endloop
  endfacet
  facet normal -7.602067e-002  7.029268e-001  7.071879e-001
    outer loop
      vertex  2.682902e+002 -9.480343e+002  1.093426e+002
      vertex  2.811395e+002 -9.488813e+002  1.115658e+002
      vertex  2.786673e+002 -9.473113e+002  1.097395e+002
    endloop
  endfacet
  facet normal -1.780226e-002  7.461513e-001  6.655384e-001
    outer loop
      vertex  2.786673e+002 -9.473113e+002  1.097395e+002
      vertex  2.811395e+002 -9.488813e+002  1.115658e+002
      vertex  2.901885e+002 -9.487334e+002  1.116420e+002
    endloop
  endfacet
  facet normal -2.550452e-002  7.204872e-001  6.929990e-001
    outer loop
      vertex  2.786673e+002 -9.473113e+002  1.097395e+002
      vertex  2.901885e+002 -9.487334e+002  1.116420e+002
      vertex  2.877577e+002 -9.471008e+002  1.098552e+002
    endloop
  endfacet
  facet normal -1.820361e-001  7.301469e-001  6.585957e-001
    outer loop
      vertex  2.681364e+002 -9.513398e+002  1.130722e+002
      vertex  2.633246e+002 -9.504511e+002  1.107570e+002
      vertex  2.633395e+002 -9.521613e+002  1.126570e+002
    endloop
  endfacet
  facet normal -2.318373e-001  7.221201e-001  6.517622e-001
    outer loop
      vertex  2.633395e+002 -9.521613e+002  1.126570e+002
      vertex  2.633246e+002 -9.504511e+002  1.107570e+002
      vertex  2.586357e+002 -9.514786e+002  1.102275e+002
    endloop
  endfacet
  facet normal -2.596932e-001  6.735285e-001  6.920395e-001
    outer loop
      vertex  2.633395e+002 -9.521613e+002  1.126570e+002
      vertex  2.586357e+002 -9.514786e+002  1.102275e+002
      vertex  2.603685e+002 -9.529153e+002  1.122760e+002
    endloop
  endfacet
  facet normal -3.408281e-001  6.095134e-001  7.157720e-001
    outer loop
      vertex  2.603685e+002 -9.529153e+002  1.122760e+002
      vertex  2.586357e+002 -9.514786e+002  1.102275e+002
      vertex  2.555896e+002 -9.525397e+002  1.096806e+002
    endloop
  endfacet
  facet normal -3.484251e-001  5.914819e-001  7.271515e-001
    outer loop
      vertex  2.603685e+002 -9.529153e+002  1.122760e+002
      vertex  2.555896e+002 -9.525397e+002  1.096806e+002
      vertex  2.580767e+002 -9.537480e+002  1.118552e+002
    endloop
  endfacet
  facet normal -4.729071e-001  4.202958e-001  7.744097e-001
    outer loop
      vertex  2.580767e+002 -9.537480e+002  1.118552e+002
      vertex  2.555896e+002 -9.525397e+002  1.096806e+002
      vertex  2.538241e+002 -9.535587e+002  1.091555e+002
    endloop
  endfacet
  facet normal -4.632864e-001  4.531994e-001  7.615616e-001
    outer loop
      vertex  2.580767e+002 -9.537480e+002  1.118552e+002
      vertex  2.538241e+002 -9.535587e+002  1.091555e+002
      vertex  2.565127e+002 -9.546126e+002  1.114183e+002
    endloop
  endfacet
  facet normal -5.874981e-001  1.900572e-001  7.865902e-001
    outer loop
      vertex  2.565127e+002 -9.546126e+002  1.114183e+002
      vertex  2.538241e+002 -9.535587e+002  1.091555e+002
      vertex  2.533405e+002 -9.540358e+002  1.089097e+002
    endloop
  endfacet
  facet normal -5.771596e-001  2.316630e-001  7.830831e-001
    outer loop
      vertex  2.565127e+002 -9.546126e+002  1.114183e+002
      vertex  2.533405e+002 -9.540358e+002  1.089097e+002
      vertex  2.558482e+002 -9.552238e+002  1.111094e+002
    endloop
  endfacet
  facet normal -6.501668e-001  3.309052e-002  7.590706e-001
    outer loop
      vertex  2.558482e+002 -9.552238e+002  1.111094e+002
      vertex  2.533405e+002 -9.540358e+002  1.089097e+002
      vertex  2.532057e+002 -9.542424e+002  1.088032e+002
    endloop
  endfacet
  facet normal -6.545025e-001  1.403624e-002  7.559296e-001
    outer loop
      vertex  2.558482e+002 -9.552238e+002  1.111094e+002
      vertex  2.532057e+002 -9.542424e+002  1.088032e+002
      vertex  2.556803e+002 -9.555015e+002  1.109691e+002
    endloop
  endfacet
  facet normal -4.663098e-002  8.175164e-001  5.740142e-001
    outer loop
      vertex  2.833381e+002 -9.502133e+002  1.136414e+002
      vertex  2.811395e+002 -9.488813e+002  1.115658e+002
      vertex  2.782250e+002 -9.504286e+002  1.135327e+002
    endloop
  endfacet
  facet normal -6.639029e-002  8.296690e-001  5.542938e-001
    outer loop
      vertex  2.782250e+002 -9.504286e+002  1.135327e+002
      vertex  2.811395e+002 -9.488813e+002  1.115658e+002
      vertex  2.708034e+002 -9.494966e+002  1.112488e+002
    endloop
  endfacet
  facet normal -7.786777e-002  8.087058e-001  5.830364e-001
    outer loop
      vertex  2.782250e+002 -9.504286e+002  1.135327e+002
      vertex  2.708034e+002 -9.494966e+002  1.112488e+002
      vertex  2.731223e+002 -9.507887e+002  1.133507e+002
    endloop
  endfacet
  facet normal -1.391157e-001  7.677689e-001  6.254421e-001
    outer loop
      vertex  2.731223e+002 -9.507887e+002  1.133507e+002
      vertex  2.708034e+002 -9.494966e+002  1.112488e+002
      vertex  2.633246e+002 -9.504511e+002  1.107570e+002
    endloop
  endfacet
  facet normal -1.217360e-001  8.153770e-001  5.659865e-001
    outer loop
      vertex  2.731223e+002 -9.507887e+002  1.133507e+002
      vertex  2.633246e+002 -9.504511e+002  1.107570e+002
      vertex  2.681364e+002 -9.513398e+002  1.130722e+002
    endloop
  endfacet
  facet normal -1.825479e-002  8.277878e-001  5.607442e-001
    outer loop
      vertex  2.901885e+002 -9.487334e+002  1.116420e+002
      vertex  2.811395e+002 -9.488813e+002  1.115658e+002
      vertex  2.922802e+002 -9.500854e+002  1.137060e+002
    endloop
  endfacet
  facet normal -1.590973e-002  8.337603e-001  5.518973e-001
    outer loop
      vertex  2.922802e+002 -9.500854e+002  1.137060e+002
      vertex  2.811395e+002 -9.488813e+002  1.115658e+002
      vertex  2.833381e+002 -9.502133e+002  1.136414e+002
    endloop
  endfacet
  facet normal -4.625205e-001  3.386646e-001  8.193785e-001
    outer loop
      vertex  2.530446e+002 -9.512454e+002  1.075797e+002
      vertex  2.497529e+002 -9.510624e+002  1.056460e+002
      vertex  2.512842e+002 -9.522780e+002  1.070128e+002
    endloop
  endfacet
  facet normal -5.743188e-001  1.755572e-001  7.995858e-001
    outer loop
      vertex  2.512842e+002 -9.522780e+002  1.070128e+002
      vertex  2.497529e+002 -9.510624e+002  1.056460e+002
      vertex  2.490692e+002 -9.517360e+002  1.053028e+002
    endloop
  endfacet
  facet normal -5.825370e-001  1.434313e-001  8.000488e-001
    outer loop
      vertex  2.512842e+002 -9.522780e+002  1.070128e+002
      vertex  2.490692e+002 -9.517360e+002  1.053028e+002
      vertex  2.508048e+002 -9.527573e+002  1.067496e+002
    endloop
  endfacet
  facet normal -6.505406e-001 -3.047287e-002  7.588599e-001
    outer loop
      vertex  2.508048e+002 -9.527573e+002  1.067496e+002
      vertex  2.490692e+002 -9.517360e+002  1.053028e+002
      vertex  2.488878e+002 -9.520673e+002  1.051340e+002
    endloop
  endfacet
  facet normal -6.454945e-001 -5.006279e-003  7.637486e-001
    outer loop
      vertex  2.508048e+002 -9.527573e+002  1.067496e+002
      vertex  2.488878e+002 -9.520673e+002  1.051340e+002
      vertex  2.506721e+002 -9.529640e+002  1.066362e+002
    endloop
  endfacet
  facet normal -1.461865e-001  6.384757e-001  7.556311e-001
    outer loop
      vertex  2.682902e+002 -9.480343e+002  1.093426e+002
      vertex  2.592769e+002 -9.477316e+002  1.073431e+002
      vertex  2.607885e+002 -9.490754e+002  1.087710e+002
    endloop
  endfacet
  facet normal -2.324191e-001  5.733621e-001  7.856445e-001
    outer loop
      vertex  2.607885e+002 -9.490754e+002  1.087710e+002
      vertex  2.592769e+002 -9.477316e+002  1.073431e+002
      vertex  2.552748e+002 -9.486870e+002  1.068564e+002
    endloop
  endfacet
  facet normal -2.313496e-001  5.769900e-001  7.833008e-001
    outer loop
      vertex  2.607885e+002 -9.490754e+002  1.087710e+002
      vertex  2.552748e+002 -9.486870e+002  1.068564e+002
      vertex  2.560911e+002 -9.501546e+002  1.081786e+002
    endloop
  endfacet
  facet normal -1.562226e-001  5.884479e-001  7.932991e-001
    outer loop
      vertex  2.592769e+002 -9.477316e+002  1.073431e+002
      vertex  2.682902e+002 -9.480343e+002  1.093426e+002
      vertex  2.665322e+002 -9.465898e+002  1.079249e+002
    endloop
  endfacet
  facet normal -7.424951e-002  6.510287e-001  7.554129e-001
    outer loop
      vertex  2.665322e+002 -9.465898e+002  1.079249e+002
      vertex  2.682902e+002 -9.480343e+002  1.093426e+002
      vertex  2.786673e+002 -9.473113e+002  1.097395e+002
    endloop
  endfacet
  facet normal -9.162544e-002  5.487561e-001  8.309461e-001
    outer loop
      vertex  2.665322e+002 -9.465898e+002  1.079249e+002
      vertex  2.786673e+002 -9.473113e+002  1.097395e+002
      vertex  2.741555e+002 -9.458713e+002  1.082910e+002
    endloop
  endfacet
  facet normal -2.494621e-002  6.690258e-001  7.428204e-001
    outer loop
      vertex  2.741555e+002 -9.458713e+002  1.082910e+002
      vertex  2.786673e+002 -9.473113e+002  1.097395e+002
      vertex  2.877577e+002 -9.471008e+002  1.098552e+002
    endloop
  endfacet
  facet normal -4.066918e-002  5.826824e-001  8.116817e-001
    outer loop
      vertex  2.741555e+002 -9.458713e+002  1.082910e+002
      vertex  2.877577e+002 -9.471008e+002  1.098552e+002
      vertex  2.853604e+002 -9.454139e+002  1.085241e+002
    endloop
  endfacet
  facet normal  7.410707e-002  8.745033e-001  4.793246e-001
    outer loop
      vertex  3.419870e+002 -9.511073e+002  1.104186e+002
      vertex  3.187820e+002 -9.495740e+002  1.112088e+002
      vertex  3.263404e+002 -9.512584e+002  1.131133e+002
    endloop
  endfacet
  facet normal  5.886973e-002  8.521297e-001  5.200089e-001
    outer loop
      vertex  3.263404e+002 -9.512584e+002  1.131133e+002
      vertex  3.187820e+002 -9.495740e+002  1.112088e+002
      vertex  3.145290e+002 -9.506347e+002  1.134285e+002
    endloop
  endfacet
  facet normal  4.519156e-002  8.649011e-001  4.999039e-001
    outer loop
      vertex  3.145290e+002 -9.506347e+002  1.134285e+002
      vertex  3.187820e+002 -9.495740e+002  1.112088e+002
      vertex  3.014897e+002 -9.488778e+002  1.115676e+002
    endloop
  endfacet
  facet normal  3.985965e-002  8.508095e-001  5.239604e-001
    outer loop
      vertex  3.145290e+002 -9.506347e+002  1.134285e+002
      vertex  3.014897e+002 -9.488778e+002  1.115676e+002
      vertex  3.034084e+002 -9.502374e+002  1.136293e+002
    endloop
  endfacet
  facet normal  1.430780e-002  8.408082e-001  5.411440e-001
    outer loop
      vertex  3.034084e+002 -9.502374e+002  1.136293e+002
      vertex  3.014897e+002 -9.488778e+002  1.115676e+002
      vertex  2.901885e+002 -9.487334e+002  1.116420e+002
    endloop
  endfacet
  facet normal  1.521838e-002  8.434097e-001  5.370554e-001
    outer loop
      vertex  3.034084e+002 -9.502374e+002  1.136293e+002
      vertex  2.901885e+002 -9.487334e+002  1.116420e+002
      vertex  2.922802e+002 -9.500854e+002  1.137060e+002
    endloop
  endfacet
  facet normal  7.884590e-002  8.589410e-001  5.059681e-001
    outer loop
      vertex  3.263404e+002 -9.512584e+002  1.131133e+002
      vertex  3.493896e+002 -9.528888e+002  1.122894e+002
      vertex  3.419870e+002 -9.511073e+002  1.104186e+002
    endloop
  endfacet
  facet normal  9.392511e-002  8.797329e-001  4.660987e-001
    outer loop
      vertex  3.419870e+002 -9.511073e+002  1.104186e+002
      vertex  3.493896e+002 -9.528888e+002  1.122894e+002
      vertex  3.703171e+002 -9.546512e+002  1.113987e+002
    endloop
  endfacet
  facet normal  9.348748e-002  8.774455e-001  4.704779e-001
    outer loop
      vertex  3.419870e+002 -9.511073e+002  1.104186e+002
      vertex  3.703171e+002 -9.546512e+002  1.113987e+002
      vertex  3.694365e+002 -9.533987e+002  1.092378e+002
    endloop
  endfacet
  facet normal  1.021127e-001  8.781455e-001  4.673688e-001
    outer loop
      vertex  3.694365e+002 -9.533987e+002  1.092378e+002
      vertex  3.703171e+002 -9.546512e+002  1.113987e+002
      vertex  3.812404e+002 -9.556522e+002  1.108929e+002
    endloop
  endfacet
  facet normal  1.030710e-001  8.801828e-001  4.633085e-001
    outer loop
      vertex  3.694365e+002 -9.533987e+002  1.092378e+002
      vertex  3.812404e+002 -9.556522e+002  1.108929e+002
      vertex  3.805291e+002 -9.544205e+002  1.087112e+002
    endloop
  endfacet
  facet normal  4.075832e-002  6.057960e-001  7.945753e-001
    outer loop
      vertex  3.167440e+002 -9.478930e+002  1.094202e+002
      vertex  3.015661e+002 -9.455833e+002  1.084378e+002
      vertex  2.992141e+002 -9.472073e+002  1.097966e+002
    endloop
  endfacet
  facet normal  1.073495e-002  6.324800e-001  7.745023e-001
    outer loop
      vertex  2.992141e+002 -9.472073e+002  1.097966e+002
      vertex  3.015661e+002 -9.455833e+002  1.084378e+002
      vertex  2.853604e+002 -9.454139e+002  1.085241e+002
    endloop
  endfacet
  facet normal  9.816224e-003  6.279825e-001  7.781656e-001
    outer loop
      vertex  2.992141e+002 -9.472073e+002  1.097966e+002
      vertex  2.853604e+002 -9.454139e+002  1.085241e+002
      vertex  2.877577e+002 -9.471008e+002  1.098552e+002
    endloop
  endfacet
  facet normal  5.116372e-002  6.563640e-001  7.527074e-001
    outer loop
      vertex  3.015661e+002 -9.455833e+002  1.084378e+002
      vertex  3.167440e+002 -9.478930e+002  1.094202e+002
      vertex  3.201179e+002 -9.464960e+002  1.079727e+002
    endloop
  endfacet
  facet normal  7.073978e-002  6.302662e-001  7.731497e-001
    outer loop
      vertex  3.201179e+002 -9.464960e+002  1.079727e+002
      vertex  3.167440e+002 -9.478930e+002  1.094202e+002
      vertex  3.402675e+002 -9.494707e+002  1.085540e+002
    endloop
  endfacet
  facet normal  8.110315e-002  6.899421e-001  7.193067e-001
    outer loop
      vertex  3.201179e+002 -9.464960e+002  1.079727e+002
      vertex  3.402675e+002 -9.494707e+002  1.085540e+002
      vertex  3.410301e+002 -9.481014e+002  1.071547e+002
    endloop
  endfacet
  facet normal  9.221566e-002  6.861185e-001  7.216216e-001
    outer loop
      vertex  3.410301e+002 -9.481014e+002  1.071547e+002
      vertex  3.402675e+002 -9.494707e+002  1.085540e+002
      vertex  3.680934e+002 -9.518416e+002  1.072524e+002
    endloop
  endfacet
  facet normal  1.009860e-001  7.478693e-001  6.561198e-001
    outer loop
      vertex  3.410301e+002 -9.481014e+002  1.071547e+002
      vertex  3.680934e+002 -9.518416e+002  1.072524e+002
      vertex  3.734813e+002 -9.511297e+002  1.056117e+002
    endloop
  endfacet
  facet normal  1.025164e-001  7.445135e-001  6.596894e-001
    outer loop
      vertex  3.734813e+002 -9.511297e+002  1.056117e+002
      vertex  3.680934e+002 -9.518416e+002  1.072524e+002
      vertex  3.793380e+002 -9.528832e+002  1.066805e+002
    endloop
  endfacet
  facet normal  1.068170e-001  7.527308e-001  6.496049e-001
    outer loop
      vertex  3.734813e+002 -9.511297e+002  1.056117e+002
      vertex  3.793380e+002 -9.528832e+002  1.066805e+002
      vertex  3.781762e+002 -9.515925e+002  1.053759e+002
    endloop
  endfacet
  facet normal  4.395820e-002  7.543166e-001  6.550375e-001
    outer loop
      vertex  3.187820e+002 -9.495740e+002  1.112088e+002
      vertex  2.992141e+002 -9.472073e+002  1.097966e+002
      vertex  3.014897e+002 -9.488778e+002  1.115676e+002
    endloop
  endfacet
  facet normal  1.029613e-002  7.339722e-001  6.791015e-001
    outer loop
      vertex  3.014897e+002 -9.488778e+002  1.115676e+002
      vertex  2.992141e+002 -9.472073e+002  1.097966e+002
      vertex  2.877577e+002 -9.471008e+002  1.098552e+002
    endloop
  endfacet
  facet normal  1.392552e-002  7.475372e-001  6.640741e-001
    outer loop
      vertex  3.014897e+002 -9.488778e+002  1.115676e+002
      vertex  2.877577e+002 -9.471008e+002  1.098552e+002
      vertex  2.901885e+002 -9.487334e+002  1.116420e+002
    endloop
  endfacet
  facet normal  4.354235e-002  7.522858e-001  6.573965e-001
    outer loop
      vertex  2.992141e+002 -9.472073e+002  1.097966e+002
      vertex  3.187820e+002 -9.495740e+002  1.112088e+002
      vertex  3.167440e+002 -9.478930e+002  1.094202e+002
    endloop
  endfacet
  facet normal  7.238193e-002  7.666208e-001  6.380072e-001
    outer loop
      vertex  3.167440e+002 -9.478930e+002  1.094202e+002
      vertex  3.187820e+002 -9.495740e+002  1.112088e+002
      vertex  3.419870e+002 -9.511073e+002  1.104186e+002
    endloop
  endfacet
  facet normal  7.524667e-002  7.828093e-001  6.176954e-001
    outer loop
      vertex  3.167440e+002 -9.478930e+002  1.094202e+002
      vertex  3.419870e+002 -9.511073e+002  1.104186e+002
      vertex  3.402675e+002 -9.494707e+002  1.085540e+002
    endloop
  endfacet
  facet normal  9.199466e-002  7.889001e-001  6.075966e-001
    outer loop
      vertex  3.402675e+002 -9.494707e+002  1.085540e+002
      vertex  3.419870e+002 -9.511073e+002  1.104186e+002
      vertex  3.694365e+002 -9.533987e+002  1.092378e+002
    endloop
  endfacet
  facet normal  9.614772e-002  8.137534e-001  5.732024e-001
    outer loop
      vertex  3.402675e+002 -9.494707e+002  1.085540e+002
      vertex  3.694365e+002 -9.533987e+002  1.092378e+002
      vertex  3.680934e+002 -9.518416e+002  1.072524e+002
    endloop
  endfacet
  facet normal  1.021526e-001  8.151211e-001  5.702127e-001
    outer loop
      vertex  3.680934e+002 -9.518416e+002  1.072524e+002
      vertex  3.694365e+002 -9.533987e+002  1.092378e+002
      vertex  3.805291e+002 -9.544205e+002  1.087112e+002
    endloop
  endfacet
  facet normal  1.046048e-001  8.214833e-001  5.605561e-001
    outer loop
      vertex  3.680934e+002 -9.518416e+002  1.072524e+002
      vertex  3.805291e+002 -9.544205e+002  1.087112e+002
      vertex  3.793380e+002 -9.528832e+002  1.066805e+002
    endloop
  endfacet
  facet normal -7.063031e-001 -3.576107e-001  6.109424e-001
    outer loop
      vertex  2.488561e+002 -9.522894e+002  1.050208e+002
      vertex  2.556403e+002 -9.556863e+002  1.108757e+002
      vertex  2.488543e+002 -9.522629e+002  1.050343e+002
    endloop
  endfacet
  facet normal -7.048337e-001 -3.015235e-001  6.421005e-001
    outer loop
      vertex  2.488543e+002 -9.522629e+002  1.050343e+002
      vertex  2.556403e+002 -9.556863e+002  1.108757e+002
      vertex  2.556411e+002 -9.556605e+002  1.108887e+002
    endloop
  endfacet
  facet normal  1.256832e-002 -7.710984e-001 -6.365921e-001
    outer loop
      vertex  3.285481e+002 -9.517325e+002  1.053046e+002
      vertex  3.521679e+002 -9.526081e+002  1.068316e+002
      vertex  3.253528e+002 -9.545443e+002  1.086475e+002
    endloop
  endfacet
  facet normal  4.452073e-002 -7.850715e-001 -6.178030e-001
    outer loop
      vertex  3.253528e+002 -9.545443e+002  1.086475e+002
      vertex  3.007372e+002 -9.528582e+002  1.047310e+002
      vertex  3.285481e+002 -9.517325e+002  1.053046e+002
    endloop
  endfacet
  facet normal  1.401951e-002 -7.583311e-001 -6.517187e-001
    outer loop
      vertex  3.564221e+002 -9.513741e+002  1.054872e+002
      vertex  3.521679e+002 -9.526081e+002  1.068316e+002
      vertex  3.285481e+002 -9.517325e+002  1.053046e+002
    endloop
  endfacet
  facet normal  1.734398e-002 -8.011909e-001 -5.981573e-001
    outer loop
      vertex  3.535647e+002 -9.541033e+002  1.088747e+002
      vertex  3.253528e+002 -9.545443e+002  1.086475e+002
      vertex  3.521679e+002 -9.526081e+002  1.068316e+002
    endloop
  endfacet
  facet normal -2.981426e-002 -8.740761e-001 -4.848732e-001
    outer loop
      vertex  3.771401e+002 -9.544332e+002  1.087047e+002
      vertex  3.812428e+002 -9.557574e+002  1.108397e+002
      vertex  3.745482e+002 -9.555791e+002  1.109298e+002
    endloop
  endfacet
  facet normal -3.106819e-002 -8.750363e-001 -4.830592e-001
    outer loop
      vertex  3.812428e+002 -9.557574e+002  1.108397e+002
      vertex  3.771401e+002 -9.544332e+002  1.087047e+002
      vertex  3.805317e+002 -9.545269e+002  1.086564e+002
    endloop
  endfacet
  facet normal -3.070938e-002 -8.072605e-001 -5.893958e-001
    outer loop
      vertex  3.805317e+002 -9.545269e+002  1.086564e+002
      vertex  3.771401e+002 -9.544332e+002  1.087047e+002
      vertex  3.759236e+002 -9.529016e+002  1.066704e+002
    endloop
  endfacet
  facet normal -2.884946e-002 -8.053267e-001 -5.921288e-001
    outer loop
      vertex  3.805317e+002 -9.545269e+002  1.086564e+002
      vertex  3.759236e+002 -9.529016e+002  1.066704e+002
      vertex  3.793412e+002 -9.529888e+002  1.066225e+002
    endloop
  endfacet
  facet normal -2.891540e-002 -8.161662e-001 -5.770933e-001
    outer loop
      vertex  3.793412e+002 -9.529888e+002  1.066225e+002
      vertex  3.759236e+002 -9.529016e+002  1.066704e+002
      vertex  3.564221e+002 -9.513741e+002  1.054872e+002
    endloop
  endfacet
  facet normal -1.615140e-002 -7.182900e-001 -6.955564e-001
    outer loop
      vertex  3.793412e+002 -9.529888e+002  1.066225e+002
      vertex  3.564221e+002 -9.513741e+002  1.054872e+002
      vertex  3.781858e+002 -9.517018e+002  1.053202e+002
    endloop
  endfacet
  facet normal  4.532632e-002 -8.588201e-001 -5.102682e-001
    outer loop
      vertex  2.988302e+002 -9.568851e+002  1.102699e+002
      vertex  2.870036e+002 -9.573651e+002  1.100273e+002
      vertex  2.970251e+002 -9.556713e+002  1.080667e+002
    endloop
  endfacet
  facet normal  3.487544e-002 -8.375227e-001 -5.452884e-001
    outer loop
      vertex  2.970251e+002 -9.556713e+002  1.080667e+002
      vertex  2.870036e+002 -9.573651e+002  1.100273e+002
      vertex  2.810877e+002 -9.575505e+002  1.099336e+002
    endloop
  endfacet
  facet normal  4.532715e-002 -8.707938e-001 -4.895545e-001
    outer loop
      vertex  2.970251e+002 -9.556713e+002  1.080667e+002
      vertex  2.810877e+002 -9.575505e+002  1.099336e+002
      vertex  2.835432e+002 -9.562155e+002  1.077863e+002
    endloop
  endfacet
  facet normal  1.607769e-002 -8.572803e-001 -5.145990e-001
    outer loop
      vertex  2.835432e+002 -9.562155e+002  1.077863e+002
      vertex  2.810877e+002 -9.575505e+002  1.099336e+002
      vertex  2.722100e+002 -9.576782e+002  1.098690e+002
    endloop
  endfacet
  facet normal  1.733230e-002 -8.601328e-001 -5.097756e-001
    outer loop
      vertex  2.835432e+002 -9.562155e+002  1.077863e+002
      vertex  2.722100e+002 -9.576782e+002  1.098690e+002
      vertex  2.680245e+002 -9.551389e+002  1.054421e+002
    endloop
  endfacet
  facet normal  4.393109e-002 -7.872688e-001 -6.150430e-001
    outer loop
      vertex  3.253528e+002 -9.545443e+002  1.086475e+002
      vertex  2.970251e+002 -9.556713e+002  1.080667e+002
      vertex  3.007372e+002 -9.528582e+002  1.047310e+002
    endloop
  endfacet
  facet normal  4.456940e-002 -7.875816e-001 -6.145965e-001
    outer loop
      vertex  3.007372e+002 -9.528582e+002  1.047310e+002
      vertex  2.970251e+002 -9.556713e+002  1.080667e+002
      vertex  2.835432e+002 -9.562155e+002  1.077863e+002
    endloop
  endfacet
  facet normal  5.132263e-002 -8.030943e-001 -5.936375e-001
    outer loop
      vertex  3.007372e+002 -9.528582e+002  1.047310e+002
      vertex  2.835432e+002 -9.562155e+002  1.077863e+002
      vertex  2.782164e+002 -9.539037e+002  1.041983e+002
    endloop
  endfacet
  facet normal  2.953579e-002 -8.197190e-001 -5.720037e-001
    outer loop
      vertex  2.782164e+002 -9.539037e+002  1.041983e+002
      vertex  2.835432e+002 -9.562155e+002  1.077863e+002
      vertex  2.680245e+002 -9.551389e+002  1.054421e+002
    endloop
  endfacet
  facet normal  2.810971e-002 -8.149066e-001 -5.789102e-001
    outer loop
      vertex  2.782164e+002 -9.539037e+002  1.041983e+002
      vertex  2.680245e+002 -9.551389e+002  1.054421e+002
      vertex  2.667932e+002 -9.541930e+002  1.040509e+002
    endloop
  endfacet
  facet normal  3.881207e-002 -8.597057e-001 -5.093130e-001
    outer loop
      vertex  3.267870e+002 -9.557735e+002  1.108316e+002
      vertex  3.174658e+002 -9.560974e+002  1.106679e+002
      vertex  3.253528e+002 -9.545443e+002  1.086475e+002
    endloop
  endfacet
  facet normal  4.726863e-002 -8.725724e-001 -4.861924e-001
    outer loop
      vertex  3.253528e+002 -9.545443e+002  1.086475e+002
      vertex  3.174658e+002 -9.560974e+002  1.106679e+002
      vertex  2.988302e+002 -9.568851e+002  1.102699e+002
    endloop
  endfacet
  facet normal  4.463236e-002 -8.591018e-001 -5.098548e-001
    outer loop
      vertex  3.253528e+002 -9.545443e+002  1.086475e+002
      vertex  2.988302e+002 -9.568851e+002  1.102699e+002
      vertex  2.970251e+002 -9.556713e+002  1.080667e+002
    endloop
  endfacet
  facet normal  8.753605e-003 -8.685293e-001 -4.955606e-001
    outer loop
      vertex  3.546293e+002 -9.553354e+002  1.110530e+002
      vertex  3.407115e+002 -9.554443e+002  1.109980e+002
      vertex  3.535647e+002 -9.541033e+002  1.088747e+002
    endloop
  endfacet
  facet normal  2.646036e-002 -9.097170e-001 -4.143847e-001
    outer loop
      vertex  3.535647e+002 -9.541033e+002  1.088747e+002
      vertex  3.407115e+002 -9.554443e+002  1.109980e+002
      vertex  3.267870e+002 -9.557735e+002  1.108316e+002
    endloop
  endfacet
  facet normal  1.756484e-002 -8.663624e-001 -4.991070e-001
    outer loop
      vertex  3.535647e+002 -9.541033e+002  1.088747e+002
      vertex  3.267870e+002 -9.557735e+002  1.108316e+002
      vertex  3.253528e+002 -9.545443e+002  1.086475e+002
    endloop
  endfacet
  facet normal -1.357522e-002 -7.148579e-001 -6.991379e-001
    outer loop
      vertex  3.564221e+002 -9.513741e+002  1.054872e+002
      vertex  3.759236e+002 -9.529016e+002  1.066704e+002
      vertex  3.521679e+002 -9.526081e+002  1.068316e+002
    endloop
  endfacet
  facet normal -1.396279e-002 -8.028155e-001 -5.960642e-001
    outer loop
      vertex  3.521679e+002 -9.526081e+002  1.068316e+002
      vertex  3.759236e+002 -9.529016e+002  1.066704e+002
      vertex  3.771401e+002 -9.544332e+002  1.087047e+002
    endloop
  endfacet
  facet normal -1.557051e-002 -8.119452e-001 -5.835258e-001
    outer loop
      vertex  3.521679e+002 -9.526081e+002  1.068316e+002
      vertex  3.771401e+002 -9.544332e+002  1.087047e+002
      vertex  3.535647e+002 -9.541033e+002  1.088747e+002
    endloop
  endfacet
  facet normal -1.573875e-002 -8.813407e-001 -4.722192e-001
    outer loop
      vertex  3.535647e+002 -9.541033e+002  1.088747e+002
      vertex  3.771401e+002 -9.544332e+002  1.087047e+002
      vertex  3.745482e+002 -9.555791e+002  1.109298e+002
    endloop
  endfacet
  facet normal -1.369565e-002 -8.731742e-001 -4.872157e-001
    outer loop
      vertex  3.535647e+002 -9.541033e+002  1.088747e+002
      vertex  3.745482e+002 -9.555791e+002  1.109298e+002
      vertex  3.546293e+002 -9.553354e+002  1.110530e+002
    endloop
  endfacet
  facet normal  9.520468e-001  2.987475e-001 -6.600672e-002
    outer loop
      vertex  3.813284e+002 -9.557117e+002  1.108628e+002
      vertex  3.813228e+002 -9.556916e+002  1.108730e+002
      vertex  4.010021e+002 -9.989084e+002  1.991163e+002
    endloop
  endfacet
  facet normal  9.537666e-001  2.924028e-001 -6.949757e-002
    outer loop
      vertex  3.813228e+002 -9.556916e+002  1.108730e+002
      vertex  4.010004e+002 -9.989022e+002  1.991194e+002
      vertex  4.010021e+002 -9.989084e+002  1.991163e+002
    endloop
  endfacet
  facet normal  8.296263e-001  5.517913e-001  8.512652e-002
    outer loop
      vertex  4.010004e+002 -9.989022e+002  1.991194e+002
      vertex  3.813228e+002 -9.556916e+002  1.108730e+002
      vertex  4.009972e+002 -9.988977e+002  1.991217e+002
    endloop
  endfacet
  facet normal  7.634873e-001  6.307729e-001  1.386098e-001
    outer loop
      vertex  3.813228e+002 -9.556916e+002  1.108730e+002
      vertex  3.813061e+002 -9.556734e+002  1.108822e+002
      vertex  4.009972e+002 -9.988977e+002  1.991217e+002
    endloop
  endfacet
  facet normal  5.341930e-001  8.001371e-001  2.727974e-001
    outer loop
      vertex  4.009972e+002 -9.988977e+002  1.991217e+002
      vertex  3.813061e+002 -9.556734e+002  1.108822e+002
      vertex  3.812890e+002 -9.556636e+002  1.108871e+002
    endloop
  endfacet
  facet normal  5.496258e-001  7.921358e-001  2.653912e-001
    outer loop
      vertex  4.009972e+002 -9.988977e+002  1.991217e+002
      vertex  3.812890e+002 -9.556636e+002  1.108871e+002
      vertex  4.009842e+002 -9.988900e+002  1.991256e+002
    endloop
  endfacet
  facet normal  2.544484e-001  8.897047e-001  3.790535e-001
    outer loop
      vertex  4.009842e+002 -9.988900e+002  1.991256e+002
      vertex  3.812890e+002 -9.556636e+002  1.108871e+002
      vertex  3.812404e+002 -9.556522e+002  1.108929e+002
    endloop
  endfacet
  facet normal  1.935420e-001  8.974006e-001  3.965019e-001
    outer loop
      vertex  4.009842e+002 -9.988900e+002  1.991256e+002
      vertex  3.812404e+002 -9.556522e+002  1.108929e+002
      vertex  4.009682e+002 -9.988872e+002  1.991270e+002
    endloop
  endfacet
  facet normal  7.454497e-001 -5.178929e-001 -4.196329e-001
    outer loop
      vertex  4.009947e+002 -9.989213e+002  1.991098e+002
      vertex  3.813232e+002 -9.557302e+002  1.108535e+002
      vertex  4.010004e+002 -9.989154e+002  1.991127e+002
    endloop
  endfacet
  facet normal  9.520156e-001 -1.312987e-001 -2.764544e-001
    outer loop
      vertex  4.010004e+002 -9.989154e+002  1.991127e+002
      vertex  3.813232e+002 -9.557302e+002  1.108535e+002
      vertex  3.813284e+002 -9.557117e+002  1.108628e+002
    endloop
  endfacet
  facet normal  9.598158e-001 -9.916464e-002 -2.625262e-001
    outer loop
      vertex  4.010004e+002 -9.989154e+002  1.991127e+002
      vertex  3.813284e+002 -9.557117e+002  1.108628e+002
      vertex  4.010021e+002 -9.989084e+002  1.991163e+002
    endloop
  endfacet
  facet normal  7.222063e-001 -5.439913e-001 -4.271903e-001
    outer loop
      vertex  3.813232e+002 -9.557302e+002  1.108535e+002
      vertex  4.009947e+002 -9.989213e+002  1.991098e+002
      vertex  3.813073e+002 -9.557452e+002  1.108459e+002
    endloop
  endfacet
  facet normal  4.642819e-001 -7.502838e-001 -4.706554e-001
    outer loop
      vertex  3.813073e+002 -9.557452e+002  1.108459e+002
      vertex  4.009947e+002 -9.989213e+002  1.991098e+002
      vertex  4.009886e+002 -9.989241e+002  1.991083e+002
    endloop
  endfacet
  facet normal  4.329416e-001 -7.678663e-001 -4.721685e-001
    outer loop
      vertex  3.813073e+002 -9.557452e+002  1.108459e+002
      vertex  4.009886e+002 -9.989241e+002  1.991083e+002
      vertex  3.812907e+002 -9.557524e+002  1.108423e+002
    endloop
  endfacet
  facet normal  1.516314e-001 -8.741469e-001 -4.613839e-001
    outer loop
      vertex  3.812907e+002 -9.557524e+002  1.108423e+002
      vertex  4.009886e+002 -9.989241e+002  1.991083e+002
      vertex  4.009707e+002 -9.989266e+002  1.991071e+002
    endloop
  endfacet
  facet normal  1.178586e-001 -8.814141e-001 -4.574041e-001
    outer loop
      vertex  3.812907e+002 -9.557524e+002  1.108423e+002
      vertex  4.009707e+002 -9.989266e+002  1.991071e+002
      vertex  3.812428e+002 -9.557574e+002  1.108397e+002
    endloop
  endfacet
  facet normal -7.064294e-001 -2.755795e-001  6.519305e-001
    outer loop
      vertex  2.556411e+002 -9.556605e+002  1.108887e+002
      vertex  3.538973e+002 -1.000357e+003  1.983841e+002
      vertex  2.556415e+002 -9.556559e+002  1.108910e+002
    endloop
  endfacet
  facet normal -7.067133e-001 -3.065262e-001  6.376503e-001
    outer loop
      vertex  2.556415e+002 -9.556559e+002  1.108910e+002
      vertex  3.538973e+002 -1.000357e+003  1.983841e+002
      vertex  3.538974e+002 -1.000356e+003  1.983849e+002
    endloop
  endfacet
  facet normal -2.628823e-001  7.005668e-001  6.633996e-001
    outer loop
      vertex  2.633395e+002 -9.521613e+002  1.126570e+002
      vertex  2.603685e+002 -9.529153e+002  1.122760e+002
      vertex  3.561665e+002 -9.991063e+002  1.990163e+002
    endloop
  endfacet
  facet normal -3.515836e-001  6.078382e-001  7.119843e-001
    outer loop
      vertex  3.561665e+002 -9.991063e+002  1.990163e+002
      vertex  2.603685e+002 -9.529153e+002  1.122760e+002
      vertex  2.580767e+002 -9.537480e+002  1.118552e+002
    endloop
  endfacet
  facet normal -3.530608e-001  6.060935e-001  7.127403e-001
    outer loop
      vertex  3.561665e+002 -9.991063e+002  1.990163e+002
      vertex  2.580767e+002 -9.537480e+002  1.118552e+002
      vertex  3.547820e+002 -9.996121e+002  1.987607e+002
    endloop
  endfacet
  facet normal -4.646195e-001  4.572461e-001  7.583236e-001
    outer loop
      vertex  3.547820e+002 -9.996121e+002  1.987607e+002
      vertex  2.580767e+002 -9.537480e+002  1.118552e+002
      vertex  2.565127e+002 -9.546126e+002  1.114183e+002
    endloop
  endfacet
  facet normal -4.845346e-001  4.254435e-001  7.643455e-001
    outer loop
      vertex  3.547820e+002 -9.996121e+002  1.987607e+002
      vertex  2.565127e+002 -9.546126e+002  1.114183e+002
      vertex  3.542086e+002 -9.999545e+002  1.985877e+002
    endloop
  endfacet
  facet normal -5.819485e-001  2.399284e-001  7.770266e-001
    outer loop
      vertex  3.542086e+002 -9.999545e+002  1.985877e+002
      vertex  2.565127e+002 -9.546126e+002  1.114183e+002
      vertex  2.558482e+002 -9.552238e+002  1.111094e+002
    endloop
  endfacet
  facet normal -5.945030e-001  2.104514e-001  7.760647e-001
    outer loop
      vertex  3.542086e+002 -9.999545e+002  1.985877e+002
      vertex  2.558482e+002 -9.552238e+002  1.111094e+002
      vertex  3.539685e+002 -1.000191e+003  1.984680e+002
    endloop
  endfacet
  facet normal -6.597974e-001  1.962717e-002  7.511871e-001
    outer loop
      vertex  3.539685e+002 -1.000191e+003  1.984680e+002
      vertex  2.558482e+002 -9.552238e+002  1.111094e+002
      vertex  2.556803e+002 -9.555015e+002  1.109691e+002
    endloop
  endfacet
  facet normal -6.665650e-001 -6.525792e-003  7.454183e-001
    outer loop
      vertex  3.539685e+002 -1.000191e+003  1.984680e+002
      vertex  2.556803e+002 -9.555015e+002  1.109691e+002
      vertex  3.539096e+002 -1.000297e+003  1.984144e+002
    endloop
  endfacet
  facet normal -6.980516e-001 -1.756006e-001  6.941819e-001
    outer loop
      vertex  3.539096e+002 -1.000297e+003  1.984144e+002
      vertex  2.556803e+002 -9.555015e+002  1.109691e+002
      vertex  2.556415e+002 -9.556559e+002  1.108910e+002
    endloop
  endfacet
  facet normal -7.006343e-001 -1.988877e-001  6.852410e-001
    outer loop
      vertex  3.539096e+002 -1.000297e+003  1.984144e+002
      vertex  2.556415e+002 -9.556559e+002  1.108910e+002
      vertex  3.538974e+002 -1.000356e+003  1.983849e+002
    endloop
  endfacet
  facet normal -7.838316e-002  8.368728e-001  5.417566e-001
    outer loop
      vertex  2.782250e+002 -9.504286e+002  1.135327e+002
      vertex  2.731223e+002 -9.507887e+002  1.133507e+002
      vertex  3.603773e+002 -9.983274e+002  1.994099e+002
    endloop
  endfacet
  facet normal -1.216183e-001  8.114902e-001  5.715702e-001
    outer loop
      vertex  3.603773e+002 -9.983274e+002  1.994099e+002
      vertex  2.731223e+002 -9.507887e+002  1.133507e+002
      vertex  2.681364e+002 -9.513398e+002  1.130722e+002
    endloop
  endfacet
  facet normal -1.550004e-001  7.887449e-001  5.948584e-001
    outer loop
      vertex  3.603773e+002 -9.983274e+002  1.994099e+002
      vertex  2.681364e+002 -9.513398e+002  1.130722e+002
      vertex  3.585168e+002 -9.985921e+002  1.992761e+002
    endloop
  endfacet
  facet normal -1.845557e-001  7.673379e-001  6.141106e-001
    outer loop
      vertex  3.585168e+002 -9.985921e+002  1.992761e+002
      vertex  2.681364e+002 -9.513398e+002  1.130722e+002
      vertex  2.633395e+002 -9.521613e+002  1.126570e+002
    endloop
  endfacet
  facet normal -2.307352e-001  7.290905e-001  6.443511e-001
    outer loop
      vertex  3.585168e+002 -9.985921e+002  1.992761e+002
      vertex  2.633395e+002 -9.521613e+002  1.126570e+002
      vertex  3.561665e+002 -9.991063e+002  1.990163e+002
    endloop
  endfacet
  facet normal -9.706134e-002  8.268254e-001  5.540205e-001
    outer loop
      vertex  3.603773e+002 -9.983274e+002  1.994099e+002
      vertex  3.641974e+002 -9.979924e+002  1.995792e+002
      vertex  2.782250e+002 -9.504286e+002  1.135327e+002
    endloop
  endfacet
  facet normal -4.697574e-002  8.536130e-001  5.187854e-001
    outer loop
      vertex  2.782250e+002 -9.504286e+002  1.135327e+002
      vertex  3.641974e+002 -9.979924e+002  1.995792e+002
      vertex  2.833381e+002 -9.502133e+002  1.136414e+002
    endloop
  endfacet
  facet normal -5.072963e-002  8.518437e-001  5.213337e-001
    outer loop
      vertex  3.641974e+002 -9.979924e+002  1.995792e+002
      vertex  3.675468e+002 -9.978400e+002  1.996562e+002
      vertex  2.833381e+002 -9.502133e+002  1.136414e+002
    endloop
  endfacet
  facet normal -1.599773e-002  8.680128e-001  4.962840e-001
    outer loop
      vertex  2.833381e+002 -9.502133e+002  1.136414e+002
      vertex  3.675468e+002 -9.978400e+002  1.996562e+002
      vertex  2.922802e+002 -9.500854e+002  1.137060e+002
    endloop
  endfacet
  facet normal -7.245626e-003  8.726555e-001  4.882827e-001
    outer loop
      vertex  3.758931e+002 -9.977860e+002  1.996835e+002
      vertex  3.034084e+002 -9.502374e+002  1.136293e+002
      vertex  3.675468e+002 -9.978400e+002  1.996562e+002
    endloop
  endfacet
  facet normal  1.528767e-002  8.796594e-001  4.753583e-001
    outer loop
      vertex  3.034084e+002 -9.502374e+002  1.136293e+002
      vertex  2.922802e+002 -9.500854e+002  1.137060e+002
      vertex  3.675468e+002 -9.978400e+002  1.996562e+002
    endloop
  endfacet
  facet normal  1.020807e-001  9.021270e-001  4.192213e-001
    outer loop
      vertex  3.812404e+002 -9.556522e+002  1.108929e+002
      vertex  3.703171e+002 -9.546512e+002  1.113987e+002
      vertex  4.009682e+002 -9.988872e+002  1.991270e+002
    endloop
  endfacet
  facet normal  3.999964e-002  8.884552e-001  4.572173e-001
    outer loop
      vertex  3.145290e+002 -9.506347e+002  1.134285e+002
      vertex  3.034084e+002 -9.502374e+002  1.136293e+002
      vertex  3.758931e+002 -9.977860e+002  1.996835e+002
    endloop
  endfacet
  facet normal  6.686445e-002  9.001071e-001  4.305070e-001
    outer loop
      vertex  4.009682e+002 -9.988872e+002  1.991270e+002
      vertex  3.703171e+002 -9.546512e+002  1.113987e+002
      vertex  3.962243e+002 -9.986034e+002  1.992704e+002
    endloop
  endfacet
  facet normal  9.390335e-002  9.012101e-001  4.230867e-001
    outer loop
      vertex  3.962243e+002 -9.986034e+002  1.992704e+002
      vertex  3.703171e+002 -9.546512e+002  1.113987e+002
      vertex  3.493896e+002 -9.528888e+002  1.122894e+002
    endloop
  endfacet
  facet normal  5.872851e-002  8.963375e-001  4.394656e-001
    outer loop
      vertex  3.962243e+002 -9.986034e+002  1.992704e+002
      vertex  3.493896e+002 -9.528888e+002  1.122894e+002
      vertex  3.889909e+002 -9.982236e+002  1.994624e+002
    endloop
  endfacet
  facet normal  7.899264e-002  8.986626e-001  4.314691e-001
    outer loop
      vertex  3.889909e+002 -9.982236e+002  1.994624e+002
      vertex  3.493896e+002 -9.528888e+002  1.122894e+002
      vertex  3.263404e+002 -9.512584e+002  1.131133e+002
    endloop
  endfacet
  facet normal  4.416833e-002  8.907142e-001  4.524129e-001
    outer loop
      vertex  3.889909e+002 -9.982236e+002  1.994624e+002
      vertex  3.263404e+002 -9.512584e+002  1.131133e+002
      vertex  3.803288e+002 -9.978818e+002  1.996351e+002
    endloop
  endfacet
  facet normal  5.905671e-002  8.937116e-001  4.447379e-001
    outer loop
      vertex  3.803288e+002 -9.978818e+002  1.996351e+002
      vertex  3.263404e+002 -9.512584e+002  1.131133e+002
      vertex  3.145290e+002 -9.506347e+002  1.134285e+002
    endloop
  endfacet
  facet normal  2.418000e-002  8.843377e-001  4.662212e-001
    outer loop
      vertex  3.803288e+002 -9.978818e+002  1.996351e+002
      vertex  3.145290e+002 -9.506347e+002  1.134285e+002
      vertex  3.758931e+002 -9.977860e+002  1.996835e+002
    endloop
  endfacet
  facet normal -7.068979e-001 -3.003891e-001  6.403606e-001
    outer loop
      vertex  2.556403e+002 -9.556863e+002  1.108757e+002
      vertex  3.538974e+002 -1.000367e+003  1.983792e+002
      vertex  2.556411e+002 -9.556605e+002  1.108887e+002
    endloop
  endfacet
  facet normal -7.071404e-001 -3.230427e-001  6.289641e-001
    outer loop
      vertex  2.556411e+002 -9.556605e+002  1.108887e+002
      vertex  3.538974e+002 -1.000367e+003  1.983792e+002
      vertex  3.538973e+002 -1.000357e+003  1.983841e+002
    endloop
  endfacet
  facet normal -1.680754e-002 -8.577375e-001 -5.138130e-001
    outer loop
      vertex  2.629231e+002 -9.542026e+002  1.040460e+002
      vertex  2.680245e+002 -9.551389e+002  1.054421e+002
      vertex  2.635688e+002 -9.563991e+002  1.076917e+002
    endloop
  endfacet
  facet normal -7.304543e-002 -9.042785e-001 -4.206480e-001
    outer loop
      vertex  2.639796e+002 -9.574895e+002  1.099644e+002
      vertex  2.581900e+002 -9.560486e+002  1.078723e+002
      vertex  2.635688e+002 -9.563991e+002  1.076917e+002
    endloop
  endfacet
  facet normal  2.755143e-003 -8.258371e-001 -5.639019e-001
    outer loop
      vertex  2.680245e+002 -9.551389e+002  1.054421e+002
      vertex  2.629231e+002 -9.542026e+002  1.040460e+002
      vertex  2.667932e+002 -9.541930e+002  1.040509e+002
    endloop
  endfacet
  facet normal -3.571708e-002 -8.587828e-001 -5.110934e-001
    outer loop
      vertex  2.556018e+002 -9.539689e+002  1.041651e+002
      vertex  2.629231e+002 -9.542026e+002  1.040460e+002
      vertex  2.635688e+002 -9.563991e+002  1.076917e+002
    endloop
  endfacet
  facet normal -7.310189e-002 -8.907164e-001 -4.486426e-001
    outer loop
      vertex  2.581900e+002 -9.560486e+002  1.078723e+002
      vertex  2.556018e+002 -9.539689e+002  1.041651e+002
      vertex  2.635688e+002 -9.563991e+002  1.076917e+002
    endloop
  endfacet
  facet normal -1.253522e-001 -9.000382e-001 -4.173945e-001
    outer loop
      vertex  2.519420e+002 -9.535566e+002  1.043751e+002
      vertex  2.556018e+002 -9.539689e+002  1.041651e+002
      vertex  2.581900e+002 -9.560486e+002  1.078723e+002
    endloop
  endfacet
  facet normal -1.813607e-001 -9.246472e-001 -3.348668e-001
    outer loop
      vertex  2.549508e+002 -9.555132e+002  1.081482e+002
      vertex  2.519420e+002 -9.535566e+002  1.043751e+002
      vertex  2.581900e+002 -9.560486e+002  1.078723e+002
    endloop
  endfacet
  facet normal -2.612469e-001 -9.261707e-001 -2.719520e-001
    outer loop
      vertex  2.498614e+002 -9.530461e+002  1.046353e+002
      vertex  2.519420e+002 -9.535566e+002  1.043751e+002
      vertex  2.549508e+002 -9.555132e+002  1.081482e+002
    endloop
  endfacet
  facet normal -3.311519e-001 -9.278014e-001 -1.718226e-001
    outer loop
      vertex  2.538353e+002 -9.551498e+002  1.083356e+002
      vertex  2.498614e+002 -9.530461e+002  1.046353e+002
      vertex  2.549508e+002 -9.555132e+002  1.081482e+002
    endloop
  endfacet
  facet normal -4.215164e-002 -9.037507e-001 -4.259789e-001
    outer loop
      vertex  2.639796e+002 -9.574895e+002  1.099644e+002
      vertex  2.635688e+002 -9.563991e+002  1.076917e+002
      vertex  2.677388e+002 -9.576311e+002  1.098928e+002
    endloop
  endfacet
  facet normal  1.161534e-004 -8.725219e-001 -4.885751e-001
    outer loop
      vertex  2.677388e+002 -9.576311e+002  1.098928e+002
      vertex  2.635688e+002 -9.563991e+002  1.076917e+002
      vertex  2.680245e+002 -9.551389e+002  1.054421e+002
    endloop
  endfacet
  facet normal -1.179320e-002 -8.721352e-001 -4.891230e-001
    outer loop
      vertex  2.677388e+002 -9.576311e+002  1.098928e+002
      vertex  2.680245e+002 -9.551389e+002  1.054421e+002
      vertex  2.722100e+002 -9.576782e+002  1.098690e+002
    endloop
  endfacet
  facet normal -5.446373e-001 -8.188218e-001  1.813868e-001
    outer loop
      vertex  2.559601e+002 -9.561318e+002  1.106505e+002
      vertex  2.558147e+002 -9.560229e+002  1.107055e+002
      vertex  2.533833e+002 -9.549025e+002  1.084630e+002
    endloop
  endfacet
  facet normal -6.281164e-001 -7.053339e-001  3.285939e-001
    outer loop
      vertex  2.533833e+002 -9.549025e+002  1.084630e+002
      vertex  2.558147e+002 -9.560229e+002  1.107055e+002
      vertex  2.556980e+002 -9.558871e+002  1.107742e+002
    endloop
  endfacet
  facet normal -6.049036e-001 -7.416654e-001  2.898692e-001
    outer loop
      vertex  2.533833e+002 -9.549025e+002  1.084630e+002
      vertex  2.556980e+002 -9.558871e+002  1.107742e+002
      vertex  2.531917e+002 -9.547068e+002  1.085638e+002
    endloop
  endfacet
  facet normal -6.975281e-001 -4.727094e-001  5.385168e-001
    outer loop
      vertex  2.531917e+002 -9.547068e+002  1.085638e+002
      vertex  2.556980e+002 -9.558871e+002  1.107742e+002
      vertex  2.556403e+002 -9.556863e+002  1.108757e+002
    endloop
  endfacet
  facet normal -7.021617e-001 -4.467474e-001  5.544239e-001
    outer loop
      vertex  2.531917e+002 -9.547068e+002  1.085638e+002
      vertex  2.556403e+002 -9.556863e+002  1.108757e+002
      vertex  2.488561e+002 -9.522894e+002  1.050208e+002
    endloop
  endfacet
  facet normal -9.875596e-002 -9.259757e-001 -3.644398e-001
    outer loop
      vertex  2.639796e+002 -9.574895e+002  1.099644e+002
      vertex  2.596906e+002 -9.571080e+002  1.101572e+002
      vertex  2.581900e+002 -9.560486e+002  1.078723e+002
    endloop
  endfacet
  facet normal -2.021653e-001 -9.324273e-001 -2.995141e-001
    outer loop
      vertex  2.581900e+002 -9.560486e+002  1.078723e+002
      vertex  2.596906e+002 -9.571080e+002  1.101572e+002
      vertex  2.574182e+002 -9.566841e+002  1.103714e+002
    endloop
  endfacet
  facet normal -1.802063e-001 -9.385713e-001 -2.942953e-001
    outer loop
      vertex  2.581900e+002 -9.560486e+002  1.078723e+002
      vertex  2.574182e+002 -9.566841e+002  1.103714e+002
      vertex  2.549508e+002 -9.555132e+002  1.081482e+002
    endloop
  endfacet
  facet normal -3.296778e-001 -9.355386e-001 -1.268067e-001
    outer loop
      vertex  2.549508e+002 -9.555132e+002  1.081482e+002
      vertex  2.574182e+002 -9.566841e+002  1.103714e+002
      vertex  2.563269e+002 -9.563242e+002  1.105533e+002
    endloop
  endfacet
  facet normal -3.266973e-001 -9.363152e-001 -1.287738e-001
    outer loop
      vertex  2.549508e+002 -9.555132e+002  1.081482e+002
      vertex  2.563269e+002 -9.563242e+002  1.105533e+002
      vertex  2.538353e+002 -9.551498e+002  1.083356e+002
    endloop
  endfacet
  facet normal -4.554407e-001 -8.893333e-001  4.074322e-002
    outer loop
      vertex  2.538353e+002 -9.551498e+002  1.083356e+002
      vertex  2.563269e+002 -9.563242e+002  1.105533e+002
      vertex  2.559601e+002 -9.561318e+002  1.106505e+002
    endloop
  endfacet
  facet normal -4.673307e-001 -8.823950e-001  5.459997e-002
    outer loop
      vertex  2.538353e+002 -9.551498e+002  1.083356e+002
      vertex  2.559601e+002 -9.561318e+002  1.106505e+002
      vertex  2.533833e+002 -9.549025e+002  1.084630e+002
    endloop
  endfacet
  facet normal -6.939055e-001 -5.298030e-001  4.876514e-001
    outer loop
      vertex  2.488561e+002 -9.522894e+002  1.050208e+002
      vertex  2.489498e+002 -9.525206e+002  1.049030e+002
      vertex  2.531917e+002 -9.547068e+002  1.085638e+002
    endloop
  endfacet
  facet normal -5.913255e-001 -7.752066e-001  2.222357e-001
    outer loop
      vertex  2.531917e+002 -9.547068e+002  1.085638e+002
      vertex  2.489498e+002 -9.525206e+002  1.049030e+002
      vertex  2.491736e+002 -9.527205e+002  1.048012e+002
    endloop
  endfacet
  facet normal -6.162391e-001 -7.409447e-001  2.669274e-001
    outer loop
      vertex  2.531917e+002 -9.547068e+002  1.085638e+002
      vertex  2.491736e+002 -9.527205e+002  1.048012e+002
      vertex  2.533833e+002 -9.549025e+002  1.084630e+002
    endloop
  endfacet
  facet normal -4.347973e-001 -8.997955e-001 -3.632476e-002
    outer loop
      vertex  2.533833e+002 -9.549025e+002  1.084630e+002
      vertex  2.491736e+002 -9.527205e+002  1.048012e+002
      vertex  2.498614e+002 -9.530461e+002  1.046353e+002
    endloop
  endfacet
  facet normal -4.771153e-001 -8.787472e-001  1.282030e-002
    outer loop
      vertex  2.533833e+002 -9.549025e+002  1.084630e+002
      vertex  2.498614e+002 -9.530461e+002  1.046353e+002
      vertex  2.538353e+002 -9.551498e+002  1.083356e+002
    endloop
  endfacet
  facet normal  5.249997e-002 -8.824820e-001 -4.674070e-001
    outer loop
      vertex  3.805624e+002 -9.995687e+002  1.987826e+002
      vertex  3.407115e+002 -9.554443e+002  1.109980e+002
      vertex  3.909905e+002 -9.990793e+002  1.990299e+002
    endloop
  endfacet
  facet normal  2.648110e-002 -8.882917e-001 -4.585156e-001
    outer loop
      vertex  3.267870e+002 -9.557735e+002  1.108316e+002
      vertex  3.407115e+002 -9.554443e+002  1.109980e+002
      vertex  3.805624e+002 -9.995687e+002  1.987826e+002
    endloop
  endfacet
  facet normal  3.889436e-002 -8.847910e-001 -4.643621e-001
    outer loop
      vertex  3.174658e+002 -9.560974e+002  1.106679e+002
      vertex  3.267870e+002 -9.557735e+002  1.108316e+002
      vertex  3.805624e+002 -9.995687e+002  1.987826e+002
    endloop
  endfacet
  facet normal  8.764830e-003 -8.939374e-001 -4.481060e-001
    outer loop
      vertex  3.407115e+002 -9.554443e+002  1.109980e+002
      vertex  3.546293e+002 -9.553354e+002  1.110530e+002
      vertex  3.909905e+002 -9.990793e+002  1.990299e+002
    endloop
  endfacet
  facet normal -1.370622e-002 -8.975835e-001 -4.406315e-001
    outer loop
      vertex  3.909905e+002 -9.990793e+002  1.990299e+002
      vertex  3.546293e+002 -9.553354e+002  1.110530e+002
      vertex  3.745482e+002 -9.555791e+002  1.109298e+002
    endloop
  endfacet
  facet normal  2.119985e-002 -8.948767e-001 -4.458096e-001
    outer loop
      vertex  3.909905e+002 -9.990793e+002  1.990299e+002
      vertex  3.745482e+002 -9.555791e+002  1.109298e+002
      vertex  3.984591e+002 -9.989379e+002  1.991013e+002
    endloop
  endfacet
  facet normal -2.983132e-002 -9.001474e-001 -4.345626e-001
    outer loop
      vertex  3.984591e+002 -9.989379e+002  1.991013e+002
      vertex  3.745482e+002 -9.555791e+002  1.109298e+002
      vertex  3.812428e+002 -9.557574e+002  1.108397e+002
    endloop
  endfacet
  facet normal  5.063273e-003 -8.978608e-001 -4.402505e-001
    outer loop
      vertex  3.984591e+002 -9.989379e+002  1.991013e+002
      vertex  3.812428e+002 -9.557574e+002  1.108397e+002
      vertex  4.009707e+002 -9.989266e+002  1.991071e+002
    endloop
  endfacet
  facet normal  3.507939e-002 -8.841980e-001 -4.657933e-001
    outer loop
      vertex  2.810877e+002 -9.575505e+002  1.099336e+002
      vertex  2.870036e+002 -9.573651e+002  1.100273e+002
      vertex  3.634617e+002 -1.000768e+003  1.981763e+002
    endloop
  endfacet
  facet normal  4.541750e-002 -8.800442e-001 -4.727150e-001
    outer loop
      vertex  3.634617e+002 -1.000768e+003  1.981763e+002
      vertex  2.870036e+002 -9.573651e+002  1.100273e+002
      vertex  2.988302e+002 -9.568851e+002  1.102699e+002
    endloop
  endfacet
  facet normal  7.674450e-002 -8.683801e-001 -4.899247e-001
    outer loop
      vertex  3.634617e+002 -1.000768e+003  1.981763e+002
      vertex  2.988302e+002 -9.568851e+002  1.102699e+002
      vertex  3.701013e+002 -1.000312e+003  1.984071e+002
    endloop
  endfacet
  facet normal  4.729335e-002 -8.803303e-001 -4.719976e-001
    outer loop
      vertex  3.701013e+002 -1.000312e+003  1.984071e+002
      vertex  2.988302e+002 -9.568851e+002  1.102699e+002
      vertex  3.174658e+002 -9.560974e+002  1.106679e+002
    endloop
  endfacet
  facet normal  7.927731e-002 -8.702867e-001 -4.861237e-001
    outer loop
      vertex  3.701013e+002 -1.000312e+003  1.984071e+002
      vertex  3.174658e+002 -9.560974e+002  1.106679e+002
      vertex  3.805624e+002 -9.995687e+002  1.987826e+002
    endloop
  endfacet
  facet normal  1.612025e-002 -8.913967e-001 -4.529372e-001
    outer loop
      vertex  2.722100e+002 -9.576782e+002  1.098690e+002
      vertex  2.810877e+002 -9.575505e+002  1.099336e+002
      vertex  3.601364e+002 -1.000920e+003  1.980997e+002
    endloop
  endfacet
  facet normal  5.097438e-002 -8.772892e-001 -4.772475e-001
    outer loop
      vertex  3.601364e+002 -1.000920e+003  1.980997e+002
      vertex  2.810877e+002 -9.575505e+002  1.099336e+002
      vertex  3.634617e+002 -1.000768e+003  1.981763e+002
    endloop
  endfacet
  facet normal  5.182783e-003 -4.513340e-001  8.923400e-001
    outer loop
      vertex  4.010021e+002 -9.989084e+002  1.991163e+002
      vertex  4.010004e+002 -9.989022e+002  1.991194e+002
      vertex  4.010004e+002 -9.989154e+002  1.991127e+002
    endloop
  endfacet
  facet normal -7.210029e-003 -4.513284e-001  8.923289e-001
    outer loop
      vertex  4.010004e+002 -9.989154e+002  1.991127e+002
      vertex  4.010004e+002 -9.989022e+002  1.991194e+002
      vertex  4.009972e+002 -9.988977e+002  1.991217e+002
    endloop
  endfacet
  facet normal -6.900206e-004 -4.503902e-001  8.928315e-001
    outer loop
      vertex  4.010004e+002 -9.989154e+002  1.991127e+002
      vertex  4.009972e+002 -9.988977e+002  1.991217e+002
      vertex  4.009947e+002 -9.989213e+002  1.991098e+002
    endloop
  endfacet
  facet normal  1.694516e-003 -4.505916e-001  8.927286e-001
    outer loop
      vertex  4.009972e+002 -9.988977e+002  1.991217e+002
      vertex  4.009842e+002 -9.988900e+002  1.991256e+002
      vertex  4.009947e+002 -9.989213e+002  1.991098e+002
    endloop
  endfacet
  facet normal  1.882586e-005 -4.510394e-001  8.925040e-001
    outer loop
      vertex  4.009842e+002 -9.988900e+002  1.991256e+002
      vertex  4.009886e+002 -9.989241e+002  1.991083e+002
      vertex  4.009947e+002 -9.989213e+002  1.991098e+002
    endloop
  endfacet
  facet normal -2.675562e-003 -4.517086e-001  8.921615e-001
    outer loop
      vertex  3.538973e+002 -1.000357e+003  1.983841e+002
      vertex  3.538974e+002 -1.000367e+003  1.983792e+002
      vertex  3.539220e+002 -1.000442e+003  1.983415e+002
    endloop
  endfacet
  facet normal -2.943604e-004 -4.511555e-001  8.924453e-001
    outer loop
      vertex  3.538973e+002 -1.000357e+003  1.983841e+002
      vertex  3.539220e+002 -1.000442e+003  1.983415e+002
      vertex  3.539096e+002 -1.000297e+003  1.984144e+002
    endloop
  endfacet
  facet normal  6.786951e-002 -4.612357e-001  8.846781e-001
    outer loop
      vertex  3.538973e+002 -1.000357e+003  1.983841e+002
      vertex  3.539096e+002 -1.000297e+003  1.984144e+002
      vertex  3.538974e+002 -1.000356e+003  1.983849e+002
    endloop
  endfacet
  facet normal -8.541838e-004 -4.511282e-001  8.924587e-001
    outer loop
      vertex  4.009886e+002 -9.989241e+002  1.991083e+002
      vertex  4.009842e+002 -9.988900e+002  1.991256e+002
      vertex  4.009707e+002 -9.989266e+002  1.991071e+002
    endloop
  endfacet
  facet normal  7.407210e-004 -4.515978e-001  8.922212e-001
    outer loop
      vertex  4.009707e+002 -9.989266e+002  1.991071e+002
      vertex  4.009842e+002 -9.988900e+002  1.991256e+002
      vertex  4.009682e+002 -9.988872e+002  1.991270e+002
    endloop
  endfacet
  facet normal  3.327041e-006 -4.516344e-001  8.922031e-001
    outer loop
      vertex  4.009707e+002 -9.989266e+002  1.991071e+002
      vertex  4.009682e+002 -9.988872e+002  1.991270e+002
      vertex  3.984591e+002 -9.989379e+002  1.991013e+002
    endloop
  endfacet
  facet normal -1.008691e-005 -4.511060e-001  8.924704e-001
    outer loop
      vertex  3.984591e+002 -9.989379e+002  1.991013e+002
      vertex  4.009682e+002 -9.988872e+002  1.991270e+002
      vertex  3.962243e+002 -9.986034e+002  1.992704e+002
    endloop
  endfacet
  facet normal  3.012470e-006 -4.510364e-001  8.925056e-001
    outer loop
      vertex  3.984591e+002 -9.989379e+002  1.991013e+002
      vertex  3.962243e+002 -9.986034e+002  1.992704e+002
      vertex  3.909905e+002 -9.990793e+002  1.990299e+002
    endloop
  endfacet
  facet normal  1.802578e-006 -4.510258e-001  8.925109e-001
    outer loop
      vertex  3.909905e+002 -9.990793e+002  1.990299e+002
      vertex  3.962243e+002 -9.986034e+002  1.992704e+002
      vertex  3.889909e+002 -9.982236e+002  1.994624e+002
    endloop
  endfacet
  facet normal -1.681560e-006 -4.510322e-001  8.925076e-001
    outer loop
      vertex  3.909905e+002 -9.990793e+002  1.990299e+002
      vertex  3.889909e+002 -9.982236e+002  1.994624e+002
      vertex  3.805624e+002 -9.995687e+002  1.987826e+002
    endloop
  endfacet
  facet normal -2.489257e-007 -4.510394e-001  8.925040e-001
    outer loop
      vertex  3.805624e+002 -9.995687e+002  1.987826e+002
      vertex  3.889909e+002 -9.982236e+002  1.994624e+002
      vertex  3.803288e+002 -9.978818e+002  1.996351e+002
    endloop
  endfacet
  facet normal  1.612011e-006 -4.510392e-001  8.925041e-001
    outer loop
      vertex  3.805624e+002 -9.995687e+002  1.987826e+002
      vertex  3.803288e+002 -9.978818e+002  1.996351e+002
      vertex  3.701013e+002 -1.000312e+003  1.984071e+002
    endloop
  endfacet
  facet normal  1.085808e-006 -4.510375e-001  8.925050e-001
    outer loop
      vertex  3.701013e+002 -1.000312e+003  1.984071e+002
      vertex  3.803288e+002 -9.978818e+002  1.996351e+002
      vertex  3.758931e+002 -9.977860e+002  1.996835e+002
    endloop
  endfacet
  facet normal -1.707544e-006 -4.510324e-001  8.925076e-001
    outer loop
      vertex  3.701013e+002 -1.000312e+003  1.984071e+002
      vertex  3.758931e+002 -9.977860e+002  1.996835e+002
      vertex  3.675468e+002 -9.978400e+002  1.996562e+002
    endloop
  endfacet
  facet normal  3.026357e-007 -4.510307e-001  8.925084e-001
    outer loop
      vertex  3.701013e+002 -1.000312e+003  1.984071e+002
      vertex  3.675468e+002 -9.978400e+002  1.996562e+002
      vertex  3.634617e+002 -1.000768e+003  1.981763e+002
    endloop
  endfacet
  facet normal -2.501776e-006 -4.510276e-001  8.925099e-001
    outer loop
      vertex  3.634617e+002 -1.000768e+003  1.981763e+002
      vertex  3.675468e+002 -9.978400e+002  1.996562e+002
      vertex  3.641974e+002 -9.979924e+002  1.995792e+002
    endloop
  endfacet
  facet normal  5.133330e-007 -4.510283e-001  8.925096e-001
    outer loop
      vertex  3.634617e+002 -1.000768e+003  1.981763e+002
      vertex  3.641974e+002 -9.979924e+002  1.995792e+002
      vertex  3.601364e+002 -1.000920e+003  1.980997e+002
    endloop
  endfacet
  facet normal  5.718640e-006 -4.510340e-001  8.925068e-001
    outer loop
      vertex  3.601364e+002 -1.000920e+003  1.980997e+002
      vertex  3.641974e+002 -9.979924e+002  1.995792e+002
      vertex  3.603773e+002 -9.983274e+002  1.994099e+002
    endloop
  endfacet
  facet normal  1.226377e-006 -4.510337e-001  8.925069e-001
    outer loop
      vertex  3.601364e+002 -1.000920e+003  1.980997e+002
      vertex  3.603773e+002 -9.983274e+002  1.994099e+002
      vertex  3.584601e+002 -1.000955e+003  1.980822e+002
    endloop
  endfacet
  facet normal -8.987070e-006 -4.510278e-001  8.925099e-001
    outer loop
      vertex  3.584601e+002 -1.000955e+003  1.980822e+002
      vertex  3.603773e+002 -9.983274e+002  1.994099e+002
      vertex  3.585168e+002 -9.985921e+002  1.992761e+002
    endloop
  endfacet
  facet normal  7.252006e-006 -4.510281e-001  8.925098e-001
    outer loop
      vertex  3.584601e+002 -1.000955e+003  1.980822e+002
      vertex  3.585168e+002 -9.985921e+002  1.992761e+002
      vertex  3.561138e+002 -1.000907e+003  1.981064e+002
    endloop
  endfacet
  facet normal -8.097240e-006 -4.510154e-001  8.925162e-001
    outer loop
      vertex  3.561138e+002 -1.000907e+003  1.981064e+002
      vertex  3.585168e+002 -9.985921e+002  1.992761e+002
      vertex  3.561665e+002 -9.991063e+002  1.990163e+002
    endloop
  endfacet
  facet normal -1.043048e-005 -4.510153e-001  8.925161e-001
    outer loop
      vertex  3.561138e+002 -1.000907e+003  1.981064e+002
      vertex  3.561665e+002 -9.991063e+002  1.990163e+002
      vertex  3.545783e+002 -1.000720e+003  1.982007e+002
    endloop
  endfacet
  facet normal  1.338249e-006 -4.510246e-001  8.925115e-001
    outer loop
      vertex  3.545783e+002 -1.000720e+003  1.982007e+002
      vertex  3.561665e+002 -9.991063e+002  1.990163e+002
      vertex  3.547820e+002 -9.996121e+002  1.987607e+002
    endloop
  endfacet
  facet normal  3.858176e-005 -4.510300e-001  8.925087e-001
    outer loop
      vertex  3.545783e+002 -1.000720e+003  1.982007e+002
      vertex  3.547820e+002 -9.996121e+002  1.987607e+002
      vertex  3.541640e+002 -1.000598e+003  1.982624e+002
    endloop
  endfacet
  facet normal  1.683758e-005 -4.510192e-001  8.925142e-001
    outer loop
      vertex  3.541640e+002 -1.000598e+003  1.982624e+002
      vertex  3.547820e+002 -9.996121e+002  1.987607e+002
      vertex  3.542086e+002 -9.999545e+002  1.985877e+002
    endloop
  endfacet
  facet normal -1.602021e-004 -4.510095e-001  8.925192e-001
    outer loop
      vertex  3.541640e+002 -1.000598e+003  1.982624e+002
      vertex  3.542086e+002 -9.999545e+002  1.985877e+002
      vertex  3.540237e+002 -1.000530e+003  1.982967e+002
    endloop
  endfacet
  facet normal  4.062023e-005 -4.510609e-001  8.924933e-001
    outer loop
      vertex  3.540237e+002 -1.000530e+003  1.982967e+002
      vertex  3.542086e+002 -9.999545e+002  1.985877e+002
      vertex  3.539685e+002 -1.000191e+003  1.984680e+002
    endloop
  endfacet
  facet normal  4.123126e-005 -4.510607e-001  8.924932e-001
    outer loop
      vertex  3.540237e+002 -1.000530e+003  1.982967e+002
      vertex  3.539685e+002 -1.000191e+003  1.984680e+002
      vertex  3.539677e+002 -1.000491e+003  1.983164e+002
    endloop
  endfacet
  facet normal  2.422010e-004 -4.511190e-001  8.924638e-001
    outer loop
      vertex  3.539096e+002 -1.000297e+003  1.984144e+002
      vertex  3.539220e+002 -1.000442e+003  1.983415e+002
      vertex  3.539685e+002 -1.000191e+003  1.984680e+002
    endloop
  endfacet
  facet normal -1.543642e-004 -4.510603e-001  8.924934e-001
    outer loop
      vertex  3.539685e+002 -1.000191e+003  1.984680e+002
      vertex  3.539220e+002 -1.000442e+003  1.983415e+002
      vertex  3.539677e+002 -1.000491e+003  1.983164e+002
    endloop
  endfacet
  facet normal -1.336299e-001 -9.377730e-001 -3.205070e-001
    outer loop
      vertex  2.596906e+002 -9.571080e+002  1.101572e+002
      vertex  3.561138e+002 -1.000907e+003  1.981064e+002
      vertex  3.545783e+002 -1.000720e+003  1.982007e+002
    endloop
  endfacet
  facet normal -9.865625e-002 -9.297092e-001 -3.548347e-001
    outer loop
      vertex  2.596906e+002 -9.571080e+002  1.101572e+002
      vertex  2.639796e+002 -9.574895e+002  1.099644e+002
      vertex  3.561138e+002 -1.000907e+003  1.981064e+002
    endloop
  endfacet
  facet normal -4.211532e-002 -9.130270e-001 -4.057191e-001
    outer loop
      vertex  3.561138e+002 -1.000907e+003  1.981064e+002
      vertex  2.639796e+002 -9.574895e+002  1.099644e+002
      vertex  2.677388e+002 -9.576311e+002  1.098928e+002
    endloop
  endfacet
  facet normal -2.280745e-002 -9.063973e-001 -4.218099e-001
    outer loop
      vertex  3.561138e+002 -1.000907e+003  1.981064e+002
      vertex  2.677388e+002 -9.576311e+002  1.098928e+002
      vertex  3.584601e+002 -1.000955e+003  1.980822e+002
    endloop
  endfacet
  facet normal -1.180169e-002 -9.022335e-001 -4.310863e-001
    outer loop
      vertex  3.584601e+002 -1.000955e+003  1.980822e+002
      vertex  2.677388e+002 -9.576311e+002  1.098928e+002
      vertex  2.722100e+002 -9.576782e+002  1.098690e+002
    endloop
  endfacet
  facet normal  2.312301e-002 -8.884161e-001 -4.584562e-001
    outer loop
      vertex  3.584601e+002 -1.000955e+003  1.980822e+002
      vertex  2.722100e+002 -9.576782e+002  1.098690e+002
      vertex  3.601364e+002 -1.000920e+003  1.980997e+002
    endloop
  endfacet
  facet normal -2.003972e-001 -9.465164e-001 -2.528787e-001
    outer loop
      vertex  2.596906e+002 -9.571080e+002  1.101572e+002
      vertex  3.545783e+002 -1.000720e+003  1.982007e+002
      vertex  2.574182e+002 -9.566841e+002  1.103714e+002
    endloop
  endfacet
  facet normal -2.992959e-001 -9.435387e-001 -1.419743e-001
    outer loop
      vertex  2.574182e+002 -9.566841e+002  1.103714e+002
      vertex  3.545783e+002 -1.000720e+003  1.982007e+002
      vertex  3.541640e+002 -1.000598e+003  1.982624e+002
    endloop
  endfacet
  facet normal -3.276039e-001 -9.385823e-001 -1.083461e-001
    outer loop
      vertex  2.574182e+002 -9.566841e+002  1.103714e+002
      vertex  3.541640e+002 -1.000598e+003  1.982624e+002
      vertex  2.563269e+002 -9.563242e+002  1.105533e+002
    endloop
  endfacet
  facet normal -4.302264e-001 -9.023919e-001  2.437527e-002
    outer loop
      vertex  2.563269e+002 -9.563242e+002  1.105533e+002
      vertex  3.541640e+002 -1.000598e+003  1.982624e+002
      vertex  3.540237e+002 -1.000530e+003  1.982967e+002
    endloop
  endfacet
  facet normal -4.521567e-001 -8.902450e-001  5.493897e-002
    outer loop
      vertex  2.563269e+002 -9.563242e+002  1.105533e+002
      vertex  3.540237e+002 -1.000530e+003  1.982967e+002
      vertex  2.559601e+002 -9.561318e+002  1.106505e+002
    endloop
  endfacet
  facet normal -5.247875e-001 -8.352813e-001  1.640221e-001
    outer loop
      vertex  2.559601e+002 -9.561318e+002  1.106505e+002
      vertex  3.540237e+002 -1.000530e+003  1.982967e+002
      vertex  3.539677e+002 -1.000491e+003  1.983164e+002
    endloop
  endfacet
  facet normal -5.412399e-001 -8.189641e-001  1.906757e-001
    outer loop
      vertex  2.559601e+002 -9.561318e+002  1.106505e+002
      vertex  3.539677e+002 -1.000491e+003  1.983164e+002
      vertex  2.558147e+002 -9.560229e+002  1.107055e+002
    endloop
  endfacet
  facet normal -6.117881e-001 -7.244211e-001  3.176939e-001
    outer loop
      vertex  2.558147e+002 -9.560229e+002  1.107055e+002
      vertex  3.539677e+002 -1.000491e+003  1.983164e+002
      vertex  3.539220e+002 -1.000442e+003  1.983415e+002
    endloop
  endfacet
  facet normal -6.222738e-001 -7.055802e-001  3.390158e-001
    outer loop
      vertex  2.558147e+002 -9.560229e+002  1.107055e+002
      vertex  3.539220e+002 -1.000442e+003  1.983415e+002
      vertex  2.556980e+002 -9.558871e+002  1.107742e+002
    endloop
  endfacet
  facet normal -6.926218e-001 -4.939737e-001  5.256091e-001
    outer loop
      vertex  2.556980e+002 -9.558871e+002  1.107742e+002
      vertex  3.539220e+002 -1.000442e+003  1.983415e+002
      vertex  3.538974e+002 -1.000367e+003  1.983792e+002
    endloop
  endfacet
  facet normal -6.960775e-001 -4.730771e-001  5.400687e-001
    outer loop
      vertex  2.556980e+002 -9.558871e+002  1.107742e+002
      vertex  3.538974e+002 -1.000367e+003  1.983792e+002
      vertex  2.556403e+002 -9.556863e+002  1.108757e+002
    endloop
  endfacet
endsolid CATIA STL
