solid CATIA STL
  facet normal  8.943262e-001  1.337497e-001 -4.269562e-001
    outer loop
      vertex  3.813284e+002 -1.000029e+003  1.198963e+002
      vertex  3.813264e+002 -1.000015e+003  1.198963e+002
      vertex  4.527521e+002 -9.987770e+002  2.698963e+002
    endloop
  endfacet
  facet normal  8.815348e-001  2.126509e-001 -4.215164e-001
    outer loop
      vertex  3.813264e+002 -1.000015e+003  1.198963e+002
      vertex  4.527504e+002 -9.987700e+002  2.698963e+002
      vertex  4.527521e+002 -9.987770e+002  2.698963e+002
    endloop
  endfacet
  facet normal  7.809786e-001  4.986972e-001 -3.759968e-001
    outer loop
      vertex  4.527472e+002 -9.987650e+002  2.698963e+002
      vertex  4.527504e+002 -9.987700e+002  2.698963e+002
      vertex  3.813203e+002 -1.000002e+003  1.198963e+002
    endloop
  endfacet
  facet normal  8.337182e-001  3.805273e-001 -4.001412e-001
    outer loop
      vertex  4.527504e+002 -9.987700e+002  2.698963e+002
      vertex  3.813264e+002 -1.000015e+003  1.198963e+002
      vertex  3.813203e+002 -1.000002e+003  1.198963e+002
    endloop
  endfacet
  facet normal  6.372750e-001  7.058535e-001 -3.092757e-001
    outer loop
      vertex  3.812927e+002 -9.999766e+002  1.198963e+002
      vertex  4.527472e+002 -9.987650e+002  2.698963e+002
      vertex  3.813203e+002 -1.000002e+003  1.198963e+002
    endloop
  endfacet
  facet normal  5.337932e-001  8.043998e-001 -2.607794e-001
    outer loop
      vertex  4.527472e+002 -9.987650e+002  2.698963e+002
      vertex  3.812927e+002 -9.999766e+002  1.198963e+002
      vertex  4.527342e+002 -9.987563e+002  2.698963e+002
    endloop
  endfacet
  facet normal  2.686540e-001  9.536286e-001 -1.357111e-001
    outer loop
      vertex  4.527342e+002 -9.987563e+002  2.698963e+002
      vertex  3.812927e+002 -9.999766e+002  1.198963e+002
      vertex  3.812404e+002 -9.999619e+002  1.198963e+002
    endloop
  endfacet
  facet normal  1.940924e-001  9.758369e-001 -1.003526e-001
    outer loop
      vertex  4.527342e+002 -9.987563e+002  2.698963e+002
      vertex  3.812404e+002 -9.999619e+002  1.198963e+002
      vertex  4.527182e+002 -9.987532e+002  2.698963e+002
    endloop
  endfacet
  facet normal  7.086880e-001 -6.224092e-001 -3.322168e-001
    outer loop
      vertex  4.527447e+002 -9.987913e+002  2.698963e+002
      vertex  3.813232e+002 -1.000049e+003  1.198963e+002
      vertex  4.527504e+002 -9.987848e+002  2.698963e+002
    endloop
  endfacet
  facet normal  8.806400e-001 -2.240624e-001 -4.174557e-001
    outer loop
      vertex  4.527504e+002 -9.987848e+002  2.698963e+002
      vertex  3.813232e+002 -1.000049e+003  1.198963e+002
      vertex  3.813284e+002 -1.000029e+003  1.198963e+002
    endloop
  endfacet
  facet normal  8.869221e-001 -1.906883e-001 -4.207222e-001
    outer loop
      vertex  4.527504e+002 -9.987848e+002  2.698963e+002
      vertex  3.813284e+002 -1.000029e+003  1.198963e+002
      vertex  4.527521e+002 -9.987770e+002  2.698963e+002
    endloop
  endfacet
  facet normal  6.878309e-001 -6.505175e-001 -3.220493e-001
    outer loop
      vertex  3.813232e+002 -1.000049e+003  1.198963e+002
      vertex  4.527447e+002 -9.987913e+002  2.698963e+002
      vertex  3.813072e+002 -1.000066e+003  1.198963e+002
    endloop
  endfacet
  facet normal  4.576007e-001 -8.638579e-001 -2.105970e-001
    outer loop
      vertex  3.813072e+002 -1.000066e+003  1.198963e+002
      vertex  4.527447e+002 -9.987913e+002  2.698963e+002
      vertex  4.527386e+002 -9.987946e+002  2.698963e+002
    endloop
  endfacet
  facet normal  4.242734e-001 -8.843887e-001 -1.945477e-001
    outer loop
      vertex  3.813072e+002 -1.000066e+003  1.198963e+002
      vertex  4.527386e+002 -9.987946e+002  2.698963e+002
      vertex  3.812905e+002 -1.000074e+003  1.198963e+002
    endloop
  endfacet
  facet normal  1.514882e-001 -9.864016e-001 -6.374288e-002
    outer loop
      vertex  3.812905e+002 -1.000074e+003  1.198963e+002
      vertex  4.527386e+002 -9.987946e+002  2.698963e+002
      vertex  4.527207e+002 -9.987973e+002  2.698963e+002
    endloop
  endfacet
  facet normal  1.168564e-001 -9.920264e-001 -4.720302e-002
    outer loop
      vertex  3.812905e+002 -1.000074e+003  1.198963e+002
      vertex  4.527207e+002 -9.987973e+002  2.698963e+002
      vertex  3.812428e+002 -1.000080e+003  1.198963e+002
    endloop
  endfacet
  facet normal -7.062966e-001  4.538452e-002  7.064597e-001
    outer loop
      vertex  2.556411e+002 -9.999710e+002  1.198963e+002
      vertex  4.056473e+002 -1.000400e+003  2.698963e+002
      vertex  2.556415e+002 -9.999659e+002  1.198963e+002
    endloop
  endfacet
  facet normal -7.069351e-001  1.885160e-002  7.070271e-001
    outer loop
      vertex  2.556415e+002 -9.999659e+002  1.198963e+002
      vertex  4.056473e+002 -1.000400e+003  2.698963e+002
      vertex  4.056474e+002 -1.000398e+003  2.698963e+002
    endloop
  endfacet
  facet normal -2.628403e-001  9.258434e-001  2.715310e-001
    outer loop
      vertex  2.633535e+002 -9.960471e+002  1.198963e+002
      vertex  2.603808e+002 -9.968911e+002  1.198963e+002
      vertex  4.079165e+002 -9.989987e+002  2.698963e+002
    endloop
  endfacet
  facet normal -3.515849e-001  8.650149e-001  3.579630e-001
    outer loop
      vertex  4.079165e+002 -9.989987e+002  2.698963e+002
      vertex  2.603808e+002 -9.968911e+002  1.198963e+002
      vertex  2.580846e+002 -9.978243e+002  1.198963e+002
    endloop
  endfacet
  facet normal -3.534825e-001  8.634586e-001  3.598463e-001
    outer loop
      vertex  4.079165e+002 -9.989987e+002  2.698963e+002
      vertex  2.580846e+002 -9.978243e+002  1.198963e+002
      vertex  4.065320e+002 -9.995654e+002  2.698963e+002
    endloop
  endfacet
  facet normal -4.646901e-001  7.513161e-001  4.686012e-001
    outer loop
      vertex  4.065320e+002 -9.995654e+002  2.698963e+002
      vertex  2.580846e+002 -9.978243e+002  1.198963e+002
      vertex  2.565148e+002 -9.987952e+002  1.198963e+002
    endloop
  endfacet
  facet normal -4.849930e-001  7.251782e-001  4.887722e-001
    outer loop
      vertex  4.065320e+002 -9.995654e+002  2.698963e+002
      vertex  2.565148e+002 -9.987952e+002  1.198963e+002
      vertex  4.059586e+002 -9.999490e+002  2.698963e+002
    endloop
  endfacet
  facet normal -5.821212e-001  5.654333e-001  5.843115e-001
    outer loop
      vertex  4.059586e+002 -9.999490e+002  2.698963e+002
      vertex  2.565148e+002 -9.987952e+002  1.198963e+002
      vertex  2.558491e+002 -9.994806e+002  1.198963e+002
    endloop
  endfacet
  facet normal -5.949278e-001  5.381461e-001  5.970423e-001
    outer loop
      vertex  4.059586e+002 -9.999490e+002  2.698963e+002
      vertex  2.558491e+002 -9.994806e+002  1.198963e+002
      vertex  4.057185e+002 -1.000214e+003  2.698963e+002
    endloop
  endfacet
  facet normal -6.544577e-001  3.764362e-001  6.557294e-001
    outer loop
      vertex  4.057185e+002 -1.000214e+003  2.698963e+002
      vertex  2.558491e+002 -9.994806e+002  1.198963e+002
      vertex  2.557052e+002 -9.997307e+002  1.198963e+002
    endloop
  endfacet
  facet normal -6.667747e-001  3.306380e-001  6.678997e-001
    outer loop
      vertex  4.057185e+002 -1.000214e+003  2.698963e+002
      vertex  2.557052e+002 -9.997307e+002  1.198963e+002
      vertex  4.056596e+002 -1.000333e+003  2.698963e+002
    endloop
  endfacet
  facet normal -6.941972e-001  1.882126e-001  6.947418e-001
    outer loop
      vertex  4.056596e+002 -1.000333e+003  2.698963e+002
      vertex  2.557052e+002 -9.997307e+002  1.198963e+002
      vertex  2.556415e+002 -9.999659e+002  1.198963e+002
    endloop
  endfacet
  facet normal -7.007512e-001  1.316269e-001  7.011576e-001
    outer loop
      vertex  4.056596e+002 -1.000333e+003  2.698963e+002
      vertex  2.556415e+002 -9.999659e+002  1.198963e+002
      vertex  4.056474e+002 -1.000398e+003  2.698963e+002
    endloop
  endfacet
  facet normal -8.235926e-002  9.915521e-001  1.002076e-001
    outer loop
      vertex  2.770950e+002 -9.941826e+002  1.198963e+002
      vertex  2.731270e+002 -9.945122e+002  1.198963e+002
      vertex  4.121273e+002 -9.981259e+002  2.698963e+002
    endloop
  endfacet
  facet normal -1.216203e-001  9.831617e-001  1.363875e-001
    outer loop
      vertex  4.121273e+002 -9.981259e+002  2.698963e+002
      vertex  2.731270e+002 -9.945122e+002  1.198963e+002
      vertex  2.681516e+002 -9.951277e+002  1.198963e+002
    endloop
  endfacet
  facet normal -1.551998e-001  9.734200e-001  1.684236e-001
    outer loop
      vertex  4.121273e+002 -9.981259e+002  2.698963e+002
      vertex  2.681516e+002 -9.951277e+002  1.198963e+002
      vertex  4.102668e+002 -9.984225e+002  2.698963e+002
    endloop
  endfacet
  facet normal -1.845508e-001  9.630800e-001  1.960046e-001
    outer loop
      vertex  4.102668e+002 -9.984225e+002  2.698963e+002
      vertex  2.681516e+002 -9.951277e+002  1.198963e+002
      vertex  2.633535e+002 -9.960471e+002  1.198963e+002
    endloop
  endfacet
  facet normal -2.310431e-001  9.425679e-001  2.412155e-001
    outer loop
      vertex  4.102668e+002 -9.984225e+002  2.698963e+002
      vertex  2.633535e+002 -9.960471e+002  1.198963e+002
      vertex  4.079165e+002 -9.989987e+002  2.698963e+002
    endloop
  endfacet
  facet normal -9.714144e-002  9.887843e-001  1.134420e-001
    outer loop
      vertex  4.121273e+002 -9.981259e+002  2.698963e+002
      vertex  4.159474e+002 -9.977506e+002  2.698963e+002
      vertex  2.770950e+002 -9.941826e+002  1.198963e+002
    endloop
  endfacet
  facet normal -5.023312e-002  9.962674e-001  7.019776e-002
    outer loop
      vertex  2.770950e+002 -9.941826e+002  1.198963e+002
      vertex  4.159474e+002 -9.977506e+002  2.698963e+002
      vertex  2.833388e+002 -9.938678e+002  1.198963e+002
    endloop
  endfacet
  facet normal -5.077562e-002  9.962062e-001  7.067578e-002
    outer loop
      vertex  4.159474e+002 -9.977506e+002  2.698963e+002
      vertex  4.192968e+002 -9.975799e+002  2.698963e+002
      vertex  2.833388e+002 -9.938678e+002  1.198963e+002
    endloop
  endfacet
  facet normal -1.599284e-002  9.991026e-001  3.922081e-002
    outer loop
      vertex  2.833388e+002 -9.938678e+002  1.198963e+002
      vertex  4.192968e+002 -9.975799e+002  2.698963e+002
      vertex  2.922802e+002 -9.937247e+002  1.198963e+002
    endloop
  endfacet
  facet normal -7.250866e-003  9.995186e-001  3.016270e-002
    outer loop
      vertex  4.276431e+002 -9.975193e+002  2.698963e+002
      vertex  3.033874e+002 -9.938942e+002  1.198963e+002
      vertex  4.192968e+002 -9.975799e+002  2.698963e+002
    endloop
  endfacet
  facet normal  1.525690e-002  9.998019e-001  1.277721e-002
    outer loop
      vertex  3.033874e+002 -9.938942e+002  1.198963e+002
      vertex  2.922802e+002 -9.937247e+002  1.198963e+002
      vertex  4.192968e+002 -9.975799e+002  2.698963e+002
    endloop
  endfacet
  facet normal  1.019887e-001  9.931740e-001 -5.660238e-002
    outer loop
      vertex  3.812404e+002 -9.999619e+002  1.198963e+002
      vertex  3.703755e+002 -9.988461e+002  1.198963e+002
      vertex  4.527182e+002 -9.987532e+002  2.698963e+002
    endloop
  endfacet
  facet normal  3.998272e-002  9.991601e-001 -8.972952e-003
    outer loop
      vertex  3.145248e+002 -9.943398e+002  1.198963e+002
      vertex  3.033874e+002 -9.938942e+002  1.198963e+002
      vertex  4.276431e+002 -9.975193e+002  2.698963e+002
    endloop
  endfacet
  facet normal  5.903294e-002  9.979826e-001 -2.336410e-002
    outer loop
      vertex  3.263414e+002 -9.950388e+002  1.198963e+002
      vertex  3.145248e+002 -9.943398e+002  1.198963e+002
      vertex  4.276431e+002 -9.975193e+002  2.698963e+002
    endloop
  endfacet
  facet normal  3.110093e-002  9.995063e-001 -4.475174e-003
    outer loop
      vertex  4.361522e+002 -9.977841e+002  2.698963e+002
      vertex  3.263414e+002 -9.950388e+002  1.198963e+002
      vertex  4.276431e+002 -9.975193e+002  2.698963e+002
    endloop
  endfacet
  facet normal  7.841001e-002  9.961514e-001 -3.917022e-002
    outer loop
      vertex  4.361522e+002 -9.977841e+002  2.698963e+002
      vertex  3.480096e+002 -9.967444e+002  1.198963e+002
      vertex  3.263414e+002 -9.950388e+002  1.198963e+002
    endloop
  endfacet
  facet normal  6.682225e-002  9.970675e-001 -3.730009e-002
    outer loop
      vertex  4.527182e+002 -9.987532e+002  2.698963e+002
      vertex  3.703755e+002 -9.988461e+002  1.198963e+002
      vertex  4.479743e+002 -9.984352e+002  2.698963e+002
    endloop
  endfacet
  facet normal  9.343674e-002  9.943150e-001 -5.106091e-002
    outer loop
      vertex  4.479743e+002 -9.984352e+002  2.698963e+002
      vertex  3.703755e+002 -9.988461e+002  1.198963e+002
      vertex  3.480096e+002 -9.967444e+002  1.198963e+002
    endloop
  endfacet
  facet normal  5.497562e-002  9.981649e-001 -2.538581e-002
    outer loop
      vertex  4.479743e+002 -9.984352e+002  2.698963e+002
      vertex  3.480096e+002 -9.967444e+002  1.198963e+002
      vertex  4.361522e+002 -9.977841e+002  2.698963e+002
    endloop
  endfacet
  facet normal -7.069059e-001  2.095418e-002  7.069971e-001
    outer loop
      vertex  2.556403e+002 -1.000000e+003  1.198963e+002
      vertex  4.056474e+002 -1.000411e+003  2.698963e+002
      vertex  2.556411e+002 -9.999710e+002  1.198963e+002
    endloop
  endfacet
  facet normal -7.070905e-001 -4.237247e-003  7.071103e-001
    outer loop
      vertex  2.556411e+002 -9.999710e+002  1.198963e+002
      vertex  4.056474e+002 -1.000411e+003  2.698963e+002
      vertex  4.056473e+002 -1.000400e+003  2.698963e+002
    endloop
  endfacet
  facet normal  1.713963e-002 -9.998524e-001 -1.163697e-003
    outer loop
      vertex  4.427405e+002 -9.989684e+002  2.698963e+002
      vertex  3.764031e+002 -9.999310e+002  1.198963e+002
      vertex  4.527207e+002 -9.987973e+002  2.698963e+002
    endloop
  endfacet
  facet normal -3.072355e-002 -9.992590e-001  2.318382e-002
    outer loop
      vertex  3.764031e+002 -9.999310e+002  1.198963e+002
      vertex  3.812428e+002 -1.000080e+003  1.198963e+002
      vertex  4.527207e+002 -9.987973e+002  2.698963e+002
    endloop
  endfacet
  facet normal  3.119434e-002 -9.993578e-001 -1.763105e-002
    outer loop
      vertex  4.323124e+002 -9.995167e+002  2.698963e+002
      vertex  3.179263e+002 -1.000441e+003  1.198963e+002
      vertex  3.407668e+002 -9.997279e+002  1.198963e+002
    endloop
  endfacet
  facet normal -1.486763e-002 -9.998051e-001  1.299119e-002
    outer loop
      vertex  3.764031e+002 -9.999310e+002  1.198963e+002
      vertex  4.427405e+002 -9.989684e+002  2.698963e+002
      vertex  3.546086e+002 -9.996069e+002  1.198963e+002
    endloop
  endfacet
  facet normal  5.249177e-002 -9.982672e-001 -2.659214e-002
    outer loop
      vertex  3.546086e+002 -9.996069e+002  1.198963e+002
      vertex  4.427405e+002 -9.989684e+002  2.698963e+002
      vertex  4.323124e+002 -9.995167e+002  2.698963e+002
    endloop
  endfacet
  facet normal  8.743639e-003 -9.999541e-001 -3.928464e-003
    outer loop
      vertex  3.546086e+002 -9.996069e+002  1.198963e+002
      vertex  4.323124e+002 -9.995167e+002  2.698963e+002
      vertex  3.407668e+002 -9.997279e+002  1.198963e+002
    endloop
  endfacet
  facet normal  3.512029e-002 -9.991132e-001 -2.322469e-002
    outer loop
      vertex  2.811107e+002 -1.002088e+003  1.198963e+002
      vertex  2.870403e+002 -1.001880e+003  1.198963e+002
      vertex  4.152117e+002 -1.000861e+003  2.698963e+002
    endloop
  endfacet
  facet normal  4.573420e-002 -9.984313e-001 -3.229864e-002
    outer loop
      vertex  4.152117e+002 -1.000861e+003  2.698963e+002
      vertex  2.870403e+002 -1.001880e+003  1.198963e+002
      vertex  3.000759e+002 -1.001282e+003  1.198963e+002
    endloop
  endfacet
  facet normal  7.670391e-002 -9.954756e-001 -5.607845e-002
    outer loop
      vertex  4.152117e+002 -1.000861e+003  2.698963e+002
      vertex  3.000759e+002 -1.001282e+003  1.198963e+002
      vertex  4.218513e+002 -1.000349e+003  2.698963e+002
    endloop
  endfacet
  facet normal  4.707157e-002 -9.983787e-001 -3.200378e-002
    outer loop
      vertex  4.218513e+002 -1.000349e+003  2.698963e+002
      vertex  3.000759e+002 -1.001282e+003  1.198963e+002
      vertex  3.179263e+002 -1.000441e+003  1.198963e+002
    endloop
  endfacet
  facet normal  7.922596e-002 -9.953777e-001 -5.428324e-002
    outer loop
      vertex  4.218513e+002 -1.000349e+003  2.698963e+002
      vertex  3.179263e+002 -1.000441e+003  1.198963e+002
      vertex  4.323124e+002 -9.995167e+002  2.698963e+002
    endloop
  endfacet
  facet normal  1.615345e-002 -9.998448e-001 -7.036364e-003
    outer loop
      vertex  2.722100e+002 -1.002232e+003  1.198963e+002
      vertex  2.811107e+002 -1.002088e+003  1.198963e+002
      vertex  4.118864e+002 -1.001031e+003  2.698963e+002
    endloop
  endfacet
  facet normal  5.097979e-002 -9.979987e-001 -3.741232e-002
    outer loop
      vertex  4.118864e+002 -1.001031e+003  2.698963e+002
      vertex  2.811107e+002 -1.002088e+003  1.198963e+002
      vertex  4.152117e+002 -1.000861e+003  2.698963e+002
    endloop
  endfacet
  facet normal  0.000000e+000  0.000000e+000  1.000000e+000
    outer loop
      vertex  4.527521e+002 -9.987770e+002  2.698963e+002
      vertex  4.527504e+002 -9.987700e+002  2.698963e+002
      vertex  4.527504e+002 -9.987848e+002  2.698963e+002
    endloop
  endfacet
  facet normal  0.000000e+000  0.000000e+000  1.000000e+000
    outer loop
      vertex  4.527504e+002 -9.987848e+002  2.698963e+002
      vertex  4.527504e+002 -9.987700e+002  2.698963e+002
      vertex  4.527472e+002 -9.987650e+002  2.698963e+002
    endloop
  endfacet
  facet normal  0.000000e+000  0.000000e+000  1.000000e+000
    outer loop
      vertex  4.527504e+002 -9.987848e+002  2.698963e+002
      vertex  4.527472e+002 -9.987650e+002  2.698963e+002
      vertex  4.527447e+002 -9.987913e+002  2.698963e+002
    endloop
  endfacet
  facet normal  0.000000e+000  0.000000e+000  9.999999e-001
    outer loop
      vertex  4.527472e+002 -9.987650e+002  2.698963e+002
      vertex  4.527342e+002 -9.987563e+002  2.698963e+002
      vertex  4.527447e+002 -9.987913e+002  2.698963e+002
    endloop
  endfacet
  facet normal  0.000000e+000  -0.000000e+000  1.000000e+000
    outer loop
      vertex  4.527342e+002 -9.987563e+002  2.698963e+002
      vertex  4.527386e+002 -9.987946e+002  2.698963e+002
      vertex  4.527447e+002 -9.987913e+002  2.698963e+002
    endloop
  endfacet
  facet normal  -0.000000e+000  -0.000000e+000  1.000000e+000
    outer loop
      vertex  4.056473e+002 -1.000400e+003  2.698963e+002
      vertex  4.056474e+002 -1.000411e+003  2.698963e+002
      vertex  4.056720e+002 -1.000495e+003  2.698963e+002
    endloop
  endfacet
  facet normal  0.000000e+000  0.000000e+000  1.000000e+000
    outer loop
      vertex  4.056473e+002 -1.000400e+003  2.698963e+002
      vertex  4.056720e+002 -1.000495e+003  2.698963e+002
      vertex  4.056596e+002 -1.000333e+003  2.698963e+002
    endloop
  endfacet
  facet normal  0.000000e+000  0.000000e+000  9.999999e-001
    outer loop
      vertex  4.056473e+002 -1.000400e+003  2.698963e+002
      vertex  4.056596e+002 -1.000333e+003  2.698963e+002
      vertex  4.056474e+002 -1.000398e+003  2.698963e+002
    endloop
  endfacet
  facet normal  0.000000e+000  0.000000e+000  1.000000e+000
    outer loop
      vertex  4.527386e+002 -9.987946e+002  2.698963e+002
      vertex  4.527342e+002 -9.987563e+002  2.698963e+002
      vertex  4.527207e+002 -9.987973e+002  2.698963e+002
    endloop
  endfacet
  facet normal  0.000000e+000  -0.000000e+000  9.999999e-001
    outer loop
      vertex  4.527207e+002 -9.987973e+002  2.698963e+002
      vertex  4.527342e+002 -9.987563e+002  2.698963e+002
      vertex  4.527182e+002 -9.987532e+002  2.698963e+002
    endloop
  endfacet
  facet normal  0.000000e+000  0.000000e+000  1.000000e+000
    outer loop
      vertex  4.527207e+002 -9.987973e+002  2.698963e+002
      vertex  4.527182e+002 -9.987532e+002  2.698963e+002
      vertex  4.427405e+002 -9.989684e+002  2.698963e+002
    endloop
  endfacet
  facet normal  0.000000e+000  0.000000e+000  1.000000e+000
    outer loop
      vertex  4.427405e+002 -9.989684e+002  2.698963e+002
      vertex  4.527182e+002 -9.987532e+002  2.698963e+002
      vertex  4.479743e+002 -9.984352e+002  2.698963e+002
    endloop
  endfacet
  facet normal  0.000000e+000  0.000000e+000  1.000000e+000
    outer loop
      vertex  4.427405e+002 -9.989684e+002  2.698963e+002
      vertex  4.479743e+002 -9.984352e+002  2.698963e+002
      vertex  4.323124e+002 -9.995167e+002  2.698963e+002
    endloop
  endfacet
  facet normal  0.000000e+000  0.000000e+000  1.000000e+000
    outer loop
      vertex  4.323124e+002 -9.995167e+002  2.698963e+002
      vertex  4.479743e+002 -9.984352e+002  2.698963e+002
      vertex  4.361522e+002 -9.977841e+002  2.698963e+002
    endloop
  endfacet
  facet normal  0.000000e+000  0.000000e+000  1.000000e+000
    outer loop
      vertex  4.323124e+002 -9.995167e+002  2.698963e+002
      vertex  4.361522e+002 -9.977841e+002  2.698963e+002
      vertex  4.218513e+002 -1.000349e+003  2.698963e+002
    endloop
  endfacet
  facet normal  0.000000e+000  0.000000e+000  1.000000e+000
    outer loop
      vertex  4.218513e+002 -1.000349e+003  2.698963e+002
      vertex  4.361522e+002 -9.977841e+002  2.698963e+002
      vertex  4.276431e+002 -9.975193e+002  2.698963e+002
    endloop
  endfacet
  facet normal  0.000000e+000  0.000000e+000  1.000000e+000
    outer loop
      vertex  4.218513e+002 -1.000349e+003  2.698963e+002
      vertex  4.276431e+002 -9.975193e+002  2.698963e+002
      vertex  4.192968e+002 -9.975799e+002  2.698963e+002
    endloop
  endfacet
  facet normal  0.000000e+000  0.000000e+000  1.000000e+000
    outer loop
      vertex  4.218513e+002 -1.000349e+003  2.698963e+002
      vertex  4.192968e+002 -9.975799e+002  2.698963e+002
      vertex  4.152117e+002 -1.000861e+003  2.698963e+002
    endloop
  endfacet
  facet normal  0.000000e+000  0.000000e+000  1.000000e+000
    outer loop
      vertex  4.152117e+002 -1.000861e+003  2.698963e+002
      vertex  4.192968e+002 -9.975799e+002  2.698963e+002
      vertex  4.159474e+002 -9.977506e+002  2.698963e+002
    endloop
  endfacet
  facet normal  0.000000e+000  0.000000e+000  1.000000e+000
    outer loop
      vertex  4.152117e+002 -1.000861e+003  2.698963e+002
      vertex  4.159474e+002 -9.977506e+002  2.698963e+002
      vertex  4.118864e+002 -1.001031e+003  2.698963e+002
    endloop
  endfacet
  facet normal  0.000000e+000  0.000000e+000  1.000000e+000
    outer loop
      vertex  4.118864e+002 -1.001031e+003  2.698963e+002
      vertex  4.159474e+002 -9.977506e+002  2.698963e+002
      vertex  4.121273e+002 -9.981259e+002  2.698963e+002
    endloop
  endfacet
  facet normal  0.000000e+000  0.000000e+000  1.000000e+000
    outer loop
      vertex  4.118864e+002 -1.001031e+003  2.698963e+002
      vertex  4.121273e+002 -9.981259e+002  2.698963e+002
      vertex  4.102101e+002 -1.001070e+003  2.698963e+002
    endloop
  endfacet
  facet normal  0.000000e+000  0.000000e+000  1.000000e+000
    outer loop
      vertex  4.102101e+002 -1.001070e+003  2.698963e+002
      vertex  4.121273e+002 -9.981259e+002  2.698963e+002
      vertex  4.102668e+002 -9.984225e+002  2.698963e+002
    endloop
  endfacet
  facet normal  0.000000e+000  0.000000e+000  1.000000e+000
    outer loop
      vertex  4.102101e+002 -1.001070e+003  2.698963e+002
      vertex  4.102668e+002 -9.984225e+002  2.698963e+002
      vertex  4.078638e+002 -1.001016e+003  2.698963e+002
    endloop
  endfacet
  facet normal  0.000000e+000  0.000000e+000  1.000000e+000
    outer loop
      vertex  4.078638e+002 -1.001016e+003  2.698963e+002
      vertex  4.102668e+002 -9.984225e+002  2.698963e+002
      vertex  4.079165e+002 -9.989987e+002  2.698963e+002
    endloop
  endfacet
  facet normal  0.000000e+000  0.000000e+000  1.000000e+000
    outer loop
      vertex  4.078638e+002 -1.001016e+003  2.698963e+002
      vertex  4.079165e+002 -9.989987e+002  2.698963e+002
      vertex  4.063283e+002 -1.000807e+003  2.698963e+002
    endloop
  endfacet
  facet normal  0.000000e+000  0.000000e+000  1.000000e+000
    outer loop
      vertex  4.063283e+002 -1.000807e+003  2.698963e+002
      vertex  4.079165e+002 -9.989987e+002  2.698963e+002
      vertex  4.065320e+002 -9.995654e+002  2.698963e+002
    endloop
  endfacet
  facet normal  0.000000e+000  0.000000e+000  1.000000e+000
    outer loop
      vertex  4.063283e+002 -1.000807e+003  2.698963e+002
      vertex  4.065320e+002 -9.995654e+002  2.698963e+002
      vertex  4.059140e+002 -1.000670e+003  2.698963e+002
    endloop
  endfacet
  facet normal  0.000000e+000  0.000000e+000  1.000000e+000
    outer loop
      vertex  4.059140e+002 -1.000670e+003  2.698963e+002
      vertex  4.065320e+002 -9.995654e+002  2.698963e+002
      vertex  4.059586e+002 -9.999490e+002  2.698963e+002
    endloop
  endfacet
  facet normal  0.000000e+000  0.000000e+000  1.000000e+000
    outer loop
      vertex  4.059140e+002 -1.000670e+003  2.698963e+002
      vertex  4.059586e+002 -9.999490e+002  2.698963e+002
      vertex  4.057737e+002 -1.000594e+003  2.698963e+002
    endloop
  endfacet
  facet normal  0.000000e+000  -0.000000e+000  1.000000e+000
    outer loop
      vertex  4.057737e+002 -1.000594e+003  2.698963e+002
      vertex  4.059586e+002 -9.999490e+002  2.698963e+002
      vertex  4.057185e+002 -1.000214e+003  2.698963e+002
    endloop
  endfacet
  facet normal  0.000000e+000  0.000000e+000  1.000000e+000
    outer loop
      vertex  4.057737e+002 -1.000594e+003  2.698963e+002
      vertex  4.057185e+002 -1.000214e+003  2.698963e+002
      vertex  4.057177e+002 -1.000550e+003  2.698963e+002
    endloop
  endfacet
  facet normal  0.000000e+000  -0.000000e+000  1.000000e+000
    outer loop
      vertex  4.056596e+002 -1.000333e+003  2.698963e+002
      vertex  4.056720e+002 -1.000495e+003  2.698963e+002
      vertex  4.057185e+002 -1.000214e+003  2.698963e+002
    endloop
  endfacet
  facet normal  0.000000e+000  0.000000e+000  9.999999e-001
    outer loop
      vertex  4.057185e+002 -1.000214e+003  2.698963e+002
      vertex  4.056720e+002 -1.000495e+003  2.698963e+002
      vertex  4.057177e+002 -1.000550e+003  2.698963e+002
    endloop
  endfacet
  facet normal -1.336483e-001 -9.816810e-001  1.357954e-001
    outer loop
      vertex  2.596906e+002 -1.001593e+003  1.198963e+002
      vertex  4.078638e+002 -1.001016e+003  2.698963e+002
      vertex  4.063283e+002 -1.000807e+003  2.698963e+002
    endloop
  endfacet
  facet normal -9.871472e-002 -9.899444e-001  1.013190e-001
    outer loop
      vertex  2.596906e+002 -1.001593e+003  1.198963e+002
      vertex  2.639783e+002 -1.002020e+003  1.198963e+002
      vertex  4.078638e+002 -1.001016e+003  2.698963e+002
    endloop
  endfacet
  facet normal -3.642000e-002 -9.984695e-001  4.162071e-002
    outer loop
      vertex  4.078638e+002 -1.001016e+003  2.698963e+002
      vertex  2.639783e+002 -1.002020e+003  1.198963e+002
      vertex  2.691120e+002 -1.002208e+003  1.198963e+002
    endloop
  endfacet
  facet normal -2.282463e-002 -9.993172e-001  2.905157e-002
    outer loop
      vertex  4.078638e+002 -1.001016e+003  2.698963e+002
      vertex  2.691120e+002 -1.002208e+003  1.198963e+002
      vertex  4.102101e+002 -1.001070e+003  2.698963e+002
    endloop
  endfacet
  facet normal -7.820253e-003 -9.998578e-001  1.494174e-002
    outer loop
      vertex  4.102101e+002 -1.001070e+003  2.698963e+002
      vertex  2.691120e+002 -1.002208e+003  1.198963e+002
      vertex  2.722100e+002 -1.002232e+003  1.198963e+002
    endloop
  endfacet
  facet normal  2.311172e-002 -9.996415e-001 -1.351732e-002
    outer loop
      vertex  4.102101e+002 -1.001070e+003  2.698963e+002
      vertex  2.722100e+002 -1.002232e+003  1.198963e+002
      vertex  4.118864e+002 -1.001031e+003  2.698963e+002
    endloop
  endfacet
  facet normal -2.003442e-001 -9.589112e-001  2.008770e-001
    outer loop
      vertex  2.596906e+002 -1.001593e+003  1.198963e+002
      vertex  4.063283e+002 -1.000807e+003  2.698963e+002
      vertex  2.574199e+002 -1.001118e+003  1.198963e+002
    endloop
  endfacet
  facet normal -2.992772e-001 -9.061148e-001  2.989804e-001
    outer loop
      vertex  2.574199e+002 -1.001118e+003  1.198963e+002
      vertex  4.063283e+002 -1.000807e+003  2.698963e+002
      vertex  4.059140e+002 -1.000670e+003  2.698963e+002
    endloop
  endfacet
  facet normal -3.054049e-001 -9.020431e-001  3.050345e-001
    outer loop
      vertex  2.574199e+002 -1.001118e+003  1.198963e+002
      vertex  4.059140e+002 -1.000670e+003  2.698963e+002
      vertex  2.566465e+002 -1.000857e+003  1.198963e+002
    endloop
  endfacet
  facet normal -4.299903e-001 -7.944635e-001  4.288778e-001
    outer loop
      vertex  2.566465e+002 -1.000857e+003  1.198963e+002
      vertex  4.059140e+002 -1.000670e+003  2.698963e+002
      vertex  4.057737e+002 -1.000594e+003  2.698963e+002
    endloop
  endfacet
  facet normal -4.018773e-001 -8.232319e-001  4.009787e-001
    outer loop
      vertex  2.566465e+002 -1.000857e+003  1.198963e+002
      vertex  4.057737e+002 -1.000594e+003  2.698963e+002
      vertex  2.560855e+002 -1.000583e+003  1.198963e+002
    endloop
  endfacet
  facet normal -5.249003e-001 -6.709379e-001  5.237577e-001
    outer loop
      vertex  2.560855e+002 -1.000583e+003  1.198963e+002
      vertex  4.057737e+002 -1.000594e+003  2.698963e+002
      vertex  4.057177e+002 -1.000550e+003  2.698963e+002
    endloop
  endfacet
  facet normal -5.174690e-001 -6.823573e-001  5.163472e-001
    outer loop
      vertex  2.560855e+002 -1.000583e+003  1.198963e+002
      vertex  4.057177e+002 -1.000550e+003  2.698963e+002
      vertex  2.558149e+002 -1.000377e+003  1.198963e+002
    endloop
  endfacet
  facet normal -6.114614e-001 -5.034119e-001  6.104846e-001
    outer loop
      vertex  2.558149e+002 -1.000377e+003  1.198963e+002
      vertex  4.057177e+002 -1.000550e+003  2.698963e+002
      vertex  4.056720e+002 -1.000495e+003  2.698963e+002
    endloop
  endfacet
  facet normal -6.220126e-001 -4.768663e-001  6.210466e-001
    outer loop
      vertex  2.558149e+002 -1.000377e+003  1.198963e+002
      vertex  4.056720e+002 -1.000495e+003  2.698963e+002
      vertex  2.556980e+002 -1.000225e+003  1.198963e+002
    endloop
  endfacet
  facet normal -6.925027e-001 -2.038490e-001  6.920157e-001
    outer loop
      vertex  2.556980e+002 -1.000225e+003  1.198963e+002
      vertex  4.056720e+002 -1.000495e+003  2.698963e+002
      vertex  4.056474e+002 -1.000411e+003  2.698963e+002
    endloop
  endfacet
  facet normal -6.959608e-001 -1.786413e-001  6.955040e-001
    outer loop
      vertex  2.556980e+002 -1.000225e+003  1.198963e+002
      vertex  4.056474e+002 -1.000411e+003  2.698963e+002
      vertex  2.556403e+002 -1.000000e+003  1.198963e+002
    endloop
  endfacet
  facet normal  0.000000e+000  0.000000e+000 -1.000000e+000
    outer loop
      vertex  3.033874e+002 -9.938942e+002  1.198963e+002
      vertex  2.833388e+002 -9.938678e+002  1.198963e+002
      vertex  2.922802e+002 -9.937247e+002  1.198963e+002
    endloop
  endfacet
  facet normal  0.000000e+000  0.000000e+000 -1.000000e+000
    outer loop
      vertex  3.812927e+002 -9.999766e+002  1.198963e+002
      vertex  3.813203e+002 -1.000002e+003  1.198963e+002
      vertex  3.812404e+002 -9.999619e+002  1.198963e+002
    endloop
  endfacet
  facet normal  0.000000e+000  0.000000e+000 -1.000000e+000
    outer loop
      vertex  3.179263e+002 -1.000441e+003  1.198963e+002
      vertex  2.558149e+002 -1.000377e+003  1.198963e+002
      vertex  2.556980e+002 -1.000225e+003  1.198963e+002
    endloop
  endfacet
  facet normal  0.000000e+000  0.000000e+000 -1.000000e+000
    outer loop
      vertex  3.179263e+002 -1.000441e+003  1.198963e+002
      vertex  2.556980e+002 -1.000225e+003  1.198963e+002
      vertex  2.556403e+002 -1.000000e+003  1.198963e+002
    endloop
  endfacet
  facet normal  0.000000e+000  0.000000e+000 -9.999999e-001
    outer loop
      vertex  3.179263e+002 -1.000441e+003  1.198963e+002
      vertex  2.556403e+002 -1.000000e+003  1.198963e+002
      vertex  2.556411e+002 -9.999710e+002  1.198963e+002
    endloop
  endfacet
  facet normal  0.000000e+000  0.000000e+000 -1.000000e+000
    outer loop
      vertex  3.179263e+002 -1.000441e+003  1.198963e+002
      vertex  2.556411e+002 -9.999710e+002  1.198963e+002
      vertex  2.556415e+002 -9.999659e+002  1.198963e+002
    endloop
  endfacet
  facet normal  0.000000e+000  0.000000e+000 -1.000000e+000
    outer loop
      vertex  3.179263e+002 -1.000441e+003  1.198963e+002
      vertex  2.556415e+002 -9.999659e+002  1.198963e+002
      vertex  2.557052e+002 -9.997307e+002  1.198963e+002
    endloop
  endfacet
  facet normal  0.000000e+000  0.000000e+000 -1.000000e+000
    outer loop
      vertex  3.179263e+002 -1.000441e+003  1.198963e+002
      vertex  2.557052e+002 -9.997307e+002  1.198963e+002
      vertex  3.407668e+002 -9.997279e+002  1.198963e+002
    endloop
  endfacet
  facet normal  0.000000e+000  0.000000e+000 -1.000000e+000
    outer loop
      vertex  3.764031e+002 -9.999310e+002  1.198963e+002
      vertex  3.546086e+002 -9.996069e+002  1.198963e+002
      vertex  3.703755e+002 -9.988461e+002  1.198963e+002
    endloop
  endfacet
  facet normal  0.000000e+000  0.000000e+000 -1.000000e+000
    outer loop
      vertex  3.764031e+002 -9.999310e+002  1.198963e+002
      vertex  3.703755e+002 -9.988461e+002  1.198963e+002
      vertex  3.812404e+002 -9.999619e+002  1.198963e+002
    endloop
  endfacet
  facet normal  -0.000000e+000  -0.000000e+000 -1.000000e+000
    outer loop
      vertex  3.764031e+002 -9.999310e+002  1.198963e+002
      vertex  3.812404e+002 -9.999619e+002  1.198963e+002
      vertex  3.813203e+002 -1.000002e+003  1.198963e+002
    endloop
  endfacet
  facet normal  -0.000000e+000  -0.000000e+000 -1.000000e+000
    outer loop
      vertex  3.764031e+002 -9.999310e+002  1.198963e+002
      vertex  3.813203e+002 -1.000002e+003  1.198963e+002
      vertex  3.813264e+002 -1.000015e+003  1.198963e+002
    endloop
  endfacet
  facet normal  -0.000000e+000  -0.000000e+000 -1.000000e+000
    outer loop
      vertex  3.764031e+002 -9.999310e+002  1.198963e+002
      vertex  3.813264e+002 -1.000015e+003  1.198963e+002
      vertex  3.813284e+002 -1.000029e+003  1.198963e+002
    endloop
  endfacet
  facet normal  -0.000000e+000  0.000000e+000 -9.999999e-001
    outer loop
      vertex  3.764031e+002 -9.999310e+002  1.198963e+002
      vertex  3.813284e+002 -1.000029e+003  1.198963e+002
      vertex  3.813232e+002 -1.000049e+003  1.198963e+002
    endloop
  endfacet
  facet normal  -0.000000e+000  0.000000e+000 -1.000000e+000
    outer loop
      vertex  3.764031e+002 -9.999310e+002  1.198963e+002
      vertex  3.813232e+002 -1.000049e+003  1.198963e+002
      vertex  3.813072e+002 -1.000066e+003  1.198963e+002
    endloop
  endfacet
  facet normal  -0.000000e+000  0.000000e+000 -1.000000e+000
    outer loop
      vertex  3.764031e+002 -9.999310e+002  1.198963e+002
      vertex  3.813072e+002 -1.000066e+003  1.198963e+002
      vertex  3.812905e+002 -1.000074e+003  1.198963e+002
    endloop
  endfacet
  facet normal  -0.000000e+000  0.000000e+000 -9.999999e-001
    outer loop
      vertex  3.764031e+002 -9.999310e+002  1.198963e+002
      vertex  3.812905e+002 -1.000074e+003  1.198963e+002
      vertex  3.812428e+002 -1.000080e+003  1.198963e+002
    endloop
  endfacet
  facet normal  0.000000e+000  -0.000000e+000 -1.000000e+000
    outer loop
      vertex  2.681516e+002 -9.951277e+002  1.198963e+002
      vertex  2.731270e+002 -9.945122e+002  1.198963e+002
      vertex  3.263414e+002 -9.950388e+002  1.198963e+002
    endloop
  endfacet
  facet normal  0.000000e+000  0.000000e+000 -1.000000e+000
    outer loop
      vertex  3.263414e+002 -9.950388e+002  1.198963e+002
      vertex  2.731270e+002 -9.945122e+002  1.198963e+002
      vertex  2.770950e+002 -9.941826e+002  1.198963e+002
    endloop
  endfacet
  facet normal  0.000000e+000  0.000000e+000 -1.000000e+000
    outer loop
      vertex  3.263414e+002 -9.950388e+002  1.198963e+002
      vertex  2.770950e+002 -9.941826e+002  1.198963e+002
      vertex  3.145248e+002 -9.943398e+002  1.198963e+002
    endloop
  endfacet
  facet normal  0.000000e+000  0.000000e+000 -9.999999e-001
    outer loop
      vertex  3.145248e+002 -9.943398e+002  1.198963e+002
      vertex  2.770950e+002 -9.941826e+002  1.198963e+002
      vertex  2.833388e+002 -9.938678e+002  1.198963e+002
    endloop
  endfacet
  facet normal  0.000000e+000  0.000000e+000 -1.000000e+000
    outer loop
      vertex  3.145248e+002 -9.943398e+002  1.198963e+002
      vertex  2.833388e+002 -9.938678e+002  1.198963e+002
      vertex  3.033874e+002 -9.938942e+002  1.198963e+002
    endloop
  endfacet
  facet normal  0.000000e+000  -0.000000e+000 -1.000000e+000
    outer loop
      vertex  2.603808e+002 -9.968911e+002  1.198963e+002
      vertex  2.633535e+002 -9.960471e+002  1.198963e+002
      vertex  3.480096e+002 -9.967444e+002  1.198963e+002
    endloop
  endfacet
  facet normal  0.000000e+000  0.000000e+000 -1.000000e+000
    outer loop
      vertex  3.480096e+002 -9.967444e+002  1.198963e+002
      vertex  2.633535e+002 -9.960471e+002  1.198963e+002
      vertex  2.681516e+002 -9.951277e+002  1.198963e+002
    endloop
  endfacet
  facet normal  0.000000e+000  0.000000e+000 -1.000000e+000
    outer loop
      vertex  3.480096e+002 -9.967444e+002  1.198963e+002
      vertex  2.681516e+002 -9.951277e+002  1.198963e+002
      vertex  3.263414e+002 -9.950388e+002  1.198963e+002
    endloop
  endfacet
  facet normal  0.000000e+000  -0.000000e+000 -1.000000e+000
    outer loop
      vertex  2.565148e+002 -9.987952e+002  1.198963e+002
      vertex  2.580846e+002 -9.978243e+002  1.198963e+002
      vertex  3.703755e+002 -9.988461e+002  1.198963e+002
    endloop
  endfacet
  facet normal  0.000000e+000  0.000000e+000 -1.000000e+000
    outer loop
      vertex  3.703755e+002 -9.988461e+002  1.198963e+002
      vertex  2.580846e+002 -9.978243e+002  1.198963e+002
      vertex  2.603808e+002 -9.968911e+002  1.198963e+002
    endloop
  endfacet
  facet normal  0.000000e+000  0.000000e+000 -1.000000e+000
    outer loop
      vertex  3.703755e+002 -9.988461e+002  1.198963e+002
      vertex  2.603808e+002 -9.968911e+002  1.198963e+002
      vertex  3.480096e+002 -9.967444e+002  1.198963e+002
    endloop
  endfacet
  facet normal  0.000000e+000  0.000000e+000 -1.000000e+000
    outer loop
      vertex  3.703755e+002 -9.988461e+002  1.198963e+002
      vertex  3.546086e+002 -9.996069e+002  1.198963e+002
      vertex  2.565148e+002 -9.987952e+002  1.198963e+002
    endloop
  endfacet
  facet normal  0.000000e+000  -0.000000e+000 -1.000000e+000
    outer loop
      vertex  2.565148e+002 -9.987952e+002  1.198963e+002
      vertex  3.546086e+002 -9.996069e+002  1.198963e+002
      vertex  2.558491e+002 -9.994806e+002  1.198963e+002
    endloop
  endfacet
  facet normal  0.000000e+000  0.000000e+000 -1.000000e+000
    outer loop
      vertex  3.546086e+002 -9.996069e+002  1.198963e+002
      vertex  3.407668e+002 -9.997279e+002  1.198963e+002
      vertex  2.558491e+002 -9.994806e+002  1.198963e+002
    endloop
  endfacet
  facet normal  0.000000e+000  -0.000000e+000 -9.999999e-001
    outer loop
      vertex  2.558491e+002 -9.994806e+002  1.198963e+002
      vertex  3.407668e+002 -9.997279e+002  1.198963e+002
      vertex  2.557052e+002 -9.997307e+002  1.198963e+002
    endloop
  endfacet
  facet normal  0.000000e+000  0.000000e+000 -9.999999e-001
    outer loop
      vertex  3.179263e+002 -1.000441e+003  1.198963e+002
      vertex  3.000759e+002 -1.001282e+003  1.198963e+002
      vertex  2.558149e+002 -1.000377e+003  1.198963e+002
    endloop
  endfacet
  facet normal  0.000000e+000  0.000000e+000 -1.000000e+000
    outer loop
      vertex  2.558149e+002 -1.000377e+003  1.198963e+002
      vertex  3.000759e+002 -1.001282e+003  1.198963e+002
      vertex  2.560855e+002 -1.000583e+003  1.198963e+002
    endloop
  endfacet
  facet normal  0.000000e+000  0.000000e+000 -1.000000e+000
    outer loop
      vertex  3.000759e+002 -1.001282e+003  1.198963e+002
      vertex  2.574199e+002 -1.001118e+003  1.198963e+002
      vertex  2.560855e+002 -1.000583e+003  1.198963e+002
    endloop
  endfacet
  facet normal  0.000000e+000  0.000000e+000 -1.000000e+000
    outer loop
      vertex  2.560855e+002 -1.000583e+003  1.198963e+002
      vertex  2.574199e+002 -1.001118e+003  1.198963e+002
      vertex  2.566465e+002 -1.000857e+003  1.198963e+002
    endloop
  endfacet
  facet normal  0.000000e+000  0.000000e+000 -1.000000e+000
    outer loop
      vertex  2.870403e+002 -1.001880e+003  1.198963e+002
      vertex  2.574199e+002 -1.001118e+003  1.198963e+002
      vertex  3.000759e+002 -1.001282e+003  1.198963e+002
    endloop
  endfacet
  facet normal  0.000000e+000  0.000000e+000 -1.000000e+000
    outer loop
      vertex  2.574199e+002 -1.001118e+003  1.198963e+002
      vertex  2.870403e+002 -1.001880e+003  1.198963e+002
      vertex  2.596906e+002 -1.001593e+003  1.198963e+002
    endloop
  endfacet
  facet normal  0.000000e+000  0.000000e+000 -1.000000e+000
    outer loop
      vertex  2.596906e+002 -1.001593e+003  1.198963e+002
      vertex  2.870403e+002 -1.001880e+003  1.198963e+002
      vertex  2.811107e+002 -1.002088e+003  1.198963e+002
    endloop
  endfacet
  facet normal  0.000000e+000  0.000000e+000 -9.999999e-001
    outer loop
      vertex  2.596906e+002 -1.001593e+003  1.198963e+002
      vertex  2.811107e+002 -1.002088e+003  1.198963e+002
      vertex  2.639783e+002 -1.002020e+003  1.198963e+002
    endloop
  endfacet
  facet normal  0.000000e+000  0.000000e+000 -1.000000e+000
    outer loop
      vertex  2.639783e+002 -1.002020e+003  1.198963e+002
      vertex  2.811107e+002 -1.002088e+003  1.198963e+002
      vertex  2.722100e+002 -1.002232e+003  1.198963e+002
    endloop
  endfacet
  facet normal  0.000000e+000  0.000000e+000 -1.000000e+000
    outer loop
      vertex  2.639783e+002 -1.002020e+003  1.198963e+002
      vertex  2.722100e+002 -1.002232e+003  1.198963e+002
      vertex  2.691120e+002 -1.002208e+003  1.198963e+002
    endloop
  endfacet
endsolid CATIA STL
