  0
SECTION
  2
HEADER
  9
$ACADVER
  1
AC1015
  9
$ACADMAINTVER
 70
     6
  9
$DWGCODEPAGE
  3
ANSI_1252
  9
$INSBASE
 10
0.0
 20
0.0
 30
0.0
  9
$EXTMIN
 10
0.0
 20
0.0
 30
0.0
  9
$EXTMAX
 10
368.231018
 20
170.440231
 30
2.0
  9
$LIMMIN
 10
0.0
 20
0.0
  9
$LIMMAX
 10
420.0
 20
297.0
  9
$ORTHOMODE
 70
     0
  9
$REGENMODE
 70
     1
  9
$FILLMODE
 70
     1
  9
$QTEXTMODE
 70
     0
  9
$MIRRTEXT
 70
     1
  9
$LTSCALE
 40
1.0
  9
$ATTMODE
 70
     1
  9
$TEXTSIZE
 40
2.5
  9
$TRACEWID
 40
1.0
  9
$TEXTSTYLE
  7
Standard
  9
$CLAYER
  8
0
  9
$CELTYPE
  6
ByLayer
  9
$CECOLOR
 62
   256
  9
$CELTSCALE
 40
1.0
  9
$DISPSILH
 70
     0
  9
$DIMSCALE
 40
1.0
  9
$DIMASZ
 40
2.5
  9
$DIMEXO
 40
0.625
  9
$DIMDLI
 40
3.75
  9
$DIMRND
 40
0.0
  9
$DIMDLE
 40
0.0
  9
$DIMEXE
 40
1.25
  9
$DIMTP
 40
0.0
  9
$DIMTM
 40
0.0
  9
$DIMTXT
 40
2.5
  9
$DIMCEN
 40
2.5
  9
$DIMTSZ
 40
0.0
  9
$DIMTOL
 70
     0
  9
$DIMLIM
 70
     0
  9
$DIMTIH
 70
     0
  9
$DIMTOH
 70
     0
  9
$DIMSE1
 70
     0
  9
$DIMSE2
 70
     0
  9
$DIMTAD
 70
     1
  9
$DIMZIN
 70
     8
  9
$DIMBLK
  1

  9
$DIMASO
 70
     1
  9
$DIMSHO
 70
     1
  9
$DIMPOST
  1

  9
$DIMAPOST
  1

  9
$DIMALT
 70
     0
  9
$DIMALTD
 70
     3
  9
$DIMALTF
 40
0.03937
  9
$DIMLFAC
 40
1.0
  9
$DIMTOFL
 70
     1
  9
$DIMTVP
 40
0.0
  9
$DIMTIX
 70
     0
  9
$DIMSOXD
 70
     0
  9
$DIMSAH
 70
     0
  9
$DIMBLK1
  1

  9
$DIMBLK2
  1

  9
$DIMSTYLE
  2

  9
$DIMCLRD
 70
     0
  9
$DIMCLRE
 70
     0
  9
$DIMCLRT
 70
     0
  9
$DIMTFAC
 40
1.0
  9
$DIMGAP
 40
0.625
  9
$DIMJUST
 70
     0
  9
$DIMSD1
 70
     0
  9
$DIMSD2
 70
     0
  9
$DIMTOLJ
 70
     0
  9
$DIMTZIN
 70
     8
  9
$DIMALTZ
 70
     0
  9
$DIMALTTZ
 70
     0
  9
$DIMUPT
 70
     0
  9
$DIMDEC
 70
     2
  9
$DIMTDEC
 70
     2
  9
$DIMALTU
 70
     2
  9
$DIMALTTD
 70
     3
  9
$DIMTXSTY
  7
Standard
  9
$DIMAUNIT
 70
     0
  9
$DIMADEC
 70
     0
  9
$DIMALTRND
 40
0.0
  9
$DIMAZIN
 70
     0
  9
$DIMDSEP
 70
    44
  9
$DIMATFIT
 70
     0
  9
$DIMFRAC
 70
     0
  9
$DIMLDRBLK
  1

  9
$DIMLUNIT
 70
     2
  9
$DIMLWD
 70
    -2
  9
$DIMLWE
 70
    -2
  9
$DIMTMOVE
 70
     0
  9
$LUNITS
 70
     2
  9
$LUPREC
 70
     4
  9
$SKETCHINC
 40
1.0
  9
$FILLETRAD
 40
2.5
  9
$AUNITS
 70
     0
  9
$AUPREC
 70
     0
  9
$MENU
  1
.
  9
$ELEVATION
 40
0.0
  9
$PELEVATION
 40
0.0
  9
$THICKNESS
 40
0.0
  9
$LIMCHECK
 70
     0
  9
$CHAMFERA
 40
2.5
  9
$CHAMFERB
 40
2.5
  9
$CHAMFERC
 40
0.0
  9
$CHAMFERD
 40
0.0
  9
$SKPOLY
 70
     0
  9
$TDCREATE
 40
0.000000000
  9
$TDUCREATE
 40
0.000000000
  9
$TDUPDATE
 40
0.000000000
  9
$TDUUPDATE
 40
0.000000000
  9
$TDINDWG
 40
0.0000000000
  9
$TDUSRTIMER
 40
0.0000000000
  9
$USRTIMER
 70
     1
  9
$ANGBASE
 50
0.0
  9
$ANGDIR
 70
     0
  9
$PDMODE
 70
     0
  9
$PDSIZE
 40
0.0
  9
$PLINEWID
 40
0.0
  9
$SPLFRAME
 70
     0
  9
$SPLINETYPE
 70
     6
  9
$SPLINESEGS
 70
     8
  9
$HANDSEED
  5
3C7
  9
$SURFTAB1
 70
     6
  9
$SURFTAB2
 70
     6
  9
$SURFTYPE
 70
     6
  9
$SURFU
 70
     6
  9
$SURFV
 70
     6
  9
$UCSBASE
  2

  9
$UCSNAME
  2

  9
$UCSORG
 10
0.0
 20
0.0
 30
0.0
  9
$UCSXDIR
 10
1.0
 20
0.0
 30
0.0
  9
$UCSYDIR
 10
0.0
 20
1.0
 30
0.0
  9
$UCSORTHOREF
  2

  9
$UCSORTHOVIEW
 70
     1
  9
$UCSORGTOP
 10
0.0
 20
0.0
 30
0.0
  9
$UCSORGBOTTOM
 10
0.0
 20
0.0
 30
0.0
  9
$UCSORGLEFT
 10
0.0
 20
0.0
 30
0.0
  9
$UCSORGRIGHT
 10
0.0
 20
0.0
 30
0.0
  9
$UCSORGFRONT
 10
0.0
 20
0.0
 30
0.0
  9
$UCSORGBACK
 10
0.0
 20
0.0
 30
0.0
  9
$PUCSBASE
  2

  9
$PUCSNAME
  2

  9
$PUCSORG
 10
0.0
 20
0.0
 30
0.0
  9
$PUCSXDIR
 10
1.0
 20
0.0
 30
0.0
  9
$PUCSYDIR
 10
0.0
 20
1.0
 30
0.0
  9
$PUCSORTHOREF
  2

  9
$PUCSORTHOVIEW
 70
     0
  9
$PUCSORGTOP
 10
0.0
 20
0.0
 30
0.0
  9
$PUCSORGBOTTOM
 10
0.0
 20
0.0
 30
0.0
  9
$PUCSORGLEFT
 10
0.0
 20
0.0
 30
0.0
  9
$PUCSORGRIGHT
 10
0.0
 20
0.0
 30
0.0
  9
$PUCSORGFRONT
 10
0.0
 20
0.0
 30
0.0
  9
$PUCSORGBACK
 10
0.0
 20
0.0
 30
0.0
  9
$USERI1
 70
     0
  9
$USERI2
 70
     0
  9
$USERI3
 70
     0
  9
$USERI4
 70
     0
  9
$USERI5
 70
     0
  9
$USERR1
 40
0.0
  9
$USERR2
 40
0.0
  9
$USERR3
 40
0.0
  9
$USERR4
 40
0.0
  9
$USERR5
 40
0.0
  9
$WORLDVIEW
 70
     1
  9
$SHADEDGE
 70
     3
  9
$SHADEDIF
 70
    70
  9
$TILEMODE
 70
     1
  9
$MAXACTVP
 70
    48
  9
$PINSBASE
 10
0.0
 20
0.0
 30
0.0
  9
$PLIMCHECK
 70
     0
  9
$PEXTMIN
 10
0.0
 20
0.0
 30
0.0
  9
$PEXTMAX
 10
368.231018
 20
170.440231
 30
2.0
  9
$PLIMMIN
 10
0.0
 20
0.0
  9
$PLIMMAX
 10
420.0
 20
297.0
  9
$UNITMODE
 70
     0
  9
$VISRETAIN
 70
     0
  9
$PLINEGEN
 70
     0
  9
$PSLTSCALE
 70
     1
  9
$TREEDEPTH
 70
  3020
  9
$CMLSTYLE
  2
Standard
  9
$CMLJUST
 70
     0
  9
$CMLSCALE
 40
20.0
  9
$PROXYGRAPHICS
 70
     1
  9
$MEASUREMENT
 70
     1
  9
$CELWEIGHT
370
    -1
  9
$ENDCAPS
280
     0
  9
$JOINSTYLE
280
     0
  9
$LWDISPLAY
290
     0
  9
$INSUNITS
 70
     0
  9
$HYPERLINKBASE
  1

  9
$STYLESHEET
  1

  9
$XEDIT
290
     1
  9
$CEPSNTYPE
380
     0
  9
$PSTYLEMODE
290
     0
  9
$FINGERPRINTGUID
  2

  9
$VERSIONGUID
  2

  9
$EXTNAMES
290
     0
  9
$PSVPSCALE
 40
0.0
  0
ENDSEC
  0
SECTION
  2
CLASSES
  0
CLASS
  1
LWPOLYLINE
  2
AcDbPolyline
  3
AutoCAD 2000
 90
        0
280
     0
281
     1
  0
CLASS
  1
IMAGE
  2
AcDbRasterImage
  3
ISM
 90
      127
280
     0
281
     1
  0
CLASS
  1
OLE2FRAME
  2
AcDbOle2Frame
  3
AutoCAD 2000
 90
        0
280
     0
281
     1
  0
CLASS
  1
HATCH
  2
AcDbHatch
  3
AutoCAD 2000
 90
        0
280
     0
281
     1
  0
CLASS
  1
DICTIONARYVAR
  2
AcDbDictionaryVar
  3
AutoCAD 2000
 90
        0
280
     0
281
     0
  0
CLASS
  1
RASTERVARIABLES
  2
AcDbRasterVariables
  3
ISM
 90
        0
280
     0
281
     0
  0
CLASS
  1
IMAGEDEF
  2
AcDbRasterImageDef
  3
ISM
 90
        0
280
     0
281
     0
  0
CLASS
  1
IMAGEDEF_REACTOR
  2
AcDbRasterImageDefReactor
  3
ISM
 90
        1
280
     0
281
     0
  0
CLASS
  1
IDBUFFER
  2
AcDbIdBuffer
  3
AutoCAD 2000
 90
        0
280
     0
281
     0
  0
CLASS
  1
SPATIAL_FILTER
  2
AcDbSpatialFilter
  3
AutoCAD 2000
 90
        0
280
     0
281
     0
  0
CLASS
  1
XRECORD
  2
AcDbXrecord
  3
AutoCAD 2000
 90
        0
280
     0
281
     0
  0
CLASS
  1
SORTENTSTABLE
  2
AcDbSortentsTable
  3
AutoCAD 2000
 90
        0
280
     0
281
     0
  0
CLASS
  1
LAYER_INDEX
  2
AcDbLayerIndex
  3
AutoCAD 2000
 90
        0
280
     0
281
     0
  0
CLASS
  1
SPATIAL_INDEX
  2
AcDbSpatialIndex
  3
AutoCAD 2000
 90
        0
280
     0
281
     0
  0
CLASS
  1
OBJECT_PTR
  2
CAseDLPNTableRecord
  3
"ASE-LPNTableRecord"
 90
        1
280
     0
281
     0
  0
CLASS
  1
LAYOUT
  2
AcDbLayout
  3
AutoCAD 2000
 90
        0
280
     0
281
     0
  0
CLASS
  1
PLOTSETTINGS
  2
AcDbPlotSettings
  3
AutoCAD 2000
 90
        0
280
     0
281
     0
  0
CLASS
  1
ACDBDICTIONARYWDFLT
  2
AcDbDictionaryWithDefault
  3
AutoCAD 2000
 90
        0
280
     0
281
     0
  0
CLASS
  1
ACDBPLACEHOLDER
  2
AcDbPlaceHolder
  3
AutoCAD 2000
 90
        0
280
     0
281
     0
  0
CLASS
  1
VBA_PROJECT
  2
AcDbVbaProject
  3
acadvba
 90
        0
280
     0
281
     0
  0
CLASS
  1
WIPEOUT
  2
AcDbWipeout
  3
WipeOut|AutoCAD Express Tool|expresstools@autodesk.com
 90
      127
280
     0
281
     1
  0
CLASS
  1
WIPEOUTVARIABLES
  2
AcDbWipeoutVariables
  3
WipeOut|AutoCAD Express Tool|expresstools@autodesk.com
 90
        0
280
     0
281
     0
  0
CLASS
  1
RTEXT
  2
RText
  3
RText|AutoCAD Express Tool|expresstools@autodesk.com
 90
        0
280
     0
281
     1
  0
CLASS
  1
ARCALIGNEDTEXT
  2
AcDbArcAlignedText
  3
ATEXT|AutoCAD Express Tool|expresstools@autodesk.com
 90
        0
280
     0
281
     1
  0
ENDSEC
  0
SECTION
  2
TABLES
  0
TABLE
  2
VPORT
  5
7
100
AcDbSymbolTable
 70
     1
  0
VPORT
  5
15
100
AcDbSymbolTableRecord
100
AcDbViewportTableRecord
  2
*ACTIVE
 70
     0
 10
0.0
 20
0.0
 11
1.0
 21
1.0
 12
6.591288
 22
4.579184
 13
0.0
 23
0.0
 14
1.0
 24
1.0
 15
0.0
 25
0.0
 16
0.0
 26
0.0
 36
1.0
 17
0.0
 27
0.0
 37
0.0
 40
9.158369
 41
0.688564
 42
50.0
 43
0.0
 44
0.0
 50
0.0
 51
0.0
 71
     0
 72
   100
 73
     1
 74
     1
 75
     0
 76
     0
 77
     0
 78
     0
281
     0
 65
     0
110
0.0
120
0.0
130
0.0
111
1.0
121
0.0
131
0.0
112
0.0
122
1.0
132
0.0
345
0
346
0
 79
     0
146
0.0
  0
ENDTAB
  0
TABLE
  2
LTYPE
  5
4
100
AcDbSymbolTable
 70
     3
  0
LTYPE
  5
11
100
AcDbSymbolTableRecord
100
AcDbLinetypeTableRecord
  2
ByBlock
 70
    64
  3

 72
    65
 73
     0
 40
0.0
  0
LTYPE
  5
12
100
AcDbSymbolTableRecord
100
AcDbLinetypeTableRecord
  2
ByLayer
 70
    64
  3

 72
    65
 73
     0
 40
0.0
  0
LTYPE
  5
13
100
AcDbSymbolTableRecord
100
AcDbLinetypeTableRecord
  2
Continuous
 70
    64
  3
Solid line
 72
    65
 73
     0
 40
0.0
  0
ENDTAB
  0
TABLE
  2
LAYER
  5
2
100
AcDbSymbolTable
 70
     1
  0
LAYER
  5
14
100
AcDbSymbolTableRecord
100
AcDbLayerTableRecord
  2
0
 70
     0
 62
     7
  6
Continuous
290
     1
370
    -3
390
1D
  0
ENDTAB
  0
TABLE
  2
STYLE
  5
3
100
AcDbSymbolTable
 70
     1
  0
STYLE
  5
17
100
AcDbSymbolTableRecord
100
AcDbTextStyleTableRecord
  2
Standard
 70
     0
 40
0.0
 41
1.0
 50
0.0
 71
     0
 42
0.0
  3
txt
  4

  0
ENDTAB
  0
TABLE
  2
VIEW
  5
5
100
AcDbSymbolTable
 70
     0
  0
ENDTAB
  0
TABLE
  2
UCS
  5
6
100
AcDbSymbolTable
 70
     0
  0
ENDTAB
  0
TABLE
  2
APPID
  5
8
100
AcDbSymbolTable
 70
     1
  0
APPID
  5
16
100
AcDbSymbolTableRecord
100
AcDbRegAppTableRecord
  2
ACAD
 70
     0
  0
ENDTAB
  0
TABLE
  2
DIMSTYLE
  5
9
100
AcDbSymbolTable
 70
     1
100
AcDbDimStyleTable
 71
     0
  0
DIMSTYLE
105
18
100
AcDbSymbolTableRecord
100
AcDbDimStyleTableRecord
  2
Standard
 70
     0
  3

  4

 40
1.0
 41
0.18
 42
0.0625
 43
0.38
 44
0.18
 45
0.0
 46
0.0
 47
0.0
 48
0.0
 71
     0
 72
     0
 73
     1
 74
     1
 75
     0
 76
     0
 77
     0
 78
     0
 79
     0
140
0.18
141
0.09
142
0.0
143
25.4
144
1.0
145
0.0
146
1.0
147
0.09
148
0.0
170
     0
171
     2
172
     0
173
     0
174
     0
175
     0
176
     0
177
     0
178
     0
179
     0
271
     4
272
     4
273
     2
274
     2
275
     0
276
     0
277
     2
278
    46
279
     0
280
     0
281
     0
282
     0
283
     1
284
     0
285
     0
286
     0
288
     0
289
     3
340
17
341
0
342
0
343
0
344
0
371
    -2
372
    -2
  0
ENDTAB
  0
TABLE
  2
BLOCK_RECORD
  5
1
100
AcDbSymbolTable
 70
     0
  0
BLOCK_RECORD
  5
A
100
AcDbSymbolTableRecord
100
AcDbBlockTableRecord
  2
*MODEL_SPACE
340
20
  0
BLOCK_RECORD
  5
B
100
AcDbSymbolTableRecord
100
AcDbBlockTableRecord
  2
*PAPER_SPACE
340
21
  0
ENDTAB
  0
ENDSEC
  0
SECTION
  2
BLOCKS
  0
BLOCK
  5
D
100
AcDbEntity
  8
0
390
0
100
AcDbBlockBegin
  2
*MODEL_SPACE
 70
     0
 10
0.0
 20
0.0
 30
0.0
  3
*MODEL_SPACE
  1

  0
ENDBLK
  5
E
100
AcDbEntity
  8
0
390
0
100
AcDbBlockEnd
  0
BLOCK
  5
F
100
AcDbEntity
 67
     1
  8
0
390
0
100
AcDbBlockBegin
  2
*PAPER_SPACE
 70
     0
 10
0.0
 20
0.0
 30
0.0
  3
*PAPER_SPACE
  1

  0
ENDBLK
  5
10
100
AcDbEntity
 67
     1
  8
0
390
0
100
AcDbBlockEnd
  0
ENDSEC
  0
SECTION
  2
ENTITIES
  0
VIEWPORT
  5
3C6
100
AcDbEntity
 67
     1
  8
0
370
     0
390
0
 62
     0
 48
0.0
100
AcDbViewport
 10
0.0
 20
0.0
 30
0.0
 40
1000.0
 41
1000.0
 68
     1
 69
     1
 12
0.0
 22
0.0
 13
0.0
 23
0.0
 14
1.0
 24
1.0
 15
1.0
 25
1.0
 16
0.0
 26
0.0
 36
1.0
 17
0.0
 27
0.0
 37
0.0
 42
50.0
 43
0.0
 44
0.0
 45
1000.0
 50
0.0
 51
0.0
 72
   100
 90
        0
340
0
  1

281
     0
 71
     0
 74
     1
110
0.0
120
0.0
130
0.0
111
1.0
121
0.0
131
0.0
112
0.0
122
1.0
132
0.0
345
0
346
0
 79
     0
146
0.0
  0
POLYLINE
  5
24
100
AcDbEntity
  8
0
370
    13
390
0
 62
     7
100
AcDb2dPolyline
 66
     1
 10
0.0
 20
0.0
 30
0.0
 70
     1
 71
    10
  0
VERTEX
  5
25
100
AcDbEntity
  8
0
370
     0
390
0
100
AcDbVertex
100
AcDb2dVertex
 10
194.218216
 20
-14.090454
 30
0.0
  0
VERTEX
  5
26
100
AcDbEntity
  8
0
370
     0
390
0
100
AcDbVertex
100
AcDb2dVertex
 10
194.687241
 20
-14.090454
 30
0.0
  0
VERTEX
  5
27
100
AcDbEntity
  8
0
370
     0
390
0
100
AcDbVertex
100
AcDb2dVertex
 10
194.687241
 20
-12.481665
 30
0.0
  0
VERTEX
  5
28
100
AcDbEntity
  8
0
370
     0
390
0
100
AcDbVertex
100
AcDb2dVertex
 10
196.159866
 20
-12.481665
 30
0.0
  0
VERTEX
  5
29
100
AcDbEntity
  8
0
370
     0
390
0
100
AcDbVertex
100
AcDb2dVertex
 10
196.159866
 20
-12.063076
 30
0.0
  0
VERTEX
  5
2A
100
AcDbEntity
  8
0
370
     0
390
0
100
AcDbVertex
100
AcDb2dVertex
 10
194.687241
 20
-12.063076
 30
0.0
  0
VERTEX
  5
2B
100
AcDbEntity
  8
0
370
     0
390
0
100
AcDbVertex
100
AcDb2dVertex
 10
194.687241
 20
-11.014086
 30
0.0
  0
VERTEX
  5
2C
100
AcDbEntity
  8
0
370
     0
390
0
100
AcDbVertex
100
AcDb2dVertex
 10
196.497757
 20
-11.014086
 30
0.0
  0
VERTEX
  5
2D
100
AcDbEntity
  8
0
370
     0
390
0
100
AcDbVertex
100
AcDb2dVertex
 10
196.497757
 20
-10.590454
 30
0.0
  0
VERTEX
  5
2E
100
AcDbEntity
  8
0
370
     0
390
0
100
AcDbVertex
100
AcDb2dVertex
 10
194.218216
 20
-10.590454
 30
0.0
  0
SEQEND
  5
2F
100
AcDbEntity
  8
0
370
     0
390
0
  0
POLYLINE
  5
30
100
AcDbEntity
  8
0
370
    13
390
0
 62
     7
100
AcDb2dPolyline
 66
     1
 10
0.0
 20
0.0
 30
0.0
 70
     1
 71
    22
  0
VERTEX
  5
31
100
AcDbEntity
  8
0
370
     0
390
0
100
AcDbVertex
100
AcDb2dVertex
 10
197.410583
 20
-14.090454
 30
0.0
  0
VERTEX
  5
32
100
AcDbEntity
  8
0
370
     0
390
0
100
AcDbVertex
100
AcDb2dVertex
 10
197.854385
 20
-14.090454
 30
0.0
  0
VERTEX
  5
33
100
AcDbEntity
  8
0
370
     0
390
0
100
AcDbVertex
100
AcDb2dVertex
 10
197.854385
 20
-12.542183
 30
0.0
  0
VERTEX
  5
34
100
AcDbEntity
  8
0
370
     0
390
0
100
AcDbVertex
100
AcDb2dVertex
 10
197.89978
 20
-12.168984
 30
0.0
  0
VERTEX
  5
35
100
AcDbEntity
  8
0
370
     0
390
0
100
AcDbVertex
100
AcDb2dVertex
 10
198.03595
 20
-11.901693
 30
0.0
  0
VERTEX
  5
36
100
AcDbEntity
  8
0
370
     0
390
0
100
AcDbVertex
100
AcDb2dVertex
 10
198.257843
 20
-11.74031
 30
0.0
  0
VERTEX
  5
37
100
AcDbEntity
  8
0
370
     0
390
0
100
AcDbVertex
100
AcDb2dVertex
 10
198.555389
 20
-11.684834
 30
0.0
  0
VERTEX
  5
38
100
AcDbEntity
  8
0
370
     0
390
0
100
AcDbVertex
100
AcDb2dVertex
 10
198.777298
 20
-11.720137
 30
0.0
  0
VERTEX
  5
39
100
AcDbEntity
  8
0
370
     0
390
0
100
AcDbVertex
100
AcDb2dVertex
 10
198.943726
 20
-11.821001
 30
0.0
  0
VERTEX
  5
3A
100
AcDbEntity
  8
0
370
     0
390
0
100
AcDbVertex
100
AcDb2dVertex
 10
199.044586
 20
-11.992472
 30
0.0
  0
VERTEX
  5
3B
100
AcDbEntity
  8
0
370
     0
390
0
100
AcDbVertex
100
AcDb2dVertex
 10
199.079895
 20
-12.22446
 30
0.0
  0
VERTEX
  5
3C
100
AcDbEntity
  8
0
370
     0
390
0
100
AcDbVertex
100
AcDb2dVertex
 10
199.528732
 20
-12.22446
 30
0.0
  0
VERTEX
  5
3D
100
AcDbEntity
  8
0
370
     0
390
0
100
AcDbVertex
100
AcDb2dVertex
 10
199.468216
 20
-11.815958
 30
0.0
  0
VERTEX
  5
3E
100
AcDbEntity
  8
0
370
     0
390
0
100
AcDbVertex
100
AcDb2dVertex
 10
199.301788
 20
-11.523451
 30
0.0
  0
VERTEX
  5
3F
100
AcDbEntity
  8
0
370
     0
390
0
100
AcDbVertex
100
AcDb2dVertex
 10
199.024414
 20
-11.346938
 30
0.0
  0
VERTEX
  5
40
100
AcDbEntity
  8
0
370
     0
390
0
100
AcDbVertex
100
AcDb2dVertex
 10
198.646179
 20
-11.286419
 30
0.0
  0
VERTEX
  5
41
100
AcDbEntity
  8
0
370
     0
390
0
100
AcDbVertex
100
AcDb2dVertex
 10
198.388962
 20
-11.326765
 30
0.0
  0
VERTEX
  5
42
100
AcDbEntity
  8
0
370
     0
390
0
100
AcDbVertex
100
AcDb2dVertex
 10
198.167068
 20
-11.427629
 30
0.0
  0
VERTEX
  5
43
100
AcDbEntity
  8
0
370
     0
390
0
100
AcDbVertex
100
AcDb2dVertex
 10
197.970383
 20
-11.5991
 30
0.0
  0
VERTEX
  5
44
100
AcDbEntity
  8
0
370
     0
390
0
100
AcDbVertex
100
AcDb2dVertex
 10
197.814041
 20
-11.831088
 30
0.0
  0
VERTEX
  5
45
100
AcDbEntity
  8
0
370
     0
390
0
100
AcDbVertex
100
AcDb2dVertex
 10
197.814041
 20
-11.38224
 30
0.0
  0
VERTEX
  5
46
100
AcDbEntity
  8
0
370
     0
390
0
100
AcDbVertex
100
AcDb2dVertex
 10
197.410583
 20
-11.38224
 30
0.0
  0
SEQEND
  5
47
100
AcDbEntity
  8
0
370
     0
390
0
  0
POLYLINE
  5
48
100
AcDbEntity
  8
0
370
    13
390
0
 62
     7
100
AcDb2dPolyline
 66
     1
 10
0.0
 20
0.0
 30
0.0
 70
     1
 71
    16
  0
VERTEX
  5
49
100
AcDbEntity
  8
0
370
     0
390
0
100
AcDbVertex
100
AcDb2dVertex
 10
200.149048
 20
-12.738869
 30
0.0
  0
VERTEX
  5
4A
100
AcDbEntity
  8
0
370
     0
390
0
100
AcDbVertex
100
AcDb2dVertex
 10
200.229752
 20
-13.354143
 30
0.0
  0
VERTEX
  5
4B
100
AcDbEntity
  8
0
370
     0
390
0
100
AcDbVertex
100
AcDb2dVertex
 10
200.461731
 20
-13.808033
 30
0.0
  0
VERTEX
  5
4C
100
AcDbEntity
  8
0
370
     0
390
0
100
AcDbVertex
100
AcDb2dVertex
 10
200.829895
 20
-14.090454
 30
0.0
  0
VERTEX
  5
4D
100
AcDbEntity
  8
0
370
     0
390
0
100
AcDbVertex
100
AcDb2dVertex
 10
201.324127
 20
-14.186275
 30
0.0
  0
VERTEX
  5
4E
100
AcDbEntity
  8
0
370
     0
390
0
100
AcDbVertex
100
AcDb2dVertex
 10
201.813324
 20
-14.090454
 30
0.0
  0
VERTEX
  5
4F
100
AcDbEntity
  8
0
370
     0
390
0
100
AcDbVertex
100
AcDb2dVertex
 10
202.181473
 20
-13.813077
 30
0.0
  0
VERTEX
  5
50
100
AcDbEntity
  8
0
370
     0
390
0
100
AcDbVertex
100
AcDb2dVertex
 10
202.413467
 20
-13.359186
 30
0.0
  0
VERTEX
  5
51
100
AcDbEntity
  8
0
370
     0
390
0
100
AcDbVertex
100
AcDb2dVertex
 10
202.499207
 20
-12.738869
 30
0.0
  0
VERTEX
  5
52
100
AcDbEntity
  8
0
370
     0
390
0
100
AcDbVertex
100
AcDb2dVertex
 10
202.413467
 20
-12.123595
 30
0.0
  0
VERTEX
  5
53
100
AcDbEntity
  8
0
370
     0
390
0
100
AcDbVertex
100
AcDb2dVertex
 10
202.181473
 20
-11.664661
 30
0.0
  0
VERTEX
  5
54
100
AcDbEntity
  8
0
370
     0
390
0
100
AcDbVertex
100
AcDb2dVertex
 10
201.813324
 20
-11.387284
 30
0.0
  0
VERTEX
  5
55
100
AcDbEntity
  8
0
370
     0
390
0
100
AcDbVertex
100
AcDb2dVertex
 10
201.324127
 20
-11.286419
 30
0.0
  0
VERTEX
  5
56
100
AcDbEntity
  8
0
370
     0
390
0
100
AcDbVertex
100
AcDb2dVertex
 10
200.829895
 20
-11.387284
 30
0.0
  0
VERTEX
  5
57
100
AcDbEntity
  8
0
370
     0
390
0
100
AcDbVertex
100
AcDb2dVertex
 10
200.461731
 20
-11.669704
 30
0.0
  0
VERTEX
  5
58
100
AcDbEntity
  8
0
370
     0
390
0
100
AcDbVertex
100
AcDb2dVertex
 10
200.229752
 20
-12.123595
 30
0.0
  0
SEQEND
  5
59
100
AcDbEntity
  8
0
370
     0
390
0
  0
POLYLINE
  5
5A
100
AcDbEntity
  8
0
370
    13
390
0
 62
     7
100
AcDb2dPolyline
 66
     1
 10
0.0
 20
0.0
 30
0.0
 70
     1
 71
    16
  0
VERTEX
  5
5B
100
AcDbEntity
  8
0
370
     0
390
0
100
AcDbVertex
100
AcDb2dVertex
 10
200.602951
 20
-12.733826
 30
0.0
  0
VERTEX
  5
5C
100
AcDbEntity
  8
0
370
     0
390
0
100
AcDbVertex
100
AcDb2dVertex
 10
200.648331
 20
-12.279936
 30
0.0
  0
VERTEX
  5
5D
100
AcDbEntity
  8
0
370
     0
390
0
100
AcDbVertex
100
AcDb2dVertex
 10
200.789551
 20
-11.952126
 30
0.0
  0
VERTEX
  5
5E
100
AcDbEntity
  8
0
370
     0
390
0
100
AcDbVertex
100
AcDb2dVertex
 10
201.016495
 20
-11.750397
 30
0.0
  0
VERTEX
  5
5F
100
AcDbEntity
  8
0
370
     0
390
0
100
AcDbVertex
100
AcDb2dVertex
 10
201.324127
 20
-11.679791
 30
0.0
  0
VERTEX
  5
60
100
AcDbEntity
  8
0
370
     0
390
0
100
AcDbVertex
100
AcDb2dVertex
 10
201.626724
 20
-11.750397
 30
0.0
  0
VERTEX
  5
61
100
AcDbEntity
  8
0
370
     0
390
0
100
AcDbVertex
100
AcDb2dVertex
 10
201.853668
 20
-11.947083
 30
0.0
  0
VERTEX
  5
62
100
AcDbEntity
  8
0
370
     0
390
0
100
AcDbVertex
100
AcDb2dVertex
 10
201.994873
 20
-12.279936
 30
0.0
  0
VERTEX
  5
63
100
AcDbEntity
  8
0
370
     0
390
0
100
AcDbVertex
100
AcDb2dVertex
 10
202.045303
 20
-12.733826
 30
0.0
  0
VERTEX
  5
64
100
AcDbEntity
  8
0
370
     0
390
0
100
AcDbVertex
100
AcDb2dVertex
 10
201.994873
 20
-13.19276
 30
0.0
  0
VERTEX
  5
65
100
AcDbEntity
  8
0
370
     0
390
0
100
AcDbVertex
100
AcDb2dVertex
 10
201.853668
 20
-13.525613
 30
0.0
  0
VERTEX
  5
66
100
AcDbEntity
  8
0
370
     0
390
0
100
AcDbVertex
100
AcDb2dVertex
 10
201.626724
 20
-13.727342
 30
0.0
  0
VERTEX
  5
67
100
AcDbEntity
  8
0
370
     0
390
0
100
AcDbVertex
100
AcDb2dVertex
 10
201.324127
 20
-13.792904
 30
0.0
  0
VERTEX
  5
68
100
AcDbEntity
  8
0
370
     0
390
0
100
AcDbVertex
100
AcDb2dVertex
 10
201.016495
 20
-13.727342
 30
0.0
  0
VERTEX
  5
69
100
AcDbEntity
  8
0
370
     0
390
0
100
AcDbVertex
100
AcDb2dVertex
 10
200.789551
 20
-13.525613
 30
0.0
  0
VERTEX
  5
6A
100
AcDbEntity
  8
0
370
     0
390
0
100
AcDbVertex
100
AcDb2dVertex
 10
200.648331
 20
-13.19276
 30
0.0
  0
SEQEND
  5
6B
100
AcDbEntity
  8
0
370
     0
390
0
  0
POLYLINE
  5
6C
100
AcDbEntity
  8
0
370
    13
390
0
 62
     7
100
AcDb2dPolyline
 66
     1
 10
0.0
 20
0.0
 30
0.0
 70
     1
 71
    24
  0
VERTEX
  5
6D
100
AcDbEntity
  8
0
370
     0
390
0
100
AcDbVertex
100
AcDb2dVertex
 10
203.316208
 20
-14.090454
 30
0.0
  0
VERTEX
  5
6E
100
AcDbEntity
  8
0
370
     0
390
0
100
AcDbVertex
100
AcDb2dVertex
 10
203.76001
 20
-14.090454
 30
0.0
  0
VERTEX
  5
6F
100
AcDbEntity
  8
0
370
     0
390
0
100
AcDbVertex
100
AcDb2dVertex
 10
203.76001
 20
-12.527054
 30
0.0
  0
VERTEX
  5
70
100
AcDbEntity
  8
0
370
     0
390
0
100
AcDbVertex
100
AcDb2dVertex
 10
203.805389
 20
-12.168984
 30
0.0
  0
VERTEX
  5
71
100
AcDbEntity
  8
0
370
     0
390
0
100
AcDbVertex
100
AcDb2dVertex
 10
203.951645
 20
-11.906736
 30
0.0
  0
VERTEX
  5
72
100
AcDbEntity
  8
0
370
     0
390
0
100
AcDbVertex
100
AcDb2dVertex
 10
204.178589
 20
-11.745354
 30
0.0
  0
VERTEX
  5
73
100
AcDbEntity
  8
0
370
     0
390
0
100
AcDbVertex
100
AcDb2dVertex
 10
204.481186
 20
-11.684834
 30
0.0
  0
VERTEX
  5
74
100
AcDbEntity
  8
0
370
     0
390
0
100
AcDbVertex
100
AcDb2dVertex
 10
204.723267
 20
-11.735267
 30
0.0
  0
VERTEX
  5
75
100
AcDbEntity
  8
0
370
     0
390
0
100
AcDbVertex
100
AcDb2dVertex
 10
204.874557
 20
-11.871434
 30
0.0
  0
VERTEX
  5
76
100
AcDbEntity
  8
0
370
     0
390
0
100
AcDbVertex
100
AcDb2dVertex
 10
204.950211
 20
-12.098379
 30
0.0
  0
VERTEX
  5
77
100
AcDbEntity
  8
0
370
     0
390
0
100
AcDbVertex
100
AcDb2dVertex
 10
204.975418
 20
-12.400972
 30
0.0
  0
VERTEX
  5
78
100
AcDbEntity
  8
0
370
     0
390
0
100
AcDbVertex
100
AcDb2dVertex
 10
204.975418
 20
-14.090454
 30
0.0
  0
VERTEX
  5
79
100
AcDbEntity
  8
0
370
     0
390
0
100
AcDbVertex
100
AcDb2dVertex
 10
205.419235
 20
-14.090454
 30
0.0
  0
VERTEX
  5
7A
100
AcDbEntity
  8
0
370
     0
390
0
100
AcDbVertex
100
AcDb2dVertex
 10
205.419235
 20
-12.310195
 30
0.0
  0
VERTEX
  5
7B
100
AcDbEntity
  8
0
370
     0
390
0
100
AcDbVertex
100
AcDb2dVertex
 10
205.399048
 20
-11.952126
 30
0.0
  0
VERTEX
  5
7C
100
AcDbEntity
  8
0
370
     0
390
0
100
AcDbVertex
100
AcDb2dVertex
 10
205.308273
 20
-11.654575
 30
0.0
  0
VERTEX
  5
7D
100
AcDbEntity
  8
0
370
     0
390
0
100
AcDbVertex
100
AcDb2dVertex
 10
205.010727
 20
-11.38224
 30
0.0
  0
VERTEX
  5
7E
100
AcDbEntity
  8
0
370
     0
390
0
100
AcDbVertex
100
AcDb2dVertex
 10
204.546753
 20
-11.286419
 30
0.0
  0
VERTEX
  5
7F
100
AcDbEntity
  8
0
370
     0
390
0
100
AcDbVertex
100
AcDb2dVertex
 10
204.289551
 20
-11.321722
 30
0.0
  0
VERTEX
  5
80
100
AcDbEntity
  8
0
370
     0
390
0
100
AcDbVertex
100
AcDb2dVertex
 10
204.072693
 20
-11.417543
 30
0.0
  0
VERTEX
  5
81
100
AcDbEntity
  8
0
370
     0
390
0
100
AcDbVertex
100
AcDb2dVertex
 10
203.886093
 20
-11.578927
 30
0.0
  0
VERTEX
  5
82
100
AcDbEntity
  8
0
370
     0
390
0
100
AcDbVertex
100
AcDb2dVertex
 10
203.739838
 20
-11.795786
 30
0.0
  0
VERTEX
  5
83
100
AcDbEntity
  8
0
370
     0
390
0
100
AcDbVertex
100
AcDb2dVertex
 10
203.739838
 20
-11.38224
 30
0.0
  0
VERTEX
  5
84
100
AcDbEntity
  8
0
370
     0
390
0
100
AcDbVertex
100
AcDb2dVertex
 10
203.316208
 20
-11.38224
 30
0.0
  0
SEQEND
  5
85
100
AcDbEntity
  8
0
370
     0
390
0
  0
POLYLINE
  5
86
100
AcDbEntity
  8
0
370
    13
390
0
 62
     7
100
AcDb2dPolyline
 66
     1
 10
0.0
 20
0.0
 30
0.0
 70
     1
 71
    22
  0
VERTEX
  5
87
100
AcDbEntity
  8
0
370
     0
390
0
100
AcDbVertex
100
AcDb2dVertex
 10
206.947327
 20
-11.851261
 30
0.0
  0
VERTEX
  5
88
100
AcDbEntity
  8
0
370
     0
390
0
100
AcDbVertex
100
AcDb2dVertex
 10
206.947327
 20
-13.20789
 30
0.0
  0
VERTEX
  5
89
100
AcDbEntity
  8
0
370
     0
390
0
100
AcDbVertex
100
AcDb2dVertex
 10
206.977585
 20
-13.64665
 30
0.0
  0
VERTEX
  5
8A
100
AcDbEntity
  8
0
370
     0
390
0
100
AcDbVertex
100
AcDb2dVertex
 10
207.11879
 20
-13.949244
 30
0.0
  0
VERTEX
  5
8B
100
AcDbEntity
  8
0
370
     0
390
0
100
AcDbVertex
100
AcDb2dVertex
 10
207.401215
 20
-14.125756
 30
0.0
  0
VERTEX
  5
8C
100
AcDbEntity
  8
0
370
     0
390
0
100
AcDbVertex
100
AcDb2dVertex
 10
207.880325
 20
-14.186275
 30
0.0
  0
VERTEX
  5
8D
100
AcDbEntity
  8
0
370
     0
390
0
100
AcDbVertex
100
AcDb2dVertex
 10
208.404816
 20
-14.161059
 30
0.0
  0
VERTEX
  5
8E
100
AcDbEntity
  8
0
370
     0
390
0
100
AcDbVertex
100
AcDb2dVertex
 10
208.404816
 20
-13.777774
 30
0.0
  0
VERTEX
  5
8F
100
AcDbEntity
  8
0
370
     0
390
0
100
AcDbVertex
100
AcDb2dVertex
 10
208.02153
 20
-13.808033
 30
0.0
  0
VERTEX
  5
90
100
AcDbEntity
  8
0
370
     0
390
0
100
AcDbVertex
100
AcDb2dVertex
 10
207.673553
 20
-13.767688
 30
0.0
  0
VERTEX
  5
91
100
AcDbEntity
  8
0
370
     0
390
0
100
AcDbVertex
100
AcDb2dVertex
 10
207.486954
 20
-13.641607
 30
0.0
  0
VERTEX
  5
92
100
AcDbEntity
  8
0
370
     0
390
0
100
AcDbVertex
100
AcDb2dVertex
 10
207.406265
 20
-13.429791
 30
0.0
  0
VERTEX
  5
93
100
AcDbEntity
  8
0
370
     0
390
0
100
AcDbVertex
100
AcDb2dVertex
 10
207.391129
 20
-13.132241
 30
0.0
  0
VERTEX
  5
94
100
AcDbEntity
  8
0
370
     0
390
0
100
AcDbVertex
100
AcDb2dVertex
 10
207.391129
 20
-11.851261
 30
0.0
  0
VERTEX
  5
95
100
AcDbEntity
  8
0
370
     0
390
0
100
AcDbVertex
100
AcDb2dVertex
 10
208.404816
 20
-11.851261
 30
0.0
  0
VERTEX
  5
96
100
AcDbEntity
  8
0
370
     0
390
0
100
AcDbVertex
100
AcDb2dVertex
 10
208.404816
 20
-11.473019
 30
0.0
  0
VERTEX
  5
97
100
AcDbEntity
  8
0
370
     0
390
0
100
AcDbVertex
100
AcDb2dVertex
 10
207.391129
 20
-11.473019
 30
0.0
  0
VERTEX
  5
98
100
AcDbEntity
  8
0
370
     0
390
0
100
AcDbVertex
100
AcDb2dVertex
 10
207.391129
 20
-10.681232
 30
0.0
  0
VERTEX
  5
99
100
AcDbEntity
  8
0
370
     0
390
0
100
AcDbVertex
100
AcDb2dVertex
 10
206.947327
 20
-10.681232
 30
0.0
  0
VERTEX
  5
9A
100
AcDbEntity
  8
0
370
     0
390
0
100
AcDbVertex
100
AcDb2dVertex
 10
206.947327
 20
-11.473019
 30
0.0
  0
VERTEX
  5
9B
100
AcDbEntity
  8
0
370
     0
390
0
100
AcDbVertex
100
AcDb2dVertex
 10
206.180756
 20
-11.473019
 30
0.0
  0
VERTEX
  5
9C
100
AcDbEntity
  8
0
370
     0
390
0
100
AcDbVertex
100
AcDb2dVertex
 10
206.180756
 20
-11.851261
 30
0.0
  0
SEQEND
  5
9D
100
AcDbEntity
  8
0
370
     0
390
0
  0
POLYLINE
  5
9E
100
AcDbEntity
  8
0
370
    13
390
0
 62
     7
100
AcDb2dPolyline
 66
     1
 10
0.0
 20
0.0
 30
0.0
 70
     1
 71
     7
  0
VERTEX
  5
9F
100
AcDbEntity
  8
0
370
     0
390
0
100
AcDbVertex
100
AcDb2dVertex
 10
213.236237
 20
-14.090454
 30
0.0
  0
VERTEX
  5
A0
100
AcDbEntity
  8
0
370
     0
390
0
100
AcDbVertex
100
AcDb2dVertex
 10
213.705246
 20
-14.090454
 30
0.0
  0
VERTEX
  5
A1
100
AcDbEntity
  8
0
370
     0
390
0
100
AcDbVertex
100
AcDb2dVertex
 10
214.693726
 20
-11.38224
 30
0.0
  0
VERTEX
  5
A2
100
AcDbEntity
  8
0
370
     0
390
0
100
AcDbVertex
100
AcDb2dVertex
 10
214.234787
 20
-11.38224
 30
0.0
  0
VERTEX
  5
A3
100
AcDbEntity
  8
0
370
     0
390
0
100
AcDbVertex
100
AcDb2dVertex
 10
213.473267
 20
-13.565958
 30
0.0
  0
VERTEX
  5
A4
100
AcDbEntity
  8
0
370
     0
390
0
100
AcDbVertex
100
AcDb2dVertex
 10
212.696609
 20
-11.38224
 30
0.0
  0
VERTEX
  5
A5
100
AcDbEntity
  8
0
370
     0
390
0
100
AcDbVertex
100
AcDb2dVertex
 10
212.232635
 20
-11.38224
 30
0.0
  0
SEQEND
  5
A6
100
AcDbEntity
  8
0
370
     0
390
0
  0
POLYLINE
  5
A7
100
AcDbEntity
  8
0
370
    13
390
0
 62
     7
100
AcDb2dPolyline
 66
     1
 10
0.0
 20
0.0
 30
0.0
 70
     1
 71
    10
  0
VERTEX
  5
A8
100
AcDbEntity
  8
0
370
     0
390
0
100
AcDbVertex
100
AcDb2dVertex
 10
216.816925
 20
-13.717256
 30
0.0
  0
VERTEX
  5
A9
100
AcDbEntity
  8
0
370
     0
390
0
100
AcDbVertex
100
AcDb2dVertex
 10
216.816925
 20
-11.473019
 30
0.0
  0
VERTEX
  5
AA
100
AcDbEntity
  8
0
370
     0
390
0
100
AcDbVertex
100
AcDb2dVertex
 10
215.677155
 20
-11.473019
 30
0.0
  0
VERTEX
  5
AB
100
AcDbEntity
  8
0
370
     0
390
0
100
AcDbVertex
100
AcDb2dVertex
 10
215.677155
 20
-11.851261
 30
0.0
  0
VERTEX
  5
AC
100
AcDbEntity
  8
0
370
     0
390
0
100
AcDbVertex
100
AcDb2dVertex
 10
216.373123
 20
-11.851261
 30
0.0
  0
VERTEX
  5
AD
100
AcDbEntity
  8
0
370
     0
390
0
100
AcDbVertex
100
AcDb2dVertex
 10
216.373123
 20
-13.717256
 30
0.0
  0
VERTEX
  5
AE
100
AcDbEntity
  8
0
370
     0
390
0
100
AcDbVertex
100
AcDb2dVertex
 10
215.465332
 20
-13.717256
 30
0.0
  0
VERTEX
  5
AF
100
AcDbEntity
  8
0
370
     0
390
0
100
AcDbVertex
100
AcDb2dVertex
 10
215.465332
 20
-14.090454
 30
0.0
  0
VERTEX
  5
B0
100
AcDbEntity
  8
0
370
     0
390
0
100
AcDbVertex
100
AcDb2dVertex
 10
217.734787
 20
-14.090454
 30
0.0
  0
VERTEX
  5
B1
100
AcDbEntity
  8
0
370
     0
390
0
100
AcDbVertex
100
AcDb2dVertex
 10
217.734787
 20
-13.717256
 30
0.0
  0
SEQEND
  5
B2
100
AcDbEntity
  8
0
370
     0
390
0
  0
POLYLINE
  5
B3
100
AcDbEntity
  8
0
370
    13
390
0
 62
     7
100
AcDb2dPolyline
 66
     1
 10
0.0
 20
0.0
 30
0.0
 70
     1
 71
     4
  0
VERTEX
  5
B4
100
AcDbEntity
  8
0
370
     0
390
0
100
AcDbVertex
100
AcDb2dVertex
 10
216.832062
 20
-10.469417
 30
0.0
  0
VERTEX
  5
B5
100
AcDbEntity
  8
0
370
     0
390
0
100
AcDbVertex
100
AcDb2dVertex
 10
216.363037
 20
-10.469417
 30
0.0
  0
VERTEX
  5
B6
100
AcDbEntity
  8
0
370
     0
390
0
100
AcDbVertex
100
AcDb2dVertex
 10
216.363037
 20
-10.97374
 30
0.0
  0
VERTEX
  5
B7
100
AcDbEntity
  8
0
370
     0
390
0
100
AcDbVertex
100
AcDb2dVertex
 10
216.832062
 20
-10.97374
 30
0.0
  0
SEQEND
  5
B8
100
AcDbEntity
  8
0
370
     0
390
0
  0
POLYLINE
  5
B9
100
AcDbEntity
  8
0
370
    13
390
0
 62
     7
100
AcDb2dPolyline
 66
     1
 10
0.0
 20
0.0
 30
0.0
 70
     1
 71
    27
  0
VERTEX
  5
BA
100
AcDbEntity
  8
0
370
     0
390
0
100
AcDbVertex
100
AcDb2dVertex
 10
218.884644
 20
-12.86495
 30
0.0
  0
VERTEX
  5
BB
100
AcDbEntity
  8
0
370
     0
390
0
100
AcDbVertex
100
AcDb2dVertex
 10
220.659866
 20
-12.86495
 30
0.0
  0
VERTEX
  5
BC
100
AcDbEntity
  8
0
370
     0
390
0
100
AcDbVertex
100
AcDb2dVertex
 10
220.664902
 20
-12.658177
 30
0.0
  0
VERTEX
  5
BD
100
AcDbEntity
  8
0
370
     0
390
0
100
AcDbVertex
100
AcDb2dVertex
 10
220.584213
 20
-12.078206
 30
0.0
  0
VERTEX
  5
BE
100
AcDbEntity
  8
0
370
     0
390
0
100
AcDbVertex
100
AcDb2dVertex
 10
220.362305
 20
-11.644488
 30
0.0
  0
VERTEX
  5
BF
100
AcDbEntity
  8
0
370
     0
390
0
100
AcDbVertex
100
AcDb2dVertex
 10
220.009293
 20
-11.38224
 30
0.0
  0
VERTEX
  5
C0
100
AcDbEntity
  8
0
370
     0
390
0
100
AcDbVertex
100
AcDb2dVertex
 10
219.540268
 20
-11.286419
 30
0.0
  0
VERTEX
  5
C1
100
AcDbEntity
  8
0
370
     0
390
0
100
AcDbVertex
100
AcDb2dVertex
 10
219.081329
 20
-11.387284
 30
0.0
  0
VERTEX
  5
C2
100
AcDbEntity
  8
0
370
     0
390
0
100
AcDbVertex
100
AcDb2dVertex
 10
218.728302
 20
-11.669704
 30
0.0
  0
VERTEX
  5
C3
100
AcDbEntity
  8
0
370
     0
390
0
100
AcDbVertex
100
AcDb2dVertex
 10
218.501358
 20
-12.128638
 30
0.0
  0
VERTEX
  5
C4
100
AcDbEntity
  8
0
370
     0
390
0
100
AcDbVertex
100
AcDb2dVertex
 10
218.42067
 20
-12.733826
 30
0.0
  0
VERTEX
  5
C5
100
AcDbEntity
  8
0
370
     0
390
0
100
AcDbVertex
100
AcDb2dVertex
 10
218.496323
 20
-13.354143
 30
0.0
  0
VERTEX
  5
C6
100
AcDbEntity
  8
0
370
     0
390
0
100
AcDbVertex
100
AcDb2dVertex
 10
218.723267
 20
-13.808033
 30
0.0
  0
VERTEX
  5
C7
100
AcDbEntity
  8
0
370
     0
390
0
100
AcDbVertex
100
AcDb2dVertex
 10
219.071243
 20
-14.090454
 30
0.0
  0
VERTEX
  5
C8
100
AcDbEntity
  8
0
370
     0
390
0
100
AcDbVertex
100
AcDb2dVertex
 10
219.525131
 20
-14.186275
 30
0.0
  0
VERTEX
  5
C9
100
AcDbEntity
  8
0
370
     0
390
0
100
AcDbVertex
100
AcDb2dVertex
 10
219.918503
 20
-14.120713
 30
0.0
  0
VERTEX
  5
CA
100
AcDbEntity
  8
0
370
     0
390
0
100
AcDbVertex
100
AcDb2dVertex
 10
220.241272
 20
-13.949244
 30
0.0
  0
VERTEX
  5
CB
100
AcDbEntity
  8
0
370
     0
390
0
100
AcDbVertex
100
AcDb2dVertex
 10
220.478302
 20
-13.676909
 30
0.0
  0
VERTEX
  5
CC
100
AcDbEntity
  8
0
370
     0
390
0
100
AcDbVertex
100
AcDb2dVertex
 10
220.614471
 20
-13.313797
 30
0.0
  0
VERTEX
  5
CD
100
AcDbEntity
  8
0
370
     0
390
0
100
AcDbVertex
100
AcDb2dVertex
 10
220.17572
 20
-13.313797
 30
0.0
  0
VERTEX
  5
CE
100
AcDbEntity
  8
0
370
     0
390
0
100
AcDbVertex
100
AcDb2dVertex
 10
220.08493
 20
-13.515526
 30
0.0
  0
VERTEX
  5
CF
100
AcDbEntity
  8
0
370
     0
390
0
100
AcDbVertex
100
AcDb2dVertex
 10
219.953812
 20
-13.666823
 30
0.0
  0
VERTEX
  5
D0
100
AcDbEntity
  8
0
370
     0
390
0
100
AcDbVertex
100
AcDb2dVertex
 10
219.580612
 20
-13.787861
 30
0.0
  0
VERTEX
  5
D1
100
AcDbEntity
  8
0
370
     0
390
0
100
AcDbVertex
100
AcDb2dVertex
 10
219.293152
 20
-13.732385
 30
0.0
  0
VERTEX
  5
D2
100
AcDbEntity
  8
0
370
     0
390
0
100
AcDbVertex
100
AcDb2dVertex
 10
219.076294
 20
-13.555872
 30
0.0
  0
VERTEX
  5
D3
100
AcDbEntity
  8
0
370
     0
390
0
100
AcDbVertex
100
AcDb2dVertex
 10
218.935074
 20
-13.268408
 30
0.0
  0
VERTEX
  5
D4
100
AcDbEntity
  8
0
370
     0
390
0
100
AcDbVertex
100
AcDb2dVertex
 10
218.884644
 20
-12.880079
 30
0.0
  0
SEQEND
  5
D5
100
AcDbEntity
  8
0
370
     0
390
0
  0
POLYLINE
  5
D6
100
AcDbEntity
  8
0
370
    13
390
0
 62
     7
100
AcDb2dPolyline
 66
     1
 10
0.0
 20
0.0
 30
0.0
 70
     1
 71
     9
  0
VERTEX
  5
D7
100
AcDbEntity
  8
0
370
     0
390
0
100
AcDbVertex
100
AcDb2dVertex
 10
218.884644
 20
-12.491751
 30
0.0
  0
VERTEX
  5
D8
100
AcDbEntity
  8
0
370
     0
390
0
100
AcDbVertex
100
AcDb2dVertex
 10
218.940125
 20
-12.143768
 30
0.0
  0
VERTEX
  5
D9
100
AcDbEntity
  8
0
370
     0
390
0
100
AcDbVertex
100
AcDb2dVertex
 10
219.076294
 20
-11.886563
 30
0.0
  0
VERTEX
  5
DA
100
AcDbEntity
  8
0
370
     0
390
0
100
AcDbVertex
100
AcDb2dVertex
 10
219.283066
 20
-11.730224
 30
0.0
  0
VERTEX
  5
DB
100
AcDbEntity
  8
0
370
     0
390
0
100
AcDbVertex
100
AcDb2dVertex
 10
219.555389
 20
-11.674747
 30
0.0
  0
VERTEX
  5
DC
100
AcDbEntity
  8
0
370
     0
390
0
100
AcDbVertex
100
AcDb2dVertex
 10
219.822693
 20
-11.730224
 30
0.0
  0
VERTEX
  5
DD
100
AcDbEntity
  8
0
370
     0
390
0
100
AcDbVertex
100
AcDb2dVertex
 10
220.029465
 20
-11.886563
 30
0.0
  0
VERTEX
  5
DE
100
AcDbEntity
  8
0
370
     0
390
0
100
AcDbVertex
100
AcDb2dVertex
 10
220.155548
 20
-12.143768
 30
0.0
  0
VERTEX
  5
DF
100
AcDbEntity
  8
0
370
     0
390
0
100
AcDbVertex
100
AcDb2dVertex
 10
220.200928
 20
-12.491751
 30
0.0
  0
SEQEND
  5
E0
100
AcDbEntity
  8
0
370
     0
390
0
  0
POLYLINE
  5
E1
100
AcDbEntity
  8
0
370
    13
390
0
 62
     7
100
AcDb2dPolyline
 66
     1
 10
0.0
 20
0.0
 30
0.0
 70
     1
 71
    13
  0
VERTEX
  5
E2
100
AcDbEntity
  8
0
370
     0
390
0
100
AcDbVertex
100
AcDb2dVertex
 10
222.172836
 20
-14.090454
 30
0.0
  0
VERTEX
  5
E3
100
AcDbEntity
  8
0
370
     0
390
0
100
AcDbVertex
100
AcDb2dVertex
 10
222.576294
 20
-11.790742
 30
0.0
  0
VERTEX
  5
E4
100
AcDbEntity
  8
0
370
     0
390
0
100
AcDbVertex
100
AcDb2dVertex
 10
222.979752
 20
-14.090454
 30
0.0
  0
VERTEX
  5
E5
100
AcDbEntity
  8
0
370
     0
390
0
100
AcDbVertex
100
AcDb2dVertex
 10
223.403381
 20
-14.090454
 30
0.0
  0
VERTEX
  5
E6
100
AcDbEntity
  8
0
370
     0
390
0
100
AcDbVertex
100
AcDb2dVertex
 10
224.069092
 20
-11.38224
 30
0.0
  0
VERTEX
  5
E7
100
AcDbEntity
  8
0
370
     0
390
0
100
AcDbVertex
100
AcDb2dVertex
 10
223.640411
 20
-11.38224
 30
0.0
  0
VERTEX
  5
E8
100
AcDbEntity
  8
0
370
     0
390
0
100
AcDbVertex
100
AcDb2dVertex
 10
223.191559
 20
-13.681952
 30
0.0
  0
VERTEX
  5
E9
100
AcDbEntity
  8
0
370
     0
390
0
100
AcDbVertex
100
AcDb2dVertex
 10
222.793152
 20
-11.38224
 30
0.0
  0
VERTEX
  5
EA
100
AcDbEntity
  8
0
370
     0
390
0
100
AcDbVertex
100
AcDb2dVertex
 10
222.354385
 20
-11.38224
 30
0.0
  0
VERTEX
  5
EB
100
AcDbEntity
  8
0
370
     0
390
0
100
AcDbVertex
100
AcDb2dVertex
 10
221.955963
 20
-13.681952
 30
0.0
  0
VERTEX
  5
EC
100
AcDbEntity
  8
0
370
     0
390
0
100
AcDbVertex
100
AcDb2dVertex
 10
221.507126
 20
-11.38224
 30
0.0
  0
VERTEX
  5
ED
100
AcDbEntity
  8
0
370
     0
390
0
100
AcDbVertex
100
AcDb2dVertex
 10
221.083496
 20
-11.38224
 30
0.0
  0
VERTEX
  5
EE
100
AcDbEntity
  8
0
370
     0
390
0
100
AcDbVertex
100
AcDb2dVertex
 10
221.749207
 20
-14.090454
 30
0.0
  0
SEQEND
  5
EF
100
AcDbEntity
  8
0
370
     0
390
0
  0
POLYLINE
  5
F0
100
AcDbEntity
  8
0
370
    13
390
0
 62
     7
100
AcDb2dPolyline
 66
     1
 10
0.0
 20
0.0
 30
0.0
 70
     1
 71
    51
  0
VERTEX
  5
F1
100
AcDbEntity
  8
0
370
     0
390
0
100
AcDbVertex
100
AcDb2dVertex
 10
194.455246
 20
-18.982384
 30
0.0
  0
VERTEX
  5
F2
100
AcDbEntity
  8
0
370
     0
390
0
100
AcDbVertex
100
AcDb2dVertex
 10
193.996323
 20
-18.982384
 30
0.0
  0
VERTEX
  5
F3
100
AcDbEntity
  8
0
370
     0
390
0
100
AcDbVertex
100
AcDb2dVertex
 10
194.097183
 20
-19.516966
 30
0.0
  0
VERTEX
  5
F4
100
AcDbEntity
  8
0
370
     0
390
0
100
AcDbVertex
100
AcDb2dVertex
 10
194.34935
 20
-19.910337
 30
0.0
  0
VERTEX
  5
F5
100
AcDbEntity
  8
0
370
     0
390
0
100
AcDbVertex
100
AcDb2dVertex
 10
194.737671
 20
-20.147369
 30
0.0
  0
VERTEX
  5
F6
100
AcDbEntity
  8
0
370
     0
390
0
100
AcDbVertex
100
AcDb2dVertex
 10
195.262161
 20
-20.233105
 30
0.0
  0
VERTEX
  5
F7
100
AcDbEntity
  8
0
370
     0
390
0
100
AcDbVertex
100
AcDb2dVertex
 10
195.781616
 20
-20.152412
 30
0.0
  0
VERTEX
  5
F8
100
AcDbEntity
  8
0
370
     0
390
0
100
AcDbVertex
100
AcDb2dVertex
 10
196.169952
 20
-19.930511
 30
0.0
  0
VERTEX
  5
F9
100
AcDbEntity
  8
0
370
     0
390
0
100
AcDbVertex
100
AcDb2dVertex
 10
196.417068
 20
-19.582529
 30
0.0
  0
VERTEX
  5
FA
100
AcDbEntity
  8
0
370
     0
390
0
100
AcDbVertex
100
AcDb2dVertex
 10
196.507843
 20
-19.123594
 30
0.0
  0
VERTEX
  5
FB
100
AcDbEntity
  8
0
370
     0
390
0
100
AcDbVertex
100
AcDb2dVertex
 10
196.43219
 20
-18.710051
 30
0.0
  0
VERTEX
  5
FC
100
AcDbEntity
  8
0
370
     0
390
0
100
AcDbVertex
100
AcDb2dVertex
 10
196.220383
 20
-18.442759
 30
0.0
  0
VERTEX
  5
FD
100
AcDbEntity
  8
0
370
     0
390
0
100
AcDbVertex
100
AcDb2dVertex
 10
195.877441
 20
-18.266247
 30
0.0
  0
VERTEX
  5
FE
100
AcDbEntity
  8
0
370
     0
390
0
100
AcDbVertex
100
AcDb2dVertex
 10
195.418503
 20
-18.135122
 30
0.0
  0
VERTEX
  5
FF
100
AcDbEntity
  8
0
370
     0
390
0
100
AcDbVertex
100
AcDb2dVertex
 10
195.025131
 20
-18.039301
 30
0.0
  0
VERTEX
  5
100
100
AcDbEntity
  8
0
370
     0
390
0
100
AcDbVertex
100
AcDb2dVertex
 10
194.767929
 20
-17.928349
 30
0.0
  0
VERTEX
  5
101
100
AcDbEntity
  8
0
370
     0
390
0
100
AcDbVertex
100
AcDb2dVertex
 10
194.621674
 20
-17.766966
 30
0.0
  0
VERTEX
  5
102
100
AcDbEntity
  8
0
370
     0
390
0
100
AcDbVertex
100
AcDb2dVertex
 10
194.576294
 20
-17.514805
 30
0.0
  0
VERTEX
  5
103
100
AcDbEntity
  8
0
370
     0
390
0
100
AcDbVertex
100
AcDb2dVertex
 10
194.621674
 20
-17.287859
 30
0.0
  0
VERTEX
  5
104
100
AcDbEntity
  8
0
370
     0
390
0
100
AcDbVertex
100
AcDb2dVertex
 10
194.752808
 20
-17.11639
 30
0.0
  0
VERTEX
  5
105
100
AcDbEntity
  8
0
370
     0
390
0
100
AcDbVertex
100
AcDb2dVertex
 10
194.954529
 20
-17.000397
 30
0.0
  0
VERTEX
  5
106
100
AcDbEntity
  8
0
370
     0
390
0
100
AcDbVertex
100
AcDb2dVertex
 10
195.231903
 20
-16.960051
 30
0.0
  0
VERTEX
  5
107
100
AcDbEntity
  8
0
370
     0
390
0
100
AcDbVertex
100
AcDb2dVertex
 10
195.514328
 20
-17.010483
 30
0.0
  0
VERTEX
  5
108
100
AcDbEntity
  8
0
370
     0
390
0
100
AcDbVertex
100
AcDb2dVertex
 10
195.736237
 20
-17.146648
 30
0.0
  0
VERTEX
  5
109
100
AcDbEntity
  8
0
370
     0
390
0
100
AcDbVertex
100
AcDb2dVertex
 10
195.882492
 20
-17.373594
 30
0.0
  0
VERTEX
  5
10A
100
AcDbEntity
  8
0
370
     0
390
0
100
AcDbVertex
100
AcDb2dVertex
 10
195.953094
 20
-17.681232
 30
0.0
  0
VERTEX
  5
10B
100
AcDbEntity
  8
0
370
     0
390
0
100
AcDbVertex
100
AcDb2dVertex
 10
196.412018
 20
-17.681232
 30
0.0
  0
VERTEX
  5
10C
100
AcDbEntity
  8
0
370
     0
390
0
100
AcDbVertex
100
AcDb2dVertex
 10
196.412018
 20
-17.671144
 30
0.0
  0
VERTEX
  5
10D
100
AcDbEntity
  8
0
370
     0
390
0
100
AcDbVertex
100
AcDb2dVertex
 10
196.331329
 20
-17.197083
 30
0.0
  0
VERTEX
  5
10E
100
AcDbEntity
  8
0
370
     0
390
0
100
AcDbVertex
100
AcDb2dVertex
 10
196.094299
 20
-16.844055
 30
0.0
  0
VERTEX
  5
10F
100
AcDbEntity
  8
0
370
     0
390
0
100
AcDbVertex
100
AcDb2dVertex
 10
195.7211
 20
-16.622154
 30
0.0
  0
VERTEX
  5
110
100
AcDbEntity
  8
0
370
     0
390
0
100
AcDbVertex
100
AcDb2dVertex
 10
195.216782
 20
-16.546505
 30
0.0
  0
VERTEX
  5
111
100
AcDbEntity
  8
0
370
     0
390
0
100
AcDbVertex
100
AcDb2dVertex
 10
194.762894
 20
-16.622154
 30
0.0
  0
VERTEX
  5
112
100
AcDbEntity
  8
0
370
     0
390
0
100
AcDbVertex
100
AcDb2dVertex
 10
194.409866
 20
-16.833969
 30
0.0
  0
VERTEX
  5
113
100
AcDbEntity
  8
0
370
     0
390
0
100
AcDbVertex
100
AcDb2dVertex
 10
194.182922
 20
-17.161779
 30
0.0
  0
VERTEX
  5
114
100
AcDbEntity
  8
0
370
     0
390
0
100
AcDbVertex
100
AcDb2dVertex
 10
194.102219
 20
-17.585411
 30
0.0
  0
VERTEX
  5
115
100
AcDbEntity
  8
0
370
     0
390
0
100
AcDbVertex
100
AcDb2dVertex
 10
194.167786
 20
-17.963652
 30
0.0
  0
VERTEX
  5
116
100
AcDbEntity
  8
0
370
     0
390
0
100
AcDbVertex
100
AcDb2dVertex
 10
194.359436
 20
-18.220858
 30
0.0
  0
VERTEX
  5
117
100
AcDbEntity
  8
0
370
     0
390
0
100
AcDbVertex
100
AcDb2dVertex
 10
194.662018
 20
-18.392326
 30
0.0
  0
VERTEX
  5
118
100
AcDbEntity
  8
0
370
     0
390
0
100
AcDbVertex
100
AcDb2dVertex
 10
195.075562
 20
-18.523451
 30
0.0
  0
VERTEX
  5
119
100
AcDbEntity
  8
0
370
     0
390
0
100
AcDbVertex
100
AcDb2dVertex
 10
195.48407
 20
-18.639444
 30
0.0
  0
VERTEX
  5
11A
100
AcDbEntity
  8
0
370
     0
390
0
100
AcDbVertex
100
AcDb2dVertex
 10
195.791702
 20
-18.750395
 30
0.0
  0
VERTEX
  5
11B
100
AcDbEntity
  8
0
370
     0
390
0
100
AcDbVertex
100
AcDb2dVertex
 10
195.978302
 20
-18.911779
 30
0.0
  0
VERTEX
  5
11C
100
AcDbEntity
  8
0
370
     0
390
0
100
AcDbVertex
100
AcDb2dVertex
 10
196.043869
 20
-19.174026
 30
0.0
  0
VERTEX
  5
11D
100
AcDbEntity
  8
0
370
     0
390
0
100
AcDbVertex
100
AcDb2dVertex
 10
195.983353
 20
-19.441319
 30
0.0
  0
VERTEX
  5
11E
100
AcDbEntity
  8
0
370
     0
390
0
100
AcDbVertex
100
AcDb2dVertex
 10
195.827011
 20
-19.643047
 30
0.0
  0
VERTEX
  5
11F
100
AcDbEntity
  8
0
370
     0
390
0
100
AcDbVertex
100
AcDb2dVertex
 10
195.589981
 20
-19.769127
 30
0.0
  0
VERTEX
  5
120
100
AcDbEntity
  8
0
370
     0
390
0
100
AcDbVertex
100
AcDb2dVertex
 10
195.282333
 20
-19.809473
 30
0.0
  0
VERTEX
  5
121
100
AcDbEntity
  8
0
370
     0
390
0
100
AcDbVertex
100
AcDb2dVertex
 10
194.939407
 20
-19.753998
 30
0.0
  0
VERTEX
  5
122
100
AcDbEntity
  8
0
370
     0
390
0
100
AcDbVertex
100
AcDb2dVertex
 10
194.677155
 20
-19.592615
 30
0.0
  0
VERTEX
  5
123
100
AcDbEntity
  8
0
370
     0
390
0
100
AcDbVertex
100
AcDb2dVertex
 10
194.510727
 20
-19.330366
 30
0.0
  0
SEQEND
  5
124
100
AcDbEntity
  8
0
370
     0
390
0
  0
POLYLINE
  5
125
100
AcDbEntity
  8
0
370
    13
390
0
 62
     7
100
AcDb2dPolyline
 66
     1
 10
0.0
 20
0.0
 30
0.0
 70
     1
 71
    34
  0
VERTEX
  5
126
100
AcDbEntity
  8
0
370
     0
390
0
100
AcDbVertex
100
AcDb2dVertex
 10
198.968933
 20
-18.326765
 30
0.0
  0
VERTEX
  5
127
100
AcDbEntity
  8
0
370
     0
390
0
100
AcDbVertex
100
AcDb2dVertex
 10
199.4077
 20
-18.326765
 30
0.0
  0
VERTEX
  5
128
100
AcDbEntity
  8
0
370
     0
390
0
100
AcDbVertex
100
AcDb2dVertex
 10
199.316925
 20
-17.923306
 30
0.0
  0
VERTEX
  5
129
100
AcDbEntity
  8
0
370
     0
390
0
100
AcDbVertex
100
AcDb2dVertex
 10
199.100067
 20
-17.605583
 30
0.0
  0
VERTEX
  5
12A
100
AcDbEntity
  8
0
370
     0
390
0
100
AcDbVertex
100
AcDb2dVertex
 10
198.762161
 20
-17.408897
 30
0.0
  0
VERTEX
  5
12B
100
AcDbEntity
  8
0
370
     0
390
0
100
AcDbVertex
100
AcDb2dVertex
 10
198.32341
 20
-17.333248
 30
0.0
  0
VERTEX
  5
12C
100
AcDbEntity
  8
0
370
     0
390
0
100
AcDbVertex
100
AcDb2dVertex
 10
197.839264
 20
-17.434113
 30
0.0
  0
VERTEX
  5
12D
100
AcDbEntity
  8
0
370
     0
390
0
100
AcDbVertex
100
AcDb2dVertex
 10
197.4711
 20
-17.716534
 30
0.0
  0
VERTEX
  5
12E
100
AcDbEntity
  8
0
370
     0
390
0
100
AcDbVertex
100
AcDb2dVertex
 10
197.23912
 20
-18.175468
 30
0.0
  0
VERTEX
  5
12F
100
AcDbEntity
  8
0
370
     0
390
0
100
AcDbVertex
100
AcDb2dVertex
 10
197.158417
 20
-18.790741
 30
0.0
  0
VERTEX
  5
130
100
AcDbEntity
  8
0
370
     0
390
0
100
AcDbVertex
100
AcDb2dVertex
 10
197.23407
 20
-19.400972
 30
0.0
  0
VERTEX
  5
131
100
AcDbEntity
  8
0
370
     0
390
0
100
AcDbVertex
100
AcDb2dVertex
 10
197.461014
 20
-19.854862
 30
0.0
  0
VERTEX
  5
132
100
AcDbEntity
  8
0
370
     0
390
0
100
AcDbVertex
100
AcDb2dVertex
 10
197.819092
 20
-20.137283
 30
0.0
  0
VERTEX
  5
133
100
AcDbEntity
  8
0
370
     0
390
0
100
AcDbVertex
100
AcDb2dVertex
 10
198.308273
 20
-20.233105
 30
0.0
  0
VERTEX
  5
134
100
AcDbEntity
  8
0
370
     0
390
0
100
AcDbVertex
100
AcDb2dVertex
 10
198.741989
 20
-20.157455
 30
0.0
  0
VERTEX
  5
135
100
AcDbEntity
  8
0
370
     0
390
0
100
AcDbVertex
100
AcDb2dVertex
 10
199.079895
 20
-19.945641
 30
0.0
  0
VERTEX
  5
136
100
AcDbEntity
  8
0
370
     0
390
0
100
AcDbVertex
100
AcDb2dVertex
 10
199.311874
 20
-19.612787
 30
0.0
  0
VERTEX
  5
137
100
AcDbEntity
  8
0
370
     0
390
0
100
AcDbVertex
100
AcDb2dVertex
 10
199.41275
 20
-19.168983
 30
0.0
  0
VERTEX
  5
138
100
AcDbEntity
  8
0
370
     0
390
0
100
AcDbVertex
100
AcDb2dVertex
 10
198.989105
 20
-19.168983
 30
0.0
  0
VERTEX
  5
139
100
AcDbEntity
  8
0
370
     0
390
0
100
AcDbVertex
100
AcDb2dVertex
 10
198.913467
 20
-19.451405
 30
0.0
  0
VERTEX
  5
13A
100
AcDbEntity
  8
0
370
     0
390
0
100
AcDbVertex
100
AcDb2dVertex
 10
198.772247
 20
-19.663219
 30
0.0
  0
VERTEX
  5
13B
100
AcDbEntity
  8
0
370
     0
390
0
100
AcDbVertex
100
AcDb2dVertex
 10
198.570526
 20
-19.794344
 30
0.0
  0
VERTEX
  5
13C
100
AcDbEntity
  8
0
370
     0
390
0
100
AcDbVertex
100
AcDb2dVertex
 10
198.32341
 20
-19.83469
 30
0.0
  0
VERTEX
  5
13D
100
AcDbEntity
  8
0
370
     0
390
0
100
AcDbVertex
100
AcDb2dVertex
 10
198.015778
 20
-19.769127
 30
0.0
  0
VERTEX
  5
13E
100
AcDbEntity
  8
0
370
     0
390
0
100
AcDbVertex
100
AcDb2dVertex
 10
197.793869
 20
-19.567398
 30
0.0
  0
VERTEX
  5
13F
100
AcDbEntity
  8
0
370
     0
390
0
100
AcDbVertex
100
AcDb2dVertex
 10
197.6577
 20
-19.23959
 30
0.0
  0
VERTEX
  5
140
100
AcDbEntity
  8
0
370
     0
390
0
100
AcDbVertex
100
AcDb2dVertex
 10
197.612305
 20
-18.775612
 30
0.0
  0
VERTEX
  5
141
100
AcDbEntity
  8
0
370
     0
390
0
100
AcDbVertex
100
AcDb2dVertex
 10
197.6577
 20
-18.321722
 30
0.0
  0
VERTEX
  5
142
100
AcDbEntity
  8
0
370
     0
390
0
100
AcDbVertex
100
AcDb2dVertex
 10
197.798904
 20
-17.993912
 30
0.0
  0
VERTEX
  5
143
100
AcDbEntity
  8
0
370
     0
390
0
100
AcDbVertex
100
AcDb2dVertex
 10
198.025864
 20
-17.792183
 30
0.0
  0
VERTEX
  5
144
100
AcDbEntity
  8
0
370
     0
390
0
100
AcDbVertex
100
AcDb2dVertex
 10
198.32341
 20
-17.721577
 30
0.0
  0
VERTEX
  5
145
100
AcDbEntity
  8
0
370
     0
390
0
100
AcDbVertex
100
AcDb2dVertex
 10
198.585663
 20
-17.766966
 30
0.0
  0
VERTEX
  5
146
100
AcDbEntity
  8
0
370
     0
390
0
100
AcDbVertex
100
AcDb2dVertex
 10
198.782349
 20
-17.882961
 30
0.0
  0
VERTEX
  5
147
100
AcDbEntity
  8
0
370
     0
390
0
100
AcDbVertex
100
AcDb2dVertex
 10
198.913467
 20
-18.074604
 30
0.0
  0
SEQEND
  5
148
100
AcDbEntity
  8
0
370
     0
390
0
  0
POLYLINE
  5
149
100
AcDbEntity
  8
0
370
    13
390
0
 62
     7
100
AcDb2dPolyline
 66
     1
 10
0.0
 20
0.0
 30
0.0
 70
     1
 71
    42
  0
VERTEX
  5
14A
100
AcDbEntity
  8
0
370
     0
390
0
100
AcDbVertex
100
AcDb2dVertex
 10
201.888977
 20
-19.784258
 30
0.0
  0
VERTEX
  5
14B
100
AcDbEntity
  8
0
370
     0
390
0
100
AcDbVertex
100
AcDb2dVertex
 10
201.888977
 20
-19.799387
 30
0.0
  0
VERTEX
  5
14C
100
AcDbEntity
  8
0
370
     0
390
0
100
AcDbVertex
100
AcDb2dVertex
 10
201.914185
 20
-19.970858
 30
0.0
  0
VERTEX
  5
14D
100
AcDbEntity
  8
0
370
     0
390
0
100
AcDbVertex
100
AcDb2dVertex
 10
201.989838
 20
-20.091894
 30
0.0
  0
VERTEX
  5
14E
100
AcDbEntity
  8
0
370
     0
390
0
100
AcDbVertex
100
AcDb2dVertex
 10
202.307556
 20
-20.187716
 30
0.0
  0
VERTEX
  5
14F
100
AcDbEntity
  8
0
370
     0
390
0
100
AcDbVertex
100
AcDb2dVertex
 10
202.554672
 20
-20.147369
 30
0.0
  0
VERTEX
  5
150
100
AcDbEntity
  8
0
370
     0
390
0
100
AcDbVertex
100
AcDb2dVertex
 10
202.554672
 20
-19.80443
 30
0.0
  0
VERTEX
  5
151
100
AcDbEntity
  8
0
370
     0
390
0
100
AcDbVertex
100
AcDb2dVertex
 10
202.448761
 20
-19.819559
 30
0.0
  0
VERTEX
  5
152
100
AcDbEntity
  8
0
370
     0
390
0
100
AcDbVertex
100
AcDb2dVertex
 10
202.307556
 20
-19.753998
 30
0.0
  0
VERTEX
  5
153
100
AcDbEntity
  8
0
370
     0
390
0
100
AcDbVertex
100
AcDb2dVertex
 10
202.282349
 20
-19.552269
 30
0.0
  0
VERTEX
  5
154
100
AcDbEntity
  8
0
370
     0
390
0
100
AcDbVertex
100
AcDb2dVertex
 10
202.282349
 20
-18.150251
 30
0.0
  0
VERTEX
  5
155
100
AcDbEntity
  8
0
370
     0
390
0
100
AcDbVertex
100
AcDb2dVertex
 10
202.221817
 20
-17.792183
 30
0.0
  0
VERTEX
  5
156
100
AcDbEntity
  8
0
370
     0
390
0
100
AcDbVertex
100
AcDb2dVertex
 10
202.045303
 20
-17.540022
 30
0.0
  0
VERTEX
  5
157
100
AcDbEntity
  8
0
370
     0
390
0
100
AcDbVertex
100
AcDb2dVertex
 10
201.737671
 20
-17.388725
 30
0.0
  0
VERTEX
  5
158
100
AcDbEntity
  8
0
370
     0
390
0
100
AcDbVertex
100
AcDb2dVertex
 10
201.303955
 20
-17.333248
 30
0.0
  0
VERTEX
  5
159
100
AcDbEntity
  8
0
370
     0
390
0
100
AcDbVertex
100
AcDb2dVertex
 10
200.880325
 20
-17.393768
 30
0.0
  0
VERTEX
  5
15A
100
AcDbEntity
  8
0
370
     0
390
0
100
AcDbVertex
100
AcDb2dVertex
 10
200.567642
 20
-17.565237
 30
0.0
  0
VERTEX
  5
15B
100
AcDbEntity
  8
0
370
     0
390
0
100
AcDbVertex
100
AcDb2dVertex
 10
200.370956
 20
-17.832529
 30
0.0
  0
VERTEX
  5
15C
100
AcDbEntity
  8
0
370
     0
390
0
100
AcDbVertex
100
AcDb2dVertex
 10
200.305389
 20
-18.185555
 30
0.0
  0
VERTEX
  5
15D
100
AcDbEntity
  8
0
370
     0
390
0
100
AcDbVertex
100
AcDb2dVertex
 10
200.305389
 20
-18.215813
 30
0.0
  0
VERTEX
  5
15E
100
AcDbEntity
  8
0
370
     0
390
0
100
AcDbVertex
100
AcDb2dVertex
 10
200.703812
 20
-18.215813
 30
0.0
  0
VERTEX
  5
15F
100
AcDbEntity
  8
0
370
     0
390
0
100
AcDbVertex
100
AcDb2dVertex
 10
200.73912
 20
-18.003998
 30
0.0
  0
VERTEX
  5
160
100
AcDbEntity
  8
0
370
     0
390
0
100
AcDbVertex
100
AcDb2dVertex
 10
200.850067
 20
-17.852701
 30
0.0
  0
VERTEX
  5
161
100
AcDbEntity
  8
0
370
     0
390
0
100
AcDbVertex
100
AcDb2dVertex
 10
201.031616
 20
-17.761923
 30
0.0
  0
VERTEX
  5
162
100
AcDbEntity
  8
0
370
     0
390
0
100
AcDbVertex
100
AcDb2dVertex
 10
201.288818
 20
-17.72662
 30
0.0
  0
VERTEX
  5
163
100
AcDbEntity
  8
0
370
     0
390
0
100
AcDbVertex
100
AcDb2dVertex
 10
201.53595
 20
-17.751837
 30
0.0
  0
VERTEX
  5
164
100
AcDbEntity
  8
0
370
     0
390
0
100
AcDbVertex
100
AcDb2dVertex
 10
201.712463
 20
-17.827484
 30
0.0
  0
VERTEX
  5
165
100
AcDbEntity
  8
0
370
     0
390
0
100
AcDbVertex
100
AcDb2dVertex
 10
201.818359
 20
-17.958609
 30
0.0
  0
VERTEX
  5
166
100
AcDbEntity
  8
0
370
     0
390
0
100
AcDbVertex
100
AcDb2dVertex
 10
201.853668
 20
-18.140165
 30
0.0
  0
VERTEX
  5
167
100
AcDbEntity
  8
0
370
     0
390
0
100
AcDbVertex
100
AcDb2dVertex
 10
201.833496
 20
-18.35198
 30
0.0
  0
VERTEX
  5
168
100
AcDbEntity
  8
0
370
     0
390
0
100
AcDbVertex
100
AcDb2dVertex
 10
201.752808
 20
-18.457888
 30
0.0
  0
VERTEX
  5
169
100
AcDbEntity
  8
0
370
     0
390
0
100
AcDbVertex
100
AcDb2dVertex
 10
201.551071
 20
-18.50832
 30
0.0
  0
VERTEX
  5
16A
100
AcDbEntity
  8
0
370
     0
390
0
100
AcDbVertex
100
AcDb2dVertex
 10
201.172836
 20
-18.548666
 30
0.0
  0
VERTEX
  5
16B
100
AcDbEntity
  8
0
370
     0
390
0
100
AcDbVertex
100
AcDb2dVertex
 10
200.73912
 20
-18.639444
 30
0.0
  0
VERTEX
  5
16C
100
AcDbEntity
  8
0
370
     0
390
0
100
AcDbVertex
100
AcDb2dVertex
 10
200.431473
 20
-18.800827
 30
0.0
  0
VERTEX
  5
16D
100
AcDbEntity
  8
0
370
     0
390
0
100
AcDbVertex
100
AcDb2dVertex
 10
200.249924
 20
-19.05299
 30
0.0
  0
VERTEX
  5
16E
100
AcDbEntity
  8
0
370
     0
390
0
100
AcDbVertex
100
AcDb2dVertex
 10
200.194443
 20
-19.426188
 30
0.0
  0
VERTEX
  5
16F
100
AcDbEntity
  8
0
370
     0
390
0
100
AcDbVertex
100
AcDb2dVertex
 10
200.244873
 20
-19.759041
 30
0.0
  0
VERTEX
  5
170
100
AcDbEntity
  8
0
370
     0
390
0
100
AcDbVertex
100
AcDb2dVertex
 10
200.401215
 20
-20.006159
 30
0.0
  0
VERTEX
  5
171
100
AcDbEntity
  8
0
370
     0
390
0
100
AcDbVertex
100
AcDb2dVertex
 10
200.653381
 20
-20.1625
 30
0.0
  0
VERTEX
  5
172
100
AcDbEntity
  8
0
370
     0
390
0
100
AcDbVertex
100
AcDb2dVertex
 10
201.001358
 20
-20.217976
 30
0.0
  0
VERTEX
  5
173
100
AcDbEntity
  8
0
370
     0
390
0
100
AcDbVertex
100
AcDb2dVertex
 10
201.470383
 20
-20.112066
 30
0.0
  0
SEQEND
  5
174
100
AcDbEntity
  8
0
370
     0
390
0
  0
POLYLINE
  5
175
100
AcDbEntity
  8
0
370
    13
390
0
 62
     7
100
AcDb2dPolyline
 66
     1
 10
0.0
 20
0.0
 30
0.0
 70
     1
 71
    14
  0
VERTEX
  5
176
100
AcDbEntity
  8
0
370
     0
390
0
100
AcDbVertex
100
AcDb2dVertex
 10
201.838531
 20
-19.189156
 30
0.0
  0
VERTEX
  5
177
100
AcDbEntity
  8
0
370
     0
390
0
100
AcDbVertex
100
AcDb2dVertex
 10
201.778015
 20
-19.451405
 30
0.0
  0
VERTEX
  5
178
100
AcDbEntity
  8
0
370
     0
390
0
100
AcDbVertex
100
AcDb2dVertex
 10
201.616638
 20
-19.653133
 30
0.0
  0
VERTEX
  5
179
100
AcDbEntity
  8
0
370
     0
390
0
100
AcDbVertex
100
AcDb2dVertex
 10
201.374557
 20
-19.784258
 30
0.0
  0
VERTEX
  5
17A
100
AcDbEntity
  8
0
370
     0
390
0
100
AcDbVertex
100
AcDb2dVertex
 10
201.077011
 20
-19.829647
 30
0.0
  0
VERTEX
  5
17B
100
AcDbEntity
  8
0
370
     0
390
0
100
AcDbVertex
100
AcDb2dVertex
 10
200.885361
 20
-19.80443
 30
0.0
  0
VERTEX
  5
17C
100
AcDbEntity
  8
0
370
     0
390
0
100
AcDbVertex
100
AcDb2dVertex
 10
200.749207
 20
-19.723738
 30
0.0
  0
VERTEX
  5
17D
100
AcDbEntity
  8
0
370
     0
390
0
100
AcDbVertex
100
AcDb2dVertex
 10
200.663467
 20
-19.582529
 30
0.0
  0
VERTEX
  5
17E
100
AcDbEntity
  8
0
370
     0
390
0
100
AcDbVertex
100
AcDb2dVertex
 10
200.638245
 20
-19.385843
 30
0.0
  0
VERTEX
  5
17F
100
AcDbEntity
  8
0
370
     0
390
0
100
AcDbVertex
100
AcDb2dVertex
 10
200.658417
 20
-19.20933
 30
0.0
  0
VERTEX
  5
180
100
AcDbEntity
  8
0
370
     0
390
0
100
AcDbVertex
100
AcDb2dVertex
 10
200.73912
 20
-19.083248
 30
0.0
  0
VERTEX
  5
181
100
AcDbEntity
  8
0
370
     0
390
0
100
AcDbVertex
100
AcDb2dVertex
 10
201.061874
 20
-18.942038
 30
0.0
  0
VERTEX
  5
182
100
AcDbEntity
  8
0
370
     0
390
0
100
AcDbVertex
100
AcDb2dVertex
 10
201.470383
 20
-18.881519
 30
0.0
  0
VERTEX
  5
183
100
AcDbEntity
  8
0
370
     0
390
0
100
AcDbVertex
100
AcDb2dVertex
 10
201.838531
 20
-18.760483
 30
0.0
  0
SEQEND
  5
184
100
AcDbEntity
  8
0
370
     0
390
0
  0
POLYLINE
  5
185
100
AcDbEntity
  8
0
370
    13
390
0
 62
     7
100
AcDb2dPolyline
 66
     1
 10
0.0
 20
0.0
 30
0.0
 70
     1
 71
    10
  0
VERTEX
  5
186
100
AcDbEntity
  8
0
370
     0
390
0
100
AcDbVertex
100
AcDb2dVertex
 10
204.198761
 20
-16.889444
 30
0.0
  0
VERTEX
  5
187
100
AcDbEntity
  8
0
370
     0
390
0
100
AcDbVertex
100
AcDb2dVertex
 10
204.198761
 20
-19.764084
 30
0.0
  0
VERTEX
  5
188
100
AcDbEntity
  8
0
370
     0
390
0
100
AcDbVertex
100
AcDb2dVertex
 10
203.28595
 20
-19.764084
 30
0.0
  0
VERTEX
  5
189
100
AcDbEntity
  8
0
370
     0
390
0
100
AcDbVertex
100
AcDb2dVertex
 10
203.28595
 20
-20.137283
 30
0.0
  0
VERTEX
  5
18A
100
AcDbEntity
  8
0
370
     0
390
0
100
AcDbVertex
100
AcDb2dVertex
 10
205.550354
 20
-20.137283
 30
0.0
  0
VERTEX
  5
18B
100
AcDbEntity
  8
0
370
     0
390
0
100
AcDbVertex
100
AcDb2dVertex
 10
205.550354
 20
-19.764084
 30
0.0
  0
VERTEX
  5
18C
100
AcDbEntity
  8
0
370
     0
390
0
100
AcDbVertex
100
AcDb2dVertex
 10
204.642578
 20
-19.764084
 30
0.0
  0
VERTEX
  5
18D
100
AcDbEntity
  8
0
370
     0
390
0
100
AcDbVertex
100
AcDb2dVertex
 10
204.642578
 20
-16.516247
 30
0.0
  0
VERTEX
  5
18E
100
AcDbEntity
  8
0
370
     0
390
0
100
AcDbVertex
100
AcDb2dVertex
 10
203.502808
 20
-16.516247
 30
0.0
  0
VERTEX
  5
18F
100
AcDbEntity
  8
0
370
     0
390
0
100
AcDbVertex
100
AcDb2dVertex
 10
203.502808
 20
-16.889444
 30
0.0
  0
SEQEND
  5
190
100
AcDbEntity
  8
0
370
     0
390
0
  0
POLYLINE
  5
191
100
AcDbEntity
  8
0
370
    13
390
0
 62
     7
100
AcDb2dPolyline
 66
     1
 10
0.0
 20
0.0
 30
0.0
 70
     1
 71
    27
  0
VERTEX
  5
192
100
AcDbEntity
  8
0
370
     0
390
0
100
AcDbVertex
100
AcDb2dVertex
 10
206.740555
 20
-18.911779
 30
0.0
  0
VERTEX
  5
193
100
AcDbEntity
  8
0
370
     0
390
0
100
AcDbVertex
100
AcDb2dVertex
 10
208.515778
 20
-18.911779
 30
0.0
  0
VERTEX
  5
194
100
AcDbEntity
  8
0
370
     0
390
0
100
AcDbVertex
100
AcDb2dVertex
 10
208.520813
 20
-18.705008
 30
0.0
  0
VERTEX
  5
195
100
AcDbEntity
  8
0
370
     0
390
0
100
AcDbVertex
100
AcDb2dVertex
 10
208.440125
 20
-18.125036
 30
0.0
  0
VERTEX
  5
196
100
AcDbEntity
  8
0
370
     0
390
0
100
AcDbVertex
100
AcDb2dVertex
 10
208.218216
 20
-17.691319
 30
0.0
  0
VERTEX
  5
197
100
AcDbEntity
  8
0
370
     0
390
0
100
AcDbVertex
100
AcDb2dVertex
 10
207.865189
 20
-17.42907
 30
0.0
  0
VERTEX
  5
198
100
AcDbEntity
  8
0
370
     0
390
0
100
AcDbVertex
100
AcDb2dVertex
 10
207.396179
 20
-17.333248
 30
0.0
  0
VERTEX
  5
199
100
AcDbEntity
  8
0
370
     0
390
0
100
AcDbVertex
100
AcDb2dVertex
 10
206.937241
 20
-17.434113
 30
0.0
  0
VERTEX
  5
19A
100
AcDbEntity
  8
0
370
     0
390
0
100
AcDbVertex
100
AcDb2dVertex
 10
206.584213
 20
-17.716534
 30
0.0
  0
VERTEX
  5
19B
100
AcDbEntity
  8
0
370
     0
390
0
100
AcDbVertex
100
AcDb2dVertex
 10
206.357269
 20
-18.175468
 30
0.0
  0
VERTEX
  5
19C
100
AcDbEntity
  8
0
370
     0
390
0
100
AcDbVertex
100
AcDb2dVertex
 10
206.276581
 20
-18.780655
 30
0.0
  0
VERTEX
  5
19D
100
AcDbEntity
  8
0
370
     0
390
0
100
AcDbVertex
100
AcDb2dVertex
 10
206.352234
 20
-19.400972
 30
0.0
  0
VERTEX
  5
19E
100
AcDbEntity
  8
0
370
     0
390
0
100
AcDbVertex
100
AcDb2dVertex
 10
206.579178
 20
-19.854862
 30
0.0
  0
VERTEX
  5
19F
100
AcDbEntity
  8
0
370
     0
390
0
100
AcDbVertex
100
AcDb2dVertex
 10
206.927155
 20
-20.137283
 30
0.0
  0
VERTEX
  5
1A0
100
AcDbEntity
  8
0
370
     0
390
0
100
AcDbVertex
100
AcDb2dVertex
 10
207.381042
 20
-20.233105
 30
0.0
  0
VERTEX
  5
1A1
100
AcDbEntity
  8
0
370
     0
390
0
100
AcDbVertex
100
AcDb2dVertex
 10
207.774414
 20
-20.167543
 30
0.0
  0
VERTEX
  5
1A2
100
AcDbEntity
  8
0
370
     0
390
0
100
AcDbVertex
100
AcDb2dVertex
 10
208.097183
 20
-19.996073
 30
0.0
  0
VERTEX
  5
1A3
100
AcDbEntity
  8
0
370
     0
390
0
100
AcDbVertex
100
AcDb2dVertex
 10
208.334213
 20
-19.723738
 30
0.0
  0
VERTEX
  5
1A4
100
AcDbEntity
  8
0
370
     0
390
0
100
AcDbVertex
100
AcDb2dVertex
 10
208.470383
 20
-19.360626
 30
0.0
  0
VERTEX
  5
1A5
100
AcDbEntity
  8
0
370
     0
390
0
100
AcDbVertex
100
AcDb2dVertex
 10
208.031616
 20
-19.360626
 30
0.0
  0
VERTEX
  5
1A6
100
AcDbEntity
  8
0
370
     0
390
0
100
AcDbVertex
100
AcDb2dVertex
 10
207.940842
 20
-19.562355
 30
0.0
  0
VERTEX
  5
1A7
100
AcDbEntity
  8
0
370
     0
390
0
100
AcDbVertex
100
AcDb2dVertex
 10
207.809723
 20
-19.713652
 30
0.0
  0
VERTEX
  5
1A8
100
AcDbEntity
  8
0
370
     0
390
0
100
AcDbVertex
100
AcDb2dVertex
 10
207.436523
 20
-19.83469
 30
0.0
  0
VERTEX
  5
1A9
100
AcDbEntity
  8
0
370
     0
390
0
100
AcDbVertex
100
AcDb2dVertex
 10
207.149048
 20
-19.779215
 30
0.0
  0
VERTEX
  5
1AA
100
AcDbEntity
  8
0
370
     0
390
0
100
AcDbVertex
100
AcDb2dVertex
 10
206.93219
 20
-19.602701
 30
0.0
  0
VERTEX
  5
1AB
100
AcDbEntity
  8
0
370
     0
390
0
100
AcDbVertex
100
AcDb2dVertex
 10
206.790985
 20
-19.315237
 30
0.0
  0
VERTEX
  5
1AC
100
AcDbEntity
  8
0
370
     0
390
0
100
AcDbVertex
100
AcDb2dVertex
 10
206.740555
 20
-18.926908
 30
0.0
  0
SEQEND
  5
1AD
100
AcDbEntity
  8
0
370
     0
390
0
  0
POLYLINE
  5
1AE
100
AcDbEntity
  8
0
370
    13
390
0
 62
     7
100
AcDb2dPolyline
 66
     1
 10
0.0
 20
0.0
 30
0.0
 70
     1
 71
     9
  0
VERTEX
  5
1AF
100
AcDbEntity
  8
0
370
     0
390
0
100
AcDbVertex
100
AcDb2dVertex
 10
206.740555
 20
-18.53858
 30
0.0
  0
VERTEX
  5
1B0
100
AcDbEntity
  8
0
370
     0
390
0
100
AcDbVertex
100
AcDb2dVertex
 10
206.796036
 20
-18.190598
 30
0.0
  0
VERTEX
  5
1B1
100
AcDbEntity
  8
0
370
     0
390
0
100
AcDbVertex
100
AcDb2dVertex
 10
206.93219
 20
-17.933393
 30
0.0
  0
VERTEX
  5
1B2
100
AcDbEntity
  8
0
370
     0
390
0
100
AcDbVertex
100
AcDb2dVertex
 10
207.138977
 20
-17.777054
 30
0.0
  0
VERTEX
  5
1B3
100
AcDbEntity
  8
0
370
     0
390
0
100
AcDbVertex
100
AcDb2dVertex
 10
207.411301
 20
-17.721577
 30
0.0
  0
VERTEX
  5
1B4
100
AcDbEntity
  8
0
370
     0
390
0
100
AcDbVertex
100
AcDb2dVertex
 10
207.678589
 20
-17.777054
 30
0.0
  0
VERTEX
  5
1B5
100
AcDbEntity
  8
0
370
     0
390
0
100
AcDbVertex
100
AcDb2dVertex
 10
207.885361
 20
-17.933393
 30
0.0
  0
VERTEX
  5
1B6
100
AcDbEntity
  8
0
370
     0
390
0
100
AcDbVertex
100
AcDb2dVertex
 10
208.011444
 20
-18.190598
 30
0.0
  0
VERTEX
  5
1B7
100
AcDbEntity
  8
0
370
     0
390
0
100
AcDbVertex
100
AcDb2dVertex
 10
208.056839
 20
-18.53858
 30
0.0
  0
SEQEND
  5
1B8
100
AcDbEntity
  8
0
370
     0
390
0
  0
POLYLINE
  5
1B9
100
AcDbEntity
  8
0
370
    13
390
0
 62
     7
100
AcDb2dPolyline
 66
     1
 10
0.0
 20
0.0
 30
0.0
 70
     1
 71
     4
  0
VERTEX
  5
1BA
100
AcDbEntity
  8
0
370
     0
390
0
100
AcDbVertex
100
AcDb2dVertex
 10
210.084213
 20
-20.137283
 30
0.0
  0
VERTEX
  5
1BB
100
AcDbEntity
  8
0
370
     0
390
0
100
AcDbVertex
100
AcDb2dVertex
 10
210.780182
 20
-20.137283
 30
0.0
  0
VERTEX
  5
1BC
100
AcDbEntity
  8
0
370
     0
390
0
100
AcDbVertex
100
AcDb2dVertex
 10
210.780182
 20
-19.385843
 30
0.0
  0
VERTEX
  5
1BD
100
AcDbEntity
  8
0
370
     0
390
0
100
AcDbVertex
100
AcDb2dVertex
 10
210.084213
 20
-19.385843
 30
0.0
  0
SEQEND
  5
1BE
100
AcDbEntity
  8
0
370
     0
390
0
  0
POLYLINE
  5
1BF
100
AcDbEntity
  8
0
370
    13
390
0
 62
     7
100
AcDb2dPolyline
 66
     1
 10
0.0
 20
0.0
 30
0.0
 70
     1
 71
     4
  0
VERTEX
  5
1C0
100
AcDbEntity
  8
0
370
     0
390
0
100
AcDbVertex
100
AcDb2dVertex
 10
210.084213
 20
-18.180511
 30
0.0
  0
VERTEX
  5
1C1
100
AcDbEntity
  8
0
370
     0
390
0
100
AcDbVertex
100
AcDb2dVertex
 10
210.780182
 20
-18.180511
 30
0.0
  0
VERTEX
  5
1C2
100
AcDbEntity
  8
0
370
     0
390
0
100
AcDbVertex
100
AcDb2dVertex
 10
210.780182
 20
-17.42907
 30
0.0
  0
VERTEX
  5
1C3
100
AcDbEntity
  8
0
370
     0
390
0
100
AcDbVertex
100
AcDb2dVertex
 10
210.084213
 20
-17.42907
 30
0.0
  0
SEQEND
  5
1C4
100
AcDbEntity
  8
0
370
     0
390
0
  0
POLYLINE
  5
1C5
100
AcDbEntity
  8
0
370
    13
390
0
 62
     7
100
AcDb2dPolyline
 66
     1
 10
0.0
 20
0.0
 30
0.0
 70
     1
 71
    10
  0
VERTEX
  5
1C6
100
AcDbEntity
  8
0
370
     0
390
0
100
AcDbVertex
100
AcDb2dVertex
 10
219.449493
 20
-20.137283
 30
0.0
  0
VERTEX
  5
1C7
100
AcDbEntity
  8
0
370
     0
390
0
100
AcDbVertex
100
AcDb2dVertex
 10
219.908417
 20
-20.137283
 30
0.0
  0
VERTEX
  5
1C8
100
AcDbEntity
  8
0
370
     0
390
0
100
AcDbVertex
100
AcDb2dVertex
 10
219.908417
 20
-16.612068
 30
0.0
  0
VERTEX
  5
1C9
100
AcDbEntity
  8
0
370
     0
390
0
100
AcDbVertex
100
AcDb2dVertex
 10
219.565491
 20
-16.612068
 30
0.0
  0
VERTEX
  5
1CA
100
AcDbEntity
  8
0
370
     0
390
0
100
AcDbVertex
100
AcDb2dVertex
 10
219.474701
 20
-16.919704
 30
0.0
  0
VERTEX
  5
1CB
100
AcDbEntity
  8
0
370
     0
390
0
100
AcDbVertex
100
AcDb2dVertex
 10
219.293152
 20
-17.126476
 30
0.0
  0
VERTEX
  5
1CC
100
AcDbEntity
  8
0
370
     0
390
0
100
AcDbVertex
100
AcDb2dVertex
 10
219.015778
 20
-17.247513
 30
0.0
  0
VERTEX
  5
1CD
100
AcDbEntity
  8
0
370
     0
390
0
100
AcDbVertex
100
AcDb2dVertex
 10
218.632492
 20
-17.287859
 30
0.0
  0
VERTEX
  5
1CE
100
AcDbEntity
  8
0
370
     0
390
0
100
AcDbVertex
100
AcDb2dVertex
 10
218.632492
 20
-17.645929
 30
0.0
  0
VERTEX
  5
1CF
100
AcDbEntity
  8
0
370
     0
390
0
100
AcDbVertex
100
AcDb2dVertex
 10
219.449493
 20
-17.645929
 30
0.0
  0
SEQEND
  5
1D0
100
AcDbEntity
  8
0
370
     0
390
0
  0
POLYLINE
  5
1D1
100
AcDbEntity
  8
0
370
    13
390
0
 62
     7
100
AcDb2dPolyline
 66
     1
 10
0.0
 20
0.0
 30
0.0
 70
     1
 71
     4
  0
VERTEX
  5
1D2
100
AcDbEntity
  8
0
370
     0
390
0
100
AcDbVertex
100
AcDb2dVertex
 10
222.228302
 20
-20.137283
 30
0.0
  0
VERTEX
  5
1D3
100
AcDbEntity
  8
0
370
     0
390
0
100
AcDbVertex
100
AcDb2dVertex
 10
222.924271
 20
-20.137283
 30
0.0
  0
VERTEX
  5
1D4
100
AcDbEntity
  8
0
370
     0
390
0
100
AcDbVertex
100
AcDb2dVertex
 10
222.924271
 20
-19.385843
 30
0.0
  0
VERTEX
  5
1D5
100
AcDbEntity
  8
0
370
     0
390
0
100
AcDbVertex
100
AcDb2dVertex
 10
222.228302
 20
-19.385843
 30
0.0
  0
SEQEND
  5
1D6
100
AcDbEntity
  8
0
370
     0
390
0
  0
POLYLINE
  5
1D7
100
AcDbEntity
  8
0
370
    13
390
0
 62
     7
100
AcDb2dPolyline
 66
     1
 10
0.0
 20
0.0
 30
0.0
 70
     1
 71
     4
  0
VERTEX
  5
1D8
100
AcDbEntity
  8
0
370
     0
390
0
100
AcDbVertex
100
AcDb2dVertex
 10
222.228302
 20
-18.180511
 30
0.0
  0
VERTEX
  5
1D9
100
AcDbEntity
  8
0
370
     0
390
0
100
AcDbVertex
100
AcDb2dVertex
 10
222.924271
 20
-18.180511
 30
0.0
  0
VERTEX
  5
1DA
100
AcDbEntity
  8
0
370
     0
390
0
100
AcDbVertex
100
AcDb2dVertex
 10
222.924271
 20
-17.42907
 30
0.0
  0
VERTEX
  5
1DB
100
AcDbEntity
  8
0
370
     0
390
0
100
AcDbVertex
100
AcDb2dVertex
 10
222.228302
 20
-17.42907
 30
0.0
  0
SEQEND
  5
1DC
100
AcDbEntity
  8
0
370
     0
390
0
  0
POLYLINE
  5
1DD
100
AcDbEntity
  8
0
370
    13
390
0
 62
     7
100
AcDb2dPolyline
 66
     1
 10
0.0
 20
0.0
 30
0.0
 70
     1
 71
    10
  0
VERTEX
  5
1DE
100
AcDbEntity
  8
0
370
     0
390
0
100
AcDbVertex
100
AcDb2dVertex
 10
225.52153
 20
-20.137283
 30
0.0
  0
VERTEX
  5
1DF
100
AcDbEntity
  8
0
370
     0
390
0
100
AcDbVertex
100
AcDb2dVertex
 10
225.980469
 20
-20.137283
 30
0.0
  0
VERTEX
  5
1E0
100
AcDbEntity
  8
0
370
     0
390
0
100
AcDbVertex
100
AcDb2dVertex
 10
225.980469
 20
-16.612068
 30
0.0
  0
VERTEX
  5
1E1
100
AcDbEntity
  8
0
370
     0
390
0
100
AcDbVertex
100
AcDb2dVertex
 10
225.637527
 20
-16.612068
 30
0.0
  0
VERTEX
  5
1E2
100
AcDbEntity
  8
0
370
     0
390
0
100
AcDbVertex
100
AcDb2dVertex
 10
225.546753
 20
-16.919704
 30
0.0
  0
VERTEX
  5
1E3
100
AcDbEntity
  8
0
370
     0
390
0
100
AcDbVertex
100
AcDb2dVertex
 10
225.365189
 20
-17.126476
 30
0.0
  0
VERTEX
  5
1E4
100
AcDbEntity
  8
0
370
     0
390
0
100
AcDbVertex
100
AcDb2dVertex
 10
225.087814
 20
-17.247513
 30
0.0
  0
VERTEX
  5
1E5
100
AcDbEntity
  8
0
370
     0
390
0
100
AcDbVertex
100
AcDb2dVertex
 10
224.704529
 20
-17.287859
 30
0.0
  0
VERTEX
  5
1E6
100
AcDbEntity
  8
0
370
     0
390
0
100
AcDbVertex
100
AcDb2dVertex
 10
224.704529
 20
-17.645929
 30
0.0
  0
VERTEX
  5
1E7
100
AcDbEntity
  8
0
370
     0
390
0
100
AcDbVertex
100
AcDb2dVertex
 10
225.52153
 20
-17.645929
 30
0.0
  0
SEQEND
  5
1E8
100
AcDbEntity
  8
0
370
     0
390
0
  0
POLYLINE
  5
1E9
100
AcDbEntity
  8
0
370
    35
390
0
 62
     7
100
AcDb2dPolyline
 66
     1
 10
0.0
 20
0.0
 30
0.0
 71
    12
  0
VERTEX
  5
1EA
100
AcDbEntity
  8
0
370
     0
390
0
100
AcDbVertex
100
AcDb2dVertex
 10
367.951599
 20
126.429871
 30
0.0
  0
VERTEX
  5
1EB
100
AcDbEntity
  8
0
370
     0
390
0
100
AcDbVertex
100
AcDb2dVertex
 10
363.913513
 20
127.308983
 30
0.0
  0
VERTEX
  5
1EC
100
AcDbEntity
  8
0
370
     0
390
0
100
AcDbVertex
100
AcDb2dVertex
 10
361.23111
 20
127.938606
 30
0.0
  0
VERTEX
  5
1ED
100
AcDbEntity
  8
0
370
     0
390
0
100
AcDbVertex
100
AcDb2dVertex
 10
355.880096
 20
129.254028
 30
0.0
  0
VERTEX
  5
1EE
100
AcDbEntity
  8
0
370
     0
390
0
100
AcDbVertex
100
AcDb2dVertex
 10
346.100159
 20
131.758987
 30
0.0
  0
VERTEX
  5
1EF
100
AcDbEntity
  8
0
370
     0
390
0
100
AcDbVertex
100
AcDb2dVertex
 10
331.450073
 20
135.591782
 30
0.0
  0
VERTEX
  5
1F0
100
AcDbEntity
  8
0
370
     0
390
0
100
AcDbVertex
100
AcDb2dVertex
 10
317.865173
 20
139.119049
 30
0.0
  0
VERTEX
  5
1F1
100
AcDbEntity
  8
0
370
     0
390
0
100
AcDbVertex
100
AcDb2dVertex
 10
311.060638
 20
140.853226
 30
0.0
  0
VERTEX
  5
1F2
100
AcDbEntity
  8
0
370
     0
390
0
100
AcDbVertex
100
AcDb2dVertex
 10
298.522461
 20
143.960449
 30
0.0
  0
VERTEX
  5
1F3
100
AcDbEntity
  8
0
370
     0
390
0
100
AcDbVertex
100
AcDb2dVertex
 10
292.247711
 20
145.461838
 30
0.0
  0
VERTEX
  5
1F4
100
AcDbEntity
  8
0
370
     0
390
0
100
AcDbVertex
100
AcDb2dVertex
 10
285.950592
 20
146.928299
 30
0.0
  0
VERTEX
  5
1F5
100
AcDbEntity
  8
0
370
     0
390
0
100
AcDbVertex
100
AcDb2dVertex
 10
274.50235
 20
149.48848
 30
0.0
  0
SEQEND
  5
1F6
100
AcDbEntity
  8
0
370
     0
390
0
  0
LINE
  5
1F7
100
AcDbEntity
  8
0
370
    35
390
0
 62
     7
 48
0.007128
100
AcDbLine
 10
367.951599
 20
126.429817
 30
0.0
 11
368.231018
 21
126.373123
 31
0.0
210
0.0
220
0.0
230
1.0
  0
LINE
  5
1F8
100
AcDbEntity
  8
0
370
    35
390
0
 62
     7
 48
0.006576
100
AcDbLine
 10
368.231018
 20
126.373192
 30
0.0
 11
367.969666
 21
126.403099
 31
0.0
210
0.0
220
0.0
230
1.0
  0
POLYLINE
  5
1F9
100
AcDbEntity
  8
0
370
    35
390
0
 62
     7
100
AcDb2dPolyline
 66
     1
 10
0.0
 20
0.0
 30
0.0
 71
    21
  0
VERTEX
  5
1FA
100
AcDbEntity
  8
0
370
     0
390
0
100
AcDbVertex
100
AcDb2dVertex
 10
367.969666
 20
126.403091
 30
0.0
  0
VERTEX
  5
1FB
100
AcDbEntity
  8
0
370
     0
390
0
100
AcDbVertex
100
AcDb2dVertex
 10
364.033447
 20
126.822739
 30
0.0
  0
VERTEX
  5
1FC
100
AcDbEntity
  8
0
370
     0
390
0
100
AcDbVertex
100
AcDb2dVertex
 10
356.154144
 20
127.595009
 30
0.0
  0
VERTEX
  5
1FD
100
AcDbEntity
  8
0
370
     0
390
0
100
AcDbVertex
100
AcDb2dVertex
 10
351.08606
 20
128.062149
 30
0.0
  0
VERTEX
  5
1FE
100
AcDbEntity
  8
0
370
     0
390
0
100
AcDbVertex
100
AcDb2dVertex
 10
343.480408
 20
128.722382
 30
0.0
  0
VERTEX
  5
1FF
100
AcDbEntity
  8
0
370
     0
390
0
100
AcDbVertex
100
AcDb2dVertex
 10
335.871307
 20
129.341873
 30
0.0
  0
VERTEX
  5
200
100
AcDbEntity
  8
0
370
     0
390
0
100
AcDbVertex
100
AcDb2dVertex
 10
326.658661
 20
130.047195
 30
0.0
  0
VERTEX
  5
201
100
AcDbEntity
  8
0
370
     0
390
0
100
AcDbVertex
100
AcDb2dVertex
 10
317.443054
 20
130.712662
 30
0.0
  0
VERTEX
  5
202
100
AcDbEntity
  8
0
370
     0
390
0
100
AcDbVertex
100
AcDb2dVertex
 10
306.182892
 20
131.481415
 30
0.0
  0
VERTEX
  5
203
100
AcDbEntity
  8
0
370
     0
390
0
100
AcDbVertex
100
AcDb2dVertex
 10
294.920227
 20
132.212143
 30
0.0
  0
VERTEX
  5
204
100
AcDbEntity
  8
0
370
     0
390
0
100
AcDbVertex
100
AcDb2dVertex
 10
277.859222
 20
133.268555
 30
0.0
  0
VERTEX
  5
205
100
AcDbEntity
  8
0
370
     0
390
0
100
AcDbVertex
100
AcDb2dVertex
 10
243.731094
 20
135.280121
 30
0.0
  0
VERTEX
  5
206
100
AcDbEntity
  8
0
370
     0
390
0
100
AcDbVertex
100
AcDb2dVertex
 10
218.13382
 20
136.76741
 30
0.0
  0
VERTEX
  5
207
100
AcDbEntity
  8
0
370
     0
390
0
100
AcDbVertex
100
AcDb2dVertex
 10
192.539169
 20
138.299316
 30
0.0
  0
VERTEX
  5
208
100
AcDbEntity
  8
0
370
     0
390
0
100
AcDbVertex
100
AcDb2dVertex
 10
179.743988
 20
139.10022
 30
0.0
  0
VERTEX
  5
209
100
AcDbEntity
  8
0
370
     0
390
0
100
AcDbVertex
100
AcDb2dVertex
 10
166.951019
 20
139.935379
 30
0.0
  0
VERTEX
  5
20A
100
AcDbEntity
  8
0
370
     0
390
0
100
AcDbVertex
100
AcDb2dVertex
 10
154.776917
 20
140.772537
 30
0.0
  0
VERTEX
  5
20B
100
AcDbEntity
  8
0
370
     0
390
0
100
AcDbVertex
100
AcDb2dVertex
 10
142.606369
 20
141.663513
 30
0.0
  0
VERTEX
  5
20C
100
AcDbEntity
  8
0
370
     0
390
0
100
AcDbVertex
100
AcDb2dVertex
 10
130.441132
 20
142.624924
 30
0.0
  0
VERTEX
  5
20D
100
AcDbEntity
  8
0
370
     0
390
0
100
AcDbVertex
100
AcDb2dVertex
 10
121.322395
 20
143.406464
 30
0.0
  0
VERTEX
  5
20E
100
AcDbEntity
  8
0
370
     0
390
0
100
AcDbVertex
100
AcDb2dVertex
 10
112.210014
 20
144.255432
 30
0.0
  0
SEQEND
  5
20F
100
AcDbEntity
  8
0
370
     0
390
0
  0
ARC
  5
210
100
AcDbEntity
  8
0
370
    35
390
0
 62
     7
100
AcDbCircle
 10
187.876083
 20
924.038025
 30
0.0
 40
783.444791
210
0.0
220
0.0
230
1.0
100
AcDbArc
 50
263.542743
 51
264.457668
  0
LINE
  5
211
100
AcDbEntity
  8
0
370
    35
390
0
 62
     7
 48
0.288648
100
AcDbLine
 10
99.768394
 20
145.563675
 30
0.0
 11
99.768394
 21
157.109589
 31
0.0
210
0.0
220
0.0
230
1.0
  0
LINE
  5
212
100
AcDbEntity
  8
0
370
    35
390
0
 62
     7
 48
0.0125
100
AcDbLine
 10
99.768394
 20
157.109589
 30
0.0
 11
99.268394
 21
157.109589
 31
0.0
210
0.0
220
0.0
230
1.0
  0
LINE
  5
213
100
AcDbEntity
  8
0
370
    35
390
0
 62
     7
 48
0.0125
100
AcDbLine
 10
99.268394
 20
157.109589
 30
0.0
 11
98.768394
 21
157.109589
 31
0.0
210
0.0
220
0.0
230
1.0
  0
LINE
  5
214
100
AcDbEntity
  8
0
370
    35
390
0
 62
     7
 48
0.285786
100
AcDbLine
 10
98.768394
 20
145.678131
 30
0.0
 11
98.768394
 21
157.109589
 31
0.0
210
0.0
220
0.0
230
1.0
  0
POLYLINE
  5
215
100
AcDbEntity
  8
0
370
    35
390
0
 62
     7
100
AcDb2dPolyline
 66
     1
 10
0.0
 20
0.0
 30
0.0
 71
    24
  0
VERTEX
  5
216
100
AcDbEntity
  8
0
370
     0
390
0
100
AcDbVertex
100
AcDb2dVertex
 10
51.804398
 20
157.226837
 30
0.0
  0
VERTEX
  5
217
100
AcDbEntity
  8
0
370
     0
390
0
100
AcDbVertex
100
AcDb2dVertex
 10
51.813385
 20
157.000717
 30
0.0
  0
VERTEX
  5
218
100
AcDbEntity
  8
0
370
     0
390
0
100
AcDbVertex
100
AcDb2dVertex
 10
51.921631
 20
156.727875
 30
0.0
  0
VERTEX
  5
219
100
AcDbEntity
  8
0
370
     0
390
0
100
AcDbVertex
100
AcDb2dVertex
 10
52.204842
 20
156.348099
 30
0.0
  0
VERTEX
  5
21A
100
AcDbEntity
  8
0
370
     0
390
0
100
AcDbVertex
100
AcDb2dVertex
 10
52.720413
 20
155.863846
 30
0.0
  0
VERTEX
  5
21B
100
AcDbEntity
  8
0
370
     0
390
0
100
AcDbVertex
100
AcDb2dVertex
 10
53.141212
 20
155.544815
 30
0.0
  0
VERTEX
  5
21C
100
AcDbEntity
  8
0
370
     0
390
0
100
AcDbVertex
100
AcDb2dVertex
 10
53.580132
 20
155.25354
 30
0.0
  0
VERTEX
  5
21D
100
AcDbEntity
  8
0
370
     0
390
0
100
AcDbVertex
100
AcDb2dVertex
 10
54.191223
 20
154.894058
 30
0.0
  0
VERTEX
  5
21E
100
AcDbEntity
  8
0
370
     0
390
0
100
AcDbVertex
100
AcDb2dVertex
 10
54.820343
 20
154.561615
 30
0.0
  0
VERTEX
  5
21F
100
AcDbEntity
  8
0
370
     0
390
0
100
AcDbVertex
100
AcDb2dVertex
 10
55.688759
 20
154.147171
 30
0.0
  0
VERTEX
  5
220
100
AcDbEntity
  8
0
370
     0
390
0
100
AcDbVertex
100
AcDb2dVertex
 10
56.571777
 20
153.76622
 30
0.0
  0
VERTEX
  5
221
100
AcDbEntity
  8
0
370
     0
390
0
100
AcDbVertex
100
AcDb2dVertex
 10
57.714195
 20
153.320221
 30
0.0
  0
VERTEX
  5
222
100
AcDbEntity
  8
0
370
     0
390
0
100
AcDbVertex
100
AcDb2dVertex
 10
58.866798
 20
152.912216
 30
0.0
  0
VERTEX
  5
223
100
AcDbEntity
  8
0
370
     0
390
0
100
AcDbVertex
100
AcDb2dVertex
 10
61.06118
 20
152.218765
 30
0.0
  0
VERTEX
  5
224
100
AcDbEntity
  8
0
370
     0
390
0
100
AcDbVertex
100
AcDb2dVertex
 10
63.283508
 20
151.594009
 30
0.0
  0
VERTEX
  5
225
100
AcDbEntity
  8
0
370
     0
390
0
100
AcDbVertex
100
AcDb2dVertex
 10
65.523376
 20
151.02179
 30
0.0
  0
VERTEX
  5
226
100
AcDbEntity
  8
0
370
     0
390
0
100
AcDbVertex
100
AcDb2dVertex
 10
67.894989
 20
150.468323
 30
0.0
  0
VERTEX
  5
227
100
AcDbEntity
  8
0
370
     0
390
0
100
AcDbVertex
100
AcDb2dVertex
 10
70.27285
 20
149.959732
 30
0.0
  0
VERTEX
  5
228
100
AcDbEntity
  8
0
370
     0
390
0
100
AcDbVertex
100
AcDb2dVertex
 10
73.017151
 20
149.419678
 30
0.0
  0
VERTEX
  5
229
100
AcDbEntity
  8
0
370
     0
390
0
100
AcDbVertex
100
AcDb2dVertex
 10
75.769341
 20
148.917755
 30
0.0
  0
VERTEX
  5
22A
100
AcDbEntity
  8
0
370
     0
390
0
100
AcDbVertex
100
AcDb2dVertex
 10
81.954292
 20
147.899796
 30
0.0
  0
VERTEX
  5
22B
100
AcDbEntity
  8
0
370
     0
390
0
100
AcDbVertex
100
AcDb2dVertex
 10
88.159698
 20
147.002441
 30
0.0
  0
VERTEX
  5
22C
100
AcDbEntity
  8
0
370
     0
390
0
100
AcDbVertex
100
AcDb2dVertex
 10
94.374886
 20
146.200409
 30
0.0
  0
VERTEX
  5
22D
100
AcDbEntity
  8
0
370
     0
390
0
100
AcDbVertex
100
AcDb2dVertex
 10
98.768394
 20
145.678131
 30
0.0
  0
SEQEND
  5
22E
100
AcDbEntity
  8
0
370
     0
390
0
  0
LINE
  5
22F
100
AcDbEntity
  8
0
370
    35
390
0
 62
     7
 48
0.001825
100
AcDbLine
 10
51.804398
 20
157.226837
 30
0.0
 11
51.813934
 21
157.299225
 31
0.0
210
0.0
220
0.0
230
1.0
  0
POLYLINE
  5
230
100
AcDbEntity
  8
0
370
    35
390
0
 62
     7
100
AcDb2dPolyline
 66
     1
 10
0.0
 20
0.0
 30
0.0
 71
    27
  0
VERTEX
  5
231
100
AcDbEntity
  8
0
370
     0
390
0
100
AcDbVertex
100
AcDb2dVertex
 10
51.813934
 20
157.299225
 30
0.0
  0
VERTEX
  5
232
100
AcDbEntity
  8
0
370
     0
390
0
100
AcDbVertex
100
AcDb2dVertex
 10
51.857109
 20
157.486694
 30
0.0
  0
VERTEX
  5
233
100
AcDbEntity
  8
0
370
     0
390
0
100
AcDbVertex
100
AcDb2dVertex
 10
51.996635
 20
157.844528
 30
0.0
  0
VERTEX
  5
234
100
AcDbEntity
  8
0
370
     0
390
0
100
AcDbVertex
100
AcDb2dVertex
 10
52.357513
 20
158.456573
 30
0.0
  0
VERTEX
  5
235
100
AcDbEntity
  8
0
370
     0
390
0
100
AcDbVertex
100
AcDb2dVertex
 10
52.66687
 20
158.86203
 30
0.0
  0
VERTEX
  5
236
100
AcDbEntity
  8
0
370
     0
390
0
100
AcDbVertex
100
AcDb2dVertex
 10
53.004692
 20
159.245056
 30
0.0
  0
VERTEX
  5
237
100
AcDbEntity
  8
0
370
     0
390
0
100
AcDbVertex
100
AcDb2dVertex
 10
53.468582
 20
159.703186
 30
0.0
  0
VERTEX
  5
238
100
AcDbEntity
  8
0
370
     0
390
0
100
AcDbVertex
100
AcDb2dVertex
 10
53.961769
 20
160.129807
 30
0.0
  0
VERTEX
  5
239
100
AcDbEntity
  8
0
370
     0
390
0
100
AcDbVertex
100
AcDb2dVertex
 10
54.574417
 20
160.597656
 30
0.0
  0
VERTEX
  5
23A
100
AcDbEntity
  8
0
370
     0
390
0
100
AcDbVertex
100
AcDb2dVertex
 10
55.210991
 20
161.031586
 30
0.0
  0
VERTEX
  5
23B
100
AcDbEntity
  8
0
370
     0
390
0
100
AcDbVertex
100
AcDb2dVertex
 10
56.000008
 20
161.518021
 30
0.0
  0
VERTEX
  5
23C
100
AcDbEntity
  8
0
370
     0
390
0
100
AcDbVertex
100
AcDb2dVertex
 10
56.807014
 20
161.973831
 30
0.0
  0
VERTEX
  5
23D
100
AcDbEntity
  8
0
370
     0
390
0
100
AcDbVertex
100
AcDb2dVertex
 10
57.870239
 20
162.526321
 30
0.0
  0
VERTEX
  5
23E
100
AcDbEntity
  8
0
370
     0
390
0
100
AcDbVertex
100
AcDb2dVertex
 10
58.951363
 20
163.041946
 30
0.0
  0
VERTEX
  5
23F
100
AcDbEntity
  8
0
370
     0
390
0
100
AcDbVertex
100
AcDb2dVertex
 10
60.275269
 20
163.616516
 30
0.0
  0
VERTEX
  5
240
100
AcDbEntity
  8
0
370
     0
390
0
100
AcDbVertex
100
AcDb2dVertex
 10
61.619522
 20
164.142334
 30
0.0
  0
VERTEX
  5
241
100
AcDbEntity
  8
0
370
     0
390
0
100
AcDbVertex
100
AcDb2dVertex
 10
63.0756
 20
164.656326
 30
0.0
  0
VERTEX
  5
242
100
AcDbEntity
  8
0
370
     0
390
0
100
AcDbVertex
100
AcDb2dVertex
 10
64.546318
 20
165.127869
 30
0.0
  0
VERTEX
  5
243
100
AcDbEntity
  8
0
370
     0
390
0
100
AcDbVertex
100
AcDb2dVertex
 10
66.259232
 20
165.62912
 30
0.0
  0
VERTEX
  5
244
100
AcDbEntity
  8
0
370
     0
390
0
100
AcDbVertex
100
AcDb2dVertex
 10
67.98278
 20
166.090561
 30
0.0
  0
VERTEX
  5
245
100
AcDbEntity
  8
0
370
     0
390
0
100
AcDbVertex
100
AcDb2dVertex
 10
70.067245
 20
166.598999
 30
0.0
  0
VERTEX
  5
246
100
AcDbEntity
  8
0
370
     0
390
0
100
AcDbVertex
100
AcDb2dVertex
 10
72.162468
 20
167.059875
 30
0.0
  0
VERTEX
  5
247
100
AcDbEntity
  8
0
370
     0
390
0
100
AcDbVertex
100
AcDb2dVertex
 10
74.497284
 20
167.518799
 30
0.0
  0
VERTEX
  5
248
100
AcDbEntity
  8
0
370
     0
390
0
100
AcDbVertex
100
AcDb2dVertex
 10
76.841896
 20
167.927902
 30
0.0
  0
VERTEX
  5
249
100
AcDbEntity
  8
0
370
     0
390
0
100
AcDbVertex
100
AcDb2dVertex
 10
79.183617
 20
168.291641
 30
0.0
  0
VERTEX
  5
24A
100
AcDbEntity
  8
0
370
     0
390
0
100
AcDbVertex
100
AcDb2dVertex
 10
81.530792
 20
168.617126
 30
0.0
  0
VERTEX
  5
24B
100
AcDbEntity
  8
0
370
     0
390
0
100
AcDbVertex
100
AcDb2dVertex
 10
86.237045
 20
169.167496
 30
0.0
  0
SEQEND
  5
24C
100
AcDbEntity
  8
0
370
     0
390
0
  0
POLYLINE
  5
24D
100
AcDbEntity
  8
0
370
    35
390
0
 62
     7
100
AcDb2dPolyline
 66
     1
 10
0.0
 20
0.0
 30
0.0
 71
    15
  0
VERTEX
  5
24E
100
AcDbEntity
  8
0
370
     0
390
0
100
AcDbVertex
100
AcDb2dVertex
 10
86.237045
 20
169.167496
 30
0.0
  0
VERTEX
  5
24F
100
AcDbEntity
  8
0
370
     0
390
0
100
AcDbVertex
100
AcDb2dVertex
 10
91.140182
 20
169.613464
 30
0.0
  0
VERTEX
  5
250
100
AcDbEntity
  8
0
370
     0
390
0
100
AcDbVertex
100
AcDb2dVertex
 10
94.428307
 20
169.847778
 30
0.0
  0
VERTEX
  5
251
100
AcDbEntity
  8
0
370
     0
390
0
100
AcDbVertex
100
AcDb2dVertex
 10
98.000526
 20
170.049942
 30
0.0
  0
VERTEX
  5
252
100
AcDbEntity
  8
0
370
     0
390
0
100
AcDbVertex
100
AcDb2dVertex
 10
101.575142
 20
170.20282
 30
0.0
  0
VERTEX
  5
253
100
AcDbEntity
  8
0
370
     0
390
0
100
AcDbVertex
100
AcDb2dVertex
 10
105.515854
 20
170.319168
 30
0.0
  0
VERTEX
  5
254
100
AcDbEntity
  8
0
370
     0
390
0
100
AcDbVertex
100
AcDb2dVertex
 10
109.457626
 20
170.384796
 30
0.0
  0
VERTEX
  5
255
100
AcDbEntity
  8
0
370
     0
390
0
100
AcDbVertex
100
AcDb2dVertex
 10
115.391624
 20
170.395325
 30
0.0
  0
VERTEX
  5
256
100
AcDbEntity
  8
0
370
     0
390
0
100
AcDbVertex
100
AcDb2dVertex
 10
121.325371
 20
170.309723
 30
0.0
  0
VERTEX
  5
257
100
AcDbEntity
  8
0
370
     0
390
0
100
AcDbVertex
100
AcDb2dVertex
 10
127.25705
 20
170.138657
 30
0.0
  0
VERTEX
  5
258
100
AcDbEntity
  8
0
370
     0
390
0
100
AcDbVertex
100
AcDb2dVertex
 10
132.289383
 20
169.933502
 30
0.0
  0
VERTEX
  5
259
100
AcDbEntity
  8
0
370
     0
390
0
100
AcDbVertex
100
AcDb2dVertex
 10
137.319427
 20
169.678421
 30
0.0
  0
VERTEX
  5
25A
100
AcDbEntity
  8
0
370
     0
390
0
100
AcDbVertex
100
AcDb2dVertex
 10
145.464066
 20
169.166382
 30
0.0
  0
VERTEX
  5
25B
100
AcDbEntity
  8
0
370
     0
390
0
100
AcDbVertex
100
AcDb2dVertex
 10
153.600739
 20
168.537216
 30
0.0
  0
VERTEX
  5
25C
100
AcDbEntity
  8
0
370
     0
390
0
100
AcDbVertex
100
AcDb2dVertex
 10
161.727783
 20
167.797134
 30
0.0
  0
SEQEND
  5
25D
100
AcDbEntity
  8
0
370
     0
390
0
  0
POLYLINE
  5
25E
100
AcDbEntity
  8
0
370
    35
390
0
 62
     7
100
AcDb2dPolyline
 66
     1
 10
0.0
 20
0.0
 30
0.0
 71
    14
  0
VERTEX
  5
25F
100
AcDbEntity
  8
0
370
     0
390
0
100
AcDbVertex
100
AcDb2dVertex
 10
273.50235
 20
149.705673
 30
0.0
  0
VERTEX
  5
260
100
AcDbEntity
  8
0
370
     0
390
0
100
AcDbVertex
100
AcDb2dVertex
 10
266.821259
 20
151.130554
 30
0.0
  0
VERTEX
  5
261
100
AcDbEntity
  8
0
370
     0
390
0
100
AcDbVertex
100
AcDb2dVertex
 10
260.141418
 20
152.510315
 30
0.0
  0
VERTEX
  5
262
100
AcDbEntity
  8
0
370
     0
390
0
100
AcDbVertex
100
AcDb2dVertex
 10
249.360825
 20
154.646057
 30
0.0
  0
VERTEX
  5
263
100
AcDbEntity
  8
0
370
     0
390
0
100
AcDbVertex
100
AcDb2dVertex
 10
238.560257
 20
156.679916
 30
0.0
  0
VERTEX
  5
264
100
AcDbEntity
  8
0
370
     0
390
0
100
AcDbVertex
100
AcDb2dVertex
 10
227.741882
 20
158.616959
 30
0.0
  0
VERTEX
  5
265
100
AcDbEntity
  8
0
370
     0
390
0
100
AcDbVertex
100
AcDb2dVertex
 10
216.906586
 20
160.455093
 30
0.0
  0
VERTEX
  5
266
100
AcDbEntity
  8
0
370
     0
390
0
100
AcDbVertex
100
AcDb2dVertex
 10
206.389374
 20
162.129059
 30
0.0
  0
VERTEX
  5
267
100
AcDbEntity
  8
0
370
     0
390
0
100
AcDbVertex
100
AcDb2dVertex
 10
195.85379
 20
163.68309
 30
0.0
  0
VERTEX
  5
268
100
AcDbEntity
  8
0
370
     0
390
0
100
AcDbVertex
100
AcDb2dVertex
 10
184.498016
 20
165.213593
 30
0.0
  0
VERTEX
  5
269
100
AcDbEntity
  8
0
370
     0
390
0
100
AcDbVertex
100
AcDb2dVertex
 10
178.710098
 20
165.934219
 30
0.0
  0
VERTEX
  5
26A
100
AcDbEntity
  8
0
370
     0
390
0
100
AcDbVertex
100
AcDb2dVertex
 10
172.917191
 20
166.613571
 30
0.0
  0
VERTEX
  5
26B
100
AcDbEntity
  8
0
370
     0
390
0
100
AcDbVertex
100
AcDb2dVertex
 10
167.324814
 20
167.227402
 30
0.0
  0
VERTEX
  5
26C
100
AcDbEntity
  8
0
370
     0
390
0
100
AcDbVertex
100
AcDb2dVertex
 10
161.727783
 20
167.797134
 30
0.0
  0
SEQEND
  5
26D
100
AcDbEntity
  8
0
370
     0
390
0
  0
LINE
  5
26E
100
AcDbEntity
  8
0
370
    35
390
0
 62
     7
 48
0.203955
100
AcDbLine
 10
273.50235
 20
149.705673
 30
0.0
 11
273.50235
 21
141.547485
 31
0.0
210
0.0
220
0.0
230
1.0
  0
LINE
  5
26F
100
AcDbEntity
  8
0
370
    35
390
0
 62
     7
 48
0.025
100
AcDbLine
 10
273.50235
 20
141.547485
 30
0.0
 11
274.50235
 21
141.547485
 31
0.0
210
0.0
220
0.0
230
1.0
  0
LINE
  5
270
100
AcDbEntity
  8
0
370
    35
390
0
 62
     7
 48
0.198525
100
AcDbLine
 10
274.50235
 20
149.48848
 30
0.0
 11
274.50235
 21
141.547485
 31
0.0
210
0.0
220
0.0
230
1.0
  0
ARC
  5
271
100
AcDbEntity
  8
0
370
    35
390
0
 62
     7
100
AcDbCircle
 10
280.884674
 20
141.531708
 30
0.0
 40
1.947478
210
0.0
220
0.0
230
1.0
100
AcDbArc
 50
110.399387
 51
180.002468
  0
LINE
  5
272
100
AcDbEntity
  8
0
370
    35
390
0
 62
     7
 48
0.05088
100
AcDbLine
 10
278.937164
 20
139.496445
 30
0.0
 11
278.937164
 21
141.531631
 31
0.0
210
0.0
220
0.0
230
1.0
  0
ARC
  5
273
100
AcDbEntity
  8
0
370
    35
390
0
 62
     7
100
AcDbCircle
 10
280.933105
 20
139.501221
 30
0.0
 40
1.996105
210
0.0
220
0.0
230
1.0
100
AcDbArc
 50
183.773606
 51
214.405502
  0
ARC
  5
274
100
AcDbEntity
  8
0
370
    35
390
0
 62
     7
100
AcDbCircle
 10
280.877808
 20
139.496658
 30
0.0
 40
1.940659
210
0.0
220
0.0
230
1.0
100
AcDbArc
 50
180.006047
 51
183.746436
  0
ARC
  5
275
100
AcDbEntity
  8
0
370
    35
390
0
 62
     7
100
AcDbCircle
 10
280.889374
 20
139.478088
 30
0.0
 40
1.946845
210
0.0
220
0.0
230
1.0
100
AcDbArc
 50
214.571325
 51
266.332787
  0
LINE
  5
276
100
AcDbEntity
  8
0
370
    35
390
0
 62
     7
 48
0.008622
100
AcDbLine
 10
281.109039
 20
137.513641
 30
0.0
 11
280.764832
 21
137.535217
 31
0.0
210
0.0
220
0.0
230
1.0
  0
POLYLINE
  5
277
100
AcDbEntity
  8
0
370
    35
390
0
 62
     7
100
AcDb2dPolyline
 66
     1
 10
0.0
 20
0.0
 30
0.0
 71
     3
  0
VERTEX
  5
278
100
AcDbEntity
  8
0
370
     0
390
0
100
AcDbVertex
100
AcDb2dVertex
 10
314.704651
 20
135.342575
 30
0.0
  0
VERTEX
  5
279
100
AcDbEntity
  8
0
370
     0
390
0
100
AcDbVertex
100
AcDb2dVertex
 10
298.022125
 20
136.454605
 30
0.0
  0
VERTEX
  5
27A
100
AcDbEntity
  8
0
370
     0
390
0
100
AcDbVertex
100
AcDb2dVertex
 10
281.109039
 20
137.513641
 30
0.0
  0
SEQEND
  5
27B
100
AcDbEntity
  8
0
370
     0
390
0
  0
LINE
  5
27C
100
AcDbEntity
  8
0
370
    35
390
0
 62
     7
 48
0.018059
100
AcDbLine
 10
314.005402
 20
135.523895
 30
0.0
 11
314.704651
 21
135.342575
 31
0.0
210
0.0
220
0.0
230
1.0
  0
POLYLINE
  5
27D
100
AcDbEntity
  8
0
370
    35
390
0
 62
     7
100
AcDb2dPolyline
 66
     1
 10
0.0
 20
0.0
 30
0.0
 71
     5
  0
VERTEX
  5
27E
100
AcDbEntity
  8
0
370
     0
390
0
100
AcDbVertex
100
AcDb2dVertex
 10
314.005402
 20
135.523895
 30
0.0
  0
VERTEX
  5
27F
100
AcDbEntity
  8
0
370
     0
390
0
100
AcDbVertex
100
AcDb2dVertex
 10
300.935059
 20
138.803955
 30
0.0
  0
VERTEX
  5
280
100
AcDbEntity
  8
0
370
     0
390
0
100
AcDbVertex
100
AcDb2dVertex
 10
294.4216
 20
140.384735
 30
0.0
  0
VERTEX
  5
281
100
AcDbEntity
  8
0
370
     0
390
0
100
AcDbVertex
100
AcDb2dVertex
 10
287.887299
 20
141.928268
 30
0.0
  0
VERTEX
  5
282
100
AcDbEntity
  8
0
370
     0
390
0
100
AcDbVertex
100
AcDb2dVertex
 10
281.332214
 20
143.43222
 30
0.0
  0
SEQEND
  5
283
100
AcDbEntity
  8
0
370
     0
390
0
  0
ARC
  5
284
100
AcDbEntity
  8
0
370
    35
390
0
 62
     7
100
AcDbCircle
 10
280.896332
 20
141.486191
 30
0.0
 40
1.99431
210
0.0
220
0.0
230
1.0
100
AcDbArc
 50
77.375108
 51
110.257462
  0
LINE
  5
285
100
AcDbEntity
  8
0
370
    35
390
0
 62
     7
 48
0.006688
100
AcDbLine
 10
267.249512
 20
146.50766
 30
0.0
 11
267.5112
 21
146.452072
 31
0.0
210
0.0
220
0.0
230
1.0
  0
ARC
  5
286
100
AcDbEntity
  8
0
370
    35
390
0
 62
     7
100
AcDbCircle
 10
48.975708
 20
-886.778992
 30
0.0
 40
1056.089397
210
0.0
220
0.0
230
1.0
100
AcDbArc
 50
78.072067
 51
78.24285
  0
ARC
  5
287
100
AcDbEntity
  8
0
370
    35
390
0
 62
     7
100
AcDbCircle
 10
263.761871
 20
145.202316
 30
0.0
 40
1.993272
210
0.0
220
0.0
230
1.0
100
AcDbArc
 50
78.225808
 51
117.329536
  0
ARC
  5
288
100
AcDbEntity
  8
0
370
    35
390
0
 62
     7
100
AcDbCircle
 10
263.73761
 20
145.251495
 30
0.0
 40
1.93844
210
0.0
220
0.0
230
1.0
100
AcDbArc
 50
117.360258
 51
167.867991
  0
ARC
  5
289
100
AcDbEntity
  8
0
370
    35
390
0
 62
     7
100
AcDbCircle
 10
263.736328
 20
145.251205
 30
0.0
 40
1.937276
210
0.0
220
0.0
230
1.0
100
AcDbArc
 50
167.851284
 51
197.641909
  0
ARC
  5
28A
100
AcDbEntity
  8
0
370
    35
390
0
 62
     7
100
AcDbCircle
 10
263.801575
 20
145.276398
 30
0.0
 40
2.007173
210
0.0
220
0.0
230
1.0
100
AcDbArc
 50
197.762858
 51
229.901152
  0
LINE
  5
28B
100
AcDbEntity
  8
0
370
    35
390
0
 62
     7
 48
0.10887
100
AcDbLine
 10
262.508759
 20
143.741074
 30
0.0
 11
265.844727
 21
140.941864
 31
0.0
210
0.0
220
0.0
230
1.0
  0
ARC
  5
28C
100
AcDbEntity
  8
0
370
    35
390
0
 62
     7
100
AcDbCircle
 10
267.125763
 20
142.467133
 30
0.0
 40
1.991799
210
0.0
220
0.0
230
1.0
100
AcDbArc
 50
229.974194
 51
272.141767
  0
ARC
  5
28D
100
AcDbEntity
  8
0
370
    35
390
0
 62
     7
100
AcDbCircle
 10
267.126129
 20
142.414047
 30
0.0
 40
1.938696
210
0.0
220
0.0
230
1.0
100
AcDbArc
 50
272.18938
 51
342.188002
  0
ARC
  5
28E
100
AcDbEntity
  8
0
370
    35
390
0
 62
     7
100
AcDbCircle
 10
267.06778
 20
142.432022
 30
0.0
 40
1.999738
210
0.0
220
0.0
230
1.0
100
AcDbArc
 50
342.208769
 51
355.966847
  0
ARC
  5
28F
100
AcDbEntity
  8
0
370
    35
390
0
 62
     7
100
AcDbCircle
 10
267.07782
 20
142.43158
 30
0.0
 40
1.989717
210
0.0
220
0.0
230
1.0
100
AcDbArc
 50
355.959189
 51
359.996633
  0
LINE
  5
290
100
AcDbEntity
  8
0
370
    35
390
0
 62
     7
 48
0.052418
100
AcDbLine
 10
269.067535
 20
142.431473
 30
0.0
 11
269.067535
 21
144.528198
 31
0.0
210
0.0
220
0.0
230
1.0
  0
ARC
  5
291
100
AcDbEntity
  8
0
370
    35
390
0
 62
     7
100
AcDbCircle
 10
267.100067
 20
144.528046
 30
0.0
 40
1.967392
210
0.0
220
0.0
230
1.0
100
AcDbArc
 50
0.00438
 51
77.938066
  0
ARC
  5
292
100
AcDbEntity
  8
0
370
    35
390
0
 62
     7
100
AcDbCircle
 10
249.033981
 20
144.122025
 30
0.0
 40
4.902213
210
0.0
220
0.0
230
1.0
100
AcDbArc
 50
50.001131
 51
120.21204
  0
LINE
  5
293
100
AcDbEntity
  8
0
370
    35
390
0
 62
     7
 48
0.194148
100
AcDbLine
 10
246.5672
 20
148.358337
 30
0.0
 11
239.856186
 21
144.450439
 31
0.0
210
0.0
220
0.0
230
1.0
  0
ARC
  5
294
100
AcDbEntity
  8
0
370
    35
390
0
 62
     7
100
AcDbCircle
 10
241.107849
 20
142.301071
 30
0.0
 40
2.487247
210
0.0
220
0.0
230
1.0
100
AcDbArc
 50
120.213761
 51
125.808874
  0
ARC
  5
295
100
AcDbEntity
  8
0
370
    35
390
0
 62
     7
100
AcDbCircle
 10
241.086716
 20
142.330429
 30
0.0
 40
2.451052
210
0.0
220
0.0
230
1.0
100
AcDbArc
 50
145.689943
 51
266.679856
  0
ARC
  5
296
100
AcDbEntity
  8
0
370
    35
390
0
 62
     7
100
AcDbCircle
 10
241.086044
 20
142.33107
 30
0.0
 40
2.450162
210
0.0
220
0.0
230
1.0
100
AcDbArc
 50
125.806019
 51
145.693631
  0
LINE
  5
297
100
AcDbEntity
  8
0
370
    35
390
0
 62
     7
 48
0.373882
100
AcDbLine
 10
255.874771
 20
139.014481
 30
0.0
 11
240.944763
 21
139.883484
 31
0.0
210
0.0
220
0.0
230
1.0
  0
ARC
  5
298
100
AcDbEntity
  8
0
370
    35
390
0
 62
     7
100
AcDbCircle
 10
256.017914
 20
141.461563
 30
0.0
 40
2.451274
210
0.0
220
0.0
230
1.0
100
AcDbArc
 50
266.652071
 51
346.52269
  0
ARC
  5
299
100
AcDbEntity
  8
0
370
    35
390
0
 62
     7
100
AcDbCircle
 10
256.017761
 20
141.461304
 30
0.0
 40
2.451362
210
0.0
220
0.0
230
1.0
100
AcDbArc
 50
346.529509
 51
49.996257
  0
LINE
  5
29A
100
AcDbEntity
  8
0
370
    35
390
0
 62
     7
 48
0.17651
100
AcDbLine
 10
257.593567
 20
143.339035
 30
0.0
 11
252.184982
 21
147.87738
 31
0.0
210
0.0
220
0.0
230
1.0
  0
ARC
  5
29B
100
AcDbEntity
  8
0
370
    35
390
0
 62
     7
100
AcDbCircle
 10
237.419601
 20
149.84848
 30
0.0
 40
2.488367
210
0.0
220
0.0
230
1.0
100
AcDbArc
 50
72.316069
 51
79.581935
  0
ARC
  5
29C
100
AcDbEntity
  8
0
370
    35
390
0
 62
     7
100
AcDbCircle
 10
22.235117
 20
-1019.388611
 30
0.0
 40
1191.361368
210
0.0
220
0.0
230
1.0
100
AcDbArc
 50
79.572086
 51
80.669746
  0
LINE
  5
29D
100
AcDbEntity
  8
0
370
    35
390
0
 62
     7
 48
0.006351
100
AcDbLine
 10
215.384369
 20
156.210907
 30
0.0
 11
215.133621
 21
156.25177
 31
0.0
210
0.0
220
0.0
230
1.0
  0
ARC
  5
29E
100
AcDbEntity
  8
0
370
    35
390
0
 62
     7
100
AcDbCircle
 10
214.74147
 20
153.832397
 30
0.0
 40
2.450493
210
0.0
220
0.0
230
1.0
100
AcDbArc
 50
121.601655
 51
214.553826
  0
ARC
  5
29F
100
AcDbEntity
  8
0
370
    35
390
0
 62
     7
100
AcDbCircle
 10
214.739349
 20
153.840012
 30
0.0
 40
2.443653
210
0.0
220
0.0
230
1.0
100
AcDbArc
 50
80.715426
 51
121.652813
  0
ARC
  5
2A0
100
AcDbEntity
  8
0
370
    35
390
0
 62
     7
100
AcDbCircle
 10
214.774033
 20
153.856491
 30
0.0
 40
2.490439
210
0.0
220
0.0
230
1.0
100
AcDbArc
 50
214.585245
 51
229.989726
  0
LINE
  5
2A1
100
AcDbEntity
  8
0
370
    35
390
0
 62
     7
 48
0.333008
100
AcDbLine
 10
213.172867
 20
151.94899
 30
0.0
 11
223.376816
 21
143.386856
 31
0.0
210
0.0
220
0.0
230
1.0
  0
LINE
  5
2A2
100
AcDbEntity
  8
0
370
    35
390
0
 62
     7
 48
0.017951
100
AcDbLine
 10
223.927368
 20
142.925903
 30
0.0
 11
223.376816
 21
143.386856
 31
0.0
210
0.0
220
0.0
230
1.0
  0
ARC
  5
2A3
100
AcDbEntity
  8
0
370
    35
390
0
 62
     7
100
AcDbCircle
 10
227.069717
 20
146.687241
 30
0.0
 40
4.901176
210
0.0
220
0.0
230
1.0
100
AcDbArc
 50
230.123393
 51
291.749799
  0
ARC
  5
2A4
100
AcDbEntity
  8
0
370
    35
390
0
 62
     7
100
AcDbCircle
 10
227.041641
 20
146.7565
 30
0.0
 40
4.975957
210
0.0
220
0.0
230
1.0
100
AcDbArc
 50
291.754512
 51
300.212021
  0
LINE
  5
2A5
100
AcDbEntity
  8
0
370
    35
390
0
 62
     7
 48
0.263798
100
AcDbLine
 10
238.664047
 20
147.766418
 30
0.0
 11
229.545547
 21
142.456436
 31
0.0
210
0.0
220
0.0
230
1.0
  0
ARC
  5
2A6
100
AcDbEntity
  8
0
370
    35
390
0
 62
     7
100
AcDbCircle
 10
237.429092
 20
149.883926
 30
0.0
 40
2.452394
210
0.0
220
0.0
230
1.0
100
AcDbArc
 50
325.766795
 51
72.275655
  0
ARC
  5
2A7
100
AcDbEntity
  8
0
370
    35
390
0
 62
     7
100
AcDbCircle
 10
237.43222
 20
149.885193
 30
0.0
 40
2.450808
210
0.0
220
0.0
230
1.0
100
AcDbArc
 50
300.173055
 51
325.701119
  0
ARC
  5
2A8
100
AcDbEntity
  8
0
370
    35
390
0
 62
     7
100
AcDbCircle
 10
199.303299
 20
152.661163
 30
0.0
 40
4.902253
210
0.0
220
0.0
230
1.0
100
AcDbArc
 50
50.001086
 51
115.069918
  0
ARC
  5
2A9
100
AcDbEntity
  8
0
370
    35
390
0
 62
     7
100
AcDbCircle
 10
199.304657
 20
152.659332
 30
0.0
 40
4.904476
210
0.0
220
0.0
230
1.0
100
AcDbArc
 50
115.075328
 51
120.214635
  0
LINE
  5
2AA
100
AcDbEntity
  8
0
370
    35
390
0
 62
     7
 48
0.445058
100
AcDbLine
 10
181.452637
 20
147.938828
 30
0.0
 11
196.836533
 21
156.897522
 31
0.0
210
0.0
220
0.0
230
1.0
  0
ARC
  5
2AB
100
AcDbEntity
  8
0
370
    35
390
0
 62
     7
100
AcDbCircle
 10
182.708115
 20
145.784698
 30
0.0
 40
2.493291
210
0.0
220
0.0
230
1.0
100
AcDbArc
 50
120.234361
 51
139.248378
  0
ARC
  5
2AC
100
AcDbEntity
  8
0
370
    35
390
0
 62
     7
100
AcDbCircle
 10
182.677094
 20
145.814072
 30
0.0
 40
2.451056
210
0.0
220
0.0
230
1.0
100
AcDbArc
 50
139.295247
 51
266.21054
  0
LINE
  5
2AD
100
AcDbEntity
  8
0
370
    35
390
0
 62
     7
 48
0.010702
100
AcDbLine
 10
182.515121
 20
143.368729
 30
0.0
 11
182.942291
 21
143.341125
 31
0.0
210
0.0
220
0.0
230
1.0
  0
ARC
  5
2AE
100
AcDbEntity
  8
0
370
    35
390
0
 62
     7
100
AcDbCircle
 10
638.849548
 20
7382.071777
 30
0.0
 40
7253.07393
210
0.0
220
0.0
230
1.0
100
AcDbArc
 50
266.396178
 51
266.636942
  0
ARC
  5
2AF
100
AcDbEntity
  8
0
370
    35
390
0
 62
     7
100
AcDbCircle
 10
213.511475
 20
143.973831
 30
0.0
 40
2.48998
210
0.0
220
0.0
230
1.0
100
AcDbArc
 50
266.622612
 51
277.518444
  0
ARC
  5
2B0
100
AcDbEntity
  8
0
370
    35
390
0
 62
     7
100
AcDbCircle
 10
213.515167
 20
143.935394
 30
0.0
 40
2.451921
210
0.0
220
0.0
230
1.0
100
AcDbArc
 50
312.884737
 51
49.974841
  0
ARC
  5
2B1
100
AcDbEntity
  8
0
370
    35
390
0
 62
     7
100
AcDbCircle
 10
213.519836
 20
143.930176
 30
0.0
 40
2.445522
210
0.0
220
0.0
230
1.0
100
AcDbArc
 50
277.45797
 51
312.887657
  0
LINE
  5
2B2
100
AcDbEntity
  8
0
370
    35
390
0
 62
     7
 48
0.412423
100
AcDbLine
 10
215.091675
 20
145.812546
 30
0.0
 11
202.454315
 21
156.41655
 31
0.0
210
0.0
220
0.0
230
1.0
  0
ARC
  5
2B3
100
AcDbEntity
  8
0
370
    35
390
0
 62
     7
100
AcDbCircle
 10
186.887131
 20
157.918991
 30
0.0
 40
2.489499
210
0.0
220
0.0
230
1.0
100
AcDbArc
 50
72.682078
 51
82.475757
  0
ELLIPSE
  5
2B4
100
AcDbEntity
  8
0
370
    35
390
0
 62
     7
100
AcDbEllipse
 10
191.545227
 20
153.517944
 30
0.0
 11
72.674858093261719
 21
-10.045150756835937
 31
0.0
210
0.0
220
0.0
230
1.0
 40
0.084878
 41
1.642168327562415
 42
2.0116115542195558
  0
ARC
  5
2B5
100
AcDbEntity
  8
0
370
    35
390
0
 62
     7
100
AcDbCircle
 10
101.667847
 20
-446.250061
 30
0.0
 40
612.543044
210
0.0
220
0.0
230
1.0
100
AcDbArc
 50
84.412587
 51
85.304644
  0
LINE
  5
2B6
100
AcDbEntity
  8
0
370
    35
390
0
 62
     7
 48
0.010072
100
AcDbLine
 10
151.809219
 20
164.237228
 30
0.0
 11
151.407639
 21
164.269501
 31
0.0
210
0.0
220
0.0
230
1.0
  0
ARC
  5
2B7
100
AcDbEntity
  8
0
370
    35
390
0
 62
     7
100
AcDbCircle
 10
151.216095
 20
161.826904
 30
0.0
 40
2.450767
210
0.0
220
0.0
230
1.0
100
AcDbArc
 50
101.999743
 51
209.09921
  0
ARC
  5
2B8
100
AcDbEntity
  8
0
370
    35
390
0
 62
     7
100
AcDbCircle
 10
151.214081
 20
161.822662
 30
0.0
 40
2.454472
210
0.0
220
0.0
230
1.0
100
AcDbArc
 50
85.477017
 51
101.933265
  0
ARC
  5
2B9
100
AcDbEntity
  8
0
370
    35
390
0
 62
     7
100
AcDbCircle
 10
151.252991
 20
161.850708
 30
0.0
 40
2.494094
210
0.0
220
0.0
230
1.0
100
AcDbArc
 50
209.164616
 51
229.974645
  0
LINE
  5
2BA
100
AcDbEntity
  8
0
370
    35
390
0
 62
     7
100
AcDbLine
 10
149.648972
 20
159.940826
 30
0.0
 11
164.987991
 21
147.069855
 31
0.0
210
0.0
220
0.0
230
1.0
  0
LINE
  5
2BB
100
AcDbEntity
  8
0
370
    35
390
0
 62
     7
 48
0.0223
100
AcDbLine
 10
164.987991
 20
147.069855
 30
0.0
 11
165.672089
 21
146.497452
 31
0.0
210
0.0
220
0.0
230
1.0
  0
ARC
  5
2BC
100
AcDbEntity
  8
0
370
    35
390
0
 62
     7
100
AcDbCircle
 10
168.811661
 20
150.26001
 30
0.0
 40
4.900356
210
0.0
220
0.0
230
1.0
100
AcDbArc
 50
230.15753
 51
288.507905
  0
ARC
  5
2BD
100
AcDbEntity
  8
0
370
    35
390
0
 62
     7
100
AcDbCircle
 10
168.787125
 20
150.331558
 30
0.0
 40
4.976011
210
0.0
220
0.0
230
1.0
100
AcDbArc
 50
288.514482
 51
294.667287
  0
ARC
  5
2BE
100
AcDbEntity
  8
0
370
    35
390
0
 62
     7
100
AcDbCircle
 10
168.787018
 20
150.332764
 30
0.0
 40
4.977161
210
0.0
220
0.0
230
1.0
100
AcDbArc
 50
294.66254
 51
300.211256
  0
LINE
  5
2BF
100
AcDbEntity
  8
0
370
    35
390
0
 62
     7
 48
0.487186
100
AcDbLine
 10
171.291473
 20
146.031631
 30
0.0
 11
188.131531
 21
155.83844
 31
0.0
210
0.0
220
0.0
230
1.0
  0
ARC
  5
2C0
100
AcDbEntity
  8
0
370
    35
390
0
 62
     7
100
AcDbCircle
 10
186.8974
 20
157.956131
 30
0.0
 40
2.451528
210
0.0
220
0.0
230
1.0
100
AcDbArc
 50
300.232211
 51
72.652804
  0
ARC
  5
2C1
100
AcDbEntity
  8
0
370
    35
390
0
 62
     7
100
AcDbCircle
 10
137.475845
 20
159.229553
 30
0.0
 40
4.902226
210
0.0
220
0.0
230
1.0
100
AcDbArc
 50
50.000902
 51
100.702779
  0
ARC
  5
2C2
100
AcDbEntity
  8
0
370
    35
390
0
 62
     7
100
AcDbCircle
 10
137.475403
 20
159.231415
 30
0.0
 40
4.900345
210
0.0
220
0.0
230
1.0
100
AcDbArc
 50
100.701775
 51
120.218324
  0
LINE
  5
2C3
100
AcDbEntity
  8
0
370
    35
390
0
 62
     7
100
AcDbLine
 10
116.631859
 20
152.763809
 30
0.0
 11
135.009064
 21
163.465881
 31
0.0
210
0.0
220
0.0
230
1.0
  0
ARC
  5
2C4
100
AcDbEntity
  8
0
370
    35
390
0
 62
     7
100
AcDbCircle
 10
117.889503
 20
150.607361
 30
0.0
 40
2.496392
210
0.0
220
0.0
230
1.0
100
AcDbArc
 50
120.250999
 51
143.4031
  0
ARC
  5
2C5
100
AcDbEntity
  8
0
370
    35
390
0
 62
     7
100
AcDbCircle
 10
117.853951
 20
150.637238
 30
0.0
 40
2.450382
210
0.0
220
0.0
230
1.0
100
AcDbArc
 50
143.468301
 51
264.496989
  0
LINE
  5
2C6
100
AcDbEntity
  8
0
370
    35
390
0
 62
     7
 48
0.013766
100
AcDbLine
 10
117.618988
 20
148.19841
 30
0.0
 11
118.167206
 21
148.146744
 31
0.0
210
0.0
220
0.0
230
1.0
  0
POLYLINE
  5
2C7
100
AcDbEntity
  8
0
370
    35
390
0
 62
     7
100
AcDb2dPolyline
 66
     1
 10
0.0
 20
0.0
 30
0.0
 71
     5
  0
VERTEX
  5
2C8
100
AcDbEntity
  8
0
370
     0
390
0
100
AcDbVertex
100
AcDb2dVertex
 10
118.167206
 20
148.146744
 30
0.0
  0
VERTEX
  5
2C9
100
AcDbEntity
  8
0
370
     0
390
0
100
AcDbVertex
100
AcDb2dVertex
 10
126.057045
 20
147.445038
 30
0.0
  0
VERTEX
  5
2CA
100
AcDbEntity
  8
0
370
     0
390
0
100
AcDbVertex
100
AcDb2dVertex
 10
133.95369
 20
146.788177
 30
0.0
  0
VERTEX
  5
2CB
100
AcDbEntity
  8
0
370
     0
390
0
100
AcDbVertex
100
AcDb2dVertex
 10
144.425888
 20
145.973038
 30
0.0
  0
VERTEX
  5
2CC
100
AcDbEntity
  8
0
370
     0
390
0
100
AcDbVertex
100
AcDb2dVertex
 10
154.90448
 20
145.208145
 30
0.0
  0
SEQEND
  5
2CD
100
AcDbEntity
  8
0
370
     0
390
0
  0
ARC
  5
2CE
100
AcDbEntity
  8
0
370
    35
390
0
 62
     7
100
AcDbCircle
 10
155.080505
 20
147.69313
 30
0.0
 40
2.491206
210
0.0
220
0.0
230
1.0
100
AcDbArc
 50
265.9482
 51
278.203328
  0
ARC
  5
2CF
100
AcDbEntity
  8
0
370
    35
390
0
 62
     7
100
AcDbCircle
 10
155.084183
 20
147.65332
 30
0.0
 40
2.452321
210
0.0
220
0.0
230
1.0
100
AcDbArc
 50
291.949125
 51
49.96795
  0
ARC
  5
2D0
100
AcDbEntity
  8
0
370
    35
390
0
 62
     7
100
AcDbCircle
 10
155.085281
 20
147.661957
 30
0.0
 40
2.459673
210
0.0
220
0.0
230
1.0
100
AcDbArc
 50
278.196709
 51
291.850244
  0
LINE
  5
2D1
100
AcDbEntity
  8
0
370
    35
390
0
 62
     7
100
AcDbLine
 10
156.661148
 20
149.530533
 30
0.0
 11
140.626846
 21
162.984909
 31
0.0
210
0.0
220
0.0
230
1.0
  0
ARC
  5
2D2
100
AcDbEntity
  8
0
370
    35
390
0
 62
     7
100
AcDbCircle
 10
106.654129
 20
163.456909
 30
0.0
 40
2.450945
210
0.0
220
0.0
230
1.0
100
AcDbArc
 50
100.023052
 51
179.998707
  0
LINE
  5
2D3
100
AcDbEntity
  8
0
370
    35
390
0
 62
     7
 48
0.24124
100
AcDbLine
 10
104.203209
 20
153.807343
 30
0.0
 11
104.203209
 21
163.456955
 31
0.0
210
0.0
220
0.0
230
1.0
  0
ARC
  5
2D4
100
AcDbEntity
  8
0
370
    35
390
0
 62
     7
100
AcDbCircle
 10
106.695091
 20
153.807648
 30
0.0
 40
2.491886
210
0.0
220
0.0
230
1.0
100
AcDbArc
 50
180.006853
 51
193.480657
  0
ARC
  5
2D5
100
AcDbEntity
  8
0
370
    35
390
0
 62
     7
100
AcDbCircle
 10
106.655029
 20
153.799179
 30
0.0
 40
2.451171
210
0.0
220
0.0
230
1.0
100
AcDbArc
 50
193.506394
 51
282.947851
  0
ARC
  5
2D6
100
AcDbEntity
  8
0
370
    35
390
0
 62
     7
100
AcDbCircle
 10
106.653725
 20
153.799255
 30
0.0
 40
2.45158
210
0.0
220
0.0
230
1.0
100
AcDbArc
 50
282.977268
 51
300.110845
  0
LINE
  5
2D7
100
AcDbEntity
  8
0
370
    35
390
0
 62
     7
 48
0.008079
100
AcDbLine
 10
108.163055
 20
151.840836
 30
0.0
 11
107.883621
 21
151.678497
 31
0.0
210
0.0
220
0.0
230
1.0
  0
LINE
  5
2D8
100
AcDbEntity
  8
0
370
    35
390
0
 62
     7
 48
0.467565
100
AcDbLine
 10
108.163055
 20
151.840836
 30
0.0
 11
124.324776
 21
161.252838
 31
0.0
210
0.0
220
0.0
230
1.0
  0
ARC
  5
2D9
100
AcDbEntity
  8
0
370
    35
390
0
 62
     7
100
AcDbCircle
 10
123.067001
 20
163.409683
 30
0.0
 40
2.496809
210
0.0
220
0.0
230
1.0
100
AcDbArc
 50
300.248938
 51
322.427051
  0
ARC
  5
2DA
100
AcDbEntity
  8
0
370
    35
390
0
 62
     7
100
AcDbCircle
 10
123.102188
 20
163.379074
 30
0.0
 40
2.450676
210
0.0
220
0.0
230
1.0
100
AcDbArc
 50
322.492388
 51
88.299845
  0
LINE
  5
2DB
100
AcDbEntity
  8
0
370
    35
390
0
 62
     7
 48
0.011223
100
AcDbLine
 10
123.174889
 20
165.828354
 30
0.0
 11
122.726151
 21
165.840714
 31
0.0
210
0.0
220
0.0
230
1.0
  0
POLYLINE
  5
2DC
100
AcDbEntity
  8
0
370
    35
390
0
 62
     7
100
AcDb2dPolyline
 66
     1
 10
0.0
 20
0.0
 30
0.0
 71
     5
  0
VERTEX
  5
2DD
100
AcDbEntity
  8
0
370
     0
390
0
100
AcDbVertex
100
AcDb2dVertex
 10
122.726151
 20
165.840714
 30
0.0
  0
VERTEX
  5
2DE
100
AcDbEntity
  8
0
370
     0
390
0
100
AcDbVertex
100
AcDb2dVertex
 10
118.629471
 20
165.925034
 30
0.0
  0
VERTEX
  5
2DF
100
AcDbEntity
  8
0
370
     0
390
0
100
AcDbVertex
100
AcDb2dVertex
 10
114.535332
 20
165.965881
 30
0.0
  0
VERTEX
  5
2E0
100
AcDbEntity
  8
0
370
     0
390
0
100
AcDbVertex
100
AcDb2dVertex
 10
110.573471
 20
165.960632
 30
0.0
  0
VERTEX
  5
2E1
100
AcDbEntity
  8
0
370
     0
390
0
100
AcDbVertex
100
AcDb2dVertex
 10
106.611908
 20
165.907898
 30
0.0
  0
SEQEND
  5
2E2
100
AcDbEntity
  8
0
370
     0
390
0
  0
ARC
  5
2E3
100
AcDbEntity
  8
0
370
    35
390
0
 62
     7
100
AcDbCircle
 10
106.660912
 20
163.416748
 30
0.0
 40
2.491648
210
0.0
220
0.0
230
1.0
100
AcDbArc
 50
91.127018
 51
97.772286
  0
LINE
  5
2E4
100
AcDbEntity
  8
0
370
    35
390
0
 62
     7
 48
0.002439
100
AcDbLine
 10
106.323952
 20
165.885498
 30
0.0
 11
106.227562
 21
165.870407
 31
0.0
210
0.0
220
0.0
230
1.0
  0
ARC
  5
2E5
100
AcDbEntity
  8
0
370
    35
390
0
 62
     7
100
AcDbCircle
 10
82.134377
 20
154.865952
 30
0.0
 40
2.493906
210
0.0
220
0.0
230
1.0
100
AcDbArc
 50
180.055033
 51
206.375863
  0
ARC
  5
2E6
100
AcDbEntity
  8
0
370
    35
390
0
 62
     7
100
AcDbCircle
 10
82.091797
 20
154.84819
 30
0.0
 40
2.447809
210
0.0
220
0.0
230
1.0
100
AcDbArc
 50
206.446228
 51
260.694227
  0
ARC
  5
2E7
100
AcDbEntity
  8
0
370
    35
390
0
 62
     7
100
AcDbCircle
 10
100.664421
 20
268.162476
 30
0.0
 40
117.274059
210
0.0
220
0.0
230
1.0
100
AcDbArc
 50
260.691823
 51
261.294566
  0
ARC
  5
2E8
100
AcDbEntity
  8
0
370
    35
390
0
 62
     7
100
AcDbCircle
 10
139.872116
 20
526.324829
 30
0.0
 40
378.397016
210
0.0
220
0.0
230
1.0
100
AcDbArc
 50
261.342726
 51
262.66585
  0
ARC
  5
2E9
100
AcDbEntity
  8
0
370
    35
390
0
 62
     7
100
AcDbCircle
 10
91.882103
 20
153.454361
 30
0.0
 40
2.451598
210
0.0
220
0.0
230
1.0
100
AcDbArc
 50
282.053984
 51
359.991107
  0
ARC
  5
2EA
100
AcDbEntity
  8
0
370
    35
390
0
 62
     7
100
AcDbCircle
 10
91.882896
 20
153.453308
 30
0.0
 40
2.450458
210
0.0
220
0.0
230
1.0
100
AcDbArc
 50
262.604446
 51
282.040972
  0
LINE
  5
2EB
100
AcDbEntity
  8
0
370
    35
390
0
 62
     7
 48
0.232467
100
AcDbLine
 10
94.33358
 20
153.453979
 30
0.0
 11
94.33358
 21
162.75264
 31
0.0
210
0.0
220
0.0
230
1.0
  0
ARC
  5
2EC
100
AcDbEntity
  8
0
370
    35
390
0
 62
     7
100
AcDbCircle
 10
91.844406
 20
162.751617
 30
0.0
 40
2.489182
210
0.0
220
0.0
230
1.0
100
AcDbArc
 50
0.023731
 51
20.344714
  0
ARC
  5
2ED
100
AcDbEntity
  8
0
370
    35
390
0
 62
     7
100
AcDbCircle
 10
91.882347
 20
162.764145
 30
0.0
 40
2.449174
210
0.0
220
0.0
230
1.0
100
AcDbArc
 50
20.378313
 51
94.132752
  0
ARC
  5
2EE
100
AcDbEntity
  8
0
370
    35
390
0
 62
     7
100
AcDbCircle
 10
98.851639
 20
66.339783
 30
0.0
 40
99.125131
210
0.0
220
0.0
230
1.0
100
AcDbArc
 50
94.133968
 51
94.715271
  0
ARC
  5
2EF
100
AcDbEntity
  8
0
370
    35
390
0
 62
     7
100
AcDbCircle
 10
105.755264
 20
-18.864807
 30
0.0
 40
184.608614
210
0.0
220
0.0
230
1.0
100
AcDbArc
 50
94.676817
 51
96.990394
  0
ARC
  5
2F0
100
AcDbEntity
  8
0
370
    35
390
0
 62
     7
100
AcDbCircle
 10
102.970734
 20
4.802017
 30
0.0
 40
160.778606
210
0.0
220
0.0
230
1.0
100
AcDbArc
 50
97.031908
 51
97.577892
  0
ARC
  5
2F1
100
AcDbEntity
  8
0
370
    35
390
0
 62
     7
100
AcDbCircle
 10
82.091705
 20
161.746689
 30
0.0
 40
2.451232
210
0.0
220
0.0
230
1.0
100
AcDbArc
 50
97.582981
 51
179.997696
  0
LINE
  5
2F2
100
AcDbEntity
  8
0
370
    35
390
0
 62
     7
 48
0.172081
100
AcDbLine
 10
79.640503
 20
161.74678
 30
0.0
 11
79.640503
 21
154.863556
 31
0.0
210
0.0
220
0.0
230
1.0
  0
POLYLINE
  5
2F3
100
AcDbEntity
  8
0
370
    35
390
0
 62
     7
100
AcDb2dPolyline
 66
     1
 10
0.0
 20
0.0
 30
0.0
 71
     9
  0
VERTEX
  5
2F4
100
AcDbEntity
  8
0
370
     0
390
0
100
AcDbVertex
100
AcDb2dVertex
 10
58.428207
 20
157.8004
 30
0.0
  0
VERTEX
  5
2F5
100
AcDbEntity
  8
0
370
     0
390
0
100
AcDbVertex
100
AcDb2dVertex
 10
59.698242
 20
158.48259
 30
0.0
  0
VERTEX
  5
2F6
100
AcDbEntity
  8
0
370
     0
390
0
100
AcDbVertex
100
AcDb2dVertex
 10
61.026932
 20
159.11409
 30
0.0
  0
VERTEX
  5
2F7
100
AcDbEntity
  8
0
370
     0
390
0
100
AcDbVertex
100
AcDb2dVertex
 10
61.701332
 20
159.407089
 30
0.0
  0
VERTEX
  5
2F8
100
AcDbEntity
  8
0
370
     0
390
0
100
AcDbVertex
100
AcDb2dVertex
 10
63.42646
 20
160.082413
 30
0.0
  0
VERTEX
  5
2F9
100
AcDbEntity
  8
0
370
     0
390
0
100
AcDbVertex
100
AcDb2dVertex
 10
65.206078
 20
160.688248
 30
0.0
  0
VERTEX
  5
2FA
100
AcDbEntity
  8
0
370
     0
390
0
100
AcDbVertex
100
AcDb2dVertex
 10
66.671165
 20
161.135376
 30
0.0
  0
VERTEX
  5
2FB
100
AcDbEntity
  8
0
370
     0
390
0
100
AcDbVertex
100
AcDb2dVertex
 10
69.67215
 20
161.943878
 30
0.0
  0
VERTEX
  5
2FC
100
AcDbEntity
  8
0
370
     0
390
0
100
AcDbVertex
100
AcDb2dVertex
 10
72.712677
 20
162.644012
 30
0.0
  0
SEQEND
  5
2FD
100
AcDbEntity
  8
0
370
     0
390
0
  0
POLYLINE
  5
2FE
100
AcDbEntity
  8
0
370
    35
390
0
 62
     7
100
AcDb2dPolyline
 66
     1
 10
0.0
 20
0.0
 30
0.0
 71
     7
  0
VERTEX
  5
2FF
100
AcDbEntity
  8
0
370
     0
390
0
100
AcDbVertex
100
AcDb2dVertex
 10
58.428207
 20
157.8004
 30
0.0
  0
VERTEX
  5
300
100
AcDbEntity
  8
0
370
     0
390
0
100
AcDbVertex
100
AcDb2dVertex
 10
60.112404
 20
157.174408
 30
0.0
  0
VERTEX
  5
301
100
AcDbEntity
  8
0
370
     0
390
0
100
AcDbVertex
100
AcDb2dVertex
 10
62.573471
 20
156.397461
 30
0.0
  0
VERTEX
  5
302
100
AcDbEntity
  8
0
370
     0
390
0
100
AcDbVertex
100
AcDb2dVertex
 10
64.745125
 20
155.795013
 30
0.0
  0
VERTEX
  5
303
100
AcDbEntity
  8
0
370
     0
390
0
100
AcDbVertex
100
AcDb2dVertex
 10
66.915298
 20
155.248047
 30
0.0
  0
VERTEX
  5
304
100
AcDbEntity
  8
0
370
     0
390
0
100
AcDbVertex
100
AcDb2dVertex
 10
69.076286
 20
154.749023
 30
0.0
  0
VERTEX
  5
305
100
AcDbEntity
  8
0
370
     0
390
0
100
AcDbVertex
100
AcDb2dVertex
 10
72.747894
 20
153.987061
 30
0.0
  0
SEQEND
  5
306
100
AcDbEntity
  8
0
370
     0
390
0
  0
ARC
  5
307
100
AcDbEntity
  8
0
370
    35
390
0
 62
     7
100
AcDbCircle
 10
73.224541
 20
156.42952
 30
0.0
 40
2.488536
210
0.0
220
0.0
230
1.0
100
AcDbArc
 50
258.957419
 51
266.454883
  0
ARC
  5
308
100
AcDbEntity
  8
0
370
    35
390
0
 62
     7
100
AcDbCircle
 10
73.221725
 20
156.39238
 30
0.0
 40
2.451466
210
0.0
220
0.0
230
1.0
100
AcDbArc
 50
279.861971
 51
359.992698
  0
ARC
  5
309
100
AcDbEntity
  8
0
370
    35
390
0
 62
     7
100
AcDbCircle
 10
73.222458
 20
156.393158
 30
0.0
 40
2.452107
210
0.0
220
0.0
230
1.0
100
AcDbArc
 50
266.451038
 51
279.842095
  0
LINE
  5
30A
100
AcDbEntity
  8
0
370
    35
390
0
 62
     7
 48
0.096359
100
AcDbLine
 10
75.673096
 20
156.392059
 30
0.0
 11
75.673096
 21
160.246429
 31
0.0
210
0.0
220
0.0
230
1.0
  0
ARC
  5
30B
100
AcDbEntity
  8
0
370
    35
390
0
 62
     7
100
AcDbCircle
 10
73.221687
 20
160.246094
 30
0.0
 40
2.451541
210
0.0
220
0.0
230
1.0
100
AcDbArc
 50
0.007971
 51
97.011847
  0
ARC
  5
30C
100
AcDbEntity
  8
0
370
    35
390
0
 62
     7
100
AcDbCircle
 10
73.223557
 20
160.239746
 30
0.0
 40
2.457959
210
0.0
220
0.0
230
1.0
100
AcDbArc
 50
97.03701
 51
101.996287
  0
POLYLINE
  5
30D
100
AcDbEntity
  8
0
370
    35
390
0
 62
     7
100
AcDb2dPolyline
 66
     1
 10
0.0
 20
0.0
 30
0.0
 71
    12
  0
VERTEX
  5
30E
100
AcDbEntity
  8
0
370
     0
390
0
100
AcDbVertex
100
AcDb2dVertex
 10
367.731476
 20
126.60511
 30
0.0
  0
VERTEX
  5
30F
100
AcDbEntity
  8
0
370
     0
390
0
100
AcDbVertex
100
AcDb2dVertex
 10
363.697632
 20
127.482933
 30
0.0
  0
VERTEX
  5
310
100
AcDbEntity
  8
0
370
     0
390
0
100
AcDbVertex
100
AcDb2dVertex
 10
361.018066
 20
128.111679
 30
0.0
  0
VERTEX
  5
311
100
AcDbEntity
  8
0
370
     0
390
0
100
AcDbVertex
100
AcDb2dVertex
 10
355.672668
 20
129.425278
 30
0.0
  0
VERTEX
  5
312
100
AcDbEntity
  8
0
370
     0
390
0
100
AcDbVertex
100
AcDb2dVertex
 10
345.902069
 20
131.927002
 30
0.0
  0
VERTEX
  5
313
100
AcDbEntity
  8
0
370
     0
390
0
100
AcDbVertex
100
AcDb2dVertex
 10
331.26593
 20
135.754623
 30
0.0
  0
VERTEX
  5
314
100
AcDbEntity
  8
0
370
     0
390
0
100
AcDbVertex
100
AcDb2dVertex
 10
317.712738
 20
139.271957
 30
0.0
  0
VERTEX
  5
315
100
AcDbEntity
  8
0
370
     0
390
0
100
AcDbVertex
100
AcDb2dVertex
 10
310.924072
 20
141.00116
 30
0.0
  0
VERTEX
  5
316
100
AcDbEntity
  8
0
370
     0
390
0
100
AcDbVertex
100
AcDb2dVertex
 10
298.411987
 20
144.100067
 30
0.0
  0
VERTEX
  5
317
100
AcDbEntity
  8
0
370
     0
390
0
100
AcDbVertex
100
AcDb2dVertex
 10
292.150299
 20
145.597336
 30
0.0
  0
VERTEX
  5
318
100
AcDbEntity
  8
0
370
     0
390
0
100
AcDbVertex
100
AcDb2dVertex
 10
285.866272
 20
147.059708
 30
0.0
  0
VERTEX
  5
319
100
AcDbEntity
  8
0
370
     0
390
0
100
AcDbVertex
100
AcDb2dVertex
 10
274.50235
 20
149.599518
 30
0.0
  0
SEQEND
  5
31A
100
AcDbEntity
  8
0
370
     0
390
0
  0
LINE
  5
31B
100
AcDbEntity
  8
0
370
    35
390
0
 62
     7
 48
0.007111
100
AcDbLine
 10
367.731476
 20
126.605072
 30
0.0
 11
368.010223
 21
126.548508
 31
0.0
210
0.0
220
0.0
230
1.0
  0
LINE
  5
31C
100
AcDbEntity
  8
0
370
    35
390
0
 62
     7
 48
0.283212
100
AcDbLine
 10
99.181007
 20
145.781113
 30
0.0
 11
99.181007
 21
157.109589
 31
0.0
210
0.0
220
0.0
230
1.0
  0
POLYLINE
  5
31D
100
AcDbEntity
  8
0
370
    35
390
0
 62
     7
100
AcDb2dPolyline
 66
     1
 10
0.0
 20
0.0
 30
0.0
 71
    15
  0
VERTEX
  5
31E
100
AcDbEntity
  8
0
370
     0
390
0
100
AcDbVertex
100
AcDb2dVertex
 10
86.696869
 20
169.215332
 30
0.0
  0
VERTEX
  5
31F
100
AcDbEntity
  8
0
370
     0
390
0
100
AcDbVertex
100
AcDb2dVertex
 10
91.666496
 20
169.666443
 30
0.0
  0
VERTEX
  5
320
100
AcDbEntity
  8
0
370
     0
390
0
100
AcDbVertex
100
AcDb2dVertex
 10
94.954643
 20
169.899597
 30
0.0
  0
VERTEX
  5
321
100
AcDbEntity
  8
0
370
     0
390
0
100
AcDbVertex
100
AcDb2dVertex
 10
98.527435
 20
170.100586
 30
0.0
  0
VERTEX
  5
322
100
AcDbEntity
  8
0
370
     0
390
0
100
AcDbVertex
100
AcDb2dVertex
 10
102.102615
 20
170.252289
 30
0.0
  0
VERTEX
  5
323
100
AcDbEntity
  8
0
370
     0
390
0
100
AcDbVertex
100
AcDb2dVertex
 10
106.044617
 20
170.367371
 30
0.0
  0
VERTEX
  5
324
100
AcDbEntity
  8
0
370
     0
390
0
100
AcDbVertex
100
AcDb2dVertex
 10
109.987671
 20
170.431702
 30
0.0
  0
VERTEX
  5
325
100
AcDbEntity
  8
0
370
     0
390
0
100
AcDbVertex
100
AcDb2dVertex
 10
115.922585
 20
170.440231
 30
0.0
  0
VERTEX
  5
326
100
AcDbEntity
  8
0
370
     0
390
0
100
AcDbVertex
100
AcDb2dVertex
 10
121.857216
 20
170.352692
 30
0.0
  0
VERTEX
  5
327
100
AcDbEntity
  8
0
370
     0
390
0
100
AcDbVertex
100
AcDb2dVertex
 10
127.789742
 20
170.179749
 30
0.0
  0
VERTEX
  5
328
100
AcDbEntity
  8
0
370
     0
390
0
100
AcDbVertex
100
AcDb2dVertex
 10
132.82486
 20
169.972946
 30
0.0
  0
VERTEX
  5
329
100
AcDbEntity
  8
0
370
     0
390
0
100
AcDbVertex
100
AcDb2dVertex
 10
137.857666
 20
169.716217
 30
0.0
  0
VERTEX
  5
32A
100
AcDbEntity
  8
0
370
     0
390
0
100
AcDbVertex
100
AcDb2dVertex
 10
145.910538
 20
169.208115
 30
0.0
  0
VERTEX
  5
32B
100
AcDbEntity
  8
0
370
     0
390
0
100
AcDbVertex
100
AcDb2dVertex
 10
153.955566
 20
168.585327
 30
0.0
  0
VERTEX
  5
32C
100
AcDbEntity
  8
0
370
     0
390
0
100
AcDbVertex
100
AcDb2dVertex
 10
161.99118
 20
167.853897
 30
0.0
  0
SEQEND
  5
32D
100
AcDbEntity
  8
0
370
     0
390
0
  0
POLYLINE
  5
32E
100
AcDbEntity
  8
0
370
    35
390
0
 62
     7
100
AcDb2dPolyline
 66
     1
 10
0.0
 20
0.0
 30
0.0
 71
    14
  0
VERTEX
  5
32F
100
AcDbEntity
  8
0
370
     0
390
0
100
AcDbVertex
100
AcDb2dVertex
 10
273.50235
 20
149.816605
 30
0.0
  0
VERTEX
  5
330
100
AcDbEntity
  8
0
370
     0
390
0
100
AcDbVertex
100
AcDb2dVertex
 10
266.794678
 20
151.246307
 30
0.0
  0
VERTEX
  5
331
100
AcDbEntity
  8
0
370
     0
390
0
100
AcDbVertex
100
AcDb2dVertex
 10
260.088226
 20
152.630432
 30
0.0
  0
VERTEX
  5
332
100
AcDbEntity
  8
0
370
     0
390
0
100
AcDbVertex
100
AcDb2dVertex
 10
249.318222
 20
154.761993
 30
0.0
  0
VERTEX
  5
333
100
AcDbEntity
  8
0
370
     0
390
0
100
AcDbVertex
100
AcDb2dVertex
 10
238.528259
 20
156.791748
 30
0.0
  0
VERTEX
  5
334
100
AcDbEntity
  8
0
370
     0
390
0
100
AcDbVertex
100
AcDb2dVertex
 10
227.720505
 20
158.72464
 30
0.0
  0
VERTEX
  5
335
100
AcDbEntity
  8
0
370
     0
390
0
100
AcDbVertex
100
AcDb2dVertex
 10
216.895813
 20
160.558502
 30
0.0
  0
VERTEX
  5
336
100
AcDbEntity
  8
0
370
     0
390
0
100
AcDbVertex
100
AcDb2dVertex
 10
206.399887
 20
162.226364
 30
0.0
  0
VERTEX
  5
337
100
AcDbEntity
  8
0
370
     0
390
0
100
AcDbVertex
100
AcDb2dVertex
 10
195.885605
 20
163.774384
 30
0.0
  0
VERTEX
  5
338
100
AcDbEntity
  8
0
370
     0
390
0
100
AcDbVertex
100
AcDb2dVertex
 10
184.606781
 20
165.291656
 30
0.0
  0
VERTEX
  5
339
100
AcDbEntity
  8
0
370
     0
390
0
100
AcDbVertex
100
AcDb2dVertex
 10
178.827042
 20
166.009964
 30
0.0
  0
VERTEX
  5
33A
100
AcDbEntity
  8
0
370
     0
390
0
100
AcDbVertex
100
AcDb2dVertex
 10
173.042313
 20
166.686951
 30
0.0
  0
VERTEX
  5
33B
100
AcDbEntity
  8
0
370
     0
390
0
100
AcDbVertex
100
AcDb2dVertex
 10
167.519012
 20
167.291992
 30
0.0
  0
VERTEX
  5
33C
100
AcDbEntity
  8
0
370
     0
390
0
100
AcDbVertex
100
AcDb2dVertex
 10
161.99118
 20
167.853897
 30
0.0
  0
SEQEND
  5
33D
100
AcDbEntity
  8
0
370
     0
390
0
  0
LINE
  5
33E
100
AcDbEntity
  8
0
370
    35
390
0
 62
     7
 48
0.025
100
AcDbLine
 10
273.50235
 20
141.677551
 30
0.0
 11
274.50235
 21
141.677551
 31
0.0
210
0.0
220
0.0
230
1.0
  0
ARC
  5
33F
100
AcDbEntity
  8
0
370
    35
390
0
 62
     7
100
AcDbCircle
 10
280.921295
 20
139.638214
 30
0.0
 40
1.993179
210
0.0
220
0.0
230
1.0
100
AcDbArc
 50
185.705867
 51
214.348757
  0
ARC
  5
340
100
AcDbEntity
  8
0
370
    35
390
0
 62
     7
100
AcDbCircle
 10
280.873932
 20
139.612747
 30
0.0
 40
1.939599
210
0.0
220
0.0
230
1.0
100
AcDbArc
 50
214.516752
 51
266.313478
  0
LINE
  5
341
100
AcDbEntity
  8
0
370
    35
390
0
 62
     7
 48
0.008597
100
AcDbLine
 10
281.092438
 20
137.655579
 30
0.0
 11
280.749237
 21
137.677139
 31
0.0
210
0.0
220
0.0
230
1.0
  0
POLYLINE
  5
342
100
AcDbEntity
  8
0
370
    35
390
0
 62
     7
100
AcDb2dPolyline
 66
     1
 10
0.0
 20
0.0
 30
0.0
 71
     3
  0
VERTEX
  5
343
100
AcDbEntity
  8
0
370
     0
390
0
100
AcDbVertex
100
AcDb2dVertex
 10
313.951752
 20
135.537598
 30
0.0
  0
VERTEX
  5
344
100
AcDbEntity
  8
0
370
     0
390
0
100
AcDbVertex
100
AcDb2dVertex
 10
297.956268
 20
136.600922
 30
0.0
  0
VERTEX
  5
345
100
AcDbEntity
  8
0
370
     0
390
0
100
AcDbVertex
100
AcDb2dVertex
 10
281.092438
 20
137.655579
 30
0.0
  0
SEQEND
  5
346
100
AcDbEntity
  8
0
370
     0
390
0
  0
ARC
  5
347
100
AcDbEntity
  8
0
370
    35
390
0
 62
     7
100
AcDbCircle
 10
263.753998
 20
145.373367
 30
0.0
 40
1.928865
210
0.0
220
0.0
230
1.0
100
AcDbArc
 50
169.684083
 51
197.710074
  0
ARC
  5
348
100
AcDbEntity
  8
0
370
    35
390
0
 62
     7
100
AcDbCircle
 10
263.826447
 20
145.401016
 30
0.0
 40
2.006396
210
0.0
220
0.0
230
1.0
100
AcDbArc
 50
197.832868
 51
229.902969
  0
LINE
  5
349
100
AcDbEntity
  8
0
370
    35
390
0
 62
     7
 48
0.108609
100
AcDbLine
 10
262.53421
 20
143.866241
 30
0.0
 11
265.862183
 21
141.073746
 31
0.0
210
0.0
220
0.0
230
1.0
  0
ARC
  5
34A
100
AcDbEntity
  8
0
370
    35
390
0
 62
     7
100
AcDbCircle
 10
267.142639
 20
142.598145
 30
0.0
 40
1.990759
210
0.0
220
0.0
230
1.0
100
AcDbArc
 50
229.970697
 51
272.051185
  0
ARC
  5
34B
100
AcDbEntity
  8
0
370
    35
390
0
 62
     7
100
AcDbCircle
 10
267.142975
 20
142.537781
 30
0.0
 40
1.930379
210
0.0
220
0.0
230
1.0
100
AcDbArc
 50
272.105233
 51
342.226902
  0
ARC
  5
34C
100
AcDbEntity
  8
0
370
    35
390
0
 62
     7
100
AcDbCircle
 10
267.078156
 20
142.557877
 30
0.0
 40
1.998221
210
0.0
220
0.0
230
1.0
100
AcDbArc
 50
342.245437
 51
354.160659
  0
ARC
  5
34D
100
AcDbEntity
  8
0
370
    35
390
0
 62
     7
100
AcDbCircle
 10
241.164398
 20
142.456085
 30
0.0
 40
2.444376
210
0.0
220
0.0
230
1.0
100
AcDbArc
 50
147.406506
 51
266.684904
  0
LINE
  5
34E
100
AcDbEntity
  8
0
370
    35
390
0
 62
     7
 48
0.372882
100
AcDbLine
 10
255.913208
 20
139.150406
 30
0.0
 11
241.023041
 21
140.015793
 31
0.0
210
0.0
220
0.0
230
1.0
  0
ARC
  5
34F
100
AcDbEntity
  8
0
370
    35
390
0
 62
     7
100
AcDbCircle
 10
256.055756
 20
141.590851
 30
0.0
 40
2.444617
210
0.0
220
0.0
230
1.0
100
AcDbArc
 50
266.657071
 51
344.945402
  0
ARC
  5
350
100
AcDbEntity
  8
0
370
    35
390
0
 62
     7
100
AcDbCircle
 10
214.881104
 20
153.926788
 30
0.0
 40
2.443364
210
0.0
220
0.0
230
1.0
100
AcDbArc
 50
123.572698
 51
214.588715
  0
ARC
  5
351
100
AcDbEntity
  8
0
370
    35
390
0
 62
     7
100
AcDbCircle
 10
214.918167
 20
153.953766
 30
0.0
 40
2.488711
210
0.0
220
0.0
230
1.0
100
AcDbArc
 50
214.615571
 51
229.98989
  0
LINE
  5
352
100
AcDbEntity
  8
0
370
    35
390
0
 62
     7
 48
0.332133
100
AcDbLine
 10
213.31813
 20
152.047592
 30
0.0
 11
223.495285
 21
143.50795
 31
0.0
210
0.0
220
0.0
230
1.0
  0
LINE
  5
353
100
AcDbEntity
  8
0
370
    35
390
0
 62
     7
 48
0.017904
100
AcDbLine
 10
224.044449
 20
143.048279
 30
0.0
 11
223.495285
 21
143.50795
 31
0.0
210
0.0
220
0.0
230
1.0
  0
ARC
  5
354
100
AcDbEntity
  8
0
370
    35
390
0
 62
     7
100
AcDbCircle
 10
227.177032
 20
146.800186
 30
0.0
 40
4.887678
210
0.0
220
0.0
230
1.0
100
AcDbArc
 50
230.140386
 51
291.772796
  0
ARC
  5
355
100
AcDbEntity
  8
0
370
    35
390
0
 62
     7
100
AcDbCircle
 10
227.145172
 20
146.878799
 30
0.0
 40
4.972532
210
0.0
220
0.0
230
1.0
100
AcDbArc
 50
291.77768
 51
300.218633
  0
LINE
  5
356
100
AcDbEntity
  8
0
370
    35
390
0
 62
     7
 48
0.263105
100
AcDbLine
 10
238.741791
 20
147.879044
 30
0.0
 11
229.647858
 21
142.58197
 31
0.0
210
0.0
220
0.0
230
1.0
  0
ARC
  5
357
100
AcDbEntity
  8
0
370
    35
390
0
 62
     7
100
AcDbCircle
 10
237.51239
 20
149.992737
 30
0.0
 40
2.445198
210
0.0
220
0.0
230
1.0
100
AcDbArc
 50
300.183628
 51
324.105703
  0
ARC
  5
358
100
AcDbEntity
  8
0
370
    35
390
0
 62
     7
100
AcDbCircle
 10
199.480118
 20
152.755554
 30
0.0
 40
4.891707
210
0.0
220
0.0
230
1.0
100
AcDbArc
 50
116.251213
 51
120.221056
  0
LINE
  5
359
100
AcDbEntity
  8
0
370
    35
390
0
 62
     7
 48
0.443897
100
AcDbLine
 10
181.675201
 20
148.045334
 30
0.0
 11
197.017944
 21
156.982422
 31
0.0
210
0.0
220
0.0
230
1.0
  0
ARC
  5
35A
100
AcDbEntity
  8
0
370
    35
390
0
 62
     7
100
AcDbCircle
 10
182.930099
 20
145.892731
 30
0.0
 40
2.49169
210
0.0
220
0.0
230
1.0
100
AcDbArc
 50
120.240781
 51
139.217082
  0
ARC
  5
35B
100
AcDbEntity
  8
0
370
    35
390
0
 62
     7
100
AcDbCircle
 10
182.895203
 20
145.925522
 30
0.0
 40
2.444271
210
0.0
220
0.0
230
1.0
100
AcDbArc
 50
139.264852
 51
266.195548
  0
LINE
  5
35C
100
AcDbEntity
  8
0
370
    35
390
0
 62
     7
 48
0.010673
100
AcDbLine
 10
182.733047
 20
143.487
 30
0.0
 11
183.159088
 21
143.459412
 31
0.0
210
0.0
220
0.0
230
1.0
  0
ARC
  5
35D
100
AcDbEntity
  8
0
370
    35
390
0
 62
     7
100
AcDbCircle
 10
637.210388
 20
7363.02002
 30
0.0
 40
7233.825125
210
0.0
220
0.0
230
1.0
100
AcDbArc
 50
266.401307
 51
266.642085
  0
ARC
  5
35E
100
AcDbEntity
  8
0
370
    35
390
0
 62
     7
100
AcDbCircle
 10
213.64888
 20
144.098145
 30
0.0
 40
2.488441
210
0.0
220
0.0
230
1.0
100
AcDbArc
 50
266.62768
 51
277.50182
  0
ARC
  5
35F
100
AcDbEntity
  8
0
370
    35
390
0
 62
     7
100
AcDbCircle
 10
213.657608
 20
144.050171
 30
0.0
 40
2.439659
210
0.0
220
0.0
230
1.0
100
AcDbArc
 50
277.445819
 51
310.731069
  0
ARC
  5
360
100
AcDbEntity
  8
0
370
    35
390
0
 62
     7
100
AcDbCircle
 10
151.509338
 20
161.89595
 30
0.0
 40
2.443893
210
0.0
220
0.0
230
1.0
100
AcDbArc
 50
105.52546
 51
209.139194
  0
ARC
  5
361
100
AcDbEntity
  8
0
370
    35
390
0
 62
     7
100
AcDbCircle
 10
151.550766
 20
161.922394
 30
0.0
 40
2.492455
210
0.0
220
0.0
230
1.0
100
AcDbArc
 50
209.206212
 51
229.975096
  0
LINE
  5
362
100
AcDbEntity
  8
0
370
    35
390
0
 62
     7
 48
0.499295
100
AcDbLine
 10
149.94783
 20
160.013763
 30
0.0
 11
165.247116
 21
147.176132
 31
0.0
210
0.0
220
0.0
230
1.0
  0
LINE
  5
363
100
AcDbEntity
  8
0
370
    35
390
0
 62
     7
 48
0.022241
100
AcDbLine
 10
165.247116
 20
147.176132
 30
0.0
 11
165.929535
 21
146.605347
 31
0.0
210
0.0
220
0.0
230
1.0
  0
ARC
  5
364
100
AcDbEntity
  8
0
370
    35
390
0
 62
     7
100
AcDbCircle
 10
169.058975
 20
150.358658
 30
0.0
 40
4.886752
210
0.0
220
0.0
230
1.0
100
AcDbArc
 50
230.179318
 51
288.537602
  0
ARC
  5
365
100
AcDbEntity
  8
0
370
    35
390
0
 62
     7
100
AcDbCircle
 10
169.03241
 20
150.436432
 30
0.0
 40
4.968963
210
0.0
220
0.0
230
1.0
100
AcDbArc
 50
288.542923
 51
293.127489
  0
ARC
  5
366
100
AcDbEntity
  8
0
370
    35
390
0
 62
     7
100
AcDbCircle
 10
137.799667
 20
159.306183
 30
0.0
 40
4.887149
210
0.0
220
0.0
230
1.0
100
AcDbArc
 50
102.65887
 51
120.224744
  0
LINE
  5
367
100
AcDbEntity
  8
0
370
    35
390
0
 62
     7
100
AcDbLine
 10
117.011032
 20
152.852402
 30
0.0
 11
135.339508
 21
163.528961
 31
0.0
210
0.0
220
0.0
230
1.0
  0
ARC
  5
368
100
AcDbEntity
  8
0
370
    35
390
0
 62
     7
100
AcDbCircle
 10
118.268463
 20
150.697052
 30
0.0
 40
2.495345
210
0.0
220
0.0
230
1.0
100
AcDbArc
 50
120.259482
 51
143.360753
  0
ARC
  5
369
100
AcDbEntity
  8
0
370
    35
390
0
 62
     7
100
AcDbCircle
 10
118.228378
 20
150.730545
 30
0.0
 40
2.443529
210
0.0
220
0.0
230
1.0
100
AcDbArc
 50
143.429874
 51
264.475918
  0
LINE
  5
36A
100
AcDbEntity
  8
0
370
    35
390
0
 62
     7
 48
0.013731
100
AcDbLine
 10
117.993172
 20
148.298615
 30
0.0
 11
118.539963
 21
148.247009
 31
0.0
210
0.0
220
0.0
230
1.0
  0
POLYLINE
  5
36B
100
AcDbEntity
  8
0
370
    35
390
0
 62
     7
100
AcDb2dPolyline
 66
     1
 10
0.0
 20
0.0
 30
0.0
 71
     5
  0
VERTEX
  5
36C
100
AcDbEntity
  8
0
370
     0
390
0
100
AcDbVertex
100
AcDb2dVertex
 10
118.539963
 20
148.247009
 30
0.0
  0
VERTEX
  5
36D
100
AcDbEntity
  8
0
370
     0
390
0
100
AcDbVertex
100
AcDb2dVertex
 10
126.396004
 20
147.548996
 30
0.0
  0
VERTEX
  5
36E
100
AcDbEntity
  8
0
370
     0
390
0
100
AcDbVertex
100
AcDb2dVertex
 10
134.258743
 20
146.895584
 30
0.0
  0
VERTEX
  5
36F
100
AcDbEntity
  8
0
370
     0
390
0
100
AcDbVertex
100
AcDb2dVertex
 10
144.717453
 20
146.082321
 30
0.0
  0
VERTEX
  5
370
100
AcDbEntity
  8
0
370
     0
390
0
100
AcDbVertex
100
AcDb2dVertex
 10
155.182602
 20
145.319336
 30
0.0
  0
SEQEND
  5
371
100
AcDbEntity
  8
0
370
     0
390
0
  0
ARC
  5
372
100
AcDbEntity
  8
0
370
    35
390
0
 62
     7
100
AcDbCircle
 10
155.358307
 20
147.802902
 30
0.0
 40
2.48977
210
0.0
220
0.0
230
1.0
100
AcDbArc
 50
265.953288
 51
278.183732
  0
ARC
  5
373
100
AcDbEntity
  8
0
370
    35
390
0
 62
     7
100
AcDbCircle
 10
155.363144
 20
147.769562
 30
0.0
 40
2.456083
210
0.0
220
0.0
230
1.0
100
AcDbArc
 50
278.182906
 51
288.373179
  0
ARC
  5
374
100
AcDbEntity
  8
0
370
    35
390
0
 62
     7
100
AcDbCircle
 10
107.051178
 20
163.517883
 30
0.0
 40
2.444269
210
0.0
220
0.0
230
1.0
100
AcDbArc
 50
102.451717
 51
179.998407
  0
LINE
  5
375
100
AcDbEntity
  8
0
370
    35
390
0
 62
     7
 48
0.240621
100
AcDbLine
 10
104.606934
 20
153.893097
 30
0.0
 11
104.606934
 21
163.517944
 31
0.0
210
0.0
220
0.0
230
1.0
  0
ARC
  5
376
100
AcDbEntity
  8
0
370
    35
390
0
 62
     7
100
AcDbCircle
 10
107.097412
 20
153.893387
 30
0.0
 40
2.490478
210
0.0
220
0.0
230
1.0
100
AcDbArc
 50
180.00673
 51
193.453323
  0
ARC
  5
377
100
AcDbEntity
  8
0
370
    35
390
0
 62
     7
100
AcDbCircle
 10
107.052078
 20
153.883652
 30
0.0
 40
2.444335
210
0.0
220
0.0
230
1.0
100
AcDbArc
 50
193.478567
 51
278.19436
  0
ARC
  5
378
100
AcDbEntity
  8
0
370
    35
390
0
 62
     7
100
AcDbCircle
 10
82.595436
 20
154.947739
 30
0.0
 40
2.491606
210
0.0
220
0.0
230
1.0
100
AcDbArc
 50
180.054186
 51
206.326358
  0
ARC
  5
379
100
AcDbEntity
  8
0
370
    35
390
0
 62
     7
100
AcDbCircle
 10
82.548508
 20
154.927917
 30
0.0
 40
2.440691
210
0.0
220
0.0
230
1.0
100
AcDbArc
 50
206.397829
 51
260.64662
  0
ARC
  5
37A
100
AcDbEntity
  8
0
370
    35
390
0
 62
     7
100
AcDbCircle
 10
99.636009
 20
258.635193
 30
0.0
 40
107.546265
210
0.0
220
0.0
230
1.0
100
AcDbArc
 50
260.643697
 51
261.299149
  0
ARC
  5
37B
100
AcDbEntity
  8
0
370
    35
390
0
 62
     7
100
AcDbCircle
 10
140.1539
 20
525.511902
 30
0.0
 40
377.481534
210
0.0
220
0.0
230
1.0
100
AcDbArc
 50
261.347767
 51
262.670528
  0
ARC
  5
37C
100
AcDbEntity
  8
0
370
    35
390
0
 62
     7
100
AcDbCircle
 10
92.311104
 20
153.539642
 30
0.0
 40
2.445553
210
0.0
220
0.0
230
1.0
100
AcDbArc
 50
262.613558
 51
276.915455
  0
ARC
  5
37D
100
AcDbEntity
  8
0
370
    35
390
0
 62
     7
100
AcDbCircle
 10
103.260368
 20
6.218231
 30
0.0
 40
159.408634
210
0.0
220
0.0
230
1.0
100
AcDbArc
 50
97.143533
 51
97.582558
  0
ARC
  5
37E
100
AcDbEntity
  8
0
370
    35
390
0
 62
     7
100
AcDbCircle
 10
82.548393
 20
161.809814
 30
0.0
 40
2.444563
210
0.0
220
0.0
230
1.0
100
AcDbArc
 50
97.586471
 51
179.997669
  0
LINE
  5
37F
100
AcDbEntity
  8
0
370
    35
390
0
 62
     7
 48
0.171613
100
AcDbLine
 10
80.103859
 20
161.809921
 30
0.0
 11
80.103859
 21
154.945389
 31
0.0
210
0.0
220
0.0
230
1.0
  0
POLYLINE
  5
380
100
AcDbEntity
  8
0
370
    35
390
0
 62
     7
100
AcDb2dPolyline
 66
     1
 10
0.0
 20
0.0
 30
0.0
 71
     9
  0
VERTEX
  5
381
100
AcDbEntity
  8
0
370
     0
390
0
100
AcDbVertex
100
AcDb2dVertex
 10
58.940712
 20
157.87088
 30
0.0
  0
VERTEX
  5
382
100
AcDbEntity
  8
0
370
     0
390
0
100
AcDbVertex
100
AcDb2dVertex
 10
60.207565
 20
158.551346
 30
0.0
  0
VERTEX
  5
383
100
AcDbEntity
  8
0
370
     0
390
0
100
AcDbVertex
100
AcDb2dVertex
 10
61.532837
 20
159.181229
 30
0.0
  0
VERTEX
  5
384
100
AcDbEntity
  8
0
370
     0
390
0
100
AcDbVertex
100
AcDb2dVertex
 10
62.205505
 20
159.47348
 30
0.0
  0
VERTEX
  5
385
100
AcDbEntity
  8
0
370
     0
390
0
100
AcDbVertex
100
AcDb2dVertex
 10
63.926231
 20
160.147125
 30
0.0
  0
VERTEX
  5
386
100
AcDbEntity
  8
0
370
     0
390
0
100
AcDbVertex
100
AcDb2dVertex
 10
65.701324
 20
160.751511
 30
0.0
  0
VERTEX
  5
387
100
AcDbEntity
  8
0
370
     0
390
0
100
AcDbVertex
100
AcDb2dVertex
 10
67.162659
 20
161.197586
 30
0.0
  0
VERTEX
  5
388
100
AcDbEntity
  8
0
370
     0
390
0
100
AcDbVertex
100
AcDb2dVertex
 10
70.141823
 20
162.000717
 30
0.0
  0
VERTEX
  5
389
100
AcDbEntity
  8
0
370
     0
390
0
100
AcDbVertex
100
AcDb2dVertex
 10
73.160118
 20
162.696747
 30
0.0
  0
SEQEND
  5
38A
100
AcDbEntity
  8
0
370
     0
390
0
  0
POLYLINE
  5
38B
100
AcDbEntity
  8
0
370
    35
390
0
 62
     7
100
AcDb2dPolyline
 66
     1
 10
0.0
 20
0.0
 30
0.0
 71
     7
  0
VERTEX
  5
38C
100
AcDbEntity
  8
0
370
     0
390
0
100
AcDbVertex
100
AcDb2dVertex
 10
58.940712
 20
157.87088
 30
0.0
  0
VERTEX
  5
38D
100
AcDbEntity
  8
0
370
     0
390
0
100
AcDbVertex
100
AcDb2dVertex
 10
60.620613
 20
157.246811
 30
0.0
  0
VERTEX
  5
38E
100
AcDbEntity
  8
0
370
     0
390
0
100
AcDbVertex
100
AcDb2dVertex
 10
63.07534
 20
156.472198
 30
0.0
  0
VERTEX
  5
38F
100
AcDbEntity
  8
0
370
     0
390
0
100
AcDbVertex
100
AcDb2dVertex
 10
65.241287
 20
155.871597
 30
0.0
  0
VERTEX
  5
390
100
AcDbEntity
  8
0
370
     0
390
0
100
AcDbVertex
100
AcDb2dVertex
 10
67.405777
 20
155.326309
 30
0.0
  0
VERTEX
  5
391
100
AcDbEntity
  8
0
370
     0
390
0
100
AcDbVertex
100
AcDb2dVertex
 10
69.561172
 20
154.828796
 30
0.0
  0
VERTEX
  5
392
100
AcDbEntity
  8
0
370
     0
390
0
100
AcDbVertex
100
AcDb2dVertex
 10
73.223236
 20
154.069168
 30
0.0
  0
SEQEND
  5
393
100
AcDbEntity
  8
0
370
     0
390
0
  0
ARC
  5
394
100
AcDbEntity
  8
0
370
    35
390
0
 62
     7
100
AcDbCircle
 10
73.699348
 20
156.51001
 30
0.0
 40
2.486845
210
0.0
220
0.0
230
1.0
100
AcDbArc
 50
258.962453
 51
266.445321
  0
ARC
  5
395
100
AcDbEntity
  8
0
370
    35
390
0
 62
     7
100
AcDbCircle
 10
73.696922
 20
156.471909
 30
0.0
 40
2.448673
210
0.0
220
0.0
230
1.0
100
AcDbArc
 50
266.446626
 51
274.1951
  0
LINE
  5
396
100
AcDbEntity
  8
0
370
    13
390
0
 62
     7
 48
0.003193
100
AcDbLine
 10
262.508759
 20
143.741074
 30
0.0
 11
262.53421
 21
143.866241
 31
0.0
210
0.0
220
0.0
230
1.0
  0
LINE
  5
397
100
AcDbEntity
  8
0
370
    13
390
0
 62
     7
 48
0.003326
100
AcDbLine
 10
265.844727
 20
140.941864
 30
0.0
 11
265.862183
 21
141.073746
 31
0.0
210
0.0
220
0.0
230
1.0
  0
LINE
  5
398
100
AcDbEntity
  8
0
370
    13
390
0
 62
     7
 48
0.003316
100
AcDbLine
 10
267.200195
 20
140.476791
 30
0.0
 11
267.213867
 21
140.608734
 31
0.0
210
0.0
220
0.0
230
1.0
  0
LINE
  5
399
100
AcDbEntity
  8
0
370
    13
390
0
 62
     7
 48
0.003196
100
AcDbLine
 10
268.971893
 20
141.821014
 30
0.0
 11
268.981201
 21
141.948532
 31
0.0
210
0.0
220
0.0
230
1.0
  0
LINE
  5
39A
100
AcDbEntity
  8
0
370
    13
390
0
 62
     7
 48
0.004389
100
AcDbLine
 10
213.172867
 20
151.94899
 30
0.0
 11
213.31813
 21
152.047592
 31
0.0
210
0.0
220
0.0
230
1.0
  0
LINE
  5
39B
100
AcDbEntity
  8
0
370
    13
390
0
 62
     7
 48
0.004234
100
AcDbLine
 10
223.927368
 20
142.925903
 30
0.0
 11
224.044449
 21
143.048279
 31
0.0
210
0.0
220
0.0
230
1.0
  0
LINE
  5
39C
100
AcDbEntity
  8
0
370
    13
390
0
 62
     7
 48
0.004091
100
AcDbLine
 10
228.88588
 20
142.134933
 30
0.0
 11
228.990021
 21
142.261154
 31
0.0
210
0.0
220
0.0
230
1.0
  0
LINE
  5
39D
100
AcDbEntity
  8
0
370
    13
390
0
 62
     7
 48
0.004049
100
AcDbLine
 10
229.545547
 20
142.456436
 30
0.0
 11
229.647858
 21
142.58197
 31
0.0
210
0.0
220
0.0
230
1.0
  0
LINE
  5
39E
100
AcDbEntity
  8
0
370
    13
390
0
 62
     7
 48
0.003421
100
AcDbLine
 10
238.664047
 20
147.766418
 30
0.0
 11
238.741791
 21
147.879044
 31
0.0
210
0.0
220
0.0
230
1.0
  0
LINE
  5
39F
100
AcDbEntity
  8
0
370
    13
390
0
 62
     7
 48
0.007691
100
AcDbLine
 10
149.648972
 20
159.940826
 30
0.0
 11
149.94783
 21
160.013763
 31
0.0
210
0.0
220
0.0
230
1.0
  0
LINE
  5
3A0
100
AcDbEntity
  8
0
370
    13
390
0
 62
     7
 48
0.006979
100
AcDbLine
 10
165.672089
 20
146.497452
 30
0.0
 11
165.929535
 21
146.605347
 31
0.0
210
0.0
220
0.0
230
1.0
  0
LINE
  5
3A1
100
AcDbEntity
  8
0
370
    13
390
0
 62
     7
 48
0.006747
100
AcDbLine
 10
170.367218
 20
145.613083
 30
0.0
 11
170.61261
 21
145.725433
 31
0.0
210
0.0
220
0.0
230
1.0
  0
LINE
  5
3A2
100
AcDbEntity
  8
0
370
    13
390
0
 62
     7
 48
0.010318
100
AcDbLine
 10
104.271866
 20
153.226746
 30
0.0
 11
104.675278
 21
153.31398
 31
0.0
210
0.0
220
0.0
230
1.0
  0
LINE
  5
3A3
100
AcDbEntity
  8
0
370
    13
390
0
 62
     7
 48
0.010318
100
AcDbLine
 10
104.203209
 20
153.807343
 30
0.0
 11
104.606934
 21
153.893097
 31
0.0
210
0.0
220
0.0
230
1.0
  0
LINE
  5
3A4
100
AcDbEntity
  8
0
370
    13
390
0
 62
     7
 48
0.010208
100
AcDbLine
 10
104.203209
 20
163.456955
 30
0.0
 11
104.606934
 21
163.517944
 31
0.0
210
0.0
220
0.0
230
1.0
  0
LINE
  5
3A5
100
AcDbEntity
  8
0
370
    13
390
0
 62
     7
 48
0.00486
100
AcDbLine
 10
106.227562
 20
165.870407
 30
0.0
 11
106.420158
 21
165.896729
 31
0.0
210
0.0
220
0.0
230
1.0
  0
LINE
  5
3A6
100
AcDbEntity
  8
0
370
    13
390
0
 62
     7
 48
0.01206
100
AcDbLine
 10
72.747894
 20
153.987061
 30
0.0
 11
73.223236
 21
154.069168
 31
0.0
210
0.0
220
0.0
230
1.0
  0
LINE
  5
3A7
100
AcDbEntity
  8
0
370
    13
390
0
 62
     7
 48
0.012039
100
AcDbLine
 10
73.070663
 20
153.945755
 30
0.0
 11
73.545158
 21
154.027954
 31
0.0
210
0.0
220
0.0
230
1.0
  0
LINE
  5
3A8
100
AcDbEntity
  8
0
370
    35
390
0
 62
     7
 48
0.012933
100
AcDbLine
 10
58.428207
 20
157.8004
 30
0.0
 11
58.940712
 21
157.87088
 31
0.0
210
0.0
220
0.0
230
1.0
  0
LINE
  5
3A9
100
AcDbEntity
  8
0
370
    13
390
0
 62
     7
 48
0.010615
100
AcDbLine
 10
72.712677
 20
162.644012
 30
0.0
 11
73.134064
 21
162.696045
 31
0.0
210
0.0
220
0.0
230
1.0
  0
LINE
  5
3AA
100
AcDbEntity
  8
0
370
    35
390
0
 62
     7
 48
0.007049
100
AcDbLine
 10
368.231018
 20
126.373123
 30
0.0
 11
368.010223
 21
126.548508
 31
0.0
210
0.0
220
0.0
230
1.0
  0
LINE
  5
3AB
100
AcDbEntity
  8
0
370
    13
390
0
 62
     7
 48
0.007034
100
AcDbLine
 10
367.951599
 20
126.429817
 30
0.0
 11
367.731476
 21
126.605072
 31
0.0
210
0.0
220
0.0
230
1.0
  0
LINE
  5
3AC
100
AcDbEntity
  8
0
370
    35
390
0
 62
     7
 48
0.002776
100
AcDbLine
 10
274.50235
 20
149.48848
 30
0.0
 11
274.50235
 21
149.599533
 31
0.0
210
0.0
220
0.0
230
1.0
  0
LINE
  5
3AD
100
AcDbEntity
  8
0
370
    35
390
0
 62
     7
 48
0.010632
100
AcDbLine
 10
98.768394
 20
145.678131
 30
0.0
 11
99.181007
 21
145.781113
 31
0.0
210
0.0
220
0.0
230
1.0
  0
LINE
  5
3AE
100
AcDbEntity
  8
0
370
    35
390
0
 62
     7
 48
0.002773
100
AcDbLine
 10
273.50235
 20
149.705673
 30
0.0
 11
273.50235
 21
149.816605
 31
0.0
210
0.0
220
0.0
230
1.0
  0
LINE
  5
3AF
100
AcDbEntity
  8
0
370
    13
390
0
 62
     7
 48
0.011691
100
AcDbLine
 10
79.640503
 20
161.74678
 30
0.0
 11
80.103859
 21
161.809921
 31
0.0
210
0.0
220
0.0
230
1.0
  0
LINE
  5
3B0
100
AcDbEntity
  8
0
370
    13
390
0
 62
     7
 48
0.011763
100
AcDbLine
 10
79.640503
 20
154.863556
 30
0.0
 11
80.103859
 21
154.945389
 31
0.0
210
0.0
220
0.0
230
1.0
  0
LINE
  5
3B1
100
AcDbEntity
  8
0
370
    13
390
0
 62
     7
 48
0.011522
100
AcDbLine
 10
81.768242
 20
164.176453
 30
0.0
 11
82.225662
 21
164.232956
 31
0.0
210
0.0
220
0.0
230
1.0
  0
LINE
  5
3B2
100
AcDbEntity
  8
0
370
    13
390
0
 62
     7
 48
0.011602
100
AcDbLine
 10
81.695976
 20
152.432587
 30
0.0
 11
82.151833
 21
152.519669
 31
0.0
210
0.0
220
0.0
230
1.0
  0
LINE
  5
3B3
100
AcDbEntity
  8
0
370
    13
390
0
 62
     7
 48
0.011518
100
AcDbLine
 10
82.914467
 20
152.239456
 30
0.0
 11
83.36689
 21
152.326599
 31
0.0
210
0.0
220
0.0
230
1.0
  0
LINE
  5
3B4
100
AcDbEntity
  8
0
370
    13
390
0
 62
     7
 48
0.01097
100
AcDbLine
 10
91.567474
 20
151.023224
 30
0.0
 11
91.996704
 21
151.11438
 31
0.0
210
0.0
220
0.0
230
1.0
  0
LINE
  5
3B5
100
AcDbEntity
  8
0
370
    13
390
0
 62
     7
 48
0.00841
100
AcDbLine
 10
135.009064
 20
163.465881
 30
0.0
 11
135.339508
 21
163.528961
 31
0.0
210
0.0
220
0.0
230
1.0
  0
LINE
  5
3B6
100
AcDbEntity
  8
0
370
    13
390
0
 62
     7
 48
0.009735
100
AcDbLine
 10
116.631859
 20
152.763809
 30
0.0
 11
117.011032
 21
152.852402
 31
0.0
210
0.0
220
0.0
230
1.0
  0
LINE
  5
3B7
100
AcDbEntity
  8
0
370
    13
390
0
 62
     7
 48
0.007488
100
AcDbLine
 10
154.90448
 20
145.208145
 30
0.0
 11
155.182602
 21
145.319336
 31
0.0
210
0.0
220
0.0
230
1.0
  0
LINE
  5
3B8
100
AcDbEntity
  8
0
370
    13
390
0
 62
     7
 48
0.009788
100
AcDbLine
 10
115.885292
 20
152.095657
 30
0.0
 11
116.266205
 21
152.186188
 31
0.0
210
0.0
220
0.0
230
1.0
  0
LINE
  5
3B9
100
AcDbEntity
  8
0
370
    13
390
0
 62
     7
 48
0.00965
100
AcDbLine
 10
118.167206
 20
148.146744
 30
0.0
 11
118.539963
 21
148.247009
 31
0.0
210
0.0
220
0.0
230
1.0
  0
LINE
  5
3BA
100
AcDbEntity
  8
0
370
    13
390
0
 62
     7
 48
0.009684
100
AcDbLine
 10
117.618988
 20
148.19841
 30
0.0
 11
117.993172
 21
148.298615
 31
0.0
210
0.0
220
0.0
230
1.0
  0
LINE
  5
3BB
100
AcDbEntity
  8
0
370
    13
390
0
 62
     7
 48
0.005007
100
AcDbLine
 10
196.836533
 20
156.897522
 30
0.0
 11
197.017944
 21
156.982422
 31
0.0
210
0.0
220
0.0
230
1.0
  0
LINE
  5
3BC
100
AcDbEntity
  8
0
370
    13
390
0
 62
     7
 48
0.006168
100
AcDbLine
 10
181.452637
 20
147.938828
 30
0.0
 11
181.675201
 21
148.045334
 31
0.0
210
0.0
220
0.0
230
1.0
  0
LINE
  5
3BD
100
AcDbEntity
  8
0
370
    13
390
0
 62
     7
 48
0.004664
100
AcDbLine
 10
213.364792
 20
141.488174
 30
0.0
 11
213.502502
 21
141.614014
 31
0.0
210
0.0
220
0.0
230
1.0
  0
LINE
  5
3BE
100
AcDbEntity
  8
0
370
    13
390
0
 62
     7
 48
0.006174
100
AcDbLine
 10
182.942291
 20
143.341125
 30
0.0
 11
183.159088
 21
143.459412
 31
0.0
210
0.0
220
0.0
230
1.0
  0
LINE
  5
3BF
100
AcDbEntity
  8
0
370
    13
390
0
 62
     7
 48
0.006199
100
AcDbLine
 10
182.515121
 20
143.368729
 30
0.0
 11
182.733047
 21
143.487
 31
0.0
210
0.0
220
0.0
230
1.0
  0
LINE
  5
3C0
100
AcDbEntity
  8
0
370
    13
390
0
 62
     7
 48
0.003531
100
AcDbLine
 10
255.874771
 20
139.014481
 30
0.0
 11
255.913208
 21
139.150406
 31
0.0
210
0.0
220
0.0
230
1.0
  0
LINE
  5
3C1
100
AcDbEntity
  8
0
370
    13
390
0
 62
     7
 48
0.003843
100
AcDbLine
 10
240.944763
 20
139.883484
 30
0.0
 11
241.023041
 21
140.015793
 31
0.0
210
0.0
220
0.0
230
1.0
  0
LINE
  5
3C2
100
AcDbEntity
  8
0
370
    13
390
0
 62
     7
 48
0.003517
100
AcDbLine
 10
279.286285
 20
138.373398
 30
0.0
 11
279.275787
 21
138.513687
 31
0.0
210
0.0
220
0.0
230
1.0
  0
LINE
  5
3C3
100
AcDbEntity
  8
0
370
    13
390
0
 62
     7
 48
0.003569
100
AcDbLine
 10
280.764832
 20
137.535217
 30
0.0
 11
280.749237
 21
137.677139
 31
0.0
210
0.0
220
0.0
230
1.0
  0
LINE
  5
3C4
100
AcDbEntity
  8
0
370
    13
390
0
 62
     7
 48
0.003573
100
AcDbLine
 10
281.109039
 20
137.513641
 30
0.0
 11
281.092438
 21
137.655579
 31
0.0
210
0.0
220
0.0
230
1.0
  0
LINE
  5
3C5
100
AcDbEntity
  8
0
370
    35
390
0
 62
     7
 48
0.011558
100
AcDbLine
 10
86.237045
 20
169.167496
 30
0.0
 11
86.696869
 21
169.215332
 31
0.0
210
0.0
220
0.0
230
1.0
  0
ENDSEC
  0
SECTION
  2
OBJECTS
  0
DICTIONARY
  5
19
100
AcDbDictionary
280
     0
281
     1
  3
ACAD_GROUP
350
1A
  3
ACAD_MLINESTYLE
350
1B
  3
ACAD_LAYOUT
350
1E
  3
ACAD_PLOTSETTINGS
350
22
  3
ACAD_PLOTSTYLENAME
350
1F
  3
ACAD_WIPEOUT_VARS
350
23
  0
DICTIONARY
  5
1A
102
{ACAD_REACTORS
330
19
102
}
100
AcDbDictionary
280
     0
281
     1
  0
DICTIONARY
  5
1B
102
{ACAD_REACTORS
330
19
102
}
100
AcDbDictionary
280
     0
281
     1
  3
Standard
350
1C
  0
MLINESTYLE
  5
1C
102
{ACAD_REACTORS
330
1B
102
}
100
AcDbMlineStyle
  2
Standard
 70
     0
  3

 62
     0
 51
90.0
 52
90.0
 71
     2
 49
0.5
 62
   256
  6
ByLayer
 49
-0.5
 62
   256
  6
ByLayer
  0
ACDBDICTIONARYWDFLT
  5
1F
102
{ACAD_REACTORS
330
19
102
}
100
AcDbDictionary
281
     1
  3
Normal
350
1D
100
AcDbDictionaryWithDefault
340
1D
  0
ACDBPLACEHOLDER
  5
1D
102
{ACAD_REACTORS
330
1F
102
}
  0
LAYOUT
  5
20
102
{ACAD_REACTORS
330
1E
102
}
100
AcDbPlotSettings
  1

  2

  4

  6

 40
0.0
 41
0.0
 42
0.0
 43
0.0
 44
0.0
 45
0.0
 46
0.0
 47
0.0
 48
0.0
 49
0.0
140
0.0
141
0.0
142
1.0
143
1.0
 70
  1024
 72
     0
 73
     0
 74
     0
  7

 75
     0
147
1.0
148
0.0
149
0.0
100
AcDbLayout
  1
Model
 70
     0
 71
     0
 10
0.0
 20
0.0
 11
0.0
 21
0.0
 12
0.0
 22
0.0
 32
0.0
 14
0.0
 24
0.0
 34
0.0
 15
0.0
 25
0.0
 35
0.0
146
0.0
 13
0.0
 23
0.0
 33
0.0
 16
0.0
 26
0.0
 36
0.0
 17
0.0
 27
0.0
 37
0.0
 76
     0
330
A
331
0
345
0
346
0
  0
LAYOUT
  5
21
102
{ACAD_REACTORS
330
1E
102
}
100
AcDbPlotSettings
  1

  2

  4

  6

 40
0.0
 41
0.0
 42
0.0
 43
0.0
 44
0.0
 45
0.0
 46
0.0
 47
0.0
 48
0.0
 49
0.0
140
0.0
141
0.0
142
1.0
143
1.0
 70
     0
 72
     0
 73
     0
 74
     0
  7

 75
     0
147
1.0
148
0.0
149
0.0
100
AcDbLayout
  1
Layout1
 70
     0
 71
     0
 10
0.0
 20
0.0
 11
0.0
 21
0.0
 12
0.0
 22
0.0
 32
0.0
 14
0.0
 24
0.0
 34
0.0
 15
0.0
 25
0.0
 35
0.0
146
0.0
 13
0.0
 23
0.0
 33
0.0
 16
0.0
 26
0.0
 36
0.0
 17
0.0
 27
0.0
 37
0.0
 76
     0
330
B
331
0
345
0
346
0
  0
DICTIONARY
  5
1E
102
{ACAD_REACTORS
330
19
102
}
100
AcDbDictionary
280
     0
281
     1
  3
Layout1
350
21
  3
Model
350
20
  0
DICTIONARY
  5
22
102
{ACAD_REACTORS
330
19
102
}
100
AcDbDictionary
280
     0
281
     1
  0
WIPEOUTVARIABLES
  5
23
100
AcDbWipeoutVariables
 70
     1
  0
ENDSEC
  0
EOF
