  0
SECTION
  2
HEADER
  9
$ACADVER
  1
AC1015
  9
$ACADMAINTVER
 70
     6
  9
$DWGCODEPAGE
  3
ANSI_1252
  9
$INSBASE
 10
0.0
 20
0.0
 30
0.0
  9
$EXTMIN
 10
0.0
 20
0.0
 30
0.0
  9
$EXTMAX
 10
393.100891
 20
174.725723
 30
2.0
  9
$LIMMIN
 10
0.0
 20
0.0
  9
$LIMMAX
 10
420.0
 20
297.0
  9
$ORTHOMODE
 70
     0
  9
$REGENMODE
 70
     1
  9
$FILLMODE
 70
     1
  9
$QTEXTMODE
 70
     0
  9
$MIRRTEXT
 70
     1
  9
$LTSCALE
 40
1.0
  9
$ATTMODE
 70
     1
  9
$TEXTSIZE
 40
2.5
  9
$TRACEWID
 40
1.0
  9
$TEXTSTYLE
  7
Standard
  9
$CLAYER
  8
0
  9
$CELTYPE
  6
ByLayer
  9
$CECOLOR
 62
   256
  9
$CELTSCALE
 40
1.0
  9
$DISPSILH
 70
     0
  9
$DIMSCALE
 40
1.0
  9
$DIMASZ
 40
2.5
  9
$DIMEXO
 40
0.625
  9
$DIMDLI
 40
3.75
  9
$DIMRND
 40
0.0
  9
$DIMDLE
 40
0.0
  9
$DIMEXE
 40
1.25
  9
$DIMTP
 40
0.0
  9
$DIMTM
 40
0.0
  9
$DIMTXT
 40
2.5
  9
$DIMCEN
 40
2.5
  9
$DIMTSZ
 40
0.0
  9
$DIMTOL
 70
     0
  9
$DIMLIM
 70
     0
  9
$DIMTIH
 70
     0
  9
$DIMTOH
 70
     0
  9
$DIMSE1
 70
     0
  9
$DIMSE2
 70
     0
  9
$DIMTAD
 70
     1
  9
$DIMZIN
 70
     8
  9
$DIMBLK
  1

  9
$DIMASO
 70
     1
  9
$DIMSHO
 70
     1
  9
$DIMPOST
  1

  9
$DIMAPOST
  1

  9
$DIMALT
 70
     0
  9
$DIMALTD
 70
     3
  9
$DIMALTF
 40
0.03937
  9
$DIMLFAC
 40
1.0
  9
$DIMTOFL
 70
     1
  9
$DIMTVP
 40
0.0
  9
$DIMTIX
 70
     0
  9
$DIMSOXD
 70
     0
  9
$DIMSAH
 70
     0
  9
$DIMBLK1
  1

  9
$DIMBLK2
  1

  9
$DIMSTYLE
  2

  9
$DIMCLRD
 70
     0
  9
$DIMCLRE
 70
     0
  9
$DIMCLRT
 70
     0
  9
$DIMTFAC
 40
1.0
  9
$DIMGAP
 40
0.625
  9
$DIMJUST
 70
     0
  9
$DIMSD1
 70
     0
  9
$DIMSD2
 70
     0
  9
$DIMTOLJ
 70
     0
  9
$DIMTZIN
 70
     8
  9
$DIMALTZ
 70
     0
  9
$DIMALTTZ
 70
     0
  9
$DIMUPT
 70
     0
  9
$DIMDEC
 70
     2
  9
$DIMTDEC
 70
     2
  9
$DIMALTU
 70
     2
  9
$DIMALTTD
 70
     3
  9
$DIMTXSTY
  7
Standard
  9
$DIMAUNIT
 70
     0
  9
$DIMADEC
 70
     0
  9
$DIMALTRND
 40
0.0
  9
$DIMAZIN
 70
     0
  9
$DIMDSEP
 70
    44
  9
$DIMATFIT
 70
     0
  9
$DIMFRAC
 70
     0
  9
$DIMLDRBLK
  1

  9
$DIMLUNIT
 70
     2
  9
$DIMLWD
 70
    -2
  9
$DIMLWE
 70
    -2
  9
$DIMTMOVE
 70
     0
  9
$LUNITS
 70
     2
  9
$LUPREC
 70
     4
  9
$SKETCHINC
 40
1.0
  9
$FILLETRAD
 40
2.5
  9
$AUNITS
 70
     0
  9
$AUPREC
 70
     0
  9
$MENU
  1
.
  9
$ELEVATION
 40
0.0
  9
$PELEVATION
 40
0.0
  9
$THICKNESS
 40
0.0
  9
$LIMCHECK
 70
     0
  9
$CHAMFERA
 40
2.5
  9
$CHAMFERB
 40
2.5
  9
$CHAMFERC
 40
0.0
  9
$CHAMFERD
 40
0.0
  9
$SKPOLY
 70
     0
  9
$TDCREATE
 40
0.000000000
  9
$TDUCREATE
 40
0.000000000
  9
$TDUPDATE
 40
0.000000000
  9
$TDUUPDATE
 40
0.000000000
  9
$TDINDWG
 40
0.0000000000
  9
$TDUSRTIMER
 40
0.0000000000
  9
$USRTIMER
 70
     1
  9
$ANGBASE
 50
0.0
  9
$ANGDIR
 70
     0
  9
$PDMODE
 70
     0
  9
$PDSIZE
 40
0.0
  9
$PLINEWID
 40
0.0
  9
$SPLFRAME
 70
     0
  9
$SPLINETYPE
 70
     6
  9
$SPLINESEGS
 70
     8
  9
$HANDSEED
  5
4B3
  9
$SURFTAB1
 70
     6
  9
$SURFTAB2
 70
     6
  9
$SURFTYPE
 70
     6
  9
$SURFU
 70
     6
  9
$SURFV
 70
     6
  9
$UCSBASE
  2

  9
$UCSNAME
  2

  9
$UCSORG
 10
0.0
 20
0.0
 30
0.0
  9
$UCSXDIR
 10
1.0
 20
0.0
 30
0.0
  9
$UCSYDIR
 10
0.0
 20
1.0
 30
0.0
  9
$UCSORTHOREF
  2

  9
$UCSORTHOVIEW
 70
     1
  9
$UCSORGTOP
 10
0.0
 20
0.0
 30
0.0
  9
$UCSORGBOTTOM
 10
0.0
 20
0.0
 30
0.0
  9
$UCSORGLEFT
 10
0.0
 20
0.0
 30
0.0
  9
$UCSORGRIGHT
 10
0.0
 20
0.0
 30
0.0
  9
$UCSORGFRONT
 10
0.0
 20
0.0
 30
0.0
  9
$UCSORGBACK
 10
0.0
 20
0.0
 30
0.0
  9
$PUCSBASE
  2

  9
$PUCSNAME
  2

  9
$PUCSORG
 10
0.0
 20
0.0
 30
0.0
  9
$PUCSXDIR
 10
1.0
 20
0.0
 30
0.0
  9
$PUCSYDIR
 10
0.0
 20
1.0
 30
0.0
  9
$PUCSORTHOREF
  2

  9
$PUCSORTHOVIEW
 70
     0
  9
$PUCSORGTOP
 10
0.0
 20
0.0
 30
0.0
  9
$PUCSORGBOTTOM
 10
0.0
 20
0.0
 30
0.0
  9
$PUCSORGLEFT
 10
0.0
 20
0.0
 30
0.0
  9
$PUCSORGRIGHT
 10
0.0
 20
0.0
 30
0.0
  9
$PUCSORGFRONT
 10
0.0
 20
0.0
 30
0.0
  9
$PUCSORGBACK
 10
0.0
 20
0.0
 30
0.0
  9
$USERI1
 70
     0
  9
$USERI2
 70
     0
  9
$USERI3
 70
     0
  9
$USERI4
 70
     0
  9
$USERI5
 70
     0
  9
$USERR1
 40
0.0
  9
$USERR2
 40
0.0
  9
$USERR3
 40
0.0
  9
$USERR4
 40
0.0
  9
$USERR5
 40
0.0
  9
$WORLDVIEW
 70
     1
  9
$SHADEDGE
 70
     3
  9
$SHADEDIF
 70
    70
  9
$TILEMODE
 70
     1
  9
$MAXACTVP
 70
    48
  9
$PINSBASE
 10
0.0
 20
0.0
 30
0.0
  9
$PLIMCHECK
 70
     0
  9
$PEXTMIN
 10
0.0
 20
0.0
 30
0.0
  9
$PEXTMAX
 10
393.100891
 20
174.725723
 30
2.0
  9
$PLIMMIN
 10
0.0
 20
0.0
  9
$PLIMMAX
 10
420.0
 20
297.0
  9
$UNITMODE
 70
     0
  9
$VISRETAIN
 70
     0
  9
$PLINEGEN
 70
     0
  9
$PSLTSCALE
 70
     1
  9
$TREEDEPTH
 70
  3020
  9
$CMLSTYLE
  2
Standard
  9
$CMLJUST
 70
     0
  9
$CMLSCALE
 40
20.0
  9
$PROXYGRAPHICS
 70
     1
  9
$MEASUREMENT
 70
     1
  9
$CELWEIGHT
370
    -1
  9
$ENDCAPS
280
     0
  9
$JOINSTYLE
280
     0
  9
$LWDISPLAY
290
     0
  9
$INSUNITS
 70
     0
  9
$HYPERLINKBASE
  1

  9
$STYLESHEET
  1

  9
$XEDIT
290
     1
  9
$CEPSNTYPE
380
     0
  9
$PSTYLEMODE
290
     0
  9
$FINGERPRINTGUID
  2

  9
$VERSIONGUID
  2

  9
$EXTNAMES
290
     0
  9
$PSVPSCALE
 40
0.0
  0
ENDSEC
  0
SECTION
  2
CLASSES
  0
CLASS
  1
LWPOLYLINE
  2
AcDbPolyline
  3
AutoCAD 2000
 90
        0
280
     0
281
     1
  0
CLASS
  1
IMAGE
  2
AcDbRasterImage
  3
ISM
 90
      127
280
     0
281
     1
  0
CLASS
  1
OLE2FRAME
  2
AcDbOle2Frame
  3
AutoCAD 2000
 90
        0
280
     0
281
     1
  0
CLASS
  1
HATCH
  2
AcDbHatch
  3
AutoCAD 2000
 90
        0
280
     0
281
     1
  0
CLASS
  1
DICTIONARYVAR
  2
AcDbDictionaryVar
  3
AutoCAD 2000
 90
        0
280
     0
281
     0
  0
CLASS
  1
RASTERVARIABLES
  2
AcDbRasterVariables
  3
ISM
 90
        0
280
     0
281
     0
  0
CLASS
  1
IMAGEDEF
  2
AcDbRasterImageDef
  3
ISM
 90
        0
280
     0
281
     0
  0
CLASS
  1
IMAGEDEF_REACTOR
  2
AcDbRasterImageDefReactor
  3
ISM
 90
        1
280
     0
281
     0
  0
CLASS
  1
IDBUFFER
  2
AcDbIdBuffer
  3
AutoCAD 2000
 90
        0
280
     0
281
     0
  0
CLASS
  1
SPATIAL_FILTER
  2
AcDbSpatialFilter
  3
AutoCAD 2000
 90
        0
280
     0
281
     0
  0
CLASS
  1
XRECORD
  2
AcDbXrecord
  3
AutoCAD 2000
 90
        0
280
     0
281
     0
  0
CLASS
  1
SORTENTSTABLE
  2
AcDbSortentsTable
  3
AutoCAD 2000
 90
        0
280
     0
281
     0
  0
CLASS
  1
LAYER_INDEX
  2
AcDbLayerIndex
  3
AutoCAD 2000
 90
        0
280
     0
281
     0
  0
CLASS
  1
SPATIAL_INDEX
  2
AcDbSpatialIndex
  3
AutoCAD 2000
 90
        0
280
     0
281
     0
  0
CLASS
  1
OBJECT_PTR
  2
CAseDLPNTableRecord
  3
"ASE-LPNTableRecord"
 90
        1
280
     0
281
     0
  0
CLASS
  1
LAYOUT
  2
AcDbLayout
  3
AutoCAD 2000
 90
        0
280
     0
281
     0
  0
CLASS
  1
PLOTSETTINGS
  2
AcDbPlotSettings
  3
AutoCAD 2000
 90
        0
280
     0
281
     0
  0
CLASS
  1
ACDBDICTIONARYWDFLT
  2
AcDbDictionaryWithDefault
  3
AutoCAD 2000
 90
        0
280
     0
281
     0
  0
CLASS
  1
ACDBPLACEHOLDER
  2
AcDbPlaceHolder
  3
AutoCAD 2000
 90
        0
280
     0
281
     0
  0
CLASS
  1
VBA_PROJECT
  2
AcDbVbaProject
  3
acadvba
 90
        0
280
     0
281
     0
  0
CLASS
  1
WIPEOUT
  2
AcDbWipeout
  3
WipeOut|AutoCAD Express Tool|expresstools@autodesk.com
 90
      127
280
     0
281
     1
  0
CLASS
  1
WIPEOUTVARIABLES
  2
AcDbWipeoutVariables
  3
WipeOut|AutoCAD Express Tool|expresstools@autodesk.com
 90
        0
280
     0
281
     0
  0
CLASS
  1
RTEXT
  2
RText
  3
RText|AutoCAD Express Tool|expresstools@autodesk.com
 90
        0
280
     0
281
     1
  0
CLASS
  1
ARCALIGNEDTEXT
  2
AcDbArcAlignedText
  3
ATEXT|AutoCAD Express Tool|expresstools@autodesk.com
 90
        0
280
     0
281
     1
  0
ENDSEC
  0
SECTION
  2
TABLES
  0
TABLE
  2
VPORT
  5
7
100
AcDbSymbolTable
 70
     1
  0
VPORT
  5
15
100
AcDbSymbolTableRecord
100
AcDbViewportTableRecord
  2
*ACTIVE
 70
     0
 10
0.0
 20
0.0
 11
1.0
 21
1.0
 12
6.591288
 22
4.579184
 13
0.0
 23
0.0
 14
1.0
 24
1.0
 15
0.0
 25
0.0
 16
0.0
 26
0.0
 36
1.0
 17
0.0
 27
0.0
 37
0.0
 40
9.158369
 41
0.688564
 42
50.0
 43
0.0
 44
0.0
 50
0.0
 51
0.0
 71
     0
 72
   100
 73
     1
 74
     1
 75
     0
 76
     0
 77
     0
 78
     0
281
     0
 65
     0
110
0.0
120
0.0
130
0.0
111
1.0
121
0.0
131
0.0
112
0.0
122
1.0
132
0.0
345
0
346
0
 79
     0
146
0.0
  0
ENDTAB
  0
TABLE
  2
LTYPE
  5
4
100
AcDbSymbolTable
 70
     3
  0
LTYPE
  5
11
100
AcDbSymbolTableRecord
100
AcDbLinetypeTableRecord
  2
ByBlock
 70
    64
  3

 72
    65
 73
     0
 40
0.0
  0
LTYPE
  5
12
100
AcDbSymbolTableRecord
100
AcDbLinetypeTableRecord
  2
ByLayer
 70
    64
  3

 72
    65
 73
     0
 40
0.0
  0
LTYPE
  5
13
100
AcDbSymbolTableRecord
100
AcDbLinetypeTableRecord
  2
Continuous
 70
    64
  3
Solid line
 72
    65
 73
     0
 40
0.0
  0
ENDTAB
  0
TABLE
  2
LAYER
  5
2
100
AcDbSymbolTable
 70
     1
  0
LAYER
  5
14
100
AcDbSymbolTableRecord
100
AcDbLayerTableRecord
  2
0
 70
     0
 62
     7
  6
Continuous
290
     1
370
    -3
390
1D
  0
ENDTAB
  0
TABLE
  2
STYLE
  5
3
100
AcDbSymbolTable
 70
     1
  0
STYLE
  5
17
100
AcDbSymbolTableRecord
100
AcDbTextStyleTableRecord
  2
Standard
 70
     0
 40
0.0
 41
1.0
 50
0.0
 71
     0
 42
0.0
  3
txt
  4

  0
ENDTAB
  0
TABLE
  2
VIEW
  5
5
100
AcDbSymbolTable
 70
     0
  0
ENDTAB
  0
TABLE
  2
UCS
  5
6
100
AcDbSymbolTable
 70
     0
  0
ENDTAB
  0
TABLE
  2
APPID
  5
8
100
AcDbSymbolTable
 70
     1
  0
APPID
  5
16
100
AcDbSymbolTableRecord
100
AcDbRegAppTableRecord
  2
ACAD
 70
     0
  0
ENDTAB
  0
TABLE
  2
DIMSTYLE
  5
9
100
AcDbSymbolTable
 70
     1
100
AcDbDimStyleTable
 71
     0
  0
DIMSTYLE
105
18
100
AcDbSymbolTableRecord
100
AcDbDimStyleTableRecord
  2
Standard
 70
     0
  3

  4

 40
1.0
 41
0.18
 42
0.0625
 43
0.38
 44
0.18
 45
0.0
 46
0.0
 47
0.0
 48
0.0
 71
     0
 72
     0
 73
     1
 74
     1
 75
     0
 76
     0
 77
     0
 78
     0
 79
     0
140
0.18
141
0.09
142
0.0
143
25.4
144
1.0
145
0.0
146
1.0
147
0.09
148
0.0
170
     0
171
     2
172
     0
173
     0
174
     0
175
     0
176
     0
177
     0
178
     0
179
     0
271
     4
272
     4
273
     2
274
     2
275
     0
276
     0
277
     2
278
    46
279
     0
280
     0
281
     0
282
     0
283
     1
284
     0
285
     0
286
     0
288
     0
289
     3
340
17
341
0
342
0
343
0
344
0
371
    -2
372
    -2
  0
ENDTAB
  0
TABLE
  2
BLOCK_RECORD
  5
1
100
AcDbSymbolTable
 70
     0
  0
BLOCK_RECORD
  5
A
100
AcDbSymbolTableRecord
100
AcDbBlockTableRecord
  2
*MODEL_SPACE
340
20
  0
BLOCK_RECORD
  5
B
100
AcDbSymbolTableRecord
100
AcDbBlockTableRecord
  2
*PAPER_SPACE
340
21
  0
ENDTAB
  0
ENDSEC
  0
SECTION
  2
BLOCKS
  0
BLOCK
  5
D
100
AcDbEntity
  8
0
390
0
100
AcDbBlockBegin
  2
*MODEL_SPACE
 70
     0
 10
0.0
 20
0.0
 30
0.0
  3
*MODEL_SPACE
  1

  0
ENDBLK
  5
E
100
AcDbEntity
  8
0
390
0
100
AcDbBlockEnd
  0
BLOCK
  5
F
100
AcDbEntity
 67
     1
  8
0
390
0
100
AcDbBlockBegin
  2
*PAPER_SPACE
 70
     0
 10
0.0
 20
0.0
 30
0.0
  3
*PAPER_SPACE
  1

  0
ENDBLK
  5
10
100
AcDbEntity
 67
     1
  8
0
390
0
100
AcDbBlockEnd
  0
ENDSEC
  0
SECTION
  2
ENTITIES
  0
VIEWPORT
  5
4B2
100
AcDbEntity
 67
     1
  8
0
370
     0
390
0
 62
     0
 48
0.0
100
AcDbViewport
 10
0.0
 20
0.0
 30
0.0
 40
1000.0
 41
1000.0
 68
     1
 69
     1
 12
0.0
 22
0.0
 13
0.0
 23
0.0
 14
1.0
 24
1.0
 15
1.0
 25
1.0
 16
0.0
 26
0.0
 36
1.0
 17
0.0
 27
0.0
 37
0.0
 42
50.0
 43
0.0
 44
0.0
 45
1000.0
 50
0.0
 51
0.0
 72
   100
 90
        0
340
0
  1

281
     0
 71
     0
 74
     1
110
0.0
120
0.0
130
0.0
111
1.0
121
0.0
131
0.0
112
0.0
122
1.0
132
0.0
345
0
346
0
 79
     0
146
0.0
  0
POLYLINE
  5
24
100
AcDbEntity
  8
0
370
    13
390
0
 62
     7
100
AcDb2dPolyline
 66
     1
 10
0.0
 20
0.0
 30
0.0
 70
     1
 71
    10
  0
VERTEX
  5
25
100
AcDbEntity
  8
0
370
     0
390
0
100
AcDbVertex
100
AcDb2dVertex
 10
174.369888
 20
-16.761887
 30
0.0
  0
VERTEX
  5
26
100
AcDbEntity
  8
0
370
     0
390
0
100
AcDbVertex
100
AcDb2dVertex
 10
174.838913
 20
-16.761887
 30
0.0
  0
VERTEX
  5
27
100
AcDbEntity
  8
0
370
     0
390
0
100
AcDbVertex
100
AcDb2dVertex
 10
174.838913
 20
-15.153097
 30
0.0
  0
VERTEX
  5
28
100
AcDbEntity
  8
0
370
     0
390
0
100
AcDbVertex
100
AcDb2dVertex
 10
176.311539
 20
-15.153097
 30
0.0
  0
VERTEX
  5
29
100
AcDbEntity
  8
0
370
     0
390
0
100
AcDbVertex
100
AcDb2dVertex
 10
176.311539
 20
-14.734509
 30
0.0
  0
VERTEX
  5
2A
100
AcDbEntity
  8
0
370
     0
390
0
100
AcDbVertex
100
AcDb2dVertex
 10
174.838913
 20
-14.734509
 30
0.0
  0
VERTEX
  5
2B
100
AcDbEntity
  8
0
370
     0
390
0
100
AcDbVertex
100
AcDb2dVertex
 10
174.838913
 20
-13.685518
 30
0.0
  0
VERTEX
  5
2C
100
AcDbEntity
  8
0
370
     0
390
0
100
AcDbVertex
100
AcDb2dVertex
 10
176.649429
 20
-13.685518
 30
0.0
  0
VERTEX
  5
2D
100
AcDbEntity
  8
0
370
     0
390
0
100
AcDbVertex
100
AcDb2dVertex
 10
176.649429
 20
-13.261887
 30
0.0
  0
VERTEX
  5
2E
100
AcDbEntity
  8
0
370
     0
390
0
100
AcDbVertex
100
AcDb2dVertex
 10
174.369888
 20
-13.261887
 30
0.0
  0
SEQEND
  5
2F
100
AcDbEntity
  8
0
370
     0
390
0
  0
POLYLINE
  5
30
100
AcDbEntity
  8
0
370
    13
390
0
 62
     7
100
AcDb2dPolyline
 66
     1
 10
0.0
 20
0.0
 30
0.0
 70
     1
 71
    22
  0
VERTEX
  5
31
100
AcDbEntity
  8
0
370
     0
390
0
100
AcDbVertex
100
AcDb2dVertex
 10
177.562256
 20
-16.761887
 30
0.0
  0
VERTEX
  5
32
100
AcDbEntity
  8
0
370
     0
390
0
100
AcDbVertex
100
AcDb2dVertex
 10
178.006058
 20
-16.761887
 30
0.0
  0
VERTEX
  5
33
100
AcDbEntity
  8
0
370
     0
390
0
100
AcDbVertex
100
AcDb2dVertex
 10
178.006058
 20
-15.213615
 30
0.0
  0
VERTEX
  5
34
100
AcDbEntity
  8
0
370
     0
390
0
100
AcDbVertex
100
AcDb2dVertex
 10
178.051453
 20
-14.840417
 30
0.0
  0
VERTEX
  5
35
100
AcDbEntity
  8
0
370
     0
390
0
100
AcDbVertex
100
AcDb2dVertex
 10
178.187622
 20
-14.573126
 30
0.0
  0
VERTEX
  5
36
100
AcDbEntity
  8
0
370
     0
390
0
100
AcDbVertex
100
AcDb2dVertex
 10
178.409515
 20
-14.411742
 30
0.0
  0
VERTEX
  5
37
100
AcDbEntity
  8
0
370
     0
390
0
100
AcDbVertex
100
AcDb2dVertex
 10
178.707062
 20
-14.356267
 30
0.0
  0
VERTEX
  5
38
100
AcDbEntity
  8
0
370
     0
390
0
100
AcDbVertex
100
AcDb2dVertex
 10
178.92897
 20
-14.391569
 30
0.0
  0
VERTEX
  5
39
100
AcDbEntity
  8
0
370
     0
390
0
100
AcDbVertex
100
AcDb2dVertex
 10
179.095398
 20
-14.492434
 30
0.0
  0
VERTEX
  5
3A
100
AcDbEntity
  8
0
370
     0
390
0
100
AcDbVertex
100
AcDb2dVertex
 10
179.196259
 20
-14.663904
 30
0.0
  0
VERTEX
  5
3B
100
AcDbEntity
  8
0
370
     0
390
0
100
AcDbVertex
100
AcDb2dVertex
 10
179.231567
 20
-14.895892
 30
0.0
  0
VERTEX
  5
3C
100
AcDbEntity
  8
0
370
     0
390
0
100
AcDbVertex
100
AcDb2dVertex
 10
179.680405
 20
-14.895892
 30
0.0
  0
VERTEX
  5
3D
100
AcDbEntity
  8
0
370
     0
390
0
100
AcDbVertex
100
AcDb2dVertex
 10
179.619888
 20
-14.487391
 30
0.0
  0
VERTEX
  5
3E
100
AcDbEntity
  8
0
370
     0
390
0
100
AcDbVertex
100
AcDb2dVertex
 10
179.453461
 20
-14.194883
 30
0.0
  0
VERTEX
  5
3F
100
AcDbEntity
  8
0
370
     0
390
0
100
AcDbVertex
100
AcDb2dVertex
 10
179.176086
 20
-14.018371
 30
0.0
  0
VERTEX
  5
40
100
AcDbEntity
  8
0
370
     0
390
0
100
AcDbVertex
100
AcDb2dVertex
 10
178.797852
 20
-13.957851
 30
0.0
  0
VERTEX
  5
41
100
AcDbEntity
  8
0
370
     0
390
0
100
AcDbVertex
100
AcDb2dVertex
 10
178.540634
 20
-13.998198
 30
0.0
  0
VERTEX
  5
42
100
AcDbEntity
  8
0
370
     0
390
0
100
AcDbVertex
100
AcDb2dVertex
 10
178.318741
 20
-14.099062
 30
0.0
  0
VERTEX
  5
43
100
AcDbEntity
  8
0
370
     0
390
0
100
AcDbVertex
100
AcDb2dVertex
 10
178.122055
 20
-14.270533
 30
0.0
  0
VERTEX
  5
44
100
AcDbEntity
  8
0
370
     0
390
0
100
AcDbVertex
100
AcDb2dVertex
 10
177.965714
 20
-14.502521
 30
0.0
  0
VERTEX
  5
45
100
AcDbEntity
  8
0
370
     0
390
0
100
AcDbVertex
100
AcDb2dVertex
 10
177.965714
 20
-14.053673
 30
0.0
  0
VERTEX
  5
46
100
AcDbEntity
  8
0
370
     0
390
0
100
AcDbVertex
100
AcDb2dVertex
 10
177.562256
 20
-14.053673
 30
0.0
  0
SEQEND
  5
47
100
AcDbEntity
  8
0
370
     0
390
0
  0
POLYLINE
  5
48
100
AcDbEntity
  8
0
370
    13
390
0
 62
     7
100
AcDb2dPolyline
 66
     1
 10
0.0
 20
0.0
 30
0.0
 70
     1
 71
    16
  0
VERTEX
  5
49
100
AcDbEntity
  8
0
370
     0
390
0
100
AcDbVertex
100
AcDb2dVertex
 10
180.30072
 20
-15.410301
 30
0.0
  0
VERTEX
  5
4A
100
AcDbEntity
  8
0
370
     0
390
0
100
AcDbVertex
100
AcDb2dVertex
 10
180.381424
 20
-16.025576
 30
0.0
  0
VERTEX
  5
4B
100
AcDbEntity
  8
0
370
     0
390
0
100
AcDbVertex
100
AcDb2dVertex
 10
180.613403
 20
-16.479465
 30
0.0
  0
VERTEX
  5
4C
100
AcDbEntity
  8
0
370
     0
390
0
100
AcDbVertex
100
AcDb2dVertex
 10
180.981567
 20
-16.761887
 30
0.0
  0
VERTEX
  5
4D
100
AcDbEntity
  8
0
370
     0
390
0
100
AcDbVertex
100
AcDb2dVertex
 10
181.4758
 20
-16.857708
 30
0.0
  0
VERTEX
  5
4E
100
AcDbEntity
  8
0
370
     0
390
0
100
AcDbVertex
100
AcDb2dVertex
 10
181.964996
 20
-16.761887
 30
0.0
  0
VERTEX
  5
4F
100
AcDbEntity
  8
0
370
     0
390
0
100
AcDbVertex
100
AcDb2dVertex
 10
182.333145
 20
-16.484509
 30
0.0
  0
VERTEX
  5
50
100
AcDbEntity
  8
0
370
     0
390
0
100
AcDbVertex
100
AcDb2dVertex
 10
182.56514
 20
-16.030619
 30
0.0
  0
VERTEX
  5
51
100
AcDbEntity
  8
0
370
     0
390
0
100
AcDbVertex
100
AcDb2dVertex
 10
182.650879
 20
-15.410301
 30
0.0
  0
VERTEX
  5
52
100
AcDbEntity
  8
0
370
     0
390
0
100
AcDbVertex
100
AcDb2dVertex
 10
182.56514
 20
-14.795028
 30
0.0
  0
VERTEX
  5
53
100
AcDbEntity
  8
0
370
     0
390
0
100
AcDbVertex
100
AcDb2dVertex
 10
182.333145
 20
-14.336094
 30
0.0
  0
VERTEX
  5
54
100
AcDbEntity
  8
0
370
     0
390
0
100
AcDbVertex
100
AcDb2dVertex
 10
181.964996
 20
-14.058717
 30
0.0
  0
VERTEX
  5
55
100
AcDbEntity
  8
0
370
     0
390
0
100
AcDbVertex
100
AcDb2dVertex
 10
181.4758
 20
-13.957851
 30
0.0
  0
VERTEX
  5
56
100
AcDbEntity
  8
0
370
     0
390
0
100
AcDbVertex
100
AcDb2dVertex
 10
180.981567
 20
-14.058717
 30
0.0
  0
VERTEX
  5
57
100
AcDbEntity
  8
0
370
     0
390
0
100
AcDbVertex
100
AcDb2dVertex
 10
180.613403
 20
-14.341137
 30
0.0
  0
VERTEX
  5
58
100
AcDbEntity
  8
0
370
     0
390
0
100
AcDbVertex
100
AcDb2dVertex
 10
180.381424
 20
-14.795028
 30
0.0
  0
SEQEND
  5
59
100
AcDbEntity
  8
0
370
     0
390
0
  0
POLYLINE
  5
5A
100
AcDbEntity
  8
0
370
    13
390
0
 62
     7
100
AcDb2dPolyline
 66
     1
 10
0.0
 20
0.0
 30
0.0
 70
     1
 71
    16
  0
VERTEX
  5
5B
100
AcDbEntity
  8
0
370
     0
390
0
100
AcDbVertex
100
AcDb2dVertex
 10
180.754623
 20
-15.405258
 30
0.0
  0
VERTEX
  5
5C
100
AcDbEntity
  8
0
370
     0
390
0
100
AcDbVertex
100
AcDb2dVertex
 10
180.800003
 20
-14.951368
 30
0.0
  0
VERTEX
  5
5D
100
AcDbEntity
  8
0
370
     0
390
0
100
AcDbVertex
100
AcDb2dVertex
 10
180.941223
 20
-14.623558
 30
0.0
  0
VERTEX
  5
5E
100
AcDbEntity
  8
0
370
     0
390
0
100
AcDbVertex
100
AcDb2dVertex
 10
181.168167
 20
-14.421829
 30
0.0
  0
VERTEX
  5
5F
100
AcDbEntity
  8
0
370
     0
390
0
100
AcDbVertex
100
AcDb2dVertex
 10
181.4758
 20
-14.351224
 30
0.0
  0
VERTEX
  5
60
100
AcDbEntity
  8
0
370
     0
390
0
100
AcDbVertex
100
AcDb2dVertex
 10
181.778397
 20
-14.421829
 30
0.0
  0
VERTEX
  5
61
100
AcDbEntity
  8
0
370
     0
390
0
100
AcDbVertex
100
AcDb2dVertex
 10
182.005341
 20
-14.618515
 30
0.0
  0
VERTEX
  5
62
100
AcDbEntity
  8
0
370
     0
390
0
100
AcDbVertex
100
AcDb2dVertex
 10
182.146545
 20
-14.951368
 30
0.0
  0
VERTEX
  5
63
100
AcDbEntity
  8
0
370
     0
390
0
100
AcDbVertex
100
AcDb2dVertex
 10
182.196976
 20
-15.405258
 30
0.0
  0
VERTEX
  5
64
100
AcDbEntity
  8
0
370
     0
390
0
100
AcDbVertex
100
AcDb2dVertex
 10
182.146545
 20
-15.864192
 30
0.0
  0
VERTEX
  5
65
100
AcDbEntity
  8
0
370
     0
390
0
100
AcDbVertex
100
AcDb2dVertex
 10
182.005341
 20
-16.197044
 30
0.0
  0
VERTEX
  5
66
100
AcDbEntity
  8
0
370
     0
390
0
100
AcDbVertex
100
AcDb2dVertex
 10
181.778397
 20
-16.398775
 30
0.0
  0
VERTEX
  5
67
100
AcDbEntity
  8
0
370
     0
390
0
100
AcDbVertex
100
AcDb2dVertex
 10
181.4758
 20
-16.464336
 30
0.0
  0
VERTEX
  5
68
100
AcDbEntity
  8
0
370
     0
390
0
100
AcDbVertex
100
AcDb2dVertex
 10
181.168167
 20
-16.398775
 30
0.0
  0
VERTEX
  5
69
100
AcDbEntity
  8
0
370
     0
390
0
100
AcDbVertex
100
AcDb2dVertex
 10
180.941223
 20
-16.197044
 30
0.0
  0
VERTEX
  5
6A
100
AcDbEntity
  8
0
370
     0
390
0
100
AcDbVertex
100
AcDb2dVertex
 10
180.800003
 20
-15.864192
 30
0.0
  0
SEQEND
  5
6B
100
AcDbEntity
  8
0
370
     0
390
0
  0
POLYLINE
  5
6C
100
AcDbEntity
  8
0
370
    13
390
0
 62
     7
100
AcDb2dPolyline
 66
     1
 10
0.0
 20
0.0
 30
0.0
 70
     1
 71
    24
  0
VERTEX
  5
6D
100
AcDbEntity
  8
0
370
     0
390
0
100
AcDbVertex
100
AcDb2dVertex
 10
183.46788
 20
-16.761887
 30
0.0
  0
VERTEX
  5
6E
100
AcDbEntity
  8
0
370
     0
390
0
100
AcDbVertex
100
AcDb2dVertex
 10
183.911682
 20
-16.761887
 30
0.0
  0
VERTEX
  5
6F
100
AcDbEntity
  8
0
370
     0
390
0
100
AcDbVertex
100
AcDb2dVertex
 10
183.911682
 20
-15.198486
 30
0.0
  0
VERTEX
  5
70
100
AcDbEntity
  8
0
370
     0
390
0
100
AcDbVertex
100
AcDb2dVertex
 10
183.957062
 20
-14.840417
 30
0.0
  0
VERTEX
  5
71
100
AcDbEntity
  8
0
370
     0
390
0
100
AcDbVertex
100
AcDb2dVertex
 10
184.103317
 20
-14.578169
 30
0.0
  0
VERTEX
  5
72
100
AcDbEntity
  8
0
370
     0
390
0
100
AcDbVertex
100
AcDb2dVertex
 10
184.330261
 20
-14.416786
 30
0.0
  0
VERTEX
  5
73
100
AcDbEntity
  8
0
370
     0
390
0
100
AcDbVertex
100
AcDb2dVertex
 10
184.632858
 20
-14.356267
 30
0.0
  0
VERTEX
  5
74
100
AcDbEntity
  8
0
370
     0
390
0
100
AcDbVertex
100
AcDb2dVertex
 10
184.874939
 20
-14.406699
 30
0.0
  0
VERTEX
  5
75
100
AcDbEntity
  8
0
370
     0
390
0
100
AcDbVertex
100
AcDb2dVertex
 10
185.02623
 20
-14.542867
 30
0.0
  0
VERTEX
  5
76
100
AcDbEntity
  8
0
370
     0
390
0
100
AcDbVertex
100
AcDb2dVertex
 10
185.101883
 20
-14.769812
 30
0.0
  0
VERTEX
  5
77
100
AcDbEntity
  8
0
370
     0
390
0
100
AcDbVertex
100
AcDb2dVertex
 10
185.12709
 20
-15.072405
 30
0.0
  0
VERTEX
  5
78
100
AcDbEntity
  8
0
370
     0
390
0
100
AcDbVertex
100
AcDb2dVertex
 10
185.12709
 20
-16.761887
 30
0.0
  0
VERTEX
  5
79
100
AcDbEntity
  8
0
370
     0
390
0
100
AcDbVertex
100
AcDb2dVertex
 10
185.570908
 20
-16.761887
 30
0.0
  0
VERTEX
  5
7A
100
AcDbEntity
  8
0
370
     0
390
0
100
AcDbVertex
100
AcDb2dVertex
 10
185.570908
 20
-14.981627
 30
0.0
  0
VERTEX
  5
7B
100
AcDbEntity
  8
0
370
     0
390
0
100
AcDbVertex
100
AcDb2dVertex
 10
185.55072
 20
-14.623558
 30
0.0
  0
VERTEX
  5
7C
100
AcDbEntity
  8
0
370
     0
390
0
100
AcDbVertex
100
AcDb2dVertex
 10
185.459946
 20
-14.326008
 30
0.0
  0
VERTEX
  5
7D
100
AcDbEntity
  8
0
370
     0
390
0
100
AcDbVertex
100
AcDb2dVertex
 10
185.162399
 20
-14.053673
 30
0.0
  0
VERTEX
  5
7E
100
AcDbEntity
  8
0
370
     0
390
0
100
AcDbVertex
100
AcDb2dVertex
 10
184.698425
 20
-13.957851
 30
0.0
  0
VERTEX
  5
7F
100
AcDbEntity
  8
0
370
     0
390
0
100
AcDbVertex
100
AcDb2dVertex
 10
184.441223
 20
-13.993155
 30
0.0
  0
VERTEX
  5
80
100
AcDbEntity
  8
0
370
     0
390
0
100
AcDbVertex
100
AcDb2dVertex
 10
184.224365
 20
-14.088976
 30
0.0
  0
VERTEX
  5
81
100
AcDbEntity
  8
0
370
     0
390
0
100
AcDbVertex
100
AcDb2dVertex
 10
184.037766
 20
-14.25036
 30
0.0
  0
VERTEX
  5
82
100
AcDbEntity
  8
0
370
     0
390
0
100
AcDbVertex
100
AcDb2dVertex
 10
183.89151
 20
-14.467218
 30
0.0
  0
VERTEX
  5
83
100
AcDbEntity
  8
0
370
     0
390
0
100
AcDbVertex
100
AcDb2dVertex
 10
183.89151
 20
-14.053673
 30
0.0
  0
VERTEX
  5
84
100
AcDbEntity
  8
0
370
     0
390
0
100
AcDbVertex
100
AcDb2dVertex
 10
183.46788
 20
-14.053673
 30
0.0
  0
SEQEND
  5
85
100
AcDbEntity
  8
0
370
     0
390
0
  0
POLYLINE
  5
86
100
AcDbEntity
  8
0
370
    13
390
0
 62
     7
100
AcDb2dPolyline
 66
     1
 10
0.0
 20
0.0
 30
0.0
 70
     1
 71
    22
  0
VERTEX
  5
87
100
AcDbEntity
  8
0
370
     0
390
0
100
AcDbVertex
100
AcDb2dVertex
 10
187.098999
 20
-14.522694
 30
0.0
  0
VERTEX
  5
88
100
AcDbEntity
  8
0
370
     0
390
0
100
AcDbVertex
100
AcDb2dVertex
 10
187.098999
 20
-15.879322
 30
0.0
  0
VERTEX
  5
89
100
AcDbEntity
  8
0
370
     0
390
0
100
AcDbVertex
100
AcDb2dVertex
 10
187.129257
 20
-16.318083
 30
0.0
  0
VERTEX
  5
8A
100
AcDbEntity
  8
0
370
     0
390
0
100
AcDbVertex
100
AcDb2dVertex
 10
187.270462
 20
-16.620676
 30
0.0
  0
VERTEX
  5
8B
100
AcDbEntity
  8
0
370
     0
390
0
100
AcDbVertex
100
AcDb2dVertex
 10
187.552887
 20
-16.79719
 30
0.0
  0
VERTEX
  5
8C
100
AcDbEntity
  8
0
370
     0
390
0
100
AcDbVertex
100
AcDb2dVertex
 10
188.031998
 20
-16.857708
 30
0.0
  0
VERTEX
  5
8D
100
AcDbEntity
  8
0
370
     0
390
0
100
AcDbVertex
100
AcDb2dVertex
 10
188.556488
 20
-16.832491
 30
0.0
  0
VERTEX
  5
8E
100
AcDbEntity
  8
0
370
     0
390
0
100
AcDbVertex
100
AcDb2dVertex
 10
188.556488
 20
-16.449207
 30
0.0
  0
VERTEX
  5
8F
100
AcDbEntity
  8
0
370
     0
390
0
100
AcDbVertex
100
AcDb2dVertex
 10
188.173203
 20
-16.479465
 30
0.0
  0
VERTEX
  5
90
100
AcDbEntity
  8
0
370
     0
390
0
100
AcDbVertex
100
AcDb2dVertex
 10
187.825226
 20
-16.439119
 30
0.0
  0
VERTEX
  5
91
100
AcDbEntity
  8
0
370
     0
390
0
100
AcDbVertex
100
AcDb2dVertex
 10
187.638626
 20
-16.31304
 30
0.0
  0
VERTEX
  5
92
100
AcDbEntity
  8
0
370
     0
390
0
100
AcDbVertex
100
AcDb2dVertex
 10
187.557938
 20
-16.101223
 30
0.0
  0
VERTEX
  5
93
100
AcDbEntity
  8
0
370
     0
390
0
100
AcDbVertex
100
AcDb2dVertex
 10
187.542801
 20
-15.803674
 30
0.0
  0
VERTEX
  5
94
100
AcDbEntity
  8
0
370
     0
390
0
100
AcDbVertex
100
AcDb2dVertex
 10
187.542801
 20
-14.522694
 30
0.0
  0
VERTEX
  5
95
100
AcDbEntity
  8
0
370
     0
390
0
100
AcDbVertex
100
AcDb2dVertex
 10
188.556488
 20
-14.522694
 30
0.0
  0
VERTEX
  5
96
100
AcDbEntity
  8
0
370
     0
390
0
100
AcDbVertex
100
AcDb2dVertex
 10
188.556488
 20
-14.144451
 30
0.0
  0
VERTEX
  5
97
100
AcDbEntity
  8
0
370
     0
390
0
100
AcDbVertex
100
AcDb2dVertex
 10
187.542801
 20
-14.144451
 30
0.0
  0
VERTEX
  5
98
100
AcDbEntity
  8
0
370
     0
390
0
100
AcDbVertex
100
AcDb2dVertex
 10
187.542801
 20
-13.352665
 30
0.0
  0
VERTEX
  5
99
100
AcDbEntity
  8
0
370
     0
390
0
100
AcDbVertex
100
AcDb2dVertex
 10
187.098999
 20
-13.352665
 30
0.0
  0
VERTEX
  5
9A
100
AcDbEntity
  8
0
370
     0
390
0
100
AcDbVertex
100
AcDb2dVertex
 10
187.098999
 20
-14.144451
 30
0.0
  0
VERTEX
  5
9B
100
AcDbEntity
  8
0
370
     0
390
0
100
AcDbVertex
100
AcDb2dVertex
 10
186.332428
 20
-14.144451
 30
0.0
  0
VERTEX
  5
9C
100
AcDbEntity
  8
0
370
     0
390
0
100
AcDbVertex
100
AcDb2dVertex
 10
186.332428
 20
-14.522694
 30
0.0
  0
SEQEND
  5
9D
100
AcDbEntity
  8
0
370
     0
390
0
  0
POLYLINE
  5
9E
100
AcDbEntity
  8
0
370
    13
390
0
 62
     7
100
AcDb2dPolyline
 66
     1
 10
0.0
 20
0.0
 30
0.0
 70
     1
 71
     7
  0
VERTEX
  5
9F
100
AcDbEntity
  8
0
370
     0
390
0
100
AcDbVertex
100
AcDb2dVertex
 10
193.387909
 20
-16.761887
 30
0.0
  0
VERTEX
  5
A0
100
AcDbEntity
  8
0
370
     0
390
0
100
AcDbVertex
100
AcDb2dVertex
 10
193.856918
 20
-16.761887
 30
0.0
  0
VERTEX
  5
A1
100
AcDbEntity
  8
0
370
     0
390
0
100
AcDbVertex
100
AcDb2dVertex
 10
194.845398
 20
-14.053673
 30
0.0
  0
VERTEX
  5
A2
100
AcDbEntity
  8
0
370
     0
390
0
100
AcDbVertex
100
AcDb2dVertex
 10
194.386459
 20
-14.053673
 30
0.0
  0
VERTEX
  5
A3
100
AcDbEntity
  8
0
370
     0
390
0
100
AcDbVertex
100
AcDb2dVertex
 10
193.624939
 20
-16.237391
 30
0.0
  0
VERTEX
  5
A4
100
AcDbEntity
  8
0
370
     0
390
0
100
AcDbVertex
100
AcDb2dVertex
 10
192.848282
 20
-14.053673
 30
0.0
  0
VERTEX
  5
A5
100
AcDbEntity
  8
0
370
     0
390
0
100
AcDbVertex
100
AcDb2dVertex
 10
192.384308
 20
-14.053673
 30
0.0
  0
SEQEND
  5
A6
100
AcDbEntity
  8
0
370
     0
390
0
  0
POLYLINE
  5
A7
100
AcDbEntity
  8
0
370
    13
390
0
 62
     7
100
AcDb2dPolyline
 66
     1
 10
0.0
 20
0.0
 30
0.0
 70
     1
 71
    10
  0
VERTEX
  5
A8
100
AcDbEntity
  8
0
370
     0
390
0
100
AcDbVertex
100
AcDb2dVertex
 10
196.968597
 20
-16.388687
 30
0.0
  0
VERTEX
  5
A9
100
AcDbEntity
  8
0
370
     0
390
0
100
AcDbVertex
100
AcDb2dVertex
 10
196.968597
 20
-14.144451
 30
0.0
  0
VERTEX
  5
AA
100
AcDbEntity
  8
0
370
     0
390
0
100
AcDbVertex
100
AcDb2dVertex
 10
195.828827
 20
-14.144451
 30
0.0
  0
VERTEX
  5
AB
100
AcDbEntity
  8
0
370
     0
390
0
100
AcDbVertex
100
AcDb2dVertex
 10
195.828827
 20
-14.522694
 30
0.0
  0
VERTEX
  5
AC
100
AcDbEntity
  8
0
370
     0
390
0
100
AcDbVertex
100
AcDb2dVertex
 10
196.524796
 20
-14.522694
 30
0.0
  0
VERTEX
  5
AD
100
AcDbEntity
  8
0
370
     0
390
0
100
AcDbVertex
100
AcDb2dVertex
 10
196.524796
 20
-16.388687
 30
0.0
  0
VERTEX
  5
AE
100
AcDbEntity
  8
0
370
     0
390
0
100
AcDbVertex
100
AcDb2dVertex
 10
195.617004
 20
-16.388687
 30
0.0
  0
VERTEX
  5
AF
100
AcDbEntity
  8
0
370
     0
390
0
100
AcDbVertex
100
AcDb2dVertex
 10
195.617004
 20
-16.761887
 30
0.0
  0
VERTEX
  5
B0
100
AcDbEntity
  8
0
370
     0
390
0
100
AcDbVertex
100
AcDb2dVertex
 10
197.886459
 20
-16.761887
 30
0.0
  0
VERTEX
  5
B1
100
AcDbEntity
  8
0
370
     0
390
0
100
AcDbVertex
100
AcDb2dVertex
 10
197.886459
 20
-16.388687
 30
0.0
  0
SEQEND
  5
B2
100
AcDbEntity
  8
0
370
     0
390
0
  0
POLYLINE
  5
B3
100
AcDbEntity
  8
0
370
    13
390
0
 62
     7
100
AcDb2dPolyline
 66
     1
 10
0.0
 20
0.0
 30
0.0
 70
     1
 71
     4
  0
VERTEX
  5
B4
100
AcDbEntity
  8
0
370
     0
390
0
100
AcDbVertex
100
AcDb2dVertex
 10
196.983734
 20
-13.140849
 30
0.0
  0
VERTEX
  5
B5
100
AcDbEntity
  8
0
370
     0
390
0
100
AcDbVertex
100
AcDb2dVertex
 10
196.514709
 20
-13.140849
 30
0.0
  0
VERTEX
  5
B6
100
AcDbEntity
  8
0
370
     0
390
0
100
AcDbVertex
100
AcDb2dVertex
 10
196.514709
 20
-13.645172
 30
0.0
  0
VERTEX
  5
B7
100
AcDbEntity
  8
0
370
     0
390
0
100
AcDbVertex
100
AcDb2dVertex
 10
196.983734
 20
-13.645172
 30
0.0
  0
SEQEND
  5
B8
100
AcDbEntity
  8
0
370
     0
390
0
  0
POLYLINE
  5
B9
100
AcDbEntity
  8
0
370
    13
390
0
 62
     7
100
AcDb2dPolyline
 66
     1
 10
0.0
 20
0.0
 30
0.0
 70
     1
 71
    27
  0
VERTEX
  5
BA
100
AcDbEntity
  8
0
370
     0
390
0
100
AcDbVertex
100
AcDb2dVertex
 10
199.036316
 20
-15.536383
 30
0.0
  0
VERTEX
  5
BB
100
AcDbEntity
  8
0
370
     0
390
0
100
AcDbVertex
100
AcDb2dVertex
 10
200.811539
 20
-15.536383
 30
0.0
  0
VERTEX
  5
BC
100
AcDbEntity
  8
0
370
     0
390
0
100
AcDbVertex
100
AcDb2dVertex
 10
200.816574
 20
-15.32961
 30
0.0
  0
VERTEX
  5
BD
100
AcDbEntity
  8
0
370
     0
390
0
100
AcDbVertex
100
AcDb2dVertex
 10
200.735886
 20
-14.749639
 30
0.0
  0
VERTEX
  5
BE
100
AcDbEntity
  8
0
370
     0
390
0
100
AcDbVertex
100
AcDb2dVertex
 10
200.513977
 20
-14.315921
 30
0.0
  0
VERTEX
  5
BF
100
AcDbEntity
  8
0
370
     0
390
0
100
AcDbVertex
100
AcDb2dVertex
 10
200.160965
 20
-14.053673
 30
0.0
  0
VERTEX
  5
C0
100
AcDbEntity
  8
0
370
     0
390
0
100
AcDbVertex
100
AcDb2dVertex
 10
199.69194
 20
-13.957851
 30
0.0
  0
VERTEX
  5
C1
100
AcDbEntity
  8
0
370
     0
390
0
100
AcDbVertex
100
AcDb2dVertex
 10
199.233002
 20
-14.058717
 30
0.0
  0
VERTEX
  5
C2
100
AcDbEntity
  8
0
370
     0
390
0
100
AcDbVertex
100
AcDb2dVertex
 10
198.879974
 20
-14.341137
 30
0.0
  0
VERTEX
  5
C3
100
AcDbEntity
  8
0
370
     0
390
0
100
AcDbVertex
100
AcDb2dVertex
 10
198.65303
 20
-14.800071
 30
0.0
  0
VERTEX
  5
C4
100
AcDbEntity
  8
0
370
     0
390
0
100
AcDbVertex
100
AcDb2dVertex
 10
198.572342
 20
-15.405258
 30
0.0
  0
VERTEX
  5
C5
100
AcDbEntity
  8
0
370
     0
390
0
100
AcDbVertex
100
AcDb2dVertex
 10
198.647995
 20
-16.025576
 30
0.0
  0
VERTEX
  5
C6
100
AcDbEntity
  8
0
370
     0
390
0
100
AcDbVertex
100
AcDb2dVertex
 10
198.874939
 20
-16.479465
 30
0.0
  0
VERTEX
  5
C7
100
AcDbEntity
  8
0
370
     0
390
0
100
AcDbVertex
100
AcDb2dVertex
 10
199.222916
 20
-16.761887
 30
0.0
  0
VERTEX
  5
C8
100
AcDbEntity
  8
0
370
     0
390
0
100
AcDbVertex
100
AcDb2dVertex
 10
199.676804
 20
-16.857708
 30
0.0
  0
VERTEX
  5
C9
100
AcDbEntity
  8
0
370
     0
390
0
100
AcDbVertex
100
AcDb2dVertex
 10
200.070175
 20
-16.792147
 30
0.0
  0
VERTEX
  5
CA
100
AcDbEntity
  8
0
370
     0
390
0
100
AcDbVertex
100
AcDb2dVertex
 10
200.392944
 20
-16.620676
 30
0.0
  0
VERTEX
  5
CB
100
AcDbEntity
  8
0
370
     0
390
0
100
AcDbVertex
100
AcDb2dVertex
 10
200.629974
 20
-16.348341
 30
0.0
  0
VERTEX
  5
CC
100
AcDbEntity
  8
0
370
     0
390
0
100
AcDbVertex
100
AcDb2dVertex
 10
200.766144
 20
-15.985229
 30
0.0
  0
VERTEX
  5
CD
100
AcDbEntity
  8
0
370
     0
390
0
100
AcDbVertex
100
AcDb2dVertex
 10
200.327393
 20
-15.985229
 30
0.0
  0
VERTEX
  5
CE
100
AcDbEntity
  8
0
370
     0
390
0
100
AcDbVertex
100
AcDb2dVertex
 10
200.236603
 20
-16.186958
 30
0.0
  0
VERTEX
  5
CF
100
AcDbEntity
  8
0
370
     0
390
0
100
AcDbVertex
100
AcDb2dVertex
 10
200.105484
 20
-16.338255
 30
0.0
  0
VERTEX
  5
D0
100
AcDbEntity
  8
0
370
     0
390
0
100
AcDbVertex
100
AcDb2dVertex
 10
199.732285
 20
-16.459293
 30
0.0
  0
VERTEX
  5
D1
100
AcDbEntity
  8
0
370
     0
390
0
100
AcDbVertex
100
AcDb2dVertex
 10
199.444824
 20
-16.403818
 30
0.0
  0
VERTEX
  5
D2
100
AcDbEntity
  8
0
370
     0
390
0
100
AcDbVertex
100
AcDb2dVertex
 10
199.227966
 20
-16.227304
 30
0.0
  0
VERTEX
  5
D3
100
AcDbEntity
  8
0
370
     0
390
0
100
AcDbVertex
100
AcDb2dVertex
 10
199.086746
 20
-15.93984
 30
0.0
  0
VERTEX
  5
D4
100
AcDbEntity
  8
0
370
     0
390
0
100
AcDbVertex
100
AcDb2dVertex
 10
199.036316
 20
-15.551512
 30
0.0
  0
SEQEND
  5
D5
100
AcDbEntity
  8
0
370
     0
390
0
  0
POLYLINE
  5
D6
100
AcDbEntity
  8
0
370
    13
390
0
 62
     7
100
AcDb2dPolyline
 66
     1
 10
0.0
 20
0.0
 30
0.0
 70
     1
 71
     9
  0
VERTEX
  5
D7
100
AcDbEntity
  8
0
370
     0
390
0
100
AcDbVertex
100
AcDb2dVertex
 10
199.036316
 20
-15.163183
 30
0.0
  0
VERTEX
  5
D8
100
AcDbEntity
  8
0
370
     0
390
0
100
AcDbVertex
100
AcDb2dVertex
 10
199.091797
 20
-14.815201
 30
0.0
  0
VERTEX
  5
D9
100
AcDbEntity
  8
0
370
     0
390
0
100
AcDbVertex
100
AcDb2dVertex
 10
199.227966
 20
-14.557996
 30
0.0
  0
VERTEX
  5
DA
100
AcDbEntity
  8
0
370
     0
390
0
100
AcDbVertex
100
AcDb2dVertex
 10
199.434738
 20
-14.401656
 30
0.0
  0
VERTEX
  5
DB
100
AcDbEntity
  8
0
370
     0
390
0
100
AcDbVertex
100
AcDb2dVertex
 10
199.707062
 20
-14.34618
 30
0.0
  0
VERTEX
  5
DC
100
AcDbEntity
  8
0
370
     0
390
0
100
AcDbVertex
100
AcDb2dVertex
 10
199.974365
 20
-14.401656
 30
0.0
  0
VERTEX
  5
DD
100
AcDbEntity
  8
0
370
     0
390
0
100
AcDbVertex
100
AcDb2dVertex
 10
200.181137
 20
-14.557996
 30
0.0
  0
VERTEX
  5
DE
100
AcDbEntity
  8
0
370
     0
390
0
100
AcDbVertex
100
AcDb2dVertex
 10
200.30722
 20
-14.815201
 30
0.0
  0
VERTEX
  5
DF
100
AcDbEntity
  8
0
370
     0
390
0
100
AcDbVertex
100
AcDb2dVertex
 10
200.3526
 20
-15.163183
 30
0.0
  0
SEQEND
  5
E0
100
AcDbEntity
  8
0
370
     0
390
0
  0
POLYLINE
  5
E1
100
AcDbEntity
  8
0
370
    13
390
0
 62
     7
100
AcDb2dPolyline
 66
     1
 10
0.0
 20
0.0
 30
0.0
 70
     1
 71
    13
  0
VERTEX
  5
E2
100
AcDbEntity
  8
0
370
     0
390
0
100
AcDbVertex
100
AcDb2dVertex
 10
202.324509
 20
-16.761887
 30
0.0
  0
VERTEX
  5
E3
100
AcDbEntity
  8
0
370
     0
390
0
100
AcDbVertex
100
AcDb2dVertex
 10
202.727966
 20
-14.462174
 30
0.0
  0
VERTEX
  5
E4
100
AcDbEntity
  8
0
370
     0
390
0
100
AcDbVertex
100
AcDb2dVertex
 10
203.131424
 20
-16.761887
 30
0.0
  0
VERTEX
  5
E5
100
AcDbEntity
  8
0
370
     0
390
0
100
AcDbVertex
100
AcDb2dVertex
 10
203.555054
 20
-16.761887
 30
0.0
  0
VERTEX
  5
E6
100
AcDbEntity
  8
0
370
     0
390
0
100
AcDbVertex
100
AcDb2dVertex
 10
204.220764
 20
-14.053673
 30
0.0
  0
VERTEX
  5
E7
100
AcDbEntity
  8
0
370
     0
390
0
100
AcDbVertex
100
AcDb2dVertex
 10
203.792084
 20
-14.053673
 30
0.0
  0
VERTEX
  5
E8
100
AcDbEntity
  8
0
370
     0
390
0
100
AcDbVertex
100
AcDb2dVertex
 10
203.343231
 20
-16.353386
 30
0.0
  0
VERTEX
  5
E9
100
AcDbEntity
  8
0
370
     0
390
0
100
AcDbVertex
100
AcDb2dVertex
 10
202.944824
 20
-14.053673
 30
0.0
  0
VERTEX
  5
EA
100
AcDbEntity
  8
0
370
     0
390
0
100
AcDbVertex
100
AcDb2dVertex
 10
202.506058
 20
-14.053673
 30
0.0
  0
VERTEX
  5
EB
100
AcDbEntity
  8
0
370
     0
390
0
100
AcDbVertex
100
AcDb2dVertex
 10
202.107635
 20
-16.353386
 30
0.0
  0
VERTEX
  5
EC
100
AcDbEntity
  8
0
370
     0
390
0
100
AcDbVertex
100
AcDb2dVertex
 10
201.658798
 20
-14.053673
 30
0.0
  0
VERTEX
  5
ED
100
AcDbEntity
  8
0
370
     0
390
0
100
AcDbVertex
100
AcDb2dVertex
 10
201.235168
 20
-14.053673
 30
0.0
  0
VERTEX
  5
EE
100
AcDbEntity
  8
0
370
     0
390
0
100
AcDbVertex
100
AcDb2dVertex
 10
201.900879
 20
-16.761887
 30
0.0
  0
SEQEND
  5
EF
100
AcDbEntity
  8
0
370
     0
390
0
  0
POLYLINE
  5
F0
100
AcDbEntity
  8
0
370
    13
390
0
 62
     7
100
AcDb2dPolyline
 66
     1
 10
0.0
 20
0.0
 30
0.0
 70
     1
 71
    51
  0
VERTEX
  5
F1
100
AcDbEntity
  8
0
370
     0
390
0
100
AcDbVertex
100
AcDb2dVertex
 10
174.606918
 20
-21.653816
 30
0.0
  0
VERTEX
  5
F2
100
AcDbEntity
  8
0
370
     0
390
0
100
AcDbVertex
100
AcDb2dVertex
 10
174.147995
 20
-21.653816
 30
0.0
  0
VERTEX
  5
F3
100
AcDbEntity
  8
0
370
     0
390
0
100
AcDbVertex
100
AcDb2dVertex
 10
174.248856
 20
-22.188398
 30
0.0
  0
VERTEX
  5
F4
100
AcDbEntity
  8
0
370
     0
390
0
100
AcDbVertex
100
AcDb2dVertex
 10
174.501022
 20
-22.58177
 30
0.0
  0
VERTEX
  5
F5
100
AcDbEntity
  8
0
370
     0
390
0
100
AcDbVertex
100
AcDb2dVertex
 10
174.889343
 20
-22.818802
 30
0.0
  0
VERTEX
  5
F6
100
AcDbEntity
  8
0
370
     0
390
0
100
AcDbVertex
100
AcDb2dVertex
 10
175.413834
 20
-22.904537
 30
0.0
  0
VERTEX
  5
F7
100
AcDbEntity
  8
0
370
     0
390
0
100
AcDbVertex
100
AcDb2dVertex
 10
175.933289
 20
-22.823845
 30
0.0
  0
VERTEX
  5
F8
100
AcDbEntity
  8
0
370
     0
390
0
100
AcDbVertex
100
AcDb2dVertex
 10
176.321625
 20
-22.601944
 30
0.0
  0
VERTEX
  5
F9
100
AcDbEntity
  8
0
370
     0
390
0
100
AcDbVertex
100
AcDb2dVertex
 10
176.568741
 20
-22.253962
 30
0.0
  0
VERTEX
  5
FA
100
AcDbEntity
  8
0
370
     0
390
0
100
AcDbVertex
100
AcDb2dVertex
 10
176.659515
 20
-21.795027
 30
0.0
  0
VERTEX
  5
FB
100
AcDbEntity
  8
0
370
     0
390
0
100
AcDbVertex
100
AcDb2dVertex
 10
176.583862
 20
-21.381483
 30
0.0
  0
VERTEX
  5
FC
100
AcDbEntity
  8
0
370
     0
390
0
100
AcDbVertex
100
AcDb2dVertex
 10
176.372055
 20
-21.114191
 30
0.0
  0
VERTEX
  5
FD
100
AcDbEntity
  8
0
370
     0
390
0
100
AcDbVertex
100
AcDb2dVertex
 10
176.029114
 20
-20.937679
 30
0.0
  0
VERTEX
  5
FE
100
AcDbEntity
  8
0
370
     0
390
0
100
AcDbVertex
100
AcDb2dVertex
 10
175.570175
 20
-20.806555
 30
0.0
  0
VERTEX
  5
FF
100
AcDbEntity
  8
0
370
     0
390
0
100
AcDbVertex
100
AcDb2dVertex
 10
175.176804
 20
-20.710733
 30
0.0
  0
VERTEX
  5
100
100
AcDbEntity
  8
0
370
     0
390
0
100
AcDbVertex
100
AcDb2dVertex
 10
174.919601
 20
-20.599781
 30
0.0
  0
VERTEX
  5
101
100
AcDbEntity
  8
0
370
     0
390
0
100
AcDbVertex
100
AcDb2dVertex
 10
174.773346
 20
-20.438398
 30
0.0
  0
VERTEX
  5
102
100
AcDbEntity
  8
0
370
     0
390
0
100
AcDbVertex
100
AcDb2dVertex
 10
174.727966
 20
-20.186237
 30
0.0
  0
VERTEX
  5
103
100
AcDbEntity
  8
0
370
     0
390
0
100
AcDbVertex
100
AcDb2dVertex
 10
174.773346
 20
-19.959291
 30
0.0
  0
VERTEX
  5
104
100
AcDbEntity
  8
0
370
     0
390
0
100
AcDbVertex
100
AcDb2dVertex
 10
174.90448
 20
-19.787823
 30
0.0
  0
VERTEX
  5
105
100
AcDbEntity
  8
0
370
     0
390
0
100
AcDbVertex
100
AcDb2dVertex
 10
175.106201
 20
-19.671829
 30
0.0
  0
VERTEX
  5
106
100
AcDbEntity
  8
0
370
     0
390
0
100
AcDbVertex
100
AcDb2dVertex
 10
175.383575
 20
-19.631483
 30
0.0
  0
VERTEX
  5
107
100
AcDbEntity
  8
0
370
     0
390
0
100
AcDbVertex
100
AcDb2dVertex
 10
175.666
 20
-19.681915
 30
0.0
  0
VERTEX
  5
108
100
AcDbEntity
  8
0
370
     0
390
0
100
AcDbVertex
100
AcDb2dVertex
 10
175.887909
 20
-19.818081
 30
0.0
  0
VERTEX
  5
109
100
AcDbEntity
  8
0
370
     0
390
0
100
AcDbVertex
100
AcDb2dVertex
 10
176.034164
 20
-20.045027
 30
0.0
  0
VERTEX
  5
10A
100
AcDbEntity
  8
0
370
     0
390
0
100
AcDbVertex
100
AcDb2dVertex
 10
176.104767
 20
-20.352665
 30
0.0
  0
VERTEX
  5
10B
100
AcDbEntity
  8
0
370
     0
390
0
100
AcDbVertex
100
AcDb2dVertex
 10
176.56369
 20
-20.352665
 30
0.0
  0
VERTEX
  5
10C
100
AcDbEntity
  8
0
370
     0
390
0
100
AcDbVertex
100
AcDb2dVertex
 10
176.56369
 20
-20.342577
 30
0.0
  0
VERTEX
  5
10D
100
AcDbEntity
  8
0
370
     0
390
0
100
AcDbVertex
100
AcDb2dVertex
 10
176.483002
 20
-19.868515
 30
0.0
  0
VERTEX
  5
10E
100
AcDbEntity
  8
0
370
     0
390
0
100
AcDbVertex
100
AcDb2dVertex
 10
176.245972
 20
-19.515488
 30
0.0
  0
VERTEX
  5
10F
100
AcDbEntity
  8
0
370
     0
390
0
100
AcDbVertex
100
AcDb2dVertex
 10
175.872772
 20
-19.293587
 30
0.0
  0
VERTEX
  5
110
100
AcDbEntity
  8
0
370
     0
390
0
100
AcDbVertex
100
AcDb2dVertex
 10
175.368454
 20
-19.217937
 30
0.0
  0
VERTEX
  5
111
100
AcDbEntity
  8
0
370
     0
390
0
100
AcDbVertex
100
AcDb2dVertex
 10
174.914566
 20
-19.293587
 30
0.0
  0
VERTEX
  5
112
100
AcDbEntity
  8
0
370
     0
390
0
100
AcDbVertex
100
AcDb2dVertex
 10
174.561539
 20
-19.505402
 30
0.0
  0
VERTEX
  5
113
100
AcDbEntity
  8
0
370
     0
390
0
100
AcDbVertex
100
AcDb2dVertex
 10
174.334595
 20
-19.833212
 30
0.0
  0
VERTEX
  5
114
100
AcDbEntity
  8
0
370
     0
390
0
100
AcDbVertex
100
AcDb2dVertex
 10
174.253891
 20
-20.256844
 30
0.0
  0
VERTEX
  5
115
100
AcDbEntity
  8
0
370
     0
390
0
100
AcDbVertex
100
AcDb2dVertex
 10
174.319458
 20
-20.635084
 30
0.0
  0
VERTEX
  5
116
100
AcDbEntity
  8
0
370
     0
390
0
100
AcDbVertex
100
AcDb2dVertex
 10
174.511108
 20
-20.89229
 30
0.0
  0
VERTEX
  5
117
100
AcDbEntity
  8
0
370
     0
390
0
100
AcDbVertex
100
AcDb2dVertex
 10
174.81369
 20
-21.063759
 30
0.0
  0
VERTEX
  5
118
100
AcDbEntity
  8
0
370
     0
390
0
100
AcDbVertex
100
AcDb2dVertex
 10
175.227234
 20
-21.194883
 30
0.0
  0
VERTEX
  5
119
100
AcDbEntity
  8
0
370
     0
390
0
100
AcDbVertex
100
AcDb2dVertex
 10
175.635742
 20
-21.310877
 30
0.0
  0
VERTEX
  5
11A
100
AcDbEntity
  8
0
370
     0
390
0
100
AcDbVertex
100
AcDb2dVertex
 10
175.943375
 20
-21.421827
 30
0.0
  0
VERTEX
  5
11B
100
AcDbEntity
  8
0
370
     0
390
0
100
AcDbVertex
100
AcDb2dVertex
 10
176.129974
 20
-21.583212
 30
0.0
  0
VERTEX
  5
11C
100
AcDbEntity
  8
0
370
     0
390
0
100
AcDbVertex
100
AcDb2dVertex
 10
176.195541
 20
-21.845459
 30
0.0
  0
VERTEX
  5
11D
100
AcDbEntity
  8
0
370
     0
390
0
100
AcDbVertex
100
AcDb2dVertex
 10
176.135025
 20
-22.112751
 30
0.0
  0
VERTEX
  5
11E
100
AcDbEntity
  8
0
370
     0
390
0
100
AcDbVertex
100
AcDb2dVertex
 10
175.978683
 20
-22.31448
 30
0.0
  0
VERTEX
  5
11F
100
AcDbEntity
  8
0
370
     0
390
0
100
AcDbVertex
100
AcDb2dVertex
 10
175.741653
 20
-22.440559
 30
0.0
  0
VERTEX
  5
120
100
AcDbEntity
  8
0
370
     0
390
0
100
AcDbVertex
100
AcDb2dVertex
 10
175.434006
 20
-22.480906
 30
0.0
  0
VERTEX
  5
121
100
AcDbEntity
  8
0
370
     0
390
0
100
AcDbVertex
100
AcDb2dVertex
 10
175.09108
 20
-22.42543
 30
0.0
  0
VERTEX
  5
122
100
AcDbEntity
  8
0
370
     0
390
0
100
AcDbVertex
100
AcDb2dVertex
 10
174.828827
 20
-22.264048
 30
0.0
  0
VERTEX
  5
123
100
AcDbEntity
  8
0
370
     0
390
0
100
AcDbVertex
100
AcDb2dVertex
 10
174.662399
 20
-22.001799
 30
0.0
  0
SEQEND
  5
124
100
AcDbEntity
  8
0
370
     0
390
0
  0
POLYLINE
  5
125
100
AcDbEntity
  8
0
370
    13
390
0
 62
     7
100
AcDb2dPolyline
 66
     1
 10
0.0
 20
0.0
 30
0.0
 70
     1
 71
    34
  0
VERTEX
  5
126
100
AcDbEntity
  8
0
370
     0
390
0
100
AcDbVertex
100
AcDb2dVertex
 10
179.120605
 20
-20.998198
 30
0.0
  0
VERTEX
  5
127
100
AcDbEntity
  8
0
370
     0
390
0
100
AcDbVertex
100
AcDb2dVertex
 10
179.559372
 20
-20.998198
 30
0.0
  0
VERTEX
  5
128
100
AcDbEntity
  8
0
370
     0
390
0
100
AcDbVertex
100
AcDb2dVertex
 10
179.468597
 20
-20.594738
 30
0.0
  0
VERTEX
  5
129
100
AcDbEntity
  8
0
370
     0
390
0
100
AcDbVertex
100
AcDb2dVertex
 10
179.25174
 20
-20.277016
 30
0.0
  0
VERTEX
  5
12A
100
AcDbEntity
  8
0
370
     0
390
0
100
AcDbVertex
100
AcDb2dVertex
 10
178.913834
 20
-20.08033
 30
0.0
  0
VERTEX
  5
12B
100
AcDbEntity
  8
0
370
     0
390
0
100
AcDbVertex
100
AcDb2dVertex
 10
178.475082
 20
-20.004681
 30
0.0
  0
VERTEX
  5
12C
100
AcDbEntity
  8
0
370
     0
390
0
100
AcDbVertex
100
AcDb2dVertex
 10
177.990936
 20
-20.105545
 30
0.0
  0
VERTEX
  5
12D
100
AcDbEntity
  8
0
370
     0
390
0
100
AcDbVertex
100
AcDb2dVertex
 10
177.622772
 20
-20.387966
 30
0.0
  0
VERTEX
  5
12E
100
AcDbEntity
  8
0
370
     0
390
0
100
AcDbVertex
100
AcDb2dVertex
 10
177.390793
 20
-20.846901
 30
0.0
  0
VERTEX
  5
12F
100
AcDbEntity
  8
0
370
     0
390
0
100
AcDbVertex
100
AcDb2dVertex
 10
177.310089
 20
-21.462173
 30
0.0
  0
VERTEX
  5
130
100
AcDbEntity
  8
0
370
     0
390
0
100
AcDbVertex
100
AcDb2dVertex
 10
177.385742
 20
-22.072405
 30
0.0
  0
VERTEX
  5
131
100
AcDbEntity
  8
0
370
     0
390
0
100
AcDbVertex
100
AcDb2dVertex
 10
177.612686
 20
-22.526295
 30
0.0
  0
VERTEX
  5
132
100
AcDbEntity
  8
0
370
     0
390
0
100
AcDbVertex
100
AcDb2dVertex
 10
177.970764
 20
-22.808716
 30
0.0
  0
VERTEX
  5
133
100
AcDbEntity
  8
0
370
     0
390
0
100
AcDbVertex
100
AcDb2dVertex
 10
178.459946
 20
-22.904537
 30
0.0
  0
VERTEX
  5
134
100
AcDbEntity
  8
0
370
     0
390
0
100
AcDbVertex
100
AcDb2dVertex
 10
178.893661
 20
-22.828888
 30
0.0
  0
VERTEX
  5
135
100
AcDbEntity
  8
0
370
     0
390
0
100
AcDbVertex
100
AcDb2dVertex
 10
179.231567
 20
-22.617073
 30
0.0
  0
VERTEX
  5
136
100
AcDbEntity
  8
0
370
     0
390
0
100
AcDbVertex
100
AcDb2dVertex
 10
179.463547
 20
-22.28422
 30
0.0
  0
VERTEX
  5
137
100
AcDbEntity
  8
0
370
     0
390
0
100
AcDbVertex
100
AcDb2dVertex
 10
179.564423
 20
-21.840416
 30
0.0
  0
VERTEX
  5
138
100
AcDbEntity
  8
0
370
     0
390
0
100
AcDbVertex
100
AcDb2dVertex
 10
179.140778
 20
-21.840416
 30
0.0
  0
VERTEX
  5
139
100
AcDbEntity
  8
0
370
     0
390
0
100
AcDbVertex
100
AcDb2dVertex
 10
179.06514
 20
-22.122837
 30
0.0
  0
VERTEX
  5
13A
100
AcDbEntity
  8
0
370
     0
390
0
100
AcDbVertex
100
AcDb2dVertex
 10
178.92392
 20
-22.334652
 30
0.0
  0
VERTEX
  5
13B
100
AcDbEntity
  8
0
370
     0
390
0
100
AcDbVertex
100
AcDb2dVertex
 10
178.722198
 20
-22.465776
 30
0.0
  0
VERTEX
  5
13C
100
AcDbEntity
  8
0
370
     0
390
0
100
AcDbVertex
100
AcDb2dVertex
 10
178.475082
 20
-22.506123
 30
0.0
  0
VERTEX
  5
13D
100
AcDbEntity
  8
0
370
     0
390
0
100
AcDbVertex
100
AcDb2dVertex
 10
178.16745
 20
-22.440559
 30
0.0
  0
VERTEX
  5
13E
100
AcDbEntity
  8
0
370
     0
390
0
100
AcDbVertex
100
AcDb2dVertex
 10
177.945541
 20
-22.238831
 30
0.0
  0
VERTEX
  5
13F
100
AcDbEntity
  8
0
370
     0
390
0
100
AcDbVertex
100
AcDb2dVertex
 10
177.809372
 20
-21.911022
 30
0.0
  0
VERTEX
  5
140
100
AcDbEntity
  8
0
370
     0
390
0
100
AcDbVertex
100
AcDb2dVertex
 10
177.763977
 20
-21.447044
 30
0.0
  0
VERTEX
  5
141
100
AcDbEntity
  8
0
370
     0
390
0
100
AcDbVertex
100
AcDb2dVertex
 10
177.809372
 20
-20.993155
 30
0.0
  0
VERTEX
  5
142
100
AcDbEntity
  8
0
370
     0
390
0
100
AcDbVertex
100
AcDb2dVertex
 10
177.950577
 20
-20.665344
 30
0.0
  0
VERTEX
  5
143
100
AcDbEntity
  8
0
370
     0
390
0
100
AcDbVertex
100
AcDb2dVertex
 10
178.177536
 20
-20.463615
 30
0.0
  0
VERTEX
  5
144
100
AcDbEntity
  8
0
370
     0
390
0
100
AcDbVertex
100
AcDb2dVertex
 10
178.475082
 20
-20.393009
 30
0.0
  0
VERTEX
  5
145
100
AcDbEntity
  8
0
370
     0
390
0
100
AcDbVertex
100
AcDb2dVertex
 10
178.737335
 20
-20.438398
 30
0.0
  0
VERTEX
  5
146
100
AcDbEntity
  8
0
370
     0
390
0
100
AcDbVertex
100
AcDb2dVertex
 10
178.934021
 20
-20.554394
 30
0.0
  0
VERTEX
  5
147
100
AcDbEntity
  8
0
370
     0
390
0
100
AcDbVertex
100
AcDb2dVertex
 10
179.06514
 20
-20.746037
 30
0.0
  0
SEQEND
  5
148
100
AcDbEntity
  8
0
370
     0
390
0
  0
POLYLINE
  5
149
100
AcDbEntity
  8
0
370
    13
390
0
 62
     7
100
AcDb2dPolyline
 66
     1
 10
0.0
 20
0.0
 30
0.0
 70
     1
 71
    42
  0
VERTEX
  5
14A
100
AcDbEntity
  8
0
370
     0
390
0
100
AcDbVertex
100
AcDb2dVertex
 10
182.040649
 20
-22.45569
 30
0.0
  0
VERTEX
  5
14B
100
AcDbEntity
  8
0
370
     0
390
0
100
AcDbVertex
100
AcDb2dVertex
 10
182.040649
 20
-22.470819
 30
0.0
  0
VERTEX
  5
14C
100
AcDbEntity
  8
0
370
     0
390
0
100
AcDbVertex
100
AcDb2dVertex
 10
182.065857
 20
-22.64229
 30
0.0
  0
VERTEX
  5
14D
100
AcDbEntity
  8
0
370
     0
390
0
100
AcDbVertex
100
AcDb2dVertex
 10
182.14151
 20
-22.763327
 30
0.0
  0
VERTEX
  5
14E
100
AcDbEntity
  8
0
370
     0
390
0
100
AcDbVertex
100
AcDb2dVertex
 10
182.459229
 20
-22.859148
 30
0.0
  0
VERTEX
  5
14F
100
AcDbEntity
  8
0
370
     0
390
0
100
AcDbVertex
100
AcDb2dVertex
 10
182.706345
 20
-22.818802
 30
0.0
  0
VERTEX
  5
150
100
AcDbEntity
  8
0
370
     0
390
0
100
AcDbVertex
100
AcDb2dVertex
 10
182.706345
 20
-22.475863
 30
0.0
  0
VERTEX
  5
151
100
AcDbEntity
  8
0
370
     0
390
0
100
AcDbVertex
100
AcDb2dVertex
 10
182.600433
 20
-22.490992
 30
0.0
  0
VERTEX
  5
152
100
AcDbEntity
  8
0
370
     0
390
0
100
AcDbVertex
100
AcDb2dVertex
 10
182.459229
 20
-22.42543
 30
0.0
  0
VERTEX
  5
153
100
AcDbEntity
  8
0
370
     0
390
0
100
AcDbVertex
100
AcDb2dVertex
 10
182.434021
 20
-22.223701
 30
0.0
  0
VERTEX
  5
154
100
AcDbEntity
  8
0
370
     0
390
0
100
AcDbVertex
100
AcDb2dVertex
 10
182.434021
 20
-20.821684
 30
0.0
  0
VERTEX
  5
155
100
AcDbEntity
  8
0
370
     0
390
0
100
AcDbVertex
100
AcDb2dVertex
 10
182.373489
 20
-20.463615
 30
0.0
  0
VERTEX
  5
156
100
AcDbEntity
  8
0
370
     0
390
0
100
AcDbVertex
100
AcDb2dVertex
 10
182.196976
 20
-20.211454
 30
0.0
  0
VERTEX
  5
157
100
AcDbEntity
  8
0
370
     0
390
0
100
AcDbVertex
100
AcDb2dVertex
 10
181.889343
 20
-20.060158
 30
0.0
  0
VERTEX
  5
158
100
AcDbEntity
  8
0
370
     0
390
0
100
AcDbVertex
100
AcDb2dVertex
 10
181.455627
 20
-20.004681
 30
0.0
  0
VERTEX
  5
159
100
AcDbEntity
  8
0
370
     0
390
0
100
AcDbVertex
100
AcDb2dVertex
 10
181.031998
 20
-20.065201
 30
0.0
  0
VERTEX
  5
15A
100
AcDbEntity
  8
0
370
     0
390
0
100
AcDbVertex
100
AcDb2dVertex
 10
180.719315
 20
-20.23667
 30
0.0
  0
VERTEX
  5
15B
100
AcDbEntity
  8
0
370
     0
390
0
100
AcDbVertex
100
AcDb2dVertex
 10
180.522629
 20
-20.503962
 30
0.0
  0
VERTEX
  5
15C
100
AcDbEntity
  8
0
370
     0
390
0
100
AcDbVertex
100
AcDb2dVertex
 10
180.457062
 20
-20.856987
 30
0.0
  0
VERTEX
  5
15D
100
AcDbEntity
  8
0
370
     0
390
0
100
AcDbVertex
100
AcDb2dVertex
 10
180.457062
 20
-20.887245
 30
0.0
  0
VERTEX
  5
15E
100
AcDbEntity
  8
0
370
     0
390
0
100
AcDbVertex
100
AcDb2dVertex
 10
180.855484
 20
-20.887245
 30
0.0
  0
VERTEX
  5
15F
100
AcDbEntity
  8
0
370
     0
390
0
100
AcDbVertex
100
AcDb2dVertex
 10
180.890793
 20
-20.67543
 30
0.0
  0
VERTEX
  5
160
100
AcDbEntity
  8
0
370
     0
390
0
100
AcDbVertex
100
AcDb2dVertex
 10
181.00174
 20
-20.524134
 30
0.0
  0
VERTEX
  5
161
100
AcDbEntity
  8
0
370
     0
390
0
100
AcDbVertex
100
AcDb2dVertex
 10
181.183289
 20
-20.433355
 30
0.0
  0
VERTEX
  5
162
100
AcDbEntity
  8
0
370
     0
390
0
100
AcDbVertex
100
AcDb2dVertex
 10
181.440491
 20
-20.398052
 30
0.0
  0
VERTEX
  5
163
100
AcDbEntity
  8
0
370
     0
390
0
100
AcDbVertex
100
AcDb2dVertex
 10
181.687622
 20
-20.423269
 30
0.0
  0
VERTEX
  5
164
100
AcDbEntity
  8
0
370
     0
390
0
100
AcDbVertex
100
AcDb2dVertex
 10
181.864136
 20
-20.498917
 30
0.0
  0
VERTEX
  5
165
100
AcDbEntity
  8
0
370
     0
390
0
100
AcDbVertex
100
AcDb2dVertex
 10
181.970032
 20
-20.630041
 30
0.0
  0
VERTEX
  5
166
100
AcDbEntity
  8
0
370
     0
390
0
100
AcDbVertex
100
AcDb2dVertex
 10
182.005341
 20
-20.811598
 30
0.0
  0
VERTEX
  5
167
100
AcDbEntity
  8
0
370
     0
390
0
100
AcDbVertex
100
AcDb2dVertex
 10
181.985168
 20
-21.023413
 30
0.0
  0
VERTEX
  5
168
100
AcDbEntity
  8
0
370
     0
390
0
100
AcDbVertex
100
AcDb2dVertex
 10
181.90448
 20
-21.12932
 30
0.0
  0
VERTEX
  5
169
100
AcDbEntity
  8
0
370
     0
390
0
100
AcDbVertex
100
AcDb2dVertex
 10
181.702744
 20
-21.179752
 30
0.0
  0
VERTEX
  5
16A
100
AcDbEntity
  8
0
370
     0
390
0
100
AcDbVertex
100
AcDb2dVertex
 10
181.324509
 20
-21.220098
 30
0.0
  0
VERTEX
  5
16B
100
AcDbEntity
  8
0
370
     0
390
0
100
AcDbVertex
100
AcDb2dVertex
 10
180.890793
 20
-21.310877
 30
0.0
  0
VERTEX
  5
16C
100
AcDbEntity
  8
0
370
     0
390
0
100
AcDbVertex
100
AcDb2dVertex
 10
180.583145
 20
-21.47226
 30
0.0
  0
VERTEX
  5
16D
100
AcDbEntity
  8
0
370
     0
390
0
100
AcDbVertex
100
AcDb2dVertex
 10
180.401596
 20
-21.724422
 30
0.0
  0
VERTEX
  5
16E
100
AcDbEntity
  8
0
370
     0
390
0
100
AcDbVertex
100
AcDb2dVertex
 10
180.346115
 20
-22.09762
 30
0.0
  0
VERTEX
  5
16F
100
AcDbEntity
  8
0
370
     0
390
0
100
AcDbVertex
100
AcDb2dVertex
 10
180.396545
 20
-22.430473
 30
0.0
  0
VERTEX
  5
170
100
AcDbEntity
  8
0
370
     0
390
0
100
AcDbVertex
100
AcDb2dVertex
 10
180.552887
 20
-22.677591
 30
0.0
  0
VERTEX
  5
171
100
AcDbEntity
  8
0
370
     0
390
0
100
AcDbVertex
100
AcDb2dVertex
 10
180.805054
 20
-22.833933
 30
0.0
  0
VERTEX
  5
172
100
AcDbEntity
  8
0
370
     0
390
0
100
AcDbVertex
100
AcDb2dVertex
 10
181.15303
 20
-22.889408
 30
0.0
  0
VERTEX
  5
173
100
AcDbEntity
  8
0
370
     0
390
0
100
AcDbVertex
100
AcDb2dVertex
 10
181.622055
 20
-22.783499
 30
0.0
  0
SEQEND
  5
174
100
AcDbEntity
  8
0
370
     0
390
0
  0
POLYLINE
  5
175
100
AcDbEntity
  8
0
370
    13
390
0
 62
     7
100
AcDb2dPolyline
 66
     1
 10
0.0
 20
0.0
 30
0.0
 70
     1
 71
    14
  0
VERTEX
  5
176
100
AcDbEntity
  8
0
370
     0
390
0
100
AcDbVertex
100
AcDb2dVertex
 10
181.990204
 20
-21.860588
 30
0.0
  0
VERTEX
  5
177
100
AcDbEntity
  8
0
370
     0
390
0
100
AcDbVertex
100
AcDb2dVertex
 10
181.929688
 20
-22.122837
 30
0.0
  0
VERTEX
  5
178
100
AcDbEntity
  8
0
370
     0
390
0
100
AcDbVertex
100
AcDb2dVertex
 10
181.768311
 20
-22.324566
 30
0.0
  0
VERTEX
  5
179
100
AcDbEntity
  8
0
370
     0
390
0
100
AcDbVertex
100
AcDb2dVertex
 10
181.52623
 20
-22.45569
 30
0.0
  0
VERTEX
  5
17A
100
AcDbEntity
  8
0
370
     0
390
0
100
AcDbVertex
100
AcDb2dVertex
 10
181.228683
 20
-22.50108
 30
0.0
  0
VERTEX
  5
17B
100
AcDbEntity
  8
0
370
     0
390
0
100
AcDbVertex
100
AcDb2dVertex
 10
181.037033
 20
-22.475863
 30
0.0
  0
VERTEX
  5
17C
100
AcDbEntity
  8
0
370
     0
390
0
100
AcDbVertex
100
AcDb2dVertex
 10
180.900879
 20
-22.39517
 30
0.0
  0
VERTEX
  5
17D
100
AcDbEntity
  8
0
370
     0
390
0
100
AcDbVertex
100
AcDb2dVertex
 10
180.81514
 20
-22.253962
 30
0.0
  0
VERTEX
  5
17E
100
AcDbEntity
  8
0
370
     0
390
0
100
AcDbVertex
100
AcDb2dVertex
 10
180.789917
 20
-22.057276
 30
0.0
  0
VERTEX
  5
17F
100
AcDbEntity
  8
0
370
     0
390
0
100
AcDbVertex
100
AcDb2dVertex
 10
180.810089
 20
-21.880762
 30
0.0
  0
VERTEX
  5
180
100
AcDbEntity
  8
0
370
     0
390
0
100
AcDbVertex
100
AcDb2dVertex
 10
180.890793
 20
-21.754681
 30
0.0
  0
VERTEX
  5
181
100
AcDbEntity
  8
0
370
     0
390
0
100
AcDbVertex
100
AcDb2dVertex
 10
181.213547
 20
-21.61347
 30
0.0
  0
VERTEX
  5
182
100
AcDbEntity
  8
0
370
     0
390
0
100
AcDbVertex
100
AcDb2dVertex
 10
181.622055
 20
-21.552952
 30
0.0
  0
VERTEX
  5
183
100
AcDbEntity
  8
0
370
     0
390
0
100
AcDbVertex
100
AcDb2dVertex
 10
181.990204
 20
-21.431915
 30
0.0
  0
SEQEND
  5
184
100
AcDbEntity
  8
0
370
     0
390
0
  0
POLYLINE
  5
185
100
AcDbEntity
  8
0
370
    13
390
0
 62
     7
100
AcDb2dPolyline
 66
     1
 10
0.0
 20
0.0
 30
0.0
 70
     1
 71
    10
  0
VERTEX
  5
186
100
AcDbEntity
  8
0
370
     0
390
0
100
AcDbVertex
100
AcDb2dVertex
 10
184.350433
 20
-19.560877
 30
0.0
  0
VERTEX
  5
187
100
AcDbEntity
  8
0
370
     0
390
0
100
AcDbVertex
100
AcDb2dVertex
 10
184.350433
 20
-22.435516
 30
0.0
  0
VERTEX
  5
188
100
AcDbEntity
  8
0
370
     0
390
0
100
AcDbVertex
100
AcDb2dVertex
 10
183.437622
 20
-22.435516
 30
0.0
  0
VERTEX
  5
189
100
AcDbEntity
  8
0
370
     0
390
0
100
AcDbVertex
100
AcDb2dVertex
 10
183.437622
 20
-22.808716
 30
0.0
  0
VERTEX
  5
18A
100
AcDbEntity
  8
0
370
     0
390
0
100
AcDbVertex
100
AcDb2dVertex
 10
185.702026
 20
-22.808716
 30
0.0
  0
VERTEX
  5
18B
100
AcDbEntity
  8
0
370
     0
390
0
100
AcDbVertex
100
AcDb2dVertex
 10
185.702026
 20
-22.435516
 30
0.0
  0
VERTEX
  5
18C
100
AcDbEntity
  8
0
370
     0
390
0
100
AcDbVertex
100
AcDb2dVertex
 10
184.79425
 20
-22.435516
 30
0.0
  0
VERTEX
  5
18D
100
AcDbEntity
  8
0
370
     0
390
0
100
AcDbVertex
100
AcDb2dVertex
 10
184.79425
 20
-19.187679
 30
0.0
  0
VERTEX
  5
18E
100
AcDbEntity
  8
0
370
     0
390
0
100
AcDbVertex
100
AcDb2dVertex
 10
183.65448
 20
-19.187679
 30
0.0
  0
VERTEX
  5
18F
100
AcDbEntity
  8
0
370
     0
390
0
100
AcDbVertex
100
AcDb2dVertex
 10
183.65448
 20
-19.560877
 30
0.0
  0
SEQEND
  5
190
100
AcDbEntity
  8
0
370
     0
390
0
  0
POLYLINE
  5
191
100
AcDbEntity
  8
0
370
    13
390
0
 62
     7
100
AcDb2dPolyline
 66
     1
 10
0.0
 20
0.0
 30
0.0
 70
     1
 71
    27
  0
VERTEX
  5
192
100
AcDbEntity
  8
0
370
     0
390
0
100
AcDbVertex
100
AcDb2dVertex
 10
186.892227
 20
-21.583212
 30
0.0
  0
VERTEX
  5
193
100
AcDbEntity
  8
0
370
     0
390
0
100
AcDbVertex
100
AcDb2dVertex
 10
188.66745
 20
-21.583212
 30
0.0
  0
VERTEX
  5
194
100
AcDbEntity
  8
0
370
     0
390
0
100
AcDbVertex
100
AcDb2dVertex
 10
188.672485
 20
-21.37644
 30
0.0
  0
VERTEX
  5
195
100
AcDbEntity
  8
0
370
     0
390
0
100
AcDbVertex
100
AcDb2dVertex
 10
188.591797
 20
-20.796469
 30
0.0
  0
VERTEX
  5
196
100
AcDbEntity
  8
0
370
     0
390
0
100
AcDbVertex
100
AcDb2dVertex
 10
188.369888
 20
-20.362751
 30
0.0
  0
VERTEX
  5
197
100
AcDbEntity
  8
0
370
     0
390
0
100
AcDbVertex
100
AcDb2dVertex
 10
188.016861
 20
-20.100502
 30
0.0
  0
VERTEX
  5
198
100
AcDbEntity
  8
0
370
     0
390
0
100
AcDbVertex
100
AcDb2dVertex
 10
187.547852
 20
-20.004681
 30
0.0
  0
VERTEX
  5
199
100
AcDbEntity
  8
0
370
     0
390
0
100
AcDbVertex
100
AcDb2dVertex
 10
187.088913
 20
-20.105545
 30
0.0
  0
VERTEX
  5
19A
100
AcDbEntity
  8
0
370
     0
390
0
100
AcDbVertex
100
AcDb2dVertex
 10
186.735886
 20
-20.387966
 30
0.0
  0
VERTEX
  5
19B
100
AcDbEntity
  8
0
370
     0
390
0
100
AcDbVertex
100
AcDb2dVertex
 10
186.508942
 20
-20.846901
 30
0.0
  0
VERTEX
  5
19C
100
AcDbEntity
  8
0
370
     0
390
0
100
AcDbVertex
100
AcDb2dVertex
 10
186.428253
 20
-21.452087
 30
0.0
  0
VERTEX
  5
19D
100
AcDbEntity
  8
0
370
     0
390
0
100
AcDbVertex
100
AcDb2dVertex
 10
186.503906
 20
-22.072405
 30
0.0
  0
VERTEX
  5
19E
100
AcDbEntity
  8
0
370
     0
390
0
100
AcDbVertex
100
AcDb2dVertex
 10
186.73085
 20
-22.526295
 30
0.0
  0
VERTEX
  5
19F
100
AcDbEntity
  8
0
370
     0
390
0
100
AcDbVertex
100
AcDb2dVertex
 10
187.078827
 20
-22.808716
 30
0.0
  0
VERTEX
  5
1A0
100
AcDbEntity
  8
0
370
     0
390
0
100
AcDbVertex
100
AcDb2dVertex
 10
187.532715
 20
-22.904537
 30
0.0
  0
VERTEX
  5
1A1
100
AcDbEntity
  8
0
370
     0
390
0
100
AcDbVertex
100
AcDb2dVertex
 10
187.926086
 20
-22.838976
 30
0.0
  0
VERTEX
  5
1A2
100
AcDbEntity
  8
0
370
     0
390
0
100
AcDbVertex
100
AcDb2dVertex
 10
188.248856
 20
-22.667505
 30
0.0
  0
VERTEX
  5
1A3
100
AcDbEntity
  8
0
370
     0
390
0
100
AcDbVertex
100
AcDb2dVertex
 10
188.485886
 20
-22.39517
 30
0.0
  0
VERTEX
  5
1A4
100
AcDbEntity
  8
0
370
     0
390
0
100
AcDbVertex
100
AcDb2dVertex
 10
188.622055
 20
-22.032059
 30
0.0
  0
VERTEX
  5
1A5
100
AcDbEntity
  8
0
370
     0
390
0
100
AcDbVertex
100
AcDb2dVertex
 10
188.183289
 20
-22.032059
 30
0.0
  0
VERTEX
  5
1A6
100
AcDbEntity
  8
0
370
     0
390
0
100
AcDbVertex
100
AcDb2dVertex
 10
188.092514
 20
-22.233788
 30
0.0
  0
VERTEX
  5
1A7
100
AcDbEntity
  8
0
370
     0
390
0
100
AcDbVertex
100
AcDb2dVertex
 10
187.961395
 20
-22.385084
 30
0.0
  0
VERTEX
  5
1A8
100
AcDbEntity
  8
0
370
     0
390
0
100
AcDbVertex
100
AcDb2dVertex
 10
187.588196
 20
-22.506123
 30
0.0
  0
VERTEX
  5
1A9
100
AcDbEntity
  8
0
370
     0
390
0
100
AcDbVertex
100
AcDb2dVertex
 10
187.30072
 20
-22.450647
 30
0.0
  0
VERTEX
  5
1AA
100
AcDbEntity
  8
0
370
     0
390
0
100
AcDbVertex
100
AcDb2dVertex
 10
187.083862
 20
-22.274134
 30
0.0
  0
VERTEX
  5
1AB
100
AcDbEntity
  8
0
370
     0
390
0
100
AcDbVertex
100
AcDb2dVertex
 10
186.942657
 20
-21.98667
 30
0.0
  0
VERTEX
  5
1AC
100
AcDbEntity
  8
0
370
     0
390
0
100
AcDbVertex
100
AcDb2dVertex
 10
186.892227
 20
-21.598341
 30
0.0
  0
SEQEND
  5
1AD
100
AcDbEntity
  8
0
370
     0
390
0
  0
POLYLINE
  5
1AE
100
AcDbEntity
  8
0
370
    13
390
0
 62
     7
100
AcDb2dPolyline
 66
     1
 10
0.0
 20
0.0
 30
0.0
 70
     1
 71
     9
  0
VERTEX
  5
1AF
100
AcDbEntity
  8
0
370
     0
390
0
100
AcDbVertex
100
AcDb2dVertex
 10
186.892227
 20
-21.210012
 30
0.0
  0
VERTEX
  5
1B0
100
AcDbEntity
  8
0
370
     0
390
0
100
AcDbVertex
100
AcDb2dVertex
 10
186.947708
 20
-20.86203
 30
0.0
  0
VERTEX
  5
1B1
100
AcDbEntity
  8
0
370
     0
390
0
100
AcDbVertex
100
AcDb2dVertex
 10
187.083862
 20
-20.604826
 30
0.0
  0
VERTEX
  5
1B2
100
AcDbEntity
  8
0
370
     0
390
0
100
AcDbVertex
100
AcDb2dVertex
 10
187.290649
 20
-20.448486
 30
0.0
  0
VERTEX
  5
1B3
100
AcDbEntity
  8
0
370
     0
390
0
100
AcDbVertex
100
AcDb2dVertex
 10
187.562973
 20
-20.393009
 30
0.0
  0
VERTEX
  5
1B4
100
AcDbEntity
  8
0
370
     0
390
0
100
AcDbVertex
100
AcDb2dVertex
 10
187.830261
 20
-20.448486
 30
0.0
  0
VERTEX
  5
1B5
100
AcDbEntity
  8
0
370
     0
390
0
100
AcDbVertex
100
AcDb2dVertex
 10
188.037033
 20
-20.604826
 30
0.0
  0
VERTEX
  5
1B6
100
AcDbEntity
  8
0
370
     0
390
0
100
AcDbVertex
100
AcDb2dVertex
 10
188.163116
 20
-20.86203
 30
0.0
  0
VERTEX
  5
1B7
100
AcDbEntity
  8
0
370
     0
390
0
100
AcDbVertex
100
AcDb2dVertex
 10
188.208511
 20
-21.210012
 30
0.0
  0
SEQEND
  5
1B8
100
AcDbEntity
  8
0
370
     0
390
0
  0
POLYLINE
  5
1B9
100
AcDbEntity
  8
0
370
    13
390
0
 62
     7
100
AcDb2dPolyline
 66
     1
 10
0.0
 20
0.0
 30
0.0
 70
     1
 71
     4
  0
VERTEX
  5
1BA
100
AcDbEntity
  8
0
370
     0
390
0
100
AcDbVertex
100
AcDb2dVertex
 10
190.235886
 20
-22.808716
 30
0.0
  0
VERTEX
  5
1BB
100
AcDbEntity
  8
0
370
     0
390
0
100
AcDbVertex
100
AcDb2dVertex
 10
190.931854
 20
-22.808716
 30
0.0
  0
VERTEX
  5
1BC
100
AcDbEntity
  8
0
370
     0
390
0
100
AcDbVertex
100
AcDb2dVertex
 10
190.931854
 20
-22.057276
 30
0.0
  0
VERTEX
  5
1BD
100
AcDbEntity
  8
0
370
     0
390
0
100
AcDbVertex
100
AcDb2dVertex
 10
190.235886
 20
-22.057276
 30
0.0
  0
SEQEND
  5
1BE
100
AcDbEntity
  8
0
370
     0
390
0
  0
POLYLINE
  5
1BF
100
AcDbEntity
  8
0
370
    13
390
0
 62
     7
100
AcDb2dPolyline
 66
     1
 10
0.0
 20
0.0
 30
0.0
 70
     1
 71
     4
  0
VERTEX
  5
1C0
100
AcDbEntity
  8
0
370
     0
390
0
100
AcDbVertex
100
AcDb2dVertex
 10
190.235886
 20
-20.851944
 30
0.0
  0
VERTEX
  5
1C1
100
AcDbEntity
  8
0
370
     0
390
0
100
AcDbVertex
100
AcDb2dVertex
 10
190.931854
 20
-20.851944
 30
0.0
  0
VERTEX
  5
1C2
100
AcDbEntity
  8
0
370
     0
390
0
100
AcDbVertex
100
AcDb2dVertex
 10
190.931854
 20
-20.100502
 30
0.0
  0
VERTEX
  5
1C3
100
AcDbEntity
  8
0
370
     0
390
0
100
AcDbVertex
100
AcDb2dVertex
 10
190.235886
 20
-20.100502
 30
0.0
  0
SEQEND
  5
1C4
100
AcDbEntity
  8
0
370
     0
390
0
  0
POLYLINE
  5
1C5
100
AcDbEntity
  8
0
370
    13
390
0
 62
     7
100
AcDb2dPolyline
 66
     1
 10
0.0
 20
0.0
 30
0.0
 70
     1
 71
    10
  0
VERTEX
  5
1C6
100
AcDbEntity
  8
0
370
     0
390
0
100
AcDbVertex
100
AcDb2dVertex
 10
199.601166
 20
-22.808716
 30
0.0
  0
VERTEX
  5
1C7
100
AcDbEntity
  8
0
370
     0
390
0
100
AcDbVertex
100
AcDb2dVertex
 10
200.060089
 20
-22.808716
 30
0.0
  0
VERTEX
  5
1C8
100
AcDbEntity
  8
0
370
     0
390
0
100
AcDbVertex
100
AcDb2dVertex
 10
200.060089
 20
-19.283501
 30
0.0
  0
VERTEX
  5
1C9
100
AcDbEntity
  8
0
370
     0
390
0
100
AcDbVertex
100
AcDb2dVertex
 10
199.717163
 20
-19.283501
 30
0.0
  0
VERTEX
  5
1CA
100
AcDbEntity
  8
0
370
     0
390
0
100
AcDbVertex
100
AcDb2dVertex
 10
199.626373
 20
-19.591137
 30
0.0
  0
VERTEX
  5
1CB
100
AcDbEntity
  8
0
370
     0
390
0
100
AcDbVertex
100
AcDb2dVertex
 10
199.444824
 20
-19.797909
 30
0.0
  0
VERTEX
  5
1CC
100
AcDbEntity
  8
0
370
     0
390
0
100
AcDbVertex
100
AcDb2dVertex
 10
199.16745
 20
-19.918945
 30
0.0
  0
VERTEX
  5
1CD
100
AcDbEntity
  8
0
370
     0
390
0
100
AcDbVertex
100
AcDb2dVertex
 10
198.784164
 20
-19.959291
 30
0.0
  0
VERTEX
  5
1CE
100
AcDbEntity
  8
0
370
     0
390
0
100
AcDbVertex
100
AcDb2dVertex
 10
198.784164
 20
-20.317362
 30
0.0
  0
VERTEX
  5
1CF
100
AcDbEntity
  8
0
370
     0
390
0
100
AcDbVertex
100
AcDb2dVertex
 10
199.601166
 20
-20.317362
 30
0.0
  0
SEQEND
  5
1D0
100
AcDbEntity
  8
0
370
     0
390
0
  0
POLYLINE
  5
1D1
100
AcDbEntity
  8
0
370
    13
390
0
 62
     7
100
AcDb2dPolyline
 66
     1
 10
0.0
 20
0.0
 30
0.0
 70
     1
 71
     4
  0
VERTEX
  5
1D2
100
AcDbEntity
  8
0
370
     0
390
0
100
AcDbVertex
100
AcDb2dVertex
 10
202.379974
 20
-22.808716
 30
0.0
  0
VERTEX
  5
1D3
100
AcDbEntity
  8
0
370
     0
390
0
100
AcDbVertex
100
AcDb2dVertex
 10
203.075943
 20
-22.808716
 30
0.0
  0
VERTEX
  5
1D4
100
AcDbEntity
  8
0
370
     0
390
0
100
AcDbVertex
100
AcDb2dVertex
 10
203.075943
 20
-22.057276
 30
0.0
  0
VERTEX
  5
1D5
100
AcDbEntity
  8
0
370
     0
390
0
100
AcDbVertex
100
AcDb2dVertex
 10
202.379974
 20
-22.057276
 30
0.0
  0
SEQEND
  5
1D6
100
AcDbEntity
  8
0
370
     0
390
0
  0
POLYLINE
  5
1D7
100
AcDbEntity
  8
0
370
    13
390
0
 62
     7
100
AcDb2dPolyline
 66
     1
 10
0.0
 20
0.0
 30
0.0
 70
     1
 71
     4
  0
VERTEX
  5
1D8
100
AcDbEntity
  8
0
370
     0
390
0
100
AcDbVertex
100
AcDb2dVertex
 10
202.379974
 20
-20.851944
 30
0.0
  0
VERTEX
  5
1D9
100
AcDbEntity
  8
0
370
     0
390
0
100
AcDbVertex
100
AcDb2dVertex
 10
203.075943
 20
-20.851944
 30
0.0
  0
VERTEX
  5
1DA
100
AcDbEntity
  8
0
370
     0
390
0
100
AcDbVertex
100
AcDb2dVertex
 10
203.075943
 20
-20.100502
 30
0.0
  0
VERTEX
  5
1DB
100
AcDbEntity
  8
0
370
     0
390
0
100
AcDbVertex
100
AcDb2dVertex
 10
202.379974
 20
-20.100502
 30
0.0
  0
SEQEND
  5
1DC
100
AcDbEntity
  8
0
370
     0
390
0
  0
POLYLINE
  5
1DD
100
AcDbEntity
  8
0
370
    13
390
0
 62
     7
100
AcDb2dPolyline
 66
     1
 10
0.0
 20
0.0
 30
0.0
 70
     1
 71
    10
  0
VERTEX
  5
1DE
100
AcDbEntity
  8
0
370
     0
390
0
100
AcDbVertex
100
AcDb2dVertex
 10
205.673203
 20
-22.808716
 30
0.0
  0
VERTEX
  5
1DF
100
AcDbEntity
  8
0
370
     0
390
0
100
AcDbVertex
100
AcDb2dVertex
 10
206.132141
 20
-22.808716
 30
0.0
  0
VERTEX
  5
1E0
100
AcDbEntity
  8
0
370
     0
390
0
100
AcDbVertex
100
AcDb2dVertex
 10
206.132141
 20
-19.283501
 30
0.0
  0
VERTEX
  5
1E1
100
AcDbEntity
  8
0
370
     0
390
0
100
AcDbVertex
100
AcDb2dVertex
 10
205.7892
 20
-19.283501
 30
0.0
  0
VERTEX
  5
1E2
100
AcDbEntity
  8
0
370
     0
390
0
100
AcDbVertex
100
AcDb2dVertex
 10
205.698425
 20
-19.591137
 30
0.0
  0
VERTEX
  5
1E3
100
AcDbEntity
  8
0
370
     0
390
0
100
AcDbVertex
100
AcDb2dVertex
 10
205.516861
 20
-19.797909
 30
0.0
  0
VERTEX
  5
1E4
100
AcDbEntity
  8
0
370
     0
390
0
100
AcDbVertex
100
AcDb2dVertex
 10
205.239487
 20
-19.918945
 30
0.0
  0
VERTEX
  5
1E5
100
AcDbEntity
  8
0
370
     0
390
0
100
AcDbVertex
100
AcDb2dVertex
 10
204.856201
 20
-19.959291
 30
0.0
  0
VERTEX
  5
1E6
100
AcDbEntity
  8
0
370
     0
390
0
100
AcDbVertex
100
AcDb2dVertex
 10
204.856201
 20
-20.317362
 30
0.0
  0
VERTEX
  5
1E7
100
AcDbEntity
  8
0
370
     0
390
0
100
AcDbVertex
100
AcDb2dVertex
 10
205.673203
 20
-20.317362
 30
0.0
  0
SEQEND
  5
1E8
100
AcDbEntity
  8
0
370
     0
390
0
  0
POLYLINE
  5
1E9
100
AcDbEntity
  8
0
370
    35
390
0
 62
     7
100
AcDb2dPolyline
 66
     1
 10
0.0
 20
0.0
 30
0.0
 71
    13
  0
VERTEX
  5
1EA
100
AcDbEntity
  8
0
370
     0
390
0
100
AcDbVertex
100
AcDb2dVertex
 10
392.557709
 20
122.250885
 30
0.0
  0
VERTEX
  5
1EB
100
AcDbEntity
  8
0
370
     0
390
0
100
AcDbVertex
100
AcDb2dVertex
 10
388.250519
 20
123.21048
 30
0.0
  0
VERTEX
  5
1EC
100
AcDbEntity
  8
0
370
     0
390
0
100
AcDbVertex
100
AcDb2dVertex
 10
385.38916
 20
123.894768
 30
0.0
  0
VERTEX
  5
1ED
100
AcDbEntity
  8
0
370
     0
390
0
100
AcDbVertex
100
AcDb2dVertex
 10
379.681488
 20
125.323776
 30
0.0
  0
VERTEX
  5
1EE
100
AcDbEntity
  8
0
370
     0
390
0
100
AcDbVertex
100
AcDb2dVertex
 10
369.309052
 20
128.030502
 30
0.0
  0
VERTEX
  5
1EF
100
AcDbEntity
  8
0
370
     0
390
0
100
AcDbVertex
100
AcDb2dVertex
 10
353.775452
 20
132.183853
 30
0.0
  0
VERTEX
  5
1F0
100
AcDbEntity
  8
0
370
     0
390
0
100
AcDbVertex
100
AcDb2dVertex
 10
338.237915
 20
136.327347
 30
0.0
  0
VERTEX
  5
1F1
100
AcDbEntity
  8
0
370
     0
390
0
100
AcDbVertex
100
AcDb2dVertex
 10
330.463409
 20
138.369339
 30
0.0
  0
VERTEX
  5
1F2
100
AcDbEntity
  8
0
370
     0
390
0
100
AcDbVertex
100
AcDb2dVertex
 10
316.197235
 20
142.026871
 30
0.0
  0
VERTEX
  5
1F3
100
AcDbEntity
  8
0
370
     0
390
0
100
AcDbVertex
100
AcDb2dVertex
 10
309.056763
 20
143.801239
 30
0.0
  0
VERTEX
  5
1F4
100
AcDbEntity
  8
0
370
     0
390
0
100
AcDbVertex
100
AcDb2dVertex
 10
301.894135
 20
145.537155
 30
0.0
  0
VERTEX
  5
1F5
100
AcDbEntity
  8
0
370
     0
390
0
100
AcDbVertex
100
AcDb2dVertex
 10
293.283203
 20
147.563004
 30
0.0
  0
VERTEX
  5
1F6
100
AcDbEntity
  8
0
370
     0
390
0
100
AcDbVertex
100
AcDb2dVertex
 10
284.654022
 20
149.525787
 30
0.0
  0
SEQEND
  5
1F7
100
AcDbEntity
  8
0
370
     0
390
0
  0
LINE
  5
1F8
100
AcDbEntity
  8
0
370
    35
390
0
 62
     7
 48
0.008234
100
AcDbLine
 10
392.880127
 20
122.183525
 30
0.0
 11
392.557709
 21
122.250885
 31
0.0
210
0.0
220
0.0
230
1.0
  0
POLYLINE
  5
1F9
100
AcDbEntity
  8
0
370
    35
390
0
 62
     7
100
AcDb2dPolyline
 66
     1
 10
0.0
 20
0.0
 30
0.0
 71
    16
  0
VERTEX
  5
1FA
100
AcDbEntity
  8
0
370
     0
390
0
100
AcDbVertex
100
AcDb2dVertex
 10
66.188232
 20
173.357452
 30
0.0
  0
VERTEX
  5
1FB
100
AcDbEntity
  8
0
370
     0
390
0
100
AcDbVertex
100
AcDb2dVertex
 10
69.981651
 20
173.716644
 30
0.0
  0
VERTEX
  5
1FC
100
AcDbEntity
  8
0
370
     0
390
0
100
AcDbVertex
100
AcDb2dVertex
 10
73.553307
 20
173.996841
 30
0.0
  0
VERTEX
  5
1FD
100
AcDbEntity
  8
0
370
     0
390
0
100
AcDbVertex
100
AcDb2dVertex
 10
77.128868
 20
174.225708
 30
0.0
  0
VERTEX
  5
1FE
100
AcDbEntity
  8
0
370
     0
390
0
100
AcDbVertex
100
AcDb2dVertex
 10
80.99295
 20
174.420258
 30
0.0
  0
VERTEX
  5
1FF
100
AcDbEntity
  8
0
370
     0
390
0
100
AcDbVertex
100
AcDb2dVertex
 10
84.859177
 20
174.564941
 30
0.0
  0
VERTEX
  5
200
100
AcDbEntity
  8
0
370
     0
390
0
100
AcDbVertex
100
AcDb2dVertex
 10
89.097198
 20
174.670929
 30
0.0
  0
VERTEX
  5
201
100
AcDbEntity
  8
0
370
     0
390
0
100
AcDbVertex
100
AcDb2dVertex
 10
93.336075
 20
174.725723
 30
0.0
  0
VERTEX
  5
202
100
AcDbEntity
  8
0
370
     0
390
0
100
AcDbVertex
100
AcDb2dVertex
 10
100.745049
 20
174.707977
 30
0.0
  0
VERTEX
  5
203
100
AcDbEntity
  8
0
370
     0
390
0
100
AcDbVertex
100
AcDb2dVertex
 10
108.152832
 20
174.559814
 30
0.0
  0
VERTEX
  5
204
100
AcDbEntity
  8
0
370
     0
390
0
100
AcDbVertex
100
AcDb2dVertex
 10
115.557449
 20
174.296753
 30
0.0
  0
VERTEX
  5
205
100
AcDbEntity
  8
0
370
     0
390
0
100
AcDbVertex
100
AcDb2dVertex
 10
122.957542
 20
173.932449
 30
0.0
  0
VERTEX
  5
206
100
AcDbEntity
  8
0
370
     0
390
0
100
AcDbVertex
100
AcDb2dVertex
 10
128.744827
 20
173.583694
 30
0.0
  0
VERTEX
  5
207
100
AcDbEntity
  8
0
370
     0
390
0
100
AcDbVertex
100
AcDb2dVertex
 10
134.528717
 20
173.182053
 30
0.0
  0
VERTEX
  5
208
100
AcDbEntity
  8
0
370
     0
390
0
100
AcDbVertex
100
AcDb2dVertex
 10
144.562439
 20
172.363251
 30
0.0
  0
VERTEX
  5
209
100
AcDbEntity
  8
0
370
     0
390
0
100
AcDbVertex
100
AcDb2dVertex
 10
154.583084
 20
171.397766
 30
0.0
  0
SEQEND
  5
20A
100
AcDbEntity
  8
0
370
     0
390
0
  0
POLYLINE
  5
20B
100
AcDbEntity
  8
0
370
    35
390
0
 62
     7
100
AcDb2dPolyline
 66
     1
 10
0.0
 20
0.0
 30
0.0
 71
    13
  0
VERTEX
  5
20C
100
AcDbEntity
  8
0
370
     0
390
0
100
AcDbVertex
100
AcDb2dVertex
 10
283.654022
 20
149.748917
 30
0.0
  0
VERTEX
  5
20D
100
AcDbEntity
  8
0
370
     0
390
0
100
AcDbVertex
100
AcDb2dVertex
 10
274.046906
 20
151.84758
 30
0.0
  0
VERTEX
  5
20E
100
AcDbEntity
  8
0
370
     0
390
0
100
AcDbVertex
100
AcDb2dVertex
 10
262.491394
 20
154.266022
 30
0.0
  0
VERTEX
  5
20F
100
AcDbEntity
  8
0
370
     0
390
0
100
AcDbVertex
100
AcDb2dVertex
 10
250.914307
 20
156.579041
 30
0.0
  0
VERTEX
  5
210
100
AcDbEntity
  8
0
370
     0
390
0
100
AcDbVertex
100
AcDb2dVertex
 10
239.31781
 20
158.792877
 30
0.0
  0
VERTEX
  5
211
100
AcDbEntity
  8
0
370
     0
390
0
100
AcDbVertex
100
AcDb2dVertex
 10
227.703354
 20
160.910583
 30
0.0
  0
VERTEX
  5
212
100
AcDbEntity
  8
0
370
     0
390
0
100
AcDbVertex
100
AcDb2dVertex
 10
216.07103
 20
162.927567
 30
0.0
  0
VERTEX
  5
213
100
AcDbEntity
  8
0
370
     0
390
0
100
AcDbVertex
100
AcDb2dVertex
 10
204.911041
 20
164.751312
 30
0.0
  0
VERTEX
  5
214
100
AcDbEntity
  8
0
370
     0
390
0
100
AcDbVertex
100
AcDb2dVertex
 10
193.732422
 20
166.457092
 30
0.0
  0
VERTEX
  5
215
100
AcDbEntity
  8
0
370
     0
390
0
100
AcDbVertex
100
AcDb2dVertex
 10
183.964844
 20
167.844467
 30
0.0
  0
VERTEX
  5
216
100
AcDbEntity
  8
0
370
     0
390
0
100
AcDbVertex
100
AcDb2dVertex
 10
174.183884
 20
169.134705
 30
0.0
  0
VERTEX
  5
217
100
AcDbEntity
  8
0
370
     0
390
0
100
AcDbVertex
100
AcDb2dVertex
 10
164.389954
 20
170.32254
 30
0.0
  0
VERTEX
  5
218
100
AcDbEntity
  8
0
370
     0
390
0
100
AcDbVertex
100
AcDb2dVertex
 10
154.583084
 20
171.397766
 30
0.0
  0
SEQEND
  5
219
100
AcDbEntity
  8
0
370
     0
390
0
  0
LINE
  5
21A
100
AcDbEntity
  8
0
370
    35
390
0
 62
     7
 48
0.025
100
AcDbLine
 10
283.654022
 20
140.334381
 30
0.0
 11
284.654022
 21
140.334381
 31
0.0
210
0.0
220
0.0
230
1.0
  0
ARC
  5
21B
100
AcDbEntity
  8
0
370
    35
390
0
 62
     7
100
AcDbCircle
 10
293.188232
 20
138.239319
 30
0.0
 40
3.684161
210
0.0
220
0.0
230
1.0
100
AcDbArc
 50
183.540164
 51
190.991108
  0
ARC
  5
21C
100
AcDbEntity
  8
0
370
    35
390
0
 62
     7
100
AcDbCircle
 10
292.206329
 20
138.051453
 30
0.0
 40
2.684556
210
0.0
220
0.0
230
1.0
100
AcDbArc
 50
191.050831
 51
265.052523
  0
LINE
  5
21D
100
AcDbEntity
  8
0
370
    35
390
0
 62
     7
 48
0.004988
100
AcDbLine
 10
292.173676
 20
135.361359
 30
0.0
 11
291.974762
 21
135.376663
 31
0.0
210
0.0
220
0.0
230
1.0
  0
POLYLINE
  5
21E
100
AcDbEntity
  8
0
370
    35
390
0
 62
     7
100
AcDb2dPolyline
 66
     1
 10
0.0
 20
0.0
 30
0.0
 71
     3
  0
VERTEX
  5
21F
100
AcDbEntity
  8
0
370
     0
390
0
100
AcDbVertex
100
AcDb2dVertex
 10
333.457855
 20
132.447388
 30
0.0
  0
VERTEX
  5
220
100
AcDbEntity
  8
0
370
     0
390
0
100
AcDbVertex
100
AcDb2dVertex
 10
317.388763
 20
133.626633
 30
0.0
  0
VERTEX
  5
221
100
AcDbEntity
  8
0
370
     0
390
0
100
AcDbVertex
100
AcDb2dVertex
 10
292.173676
 20
135.361359
 30
0.0
  0
SEQEND
  5
222
100
AcDbEntity
  8
0
370
     0
390
0
  0
ARC
  5
223
100
AcDbEntity
  8
0
370
    35
390
0
 62
     7
100
AcDbCircle
 10
272.313232
 20
145.242645
 30
0.0
 40
1.940934
210
0.0
220
0.0
230
1.0
100
AcDbArc
 50
168.908283
 51
217.405786
  0
ARC
  5
224
100
AcDbEntity
  8
0
370
    35
390
0
 62
     7
100
AcDbCircle
 10
278.268402
 20
149.815277
 30
0.0
 40
9.448927
210
0.0
220
0.0
230
1.0
100
AcDbArc
 50
217.495493
 51
226.220527
  0
LINE
  5
225
100
AcDbEntity
  8
0
370
    35
390
0
 62
     7
 48
0.126849
100
AcDbLine
 10
275.397247
 20
139.485565
 30
0.0
 11
271.730865
 21
142.993103
 31
0.0
210
0.0
220
0.0
230
1.0
  0
ARC
  5
226
100
AcDbEntity
  8
0
370
    35
390
0
 62
     7
100
AcDbCircle
 10
277.135223
 20
141.302322
 30
0.0
 40
2.514196
210
0.0
220
0.0
230
1.0
100
AcDbArc
 50
226.269541
 51
229.918501
  0
POLYLINE
  5
227
100
AcDbEntity
  8
0
370
    35
390
0
 62
     7
100
AcDb2dPolyline
 66
     1
 10
0.0
 20
0.0
 30
0.0
 71
    11
  0
VERTEX
  5
228
100
AcDbEntity
  8
0
370
     0
390
0
100
AcDbVertex
100
AcDb2dVertex
 10
275.516388
 20
139.378647
 30
0.0
  0
VERTEX
  5
229
100
AcDbEntity
  8
0
370
     0
390
0
100
AcDbVertex
100
AcDb2dVertex
 10
275.872101
 20
139.139618
 30
0.0
  0
VERTEX
  5
22A
100
AcDbEntity
  8
0
370
     0
390
0
100
AcDbVertex
100
AcDb2dVertex
 10
276.270782
 20
138.982849
 30
0.0
  0
VERTEX
  5
22B
100
AcDbEntity
  8
0
370
     0
390
0
100
AcDbVertex
100
AcDb2dVertex
 10
276.693604
 20
138.915955
 30
0.0
  0
VERTEX
  5
22C
100
AcDbEntity
  8
0
370
     0
390
0
100
AcDbVertex
100
AcDb2dVertex
 10
277.120667
 20
138.941818
 30
0.0
  0
VERTEX
  5
22D
100
AcDbEntity
  8
0
370
     0
390
0
100
AcDbVertex
100
AcDb2dVertex
 10
277.53186
 20
139.058853
 30
0.0
  0
VERTEX
  5
22E
100
AcDbEntity
  8
0
370
     0
390
0
100
AcDbVertex
100
AcDb2dVertex
 10
277.907898
 20
139.261292
 30
0.0
  0
VERTEX
  5
22F
100
AcDbEntity
  8
0
370
     0
390
0
100
AcDbVertex
100
AcDb2dVertex
 10
278.230042
 20
139.538651
 30
0.0
  0
VERTEX
  5
230
100
AcDbEntity
  8
0
370
     0
390
0
100
AcDbVertex
100
AcDb2dVertex
 10
278.484222
 20
139.87854
 30
0.0
  0
VERTEX
  5
231
100
AcDbEntity
  8
0
370
     0
390
0
100
AcDbVertex
100
AcDb2dVertex
 10
278.658386
 20
140.264893
 30
0.0
  0
VERTEX
  5
232
100
AcDbEntity
  8
0
370
     0
390
0
100
AcDbVertex
100
AcDb2dVertex
 10
278.740417
 20
140.640167
 30
0.0
  0
SEQEND
  5
233
100
AcDbEntity
  8
0
370
     0
390
0
  0
ARC
  5
234
100
AcDbEntity
  8
0
370
    35
390
0
 62
     7
100
AcDbCircle
 10
269.395569
 20
141.733032
 30
0.0
 40
9.408531
210
0.0
220
0.0
230
1.0
100
AcDbArc
 50
353.329738
 51
356.966256
  0
ARC
  5
235
100
AcDbEntity
  8
0
370
    35
390
0
 62
     7
100
AcDbCircle
 10
250.29039
 20
140.929321
 30
0.0
 40
2.831519
210
0.0
220
0.0
230
1.0
100
AcDbArc
 50
176.068521
 51
255.525502
  0
ARC
  5
236
100
AcDbEntity
  8
0
370
    35
390
0
 62
     7
100
AcDbCircle
 10
250.610825
 20
142.193192
 30
0.0
 40
4.13511
210
0.0
220
0.0
230
1.0
100
AcDbArc
 50
255.603714
 51
266.366767
  0
LINE
  5
237
100
AcDbEntity
  8
0
370
    35
390
0
 62
     7
 48
0.361583
100
AcDbLine
 10
264.782776
 20
137.146042
 30
0.0
 11
250.348785
 21
138.066391
 31
0.0
210
0.0
220
0.0
230
1.0
  0
ARC
  5
238
100
AcDbEntity
  8
0
370
    35
390
0
 62
     7
100
AcDbCircle
 10
265.047546
 20
141.27829
 30
0.0
 40
4.140717
210
0.0
220
0.0
230
1.0
100
AcDbArc
 50
266.333955
 51
275.073442
  0
ARC
  5
239
100
AcDbEntity
  8
0
370
    35
390
0
 62
     7
100
AcDbCircle
 10
265.16037
 20
139.979065
 30
0.0
 40
2.836791
210
0.0
220
0.0
230
1.0
100
AcDbArc
 50
275.124272
 51
355.78893
  0
ARC
  5
23A
100
AcDbEntity
  8
0
370
    35
390
0
 62
     7
100
AcDbCircle
 10
237.857559
 20
148.596069
 30
0.0
 40
8.520634
210
0.0
220
0.0
230
1.0
100
AcDbArc
 50
226.491208
 51
233.528802
  0
ARC
  5
23B
100
AcDbEntity
  8
0
370
    35
390
0
 62
     7
100
AcDbCircle
 10
236.159149
 20
146.299469
 30
0.0
 40
5.664255
210
0.0
220
0.0
230
1.0
100
AcDbArc
 50
233.535291
 51
295.914268
  0
ARC
  5
23C
100
AcDbEntity
  8
0
370
    35
390
0
 62
     7
100
AcDbCircle
 10
234.908554
 20
148.869049
 30
0.0
 40
8.521964
210
0.0
220
0.0
230
1.0
100
AcDbArc
 50
295.926795
 51
304.25913
  0
LINE
  5
23D
100
AcDbEntity
  8
0
370
    35
390
0
 62
     7
 48
0.239634
100
AcDbLine
 10
239.705887
 20
141.825653
 30
0.0
 11
247.627747
 21
147.222244
 31
0.0
210
0.0
220
0.0
230
1.0
  0
LINE
  5
23E
100
AcDbEntity
  8
0
370
    35
390
0
 62
     7
 48
0.005048
100
AcDbLine
 10
247.627747
 20
147.222244
 30
0.0
 11
247.793259
 21
147.337906
 31
0.0
210
0.0
220
0.0
230
1.0
  0
ARC
  5
23F
100
AcDbEntity
  8
0
370
    35
390
0
 62
     7
100
AcDbCircle
 10
246.149734
 20
149.635773
 30
0.0
 40
2.82502
210
0.0
220
0.0
230
1.0
100
AcDbArc
 50
305.573696
 51
354.607699
  0
ARC
  5
240
100
AcDbEntity
  8
0
370
    35
390
0
 62
     7
100
AcDbCircle
 10
224.253983
 20
153.667084
 30
0.0
 40
2.832241
210
0.0
220
0.0
230
1.0
100
AcDbArc
 50
181.621714
 51
226.483011
  0
LINE
  5
241
100
AcDbEntity
  8
0
370
    35
390
0
 62
     7
 48
0.333947
100
AcDbLine
 10
231.991394
 20
142.416321
 30
0.0
 11
222.303802
 21
151.613251
 31
0.0
210
0.0
220
0.0
230
1.0
  0
ARC
  5
242
100
AcDbEntity
  8
0
370
    35
390
0
 62
     7
100
AcDbCircle
 10
192.407242
 20
144.669586
 30
0.0
 40
2.788916
210
0.0
220
0.0
230
1.0
100
AcDbArc
 50
187.564061
 51
246.97153
  0
ARC
  5
243
100
AcDbEntity
  8
0
370
    35
390
0
 62
     7
100
AcDbCircle
 10
192.975311
 20
146.047974
 30
0.0
 40
4.279504
210
0.0
220
0.0
230
1.0
100
AcDbArc
 50
247.191154
 51
266.190275
  0
ARC
  5
244
100
AcDbEntity
  8
0
370
    35
390
0
 62
     7
100
AcDbCircle
 10
907.556458
 20
10883.038086
 30
0.0
 40
10765.022157
210
0.0
220
0.0
230
1.0
100
AcDbArc
 50
266.192399
 51
266.345648
  0
ARC
  5
245
100
AcDbEntity
  8
0
370
    35
390
0
 62
     7
100
AcDbCircle
 10
221.698074
 20
144.190277
 30
0.0
 40
4.295445
210
0.0
220
0.0
230
1.0
100
AcDbArc
 50
266.331626
 51
280.532607
  0
ARC
  5
246
100
AcDbEntity
  8
0
370
    35
390
0
 62
     7
100
AcDbCircle
 10
221.961884
 20
142.732376
 30
0.0
 40
2.814292
210
0.0
220
0.0
230
1.0
100
AcDbArc
 50
280.677974
 51
355.927934
  0
ARC
  5
247
100
AcDbEntity
  8
0
370
    35
390
0
 62
     7
100
AcDbCircle
 10
178.355392
 20
150.09227
 30
0.0
 40
5.644146
210
0.0
220
0.0
230
1.0
100
AcDbArc
 50
226.451456
 51
288.733472
  0
ARC
  5
248
100
AcDbEntity
  8
0
370
    35
390
0
 62
     7
100
AcDbCircle
 10
177.414673
 20
152.823441
 30
0.0
 40
8.532484
210
0.0
220
0.0
230
1.0
100
AcDbArc
 50
288.82559
 51
304.247601
  0
LINE
  5
249
100
AcDbEntity
  8
0
370
    35
390
0
 62
     7
 48
0.441457
100
AcDbLine
 10
182.216507
 20
145.770355
 30
0.0
 11
196.810669
 21
155.711441
 31
0.0
210
0.0
220
0.0
230
1.0
  0
ARC
  5
24A
100
AcDbEntity
  8
0
370
    35
390
0
 62
     7
100
AcDbCircle
 10
192.051178
 20
162.697586
 30
0.0
 40
8.453335
210
0.0
220
0.0
230
1.0
100
AcDbArc
 50
304.265609
 51
309.017501
  0
ARC
  5
24B
100
AcDbEntity
  8
0
370
    35
390
0
 62
     7
100
AcDbCircle
 10
195.607056
 20
158.314606
 30
0.0
 40
2.809167
210
0.0
220
0.0
230
1.0
100
AcDbArc
 50
308.947782
 51
2.657373
  0
ARC
  5
24C
100
AcDbEntity
  8
0
370
    35
390
0
 62
     7
100
AcDbCircle
 10
160.824036
 20
162.858978
 30
0.0
 40
2.831716
210
0.0
220
0.0
230
1.0
100
AcDbArc
 50
193.383928
 51
226.485948
  0
LINE
  5
24D
100
AcDbEntity
  8
0
370
    35
390
0
 62
     7
100
AcDbLine
 10
174.466568
 20
146.001236
 30
0.0
 11
158.874313
 21
160.805405
 31
0.0
210
0.0
220
0.0
230
1.0
  0
ARC
  5
24E
100
AcDbEntity
  8
0
370
    35
390
0
 62
     7
100
AcDbCircle
 10
125.924843
 20
149.619263
 30
0.0
 40
2.761482
210
0.0
220
0.0
230
1.0
100
AcDbArc
 50
183.189939
 51
240.159208
  0
ARC
  5
24F
100
AcDbEntity
  8
0
370
    35
390
0
 62
     7
100
AcDbCircle
 10
126.553703
 20
150.747147
 30
0.0
 40
4.052809
210
0.0
220
0.0
230
1.0
100
AcDbArc
 50
240.381804
 51
265.217547
  0
POLYLINE
  5
250
100
AcDbEntity
  8
0
370
    35
390
0
 62
     7
100
AcDb2dPolyline
 66
     1
 10
0.0
 20
0.0
 30
0.0
 71
     4
  0
VERTEX
  5
251
100
AcDbEntity
  8
0
370
     0
390
0
100
AcDbVertex
100
AcDb2dVertex
 10
126.21579
 20
146.708206
 30
0.0
  0
VERTEX
  5
252
100
AcDbEntity
  8
0
370
     0
390
0
100
AcDbVertex
100
AcDb2dVertex
 10
135.587112
 20
145.927872
 30
0.0
  0
VERTEX
  5
253
100
AcDbEntity
  8
0
370
     0
390
0
100
AcDbVertex
100
AcDb2dVertex
 10
144.953125
 20
145.184952
 30
0.0
  0
VERTEX
  5
254
100
AcDbEntity
  8
0
370
     0
390
0
100
AcDbVertex
100
AcDb2dVertex
 10
163.688843
 20
143.78476
 30
0.0
  0
SEQEND
  5
255
100
AcDbEntity
  8
0
370
     0
390
0
  0
ARC
  5
256
100
AcDbEntity
  8
0
370
    35
390
0
 62
     7
100
AcDbCircle
 10
163.985443
 20
147.893204
 30
0.0
 40
4.119135
210
0.0
220
0.0
230
1.0
100
AcDbArc
 50
265.870807
 51
273.656573
  0
ARC
  5
257
100
AcDbEntity
  8
0
370
    35
390
0
 62
     7
100
AcDbCircle
 10
164.064621
 20
146.615677
 30
0.0
 40
2.839385
210
0.0
220
0.0
230
1.0
100
AcDbArc
 50
273.70627
 51
7.77506
  0
ARC
  5
258
100
AcDbEntity
  8
0
370
    35
390
0
 62
     7
100
AcDbCircle
 10
122.69017
 20
155.298264
 30
0.0
 40
10.947202
210
0.0
220
0.0
230
1.0
100
AcDbArc
 50
183.667547
 51
192.864574
  0
ARC
  5
259
100
AcDbEntity
  8
0
370
    35
390
0
 62
     7
100
AcDbCircle
 10
114.589989
 20
153.444107
 30
0.0
 40
2.6375
210
0.0
220
0.0
230
1.0
100
AcDbArc
 50
192.774839
 51
261.735107
  0
POLYLINE
  5
25A
100
AcDbEntity
  8
0
370
    35
390
0
 62
     7
100
AcDb2dPolyline
 66
     1
 10
0.0
 20
0.0
 30
0.0
 71
     6
  0
VERTEX
  5
25B
100
AcDbEntity
  8
0
370
     0
390
0
100
AcDbVertex
100
AcDb2dVertex
 10
114.210854
 20
150.83403
 30
0.0
  0
VERTEX
  5
25C
100
AcDbEntity
  8
0
370
     0
390
0
100
AcDbVertex
100
AcDb2dVertex
 10
114.843361
 20
150.800537
 30
0.0
  0
VERTEX
  5
25D
100
AcDbEntity
  8
0
370
     0
390
0
100
AcDbVertex
100
AcDb2dVertex
 10
115.482414
 20
150.88002
 30
0.0
  0
VERTEX
  5
25E
100
AcDbEntity
  8
0
370
     0
390
0
100
AcDbVertex
100
AcDb2dVertex
 10
116.104904
 20
151.06958
 30
0.0
  0
VERTEX
  5
25F
100
AcDbEntity
  8
0
370
     0
390
0
100
AcDbVertex
100
AcDb2dVertex
 10
116.49395
 20
151.250656
 30
0.0
  0
VERTEX
  5
260
100
AcDbEntity
  8
0
370
     0
390
0
100
AcDbVertex
100
AcDb2dVertex
 10
116.860977
 20
151.473663
 30
0.0
  0
SEQEND
  5
261
100
AcDbEntity
  8
0
370
     0
390
0
  0
LINE
  5
262
100
AcDbEntity
  8
0
370
    35
390
0
 62
     7
 48
0.475664
100
AcDbLine
 10
116.860977
 20
151.473663
 30
0.0
 11
132.550293
 21
162.237305
 31
0.0
210
0.0
220
0.0
230
1.0
  0
ARC
  5
263
100
AcDbEntity
  8
0
370
    35
390
0
 62
     7
100
AcDbCircle
 10
126.488197
 20
171.06694
 30
0.0
 40
10.710392
210
0.0
220
0.0
230
1.0
100
AcDbArc
 50
304.471993
 51
315.098832
  0
ARC
  5
264
100
AcDbEntity
  8
0
370
    35
390
0
 62
     7
100
AcDbCircle
 10
132.131577
 20
165.446609
 30
0.0
 40
2.745853
210
0.0
220
0.0
230
1.0
100
AcDbArc
 50
315.045361
 51
22.099577
  0
ARC
  5
265
100
AcDbEntity
  8
0
370
    35
390
0
 62
     7
100
AcDbCircle
 10
111.585289
 20
124.27742
 30
0.0
 40
43.995015
210
0.0
220
0.0
230
1.0
100
AcDbArc
 50
132.80863
 51
134.876265
  0
POLYLINE
  5
266
100
AcDbEntity
  8
0
370
    35
390
0
 62
     7
100
AcDb2dPolyline
 66
     1
 10
0.0
 20
0.0
 30
0.0
 71
    11
  0
VERTEX
  5
267
100
AcDbEntity
  8
0
370
     0
390
0
100
AcDbVertex
100
AcDb2dVertex
 10
82.163223
 20
151.096008
 30
0.0
  0
VERTEX
  5
268
100
AcDbEntity
  8
0
370
     0
390
0
100
AcDbVertex
100
AcDb2dVertex
 10
81.582878
 20
151.232635
 30
0.0
  0
VERTEX
  5
269
100
AcDbEntity
  8
0
370
     0
390
0
100
AcDbVertex
100
AcDb2dVertex
 10
81.047615
 20
151.493973
 30
0.0
  0
VERTEX
  5
26A
100
AcDbEntity
  8
0
370
     0
390
0
100
AcDbVertex
100
AcDb2dVertex
 10
80.584518
 20
151.866577
 30
0.0
  0
VERTEX
  5
26B
100
AcDbEntity
  8
0
370
     0
390
0
100
AcDbVertex
100
AcDb2dVertex
 10
80.217644
 20
152.330215
 30
0.0
  0
VERTEX
  5
26C
100
AcDbEntity
  8
0
370
     0
390
0
100
AcDbVertex
100
AcDb2dVertex
 10
79.964455
 20
152.861694
 30
0.0
  0
VERTEX
  5
26D
100
AcDbEntity
  8
0
370
     0
390
0
100
AcDbVertex
100
AcDb2dVertex
 10
79.838097
 20
153.428299
 30
0.0
  0
VERTEX
  5
26E
100
AcDbEntity
  8
0
370
     0
390
0
100
AcDbVertex
100
AcDb2dVertex
 10
79.841904
 20
154.005081
 30
0.0
  0
VERTEX
  5
26F
100
AcDbEntity
  8
0
370
     0
390
0
100
AcDbVertex
100
AcDb2dVertex
 10
79.974922
 20
154.561783
 30
0.0
  0
VERTEX
  5
270
100
AcDbEntity
  8
0
370
     0
390
0
100
AcDbVertex
100
AcDb2dVertex
 10
80.211342
 20
155.041183
 30
0.0
  0
VERTEX
  5
271
100
AcDbEntity
  8
0
370
     0
390
0
100
AcDbVertex
100
AcDb2dVertex
 10
80.54332
 20
155.453751
 30
0.0
  0
SEQEND
  5
272
100
AcDbEntity
  8
0
370
     0
390
0
  0
LINE
  5
273
100
AcDbEntity
  8
0
370
    35
390
0
 62
     7
 48
0.05349
100
AcDbLine
 10
82.163223
 20
151.096008
 30
0.0
 11
84.287842
 21
150.843414
 31
0.0
210
0.0
220
0.0
230
1.0
  0
POLYLINE
  5
274
100
AcDbEntity
  8
0
370
    35
390
0
 62
     7
100
AcDb2dPolyline
 66
     1
 10
0.0
 20
0.0
 30
0.0
 71
     5
  0
VERTEX
  5
275
100
AcDbEntity
  8
0
370
     0
390
0
100
AcDbVertex
100
AcDb2dVertex
 10
92.062477
 20
150.824951
 30
0.0
  0
VERTEX
  5
276
100
AcDbEntity
  8
0
370
     0
390
0
100
AcDbVertex
100
AcDb2dVertex
 10
89.631706
 20
150.668259
 30
0.0
  0
VERTEX
  5
277
100
AcDbEntity
  8
0
370
     0
390
0
100
AcDbVertex
100
AcDb2dVertex
 10
88.355682
 20
150.63356
 30
0.0
  0
VERTEX
  5
278
100
AcDbEntity
  8
0
370
     0
390
0
100
AcDbVertex
100
AcDb2dVertex
 10
86.337502
 20
150.672028
 30
0.0
  0
VERTEX
  5
279
100
AcDbEntity
  8
0
370
     0
390
0
100
AcDbVertex
100
AcDb2dVertex
 10
84.287842
 20
150.843414
 30
0.0
  0
SEQEND
  5
27A
100
AcDbEntity
  8
0
370
     0
390
0
  0
ARC
  5
27B
100
AcDbEntity
  8
0
370
    35
390
0
 62
     7
100
AcDbCircle
 10
11.87747
 20
1163.789307
 30
0.0
 40
1016.13315
210
0.0
220
0.0
230
1.0
100
AcDbArc
 50
274.526022
 51
274.903821
  0
POLYLINE
  5
27C
100
AcDbEntity
  8
0
370
    35
390
0
 62
     7
100
AcDb2dPolyline
 66
     1
 10
0.0
 20
0.0
 30
0.0
 71
     8
  0
VERTEX
  5
27D
100
AcDbEntity
  8
0
370
     0
390
0
100
AcDbVertex
100
AcDb2dVertex
 10
98.739944
 20
151.375565
 30
0.0
  0
VERTEX
  5
27E
100
AcDbEntity
  8
0
370
     0
390
0
100
AcDbVertex
100
AcDb2dVertex
 10
99.211189
 20
151.468796
 30
0.0
  0
VERTEX
  5
27F
100
AcDbEntity
  8
0
370
     0
390
0
100
AcDbVertex
100
AcDb2dVertex
 10
99.663277
 20
151.663849
 30
0.0
  0
VERTEX
  5
280
100
AcDbEntity
  8
0
370
     0
390
0
100
AcDbVertex
100
AcDb2dVertex
 10
100.075371
 20
151.951874
 30
0.0
  0
VERTEX
  5
281
100
AcDbEntity
  8
0
370
     0
390
0
100
AcDbVertex
100
AcDb2dVertex
 10
100.440529
 20
152.333878
 30
0.0
  0
VERTEX
  5
282
100
AcDbEntity
  8
0
370
     0
390
0
100
AcDbVertex
100
AcDb2dVertex
 10
100.728722
 20
152.785507
 30
0.0
  0
VERTEX
  5
283
100
AcDbEntity
  8
0
370
     0
390
0
100
AcDbVertex
100
AcDb2dVertex
 10
100.928047
 20
153.28833
 30
0.0
  0
VERTEX
  5
284
100
AcDbEntity
  8
0
370
     0
390
0
100
AcDbVertex
100
AcDb2dVertex
 10
101.038155
 20
153.916855
 30
0.0
  0
SEQEND
  5
285
100
AcDbEntity
  8
0
370
     0
390
0
  0
ARC
  5
286
100
AcDbEntity
  8
0
370
    35
390
0
 62
     7
100
AcDbCircle
 10
26.920361
 20
154.148865
 30
0.0
 40
74.606021
210
0.0
220
0.0
230
1.0
100
AcDbArc
 50
9.520412
 51
10.26183
  0
ARC
  5
287
100
AcDbEntity
  8
0
370
    35
390
0
 62
     7
100
AcDbCircle
 10
98.150528
 20
167.045837
 30
0.0
 40
2.217734
210
0.0
220
0.0
230
1.0
100
AcDbArc
 50
10.229732
 51
17.008409
  0
LINE
  5
288
100
AcDbEntity
  8
0
370
    35
390
0
 62
     7
 48
0.440493
100
AcDbLine
 10
81.688438
 20
156.553329
 30
0.0
 11
94.624046
 21
168.516815
 31
0.0
210
0.0
220
0.0
230
1.0
  0
POLYLINE
  5
289
100
AcDbEntity
  8
0
370
    35
390
0
 62
     7
100
AcDb2dPolyline
 66
     1
 10
0.0
 20
0.0
 30
0.0
 71
     4
  0
VERTEX
  5
28A
100
AcDbEntity
  8
0
370
     0
390
0
100
AcDbVertex
100
AcDb2dVertex
 10
71.082069
 20
168.158722
 30
0.0
  0
VERTEX
  5
28B
100
AcDbEntity
  8
0
370
     0
390
0
100
AcDbVertex
100
AcDb2dVertex
 10
72.370018
 20
168.454361
 30
0.0
  0
VERTEX
  5
28C
100
AcDbEntity
  8
0
370
     0
390
0
100
AcDbVertex
100
AcDb2dVertex
 10
73.70993
 20
168.720703
 30
0.0
  0
VERTEX
  5
28D
100
AcDbEntity
  8
0
370
     0
390
0
100
AcDbVertex
100
AcDb2dVertex
 10
75.093422
 20
168.942017
 30
0.0
  0
SEQEND
  5
28E
100
AcDbEntity
  8
0
370
     0
390
0
  0
ARC
  5
28F
100
AcDbEntity
  8
0
370
    35
390
0
 62
     7
100
AcDbCircle
 10
113.239334
 20
-6.781998
 30
0.0
 40
179.948498
210
0.0
220
0.0
230
1.0
100
AcDbArc
 50
103.54883
 51
104.989973
  0
POLYLINE
  5
290
100
AcDbEntity
  8
0
370
    35
390
0
 62
     7
100
AcDb2dPolyline
 66
     1
 10
0.0
 20
0.0
 30
0.0
 71
     9
  0
VERTEX
  5
291
100
AcDbEntity
  8
0
370
     0
390
0
100
AcDbVertex
100
AcDb2dVertex
 10
64.783218
 20
164.39978
 30
0.0
  0
VERTEX
  5
292
100
AcDbEntity
  8
0
370
     0
390
0
100
AcDbVertex
100
AcDb2dVertex
 10
64.824066
 20
164.885727
 30
0.0
  0
VERTEX
  5
293
100
AcDbEntity
  8
0
370
     0
390
0
100
AcDbVertex
100
AcDb2dVertex
 10
64.94548
 20
165.356506
 30
0.0
  0
VERTEX
  5
294
100
AcDbEntity
  8
0
370
     0
390
0
100
AcDbVertex
100
AcDb2dVertex
 10
65.143608
 20
165.797272
 30
0.0
  0
VERTEX
  5
295
100
AcDbEntity
  8
0
370
     0
390
0
100
AcDbVertex
100
AcDb2dVertex
 10
65.407623
 20
166.188461
 30
0.0
  0
VERTEX
  5
296
100
AcDbEntity
  8
0
370
     0
390
0
100
AcDbVertex
100
AcDb2dVertex
 10
65.731316
 20
166.524155
 30
0.0
  0
VERTEX
  5
297
100
AcDbEntity
  8
0
370
     0
390
0
100
AcDbVertex
100
AcDb2dVertex
 10
66.10376
 20
166.792938
 30
0.0
  0
VERTEX
  5
298
100
AcDbEntity
  8
0
370
     0
390
0
100
AcDbVertex
100
AcDb2dVertex
 10
66.393387
 20
166.939011
 30
0.0
  0
VERTEX
  5
299
100
AcDbEntity
  8
0
370
     0
390
0
100
AcDbVertex
100
AcDb2dVertex
 10
66.695679
 20
167.042969
 30
0.0
  0
SEQEND
  5
29A
100
AcDbEntity
  8
0
370
     0
390
0
  0
LINE
  5
29B
100
AcDbEntity
  8
0
370
    35
390
0
 62
     7
 48
0.12856
100
AcDbLine
 10
64.783218
 20
164.39978
 30
0.0
 11
64.783218
 21
159.257385
 31
0.0
210
0.0
220
0.0
230
1.0
  0
ARC
  5
29C
100
AcDbEntity
  8
0
370
    35
390
0
 62
     7
100
AcDbCircle
 10
99.359833
 20
159.302216
 30
0.0
 40
34.576963
210
0.0
220
0.0
230
1.0
100
AcDbArc
 50
180.074294
 51
186.526323
  0
POLYLINE
  5
29D
100
AcDbEntity
  8
0
370
    35
390
0
 62
     7
100
AcDb2dPolyline
 66
     1
 10
0.0
 20
0.0
 30
0.0
 71
     9
  0
VERTEX
  5
29E
100
AcDbEntity
  8
0
370
     0
390
0
100
AcDbVertex
100
AcDb2dVertex
 10
65.006546
 20
155.372162
 30
0.0
  0
VERTEX
  5
29F
100
AcDbEntity
  8
0
370
     0
390
0
100
AcDbVertex
100
AcDb2dVertex
 10
65.097595
 20
154.926117
 30
0.0
  0
VERTEX
  5
2A0
100
AcDbEntity
  8
0
370
     0
390
0
100
AcDbVertex
100
AcDb2dVertex
 10
65.267204
 20
154.501144
 30
0.0
  0
VERTEX
  5
2A1
100
AcDbEntity
  8
0
370
     0
390
0
100
AcDbVertex
100
AcDb2dVertex
 10
65.510178
 20
154.111023
 30
0.0
  0
VERTEX
  5
2A2
100
AcDbEntity
  8
0
370
     0
390
0
100
AcDbVertex
100
AcDb2dVertex
 10
65.821686
 20
153.765701
 30
0.0
  0
VERTEX
  5
2A3
100
AcDbEntity
  8
0
370
     0
390
0
100
AcDbVertex
100
AcDb2dVertex
 10
66.190201
 20
153.479691
 30
0.0
  0
VERTEX
  5
2A4
100
AcDbEntity
  8
0
370
     0
390
0
100
AcDbVertex
100
AcDb2dVertex
 10
66.604118
 20
153.262283
 30
0.0
  0
VERTEX
  5
2A5
100
AcDbEntity
  8
0
370
     0
390
0
100
AcDbVertex
100
AcDb2dVertex
 10
66.93438
 20
153.149139
 30
0.0
  0
VERTEX
  5
2A6
100
AcDbEntity
  8
0
370
     0
390
0
100
AcDbVertex
100
AcDb2dVertex
 10
67.276871
 20
153.080032
 30
0.0
  0
SEQEND
  5
2A7
100
AcDbEntity
  8
0
370
     0
390
0
  0
ARC
  5
2A8
100
AcDbEntity
  8
0
370
    35
390
0
 62
     7
100
AcDbCircle
 10
71.519653
 20
184.794159
 30
0.0
 40
31.996765
210
0.0
220
0.0
230
1.0
100
AcDbArc
 50
262.380088
 51
266.798961
  0
ARC
  5
2A9
100
AcDbEntity
  8
0
370
    35
390
0
 62
     7
100
AcDbCircle
 10
69.879448
 20
155.461884
 30
0.0
 40
2.618772
210
0.0
220
0.0
230
1.0
100
AcDbArc
 50
266.793483
 51
284.777747
  0
ARC
  5
2AA
100
AcDbEntity
  8
0
370
    35
390
0
 62
     7
100
AcDbCircle
 10
57.960724
 20
151.311935
 30
0.0
 40
15.874573
210
0.0
220
0.0
230
1.0
100
AcDbArc
 50
96.601203
 51
99.759783
  0
POLYLINE
  5
2AB
100
AcDbEntity
  8
0
370
    35
390
0
 62
     7
100
AcDb2dPolyline
 66
     1
 10
0.0
 20
0.0
 30
0.0
 71
    11
  0
VERTEX
  5
2AC
100
AcDbEntity
  8
0
370
     0
390
0
100
AcDbVertex
100
AcDb2dVertex
 10
34.704903
 20
160.564331
 30
0.0
  0
VERTEX
  5
2AD
100
AcDbEntity
  8
0
370
     0
390
0
100
AcDbVertex
100
AcDb2dVertex
 10
35.55674
 20
161.047592
 30
0.0
  0
VERTEX
  5
2AE
100
AcDbEntity
  8
0
370
     0
390
0
100
AcDbVertex
100
AcDb2dVertex
 10
36.439892
 20
161.507874
 30
0.0
  0
VERTEX
  5
2AF
100
AcDbEntity
  8
0
370
     0
390
0
100
AcDbVertex
100
AcDb2dVertex
 10
38.362507
 20
162.402359
 30
0.0
  0
VERTEX
  5
2B0
100
AcDbEntity
  8
0
370
     0
390
0
100
AcDbVertex
100
AcDb2dVertex
 10
40.343643
 20
163.193466
 30
0.0
  0
VERTEX
  5
2B1
100
AcDbEntity
  8
0
370
     0
390
0
100
AcDbVertex
100
AcDb2dVertex
 10
42.376583
 20
163.894791
 30
0.0
  0
VERTEX
  5
2B2
100
AcDbEntity
  8
0
370
     0
390
0
100
AcDbVertex
100
AcDb2dVertex
 10
44.464306
 20
164.528976
 30
0.0
  0
VERTEX
  5
2B3
100
AcDbEntity
  8
0
370
     0
390
0
100
AcDbVertex
100
AcDb2dVertex
 10
47.377251
 20
165.308365
 30
0.0
  0
VERTEX
  5
2B4
100
AcDbEntity
  8
0
370
     0
390
0
100
AcDbVertex
100
AcDb2dVertex
 10
49.235836
 20
165.753082
 30
0.0
  0
VERTEX
  5
2B5
100
AcDbEntity
  8
0
370
     0
390
0
100
AcDbVertex
100
AcDb2dVertex
 10
52.979431
 20
166.539963
 30
0.0
  0
VERTEX
  5
2B6
100
AcDbEntity
  8
0
370
     0
390
0
100
AcDbVertex
100
AcDb2dVertex
 10
55.269703
 20
166.956741
 30
0.0
  0
SEQEND
  5
2B7
100
AcDbEntity
  8
0
370
     0
390
0
  0
ARC
  5
2B8
100
AcDbEntity
  8
0
370
    35
390
0
 62
     7
100
AcDbCircle
 10
43.095238
 20
171.344406
 30
0.0
 40
13.660446
210
0.0
220
0.0
230
1.0
100
AcDbArc
 50
232.105678
 51
234.285095
  0
POLYLINE
  5
2B9
100
AcDbEntity
  8
0
370
    35
390
0
 62
     7
100
AcDb2dPolyline
 66
     1
 10
0.0
 20
0.0
 30
0.0
 71
     8
  0
VERTEX
  5
2BA
100
AcDbEntity
  8
0
370
     0
390
0
100
AcDbVertex
100
AcDb2dVertex
 10
35.120911
 20
160.253036
 30
0.0
  0
VERTEX
  5
2BB
100
AcDbEntity
  8
0
370
     0
390
0
100
AcDbVertex
100
AcDb2dVertex
 10
37.107933
 20
159.506332
 30
0.0
  0
VERTEX
  5
2BC
100
AcDbEntity
  8
0
370
     0
390
0
100
AcDbVertex
100
AcDb2dVertex
 10
39.154308
 20
158.837524
 30
0.0
  0
VERTEX
  5
2BD
100
AcDbEntity
  8
0
370
     0
390
0
100
AcDbVertex
100
AcDb2dVertex
 10
41.254032
 20
158.219559
 30
0.0
  0
VERTEX
  5
2BE
100
AcDbEntity
  8
0
370
     0
390
0
100
AcDbVertex
100
AcDb2dVertex
 10
44.977158
 20
157.241531
 30
0.0
  0
VERTEX
  5
2BF
100
AcDbEntity
  8
0
370
     0
390
0
100
AcDbVertex
100
AcDb2dVertex
 10
48.728092
 20
156.37532
 30
0.0
  0
VERTEX
  5
2C0
100
AcDbEntity
  8
0
370
     0
390
0
100
AcDbVertex
100
AcDb2dVertex
 10
53.078518
 20
155.483139
 30
0.0
  0
VERTEX
  5
2C1
100
AcDbEntity
  8
0
370
     0
390
0
100
AcDbVertex
100
AcDb2dVertex
 10
56.376507
 20
154.866013
 30
0.0
  0
SEQEND
  5
2C2
100
AcDbEntity
  8
0
370
     0
390
0
  0
ARC
  5
2C3
100
AcDbEntity
  8
0
370
    35
390
0
 62
     7
100
AcDbCircle
 10
59.359901
 20
171.377319
 30
0.0
 40
16.778681
210
0.0
220
0.0
230
1.0
100
AcDbArc
 50
259.757862
 51
261.287798
  0
ARC
  5
2C4
100
AcDbEntity
  8
0
370
    35
390
0
 62
     7
100
AcDbCircle
 10
57.243332
 20
157.561737
 30
0.0
 40
2.801898
210
0.0
220
0.0
230
1.0
100
AcDbArc
 50
261.277156
 51
280.541595
  0
POLYLINE
  5
2C5
100
AcDbEntity
  8
0
370
    35
390
0
 62
     7
100
AcDb2dPolyline
 66
     1
 10
0.0
 20
0.0
 30
0.0
 71
    13
  0
VERTEX
  5
2C6
100
AcDbEntity
  8
0
370
     0
390
0
100
AcDbVertex
100
AcDb2dVertex
 10
392.777832
 20
122.075645
 30
0.0
  0
VERTEX
  5
2C7
100
AcDbEntity
  8
0
370
     0
390
0
100
AcDbVertex
100
AcDb2dVertex
 10
388.466675
 20
123.036407
 30
0.0
  0
VERTEX
  5
2C8
100
AcDbEntity
  8
0
370
     0
390
0
100
AcDbVertex
100
AcDb2dVertex
 10
385.602692
 20
123.721489
 30
0.0
  0
VERTEX
  5
2C9
100
AcDbEntity
  8
0
370
     0
390
0
100
AcDbVertex
100
AcDb2dVertex
 10
379.889771
 20
125.152145
 30
0.0
  0
VERTEX
  5
2CA
100
AcDbEntity
  8
0
370
     0
390
0
100
AcDbVertex
100
AcDb2dVertex
 10
369.508606
 20
127.861786
 30
0.0
  0
VERTEX
  5
2CB
100
AcDbEntity
  8
0
370
     0
390
0
100
AcDbVertex
100
AcDb2dVertex
 10
353.962006
 20
132.019775
 30
0.0
  0
VERTEX
  5
2CC
100
AcDbEntity
  8
0
370
     0
390
0
100
AcDbVertex
100
AcDb2dVertex
 10
338.411346
 20
136.168213
 30
0.0
  0
VERTEX
  5
2CD
100
AcDbEntity
  8
0
370
     0
390
0
100
AcDbVertex
100
AcDb2dVertex
 10
330.630554
 20
138.212723
 30
0.0
  0
VERTEX
  5
2CE
100
AcDbEntity
  8
0
370
     0
390
0
100
AcDbVertex
100
AcDb2dVertex
 10
316.336029
 20
141.879364
 30
0.0
  0
VERTEX
  5
2CF
100
AcDbEntity
  8
0
370
     0
390
0
100
AcDbVertex
100
AcDb2dVertex
 10
309.181335
 20
143.658249
 30
0.0
  0
VERTEX
  5
2D0
100
AcDbEntity
  8
0
370
     0
390
0
100
AcDbVertex
100
AcDb2dVertex
 10
302.004547
 20
145.398636
 30
0.0
  0
VERTEX
  5
2D1
100
AcDbEntity
  8
0
370
     0
390
0
100
AcDbVertex
100
AcDb2dVertex
 10
293.338379
 20
147.438614
 30
0.0
  0
VERTEX
  5
2D2
100
AcDbEntity
  8
0
370
     0
390
0
100
AcDbVertex
100
AcDb2dVertex
 10
284.654022
 20
149.414764
 30
0.0
  0
SEQEND
  5
2D3
100
AcDbEntity
  8
0
370
     0
390
0
  0
LINE
  5
2D4
100
AcDbEntity
  8
0
370
    35
390
0
 62
     7
 48
0.008251
100
AcDbLine
 10
393.100891
 20
122.008125
 30
0.0
 11
392.777832
 21
122.075645
 31
0.0
210
0.0
220
0.0
230
1.0
  0
LINE
  5
2D5
100
AcDbEntity
  8
0
370
    35
390
0
 62
     7
 48
0.007613
100
AcDbLine
 10
392.798553
 20
122.044518
 30
0.0
 11
393.100891
 21
122.008125
 31
0.0
210
0.0
220
0.0
230
1.0
  0
POLYLINE
  5
2D6
100
AcDbEntity
  8
0
370
    35
390
0
 62
     7
100
AcDb2dPolyline
 66
     1
 10
0.0
 20
0.0
 30
0.0
 71
    21
  0
VERTEX
  5
2D7
100
AcDbEntity
  8
0
370
     0
390
0
100
AcDbVertex
100
AcDb2dVertex
 10
392.798553
 20
122.044518
 30
0.0
  0
VERTEX
  5
2D8
100
AcDbEntity
  8
0
370
     0
390
0
100
AcDbVertex
100
AcDb2dVertex
 10
390.786926
 20
122.277611
 30
0.0
  0
VERTEX
  5
2D9
100
AcDbEntity
  8
0
370
     0
390
0
100
AcDbVertex
100
AcDb2dVertex
 10
386.760315
 20
122.71492
 30
0.0
  0
VERTEX
  5
2DA
100
AcDbEntity
  8
0
370
     0
390
0
100
AcDbVertex
100
AcDb2dVertex
 10
374.671814
 20
123.942467
 30
0.0
  0
VERTEX
  5
2DB
100
AcDbEntity
  8
0
370
     0
390
0
100
AcDbVertex
100
AcDb2dVertex
 10
366.514313
 20
124.707664
 30
0.0
  0
VERTEX
  5
2DC
100
AcDbEntity
  8
0
370
     0
390
0
100
AcDbVertex
100
AcDb2dVertex
 10
358.352905
 20
125.430435
 30
0.0
  0
VERTEX
  5
2DD
100
AcDbEntity
  8
0
370
     0
390
0
100
AcDbVertex
100
AcDb2dVertex
 10
348.626068
 20
126.24585
 30
0.0
  0
VERTEX
  5
2DE
100
AcDbEntity
  8
0
370
     0
390
0
100
AcDbVertex
100
AcDb2dVertex
 10
338.895874
 20
127.020119
 30
0.0
  0
VERTEX
  5
2DF
100
AcDbEntity
  8
0
370
     0
390
0
100
AcDbVertex
100
AcDb2dVertex
 10
327.197815
 20
127.905701
 30
0.0
  0
VERTEX
  5
2E0
100
AcDbEntity
  8
0
370
     0
390
0
100
AcDbVertex
100
AcDb2dVertex
 10
315.496735
 20
128.751068
 30
0.0
  0
VERTEX
  5
2E1
100
AcDbEntity
  8
0
370
     0
390
0
100
AcDbVertex
100
AcDb2dVertex
 10
296.101349
 20
130.087799
 30
0.0
  0
VERTEX
  5
2E2
100
AcDbEntity
  8
0
370
     0
390
0
100
AcDbVertex
100
AcDb2dVertex
 10
283.168945
 20
130.947861
 30
0.0
  0
VERTEX
  5
2E3
100
AcDbEntity
  8
0
370
     0
390
0
100
AcDbVertex
100
AcDb2dVertex
 10
257.301178
 20
132.622513
 30
0.0
  0
VERTEX
  5
2E4
100
AcDbEntity
  8
0
370
     0
390
0
100
AcDbVertex
100
AcDb2dVertex
 10
212.867432
 20
135.465744
 30
0.0
  0
VERTEX
  5
2E5
100
AcDbEntity
  8
0
370
     0
390
0
100
AcDbVertex
100
AcDb2dVertex
 10
183.249451
 20
137.430389
 30
0.0
  0
VERTEX
  5
2E6
100
AcDbEntity
  8
0
370
     0
390
0
100
AcDbVertex
100
AcDb2dVertex
 10
168.443619
 20
138.459167
 30
0.0
  0
VERTEX
  5
2E7
100
AcDbEntity
  8
0
370
     0
390
0
100
AcDbVertex
100
AcDb2dVertex
 10
147.915192
 20
139.963379
 30
0.0
  0
VERTEX
  5
2E8
100
AcDbEntity
  8
0
370
     0
390
0
100
AcDbVertex
100
AcDb2dVertex
 10
137.654343
 20
140.760544
 30
0.0
  0
VERTEX
  5
2E9
100
AcDbEntity
  8
0
370
     0
390
0
100
AcDbVertex
100
AcDb2dVertex
 10
127.39653
 20
141.596283
 30
0.0
  0
VERTEX
  5
2EA
100
AcDbEntity
  8
0
370
     0
390
0
100
AcDbVertex
100
AcDb2dVertex
 10
117.142693
 20
142.479309
 30
0.0
  0
VERTEX
  5
2EB
100
AcDbEntity
  8
0
370
     0
390
0
100
AcDbVertex
100
AcDb2dVertex
 10
106.894211
 20
143.421326
 30
0.0
  0
SEQEND
  5
2EC
100
AcDbEntity
  8
0
370
     0
390
0
  0
LINE
  5
2ED
100
AcDbEntity
  8
0
370
    35
390
0
 62
     7
 48
0.381147
100
AcDbLine
 10
106.894211
 20
143.421326
 30
0.0
 11
106.894211
 21
158.667221
 31
0.0
210
0.0
220
0.0
230
1.0
  0
LINE
  5
2EE
100
AcDbEntity
  8
0
370
    35
390
0
 62
     7
 48
0.0125
100
AcDbLine
 10
106.894211
 20
158.667221
 30
0.0
 11
106.394211
 21
158.667221
 31
0.0
210
0.0
220
0.0
230
1.0
  0
LINE
  5
2EF
100
AcDbEntity
  8
0
370
    35
390
0
 62
     7
 48
0.0125
100
AcDbLine
 10
106.394211
 20
158.667221
 30
0.0
 11
105.894211
 21
158.667221
 31
0.0
210
0.0
220
0.0
230
1.0
  0
LINE
  5
2F0
100
AcDbEntity
  8
0
370
    35
390
0
 62
     7
 48
0.378757
100
AcDbLine
 10
105.894211
 20
143.516983
 30
0.0
 11
105.894211
 21
158.667252
 31
0.0
210
0.0
220
0.0
230
1.0
  0
ARC
  5
2F1
100
AcDbEntity
  8
0
370
    35
390
0
 62
     7
100
AcDbCircle
 10
225.088303
 20
1386.800781
 30
0.0
 40
1248.984265
210
0.0
220
0.0
230
1.0
100
AcDbArc
 50
264.106289
 51
264.52377
  0
POLYLINE
  5
2F2
100
AcDbEntity
  8
0
370
    35
390
0
 62
     7
100
AcDb2dPolyline
 66
     1
 10
0.0
 20
0.0
 30
0.0
 71
    29
  0
VERTEX
  5
2F3
100
AcDbEntity
  8
0
370
     0
390
0
100
AcDbVertex
100
AcDb2dVertex
 10
26.996695
 20
159.83815
 30
0.0
  0
VERTEX
  5
2F4
100
AcDbEntity
  8
0
370
     0
390
0
100
AcDbVertex
100
AcDb2dVertex
 10
27.009256
 20
159.558304
 30
0.0
  0
VERTEX
  5
2F5
100
AcDbEntity
  8
0
370
     0
390
0
100
AcDbVertex
100
AcDb2dVertex
 10
27.109247
 20
159.295792
 30
0.0
  0
VERTEX
  5
2F6
100
AcDbEntity
  8
0
370
     0
390
0
100
AcDbVertex
100
AcDb2dVertex
 10
27.24144
 20
159.08432
 30
0.0
  0
VERTEX
  5
2F7
100
AcDbEntity
  8
0
370
     0
390
0
100
AcDbVertex
100
AcDb2dVertex
 10
27.393707
 20
158.888336
 30
0.0
  0
VERTEX
  5
2F8
100
AcDbEntity
  8
0
370
     0
390
0
100
AcDbVertex
100
AcDb2dVertex
 10
27.917053
 20
158.365479
 30
0.0
  0
VERTEX
  5
2F9
100
AcDbEntity
  8
0
370
     0
390
0
100
AcDbVertex
100
AcDb2dVertex
 10
28.337692
 20
158.025375
 30
0.0
  0
VERTEX
  5
2FA
100
AcDbEntity
  8
0
370
     0
390
0
100
AcDbVertex
100
AcDb2dVertex
 10
28.777184
 20
157.713013
 30
0.0
  0
VERTEX
  5
2FB
100
AcDbEntity
  8
0
370
     0
390
0
100
AcDbVertex
100
AcDb2dVertex
 10
29.386204
 20
157.328766
 30
0.0
  0
VERTEX
  5
2FC
100
AcDbEntity
  8
0
370
     0
390
0
100
AcDbVertex
100
AcDb2dVertex
 10
30.014271
 20
156.972687
 30
0.0
  0
VERTEX
  5
2FD
100
AcDbEntity
  8
0
370
     0
390
0
100
AcDbVertex
100
AcDb2dVertex
 10
30.865891
 20
156.53476
 30
0.0
  0
VERTEX
  5
2FE
100
AcDbEntity
  8
0
370
     0
390
0
100
AcDbVertex
100
AcDb2dVertex
 10
31.734104
 20
156.128555
 30
0.0
  0
VERTEX
  5
2FF
100
AcDbEntity
  8
0
370
     0
390
0
100
AcDbVertex
100
AcDb2dVertex
 10
32.872547
 20
155.643616
 30
0.0
  0
VERTEX
  5
300
100
AcDbEntity
  8
0
370
     0
390
0
100
AcDbVertex
100
AcDb2dVertex
 10
34.023319
 20
155.197174
 30
0.0
  0
VERTEX
  5
301
100
AcDbEntity
  8
0
370
     0
390
0
100
AcDbVertex
100
AcDb2dVertex
 10
35.43433
 20
154.696747
 30
0.0
  0
VERTEX
  5
302
100
AcDbEntity
  8
0
370
     0
390
0
100
AcDbVertex
100
AcDb2dVertex
 10
37.934887
 20
153.901886
 30
0.0
  0
VERTEX
  5
303
100
AcDbEntity
  8
0
370
     0
390
0
100
AcDbVertex
100
AcDb2dVertex
 10
40.464321
 20
153.181747
 30
0.0
  0
VERTEX
  5
304
100
AcDbEntity
  8
0
370
     0
390
0
100
AcDbVertex
100
AcDb2dVertex
 10
42.769993
 20
152.580139
 30
0.0
  0
VERTEX
  5
305
100
AcDbEntity
  8
0
370
     0
390
0
100
AcDbVertex
100
AcDb2dVertex
 10
45.085743
 20
152.020645
 30
0.0
  0
VERTEX
  5
306
100
AcDbEntity
  8
0
370
     0
390
0
100
AcDbVertex
100
AcDb2dVertex
 10
47.817902
 20
151.410721
 30
0.0
  0
VERTEX
  5
307
100
AcDbEntity
  8
0
370
     0
390
0
100
AcDbVertex
100
AcDb2dVertex
 10
50.556637
 20
150.84491
 30
0.0
  0
VERTEX
  5
308
100
AcDbEntity
  8
0
370
     0
390
0
100
AcDbVertex
100
AcDb2dVertex
 10
53.739986
 20
150.232834
 30
0.0
  0
VERTEX
  5
309
100
AcDbEntity
  8
0
370
     0
390
0
100
AcDbVertex
100
AcDb2dVertex
 10
56.93251
 20
149.658401
 30
0.0
  0
VERTEX
  5
30A
100
AcDbEntity
  8
0
370
     0
390
0
100
AcDbVertex
100
AcDb2dVertex
 10
60.511852
 20
149.053772
 30
0.0
  0
VERTEX
  5
30B
100
AcDbEntity
  8
0
370
     0
390
0
100
AcDbVertex
100
AcDb2dVertex
 10
64.097404
 20
148.485275
 30
0.0
  0
VERTEX
  5
30C
100
AcDbEntity
  8
0
370
     0
390
0
100
AcDbVertex
100
AcDb2dVertex
 10
71.280281
 20
147.443054
 30
0.0
  0
VERTEX
  5
30D
100
AcDbEntity
  8
0
370
     0
390
0
100
AcDbVertex
100
AcDb2dVertex
 10
78.471146
 20
146.501862
 30
0.0
  0
VERTEX
  5
30E
100
AcDbEntity
  8
0
370
     0
390
0
100
AcDbVertex
100
AcDb2dVertex
 10
87.649353
 20
145.411194
 30
0.0
  0
VERTEX
  5
30F
100
AcDbEntity
  8
0
370
     0
390
0
100
AcDbVertex
100
AcDb2dVertex
 10
96.838455
 20
144.418594
 30
0.0
  0
SEQEND
  5
310
100
AcDbEntity
  8
0
370
     0
390
0
  0
LINE
  5
311
100
AcDbEntity
  8
0
370
    35
390
0
 62
     7
 48
0.002113
100
AcDbLine
 10
26.996695
 20
159.83815
 30
0.0
 11
27.008213
 21
159.921875
 31
0.0
210
0.0
220
0.0
230
1.0
  0
POLYLINE
  5
312
100
AcDbEntity
  8
0
370
    35
390
0
 62
     7
100
AcDb2dPolyline
 66
     1
 10
0.0
 20
0.0
 30
0.0
 71
    28
  0
VERTEX
  5
313
100
AcDbEntity
  8
0
370
     0
390
0
100
AcDbVertex
100
AcDb2dVertex
 10
27.008213
 20
159.921875
 30
0.0
  0
VERTEX
  5
314
100
AcDbEntity
  8
0
370
     0
390
0
100
AcDbVertex
100
AcDb2dVertex
 10
27.086369
 20
160.222534
 30
0.0
  0
VERTEX
  5
315
100
AcDbEntity
  8
0
370
     0
390
0
100
AcDbVertex
100
AcDb2dVertex
 10
27.203514
 20
160.510132
 30
0.0
  0
VERTEX
  5
316
100
AcDbEntity
  8
0
370
     0
390
0
100
AcDbVertex
100
AcDb2dVertex
 10
27.37933
 20
160.844833
 30
0.0
  0
VERTEX
  5
317
100
AcDbEntity
  8
0
370
     0
390
0
100
AcDbVertex
100
AcDb2dVertex
 10
27.580669
 20
161.164795
 30
0.0
  0
VERTEX
  5
318
100
AcDbEntity
  8
0
370
     0
390
0
100
AcDbVertex
100
AcDb2dVertex
 10
27.900322
 20
161.595978
 30
0.0
  0
VERTEX
  5
319
100
AcDbEntity
  8
0
370
     0
390
0
100
AcDbVertex
100
AcDb2dVertex
 10
28.248924
 20
162.004395
 30
0.0
  0
VERTEX
  5
31A
100
AcDbEntity
  8
0
370
     0
390
0
100
AcDbVertex
100
AcDb2dVertex
 10
28.722897
 20
162.490982
 30
0.0
  0
VERTEX
  5
31B
100
AcDbEntity
  8
0
370
     0
390
0
100
AcDbVertex
100
AcDb2dVertex
 10
29.22691
 20
162.946915
 30
0.0
  0
VERTEX
  5
31C
100
AcDbEntity
  8
0
370
     0
390
0
100
AcDbVertex
100
AcDb2dVertex
 10
30.144932
 20
163.664047
 30
0.0
  0
VERTEX
  5
31D
100
AcDbEntity
  8
0
370
     0
390
0
100
AcDbVertex
100
AcDb2dVertex
 10
31.11153
 20
164.312546
 30
0.0
  0
VERTEX
  5
31E
100
AcDbEntity
  8
0
370
     0
390
0
100
AcDbVertex
100
AcDb2dVertex
 10
32.11095
 20
164.909134
 30
0.0
  0
VERTEX
  5
31F
100
AcDbEntity
  8
0
370
     0
390
0
100
AcDbVertex
100
AcDb2dVertex
 10
33.151939
 20
165.475983
 30
0.0
  0
VERTEX
  5
320
100
AcDbEntity
  8
0
370
     0
390
0
100
AcDbVertex
100
AcDb2dVertex
 10
34.210445
 20
166.00882
 30
0.0
  0
VERTEX
  5
321
100
AcDbEntity
  8
0
370
     0
390
0
100
AcDbVertex
100
AcDb2dVertex
 10
35.550396
 20
166.62999
 30
0.0
  0
VERTEX
  5
322
100
AcDbEntity
  8
0
370
     0
390
0
100
AcDbVertex
100
AcDb2dVertex
 10
36.910622
 20
167.204895
 30
0.0
  0
VERTEX
  5
323
100
AcDbEntity
  8
0
370
     0
390
0
100
AcDbVertex
100
AcDb2dVertex
 10
38.415962
 20
167.782257
 30
0.0
  0
VERTEX
  5
324
100
AcDbEntity
  8
0
370
     0
390
0
100
AcDbVertex
100
AcDb2dVertex
 10
39.939072
 20
168.312302
 30
0.0
  0
VERTEX
  5
325
100
AcDbEntity
  8
0
370
     0
390
0
100
AcDbVertex
100
AcDb2dVertex
 10
41.631744
 20
168.848953
 30
0.0
  0
VERTEX
  5
326
100
AcDbEntity
  8
0
370
     0
390
0
100
AcDbVertex
100
AcDb2dVertex
 10
43.336845
 20
169.344452
 30
0.0
  0
VERTEX
  5
327
100
AcDbEntity
  8
0
370
     0
390
0
100
AcDbVertex
100
AcDb2dVertex
 10
45.342915
 20
169.879578
 30
0.0
  0
VERTEX
  5
328
100
AcDbEntity
  8
0
370
     0
390
0
100
AcDbVertex
100
AcDb2dVertex
 10
47.359222
 20
170.372421
 30
0.0
  0
VERTEX
  5
329
100
AcDbEntity
  8
0
370
     0
390
0
100
AcDbVertex
100
AcDb2dVertex
 10
49.73082
 20
170.899689
 30
0.0
  0
VERTEX
  5
32A
100
AcDbEntity
  8
0
370
     0
390
0
100
AcDbVertex
100
AcDb2dVertex
 10
52.113308
 20
171.376022
 30
0.0
  0
VERTEX
  5
32B
100
AcDbEntity
  8
0
370
     0
390
0
100
AcDbVertex
100
AcDb2dVertex
 10
54.685265
 20
171.835617
 30
0.0
  0
VERTEX
  5
32C
100
AcDbEntity
  8
0
370
     0
390
0
100
AcDbVertex
100
AcDb2dVertex
 10
57.265873
 20
172.246338
 30
0.0
  0
VERTEX
  5
32D
100
AcDbEntity
  8
0
370
     0
390
0
100
AcDbVertex
100
AcDb2dVertex
 10
61.491436
 20
172.826416
 30
0.0
  0
VERTEX
  5
32E
100
AcDbEntity
  8
0
370
     0
390
0
100
AcDbVertex
100
AcDb2dVertex
 10
65.728455
 20
173.309708
 30
0.0
  0
SEQEND
  5
32F
100
AcDbEntity
  8
0
370
     0
390
0
  0
POLYLINE
  5
330
100
AcDbEntity
  8
0
370
    35
390
0
 62
     7
100
AcDb2dPolyline
 66
     1
 10
0.0
 20
0.0
 30
0.0
 71
    16
  0
VERTEX
  5
331
100
AcDbEntity
  8
0
370
     0
390
0
100
AcDbVertex
100
AcDb2dVertex
 10
65.728455
 20
173.309708
 30
0.0
  0
VERTEX
  5
332
100
AcDbEntity
  8
0
370
     0
390
0
100
AcDbVertex
100
AcDb2dVertex
 10
69.454636
 20
173.663162
 30
0.0
  0
VERTEX
  5
333
100
AcDbEntity
  8
0
370
     0
390
0
100
AcDbVertex
100
AcDb2dVertex
 10
73.026367
 20
173.944504
 30
0.0
  0
VERTEX
  5
334
100
AcDbEntity
  8
0
370
     0
390
0
100
AcDbVertex
100
AcDb2dVertex
 10
76.602036
 20
174.1745
 30
0.0
  0
VERTEX
  5
335
100
AcDbEntity
  8
0
370
     0
390
0
100
AcDbVertex
100
AcDb2dVertex
 10
80.465431
 20
174.370209
 30
0.0
  0
VERTEX
  5
336
100
AcDbEntity
  8
0
370
     0
390
0
100
AcDbVertex
100
AcDb2dVertex
 10
84.331001
 20
174.516037
 30
0.0
  0
VERTEX
  5
337
100
AcDbEntity
  8
0
370
     0
390
0
100
AcDbVertex
100
AcDb2dVertex
 10
88.56778
 20
174.623276
 30
0.0
  0
VERTEX
  5
338
100
AcDbEntity
  8
0
370
     0
390
0
100
AcDbVertex
100
AcDb2dVertex
 10
92.805428
 20
174.679337
 30
0.0
  0
VERTEX
  5
339
100
AcDbEntity
  8
0
370
     0
390
0
100
AcDbVertex
100
AcDb2dVertex
 10
100.212631
 20
174.663834
 30
0.0
  0
VERTEX
  5
33A
100
AcDbEntity
  8
0
370
     0
390
0
100
AcDbVertex
100
AcDb2dVertex
 10
107.618683
 20
174.517914
 30
0.0
  0
VERTEX
  5
33B
100
AcDbEntity
  8
0
370
     0
390
0
100
AcDbVertex
100
AcDb2dVertex
 10
115.021606
 20
174.25705
 30
0.0
  0
VERTEX
  5
33C
100
AcDbEntity
  8
0
370
     0
390
0
100
AcDbVertex
100
AcDb2dVertex
 10
122.420029
 20
173.894867
 30
0.0
  0
VERTEX
  5
33D
100
AcDbEntity
  8
0
370
     0
390
0
100
AcDbVertex
100
AcDb2dVertex
 10
128.204376
 20
173.547867
 30
0.0
  0
VERTEX
  5
33E
100
AcDbEntity
  8
0
370
     0
390
0
100
AcDbVertex
100
AcDb2dVertex
 10
133.985336
 20
173.148102
 30
0.0
  0
VERTEX
  5
33F
100
AcDbEntity
  8
0
370
     0
390
0
100
AcDbVertex
100
AcDb2dVertex
 10
144.15921
 20
172.319855
 30
0.0
  0
VERTEX
  5
340
100
AcDbEntity
  8
0
370
     0
390
0
100
AcDbVertex
100
AcDb2dVertex
 10
154.319687
 20
171.340988
 30
0.0
  0
SEQEND
  5
341
100
AcDbEntity
  8
0
370
     0
390
0
  0
POLYLINE
  5
342
100
AcDbEntity
  8
0
370
    35
390
0
 62
     7
100
AcDb2dPolyline
 66
     1
 10
0.0
 20
0.0
 30
0.0
 71
    13
  0
VERTEX
  5
343
100
AcDbEntity
  8
0
370
     0
390
0
100
AcDbVertex
100
AcDb2dVertex
 10
283.654022
 20
149.63797
 30
0.0
  0
VERTEX
  5
344
100
AcDbEntity
  8
0
370
     0
390
0
100
AcDbVertex
100
AcDb2dVertex
 10
274.125122
 20
151.720703
 30
0.0
  0
VERTEX
  5
345
100
AcDbEntity
  8
0
370
     0
390
0
100
AcDbVertex
100
AcDb2dVertex
 10
262.559418
 20
154.143219
 30
0.0
  0
VERTEX
  5
346
100
AcDbEntity
  8
0
370
     0
390
0
100
AcDbVertex
100
AcDb2dVertex
 10
250.972122
 20
156.460266
 30
0.0
  0
VERTEX
  5
347
100
AcDbEntity
  8
0
370
     0
390
0
100
AcDbVertex
100
AcDb2dVertex
 10
239.365387
 20
158.678085
 30
0.0
  0
VERTEX
  5
348
100
AcDbEntity
  8
0
370
     0
390
0
100
AcDbVertex
100
AcDb2dVertex
 10
227.740677
 20
160.799805
 30
0.0
  0
VERTEX
  5
349
100
AcDbEntity
  8
0
370
     0
390
0
100
AcDbVertex
100
AcDb2dVertex
 10
216.098129
 20
162.820969
 30
0.0
  0
VERTEX
  5
34A
100
AcDbEntity
  8
0
370
     0
390
0
100
AcDbVertex
100
AcDb2dVertex
 10
204.917068
 20
164.650742
 30
0.0
  0
VERTEX
  5
34B
100
AcDbEntity
  8
0
370
     0
390
0
100
AcDbVertex
100
AcDb2dVertex
 10
193.717346
 20
166.362457
 30
0.0
  0
VERTEX
  5
34C
100
AcDbEntity
  8
0
370
     0
390
0
100
AcDbVertex
100
AcDb2dVertex
 10
183.887909
 20
167.760849
 30
0.0
  0
VERTEX
  5
34D
100
AcDbEntity
  8
0
370
     0
390
0
100
AcDbVertex
100
AcDb2dVertex
 10
174.044937
 20
169.061127
 30
0.0
  0
VERTEX
  5
34E
100
AcDbEntity
  8
0
370
     0
390
0
100
AcDbVertex
100
AcDb2dVertex
 10
164.188858
 20
170.257935
 30
0.0
  0
VERTEX
  5
34F
100
AcDbEntity
  8
0
370
     0
390
0
100
AcDbVertex
100
AcDb2dVertex
 10
154.319687
 20
171.340988
 30
0.0
  0
SEQEND
  5
350
100
AcDbEntity
  8
0
370
     0
390
0
  0
LINE
  5
351
100
AcDbEntity
  8
0
370
    35
390
0
 62
     7
 48
0.235842
100
AcDbLine
 10
283.654022
 20
149.63797
 30
0.0
 11
283.654022
 21
140.2043
 31
0.0
210
0.0
220
0.0
230
1.0
  0
LINE
  5
352
100
AcDbEntity
  8
0
370
    35
390
0
 62
     7
 48
0.025
100
AcDbLine
 10
283.654022
 20
140.2043
 30
0.0
 11
284.654022
 21
140.2043
 31
0.0
210
0.0
220
0.0
230
1.0
  0
LINE
  5
353
100
AcDbEntity
  8
0
370
    35
390
0
 62
     7
 48
0.230262
100
AcDbLine
 10
284.654022
 20
149.414764
 30
0.0
 11
284.654022
 21
140.2043
 31
0.0
210
0.0
220
0.0
230
1.0
  0
ARC
  5
354
100
AcDbEntity
  8
0
370
    35
390
0
 62
     7
100
AcDbCircle
 10
293.157593
 20
138.099838
 30
0.0
 40
3.647563
210
0.0
220
0.0
230
1.0
100
AcDbArc
 50
182.472947
 51
191.143052
  0
LINE
  5
355
100
AcDbEntity
  8
0
370
    35
390
0
 62
     7
 48
0.003948
100
AcDbLine
 10
289.513428
 20
137.942459
 30
0.0
 11
289.51001
 21
138.100342
 31
0.0
210
0.0
220
0.0
230
1.0
  0
ARC
  5
356
100
AcDbEntity
  8
0
370
    35
390
0
 62
     7
100
AcDbCircle
 10
292.224274
 20
137.918915
 30
0.0
 40
2.696969
210
0.0
220
0.0
230
1.0
100
AcDbArc
 50
191.203732
 51
265.096953
  0
LINE
  5
357
100
AcDbEntity
  8
0
370
    35
390
0
 62
     7
 48
0.005003
100
AcDbLine
 10
292.193268
 20
135.216309
 30
0.0
 11
291.993744
 21
135.231583
 31
0.0
210
0.0
220
0.0
230
1.0
  0
POLYLINE
  5
358
100
AcDbEntity
  8
0
370
    35
390
0
 62
     7
100
AcDb2dPolyline
 66
     1
 10
0.0
 20
0.0
 30
0.0
 71
     3
  0
VERTEX
  5
359
100
AcDbEntity
  8
0
370
     0
390
0
100
AcDbVertex
100
AcDb2dVertex
 10
334.141998
 20
132.249298
 30
0.0
  0
VERTEX
  5
35A
100
AcDbEntity
  8
0
370
     0
390
0
100
AcDbVertex
100
AcDb2dVertex
 10
317.485321
 20
133.47438
 30
0.0
  0
VERTEX
  5
35B
100
AcDbEntity
  8
0
370
     0
390
0
100
AcDbVertex
100
AcDb2dVertex
 10
292.193268
 20
135.216309
 30
0.0
  0
SEQEND
  5
35C
100
AcDbEntity
  8
0
370
     0
390
0
  0
LINE
  5
35D
100
AcDbEntity
  8
0
370
    35
390
0
 62
     7
 48
0.005124
100
AcDbLine
 10
333.948944
 20
132.318161
 30
0.0
 11
334.141998
 21
132.249298
 31
0.0
210
0.0
220
0.0
230
1.0
  0
POLYLINE
  5
35E
100
AcDbEntity
  8
0
370
    35
390
0
 62
     7
100
AcDb2dPolyline
 66
     1
 10
0.0
 20
0.0
 30
0.0
 71
     5
  0
VERTEX
  5
35F
100
AcDbEntity
  8
0
370
     0
390
0
100
AcDbVertex
100
AcDb2dVertex
 10
333.948944
 20
132.318161
 30
0.0
  0
VERTEX
  5
360
100
AcDbEntity
  8
0
370
     0
390
0
100
AcDbVertex
100
AcDb2dVertex
 10
321.55188
 20
135.541656
 30
0.0
  0
VERTEX
  5
361
100
AcDbEntity
  8
0
370
     0
390
0
100
AcDbVertex
100
AcDb2dVertex
 10
309.276031
 20
138.632523
 30
0.0
  0
VERTEX
  5
362
100
AcDbEntity
  8
0
370
     0
390
0
100
AcDbVertex
100
AcDb2dVertex
 10
305.207001
 20
139.629776
 30
0.0
  0
VERTEX
  5
363
100
AcDbEntity
  8
0
370
     0
390
0
100
AcDbVertex
100
AcDb2dVertex
 10
292.984955
 20
142.53624
 30
0.0
  0
SEQEND
  5
364
100
AcDbEntity
  8
0
370
     0
390
0
  0
ARC
  5
365
100
AcDbEntity
  8
0
370
    35
390
0
 62
     7
100
AcDbCircle
 10
292.159058
 20
138.980377
 30
0.0
 40
3.650514
210
0.0
220
0.0
230
1.0
100
AcDbArc
 50
76.924015
 51
87.100546
  0
ARC
  5
366
100
AcDbEntity
  8
0
370
    35
390
0
 62
     7
100
AcDbCircle
 10
292.210327
 20
139.929672
 30
0.0
 40
2.700187
210
0.0
220
0.0
230
1.0
100
AcDbArc
 50
87.168063
 51
180.025813
  0
LINE
  5
367
100
AcDbEntity
  8
0
370
    35
390
0
 62
     7
 48
0.045703
100
AcDbLine
 10
289.51001
 20
139.928467
 30
0.0
 11
289.51001
 21
138.100342
 31
0.0
210
0.0
220
0.0
230
1.0
  0
ARC
  5
368
100
AcDbEntity
  8
0
370
    35
390
0
 62
     7
100
AcDbCircle
 10
274.686554
 20
136.783081
 30
0.0
 40
9.62646
210
0.0
220
0.0
230
1.0
100
AcDbArc
 50
73.78247
 51
77.716146
  0
ARC
  5
369
100
AcDbEntity
  8
0
370
    35
390
0
 62
     7
100
AcDbCircle
 10
16.499737
 20
-1049.585938
 30
0.0
 40
1223.76479
210
0.0
220
0.0
230
1.0
100
AcDbArc
 50
77.722246
 51
77.913798
  0
ARC
  5
36A
100
AcDbEntity
  8
0
370
    35
390
0
 62
     7
100
AcDbCircle
 10
272.319366
 20
145.122421
 30
0.0
 40
1.974036
210
0.0
220
0.0
230
1.0
100
AcDbArc
 50
77.837847
 51
167.188783
  0
ARC
  5
36B
100
AcDbEntity
  8
0
370
    35
390
0
 62
     7
100
AcDbCircle
 10
272.290222
 20
145.130798
 30
0.0
 40
1.943113
210
0.0
220
0.0
230
1.0
100
AcDbArc
 50
167.239053
 51
217.728102
  0
ARC
  5
36C
100
AcDbEntity
  8
0
370
    35
390
0
 62
     7
100
AcDbCircle
 10
278.576874
 20
150.014282
 30
0.0
 40
9.903464
210
0.0
220
0.0
230
1.0
100
AcDbArc
 50
217.818151
 51
226.166582
  0
LINE
  5
36D
100
AcDbEntity
  8
0
370
    35
390
0
 62
     7
 48
0.127187
100
AcDbLine
 10
275.39093
 20
139.350067
 30
0.0
 11
271.718109
 21
142.870392
 31
0.0
210
0.0
220
0.0
230
1.0
  0
ARC
  5
36E
100
AcDbEntity
  8
0
370
    35
390
0
 62
     7
100
AcDbCircle
 10
277.110352
 20
141.144028
 30
0.0
 40
2.4849
210
0.0
220
0.0
230
1.0
100
AcDbArc
 50
226.215555
 51
229.917285
  0
POLYLINE
  5
36F
100
AcDbEntity
  8
0
370
    35
390
0
 62
     7
100
AcDb2dPolyline
 66
     1
 10
0.0
 20
0.0
 30
0.0
 71
    11
  0
VERTEX
  5
370
100
AcDbEntity
  8
0
370
     0
390
0
100
AcDbVertex
100
AcDb2dVertex
 10
275.510345
 20
139.242798
 30
0.0
  0
VERTEX
  5
371
100
AcDbEntity
  8
0
370
     0
390
0
100
AcDbVertex
100
AcDb2dVertex
 10
275.867096
 20
139.00322
 30
0.0
  0
VERTEX
  5
372
100
AcDbEntity
  8
0
370
     0
390
0
100
AcDbVertex
100
AcDb2dVertex
 10
276.266937
 20
138.846329
 30
0.0
  0
VERTEX
  5
373
100
AcDbEntity
  8
0
370
     0
390
0
100
AcDbVertex
100
AcDb2dVertex
 10
276.690979
 20
138.779785
 30
0.0
  0
VERTEX
  5
374
100
AcDbEntity
  8
0
370
     0
390
0
100
AcDbVertex
100
AcDb2dVertex
 10
277.119171
 20
138.806503
 30
0.0
  0
VERTEX
  5
375
100
AcDbEntity
  8
0
370
     0
390
0
100
AcDbVertex
100
AcDb2dVertex
 10
277.531281
 20
138.924835
 30
0.0
  0
VERTEX
  5
376
100
AcDbEntity
  8
0
370
     0
390
0
100
AcDbVertex
100
AcDb2dVertex
 10
277.907776
 20
139.128906
 30
0.0
  0
VERTEX
  5
377
100
AcDbEntity
  8
0
370
     0
390
0
100
AcDbVertex
100
AcDb2dVertex
 10
278.22995
 20
139.408173
 30
0.0
  0
VERTEX
  5
378
100
AcDbEntity
  8
0
370
     0
390
0
100
AcDbVertex
100
AcDb2dVertex
 10
278.483582
 20
139.750076
 30
0.0
  0
VERTEX
  5
379
100
AcDbEntity
  8
0
370
     0
390
0
100
AcDbVertex
100
AcDb2dVertex
 10
278.656525
 20
140.138382
 30
0.0
  0
VERTEX
  5
37A
100
AcDbEntity
  8
0
370
     0
390
0
100
AcDbVertex
100
AcDb2dVertex
 10
278.736969
 20
140.515045
 30
0.0
  0
SEQEND
  5
37B
100
AcDbEntity
  8
0
370
     0
390
0
  0
ARC
  5
37C
100
AcDbEntity
  8
0
370
    35
390
0
 62
     7
100
AcDbCircle
 10
268.929077
 20
141.612076
 30
0.0
 40
9.869038
210
0.0
220
0.0
230
1.0
100
AcDbArc
 50
353.617922
 51
357.424644
  0
ARC
  5
37D
100
AcDbEntity
  8
0
370
    35
390
0
 62
     7
100
AcDbCircle
 10
269.083557
 20
141.606247
 30
0.0
 40
9.714446
210
0.0
220
0.0
230
1.0
100
AcDbArc
 50
357.417987
 51
359.992354
  0
LINE
  5
37E
100
AcDbEntity
  8
0
370
    35
390
0
 62
     7
 48
0.063065
100
AcDbLine
 10
278.798004
 20
141.60495
 30
0.0
 11
278.798004
 21
144.127548
 31
0.0
210
0.0
220
0.0
230
1.0
  0
ARC
  5
37F
100
AcDbEntity
  8
0
370
    35
390
0
 62
     7
100
AcDbCircle
 10
276.820679
 20
144.128815
 30
0.0
 40
1.977135
210
0.0
220
0.0
230
1.0
100
AcDbArc
 50
359.963175
 51
73.714106
  0
ARC
  5
380
100
AcDbEntity
  8
0
370
    35
390
0
 62
     7
100
AcDbCircle
 10
256.521423
 20
140.721817
 30
0.0
 40
8.160778
210
0.0
220
0.0
230
1.0
100
AcDbArc
 50
46.383118
 51
50.932307
  0
ARC
  5
381
100
AcDbEntity
  8
0
370
    35
390
0
 62
     7
100
AcDbCircle
 10
258.07666
 20
142.638474
 30
0.0
 40
5.69246
210
0.0
220
0.0
230
1.0
100
AcDbArc
 50
50.927748
 51
115.105722
  0
ARC
  5
382
100
AcDbEntity
  8
0
370
    35
390
0
 62
     7
100
AcDbCircle
 10
259.128326
 20
140.400314
 30
0.0
 40
8.16529
210
0.0
220
0.0
230
1.0
100
AcDbArc
 50
115.12445
 51
124.382744
  0
LINE
  5
383
100
AcDbEntity
  8
0
370
    35
390
0
 62
     7
 48
0.17302
100
AcDbLine
 10
248.806
 20
143.230148
 30
0.0
 11
254.517242
 21
147.138992
 31
0.0
210
0.0
220
0.0
230
1.0
  0
LINE
  5
384
100
AcDbEntity
  8
0
370
    35
390
0
 62
     7
 48
0.005276
100
AcDbLine
 10
248.806
 20
143.230148
 30
0.0
 11
248.633179
 21
143.109009
 31
0.0
210
0.0
220
0.0
230
1.0
  0
ARC
  5
385
100
AcDbEntity
  8
0
370
    35
390
0
 62
     7
100
AcDbCircle
 10
250.284653
 20
140.795349
 30
0.0
 40
2.838094
210
0.0
220
0.0
230
1.0
100
AcDbArc
 50
174.718548
 51
255.343532
  0
ARC
  5
386
100
AcDbEntity
  8
0
370
    35
390
0
 62
     7
100
AcDbCircle
 10
250.293243
 20
140.796356
 30
0.0
 40
2.846783
210
0.0
220
0.0
230
1.0
100
AcDbArc
 50
125.671437
 51
174.754652
  0
ARC
  5
387
100
AcDbEntity
  8
0
370
    35
390
0
 62
     7
100
AcDbCircle
 10
250.591324
 20
141.989868
 30
0.0
 40
4.071077
210
0.0
220
0.0
230
1.0
100
AcDbArc
 50
255.421669
 51
266.362102
  0
LINE
  5
388
100
AcDbEntity
  8
0
370
    35
390
0
 62
     7
 48
0.361827
100
AcDbLine
 10
264.776672
 20
137.004852
 30
0.0
 11
250.333008
 21
137.926987
 31
0.0
210
0.0
220
0.0
230
1.0
  0
ARC
  5
389
100
AcDbEntity
  8
0
370
    35
390
0
 62
     7
100
AcDbCircle
 10
265.037659
 20
141.072983
 30
0.0
 40
4.076491
210
0.0
220
0.0
230
1.0
100
AcDbArc
 50
266.329331
 51
275.212832
  0
ARC
  5
38A
100
AcDbEntity
  8
0
370
    35
390
0
 62
     7
100
AcDbCircle
 10
265.147247
 20
139.84436
 30
0.0
 40
2.843187
210
0.0
220
0.0
230
1.0
100
AcDbArc
 50
275.263519
 51
357.220224
  0
ARC
  5
38B
100
AcDbEntity
  8
0
370
    35
390
0
 62
     7
100
AcDbCircle
 10
265.143768
 20
139.845825
 30
0.0
 40
2.84684
210
0.0
220
0.0
230
1.0
100
AcDbArc
 50
357.194052
 51
46.374983
  0
LINE
  5
38C
100
AcDbEntity
  8
0
370
    35
390
0
 62
     7
 48
0.171175
100
AcDbLine
 10
267.10788
 20
141.906555
 30
0.0
 11
262.151001
 21
146.629974
 31
0.0
210
0.0
220
0.0
230
1.0
  0
ARC
  5
38D
100
AcDbEntity
  8
0
370
    35
390
0
 62
     7
100
AcDbCircle
 10
237.759064
 20
148.357025
 30
0.0
 40
8.37917
210
0.0
220
0.0
230
1.0
100
AcDbArc
 50
226.431498
 51
233.588853
  0
ARC
  5
38E
100
AcDbEntity
  8
0
370
    35
390
0
 62
     7
100
AcDbCircle
 10
236.154617
 20
146.18277
 30
0.0
 40
5.677032
210
0.0
220
0.0
230
1.0
100
AcDbArc
 50
233.595287
 51
295.842257
  0
ARC
  5
38F
100
AcDbEntity
  8
0
370
    35
390
0
 62
     7
100
AcDbCircle
 10
234.974548
 20
148.615112
 30
0.0
 40
8.380484
210
0.0
220
0.0
230
1.0
100
AcDbArc
 50
295.854634
 51
304.328788
  0
LINE
  5
390
100
AcDbEntity
  8
0
370
    35
390
0
 62
     7
 48
0.239671
100
AcDbLine
 10
239.700653
 20
141.694397
 30
0.0
 11
247.617157
 21
147.10144
 31
0.0
210
0.0
220
0.0
230
1.0
  0
LINE
  5
391
100
AcDbEntity
  8
0
370
    35
390
0
 62
     7
 48
0.005049
100
AcDbLine
 10
247.617157
 20
147.10144
 30
0.0
 11
247.782593
 21
147.217255
 31
0.0
210
0.0
220
0.0
230
1.0
  0
ARC
  5
392
100
AcDbEntity
  8
0
370
    35
390
0
 62
     7
100
AcDbCircle
 10
246.145706
 20
149.526764
 30
0.0
 40
2.82038
210
0.0
220
0.0
230
1.0
100
AcDbArc
 50
355.648307
 51
65.14952
  0
ARC
  5
393
100
AcDbEntity
  8
0
370
    35
390
0
 62
     7
100
AcDbCircle
 10
246.134674
 20
149.519928
 30
0.0
 40
2.8315
210
0.0
220
0.0
230
1.0
100
AcDbArc
 50
305.589388
 51
355.803049
  0
ARC
  5
394
100
AcDbEntity
  8
0
370
    35
390
0
 62
     7
100
AcDbCircle
 10
245.586075
 20
148.300629
 30
0.0
 40
4.167774
210
0.0
220
0.0
230
1.0
100
AcDbArc
 50
65.252069
 51
79.123288
  0
ARC
  5
395
100
AcDbEntity
  8
0
370
    35
390
0
 62
     7
100
AcDbCircle
 10
-20.151691
 20
-1233.861084
 30
0.0
 40
1411.643309
210
0.0
220
0.0
230
1.0
100
AcDbArc
 50
79.116991
 51
79.996569
  0
ARC
  5
396
100
AcDbEntity
  8
0
370
    35
390
0
 62
     7
100
AcDbCircle
 10
224.336487
 20
152.21196
 30
0.0
 40
4.172788
210
0.0
220
0.0
230
1.0
100
AcDbArc
 50
80.003051
 51
93.912567
  0
ARC
  5
397
100
AcDbEntity
  8
0
370
    35
390
0
 62
     7
100
AcDbCircle
 10
224.251617
 20
153.553955
 30
0.0
 40
2.828613
210
0.0
220
0.0
230
1.0
100
AcDbArc
 50
94.052408
 51
180.514732
  0
ARC
  5
398
100
AcDbEntity
  8
0
370
    35
390
0
 62
     7
100
AcDbCircle
 10
224.261322
 20
153.55072
 30
0.0
 40
2.838676
210
0.0
220
0.0
230
1.0
100
AcDbArc
 50
180.447605
 51
226.423083
  0
LINE
  5
399
100
AcDbEntity
  8
0
370
    35
390
0
 62
     7
 48
0.333995
100
AcDbLine
 10
231.983963
 20
142.285889
 30
0.0
 11
222.304565
 21
151.494247
 31
0.0
210
0.0
220
0.0
230
1.0
  0
ARC
  5
39A
100
AcDbEntity
  8
0
370
    35
390
0
 62
     7
100
AcDbCircle
 10
206.396347
 20
149.598984
 30
0.0
 40
8.472208
210
0.0
220
0.0
230
1.0
100
AcDbArc
 50
46.45017
 51
50.548379
  0
ARC
  5
39B
100
AcDbEntity
  8
0
370
    35
390
0
 62
     7
100
AcDbCircle
 10
208.179749
 20
151.768631
 30
0.0
 40
5.663533
210
0.0
220
0.0
230
1.0
100
AcDbArc
 50
50.532454
 51
111.990876
  0
ARC
  5
39C
100
AcDbEntity
  8
0
370
    35
390
0
 62
     7
100
AcDbCircle
 10
209.240845
 20
149.160706
 30
0.0
 40
8.47886
210
0.0
220
0.0
230
1.0
100
AcDbArc
 50
112.040401
 51
124.300495
  0
LINE
  5
39D
100
AcDbEntity
  8
0
370
    35
390
0
 62
     7
 48
0.404743
100
AcDbLine
 10
191.089981
 20
147.039444
 30
0.0
 11
204.462723
 21
156.165024
 31
0.0
210
0.0
220
0.0
230
1.0
  0
ARC
  5
39E
100
AcDbEntity
  8
0
370
    35
390
0
 62
     7
100
AcDbCircle
 10
195.92186
 20
139.958939
 30
0.0
 40
8.572077
210
0.0
220
0.0
230
1.0
100
AcDbArc
 50
124.310344
 51
127.05522
  0
ARC
  5
39F
100
AcDbEntity
  8
0
370
    35
390
0
 62
     7
100
AcDbCircle
 10
192.429581
 20
144.537964
 30
0.0
 40
2.796818
210
0.0
220
0.0
230
1.0
100
AcDbArc
 50
186.184718
 51
246.636837
  0
ARC
  5
3A0
100
AcDbEntity
  8
0
370
    35
390
0
 62
     7
100
AcDbCircle
 10
192.458786
 20
144.542969
 30
0.0
 40
2.826865
210
0.0
220
0.0
230
1.0
100
AcDbArc
 50
127.02585
 51
186.221983
  0
ARC
  5
3A1
100
AcDbEntity
  8
0
370
    35
390
0
 62
     7
100
AcDbCircle
 10
192.973892
 20
145.839035
 30
0.0
 40
4.206874
210
0.0
220
0.0
230
1.0
100
AcDbArc
 50
246.858395
 51
266.187058
  0
ARC
  5
3A2
100
AcDbEntity
  8
0
370
    35
390
0
 62
     7
100
AcDbCircle
 10
913.791016
 20
10967.881836
 30
0.0
 40
10850.228949
210
0.0
220
0.0
230
1.0
100
AcDbArc
 50
266.18936
 51
266.341393
  0
ARC
  5
3A3
100
AcDbEntity
  8
0
370
    35
390
0
 62
     7
100
AcDbCircle
 10
221.693542
 20
143.979202
 30
0.0
 40
4.222321
210
0.0
220
0.0
230
1.0
100
AcDbArc
 50
266.327548
 51
280.774279
  0
ARC
  5
3A4
100
AcDbEntity
  8
0
370
    35
390
0
 62
     7
100
AcDbCircle
 10
221.948486
 20
142.601196
 30
0.0
 40
2.821346
210
0.0
220
0.0
230
1.0
100
AcDbArc
 50
280.919687
 51
357.265334
  0
ARC
  5
3A5
100
AcDbEntity
  8
0
370
    35
390
0
 62
     7
100
AcDbCircle
 10
221.935989
 20
142.605026
 30
0.0
 40
2.834358
210
0.0
220
0.0
230
1.0
100
AcDbArc
 50
357.199819
 51
46.44378
  0
LINE
  5
3A6
100
AcDbEntity
  8
0
370
    35
390
0
 62
     7
 48
0.402045
100
AcDbLine
 10
223.889038
 20
144.659073
 30
0.0
 11
212.233566
 21
155.739426
 31
0.0
210
0.0
220
0.0
230
1.0
  0
ARC
  5
3A7
100
AcDbEntity
  8
0
370
    35
390
0
 62
     7
100
AcDbCircle
 10
178.377838
 20
149.977325
 30
0.0
 40
5.657444
210
0.0
220
0.0
230
1.0
100
AcDbArc
 50
226.392853
 51
288.540519
  0
ARC
  5
3A8
100
AcDbEntity
  8
0
370
    35
390
0
 62
     7
100
AcDbCircle
 10
177.496017
 20
152.56459
 30
0.0
 40
8.390559
210
0.0
220
0.0
230
1.0
100
AcDbArc
 50
288.631818
 51
304.317071
  0
LINE
  5
3A9
100
AcDbEntity
  8
0
370
    35
390
0
 62
     7
 48
0.441514
100
AcDbLine
 10
182.226379
 20
145.634567
 30
0.0
 11
196.810318
 21
155.594696
 31
0.0
210
0.0
220
0.0
230
1.0
  0
ARC
  5
3AA
100
AcDbEntity
  8
0
370
    35
390
0
 62
     7
100
AcDbCircle
 10
191.842346
 20
162.867859
 30
0.0
 40
8.807936
210
0.0
220
0.0
230
1.0
100
AcDbArc
 50
304.335236
 51
308.896398
  0
ARC
  5
3AB
100
AcDbEntity
  8
0
370
    35
390
0
 62
     7
100
AcDbCircle
 10
195.6073
 20
158.206696
 30
0.0
 40
2.815999
210
0.0
220
0.0
230
1.0
100
AcDbArc
 50
308.827386
 51
3.769495
  0
ARC
  5
3AC
100
AcDbEntity
  8
0
370
    35
390
0
 62
     7
100
AcDbCircle
 10
195.638626
 20
158.2146
 30
0.0
 40
2.783742
210
0.0
220
0.0
230
1.0
100
AcDbArc
 50
3.649617
 51
60.667359
  0
ARC
  5
3AD
100
AcDbEntity
  8
0
370
    35
390
0
 62
     7
100
AcDbCircle
 10
194.984467
 20
157.018219
 30
0.0
 40
4.147095
210
0.0
220
0.0
230
1.0
100
AcDbArc
 50
60.885577
 51
81.545519
  0
ARC
  5
3AE
100
AcDbEntity
  8
0
370
    35
390
0
 62
     7
100
AcDbCircle
 10
53.861641
 20
-788.38678
 30
0.0
 40
960.026571
210
0.0
220
0.0
230
1.0
100
AcDbArc
 50
81.510166
 51
83.016783
  0
ARC
  5
3AF
100
AcDbEntity
  8
0
370
    35
390
0
 62
     7
100
AcDbCircle
 10
68.107376
 20
-674.180115
 30
0.0
 40
844.934633
210
0.0
220
0.0
230
1.0
100
AcDbArc
 50
83.034077
 51
83.65503
  0
ARC
  5
3B0
100
AcDbEntity
  8
0
370
    35
390
0
 62
     7
100
AcDbCircle
 10
161.024216
 20
161.431595
 30
0.0
 40
4.172772
210
0.0
220
0.0
230
1.0
100
AcDbArc
 50
83.66199
 51
97.983899
  0
ARC
  5
3B1
100
AcDbEntity
  8
0
370
    35
390
0
 62
     7
100
AcDbCircle
 10
160.84491
 20
162.762009
 30
0.0
 40
2.830912
210
0.0
220
0.0
230
1.0
100
AcDbArc
 50
98.130045
 51
192.410462
  0
ARC
  5
3B2
100
AcDbEntity
  8
0
370
    35
390
0
 62
     7
100
AcDbCircle
 10
160.852341
 20
162.759979
 30
0.0
 40
2.838192
210
0.0
220
0.0
230
1.0
100
AcDbArc
 50
192.338062
 51
226.425884
  0
LINE
  5
3B3
100
AcDbEntity
  8
0
370
    35
390
0
 62
     7
100
AcDbLine
 10
174.475662
 20
145.880661
 30
0.0
 11
158.896011
 21
160.703751
 31
0.0
210
0.0
220
0.0
230
1.0
  0
LINE
  5
3B4
100
AcDbEntity
  8
0
370
    35
390
0
 62
     7
 48
0.005175
100
AcDbLine
 10
149.868408
 20
163.960312
 30
0.0
 11
150.02005
 21
163.819412
 31
0.0
210
0.0
220
0.0
230
1.0
  0
ARC
  5
3B5
100
AcDbEntity
  8
0
370
    35
390
0
 62
     7
100
AcDbCircle
 10
146.048523
 20
159.744812
 30
0.0
 40
5.688623
210
0.0
220
0.0
230
1.0
100
AcDbArc
 50
47.818527
 51
112.369712
  0
ARC
  5
3B6
100
AcDbEntity
  8
0
370
    35
390
0
 62
     7
100
AcDbCircle
 10
146.982071
 20
157.491379
 30
0.0
 40
8.127605
210
0.0
220
0.0
230
1.0
100
AcDbArc
 50
112.409785
 51
124.389602
  0
LINE
  5
3B7
100
AcDbEntity
  8
0
370
    35
390
0
 62
     7
100
AcDbLine
 10
125.068787
 20
152.338074
 30
0.0
 11
142.391464
 21
164.19841
 31
0.0
210
0.0
220
0.0
230
1.0
  0
ARC
  5
3B8
100
AcDbEntity
  8
0
370
    35
390
0
 62
     7
100
AcDbCircle
 10
130.494278
 20
144.419678
 30
0.0
 40
9.598807
210
0.0
220
0.0
230
1.0
100
AcDbArc
 50
124.417988
 51
131.736304
  0
ARC
  5
3B9
100
AcDbEntity
  8
0
370
    35
390
0
 62
     7
100
AcDbCircle
 10
125.93792
 20
149.487305
 30
0.0
 40
2.77021
210
0.0
220
0.0
230
1.0
100
AcDbArc
 50
181.806471
 51
239.755394
  0
ARC
  5
3BA
100
AcDbEntity
  8
0
370
    35
390
0
 62
     7
100
AcDbCircle
 10
125.964615
 20
149.49292
 30
0.0
 40
2.797528
210
0.0
220
0.0
230
1.0
100
AcDbArc
 50
131.678247
 51
181.90402
  0
ARC
  5
3BB
100
AcDbEntity
  8
0
370
    35
390
0
 62
     7
100
AcDbCircle
 10
126.539581
 20
150.550369
 30
0.0
 40
3.991682
210
0.0
220
0.0
230
1.0
100
AcDbArc
 50
239.980708
 51
265.223974
  0
POLYLINE
  5
3BC
100
AcDbEntity
  8
0
370
    35
390
0
 62
     7
100
AcDb2dPolyline
 66
     1
 10
0.0
 20
0.0
 30
0.0
 71
     4
  0
VERTEX
  5
3BD
100
AcDbEntity
  8
0
370
     0
390
0
100
AcDbVertex
100
AcDb2dVertex
 10
126.207207
 20
146.572311
 30
0.0
  0
VERTEX
  5
3BE
100
AcDbEntity
  8
0
370
     0
390
0
100
AcDbVertex
100
AcDb2dVertex
 10
135.58606
 20
145.79213
 30
0.0
  0
VERTEX
  5
3BF
100
AcDbEntity
  8
0
370
     0
390
0
100
AcDbVertex
100
AcDb2dVertex
 10
144.959381
 20
145.049088
 30
0.0
  0
VERTEX
  5
3C0
100
AcDbEntity
  8
0
370
     0
390
0
100
AcDbVertex
100
AcDb2dVertex
 10
163.709518
 20
143.648056
 30
0.0
  0
SEQEND
  5
3C1
100
AcDbEntity
  8
0
370
     0
390
0
  0
ARC
  5
3C2
100
AcDbEntity
  8
0
370
    35
390
0
 62
     7
100
AcDbCircle
 10
164.001617
 20
147.693741
 30
0.0
 40
4.056216
210
0.0
220
0.0
230
1.0
100
AcDbArc
 50
265.870486
 51
273.78341
  0
ARC
  5
3C3
100
AcDbEntity
  8
0
370
    35
390
0
 62
     7
100
AcDbCircle
 10
164.079071
 20
146.485458
 30
0.0
 40
2.845685
210
0.0
220
0.0
230
1.0
100
AcDbArc
 50
273.832676
 51
9.095856
  0
ARC
  5
3C4
100
AcDbEntity
  8
0
370
    35
390
0
 62
     7
100
AcDbCircle
 10
164.077393
 20
146.486649
 30
0.0
 40
2.847289
210
0.0
220
0.0
230
1.0
100
AcDbArc
 50
9.066824
 51
46.370564
  0
LINE
  5
3C5
100
AcDbEntity
  8
0
370
    35
390
0
 62
     7
100
AcDbLine
 10
166.041992
 20
148.547562
 30
0.0
 11
150.02005
 21
163.819412
 31
0.0
210
0.0
220
0.0
230
1.0
  0
ARC
  5
3C6
100
AcDbEntity
  8
0
370
    35
390
0
 62
     7
100
AcDbCircle
 10
123.238747
 20
155.211166
 30
0.0
 40
11.48978
210
0.0
220
0.0
230
1.0
100
AcDbArc
 50
183.219951
 51
192.302942
  0
ARC
  5
3C7
100
AcDbEntity
  8
0
370
    35
390
0
 62
     7
100
AcDbCircle
 10
122.889343
 20
155.181015
 30
0.0
 40
11.139134
210
0.0
220
0.0
230
1.0
100
AcDbArc
 50
180.002003
 51
183.166102
  0
ARC
  5
3C8
100
AcDbEntity
  8
0
370
    35
390
0
 62
     7
100
AcDbCircle
 10
114.60215
 20
153.322891
 30
0.0
 40
2.649171
210
0.0
220
0.0
230
1.0
100
AcDbArc
 50
192.203002
 51
261.15355
  0
POLYLINE
  5
3C9
100
AcDbEntity
  8
0
370
    35
390
0
 62
     7
100
AcDb2dPolyline
 66
     1
 10
0.0
 20
0.0
 30
0.0
 71
     6
  0
VERTEX
  5
3CA
100
AcDbEntity
  8
0
370
     0
390
0
100
AcDbVertex
100
AcDb2dVertex
 10
114.19474
 20
150.705261
 30
0.0
  0
VERTEX
  5
3CB
100
AcDbEntity
  8
0
370
     0
390
0
100
AcDbVertex
100
AcDb2dVertex
 10
114.829117
 20
150.666046
 30
0.0
  0
VERTEX
  5
3CC
100
AcDbEntity
  8
0
370
     0
390
0
100
AcDbVertex
100
AcDb2dVertex
 10
115.470512
 20
150.741837
 30
0.0
  0
VERTEX
  5
3CD
100
AcDbEntity
  8
0
370
     0
390
0
100
AcDbVertex
100
AcDb2dVertex
 10
116.095268
 20
150.929688
 30
0.0
  0
VERTEX
  5
3CE
100
AcDbEntity
  8
0
370
     0
390
0
100
AcDbVertex
100
AcDb2dVertex
 10
116.485245
 20
151.110565
 30
0.0
  0
VERTEX
  5
3CF
100
AcDbEntity
  8
0
370
     0
390
0
100
AcDbVertex
100
AcDb2dVertex
 10
116.852844
 20
151.334091
 30
0.0
  0
SEQEND
  5
3D0
100
AcDbEntity
  8
0
370
     0
390
0
  0
LINE
  5
3D1
100
AcDbEntity
  8
0
370
    35
390
0
 62
     7
 48
0.476615
100
AcDbLine
 10
116.852844
 20
151.334091
 30
0.0
 11
132.561279
 21
162.137024
 31
0.0
210
0.0
220
0.0
230
1.0
  0
ARC
  5
3D2
100
AcDbEntity
  8
0
370
    35
390
0
 62
     7
100
AcDbCircle
 10
126.203346
 20
171.374268
 30
0.0
 40
11.213872
210
0.0
220
0.0
230
1.0
100
AcDbArc
 50
304.539356
 51
314.711994
  0
ARC
  5
3D3
100
AcDbEntity
  8
0
370
    35
390
0
 62
     7
100
AcDbCircle
 10
132.156784
 20
165.364532
 30
0.0
 40
2.754687
210
0.0
220
0.0
230
1.0
100
AcDbArc
 50
314.655559
 51
23.059972
  0
ARC
  5
3D4
100
AcDbEntity
  8
0
370
    35
390
0
 62
     7
100
AcDbCircle
 10
132.163147
 20
165.368927
 30
0.0
 40
2.747268
210
0.0
220
0.0
230
1.0
100
AcDbArc
 50
23.027783
 51
61.258382
  0
ARC
  5
3D5
100
AcDbEntity
  8
0
370
    35
390
0
 62
     7
100
AcDbCircle
 10
131.679932
 20
164.455734
 30
0.0
 40
3.780726
210
0.0
220
0.0
230
1.0
100
AcDbArc
 50
61.492309
 51
86.053048
  0
ARC
  5
3D6
100
AcDbEntity
  8
0
370
    35
390
0
 62
     7
100
AcDbCircle
 10
92.762856
 20
-391.491028
 30
0.0
 40
561.087688
210
0.0
220
0.0
230
1.0
100
AcDbArc
 50
85.996132
 51
87.750439
  0
ARC
  5
3D7
100
AcDbEntity
  8
0
370
    35
390
0
 62
     7
100
AcDbCircle
 10
114.638275
 20
165.33638
 30
0.0
 40
3.830397
210
0.0
220
0.0
230
1.0
100
AcDbArc
 50
87.778429
 51
91.890947
  0
ARC
  5
3D8
100
AcDbEntity
  8
0
370
    35
390
0
 62
     7
100
AcDbCircle
 10
114.60627
 20
166.310196
 30
0.0
 40
2.856119
210
0.0
220
0.0
230
1.0
100
AcDbArc
 50
91.893918
 51
179.997
  0
LINE
  5
3D9
100
AcDbEntity
  8
0
370
    35
390
0
 62
     7
 48
0.278243
100
AcDbLine
 10
111.750206
 20
166.310349
 30
0.0
 11
111.750206
 21
155.180634
 31
0.0
210
0.0
220
0.0
230
1.0
  0
ARC
  5
3DA
100
AcDbEntity
  8
0
370
    35
390
0
 62
     7
100
AcDbCircle
 10
113.352921
 20
121.636948
 30
0.0
 40
47.24216
210
0.0
220
0.0
230
1.0
100
AcDbArc
 50
132.470235
 51
134.41718
  0
POLYLINE
  5
3DB
100
AcDbEntity
  8
0
370
    35
390
0
 62
     7
100
AcDb2dPolyline
 66
     1
 10
0.0
 20
0.0
 30
0.0
 71
    11
  0
VERTEX
  5
3DC
100
AcDbEntity
  8
0
370
     0
390
0
100
AcDbVertex
100
AcDb2dVertex
 10
81.900688
 20
150.980637
 30
0.0
  0
VERTEX
  5
3DD
100
AcDbEntity
  8
0
370
     0
390
0
100
AcDbVertex
100
AcDb2dVertex
 10
81.315445
 20
151.118622
 30
0.0
  0
VERTEX
  5
3DE
100
AcDbEntity
  8
0
370
     0
390
0
100
AcDbVertex
100
AcDb2dVertex
 10
80.775917
 20
151.382889
 30
0.0
  0
VERTEX
  5
3DF
100
AcDbEntity
  8
0
370
     0
390
0
100
AcDbVertex
100
AcDb2dVertex
 10
80.309608
 20
151.759735
 30
0.0
  0
VERTEX
  5
3E0
100
AcDbEntity
  8
0
370
     0
390
0
100
AcDbVertex
100
AcDb2dVertex
 10
79.940872
 20
152.228653
 30
0.0
  0
VERTEX
  5
3E1
100
AcDbEntity
  8
0
370
     0
390
0
100
AcDbVertex
100
AcDb2dVertex
 10
79.687462
 20
152.766006
 30
0.0
  0
VERTEX
  5
3E2
100
AcDbEntity
  8
0
370
     0
390
0
100
AcDbVertex
100
AcDb2dVertex
 10
79.562622
 20
153.33873
 30
0.0
  0
VERTEX
  5
3E3
100
AcDbEntity
  8
0
370
     0
390
0
100
AcDbVertex
100
AcDb2dVertex
 10
79.569756
 20
153.921265
 30
0.0
  0
VERTEX
  5
3E4
100
AcDbEntity
  8
0
370
     0
390
0
100
AcDbVertex
100
AcDb2dVertex
 10
79.707787
 20
154.48288
 30
0.0
  0
VERTEX
  5
3E5
100
AcDbEntity
  8
0
370
     0
390
0
100
AcDbVertex
100
AcDb2dVertex
 10
79.950203
 20
154.965714
 30
0.0
  0
VERTEX
  5
3E6
100
AcDbEntity
  8
0
370
     0
390
0
100
AcDbVertex
100
AcDb2dVertex
 10
80.289146
 20
155.38031
 30
0.0
  0
SEQEND
  5
3E7
100
AcDbEntity
  8
0
370
     0
390
0
  0
LINE
  5
3E8
100
AcDbEntity
  8
0
370
    35
390
0
 62
     7
 48
0.053934
100
AcDbLine
 10
81.900688
 20
150.980637
 30
0.0
 11
84.042976
 21
150.726151
 31
0.0
210
0.0
220
0.0
230
1.0
  0
POLYLINE
  5
3E9
100
AcDbEntity
  8
0
370
    35
390
0
 62
     7
100
AcDb2dPolyline
 66
     1
 10
0.0
 20
0.0
 30
0.0
 71
     5
  0
VERTEX
  5
3EA
100
AcDbEntity
  8
0
370
     0
390
0
100
AcDbVertex
100
AcDb2dVertex
 10
91.902504
 20
150.664871
 30
0.0
  0
VERTEX
  5
3EB
100
AcDbEntity
  8
0
370
     0
390
0
100
AcDbVertex
100
AcDb2dVertex
 10
89.436905
 20
150.528564
 30
0.0
  0
VERTEX
  5
3EC
100
AcDbEntity
  8
0
370
     0
390
0
100
AcDbVertex
100
AcDb2dVertex
 10
88.146347
 20
150.50235
 30
0.0
  0
VERTEX
  5
3ED
100
AcDbEntity
  8
0
370
     0
390
0
100
AcDbVertex
100
AcDb2dVertex
 10
86.109749
 20
150.550339
 30
0.0
  0
VERTEX
  5
3EE
100
AcDbEntity
  8
0
370
     0
390
0
100
AcDbVertex
100
AcDb2dVertex
 10
84.042976
 20
150.726151
 30
0.0
  0
SEQEND
  5
3EF
100
AcDbEntity
  8
0
370
     0
390
0
  0
ARC
  5
3F0
100
AcDbEntity
  8
0
370
    35
390
0
 62
     7
100
AcDbCircle
 10
21.633787
 20
1171.852417
 30
0.0
 40
1023.602395
210
0.0
220
0.0
230
1.0
100
AcDbArc
 50
273.936365
 51
274.317524
  0
POLYLINE
  5
3F1
100
AcDbEntity
  8
0
370
    35
390
0
 62
     7
100
AcDb2dPolyline
 66
     1
 10
0.0
 20
0.0
 30
0.0
 71
     9
  0
VERTEX
  5
3F2
100
AcDbEntity
  8
0
370
     0
390
0
100
AcDbVertex
100
AcDb2dVertex
 10
98.694443
 20
151.154816
 30
0.0
  0
VERTEX
  5
3F3
100
AcDbEntity
  8
0
370
     0
390
0
100
AcDbVertex
100
AcDb2dVertex
 10
99.173676
 20
151.24469
 30
0.0
  0
VERTEX
  5
3F4
100
AcDbEntity
  8
0
370
     0
390
0
100
AcDbVertex
100
AcDb2dVertex
 10
99.633629
 20
151.438263
 30
0.0
  0
VERTEX
  5
3F5
100
AcDbEntity
  8
0
370
     0
390
0
100
AcDbVertex
100
AcDb2dVertex
 10
100.05304
 20
151.726639
 30
0.0
  0
VERTEX
  5
3F6
100
AcDbEntity
  8
0
370
     0
390
0
100
AcDbVertex
100
AcDb2dVertex
 10
100.424385
 20
152.110306
 30
0.0
  0
VERTEX
  5
3F7
100
AcDbEntity
  8
0
370
     0
390
0
100
AcDbVertex
100
AcDb2dVertex
 10
100.717522
 20
152.564941
 30
0.0
  0
VERTEX
  5
3F8
100
AcDbEntity
  8
0
370
     0
390
0
100
AcDbVertex
100
AcDb2dVertex
 10
100.92025
 20
153.071777
 30
0.0
  0
VERTEX
  5
3F9
100
AcDbEntity
  8
0
370
     0
390
0
100
AcDbVertex
100
AcDb2dVertex
 10
101.002289
 20
153.436996
 30
0.0
  0
VERTEX
  5
3FA
100
AcDbEntity
  8
0
370
     0
390
0
100
AcDbVertex
100
AcDb2dVertex
 10
101.036995
 20
153.810486
 30
0.0
  0
SEQEND
  5
3FB
100
AcDbEntity
  8
0
370
     0
390
0
  0
LINE
  5
3FC
100
AcDbEntity
  8
0
370
    35
390
0
 62
     7
 48
0.002116
100
AcDbLine
 10
101.036995
 20
153.810486
 30
0.0
 11
101.038208
 21
153.895126
 31
0.0
210
0.0
220
0.0
230
1.0
  0
LINE
  5
3FD
100
AcDbEntity
  8
0
370
    35
390
0
 62
     7
 48
0.159724
100
AcDbLine
 10
101.038208
 20
153.895126
 30
0.0
 11
101.038208
 21
160.284073
 31
0.0
210
0.0
220
0.0
230
1.0
  0
ARC
  5
3FE
100
AcDbEntity
  8
0
370
    35
390
0
 62
     7
100
AcDbCircle
 10
22.158253
 20
153.976151
 30
0.0
 40
79.334091
210
0.0
220
0.0
230
1.0
100
AcDbArc
 50
8.917099
 51
9.711689
  0
POLYLINE
  5
3FF
100
AcDbEntity
  8
0
370
    35
390
0
 62
     7
100
AcDb2dPolyline
 66
     1
 10
0.0
 20
0.0
 30
0.0
 71
     5
  0
VERTEX
  5
400
100
AcDbEntity
  8
0
370
     0
390
0
100
AcDbVertex
100
AcDb2dVertex
 10
100.533447
 20
166.273346
 30
0.0
  0
VERTEX
  5
401
100
AcDbEntity
  8
0
370
     0
390
0
100
AcDbVertex
100
AcDb2dVertex
 10
100.744766
 20
164.783142
 30
0.0
  0
VERTEX
  5
402
100
AcDbEntity
  8
0
370
     0
390
0
100
AcDbVertex
100
AcDb2dVertex
 10
100.908005
 20
163.252594
 30
0.0
  0
VERTEX
  5
403
100
AcDbEntity
  8
0
370
     0
390
0
100
AcDbVertex
100
AcDb2dVertex
 10
101.005058
 20
161.774857
 30
0.0
  0
VERTEX
  5
404
100
AcDbEntity
  8
0
370
     0
390
0
100
AcDbVertex
100
AcDb2dVertex
 10
101.038208
 20
160.284073
 30
0.0
  0
SEQEND
  5
405
100
AcDbEntity
  8
0
370
     0
390
0
  0
POLYLINE
  5
406
100
AcDbEntity
  8
0
370
    35
390
0
 62
     7
100
AcDb2dPolyline
 66
     1
 10
0.0
 20
0.0
 30
0.0
 71
     8
  0
VERTEX
  5
407
100
AcDbEntity
  8
0
370
     0
390
0
100
AcDbVertex
100
AcDb2dVertex
 10
97.758667
 20
169.309387
 30
0.0
  0
VERTEX
  5
408
100
AcDbEntity
  8
0
370
     0
390
0
100
AcDbVertex
100
AcDb2dVertex
 10
98.252373
 20
169.299835
 30
0.0
  0
VERTEX
  5
409
100
AcDbEntity
  8
0
370
     0
390
0
100
AcDbVertex
100
AcDb2dVertex
 10
98.731735
 20
169.195541
 30
0.0
  0
VERTEX
  5
40A
100
AcDbEntity
  8
0
370
     0
390
0
100
AcDbVertex
100
AcDb2dVertex
 10
99.178215
 20
169.001022
 30
0.0
  0
VERTEX
  5
40B
100
AcDbEntity
  8
0
370
     0
390
0
100
AcDbVertex
100
AcDb2dVertex
 10
99.569504
 20
168.72876
 30
0.0
  0
VERTEX
  5
40C
100
AcDbEntity
  8
0
370
     0
390
0
100
AcDbVertex
100
AcDb2dVertex
 10
99.896873
 20
168.387909
 30
0.0
  0
VERTEX
  5
40D
100
AcDbEntity
  8
0
370
     0
390
0
100
AcDbVertex
100
AcDb2dVertex
 10
100.147583
 20
167.992538
 30
0.0
  0
VERTEX
  5
40E
100
AcDbEntity
  8
0
370
     0
390
0
100
AcDbVertex
100
AcDb2dVertex
 10
100.278717
 20
167.671936
 30
0.0
  0
SEQEND
  5
40F
100
AcDbEntity
  8
0
370
     0
390
0
  0
ARC
  5
410
100
AcDbEntity
  8
0
370
    35
390
0
 62
     7
100
AcDbCircle
 10
98.139183
 20
166.981247
 30
0.0
 40
2.248251
210
0.0
220
0.0
230
1.0
100
AcDbArc
 50
9.674501
 51
17.891238
  0
ARC
  5
411
100
AcDbEntity
  8
0
370
    35
390
0
 62
     7
100
AcDbCircle
 10
100.910286
 20
129.188568
 30
0.0
 40
40.244512
210
0.0
220
0.0
230
1.0
100
AcDbArc
 50
94.491542
 51
97.059843
  0
ARC
  5
412
100
AcDbEntity
  8
0
370
    35
390
0
 62
     7
100
AcDbCircle
 10
96.274345
 20
166.66568
 30
0.0
 40
2.482176
210
0.0
220
0.0
230
1.0
100
AcDbArc
 50
97.183661
 51
132.618682
  0
LINE
  5
413
100
AcDbEntity
  8
0
370
    35
390
0
 62
     7
 48
0.444991
100
AcDbLine
 10
81.454727
 20
156.484055
 30
0.0
 11
94.593414
 21
168.492477
 31
0.0
210
0.0
220
0.0
230
1.0
  0
ARC
  5
414
100
AcDbEntity
  8
0
370
    35
390
0
 62
     7
100
AcDbCircle
 10
80.686874
 20
137.03035
 30
0.0
 40
32.241837
210
0.0
220
0.0
230
1.0
100
AcDbArc
 50
87.453141
 51
92.425683
  0
ARC
  5
415
100
AcDbEntity
  8
0
370
    35
390
0
 62
     7
100
AcDbCircle
 10
93.179527
 20
-154.072067
 30
0.0
 40
323.61211
210
0.0
220
0.0
230
1.0
100
AcDbArc
 50
92.454185
 51
92.754433
  0
POLYLINE
  5
416
100
AcDbEntity
  8
0
370
    35
390
0
 62
     7
100
AcDb2dPolyline
 66
     1
 10
0.0
 20
0.0
 30
0.0
 71
     4
  0
VERTEX
  5
417
100
AcDbEntity
  8
0
370
     0
390
0
100
AcDbVertex
100
AcDb2dVertex
 10
70.819572
 20
168.150955
 30
0.0
  0
VERTEX
  5
418
100
AcDbEntity
  8
0
370
     0
390
0
100
AcDbVertex
100
AcDb2dVertex
 10
72.15184
 20
168.444107
 30
0.0
  0
VERTEX
  5
419
100
AcDbEntity
  8
0
370
     0
390
0
100
AcDbVertex
100
AcDb2dVertex
 10
73.535469
 20
168.707367
 30
0.0
  0
VERTEX
  5
41A
100
AcDbEntity
  8
0
370
     0
390
0
100
AcDbVertex
100
AcDb2dVertex
 10
74.961922
 20
168.924866
 30
0.0
  0
SEQEND
  5
41B
100
AcDbEntity
  8
0
370
     0
390
0
  0
ARC
  5
41C
100
AcDbEntity
  8
0
370
    35
390
0
 62
     7
100
AcDbCircle
 10
79.212364
 20
136.832092
 30
0.0
 40
32.372929
210
0.0
220
0.0
230
1.0
100
AcDbArc
 50
92.804861
 51
97.544479
  0
ARC
  5
41D
100
AcDbEntity
  8
0
370
    35
390
0
 62
     7
100
AcDbCircle
 10
111.837181
 20
-9.397217
 30
0.0
 40
182.224487
210
0.0
220
0.0
230
1.0
100
AcDbArc
 50
103.008391
 51
104.452539
  0
POLYLINE
  5
41E
100
AcDbEntity
  8
0
370
    35
390
0
 62
     7
100
AcDb2dPolyline
 66
     1
 10
0.0
 20
0.0
 30
0.0
 71
     9
  0
VERTEX
  5
41F
100
AcDbEntity
  8
0
370
     0
390
0
100
AcDbVertex
100
AcDb2dVertex
 10
64.412743
 20
164.403656
 30
0.0
  0
VERTEX
  5
420
100
AcDbEntity
  8
0
370
     0
390
0
100
AcDbVertex
100
AcDb2dVertex
 10
64.454308
 20
164.893784
 30
0.0
  0
VERTEX
  5
421
100
AcDbEntity
  8
0
370
     0
390
0
100
AcDbVertex
100
AcDb2dVertex
 10
64.577812
 20
165.368454
 30
0.0
  0
VERTEX
  5
422
100
AcDbEntity
  8
0
370
     0
390
0
100
AcDbVertex
100
AcDb2dVertex
 10
64.779335
 20
165.8125
 30
0.0
  0
VERTEX
  5
423
100
AcDbEntity
  8
0
370
     0
390
0
100
AcDbVertex
100
AcDb2dVertex
 10
65.047943
 20
166.206284
 30
0.0
  0
VERTEX
  5
424
100
AcDbEntity
  8
0
370
     0
390
0
100
AcDbVertex
100
AcDb2dVertex
 10
65.377205
 20
166.543488
 30
0.0
  0
VERTEX
  5
425
100
AcDbEntity
  8
0
370
     0
390
0
100
AcDbVertex
100
AcDb2dVertex
 10
65.755928
 20
166.812531
 30
0.0
  0
VERTEX
  5
426
100
AcDbEntity
  8
0
370
     0
390
0
100
AcDbVertex
100
AcDb2dVertex
 10
66.050552
 20
166.958023
 30
0.0
  0
VERTEX
  5
427
100
AcDbEntity
  8
0
370
     0
390
0
100
AcDbVertex
100
AcDb2dVertex
 10
66.357986
 20
167.060638
 30
0.0
  0
SEQEND
  5
428
100
AcDbEntity
  8
0
370
     0
390
0
  0
LINE
  5
429
100
AcDbEntity
  8
0
370
    35
390
0
 62
     7
 48
0.129657
100
AcDbLine
 10
64.412743
 20
164.403656
 30
0.0
 11
64.412743
 21
159.217361
 31
0.0
210
0.0
220
0.0
230
1.0
  0
ARC
  5
42A
100
AcDbEntity
  8
0
370
    35
390
0
 62
     7
100
AcDbCircle
 10
101.124352
 20
159.264725
 30
0.0
 40
36.711961
210
0.0
220
0.0
230
1.0
100
AcDbArc
 50
180.073925
 51
186.205905
  0
POLYLINE
  5
42B
100
AcDbEntity
  8
0
370
    35
390
0
 62
     7
100
AcDb2dPolyline
 66
     1
 10
0.0
 20
0.0
 30
0.0
 71
     9
  0
VERTEX
  5
42C
100
AcDbEntity
  8
0
370
     0
390
0
100
AcDbVertex
100
AcDb2dVertex
 10
64.627136
 20
155.296051
 30
0.0
  0
VERTEX
  5
42D
100
AcDbEntity
  8
0
370
     0
390
0
100
AcDbVertex
100
AcDb2dVertex
 10
64.716721
 20
154.845078
 30
0.0
  0
VERTEX
  5
42E
100
AcDbEntity
  8
0
370
     0
390
0
100
AcDbVertex
100
AcDb2dVertex
 10
64.886002
 20
154.415176
 30
0.0
  0
VERTEX
  5
42F
100
AcDbEntity
  8
0
370
     0
390
0
100
AcDbVertex
100
AcDb2dVertex
 10
65.129738
 20
154.020401
 30
0.0
  0
VERTEX
  5
430
100
AcDbEntity
  8
0
370
     0
390
0
100
AcDbVertex
100
AcDb2dVertex
 10
65.442947
 20
153.670914
 30
0.0
  0
VERTEX
  5
431
100
AcDbEntity
  8
0
370
     0
390
0
100
AcDbVertex
100
AcDb2dVertex
 10
65.814026
 20
153.381393
 30
0.0
  0
VERTEX
  5
432
100
AcDbEntity
  8
0
370
     0
390
0
100
AcDbVertex
100
AcDb2dVertex
 10
66.231194
 20
153.161301
 30
0.0
  0
VERTEX
  5
433
100
AcDbEntity
  8
0
370
     0
390
0
100
AcDbVertex
100
AcDb2dVertex
 10
66.564056
 20
153.046799
 30
0.0
  0
VERTEX
  5
434
100
AcDbEntity
  8
0
370
     0
390
0
100
AcDbVertex
100
AcDb2dVertex
 10
66.909309
 20
152.976852
 30
0.0
  0
SEQEND
  5
435
100
AcDbEntity
  8
0
370
     0
390
0
  0
ARC
  5
436
100
AcDbEntity
  8
0
370
    35
390
0
 62
     7
100
AcDbCircle
 10
71.411293
 20
186.487396
 30
0.0
 40
33.811686
210
0.0
220
0.0
230
1.0
100
AcDbArc
 50
262.348403
 51
266.567117
  0
ARC
  5
437
100
AcDbEntity
  8
0
370
    35
390
0
 62
     7
100
AcDbCircle
 10
69.544342
 20
155.368271
 30
0.0
 40
2.636732
210
0.0
220
0.0
230
1.0
100
AcDbArc
 50
266.571646
 51
288.593207
  0
ARC
  5
438
100
AcDbEntity
  8
0
370
    35
390
0
 62
     7
100
AcDbCircle
 10
69.533943
 20
155.401337
 30
0.0
 40
2.671432
210
0.0
220
0.0
230
1.0
100
AcDbArc
 50
288.578481
 51
307.497418
  0
ARC
  5
439
100
AcDbEntity
  8
0
370
    35
390
0
 62
     7
100
AcDbCircle
 10
48.239418
 20
183.093887
 30
0.0
 40
37.604954
210
0.0
220
0.0
230
1.0
100
AcDbArc
 50
307.554553
 51
312.404885
  0
LINE
  5
43A
100
AcDbEntity
  8
0
370
    35
390
0
 62
     7
 48
0.345871
100
AcDbLine
 10
73.599075
 20
155.326279
 30
0.0
 11
83.83036
 21
164.638809
 31
0.0
210
0.0
220
0.0
230
1.0
  0
POLYLINE
  5
43B
100
AcDbEntity
  8
0
370
    35
390
0
 62
     7
100
AcDb2dPolyline
 66
     1
 10
0.0
 20
0.0
 30
0.0
 71
    11
  0
VERTEX
  5
43C
100
AcDbEntity
  8
0
370
     0
390
0
100
AcDbVertex
100
AcDb2dVertex
 10
83.83036
 20
164.638809
 30
0.0
  0
VERTEX
  5
43D
100
AcDbEntity
  8
0
370
     0
390
0
100
AcDbVertex
100
AcDb2dVertex
 10
84.2313
 20
165.103577
 30
0.0
  0
VERTEX
  5
43E
100
AcDbEntity
  8
0
370
     0
390
0
100
AcDbVertex
100
AcDb2dVertex
 10
84.512383
 20
165.653839
 30
0.0
  0
VERTEX
  5
43F
100
AcDbEntity
  8
0
370
     0
390
0
100
AcDbVertex
100
AcDb2dVertex
 10
84.656883
 20
166.257965
 30
0.0
  0
VERTEX
  5
440
100
AcDbEntity
  8
0
370
     0
390
0
100
AcDbVertex
100
AcDb2dVertex
 10
84.655304
 20
166.888184
 30
0.0
  0
VERTEX
  5
441
100
AcDbEntity
  8
0
370
     0
390
0
100
AcDbVertex
100
AcDb2dVertex
 10
84.505051
 20
167.502167
 30
0.0
  0
VERTEX
  5
442
100
AcDbEntity
  8
0
370
     0
390
0
100
AcDbVertex
100
AcDb2dVertex
 10
84.213341
 20
168.066498
 30
0.0
  0
VERTEX
  5
443
100
AcDbEntity
  8
0
370
     0
390
0
100
AcDbVertex
100
AcDb2dVertex
 10
83.796936
 20
168.546783
 30
0.0
  0
VERTEX
  5
444
100
AcDbEntity
  8
0
370
     0
390
0
100
AcDbVertex
100
AcDb2dVertex
 10
83.279747
 20
168.915558
 30
0.0
  0
VERTEX
  5
445
100
AcDbEntity
  8
0
370
     0
390
0
100
AcDbVertex
100
AcDb2dVertex
 10
82.717422
 20
169.144714
 30
0.0
  0
VERTEX
  5
446
100
AcDbEntity
  8
0
370
     0
390
0
100
AcDbVertex
100
AcDb2dVertex
 10
82.119591
 20
169.240387
 30
0.0
  0
SEQEND
  5
447
100
AcDbEntity
  8
0
370
     0
390
0
  0
ARC
  5
448
100
AcDbEntity
  8
0
370
    35
390
0
 62
     7
100
AcDbCircle
 10
57.679138
 20
150.447113
 30
0.0
 40
16.705521
210
0.0
220
0.0
230
1.0
100
AcDbArc
 50
95.917699
 51
99.72779
  0
ARC
  5
449
100
AcDbEntity
  8
0
370
    35
390
0
 62
     7
100
AcDbCircle
 10
57.719448
 20
150.106216
 30
0.0
 40
17.048781
210
0.0
220
0.0
230
1.0
100
AcDbArc
 50
93.229903
 51
95.93433
  0
POLYLINE
  5
44A
100
AcDbEntity
  8
0
370
    35
390
0
 62
     7
100
AcDb2dPolyline
 66
     1
 10
0.0
 20
0.0
 30
0.0
 71
    11
  0
VERTEX
  5
44B
100
AcDbEntity
  8
0
370
     0
390
0
100
AcDbVertex
100
AcDb2dVertex
 10
34.180828
 20
160.490585
 30
0.0
  0
VERTEX
  5
44C
100
AcDbEntity
  8
0
370
     0
390
0
100
AcDbVertex
100
AcDb2dVertex
 10
35.032425
 20
160.974197
 30
0.0
  0
VERTEX
  5
44D
100
AcDbEntity
  8
0
370
     0
390
0
100
AcDbVertex
100
AcDb2dVertex
 10
35.915386
 20
161.43486
 30
0.0
  0
VERTEX
  5
44E
100
AcDbEntity
  8
0
370
     0
390
0
100
AcDbVertex
100
AcDb2dVertex
 10
37.848114
 20
162.334839
 30
0.0
  0
VERTEX
  5
44F
100
AcDbEntity
  8
0
370
     0
390
0
100
AcDbVertex
100
AcDb2dVertex
 10
39.839947
 20
163.130554
 30
0.0
  0
VERTEX
  5
450
100
AcDbEntity
  8
0
370
     0
390
0
100
AcDbVertex
100
AcDb2dVertex
 10
41.8839
 20
163.835663
 30
0.0
  0
VERTEX
  5
451
100
AcDbEntity
  8
0
370
     0
390
0
100
AcDbVertex
100
AcDb2dVertex
 10
43.982979
 20
164.473022
 30
0.0
  0
VERTEX
  5
452
100
AcDbEntity
  8
0
370
     0
390
0
100
AcDbVertex
100
AcDb2dVertex
 10
46.911633
 20
165.256012
 30
0.0
  0
VERTEX
  5
453
100
AcDbEntity
  8
0
370
     0
390
0
100
AcDbVertex
100
AcDb2dVertex
 10
48.780029
 20
165.702591
 30
0.0
  0
VERTEX
  5
454
100
AcDbEntity
  8
0
370
     0
390
0
100
AcDbVertex
100
AcDb2dVertex
 10
52.543209
 20
166.492401
 30
0.0
  0
VERTEX
  5
455
100
AcDbEntity
  8
0
370
     0
390
0
100
AcDbVertex
100
AcDb2dVertex
 10
54.856449
 20
166.912415
 30
0.0
  0
SEQEND
  5
456
100
AcDbEntity
  8
0
370
     0
390
0
  0
ARC
  5
457
100
AcDbEntity
  8
0
370
    35
390
0
 62
     7
100
AcDbCircle
 10
42.760818
 20
171.878723
 30
0.0
 40
14.258555
210
0.0
220
0.0
230
1.0
100
AcDbArc
 50
233.005091
 51
235.143691
  0
POLYLINE
  5
458
100
AcDbEntity
  8
0
370
    35
390
0
 62
     7
100
AcDb2dPolyline
 66
     1
 10
0.0
 20
0.0
 30
0.0
 71
     8
  0
VERTEX
  5
459
100
AcDbEntity
  8
0
370
     0
390
0
100
AcDbVertex
100
AcDb2dVertex
 10
34.611759
 20
160.178314
 30
0.0
  0
VERTEX
  5
45A
100
AcDbEntity
  8
0
370
     0
390
0
100
AcDbVertex
100
AcDb2dVertex
 10
36.609444
 20
159.427673
 30
0.0
  0
VERTEX
  5
45B
100
AcDbEntity
  8
0
370
     0
390
0
100
AcDbVertex
100
AcDb2dVertex
 10
38.66671
 20
158.755539
 30
0.0
  0
VERTEX
  5
45C
100
AcDbEntity
  8
0
370
     0
390
0
100
AcDbVertex
100
AcDb2dVertex
 10
40.777557
 20
158.134583
 30
0.0
  0
VERTEX
  5
45D
100
AcDbEntity
  8
0
370
     0
390
0
100
AcDbVertex
100
AcDb2dVertex
 10
44.52026
 20
157.151993
 30
0.0
  0
VERTEX
  5
45E
100
AcDbEntity
  8
0
370
     0
390
0
100
AcDbVertex
100
AcDb2dVertex
 10
48.29129
 20
156.28186
 30
0.0
  0
VERTEX
  5
45F
100
AcDbEntity
  8
0
370
     0
390
0
100
AcDbVertex
100
AcDb2dVertex
 10
52.665703
 20
155.38562
 30
0.0
  0
VERTEX
  5
460
100
AcDbEntity
  8
0
370
     0
390
0
100
AcDbVertex
100
AcDb2dVertex
 10
55.981586
 20
154.765762
 30
0.0
  0
SEQEND
  5
461
100
AcDbEntity
  8
0
370
     0
390
0
  0
ARC
  5
462
100
AcDbEntity
  8
0
370
    35
390
0
 62
     7
100
AcDbCircle
 10
59.111267
 20
172.10379
 30
0.0
 40
17.618233
210
0.0
220
0.0
230
1.0
100
AcDbArc
 50
259.767739
 51
261.232555
  0
ARC
  5
463
100
AcDbEntity
  8
0
370
    35
390
0
 62
     7
100
AcDbCircle
 10
56.859634
 20
157.460938
 30
0.0
 40
2.800875
210
0.0
220
0.0
230
1.0
100
AcDbArc
 50
284.565417
 51
355.759662
  0
ARC
  5
464
100
AcDbEntity
  8
0
370
    35
390
0
 62
     7
100
AcDbCircle
 10
56.854549
 20
157.467026
 30
0.0
 40
2.8085
210
0.0
220
0.0
230
1.0
100
AcDbArc
 50
261.219257
 51
284.634641
  0
ARC
  5
465
100
AcDbEntity
  8
0
370
    35
390
0
 62
     7
100
AcDbCircle
 10
41.0256
 20
158.598953
 30
0.0
 40
18.675153
210
0.0
220
0.0
230
1.0
100
AcDbArc
 50
355.869727
 51
359.987353
  0
LINE
  5
466
100
AcDbEntity
  8
0
370
    35
390
0
 62
     7
 48
0.143405
100
AcDbLine
 10
59.700741
 20
158.594833
 30
0.0
 11
59.700741
 21
164.331039
 31
0.0
210
0.0
220
0.0
230
1.0
  0
POLYLINE
  5
467
100
AcDbEntity
  8
0
370
    35
390
0
 62
     7
100
AcDb2dPolyline
 66
     1
 10
0.0
 20
0.0
 30
0.0
 71
    11
  0
VERTEX
  5
468
100
AcDbEntity
  8
0
370
     0
390
0
100
AcDbVertex
100
AcDb2dVertex
 10
59.700741
 20
164.331039
 30
0.0
  0
VERTEX
  5
469
100
AcDbEntity
  8
0
370
     0
390
0
100
AcDbVertex
100
AcDb2dVertex
 10
59.663467
 20
164.787704
 30
0.0
  0
VERTEX
  5
46A
100
AcDbEntity
  8
0
370
     0
390
0
100
AcDbVertex
100
AcDb2dVertex
 10
59.552509
 20
165.232147
 30
0.0
  0
VERTEX
  5
46B
100
AcDbEntity
  8
0
370
     0
390
0
100
AcDbVertex
100
AcDb2dVertex
 10
59.370785
 20
165.65242
 30
0.0
  0
VERTEX
  5
46C
100
AcDbEntity
  8
0
370
     0
390
0
100
AcDbVertex
100
AcDb2dVertex
 10
59.123318
 20
166.037231
 30
0.0
  0
VERTEX
  5
46D
100
AcDbEntity
  8
0
370
     0
390
0
100
AcDbVertex
100
AcDb2dVertex
 10
58.816818
 20
166.376465
 30
0.0
  0
VERTEX
  5
46E
100
AcDbEntity
  8
0
370
     0
390
0
100
AcDbVertex
100
AcDb2dVertex
 10
58.459595
 20
166.661041
 30
0.0
  0
VERTEX
  5
46F
100
AcDbEntity
  8
0
370
     0
390
0
100
AcDbVertex
100
AcDb2dVertex
 10
58.062302
 20
166.882874
 30
0.0
  0
VERTEX
  5
470
100
AcDbEntity
  8
0
370
     0
390
0
100
AcDbVertex
100
AcDb2dVertex
 10
57.63475
 20
167.036804
 30
0.0
  0
VERTEX
  5
471
100
AcDbEntity
  8
0
370
     0
390
0
100
AcDbVertex
100
AcDb2dVertex
 10
57.188473
 20
167.118683
 30
0.0
  0
VERTEX
  5
472
100
AcDbEntity
  8
0
370
     0
390
0
100
AcDbVertex
100
AcDb2dVertex
 10
56.758873
 20
167.127914
 30
0.0
  0
SEQEND
  5
473
100
AcDbEntity
  8
0
370
     0
390
0
  0
LINE
  5
474
100
AcDbEntity
  8
0
370
    13
390
0
 62
     7
 48
0.003084
100
AcDbLine
 10
271.718109
 20
142.870392
 30
0.0
 11
271.730865
 21
142.993103
 31
0.0
210
0.0
220
0.0
230
1.0
  0
LINE
  5
475
100
AcDbEntity
  8
0
370
    13
390
0
 62
     7
 48
0.003391
100
AcDbLine
 10
275.39093
 20
139.350067
 30
0.0
 11
275.397247
 21
139.485565
 31
0.0
210
0.0
220
0.0
230
1.0
  0
LINE
  5
476
100
AcDbEntity
  8
0
370
    13
390
0
 62
     7
 48
0.0034
100
AcDbLine
 10
275.510345
 20
139.242798
 30
0.0
 11
275.516388
 21
139.378647
 31
0.0
210
0.0
220
0.0
230
1.0
  0
LINE
  5
477
100
AcDbEntity
  8
0
370
    13
390
0
 62
     7
 48
0.003079
100
AcDbLine
 10
270.75351
 20
143.941895
 30
0.0
 11
270.771576
 21
144.063721
 31
0.0
210
0.0
220
0.0
230
1.0
  0
LINE
  5
478
100
AcDbEntity
  8
0
370
    13
390
0
 62
     7
 48
0.003129
100
AcDbLine
 10
278.736969
 20
140.515045
 30
0.0
 11
278.740417
 21
140.640167
 31
0.0
210
0.0
220
0.0
230
1.0
  0
LINE
  5
479
100
AcDbEntity
  8
0
370
    13
390
0
 62
     7
 48
0.003028
100
AcDbLine
 10
247.782593
 20
147.217255
 30
0.0
 11
247.793259
 21
147.337906
 31
0.0
210
0.0
220
0.0
230
1.0
  0
LINE
  5
47A
100
AcDbEntity
  8
0
370
    13
390
0
 62
     7
 48
0.003032
100
AcDbLine
 10
247.617157
 20
147.10144
 30
0.0
 11
247.627747
 21
147.222244
 31
0.0
210
0.0
220
0.0
230
1.0
  0
LINE
  5
47B
100
AcDbEntity
  8
0
370
    13
390
0
 62
     7
 48
0.003284
100
AcDbLine
 10
239.700653
 20
141.694397
 30
0.0
 11
239.705887
 21
141.825653
 31
0.0
210
0.0
220
0.0
230
1.0
  0
LINE
  5
47C
100
AcDbEntity
  8
0
370
    13
390
0
 62
     7
 48
0.003286
100
AcDbLine
 10
238.629196
 20
141.073486
 30
0.0
 11
238.634552
 21
141.204803
 31
0.0
210
0.0
220
0.0
230
1.0
  0
LINE
  5
47D
100
AcDbEntity
  8
0
370
    13
390
0
 62
     7
 48
0.003268
100
AcDbLine
 10
232.7854
 20
141.613647
 30
0.0
 11
232.79274
 21
141.744156
 31
0.0
210
0.0
220
0.0
230
1.0
  0
LINE
  5
47E
100
AcDbEntity
  8
0
370
    13
390
0
 62
     7
 48
0.002975
100
AcDbLine
 10
222.304565
 20
151.494247
 30
0.0
 11
222.303802
 21
151.613251
 31
0.0
210
0.0
220
0.0
230
1.0
  0
LINE
  5
47F
100
AcDbEntity
  8
0
370
    13
390
0
 62
     7
 48
0.003266
100
AcDbLine
 10
231.983963
 20
142.285889
 30
0.0
 11
231.991394
 21
142.416321
 31
0.0
210
0.0
220
0.0
230
1.0
  0
LINE
  5
480
100
AcDbEntity
  8
0
370
    13
390
0
 62
     7
 48
0.002923
100
AcDbLine
 10
197.372971
 20
156.012802
 30
0.0
 11
197.373047
 21
156.12973
 31
0.0
210
0.0
220
0.0
230
1.0
  0
LINE
  5
481
100
AcDbEntity
  8
0
370
    13
390
0
 62
     7
 48
0.002919
100
AcDbLine
 10
196.810318
 20
155.594696
 30
0.0
 11
196.810669
 21
155.711441
 31
0.0
210
0.0
220
0.0
230
1.0
  0
LINE
  5
482
100
AcDbEntity
  8
0
370
    13
390
0
 62
     7
 48
0.003404
100
AcDbLine
 10
182.226379
 20
145.634567
 30
0.0
 11
182.216507
 21
145.770355
 31
0.0
210
0.0
220
0.0
230
1.0
  0
LINE
  5
483
100
AcDbEntity
  8
0
370
    13
390
0
 62
     7
 48
0.003348
100
AcDbLine
 10
180.176666
 20
144.613831
 30
0.0
 11
180.167984
 21
144.747452
 31
0.0
210
0.0
220
0.0
230
1.0
  0
LINE
  5
484
100
AcDbEntity
  8
0
370
    13
390
0
 62
     7
 48
0.002599
100
AcDbLine
 10
158.896011
 20
160.703751
 30
0.0
 11
158.874313
 21
160.805405
 31
0.0
210
0.0
220
0.0
230
1.0
  0
LINE
  5
485
100
AcDbEntity
  8
0
370
    13
390
0
 62
     7
 48
0.003023
100
AcDbLine
 10
174.475662
 20
145.880661
 30
0.0
 11
174.466568
 21
146.001236
 31
0.0
210
0.0
220
0.0
230
1.0
  0
LINE
  5
486
100
AcDbEntity
  8
0
370
    13
390
0
 62
     7
 48
0.002579
100
AcDbLine
 10
134.09285
 20
163.405045
 30
0.0
 11
134.074692
 21
163.506577
 31
0.0
210
0.0
220
0.0
230
1.0
  0
LINE
  5
487
100
AcDbEntity
  8
0
370
    13
390
0
 62
     7
 48
0.002522
100
AcDbLine
 10
132.561279
 20
162.137024
 30
0.0
 11
132.550293
 21
162.237305
 31
0.0
210
0.0
220
0.0
230
1.0
  0
LINE
  5
488
100
AcDbEntity
  8
0
370
    13
390
0
 62
     7
 48
0.003495
100
AcDbLine
 10
116.852844
 20
151.334091
 30
0.0
 11
116.860977
 21
151.473663
 31
0.0
210
0.0
220
0.0
230
1.0
  0
LINE
  5
489
100
AcDbEntity
  8
0
370
    13
390
0
 62
     7
 48
0.003244
100
AcDbLine
 10
114.19474
 20
150.705261
 30
0.0
 11
114.210854
 21
150.83403
 31
0.0
210
0.0
220
0.0
230
1.0
  0
LINE
  5
48A
100
AcDbEntity
  8
0
370
    13
390
0
 62
     7
 48
0.002453
100
AcDbLine
 10
112.012718
 20
152.762894
 30
0.0
 11
112.017654
 21
152.86087
 31
0.0
210
0.0
220
0.0
230
1.0
  0
LINE
  5
48B
100
AcDbEntity
  8
0
370
    13
390
0
 62
     7
 48
0.009316
100
AcDbLine
 10
64.412743
 20
159.217361
 30
0.0
 11
64.783218
 21
159.257385
 31
0.0
210
0.0
220
0.0
230
1.0
  0
LINE
  5
48C
100
AcDbEntity
  8
0
370
    13
390
0
 62
     7
 48
0.009674
100
AcDbLine
 10
64.627136
 20
155.296051
 30
0.0
 11
65.006546
 21
155.372162
 31
0.0
210
0.0
220
0.0
230
1.0
  0
LINE
  5
48D
100
AcDbEntity
  8
0
370
    13
390
0
 62
     7
 48
0.009262
100
AcDbLine
 10
64.412743
 20
164.403656
 30
0.0
 11
64.783218
 21
164.39978
 31
0.0
210
0.0
220
0.0
230
1.0
  0
LINE
  5
48E
100
AcDbEntity
  8
0
370
    13
390
0
 62
     7
 48
0.009544
100
AcDbLine
 10
66.909309
 20
152.976852
 30
0.0
 11
67.276871
 21
153.080032
 31
0.0
210
0.0
220
0.0
230
1.0
  0
LINE
  5
48F
100
AcDbEntity
  8
0
370
    13
390
0
 62
     7
 48
0.008454
100
AcDbLine
 10
66.357986
 20
167.060638
 30
0.0
 11
66.695679
 21
167.042969
 31
0.0
210
0.0
220
0.0
230
1.0
  0
LINE
  5
490
100
AcDbEntity
  8
0
370
    13
390
0
 62
     7
 48
0.009091
100
AcDbLine
 10
69.386665
 20
152.736298
 30
0.0
 11
69.732964
 21
152.847229
 31
0.0
210
0.0
220
0.0
230
1.0
  0
LINE
  5
491
100
AcDbEntity
  8
0
370
    13
390
0
 62
     7
 48
0.006565
100
AcDbLine
 10
70.819572
 20
168.150955
 30
0.0
 11
71.082069
 21
168.158722
 31
0.0
210
0.0
220
0.0
230
1.0
  0
LINE
  5
492
100
AcDbEntity
  8
0
370
    35
390
0
 62
     7
 48
0.002776
100
AcDbLine
 10
284.654022
 20
149.414749
 30
0.0
 11
284.654022
 21
149.525787
 31
0.0
210
0.0
220
0.0
230
1.0
  0
LINE
  5
493
100
AcDbEntity
  8
0
370
    35
390
0
 62
     7
 48
0.002774
100
AcDbLine
 10
283.654022
 20
149.63797
 30
0.0
 11
283.654022
 21
149.748917
 31
0.0
210
0.0
220
0.0
230
1.0
  0
LINE
  5
494
100
AcDbEntity
  8
0
370
    35
390
0
 62
     7
 48
0.007049
100
AcDbLine
 10
393.100891
 20
122.008125
 30
0.0
 11
392.880127
 21
122.183525
 31
0.0
210
0.0
220
0.0
230
1.0
  0
LINE
  5
495
100
AcDbEntity
  8
0
370
    13
390
0
 62
     7
 48
0.010391
100
AcDbLine
 10
54.856449
 20
166.912415
 30
0.0
 11
55.269703
 21
166.956741
 31
0.0
210
0.0
220
0.0
230
1.0
  0
LINE
  5
496
100
AcDbEntity
  8
0
370
    35
390
0
 62
     7
 48
0.013231
100
AcDbLine
 10
34.180828
 20
160.490585
 30
0.0
 11
34.704903
 21
160.564331
 31
0.0
210
0.0
220
0.0
230
1.0
  0
LINE
  5
497
100
AcDbEntity
  8
0
370
    35
390
0
 62
     7
 48
0.012865
100
AcDbLine
 10
34.611759
 20
160.178314
 30
0.0
 11
35.120911
 21
160.253036
 31
0.0
210
0.0
220
0.0
230
1.0
  0
LINE
  5
498
100
AcDbEntity
  8
0
370
    13
390
0
 62
     7
 48
0.010133
100
AcDbLine
 10
56.425819
 20
154.691422
 30
0.0
 11
56.818409
 21
154.792236
 31
0.0
210
0.0
220
0.0
230
1.0
  0
LINE
  5
499
100
AcDbEntity
  8
0
370
    13
390
0
 62
     7
 48
0.010186
100
AcDbLine
 10
55.981586
 20
154.765762
 30
0.0
 11
56.376507
 21
154.866013
 31
0.0
210
0.0
220
0.0
230
1.0
  0
LINE
  5
49A
100
AcDbEntity
  8
0
370
    35
390
0
 62
     7
 48
0.000978
100
AcDbLine
 10
94.593414
 20
168.492477
 30
0.0
 11
94.624046
 21
168.516815
 31
0.0
210
0.0
220
0.0
230
1.0
  0
LINE
  5
49B
100
AcDbEntity
  8
0
370
    13
390
0
 62
     7
 48
0.006094
100
AcDbLine
 10
81.454727
 20
156.484055
 30
0.0
 11
81.688438
 21
156.553329
 31
0.0
210
0.0
220
0.0
230
1.0
  0
LINE
  5
49C
100
AcDbEntity
  8
0
370
    13
390
0
 62
     7
 48
0.006614
100
AcDbLine
 10
80.289146
 20
155.38031
 30
0.0
 11
80.54332
 21
155.453751
 31
0.0
210
0.0
220
0.0
230
1.0
  0
LINE
  5
49D
100
AcDbEntity
  8
0
370
    13
390
0
 62
     7
 48
0.007169
100
AcDbLine
 10
81.900688
 20
150.980637
 30
0.0
 11
82.163223
 21
151.096008
 31
0.0
210
0.0
220
0.0
230
1.0
  0
LINE
  5
49E
100
AcDbEntity
  8
0
370
    13
390
0
 62
     7
 48
0.006787
100
AcDbLine
 10
84.042976
 20
150.726151
 30
0.0
 11
84.287842
 21
150.843414
 31
0.0
210
0.0
220
0.0
230
1.0
  0
LINE
  5
49F
100
AcDbEntity
  8
0
370
    13
390
0
 62
     7
 48
0.002093
100
AcDbLine
 10
100.355461
 20
167.359055
 30
0.0
 11
100.333008
 21
167.439697
 31
0.0
210
0.0
220
0.0
230
1.0
  0
LINE
  5
4A0
100
AcDbEntity
  8
0
370
    13
390
0
 62
     7
 48
0.005635
100
AcDbLine
 10
98.694443
 20
151.154816
 30
0.0
 11
98.739944
 21
151.375565
 31
0.0
210
0.0
220
0.0
230
1.0
  0
LINE
  5
4A1
100
AcDbEntity
  8
0
370
    13
390
0
 62
     7
 48
0.003443
100
AcDbLine
 10
164.269272
 20
143.646362
 30
0.0
 11
164.248154
 21
143.782455
 31
0.0
210
0.0
220
0.0
230
1.0
  0
LINE
  5
4A2
100
AcDbEntity
  8
0
370
    13
390
0
 62
     7
 48
0.003456
100
AcDbLine
 10
163.709518
 20
143.648056
 30
0.0
 11
163.688843
 21
143.78476
 31
0.0
210
0.0
220
0.0
230
1.0
  0
LINE
  5
4A3
100
AcDbEntity
  8
0
370
    13
390
0
 62
     7
 48
0.003404
100
AcDbLine
 10
126.207207
 20
146.572311
 30
0.0
 11
126.21579
 21
146.708206
 31
0.0
210
0.0
220
0.0
230
1.0
  0
LINE
  5
4A4
100
AcDbEntity
  8
0
370
    13
390
0
 62
     7
 48
0.00325
100
AcDbLine
 10
124.542732
 20
147.094406
 30
0.0
 11
124.550888
 21
147.224152
 31
0.0
210
0.0
220
0.0
230
1.0
  0
LINE
  5
4A5
100
AcDbEntity
  8
0
370
    13
390
0
 62
     7
 48
0.003397
100
AcDbLine
 10
222.482849
 20
139.83136
 30
0.0
 11
222.483246
 21
139.967239
 31
0.0
210
0.0
220
0.0
230
1.0
  0
LINE
  5
4A6
100
AcDbEntity
  8
0
370
    13
390
0
 62
     7
 48
0.003452
100
AcDbLine
 10
221.42308
 20
139.765533
 30
0.0
 11
221.423248
 21
139.90361
 31
0.0
210
0.0
220
0.0
230
1.0
  0
LINE
  5
4A7
100
AcDbEntity
  8
0
370
    13
390
0
 62
     7
 48
0.003412
100
AcDbLine
 10
192.694138
 20
141.641418
 30
0.0
 11
192.690964
 21
141.777878
 31
0.0
210
0.0
220
0.0
230
1.0
  0
LINE
  5
4A8
100
AcDbEntity
  8
0
370
    13
390
0
 62
     7
 48
0.003313
100
AcDbLine
 10
191.320618
 20
141.970764
 30
0.0
 11
191.316376
 21
142.103226
 31
0.0
210
0.0
220
0.0
230
1.0
  0
LINE
  5
4A9
100
AcDbEntity
  8
0
370
    13
390
0
 62
     7
 48
0.003514
100
AcDbLine
 10
265.408051
 20
137.013367
 30
0.0
 11
265.413696
 21
137.153809
 31
0.0
210
0.0
220
0.0
230
1.0
  0
LINE
  5
4AA
100
AcDbEntity
  8
0
370
    13
390
0
 62
     7
 48
0.003533
100
AcDbLine
 10
264.776672
 20
137.004852
 30
0.0
 11
264.782776
 21
137.146042
 31
0.0
210
0.0
220
0.0
230
1.0
  0
LINE
  5
4AB
100
AcDbEntity
  8
0
370
    13
390
0
 62
     7
 48
0.003507
100
AcDbLine
 10
250.333008
 20
137.926987
 30
0.0
 11
250.348785
 21
138.066391
 31
0.0
210
0.0
220
0.0
230
1.0
  0
LINE
  5
4AC
100
AcDbEntity
  8
0
370
    13
390
0
 62
     7
 48
0.003475
100
AcDbLine
 10
249.56662
 20
138.049881
 30
0.0
 11
249.582733
 21
138.187943
 31
0.0
210
0.0
220
0.0
230
1.0
  0
LINE
  5
4AD
100
AcDbEntity
  8
0
370
    13
390
0
 62
     7
 48
0.003554
100
AcDbLine
 10
289.578796
 20
137.394928
 30
0.0
 11
289.571655
 21
137.536896
 31
0.0
210
0.0
220
0.0
230
1.0
  0
LINE
  5
4AE
100
AcDbEntity
  8
0
370
    13
390
0
 62
     7
 48
0.003658
100
AcDbLine
 10
291.993744
 20
135.231583
 30
0.0
 11
291.974762
 21
135.376663
 31
0.0
210
0.0
220
0.0
230
1.0
  0
LINE
  5
4AF
100
AcDbEntity
  8
0
370
    13
390
0
 62
     7
 48
0.003659
100
AcDbLine
 10
292.193268
 20
135.216309
 30
0.0
 11
292.173676
 21
135.361359
 31
0.0
210
0.0
220
0.0
230
1.0
  0
LINE
  5
4B0
100
AcDbEntity
  8
0
370
    35
390
0
 62
     7
 48
0.011556
100
AcDbLine
 10
65.728455
 20
173.309708
 30
0.0
 11
66.188232
 21
173.357452
 31
0.0
210
0.0
220
0.0
230
1.0
  0
LINE
  5
4B1
100
AcDbEntity
  8
0
370
    35
390
0
 62
     7
 48
0.005451
100
AcDbLine
 10
100.533447
 20
166.273331
 30
0.0
 11
100.498787
 21
166.488617
 31
0.0
210
0.0
220
0.0
230
1.0
  0
ENDSEC
  0
SECTION
  2
OBJECTS
  0
DICTIONARY
  5
19
100
AcDbDictionary
280
     0
281
     1
  3
ACAD_GROUP
350
1A
  3
ACAD_MLINESTYLE
350
1B
  3
ACAD_LAYOUT
350
1E
  3
ACAD_PLOTSETTINGS
350
22
  3
ACAD_PLOTSTYLENAME
350
1F
  3
ACAD_WIPEOUT_VARS
350
23
  0
DICTIONARY
  5
1A
102
{ACAD_REACTORS
330
19
102
}
100
AcDbDictionary
280
     0
281
     1
  0
DICTIONARY
  5
1B
102
{ACAD_REACTORS
330
19
102
}
100
AcDbDictionary
280
     0
281
     1
  3
Standard
350
1C
  0
MLINESTYLE
  5
1C
102
{ACAD_REACTORS
330
1B
102
}
100
AcDbMlineStyle
  2
Standard
 70
     0
  3

 62
     0
 51
90.0
 52
90.0
 71
     2
 49
0.5
 62
   256
  6
ByLayer
 49
-0.5
 62
   256
  6
ByLayer
  0
ACDBDICTIONARYWDFLT
  5
1F
102
{ACAD_REACTORS
330
19
102
}
100
AcDbDictionary
281
     1
  3
Normal
350
1D
100
AcDbDictionaryWithDefault
340
1D
  0
ACDBPLACEHOLDER
  5
1D
102
{ACAD_REACTORS
330
1F
102
}
  0
LAYOUT
  5
20
102
{ACAD_REACTORS
330
1E
102
}
100
AcDbPlotSettings
  1

  2

  4

  6

 40
0.0
 41
0.0
 42
0.0
 43
0.0
 44
0.0
 45
0.0
 46
0.0
 47
0.0
 48
0.0
 49
0.0
140
0.0
141
0.0
142
1.0
143
1.0
 70
  1024
 72
     0
 73
     0
 74
     0
  7

 75
     0
147
1.0
148
0.0
149
0.0
100
AcDbLayout
  1
Model
 70
     0
 71
     0
 10
0.0
 20
0.0
 11
0.0
 21
0.0
 12
0.0
 22
0.0
 32
0.0
 14
0.0
 24
0.0
 34
0.0
 15
0.0
 25
0.0
 35
0.0
146
0.0
 13
0.0
 23
0.0
 33
0.0
 16
0.0
 26
0.0
 36
0.0
 17
0.0
 27
0.0
 37
0.0
 76
     0
330
A
331
0
345
0
346
0
  0
LAYOUT
  5
21
102
{ACAD_REACTORS
330
1E
102
}
100
AcDbPlotSettings
  1

  2

  4

  6

 40
0.0
 41
0.0
 42
0.0
 43
0.0
 44
0.0
 45
0.0
 46
0.0
 47
0.0
 48
0.0
 49
0.0
140
0.0
141
0.0
142
1.0
143
1.0
 70
     0
 72
     0
 73
     0
 74
     0
  7

 75
     0
147
1.0
148
0.0
149
0.0
100
AcDbLayout
  1
Layout1
 70
     0
 71
     0
 10
0.0
 20
0.0
 11
0.0
 21
0.0
 12
0.0
 22
0.0
 32
0.0
 14
0.0
 24
0.0
 34
0.0
 15
0.0
 25
0.0
 35
0.0
146
0.0
 13
0.0
 23
0.0
 33
0.0
 16
0.0
 26
0.0
 36
0.0
 17
0.0
 27
0.0
 37
0.0
 76
     0
330
B
331
0
345
0
346
0
  0
DICTIONARY
  5
1E
102
{ACAD_REACTORS
330
19
102
}
100
AcDbDictionary
280
     0
281
     1
  3
Layout1
350
21
  3
Model
350
20
  0
DICTIONARY
  5
22
102
{ACAD_REACTORS
330
19
102
}
100
AcDbDictionary
280
     0
281
     1
  0
WIPEOUTVARIABLES
  5
23
100
AcDbWipeoutVariables
 70
     1
  0
ENDSEC
  0
EOF
