  0
SECTION
  2
HEADER
  9
$ACADVER
  1
AC1015
  9
$ACADMAINTVER
 70
     6
  9
$DWGCODEPAGE
  3
ANSI_1252
  9
$INSBASE
 10
0.0
 20
0.0
 30
0.0
  9
$EXTMIN
 10
0.0
 20
0.0
 30
0.0
  9
$EXTMAX
 10
355.833221
 20
168.306534
 30
2.0
  9
$LIMMIN
 10
0.0
 20
0.0
  9
$LIMMAX
 10
420.0
 20
297.0
  9
$ORTHOMODE
 70
     0
  9
$REGENMODE
 70
     1
  9
$FILLMODE
 70
     1
  9
$QTEXTMODE
 70
     0
  9
$MIRRTEXT
 70
     1
  9
$LTSCALE
 40
1.0
  9
$ATTMODE
 70
     1
  9
$TEXTSIZE
 40
2.5
  9
$TRACEWID
 40
1.0
  9
$TEXTSTYLE
  7
Standard
  9
$CLAYER
  8
0
  9
$CELTYPE
  6
ByLayer
  9
$CECOLOR
 62
   256
  9
$CELTSCALE
 40
1.0
  9
$DISPSILH
 70
     0
  9
$DIMSCALE
 40
1.0
  9
$DIMASZ
 40
2.5
  9
$DIMEXO
 40
0.625
  9
$DIMDLI
 40
3.75
  9
$DIMRND
 40
0.0
  9
$DIMDLE
 40
0.0
  9
$DIMEXE
 40
1.25
  9
$DIMTP
 40
0.0
  9
$DIMTM
 40
0.0
  9
$DIMTXT
 40
2.5
  9
$DIMCEN
 40
2.5
  9
$DIMTSZ
 40
0.0
  9
$DIMTOL
 70
     0
  9
$DIMLIM
 70
     0
  9
$DIMTIH
 70
     0
  9
$DIMTOH
 70
     0
  9
$DIMSE1
 70
     0
  9
$DIMSE2
 70
     0
  9
$DIMTAD
 70
     1
  9
$DIMZIN
 70
     8
  9
$DIMBLK
  1

  9
$DIMASO
 70
     1
  9
$DIMSHO
 70
     1
  9
$DIMPOST
  1

  9
$DIMAPOST
  1

  9
$DIMALT
 70
     0
  9
$DIMALTD
 70
     3
  9
$DIMALTF
 40
0.03937
  9
$DIMLFAC
 40
1.0
  9
$DIMTOFL
 70
     1
  9
$DIMTVP
 40
0.0
  9
$DIMTIX
 70
     0
  9
$DIMSOXD
 70
     0
  9
$DIMSAH
 70
     0
  9
$DIMBLK1
  1

  9
$DIMBLK2
  1

  9
$DIMSTYLE
  2

  9
$DIMCLRD
 70
     0
  9
$DIMCLRE
 70
     0
  9
$DIMCLRT
 70
     0
  9
$DIMTFAC
 40
1.0
  9
$DIMGAP
 40
0.625
  9
$DIMJUST
 70
     0
  9
$DIMSD1
 70
     0
  9
$DIMSD2
 70
     0
  9
$DIMTOLJ
 70
     0
  9
$DIMTZIN
 70
     8
  9
$DIMALTZ
 70
     0
  9
$DIMALTTZ
 70
     0
  9
$DIMUPT
 70
     0
  9
$DIMDEC
 70
     2
  9
$DIMTDEC
 70
     2
  9
$DIMALTU
 70
     2
  9
$DIMALTTD
 70
     3
  9
$DIMTXSTY
  7
Standard
  9
$DIMAUNIT
 70
     0
  9
$DIMADEC
 70
     0
  9
$DIMALTRND
 40
0.0
  9
$DIMAZIN
 70
     0
  9
$DIMDSEP
 70
    44
  9
$DIMATFIT
 70
     0
  9
$DIMFRAC
 70
     0
  9
$DIMLDRBLK
  1

  9
$DIMLUNIT
 70
     2
  9
$DIMLWD
 70
    -2
  9
$DIMLWE
 70
    -2
  9
$DIMTMOVE
 70
     0
  9
$LUNITS
 70
     2
  9
$LUPREC
 70
     4
  9
$SKETCHINC
 40
1.0
  9
$FILLETRAD
 40
2.5
  9
$AUNITS
 70
     0
  9
$AUPREC
 70
     0
  9
$MENU
  1
.
  9
$ELEVATION
 40
0.0
  9
$PELEVATION
 40
0.0
  9
$THICKNESS
 40
0.0
  9
$LIMCHECK
 70
     0
  9
$CHAMFERA
 40
2.5
  9
$CHAMFERB
 40
2.5
  9
$CHAMFERC
 40
0.0
  9
$CHAMFERD
 40
0.0
  9
$SKPOLY
 70
     0
  9
$TDCREATE
 40
0.000000000
  9
$TDUCREATE
 40
0.000000000
  9
$TDUPDATE
 40
0.000000000
  9
$TDUUPDATE
 40
0.000000000
  9
$TDINDWG
 40
0.0000000000
  9
$TDUSRTIMER
 40
0.0000000000
  9
$USRTIMER
 70
     1
  9
$ANGBASE
 50
0.0
  9
$ANGDIR
 70
     0
  9
$PDMODE
 70
     0
  9
$PDSIZE
 40
0.0
  9
$PLINEWID
 40
0.0
  9
$SPLFRAME
 70
     0
  9
$SPLINETYPE
 70
     6
  9
$SPLINESEGS
 70
     8
  9
$HANDSEED
  5
3CA
  9
$SURFTAB1
 70
     6
  9
$SURFTAB2
 70
     6
  9
$SURFTYPE
 70
     6
  9
$SURFU
 70
     6
  9
$SURFV
 70
     6
  9
$UCSBASE
  2

  9
$UCSNAME
  2

  9
$UCSORG
 10
0.0
 20
0.0
 30
0.0
  9
$UCSXDIR
 10
1.0
 20
0.0
 30
0.0
  9
$UCSYDIR
 10
0.0
 20
1.0
 30
0.0
  9
$UCSORTHOREF
  2

  9
$UCSORTHOVIEW
 70
     1
  9
$UCSORGTOP
 10
0.0
 20
0.0
 30
0.0
  9
$UCSORGBOTTOM
 10
0.0
 20
0.0
 30
0.0
  9
$UCSORGLEFT
 10
0.0
 20
0.0
 30
0.0
  9
$UCSORGRIGHT
 10
0.0
 20
0.0
 30
0.0
  9
$UCSORGFRONT
 10
0.0
 20
0.0
 30
0.0
  9
$UCSORGBACK
 10
0.0
 20
0.0
 30
0.0
  9
$PUCSBASE
  2

  9
$PUCSNAME
  2

  9
$PUCSORG
 10
0.0
 20
0.0
 30
0.0
  9
$PUCSXDIR
 10
1.0
 20
0.0
 30
0.0
  9
$PUCSYDIR
 10
0.0
 20
1.0
 30
0.0
  9
$PUCSORTHOREF
  2

  9
$PUCSORTHOVIEW
 70
     0
  9
$PUCSORGTOP
 10
0.0
 20
0.0
 30
0.0
  9
$PUCSORGBOTTOM
 10
0.0
 20
0.0
 30
0.0
  9
$PUCSORGLEFT
 10
0.0
 20
0.0
 30
0.0
  9
$PUCSORGRIGHT
 10
0.0
 20
0.0
 30
0.0
  9
$PUCSORGFRONT
 10
0.0
 20
0.0
 30
0.0
  9
$PUCSORGBACK
 10
0.0
 20
0.0
 30
0.0
  9
$USERI1
 70
     0
  9
$USERI2
 70
     0
  9
$USERI3
 70
     0
  9
$USERI4
 70
     0
  9
$USERI5
 70
     0
  9
$USERR1
 40
0.0
  9
$USERR2
 40
0.0
  9
$USERR3
 40
0.0
  9
$USERR4
 40
0.0
  9
$USERR5
 40
0.0
  9
$WORLDVIEW
 70
     1
  9
$SHADEDGE
 70
     3
  9
$SHADEDIF
 70
    70
  9
$TILEMODE
 70
     1
  9
$MAXACTVP
 70
    48
  9
$PINSBASE
 10
0.0
 20
0.0
 30
0.0
  9
$PLIMCHECK
 70
     0
  9
$PEXTMIN
 10
0.0
 20
0.0
 30
0.0
  9
$PEXTMAX
 10
355.833221
 20
168.306534
 30
2.0
  9
$PLIMMIN
 10
0.0
 20
0.0
  9
$PLIMMAX
 10
420.0
 20
297.0
  9
$UNITMODE
 70
     0
  9
$VISRETAIN
 70
     0
  9
$PLINEGEN
 70
     0
  9
$PSLTSCALE
 70
     1
  9
$TREEDEPTH
 70
  3020
  9
$CMLSTYLE
  2
Standard
  9
$CMLJUST
 70
     0
  9
$CMLSCALE
 40
20.0
  9
$PROXYGRAPHICS
 70
     1
  9
$MEASUREMENT
 70
     1
  9
$CELWEIGHT
370
    -1
  9
$ENDCAPS
280
     0
  9
$JOINSTYLE
280
     0
  9
$LWDISPLAY
290
     0
  9
$INSUNITS
 70
     0
  9
$HYPERLINKBASE
  1

  9
$STYLESHEET
  1

  9
$XEDIT
290
     1
  9
$CEPSNTYPE
380
     0
  9
$PSTYLEMODE
290
     0
  9
$FINGERPRINTGUID
  2

  9
$VERSIONGUID
  2

  9
$EXTNAMES
290
     0
  9
$PSVPSCALE
 40
0.0
  0
ENDSEC
  0
SECTION
  2
CLASSES
  0
CLASS
  1
LWPOLYLINE
  2
AcDbPolyline
  3
AutoCAD 2000
 90
        0
280
     0
281
     1
  0
CLASS
  1
IMAGE
  2
AcDbRasterImage
  3
ISM
 90
      127
280
     0
281
     1
  0
CLASS
  1
OLE2FRAME
  2
AcDbOle2Frame
  3
AutoCAD 2000
 90
        0
280
     0
281
     1
  0
CLASS
  1
HATCH
  2
AcDbHatch
  3
AutoCAD 2000
 90
        0
280
     0
281
     1
  0
CLASS
  1
DICTIONARYVAR
  2
AcDbDictionaryVar
  3
AutoCAD 2000
 90
        0
280
     0
281
     0
  0
CLASS
  1
RASTERVARIABLES
  2
AcDbRasterVariables
  3
ISM
 90
        0
280
     0
281
     0
  0
CLASS
  1
IMAGEDEF
  2
AcDbRasterImageDef
  3
ISM
 90
        0
280
     0
281
     0
  0
CLASS
  1
IMAGEDEF_REACTOR
  2
AcDbRasterImageDefReactor
  3
ISM
 90
        1
280
     0
281
     0
  0
CLASS
  1
IDBUFFER
  2
AcDbIdBuffer
  3
AutoCAD 2000
 90
        0
280
     0
281
     0
  0
CLASS
  1
SPATIAL_FILTER
  2
AcDbSpatialFilter
  3
AutoCAD 2000
 90
        0
280
     0
281
     0
  0
CLASS
  1
XRECORD
  2
AcDbXrecord
  3
AutoCAD 2000
 90
        0
280
     0
281
     0
  0
CLASS
  1
SORTENTSTABLE
  2
AcDbSortentsTable
  3
AutoCAD 2000
 90
        0
280
     0
281
     0
  0
CLASS
  1
LAYER_INDEX
  2
AcDbLayerIndex
  3
AutoCAD 2000
 90
        0
280
     0
281
     0
  0
CLASS
  1
SPATIAL_INDEX
  2
AcDbSpatialIndex
  3
AutoCAD 2000
 90
        0
280
     0
281
     0
  0
CLASS
  1
OBJECT_PTR
  2
CAseDLPNTableRecord
  3
"ASE-LPNTableRecord"
 90
        1
280
     0
281
     0
  0
CLASS
  1
LAYOUT
  2
AcDbLayout
  3
AutoCAD 2000
 90
        0
280
     0
281
     0
  0
CLASS
  1
PLOTSETTINGS
  2
AcDbPlotSettings
  3
AutoCAD 2000
 90
        0
280
     0
281
     0
  0
CLASS
  1
ACDBDICTIONARYWDFLT
  2
AcDbDictionaryWithDefault
  3
AutoCAD 2000
 90
        0
280
     0
281
     0
  0
CLASS
  1
ACDBPLACEHOLDER
  2
AcDbPlaceHolder
  3
AutoCAD 2000
 90
        0
280
     0
281
     0
  0
CLASS
  1
VBA_PROJECT
  2
AcDbVbaProject
  3
acadvba
 90
        0
280
     0
281
     0
  0
CLASS
  1
WIPEOUT
  2
AcDbWipeout
  3
WipeOut|AutoCAD Express Tool|expresstools@autodesk.com
 90
      127
280
     0
281
     1
  0
CLASS
  1
WIPEOUTVARIABLES
  2
AcDbWipeoutVariables
  3
WipeOut|AutoCAD Express Tool|expresstools@autodesk.com
 90
        0
280
     0
281
     0
  0
CLASS
  1
RTEXT
  2
RText
  3
RText|AutoCAD Express Tool|expresstools@autodesk.com
 90
        0
280
     0
281
     1
  0
CLASS
  1
ARCALIGNEDTEXT
  2
AcDbArcAlignedText
  3
ATEXT|AutoCAD Express Tool|expresstools@autodesk.com
 90
        0
280
     0
281
     1
  0
ENDSEC
  0
SECTION
  2
TABLES
  0
TABLE
  2
VPORT
  5
7
100
AcDbSymbolTable
 70
     1
  0
VPORT
  5
15
100
AcDbSymbolTableRecord
100
AcDbViewportTableRecord
  2
*ACTIVE
 70
     0
 10
0.0
 20
0.0
 11
1.0
 21
1.0
 12
6.591288
 22
4.579184
 13
0.0
 23
0.0
 14
1.0
 24
1.0
 15
0.0
 25
0.0
 16
0.0
 26
0.0
 36
1.0
 17
0.0
 27
0.0
 37
0.0
 40
9.158369
 41
0.688564
 42
50.0
 43
0.0
 44
0.0
 50
0.0
 51
0.0
 71
     0
 72
   100
 73
     1
 74
     1
 75
     0
 76
     0
 77
     0
 78
     0
281
     0
 65
     0
110
0.0
120
0.0
130
0.0
111
1.0
121
0.0
131
0.0
112
0.0
122
1.0
132
0.0
345
0
346
0
 79
     0
146
0.0
  0
ENDTAB
  0
TABLE
  2
LTYPE
  5
4
100
AcDbSymbolTable
 70
     3
  0
LTYPE
  5
11
100
AcDbSymbolTableRecord
100
AcDbLinetypeTableRecord
  2
ByBlock
 70
    64
  3

 72
    65
 73
     0
 40
0.0
  0
LTYPE
  5
12
100
AcDbSymbolTableRecord
100
AcDbLinetypeTableRecord
  2
ByLayer
 70
    64
  3

 72
    65
 73
     0
 40
0.0
  0
LTYPE
  5
13
100
AcDbSymbolTableRecord
100
AcDbLinetypeTableRecord
  2
Continuous
 70
    64
  3
Solid line
 72
    65
 73
     0
 40
0.0
  0
ENDTAB
  0
TABLE
  2
LAYER
  5
2
100
AcDbSymbolTable
 70
     1
  0
LAYER
  5
14
100
AcDbSymbolTableRecord
100
AcDbLayerTableRecord
  2
0
 70
     0
 62
     7
  6
Continuous
290
     1
370
    -3
390
1D
  0
ENDTAB
  0
TABLE
  2
STYLE
  5
3
100
AcDbSymbolTable
 70
     1
  0
STYLE
  5
17
100
AcDbSymbolTableRecord
100
AcDbTextStyleTableRecord
  2
Standard
 70
     0
 40
0.0
 41
1.0
 50
0.0
 71
     0
 42
0.0
  3
txt
  4

  0
ENDTAB
  0
TABLE
  2
VIEW
  5
5
100
AcDbSymbolTable
 70
     0
  0
ENDTAB
  0
TABLE
  2
UCS
  5
6
100
AcDbSymbolTable
 70
     0
  0
ENDTAB
  0
TABLE
  2
APPID
  5
8
100
AcDbSymbolTable
 70
     1
  0
APPID
  5
16
100
AcDbSymbolTableRecord
100
AcDbRegAppTableRecord
  2
ACAD
 70
     0
  0
ENDTAB
  0
TABLE
  2
DIMSTYLE
  5
9
100
AcDbSymbolTable
 70
     1
100
AcDbDimStyleTable
 71
     0
  0
DIMSTYLE
105
18
100
AcDbSymbolTableRecord
100
AcDbDimStyleTableRecord
  2
Standard
 70
     0
  3

  4

 40
1.0
 41
0.18
 42
0.0625
 43
0.38
 44
0.18
 45
0.0
 46
0.0
 47
0.0
 48
0.0
 71
     0
 72
     0
 73
     1
 74
     1
 75
     0
 76
     0
 77
     0
 78
     0
 79
     0
140
0.18
141
0.09
142
0.0
143
25.4
144
1.0
145
0.0
146
1.0
147
0.09
148
0.0
170
     0
171
     2
172
     0
173
     0
174
     0
175
     0
176
     0
177
     0
178
     0
179
     0
271
     4
272
     4
273
     2
274
     2
275
     0
276
     0
277
     2
278
    46
279
     0
280
     0
281
     0
282
     0
283
     1
284
     0
285
     0
286
     0
288
     0
289
     3
340
17
341
0
342
0
343
0
344
0
371
    -2
372
    -2
  0
ENDTAB
  0
TABLE
  2
BLOCK_RECORD
  5
1
100
AcDbSymbolTable
 70
     0
  0
BLOCK_RECORD
  5
A
100
AcDbSymbolTableRecord
100
AcDbBlockTableRecord
  2
*MODEL_SPACE
340
20
  0
BLOCK_RECORD
  5
B
100
AcDbSymbolTableRecord
100
AcDbBlockTableRecord
  2
*PAPER_SPACE
340
21
  0
ENDTAB
  0
ENDSEC
  0
SECTION
  2
BLOCKS
  0
BLOCK
  5
D
100
AcDbEntity
  8
0
390
0
100
AcDbBlockBegin
  2
*MODEL_SPACE
 70
     0
 10
0.0
 20
0.0
 30
0.0
  3
*MODEL_SPACE
  1

  0
ENDBLK
  5
E
100
AcDbEntity
  8
0
390
0
100
AcDbBlockEnd
  0
BLOCK
  5
F
100
AcDbEntity
 67
     1
  8
0
390
0
100
AcDbBlockBegin
  2
*PAPER_SPACE
 70
     0
 10
0.0
 20
0.0
 30
0.0
  3
*PAPER_SPACE
  1

  0
ENDBLK
  5
10
100
AcDbEntity
 67
     1
  8
0
390
0
100
AcDbBlockEnd
  0
ENDSEC
  0
SECTION
  2
ENTITIES
  0
VIEWPORT
  5
3C9
100
AcDbEntity
 67
     1
  8
0
370
     0
390
0
 62
     0
 48
0.0
100
AcDbViewport
 10
0.0
 20
0.0
 30
0.0
 40
1000.0
 41
1000.0
 68
     1
 69
     1
 12
0.0
 22
0.0
 13
0.0
 23
0.0
 14
1.0
 24
1.0
 15
1.0
 25
1.0
 16
0.0
 26
0.0
 36
1.0
 17
0.0
 27
0.0
 37
0.0
 42
50.0
 43
0.0
 44
0.0
 45
1000.0
 50
0.0
 51
0.0
 72
   100
 90
        0
340
0
  1

281
     0
 71
     0
 74
     1
110
0.0
120
0.0
130
0.0
111
1.0
121
0.0
131
0.0
112
0.0
122
1.0
132
0.0
345
0
346
0
 79
     0
146
0.0
  0
POLYLINE
  5
24
100
AcDbEntity
  8
0
370
    13
390
0
 62
     7
100
AcDb2dPolyline
 66
     1
 10
0.0
 20
0.0
 30
0.0
 70
     1
 71
    10
  0
VERTEX
  5
25
100
AcDbEntity
  8
0
370
     0
390
0
100
AcDbVertex
100
AcDb2dVertex
 10
189.17952
 20
-27.754745
 30
0.0
  0
VERTEX
  5
26
100
AcDbEntity
  8
0
370
     0
390
0
100
AcDbVertex
100
AcDb2dVertex
 10
189.648544
 20
-27.754745
 30
0.0
  0
VERTEX
  5
27
100
AcDbEntity
  8
0
370
     0
390
0
100
AcDbVertex
100
AcDb2dVertex
 10
189.648544
 20
-26.145956
 30
0.0
  0
VERTEX
  5
28
100
AcDbEntity
  8
0
370
     0
390
0
100
AcDbVertex
100
AcDb2dVertex
 10
191.12117
 20
-26.145956
 30
0.0
  0
VERTEX
  5
29
100
AcDbEntity
  8
0
370
     0
390
0
100
AcDbVertex
100
AcDb2dVertex
 10
191.12117
 20
-25.727367
 30
0.0
  0
VERTEX
  5
2A
100
AcDbEntity
  8
0
370
     0
390
0
100
AcDbVertex
100
AcDb2dVertex
 10
189.648544
 20
-25.727367
 30
0.0
  0
VERTEX
  5
2B
100
AcDbEntity
  8
0
370
     0
390
0
100
AcDbVertex
100
AcDb2dVertex
 10
189.648544
 20
-24.678377
 30
0.0
  0
VERTEX
  5
2C
100
AcDbEntity
  8
0
370
     0
390
0
100
AcDbVertex
100
AcDb2dVertex
 10
191.459061
 20
-24.678377
 30
0.0
  0
VERTEX
  5
2D
100
AcDbEntity
  8
0
370
     0
390
0
100
AcDbVertex
100
AcDb2dVertex
 10
191.459061
 20
-24.254745
 30
0.0
  0
VERTEX
  5
2E
100
AcDbEntity
  8
0
370
     0
390
0
100
AcDbVertex
100
AcDb2dVertex
 10
189.17952
 20
-24.254745
 30
0.0
  0
SEQEND
  5
2F
100
AcDbEntity
  8
0
370
     0
390
0
  0
POLYLINE
  5
30
100
AcDbEntity
  8
0
370
    13
390
0
 62
     7
100
AcDb2dPolyline
 66
     1
 10
0.0
 20
0.0
 30
0.0
 70
     1
 71
    22
  0
VERTEX
  5
31
100
AcDbEntity
  8
0
370
     0
390
0
100
AcDbVertex
100
AcDb2dVertex
 10
192.371887
 20
-27.754745
 30
0.0
  0
VERTEX
  5
32
100
AcDbEntity
  8
0
370
     0
390
0
100
AcDbVertex
100
AcDb2dVertex
 10
192.815689
 20
-27.754745
 30
0.0
  0
VERTEX
  5
33
100
AcDbEntity
  8
0
370
     0
390
0
100
AcDbVertex
100
AcDb2dVertex
 10
192.815689
 20
-26.206474
 30
0.0
  0
VERTEX
  5
34
100
AcDbEntity
  8
0
370
     0
390
0
100
AcDbVertex
100
AcDb2dVertex
 10
192.861084
 20
-25.833275
 30
0.0
  0
VERTEX
  5
35
100
AcDbEntity
  8
0
370
     0
390
0
100
AcDbVertex
100
AcDb2dVertex
 10
192.997253
 20
-25.565985
 30
0.0
  0
VERTEX
  5
36
100
AcDbEntity
  8
0
370
     0
390
0
100
AcDbVertex
100
AcDb2dVertex
 10
193.219147
 20
-25.404602
 30
0.0
  0
VERTEX
  5
37
100
AcDbEntity
  8
0
370
     0
390
0
100
AcDbVertex
100
AcDb2dVertex
 10
193.516693
 20
-25.349125
 30
0.0
  0
VERTEX
  5
38
100
AcDbEntity
  8
0
370
     0
390
0
100
AcDbVertex
100
AcDb2dVertex
 10
193.738602
 20
-25.384428
 30
0.0
  0
VERTEX
  5
39
100
AcDbEntity
  8
0
370
     0
390
0
100
AcDbVertex
100
AcDb2dVertex
 10
193.905029
 20
-25.485292
 30
0.0
  0
VERTEX
  5
3A
100
AcDbEntity
  8
0
370
     0
390
0
100
AcDbVertex
100
AcDb2dVertex
 10
194.00589
 20
-25.656763
 30
0.0
  0
VERTEX
  5
3B
100
AcDbEntity
  8
0
370
     0
390
0
100
AcDbVertex
100
AcDb2dVertex
 10
194.041199
 20
-25.888752
 30
0.0
  0
VERTEX
  5
3C
100
AcDbEntity
  8
0
370
     0
390
0
100
AcDbVertex
100
AcDb2dVertex
 10
194.490036
 20
-25.888752
 30
0.0
  0
VERTEX
  5
3D
100
AcDbEntity
  8
0
370
     0
390
0
100
AcDbVertex
100
AcDb2dVertex
 10
194.42952
 20
-25.480249
 30
0.0
  0
VERTEX
  5
3E
100
AcDbEntity
  8
0
370
     0
390
0
100
AcDbVertex
100
AcDb2dVertex
 10
194.263092
 20
-25.187742
 30
0.0
  0
VERTEX
  5
3F
100
AcDbEntity
  8
0
370
     0
390
0
100
AcDbVertex
100
AcDb2dVertex
 10
193.985718
 20
-25.01123
 30
0.0
  0
VERTEX
  5
40
100
AcDbEntity
  8
0
370
     0
390
0
100
AcDbVertex
100
AcDb2dVertex
 10
193.607483
 20
-24.95071
 30
0.0
  0
VERTEX
  5
41
100
AcDbEntity
  8
0
370
     0
390
0
100
AcDbVertex
100
AcDb2dVertex
 10
193.350266
 20
-24.991056
 30
0.0
  0
VERTEX
  5
42
100
AcDbEntity
  8
0
370
     0
390
0
100
AcDbVertex
100
AcDb2dVertex
 10
193.128372
 20
-25.091921
 30
0.0
  0
VERTEX
  5
43
100
AcDbEntity
  8
0
370
     0
390
0
100
AcDbVertex
100
AcDb2dVertex
 10
192.931686
 20
-25.263391
 30
0.0
  0
VERTEX
  5
44
100
AcDbEntity
  8
0
370
     0
390
0
100
AcDbVertex
100
AcDb2dVertex
 10
192.775345
 20
-25.49538
 30
0.0
  0
VERTEX
  5
45
100
AcDbEntity
  8
0
370
     0
390
0
100
AcDbVertex
100
AcDb2dVertex
 10
192.775345
 20
-25.046532
 30
0.0
  0
VERTEX
  5
46
100
AcDbEntity
  8
0
370
     0
390
0
100
AcDbVertex
100
AcDb2dVertex
 10
192.371887
 20
-25.046532
 30
0.0
  0
SEQEND
  5
47
100
AcDbEntity
  8
0
370
     0
390
0
  0
POLYLINE
  5
48
100
AcDbEntity
  8
0
370
    13
390
0
 62
     7
100
AcDb2dPolyline
 66
     1
 10
0.0
 20
0.0
 30
0.0
 70
     1
 71
    16
  0
VERTEX
  5
49
100
AcDbEntity
  8
0
370
     0
390
0
100
AcDbVertex
100
AcDb2dVertex
 10
195.110352
 20
-26.40316
 30
0.0
  0
VERTEX
  5
4A
100
AcDbEntity
  8
0
370
     0
390
0
100
AcDbVertex
100
AcDb2dVertex
 10
195.191055
 20
-27.018435
 30
0.0
  0
VERTEX
  5
4B
100
AcDbEntity
  8
0
370
     0
390
0
100
AcDbVertex
100
AcDb2dVertex
 10
195.423035
 20
-27.472324
 30
0.0
  0
VERTEX
  5
4C
100
AcDbEntity
  8
0
370
     0
390
0
100
AcDbVertex
100
AcDb2dVertex
 10
195.791199
 20
-27.754745
 30
0.0
  0
VERTEX
  5
4D
100
AcDbEntity
  8
0
370
     0
390
0
100
AcDbVertex
100
AcDb2dVertex
 10
196.285431
 20
-27.850567
 30
0.0
  0
VERTEX
  5
4E
100
AcDbEntity
  8
0
370
     0
390
0
100
AcDbVertex
100
AcDb2dVertex
 10
196.774628
 20
-27.754745
 30
0.0
  0
VERTEX
  5
4F
100
AcDbEntity
  8
0
370
     0
390
0
100
AcDbVertex
100
AcDb2dVertex
 10
197.142776
 20
-27.477367
 30
0.0
  0
VERTEX
  5
50
100
AcDbEntity
  8
0
370
     0
390
0
100
AcDbVertex
100
AcDb2dVertex
 10
197.374771
 20
-27.023478
 30
0.0
  0
VERTEX
  5
51
100
AcDbEntity
  8
0
370
     0
390
0
100
AcDbVertex
100
AcDb2dVertex
 10
197.46051
 20
-26.40316
 30
0.0
  0
VERTEX
  5
52
100
AcDbEntity
  8
0
370
     0
390
0
100
AcDbVertex
100
AcDb2dVertex
 10
197.374771
 20
-25.787888
 30
0.0
  0
VERTEX
  5
53
100
AcDbEntity
  8
0
370
     0
390
0
100
AcDbVertex
100
AcDb2dVertex
 10
197.142776
 20
-25.328953
 30
0.0
  0
VERTEX
  5
54
100
AcDbEntity
  8
0
370
     0
390
0
100
AcDbVertex
100
AcDb2dVertex
 10
196.774628
 20
-25.051575
 30
0.0
  0
VERTEX
  5
55
100
AcDbEntity
  8
0
370
     0
390
0
100
AcDbVertex
100
AcDb2dVertex
 10
196.285431
 20
-24.95071
 30
0.0
  0
VERTEX
  5
56
100
AcDbEntity
  8
0
370
     0
390
0
100
AcDbVertex
100
AcDb2dVertex
 10
195.791199
 20
-25.051575
 30
0.0
  0
VERTEX
  5
57
100
AcDbEntity
  8
0
370
     0
390
0
100
AcDbVertex
100
AcDb2dVertex
 10
195.423035
 20
-25.333996
 30
0.0
  0
VERTEX
  5
58
100
AcDbEntity
  8
0
370
     0
390
0
100
AcDbVertex
100
AcDb2dVertex
 10
195.191055
 20
-25.787888
 30
0.0
  0
SEQEND
  5
59
100
AcDbEntity
  8
0
370
     0
390
0
  0
POLYLINE
  5
5A
100
AcDbEntity
  8
0
370
    13
390
0
 62
     7
100
AcDb2dPolyline
 66
     1
 10
0.0
 20
0.0
 30
0.0
 70
     1
 71
    16
  0
VERTEX
  5
5B
100
AcDbEntity
  8
0
370
     0
390
0
100
AcDbVertex
100
AcDb2dVertex
 10
195.564255
 20
-26.398117
 30
0.0
  0
VERTEX
  5
5C
100
AcDbEntity
  8
0
370
     0
390
0
100
AcDbVertex
100
AcDb2dVertex
 10
195.609634
 20
-25.944227
 30
0.0
  0
VERTEX
  5
5D
100
AcDbEntity
  8
0
370
     0
390
0
100
AcDbVertex
100
AcDb2dVertex
 10
195.750854
 20
-25.616417
 30
0.0
  0
VERTEX
  5
5E
100
AcDbEntity
  8
0
370
     0
390
0
100
AcDbVertex
100
AcDb2dVertex
 10
195.977798
 20
-25.414688
 30
0.0
  0
VERTEX
  5
5F
100
AcDbEntity
  8
0
370
     0
390
0
100
AcDbVertex
100
AcDb2dVertex
 10
196.285431
 20
-25.344082
 30
0.0
  0
VERTEX
  5
60
100
AcDbEntity
  8
0
370
     0
390
0
100
AcDbVertex
100
AcDb2dVertex
 10
196.588028
 20
-25.414688
 30
0.0
  0
VERTEX
  5
61
100
AcDbEntity
  8
0
370
     0
390
0
100
AcDbVertex
100
AcDb2dVertex
 10
196.814972
 20
-25.611374
 30
0.0
  0
VERTEX
  5
62
100
AcDbEntity
  8
0
370
     0
390
0
100
AcDbVertex
100
AcDb2dVertex
 10
196.956177
 20
-25.944227
 30
0.0
  0
VERTEX
  5
63
100
AcDbEntity
  8
0
370
     0
390
0
100
AcDbVertex
100
AcDb2dVertex
 10
197.006607
 20
-26.398117
 30
0.0
  0
VERTEX
  5
64
100
AcDbEntity
  8
0
370
     0
390
0
100
AcDbVertex
100
AcDb2dVertex
 10
196.956177
 20
-26.857052
 30
0.0
  0
VERTEX
  5
65
100
AcDbEntity
  8
0
370
     0
390
0
100
AcDbVertex
100
AcDb2dVertex
 10
196.814972
 20
-27.189903
 30
0.0
  0
VERTEX
  5
66
100
AcDbEntity
  8
0
370
     0
390
0
100
AcDbVertex
100
AcDb2dVertex
 10
196.588028
 20
-27.391634
 30
0.0
  0
VERTEX
  5
67
100
AcDbEntity
  8
0
370
     0
390
0
100
AcDbVertex
100
AcDb2dVertex
 10
196.285431
 20
-27.457195
 30
0.0
  0
VERTEX
  5
68
100
AcDbEntity
  8
0
370
     0
390
0
100
AcDbVertex
100
AcDb2dVertex
 10
195.977798
 20
-27.391634
 30
0.0
  0
VERTEX
  5
69
100
AcDbEntity
  8
0
370
     0
390
0
100
AcDbVertex
100
AcDb2dVertex
 10
195.750854
 20
-27.189903
 30
0.0
  0
VERTEX
  5
6A
100
AcDbEntity
  8
0
370
     0
390
0
100
AcDbVertex
100
AcDb2dVertex
 10
195.609634
 20
-26.857052
 30
0.0
  0
SEQEND
  5
6B
100
AcDbEntity
  8
0
370
     0
390
0
  0
POLYLINE
  5
6C
100
AcDbEntity
  8
0
370
    13
390
0
 62
     7
100
AcDb2dPolyline
 66
     1
 10
0.0
 20
0.0
 30
0.0
 70
     1
 71
    24
  0
VERTEX
  5
6D
100
AcDbEntity
  8
0
370
     0
390
0
100
AcDbVertex
100
AcDb2dVertex
 10
198.277512
 20
-27.754745
 30
0.0
  0
VERTEX
  5
6E
100
AcDbEntity
  8
0
370
     0
390
0
100
AcDbVertex
100
AcDb2dVertex
 10
198.721313
 20
-27.754745
 30
0.0
  0
VERTEX
  5
6F
100
AcDbEntity
  8
0
370
     0
390
0
100
AcDbVertex
100
AcDb2dVertex
 10
198.721313
 20
-26.191345
 30
0.0
  0
VERTEX
  5
70
100
AcDbEntity
  8
0
370
     0
390
0
100
AcDbVertex
100
AcDb2dVertex
 10
198.766693
 20
-25.833275
 30
0.0
  0
VERTEX
  5
71
100
AcDbEntity
  8
0
370
     0
390
0
100
AcDbVertex
100
AcDb2dVertex
 10
198.912949
 20
-25.571028
 30
0.0
  0
VERTEX
  5
72
100
AcDbEntity
  8
0
370
     0
390
0
100
AcDbVertex
100
AcDb2dVertex
 10
199.139893
 20
-25.409645
 30
0.0
  0
VERTEX
  5
73
100
AcDbEntity
  8
0
370
     0
390
0
100
AcDbVertex
100
AcDb2dVertex
 10
199.44249
 20
-25.349125
 30
0.0
  0
VERTEX
  5
74
100
AcDbEntity
  8
0
370
     0
390
0
100
AcDbVertex
100
AcDb2dVertex
 10
199.68457
 20
-25.399559
 30
0.0
  0
VERTEX
  5
75
100
AcDbEntity
  8
0
370
     0
390
0
100
AcDbVertex
100
AcDb2dVertex
 10
199.835861
 20
-25.535725
 30
0.0
  0
VERTEX
  5
76
100
AcDbEntity
  8
0
370
     0
390
0
100
AcDbVertex
100
AcDb2dVertex
 10
199.911514
 20
-25.762671
 30
0.0
  0
VERTEX
  5
77
100
AcDbEntity
  8
0
370
     0
390
0
100
AcDbVertex
100
AcDb2dVertex
 10
199.936722
 20
-26.065264
 30
0.0
  0
VERTEX
  5
78
100
AcDbEntity
  8
0
370
     0
390
0
100
AcDbVertex
100
AcDb2dVertex
 10
199.936722
 20
-27.754745
 30
0.0
  0
VERTEX
  5
79
100
AcDbEntity
  8
0
370
     0
390
0
100
AcDbVertex
100
AcDb2dVertex
 10
200.380539
 20
-27.754745
 30
0.0
  0
VERTEX
  5
7A
100
AcDbEntity
  8
0
370
     0
390
0
100
AcDbVertex
100
AcDb2dVertex
 10
200.380539
 20
-25.974485
 30
0.0
  0
VERTEX
  5
7B
100
AcDbEntity
  8
0
370
     0
390
0
100
AcDbVertex
100
AcDb2dVertex
 10
200.360352
 20
-25.616417
 30
0.0
  0
VERTEX
  5
7C
100
AcDbEntity
  8
0
370
     0
390
0
100
AcDbVertex
100
AcDb2dVertex
 10
200.269577
 20
-25.318867
 30
0.0
  0
VERTEX
  5
7D
100
AcDbEntity
  8
0
370
     0
390
0
100
AcDbVertex
100
AcDb2dVertex
 10
199.972031
 20
-25.046532
 30
0.0
  0
VERTEX
  5
7E
100
AcDbEntity
  8
0
370
     0
390
0
100
AcDbVertex
100
AcDb2dVertex
 10
199.508057
 20
-24.95071
 30
0.0
  0
VERTEX
  5
7F
100
AcDbEntity
  8
0
370
     0
390
0
100
AcDbVertex
100
AcDb2dVertex
 10
199.250854
 20
-24.986013
 30
0.0
  0
VERTEX
  5
80
100
AcDbEntity
  8
0
370
     0
390
0
100
AcDbVertex
100
AcDb2dVertex
 10
199.033997
 20
-25.081835
 30
0.0
  0
VERTEX
  5
81
100
AcDbEntity
  8
0
370
     0
390
0
100
AcDbVertex
100
AcDb2dVertex
 10
198.847397
 20
-25.243217
 30
0.0
  0
VERTEX
  5
82
100
AcDbEntity
  8
0
370
     0
390
0
100
AcDbVertex
100
AcDb2dVertex
 10
198.701141
 20
-25.460077
 30
0.0
  0
VERTEX
  5
83
100
AcDbEntity
  8
0
370
     0
390
0
100
AcDbVertex
100
AcDb2dVertex
 10
198.701141
 20
-25.046532
 30
0.0
  0
VERTEX
  5
84
100
AcDbEntity
  8
0
370
     0
390
0
100
AcDbVertex
100
AcDb2dVertex
 10
198.277512
 20
-25.046532
 30
0.0
  0
SEQEND
  5
85
100
AcDbEntity
  8
0
370
     0
390
0
  0
POLYLINE
  5
86
100
AcDbEntity
  8
0
370
    13
390
0
 62
     7
100
AcDb2dPolyline
 66
     1
 10
0.0
 20
0.0
 30
0.0
 70
     1
 71
    22
  0
VERTEX
  5
87
100
AcDbEntity
  8
0
370
     0
390
0
100
AcDbVertex
100
AcDb2dVertex
 10
201.90863
 20
-25.515553
 30
0.0
  0
VERTEX
  5
88
100
AcDbEntity
  8
0
370
     0
390
0
100
AcDbVertex
100
AcDb2dVertex
 10
201.90863
 20
-26.872181
 30
0.0
  0
VERTEX
  5
89
100
AcDbEntity
  8
0
370
     0
390
0
100
AcDbVertex
100
AcDb2dVertex
 10
201.938889
 20
-27.310942
 30
0.0
  0
VERTEX
  5
8A
100
AcDbEntity
  8
0
370
     0
390
0
100
AcDbVertex
100
AcDb2dVertex
 10
202.080093
 20
-27.613535
 30
0.0
  0
VERTEX
  5
8B
100
AcDbEntity
  8
0
370
     0
390
0
100
AcDbVertex
100
AcDb2dVertex
 10
202.362518
 20
-27.790049
 30
0.0
  0
VERTEX
  5
8C
100
AcDbEntity
  8
0
370
     0
390
0
100
AcDbVertex
100
AcDb2dVertex
 10
202.841629
 20
-27.850567
 30
0.0
  0
VERTEX
  5
8D
100
AcDbEntity
  8
0
370
     0
390
0
100
AcDbVertex
100
AcDb2dVertex
 10
203.366119
 20
-27.82535
 30
0.0
  0
VERTEX
  5
8E
100
AcDbEntity
  8
0
370
     0
390
0
100
AcDbVertex
100
AcDb2dVertex
 10
203.366119
 20
-27.442066
 30
0.0
  0
VERTEX
  5
8F
100
AcDbEntity
  8
0
370
     0
390
0
100
AcDbVertex
100
AcDb2dVertex
 10
202.982834
 20
-27.472324
 30
0.0
  0
VERTEX
  5
90
100
AcDbEntity
  8
0
370
     0
390
0
100
AcDbVertex
100
AcDb2dVertex
 10
202.634857
 20
-27.431978
 30
0.0
  0
VERTEX
  5
91
100
AcDbEntity
  8
0
370
     0
390
0
100
AcDbVertex
100
AcDb2dVertex
 10
202.448257
 20
-27.305899
 30
0.0
  0
VERTEX
  5
92
100
AcDbEntity
  8
0
370
     0
390
0
100
AcDbVertex
100
AcDb2dVertex
 10
202.367569
 20
-27.094082
 30
0.0
  0
VERTEX
  5
93
100
AcDbEntity
  8
0
370
     0
390
0
100
AcDbVertex
100
AcDb2dVertex
 10
202.352432
 20
-26.796532
 30
0.0
  0
VERTEX
  5
94
100
AcDbEntity
  8
0
370
     0
390
0
100
AcDbVertex
100
AcDb2dVertex
 10
202.352432
 20
-25.515553
 30
0.0
  0
VERTEX
  5
95
100
AcDbEntity
  8
0
370
     0
390
0
100
AcDbVertex
100
AcDb2dVertex
 10
203.366119
 20
-25.515553
 30
0.0
  0
VERTEX
  5
96
100
AcDbEntity
  8
0
370
     0
390
0
100
AcDbVertex
100
AcDb2dVertex
 10
203.366119
 20
-25.13731
 30
0.0
  0
VERTEX
  5
97
100
AcDbEntity
  8
0
370
     0
390
0
100
AcDbVertex
100
AcDb2dVertex
 10
202.352432
 20
-25.13731
 30
0.0
  0
VERTEX
  5
98
100
AcDbEntity
  8
0
370
     0
390
0
100
AcDbVertex
100
AcDb2dVertex
 10
202.352432
 20
-24.345524
 30
0.0
  0
VERTEX
  5
99
100
AcDbEntity
  8
0
370
     0
390
0
100
AcDbVertex
100
AcDb2dVertex
 10
201.90863
 20
-24.345524
 30
0.0
  0
VERTEX
  5
9A
100
AcDbEntity
  8
0
370
     0
390
0
100
AcDbVertex
100
AcDb2dVertex
 10
201.90863
 20
-25.13731
 30
0.0
  0
VERTEX
  5
9B
100
AcDbEntity
  8
0
370
     0
390
0
100
AcDbVertex
100
AcDb2dVertex
 10
201.142059
 20
-25.13731
 30
0.0
  0
VERTEX
  5
9C
100
AcDbEntity
  8
0
370
     0
390
0
100
AcDbVertex
100
AcDb2dVertex
 10
201.142059
 20
-25.515553
 30
0.0
  0
SEQEND
  5
9D
100
AcDbEntity
  8
0
370
     0
390
0
  0
POLYLINE
  5
9E
100
AcDbEntity
  8
0
370
    13
390
0
 62
     7
100
AcDb2dPolyline
 66
     1
 10
0.0
 20
0.0
 30
0.0
 70
     1
 71
     7
  0
VERTEX
  5
9F
100
AcDbEntity
  8
0
370
     0
390
0
100
AcDbVertex
100
AcDb2dVertex
 10
208.19754
 20
-27.754745
 30
0.0
  0
VERTEX
  5
A0
100
AcDbEntity
  8
0
370
     0
390
0
100
AcDbVertex
100
AcDb2dVertex
 10
208.66655
 20
-27.754745
 30
0.0
  0
VERTEX
  5
A1
100
AcDbEntity
  8
0
370
     0
390
0
100
AcDbVertex
100
AcDb2dVertex
 10
209.655029
 20
-25.046532
 30
0.0
  0
VERTEX
  5
A2
100
AcDbEntity
  8
0
370
     0
390
0
100
AcDbVertex
100
AcDb2dVertex
 10
209.196091
 20
-25.046532
 30
0.0
  0
VERTEX
  5
A3
100
AcDbEntity
  8
0
370
     0
390
0
100
AcDbVertex
100
AcDb2dVertex
 10
208.43457
 20
-27.230249
 30
0.0
  0
VERTEX
  5
A4
100
AcDbEntity
  8
0
370
     0
390
0
100
AcDbVertex
100
AcDb2dVertex
 10
207.657913
 20
-25.046532
 30
0.0
  0
VERTEX
  5
A5
100
AcDbEntity
  8
0
370
     0
390
0
100
AcDbVertex
100
AcDb2dVertex
 10
207.193939
 20
-25.046532
 30
0.0
  0
SEQEND
  5
A6
100
AcDbEntity
  8
0
370
     0
390
0
  0
POLYLINE
  5
A7
100
AcDbEntity
  8
0
370
    13
390
0
 62
     7
100
AcDb2dPolyline
 66
     1
 10
0.0
 20
0.0
 30
0.0
 70
     1
 71
    10
  0
VERTEX
  5
A8
100
AcDbEntity
  8
0
370
     0
390
0
100
AcDbVertex
100
AcDb2dVertex
 10
211.778229
 20
-27.381546
 30
0.0
  0
VERTEX
  5
A9
100
AcDbEntity
  8
0
370
     0
390
0
100
AcDbVertex
100
AcDb2dVertex
 10
211.778229
 20
-25.13731
 30
0.0
  0
VERTEX
  5
AA
100
AcDbEntity
  8
0
370
     0
390
0
100
AcDbVertex
100
AcDb2dVertex
 10
210.638458
 20
-25.13731
 30
0.0
  0
VERTEX
  5
AB
100
AcDbEntity
  8
0
370
     0
390
0
100
AcDbVertex
100
AcDb2dVertex
 10
210.638458
 20
-25.515553
 30
0.0
  0
VERTEX
  5
AC
100
AcDbEntity
  8
0
370
     0
390
0
100
AcDbVertex
100
AcDb2dVertex
 10
211.334427
 20
-25.515553
 30
0.0
  0
VERTEX
  5
AD
100
AcDbEntity
  8
0
370
     0
390
0
100
AcDbVertex
100
AcDb2dVertex
 10
211.334427
 20
-27.381546
 30
0.0
  0
VERTEX
  5
AE
100
AcDbEntity
  8
0
370
     0
390
0
100
AcDbVertex
100
AcDb2dVertex
 10
210.426636
 20
-27.381546
 30
0.0
  0
VERTEX
  5
AF
100
AcDbEntity
  8
0
370
     0
390
0
100
AcDbVertex
100
AcDb2dVertex
 10
210.426636
 20
-27.754745
 30
0.0
  0
VERTEX
  5
B0
100
AcDbEntity
  8
0
370
     0
390
0
100
AcDbVertex
100
AcDb2dVertex
 10
212.696091
 20
-27.754745
 30
0.0
  0
VERTEX
  5
B1
100
AcDbEntity
  8
0
370
     0
390
0
100
AcDbVertex
100
AcDb2dVertex
 10
212.696091
 20
-27.381546
 30
0.0
  0
SEQEND
  5
B2
100
AcDbEntity
  8
0
370
     0
390
0
  0
POLYLINE
  5
B3
100
AcDbEntity
  8
0
370
    13
390
0
 62
     7
100
AcDb2dPolyline
 66
     1
 10
0.0
 20
0.0
 30
0.0
 70
     1
 71
     4
  0
VERTEX
  5
B4
100
AcDbEntity
  8
0
370
     0
390
0
100
AcDbVertex
100
AcDb2dVertex
 10
211.793365
 20
-24.133709
 30
0.0
  0
VERTEX
  5
B5
100
AcDbEntity
  8
0
370
     0
390
0
100
AcDbVertex
100
AcDb2dVertex
 10
211.324341
 20
-24.133709
 30
0.0
  0
VERTEX
  5
B6
100
AcDbEntity
  8
0
370
     0
390
0
100
AcDbVertex
100
AcDb2dVertex
 10
211.324341
 20
-24.638031
 30
0.0
  0
VERTEX
  5
B7
100
AcDbEntity
  8
0
370
     0
390
0
100
AcDbVertex
100
AcDb2dVertex
 10
211.793365
 20
-24.638031
 30
0.0
  0
SEQEND
  5
B8
100
AcDbEntity
  8
0
370
     0
390
0
  0
POLYLINE
  5
B9
100
AcDbEntity
  8
0
370
    13
390
0
 62
     7
100
AcDb2dPolyline
 66
     1
 10
0.0
 20
0.0
 30
0.0
 70
     1
 71
    27
  0
VERTEX
  5
BA
100
AcDbEntity
  8
0
370
     0
390
0
100
AcDbVertex
100
AcDb2dVertex
 10
213.845947
 20
-26.529242
 30
0.0
  0
VERTEX
  5
BB
100
AcDbEntity
  8
0
370
     0
390
0
100
AcDbVertex
100
AcDb2dVertex
 10
215.62117
 20
-26.529242
 30
0.0
  0
VERTEX
  5
BC
100
AcDbEntity
  8
0
370
     0
390
0
100
AcDbVertex
100
AcDb2dVertex
 10
215.626205
 20
-26.32247
 30
0.0
  0
VERTEX
  5
BD
100
AcDbEntity
  8
0
370
     0
390
0
100
AcDbVertex
100
AcDb2dVertex
 10
215.545517
 20
-25.742498
 30
0.0
  0
VERTEX
  5
BE
100
AcDbEntity
  8
0
370
     0
390
0
100
AcDbVertex
100
AcDb2dVertex
 10
215.323608
 20
-25.308781
 30
0.0
  0
VERTEX
  5
BF
100
AcDbEntity
  8
0
370
     0
390
0
100
AcDbVertex
100
AcDb2dVertex
 10
214.970596
 20
-25.046532
 30
0.0
  0
VERTEX
  5
C0
100
AcDbEntity
  8
0
370
     0
390
0
100
AcDbVertex
100
AcDb2dVertex
 10
214.501572
 20
-24.95071
 30
0.0
  0
VERTEX
  5
C1
100
AcDbEntity
  8
0
370
     0
390
0
100
AcDbVertex
100
AcDb2dVertex
 10
214.042633
 20
-25.051575
 30
0.0
  0
VERTEX
  5
C2
100
AcDbEntity
  8
0
370
     0
390
0
100
AcDbVertex
100
AcDb2dVertex
 10
213.689606
 20
-25.333996
 30
0.0
  0
VERTEX
  5
C3
100
AcDbEntity
  8
0
370
     0
390
0
100
AcDbVertex
100
AcDb2dVertex
 10
213.462662
 20
-25.792931
 30
0.0
  0
VERTEX
  5
C4
100
AcDbEntity
  8
0
370
     0
390
0
100
AcDbVertex
100
AcDb2dVertex
 10
213.381973
 20
-26.398117
 30
0.0
  0
VERTEX
  5
C5
100
AcDbEntity
  8
0
370
     0
390
0
100
AcDbVertex
100
AcDb2dVertex
 10
213.457626
 20
-27.018435
 30
0.0
  0
VERTEX
  5
C6
100
AcDbEntity
  8
0
370
     0
390
0
100
AcDbVertex
100
AcDb2dVertex
 10
213.68457
 20
-27.472324
 30
0.0
  0
VERTEX
  5
C7
100
AcDbEntity
  8
0
370
     0
390
0
100
AcDbVertex
100
AcDb2dVertex
 10
214.032547
 20
-27.754745
 30
0.0
  0
VERTEX
  5
C8
100
AcDbEntity
  8
0
370
     0
390
0
100
AcDbVertex
100
AcDb2dVertex
 10
214.486435
 20
-27.850567
 30
0.0
  0
VERTEX
  5
C9
100
AcDbEntity
  8
0
370
     0
390
0
100
AcDbVertex
100
AcDb2dVertex
 10
214.879807
 20
-27.785006
 30
0.0
  0
VERTEX
  5
CA
100
AcDbEntity
  8
0
370
     0
390
0
100
AcDbVertex
100
AcDb2dVertex
 10
215.202576
 20
-27.613535
 30
0.0
  0
VERTEX
  5
CB
100
AcDbEntity
  8
0
370
     0
390
0
100
AcDbVertex
100
AcDb2dVertex
 10
215.439606
 20
-27.3412
 30
0.0
  0
VERTEX
  5
CC
100
AcDbEntity
  8
0
370
     0
390
0
100
AcDbVertex
100
AcDb2dVertex
 10
215.575775
 20
-26.978088
 30
0.0
  0
VERTEX
  5
CD
100
AcDbEntity
  8
0
370
     0
390
0
100
AcDbVertex
100
AcDb2dVertex
 10
215.137024
 20
-26.978088
 30
0.0
  0
VERTEX
  5
CE
100
AcDbEntity
  8
0
370
     0
390
0
100
AcDbVertex
100
AcDb2dVertex
 10
215.046234
 20
-27.179817
 30
0.0
  0
VERTEX
  5
CF
100
AcDbEntity
  8
0
370
     0
390
0
100
AcDbVertex
100
AcDb2dVertex
 10
214.915115
 20
-27.331114
 30
0.0
  0
VERTEX
  5
D0
100
AcDbEntity
  8
0
370
     0
390
0
100
AcDbVertex
100
AcDb2dVertex
 10
214.541916
 20
-27.452152
 30
0.0
  0
VERTEX
  5
D1
100
AcDbEntity
  8
0
370
     0
390
0
100
AcDbVertex
100
AcDb2dVertex
 10
214.254456
 20
-27.396677
 30
0.0
  0
VERTEX
  5
D2
100
AcDbEntity
  8
0
370
     0
390
0
100
AcDbVertex
100
AcDb2dVertex
 10
214.037598
 20
-27.220163
 30
0.0
  0
VERTEX
  5
D3
100
AcDbEntity
  8
0
370
     0
390
0
100
AcDbVertex
100
AcDb2dVertex
 10
213.896378
 20
-26.932699
 30
0.0
  0
VERTEX
  5
D4
100
AcDbEntity
  8
0
370
     0
390
0
100
AcDbVertex
100
AcDb2dVertex
 10
213.845947
 20
-26.544371
 30
0.0
  0
SEQEND
  5
D5
100
AcDbEntity
  8
0
370
     0
390
0
  0
POLYLINE
  5
D6
100
AcDbEntity
  8
0
370
    13
390
0
 62
     7
100
AcDb2dPolyline
 66
     1
 10
0.0
 20
0.0
 30
0.0
 70
     1
 71
     9
  0
VERTEX
  5
D7
100
AcDbEntity
  8
0
370
     0
390
0
100
AcDbVertex
100
AcDb2dVertex
 10
213.845947
 20
-26.156042
 30
0.0
  0
VERTEX
  5
D8
100
AcDbEntity
  8
0
370
     0
390
0
100
AcDbVertex
100
AcDb2dVertex
 10
213.901428
 20
-25.80806
 30
0.0
  0
VERTEX
  5
D9
100
AcDbEntity
  8
0
370
     0
390
0
100
AcDbVertex
100
AcDb2dVertex
 10
214.037598
 20
-25.550856
 30
0.0
  0
VERTEX
  5
DA
100
AcDbEntity
  8
0
370
     0
390
0
100
AcDbVertex
100
AcDb2dVertex
 10
214.24437
 20
-25.394516
 30
0.0
  0
VERTEX
  5
DB
100
AcDbEntity
  8
0
370
     0
390
0
100
AcDbVertex
100
AcDb2dVertex
 10
214.516693
 20
-25.339039
 30
0.0
  0
VERTEX
  5
DC
100
AcDbEntity
  8
0
370
     0
390
0
100
AcDbVertex
100
AcDb2dVertex
 10
214.783997
 20
-25.394516
 30
0.0
  0
VERTEX
  5
DD
100
AcDbEntity
  8
0
370
     0
390
0
100
AcDbVertex
100
AcDb2dVertex
 10
214.990768
 20
-25.550856
 30
0.0
  0
VERTEX
  5
DE
100
AcDbEntity
  8
0
370
     0
390
0
100
AcDbVertex
100
AcDb2dVertex
 10
215.116852
 20
-25.80806
 30
0.0
  0
VERTEX
  5
DF
100
AcDbEntity
  8
0
370
     0
390
0
100
AcDbVertex
100
AcDb2dVertex
 10
215.162231
 20
-26.156042
 30
0.0
  0
SEQEND
  5
E0
100
AcDbEntity
  8
0
370
     0
390
0
  0
POLYLINE
  5
E1
100
AcDbEntity
  8
0
370
    13
390
0
 62
     7
100
AcDb2dPolyline
 66
     1
 10
0.0
 20
0.0
 30
0.0
 70
     1
 71
    13
  0
VERTEX
  5
E2
100
AcDbEntity
  8
0
370
     0
390
0
100
AcDbVertex
100
AcDb2dVertex
 10
217.13414
 20
-27.754745
 30
0.0
  0
VERTEX
  5
E3
100
AcDbEntity
  8
0
370
     0
390
0
100
AcDbVertex
100
AcDb2dVertex
 10
217.537598
 20
-25.455034
 30
0.0
  0
VERTEX
  5
E4
100
AcDbEntity
  8
0
370
     0
390
0
100
AcDbVertex
100
AcDb2dVertex
 10
217.941055
 20
-27.754745
 30
0.0
  0
VERTEX
  5
E5
100
AcDbEntity
  8
0
370
     0
390
0
100
AcDbVertex
100
AcDb2dVertex
 10
218.364685
 20
-27.754745
 30
0.0
  0
VERTEX
  5
E6
100
AcDbEntity
  8
0
370
     0
390
0
100
AcDbVertex
100
AcDb2dVertex
 10
219.030396
 20
-25.046532
 30
0.0
  0
VERTEX
  5
E7
100
AcDbEntity
  8
0
370
     0
390
0
100
AcDbVertex
100
AcDb2dVertex
 10
218.601715
 20
-25.046532
 30
0.0
  0
VERTEX
  5
E8
100
AcDbEntity
  8
0
370
     0
390
0
100
AcDbVertex
100
AcDb2dVertex
 10
218.152863
 20
-27.346245
 30
0.0
  0
VERTEX
  5
E9
100
AcDbEntity
  8
0
370
     0
390
0
100
AcDbVertex
100
AcDb2dVertex
 10
217.754456
 20
-25.046532
 30
0.0
  0
VERTEX
  5
EA
100
AcDbEntity
  8
0
370
     0
390
0
100
AcDbVertex
100
AcDb2dVertex
 10
217.315689
 20
-25.046532
 30
0.0
  0
VERTEX
  5
EB
100
AcDbEntity
  8
0
370
     0
390
0
100
AcDbVertex
100
AcDb2dVertex
 10
216.917267
 20
-27.346245
 30
0.0
  0
VERTEX
  5
EC
100
AcDbEntity
  8
0
370
     0
390
0
100
AcDbVertex
100
AcDb2dVertex
 10
216.46843
 20
-25.046532
 30
0.0
  0
VERTEX
  5
ED
100
AcDbEntity
  8
0
370
     0
390
0
100
AcDbVertex
100
AcDb2dVertex
 10
216.0448
 20
-25.046532
 30
0.0
  0
VERTEX
  5
EE
100
AcDbEntity
  8
0
370
     0
390
0
100
AcDbVertex
100
AcDb2dVertex
 10
216.71051
 20
-27.754745
 30
0.0
  0
SEQEND
  5
EF
100
AcDbEntity
  8
0
370
     0
390
0
  0
POLYLINE
  5
F0
100
AcDbEntity
  8
0
370
    13
390
0
 62
     7
100
AcDb2dPolyline
 66
     1
 10
0.0
 20
0.0
 30
0.0
 70
     1
 71
    51
  0
VERTEX
  5
F1
100
AcDbEntity
  8
0
370
     0
390
0
100
AcDbVertex
100
AcDb2dVertex
 10
189.41655
 20
-32.646675
 30
0.0
  0
VERTEX
  5
F2
100
AcDbEntity
  8
0
370
     0
390
0
100
AcDbVertex
100
AcDb2dVertex
 10
188.957626
 20
-32.646675
 30
0.0
  0
VERTEX
  5
F3
100
AcDbEntity
  8
0
370
     0
390
0
100
AcDbVertex
100
AcDb2dVertex
 10
189.058487
 20
-33.181259
 30
0.0
  0
VERTEX
  5
F4
100
AcDbEntity
  8
0
370
     0
390
0
100
AcDbVertex
100
AcDb2dVertex
 10
189.310654
 20
-33.574631
 30
0.0
  0
VERTEX
  5
F5
100
AcDbEntity
  8
0
370
     0
390
0
100
AcDbVertex
100
AcDb2dVertex
 10
189.698975
 20
-33.811661
 30
0.0
  0
VERTEX
  5
F6
100
AcDbEntity
  8
0
370
     0
390
0
100
AcDbVertex
100
AcDb2dVertex
 10
190.223465
 20
-33.897396
 30
0.0
  0
VERTEX
  5
F7
100
AcDbEntity
  8
0
370
     0
390
0
100
AcDbVertex
100
AcDb2dVertex
 10
190.74292
 20
-33.816704
 30
0.0
  0
VERTEX
  5
F8
100
AcDbEntity
  8
0
370
     0
390
0
100
AcDbVertex
100
AcDb2dVertex
 10
191.131256
 20
-33.594803
 30
0.0
  0
VERTEX
  5
F9
100
AcDbEntity
  8
0
370
     0
390
0
100
AcDbVertex
100
AcDb2dVertex
 10
191.378372
 20
-33.246819
 30
0.0
  0
VERTEX
  5
FA
100
AcDbEntity
  8
0
370
     0
390
0
100
AcDbVertex
100
AcDb2dVertex
 10
191.469147
 20
-32.787888
 30
0.0
  0
VERTEX
  5
FB
100
AcDbEntity
  8
0
370
     0
390
0
100
AcDbVertex
100
AcDb2dVertex
 10
191.393494
 20
-32.37434
 30
0.0
  0
VERTEX
  5
FC
100
AcDbEntity
  8
0
370
     0
390
0
100
AcDbVertex
100
AcDb2dVertex
 10
191.181686
 20
-32.107052
 30
0.0
  0
VERTEX
  5
FD
100
AcDbEntity
  8
0
370
     0
390
0
100
AcDbVertex
100
AcDb2dVertex
 10
190.838745
 20
-31.930538
 30
0.0
  0
VERTEX
  5
FE
100
AcDbEntity
  8
0
370
     0
390
0
100
AcDbVertex
100
AcDb2dVertex
 10
190.379807
 20
-31.799414
 30
0.0
  0
VERTEX
  5
FF
100
AcDbEntity
  8
0
370
     0
390
0
100
AcDbVertex
100
AcDb2dVertex
 10
189.986435
 20
-31.703592
 30
0.0
  0
VERTEX
  5
100
100
AcDbEntity
  8
0
370
     0
390
0
100
AcDbVertex
100
AcDb2dVertex
 10
189.729233
 20
-31.59264
 30
0.0
  0
VERTEX
  5
101
100
AcDbEntity
  8
0
370
     0
390
0
100
AcDbVertex
100
AcDb2dVertex
 10
189.582977
 20
-31.431257
 30
0.0
  0
VERTEX
  5
102
100
AcDbEntity
  8
0
370
     0
390
0
100
AcDbVertex
100
AcDb2dVertex
 10
189.537598
 20
-31.179096
 30
0.0
  0
VERTEX
  5
103
100
AcDbEntity
  8
0
370
     0
390
0
100
AcDbVertex
100
AcDb2dVertex
 10
189.582977
 20
-30.95215
 30
0.0
  0
VERTEX
  5
104
100
AcDbEntity
  8
0
370
     0
390
0
100
AcDbVertex
100
AcDb2dVertex
 10
189.714111
 20
-30.780682
 30
0.0
  0
VERTEX
  5
105
100
AcDbEntity
  8
0
370
     0
390
0
100
AcDbVertex
100
AcDb2dVertex
 10
189.915833
 20
-30.664688
 30
0.0
  0
VERTEX
  5
106
100
AcDbEntity
  8
0
370
     0
390
0
100
AcDbVertex
100
AcDb2dVertex
 10
190.193207
 20
-30.624342
 30
0.0
  0
VERTEX
  5
107
100
AcDbEntity
  8
0
370
     0
390
0
100
AcDbVertex
100
AcDb2dVertex
 10
190.475632
 20
-30.674774
 30
0.0
  0
VERTEX
  5
108
100
AcDbEntity
  8
0
370
     0
390
0
100
AcDbVertex
100
AcDb2dVertex
 10
190.69754
 20
-30.81094
 30
0.0
  0
VERTEX
  5
109
100
AcDbEntity
  8
0
370
     0
390
0
100
AcDbVertex
100
AcDb2dVertex
 10
190.843796
 20
-31.037886
 30
0.0
  0
VERTEX
  5
10A
100
AcDbEntity
  8
0
370
     0
390
0
100
AcDbVertex
100
AcDb2dVertex
 10
190.914398
 20
-31.345524
 30
0.0
  0
VERTEX
  5
10B
100
AcDbEntity
  8
0
370
     0
390
0
100
AcDbVertex
100
AcDb2dVertex
 10
191.373322
 20
-31.345524
 30
0.0
  0
VERTEX
  5
10C
100
AcDbEntity
  8
0
370
     0
390
0
100
AcDbVertex
100
AcDb2dVertex
 10
191.373322
 20
-31.335436
 30
0.0
  0
VERTEX
  5
10D
100
AcDbEntity
  8
0
370
     0
390
0
100
AcDbVertex
100
AcDb2dVertex
 10
191.292633
 20
-30.861374
 30
0.0
  0
VERTEX
  5
10E
100
AcDbEntity
  8
0
370
     0
390
0
100
AcDbVertex
100
AcDb2dVertex
 10
191.055603
 20
-30.508347
 30
0.0
  0
VERTEX
  5
10F
100
AcDbEntity
  8
0
370
     0
390
0
100
AcDbVertex
100
AcDb2dVertex
 10
190.682404
 20
-30.286446
 30
0.0
  0
VERTEX
  5
110
100
AcDbEntity
  8
0
370
     0
390
0
100
AcDbVertex
100
AcDb2dVertex
 10
190.178085
 20
-30.210796
 30
0.0
  0
VERTEX
  5
111
100
AcDbEntity
  8
0
370
     0
390
0
100
AcDbVertex
100
AcDb2dVertex
 10
189.724197
 20
-30.286446
 30
0.0
  0
VERTEX
  5
112
100
AcDbEntity
  8
0
370
     0
390
0
100
AcDbVertex
100
AcDb2dVertex
 10
189.37117
 20
-30.49826
 30
0.0
  0
VERTEX
  5
113
100
AcDbEntity
  8
0
370
     0
390
0
100
AcDbVertex
100
AcDb2dVertex
 10
189.144226
 20
-30.826071
 30
0.0
  0
VERTEX
  5
114
100
AcDbEntity
  8
0
370
     0
390
0
100
AcDbVertex
100
AcDb2dVertex
 10
189.063522
 20
-31.249702
 30
0.0
  0
VERTEX
  5
115
100
AcDbEntity
  8
0
370
     0
390
0
100
AcDbVertex
100
AcDb2dVertex
 10
189.129089
 20
-31.627943
 30
0.0
  0
VERTEX
  5
116
100
AcDbEntity
  8
0
370
     0
390
0
100
AcDbVertex
100
AcDb2dVertex
 10
189.32074
 20
-31.885149
 30
0.0
  0
VERTEX
  5
117
100
AcDbEntity
  8
0
370
     0
390
0
100
AcDbVertex
100
AcDb2dVertex
 10
189.623322
 20
-32.056618
 30
0.0
  0
VERTEX
  5
118
100
AcDbEntity
  8
0
370
     0
390
0
100
AcDbVertex
100
AcDb2dVertex
 10
190.036865
 20
-32.18774
 30
0.0
  0
VERTEX
  5
119
100
AcDbEntity
  8
0
370
     0
390
0
100
AcDbVertex
100
AcDb2dVertex
 10
190.445374
 20
-32.303738
 30
0.0
  0
VERTEX
  5
11A
100
AcDbEntity
  8
0
370
     0
390
0
100
AcDbVertex
100
AcDb2dVertex
 10
190.753006
 20
-32.414688
 30
0.0
  0
VERTEX
  5
11B
100
AcDbEntity
  8
0
370
     0
390
0
100
AcDbVertex
100
AcDb2dVertex
 10
190.939606
 20
-32.576069
 30
0.0
  0
VERTEX
  5
11C
100
AcDbEntity
  8
0
370
     0
390
0
100
AcDbVertex
100
AcDb2dVertex
 10
191.005173
 20
-32.838318
 30
0.0
  0
VERTEX
  5
11D
100
AcDbEntity
  8
0
370
     0
390
0
100
AcDbVertex
100
AcDb2dVertex
 10
190.944656
 20
-33.10561
 30
0.0
  0
VERTEX
  5
11E
100
AcDbEntity
  8
0
370
     0
390
0
100
AcDbVertex
100
AcDb2dVertex
 10
190.788315
 20
-33.307339
 30
0.0
  0
VERTEX
  5
11F
100
AcDbEntity
  8
0
370
     0
390
0
100
AcDbVertex
100
AcDb2dVertex
 10
190.551285
 20
-33.433418
 30
0.0
  0
VERTEX
  5
120
100
AcDbEntity
  8
0
370
     0
390
0
100
AcDbVertex
100
AcDb2dVertex
 10
190.243637
 20
-33.473766
 30
0.0
  0
VERTEX
  5
121
100
AcDbEntity
  8
0
370
     0
390
0
100
AcDbVertex
100
AcDb2dVertex
 10
189.900711
 20
-33.418289
 30
0.0
  0
VERTEX
  5
122
100
AcDbEntity
  8
0
370
     0
390
0
100
AcDbVertex
100
AcDb2dVertex
 10
189.638458
 20
-33.256905
 30
0.0
  0
VERTEX
  5
123
100
AcDbEntity
  8
0
370
     0
390
0
100
AcDbVertex
100
AcDb2dVertex
 10
189.472031
 20
-32.994659
 30
0.0
  0
SEQEND
  5
124
100
AcDbEntity
  8
0
370
     0
390
0
  0
POLYLINE
  5
125
100
AcDbEntity
  8
0
370
    13
390
0
 62
     7
100
AcDb2dPolyline
 66
     1
 10
0.0
 20
0.0
 30
0.0
 70
     1
 71
    34
  0
VERTEX
  5
126
100
AcDbEntity
  8
0
370
     0
390
0
100
AcDbVertex
100
AcDb2dVertex
 10
193.930237
 20
-31.991056
 30
0.0
  0
VERTEX
  5
127
100
AcDbEntity
  8
0
370
     0
390
0
100
AcDbVertex
100
AcDb2dVertex
 10
194.369003
 20
-31.991056
 30
0.0
  0
VERTEX
  5
128
100
AcDbEntity
  8
0
370
     0
390
0
100
AcDbVertex
100
AcDb2dVertex
 10
194.278229
 20
-31.587597
 30
0.0
  0
VERTEX
  5
129
100
AcDbEntity
  8
0
370
     0
390
0
100
AcDbVertex
100
AcDb2dVertex
 10
194.061371
 20
-31.269875
 30
0.0
  0
VERTEX
  5
12A
100
AcDbEntity
  8
0
370
     0
390
0
100
AcDbVertex
100
AcDb2dVertex
 10
193.723465
 20
-31.073189
 30
0.0
  0
VERTEX
  5
12B
100
AcDbEntity
  8
0
370
     0
390
0
100
AcDbVertex
100
AcDb2dVertex
 10
193.284714
 20
-30.99754
 30
0.0
  0
VERTEX
  5
12C
100
AcDbEntity
  8
0
370
     0
390
0
100
AcDbVertex
100
AcDb2dVertex
 10
192.800568
 20
-31.098404
 30
0.0
  0
VERTEX
  5
12D
100
AcDbEntity
  8
0
370
     0
390
0
100
AcDbVertex
100
AcDb2dVertex
 10
192.432404
 20
-31.380825
 30
0.0
  0
VERTEX
  5
12E
100
AcDbEntity
  8
0
370
     0
390
0
100
AcDbVertex
100
AcDb2dVertex
 10
192.200424
 20
-31.83976
 30
0.0
  0
VERTEX
  5
12F
100
AcDbEntity
  8
0
370
     0
390
0
100
AcDbVertex
100
AcDb2dVertex
 10
192.11972
 20
-32.455032
 30
0.0
  0
VERTEX
  5
130
100
AcDbEntity
  8
0
370
     0
390
0
100
AcDbVertex
100
AcDb2dVertex
 10
192.195374
 20
-33.065262
 30
0.0
  0
VERTEX
  5
131
100
AcDbEntity
  8
0
370
     0
390
0
100
AcDbVertex
100
AcDb2dVertex
 10
192.422318
 20
-33.519154
 30
0.0
  0
VERTEX
  5
132
100
AcDbEntity
  8
0
370
     0
390
0
100
AcDbVertex
100
AcDb2dVertex
 10
192.780396
 20
-33.801575
 30
0.0
  0
VERTEX
  5
133
100
AcDbEntity
  8
0
370
     0
390
0
100
AcDbVertex
100
AcDb2dVertex
 10
193.269577
 20
-33.897396
 30
0.0
  0
VERTEX
  5
134
100
AcDbEntity
  8
0
370
     0
390
0
100
AcDbVertex
100
AcDb2dVertex
 10
193.703293
 20
-33.821747
 30
0.0
  0
VERTEX
  5
135
100
AcDbEntity
  8
0
370
     0
390
0
100
AcDbVertex
100
AcDb2dVertex
 10
194.041199
 20
-33.609932
 30
0.0
  0
VERTEX
  5
136
100
AcDbEntity
  8
0
370
     0
390
0
100
AcDbVertex
100
AcDb2dVertex
 10
194.273178
 20
-33.277081
 30
0.0
  0
VERTEX
  5
137
100
AcDbEntity
  8
0
370
     0
390
0
100
AcDbVertex
100
AcDb2dVertex
 10
194.374054
 20
-32.833275
 30
0.0
  0
VERTEX
  5
138
100
AcDbEntity
  8
0
370
     0
390
0
100
AcDbVertex
100
AcDb2dVertex
 10
193.950409
 20
-32.833275
 30
0.0
  0
VERTEX
  5
139
100
AcDbEntity
  8
0
370
     0
390
0
100
AcDbVertex
100
AcDb2dVertex
 10
193.874771
 20
-33.115696
 30
0.0
  0
VERTEX
  5
13A
100
AcDbEntity
  8
0
370
     0
390
0
100
AcDbVertex
100
AcDb2dVertex
 10
193.733551
 20
-33.327511
 30
0.0
  0
VERTEX
  5
13B
100
AcDbEntity
  8
0
370
     0
390
0
100
AcDbVertex
100
AcDb2dVertex
 10
193.53183
 20
-33.458633
 30
0.0
  0
VERTEX
  5
13C
100
AcDbEntity
  8
0
370
     0
390
0
100
AcDbVertex
100
AcDb2dVertex
 10
193.284714
 20
-33.498981
 30
0.0
  0
VERTEX
  5
13D
100
AcDbEntity
  8
0
370
     0
390
0
100
AcDbVertex
100
AcDb2dVertex
 10
192.977081
 20
-33.433418
 30
0.0
  0
VERTEX
  5
13E
100
AcDbEntity
  8
0
370
     0
390
0
100
AcDbVertex
100
AcDb2dVertex
 10
192.755173
 20
-33.231689
 30
0.0
  0
VERTEX
  5
13F
100
AcDbEntity
  8
0
370
     0
390
0
100
AcDbVertex
100
AcDb2dVertex
 10
192.619003
 20
-32.903881
 30
0.0
  0
VERTEX
  5
140
100
AcDbEntity
  8
0
370
     0
390
0
100
AcDbVertex
100
AcDb2dVertex
 10
192.573608
 20
-32.439903
 30
0.0
  0
VERTEX
  5
141
100
AcDbEntity
  8
0
370
     0
390
0
100
AcDbVertex
100
AcDb2dVertex
 10
192.619003
 20
-31.986013
 30
0.0
  0
VERTEX
  5
142
100
AcDbEntity
  8
0
370
     0
390
0
100
AcDbVertex
100
AcDb2dVertex
 10
192.760208
 20
-31.658203
 30
0.0
  0
VERTEX
  5
143
100
AcDbEntity
  8
0
370
     0
390
0
100
AcDbVertex
100
AcDb2dVertex
 10
192.987167
 20
-31.456474
 30
0.0
  0
VERTEX
  5
144
100
AcDbEntity
  8
0
370
     0
390
0
100
AcDbVertex
100
AcDb2dVertex
 10
193.284714
 20
-31.385868
 30
0.0
  0
VERTEX
  5
145
100
AcDbEntity
  8
0
370
     0
390
0
100
AcDbVertex
100
AcDb2dVertex
 10
193.546967
 20
-31.431257
 30
0.0
  0
VERTEX
  5
146
100
AcDbEntity
  8
0
370
     0
390
0
100
AcDbVertex
100
AcDb2dVertex
 10
193.743652
 20
-31.547253
 30
0.0
  0
VERTEX
  5
147
100
AcDbEntity
  8
0
370
     0
390
0
100
AcDbVertex
100
AcDb2dVertex
 10
193.874771
 20
-31.738895
 30
0.0
  0
SEQEND
  5
148
100
AcDbEntity
  8
0
370
     0
390
0
  0
POLYLINE
  5
149
100
AcDbEntity
  8
0
370
    13
390
0
 62
     7
100
AcDb2dPolyline
 66
     1
 10
0.0
 20
0.0
 30
0.0
 70
     1
 71
    42
  0
VERTEX
  5
14A
100
AcDbEntity
  8
0
370
     0
390
0
100
AcDbVertex
100
AcDb2dVertex
 10
196.850281
 20
-33.448547
 30
0.0
  0
VERTEX
  5
14B
100
AcDbEntity
  8
0
370
     0
390
0
100
AcDbVertex
100
AcDb2dVertex
 10
196.850281
 20
-33.46368
 30
0.0
  0
VERTEX
  5
14C
100
AcDbEntity
  8
0
370
     0
390
0
100
AcDbVertex
100
AcDb2dVertex
 10
196.875488
 20
-33.635147
 30
0.0
  0
VERTEX
  5
14D
100
AcDbEntity
  8
0
370
     0
390
0
100
AcDbVertex
100
AcDb2dVertex
 10
196.951141
 20
-33.756187
 30
0.0
  0
VERTEX
  5
14E
100
AcDbEntity
  8
0
370
     0
390
0
100
AcDbVertex
100
AcDb2dVertex
 10
197.26886
 20
-33.852009
 30
0.0
  0
VERTEX
  5
14F
100
AcDbEntity
  8
0
370
     0
390
0
100
AcDbVertex
100
AcDb2dVertex
 10
197.515976
 20
-33.811661
 30
0.0
  0
VERTEX
  5
150
100
AcDbEntity
  8
0
370
     0
390
0
100
AcDbVertex
100
AcDb2dVertex
 10
197.515976
 20
-33.468723
 30
0.0
  0
VERTEX
  5
151
100
AcDbEntity
  8
0
370
     0
390
0
100
AcDbVertex
100
AcDb2dVertex
 10
197.410065
 20
-33.483852
 30
0.0
  0
VERTEX
  5
152
100
AcDbEntity
  8
0
370
     0
390
0
100
AcDbVertex
100
AcDb2dVertex
 10
197.26886
 20
-33.418289
 30
0.0
  0
VERTEX
  5
153
100
AcDbEntity
  8
0
370
     0
390
0
100
AcDbVertex
100
AcDb2dVertex
 10
197.243652
 20
-33.21656
 30
0.0
  0
VERTEX
  5
154
100
AcDbEntity
  8
0
370
     0
390
0
100
AcDbVertex
100
AcDb2dVertex
 10
197.243652
 20
-31.814543
 30
0.0
  0
VERTEX
  5
155
100
AcDbEntity
  8
0
370
     0
390
0
100
AcDbVertex
100
AcDb2dVertex
 10
197.183121
 20
-31.456474
 30
0.0
  0
VERTEX
  5
156
100
AcDbEntity
  8
0
370
     0
390
0
100
AcDbVertex
100
AcDb2dVertex
 10
197.006607
 20
-31.204313
 30
0.0
  0
VERTEX
  5
157
100
AcDbEntity
  8
0
370
     0
390
0
100
AcDbVertex
100
AcDb2dVertex
 10
196.698975
 20
-31.053017
 30
0.0
  0
VERTEX
  5
158
100
AcDbEntity
  8
0
370
     0
390
0
100
AcDbVertex
100
AcDb2dVertex
 10
196.265259
 20
-30.99754
 30
0.0
  0
VERTEX
  5
159
100
AcDbEntity
  8
0
370
     0
390
0
100
AcDbVertex
100
AcDb2dVertex
 10
195.841629
 20
-31.05806
 30
0.0
  0
VERTEX
  5
15A
100
AcDbEntity
  8
0
370
     0
390
0
100
AcDbVertex
100
AcDb2dVertex
 10
195.528946
 20
-31.229528
 30
0.0
  0
VERTEX
  5
15B
100
AcDbEntity
  8
0
370
     0
390
0
100
AcDbVertex
100
AcDb2dVertex
 10
195.33226
 20
-31.49682
 30
0.0
  0
VERTEX
  5
15C
100
AcDbEntity
  8
0
370
     0
390
0
100
AcDbVertex
100
AcDb2dVertex
 10
195.266693
 20
-31.849846
 30
0.0
  0
VERTEX
  5
15D
100
AcDbEntity
  8
0
370
     0
390
0
100
AcDbVertex
100
AcDb2dVertex
 10
195.266693
 20
-31.880104
 30
0.0
  0
VERTEX
  5
15E
100
AcDbEntity
  8
0
370
     0
390
0
100
AcDbVertex
100
AcDb2dVertex
 10
195.665115
 20
-31.880104
 30
0.0
  0
VERTEX
  5
15F
100
AcDbEntity
  8
0
370
     0
390
0
100
AcDbVertex
100
AcDb2dVertex
 10
195.700424
 20
-31.668289
 30
0.0
  0
VERTEX
  5
160
100
AcDbEntity
  8
0
370
     0
390
0
100
AcDbVertex
100
AcDb2dVertex
 10
195.811371
 20
-31.516993
 30
0.0
  0
VERTEX
  5
161
100
AcDbEntity
  8
0
370
     0
390
0
100
AcDbVertex
100
AcDb2dVertex
 10
195.99292
 20
-31.426214
 30
0.0
  0
VERTEX
  5
162
100
AcDbEntity
  8
0
370
     0
390
0
100
AcDbVertex
100
AcDb2dVertex
 10
196.250122
 20
-31.390911
 30
0.0
  0
VERTEX
  5
163
100
AcDbEntity
  8
0
370
     0
390
0
100
AcDbVertex
100
AcDb2dVertex
 10
196.497253
 20
-31.416128
 30
0.0
  0
VERTEX
  5
164
100
AcDbEntity
  8
0
370
     0
390
0
100
AcDbVertex
100
AcDb2dVertex
 10
196.673767
 20
-31.491776
 30
0.0
  0
VERTEX
  5
165
100
AcDbEntity
  8
0
370
     0
390
0
100
AcDbVertex
100
AcDb2dVertex
 10
196.779663
 20
-31.6229
 30
0.0
  0
VERTEX
  5
166
100
AcDbEntity
  8
0
370
     0
390
0
100
AcDbVertex
100
AcDb2dVertex
 10
196.814972
 20
-31.804457
 30
0.0
  0
VERTEX
  5
167
100
AcDbEntity
  8
0
370
     0
390
0
100
AcDbVertex
100
AcDb2dVertex
 10
196.7948
 20
-32.016273
 30
0.0
  0
VERTEX
  5
168
100
AcDbEntity
  8
0
370
     0
390
0
100
AcDbVertex
100
AcDb2dVertex
 10
196.714111
 20
-32.122181
 30
0.0
  0
VERTEX
  5
169
100
AcDbEntity
  8
0
370
     0
390
0
100
AcDbVertex
100
AcDb2dVertex
 10
196.512375
 20
-32.172611
 30
0.0
  0
VERTEX
  5
16A
100
AcDbEntity
  8
0
370
     0
390
0
100
AcDbVertex
100
AcDb2dVertex
 10
196.13414
 20
-32.212959
 30
0.0
  0
VERTEX
  5
16B
100
AcDbEntity
  8
0
370
     0
390
0
100
AcDbVertex
100
AcDb2dVertex
 10
195.700424
 20
-32.303738
 30
0.0
  0
VERTEX
  5
16C
100
AcDbEntity
  8
0
370
     0
390
0
100
AcDbVertex
100
AcDb2dVertex
 10
195.392776
 20
-32.465118
 30
0.0
  0
VERTEX
  5
16D
100
AcDbEntity
  8
0
370
     0
390
0
100
AcDbVertex
100
AcDb2dVertex
 10
195.211227
 20
-32.717281
 30
0.0
  0
VERTEX
  5
16E
100
AcDbEntity
  8
0
370
     0
390
0
100
AcDbVertex
100
AcDb2dVertex
 10
195.155746
 20
-33.090481
 30
0.0
  0
VERTEX
  5
16F
100
AcDbEntity
  8
0
370
     0
390
0
100
AcDbVertex
100
AcDb2dVertex
 10
195.206177
 20
-33.423332
 30
0.0
  0
VERTEX
  5
170
100
AcDbEntity
  8
0
370
     0
390
0
100
AcDbVertex
100
AcDb2dVertex
 10
195.362518
 20
-33.670452
 30
0.0
  0
VERTEX
  5
171
100
AcDbEntity
  8
0
370
     0
390
0
100
AcDbVertex
100
AcDb2dVertex
 10
195.614685
 20
-33.82679
 30
0.0
  0
VERTEX
  5
172
100
AcDbEntity
  8
0
370
     0
390
0
100
AcDbVertex
100
AcDb2dVertex
 10
195.962662
 20
-33.882267
 30
0.0
  0
VERTEX
  5
173
100
AcDbEntity
  8
0
370
     0
390
0
100
AcDbVertex
100
AcDb2dVertex
 10
196.431686
 20
-33.77636
 30
0.0
  0
SEQEND
  5
174
100
AcDbEntity
  8
0
370
     0
390
0
  0
POLYLINE
  5
175
100
AcDbEntity
  8
0
370
    13
390
0
 62
     7
100
AcDb2dPolyline
 66
     1
 10
0.0
 20
0.0
 30
0.0
 70
     1
 71
    14
  0
VERTEX
  5
176
100
AcDbEntity
  8
0
370
     0
390
0
100
AcDbVertex
100
AcDb2dVertex
 10
196.799835
 20
-32.853447
 30
0.0
  0
VERTEX
  5
177
100
AcDbEntity
  8
0
370
     0
390
0
100
AcDbVertex
100
AcDb2dVertex
 10
196.739319
 20
-33.115696
 30
0.0
  0
VERTEX
  5
178
100
AcDbEntity
  8
0
370
     0
390
0
100
AcDbVertex
100
AcDb2dVertex
 10
196.577942
 20
-33.317425
 30
0.0
  0
VERTEX
  5
179
100
AcDbEntity
  8
0
370
     0
390
0
100
AcDbVertex
100
AcDb2dVertex
 10
196.335861
 20
-33.448547
 30
0.0
  0
VERTEX
  5
17A
100
AcDbEntity
  8
0
370
     0
390
0
100
AcDbVertex
100
AcDb2dVertex
 10
196.038315
 20
-33.493938
 30
0.0
  0
VERTEX
  5
17B
100
AcDbEntity
  8
0
370
     0
390
0
100
AcDbVertex
100
AcDb2dVertex
 10
195.846664
 20
-33.468723
 30
0.0
  0
VERTEX
  5
17C
100
AcDbEntity
  8
0
370
     0
390
0
100
AcDbVertex
100
AcDb2dVertex
 10
195.71051
 20
-33.388031
 30
0.0
  0
VERTEX
  5
17D
100
AcDbEntity
  8
0
370
     0
390
0
100
AcDbVertex
100
AcDb2dVertex
 10
195.624771
 20
-33.246819
 30
0.0
  0
VERTEX
  5
17E
100
AcDbEntity
  8
0
370
     0
390
0
100
AcDbVertex
100
AcDb2dVertex
 10
195.599548
 20
-33.050133
 30
0.0
  0
VERTEX
  5
17F
100
AcDbEntity
  8
0
370
     0
390
0
100
AcDbVertex
100
AcDb2dVertex
 10
195.61972
 20
-32.873619
 30
0.0
  0
VERTEX
  5
180
100
AcDbEntity
  8
0
370
     0
390
0
100
AcDbVertex
100
AcDb2dVertex
 10
195.700424
 20
-32.74754
 30
0.0
  0
VERTEX
  5
181
100
AcDbEntity
  8
0
370
     0
390
0
100
AcDbVertex
100
AcDb2dVertex
 10
196.023178
 20
-32.606331
 30
0.0
  0
VERTEX
  5
182
100
AcDbEntity
  8
0
370
     0
390
0
100
AcDbVertex
100
AcDb2dVertex
 10
196.431686
 20
-32.545811
 30
0.0
  0
VERTEX
  5
183
100
AcDbEntity
  8
0
370
     0
390
0
100
AcDbVertex
100
AcDb2dVertex
 10
196.799835
 20
-32.424774
 30
0.0
  0
SEQEND
  5
184
100
AcDbEntity
  8
0
370
     0
390
0
  0
POLYLINE
  5
185
100
AcDbEntity
  8
0
370
    13
390
0
 62
     7
100
AcDb2dPolyline
 66
     1
 10
0.0
 20
0.0
 30
0.0
 70
     1
 71
    10
  0
VERTEX
  5
186
100
AcDbEntity
  8
0
370
     0
390
0
100
AcDbVertex
100
AcDb2dVertex
 10
199.160065
 20
-30.553736
 30
0.0
  0
VERTEX
  5
187
100
AcDbEntity
  8
0
370
     0
390
0
100
AcDbVertex
100
AcDb2dVertex
 10
199.160065
 20
-33.428375
 30
0.0
  0
VERTEX
  5
188
100
AcDbEntity
  8
0
370
     0
390
0
100
AcDbVertex
100
AcDb2dVertex
 10
198.247253
 20
-33.428375
 30
0.0
  0
VERTEX
  5
189
100
AcDbEntity
  8
0
370
     0
390
0
100
AcDbVertex
100
AcDb2dVertex
 10
198.247253
 20
-33.801575
 30
0.0
  0
VERTEX
  5
18A
100
AcDbEntity
  8
0
370
     0
390
0
100
AcDbVertex
100
AcDb2dVertex
 10
200.511658
 20
-33.801575
 30
0.0
  0
VERTEX
  5
18B
100
AcDbEntity
  8
0
370
     0
390
0
100
AcDbVertex
100
AcDb2dVertex
 10
200.511658
 20
-33.428375
 30
0.0
  0
VERTEX
  5
18C
100
AcDbEntity
  8
0
370
     0
390
0
100
AcDbVertex
100
AcDb2dVertex
 10
199.603882
 20
-33.428375
 30
0.0
  0
VERTEX
  5
18D
100
AcDbEntity
  8
0
370
     0
390
0
100
AcDbVertex
100
AcDb2dVertex
 10
199.603882
 20
-30.180538
 30
0.0
  0
VERTEX
  5
18E
100
AcDbEntity
  8
0
370
     0
390
0
100
AcDbVertex
100
AcDb2dVertex
 10
198.464111
 20
-30.180538
 30
0.0
  0
VERTEX
  5
18F
100
AcDbEntity
  8
0
370
     0
390
0
100
AcDbVertex
100
AcDb2dVertex
 10
198.464111
 20
-30.553736
 30
0.0
  0
SEQEND
  5
190
100
AcDbEntity
  8
0
370
     0
390
0
  0
POLYLINE
  5
191
100
AcDbEntity
  8
0
370
    13
390
0
 62
     7
100
AcDb2dPolyline
 66
     1
 10
0.0
 20
0.0
 30
0.0
 70
     1
 71
    27
  0
VERTEX
  5
192
100
AcDbEntity
  8
0
370
     0
390
0
100
AcDbVertex
100
AcDb2dVertex
 10
201.701859
 20
-32.576069
 30
0.0
  0
VERTEX
  5
193
100
AcDbEntity
  8
0
370
     0
390
0
100
AcDbVertex
100
AcDb2dVertex
 10
203.477081
 20
-32.576069
 30
0.0
  0
VERTEX
  5
194
100
AcDbEntity
  8
0
370
     0
390
0
100
AcDbVertex
100
AcDb2dVertex
 10
203.482117
 20
-32.369297
 30
0.0
  0
VERTEX
  5
195
100
AcDbEntity
  8
0
370
     0
390
0
100
AcDbVertex
100
AcDb2dVertex
 10
203.401428
 20
-31.789328
 30
0.0
  0
VERTEX
  5
196
100
AcDbEntity
  8
0
370
     0
390
0
100
AcDbVertex
100
AcDb2dVertex
 10
203.17952
 20
-31.35561
 30
0.0
  0
VERTEX
  5
197
100
AcDbEntity
  8
0
370
     0
390
0
100
AcDbVertex
100
AcDb2dVertex
 10
202.826492
 20
-31.093361
 30
0.0
  0
VERTEX
  5
198
100
AcDbEntity
  8
0
370
     0
390
0
100
AcDbVertex
100
AcDb2dVertex
 10
202.357483
 20
-30.99754
 30
0.0
  0
VERTEX
  5
199
100
AcDbEntity
  8
0
370
     0
390
0
100
AcDbVertex
100
AcDb2dVertex
 10
201.898544
 20
-31.098404
 30
0.0
  0
VERTEX
  5
19A
100
AcDbEntity
  8
0
370
     0
390
0
100
AcDbVertex
100
AcDb2dVertex
 10
201.545517
 20
-31.380825
 30
0.0
  0
VERTEX
  5
19B
100
AcDbEntity
  8
0
370
     0
390
0
100
AcDbVertex
100
AcDb2dVertex
 10
201.318573
 20
-31.83976
 30
0.0
  0
VERTEX
  5
19C
100
AcDbEntity
  8
0
370
     0
390
0
100
AcDbVertex
100
AcDb2dVertex
 10
201.237885
 20
-32.444946
 30
0.0
  0
VERTEX
  5
19D
100
AcDbEntity
  8
0
370
     0
390
0
100
AcDbVertex
100
AcDb2dVertex
 10
201.313538
 20
-33.065262
 30
0.0
  0
VERTEX
  5
19E
100
AcDbEntity
  8
0
370
     0
390
0
100
AcDbVertex
100
AcDb2dVertex
 10
201.540482
 20
-33.519154
 30
0.0
  0
VERTEX
  5
19F
100
AcDbEntity
  8
0
370
     0
390
0
100
AcDbVertex
100
AcDb2dVertex
 10
201.888458
 20
-33.801575
 30
0.0
  0
VERTEX
  5
1A0
100
AcDbEntity
  8
0
370
     0
390
0
100
AcDbVertex
100
AcDb2dVertex
 10
202.342346
 20
-33.897396
 30
0.0
  0
VERTEX
  5
1A1
100
AcDbEntity
  8
0
370
     0
390
0
100
AcDbVertex
100
AcDb2dVertex
 10
202.735718
 20
-33.831833
 30
0.0
  0
VERTEX
  5
1A2
100
AcDbEntity
  8
0
370
     0
390
0
100
AcDbVertex
100
AcDb2dVertex
 10
203.058487
 20
-33.660366
 30
0.0
  0
VERTEX
  5
1A3
100
AcDbEntity
  8
0
370
     0
390
0
100
AcDbVertex
100
AcDb2dVertex
 10
203.295517
 20
-33.388031
 30
0.0
  0
VERTEX
  5
1A4
100
AcDbEntity
  8
0
370
     0
390
0
100
AcDbVertex
100
AcDb2dVertex
 10
203.431686
 20
-33.024918
 30
0.0
  0
VERTEX
  5
1A5
100
AcDbEntity
  8
0
370
     0
390
0
100
AcDbVertex
100
AcDb2dVertex
 10
202.99292
 20
-33.024918
 30
0.0
  0
VERTEX
  5
1A6
100
AcDbEntity
  8
0
370
     0
390
0
100
AcDbVertex
100
AcDb2dVertex
 10
202.902145
 20
-33.226646
 30
0.0
  0
VERTEX
  5
1A7
100
AcDbEntity
  8
0
370
     0
390
0
100
AcDbVertex
100
AcDb2dVertex
 10
202.771027
 20
-33.377945
 30
0.0
  0
VERTEX
  5
1A8
100
AcDbEntity
  8
0
370
     0
390
0
100
AcDbVertex
100
AcDb2dVertex
 10
202.397827
 20
-33.498981
 30
0.0
  0
VERTEX
  5
1A9
100
AcDbEntity
  8
0
370
     0
390
0
100
AcDbVertex
100
AcDb2dVertex
 10
202.110352
 20
-33.443504
 30
0.0
  0
VERTEX
  5
1AA
100
AcDbEntity
  8
0
370
     0
390
0
100
AcDbVertex
100
AcDb2dVertex
 10
201.893494
 20
-33.266991
 30
0.0
  0
VERTEX
  5
1AB
100
AcDbEntity
  8
0
370
     0
390
0
100
AcDbVertex
100
AcDb2dVertex
 10
201.752289
 20
-32.97953
 30
0.0
  0
VERTEX
  5
1AC
100
AcDbEntity
  8
0
370
     0
390
0
100
AcDbVertex
100
AcDb2dVertex
 10
201.701859
 20
-32.591202
 30
0.0
  0
SEQEND
  5
1AD
100
AcDbEntity
  8
0
370
     0
390
0
  0
POLYLINE
  5
1AE
100
AcDbEntity
  8
0
370
    13
390
0
 62
     7
100
AcDb2dPolyline
 66
     1
 10
0.0
 20
0.0
 30
0.0
 70
     1
 71
     9
  0
VERTEX
  5
1AF
100
AcDbEntity
  8
0
370
     0
390
0
100
AcDbVertex
100
AcDb2dVertex
 10
201.701859
 20
-32.202873
 30
0.0
  0
VERTEX
  5
1B0
100
AcDbEntity
  8
0
370
     0
390
0
100
AcDbVertex
100
AcDb2dVertex
 10
201.757339
 20
-31.854889
 30
0.0
  0
VERTEX
  5
1B1
100
AcDbEntity
  8
0
370
     0
390
0
100
AcDbVertex
100
AcDb2dVertex
 10
201.893494
 20
-31.597685
 30
0.0
  0
VERTEX
  5
1B2
100
AcDbEntity
  8
0
370
     0
390
0
100
AcDbVertex
100
AcDb2dVertex
 10
202.100281
 20
-31.441345
 30
0.0
  0
VERTEX
  5
1B3
100
AcDbEntity
  8
0
370
     0
390
0
100
AcDbVertex
100
AcDb2dVertex
 10
202.372604
 20
-31.385868
 30
0.0
  0
VERTEX
  5
1B4
100
AcDbEntity
  8
0
370
     0
390
0
100
AcDbVertex
100
AcDb2dVertex
 10
202.639893
 20
-31.441345
 30
0.0
  0
VERTEX
  5
1B5
100
AcDbEntity
  8
0
370
     0
390
0
100
AcDbVertex
100
AcDb2dVertex
 10
202.846664
 20
-31.597685
 30
0.0
  0
VERTEX
  5
1B6
100
AcDbEntity
  8
0
370
     0
390
0
100
AcDbVertex
100
AcDb2dVertex
 10
202.972748
 20
-31.854889
 30
0.0
  0
VERTEX
  5
1B7
100
AcDbEntity
  8
0
370
     0
390
0
100
AcDbVertex
100
AcDb2dVertex
 10
203.018143
 20
-32.202873
 30
0.0
  0
SEQEND
  5
1B8
100
AcDbEntity
  8
0
370
     0
390
0
  0
POLYLINE
  5
1B9
100
AcDbEntity
  8
0
370
    13
390
0
 62
     7
100
AcDb2dPolyline
 66
     1
 10
0.0
 20
0.0
 30
0.0
 70
     1
 71
     4
  0
VERTEX
  5
1BA
100
AcDbEntity
  8
0
370
     0
390
0
100
AcDbVertex
100
AcDb2dVertex
 10
205.045517
 20
-33.801575
 30
0.0
  0
VERTEX
  5
1BB
100
AcDbEntity
  8
0
370
     0
390
0
100
AcDbVertex
100
AcDb2dVertex
 10
205.741486
 20
-33.801575
 30
0.0
  0
VERTEX
  5
1BC
100
AcDbEntity
  8
0
370
     0
390
0
100
AcDbVertex
100
AcDb2dVertex
 10
205.741486
 20
-33.050133
 30
0.0
  0
VERTEX
  5
1BD
100
AcDbEntity
  8
0
370
     0
390
0
100
AcDbVertex
100
AcDb2dVertex
 10
205.045517
 20
-33.050133
 30
0.0
  0
SEQEND
  5
1BE
100
AcDbEntity
  8
0
370
     0
390
0
  0
POLYLINE
  5
1BF
100
AcDbEntity
  8
0
370
    13
390
0
 62
     7
100
AcDb2dPolyline
 66
     1
 10
0.0
 20
0.0
 30
0.0
 70
     1
 71
     4
  0
VERTEX
  5
1C0
100
AcDbEntity
  8
0
370
     0
390
0
100
AcDbVertex
100
AcDb2dVertex
 10
205.045517
 20
-31.844803
 30
0.0
  0
VERTEX
  5
1C1
100
AcDbEntity
  8
0
370
     0
390
0
100
AcDbVertex
100
AcDb2dVertex
 10
205.741486
 20
-31.844803
 30
0.0
  0
VERTEX
  5
1C2
100
AcDbEntity
  8
0
370
     0
390
0
100
AcDbVertex
100
AcDb2dVertex
 10
205.741486
 20
-31.093361
 30
0.0
  0
VERTEX
  5
1C3
100
AcDbEntity
  8
0
370
     0
390
0
100
AcDbVertex
100
AcDb2dVertex
 10
205.045517
 20
-31.093361
 30
0.0
  0
SEQEND
  5
1C4
100
AcDbEntity
  8
0
370
     0
390
0
  0
POLYLINE
  5
1C5
100
AcDbEntity
  8
0
370
    13
390
0
 62
     7
100
AcDb2dPolyline
 66
     1
 10
0.0
 20
0.0
 30
0.0
 70
     1
 71
    10
  0
VERTEX
  5
1C6
100
AcDbEntity
  8
0
370
     0
390
0
100
AcDbVertex
100
AcDb2dVertex
 10
214.410797
 20
-33.801575
 30
0.0
  0
VERTEX
  5
1C7
100
AcDbEntity
  8
0
370
     0
390
0
100
AcDbVertex
100
AcDb2dVertex
 10
214.86972
 20
-33.801575
 30
0.0
  0
VERTEX
  5
1C8
100
AcDbEntity
  8
0
370
     0
390
0
100
AcDbVertex
100
AcDb2dVertex
 10
214.86972
 20
-30.27636
 30
0.0
  0
VERTEX
  5
1C9
100
AcDbEntity
  8
0
370
     0
390
0
100
AcDbVertex
100
AcDb2dVertex
 10
214.526794
 20
-30.27636
 30
0.0
  0
VERTEX
  5
1CA
100
AcDbEntity
  8
0
370
     0
390
0
100
AcDbVertex
100
AcDb2dVertex
 10
214.436005
 20
-30.583996
 30
0.0
  0
VERTEX
  5
1CB
100
AcDbEntity
  8
0
370
     0
390
0
100
AcDbVertex
100
AcDb2dVertex
 10
214.254456
 20
-30.790768
 30
0.0
  0
VERTEX
  5
1CC
100
AcDbEntity
  8
0
370
     0
390
0
100
AcDbVertex
100
AcDb2dVertex
 10
213.977081
 20
-30.911804
 30
0.0
  0
VERTEX
  5
1CD
100
AcDbEntity
  8
0
370
     0
390
0
100
AcDbVertex
100
AcDb2dVertex
 10
213.593796
 20
-30.95215
 30
0.0
  0
VERTEX
  5
1CE
100
AcDbEntity
  8
0
370
     0
390
0
100
AcDbVertex
100
AcDb2dVertex
 10
213.593796
 20
-31.310221
 30
0.0
  0
VERTEX
  5
1CF
100
AcDbEntity
  8
0
370
     0
390
0
100
AcDbVertex
100
AcDb2dVertex
 10
214.410797
 20
-31.310221
 30
0.0
  0
SEQEND
  5
1D0
100
AcDbEntity
  8
0
370
     0
390
0
  0
POLYLINE
  5
1D1
100
AcDbEntity
  8
0
370
    13
390
0
 62
     7
100
AcDb2dPolyline
 66
     1
 10
0.0
 20
0.0
 30
0.0
 70
     1
 71
     4
  0
VERTEX
  5
1D2
100
AcDbEntity
  8
0
370
     0
390
0
100
AcDbVertex
100
AcDb2dVertex
 10
217.189606
 20
-33.801575
 30
0.0
  0
VERTEX
  5
1D3
100
AcDbEntity
  8
0
370
     0
390
0
100
AcDbVertex
100
AcDb2dVertex
 10
217.885574
 20
-33.801575
 30
0.0
  0
VERTEX
  5
1D4
100
AcDbEntity
  8
0
370
     0
390
0
100
AcDbVertex
100
AcDb2dVertex
 10
217.885574
 20
-33.050133
 30
0.0
  0
VERTEX
  5
1D5
100
AcDbEntity
  8
0
370
     0
390
0
100
AcDbVertex
100
AcDb2dVertex
 10
217.189606
 20
-33.050133
 30
0.0
  0
SEQEND
  5
1D6
100
AcDbEntity
  8
0
370
     0
390
0
  0
POLYLINE
  5
1D7
100
AcDbEntity
  8
0
370
    13
390
0
 62
     7
100
AcDb2dPolyline
 66
     1
 10
0.0
 20
0.0
 30
0.0
 70
     1
 71
     4
  0
VERTEX
  5
1D8
100
AcDbEntity
  8
0
370
     0
390
0
100
AcDbVertex
100
AcDb2dVertex
 10
217.189606
 20
-31.844803
 30
0.0
  0
VERTEX
  5
1D9
100
AcDbEntity
  8
0
370
     0
390
0
100
AcDbVertex
100
AcDb2dVertex
 10
217.885574
 20
-31.844803
 30
0.0
  0
VERTEX
  5
1DA
100
AcDbEntity
  8
0
370
     0
390
0
100
AcDbVertex
100
AcDb2dVertex
 10
217.885574
 20
-31.093361
 30
0.0
  0
VERTEX
  5
1DB
100
AcDbEntity
  8
0
370
     0
390
0
100
AcDbVertex
100
AcDb2dVertex
 10
217.189606
 20
-31.093361
 30
0.0
  0
SEQEND
  5
1DC
100
AcDbEntity
  8
0
370
     0
390
0
  0
POLYLINE
  5
1DD
100
AcDbEntity
  8
0
370
    13
390
0
 62
     7
100
AcDb2dPolyline
 66
     1
 10
0.0
 20
0.0
 30
0.0
 70
     1
 71
    10
  0
VERTEX
  5
1DE
100
AcDbEntity
  8
0
370
     0
390
0
100
AcDbVertex
100
AcDb2dVertex
 10
220.482834
 20
-33.801575
 30
0.0
  0
VERTEX
  5
1DF
100
AcDbEntity
  8
0
370
     0
390
0
100
AcDbVertex
100
AcDb2dVertex
 10
220.941772
 20
-33.801575
 30
0.0
  0
VERTEX
  5
1E0
100
AcDbEntity
  8
0
370
     0
390
0
100
AcDbVertex
100
AcDb2dVertex
 10
220.941772
 20
-30.27636
 30
0.0
  0
VERTEX
  5
1E1
100
AcDbEntity
  8
0
370
     0
390
0
100
AcDbVertex
100
AcDb2dVertex
 10
220.598831
 20
-30.27636
 30
0.0
  0
VERTEX
  5
1E2
100
AcDbEntity
  8
0
370
     0
390
0
100
AcDbVertex
100
AcDb2dVertex
 10
220.508057
 20
-30.583996
 30
0.0
  0
VERTEX
  5
1E3
100
AcDbEntity
  8
0
370
     0
390
0
100
AcDbVertex
100
AcDb2dVertex
 10
220.326492
 20
-30.790768
 30
0.0
  0
VERTEX
  5
1E4
100
AcDbEntity
  8
0
370
     0
390
0
100
AcDbVertex
100
AcDb2dVertex
 10
220.049118
 20
-30.911804
 30
0.0
  0
VERTEX
  5
1E5
100
AcDbEntity
  8
0
370
     0
390
0
100
AcDbVertex
100
AcDb2dVertex
 10
219.665833
 20
-30.95215
 30
0.0
  0
VERTEX
  5
1E6
100
AcDbEntity
  8
0
370
     0
390
0
100
AcDbVertex
100
AcDb2dVertex
 10
219.665833
 20
-31.310221
 30
0.0
  0
VERTEX
  5
1E7
100
AcDbEntity
  8
0
370
     0
390
0
100
AcDbVertex
100
AcDb2dVertex
 10
220.482834
 20
-31.310221
 30
0.0
  0
SEQEND
  5
1E8
100
AcDbEntity
  8
0
370
     0
390
0
  0
POLYLINE
  5
1E9
100
AcDbEntity
  8
0
370
    35
390
0
 62
     7
100
AcDb2dPolyline
 66
     1
 10
0.0
 20
0.0
 30
0.0
 71
    11
  0
VERTEX
  5
1EA
100
AcDbEntity
  8
0
370
     0
390
0
100
AcDbVertex
100
AcDb2dVertex
 10
268.463654
 20
134.838028
 30
0.0
  0
VERTEX
  5
1EB
100
AcDbEntity
  8
0
370
     0
390
0
100
AcDbVertex
100
AcDb2dVertex
 10
237.656738
 20
136.532867
 30
0.0
  0
VERTEX
  5
1EC
100
AcDbEntity
  8
0
370
     0
390
0
100
AcDbVertex
100
AcDb2dVertex
 10
206.211273
 20
138.25769
 30
0.0
  0
VERTEX
  5
1ED
100
AcDbEntity
  8
0
370
     0
390
0
100
AcDbVertex
100
AcDb2dVertex
 10
190.490601
 20
139.156494
 30
0.0
  0
VERTEX
  5
1EE
100
AcDbEntity
  8
0
370
     0
390
0
100
AcDbVertex
100
AcDb2dVertex
 10
178.701813
 20
139.85997
 30
0.0
  0
VERTEX
  5
1EF
100
AcDbEntity
  8
0
370
     0
390
0
100
AcDbVertex
100
AcDb2dVertex
 10
166.915131
 20
140.597687
 30
0.0
  0
VERTEX
  5
1F0
100
AcDbEntity
  8
0
370
     0
390
0
100
AcDbVertex
100
AcDb2dVertex
 10
151.243988
 20
141.652008
 30
0.0
  0
VERTEX
  5
1F1
100
AcDbEntity
  8
0
370
     0
390
0
100
AcDbVertex
100
AcDb2dVertex
 10
143.411133
 20
142.220306
 30
0.0
  0
VERTEX
  5
1F2
100
AcDbEntity
  8
0
370
     0
390
0
100
AcDbVertex
100
AcDb2dVertex
 10
135.580933
 20
142.824036
 30
0.0
  0
VERTEX
  5
1F3
100
AcDbEntity
  8
0
370
     0
390
0
100
AcDbVertex
100
AcDb2dVertex
 10
127.754448
 20
143.471542
 30
0.0
  0
VERTEX
  5
1F4
100
AcDbEntity
  8
0
370
     0
390
0
100
AcDbVertex
100
AcDb2dVertex
 10
119.932945
 20
144.173843
 30
0.0
  0
SEQEND
  5
1F5
100
AcDbEntity
  8
0
370
     0
390
0
  0
POLYLINE
  5
1F6
100
AcDbEntity
  8
0
370
    35
390
0
 62
     7
100
AcDb2dPolyline
 66
     1
 10
0.0
 20
0.0
 30
0.0
 71
    25
  0
VERTEX
  5
1F7
100
AcDbEntity
  8
0
370
     0
390
0
100
AcDbVertex
100
AcDb2dVertex
 10
64.245399
 20
155.921188
 30
0.0
  0
VERTEX
  5
1F8
100
AcDbEntity
  8
0
370
     0
390
0
100
AcDbVertex
100
AcDb2dVertex
 10
64.256203
 20
155.704422
 30
0.0
  0
VERTEX
  5
1F9
100
AcDbEntity
  8
0
370
     0
390
0
100
AcDbVertex
100
AcDb2dVertex
 10
64.364899
 20
155.445221
 30
0.0
  0
VERTEX
  5
1FA
100
AcDbEntity
  8
0
370
     0
390
0
100
AcDbVertex
100
AcDb2dVertex
 10
64.647697
 20
155.07988
 30
0.0
  0
VERTEX
  5
1FB
100
AcDbEntity
  8
0
370
     0
390
0
100
AcDbVertex
100
AcDb2dVertex
 10
65.159569
 20
154.615936
 30
0.0
  0
VERTEX
  5
1FC
100
AcDbEntity
  8
0
370
     0
390
0
100
AcDbVertex
100
AcDb2dVertex
 10
65.575562
 20
154.312027
 30
0.0
  0
VERTEX
  5
1FD
100
AcDbEntity
  8
0
370
     0
390
0
100
AcDbVertex
100
AcDb2dVertex
 10
66.009033
 20
154.03508
 30
0.0
  0
VERTEX
  5
1FE
100
AcDbEntity
  8
0
370
     0
390
0
100
AcDbVertex
100
AcDb2dVertex
 10
66.621315
 20
153.688446
 30
0.0
  0
VERTEX
  5
1FF
100
AcDbEntity
  8
0
370
     0
390
0
100
AcDbVertex
100
AcDb2dVertex
 10
67.251038
 20
153.368607
 30
0.0
  0
VERTEX
  5
200
100
AcDbEntity
  8
0
370
     0
390
0
100
AcDbVertex
100
AcDb2dVertex
 10
68.125198
 20
152.968979
 30
0.0
  0
VERTEX
  5
201
100
AcDbEntity
  8
0
370
     0
390
0
100
AcDbVertex
100
AcDb2dVertex
 10
69.012619
 20
152.603699
 30
0.0
  0
VERTEX
  5
202
100
AcDbEntity
  8
0
370
     0
390
0
100
AcDbVertex
100
AcDb2dVertex
 10
70.154518
 20
152.179886
 30
0.0
  0
VERTEX
  5
203
100
AcDbEntity
  8
0
370
     0
390
0
100
AcDbVertex
100
AcDb2dVertex
 10
71.306015
 20
151.792969
 30
0.0
  0
VERTEX
  5
204
100
AcDbEntity
  8
0
370
     0
390
0
100
AcDbVertex
100
AcDb2dVertex
 10
72.980911
 20
151.28302
 30
0.0
  0
VERTEX
  5
205
100
AcDbEntity
  8
0
370
     0
390
0
100
AcDbVertex
100
AcDb2dVertex
 10
74.673035
 20
150.814453
 30
0.0
  0
VERTEX
  5
206
100
AcDbEntity
  8
0
370
     0
390
0
100
AcDbVertex
100
AcDb2dVertex
 10
78.088959
 20
149.973236
 30
0.0
  0
VERTEX
  5
207
100
AcDbEntity
  8
0
370
     0
390
0
100
AcDbVertex
100
AcDb2dVertex
 10
80.468849
 20
149.454971
 30
0.0
  0
VERTEX
  5
208
100
AcDbEntity
  8
0
370
     0
390
0
100
AcDbVertex
100
AcDb2dVertex
 10
82.854118
 20
148.980362
 30
0.0
  0
VERTEX
  5
209
100
AcDbEntity
  8
0
370
     0
390
0
100
AcDbVertex
100
AcDb2dVertex
 10
85.645851
 20
148.469467
 30
0.0
  0
VERTEX
  5
20A
100
AcDbEntity
  8
0
370
     0
390
0
100
AcDbVertex
100
AcDb2dVertex
 10
88.446442
 20
147.994781
 30
0.0
  0
VERTEX
  5
20B
100
AcDbEntity
  8
0
370
     0
390
0
100
AcDbVertex
100
AcDb2dVertex
 10
94.157806
 20
147.120956
 30
0.0
  0
VERTEX
  5
20C
100
AcDbEntity
  8
0
370
     0
390
0
100
AcDbVertex
100
AcDb2dVertex
 10
99.880692
 20
146.350342
 30
0.0
  0
VERTEX
  5
20D
100
AcDbEntity
  8
0
370
     0
390
0
100
AcDbVertex
100
AcDb2dVertex
 10
105.609901
 20
145.658829
 30
0.0
  0
VERTEX
  5
20E
100
AcDbEntity
  8
0
370
     0
390
0
100
AcDbVertex
100
AcDb2dVertex
 10
112.767708
 20
144.879074
 30
0.0
  0
VERTEX
  5
20F
100
AcDbEntity
  8
0
370
     0
390
0
100
AcDbVertex
100
AcDb2dVertex
 10
119.932945
 20
144.173843
 30
0.0
  0
SEQEND
  5
210
100
AcDbEntity
  8
0
370
     0
390
0
  0
LINE
  5
211
100
AcDbEntity
  8
0
370
    35
390
0
 62
     7
 48
0.001681
100
AcDbLine
 10
64.245399
 20
155.921188
 30
0.0
 11
64.253944
 21
155.987885
 31
0.0
210
0.0
220
0.0
230
1.0
  0
POLYLINE
  5
212
100
AcDbEntity
  8
0
370
    35
390
0
 62
     7
100
AcDb2dPolyline
 66
     1
 10
0.0
 20
0.0
 30
0.0
 71
    26
  0
VERTEX
  5
213
100
AcDbEntity
  8
0
370
     0
390
0
100
AcDbVertex
100
AcDb2dVertex
 10
64.253944
 20
155.987885
 30
0.0
  0
VERTEX
  5
214
100
AcDbEntity
  8
0
370
     0
390
0
100
AcDbVertex
100
AcDb2dVertex
 10
64.295113
 20
156.167694
 30
0.0
  0
VERTEX
  5
215
100
AcDbEntity
  8
0
370
     0
390
0
100
AcDbVertex
100
AcDb2dVertex
 10
64.429771
 20
156.510513
 30
0.0
  0
VERTEX
  5
216
100
AcDbEntity
  8
0
370
     0
390
0
100
AcDbVertex
100
AcDb2dVertex
 10
64.781715
 20
157.09996
 30
0.0
  0
VERTEX
  5
217
100
AcDbEntity
  8
0
370
     0
390
0
100
AcDbVertex
100
AcDb2dVertex
 10
65.085243
 20
157.49176
 30
0.0
  0
VERTEX
  5
218
100
AcDbEntity
  8
0
370
     0
390
0
100
AcDbVertex
100
AcDb2dVertex
 10
65.417091
 20
157.861145
 30
0.0
  0
VERTEX
  5
219
100
AcDbEntity
  8
0
370
     0
390
0
100
AcDbVertex
100
AcDb2dVertex
 10
65.875191
 20
158.303909
 30
0.0
  0
VERTEX
  5
21A
100
AcDbEntity
  8
0
370
     0
390
0
100
AcDbVertex
100
AcDb2dVertex
 10
66.362114
 20
158.714706
 30
0.0
  0
VERTEX
  5
21B
100
AcDbEntity
  8
0
370
     0
390
0
100
AcDbVertex
100
AcDb2dVertex
 10
66.966827
 20
159.164383
 30
0.0
  0
VERTEX
  5
21C
100
AcDbEntity
  8
0
370
     0
390
0
100
AcDbVertex
100
AcDb2dVertex
 10
67.594193
 20
159.581055
 30
0.0
  0
VERTEX
  5
21D
100
AcDbEntity
  8
0
370
     0
390
0
100
AcDbVertex
100
AcDb2dVertex
 10
68.384315
 20
160.056366
 30
0.0
  0
VERTEX
  5
21E
100
AcDbEntity
  8
0
370
     0
390
0
100
AcDbVertex
100
AcDb2dVertex
 10
69.191727
 20
160.501465
 30
0.0
  0
VERTEX
  5
21F
100
AcDbEntity
  8
0
370
     0
390
0
100
AcDbVertex
100
AcDb2dVertex
 10
70.265923
 20
161.045059
 30
0.0
  0
VERTEX
  5
220
100
AcDbEntity
  8
0
370
     0
390
0
100
AcDbVertex
100
AcDb2dVertex
 10
71.358673
 20
161.549301
 30
0.0
  0
VERTEX
  5
221
100
AcDbEntity
  8
0
370
     0
390
0
100
AcDbVertex
100
AcDb2dVertex
 10
72.660103
 20
162.091888
 30
0.0
  0
VERTEX
  5
222
100
AcDbEntity
  8
0
370
     0
390
0
100
AcDbVertex
100
AcDb2dVertex
 10
73.981003
 20
162.586456
 30
0.0
  0
VERTEX
  5
223
100
AcDbEntity
  8
0
370
     0
390
0
100
AcDbVertex
100
AcDb2dVertex
 10
75.386223
 20
163.061569
 30
0.0
  0
VERTEX
  5
224
100
AcDbEntity
  8
0
370
     0
390
0
100
AcDbVertex
100
AcDb2dVertex
 10
76.803848
 20
163.498566
 30
0.0
  0
VERTEX
  5
225
100
AcDbEntity
  8
0
370
     0
390
0
100
AcDbVertex
100
AcDb2dVertex
 10
78.587418
 20
163.999908
 30
0.0
  0
VERTEX
  5
226
100
AcDbEntity
  8
0
370
     0
390
0
100
AcDbVertex
100
AcDb2dVertex
 10
80.381775
 20
164.458435
 30
0.0
  0
VERTEX
  5
227
100
AcDbEntity
  8
0
370
     0
390
0
100
AcDbVertex
100
AcDb2dVertex
 10
82.480988
 20
164.94278
 30
0.0
  0
VERTEX
  5
228
100
AcDbEntity
  8
0
370
     0
390
0
100
AcDbVertex
100
AcDb2dVertex
 10
84.591286
 20
165.377304
 30
0.0
  0
VERTEX
  5
229
100
AcDbEntity
  8
0
370
     0
390
0
100
AcDbVertex
100
AcDb2dVertex
 10
86.894501
 20
165.797943
 30
0.0
  0
VERTEX
  5
22A
100
AcDbEntity
  8
0
370
     0
390
0
100
AcDbVertex
100
AcDb2dVertex
 10
89.206169
 20
166.171432
 30
0.0
  0
VERTEX
  5
22B
100
AcDbEntity
  8
0
370
     0
390
0
100
AcDbVertex
100
AcDb2dVertex
 10
91.800095
 20
166.540924
 30
0.0
  0
VERTEX
  5
22C
100
AcDbEntity
  8
0
370
     0
390
0
100
AcDbVertex
100
AcDb2dVertex
 10
96.463257
 20
167.092575
 30
0.0
  0
SEQEND
  5
22D
100
AcDbEntity
  8
0
370
     0
390
0
  0
POLYLINE
  5
22E
100
AcDbEntity
  8
0
370
    35
390
0
 62
     7
100
AcDb2dPolyline
 66
     1
 10
0.0
 20
0.0
 30
0.0
 71
     4
  0
VERTEX
  5
22F
100
AcDbEntity
  8
0
370
     0
390
0
100
AcDbVertex
100
AcDb2dVertex
 10
96.463257
 20
167.092575
 30
0.0
  0
VERTEX
  5
230
100
AcDbEntity
  8
0
370
     0
390
0
100
AcDbVertex
100
AcDb2dVertex
 10
100.363464
 20
167.456497
 30
0.0
  0
VERTEX
  5
231
100
AcDbEntity
  8
0
370
     0
390
0
100
AcDbVertex
100
AcDb2dVertex
 10
103.642082
 20
167.701324
 30
0.0
  0
VERTEX
  5
232
100
AcDbEntity
  8
0
370
     0
390
0
100
AcDbVertex
100
AcDb2dVertex
 10
107.483574
 20
167.925171
 30
0.0
  0
SEQEND
  5
233
100
AcDbEntity
  8
0
370
     0
390
0
  0
LINE
  5
234
100
AcDbEntity
  8
0
370
    35
390
0
 62
     7
 48
0.297351
100
AcDbLine
 10
107.483574
 20
167.925171
 30
0.0
 11
107.483574
 21
156.031128
 31
0.0
210
0.0
220
0.0
230
1.0
  0
LINE
  5
235
100
AcDbEntity
  8
0
370
    35
390
0
 62
     7
 48
0.0125
100
AcDbLine
 10
107.483574
 20
156.031128
 30
0.0
 11
107.983574
 21
156.031128
 31
0.0
210
0.0
220
0.0
230
1.0
  0
LINE
  5
236
100
AcDbEntity
  8
0
370
    35
390
0
 62
     7
 48
0.0125
100
AcDbLine
 10
107.983574
 20
156.031128
 30
0.0
 11
108.483574
 21
156.031128
 31
0.0
210
0.0
220
0.0
230
1.0
  0
LINE
  5
237
100
AcDbEntity
  8
0
370
    35
390
0
 62
     7
 48
0.298552
100
AcDbLine
 10
108.483574
 20
167.973221
 30
0.0
 11
108.483574
 21
156.031128
 31
0.0
210
0.0
220
0.0
230
1.0
  0
POLYLINE
  5
238
100
AcDbEntity
  8
0
370
    35
390
0
 62
     7
100
AcDb2dPolyline
 66
     1
 10
0.0
 20
0.0
 30
0.0
 71
    11
  0
VERTEX
  5
239
100
AcDbEntity
  8
0
370
     0
390
0
100
AcDbVertex
100
AcDb2dVertex
 10
108.483574
 20
167.973221
 30
0.0
  0
VERTEX
  5
23A
100
AcDbEntity
  8
0
370
     0
390
0
100
AcDbVertex
100
AcDb2dVertex
 10
114.137123
 20
168.172592
 30
0.0
  0
VERTEX
  5
23B
100
AcDbEntity
  8
0
370
     0
390
0
100
AcDbVertex
100
AcDb2dVertex
 10
119.889404
 20
168.260025
 30
0.0
  0
VERTEX
  5
23C
100
AcDbEntity
  8
0
370
     0
390
0
100
AcDbVertex
100
AcDb2dVertex
 10
125.642555
 20
168.243378
 30
0.0
  0
VERTEX
  5
23D
100
AcDbEntity
  8
0
370
     0
390
0
100
AcDbVertex
100
AcDb2dVertex
 10
131.394836
 20
168.13443
 30
0.0
  0
VERTEX
  5
23E
100
AcDbEntity
  8
0
370
     0
390
0
100
AcDbVertex
100
AcDb2dVertex
 10
135.707581
 20
167.998718
 30
0.0
  0
VERTEX
  5
23F
100
AcDbEntity
  8
0
370
     0
390
0
100
AcDbVertex
100
AcDb2dVertex
 10
140.018707
 20
167.821167
 30
0.0
  0
VERTEX
  5
240
100
AcDbEntity
  8
0
370
     0
390
0
100
AcDbVertex
100
AcDb2dVertex
 10
145.154144
 20
167.559265
 30
0.0
  0
VERTEX
  5
241
100
AcDbEntity
  8
0
370
     0
390
0
100
AcDbVertex
100
AcDb2dVertex
 10
150.286682
 20
167.245239
 30
0.0
  0
VERTEX
  5
242
100
AcDbEntity
  8
0
370
     0
390
0
100
AcDbVertex
100
AcDb2dVertex
 10
157.88205
 20
166.687714
 30
0.0
  0
VERTEX
  5
243
100
AcDbEntity
  8
0
370
     0
390
0
100
AcDbVertex
100
AcDb2dVertex
 10
165.468964
 20
166.025192
 30
0.0
  0
SEQEND
  5
244
100
AcDbEntity
  8
0
370
     0
390
0
  0
POLYLINE
  5
245
100
AcDbEntity
  8
0
370
    35
390
0
 62
     7
100
AcDb2dPolyline
 66
     1
 10
0.0
 20
0.0
 30
0.0
 71
    24
  0
VERTEX
  5
246
100
AcDbEntity
  8
0
370
     0
390
0
100
AcDbVertex
100
AcDb2dVertex
 10
355.575623
 20
128.606979
 30
0.0
  0
VERTEX
  5
247
100
AcDbEntity
  8
0
370
     0
390
0
100
AcDbVertex
100
AcDb2dVertex
 10
351.681854
 20
129.44194
 30
0.0
  0
VERTEX
  5
248
100
AcDbEntity
  8
0
370
     0
390
0
100
AcDbVertex
100
AcDb2dVertex
 10
349.095428
 20
130.041519
 30
0.0
  0
VERTEX
  5
249
100
AcDbEntity
  8
0
370
     0
390
0
100
AcDbVertex
100
AcDb2dVertex
 10
343.935547
 20
131.294479
 30
0.0
  0
VERTEX
  5
24A
100
AcDbEntity
  8
0
370
     0
390
0
100
AcDbVertex
100
AcDb2dVertex
 10
334.472687
 20
133.688126
 30
0.0
  0
VERTEX
  5
24B
100
AcDbEntity
  8
0
370
     0
390
0
100
AcDbVertex
100
AcDb2dVertex
 10
320.295288
 20
137.343628
 30
0.0
  0
VERTEX
  5
24C
100
AcDbEntity
  8
0
370
     0
390
0
100
AcDbVertex
100
AcDb2dVertex
 10
307.766937
 20
140.539749
 30
0.0
  0
VERTEX
  5
24D
100
AcDbEntity
  8
0
370
     0
390
0
100
AcDbVertex
100
AcDb2dVertex
 10
301.491821
 20
142.10791
 30
0.0
  0
VERTEX
  5
24E
100
AcDbEntity
  8
0
370
     0
390
0
100
AcDbVertex
100
AcDb2dVertex
 10
289.823242
 20
144.936768
 30
0.0
  0
VERTEX
  5
24F
100
AcDbEntity
  8
0
370
     0
390
0
100
AcDbVertex
100
AcDb2dVertex
 10
278.122864
 20
147.630997
 30
0.0
  0
VERTEX
  5
250
100
AcDbEntity
  8
0
370
     0
390
0
100
AcDbVertex
100
AcDb2dVertex
 10
268.187561
 20
149.797882
 30
0.0
  0
VERTEX
  5
251
100
AcDbEntity
  8
0
370
     0
390
0
100
AcDbVertex
100
AcDb2dVertex
 10
260.778778
 20
151.342377
 30
0.0
  0
VERTEX
  5
252
100
AcDbEntity
  8
0
370
     0
390
0
100
AcDbVertex
100
AcDb2dVertex
 10
253.358307
 20
152.829773
 30
0.0
  0
VERTEX
  5
253
100
AcDbEntity
  8
0
370
     0
390
0
100
AcDbVertex
100
AcDb2dVertex
 10
243.066101
 20
154.79892
 30
0.0
  0
VERTEX
  5
254
100
AcDbEntity
  8
0
370
     0
390
0
100
AcDbVertex
100
AcDb2dVertex
 10
232.755341
 20
156.669464
 30
0.0
  0
VERTEX
  5
255
100
AcDbEntity
  8
0
370
     0
390
0
100
AcDbVertex
100
AcDb2dVertex
 10
222.427917
 20
158.444687
 30
0.0
  0
VERTEX
  5
256
100
AcDbEntity
  8
0
370
     0
390
0
100
AcDbVertex
100
AcDb2dVertex
 10
211.595795
 20
160.194397
 30
0.0
  0
VERTEX
  5
257
100
AcDbEntity
  8
0
370
     0
390
0
100
AcDbVertex
100
AcDb2dVertex
 10
205.66922
 20
161.096161
 30
0.0
  0
VERTEX
  5
258
100
AcDbEntity
  8
0
370
     0
390
0
100
AcDbVertex
100
AcDb2dVertex
 10
199.73645
 20
161.956207
 30
0.0
  0
VERTEX
  5
259
100
AcDbEntity
  8
0
370
     0
390
0
100
AcDbVertex
100
AcDb2dVertex
 10
194.158783
 20
162.724716
 30
0.0
  0
VERTEX
  5
25A
100
AcDbEntity
  8
0
370
     0
390
0
100
AcDbVertex
100
AcDb2dVertex
 10
188.575897
 20
163.454376
 30
0.0
  0
VERTEX
  5
25B
100
AcDbEntity
  8
0
370
     0
390
0
100
AcDbVertex
100
AcDb2dVertex
 10
180.882843
 20
164.393448
 30
0.0
  0
VERTEX
  5
25C
100
AcDbEntity
  8
0
370
     0
390
0
100
AcDbVertex
100
AcDb2dVertex
 10
173.180511
 20
165.253021
 30
0.0
  0
VERTEX
  5
25D
100
AcDbEntity
  8
0
370
     0
390
0
100
AcDbVertex
100
AcDb2dVertex
 10
165.468964
 20
166.025192
 30
0.0
  0
SEQEND
  5
25E
100
AcDbEntity
  8
0
370
     0
390
0
  0
LINE
  5
25F
100
AcDbEntity
  8
0
370
    35
390
0
 62
     7
 48
0.006567
100
AcDbLine
 10
355.833221
 20
128.555664
 30
0.0
 11
355.575623
 21
128.606979
 31
0.0
210
0.0
220
0.0
230
1.0
  0
LINE
  5
260
100
AcDbEntity
  8
0
370
    35
390
0
 62
     7
 48
0.006058
100
AcDbLine
 10
355.592377
 20
128.582367
 30
0.0
 11
355.833221
 21
128.555664
 31
0.0
210
0.0
220
0.0
230
1.0
  0
POLYLINE
  5
261
100
AcDbEntity
  8
0
370
    35
390
0
 62
     7
100
AcDb2dPolyline
 66
     1
 10
0.0
 20
0.0
 30
0.0
 71
    10
  0
VERTEX
  5
262
100
AcDbEntity
  8
0
370
     0
390
0
100
AcDbVertex
100
AcDb2dVertex
 10
355.592377
 20
128.582367
 30
0.0
  0
VERTEX
  5
263
100
AcDbEntity
  8
0
370
     0
390
0
100
AcDbVertex
100
AcDb2dVertex
 10
351.002594
 20
129.049469
 30
0.0
  0
VERTEX
  5
264
100
AcDbEntity
  8
0
370
     0
390
0
100
AcDbVertex
100
AcDb2dVertex
 10
341.814911
 20
129.899353
 30
0.0
  0
VERTEX
  5
265
100
AcDbEntity
  8
0
370
     0
390
0
100
AcDbVertex
100
AcDb2dVertex
 10
332.079163
 20
130.712738
 30
0.0
  0
VERTEX
  5
266
100
AcDbEntity
  8
0
370
     0
390
0
100
AcDbVertex
100
AcDb2dVertex
 10
324.77356
 20
131.275452
 30
0.0
  0
VERTEX
  5
267
100
AcDbEntity
  8
0
370
     0
390
0
100
AcDbVertex
100
AcDb2dVertex
 10
315.824188
 20
131.920715
 30
0.0
  0
VERTEX
  5
268
100
AcDbEntity
  8
0
370
     0
390
0
100
AcDbVertex
100
AcDb2dVertex
 10
306.87207
 20
132.526733
 30
0.0
  0
VERTEX
  5
269
100
AcDbEntity
  8
0
370
     0
390
0
100
AcDbVertex
100
AcDb2dVertex
 10
295.848267
 20
133.229324
 30
0.0
  0
VERTEX
  5
26A
100
AcDbEntity
  8
0
370
     0
390
0
100
AcDbVertex
100
AcDb2dVertex
 10
284.822205
 20
133.895462
 30
0.0
  0
VERTEX
  5
26B
100
AcDbEntity
  8
0
370
     0
390
0
100
AcDbVertex
100
AcDb2dVertex
 10
269.463654
 20
134.781601
 30
0.0
  0
SEQEND
  5
26C
100
AcDbEntity
  8
0
370
     0
390
0
  0
LINE
  5
26D
100
AcDbEntity
  8
0
370
    35
390
0
 62
     7
 48
0.185936
100
AcDbLine
 10
269.463654
 20
134.781601
 30
0.0
 11
269.463654
 21
142.219055
 31
0.0
210
0.0
220
0.0
230
1.0
  0
LINE
  5
26E
100
AcDbEntity
  8
0
370
    35
390
0
 62
     7
 48
0.025
100
AcDbLine
 10
269.463654
 20
142.219055
 30
0.0
 11
268.463654
 21
142.219055
 31
0.0
210
0.0
220
0.0
230
1.0
  0
LINE
  5
26F
100
AcDbEntity
  8
0
370
    35
390
0
 62
     7
 48
0.184526
100
AcDbLine
 10
268.463654
 20
134.838028
 30
0.0
 11
268.463654
 21
142.219055
 31
0.0
210
0.0
220
0.0
230
1.0
  0
ARC
  5
270
100
AcDbEntity
  8
0
370
    35
390
0
 62
     7
100
AcDbCircle
 10
275.312103
 20
142.243393
 30
0.0
 40
1.709793
210
0.0
220
0.0
230
1.0
100
AcDbArc
 50
108.604912
 51
180.030922
  0
LINE
  5
271
100
AcDbEntity
  8
0
370
    35
390
0
 62
     7
 48
0.045964
100
AcDbLine
 10
273.602173
 20
140.403885
 30
0.0
 11
273.602173
 21
142.242462
 31
0.0
210
0.0
220
0.0
230
1.0
  0
ARC
  5
272
100
AcDbEntity
  8
0
370
    35
390
0
 62
     7
100
AcDbCircle
 10
275.512909
 20
140.405914
 30
0.0
 40
1.91072
210
0.0
220
0.0
230
1.0
100
AcDbArc
 50
183.740685
 51
212.29108
  0
ARC
  5
273
100
AcDbEntity
  8
0
370
    35
390
0
 62
     7
100
AcDbCircle
 10
275.47345
 20
140.404083
 30
0.0
 40
1.871291
210
0.0
220
0.0
230
1.0
100
AcDbArc
 50
180.006047
 51
183.763525
  0
ARC
  5
274
100
AcDbEntity
  8
0
370
    35
390
0
 62
     7
100
AcDbCircle
 10
275.336273
 20
140.303223
 30
0.0
 40
1.70648
210
0.0
220
0.0
230
1.0
100
AcDbArc
 50
212.544945
 51
265.623369
  0
LINE
  5
275
100
AcDbEntity
  8
0
370
    35
390
0
 62
     7
 48
0.007786
100
AcDbLine
 10
275.516785
 20
138.580597
 30
0.0
 11
275.206055
 21
138.601639
 31
0.0
210
0.0
220
0.0
230
1.0
  0
POLYLINE
  5
276
100
AcDbEntity
  8
0
370
    35
390
0
 62
     7
100
AcDb2dPolyline
 66
     1
 10
0.0
 20
0.0
 30
0.0
 71
     3
  0
VERTEX
  5
277
100
AcDbEntity
  8
0
370
     0
390
0
100
AcDbVertex
100
AcDb2dVertex
 10
305.870789
 20
136.707047
 30
0.0
  0
VERTEX
  5
278
100
AcDbEntity
  8
0
370
     0
390
0
100
AcDbVertex
100
AcDb2dVertex
 10
290.788788
 20
137.667709
 30
0.0
  0
VERTEX
  5
279
100
AcDbEntity
  8
0
370
     0
390
0
100
AcDbVertex
100
AcDb2dVertex
 10
275.516785
 20
138.580597
 30
0.0
  0
SEQEND
  5
27A
100
AcDbEntity
  8
0
370
     0
390
0
  0
LINE
  5
27B
100
AcDbEntity
  8
0
370
    35
390
0
 62
     7
 48
0.014278
100
AcDbLine
 10
305.320465
 20
136.859711
 30
0.0
 11
305.870789
 21
136.707047
 31
0.0
210
0.0
220
0.0
230
1.0
  0
POLYLINE
  5
27C
100
AcDbEntity
  8
0
370
    35
390
0
 62
     7
100
AcDb2dPolyline
 66
     1
 10
0.0
 20
0.0
 30
0.0
 71
     4
  0
VERTEX
  5
27D
100
AcDbEntity
  8
0
370
     0
390
0
100
AcDbVertex
100
AcDb2dVertex
 10
305.320465
 20
136.859711
 30
0.0
  0
VERTEX
  5
27E
100
AcDbEntity
  8
0
370
     0
390
0
100
AcDbVertex
100
AcDb2dVertex
 10
293.500946
 20
139.787109
 30
0.0
  0
VERTEX
  5
27F
100
AcDbEntity
  8
0
370
     0
390
0
100
AcDbVertex
100
AcDb2dVertex
 10
284.66394
 20
141.889923
 30
0.0
  0
VERTEX
  5
280
100
AcDbEntity
  8
0
370
     0
390
0
100
AcDbVertex
100
AcDb2dVertex
 10
275.784271
 20
143.915939
 30
0.0
  0
SEQEND
  5
281
100
AcDbEntity
  8
0
370
     0
390
0
  0
ARC
  5
282
100
AcDbEntity
  8
0
370
    35
390
0
 62
     7
100
AcDbCircle
 10
275.369751
 20
142.047287
 30
0.0
 40
1.914081
210
0.0
220
0.0
230
1.0
100
AcDbArc
 50
77.492874
 51
108.367057
  0
LINE
  5
283
100
AcDbEntity
  8
0
370
    35
390
0
 62
     7
 48
0.006153
100
AcDbLine
 10
262.657135
 20
146.72673
 30
0.0
 11
262.897827
 21
146.675262
 31
0.0
210
0.0
220
0.0
230
1.0
  0
ARC
  5
284
100
AcDbEntity
  8
0
370
    35
390
0
 62
     7
100
AcDbCircle
 10
65.050575
 20
-805.922729
 30
0.0
 40
972.928241
210
0.0
220
0.0
230
1.0
100
AcDbArc
 50
78.281413
 51
78.451976
  0
ARC
  5
285
100
AcDbEntity
  8
0
370
    35
390
0
 62
     7
100
AcDbCircle
 10
259.421387
 20
145.372894
 30
0.0
 40
1.978374
210
0.0
220
0.0
230
1.0
100
AcDbArc
 50
78.366455
 51
114.456567
  0
ARC
  5
286
100
AcDbEntity
  8
0
370
    35
390
0
 62
     7
100
AcDbCircle
 10
259.297516
 20
145.657806
 30
0.0
 40
1.667664
210
0.0
220
0.0
230
1.0
100
AcDbArc
 50
114.635983
 51
167.904437
  0
ARC
  5
287
100
AcDbEntity
  8
0
370
    35
390
0
 62
     7
100
AcDbCircle
 10
259.294434
 20
145.65657
 30
0.0
 40
1.665001
210
0.0
220
0.0
230
1.0
100
AcDbArc
 50
167.840629
 51
200.117047
  0
ARC
  5
288
100
AcDbEntity
  8
0
370
    35
390
0
 62
     7
100
AcDbCircle
 10
259.601227
 20
145.775925
 30
0.0
 40
1.994268
210
0.0
220
0.0
230
1.0
100
AcDbArc
 50
200.305259
 51
229.956163
  0
LINE
  5
289
100
AcDbEntity
  8
0
370
    35
390
0
 62
     7
 48
0.100175
100
AcDbLine
 10
258.318146
 20
144.249191
 30
0.0
 11
261.387695
 21
141.673538
 31
0.0
210
0.0
220
0.0
230
1.0
  0
ARC
  5
28A
100
AcDbEntity
  8
0
370
    35
390
0
 62
     7
100
AcDbCircle
 10
262.657806
 20
143.180298
 30
0.0
 40
1.970426
210
0.0
220
0.0
230
1.0
100
AcDbArc
 50
229.870799
 51
268.841488
  0
ARC
  5
28B
100
AcDbEntity
  8
0
370
    35
390
0
 62
     7
100
AcDbCircle
 10
262.643616
 20
142.878418
 30
0.0
 40
1.668255
210
0.0
220
0.0
230
1.0
100
AcDbArc
 50
269.118316
 51
343.606861
  0
ARC
  5
28C
100
AcDbEntity
  8
0
370
    35
390
0
 62
     7
100
AcDbCircle
 10
262.33139
 20
142.969925
 30
0.0
 40
1.993712
210
0.0
220
0.0
230
1.0
100
AcDbArc
 50
343.616476
 51
355.950177
  0
ARC
  5
28D
100
AcDbEntity
  8
0
370
    35
390
0
 62
     7
100
AcDbCircle
 10
262.335388
 20
142.970139
 30
0.0
 40
1.989722
210
0.0
220
0.0
230
1.0
100
AcDbArc
 50
355.935915
 51
359.996488
  0
LINE
  5
28E
100
AcDbEntity
  8
0
370
    35
390
0
 62
     7
 48
0.048232
100
AcDbLine
 10
264.325134
 20
142.970016
 30
0.0
 11
264.325134
 21
144.899277
 31
0.0
210
0.0
220
0.0
230
1.0
  0
ARC
  5
28F
100
AcDbEntity
  8
0
370
    35
390
0
 62
     7
100
AcDbCircle
 10
262.506409
 20
144.8992
 30
0.0
 40
1.818638
210
0.0
220
0.0
230
1.0
100
AcDbArc
 50
0.002834
 51
77.571845
  0
ARC
  5
290
100
AcDbEntity
  8
0
370
    35
390
0
 62
     7
100
AcDbCircle
 10
245.884705
 20
144.530762
 30
0.0
 40
4.457144
210
0.0
220
0.0
230
1.0
100
AcDbArc
 50
50.002083
 51
120.448515
  0
LINE
  5
291
100
AcDbEntity
  8
0
370
    35
390
0
 62
     7
 48
0.176944
100
AcDbLine
 10
243.625977
 20
148.373184
 30
0.0
 11
237.524353
 21
144.786438
 31
0.0
210
0.0
220
0.0
230
1.0
  0
ARC
  5
292
100
AcDbEntity
  8
0
370
    35
390
0
 62
     7
100
AcDbCircle
 10
238.760864
 20
142.682999
 30
0.0
 40
2.43997
210
0.0
220
0.0
230
1.0
100
AcDbArc
 50
120.449416
 51
125.647969
  0
ARC
  5
293
100
AcDbEntity
  8
0
370
    35
390
0
 62
     7
100
AcDbCircle
 10
238.637787
 20
142.854752
 30
0.0
 40
2.22866
210
0.0
220
0.0
230
1.0
100
AcDbArc
 50
145.690831
 51
266.861198
  0
ARC
  5
294
100
AcDbEntity
  8
0
370
    35
390
0
 62
     7
100
AcDbCircle
 10
238.637115
 20
142.855347
 30
0.0
 40
2.227778
210
0.0
220
0.0
230
1.0
100
AcDbArc
 50
125.644895
 51
145.693932
  0
LINE
  5
295
100
AcDbEntity
  8
0
370
    35
390
0
 62
     7
 48
0.340553
100
AcDbLine
 10
252.117279
 20
139.880936
 30
0.0
 11
238.515747
 21
140.629425
 31
0.0
210
0.0
220
0.0
230
1.0
  0
ARC
  5
296
100
AcDbEntity
  8
0
370
    35
390
0
 62
     7
100
AcDbCircle
 10
252.240479
 20
142.106659
 30
0.0
 40
2.229146
210
0.0
220
0.0
230
1.0
100
AcDbArc
 50
266.832115
 51
346.519761
  0
ARC
  5
297
100
AcDbEntity
  8
0
370
    35
390
0
 62
     7
100
AcDbCircle
 10
252.24054
 20
142.106247
 30
0.0
 40
2.228956
210
0.0
220
0.0
230
1.0
100
AcDbArc
 50
346.529782
 51
49.997726
  0
LINE
  5
298
100
AcDbEntity
  8
0
370
    35
390
0
 62
     7
 48
0.160689
100
AcDbLine
 10
253.67334
 20
143.81366
 30
0.0
 11
248.749542
 21
147.945221
 31
0.0
210
0.0
220
0.0
230
1.0
  0
ARC
  5
299
100
AcDbEntity
  8
0
370
    35
390
0
 62
     7
100
AcDbCircle
 10
235.025299
 20
149.568832
 30
0.0
 40
2.44407
210
0.0
220
0.0
230
1.0
100
AcDbArc
 50
73.030145
 51
79.777245
  0
ARC
  5
29A
100
AcDbEntity
  8
0
370
    35
390
0
 62
     7
100
AcDbCircle
 10
40.761806
 20
-926.434143
 30
0.0
 40
1095.8425
210
0.0
220
0.0
230
1.0
100
AcDbArc
 50
79.765989
 51
80.854803
  0
LINE
  5
29B
100
AcDbEntity
  8
0
370
    35
390
0
 62
     7
 48
0.005793
100
AcDbLine
 10
214.931549
 20
155.478409
 30
0.0
 11
214.702576
 21
155.514069
 31
0.0
210
0.0
220
0.0
230
1.0
  0
ARC
  5
29C
100
AcDbEntity
  8
0
370
    35
390
0
 62
     7
100
AcDbCircle
 10
214.369293
 20
153.313782
 30
0.0
 40
2.224426
210
0.0
220
0.0
230
1.0
100
AcDbArc
 50
121.604196
 51
215.639444
  0
ARC
  5
29D
100
AcDbEntity
  8
0
370
    35
390
0
 62
     7
100
AcDbCircle
 10
214.368256
 20
153.319458
 30
0.0
 40
2.219818
210
0.0
220
0.0
230
1.0
100
AcDbArc
 50
81.33851
 51
121.65866
  0
ARC
  5
29E
100
AcDbEntity
  8
0
370
    35
390
0
 62
     7
100
AcDbCircle
 10
214.547974
 20
153.444611
 30
0.0
 40
2.445316
210
0.0
220
0.0
230
1.0
100
AcDbArc
 50
215.690916
 51
229.99519
  0
LINE
  5
29F
100
AcDbEntity
  8
0
370
    35
390
0
 62
     7
 48
0.303862
100
AcDbLine
 10
212.975983
 20
151.571518
 30
0.0
 11
222.286865
 21
143.758774
 31
0.0
210
0.0
220
0.0
230
1.0
  0
ARC
  5
2A0
100
AcDbEntity
  8
0
370
    35
390
0
 62
     7
100
AcDbCircle
 10
254.636597
 20
182.312531
 30
0.0
 40
50.3279
210
0.0
220
0.0
230
1.0
100
AcDbArc
 50
230.000627
 51
230.746333
  0
ARC
  5
2A1
100
AcDbEntity
  8
0
370
    35
390
0
 62
     7
100
AcDbCircle
 10
225.608398
 20
146.78804
 30
0.0
 40
4.45163
210
0.0
220
0.0
230
1.0
100
AcDbArc
 50
230.743041
 51
292.588963
  0
ARC
  5
2A2
100
AcDbEntity
  8
0
370
    35
390
0
 62
     7
100
AcDbCircle
 10
225.439972
 20
147.190384
 30
0.0
 40
4.887831
210
0.0
220
0.0
230
1.0
100
AcDbArc
 50
292.60026
 51
300.451733
  0
LINE
  5
2A3
100
AcDbEntity
  8
0
370
    35
390
0
 62
     7
 48
0.240683
100
AcDbLine
 10
236.2164
 20
147.856155
 30
0.0
 11
227.917175
 21
142.976807
 31
0.0
210
0.0
220
0.0
230
1.0
  0
ARC
  5
2A4
100
AcDbEntity
  8
0
370
    35
390
0
 62
     7
100
AcDbCircle
 10
235.086487
 20
149.776184
 30
0.0
 40
2.228582
210
0.0
220
0.0
230
1.0
100
AcDbArc
 50
325.763851
 51
72.979205
  0
ARC
  5
2A5
100
AcDbEntity
  8
0
370
    35
390
0
 62
     7
100
AcDbCircle
 10
235.08847
 20
149.777756
 30
0.0
 40
2.228146
210
0.0
220
0.0
230
1.0
100
AcDbArc
 50
300.412139
 51
325.702051
  0
ARC
  5
2A6
100
AcDbEntity
  8
0
370
    35
390
0
 62
     7
100
AcDbCircle
 10
200.103577
 20
152.221603
 30
0.0
 40
4.45698
210
0.0
220
0.0
230
1.0
100
AcDbArc
 50
49.999392
 51
115.068156
  0
ARC
  5
2A7
100
AcDbEntity
  8
0
370
    35
390
0
 62
     7
100
AcDbCircle
 10
200.104553
 20
152.221069
 30
0.0
 40
4.457827
210
0.0
220
0.0
230
1.0
100
AcDbArc
 50
115.076502
 51
120.456588
  0
LINE
  5
2A8
100
AcDbEntity
  8
0
370
    35
390
0
 62
     7
 48
0.406376
100
AcDbLine
 10
183.832703
 20
147.824646
 30
0.0
 11
197.84494
 21
156.063782
 31
0.0
210
0.0
220
0.0
230
1.0
  0
ARC
  5
2A9
100
AcDbEntity
  8
0
370
    35
390
0
 62
     7
100
AcDbCircle
 10
185.076416
 20
145.710678
 30
0.0
 40
2.452686
210
0.0
220
0.0
230
1.0
100
AcDbArc
 50
120.469237
 51
138.108064
  0
ARC
  5
2AA
100
AcDbEntity
  8
0
370
    35
390
0
 62
     7
100
AcDbCircle
 10
184.908783
 20
145.865189
 30
0.0
 40
2.225292
210
0.0
220
0.0
230
1.0
100
AcDbArc
 50
138.187732
 51
265.659419
  0
LINE
  5
2AB
100
AcDbEntity
  8
0
370
    35
390
0
 62
     7
 48
0.009771
100
AcDbLine
 10
184.740387
 20
143.646469
 30
0.0
 11
185.13031
 21
143.619934
 31
0.0
210
0.0
220
0.0
230
1.0
  0
ARC
  5
2AC
100
AcDbEntity
  8
0
370
    35
390
0
 62
     7
100
AcDbCircle
 10
581.976074
 20
6791.109863
 30
0.0
 40
6659.325089
210
0.0
220
0.0
230
1.0
100
AcDbArc
 50
266.583578
 51
266.823044
  0
ARC
  5
2AD
100
AcDbEntity
  8
0
370
    35
390
0
 62
     7
100
AcDbCircle
 10
213.053009
 20
144.465912
 30
0.0
 40
2.451309
210
0.0
220
0.0
230
1.0
100
AcDbArc
 50
266.807287
 51
276.91316
  0
ARC
  5
2AE
100
AcDbEntity
  8
0
370
    35
390
0
 62
     7
100
AcDbCircle
 10
213.077972
 20
144.244125
 30
0.0
 40
2.228815
210
0.0
220
0.0
230
1.0
100
AcDbArc
 50
312.882763
 51
49.977597
  0
ARC
  5
2AF
100
AcDbEntity
  8
0
370
    35
390
0
 62
     7
100
AcDbCircle
 10
213.082977
 20
144.238541
 30
0.0
 40
2.221898
210
0.0
220
0.0
230
1.0
100
AcDbArc
 50
276.851797
 51
312.886639
  0
LINE
  5
2B0
100
AcDbEntity
  8
0
370
    35
390
0
 62
     7
 48
0.37669
100
AcDbLine
 10
214.510956
 20
145.950531
 30
0.0
 11
202.968506
 21
155.635803
 31
0.0
210
0.0
220
0.0
230
1.0
  0
ARC
  5
2B1
100
AcDbEntity
  8
0
370
    35
390
0
 62
     7
100
AcDbCircle
 10
188.50354
 20
156.813141
 30
0.0
 40
2.451291
210
0.0
220
0.0
230
1.0
100
AcDbArc
 50
73.593396
 51
82.674939
  0
ELLIPSE
  5
2B2
100
AcDbEntity
  8
0
370
    35
390
0
 62
     7
100
AcDbEllipse
 10
193.595062
 20
152.622253
 30
0.0
 11
68.236679077148438
 21
-9.2605056762695313
 31
0.0
210
0.0
220
0.0
230
1.0
 40
0.086248
 41
1.6525885292923779
 42
2.0126203260883226
  0
ARC
  5
2B3
100
AcDbEntity
  8
0
370
    35
390
0
 62
     7
100
AcDbCircle
 10
112.020699
 20
-399.723999
 30
0.0
 40
564.132428
210
0.0
220
0.0
230
1.0
100
AcDbArc
 50
84.596988
 51
85.481914
  0
LINE
  5
2B4
100
AcDbEntity
  8
0
370
    35
390
0
 62
     7
 48
0.009197
100
AcDbLine
 10
156.459564
 20
162.655304
 30
0.0
 11
156.092621
 21
162.681351
 31
0.0
210
0.0
220
0.0
230
1.0
  0
ARC
  5
2B5
100
AcDbEntity
  8
0
370
    35
390
0
 62
     7
100
AcDbCircle
 10
155.951935
 20
160.464264
 30
0.0
 40
2.22164
210
0.0
220
0.0
230
1.0
100
AcDbArc
 50
101.911108
 51
210.571498
  0
ARC
  5
2B6
100
AcDbEntity
  8
0
370
    35
390
0
 62
     7
100
AcDbCircle
 10
155.95166
 20
160.457214
 30
0.0
 40
2.228582
210
0.0
220
0.0
230
1.0
100
AcDbArc
 50
86.373479
 51
101.866794
  0
ARC
  5
2B7
100
AcDbEntity
  8
0
370
    35
390
0
 62
     7
100
AcDbCircle
 10
156.148865
 20
160.586044
 30
0.0
 40
2.452525
210
0.0
220
0.0
230
1.0
100
AcDbArc
 50
210.681013
 51
229.988333
  0
LINE
  5
2B8
100
AcDbEntity
  8
0
370
    35
390
0
 62
     7
 48
0.457373
100
AcDbLine
 10
154.572021
 20
158.707611
 30
0.0
 11
168.586731
 21
146.947876
 31
0.0
210
0.0
220
0.0
230
1.0
  0
ARC
  5
2B9
100
AcDbEntity
  8
0
370
    35
390
0
 62
     7
100
AcDbCircle
 10
199.930573
 20
184.303741
 30
0.0
 40
48.763694
210
0.0
220
0.0
230
1.0
100
AcDbArc
 50
230.001269
 51
230.958452
  0
ARC
  5
2BA
100
AcDbEntity
  8
0
370
    35
390
0
 62
     7
100
AcDbCircle
 10
172.016968
 20
149.88356
 30
0.0
 40
4.447513
210
0.0
220
0.0
230
1.0
100
AcDbArc
 50
230.951827
 51
289.591179
  0
ARC
  5
2BB
100
AcDbEntity
  8
0
370
    35
390
0
 62
     7
100
AcDbCircle
 10
171.862305
 20
150.312271
 30
0.0
 40
4.903268
210
0.0
220
0.0
230
1.0
100
AcDbArc
 50
294.66433
 51
300.454664
  0
ARC
  5
2BC
100
AcDbEntity
  8
0
370
    35
390
0
 62
     7
100
AcDbCircle
 10
171.867828
 20
150.299362
 30
0.0
 40
4.889252
210
0.0
220
0.0
230
1.0
100
AcDbArc
 50
289.604143
 51
294.668838
  0
LINE
  5
2BD
100
AcDbEntity
  8
0
370
    35
390
0
 62
     7
 48
0.445075
100
AcDbLine
 10
174.347565
 20
146.085495
 30
0.0
 11
189.693878
 21
155.109756
 31
0.0
210
0.0
220
0.0
230
1.0
  0
ARC
  5
2BE
100
AcDbEntity
  8
0
370
    35
390
0
 62
     7
100
AcDbCircle
 10
188.564972
 20
157.029312
 30
0.0
 40
2.227224
210
0.0
220
0.0
230
1.0
100
AcDbArc
 50
300.459779
 51
73.538516
  0
ARC
  5
2BF
100
AcDbEntity
  8
0
370
    35
390
0
 62
     7
100
AcDbCircle
 10
143.2435
 20
158.061966
 30
0.0
 40
4.457188
210
0.0
220
0.0
230
1.0
100
AcDbArc
 50
49.999683
 51
100.700389
  0
ARC
  5
2C0
100
AcDbEntity
  8
0
370
    35
390
0
 62
     7
100
AcDbCircle
 10
143.24292
 20
158.06543
 30
0.0
 40
4.453678
210
0.0
220
0.0
230
1.0
100
AcDbArc
 50
100.701201
 51
120.463077
  0
LINE
  5
2C1
100
AcDbEntity
  8
0
370
    35
390
0
 62
     7
 48
0.48587
100
AcDbLine
 10
124.232254
 20
152.052521
 30
0.0
 11
140.984955
 21
161.904312
 31
0.0
210
0.0
220
0.0
230
1.0
  0
ARC
  5
2C2
100
AcDbEntity
  8
0
370
    35
390
0
 62
     7
100
AcDbCircle
 10
125.479179
 20
149.934143
 30
0.0
 40
2.458126
210
0.0
220
0.0
230
1.0
100
AcDbArc
 50
120.48186
 51
141.947027
  0
ARC
  5
2C3
100
AcDbEntity
  8
0
370
    35
390
0
 62
     7
100
AcDbCircle
 10
125.295883
 20
150.083344
 30
0.0
 40
2.222357
210
0.0
220
0.0
230
1.0
100
AcDbArc
 50
142.063195
 51
263.727732
  0
ARC
  5
2C4
100
AcDbEntity
  8
0
370
    35
390
0
 62
     7
100
AcDbCircle
 10
127.643288
 20
171.35231
 30
0.0
 40
23.620444
210
0.0
220
0.0
230
1.0
100
AcDbArc
 50
263.704305
 51
264.924689
  0
POLYLINE
  5
2C5
100
AcDbEntity
  8
0
370
    35
390
0
 62
     7
100
AcDb2dPolyline
 66
     1
 10
0.0
 20
0.0
 30
0.0
 71
     5
  0
VERTEX
  5
2C6
100
AcDbEntity
  8
0
370
     0
390
0
100
AcDbVertex
100
AcDb2dVertex
 10
125.553711
 20
147.824478
 30
0.0
  0
VERTEX
  5
2C7
100
AcDbEntity
  8
0
370
     0
390
0
100
AcDbVertex
100
AcDb2dVertex
 10
132.324432
 20
147.244232
 30
0.0
  0
VERTEX
  5
2C8
100
AcDbEntity
  8
0
370
     0
390
0
100
AcDbVertex
100
AcDb2dVertex
 10
139.098541
 20
146.700287
 30
0.0
  0
VERTEX
  5
2C9
100
AcDbEntity
  8
0
370
     0
390
0
100
AcDbVertex
100
AcDb2dVertex
 10
149.113708
 20
145.949966
 30
0.0
  0
VERTEX
  5
2CA
100
AcDbEntity
  8
0
370
     0
390
0
100
AcDbVertex
100
AcDb2dVertex
 10
159.136719
 20
145.250214
 30
0.0
  0
SEQEND
  5
2CB
100
AcDbEntity
  8
0
370
     0
390
0
  0
ARC
  5
2CC
100
AcDbEntity
  8
0
370
    35
390
0
 62
     7
100
AcDbCircle
 10
159.302368
 20
147.700882
 30
0.0
 40
2.456262
210
0.0
220
0.0
230
1.0
100
AcDbArc
 50
266.133468
 51
277.490482
  0
ARC
  5
2CD
100
AcDbEntity
  8
0
370
    35
390
0
 62
     7
100
AcDbCircle
 10
159.329468
 20
147.473846
 30
0.0
 40
2.228834
210
0.0
220
0.0
230
1.0
100
AcDbArc
 50
291.939118
 51
49.972837
  0
ARC
  5
2CE
100
AcDbEntity
  8
0
370
    35
390
0
 62
     7
100
AcDbCircle
 10
159.331573
 20
147.480347
 30
0.0
 40
2.233799
210
0.0
220
0.0
230
1.0
100
AcDbArc
 50
277.484785
 51
291.826427
  0
LINE
  5
2CF
100
AcDbEntity
  8
0
370
    35
390
0
 62
     7
 48
0.478238
100
AcDbLine
 10
160.762573
 20
149.18013
 30
0.0
 11
146.108521
 21
161.476334
 31
0.0
210
0.0
220
0.0
230
1.0
  0
ARC
  5
2D0
100
AcDbEntity
  8
0
370
    35
390
0
 62
     7
100
AcDbCircle
 10
114.849617
 20
161.825729
 30
0.0
 40
2.227537
210
0.0
220
0.0
230
1.0
100
AcDbArc
 50
99.542371
 51
180.001224
  0
LINE
  5
2D1
100
AcDbEntity
  8
0
370
    35
390
0
 62
     7
 48
0.220608
100
AcDbLine
 10
112.622093
 20
153.001373
 30
0.0
 11
112.622093
 21
161.825684
 31
0.0
210
0.0
220
0.0
230
1.0
  0
ARC
  5
2D2
100
AcDbEntity
  8
0
370
    35
390
0
 62
     7
100
AcDbCircle
 10
115.080254
 20
153.001495
 30
0.0
 40
2.458163
210
0.0
220
0.0
230
1.0
100
AcDbArc
 50
180.003123
 51
192.48584
  0
ARC
  5
2D3
100
AcDbEntity
  8
0
370
    35
390
0
 62
     7
100
AcDbCircle
 10
114.85289
 20
152.952911
 30
0.0
 40
2.225936
210
0.0
220
0.0
230
1.0
100
AcDbArc
 50
192.529895
 51
282.955514
  0
ARC
  5
2D4
100
AcDbEntity
  8
0
370
    35
390
0
 62
     7
100
AcDbCircle
 10
114.851685
 20
152.954636
 30
0.0
 40
2.227988
210
0.0
220
0.0
230
1.0
100
AcDbArc
 50
282.975704
 51
299.761031
  0
LINE
  5
2D5
100
AcDbEntity
  8
0
370
    35
390
0
 62
     7
 48
0.007388
100
AcDbLine
 10
116.21328
 20
151.168732
 30
0.0
 11
115.957626
 21
151.020508
 31
0.0
210
0.0
220
0.0
230
1.0
  0
LINE
  5
2D6
100
AcDbEntity
  8
0
370
    35
390
0
 62
     7
 48
0.427527
100
AcDbLine
 10
116.21328
 20
151.168732
 30
0.0
 11
130.954041
 21
159.838043
 31
0.0
210
0.0
220
0.0
230
1.0
  0
ARC
  5
2D7
100
AcDbEntity
  8
0
370
    35
390
0
 62
     7
100
AcDbCircle
 10
129.705597
 20
161.959106
 30
0.0
 40
2.461208
210
0.0
220
0.0
230
1.0
100
AcDbArc
 50
300.481253
 51
321.034522
  0
ARC
  5
2D8
100
AcDbEntity
  8
0
370
    35
390
0
 62
     7
100
AcDbCircle
 10
129.888123
 20
161.80571
 30
0.0
 40
2.223463
210
0.0
220
0.0
230
1.0
100
AcDbArc
 50
321.149853
 51
87.697307
  0
LINE
  5
2D9
100
AcDbEntity
  8
0
370
    35
390
0
 62
     7
 48
0.010261
100
AcDbLine
 10
129.977448
 20
164.027313
 30
0.0
 11
129.56723
 21
164.040222
 31
0.0
210
0.0
220
0.0
230
1.0
  0
POLYLINE
  5
2DA
100
AcDbEntity
  8
0
370
    35
390
0
 62
     7
100
AcDb2dPolyline
 66
     1
 10
0.0
 20
0.0
 30
0.0
 71
     5
  0
VERTEX
  5
2DB
100
AcDbEntity
  8
0
370
     0
390
0
100
AcDbVertex
100
AcDb2dVertex
 10
129.56723
 20
164.040222
 30
0.0
  0
VERTEX
  5
2DC
100
AcDbEntity
  8
0
370
     0
390
0
100
AcDbVertex
100
AcDb2dVertex
 10
125.635246
 20
164.107391
 30
0.0
  0
VERTEX
  5
2DD
100
AcDbEntity
  8
0
370
     0
390
0
100
AcDbVertex
100
AcDb2dVertex
 10
121.706497
 20
164.13092
 30
0.0
  0
VERTEX
  5
2DE
100
AcDbEntity
  8
0
370
     0
390
0
100
AcDbVertex
100
AcDb2dVertex
 10
118.26918
 20
164.112778
 30
0.0
  0
VERTEX
  5
2DF
100
AcDbEntity
  8
0
370
     0
390
0
100
AcDbVertex
100
AcDb2dVertex
 10
114.831924
 20
164.05571
 30
0.0
  0
SEQEND
  5
2E0
100
AcDbEntity
  8
0
370
     0
390
0
  0
ARC
  5
2E1
100
AcDbEntity
  8
0
370
    35
390
0
 62
     7
100
AcDbCircle
 10
114.887459
 20
161.597458
 30
0.0
 40
2.458888
210
0.0
220
0.0
230
1.0
100
AcDbArc
 50
91.294112
 51
97.772355
  0
LINE
  5
2E2
100
AcDbEntity
  8
0
370
    35
390
0
 62
     7
 48
0.001886
100
AcDbLine
 10
114.554924
 20
164.033752
 30
0.0
 11
114.480354
 21
164.0224
 31
0.0
210
0.0
220
0.0
230
1.0
  0
ARC
  5
2E3
100
AcDbEntity
  8
0
370
    35
390
0
 62
     7
100
AcDbCircle
 10
92.476059
 20
153.928024
 30
0.0
 40
2.428967
210
0.0
220
0.0
230
1.0
100
AcDbArc
 50
180.028477
 51
204.562093
  0
ARC
  5
2E4
100
AcDbEntity
  8
0
370
    35
390
0
 62
     7
100
AcDbCircle
 10
92.276726
 20
153.841324
 30
0.0
 40
2.211553
210
0.0
220
0.0
230
1.0
100
AcDbArc
 50
204.666035
 51
258.943642
  0
ARC
  5
2E5
100
AcDbEntity
  8
0
370
    35
390
0
 62
     7
100
AcDbCircle
 10
96.712395
 20
176.50592
 30
0.0
 40
25.306117
210
0.0
220
0.0
230
1.0
100
AcDbArc
 50
258.928138
 51
261.465109
  0
ARC
  5
2E6
100
AcDbEntity
  8
0
370
    35
390
0
 62
     7
100
AcDbCircle
 10
144.221588
 20
495.608459
 30
0.0
 40
347.926279
210
0.0
220
0.0
230
1.0
100
AcDbArc
 50
261.526943
 51
262.836761
  0
ARC
  5
2E7
100
AcDbEntity
  8
0
370
    35
390
0
 62
     7
100
AcDbCircle
 10
101.116005
 20
152.608887
 30
0.0
 40
2.229167
210
0.0
220
0.0
230
1.0
100
AcDbArc
 50
282.051859
 51
359.990612
  0
ARC
  5
2E8
100
AcDbEntity
  8
0
370
    35
390
0
 62
     7
100
AcDbCircle
 10
101.116508
 20
152.608521
 30
0.0
 40
2.228756
210
0.0
220
0.0
230
1.0
100
AcDbArc
 50
262.777312
 51
282.041075
  0
LINE
  5
2E9
100
AcDbEntity
  8
0
370
    35
390
0
 62
     7
 48
0.211371
100
AcDbLine
 10
103.345055
 20
152.608521
 30
0.0
 11
103.345055
 21
161.06337
 31
0.0
210
0.0
220
0.0
230
1.0
  0
ARC
  5
2EA
100
AcDbEntity
  8
0
370
    35
390
0
 62
     7
100
AcDbCircle
 10
100.920357
 20
161.062881
 30
0.0
 40
2.424693
210
0.0
220
0.0
230
1.0
100
AcDbArc
 50
0.011607
 51
18.954963
  0
ARC
  5
2EB
100
AcDbEntity
  8
0
370
    35
390
0
 62
     7
100
AcDbCircle
 10
101.116112
 20
161.128174
 30
0.0
 40
2.218262
210
0.0
220
0.0
230
1.0
100
AcDbArc
 50
19.002216
 51
92.750554
  0
ARC
  5
2EC
100
AcDbEntity
  8
0
370
    35
390
0
 62
     7
100
AcDbCircle
 10
102.188431
 20
138.776215
 30
0.0
 40
24.595972
210
0.0
220
0.0
230
1.0
100
AcDbArc
 50
92.746961
 51
94.874572
  0
ARC
  5
2ED
100
AcDbEntity
  8
0
370
    35
390
0
 62
     7
100
AcDbCircle
 10
114.544632
 20
-7.01593
 30
0.0
 40
170.910573
210
0.0
220
0.0
230
1.0
100
AcDbArc
 50
94.848713
 51
97.002292
  0
ARC
  5
2EE
100
AcDbEntity
  8
0
370
    35
390
0
 62
     7
100
AcDbCircle
 10
112.014084
 20
14.305107
 30
0.0
 40
149.439884
210
0.0
220
0.0
230
1.0
100
AcDbArc
 50
97.035869
 51
97.705521
  0
ARC
  5
2EF
100
AcDbEntity
  8
0
370
    35
390
0
 62
     7
100
AcDbCircle
 10
92.276001
 20
160.186813
 30
0.0
 40
2.228949
210
0.0
220
0.0
230
1.0
100
AcDbArc
 50
97.710808
 51
179.996631
  0
LINE
  5
2F0
100
AcDbEntity
  8
0
370
    35
390
0
 62
     7
 48
0.156503
100
AcDbLine
 10
90.047089
 20
160.186951
 30
0.0
 11
90.047089
 21
153.926819
 31
0.0
210
0.0
220
0.0
230
1.0
  0
POLYLINE
  5
2F1
100
AcDbEntity
  8
0
370
    35
390
0
 62
     7
100
AcDb2dPolyline
 66
     1
 10
0.0
 20
0.0
 30
0.0
 71
     8
  0
VERTEX
  5
2F2
100
AcDbEntity
  8
0
370
     0
390
0
100
AcDbVertex
100
AcDb2dVertex
 10
70.472855
 20
156.485733
 30
0.0
  0
VERTEX
  5
2F3
100
AcDbEntity
  8
0
370
     0
390
0
100
AcDbVertex
100
AcDb2dVertex
 10
71.636826
 20
157.110107
 30
0.0
  0
VERTEX
  5
2F4
100
AcDbEntity
  8
0
370
     0
390
0
100
AcDbVertex
100
AcDb2dVertex
 10
73.468315
 20
157.955704
 30
0.0
  0
VERTEX
  5
2F5
100
AcDbEntity
  8
0
370
     0
390
0
100
AcDbVertex
100
AcDb2dVertex
 10
75.046661
 20
158.575226
 30
0.0
  0
VERTEX
  5
2F6
100
AcDbEntity
  8
0
370
     0
390
0
100
AcDbVertex
100
AcDb2dVertex
 10
76.675484
 20
159.13269
 30
0.0
  0
VERTEX
  5
2F7
100
AcDbEntity
  8
0
370
     0
390
0
100
AcDbVertex
100
AcDb2dVertex
 10
78.015259
 20
159.544647
 30
0.0
  0
VERTEX
  5
2F8
100
AcDbEntity
  8
0
370
     0
390
0
100
AcDbVertex
100
AcDb2dVertex
 10
80.754807
 20
160.290085
 30
0.0
  0
VERTEX
  5
2F9
100
AcDbEntity
  8
0
370
     0
390
0
100
AcDbVertex
100
AcDb2dVertex
 10
83.529732
 20
160.937332
 30
0.0
  0
SEQEND
  5
2FA
100
AcDbEntity
  8
0
370
     0
390
0
  0
POLYLINE
  5
2FB
100
AcDbEntity
  8
0
370
    35
390
0
 62
     7
100
AcDb2dPolyline
 66
     1
 10
0.0
 20
0.0
 30
0.0
 71
     7
  0
VERTEX
  5
2FC
100
AcDbEntity
  8
0
370
     0
390
0
100
AcDbVertex
100
AcDb2dVertex
 10
70.472855
 20
156.485733
 30
0.0
  0
VERTEX
  5
2FD
100
AcDbEntity
  8
0
370
     0
390
0
100
AcDbVertex
100
AcDb2dVertex
 10
72.013985
 20
155.923431
 30
0.0
  0
VERTEX
  5
2FE
100
AcDbEntity
  8
0
370
     0
390
0
100
AcDbVertex
100
AcDb2dVertex
 10
74.263664
 20
155.224854
 30
0.0
  0
VERTEX
  5
2FF
100
AcDbEntity
  8
0
370
     0
390
0
100
AcDbVertex
100
AcDb2dVertex
 10
75.913643
 20
154.770447
 30
0.0
  0
VERTEX
  5
300
100
AcDbEntity
  8
0
370
     0
390
0
100
AcDbVertex
100
AcDb2dVertex
 10
77.563637
 20
154.351654
 30
0.0
  0
VERTEX
  5
301
100
AcDbEntity
  8
0
370
     0
390
0
100
AcDbVertex
100
AcDb2dVertex
 10
80.861092
 20
153.601807
 30
0.0
  0
VERTEX
  5
302
100
AcDbEntity
  8
0
370
     0
390
0
100
AcDbVertex
100
AcDb2dVertex
 10
83.553925
 20
153.059448
 30
0.0
  0
SEQEND
  5
303
100
AcDbEntity
  8
0
370
     0
390
0
  0
ARC
  5
304
100
AcDbEntity
  8
0
370
    35
390
0
 62
     7
100
AcDbCircle
 10
84.014404
 20
155.459869
 30
0.0
 40
2.444187
210
0.0
220
0.0
230
1.0
100
AcDbArc
 50
259.140796
 51
266.106571
  0
ARC
  5
305
100
AcDbEntity
  8
0
370
    35
390
0
 62
     7
100
AcDbCircle
 10
83.999176
 20
155.244766
 30
0.0
 40
2.22874
210
0.0
220
0.0
230
1.0
100
AcDbArc
 50
279.864088
 51
359.993537
  0
ARC
  5
306
100
AcDbEntity
  8
0
370
    35
390
0
 62
     7
100
AcDbCircle
 10
83.999969
 20
155.245041
 30
0.0
 40
2.228874
210
0.0
220
0.0
230
1.0
100
AcDbArc
 50
266.101674
 51
279.842655
  0
LINE
  5
307
100
AcDbEntity
  8
0
370
    35
390
0
 62
     7
 48
0.087851
100
AcDbLine
 10
86.227829
 20
155.244507
 30
0.0
 11
86.227829
 21
158.75853
 31
0.0
210
0.0
220
0.0
230
1.0
  0
ARC
  5
308
100
AcDbEntity
  8
0
370
    35
390
0
 62
     7
100
AcDbCircle
 10
83.998772
 20
158.758301
 30
0.0
 40
2.229158
210
0.0
220
0.0
230
1.0
100
AcDbArc
 50
0.005785
 51
97.006151
  0
ARC
  5
309
100
AcDbEntity
  8
0
370
    35
390
0
 62
     7
100
AcDbCircle
 10
84.000633
 20
158.753281
 30
0.0
 40
2.234228
210
0.0
220
0.0
230
1.0
100
AcDbArc
 50
97.037761
 51
102.167226
  0
POLYLINE
  5
30A
100
AcDbEntity
  8
0
370
    35
390
0
 62
     7
100
AcDb2dPolyline
 66
     1
 10
0.0
 20
0.0
 30
0.0
 71
     4
  0
VERTEX
  5
30B
100
AcDbEntity
  8
0
370
     0
390
0
100
AcDbVertex
100
AcDb2dVertex
 10
96.923462
 20
167.140533
 30
0.0
  0
VERTEX
  5
30C
100
AcDbEntity
  8
0
370
     0
390
0
100
AcDbVertex
100
AcDb2dVertex
 10
100.889862
 20
167.509857
 30
0.0
  0
VERTEX
  5
30D
100
AcDbEntity
  8
0
370
     0
390
0
100
AcDbVertex
100
AcDb2dVertex
 10
104.168343
 20
167.753448
 30
0.0
  0
VERTEX
  5
30E
100
AcDbEntity
  8
0
370
     0
390
0
100
AcDbVertex
100
AcDb2dVertex
 10
107.896187
 20
167.970261
 30
0.0
  0
SEQEND
  5
30F
100
AcDbEntity
  8
0
370
     0
390
0
  0
LINE
  5
310
100
AcDbEntity
  8
0
370
    35
390
0
 62
     7
 48
0.296539
100
AcDbLine
 10
107.896187
 20
167.970261
 30
0.0
 11
107.896187
 21
156.108704
 31
0.0
210
0.0
220
0.0
230
1.0
  0
LINE
  5
311
100
AcDbEntity
  8
0
370
    35
390
0
 62
     7
 48
0.0125
100
AcDbLine
 10
107.896187
 20
156.108704
 30
0.0
 11
108.396187
 21
156.108704
 31
0.0
210
0.0
220
0.0
230
1.0
  0
LINE
  5
312
100
AcDbEntity
  8
0
370
    35
390
0
 62
     7
 48
0.002185
100
AcDbLine
 10
108.396187
 20
156.108704
 30
0.0
 11
108.483574
 21
156.108704
 31
0.0
210
0.0
220
0.0
230
1.0
  0
POLYLINE
  5
313
100
AcDbEntity
  8
0
370
    35
390
0
 62
     7
100
AcDb2dPolyline
 66
     1
 10
0.0
 20
0.0
 30
0.0
 71
    11
  0
VERTEX
  5
314
100
AcDbEntity
  8
0
370
     0
390
0
100
AcDbVertex
100
AcDb2dVertex
 10
108.896187
 20
168.018417
 30
0.0
  0
VERTEX
  5
315
100
AcDbEntity
  8
0
370
     0
390
0
100
AcDbVertex
100
AcDb2dVertex
 10
114.665802
 20
168.22113
 30
0.0
  0
VERTEX
  5
316
100
AcDbEntity
  8
0
370
     0
390
0
100
AcDbVertex
100
AcDb2dVertex
 10
120.419716
 20
168.306534
 30
0.0
  0
VERTEX
  5
317
100
AcDbEntity
  8
0
370
     0
390
0
100
AcDbVertex
100
AcDb2dVertex
 10
126.174461
 20
168.287857
 30
0.0
  0
VERTEX
  5
318
100
AcDbEntity
  8
0
370
     0
390
0
100
AcDbVertex
100
AcDb2dVertex
 10
131.928284
 20
168.176941
 30
0.0
  0
VERTEX
  5
319
100
AcDbEntity
  8
0
370
     0
390
0
100
AcDbVertex
100
AcDb2dVertex
 10
136.242188
 20
168.03978
 30
0.0
  0
VERTEX
  5
31A
100
AcDbEntity
  8
0
370
     0
390
0
100
AcDbVertex
100
AcDb2dVertex
 10
140.554443
 20
167.860825
 30
0.0
  0
VERTEX
  5
31B
100
AcDbEntity
  8
0
370
     0
390
0
100
AcDbVertex
100
AcDb2dVertex
 10
145.693115
 20
167.597107
 30
0.0
  0
VERTEX
  5
31C
100
AcDbEntity
  8
0
370
     0
390
0
100
AcDbVertex
100
AcDb2dVertex
 10
150.828888
 20
167.281174
 30
0.0
  0
VERTEX
  5
31D
100
AcDbEntity
  8
0
370
     0
390
0
100
AcDbVertex
100
AcDb2dVertex
 10
158.284698
 20
166.732239
 30
0.0
  0
VERTEX
  5
31E
100
AcDbEntity
  8
0
370
     0
390
0
100
AcDbVertex
100
AcDb2dVertex
 10
165.732361
 20
166.081955
 30
0.0
  0
SEQEND
  5
31F
100
AcDbEntity
  8
0
370
     0
390
0
  0
POLYLINE
  5
320
100
AcDbEntity
  8
0
370
    35
390
0
 62
     7
100
AcDb2dPolyline
 66
     1
 10
0.0
 20
0.0
 30
0.0
 71
    24
  0
VERTEX
  5
321
100
AcDbEntity
  8
0
370
     0
390
0
100
AcDbVertex
100
AcDb2dVertex
 10
355.35553
 20
128.782227
 30
0.0
  0
VERTEX
  5
322
100
AcDbEntity
  8
0
370
     0
390
0
100
AcDbVertex
100
AcDb2dVertex
 10
351.466156
 20
129.615814
 30
0.0
  0
VERTEX
  5
323
100
AcDbEntity
  8
0
370
     0
390
0
100
AcDbVertex
100
AcDb2dVertex
 10
348.88266
 20
130.214462
 30
0.0
  0
VERTEX
  5
324
100
AcDbEntity
  8
0
370
     0
390
0
100
AcDbVertex
100
AcDb2dVertex
 10
343.728638
 20
131.4655
 30
0.0
  0
VERTEX
  5
325
100
AcDbEntity
  8
0
370
     0
390
0
100
AcDbVertex
100
AcDb2dVertex
 10
334.275482
 20
133.855698
 30
0.0
  0
VERTEX
  5
326
100
AcDbEntity
  8
0
370
     0
390
0
100
AcDbVertex
100
AcDb2dVertex
 10
320.112518
 20
137.505707
 30
0.0
  0
VERTEX
  5
327
100
AcDbEntity
  8
0
370
     0
390
0
100
AcDbVertex
100
AcDb2dVertex
 10
307.615845
 20
140.691895
 30
0.0
  0
VERTEX
  5
328
100
AcDbEntity
  8
0
370
     0
390
0
100
AcDbVertex
100
AcDb2dVertex
 10
301.356628
 20
142.255051
 30
0.0
  0
VERTEX
  5
329
100
AcDbEntity
  8
0
370
     0
390
0
100
AcDbVertex
100
AcDb2dVertex
 10
289.714142
 20
145.075546
 30
0.0
  0
VERTEX
  5
32A
100
AcDbEntity
  8
0
370
     0
390
0
100
AcDbVertex
100
AcDb2dVertex
 10
278.039886
 20
147.761551
 30
0.0
  0
VERTEX
  5
32B
100
AcDbEntity
  8
0
370
     0
390
0
100
AcDbVertex
100
AcDb2dVertex
 10
268.1185
 20
149.923447
 30
0.0
  0
VERTEX
  5
32C
100
AcDbEntity
  8
0
370
     0
390
0
100
AcDbVertex
100
AcDb2dVertex
 10
260.718506
 20
151.464569
 30
0.0
  0
VERTEX
  5
32D
100
AcDbEntity
  8
0
370
     0
390
0
100
AcDbVertex
100
AcDb2dVertex
 10
253.306885
 20
152.948608
 30
0.0
  0
VERTEX
  5
32E
100
AcDbEntity
  8
0
370
     0
390
0
100
AcDbVertex
100
AcDb2dVertex
 10
243.024902
 20
154.913528
 30
0.0
  0
VERTEX
  5
32F
100
AcDbEntity
  8
0
370
     0
390
0
100
AcDbVertex
100
AcDb2dVertex
 10
232.724426
 20
156.779846
 30
0.0
  0
VERTEX
  5
330
100
AcDbEntity
  8
0
370
     0
390
0
100
AcDbVertex
100
AcDb2dVertex
 10
222.407227
 20
158.550781
 30
0.0
  0
VERTEX
  5
331
100
AcDbEntity
  8
0
370
     0
390
0
100
AcDbVertex
100
AcDb2dVertex
 10
211.590729
 20
160.295013
 30
0.0
  0
VERTEX
  5
332
100
AcDbEntity
  8
0
370
     0
390
0
100
AcDbVertex
100
AcDb2dVertex
 10
205.877747
 20
161.163239
 30
0.0
  0
VERTEX
  5
333
100
AcDbEntity
  8
0
370
     0
390
0
100
AcDbVertex
100
AcDb2dVertex
 10
200.158997
 20
161.992615
 30
0.0
  0
VERTEX
  5
334
100
AcDbEntity
  8
0
370
     0
390
0
100
AcDbVertex
100
AcDb2dVertex
 10
194.43457
 20
162.78186
 30
0.0
  0
VERTEX
  5
335
100
AcDbEntity
  8
0
370
     0
390
0
100
AcDbVertex
100
AcDb2dVertex
 10
188.70462
 20
163.530075
 30
0.0
  0
VERTEX
  5
336
100
AcDbEntity
  8
0
370
     0
390
0
100
AcDbVertex
100
AcDb2dVertex
 10
181.056366
 20
164.462128
 30
0.0
  0
VERTEX
  5
337
100
AcDbEntity
  8
0
370
     0
390
0
100
AcDbVertex
100
AcDb2dVertex
 10
173.398926
 20
165.315353
 30
0.0
  0
VERTEX
  5
338
100
AcDbEntity
  8
0
370
     0
390
0
100
AcDbVertex
100
AcDb2dVertex
 10
165.732361
 20
166.081955
 30
0.0
  0
SEQEND
  5
339
100
AcDbEntity
  8
0
370
     0
390
0
  0
LINE
  5
33A
100
AcDbEntity
  8
0
370
    35
390
0
 62
     7
 48
0.006549
100
AcDbLine
 10
355.612427
 20
128.731064
 30
0.0
 11
355.35553
 21
128.782227
 31
0.0
210
0.0
220
0.0
230
1.0
  0
ARC
  5
33B
100
AcDbEntity
  8
0
370
    35
390
0
 62
     7
100
AcDbCircle
 10
275.500244
 20
140.542404
 30
0.0
 40
1.906819
210
0.0
220
0.0
230
1.0
100
AcDbArc
 50
185.735797
 51
212.229855
  0
ARC
  5
33C
100
AcDbEntity
  8
0
370
    35
390
0
 62
     7
100
AcDbCircle
 10
275.320831
 20
140.437958
 30
0.0
 40
1.699311
210
0.0
220
0.0
230
1.0
100
AcDbArc
 50
212.476793
 51
265.599757
  0
LINE
  5
33D
100
AcDbEntity
  8
0
370
    35
390
0
 62
     7
 48
0.007761
100
AcDbLine
 10
275.500183
 20
138.722534
 30
0.0
 11
275.19046
 21
138.743561
 31
0.0
210
0.0
220
0.0
230
1.0
  0
POLYLINE
  5
33E
100
AcDbEntity
  8
0
370
    35
390
0
 62
     7
100
AcDb2dPolyline
 66
     1
 10
0.0
 20
0.0
 30
0.0
 71
     3
  0
VERTEX
  5
33F
100
AcDbEntity
  8
0
370
     0
390
0
100
AcDbVertex
100
AcDb2dVertex
 10
305.175232
 20
136.896332
 30
0.0
  0
VERTEX
  5
340
100
AcDbEntity
  8
0
370
     0
390
0
100
AcDbVertex
100
AcDb2dVertex
 10
290.722931
 20
137.814026
 30
0.0
  0
VERTEX
  5
341
100
AcDbEntity
  8
0
370
     0
390
0
100
AcDbVertex
100
AcDb2dVertex
 10
275.500183
 20
138.722534
 30
0.0
  0
SEQEND
  5
342
100
AcDbEntity
  8
0
370
     0
390
0
  0
ARC
  5
343
100
AcDbEntity
  8
0
370
    35
390
0
 62
     7
100
AcDbCircle
 10
259.312286
 20
145.778534
 30
0.0
 40
1.65678
210
0.0
220
0.0
230
1.0
100
AcDbArc
 50
169.969367
 51
200.200662
  0
ARC
  5
344
100
AcDbEntity
  8
0
370
    35
390
0
 62
     7
100
AcDbCircle
 10
259.626678
 20
145.901199
 30
0.0
 40
1.994369
210
0.0
220
0.0
230
1.0
100
AcDbArc
 50
200.388752
 51
229.957611
  0
LINE
  5
345
100
AcDbEntity
  8
0
370
    35
390
0
 62
     7
 48
0.099914
100
AcDbLine
 10
258.343597
 20
144.374359
 30
0.0
 11
261.405121
 21
141.80542
 31
0.0
210
0.0
220
0.0
230
1.0
  0
ARC
  5
346
100
AcDbEntity
  8
0
370
    35
390
0
 62
     7
100
AcDbCircle
 10
262.675232
 20
143.312012
 30
0.0
 40
1.970284
210
0.0
220
0.0
230
1.0
100
AcDbArc
 50
229.86819
 51
268.732738
  0
ARC
  5
347
100
AcDbEntity
  8
0
370
    35
390
0
 62
     7
100
AcDbCircle
 10
262.660126
 20
143.002411
 30
0.0
 40
1.660367
210
0.0
220
0.0
230
1.0
100
AcDbArc
 50
269.016894
 51
343.653667
  0
ARC
  5
348
100
AcDbEntity
  8
0
370
    35
390
0
 62
     7
100
AcDbCircle
 10
262.34198
 20
143.095566
 30
0.0
 40
1.991966
210
0.0
220
0.0
230
1.0
100
AcDbArc
 50
343.658359
 51
354.162409
  0
ARC
  5
349
100
AcDbEntity
  8
0
370
    35
390
0
 62
     7
100
AcDbCircle
 10
238.715454
 20
142.980408
 30
0.0
 40
2.221987
210
0.0
220
0.0
230
1.0
100
AcDbArc
 50
147.580212
 51
266.867242
  0
LINE
  5
34A
100
AcDbEntity
  8
0
370
    35
390
0
 62
     7
 48
0.339553
100
AcDbLine
 10
252.155701
 20
140.016846
 30
0.0
 11
238.594025
 21
140.761734
 31
0.0
210
0.0
220
0.0
230
1.0
  0
ARC
  5
34B
100
AcDbEntity
  8
0
370
    35
390
0
 62
     7
100
AcDbCircle
 10
252.27829
 20
142.235962
 30
0.0
 40
2.222498
210
0.0
220
0.0
230
1.0
100
AcDbArc
 50
266.838303
 51
344.785217
  0
ARC
  5
34C
100
AcDbEntity
  8
0
370
    35
390
0
 62
     7
100
AcDbCircle
 10
214.508881
 20
153.408157
 30
0.0
 40
2.217295
210
0.0
220
0.0
230
1.0
100
AcDbArc
 50
123.769735
 51
215.681463
  0
ARC
  5
34D
100
AcDbEntity
  8
0
370
    35
390
0
 62
     7
100
AcDbCircle
 10
214.692657
 20
153.542542
 30
0.0
 40
2.444432
210
0.0
220
0.0
230
1.0
100
AcDbArc
 50
215.727417
 51
229.99534
  0
LINE
  5
34E
100
AcDbEntity
  8
0
370
    35
390
0
 62
     7
 48
0.302987
100
AcDbLine
 10
213.121246
 20
151.67012
 30
0.0
 11
222.405304
 21
143.879868
 31
0.0
210
0.0
220
0.0
230
1.0
  0
ARC
  5
34F
100
AcDbEntity
  8
0
370
    35
390
0
 62
     7
100
AcDbCircle
 10
253.796326
 20
181.291046
 30
0.0
 40
48.83637
210
0.0
220
0.0
230
1.0
100
AcDbArc
 50
230.000627
 51
230.766906
  0
ARC
  5
350
100
AcDbEntity
  8
0
370
    35
390
0
 62
     7
100
AcDbCircle
 10
225.715729
 20
146.900986
 30
0.0
 40
4.438157
210
0.0
220
0.0
230
1.0
100
AcDbArc
 50
230.763505
 51
292.61668
  0
ARC
  5
351
100
AcDbEntity
  8
0
370
    35
390
0
 62
     7
100
AcDbCircle
 10
225.542572
 20
147.314072
 30
0.0
 40
4.886079
210
0.0
220
0.0
230
1.0
100
AcDbArc
 50
292.628134
 51
300.45967
  0
LINE
  5
352
100
AcDbEntity
  8
0
370
    35
390
0
 62
     7
 48
0.23999
100
AcDbLine
 10
236.294128
 20
147.968781
 30
0.0
 11
228.01947
 21
143.102341
 31
0.0
210
0.0
220
0.0
230
1.0
  0
ARC
  5
353
100
AcDbEntity
  8
0
370
    35
390
0
 62
     7
100
AcDbCircle
 10
235.16861
 20
149.885315
 30
0.0
 40
2.222573
210
0.0
220
0.0
230
1.0
100
AcDbArc
 50
300.424522
 51
323.946645
  0
ARC
  5
354
100
AcDbEntity
  8
0
370
    35
390
0
 62
     7
100
AcDbCircle
 10
200.279999
 20
152.317322
 30
0.0
 40
4.445042
210
0.0
220
0.0
230
1.0
100
AcDbArc
 50
116.369348
 51
120.464333
  0
LINE
  5
355
100
AcDbEntity
  8
0
370
    35
390
0
 62
     7
 48
0.405216
100
AcDbLine
 10
184.055267
 20
147.931152
 30
0.0
 11
198.026367
 21
156.148697
 31
0.0
210
0.0
220
0.0
230
1.0
  0
ARC
  5
356
100
AcDbEntity
  8
0
370
    35
390
0
 62
     7
100
AcDbCircle
 10
185.298889
 20
145.817978
 30
0.0
 40
2.451947
210
0.0
220
0.0
230
1.0
100
AcDbArc
 50
120.47701
 51
138.070471
  0
ARC
  5
357
100
AcDbEntity
  8
0
370
    35
390
0
 62
     7
100
AcDbCircle
 10
185.126892
 20
145.976654
 30
0.0
 40
2.218528
210
0.0
220
0.0
230
1.0
100
AcDbArc
 50
138.151108
 51
265.641203
  0
LINE
  5
358
100
AcDbEntity
  8
0
370
    35
390
0
 62
     7
 48
0.009743
100
AcDbLine
 10
184.958282
 20
143.764725
 30
0.0
 11
185.347107
 21
143.738235
 31
0.0
210
0.0
220
0.0
230
1.0
  0
ARC
  5
359
100
AcDbEntity
  8
0
370
    35
390
0
 62
     7
100
AcDbCircle
 10
580.405151
 20
6773.283691
 30
0.0
 40
6641.305984
210
0.0
220
0.0
230
1.0
100
AcDbArc
 50
266.589746
 51
266.829178
  0
ARC
  5
35A
100
AcDbEntity
  8
0
370
    35
390
0
 62
     7
100
AcDbCircle
 10
213.190399
 20
144.59108
 30
0.0
 40
2.450624
210
0.0
220
0.0
230
1.0
100
AcDbArc
 50
266.81338
 51
276.893216
  0
ARC
  5
35B
100
AcDbEntity
  8
0
370
    35
390
0
 62
     7
100
AcDbCircle
 10
213.220734
 20
144.358505
 30
0.0
 40
2.216024
210
0.0
220
0.0
230
1.0
100
AcDbArc
 50
276.836709
 51
310.514135
  0
ARC
  5
35C
100
AcDbEntity
  8
0
370
    35
390
0
 62
     7
100
AcDbCircle
 10
156.245087
 20
160.533325
 30
0.0
 40
2.214719
210
0.0
220
0.0
230
1.0
100
AcDbArc
 50
105.871286
 51
210.621495
  0
ARC
  5
35D
100
AcDbEntity
  8
0
370
    35
390
0
 62
     7
100
AcDbCircle
 10
156.447205
 20
160.658401
 30
0.0
 40
2.45177
210
0.0
220
0.0
230
1.0
100
AcDbArc
 50
210.731038
 51
229.988702
  0
LINE
  5
35E
100
AcDbEntity
  8
0
370
    35
390
0
 62
     7
 48
0.456075
100
AcDbLine
 10
154.87088
 20
158.780548
 30
0.0
 11
168.845825
 21
147.054153
 31
0.0
210
0.0
220
0.0
230
1.0
  0
ARC
  5
35F
100
AcDbEntity
  8
0
370
    35
390
0
 62
     7
100
AcDbCircle
 10
199.262848
 20
183.305405
 30
0.0
 40
47.321749
210
0.0
220
0.0
230
1.0
100
AcDbArc
 50
230.001296
 51
230.98483
  0
ARC
  5
360
100
AcDbEntity
  8
0
370
    35
390
0
 62
     7
100
AcDbCircle
 10
172.264313
 20
149.982193
 30
0.0
 40
4.433949
210
0.0
220
0.0
230
1.0
100
AcDbArc
 50
230.978027
 51
289.626942
  0
ARC
  5
361
100
AcDbEntity
  8
0
370
    35
390
0
 62
     7
100
AcDbCircle
 10
172.113251
 20
150.403015
 30
0.0
 40
4.881043
210
0.0
220
0.0
230
1.0
100
AcDbArc
 50
289.638
 51
293.098843
  0
ARC
  5
362
100
AcDbEntity
  8
0
370
    35
390
0
 62
     7
100
AcDbCircle
 10
143.567139
 20
158.140259
 30
0.0
 40
4.440423
210
0.0
220
0.0
230
1.0
100
AcDbArc
 50
102.854507
 51
120.470945
  0
LINE
  5
363
100
AcDbEntity
  8
0
370
    35
390
0
 62
     7
 48
0.484496
100
AcDbLine
 10
124.611427
 20
152.141113
 30
0.0
 11
141.315399
 21
161.967392
 31
0.0
210
0.0
220
0.0
230
1.0
  0
ARC
  5
364
100
AcDbEntity
  8
0
370
    35
390
0
 62
     7
100
AcDbCircle
 10
125.858307
 20
150.023453
 30
0.0
 40
2.457473
210
0.0
220
0.0
230
1.0
100
AcDbArc
 50
120.489523
 51
141.899038
  0
ARC
  5
365
100
AcDbEntity
  8
0
370
    35
390
0
 62
     7
100
AcDbCircle
 10
125.670296
 20
150.176666
 30
0.0
 40
2.215531
210
0.0
220
0.0
230
1.0
100
AcDbArc
 50
142.016681
 51
263.702317
  0
ARC
  5
366
100
AcDbEntity
  8
0
370
    35
390
0
 62
     7
100
AcDbCircle
 10
127.953011
 20
170.771912
 30
0.0
 40
22.936873
210
0.0
220
0.0
230
1.0
100
AcDbArc
 50
263.67794
 51
264.931137
  0
POLYLINE
  5
367
100
AcDbEntity
  8
0
370
    35
390
0
 62
     7
100
AcDb2dPolyline
 66
     1
 10
0.0
 20
0.0
 30
0.0
 71
     5
  0
VERTEX
  5
368
100
AcDbEntity
  8
0
370
     0
390
0
100
AcDbVertex
100
AcDb2dVertex
 10
125.926468
 20
147.924744
 30
0.0
  0
VERTEX
  5
369
100
AcDbEntity
  8
0
370
     0
390
0
100
AcDbVertex
100
AcDb2dVertex
 10
132.663849
 20
147.348068
 30
0.0
  0
VERTEX
  5
36A
100
AcDbEntity
  8
0
370
     0
390
0
100
AcDbVertex
100
AcDb2dVertex
 10
139.404541
 20
146.807449
 30
0.0
  0
VERTEX
  5
36B
100
AcDbEntity
  8
0
370
     0
390
0
100
AcDbVertex
100
AcDb2dVertex
 10
149.405762
 20
146.059143
 30
0.0
  0
VERTEX
  5
36C
100
AcDbEntity
  8
0
370
     0
390
0
100
AcDbVertex
100
AcDb2dVertex
 10
159.414856
 20
145.361404
 30
0.0
  0
SEQEND
  5
36D
100
AcDbEntity
  8
0
370
     0
390
0
  0
ARC
  5
36E
100
AcDbEntity
  8
0
370
    35
390
0
 62
     7
100
AcDbCircle
 10
159.5802
 20
147.811523
 30
0.0
 40
2.455701
210
0.0
220
0.0
230
1.0
100
AcDbArc
 50
266.139575
 51
277.467006
  0
ARC
  5
36F
100
AcDbEntity
  8
0
370
    35
390
0
 62
     7
100
AcDbCircle
 10
159.609467
 20
147.587921
 30
0.0
 40
2.230188
210
0.0
220
0.0
230
1.0
100
AcDbArc
 50
277.467867
 51
288.016882
  0
ARC
  5
370
100
AcDbEntity
  8
0
370
    35
390
0
 62
     7
100
AcDbCircle
 10
115.246704
 20
161.886688
 30
0.0
 40
2.220896
210
0.0
220
0.0
230
1.0
100
AcDbArc
 50
102.740149
 51
180.000473
  0
LINE
  5
371
100
AcDbEntity
  8
0
370
    35
390
0
 62
     7
 48
0.219989
100
AcDbLine
 10
113.025818
 20
153.087112
 30
0.0
 11
113.025818
 21
161.886673
 31
0.0
210
0.0
220
0.0
230
1.0
  0
ARC
  5
372
100
AcDbEntity
  8
0
370
    35
390
0
 62
     7
100
AcDbCircle
 10
115.483467
 20
153.08725
 30
0.0
 40
2.457649
210
0.0
220
0.0
230
1.0
100
AcDbArc
 50
180.003014
 51
192.453083
  0
ARC
  5
373
100
AcDbEntity
  8
0
370
    35
390
0
 62
     7
100
AcDbCircle
 10
115.24987
 20
153.037323
 30
0.0
 40
2.219035
210
0.0
220
0.0
230
1.0
100
AcDbArc
 50
192.495266
 51
277.72111
  0
ARC
  5
374
100
AcDbEntity
  8
0
370
    35
390
0
 62
     7
100
AcDbCircle
 10
92.937233
 20
154.009705
 30
0.0
 40
2.426771
210
0.0
220
0.0
230
1.0
100
AcDbArc
 50
180.025103
 51
204.506236
  0
ARC
  5
375
100
AcDbEntity
  8
0
370
    35
390
0
 62
     7
100
AcDbCircle
 10
92.733429
 20
153.921051
 30
0.0
 40
2.204501
210
0.0
220
0.0
230
1.0
100
AcDbArc
 50
204.606762
 51
258.885374
  0
ARC
  5
376
100
AcDbEntity
  8
0
370
    35
390
0
 62
     7
100
AcDbCircle
 10
97.058533
 20
175.901474
 30
0.0
 40
24.606409
210
0.0
220
0.0
230
1.0
100
AcDbArc
 50
258.869637
 51
261.470853
  0
ARC
  5
377
100
AcDbEntity
  8
0
370
    35
390
0
 62
     7
100
AcDbCircle
 10
144.503143
 20
494.798889
 30
0.0
 40
347.014118
210
0.0
220
0.0
230
1.0
100
AcDbArc
 50
261.533029
 51
262.84241
  0
ARC
  5
378
100
AcDbEntity
  8
0
370
    35
390
0
 62
     7
100
AcDbCircle
 10
101.544724
 20
152.695068
 30
0.0
 40
2.22407
210
0.0
220
0.0
230
1.0
100
AcDbArc
 50
262.788342
 51
276.402221
  0
ARC
  5
379
100
AcDbEntity
  8
0
370
    35
390
0
 62
     7
100
AcDbCircle
 10
112.311546
 20
15.653656
 30
0.0
 40
148.138061
210
0.0
220
0.0
230
1.0
100
AcDbArc
 50
97.150924
 51
97.711211
  0
ARC
  5
37A
100
AcDbEntity
  8
0
370
    35
390
0
 62
     7
100
AcDbCircle
 10
92.732697
 20
160.249939
 30
0.0
 40
2.222281
210
0.0
220
0.0
230
1.0
100
AcDbArc
 50
97.715043
 51
179.99659
  0
LINE
  5
37B
100
AcDbEntity
  8
0
370
    35
390
0
 62
     7
 48
0.156036
100
AcDbLine
 10
90.510445
 20
160.250076
 30
0.0
 11
90.510445
 21
154.008636
 31
0.0
210
0.0
220
0.0
230
1.0
  0
POLYLINE
  5
37C
100
AcDbEntity
  8
0
370
    35
390
0
 62
     7
100
AcDb2dPolyline
 66
     1
 10
0.0
 20
0.0
 30
0.0
 71
     8
  0
VERTEX
  5
37D
100
AcDbEntity
  8
0
370
     0
390
0
100
AcDbVertex
100
AcDb2dVertex
 10
70.985352
 20
156.556229
 30
0.0
  0
VERTEX
  5
37E
100
AcDbEntity
  8
0
370
     0
390
0
100
AcDbVertex
100
AcDb2dVertex
 10
72.146141
 20
157.178864
 30
0.0
  0
VERTEX
  5
37F
100
AcDbEntity
  8
0
370
     0
390
0
100
AcDbVertex
100
AcDb2dVertex
 10
73.972481
 20
158.022095
 30
0.0
  0
VERTEX
  5
380
100
AcDbEntity
  8
0
370
     0
390
0
100
AcDbVertex
100
AcDb2dVertex
 10
75.546425
 20
158.639923
 30
0.0
  0
VERTEX
  5
381
100
AcDbEntity
  8
0
370
     0
390
0
100
AcDbVertex
100
AcDb2dVertex
 10
77.170715
 20
159.195953
 30
0.0
  0
VERTEX
  5
382
100
AcDbEntity
  8
0
370
     0
390
0
100
AcDbVertex
100
AcDb2dVertex
 10
78.506737
 20
159.606857
 30
0.0
  0
VERTEX
  5
383
100
AcDbEntity
  8
0
370
     0
390
0
100
AcDbVertex
100
AcDb2dVertex
 10
81.217728
 20
160.345184
 30
0.0
  0
VERTEX
  5
384
100
AcDbEntity
  8
0
370
     0
390
0
100
AcDbVertex
100
AcDb2dVertex
 10
83.963554
 20
160.987015
 30
0.0
  0
SEQEND
  5
385
100
AcDbEntity
  8
0
370
     0
390
0
  0
POLYLINE
  5
386
100
AcDbEntity
  8
0
370
    35
390
0
 62
     7
100
AcDb2dPolyline
 66
     1
 10
0.0
 20
0.0
 30
0.0
 71
     7
  0
VERTEX
  5
387
100
AcDbEntity
  8
0
370
     0
390
0
100
AcDbVertex
100
AcDb2dVertex
 10
70.985352
 20
156.556229
 30
0.0
  0
VERTEX
  5
388
100
AcDbEntity
  8
0
370
     0
390
0
100
AcDbVertex
100
AcDb2dVertex
 10
72.522194
 20
155.995834
 30
0.0
  0
VERTEX
  5
389
100
AcDbEntity
  8
0
370
     0
390
0
100
AcDbVertex
100
AcDb2dVertex
 10
74.765526
 20
155.299606
 30
0.0
  0
VERTEX
  5
38A
100
AcDbEntity
  8
0
370
     0
390
0
100
AcDbVertex
100
AcDb2dVertex
 10
76.410759
 20
154.846741
 30
0.0
  0
VERTEX
  5
38B
100
AcDbEntity
  8
0
370
     0
390
0
100
AcDbVertex
100
AcDb2dVertex
 10
78.05603
 20
154.429352
 30
0.0
  0
VERTEX
  5
38C
100
AcDbEntity
  8
0
370
     0
390
0
100
AcDbVertex
100
AcDb2dVertex
 10
81.344109
 20
153.682053
 30
0.0
  0
VERTEX
  5
38D
100
AcDbEntity
  8
0
370
     0
390
0
100
AcDbVertex
100
AcDb2dVertex
 10
84.029266
 20
153.141556
 30
0.0
  0
SEQEND
  5
38E
100
AcDbEntity
  8
0
370
     0
390
0
  0
ARC
  5
38F
100
AcDbEntity
  8
0
370
    35
390
0
 62
     7
100
AcDbCircle
 10
84.489326
 20
155.541153
 30
0.0
 40
2.443309
210
0.0
220
0.0
230
1.0
100
AcDbArc
 50
259.146841
 51
266.095083
  0
ARC
  5
390
100
AcDbEntity
  8
0
370
    35
390
0
 62
     7
100
AcDbCircle
 10
84.474457
 20
155.323685
 30
0.0
 40
2.225331
210
0.0
220
0.0
230
1.0
100
AcDbArc
 50
266.09567
 51
273.627026
  0
LINE
  5
391
100
AcDbEntity
  8
0
370
    13
390
0
 62
     7
 48
0.003193
100
AcDbLine
 10
258.318146
 20
144.249191
 30
0.0
 11
258.343597
 21
144.374359
 31
0.0
210
0.0
220
0.0
230
1.0
  0
LINE
  5
392
100
AcDbEntity
  8
0
370
    13
390
0
 62
     7
 48
0.003326
100
AcDbLine
 10
261.387695
 20
141.673538
 30
0.0
 11
261.405121
 21
141.80542
 31
0.0
210
0.0
220
0.0
230
1.0
  0
LINE
  5
393
100
AcDbEntity
  8
0
370
    13
390
0
 62
     7
 48
0.003133
100
AcDbLine
 10
257.731018
 20
145.083923
 30
0.0
 11
257.757416
 21
145.206436
 31
0.0
210
0.0
220
0.0
230
1.0
  0
LINE
  5
394
100
AcDbEntity
  8
0
370
    13
390
0
 62
     7
 48
0.003316
100
AcDbLine
 10
262.61795
 20
141.210541
 30
0.0
 11
262.631653
 21
141.342484
 31
0.0
210
0.0
220
0.0
230
1.0
  0
LINE
  5
395
100
AcDbEntity
  8
0
370
    13
390
0
 62
     7
 48
0.003197
100
AcDbLine
 10
264.244141
 20
142.407562
 30
0.0
 11
264.253448
 21
142.535095
 31
0.0
210
0.0
220
0.0
230
1.0
  0
LINE
  5
396
100
AcDbEntity
  8
0
370
    13
390
0
 62
     7
 48
0.004389
100
AcDbLine
 10
212.975983
 20
151.571518
 30
0.0
 11
213.121246
 21
151.67012
 31
0.0
210
0.0
220
0.0
230
1.0
  0
LINE
  5
397
100
AcDbEntity
  8
0
370
    13
390
0
 62
     7
 48
0.004235
100
AcDbLine
 10
222.286865
 20
143.758774
 30
0.0
 11
222.405304
 21
143.879868
 31
0.0
210
0.0
220
0.0
230
1.0
  0
LINE
  5
398
100
AcDbEntity
  8
0
370
    13
390
0
 62
     7
 48
0.004391
100
AcDbLine
 10
212.561951
 20
152.017975
 30
0.0
 11
212.708252
 21
152.115173
 31
0.0
210
0.0
220
0.0
230
1.0
  0
LINE
  5
399
100
AcDbEntity
  8
0
370
    13
390
0
 62
     7
 48
0.004234
100
AcDbLine
 10
222.791351
 20
143.341019
 30
0.0
 11
222.908447
 21
143.463394
 31
0.0
210
0.0
220
0.0
230
1.0
  0
LINE
  5
39A
100
AcDbEntity
  8
0
370
    13
390
0
 62
     7
 48
0.004091
100
AcDbLine
 10
227.318359
 20
142.677902
 30
0.0
 11
227.422485
 21
142.804123
 31
0.0
210
0.0
220
0.0
230
1.0
  0
LINE
  5
39B
100
AcDbEntity
  8
0
370
    13
390
0
 62
     7
 48
0.004048
100
AcDbLine
 10
227.917175
 20
142.976807
 30
0.0
 11
228.01947
 21
143.102341
 31
0.0
210
0.0
220
0.0
230
1.0
  0
LINE
  5
39C
100
AcDbEntity
  8
0
370
    13
390
0
 62
     7
 48
0.003421
100
AcDbLine
 10
236.2164
 20
147.856155
 30
0.0
 11
236.294128
 21
147.968781
 31
0.0
210
0.0
220
0.0
230
1.0
  0
LINE
  5
39D
100
AcDbEntity
  8
0
370
    13
390
0
 62
     7
 48
0.007709
100
AcDbLine
 10
154.039642
 20
159.334625
 30
0.0
 11
154.339752
 21
159.405548
 31
0.0
210
0.0
220
0.0
230
1.0
  0
LINE
  5
39E
100
AcDbEntity
  8
0
370
    13
390
0
 62
     7
 48
0.007691
100
AcDbLine
 10
154.572021
 20
158.707611
 30
0.0
 11
154.87088
 21
158.780548
 31
0.0
210
0.0
220
0.0
230
1.0
  0
LINE
  5
39F
100
AcDbEntity
  8
0
370
    13
390
0
 62
     7
 48
0.007001
100
AcDbLine
 10
168.586731
 20
146.947876
 30
0.0
 11
168.845825
 21
147.054153
 31
0.0
210
0.0
220
0.0
230
1.0
  0
LINE
  5
3A0
100
AcDbEntity
  8
0
370
    13
390
0
 62
     7
 48
0.006979
100
AcDbLine
 10
169.215118
 20
146.429489
 30
0.0
 11
169.472565
 21
146.537384
 31
0.0
210
0.0
220
0.0
230
1.0
  0
LINE
  5
3A1
100
AcDbEntity
  8
0
370
    13
390
0
 62
     7
 48
0.006747
100
AcDbLine
 10
173.50827
 20
145.693527
 30
0.0
 11
173.753662
 21
145.805878
 31
0.0
210
0.0
220
0.0
230
1.0
  0
LINE
  5
3A2
100
AcDbEntity
  8
0
370
    13
390
0
 62
     7
 48
0.010318
100
AcDbLine
 10
112.680237
 20
152.470047
 30
0.0
 11
113.083649
 21
152.557281
 31
0.0
210
0.0
220
0.0
230
1.0
  0
LINE
  5
3A3
100
AcDbEntity
  8
0
370
    13
390
0
 62
     7
 48
0.010318
100
AcDbLine
 10
112.622093
 20
153.001373
 30
0.0
 11
113.025818
 21
153.087112
 31
0.0
210
0.0
220
0.0
230
1.0
  0
LINE
  5
3A4
100
AcDbEntity
  8
0
370
    13
390
0
 62
     7
 48
0.010208
100
AcDbLine
 10
112.622093
 20
161.825684
 30
0.0
 11
113.025818
 21
161.886673
 31
0.0
210
0.0
220
0.0
230
1.0
  0
LINE
  5
3A5
100
AcDbEntity
  8
0
370
    13
390
0
 62
     7
 48
0.003755
100
AcDbLine
 10
114.480354
 20
164.0224
 30
0.0
 11
114.629181
 21
164.04274
 31
0.0
210
0.0
220
0.0
230
1.0
  0
LINE
  5
3A6
100
AcDbEntity
  8
0
370
    13
390
0
 62
     7
 48
0.01206
100
AcDbLine
 10
83.553925
 20
153.059448
 30
0.0
 11
84.029266
 21
153.141556
 31
0.0
210
0.0
220
0.0
230
1.0
  0
LINE
  5
3A7
100
AcDbEntity
  8
0
370
    13
390
0
 62
     7
 48
0.012039
100
AcDbLine
 10
83.848442
 20
153.021332
 30
0.0
 11
84.322937
 21
153.103516
 31
0.0
210
0.0
220
0.0
230
1.0
  0
LINE
  5
3A8
100
AcDbEntity
  8
0
370
    35
390
0
 62
     7
 48
0.012933
100
AcDbLine
 10
70.472855
 20
156.485733
 30
0.0
 11
70.985352
 21
156.556229
 31
0.0
210
0.0
220
0.0
230
1.0
  0
LINE
  5
3A9
100
AcDbEntity
  8
0
370
    13
390
0
 62
     7
 48
0.00998
100
AcDbLine
 10
83.529732
 20
160.937332
 30
0.0
 11
83.925934
 21
160.986237
 31
0.0
210
0.0
220
0.0
230
1.0
  0
LINE
  5
3AA
100
AcDbEntity
  8
0
370
    35
390
0
 62
     7
 48
0.00705
100
AcDbLine
 10
355.833221
 20
128.555664
 30
0.0
 11
355.612427
 21
128.731064
 31
0.0
210
0.0
220
0.0
230
1.0
  0
LINE
  5
3AB
100
AcDbEntity
  8
0
370
    35
390
0
 62
     7
 48
0.010377
100
AcDbLine
 10
107.896187
 20
167.970261
 30
0.0
 11
107.483574
 21
167.925171
 31
0.0
210
0.0
220
0.0
230
1.0
  0
LINE
  5
3AC
100
AcDbEntity
  8
0
370
    35
390
0
 62
     7
 48
0.010496
100
AcDbLine
 10
107.483574
 20
156.031128
 30
0.0
 11
107.896187
 21
156.108704
 31
0.0
210
0.0
220
0.0
230
1.0
  0
LINE
  5
3AD
100
AcDbEntity
  8
0
370
    35
390
0
 62
     7
 48
0.010377
100
AcDbLine
 10
108.896187
 20
168.018417
 30
0.0
 11
108.483574
 21
167.973221
 31
0.0
210
0.0
220
0.0
230
1.0
  0
LINE
  5
3AE
100
AcDbEntity
  8
0
370
    13
390
0
 62
     7
 48
0.011691
100
AcDbLine
 10
90.047089
 20
160.186951
 30
0.0
 11
90.510445
 21
160.250076
 31
0.0
210
0.0
220
0.0
230
1.0
  0
LINE
  5
3AF
100
AcDbEntity
  8
0
370
    13
390
0
 62
     7
 48
0.011763
100
AcDbLine
 10
90.047089
 20
153.926819
 30
0.0
 11
90.510445
 21
154.008636
 31
0.0
210
0.0
220
0.0
230
1.0
  0
LINE
  5
3B0
100
AcDbEntity
  8
0
370
    13
390
0
 62
     7
 48
0.011747
100
AcDbLine
 10
90.26696
 20
152.918381
 30
0.0
 11
90.729126
 21
153.003128
 31
0.0
210
0.0
220
0.0
230
1.0
  0
LINE
  5
3B1
100
AcDbEntity
  8
0
370
    13
390
0
 62
     7
 48
0.011522
100
AcDbLine
 10
91.976944
 20
162.395584
 30
0.0
 11
92.434364
 21
162.452087
 31
0.0
210
0.0
220
0.0
230
1.0
  0
LINE
  5
3B2
100
AcDbEntity
  8
0
370
    13
390
0
 62
     7
 48
0.011603
100
AcDbLine
 10
91.8526
 20
151.670807
 30
0.0
 11
92.308464
 21
151.757889
 31
0.0
210
0.0
220
0.0
230
1.0
  0
LINE
  5
3B3
100
AcDbEntity
  8
0
370
    13
390
0
 62
     7
 48
0.011518
100
AcDbLine
 10
92.956673
 20
151.480072
 30
0.0
 11
93.409096
 21
151.567215
 31
0.0
210
0.0
220
0.0
230
1.0
  0
LINE
  5
3B4
100
AcDbEntity
  8
0
370
    13
390
0
 62
     7
 48
0.01097
100
AcDbLine
 10
100.836296
 20
150.39743
 30
0.0
 11
101.265526
 21
150.488586
 31
0.0
210
0.0
220
0.0
230
1.0
  0
LINE
  5
3B5
100
AcDbEntity
  8
0
370
    13
390
0
 62
     7
 48
0.00841
100
AcDbLine
 10
140.984955
 20
161.904312
 30
0.0
 11
141.315399
 21
161.967392
 31
0.0
210
0.0
220
0.0
230
1.0
  0
LINE
  5
3B6
100
AcDbEntity
  8
0
370
    13
390
0
 62
     7
 48
0.007455
100
AcDbLine
 10
159.622559
 20
145.265579
 30
0.0
 11
159.899323
 21
145.376648
 31
0.0
210
0.0
220
0.0
230
1.0
  0
LINE
  5
3B7
100
AcDbEntity
  8
0
370
    13
390
0
 62
     7
 48
0.009735
100
AcDbLine
 10
124.232254
 20
152.052521
 30
0.0
 11
124.611427
 21
152.141113
 31
0.0
210
0.0
220
0.0
230
1.0
  0
LINE
  5
3B8
100
AcDbEntity
  8
0
370
    13
390
0
 62
     7
 48
0.007488
100
AcDbLine
 10
159.136719
 20
145.250214
 30
0.0
 11
159.414856
 21
145.361404
 31
0.0
210
0.0
220
0.0
230
1.0
  0
LINE
  5
3B9
100
AcDbEntity
  8
0
370
    13
390
0
 62
     7
 48
0.009788
100
AcDbLine
 10
123.543571
 20
151.44928
 30
0.0
 11
123.924484
 21
151.539825
 31
0.0
210
0.0
220
0.0
230
1.0
  0
LINE
  5
3BA
100
AcDbEntity
  8
0
370
    13
390
0
 62
     7
 48
0.00965
100
AcDbLine
 10
125.553711
 20
147.824478
 30
0.0
 11
125.926468
 21
147.924744
 31
0.0
210
0.0
220
0.0
230
1.0
  0
LINE
  5
3BB
100
AcDbEntity
  8
0
370
    13
390
0
 62
     7
 48
0.009684
100
AcDbLine
 10
125.053085
 20
147.874313
 30
0.0
 11
125.427269
 21
147.974518
 31
0.0
210
0.0
220
0.0
230
1.0
  0
LINE
  5
3BC
100
AcDbEntity
  8
0
370
    13
390
0
 62
     7
 48
0.005008
100
AcDbLine
 10
197.84494
 20
156.063782
 30
0.0
 11
198.026367
 21
156.148697
 31
0.0
210
0.0
220
0.0
230
1.0
  0
LINE
  5
3BD
100
AcDbEntity
  8
0
370
    13
390
0
 62
     7
 48
0.004639
100
AcDbLine
 10
213.348053
 20
142.032425
 30
0.0
 11
213.484528
 21
142.158173
 31
0.0
210
0.0
220
0.0
230
1.0
  0
LINE
  5
3BE
100
AcDbEntity
  8
0
370
    13
390
0
 62
     7
 48
0.006168
100
AcDbLine
 10
183.832703
 20
147.824646
 30
0.0
 11
184.055267
 21
147.931152
 31
0.0
210
0.0
220
0.0
230
1.0
  0
LINE
  5
3BF
100
AcDbEntity
  8
0
370
    13
390
0
 62
     7
 48
0.004664
100
AcDbLine
 10
212.916473
 20
142.018417
 30
0.0
 11
213.054199
 21
142.144241
 31
0.0
210
0.0
220
0.0
230
1.0
  0
LINE
  5
3C0
100
AcDbEntity
  8
0
370
    13
390
0
 62
     7
 48
0.006219
100
AcDbLine
 10
183.250641
 20
147.348389
 30
0.0
 11
183.474731
 21
147.456406
 31
0.0
210
0.0
220
0.0
230
1.0
  0
LINE
  5
3C1
100
AcDbEntity
  8
0
370
    13
390
0
 62
     7
 48
0.006174
100
AcDbLine
 10
185.13031
 20
143.619934
 30
0.0
 11
185.347107
 21
143.738235
 31
0.0
210
0.0
220
0.0
230
1.0
  0
LINE
  5
3C2
100
AcDbEntity
  8
0
370
    13
390
0
 62
     7
 48
0.006198
100
AcDbLine
 10
184.740387
 20
143.646469
 30
0.0
 11
184.958282
 21
143.764725
 31
0.0
210
0.0
220
0.0
230
1.0
  0
LINE
  5
3C3
100
AcDbEntity
  8
0
370
    13
390
0
 62
     7
 48
0.003531
100
AcDbLine
 10
252.117279
 20
139.880936
 30
0.0
 11
252.155701
 21
140.016846
 31
0.0
210
0.0
220
0.0
230
1.0
  0
LINE
  5
3C4
100
AcDbEntity
  8
0
370
    13
390
0
 62
     7
 48
0.003843
100
AcDbLine
 10
238.515747
 20
140.629425
 30
0.0
 11
238.594025
 21
140.761734
 31
0.0
210
0.0
220
0.0
230
1.0
  0
LINE
  5
3C5
100
AcDbEntity
  8
0
370
    13
390
0
 62
     7
 48
0.003517
100
AcDbLine
 10
273.897827
 20
139.385254
 30
0.0
 11
273.887329
 21
139.525528
 31
0.0
210
0.0
220
0.0
230
1.0
  0
LINE
  5
3C6
100
AcDbEntity
  8
0
370
    13
390
0
 62
     7
 48
0.003569
100
AcDbLine
 10
275.206055
 20
138.601639
 30
0.0
 11
275.19046
 21
138.743561
 31
0.0
210
0.0
220
0.0
230
1.0
  0
LINE
  5
3C7
100
AcDbEntity
  8
0
370
    13
390
0
 62
     7
 48
0.003573
100
AcDbLine
 10
275.516785
 20
138.580597
 30
0.0
 11
275.500183
 21
138.722534
 31
0.0
210
0.0
220
0.0
230
1.0
  0
LINE
  5
3C8
100
AcDbEntity
  8
0
370
    35
390
0
 62
     7
 48
0.011567
100
AcDbLine
 10
96.463264
 20
167.092575
 30
0.0
 11
96.923462
 21
167.140533
 31
0.0
210
0.0
220
0.0
230
1.0
  0
ENDSEC
  0
SECTION
  2
OBJECTS
  0
DICTIONARY
  5
19
100
AcDbDictionary
280
     0
281
     1
  3
ACAD_GROUP
350
1A
  3
ACAD_MLINESTYLE
350
1B
  3
ACAD_LAYOUT
350
1E
  3
ACAD_PLOTSETTINGS
350
22
  3
ACAD_PLOTSTYLENAME
350
1F
  3
ACAD_WIPEOUT_VARS
350
23
  0
DICTIONARY
  5
1A
102
{ACAD_REACTORS
330
19
102
}
100
AcDbDictionary
280
     0
281
     1
  0
DICTIONARY
  5
1B
102
{ACAD_REACTORS
330
19
102
}
100
AcDbDictionary
280
     0
281
     1
  3
Standard
350
1C
  0
MLINESTYLE
  5
1C
102
{ACAD_REACTORS
330
1B
102
}
100
AcDbMlineStyle
  2
Standard
 70
     0
  3

 62
     0
 51
90.0
 52
90.0
 71
     2
 49
0.5
 62
   256
  6
ByLayer
 49
-0.5
 62
   256
  6
ByLayer
  0
ACDBDICTIONARYWDFLT
  5
1F
102
{ACAD_REACTORS
330
19
102
}
100
AcDbDictionary
281
     1
  3
Normal
350
1D
100
AcDbDictionaryWithDefault
340
1D
  0
ACDBPLACEHOLDER
  5
1D
102
{ACAD_REACTORS
330
1F
102
}
  0
LAYOUT
  5
20
102
{ACAD_REACTORS
330
1E
102
}
100
AcDbPlotSettings
  1

  2

  4

  6

 40
0.0
 41
0.0
 42
0.0
 43
0.0
 44
0.0
 45
0.0
 46
0.0
 47
0.0
 48
0.0
 49
0.0
140
0.0
141
0.0
142
1.0
143
1.0
 70
  1024
 72
     0
 73
     0
 74
     0
  7

 75
     0
147
1.0
148
0.0
149
0.0
100
AcDbLayout
  1
Model
 70
     0
 71
     0
 10
0.0
 20
0.0
 11
0.0
 21
0.0
 12
0.0
 22
0.0
 32
0.0
 14
0.0
 24
0.0
 34
0.0
 15
0.0
 25
0.0
 35
0.0
146
0.0
 13
0.0
 23
0.0
 33
0.0
 16
0.0
 26
0.0
 36
0.0
 17
0.0
 27
0.0
 37
0.0
 76
     0
330
A
331
0
345
0
346
0
  0
LAYOUT
  5
21
102
{ACAD_REACTORS
330
1E
102
}
100
AcDbPlotSettings
  1

  2

  4

  6

 40
0.0
 41
0.0
 42
0.0
 43
0.0
 44
0.0
 45
0.0
 46
0.0
 47
0.0
 48
0.0
 49
0.0
140
0.0
141
0.0
142
1.0
143
1.0
 70
     0
 72
     0
 73
     0
 74
     0
  7

 75
     0
147
1.0
148
0.0
149
0.0
100
AcDbLayout
  1
Layout1
 70
     0
 71
     0
 10
0.0
 20
0.0
 11
0.0
 21
0.0
 12
0.0
 22
0.0
 32
0.0
 14
0.0
 24
0.0
 34
0.0
 15
0.0
 25
0.0
 35
0.0
146
0.0
 13
0.0
 23
0.0
 33
0.0
 16
0.0
 26
0.0
 36
0.0
 17
0.0
 27
0.0
 37
0.0
 76
     0
330
B
331
0
345
0
346
0
  0
DICTIONARY
  5
1E
102
{ACAD_REACTORS
330
19
102
}
100
AcDbDictionary
280
     0
281
     1
  3
Layout1
350
21
  3
Model
350
20
  0
DICTIONARY
  5
22
102
{ACAD_REACTORS
330
19
102
}
100
AcDbDictionary
280
     0
281
     1
  0
WIPEOUTVARIABLES
  5
23
100
AcDbWipeoutVariables
 70
     1
  0
ENDSEC
  0
EOF
