  0
SECTION
  2
HEADER
  9
$ACADVER
  1
AC1015
  9
$ACADMAINTVER
 70
     6
  9
$DWGCODEPAGE
  3
ANSI_1252
  9
$INSBASE
 10
0.0
 20
0.0
 30
0.0
  9
$EXTMIN
 10
0.0
 20
0.0
 30
0.0
  9
$EXTMAX
 10
330.988098
 20
164.045013
 30
2.0
  9
$LIMMIN
 10
0.0
 20
0.0
  9
$LIMMAX
 10
420.0
 20
297.0
  9
$ORTHOMODE
 70
     0
  9
$REGENMODE
 70
     1
  9
$FILLMODE
 70
     1
  9
$QTEXTMODE
 70
     0
  9
$MIRRTEXT
 70
     1
  9
$LTSCALE
 40
1.0
  9
$ATTMODE
 70
     1
  9
$TEXTSIZE
 40
2.5
  9
$TRACEWID
 40
1.0
  9
$TEXTSTYLE
  7
Standard
  9
$CLAYER
  8
0
  9
$CELTYPE
  6
ByLayer
  9
$CECOLOR
 62
   256
  9
$CELTSCALE
 40
1.0
  9
$DISPSILH
 70
     0
  9
$DIMSCALE
 40
1.0
  9
$DIMASZ
 40
2.5
  9
$DIMEXO
 40
0.625
  9
$DIMDLI
 40
3.75
  9
$DIMRND
 40
0.0
  9
$DIMDLE
 40
0.0
  9
$DIMEXE
 40
1.25
  9
$DIMTP
 40
0.0
  9
$DIMTM
 40
0.0
  9
$DIMTXT
 40
2.5
  9
$DIMCEN
 40
2.5
  9
$DIMTSZ
 40
0.0
  9
$DIMTOL
 70
     0
  9
$DIMLIM
 70
     0
  9
$DIMTIH
 70
     0
  9
$DIMTOH
 70
     0
  9
$DIMSE1
 70
     0
  9
$DIMSE2
 70
     0
  9
$DIMTAD
 70
     1
  9
$DIMZIN
 70
     8
  9
$DIMBLK
  1

  9
$DIMASO
 70
     1
  9
$DIMSHO
 70
     1
  9
$DIMPOST
  1

  9
$DIMAPOST
  1

  9
$DIMALT
 70
     0
  9
$DIMALTD
 70
     3
  9
$DIMALTF
 40
0.03937
  9
$DIMLFAC
 40
1.0
  9
$DIMTOFL
 70
     1
  9
$DIMTVP
 40
0.0
  9
$DIMTIX
 70
     0
  9
$DIMSOXD
 70
     0
  9
$DIMSAH
 70
     0
  9
$DIMBLK1
  1

  9
$DIMBLK2
  1

  9
$DIMSTYLE
  2

  9
$DIMCLRD
 70
     0
  9
$DIMCLRE
 70
     0
  9
$DIMCLRT
 70
     0
  9
$DIMTFAC
 40
1.0
  9
$DIMGAP
 40
0.625
  9
$DIMJUST
 70
     0
  9
$DIMSD1
 70
     0
  9
$DIMSD2
 70
     0
  9
$DIMTOLJ
 70
     0
  9
$DIMTZIN
 70
     8
  9
$DIMALTZ
 70
     0
  9
$DIMALTTZ
 70
     0
  9
$DIMUPT
 70
     0
  9
$DIMDEC
 70
     2
  9
$DIMTDEC
 70
     2
  9
$DIMALTU
 70
     2
  9
$DIMALTTD
 70
     3
  9
$DIMTXSTY
  7
Standard
  9
$DIMAUNIT
 70
     0
  9
$DIMADEC
 70
     0
  9
$DIMALTRND
 40
0.0
  9
$DIMAZIN
 70
     0
  9
$DIMDSEP
 70
    44
  9
$DIMATFIT
 70
     0
  9
$DIMFRAC
 70
     0
  9
$DIMLDRBLK
  1

  9
$DIMLUNIT
 70
     2
  9
$DIMLWD
 70
    -2
  9
$DIMLWE
 70
    -2
  9
$DIMTMOVE
 70
     0
  9
$LUNITS
 70
     2
  9
$LUPREC
 70
     4
  9
$SKETCHINC
 40
1.0
  9
$FILLETRAD
 40
2.5
  9
$AUNITS
 70
     0
  9
$AUPREC
 70
     0
  9
$MENU
  1
.
  9
$ELEVATION
 40
0.0
  9
$PELEVATION
 40
0.0
  9
$THICKNESS
 40
0.0
  9
$LIMCHECK
 70
     0
  9
$CHAMFERA
 40
2.5
  9
$CHAMFERB
 40
2.5
  9
$CHAMFERC
 40
0.0
  9
$CHAMFERD
 40
0.0
  9
$SKPOLY
 70
     0
  9
$TDCREATE
 40
0.000000000
  9
$TDUCREATE
 40
0.000000000
  9
$TDUPDATE
 40
0.000000000
  9
$TDUUPDATE
 40
0.000000000
  9
$TDINDWG
 40
0.0000000000
  9
$TDUSRTIMER
 40
0.0000000000
  9
$USRTIMER
 70
     1
  9
$ANGBASE
 50
0.0
  9
$ANGDIR
 70
     0
  9
$PDMODE
 70
     0
  9
$PDSIZE
 40
0.0
  9
$PLINEWID
 40
0.0
  9
$SPLFRAME
 70
     0
  9
$SPLINETYPE
 70
     6
  9
$SPLINESEGS
 70
     8
  9
$HANDSEED
  5
393
  9
$SURFTAB1
 70
     6
  9
$SURFTAB2
 70
     6
  9
$SURFTYPE
 70
     6
  9
$SURFU
 70
     6
  9
$SURFV
 70
     6
  9
$UCSBASE
  2

  9
$UCSNAME
  2

  9
$UCSORG
 10
0.0
 20
0.0
 30
0.0
  9
$UCSXDIR
 10
1.0
 20
0.0
 30
0.0
  9
$UCSYDIR
 10
0.0
 20
1.0
 30
0.0
  9
$UCSORTHOREF
  2

  9
$UCSORTHOVIEW
 70
     1
  9
$UCSORGTOP
 10
0.0
 20
0.0
 30
0.0
  9
$UCSORGBOTTOM
 10
0.0
 20
0.0
 30
0.0
  9
$UCSORGLEFT
 10
0.0
 20
0.0
 30
0.0
  9
$UCSORGRIGHT
 10
0.0
 20
0.0
 30
0.0
  9
$UCSORGFRONT
 10
0.0
 20
0.0
 30
0.0
  9
$UCSORGBACK
 10
0.0
 20
0.0
 30
0.0
  9
$PUCSBASE
  2

  9
$PUCSNAME
  2

  9
$PUCSORG
 10
0.0
 20
0.0
 30
0.0
  9
$PUCSXDIR
 10
1.0
 20
0.0
 30
0.0
  9
$PUCSYDIR
 10
0.0
 20
1.0
 30
0.0
  9
$PUCSORTHOREF
  2

  9
$PUCSORTHOVIEW
 70
     0
  9
$PUCSORGTOP
 10
0.0
 20
0.0
 30
0.0
  9
$PUCSORGBOTTOM
 10
0.0
 20
0.0
 30
0.0
  9
$PUCSORGLEFT
 10
0.0
 20
0.0
 30
0.0
  9
$PUCSORGRIGHT
 10
0.0
 20
0.0
 30
0.0
  9
$PUCSORGFRONT
 10
0.0
 20
0.0
 30
0.0
  9
$PUCSORGBACK
 10
0.0
 20
0.0
 30
0.0
  9
$USERI1
 70
     0
  9
$USERI2
 70
     0
  9
$USERI3
 70
     0
  9
$USERI4
 70
     0
  9
$USERI5
 70
     0
  9
$USERR1
 40
0.0
  9
$USERR2
 40
0.0
  9
$USERR3
 40
0.0
  9
$USERR4
 40
0.0
  9
$USERR5
 40
0.0
  9
$WORLDVIEW
 70
     1
  9
$SHADEDGE
 70
     3
  9
$SHADEDIF
 70
    70
  9
$TILEMODE
 70
     1
  9
$MAXACTVP
 70
    48
  9
$PINSBASE
 10
0.0
 20
0.0
 30
0.0
  9
$PLIMCHECK
 70
     0
  9
$PEXTMIN
 10
0.0
 20
0.0
 30
0.0
  9
$PEXTMAX
 10
330.988098
 20
164.045013
 30
2.0
  9
$PLIMMIN
 10
0.0
 20
0.0
  9
$PLIMMAX
 10
420.0
 20
297.0
  9
$UNITMODE
 70
     0
  9
$VISRETAIN
 70
     0
  9
$PLINEGEN
 70
     0
  9
$PSLTSCALE
 70
     1
  9
$TREEDEPTH
 70
  3020
  9
$CMLSTYLE
  2
Standard
  9
$CMLJUST
 70
     0
  9
$CMLSCALE
 40
20.0
  9
$PROXYGRAPHICS
 70
     1
  9
$MEASUREMENT
 70
     1
  9
$CELWEIGHT
370
    -1
  9
$ENDCAPS
280
     0
  9
$JOINSTYLE
280
     0
  9
$LWDISPLAY
290
     0
  9
$INSUNITS
 70
     0
  9
$HYPERLINKBASE
  1

  9
$STYLESHEET
  1

  9
$XEDIT
290
     1
  9
$CEPSNTYPE
380
     0
  9
$PSTYLEMODE
290
     0
  9
$FINGERPRINTGUID
  2

  9
$VERSIONGUID
  2

  9
$EXTNAMES
290
     0
  9
$PSVPSCALE
 40
0.0
  0
ENDSEC
  0
SECTION
  2
CLASSES
  0
CLASS
  1
LWPOLYLINE
  2
AcDbPolyline
  3
AutoCAD 2000
 90
        0
280
     0
281
     1
  0
CLASS
  1
IMAGE
  2
AcDbRasterImage
  3
ISM
 90
      127
280
     0
281
     1
  0
CLASS
  1
OLE2FRAME
  2
AcDbOle2Frame
  3
AutoCAD 2000
 90
        0
280
     0
281
     1
  0
CLASS
  1
HATCH
  2
AcDbHatch
  3
AutoCAD 2000
 90
        0
280
     0
281
     1
  0
CLASS
  1
DICTIONARYVAR
  2
AcDbDictionaryVar
  3
AutoCAD 2000
 90
        0
280
     0
281
     0
  0
CLASS
  1
RASTERVARIABLES
  2
AcDbRasterVariables
  3
ISM
 90
        0
280
     0
281
     0
  0
CLASS
  1
IMAGEDEF
  2
AcDbRasterImageDef
  3
ISM
 90
        0
280
     0
281
     0
  0
CLASS
  1
IMAGEDEF_REACTOR
  2
AcDbRasterImageDefReactor
  3
ISM
 90
        1
280
     0
281
     0
  0
CLASS
  1
IDBUFFER
  2
AcDbIdBuffer
  3
AutoCAD 2000
 90
        0
280
     0
281
     0
  0
CLASS
  1
SPATIAL_FILTER
  2
AcDbSpatialFilter
  3
AutoCAD 2000
 90
        0
280
     0
281
     0
  0
CLASS
  1
XRECORD
  2
AcDbXrecord
  3
AutoCAD 2000
 90
        0
280
     0
281
     0
  0
CLASS
  1
SORTENTSTABLE
  2
AcDbSortentsTable
  3
AutoCAD 2000
 90
        0
280
     0
281
     0
  0
CLASS
  1
LAYER_INDEX
  2
AcDbLayerIndex
  3
AutoCAD 2000
 90
        0
280
     0
281
     0
  0
CLASS
  1
SPATIAL_INDEX
  2
AcDbSpatialIndex
  3
AutoCAD 2000
 90
        0
280
     0
281
     0
  0
CLASS
  1
OBJECT_PTR
  2
CAseDLPNTableRecord
  3
"ASE-LPNTableRecord"
 90
        1
280
     0
281
     0
  0
CLASS
  1
LAYOUT
  2
AcDbLayout
  3
AutoCAD 2000
 90
        0
280
     0
281
     0
  0
CLASS
  1
PLOTSETTINGS
  2
AcDbPlotSettings
  3
AutoCAD 2000
 90
        0
280
     0
281
     0
  0
CLASS
  1
ACDBDICTIONARYWDFLT
  2
AcDbDictionaryWithDefault
  3
AutoCAD 2000
 90
        0
280
     0
281
     0
  0
CLASS
  1
ACDBPLACEHOLDER
  2
AcDbPlaceHolder
  3
AutoCAD 2000
 90
        0
280
     0
281
     0
  0
CLASS
  1
VBA_PROJECT
  2
AcDbVbaProject
  3
acadvba
 90
        0
280
     0
281
     0
  0
CLASS
  1
WIPEOUT
  2
AcDbWipeout
  3
WipeOut|AutoCAD Express Tool|expresstools@autodesk.com
 90
      127
280
     0
281
     1
  0
CLASS
  1
WIPEOUTVARIABLES
  2
AcDbWipeoutVariables
  3
WipeOut|AutoCAD Express Tool|expresstools@autodesk.com
 90
        0
280
     0
281
     0
  0
CLASS
  1
RTEXT
  2
RText
  3
RText|AutoCAD Express Tool|expresstools@autodesk.com
 90
        0
280
     0
281
     1
  0
CLASS
  1
ARCALIGNEDTEXT
  2
AcDbArcAlignedText
  3
ATEXT|AutoCAD Express Tool|expresstools@autodesk.com
 90
        0
280
     0
281
     1
  0
ENDSEC
  0
SECTION
  2
TABLES
  0
TABLE
  2
VPORT
  5
7
100
AcDbSymbolTable
 70
     1
  0
VPORT
  5
15
100
AcDbSymbolTableRecord
100
AcDbViewportTableRecord
  2
*ACTIVE
 70
     0
 10
0.0
 20
0.0
 11
1.0
 21
1.0
 12
6.591288
 22
4.579184
 13
0.0
 23
0.0
 14
1.0
 24
1.0
 15
0.0
 25
0.0
 16
0.0
 26
0.0
 36
1.0
 17
0.0
 27
0.0
 37
0.0
 40
9.158369
 41
0.688564
 42
50.0
 43
0.0
 44
0.0
 50
0.0
 51
0.0
 71
     0
 72
   100
 73
     1
 74
     1
 75
     0
 76
     0
 77
     0
 78
     0
281
     0
 65
     0
110
0.0
120
0.0
130
0.0
111
1.0
121
0.0
131
0.0
112
0.0
122
1.0
132
0.0
345
0
346
0
 79
     0
146
0.0
  0
ENDTAB
  0
TABLE
  2
LTYPE
  5
4
100
AcDbSymbolTable
 70
     3
  0
LTYPE
  5
11
100
AcDbSymbolTableRecord
100
AcDbLinetypeTableRecord
  2
ByBlock
 70
    64
  3

 72
    65
 73
     0
 40
0.0
  0
LTYPE
  5
12
100
AcDbSymbolTableRecord
100
AcDbLinetypeTableRecord
  2
ByLayer
 70
    64
  3

 72
    65
 73
     0
 40
0.0
  0
LTYPE
  5
13
100
AcDbSymbolTableRecord
100
AcDbLinetypeTableRecord
  2
Continuous
 70
    64
  3
Solid line
 72
    65
 73
     0
 40
0.0
  0
ENDTAB
  0
TABLE
  2
LAYER
  5
2
100
AcDbSymbolTable
 70
     1
  0
LAYER
  5
14
100
AcDbSymbolTableRecord
100
AcDbLayerTableRecord
  2
0
 70
     0
 62
     7
  6
Continuous
290
     1
370
    -3
390
1D
  0
ENDTAB
  0
TABLE
  2
STYLE
  5
3
100
AcDbSymbolTable
 70
     1
  0
STYLE
  5
17
100
AcDbSymbolTableRecord
100
AcDbTextStyleTableRecord
  2
Standard
 70
     0
 40
0.0
 41
1.0
 50
0.0
 71
     0
 42
0.0
  3
txt
  4

  0
ENDTAB
  0
TABLE
  2
VIEW
  5
5
100
AcDbSymbolTable
 70
     0
  0
ENDTAB
  0
TABLE
  2
UCS
  5
6
100
AcDbSymbolTable
 70
     0
  0
ENDTAB
  0
TABLE
  2
APPID
  5
8
100
AcDbSymbolTable
 70
     1
  0
APPID
  5
16
100
AcDbSymbolTableRecord
100
AcDbRegAppTableRecord
  2
ACAD
 70
     0
  0
ENDTAB
  0
TABLE
  2
DIMSTYLE
  5
9
100
AcDbSymbolTable
 70
     1
100
AcDbDimStyleTable
 71
     0
  0
DIMSTYLE
105
18
100
AcDbSymbolTableRecord
100
AcDbDimStyleTableRecord
  2
Standard
 70
     0
  3

  4

 40
1.0
 41
0.18
 42
0.0625
 43
0.38
 44
0.18
 45
0.0
 46
0.0
 47
0.0
 48
0.0
 71
     0
 72
     0
 73
     1
 74
     1
 75
     0
 76
     0
 77
     0
 78
     0
 79
     0
140
0.18
141
0.09
142
0.0
143
25.4
144
1.0
145
0.0
146
1.0
147
0.09
148
0.0
170
     0
171
     2
172
     0
173
     0
174
     0
175
     0
176
     0
177
     0
178
     0
179
     0
271
     4
272
     4
273
     2
274
     2
275
     0
276
     0
277
     2
278
    46
279
     0
280
     0
281
     0
282
     0
283
     1
284
     0
285
     0
286
     0
288
     0
289
     3
340
17
341
0
342
0
343
0
344
0
371
    -2
372
    -2
  0
ENDTAB
  0
TABLE
  2
BLOCK_RECORD
  5
1
100
AcDbSymbolTable
 70
     0
  0
BLOCK_RECORD
  5
A
100
AcDbSymbolTableRecord
100
AcDbBlockTableRecord
  2
*MODEL_SPACE
340
20
  0
BLOCK_RECORD
  5
B
100
AcDbSymbolTableRecord
100
AcDbBlockTableRecord
  2
*PAPER_SPACE
340
21
  0
ENDTAB
  0
ENDSEC
  0
SECTION
  2
BLOCKS
  0
BLOCK
  5
D
100
AcDbEntity
  8
0
390
0
100
AcDbBlockBegin
  2
*MODEL_SPACE
 70
     0
 10
0.0
 20
0.0
 30
0.0
  3
*MODEL_SPACE
  1

  0
ENDBLK
  5
E
100
AcDbEntity
  8
0
390
0
100
AcDbBlockEnd
  0
BLOCK
  5
F
100
AcDbEntity
 67
     1
  8
0
390
0
100
AcDbBlockBegin
  2
*PAPER_SPACE
 70
     0
 10
0.0
 20
0.0
 30
0.0
  3
*PAPER_SPACE
  1

  0
ENDBLK
  5
10
100
AcDbEntity
 67
     1
  8
0
390
0
100
AcDbBlockEnd
  0
ENDSEC
  0
SECTION
  2
ENTITIES
  0
VIEWPORT
  5
392
100
AcDbEntity
 67
     1
  8
0
370
     0
390
0
 62
     0
 48
0.0
100
AcDbViewport
 10
0.0
 20
0.0
 30
0.0
 40
1000.0
 41
1000.0
 68
     1
 69
     1
 12
0.0
 22
0.0
 13
0.0
 23
0.0
 14
1.0
 24
1.0
 15
1.0
 25
1.0
 16
0.0
 26
0.0
 36
1.0
 17
0.0
 27
0.0
 37
0.0
 42
50.0
 43
0.0
 44
0.0
 45
1000.0
 50
0.0
 51
0.0
 72
   100
 90
        0
340
0
  1

281
     0
 71
     0
 74
     1
110
0.0
120
0.0
130
0.0
111
1.0
121
0.0
131
0.0
112
0.0
122
1.0
132
0.0
345
0
346
0
 79
     0
146
0.0
  0
POLYLINE
  5
24
100
AcDbEntity
  8
0
370
    13
390
0
 62
     7
100
AcDb2dPolyline
 66
     1
 10
0.0
 20
0.0
 30
0.0
 70
     1
 71
    10
  0
VERTEX
  5
25
100
AcDbEntity
  8
0
370
     0
390
0
100
AcDbVertex
100
AcDb2dVertex
 10
199.052643
 20
-25.083328
 30
0.0
  0
VERTEX
  5
26
100
AcDbEntity
  8
0
370
     0
390
0
100
AcDbVertex
100
AcDb2dVertex
 10
199.521667
 20
-25.083328
 30
0.0
  0
VERTEX
  5
27
100
AcDbEntity
  8
0
370
     0
390
0
100
AcDbVertex
100
AcDb2dVertex
 10
199.521667
 20
-23.474539
 30
0.0
  0
VERTEX
  5
28
100
AcDbEntity
  8
0
370
     0
390
0
100
AcDbVertex
100
AcDb2dVertex
 10
200.994293
 20
-23.474539
 30
0.0
  0
VERTEX
  5
29
100
AcDbEntity
  8
0
370
     0
390
0
100
AcDbVertex
100
AcDb2dVertex
 10
200.994293
 20
-23.05595
 30
0.0
  0
VERTEX
  5
2A
100
AcDbEntity
  8
0
370
     0
390
0
100
AcDbVertex
100
AcDb2dVertex
 10
199.521667
 20
-23.05595
 30
0.0
  0
VERTEX
  5
2B
100
AcDbEntity
  8
0
370
     0
390
0
100
AcDbVertex
100
AcDb2dVertex
 10
199.521667
 20
-22.00696
 30
0.0
  0
VERTEX
  5
2C
100
AcDbEntity
  8
0
370
     0
390
0
100
AcDbVertex
100
AcDb2dVertex
 10
201.332184
 20
-22.00696
 30
0.0
  0
VERTEX
  5
2D
100
AcDbEntity
  8
0
370
     0
390
0
100
AcDbVertex
100
AcDb2dVertex
 10
201.332184
 20
-21.583328
 30
0.0
  0
VERTEX
  5
2E
100
AcDbEntity
  8
0
370
     0
390
0
100
AcDbVertex
100
AcDb2dVertex
 10
199.052643
 20
-21.583328
 30
0.0
  0
SEQEND
  5
2F
100
AcDbEntity
  8
0
370
     0
390
0
  0
POLYLINE
  5
30
100
AcDbEntity
  8
0
370
    13
390
0
 62
     7
100
AcDb2dPolyline
 66
     1
 10
0.0
 20
0.0
 30
0.0
 70
     1
 71
    22
  0
VERTEX
  5
31
100
AcDbEntity
  8
0
370
     0
390
0
100
AcDbVertex
100
AcDb2dVertex
 10
202.24501
 20
-25.083328
 30
0.0
  0
VERTEX
  5
32
100
AcDbEntity
  8
0
370
     0
390
0
100
AcDbVertex
100
AcDb2dVertex
 10
202.688812
 20
-25.083328
 30
0.0
  0
VERTEX
  5
33
100
AcDbEntity
  8
0
370
     0
390
0
100
AcDbVertex
100
AcDb2dVertex
 10
202.688812
 20
-23.535057
 30
0.0
  0
VERTEX
  5
34
100
AcDbEntity
  8
0
370
     0
390
0
100
AcDbVertex
100
AcDb2dVertex
 10
202.734207
 20
-23.161858
 30
0.0
  0
VERTEX
  5
35
100
AcDbEntity
  8
0
370
     0
390
0
100
AcDbVertex
100
AcDb2dVertex
 10
202.870377
 20
-22.894567
 30
0.0
  0
VERTEX
  5
36
100
AcDbEntity
  8
0
370
     0
390
0
100
AcDbVertex
100
AcDb2dVertex
 10
203.09227
 20
-22.733185
 30
0.0
  0
VERTEX
  5
37
100
AcDbEntity
  8
0
370
     0
390
0
100
AcDbVertex
100
AcDb2dVertex
 10
203.389816
 20
-22.677708
 30
0.0
  0
VERTEX
  5
38
100
AcDbEntity
  8
0
370
     0
390
0
100
AcDbVertex
100
AcDb2dVertex
 10
203.611725
 20
-22.713011
 30
0.0
  0
VERTEX
  5
39
100
AcDbEntity
  8
0
370
     0
390
0
100
AcDbVertex
100
AcDb2dVertex
 10
203.778152
 20
-22.813875
 30
0.0
  0
VERTEX
  5
3A
100
AcDbEntity
  8
0
370
     0
390
0
100
AcDbVertex
100
AcDb2dVertex
 10
203.879013
 20
-22.985346
 30
0.0
  0
VERTEX
  5
3B
100
AcDbEntity
  8
0
370
     0
390
0
100
AcDbVertex
100
AcDb2dVertex
 10
203.914322
 20
-23.217335
 30
0.0
  0
VERTEX
  5
3C
100
AcDbEntity
  8
0
370
     0
390
0
100
AcDbVertex
100
AcDb2dVertex
 10
204.363159
 20
-23.217335
 30
0.0
  0
VERTEX
  5
3D
100
AcDbEntity
  8
0
370
     0
390
0
100
AcDbVertex
100
AcDb2dVertex
 10
204.302643
 20
-22.808832
 30
0.0
  0
VERTEX
  5
3E
100
AcDbEntity
  8
0
370
     0
390
0
100
AcDbVertex
100
AcDb2dVertex
 10
204.136215
 20
-22.516325
 30
0.0
  0
VERTEX
  5
3F
100
AcDbEntity
  8
0
370
     0
390
0
100
AcDbVertex
100
AcDb2dVertex
 10
203.858841
 20
-22.339813
 30
0.0
  0
VERTEX
  5
40
100
AcDbEntity
  8
0
370
     0
390
0
100
AcDbVertex
100
AcDb2dVertex
 10
203.480606
 20
-22.279293
 30
0.0
  0
VERTEX
  5
41
100
AcDbEntity
  8
0
370
     0
390
0
100
AcDbVertex
100
AcDb2dVertex
 10
203.223389
 20
-22.319639
 30
0.0
  0
VERTEX
  5
42
100
AcDbEntity
  8
0
370
     0
390
0
100
AcDbVertex
100
AcDb2dVertex
 10
203.001495
 20
-22.420504
 30
0.0
  0
VERTEX
  5
43
100
AcDbEntity
  8
0
370
     0
390
0
100
AcDbVertex
100
AcDb2dVertex
 10
202.80481
 20
-22.591974
 30
0.0
  0
VERTEX
  5
44
100
AcDbEntity
  8
0
370
     0
390
0
100
AcDbVertex
100
AcDb2dVertex
 10
202.648468
 20
-22.823963
 30
0.0
  0
VERTEX
  5
45
100
AcDbEntity
  8
0
370
     0
390
0
100
AcDbVertex
100
AcDb2dVertex
 10
202.648468
 20
-22.375114
 30
0.0
  0
VERTEX
  5
46
100
AcDbEntity
  8
0
370
     0
390
0
100
AcDbVertex
100
AcDb2dVertex
 10
202.24501
 20
-22.375114
 30
0.0
  0
SEQEND
  5
47
100
AcDbEntity
  8
0
370
     0
390
0
  0
POLYLINE
  5
48
100
AcDbEntity
  8
0
370
    13
390
0
 62
     7
100
AcDb2dPolyline
 66
     1
 10
0.0
 20
0.0
 30
0.0
 70
     1
 71
    16
  0
VERTEX
  5
49
100
AcDbEntity
  8
0
370
     0
390
0
100
AcDbVertex
100
AcDb2dVertex
 10
204.98349
 20
-23.731743
 30
0.0
  0
VERTEX
  5
4A
100
AcDbEntity
  8
0
370
     0
390
0
100
AcDbVertex
100
AcDb2dVertex
 10
205.064178
 20
-24.347017
 30
0.0
  0
VERTEX
  5
4B
100
AcDbEntity
  8
0
370
     0
390
0
100
AcDbVertex
100
AcDb2dVertex
 10
205.296158
 20
-24.800907
 30
0.0
  0
VERTEX
  5
4C
100
AcDbEntity
  8
0
370
     0
390
0
100
AcDbVertex
100
AcDb2dVertex
 10
205.664322
 20
-25.083328
 30
0.0
  0
VERTEX
  5
4D
100
AcDbEntity
  8
0
370
     0
390
0
100
AcDbVertex
100
AcDb2dVertex
 10
206.158554
 20
-25.17915
 30
0.0
  0
VERTEX
  5
4E
100
AcDbEntity
  8
0
370
     0
390
0
100
AcDbVertex
100
AcDb2dVertex
 10
206.647751
 20
-25.083328
 30
0.0
  0
VERTEX
  5
4F
100
AcDbEntity
  8
0
370
     0
390
0
100
AcDbVertex
100
AcDb2dVertex
 10
207.0159
 20
-24.80595
 30
0.0
  0
VERTEX
  5
50
100
AcDbEntity
  8
0
370
     0
390
0
100
AcDbVertex
100
AcDb2dVertex
 10
207.247894
 20
-24.35206
 30
0.0
  0
VERTEX
  5
51
100
AcDbEntity
  8
0
370
     0
390
0
100
AcDbVertex
100
AcDb2dVertex
 10
207.333633
 20
-23.731743
 30
0.0
  0
VERTEX
  5
52
100
AcDbEntity
  8
0
370
     0
390
0
100
AcDbVertex
100
AcDb2dVertex
 10
207.247894
 20
-23.11647
 30
0.0
  0
VERTEX
  5
53
100
AcDbEntity
  8
0
370
     0
390
0
100
AcDbVertex
100
AcDb2dVertex
 10
207.0159
 20
-22.657536
 30
0.0
  0
VERTEX
  5
54
100
AcDbEntity
  8
0
370
     0
390
0
100
AcDbVertex
100
AcDb2dVertex
 10
206.647751
 20
-22.380157
 30
0.0
  0
VERTEX
  5
55
100
AcDbEntity
  8
0
370
     0
390
0
100
AcDbVertex
100
AcDb2dVertex
 10
206.158554
 20
-22.279293
 30
0.0
  0
VERTEX
  5
56
100
AcDbEntity
  8
0
370
     0
390
0
100
AcDbVertex
100
AcDb2dVertex
 10
205.664322
 20
-22.380157
 30
0.0
  0
VERTEX
  5
57
100
AcDbEntity
  8
0
370
     0
390
0
100
AcDbVertex
100
AcDb2dVertex
 10
205.296158
 20
-22.662579
 30
0.0
  0
VERTEX
  5
58
100
AcDbEntity
  8
0
370
     0
390
0
100
AcDbVertex
100
AcDb2dVertex
 10
205.064178
 20
-23.11647
 30
0.0
  0
SEQEND
  5
59
100
AcDbEntity
  8
0
370
     0
390
0
  0
POLYLINE
  5
5A
100
AcDbEntity
  8
0
370
    13
390
0
 62
     7
100
AcDb2dPolyline
 66
     1
 10
0.0
 20
0.0
 30
0.0
 70
     1
 71
    16
  0
VERTEX
  5
5B
100
AcDbEntity
  8
0
370
     0
390
0
100
AcDbVertex
100
AcDb2dVertex
 10
205.437378
 20
-23.7267
 30
0.0
  0
VERTEX
  5
5C
100
AcDbEntity
  8
0
370
     0
390
0
100
AcDbVertex
100
AcDb2dVertex
 10
205.482758
 20
-23.27281
 30
0.0
  0
VERTEX
  5
5D
100
AcDbEntity
  8
0
370
     0
390
0
100
AcDbVertex
100
AcDb2dVertex
 10
205.623978
 20
-22.945
 30
0.0
  0
VERTEX
  5
5E
100
AcDbEntity
  8
0
370
     0
390
0
100
AcDbVertex
100
AcDb2dVertex
 10
205.850922
 20
-22.743271
 30
0.0
  0
VERTEX
  5
5F
100
AcDbEntity
  8
0
370
     0
390
0
100
AcDbVertex
100
AcDb2dVertex
 10
206.158554
 20
-22.672665
 30
0.0
  0
VERTEX
  5
60
100
AcDbEntity
  8
0
370
     0
390
0
100
AcDbVertex
100
AcDb2dVertex
 10
206.461151
 20
-22.743271
 30
0.0
  0
VERTEX
  5
61
100
AcDbEntity
  8
0
370
     0
390
0
100
AcDbVertex
100
AcDb2dVertex
 10
206.688095
 20
-22.939957
 30
0.0
  0
VERTEX
  5
62
100
AcDbEntity
  8
0
370
     0
390
0
100
AcDbVertex
100
AcDb2dVertex
 10
206.8293
 20
-23.27281
 30
0.0
  0
VERTEX
  5
63
100
AcDbEntity
  8
0
370
     0
390
0
100
AcDbVertex
100
AcDb2dVertex
 10
206.87973
 20
-23.7267
 30
0.0
  0
VERTEX
  5
64
100
AcDbEntity
  8
0
370
     0
390
0
100
AcDbVertex
100
AcDb2dVertex
 10
206.8293
 20
-24.185635
 30
0.0
  0
VERTEX
  5
65
100
AcDbEntity
  8
0
370
     0
390
0
100
AcDbVertex
100
AcDb2dVertex
 10
206.688095
 20
-24.518486
 30
0.0
  0
VERTEX
  5
66
100
AcDbEntity
  8
0
370
     0
390
0
100
AcDbVertex
100
AcDb2dVertex
 10
206.461151
 20
-24.720217
 30
0.0
  0
VERTEX
  5
67
100
AcDbEntity
  8
0
370
     0
390
0
100
AcDbVertex
100
AcDb2dVertex
 10
206.158554
 20
-24.785778
 30
0.0
  0
VERTEX
  5
68
100
AcDbEntity
  8
0
370
     0
390
0
100
AcDbVertex
100
AcDb2dVertex
 10
205.850922
 20
-24.720217
 30
0.0
  0
VERTEX
  5
69
100
AcDbEntity
  8
0
370
     0
390
0
100
AcDbVertex
100
AcDb2dVertex
 10
205.623978
 20
-24.518486
 30
0.0
  0
VERTEX
  5
6A
100
AcDbEntity
  8
0
370
     0
390
0
100
AcDbVertex
100
AcDb2dVertex
 10
205.482758
 20
-24.185635
 30
0.0
  0
SEQEND
  5
6B
100
AcDbEntity
  8
0
370
     0
390
0
  0
POLYLINE
  5
6C
100
AcDbEntity
  8
0
370
    13
390
0
 62
     7
100
AcDb2dPolyline
 66
     1
 10
0.0
 20
0.0
 30
0.0
 70
     1
 71
    24
  0
VERTEX
  5
6D
100
AcDbEntity
  8
0
370
     0
390
0
100
AcDbVertex
100
AcDb2dVertex
 10
208.150635
 20
-25.083328
 30
0.0
  0
VERTEX
  5
6E
100
AcDbEntity
  8
0
370
     0
390
0
100
AcDbVertex
100
AcDb2dVertex
 10
208.594437
 20
-25.083328
 30
0.0
  0
VERTEX
  5
6F
100
AcDbEntity
  8
0
370
     0
390
0
100
AcDbVertex
100
AcDb2dVertex
 10
208.594437
 20
-23.519928
 30
0.0
  0
VERTEX
  5
70
100
AcDbEntity
  8
0
370
     0
390
0
100
AcDbVertex
100
AcDb2dVertex
 10
208.639816
 20
-23.161858
 30
0.0
  0
VERTEX
  5
71
100
AcDbEntity
  8
0
370
     0
390
0
100
AcDbVertex
100
AcDb2dVertex
 10
208.786072
 20
-22.899611
 30
0.0
  0
VERTEX
  5
72
100
AcDbEntity
  8
0
370
     0
390
0
100
AcDbVertex
100
AcDb2dVertex
 10
209.013016
 20
-22.738228
 30
0.0
  0
VERTEX
  5
73
100
AcDbEntity
  8
0
370
     0
390
0
100
AcDbVertex
100
AcDb2dVertex
 10
209.315613
 20
-22.677708
 30
0.0
  0
VERTEX
  5
74
100
AcDbEntity
  8
0
370
     0
390
0
100
AcDbVertex
100
AcDb2dVertex
 10
209.557693
 20
-22.728142
 30
0.0
  0
VERTEX
  5
75
100
AcDbEntity
  8
0
370
     0
390
0
100
AcDbVertex
100
AcDb2dVertex
 10
209.708984
 20
-22.864307
 30
0.0
  0
VERTEX
  5
76
100
AcDbEntity
  8
0
370
     0
390
0
100
AcDbVertex
100
AcDb2dVertex
 10
209.784637
 20
-23.091253
 30
0.0
  0
VERTEX
  5
77
100
AcDbEntity
  8
0
370
     0
390
0
100
AcDbVertex
100
AcDb2dVertex
 10
209.809845
 20
-23.393847
 30
0.0
  0
VERTEX
  5
78
100
AcDbEntity
  8
0
370
     0
390
0
100
AcDbVertex
100
AcDb2dVertex
 10
209.809845
 20
-25.083328
 30
0.0
  0
VERTEX
  5
79
100
AcDbEntity
  8
0
370
     0
390
0
100
AcDbVertex
100
AcDb2dVertex
 10
210.253662
 20
-25.083328
 30
0.0
  0
VERTEX
  5
7A
100
AcDbEntity
  8
0
370
     0
390
0
100
AcDbVertex
100
AcDb2dVertex
 10
210.253662
 20
-23.303068
 30
0.0
  0
VERTEX
  5
7B
100
AcDbEntity
  8
0
370
     0
390
0
100
AcDbVertex
100
AcDb2dVertex
 10
210.23349
 20
-22.945
 30
0.0
  0
VERTEX
  5
7C
100
AcDbEntity
  8
0
370
     0
390
0
100
AcDbVertex
100
AcDb2dVertex
 10
210.1427
 20
-22.647449
 30
0.0
  0
VERTEX
  5
7D
100
AcDbEntity
  8
0
370
     0
390
0
100
AcDbVertex
100
AcDb2dVertex
 10
209.845154
 20
-22.375114
 30
0.0
  0
VERTEX
  5
7E
100
AcDbEntity
  8
0
370
     0
390
0
100
AcDbVertex
100
AcDb2dVertex
 10
209.38118
 20
-22.279293
 30
0.0
  0
VERTEX
  5
7F
100
AcDbEntity
  8
0
370
     0
390
0
100
AcDbVertex
100
AcDb2dVertex
 10
209.123978
 20
-22.314596
 30
0.0
  0
VERTEX
  5
80
100
AcDbEntity
  8
0
370
     0
390
0
100
AcDbVertex
100
AcDb2dVertex
 10
208.90712
 20
-22.410418
 30
0.0
  0
VERTEX
  5
81
100
AcDbEntity
  8
0
370
     0
390
0
100
AcDbVertex
100
AcDb2dVertex
 10
208.72052
 20
-22.5718
 30
0.0
  0
VERTEX
  5
82
100
AcDbEntity
  8
0
370
     0
390
0
100
AcDbVertex
100
AcDb2dVertex
 10
208.574265
 20
-22.78866
 30
0.0
  0
VERTEX
  5
83
100
AcDbEntity
  8
0
370
     0
390
0
100
AcDbVertex
100
AcDb2dVertex
 10
208.574265
 20
-22.375114
 30
0.0
  0
VERTEX
  5
84
100
AcDbEntity
  8
0
370
     0
390
0
100
AcDbVertex
100
AcDb2dVertex
 10
208.150635
 20
-22.375114
 30
0.0
  0
SEQEND
  5
85
100
AcDbEntity
  8
0
370
     0
390
0
  0
POLYLINE
  5
86
100
AcDbEntity
  8
0
370
    13
390
0
 62
     7
100
AcDb2dPolyline
 66
     1
 10
0.0
 20
0.0
 30
0.0
 70
     1
 71
    22
  0
VERTEX
  5
87
100
AcDbEntity
  8
0
370
     0
390
0
100
AcDbVertex
100
AcDb2dVertex
 10
211.781754
 20
-22.844135
 30
0.0
  0
VERTEX
  5
88
100
AcDbEntity
  8
0
370
     0
390
0
100
AcDbVertex
100
AcDb2dVertex
 10
211.781754
 20
-24.200764
 30
0.0
  0
VERTEX
  5
89
100
AcDbEntity
  8
0
370
     0
390
0
100
AcDbVertex
100
AcDb2dVertex
 10
211.812012
 20
-24.639524
 30
0.0
  0
VERTEX
  5
8A
100
AcDbEntity
  8
0
370
     0
390
0
100
AcDbVertex
100
AcDb2dVertex
 10
211.953217
 20
-24.942118
 30
0.0
  0
VERTEX
  5
8B
100
AcDbEntity
  8
0
370
     0
390
0
100
AcDbVertex
100
AcDb2dVertex
 10
212.235641
 20
-25.118631
 30
0.0
  0
VERTEX
  5
8C
100
AcDbEntity
  8
0
370
     0
390
0
100
AcDbVertex
100
AcDb2dVertex
 10
212.714752
 20
-25.17915
 30
0.0
  0
VERTEX
  5
8D
100
AcDbEntity
  8
0
370
     0
390
0
100
AcDbVertex
100
AcDb2dVertex
 10
213.239243
 20
-25.153933
 30
0.0
  0
VERTEX
  5
8E
100
AcDbEntity
  8
0
370
     0
390
0
100
AcDbVertex
100
AcDb2dVertex
 10
213.239243
 20
-24.770649
 30
0.0
  0
VERTEX
  5
8F
100
AcDbEntity
  8
0
370
     0
390
0
100
AcDbVertex
100
AcDb2dVertex
 10
212.855957
 20
-24.800907
 30
0.0
  0
VERTEX
  5
90
100
AcDbEntity
  8
0
370
     0
390
0
100
AcDbVertex
100
AcDb2dVertex
 10
212.50798
 20
-24.760561
 30
0.0
  0
VERTEX
  5
91
100
AcDbEntity
  8
0
370
     0
390
0
100
AcDbVertex
100
AcDb2dVertex
 10
212.321381
 20
-24.634481
 30
0.0
  0
VERTEX
  5
92
100
AcDbEntity
  8
0
370
     0
390
0
100
AcDbVertex
100
AcDb2dVertex
 10
212.240692
 20
-24.422665
 30
0.0
  0
VERTEX
  5
93
100
AcDbEntity
  8
0
370
     0
390
0
100
AcDbVertex
100
AcDb2dVertex
 10
212.225555
 20
-24.125114
 30
0.0
  0
VERTEX
  5
94
100
AcDbEntity
  8
0
370
     0
390
0
100
AcDbVertex
100
AcDb2dVertex
 10
212.225555
 20
-22.844135
 30
0.0
  0
VERTEX
  5
95
100
AcDbEntity
  8
0
370
     0
390
0
100
AcDbVertex
100
AcDb2dVertex
 10
213.239243
 20
-22.844135
 30
0.0
  0
VERTEX
  5
96
100
AcDbEntity
  8
0
370
     0
390
0
100
AcDbVertex
100
AcDb2dVertex
 10
213.239243
 20
-22.465893
 30
0.0
  0
VERTEX
  5
97
100
AcDbEntity
  8
0
370
     0
390
0
100
AcDbVertex
100
AcDb2dVertex
 10
212.225555
 20
-22.465893
 30
0.0
  0
VERTEX
  5
98
100
AcDbEntity
  8
0
370
     0
390
0
100
AcDbVertex
100
AcDb2dVertex
 10
212.225555
 20
-21.674107
 30
0.0
  0
VERTEX
  5
99
100
AcDbEntity
  8
0
370
     0
390
0
100
AcDbVertex
100
AcDb2dVertex
 10
211.781754
 20
-21.674107
 30
0.0
  0
VERTEX
  5
9A
100
AcDbEntity
  8
0
370
     0
390
0
100
AcDbVertex
100
AcDb2dVertex
 10
211.781754
 20
-22.465893
 30
0.0
  0
VERTEX
  5
9B
100
AcDbEntity
  8
0
370
     0
390
0
100
AcDbVertex
100
AcDb2dVertex
 10
211.015182
 20
-22.465893
 30
0.0
  0
VERTEX
  5
9C
100
AcDbEntity
  8
0
370
     0
390
0
100
AcDbVertex
100
AcDb2dVertex
 10
211.015182
 20
-22.844135
 30
0.0
  0
SEQEND
  5
9D
100
AcDbEntity
  8
0
370
     0
390
0
  0
POLYLINE
  5
9E
100
AcDbEntity
  8
0
370
    13
390
0
 62
     7
100
AcDb2dPolyline
 66
     1
 10
0.0
 20
0.0
 30
0.0
 70
     1
 71
     7
  0
VERTEX
  5
9F
100
AcDbEntity
  8
0
370
     0
390
0
100
AcDbVertex
100
AcDb2dVertex
 10
218.070663
 20
-25.083328
 30
0.0
  0
VERTEX
  5
A0
100
AcDbEntity
  8
0
370
     0
390
0
100
AcDbVertex
100
AcDb2dVertex
 10
218.539673
 20
-25.083328
 30
0.0
  0
VERTEX
  5
A1
100
AcDbEntity
  8
0
370
     0
390
0
100
AcDbVertex
100
AcDb2dVertex
 10
219.528152
 20
-22.375114
 30
0.0
  0
VERTEX
  5
A2
100
AcDbEntity
  8
0
370
     0
390
0
100
AcDbVertex
100
AcDb2dVertex
 10
219.069214
 20
-22.375114
 30
0.0
  0
VERTEX
  5
A3
100
AcDbEntity
  8
0
370
     0
390
0
100
AcDbVertex
100
AcDb2dVertex
 10
218.307693
 20
-24.558832
 30
0.0
  0
VERTEX
  5
A4
100
AcDbEntity
  8
0
370
     0
390
0
100
AcDbVertex
100
AcDb2dVertex
 10
217.531036
 20
-22.375114
 30
0.0
  0
VERTEX
  5
A5
100
AcDbEntity
  8
0
370
     0
390
0
100
AcDbVertex
100
AcDb2dVertex
 10
217.067062
 20
-22.375114
 30
0.0
  0
SEQEND
  5
A6
100
AcDbEntity
  8
0
370
     0
390
0
  0
POLYLINE
  5
A7
100
AcDbEntity
  8
0
370
    13
390
0
 62
     7
100
AcDb2dPolyline
 66
     1
 10
0.0
 20
0.0
 30
0.0
 70
     1
 71
    10
  0
VERTEX
  5
A8
100
AcDbEntity
  8
0
370
     0
390
0
100
AcDbVertex
100
AcDb2dVertex
 10
221.651352
 20
-24.710129
 30
0.0
  0
VERTEX
  5
A9
100
AcDbEntity
  8
0
370
     0
390
0
100
AcDbVertex
100
AcDb2dVertex
 10
221.651352
 20
-22.465893
 30
0.0
  0
VERTEX
  5
AA
100
AcDbEntity
  8
0
370
     0
390
0
100
AcDbVertex
100
AcDb2dVertex
 10
220.511581
 20
-22.465893
 30
0.0
  0
VERTEX
  5
AB
100
AcDbEntity
  8
0
370
     0
390
0
100
AcDbVertex
100
AcDb2dVertex
 10
220.511581
 20
-22.844135
 30
0.0
  0
VERTEX
  5
AC
100
AcDbEntity
  8
0
370
     0
390
0
100
AcDbVertex
100
AcDb2dVertex
 10
221.20755
 20
-22.844135
 30
0.0
  0
VERTEX
  5
AD
100
AcDbEntity
  8
0
370
     0
390
0
100
AcDbVertex
100
AcDb2dVertex
 10
221.20755
 20
-24.710129
 30
0.0
  0
VERTEX
  5
AE
100
AcDbEntity
  8
0
370
     0
390
0
100
AcDbVertex
100
AcDb2dVertex
 10
220.299774
 20
-24.710129
 30
0.0
  0
VERTEX
  5
AF
100
AcDbEntity
  8
0
370
     0
390
0
100
AcDbVertex
100
AcDb2dVertex
 10
220.299774
 20
-25.083328
 30
0.0
  0
VERTEX
  5
B0
100
AcDbEntity
  8
0
370
     0
390
0
100
AcDbVertex
100
AcDb2dVertex
 10
222.569214
 20
-25.083328
 30
0.0
  0
VERTEX
  5
B1
100
AcDbEntity
  8
0
370
     0
390
0
100
AcDbVertex
100
AcDb2dVertex
 10
222.569214
 20
-24.710129
 30
0.0
  0
SEQEND
  5
B2
100
AcDbEntity
  8
0
370
     0
390
0
  0
POLYLINE
  5
B3
100
AcDbEntity
  8
0
370
    13
390
0
 62
     7
100
AcDb2dPolyline
 66
     1
 10
0.0
 20
0.0
 30
0.0
 70
     1
 71
     4
  0
VERTEX
  5
B4
100
AcDbEntity
  8
0
370
     0
390
0
100
AcDbVertex
100
AcDb2dVertex
 10
221.666473
 20
-21.462292
 30
0.0
  0
VERTEX
  5
B5
100
AcDbEntity
  8
0
370
     0
390
0
100
AcDbVertex
100
AcDb2dVertex
 10
221.197464
 20
-21.462292
 30
0.0
  0
VERTEX
  5
B6
100
AcDbEntity
  8
0
370
     0
390
0
100
AcDbVertex
100
AcDb2dVertex
 10
221.197464
 20
-21.966614
 30
0.0
  0
VERTEX
  5
B7
100
AcDbEntity
  8
0
370
     0
390
0
100
AcDbVertex
100
AcDb2dVertex
 10
221.666473
 20
-21.966614
 30
0.0
  0
SEQEND
  5
B8
100
AcDbEntity
  8
0
370
     0
390
0
  0
POLYLINE
  5
B9
100
AcDbEntity
  8
0
370
    13
390
0
 62
     7
100
AcDb2dPolyline
 66
     1
 10
0.0
 20
0.0
 30
0.0
 70
     1
 71
    27
  0
VERTEX
  5
BA
100
AcDbEntity
  8
0
370
     0
390
0
100
AcDbVertex
100
AcDb2dVertex
 10
223.71907
 20
-23.857824
 30
0.0
  0
VERTEX
  5
BB
100
AcDbEntity
  8
0
370
     0
390
0
100
AcDbVertex
100
AcDb2dVertex
 10
225.494293
 20
-23.857824
 30
0.0
  0
VERTEX
  5
BC
100
AcDbEntity
  8
0
370
     0
390
0
100
AcDbVertex
100
AcDb2dVertex
 10
225.499329
 20
-23.651052
 30
0.0
  0
VERTEX
  5
BD
100
AcDbEntity
  8
0
370
     0
390
0
100
AcDbVertex
100
AcDb2dVertex
 10
225.41864
 20
-23.071081
 30
0.0
  0
VERTEX
  5
BE
100
AcDbEntity
  8
0
370
     0
390
0
100
AcDbVertex
100
AcDb2dVertex
 10
225.196747
 20
-22.637363
 30
0.0
  0
VERTEX
  5
BF
100
AcDbEntity
  8
0
370
     0
390
0
100
AcDbVertex
100
AcDb2dVertex
 10
224.843719
 20
-22.375114
 30
0.0
  0
VERTEX
  5
C0
100
AcDbEntity
  8
0
370
     0
390
0
100
AcDbVertex
100
AcDb2dVertex
 10
224.374695
 20
-22.279293
 30
0.0
  0
VERTEX
  5
C1
100
AcDbEntity
  8
0
370
     0
390
0
100
AcDbVertex
100
AcDb2dVertex
 10
223.915756
 20
-22.380157
 30
0.0
  0
VERTEX
  5
C2
100
AcDbEntity
  8
0
370
     0
390
0
100
AcDbVertex
100
AcDb2dVertex
 10
223.562729
 20
-22.662579
 30
0.0
  0
VERTEX
  5
C3
100
AcDbEntity
  8
0
370
     0
390
0
100
AcDbVertex
100
AcDb2dVertex
 10
223.335785
 20
-23.121513
 30
0.0
  0
VERTEX
  5
C4
100
AcDbEntity
  8
0
370
     0
390
0
100
AcDbVertex
100
AcDb2dVertex
 10
223.255096
 20
-23.7267
 30
0.0
  0
VERTEX
  5
C5
100
AcDbEntity
  8
0
370
     0
390
0
100
AcDbVertex
100
AcDb2dVertex
 10
223.33075
 20
-24.347017
 30
0.0
  0
VERTEX
  5
C6
100
AcDbEntity
  8
0
370
     0
390
0
100
AcDbVertex
100
AcDb2dVertex
 10
223.557693
 20
-24.800907
 30
0.0
  0
VERTEX
  5
C7
100
AcDbEntity
  8
0
370
     0
390
0
100
AcDbVertex
100
AcDb2dVertex
 10
223.90567
 20
-25.083328
 30
0.0
  0
VERTEX
  5
C8
100
AcDbEntity
  8
0
370
     0
390
0
100
AcDbVertex
100
AcDb2dVertex
 10
224.359558
 20
-25.17915
 30
0.0
  0
VERTEX
  5
C9
100
AcDbEntity
  8
0
370
     0
390
0
100
AcDbVertex
100
AcDb2dVertex
 10
224.75293
 20
-25.113588
 30
0.0
  0
VERTEX
  5
CA
100
AcDbEntity
  8
0
370
     0
390
0
100
AcDbVertex
100
AcDb2dVertex
 10
225.075699
 20
-24.942118
 30
0.0
  0
VERTEX
  5
CB
100
AcDbEntity
  8
0
370
     0
390
0
100
AcDbVertex
100
AcDb2dVertex
 10
225.312729
 20
-24.669783
 30
0.0
  0
VERTEX
  5
CC
100
AcDbEntity
  8
0
370
     0
390
0
100
AcDbVertex
100
AcDb2dVertex
 10
225.448898
 20
-24.306671
 30
0.0
  0
VERTEX
  5
CD
100
AcDbEntity
  8
0
370
     0
390
0
100
AcDbVertex
100
AcDb2dVertex
 10
225.010132
 20
-24.306671
 30
0.0
  0
VERTEX
  5
CE
100
AcDbEntity
  8
0
370
     0
390
0
100
AcDbVertex
100
AcDb2dVertex
 10
224.919357
 20
-24.5084
 30
0.0
  0
VERTEX
  5
CF
100
AcDbEntity
  8
0
370
     0
390
0
100
AcDbVertex
100
AcDb2dVertex
 10
224.788239
 20
-24.659697
 30
0.0
  0
VERTEX
  5
D0
100
AcDbEntity
  8
0
370
     0
390
0
100
AcDbVertex
100
AcDb2dVertex
 10
224.415039
 20
-24.780735
 30
0.0
  0
VERTEX
  5
D1
100
AcDbEntity
  8
0
370
     0
390
0
100
AcDbVertex
100
AcDb2dVertex
 10
224.127579
 20
-24.72526
 30
0.0
  0
VERTEX
  5
D2
100
AcDbEntity
  8
0
370
     0
390
0
100
AcDbVertex
100
AcDb2dVertex
 10
223.910721
 20
-24.548746
 30
0.0
  0
VERTEX
  5
D3
100
AcDbEntity
  8
0
370
     0
390
0
100
AcDbVertex
100
AcDb2dVertex
 10
223.769501
 20
-24.261282
 30
0.0
  0
VERTEX
  5
D4
100
AcDbEntity
  8
0
370
     0
390
0
100
AcDbVertex
100
AcDb2dVertex
 10
223.71907
 20
-23.872953
 30
0.0
  0
SEQEND
  5
D5
100
AcDbEntity
  8
0
370
     0
390
0
  0
POLYLINE
  5
D6
100
AcDbEntity
  8
0
370
    13
390
0
 62
     7
100
AcDb2dPolyline
 66
     1
 10
0.0
 20
0.0
 30
0.0
 70
     1
 71
     9
  0
VERTEX
  5
D7
100
AcDbEntity
  8
0
370
     0
390
0
100
AcDbVertex
100
AcDb2dVertex
 10
223.71907
 20
-23.484625
 30
0.0
  0
VERTEX
  5
D8
100
AcDbEntity
  8
0
370
     0
390
0
100
AcDbVertex
100
AcDb2dVertex
 10
223.774551
 20
-23.136642
 30
0.0
  0
VERTEX
  5
D9
100
AcDbEntity
  8
0
370
     0
390
0
100
AcDbVertex
100
AcDb2dVertex
 10
223.910721
 20
-22.879438
 30
0.0
  0
VERTEX
  5
DA
100
AcDbEntity
  8
0
370
     0
390
0
100
AcDbVertex
100
AcDb2dVertex
 10
224.117493
 20
-22.723099
 30
0.0
  0
VERTEX
  5
DB
100
AcDbEntity
  8
0
370
     0
390
0
100
AcDbVertex
100
AcDb2dVertex
 10
224.389832
 20
-22.667622
 30
0.0
  0
VERTEX
  5
DC
100
AcDbEntity
  8
0
370
     0
390
0
100
AcDbVertex
100
AcDb2dVertex
 10
224.65712
 20
-22.723099
 30
0.0
  0
VERTEX
  5
DD
100
AcDbEntity
  8
0
370
     0
390
0
100
AcDbVertex
100
AcDb2dVertex
 10
224.863892
 20
-22.879438
 30
0.0
  0
VERTEX
  5
DE
100
AcDbEntity
  8
0
370
     0
390
0
100
AcDbVertex
100
AcDb2dVertex
 10
224.98996
 20
-23.136642
 30
0.0
  0
VERTEX
  5
DF
100
AcDbEntity
  8
0
370
     0
390
0
100
AcDbVertex
100
AcDb2dVertex
 10
225.035355
 20
-23.484625
 30
0.0
  0
SEQEND
  5
E0
100
AcDbEntity
  8
0
370
     0
390
0
  0
POLYLINE
  5
E1
100
AcDbEntity
  8
0
370
    13
390
0
 62
     7
100
AcDb2dPolyline
 66
     1
 10
0.0
 20
0.0
 30
0.0
 70
     1
 71
    13
  0
VERTEX
  5
E2
100
AcDbEntity
  8
0
370
     0
390
0
100
AcDbVertex
100
AcDb2dVertex
 10
227.007263
 20
-25.083328
 30
0.0
  0
VERTEX
  5
E3
100
AcDbEntity
  8
0
370
     0
390
0
100
AcDbVertex
100
AcDb2dVertex
 10
227.410721
 20
-22.783617
 30
0.0
  0
VERTEX
  5
E4
100
AcDbEntity
  8
0
370
     0
390
0
100
AcDbVertex
100
AcDb2dVertex
 10
227.814178
 20
-25.083328
 30
0.0
  0
VERTEX
  5
E5
100
AcDbEntity
  8
0
370
     0
390
0
100
AcDbVertex
100
AcDb2dVertex
 10
228.237808
 20
-25.083328
 30
0.0
  0
VERTEX
  5
E6
100
AcDbEntity
  8
0
370
     0
390
0
100
AcDbVertex
100
AcDb2dVertex
 10
228.903503
 20
-22.375114
 30
0.0
  0
VERTEX
  5
E7
100
AcDbEntity
  8
0
370
     0
390
0
100
AcDbVertex
100
AcDb2dVertex
 10
228.474838
 20
-22.375114
 30
0.0
  0
VERTEX
  5
E8
100
AcDbEntity
  8
0
370
     0
390
0
100
AcDbVertex
100
AcDb2dVertex
 10
228.025986
 20
-24.674828
 30
0.0
  0
VERTEX
  5
E9
100
AcDbEntity
  8
0
370
     0
390
0
100
AcDbVertex
100
AcDb2dVertex
 10
227.627579
 20
-22.375114
 30
0.0
  0
VERTEX
  5
EA
100
AcDbEntity
  8
0
370
     0
390
0
100
AcDbVertex
100
AcDb2dVertex
 10
227.188812
 20
-22.375114
 30
0.0
  0
VERTEX
  5
EB
100
AcDbEntity
  8
0
370
     0
390
0
100
AcDbVertex
100
AcDb2dVertex
 10
226.790405
 20
-24.674828
 30
0.0
  0
VERTEX
  5
EC
100
AcDbEntity
  8
0
370
     0
390
0
100
AcDbVertex
100
AcDb2dVertex
 10
226.341553
 20
-22.375114
 30
0.0
  0
VERTEX
  5
ED
100
AcDbEntity
  8
0
370
     0
390
0
100
AcDbVertex
100
AcDb2dVertex
 10
225.917923
 20
-22.375114
 30
0.0
  0
VERTEX
  5
EE
100
AcDbEntity
  8
0
370
     0
390
0
100
AcDbVertex
100
AcDb2dVertex
 10
226.583618
 20
-25.083328
 30
0.0
  0
SEQEND
  5
EF
100
AcDbEntity
  8
0
370
     0
390
0
  0
POLYLINE
  5
F0
100
AcDbEntity
  8
0
370
    13
390
0
 62
     7
100
AcDb2dPolyline
 66
     1
 10
0.0
 20
0.0
 30
0.0
 70
     1
 71
    51
  0
VERTEX
  5
F1
100
AcDbEntity
  8
0
370
     0
390
0
100
AcDbVertex
100
AcDb2dVertex
 10
199.289673
 20
-29.975258
 30
0.0
  0
VERTEX
  5
F2
100
AcDbEntity
  8
0
370
     0
390
0
100
AcDbVertex
100
AcDb2dVertex
 10
198.83075
 20
-29.975258
 30
0.0
  0
VERTEX
  5
F3
100
AcDbEntity
  8
0
370
     0
390
0
100
AcDbVertex
100
AcDb2dVertex
 10
198.93161
 20
-30.50984
 30
0.0
  0
VERTEX
  5
F4
100
AcDbEntity
  8
0
370
     0
390
0
100
AcDbVertex
100
AcDb2dVertex
 10
199.183777
 20
-30.903212
 30
0.0
  0
VERTEX
  5
F5
100
AcDbEntity
  8
0
370
     0
390
0
100
AcDbVertex
100
AcDb2dVertex
 10
199.572098
 20
-31.140244
 30
0.0
  0
VERTEX
  5
F6
100
AcDbEntity
  8
0
370
     0
390
0
100
AcDbVertex
100
AcDb2dVertex
 10
200.096588
 20
-31.225979
 30
0.0
  0
VERTEX
  5
F7
100
AcDbEntity
  8
0
370
     0
390
0
100
AcDbVertex
100
AcDb2dVertex
 10
200.616043
 20
-31.145287
 30
0.0
  0
VERTEX
  5
F8
100
AcDbEntity
  8
0
370
     0
390
0
100
AcDbVertex
100
AcDb2dVertex
 10
201.004379
 20
-30.923386
 30
0.0
  0
VERTEX
  5
F9
100
AcDbEntity
  8
0
370
     0
390
0
100
AcDbVertex
100
AcDb2dVertex
 10
201.251495
 20
-30.575403
 30
0.0
  0
VERTEX
  5
FA
100
AcDbEntity
  8
0
370
     0
390
0
100
AcDbVertex
100
AcDb2dVertex
 10
201.34227
 20
-30.116468
 30
0.0
  0
VERTEX
  5
FB
100
AcDbEntity
  8
0
370
     0
390
0
100
AcDbVertex
100
AcDb2dVertex
 10
201.266617
 20
-29.702925
 30
0.0
  0
VERTEX
  5
FC
100
AcDbEntity
  8
0
370
     0
390
0
100
AcDbVertex
100
AcDb2dVertex
 10
201.05481
 20
-29.435633
 30
0.0
  0
VERTEX
  5
FD
100
AcDbEntity
  8
0
370
     0
390
0
100
AcDbVertex
100
AcDb2dVertex
 10
200.711868
 20
-29.259121
 30
0.0
  0
VERTEX
  5
FE
100
AcDbEntity
  8
0
370
     0
390
0
100
AcDbVertex
100
AcDb2dVertex
 10
200.25293
 20
-29.127996
 30
0.0
  0
VERTEX
  5
FF
100
AcDbEntity
  8
0
370
     0
390
0
100
AcDbVertex
100
AcDb2dVertex
 10
199.859558
 20
-29.032175
 30
0.0
  0
VERTEX
  5
100
100
AcDbEntity
  8
0
370
     0
390
0
100
AcDbVertex
100
AcDb2dVertex
 10
199.602356
 20
-28.921223
 30
0.0
  0
VERTEX
  5
101
100
AcDbEntity
  8
0
370
     0
390
0
100
AcDbVertex
100
AcDb2dVertex
 10
199.4561
 20
-28.75984
 30
0.0
  0
VERTEX
  5
102
100
AcDbEntity
  8
0
370
     0
390
0
100
AcDbVertex
100
AcDb2dVertex
 10
199.410721
 20
-28.507679
 30
0.0
  0
VERTEX
  5
103
100
AcDbEntity
  8
0
370
     0
390
0
100
AcDbVertex
100
AcDb2dVertex
 10
199.4561
 20
-28.280733
 30
0.0
  0
VERTEX
  5
104
100
AcDbEntity
  8
0
370
     0
390
0
100
AcDbVertex
100
AcDb2dVertex
 10
199.587234
 20
-28.109264
 30
0.0
  0
VERTEX
  5
105
100
AcDbEntity
  8
0
370
     0
390
0
100
AcDbVertex
100
AcDb2dVertex
 10
199.788956
 20
-27.993271
 30
0.0
  0
VERTEX
  5
106
100
AcDbEntity
  8
0
370
     0
390
0
100
AcDbVertex
100
AcDb2dVertex
 10
200.06633
 20
-27.952925
 30
0.0
  0
VERTEX
  5
107
100
AcDbEntity
  8
0
370
     0
390
0
100
AcDbVertex
100
AcDb2dVertex
 10
200.348755
 20
-28.003357
 30
0.0
  0
VERTEX
  5
108
100
AcDbEntity
  8
0
370
     0
390
0
100
AcDbVertex
100
AcDb2dVertex
 10
200.570663
 20
-28.139523
 30
0.0
  0
VERTEX
  5
109
100
AcDbEntity
  8
0
370
     0
390
0
100
AcDbVertex
100
AcDb2dVertex
 10
200.716919
 20
-28.366468
 30
0.0
  0
VERTEX
  5
10A
100
AcDbEntity
  8
0
370
     0
390
0
100
AcDbVertex
100
AcDb2dVertex
 10
200.787521
 20
-28.674107
 30
0.0
  0
VERTEX
  5
10B
100
AcDbEntity
  8
0
370
     0
390
0
100
AcDbVertex
100
AcDb2dVertex
 10
201.246445
 20
-28.674107
 30
0.0
  0
VERTEX
  5
10C
100
AcDbEntity
  8
0
370
     0
390
0
100
AcDbVertex
100
AcDb2dVertex
 10
201.246445
 20
-28.664019
 30
0.0
  0
VERTEX
  5
10D
100
AcDbEntity
  8
0
370
     0
390
0
100
AcDbVertex
100
AcDb2dVertex
 10
201.165756
 20
-28.189957
 30
0.0
  0
VERTEX
  5
10E
100
AcDbEntity
  8
0
370
     0
390
0
100
AcDbVertex
100
AcDb2dVertex
 10
200.928726
 20
-27.836929
 30
0.0
  0
VERTEX
  5
10F
100
AcDbEntity
  8
0
370
     0
390
0
100
AcDbVertex
100
AcDb2dVertex
 10
200.555527
 20
-27.615028
 30
0.0
  0
VERTEX
  5
110
100
AcDbEntity
  8
0
370
     0
390
0
100
AcDbVertex
100
AcDb2dVertex
 10
200.051208
 20
-27.539379
 30
0.0
  0
VERTEX
  5
111
100
AcDbEntity
  8
0
370
     0
390
0
100
AcDbVertex
100
AcDb2dVertex
 10
199.597321
 20
-27.615028
 30
0.0
  0
VERTEX
  5
112
100
AcDbEntity
  8
0
370
     0
390
0
100
AcDbVertex
100
AcDb2dVertex
 10
199.244293
 20
-27.826843
 30
0.0
  0
VERTEX
  5
113
100
AcDbEntity
  8
0
370
     0
390
0
100
AcDbVertex
100
AcDb2dVertex
 10
199.017349
 20
-28.154654
 30
0.0
  0
VERTEX
  5
114
100
AcDbEntity
  8
0
370
     0
390
0
100
AcDbVertex
100
AcDb2dVertex
 10
198.936646
 20
-28.578285
 30
0.0
  0
VERTEX
  5
115
100
AcDbEntity
  8
0
370
     0
390
0
100
AcDbVertex
100
AcDb2dVertex
 10
199.002213
 20
-28.956526
 30
0.0
  0
VERTEX
  5
116
100
AcDbEntity
  8
0
370
     0
390
0
100
AcDbVertex
100
AcDb2dVertex
 10
199.193863
 20
-29.213732
 30
0.0
  0
VERTEX
  5
117
100
AcDbEntity
  8
0
370
     0
390
0
100
AcDbVertex
100
AcDb2dVertex
 10
199.496445
 20
-29.385201
 30
0.0
  0
VERTEX
  5
118
100
AcDbEntity
  8
0
370
     0
390
0
100
AcDbVertex
100
AcDb2dVertex
 10
199.909988
 20
-29.516325
 30
0.0
  0
VERTEX
  5
119
100
AcDbEntity
  8
0
370
     0
390
0
100
AcDbVertex
100
AcDb2dVertex
 10
200.318497
 20
-29.632318
 30
0.0
  0
VERTEX
  5
11A
100
AcDbEntity
  8
0
370
     0
390
0
100
AcDbVertex
100
AcDb2dVertex
 10
200.626129
 20
-29.743269
 30
0.0
  0
VERTEX
  5
11B
100
AcDbEntity
  8
0
370
     0
390
0
100
AcDbVertex
100
AcDb2dVertex
 10
200.812729
 20
-29.904654
 30
0.0
  0
VERTEX
  5
11C
100
AcDbEntity
  8
0
370
     0
390
0
100
AcDbVertex
100
AcDb2dVertex
 10
200.878296
 20
-30.166901
 30
0.0
  0
VERTEX
  5
11D
100
AcDbEntity
  8
0
370
     0
390
0
100
AcDbVertex
100
AcDb2dVertex
 10
200.81778
 20
-30.434193
 30
0.0
  0
VERTEX
  5
11E
100
AcDbEntity
  8
0
370
     0
390
0
100
AcDbVertex
100
AcDb2dVertex
 10
200.661438
 20
-30.635921
 30
0.0
  0
VERTEX
  5
11F
100
AcDbEntity
  8
0
370
     0
390
0
100
AcDbVertex
100
AcDb2dVertex
 10
200.424408
 20
-30.762001
 30
0.0
  0
VERTEX
  5
120
100
AcDbEntity
  8
0
370
     0
390
0
100
AcDbVertex
100
AcDb2dVertex
 10
200.11676
 20
-30.802347
 30
0.0
  0
VERTEX
  5
121
100
AcDbEntity
  8
0
370
     0
390
0
100
AcDbVertex
100
AcDb2dVertex
 10
199.773834
 20
-30.746872
 30
0.0
  0
VERTEX
  5
122
100
AcDbEntity
  8
0
370
     0
390
0
100
AcDbVertex
100
AcDb2dVertex
 10
199.511581
 20
-30.585489
 30
0.0
  0
VERTEX
  5
123
100
AcDbEntity
  8
0
370
     0
390
0
100
AcDbVertex
100
AcDb2dVertex
 10
199.345154
 20
-30.32324
 30
0.0
  0
SEQEND
  5
124
100
AcDbEntity
  8
0
370
     0
390
0
  0
POLYLINE
  5
125
100
AcDbEntity
  8
0
370
    13
390
0
 62
     7
100
AcDb2dPolyline
 66
     1
 10
0.0
 20
0.0
 30
0.0
 70
     1
 71
    34
  0
VERTEX
  5
126
100
AcDbEntity
  8
0
370
     0
390
0
100
AcDbVertex
100
AcDb2dVertex
 10
203.80336
 20
-29.319639
 30
0.0
  0
VERTEX
  5
127
100
AcDbEntity
  8
0
370
     0
390
0
100
AcDbVertex
100
AcDb2dVertex
 10
204.242126
 20
-29.319639
 30
0.0
  0
VERTEX
  5
128
100
AcDbEntity
  8
0
370
     0
390
0
100
AcDbVertex
100
AcDb2dVertex
 10
204.151352
 20
-28.91618
 30
0.0
  0
VERTEX
  5
129
100
AcDbEntity
  8
0
370
     0
390
0
100
AcDbVertex
100
AcDb2dVertex
 10
203.934494
 20
-28.598457
 30
0.0
  0
VERTEX
  5
12A
100
AcDbEntity
  8
0
370
     0
390
0
100
AcDbVertex
100
AcDb2dVertex
 10
203.596588
 20
-28.401772
 30
0.0
  0
VERTEX
  5
12B
100
AcDbEntity
  8
0
370
     0
390
0
100
AcDbVertex
100
AcDb2dVertex
 10
203.157837
 20
-28.326122
 30
0.0
  0
VERTEX
  5
12C
100
AcDbEntity
  8
0
370
     0
390
0
100
AcDbVertex
100
AcDb2dVertex
 10
202.673691
 20
-28.426987
 30
0.0
  0
VERTEX
  5
12D
100
AcDbEntity
  8
0
370
     0
390
0
100
AcDbVertex
100
AcDb2dVertex
 10
202.305527
 20
-28.709408
 30
0.0
  0
VERTEX
  5
12E
100
AcDbEntity
  8
0
370
     0
390
0
100
AcDbVertex
100
AcDb2dVertex
 10
202.073547
 20
-29.168343
 30
0.0
  0
VERTEX
  5
12F
100
AcDbEntity
  8
0
370
     0
390
0
100
AcDbVertex
100
AcDb2dVertex
 10
201.992844
 20
-29.783615
 30
0.0
  0
VERTEX
  5
130
100
AcDbEntity
  8
0
370
     0
390
0
100
AcDbVertex
100
AcDb2dVertex
 10
202.068497
 20
-30.393847
 30
0.0
  0
VERTEX
  5
131
100
AcDbEntity
  8
0
370
     0
390
0
100
AcDbVertex
100
AcDb2dVertex
 10
202.295441
 20
-30.847736
 30
0.0
  0
VERTEX
  5
132
100
AcDbEntity
  8
0
370
     0
390
0
100
AcDbVertex
100
AcDb2dVertex
 10
202.653503
 20
-31.130157
 30
0.0
  0
VERTEX
  5
133
100
AcDbEntity
  8
0
370
     0
390
0
100
AcDbVertex
100
AcDb2dVertex
 10
203.1427
 20
-31.225979
 30
0.0
  0
VERTEX
  5
134
100
AcDbEntity
  8
0
370
     0
390
0
100
AcDbVertex
100
AcDb2dVertex
 10
203.576416
 20
-31.15033
 30
0.0
  0
VERTEX
  5
135
100
AcDbEntity
  8
0
370
     0
390
0
100
AcDbVertex
100
AcDb2dVertex
 10
203.914322
 20
-30.938515
 30
0.0
  0
VERTEX
  5
136
100
AcDbEntity
  8
0
370
     0
390
0
100
AcDbVertex
100
AcDb2dVertex
 10
204.146301
 20
-30.605661
 30
0.0
  0
VERTEX
  5
137
100
AcDbEntity
  8
0
370
     0
390
0
100
AcDbVertex
100
AcDb2dVertex
 10
204.247177
 20
-30.161858
 30
0.0
  0
VERTEX
  5
138
100
AcDbEntity
  8
0
370
     0
390
0
100
AcDbVertex
100
AcDb2dVertex
 10
203.823547
 20
-30.161858
 30
0.0
  0
VERTEX
  5
139
100
AcDbEntity
  8
0
370
     0
390
0
100
AcDbVertex
100
AcDb2dVertex
 10
203.747894
 20
-30.444279
 30
0.0
  0
VERTEX
  5
13A
100
AcDbEntity
  8
0
370
     0
390
0
100
AcDbVertex
100
AcDb2dVertex
 10
203.606674
 20
-30.656094
 30
0.0
  0
VERTEX
  5
13B
100
AcDbEntity
  8
0
370
     0
390
0
100
AcDbVertex
100
AcDb2dVertex
 10
203.404953
 20
-30.787218
 30
0.0
  0
VERTEX
  5
13C
100
AcDbEntity
  8
0
370
     0
390
0
100
AcDbVertex
100
AcDb2dVertex
 10
203.157837
 20
-30.827564
 30
0.0
  0
VERTEX
  5
13D
100
AcDbEntity
  8
0
370
     0
390
0
100
AcDbVertex
100
AcDb2dVertex
 10
202.850189
 20
-30.762001
 30
0.0
  0
VERTEX
  5
13E
100
AcDbEntity
  8
0
370
     0
390
0
100
AcDbVertex
100
AcDb2dVertex
 10
202.628296
 20
-30.560272
 30
0.0
  0
VERTEX
  5
13F
100
AcDbEntity
  8
0
370
     0
390
0
100
AcDbVertex
100
AcDb2dVertex
 10
202.492126
 20
-30.232464
 30
0.0
  0
VERTEX
  5
140
100
AcDbEntity
  8
0
370
     0
390
0
100
AcDbVertex
100
AcDb2dVertex
 10
202.446732
 20
-29.768486
 30
0.0
  0
VERTEX
  5
141
100
AcDbEntity
  8
0
370
     0
390
0
100
AcDbVertex
100
AcDb2dVertex
 10
202.492126
 20
-29.314596
 30
0.0
  0
VERTEX
  5
142
100
AcDbEntity
  8
0
370
     0
390
0
100
AcDbVertex
100
AcDb2dVertex
 10
202.633331
 20
-28.986786
 30
0.0
  0
VERTEX
  5
143
100
AcDbEntity
  8
0
370
     0
390
0
100
AcDbVertex
100
AcDb2dVertex
 10
202.860291
 20
-28.785057
 30
0.0
  0
VERTEX
  5
144
100
AcDbEntity
  8
0
370
     0
390
0
100
AcDbVertex
100
AcDb2dVertex
 10
203.157837
 20
-28.714451
 30
0.0
  0
VERTEX
  5
145
100
AcDbEntity
  8
0
370
     0
390
0
100
AcDbVertex
100
AcDb2dVertex
 10
203.420074
 20
-28.75984
 30
0.0
  0
VERTEX
  5
146
100
AcDbEntity
  8
0
370
     0
390
0
100
AcDbVertex
100
AcDb2dVertex
 10
203.61676
 20
-28.875835
 30
0.0
  0
VERTEX
  5
147
100
AcDbEntity
  8
0
370
     0
390
0
100
AcDbVertex
100
AcDb2dVertex
 10
203.747894
 20
-29.067478
 30
0.0
  0
SEQEND
  5
148
100
AcDbEntity
  8
0
370
     0
390
0
  0
POLYLINE
  5
149
100
AcDbEntity
  8
0
370
    13
390
0
 62
     7
100
AcDb2dPolyline
 66
     1
 10
0.0
 20
0.0
 30
0.0
 70
     1
 71
    42
  0
VERTEX
  5
14A
100
AcDbEntity
  8
0
370
     0
390
0
100
AcDbVertex
100
AcDb2dVertex
 10
206.723389
 20
-30.777132
 30
0.0
  0
VERTEX
  5
14B
100
AcDbEntity
  8
0
370
     0
390
0
100
AcDbVertex
100
AcDb2dVertex
 10
206.723389
 20
-30.792261
 30
0.0
  0
VERTEX
  5
14C
100
AcDbEntity
  8
0
370
     0
390
0
100
AcDbVertex
100
AcDb2dVertex
 10
206.748611
 20
-30.963732
 30
0.0
  0
VERTEX
  5
14D
100
AcDbEntity
  8
0
370
     0
390
0
100
AcDbVertex
100
AcDb2dVertex
 10
206.824265
 20
-31.084768
 30
0.0
  0
VERTEX
  5
14E
100
AcDbEntity
  8
0
370
     0
390
0
100
AcDbVertex
100
AcDb2dVertex
 10
207.141983
 20
-31.18059
 30
0.0
  0
VERTEX
  5
14F
100
AcDbEntity
  8
0
370
     0
390
0
100
AcDbVertex
100
AcDb2dVertex
 10
207.389099
 20
-31.140244
 30
0.0
  0
VERTEX
  5
150
100
AcDbEntity
  8
0
370
     0
390
0
100
AcDbVertex
100
AcDb2dVertex
 10
207.389099
 20
-30.797304
 30
0.0
  0
VERTEX
  5
151
100
AcDbEntity
  8
0
370
     0
390
0
100
AcDbVertex
100
AcDb2dVertex
 10
207.283188
 20
-30.812433
 30
0.0
  0
VERTEX
  5
152
100
AcDbEntity
  8
0
370
     0
390
0
100
AcDbVertex
100
AcDb2dVertex
 10
207.141983
 20
-30.746872
 30
0.0
  0
VERTEX
  5
153
100
AcDbEntity
  8
0
370
     0
390
0
100
AcDbVertex
100
AcDb2dVertex
 10
207.11676
 20
-30.545143
 30
0.0
  0
VERTEX
  5
154
100
AcDbEntity
  8
0
370
     0
390
0
100
AcDbVertex
100
AcDb2dVertex
 10
207.11676
 20
-29.143126
 30
0.0
  0
VERTEX
  5
155
100
AcDbEntity
  8
0
370
     0
390
0
100
AcDbVertex
100
AcDb2dVertex
 10
207.056244
 20
-28.785057
 30
0.0
  0
VERTEX
  5
156
100
AcDbEntity
  8
0
370
     0
390
0
100
AcDbVertex
100
AcDb2dVertex
 10
206.87973
 20
-28.532896
 30
0.0
  0
VERTEX
  5
157
100
AcDbEntity
  8
0
370
     0
390
0
100
AcDbVertex
100
AcDb2dVertex
 10
206.572098
 20
-28.381599
 30
0.0
  0
VERTEX
  5
158
100
AcDbEntity
  8
0
370
     0
390
0
100
AcDbVertex
100
AcDb2dVertex
 10
206.138382
 20
-28.326122
 30
0.0
  0
VERTEX
  5
159
100
AcDbEntity
  8
0
370
     0
390
0
100
AcDbVertex
100
AcDb2dVertex
 10
205.714752
 20
-28.386642
 30
0.0
  0
VERTEX
  5
15A
100
AcDbEntity
  8
0
370
     0
390
0
100
AcDbVertex
100
AcDb2dVertex
 10
205.402069
 20
-28.558111
 30
0.0
  0
VERTEX
  5
15B
100
AcDbEntity
  8
0
370
     0
390
0
100
AcDbVertex
100
AcDb2dVertex
 10
205.205383
 20
-28.825403
 30
0.0
  0
VERTEX
  5
15C
100
AcDbEntity
  8
0
370
     0
390
0
100
AcDbVertex
100
AcDb2dVertex
 10
205.139816
 20
-29.178429
 30
0.0
  0
VERTEX
  5
15D
100
AcDbEntity
  8
0
370
     0
390
0
100
AcDbVertex
100
AcDb2dVertex
 10
205.139816
 20
-29.208687
 30
0.0
  0
VERTEX
  5
15E
100
AcDbEntity
  8
0
370
     0
390
0
100
AcDbVertex
100
AcDb2dVertex
 10
205.538239
 20
-29.208687
 30
0.0
  0
VERTEX
  5
15F
100
AcDbEntity
  8
0
370
     0
390
0
100
AcDbVertex
100
AcDb2dVertex
 10
205.573547
 20
-28.996872
 30
0.0
  0
VERTEX
  5
160
100
AcDbEntity
  8
0
370
     0
390
0
100
AcDbVertex
100
AcDb2dVertex
 10
205.684494
 20
-28.845575
 30
0.0
  0
VERTEX
  5
161
100
AcDbEntity
  8
0
370
     0
390
0
100
AcDbVertex
100
AcDb2dVertex
 10
205.866043
 20
-28.754797
 30
0.0
  0
VERTEX
  5
162
100
AcDbEntity
  8
0
370
     0
390
0
100
AcDbVertex
100
AcDb2dVertex
 10
206.123245
 20
-28.719494
 30
0.0
  0
VERTEX
  5
163
100
AcDbEntity
  8
0
370
     0
390
0
100
AcDbVertex
100
AcDb2dVertex
 10
206.370377
 20
-28.744711
 30
0.0
  0
VERTEX
  5
164
100
AcDbEntity
  8
0
370
     0
390
0
100
AcDbVertex
100
AcDb2dVertex
 10
206.54689
 20
-28.820358
 30
0.0
  0
VERTEX
  5
165
100
AcDbEntity
  8
0
370
     0
390
0
100
AcDbVertex
100
AcDb2dVertex
 10
206.652786
 20
-28.951483
 30
0.0
  0
VERTEX
  5
166
100
AcDbEntity
  8
0
370
     0
390
0
100
AcDbVertex
100
AcDb2dVertex
 10
206.688095
 20
-29.133039
 30
0.0
  0
VERTEX
  5
167
100
AcDbEntity
  8
0
370
     0
390
0
100
AcDbVertex
100
AcDb2dVertex
 10
206.667923
 20
-29.344854
 30
0.0
  0
VERTEX
  5
168
100
AcDbEntity
  8
0
370
     0
390
0
100
AcDbVertex
100
AcDb2dVertex
 10
206.587234
 20
-29.450762
 30
0.0
  0
VERTEX
  5
169
100
AcDbEntity
  8
0
370
     0
390
0
100
AcDbVertex
100
AcDb2dVertex
 10
206.385498
 20
-29.501194
 30
0.0
  0
VERTEX
  5
16A
100
AcDbEntity
  8
0
370
     0
390
0
100
AcDbVertex
100
AcDb2dVertex
 10
206.007263
 20
-29.54154
 30
0.0
  0
VERTEX
  5
16B
100
AcDbEntity
  8
0
370
     0
390
0
100
AcDbVertex
100
AcDb2dVertex
 10
205.573547
 20
-29.632318
 30
0.0
  0
VERTEX
  5
16C
100
AcDbEntity
  8
0
370
     0
390
0
100
AcDbVertex
100
AcDb2dVertex
 10
205.2659
 20
-29.793701
 30
0.0
  0
VERTEX
  5
16D
100
AcDbEntity
  8
0
370
     0
390
0
100
AcDbVertex
100
AcDb2dVertex
 10
205.084351
 20
-30.045864
 30
0.0
  0
VERTEX
  5
16E
100
AcDbEntity
  8
0
370
     0
390
0
100
AcDbVertex
100
AcDb2dVertex
 10
205.02887
 20
-30.419062
 30
0.0
  0
VERTEX
  5
16F
100
AcDbEntity
  8
0
370
     0
390
0
100
AcDbVertex
100
AcDb2dVertex
 10
205.0793
 20
-30.751915
 30
0.0
  0
VERTEX
  5
170
100
AcDbEntity
  8
0
370
     0
390
0
100
AcDbVertex
100
AcDb2dVertex
 10
205.235641
 20
-30.999033
 30
0.0
  0
VERTEX
  5
171
100
AcDbEntity
  8
0
370
     0
390
0
100
AcDbVertex
100
AcDb2dVertex
 10
205.487808
 20
-31.155375
 30
0.0
  0
VERTEX
  5
172
100
AcDbEntity
  8
0
370
     0
390
0
100
AcDbVertex
100
AcDb2dVertex
 10
205.835785
 20
-31.21085
 30
0.0
  0
VERTEX
  5
173
100
AcDbEntity
  8
0
370
     0
390
0
100
AcDbVertex
100
AcDb2dVertex
 10
206.30481
 20
-31.10494
 30
0.0
  0
SEQEND
  5
174
100
AcDbEntity
  8
0
370
     0
390
0
  0
POLYLINE
  5
175
100
AcDbEntity
  8
0
370
    13
390
0
 62
     7
100
AcDb2dPolyline
 66
     1
 10
0.0
 20
0.0
 30
0.0
 70
     1
 71
    14
  0
VERTEX
  5
176
100
AcDbEntity
  8
0
370
     0
390
0
100
AcDbVertex
100
AcDb2dVertex
 10
206.672958
 20
-30.18203
 30
0.0
  0
VERTEX
  5
177
100
AcDbEntity
  8
0
370
     0
390
0
100
AcDbVertex
100
AcDb2dVertex
 10
206.612442
 20
-30.444279
 30
0.0
  0
VERTEX
  5
178
100
AcDbEntity
  8
0
370
     0
390
0
100
AcDbVertex
100
AcDb2dVertex
 10
206.451065
 20
-30.646008
 30
0.0
  0
VERTEX
  5
179
100
AcDbEntity
  8
0
370
     0
390
0
100
AcDbVertex
100
AcDb2dVertex
 10
206.208984
 20
-30.777132
 30
0.0
  0
VERTEX
  5
17A
100
AcDbEntity
  8
0
370
     0
390
0
100
AcDbVertex
100
AcDb2dVertex
 10
205.911438
 20
-30.822521
 30
0.0
  0
VERTEX
  5
17B
100
AcDbEntity
  8
0
370
     0
390
0
100
AcDbVertex
100
AcDb2dVertex
 10
205.719788
 20
-30.797304
 30
0.0
  0
VERTEX
  5
17C
100
AcDbEntity
  8
0
370
     0
390
0
100
AcDbVertex
100
AcDb2dVertex
 10
205.583633
 20
-30.716612
 30
0.0
  0
VERTEX
  5
17D
100
AcDbEntity
  8
0
370
     0
390
0
100
AcDbVertex
100
AcDb2dVertex
 10
205.497894
 20
-30.575403
 30
0.0
  0
VERTEX
  5
17E
100
AcDbEntity
  8
0
370
     0
390
0
100
AcDbVertex
100
AcDb2dVertex
 10
205.472672
 20
-30.378717
 30
0.0
  0
VERTEX
  5
17F
100
AcDbEntity
  8
0
370
     0
390
0
100
AcDbVertex
100
AcDb2dVertex
 10
205.492844
 20
-30.202204
 30
0.0
  0
VERTEX
  5
180
100
AcDbEntity
  8
0
370
     0
390
0
100
AcDbVertex
100
AcDb2dVertex
 10
205.573547
 20
-30.076122
 30
0.0
  0
VERTEX
  5
181
100
AcDbEntity
  8
0
370
     0
390
0
100
AcDbVertex
100
AcDb2dVertex
 10
205.896301
 20
-29.934912
 30
0.0
  0
VERTEX
  5
182
100
AcDbEntity
  8
0
370
     0
390
0
100
AcDbVertex
100
AcDb2dVertex
 10
206.30481
 20
-29.874393
 30
0.0
  0
VERTEX
  5
183
100
AcDbEntity
  8
0
370
     0
390
0
100
AcDbVertex
100
AcDb2dVertex
 10
206.672958
 20
-29.753357
 30
0.0
  0
SEQEND
  5
184
100
AcDbEntity
  8
0
370
     0
390
0
  0
POLYLINE
  5
185
100
AcDbEntity
  8
0
370
    13
390
0
 62
     7
100
AcDb2dPolyline
 66
     1
 10
0.0
 20
0.0
 30
0.0
 70
     1
 71
    10
  0
VERTEX
  5
186
100
AcDbEntity
  8
0
370
     0
390
0
100
AcDbVertex
100
AcDb2dVertex
 10
209.033188
 20
-27.882318
 30
0.0
  0
VERTEX
  5
187
100
AcDbEntity
  8
0
370
     0
390
0
100
AcDbVertex
100
AcDb2dVertex
 10
209.033188
 20
-30.756958
 30
0.0
  0
VERTEX
  5
188
100
AcDbEntity
  8
0
370
     0
390
0
100
AcDbVertex
100
AcDb2dVertex
 10
208.120377
 20
-30.756958
 30
0.0
  0
VERTEX
  5
189
100
AcDbEntity
  8
0
370
     0
390
0
100
AcDbVertex
100
AcDb2dVertex
 10
208.120377
 20
-31.130157
 30
0.0
  0
VERTEX
  5
18A
100
AcDbEntity
  8
0
370
     0
390
0
100
AcDbVertex
100
AcDb2dVertex
 10
210.384781
 20
-31.130157
 30
0.0
  0
VERTEX
  5
18B
100
AcDbEntity
  8
0
370
     0
390
0
100
AcDbVertex
100
AcDb2dVertex
 10
210.384781
 20
-30.756958
 30
0.0
  0
VERTEX
  5
18C
100
AcDbEntity
  8
0
370
     0
390
0
100
AcDbVertex
100
AcDb2dVertex
 10
209.477005
 20
-30.756958
 30
0.0
  0
VERTEX
  5
18D
100
AcDbEntity
  8
0
370
     0
390
0
100
AcDbVertex
100
AcDb2dVertex
 10
209.477005
 20
-27.509121
 30
0.0
  0
VERTEX
  5
18E
100
AcDbEntity
  8
0
370
     0
390
0
100
AcDbVertex
100
AcDb2dVertex
 10
208.337234
 20
-27.509121
 30
0.0
  0
VERTEX
  5
18F
100
AcDbEntity
  8
0
370
     0
390
0
100
AcDbVertex
100
AcDb2dVertex
 10
208.337234
 20
-27.882318
 30
0.0
  0
SEQEND
  5
190
100
AcDbEntity
  8
0
370
     0
390
0
  0
POLYLINE
  5
191
100
AcDbEntity
  8
0
370
    13
390
0
 62
     7
100
AcDb2dPolyline
 66
     1
 10
0.0
 20
0.0
 30
0.0
 70
     1
 71
    27
  0
VERTEX
  5
192
100
AcDbEntity
  8
0
370
     0
390
0
100
AcDbVertex
100
AcDb2dVertex
 10
211.574982
 20
-29.904654
 30
0.0
  0
VERTEX
  5
193
100
AcDbEntity
  8
0
370
     0
390
0
100
AcDbVertex
100
AcDb2dVertex
 10
213.350189
 20
-29.904654
 30
0.0
  0
VERTEX
  5
194
100
AcDbEntity
  8
0
370
     0
390
0
100
AcDbVertex
100
AcDb2dVertex
 10
213.35524
 20
-29.697882
 30
0.0
  0
VERTEX
  5
195
100
AcDbEntity
  8
0
370
     0
390
0
100
AcDbVertex
100
AcDb2dVertex
 10
213.274551
 20
-29.11791
 30
0.0
  0
VERTEX
  5
196
100
AcDbEntity
  8
0
370
     0
390
0
100
AcDbVertex
100
AcDb2dVertex
 10
213.052643
 20
-28.684193
 30
0.0
  0
VERTEX
  5
197
100
AcDbEntity
  8
0
370
     0
390
0
100
AcDbVertex
100
AcDb2dVertex
 10
212.699615
 20
-28.421944
 30
0.0
  0
VERTEX
  5
198
100
AcDbEntity
  8
0
370
     0
390
0
100
AcDbVertex
100
AcDb2dVertex
 10
212.230606
 20
-28.326122
 30
0.0
  0
VERTEX
  5
199
100
AcDbEntity
  8
0
370
     0
390
0
100
AcDbVertex
100
AcDb2dVertex
 10
211.771667
 20
-28.426987
 30
0.0
  0
VERTEX
  5
19A
100
AcDbEntity
  8
0
370
     0
390
0
100
AcDbVertex
100
AcDb2dVertex
 10
211.41864
 20
-28.709408
 30
0.0
  0
VERTEX
  5
19B
100
AcDbEntity
  8
0
370
     0
390
0
100
AcDbVertex
100
AcDb2dVertex
 10
211.191696
 20
-29.168343
 30
0.0
  0
VERTEX
  5
19C
100
AcDbEntity
  8
0
370
     0
390
0
100
AcDbVertex
100
AcDb2dVertex
 10
211.111008
 20
-29.773529
 30
0.0
  0
VERTEX
  5
19D
100
AcDbEntity
  8
0
370
     0
390
0
100
AcDbVertex
100
AcDb2dVertex
 10
211.186646
 20
-30.393847
 30
0.0
  0
VERTEX
  5
19E
100
AcDbEntity
  8
0
370
     0
390
0
100
AcDbVertex
100
AcDb2dVertex
 10
211.413605
 20
-30.847736
 30
0.0
  0
VERTEX
  5
19F
100
AcDbEntity
  8
0
370
     0
390
0
100
AcDbVertex
100
AcDb2dVertex
 10
211.761581
 20
-31.130157
 30
0.0
  0
VERTEX
  5
1A0
100
AcDbEntity
  8
0
370
     0
390
0
100
AcDbVertex
100
AcDb2dVertex
 10
212.215469
 20
-31.225979
 30
0.0
  0
VERTEX
  5
1A1
100
AcDbEntity
  8
0
370
     0
390
0
100
AcDbVertex
100
AcDb2dVertex
 10
212.608841
 20
-31.160418
 30
0.0
  0
VERTEX
  5
1A2
100
AcDbEntity
  8
0
370
     0
390
0
100
AcDbVertex
100
AcDb2dVertex
 10
212.93161
 20
-30.988947
 30
0.0
  0
VERTEX
  5
1A3
100
AcDbEntity
  8
0
370
     0
390
0
100
AcDbVertex
100
AcDb2dVertex
 10
213.16864
 20
-30.716612
 30
0.0
  0
VERTEX
  5
1A4
100
AcDbEntity
  8
0
370
     0
390
0
100
AcDbVertex
100
AcDb2dVertex
 10
213.30481
 20
-30.3535
 30
0.0
  0
VERTEX
  5
1A5
100
AcDbEntity
  8
0
370
     0
390
0
100
AcDbVertex
100
AcDb2dVertex
 10
212.866043
 20
-30.3535
 30
0.0
  0
VERTEX
  5
1A6
100
AcDbEntity
  8
0
370
     0
390
0
100
AcDbVertex
100
AcDb2dVertex
 10
212.775269
 20
-30.555229
 30
0.0
  0
VERTEX
  5
1A7
100
AcDbEntity
  8
0
370
     0
390
0
100
AcDbVertex
100
AcDb2dVertex
 10
212.64415
 20
-30.706526
 30
0.0
  0
VERTEX
  5
1A8
100
AcDbEntity
  8
0
370
     0
390
0
100
AcDbVertex
100
AcDb2dVertex
 10
212.27095
 20
-30.827564
 30
0.0
  0
VERTEX
  5
1A9
100
AcDbEntity
  8
0
370
     0
390
0
100
AcDbVertex
100
AcDb2dVertex
 10
211.98349
 20
-30.772089
 30
0.0
  0
VERTEX
  5
1AA
100
AcDbEntity
  8
0
370
     0
390
0
100
AcDbVertex
100
AcDb2dVertex
 10
211.766617
 20
-30.595575
 30
0.0
  0
VERTEX
  5
1AB
100
AcDbEntity
  8
0
370
     0
390
0
100
AcDbVertex
100
AcDb2dVertex
 10
211.625412
 20
-30.308111
 30
0.0
  0
VERTEX
  5
1AC
100
AcDbEntity
  8
0
370
     0
390
0
100
AcDbVertex
100
AcDb2dVertex
 10
211.574982
 20
-29.919783
 30
0.0
  0
SEQEND
  5
1AD
100
AcDbEntity
  8
0
370
     0
390
0
  0
POLYLINE
  5
1AE
100
AcDbEntity
  8
0
370
    13
390
0
 62
     7
100
AcDb2dPolyline
 66
     1
 10
0.0
 20
0.0
 30
0.0
 70
     1
 71
     9
  0
VERTEX
  5
1AF
100
AcDbEntity
  8
0
370
     0
390
0
100
AcDbVertex
100
AcDb2dVertex
 10
211.574982
 20
-29.531454
 30
0.0
  0
VERTEX
  5
1B0
100
AcDbEntity
  8
0
370
     0
390
0
100
AcDbVertex
100
AcDb2dVertex
 10
211.630463
 20
-29.183472
 30
0.0
  0
VERTEX
  5
1B1
100
AcDbEntity
  8
0
370
     0
390
0
100
AcDbVertex
100
AcDb2dVertex
 10
211.766617
 20
-28.926268
 30
0.0
  0
VERTEX
  5
1B2
100
AcDbEntity
  8
0
370
     0
390
0
100
AcDbVertex
100
AcDb2dVertex
 10
211.973389
 20
-28.769928
 30
0.0
  0
VERTEX
  5
1B3
100
AcDbEntity
  8
0
370
     0
390
0
100
AcDbVertex
100
AcDb2dVertex
 10
212.245728
 20
-28.714451
 30
0.0
  0
VERTEX
  5
1B4
100
AcDbEntity
  8
0
370
     0
390
0
100
AcDbVertex
100
AcDb2dVertex
 10
212.513016
 20
-28.769928
 30
0.0
  0
VERTEX
  5
1B5
100
AcDbEntity
  8
0
370
     0
390
0
100
AcDbVertex
100
AcDb2dVertex
 10
212.719788
 20
-28.926268
 30
0.0
  0
VERTEX
  5
1B6
100
AcDbEntity
  8
0
370
     0
390
0
100
AcDbVertex
100
AcDb2dVertex
 10
212.845871
 20
-29.183472
 30
0.0
  0
VERTEX
  5
1B7
100
AcDbEntity
  8
0
370
     0
390
0
100
AcDbVertex
100
AcDb2dVertex
 10
212.891266
 20
-29.531454
 30
0.0
  0
SEQEND
  5
1B8
100
AcDbEntity
  8
0
370
     0
390
0
  0
POLYLINE
  5
1B9
100
AcDbEntity
  8
0
370
    13
390
0
 62
     7
100
AcDb2dPolyline
 66
     1
 10
0.0
 20
0.0
 30
0.0
 70
     1
 71
     4
  0
VERTEX
  5
1BA
100
AcDbEntity
  8
0
370
     0
390
0
100
AcDbVertex
100
AcDb2dVertex
 10
214.91864
 20
-31.130157
 30
0.0
  0
VERTEX
  5
1BB
100
AcDbEntity
  8
0
370
     0
390
0
100
AcDbVertex
100
AcDb2dVertex
 10
215.614609
 20
-31.130157
 30
0.0
  0
VERTEX
  5
1BC
100
AcDbEntity
  8
0
370
     0
390
0
100
AcDbVertex
100
AcDb2dVertex
 10
215.614609
 20
-30.378717
 30
0.0
  0
VERTEX
  5
1BD
100
AcDbEntity
  8
0
370
     0
390
0
100
AcDbVertex
100
AcDb2dVertex
 10
214.91864
 20
-30.378717
 30
0.0
  0
SEQEND
  5
1BE
100
AcDbEntity
  8
0
370
     0
390
0
  0
POLYLINE
  5
1BF
100
AcDbEntity
  8
0
370
    13
390
0
 62
     7
100
AcDb2dPolyline
 66
     1
 10
0.0
 20
0.0
 30
0.0
 70
     1
 71
     4
  0
VERTEX
  5
1C0
100
AcDbEntity
  8
0
370
     0
390
0
100
AcDbVertex
100
AcDb2dVertex
 10
214.91864
 20
-29.173386
 30
0.0
  0
VERTEX
  5
1C1
100
AcDbEntity
  8
0
370
     0
390
0
100
AcDbVertex
100
AcDb2dVertex
 10
215.614609
 20
-29.173386
 30
0.0
  0
VERTEX
  5
1C2
100
AcDbEntity
  8
0
370
     0
390
0
100
AcDbVertex
100
AcDb2dVertex
 10
215.614609
 20
-28.421944
 30
0.0
  0
VERTEX
  5
1C3
100
AcDbEntity
  8
0
370
     0
390
0
100
AcDbVertex
100
AcDb2dVertex
 10
214.91864
 20
-28.421944
 30
0.0
  0
SEQEND
  5
1C4
100
AcDbEntity
  8
0
370
     0
390
0
  0
POLYLINE
  5
1C5
100
AcDbEntity
  8
0
370
    13
390
0
 62
     7
100
AcDb2dPolyline
 66
     1
 10
0.0
 20
0.0
 30
0.0
 70
     1
 71
    10
  0
VERTEX
  5
1C6
100
AcDbEntity
  8
0
370
     0
390
0
100
AcDbVertex
100
AcDb2dVertex
 10
224.28392
 20
-31.130157
 30
0.0
  0
VERTEX
  5
1C7
100
AcDbEntity
  8
0
370
     0
390
0
100
AcDbVertex
100
AcDb2dVertex
 10
224.742844
 20
-31.130157
 30
0.0
  0
VERTEX
  5
1C8
100
AcDbEntity
  8
0
370
     0
390
0
100
AcDbVertex
100
AcDb2dVertex
 10
224.742844
 20
-27.604942
 30
0.0
  0
VERTEX
  5
1C9
100
AcDbEntity
  8
0
370
     0
390
0
100
AcDbVertex
100
AcDb2dVertex
 10
224.399902
 20
-27.604942
 30
0.0
  0
VERTEX
  5
1CA
100
AcDbEntity
  8
0
370
     0
390
0
100
AcDbVertex
100
AcDb2dVertex
 10
224.309128
 20
-27.912579
 30
0.0
  0
VERTEX
  5
1CB
100
AcDbEntity
  8
0
370
     0
390
0
100
AcDbVertex
100
AcDb2dVertex
 10
224.127579
 20
-28.11935
 30
0.0
  0
VERTEX
  5
1CC
100
AcDbEntity
  8
0
370
     0
390
0
100
AcDbVertex
100
AcDb2dVertex
 10
223.850189
 20
-28.240387
 30
0.0
  0
VERTEX
  5
1CD
100
AcDbEntity
  8
0
370
     0
390
0
100
AcDbVertex
100
AcDb2dVertex
 10
223.466919
 20
-28.280733
 30
0.0
  0
VERTEX
  5
1CE
100
AcDbEntity
  8
0
370
     0
390
0
100
AcDbVertex
100
AcDb2dVertex
 10
223.466919
 20
-28.638803
 30
0.0
  0
VERTEX
  5
1CF
100
AcDbEntity
  8
0
370
     0
390
0
100
AcDbVertex
100
AcDb2dVertex
 10
224.28392
 20
-28.638803
 30
0.0
  0
SEQEND
  5
1D0
100
AcDbEntity
  8
0
370
     0
390
0
  0
POLYLINE
  5
1D1
100
AcDbEntity
  8
0
370
    13
390
0
 62
     7
100
AcDb2dPolyline
 66
     1
 10
0.0
 20
0.0
 30
0.0
 70
     1
 71
     4
  0
VERTEX
  5
1D2
100
AcDbEntity
  8
0
370
     0
390
0
100
AcDbVertex
100
AcDb2dVertex
 10
227.062729
 20
-31.130157
 30
0.0
  0
VERTEX
  5
1D3
100
AcDbEntity
  8
0
370
     0
390
0
100
AcDbVertex
100
AcDb2dVertex
 10
227.758698
 20
-31.130157
 30
0.0
  0
VERTEX
  5
1D4
100
AcDbEntity
  8
0
370
     0
390
0
100
AcDbVertex
100
AcDb2dVertex
 10
227.758698
 20
-30.378717
 30
0.0
  0
VERTEX
  5
1D5
100
AcDbEntity
  8
0
370
     0
390
0
100
AcDbVertex
100
AcDb2dVertex
 10
227.062729
 20
-30.378717
 30
0.0
  0
SEQEND
  5
1D6
100
AcDbEntity
  8
0
370
     0
390
0
  0
POLYLINE
  5
1D7
100
AcDbEntity
  8
0
370
    13
390
0
 62
     7
100
AcDb2dPolyline
 66
     1
 10
0.0
 20
0.0
 30
0.0
 70
     1
 71
     4
  0
VERTEX
  5
1D8
100
AcDbEntity
  8
0
370
     0
390
0
100
AcDbVertex
100
AcDb2dVertex
 10
227.062729
 20
-29.173386
 30
0.0
  0
VERTEX
  5
1D9
100
AcDbEntity
  8
0
370
     0
390
0
100
AcDbVertex
100
AcDb2dVertex
 10
227.758698
 20
-29.173386
 30
0.0
  0
VERTEX
  5
1DA
100
AcDbEntity
  8
0
370
     0
390
0
100
AcDbVertex
100
AcDb2dVertex
 10
227.758698
 20
-28.421944
 30
0.0
  0
VERTEX
  5
1DB
100
AcDbEntity
  8
0
370
     0
390
0
100
AcDbVertex
100
AcDb2dVertex
 10
227.062729
 20
-28.421944
 30
0.0
  0
SEQEND
  5
1DC
100
AcDbEntity
  8
0
370
     0
390
0
  0
POLYLINE
  5
1DD
100
AcDbEntity
  8
0
370
    13
390
0
 62
     7
100
AcDb2dPolyline
 66
     1
 10
0.0
 20
0.0
 30
0.0
 70
     1
 71
    10
  0
VERTEX
  5
1DE
100
AcDbEntity
  8
0
370
     0
390
0
100
AcDbVertex
100
AcDb2dVertex
 10
230.355957
 20
-31.130157
 30
0.0
  0
VERTEX
  5
1DF
100
AcDbEntity
  8
0
370
     0
390
0
100
AcDbVertex
100
AcDb2dVertex
 10
230.814896
 20
-31.130157
 30
0.0
  0
VERTEX
  5
1E0
100
AcDbEntity
  8
0
370
     0
390
0
100
AcDbVertex
100
AcDb2dVertex
 10
230.814896
 20
-27.604942
 30
0.0
  0
VERTEX
  5
1E1
100
AcDbEntity
  8
0
370
     0
390
0
100
AcDbVertex
100
AcDb2dVertex
 10
230.471954
 20
-27.604942
 30
0.0
  0
VERTEX
  5
1E2
100
AcDbEntity
  8
0
370
     0
390
0
100
AcDbVertex
100
AcDb2dVertex
 10
230.38118
 20
-27.912579
 30
0.0
  0
VERTEX
  5
1E3
100
AcDbEntity
  8
0
370
     0
390
0
100
AcDbVertex
100
AcDb2dVertex
 10
230.199615
 20
-28.11935
 30
0.0
  0
VERTEX
  5
1E4
100
AcDbEntity
  8
0
370
     0
390
0
100
AcDbVertex
100
AcDb2dVertex
 10
229.922241
 20
-28.240387
 30
0.0
  0
VERTEX
  5
1E5
100
AcDbEntity
  8
0
370
     0
390
0
100
AcDbVertex
100
AcDb2dVertex
 10
229.538956
 20
-28.280733
 30
0.0
  0
VERTEX
  5
1E6
100
AcDbEntity
  8
0
370
     0
390
0
100
AcDbVertex
100
AcDb2dVertex
 10
229.538956
 20
-28.638803
 30
0.0
  0
VERTEX
  5
1E7
100
AcDbEntity
  8
0
370
     0
390
0
100
AcDbVertex
100
AcDb2dVertex
 10
230.355957
 20
-28.638803
 30
0.0
  0
SEQEND
  5
1E8
100
AcDbEntity
  8
0
370
     0
390
0
  0
ARC
  5
1E9
100
AcDbEntity
  8
0
370
    35
390
0
 62
     7
100
AcDbCircle
 10
135.446533
 20
-10.655502
 30
0.0
 40
174.598948
210
0.0
220
0.0
230
1.0
100
AcDbArc
 50
93.339063
 51
95.901607
  0
LINE
  5
1EA
100
AcDbEntity
  8
0
370
    35
390
0
 62
     7
 48
0.242395
100
AcDbLine
 10
125.277039
 20
163.647583
 30
0.0
 11
125.277039
 21
153.951797
 31
0.0
210
0.0
220
0.0
230
1.0
  0
LINE
  5
1EB
100
AcDbEntity
  8
0
370
    35
390
0
 62
     7
 48
0.0125
100
AcDbLine
 10
125.277039
 20
153.951797
 30
0.0
 11
125.777039
 21
153.951797
 31
0.0
210
0.0
220
0.0
230
1.0
  0
LINE
  5
1EC
100
AcDbEntity
  8
0
370
    35
390
0
 62
     7
 48
0.002185
100
AcDbLine
 10
125.777039
 20
153.951797
 30
0.0
 11
125.864426
 21
153.951797
 31
0.0
210
0.0
220
0.0
230
1.0
  0
POLYLINE
  5
1ED
100
AcDbEntity
  8
0
370
    35
390
0
 62
     7
100
AcDb2dPolyline
 66
     1
 10
0.0
 20
0.0
 30
0.0
 71
    11
  0
VERTEX
  5
1EE
100
AcDbEntity
  8
0
370
     0
390
0
100
AcDbVertex
100
AcDb2dVertex
 10
126.277039
 20
163.704681
 30
0.0
  0
VERTEX
  5
1EF
100
AcDbEntity
  8
0
370
     0
390
0
100
AcDbVertex
100
AcDb2dVertex
 10
129.365906
 20
163.851379
 30
0.0
  0
VERTEX
  5
1F0
100
AcDbEntity
  8
0
370
     0
390
0
100
AcDbVertex
100
AcDb2dVertex
 10
132.456055
 20
163.956131
 30
0.0
  0
VERTEX
  5
1F1
100
AcDbEntity
  8
0
370
     0
390
0
100
AcDbVertex
100
AcDb2dVertex
 10
137.577896
 20
164.045013
 30
0.0
  0
VERTEX
  5
1F2
100
AcDbEntity
  8
0
370
     0
390
0
100
AcDbVertex
100
AcDb2dVertex
 10
142.700836
 20
164.039108
 30
0.0
  0
VERTEX
  5
1F3
100
AcDbEntity
  8
0
370
     0
390
0
100
AcDbVertex
100
AcDb2dVertex
 10
147.82283
 20
163.95015
 30
0.0
  0
VERTEX
  5
1F4
100
AcDbEntity
  8
0
370
     0
390
0
100
AcDbVertex
100
AcDb2dVertex
 10
152.124893
 20
163.818787
 30
0.0
  0
VERTEX
  5
1F5
100
AcDbEntity
  8
0
370
     0
390
0
100
AcDbVertex
100
AcDb2dVertex
 10
156.425293
 20
163.640762
 30
0.0
  0
VERTEX
  5
1F6
100
AcDbEntity
  8
0
370
     0
390
0
100
AcDbVertex
100
AcDb2dVertex
 10
160.613998
 20
163.424774
 30
0.0
  0
VERTEX
  5
1F7
100
AcDbEntity
  8
0
370
     0
390
0
100
AcDbVertex
100
AcDb2dVertex
 10
164.800476
 20
163.16806
 30
0.0
  0
VERTEX
  5
1F8
100
AcDbEntity
  8
0
370
     0
390
0
100
AcDbVertex
100
AcDb2dVertex
 10
173.165253
 20
162.538086
 30
0.0
  0
SEQEND
  5
1F9
100
AcDbEntity
  8
0
370
     0
390
0
  0
POLYLINE
  5
1FA
100
AcDbEntity
  8
0
370
    35
390
0
 62
     7
100
AcDb2dPolyline
 66
     1
 10
0.0
 20
0.0
 30
0.0
 71
    23
  0
VERTEX
  5
1FB
100
AcDbEntity
  8
0
370
     0
390
0
100
AcDbVertex
100
AcDb2dVertex
 10
330.554077
 20
133.136429
 30
0.0
  0
VERTEX
  5
1FC
100
AcDbEntity
  8
0
370
     0
390
0
100
AcDbVertex
100
AcDb2dVertex
 10
327.954315
 20
133.661545
 30
0.0
  0
VERTEX
  5
1FD
100
AcDbEntity
  8
0
370
     0
390
0
100
AcDbVertex
100
AcDb2dVertex
 10
326.22641
 20
134.03714
 30
0.0
  0
VERTEX
  5
1FE
100
AcDbEntity
  8
0
370
     0
390
0
100
AcDbVertex
100
AcDb2dVertex
 10
322.77887
 20
134.824936
 30
0.0
  0
VERTEX
  5
1FF
100
AcDbEntity
  8
0
370
     0
390
0
100
AcDbVertex
100
AcDb2dVertex
 10
319.847473
 20
135.518509
 30
0.0
  0
VERTEX
  5
200
100
AcDbEntity
  8
0
370
     0
390
0
100
AcDbVertex
100
AcDb2dVertex
 10
311.069061
 20
137.661804
 30
0.0
  0
VERTEX
  5
201
100
AcDbEntity
  8
0
370
     0
390
0
100
AcDbVertex
100
AcDb2dVertex
 10
297.911591
 20
140.917297
 30
0.0
  0
VERTEX
  5
202
100
AcDbEntity
  8
0
370
     0
390
0
100
AcDbVertex
100
AcDb2dVertex
 10
287.523224
 20
143.439636
 30
0.0
  0
VERTEX
  5
203
100
AcDbEntity
  8
0
370
     0
390
0
100
AcDbVertex
100
AcDb2dVertex
 10
282.32724
 20
144.668762
 30
0.0
  0
VERTEX
  5
204
100
AcDbEntity
  8
0
370
     0
390
0
100
AcDbVertex
100
AcDb2dVertex
 10
272.415222
 20
146.92894
 30
0.0
  0
VERTEX
  5
205
100
AcDbEntity
  8
0
370
     0
390
0
100
AcDbVertex
100
AcDb2dVertex
 10
262.475922
 20
149.065826
 30
0.0
  0
VERTEX
  5
206
100
AcDbEntity
  8
0
370
     0
390
0
100
AcDbVertex
100
AcDb2dVertex
 10
255.734848
 20
150.439087
 30
0.0
  0
VERTEX
  5
207
100
AcDbEntity
  8
0
370
     0
390
0
100
AcDbVertex
100
AcDb2dVertex
 10
248.982254
 20
151.754501
 30
0.0
  0
VERTEX
  5
208
100
AcDbEntity
  8
0
370
     0
390
0
100
AcDbVertex
100
AcDb2dVertex
 10
239.69606
 20
153.468933
 30
0.0
  0
VERTEX
  5
209
100
AcDbEntity
  8
0
370
     0
390
0
100
AcDbVertex
100
AcDb2dVertex
 10
230.392044
 20
155.084503
 30
0.0
  0
VERTEX
  5
20A
100
AcDbEntity
  8
0
370
     0
390
0
100
AcDbVertex
100
AcDb2dVertex
 10
221.072296
 20
156.606033
 30
0.0
  0
VERTEX
  5
20B
100
AcDbEntity
  8
0
370
     0
390
0
100
AcDbVertex
100
AcDb2dVertex
 10
211.204681
 20
158.106171
 30
0.0
  0
VERTEX
  5
20C
100
AcDbEntity
  8
0
370
     0
390
0
100
AcDbVertex
100
AcDb2dVertex
 10
201.720062
 20
159.422272
 30
0.0
  0
VERTEX
  5
20D
100
AcDbEntity
  8
0
370
     0
390
0
100
AcDbVertex
100
AcDb2dVertex
 10
192.217941
 20
160.605499
 30
0.0
  0
VERTEX
  5
20E
100
AcDbEntity
  8
0
370
     0
390
0
100
AcDbVertex
100
AcDb2dVertex
 10
187.135376
 20
161.180832
 30
0.0
  0
VERTEX
  5
20F
100
AcDbEntity
  8
0
370
     0
390
0
100
AcDbVertex
100
AcDb2dVertex
 10
182.048294
 20
161.714813
 30
0.0
  0
VERTEX
  5
210
100
AcDbEntity
  8
0
370
     0
390
0
100
AcDbVertex
100
AcDb2dVertex
 10
177.608459
 20
162.144623
 30
0.0
  0
VERTEX
  5
211
100
AcDbEntity
  8
0
370
     0
390
0
100
AcDbVertex
100
AcDb2dVertex
 10
173.165253
 20
162.538086
 30
0.0
  0
SEQEND
  5
212
100
AcDbEntity
  8
0
370
     0
390
0
  0
LINE
  5
213
100
AcDbEntity
  8
0
370
    35
390
0
 62
     7
 48
0.005426
100
AcDbLine
 10
330.767334
 20
133.096085
 30
0.0
 11
330.554077
 21
133.136429
 31
0.0
210
0.0
220
0.0
230
1.0
  0
ARC
  5
214
100
AcDbEntity
  8
0
370
    35
390
0
 62
     7
100
AcDbCircle
 10
250.423721
 20
146.571655
 30
0.0
 40
1.159982
210
0.0
220
0.0
230
1.0
100
AcDbArc
 50
170.783443
 51
206.940174
  0
ARC
  5
215
100
AcDbEntity
  8
0
370
    35
390
0
 62
     7
100
AcDbCircle
 10
251.275955
 20
147.015854
 30
0.0
 40
2.121147
210
0.0
220
0.0
230
1.0
100
AcDbArc
 50
207.20707
 51
230.014028
  0
LINE
  5
216
100
AcDbEntity
  8
0
370
    35
390
0
 62
     7
 48
0.082523
100
AcDbLine
 10
249.912888
 20
145.390579
 30
0.0
 11
252.441544
 21
143.268768
 31
0.0
210
0.0
220
0.0
230
1.0
  0
ARC
  5
217
100
AcDbEntity
  8
0
370
    35
390
0
 62
     7
100
AcDbCircle
 10
253.786819
 20
144.860291
 30
0.0
 40
2.083625
210
0.0
220
0.0
230
1.0
100
AcDbArc
 50
229.79303
 51
259.794479
  0
ARC
  5
218
100
AcDbEntity
  8
0
370
    35
390
0
 62
     7
100
AcDbCircle
 10
253.608078
 20
143.960983
 30
0.0
 40
1.167611
210
0.0
220
0.0
230
1.0
100
AcDbArc
 50
260.608371
 51
347.502088
  0
ARC
  5
219
100
AcDbEntity
  8
0
370
    35
390
0
 62
     7
100
AcDbCircle
 10
252.676407
 20
144.17131
 30
0.0
 40
2.123197
210
0.0
220
0.0
230
1.0
100
AcDbArc
 50
347.401773
 51
354.280203
  0
ARC
  5
21A
100
AcDbEntity
  8
0
370
    35
390
0
 62
     7
100
AcDbCircle
 10
233.768204
 20
144.029068
 30
0.0
 40
1.777325
210
0.0
220
0.0
230
1.0
100
AcDbArc
 50
148.05797
 51
267.365081
  0
LINE
  5
21B
100
AcDbEntity
  8
0
370
    35
390
0
 62
     7
 48
0.272909
100
AcDbLine
 10
244.591232
 20
141.749741
 30
0.0
 11
233.686493
 21
142.253601
 31
0.0
210
0.0
220
0.0
230
1.0
  0
ARC
  5
21C
100
AcDbEntity
  8
0
370
    35
390
0
 62
     7
100
AcDbCircle
 10
244.673782
 20
143.526199
 30
0.0
 40
1.778366
210
0.0
220
0.0
230
1.0
100
AcDbArc
 50
267.339372
 51
344.342884
  0
ARC
  5
21D
100
AcDbEntity
  8
0
370
    35
390
0
 62
     7
100
AcDbCircle
 10
213.714828
 20
152.369812
 30
0.0
 40
1.767714
210
0.0
220
0.0
230
1.0
100
AcDbArc
 50
124.324128
 51
218.676747
  0
ARC
  5
21E
100
AcDbEntity
  8
0
370
    35
390
0
 62
     7
100
AcDbCircle
 10
214.285309
 20
152.830826
 30
0.0
 40
2.500641
210
0.0
220
0.0
230
1.0
100
AcDbArc
 50
218.754884
 51
230.001679
  0
LINE
  5
21F
100
AcDbEntity
  8
0
370
    35
390
0
 62
     7
 48
0.244696
100
AcDbLine
 10
212.677979
 20
150.915176
 30
0.0
 11
220.175888
 21
144.623688
 31
0.0
210
0.0
220
0.0
230
1.0
  0
ARC
  5
220
100
AcDbEntity
  8
0
370
    35
390
0
 62
     7
100
AcDbCircle
 10
228.035355
 20
153.99054
 30
0.0
 40
12.227386
210
0.0
220
0.0
230
1.0
100
AcDbArc
 50
230.000846
 51
232.471352
  0
ARC
  5
221
100
AcDbEntity
  8
0
370
    35
390
0
 62
     7
100
AcDbCircle
 10
222.745346
 20
147.1026
 30
0.0
 40
3.54237
210
0.0
220
0.0
230
1.0
100
AcDbArc
 50
232.461572
 51
294.920004
  0
ARC
  5
222
100
AcDbEntity
  8
0
370
    35
390
0
 62
     7
100
AcDbCircle
 10
222.129944
 20
148.423004
 30
0.0
 40
4.99912
210
0.0
220
0.0
230
1.0
100
AcDbArc
 50
294.940146
 51
301.11448
  0
LINE
  5
223
100
AcDbEntity
  8
0
370
    35
390
0
 62
     7
 48
0.193777
100
AcDbLine
 10
231.349319
 20
148.148254
 30
0.0
 11
224.713226
 21
144.143066
 31
0.0
210
0.0
220
0.0
230
1.0
  0
ARC
  5
224
100
AcDbEntity
  8
0
370
    35
390
0
 62
     7
100
AcDbCircle
 10
230.431595
 20
149.670837
 30
0.0
 40
1.777755
210
0.0
220
0.0
230
1.0
100
AcDbArc
 50
301.078731
 51
323.509281
  0
ARC
  5
225
100
AcDbEntity
  8
0
370
    35
390
0
 62
     7
100
AcDbCircle
 10
201.829926
 20
151.440292
 30
0.0
 40
3.552342
210
0.0
220
0.0
230
1.0
100
AcDbArc
 50
116.69441
 51
121.125304
  0
LINE
  5
226
100
AcDbEntity
  8
0
370
    35
390
0
 62
     7
 48
0.327882
100
AcDbLine
 10
188.765915
 20
147.702789
 30
0.0
 11
199.993683
 21
154.481232
 31
0.0
210
0.0
220
0.0
230
1.0
  0
ARC
  5
227
100
AcDbEntity
  8
0
370
    35
390
0
 62
     7
100
AcDbCircle
 10
190.068665
 20
145.54538
 30
0.0
 40
2.520222
210
0.0
220
0.0
230
1.0
100
AcDbArc
 50
121.125578
 51
134.96085
  0
ARC
  5
228
100
AcDbEntity
  8
0
370
    35
390
0
 62
     7
100
AcDbCircle
 10
189.540436
 20
146.080231
 30
0.0
 40
1.769265
210
0.0
220
0.0
230
1.0
100
AcDbArc
 50
135.096402
 51
264.123508
  0
ARC
  5
229
100
AcDbEntity
  8
0
370
    35
390
0
 62
     7
100
AcDbCircle
 10
189.980026
 20
150.302536
 30
0.0
 40
6.014475
210
0.0
220
0.0
230
1.0
100
AcDbArc
 50
264.076092
 51
267.080037
  0
ARC
  5
22A
100
AcDbEntity
  8
0
370
    35
390
0
 62
     7
100
AcDbCircle
 10
463.875336
 20
5554.943359
 30
0.0
 40
5417.59135
210
0.0
220
0.0
230
1.0
100
AcDbArc
 50
267.098834
 51
267.336381
  0
ARC
  5
22B
100
AcDbEntity
  8
0
370
    35
390
0
 62
     7
100
AcDbCircle
 10
212.226044
 20
145.72403
 30
0.0
 40
2.52206
210
0.0
220
0.0
230
1.0
100
AcDbArc
 50
267.318438
 51
275.244217
  0
ARC
  5
22C
100
AcDbEntity
  8
0
370
    35
390
0
 62
     7
100
AcDbCircle
 10
212.296616
 20
144.975235
 30
0.0
 40
1.769891
210
0.0
220
0.0
230
1.0
100
AcDbArc
 50
275.185033
 51
309.919523
  0
ARC
  5
22D
100
AcDbEntity
  8
0
370
    35
390
0
 62
     7
100
AcDbCircle
 10
165.666397
 20
157.806091
 30
0.0
 40
1.760809
210
0.0
220
0.0
230
1.0
100
AcDbArc
 50
106.832211
 51
214.696209
  0
ARC
  5
22E
100
AcDbEntity
  8
0
370
    35
390
0
 62
     7
100
AcDbCircle
 10
166.288437
 20
158.246246
 30
0.0
 40
2.522048
210
0.0
220
0.0
230
1.0
100
AcDbArc
 50
214.873616
 51
230.004274
  0
LINE
  5
22F
100
AcDbEntity
  8
0
370
    35
390
0
 62
     7
 48
0.369637
100
AcDbLine
 10
164.667435
 20
156.314117
 30
0.0
 11
175.993774
 21
146.810196
 31
0.0
210
0.0
220
0.0
230
1.0
  0
ARC
  5
230
100
AcDbEntity
  8
0
370
    35
390
0
 62
     7
100
AcDbCircle
 10
183.654434
 20
155.940369
 30
0.0
 40
11.918295
210
0.0
220
0.0
230
1.0
100
AcDbArc
 50
230.001706
 51
233.164261
  0
ARC
  5
231
100
AcDbEntity
  8
0
370
    35
390
0
 62
     7
100
AcDbCircle
 10
178.628571
 20
149.229187
 30
0.0
 40
3.533705
210
0.0
220
0.0
230
1.0
100
AcDbArc
 50
233.147705
 51
292.594625
  0
LINE
  5
232
100
AcDbEntity
  8
0
370
    35
390
0
 62
     7
 48
0.001092
100
AcDbLine
 10
180.026474
 20
145.983734
 30
0.0
 11
179.986221
 21
145.966766
 31
0.0
210
0.0
220
0.0
230
1.0
  0
ARC
  5
233
100
AcDbEntity
  8
0
370
    35
390
0
 62
     7
100
AcDbCircle
 10
155.052292
 20
155.807724
 30
0.0
 40
3.547735
210
0.0
220
0.0
230
1.0
100
AcDbArc
 50
103.391681
 51
121.139375
  0
LINE
  5
234
100
AcDbEntity
  8
0
370
    35
390
0
 62
     7
 48
0.392956
100
AcDbLine
 10
139.762726
 20
150.718552
 30
0.0
 11
153.217682
 21
158.844269
 31
0.0
210
0.0
220
0.0
230
1.0
  0
ARC
  5
235
100
AcDbEntity
  8
0
370
    35
390
0
 62
     7
100
AcDbCircle
 10
141.073517
 20
148.548645
 30
0.0
 40
2.535091
210
0.0
220
0.0
230
1.0
100
AcDbArc
 50
121.13514
 51
137.934659
  0
ARC
  5
236
100
AcDbEntity
  8
0
370
    35
390
0
 62
     7
100
AcDbCircle
 10
140.503952
 20
149.070877
 30
0.0
 40
1.763192
210
0.0
220
0.0
230
1.0
100
AcDbArc
 50
138.133049
 51
261.587363
  0
ARC
  5
237
100
AcDbEntity
  8
0
370
    35
390
0
 62
     7
100
AcDbCircle
 10
141.115112
 20
153.143921
 30
0.0
 40
5.88214
210
0.0
220
0.0
230
1.0
100
AcDbArc
 50
261.502627
 51
265.464356
  0
POLYLINE
  5
238
100
AcDbEntity
  8
0
370
    35
390
0
 62
     7
100
AcDb2dPolyline
 66
     1
 10
0.0
 20
0.0
 30
0.0
 71
     4
  0
VERTEX
  5
239
100
AcDbEntity
  8
0
370
     0
390
0
100
AcDbVertex
100
AcDb2dVertex
 10
140.649963
 20
147.280197
 30
0.0
  0
VERTEX
  5
23A
100
AcDbEntity
  8
0
370
     0
390
0
100
AcDbVertex
100
AcDb2dVertex
 10
149.710144
 20
146.604767
 30
0.0
  0
VERTEX
  5
23B
100
AcDbEntity
  8
0
370
     0
390
0
100
AcDbVertex
100
AcDb2dVertex
 10
158.764633
 20
145.999298
 30
0.0
  0
VERTEX
  5
23C
100
AcDbEntity
  8
0
370
     0
390
0
100
AcDbVertex
100
AcDb2dVertex
 10
167.829849
 20
145.445526
 30
0.0
  0
SEQEND
  5
23D
100
AcDbEntity
  8
0
370
     0
390
0
  0
ARC
  5
23E
100
AcDbEntity
  8
0
370
    35
390
0
 62
     7
100
AcDbCircle
 10
167.978378
 20
147.979309
 30
0.0
 40
2.538135
210
0.0
220
0.0
230
1.0
100
AcDbArc
 50
266.645268
 51
275.530962
  0
ARC
  5
23F
100
AcDbEntity
  8
0
370
    35
390
0
 62
     7
100
AcDbCircle
 10
168.051392
 20
147.224747
 30
0.0
 40
1.780041
210
0.0
220
0.0
230
1.0
100
AcDbArc
 50
275.532444
 51
287.034079
  0
ARC
  5
240
100
AcDbEntity
  8
0
370
    35
390
0
 62
     7
100
AcDbCircle
 10
131.589066
 20
158.624237
 30
0.0
 40
1.774988
210
0.0
220
0.0
230
1.0
100
AcDbArc
 50
103.62386
 51
180.00397
  0
LINE
  5
241
100
AcDbEntity
  8
0
370
    35
390
0
 62
     7
 48
0.178724
100
AcDbLine
 10
129.814072
 20
151.475143
 30
0.0
 11
129.814072
 21
158.624115
 31
0.0
210
0.0
220
0.0
230
1.0
  0
ARC
  5
242
100
AcDbEntity
  8
0
370
    35
390
0
 62
     7
100
AcDbCircle
 10
132.360199
 20
151.475159
 30
0.0
 40
2.546115
210
0.0
220
0.0
230
1.0
100
AcDbArc
 50
180.000214
 51
189.752098
  0
ARC
  5
243
100
AcDbEntity
  8
0
370
    35
390
0
 62
     7
100
AcDbCircle
 10
131.595032
 20
151.345917
 30
0.0
 40
1.770418
210
0.0
220
0.0
230
1.0
100
AcDbArc
 50
189.824348
 51
276.411954
  0
ARC
  5
244
100
AcDbEntity
  8
0
370
    35
390
0
 62
     7
100
AcDbCircle
 10
113.708801
 20
152.134842
 30
0.0
 40
2.434658
210
0.0
220
0.0
230
1.0
100
AcDbArc
 50
179.99271
 51
199.458685
  0
ARC
  5
245
100
AcDbEntity
  8
0
370
    35
390
0
 62
     7
100
AcDbCircle
 10
113.053406
 20
151.907394
 30
0.0
 40
1.740876
210
0.0
220
0.0
230
1.0
100
AcDbArc
 50
199.586054
 51
253.953704
  0
ARC
  5
246
100
AcDbEntity
  8
0
370
    35
390
0
 62
     7
100
AcDbCircle
 10
114.335114
 20
156.364288
 30
0.0
 40
6.378423
210
0.0
220
0.0
230
1.0
100
AcDbArc
 50
253.955296
 51
261.96902
  0
ARC
  5
247
100
AcDbEntity
  8
0
370
    35
390
0
 62
     7
100
AcDbCircle
 10
153.117981
 20
433.809143
 30
0.0
 40
286.521054
210
0.0
220
0.0
230
1.0
100
AcDbArc
 50
262.040792
 51
263.312949
  0
ARC
  5
248
100
AcDbEntity
  8
0
370
    35
390
0
 62
     7
100
AcDbCircle
 10
119.962326
 20
151.005463
 30
0.0
 40
1.78071
210
0.0
220
0.0
230
1.0
100
AcDbArc
 50
263.270615
 51
274.993235
  0
ARC
  5
249
100
AcDbEntity
  8
0
370
    35
390
0
 62
     7
100
AcDbCircle
 10
130.466415
 20
34.212311
 30
0.0
 40
125.923155
210
0.0
220
0.0
230
1.0
100
AcDbArc
 50
97.172548
 51
98.063895
  0
ARC
  5
24A
100
AcDbEntity
  8
0
370
    35
390
0
 62
     7
100
AcDbCircle
 10
113.051849
 20
157.130188
 30
0.0
 40
1.777781
210
0.0
220
0.0
230
1.0
100
AcDbArc
 50
98.070622
 51
179.993243
  0
LINE
  5
24B
100
AcDbEntity
  8
0
370
    35
390
0
 62
     7
 48
0.124881
100
AcDbLine
 10
111.274109
 20
157.130386
 30
0.0
 11
111.274109
 21
152.135147
 31
0.0
210
0.0
220
0.0
230
1.0
  0
POLYLINE
  5
24C
100
AcDbEntity
  8
0
370
    35
390
0
 62
     7
100
AcDb2dPolyline
 66
     1
 10
0.0
 20
0.0
 30
0.0
 71
     8
  0
VERTEX
  5
24D
100
AcDbEntity
  8
0
370
     0
390
0
100
AcDbVertex
100
AcDb2dVertex
 10
95.025116
 20
153.92691
 30
0.0
  0
VERTEX
  5
24E
100
AcDbEntity
  8
0
370
     0
390
0
100
AcDbVertex
100
AcDb2dVertex
 10
95.974609
 20
154.434326
 30
0.0
  0
VERTEX
  5
24F
100
AcDbEntity
  8
0
370
     0
390
0
100
AcDbVertex
100
AcDb2dVertex
 10
97.456161
 20
155.118988
 30
0.0
  0
VERTEX
  5
250
100
AcDbEntity
  8
0
370
     0
390
0
100
AcDbVertex
100
AcDb2dVertex
 10
98.736618
 20
155.62529
 30
0.0
  0
VERTEX
  5
251
100
AcDbEntity
  8
0
370
     0
390
0
100
AcDbVertex
100
AcDb2dVertex
 10
100.058914
 20
156.084488
 30
0.0
  0
VERTEX
  5
252
100
AcDbEntity
  8
0
370
     0
390
0
100
AcDbVertex
100
AcDb2dVertex
 10
101.693146
 20
156.587265
 30
0.0
  0
VERTEX
  5
253
100
AcDbEntity
  8
0
370
     0
390
0
100
AcDbVertex
100
AcDb2dVertex
 10
103.350601
 20
157.04187
 30
0.0
  0
VERTEX
  5
254
100
AcDbEntity
  8
0
370
     0
390
0
100
AcDbVertex
100
AcDb2dVertex
 10
105.519699
 20
157.566864
 30
0.0
  0
SEQEND
  5
255
100
AcDbEntity
  8
0
370
     0
390
0
  0
POLYLINE
  5
256
100
AcDbEntity
  8
0
370
    35
390
0
 62
     7
100
AcDb2dPolyline
 66
     1
 10
0.0
 20
0.0
 30
0.0
 71
     6
  0
VERTEX
  5
257
100
AcDbEntity
  8
0
370
     0
390
0
100
AcDbVertex
100
AcDb2dVertex
 10
95.025116
 20
153.92691
 30
0.0
  0
VERTEX
  5
258
100
AcDbEntity
  8
0
370
     0
390
0
100
AcDbVertex
100
AcDb2dVertex
 10
96.021149
 20
153.576935
 30
0.0
  0
VERTEX
  5
259
100
AcDbEntity
  8
0
370
     0
390
0
100
AcDbVertex
100
AcDb2dVertex
 10
98.095428
 20
152.954697
 30
0.0
  0
VERTEX
  5
25A
100
AcDbEntity
  8
0
370
     0
390
0
100
AcDbVertex
100
AcDb2dVertex
 10
100.754074
 20
152.281815
 30
0.0
  0
VERTEX
  5
25B
100
AcDbEntity
  8
0
370
     0
390
0
100
AcDbVertex
100
AcDb2dVertex
 10
103.418015
 20
151.703461
 30
0.0
  0
VERTEX
  5
25C
100
AcDbEntity
  8
0
370
     0
390
0
100
AcDbVertex
100
AcDb2dVertex
 10
105.591827
 20
151.286331
 30
0.0
  0
SEQEND
  5
25D
100
AcDbEntity
  8
0
370
     0
390
0
  0
ARC
  5
25E
100
AcDbEntity
  8
0
370
    35
390
0
 62
     7
100
AcDbCircle
 10
106.040222
 20
153.741089
 30
0.0
 40
2.495366
210
0.0
220
0.0
230
1.0
100
AcDbArc
 50
259.648204
 51
265.143692
  0
ARC
  5
25F
100
AcDbEntity
  8
0
370
    35
390
0
 62
     7
100
AcDbCircle
 10
105.979614
 20
153.026917
 30
0.0
 40
1.778637
210
0.0
220
0.0
230
1.0
100
AcDbArc
 50
265.141267
 51
272.061635
  0
POLYLINE
  5
260
100
AcDbEntity
  8
0
370
    35
390
0
 62
     7
100
AcDb2dPolyline
 66
     1
 10
0.0
 20
0.0
 30
0.0
 71
    10
  0
VERTEX
  5
261
100
AcDbEntity
  8
0
370
     0
390
0
100
AcDbVertex
100
AcDb2dVertex
 10
258.336761
 20
137.44928
 30
0.0
  0
VERTEX
  5
262
100
AcDbEntity
  8
0
370
     0
390
0
100
AcDbVertex
100
AcDb2dVertex
 10
227.218277
 20
138.860809
 30
0.0
  0
VERTEX
  5
263
100
AcDbEntity
  8
0
370
     0
390
0
100
AcDbVertex
100
AcDb2dVertex
 10
201.140366
 20
140.055817
 30
0.0
  0
VERTEX
  5
264
100
AcDbEntity
  8
0
370
     0
390
0
100
AcDbVertex
100
AcDb2dVertex
 10
188.103287
 20
140.692276
 30
0.0
  0
VERTEX
  5
265
100
AcDbEntity
  8
0
370
     0
390
0
100
AcDbVertex
100
AcDb2dVertex
 10
178.326935
 20
141.198349
 30
0.0
  0
VERTEX
  5
266
100
AcDbEntity
  8
0
370
     0
390
0
100
AcDbVertex
100
AcDb2dVertex
 10
168.552368
 20
141.738129
 30
0.0
  0
VERTEX
  5
267
100
AcDbEntity
  8
0
370
     0
390
0
100
AcDbVertex
100
AcDb2dVertex
 10
159.27005
 20
142.291931
 30
0.0
  0
VERTEX
  5
268
100
AcDbEntity
  8
0
370
     0
390
0
100
AcDbVertex
100
AcDb2dVertex
 10
149.990921
 20
142.898193
 30
0.0
  0
VERTEX
  5
269
100
AcDbEntity
  8
0
370
     0
390
0
100
AcDbVertex
100
AcDb2dVertex
 10
142.657822
 20
143.426254
 30
0.0
  0
VERTEX
  5
26A
100
AcDbEntity
  8
0
370
     0
390
0
100
AcDbVertex
100
AcDb2dVertex
 10
135.329285
 20
144.010666
 30
0.0
  0
SEQEND
  5
26B
100
AcDbEntity
  8
0
370
     0
390
0
  0
POLYLINE
  5
26C
100
AcDbEntity
  8
0
370
    35
390
0
 62
     7
100
AcDb2dPolyline
 66
     1
 10
0.0
 20
0.0
 30
0.0
 71
    23
  0
VERTEX
  5
26D
100
AcDbEntity
  8
0
370
     0
390
0
100
AcDbVertex
100
AcDb2dVertex
 10
89.077881
 20
153.30986
 30
0.0
  0
VERTEX
  5
26E
100
AcDbEntity
  8
0
370
     0
390
0
100
AcDbVertex
100
AcDb2dVertex
 10
89.092667
 20
153.113266
 30
0.0
  0
VERTEX
  5
26F
100
AcDbEntity
  8
0
370
     0
390
0
100
AcDbVertex
100
AcDb2dVertex
 10
89.201691
 20
152.883118
 30
0.0
  0
VERTEX
  5
270
100
AcDbEntity
  8
0
370
     0
390
0
100
AcDbVertex
100
AcDb2dVertex
 10
89.484299
 20
152.548187
 30
0.0
  0
VERTEX
  5
271
100
AcDbEntity
  8
0
370
     0
390
0
100
AcDbVertex
100
AcDb2dVertex
 10
89.988953
 20
152.128067
 30
0.0
  0
VERTEX
  5
272
100
AcDbEntity
  8
0
370
     0
390
0
100
AcDbVertex
100
AcDb2dVertex
 10
90.395676
 20
151.856476
 30
0.0
  0
VERTEX
  5
273
100
AcDbEntity
  8
0
370
     0
390
0
100
AcDbVertex
100
AcDb2dVertex
 10
90.818695
 20
151.609772
 30
0.0
  0
VERTEX
  5
274
100
AcDbEntity
  8
0
370
     0
390
0
100
AcDbVertex
100
AcDb2dVertex
 10
91.437378
 20
151.290466
 30
0.0
  0
VERTEX
  5
275
100
AcDbEntity
  8
0
370
     0
390
0
100
AcDbVertex
100
AcDb2dVertex
 10
92.071747
 20
150.998566
 30
0.0
  0
VERTEX
  5
276
100
AcDbEntity
  8
0
370
     0
390
0
100
AcDbVertex
100
AcDb2dVertex
 10
92.955902
 20
150.635757
 30
0.0
  0
VERTEX
  5
277
100
AcDbEntity
  8
0
370
     0
390
0
100
AcDbVertex
100
AcDb2dVertex
 10
93.84996
 20
150.308701
 30
0.0
  0
VERTEX
  5
278
100
AcDbEntity
  8
0
370
     0
390
0
100
AcDbVertex
100
AcDb2dVertex
 10
94.993561
 20
149.934021
 30
0.0
  0
VERTEX
  5
279
100
AcDbEntity
  8
0
370
     0
390
0
100
AcDbVertex
100
AcDb2dVertex
 10
97.088654
 20
149.334274
 30
0.0
  0
VERTEX
  5
27A
100
AcDbEntity
  8
0
370
     0
390
0
100
AcDbVertex
100
AcDb2dVertex
 10
99.210861
 20
148.803589
 30
0.0
  0
VERTEX
  5
27B
100
AcDbEntity
  8
0
370
     0
390
0
100
AcDbVertex
100
AcDb2dVertex
 10
101.218552
 20
148.355423
 30
0.0
  0
VERTEX
  5
27C
100
AcDbEntity
  8
0
370
     0
390
0
100
AcDbVertex
100
AcDb2dVertex
 10
103.231308
 20
147.950089
 30
0.0
  0
VERTEX
  5
27D
100
AcDbEntity
  8
0
370
     0
390
0
100
AcDbVertex
100
AcDb2dVertex
 10
105.582016
 20
147.52121
 30
0.0
  0
VERTEX
  5
27E
100
AcDbEntity
  8
0
370
     0
390
0
100
AcDbVertex
100
AcDb2dVertex
 10
107.940002
 20
147.127945
 30
0.0
  0
VERTEX
  5
27F
100
AcDbEntity
  8
0
370
     0
390
0
100
AcDbVertex
100
AcDb2dVertex
 10
112.675659
 20
146.422775
 30
0.0
  0
VERTEX
  5
280
100
AcDbEntity
  8
0
370
     0
390
0
100
AcDbVertex
100
AcDb2dVertex
 10
117.423096
 20
145.808197
 30
0.0
  0
VERTEX
  5
281
100
AcDbEntity
  8
0
370
     0
390
0
100
AcDbVertex
100
AcDb2dVertex
 10
122.176605
 20
145.264404
 30
0.0
  0
VERTEX
  5
282
100
AcDbEntity
  8
0
370
     0
390
0
100
AcDbVertex
100
AcDb2dVertex
 10
128.749176
 20
144.59877
 30
0.0
  0
VERTEX
  5
283
100
AcDbEntity
  8
0
370
     0
390
0
100
AcDbVertex
100
AcDb2dVertex
 10
135.329285
 20
144.010666
 30
0.0
  0
SEQEND
  5
284
100
AcDbEntity
  8
0
370
     0
390
0
  0
LINE
  5
285
100
AcDbEntity
  8
0
370
    35
390
0
 62
     7
 48
0.001394
100
AcDbLine
 10
89.077881
 20
153.30986
 30
0.0
 11
89.084442
 21
153.365219
 31
0.0
210
0.0
220
0.0
230
1.0
  0
POLYLINE
  5
286
100
AcDbEntity
  8
0
370
    35
390
0
 62
     7
100
AcDb2dPolyline
 66
     1
 10
0.0
 20
0.0
 30
0.0
 71
    25
  0
VERTEX
  5
287
100
AcDbEntity
  8
0
370
     0
390
0
100
AcDbVertex
100
AcDb2dVertex
 10
89.084442
 20
153.365219
 30
0.0
  0
VERTEX
  5
288
100
AcDbEntity
  8
0
370
     0
390
0
100
AcDbVertex
100
AcDb2dVertex
 10
89.121231
 20
153.528687
 30
0.0
  0
VERTEX
  5
289
100
AcDbEntity
  8
0
370
     0
390
0
100
AcDbVertex
100
AcDb2dVertex
 10
89.245102
 20
153.839584
 30
0.0
  0
VERTEX
  5
28A
100
AcDbEntity
  8
0
370
     0
390
0
100
AcDbVertex
100
AcDb2dVertex
 10
89.577072
 20
154.380737
 30
0.0
  0
VERTEX
  5
28B
100
AcDbEntity
  8
0
370
     0
390
0
100
AcDbVertex
100
AcDb2dVertex
 10
89.867859
 20
154.743851
 30
0.0
  0
VERTEX
  5
28C
100
AcDbEntity
  8
0
370
     0
390
0
100
AcDbVertex
100
AcDb2dVertex
 10
90.186722
 20
155.084305
 30
0.0
  0
VERTEX
  5
28D
100
AcDbEntity
  8
0
370
     0
390
0
100
AcDbVertex
100
AcDb2dVertex
 10
90.630722
 20
155.492813
 30
0.0
  0
VERTEX
  5
28E
100
AcDbEntity
  8
0
370
     0
390
0
100
AcDbVertex
100
AcDb2dVertex
 10
91.102112
 20
155.868912
 30
0.0
  0
VERTEX
  5
28F
100
AcDbEntity
  8
0
370
     0
390
0
100
AcDbVertex
100
AcDb2dVertex
 10
91.690094
 20
156.281738
 30
0.0
  0
VERTEX
  5
290
100
AcDbEntity
  8
0
370
     0
390
0
100
AcDbVertex
100
AcDb2dVertex
 10
92.297928
 20
156.664246
 30
0.0
  0
VERTEX
  5
291
100
AcDbEntity
  8
0
370
     0
390
0
100
AcDbVertex
100
AcDb2dVertex
 10
93.09787
 20
157.121429
 30
0.0
  0
VERTEX
  5
292
100
AcDbEntity
  8
0
370
     0
390
0
100
AcDbVertex
100
AcDb2dVertex
 10
93.914291
 20
157.547791
 30
0.0
  0
VERTEX
  5
293
100
AcDbEntity
  8
0
370
     0
390
0
100
AcDbVertex
100
AcDb2dVertex
 10
94.99736
 20
158.061371
 30
0.0
  0
VERTEX
  5
294
100
AcDbEntity
  8
0
370
     0
390
0
100
AcDbVertex
100
AcDb2dVertex
 10
96.100647
 20
158.529831
 30
0.0
  0
VERTEX
  5
295
100
AcDbEntity
  8
0
370
     0
390
0
100
AcDbVertex
100
AcDb2dVertex
 10
97.339951
 20
158.999908
 30
0.0
  0
VERTEX
  5
296
100
AcDbEntity
  8
0
370
     0
390
0
100
AcDbVertex
100
AcDb2dVertex
 10
98.595093
 20
159.427383
 30
0.0
  0
VERTEX
  5
297
100
AcDbEntity
  8
0
370
     0
390
0
100
AcDbVertex
100
AcDb2dVertex
 10
100.052216
 20
159.876404
 30
0.0
  0
VERTEX
  5
298
100
AcDbEntity
  8
0
370
     0
390
0
100
AcDbVertex
100
AcDb2dVertex
 10
101.519897
 20
160.287506
 30
0.0
  0
VERTEX
  5
299
100
AcDbEntity
  8
0
370
     0
390
0
100
AcDbVertex
100
AcDb2dVertex
 10
103.336273
 20
160.747604
 30
0.0
  0
VERTEX
  5
29A
100
AcDbEntity
  8
0
370
     0
390
0
100
AcDbVertex
100
AcDb2dVertex
 10
105.163712
 20
161.160995
 30
0.0
  0
VERTEX
  5
29B
100
AcDbEntity
  8
0
370
     0
390
0
100
AcDbVertex
100
AcDb2dVertex
 10
107.219788
 20
161.572617
 30
0.0
  0
VERTEX
  5
29C
100
AcDbEntity
  8
0
370
     0
390
0
100
AcDbVertex
100
AcDb2dVertex
 10
109.285309
 20
161.936798
 30
0.0
  0
VERTEX
  5
29D
100
AcDbEntity
  8
0
370
     0
390
0
100
AcDbVertex
100
AcDb2dVertex
 10
111.595428
 20
162.294891
 30
0.0
  0
VERTEX
  5
29E
100
AcDbEntity
  8
0
370
     0
390
0
100
AcDbVertex
100
AcDb2dVertex
 10
113.911545
 20
162.608932
 30
0.0
  0
VERTEX
  5
29F
100
AcDbEntity
  8
0
370
     0
390
0
100
AcDbVertex
100
AcDb2dVertex
 10
117.033463
 20
162.969299
 30
0.0
  0
SEQEND
  5
2A0
100
AcDbEntity
  8
0
370
     0
390
0
  0
ARC
  5
2A1
100
AcDbEntity
  8
0
370
    35
390
0
 62
     7
100
AcDbCircle
 10
135.028503
 20
-11.165146
 30
0.0
 40
175.062352
210
0.0
220
0.0
230
1.0
100
AcDbArc
 50
93.328436
 51
95.899995
  0
LINE
  5
2A2
100
AcDbEntity
  8
0
370
    35
390
0
 62
     7
 48
0.243206
100
AcDbLine
 10
124.864426
 20
163.602478
 30
0.0
 11
124.864426
 21
153.874222
 31
0.0
210
0.0
220
0.0
230
1.0
  0
LINE
  5
2A3
100
AcDbEntity
  8
0
370
    35
390
0
 62
     7
 48
0.0125
100
AcDbLine
 10
124.864426
 20
153.874222
 30
0.0
 11
125.364426
 21
153.874222
 31
0.0
210
0.0
220
0.0
230
1.0
  0
LINE
  5
2A4
100
AcDbEntity
  8
0
370
    35
390
0
 62
     7
 48
0.0125
100
AcDbLine
 10
125.364426
 20
153.874222
 30
0.0
 11
125.864426
 21
153.874222
 31
0.0
210
0.0
220
0.0
230
1.0
  0
LINE
  5
2A5
100
AcDbEntity
  8
0
370
    35
390
0
 62
     7
 48
0.24463
100
AcDbLine
 10
125.864426
 20
163.659424
 30
0.0
 11
125.864426
 21
153.874222
 31
0.0
210
0.0
220
0.0
230
1.0
  0
POLYLINE
  5
2A6
100
AcDbEntity
  8
0
370
    35
390
0
 62
     7
100
AcDb2dPolyline
 66
     1
 10
0.0
 20
0.0
 30
0.0
 71
    12
  0
VERTEX
  5
2A7
100
AcDbEntity
  8
0
370
     0
390
0
100
AcDbVertex
100
AcDb2dVertex
 10
125.864426
 20
163.659424
 30
0.0
  0
VERTEX
  5
2A8
100
AcDbEntity
  8
0
370
     0
390
0
100
AcDbVertex
100
AcDb2dVertex
 10
128.895569
 20
163.803375
 30
0.0
  0
VERTEX
  5
2A9
100
AcDbEntity
  8
0
370
     0
390
0
100
AcDbVertex
100
AcDb2dVertex
 10
131.927856
 20
163.906982
 30
0.0
  0
VERTEX
  5
2AA
100
AcDbEntity
  8
0
370
     0
390
0
100
AcDbVertex
100
AcDb2dVertex
 10
137.04866
 20
163.997864
 30
0.0
  0
VERTEX
  5
2AB
100
AcDbEntity
  8
0
370
     0
390
0
100
AcDbVertex
100
AcDb2dVertex
 10
142.170593
 20
163.993896
 30
0.0
  0
VERTEX
  5
2AC
100
AcDbEntity
  8
0
370
     0
390
0
100
AcDbVertex
100
AcDb2dVertex
 10
147.291626
 20
163.906815
 30
0.0
  0
VERTEX
  5
2AD
100
AcDbEntity
  8
0
370
     0
390
0
100
AcDbVertex
100
AcDb2dVertex
 10
151.607101
 20
163.776443
 30
0.0
  0
VERTEX
  5
2AE
100
AcDbEntity
  8
0
370
     0
390
0
100
AcDbVertex
100
AcDb2dVertex
 10
155.920898
 20
163.599121
 30
0.0
  0
VERTEX
  5
2AF
100
AcDbEntity
  8
0
370
     0
390
0
100
AcDbVertex
100
AcDb2dVertex
 10
160.169952
 20
163.380951
 30
0.0
  0
VERTEX
  5
2B0
100
AcDbEntity
  8
0
370
     0
390
0
100
AcDbVertex
100
AcDb2dVertex
 10
164.416718
 20
163.120956
 30
0.0
  0
VERTEX
  5
2B1
100
AcDbEntity
  8
0
370
     0
390
0
100
AcDbVertex
100
AcDb2dVertex
 10
168.660782
 20
162.820435
 30
0.0
  0
VERTEX
  5
2B2
100
AcDbEntity
  8
0
370
     0
390
0
100
AcDbVertex
100
AcDb2dVertex
 10
172.901855
 20
162.481308
 30
0.0
  0
SEQEND
  5
2B3
100
AcDbEntity
  8
0
370
     0
390
0
  0
POLYLINE
  5
2B4
100
AcDbEntity
  8
0
370
    35
390
0
 62
     7
100
AcDb2dPolyline
 66
     1
 10
0.0
 20
0.0
 30
0.0
 71
    23
  0
VERTEX
  5
2B5
100
AcDbEntity
  8
0
370
     0
390
0
100
AcDbVertex
100
AcDb2dVertex
 10
330.7742
 20
132.961182
 30
0.0
  0
VERTEX
  5
2B6
100
AcDbEntity
  8
0
370
     0
390
0
100
AcDbVertex
100
AcDb2dVertex
 10
328.170776
 20
133.487457
 30
0.0
  0
VERTEX
  5
2B7
100
AcDbEntity
  8
0
370
     0
390
0
100
AcDbVertex
100
AcDb2dVertex
 10
326.44046
 20
133.863831
 30
0.0
  0
VERTEX
  5
2B8
100
AcDbEntity
  8
0
370
     0
390
0
100
AcDbVertex
100
AcDb2dVertex
 10
322.988068
 20
134.653259
 30
0.0
  0
VERTEX
  5
2B9
100
AcDbEntity
  8
0
370
     0
390
0
100
AcDbVertex
100
AcDb2dVertex
 10
320.053162
 20
135.348114
 30
0.0
  0
VERTEX
  5
2BA
100
AcDbEntity
  8
0
370
     0
390
0
100
AcDbVertex
100
AcDb2dVertex
 10
311.264191
 20
137.495392
 30
0.0
  0
VERTEX
  5
2BB
100
AcDbEntity
  8
0
370
     0
390
0
100
AcDbVertex
100
AcDb2dVertex
 10
298.090942
 20
140.757263
 30
0.0
  0
VERTEX
  5
2BC
100
AcDbEntity
  8
0
370
     0
390
0
100
AcDbVertex
100
AcDb2dVertex
 10
287.670929
 20
143.289612
 30
0.0
  0
VERTEX
  5
2BD
100
AcDbEntity
  8
0
370
     0
390
0
100
AcDbVertex
100
AcDb2dVertex
 10
282.459015
 20
144.523743
 30
0.0
  0
VERTEX
  5
2BE
100
AcDbEntity
  8
0
370
     0
390
0
100
AcDbVertex
100
AcDb2dVertex
 10
272.52124
 20
146.792358
 30
0.0
  0
VERTEX
  5
2BF
100
AcDbEntity
  8
0
370
     0
390
0
100
AcDbVertex
100
AcDb2dVertex
 10
262.55603
 20
148.9375
 30
0.0
  0
VERTEX
  5
2C0
100
AcDbEntity
  8
0
370
     0
390
0
100
AcDbVertex
100
AcDb2dVertex
 10
255.804459
 20
150.314789
 30
0.0
  0
VERTEX
  5
2C1
100
AcDbEntity
  8
0
370
     0
390
0
100
AcDbVertex
100
AcDb2dVertex
 10
249.041306
 20
151.634201
 30
0.0
  0
VERTEX
  5
2C2
100
AcDbEntity
  8
0
370
     0
390
0
100
AcDbVertex
100
AcDb2dVertex
 10
239.743774
 20
153.353485
 30
0.0
  0
VERTEX
  5
2C3
100
AcDbEntity
  8
0
370
     0
390
0
100
AcDbVertex
100
AcDb2dVertex
 10
230.428345
 20
154.973892
 30
0.0
  0
VERTEX
  5
2C4
100
AcDbEntity
  8
0
370
     0
390
0
100
AcDbVertex
100
AcDb2dVertex
 10
221.097183
 20
156.500305
 30
0.0
  0
VERTEX
  5
2C5
100
AcDbEntity
  8
0
370
     0
390
0
100
AcDbVertex
100
AcDb2dVertex
 10
211.213715
 20
158.006439
 30
0.0
  0
VERTEX
  5
2C6
100
AcDbEntity
  8
0
370
     0
390
0
100
AcDbVertex
100
AcDb2dVertex
 10
201.661316
 20
159.335495
 30
0.0
  0
VERTEX
  5
2C7
100
AcDbEntity
  8
0
370
     0
390
0
100
AcDbVertex
100
AcDb2dVertex
 10
192.091187
 20
160.530289
 30
0.0
  0
VERTEX
  5
2C8
100
AcDbEntity
  8
0
370
     0
390
0
100
AcDbVertex
100
AcDb2dVertex
 10
186.999817
 20
161.10817
 30
0.0
  0
VERTEX
  5
2C9
100
AcDbEntity
  8
0
370
     0
390
0
100
AcDbVertex
100
AcDb2dVertex
 10
181.903931
 20
161.644714
 30
0.0
  0
VERTEX
  5
2CA
100
AcDbEntity
  8
0
370
     0
390
0
100
AcDbVertex
100
AcDb2dVertex
 10
177.404617
 20
162.081589
 30
0.0
  0
VERTEX
  5
2CB
100
AcDbEntity
  8
0
370
     0
390
0
100
AcDbVertex
100
AcDb2dVertex
 10
172.901855
 20
162.481308
 30
0.0
  0
SEQEND
  5
2CC
100
AcDbEntity
  8
0
370
     0
390
0
  0
LINE
  5
2CD
100
AcDbEntity
  8
0
370
    35
390
0
 62
     7
 48
0.005442
100
AcDbLine
 10
330.988098
 20
132.920685
 30
0.0
 11
330.7742
 21
132.961182
 31
0.0
210
0.0
220
0.0
230
1.0
  0
LINE
  5
2CE
100
AcDbEntity
  8
0
370
    35
390
0
 62
     7
 48
0.005021
100
AcDbLine
 10
330.788269
 20
132.940918
 30
0.0
 11
330.988098
 21
132.920685
 31
0.0
210
0.0
220
0.0
230
1.0
  0
POLYLINE
  5
2CF
100
AcDbEntity
  8
0
370
    35
390
0
 62
     7
100
AcDb2dPolyline
 66
     1
 10
0.0
 20
0.0
 30
0.0
 71
    10
  0
VERTEX
  5
2D0
100
AcDbEntity
  8
0
370
     0
390
0
100
AcDbVertex
100
AcDb2dVertex
 10
330.788269
 20
132.940918
 30
0.0
  0
VERTEX
  5
2D1
100
AcDbEntity
  8
0
370
     0
390
0
100
AcDbVertex
100
AcDb2dVertex
 10
327.343933
 20
133.260208
 30
0.0
  0
VERTEX
  5
2D2
100
AcDbEntity
  8
0
370
     0
390
0
100
AcDbVertex
100
AcDb2dVertex
 10
320.44989
 20
133.837906
 30
0.0
  0
VERTEX
  5
2D3
100
AcDbEntity
  8
0
370
     0
390
0
100
AcDbVertex
100
AcDb2dVertex
 10
316.015594
 20
134.179688
 30
0.0
  0
VERTEX
  5
2D4
100
AcDbEntity
  8
0
370
     0
390
0
100
AcDbVertex
100
AcDb2dVertex
 10
309.36145
 20
134.654617
 30
0.0
  0
VERTEX
  5
2D5
100
AcDbEntity
  8
0
370
     0
390
0
100
AcDbVertex
100
AcDb2dVertex
 10
302.704712
 20
135.092331
 30
0.0
  0
VERTEX
  5
2D6
100
AcDbEntity
  8
0
370
     0
390
0
100
AcDbVertex
100
AcDb2dVertex
 10
294.297943
 20
135.602493
 30
0.0
  0
VERTEX
  5
2D7
100
AcDbEntity
  8
0
370
     0
390
0
100
AcDbVertex
100
AcDb2dVertex
 10
285.888947
 20
136.074631
 30
0.0
  0
VERTEX
  5
2D8
100
AcDbEntity
  8
0
370
     0
390
0
100
AcDbVertex
100
AcDb2dVertex
 10
276.112762
 20
136.586319
 30
0.0
  0
VERTEX
  5
2D9
100
AcDbEntity
  8
0
370
     0
390
0
100
AcDbVertex
100
AcDb2dVertex
 10
259.336761
 20
137.402374
 30
0.0
  0
SEQEND
  5
2DA
100
AcDbEntity
  8
0
370
     0
390
0
  0
LINE
  5
2DB
100
AcDbEntity
  8
0
370
    35
390
0
 62
     7
 48
0.153996
100
AcDbLine
 10
259.336761
 20
137.402374
 30
0.0
 11
259.336761
 21
143.56221
 31
0.0
210
0.0
220
0.0
230
1.0
  0
LINE
  5
2DC
100
AcDbEntity
  8
0
370
    35
390
0
 62
     7
 48
0.025
100
AcDbLine
 10
259.336761
 20
143.56221
 30
0.0
 11
258.336761
 21
143.56221
 31
0.0
210
0.0
220
0.0
230
1.0
  0
LINE
  5
2DD
100
AcDbEntity
  8
0
370
    35
390
0
 62
     7
 48
0.152823
100
AcDbLine
 10
258.336761
 20
137.44928
 30
0.0
 11
258.336761
 21
143.56221
 31
0.0
210
0.0
220
0.0
230
1.0
  0
LINE
  5
2DE
100
AcDbEntity
  8
0
370
    35
390
0
 62
     7
 48
0.005084
100
AcDbLine
 10
253.422867
 20
147.164902
 30
0.0
 11
253.621597
 21
147.121674
 31
0.0
210
0.0
220
0.0
230
1.0
  0
LINE
  5
2DF
100
AcDbEntity
  8
0
370
    35
390
0
 62
     7
 48
0.059829
100
AcDbLine
 10
253.422867
 20
147.164902
 30
0.0
 11
251.074326
 21
147.624939
 31
0.0
210
0.0
220
0.0
230
1.0
  0
ARC
  5
2E0
100
AcDbEntity
  8
0
370
    35
390
0
 62
     7
100
AcDbCircle
 10
250.669571
 20
145.568405
 30
0.0
 40
2.095796
210
0.0
220
0.0
230
1.0
100
AcDbArc
 50
78.86508
 51
106.790861
  0
ARC
  5
2E1
100
AcDbEntity
  8
0
370
    35
390
0
 62
     7
100
AcDbCircle
 10
250.412003
 20
146.454941
 30
0.0
 40
1.172858
210
0.0
220
0.0
230
1.0
100
AcDbArc
 50
107.256045
 51
168.042898
  0
ARC
  5
2E2
100
AcDbEntity
  8
0
370
    35
390
0
 62
     7
100
AcDbCircle
 10
250.405685
 20
146.450226
 30
0.0
 40
1.167963
210
0.0
220
0.0
230
1.0
100
AcDbArc
 50
167.75282
 51
206.8026
  0
ARC
  5
2E3
100
AcDbEntity
  8
0
370
    35
390
0
 62
     7
100
AcDbCircle
 10
251.247543
 20
146.887131
 30
0.0
 40
2.116508
210
0.0
220
0.0
230
1.0
100
AcDbArc
 50
207.082829
 51
230.013891
  0
LINE
  5
2E4
100
AcDbEntity
  8
0
370
    35
390
0
 62
     7
 48
0.082785
100
AcDbLine
 10
249.887436
 20
145.265411
 30
0.0
 11
252.424118
 21
143.136887
 31
0.0
210
0.0
220
0.0
230
1.0
  0
ARC
  5
2E5
100
AcDbEntity
  8
0
370
    35
390
0
 62
     7
100
AcDbCircle
 10
253.766495
 20
144.72496
 30
0.0
 40
2.079123
210
0.0
220
0.0
230
1.0
100
AcDbArc
 50
229.792375
 51
259.95811
  0
ARC
  5
2E6
100
AcDbEntity
  8
0
370
    35
390
0
 62
     7
100
AcDbCircle
 10
253.592422
 20
143.836319
 30
0.0
 40
1.174438
210
0.0
220
0.0
230
1.0
100
AcDbArc
 50
260.761805
 51
347.4326
  0
ARC
  5
2E7
100
AcDbEntity
  8
0
370
    35
390
0
 62
     7
100
AcDbCircle
 10
252.667221
 20
144.046082
 30
0.0
 40
2.123551
210
0.0
220
0.0
230
1.0
100
AcDbArc
 50
347.340366
 51
355.96167
  0
ARC
  5
2E8
100
AcDbEntity
  8
0
370
    35
390
0
 62
     7
100
AcDbCircle
 10
252.660263
 20
144.047241
 30
0.0
 40
2.130569
210
0.0
220
0.0
230
1.0
100
AcDbArc
 50
355.943546
 51
359.996096
  0
LINE
  5
2E9
100
AcDbEntity
  8
0
370
    35
390
0
 62
     7
 48
0.039859
100
AcDbLine
 10
254.790848
 20
144.047104
 30
0.0
 11
254.790848
 21
145.641464
 31
0.0
210
0.0
220
0.0
230
1.0
  0
ARC
  5
2EA
100
AcDbEntity
  8
0
370
    35
390
0
 62
     7
100
AcDbCircle
 10
253.269241
 20
145.641449
 30
0.0
 40
1.52154
210
0.0
220
0.0
230
1.0
100
AcDbArc
 50
0.000133
 51
76.610059
  0
ARC
  5
2EB
100
AcDbEntity
  8
0
370
    35
390
0
 62
     7
100
AcDbCircle
 10
239.536316
 20
145.347855
 30
0.0
 40
3.567493
210
0.0
220
0.0
230
1.0
100
AcDbArc
 50
50.005072
 51
121.091181
  0
LINE
  5
2EC
100
AcDbEntity
  8
0
370
    35
390
0
 62
     7
 48
0.14255
100
AcDbLine
 10
237.694046
 20
148.402893
 30
0.0
 11
232.811142
 21
145.458435
 31
0.0
210
0.0
220
0.0
230
1.0
  0
ARC
  5
2ED
100
AcDbEntity
  8
0
370
    35
390
0
 62
     7
100
AcDbCircle
 10
234.092651
 20
143.333313
 30
0.0
 40
2.481619
210
0.0
220
0.0
230
1.0
100
AcDbArc
 50
121.091208
 51
125.209621
  0
ARC
  5
2EE
100
AcDbEntity
  8
0
370
    35
390
0
 62
     7
100
AcDbCircle
 10
233.690506
 20
143.903412
 30
0.0
 40
1.783993
210
0.0
220
0.0
230
1.0
100
AcDbArc
 50
145.693071
 51
267.35584
  0
ARC
  5
2EF
100
AcDbEntity
  8
0
370
    35
390
0
 62
     7
100
AcDbCircle
 10
233.68985
 20
143.9039
 30
0.0
 40
1.783174
210
0.0
220
0.0
230
1.0
100
AcDbArc
 50
125.206042
 51
145.694533
  0
LINE
  5
2F0
100
AcDbEntity
  8
0
370
    35
390
0
 62
     7
 48
0.273909
100
AcDbLine
 10
244.552795
 20
141.613815
 30
0.0
 11
233.6082
 21
142.121292
 31
0.0
210
0.0
220
0.0
230
1.0
  0
ARC
  5
2F1
100
AcDbEntity
  8
0
370
    35
390
0
 62
     7
100
AcDbCircle
 10
244.635971
 20
143.396881
 30
0.0
 40
1.784989
210
0.0
220
0.0
230
1.0
100
AcDbArc
 50
267.329339
 51
346.54969
  0
ARC
  5
2F2
100
AcDbEntity
  8
0
370
    35
390
0
 62
     7
100
AcDbCircle
 10
244.636612
 20
143.396118
 30
0.0
 40
1.784171
210
0.0
220
0.0
230
1.0
100
AcDbArc
 50
346.568921
 51
50.001537
  0
LINE
  5
2F3
100
AcDbEntity
  8
0
370
    35
390
0
 62
     7
 48
0.129047
100
AcDbLine
 10
245.783401
 20
144.762909
 30
0.0
 11
241.829178
 21
148.080887
 31
0.0
210
0.0
220
0.0
230
1.0
  0
ARC
  5
2F4
100
AcDbEntity
  8
0
370
    35
390
0
 62
     7
100
AcDbCircle
 10
230.168137
 20
148.870087
 30
0.0
 40
2.496237
210
0.0
220
0.0
230
1.0
100
AcDbArc
 50
74.970854
 51
80.305102
  0
ARC
  5
2F5
100
AcDbEntity
  8
0
370
    35
390
0
 62
     7
100
AcDbCircle
 10
77.950195
 20
-740.873108
 30
0.0
 40
905.166078
210
0.0
220
0.0
230
1.0
100
AcDbArc
 50
80.291818
 51
81.356979
  0
LINE
  5
2F6
100
AcDbEntity
  8
0
370
    35
390
0
 62
     7
 48
0.004678
100
AcDbLine
 10
213.97641
 20
154.013412
 30
0.0
 11
213.790985
 21
154.038651
 31
0.0
210
0.0
220
0.0
230
1.0
  0
ARC
  5
2F7
100
AcDbEntity
  8
0
370
    35
390
0
 62
     7
100
AcDbCircle
 10
213.575272
 20
152.275467
 30
0.0
 40
1.774816
210
0.0
220
0.0
230
1.0
100
AcDbArc
 50
121.619127
 51
218.612502
  0
ARC
  5
2F8
100
AcDbEntity
  8
0
370
    35
390
0
 62
     7
100
AcDbCircle
 10
213.575882
 20
152.277802
 30
0.0
 40
1.773854
210
0.0
220
0.0
230
1.0
100
AcDbArc
 50
83.035286
 51
121.675244
  0
ARC
  5
2F9
100
AcDbEntity
  8
0
370
    35
390
0
 62
     7
100
AcDbCircle
 10
214.137833
 20
152.729568
 30
0.0
 40
2.497172
210
0.0
220
0.0
230
1.0
100
AcDbArc
 50
218.698768
 51
230.001652
  0
LINE
  5
2FA
100
AcDbEntity
  8
0
370
    35
390
0
 62
     7
 48
0.24557
100
AcDbLine
 10
212.53273
 20
150.816574
 30
0.0
 11
220.057419
 21
144.502609
 31
0.0
210
0.0
220
0.0
230
1.0
  0
ARC
  5
2FB
100
AcDbEntity
  8
0
370
    35
390
0
 62
     7
100
AcDbCircle
 10
228.047134
 20
154.024673
 30
0.0
 40
12.430018
210
0.0
220
0.0
230
1.0
100
AcDbArc
 50
230.000859
 51
232.439783
  0
ARC
  5
2FC
100
AcDbEntity
  8
0
370
    35
390
0
 62
     7
100
AcDbCircle
 10
222.63797
 20
146.989639
 30
0.0
 40
3.555763
210
0.0
220
0.0
230
1.0
100
AcDbArc
 50
232.430071
 51
294.877234
  0
ARC
  5
2FD
100
AcDbEntity
  8
0
370
    35
390
0
 62
     7
100
AcDbCircle
 10
222.03212
 20
148.292068
 30
0.0
 40
4.992184
210
0.0
220
0.0
230
1.0
100
AcDbArc
 50
294.897294
 51
301.102391
  0
LINE
  5
2FE
100
AcDbEntity
  8
0
370
    35
390
0
 62
     7
 48
0.19447
100
AcDbLine
 10
231.271576
 20
148.035629
 30
0.0
 11
224.610916
 21
144.017532
 31
0.0
210
0.0
220
0.0
230
1.0
  0
ARC
  5
2FF
100
AcDbEntity
  8
0
370
    35
390
0
 62
     7
100
AcDbCircle
 10
230.35141
 20
149.561203
 30
0.0
 40
1.781895
210
0.0
220
0.0
230
1.0
100
AcDbArc
 50
325.734491
 51
74.899697
  0
ARC
  5
300
100
AcDbEntity
  8
0
370
    35
390
0
 62
     7
100
AcDbCircle
 10
230.351517
 20
149.563202
 30
0.0
 40
1.783236
210
0.0
220
0.0
230
1.0
100
AcDbArc
 50
301.060829
 51
325.679604
  0
ARC
  5
301
100
AcDbEntity
  8
0
370
    35
390
0
 62
     7
100
AcDbCircle
 10
201.654373
 20
151.342041
 30
0.0
 40
3.566958
210
0.0
220
0.0
230
1.0
100
AcDbArc
 50
49.995434
 51
115.064372
  0
ARC
  5
302
100
AcDbEntity
  8
0
370
    35
390
0
 62
     7
100
AcDbCircle
 10
201.65448
 20
151.344055
 30
0.0
 40
3.565124
210
0.0
220
0.0
230
1.0
100
AcDbArc
 50
115.079658
 51
121.11342
  0
LINE
  5
303
100
AcDbEntity
  8
0
370
    35
390
0
 62
     7
 48
0.329041
100
AcDbLine
 10
188.54335
 20
147.596283
 30
0.0
 11
199.812271
 21
154.396332
 31
0.0
210
0.0
220
0.0
230
1.0
  0
ARC
  5
304
100
AcDbEntity
  8
0
370
    35
390
0
 62
     7
100
AcDbCircle
 10
189.843735
 20
145.441772
 30
0.0
 40
2.516518
210
0.0
220
0.0
230
1.0
100
AcDbArc
 50
121.113502
 51
135.018333
  0
ARC
  5
305
100
AcDbEntity
  8
0
370
    35
390
0
 62
     7
100
AcDbCircle
 10
189.322342
 20
145.968735
 30
0.0
 40
1.775973
210
0.0
220
0.0
230
1.0
100
AcDbArc
 50
135.153297
 51
264.151771
  0
ARC
  5
306
100
AcDbEntity
  8
0
370
    35
390
0
 62
     7
100
AcDbCircle
 10
189.769272
 20
150.283035
 30
0.0
 40
6.113449
210
0.0
220
0.0
230
1.0
100
AcDbArc
 50
264.104861
 51
267.070625
  0
ARC
  5
307
100
AcDbEntity
  8
0
370
    35
390
0
 62
     7
100
AcDbCircle
 10
465.484467
 20
5573.238281
 30
0.0
 40
5436.073182
210
0.0
220
0.0
230
1.0
100
AcDbArc
 50
267.089442
 51
267.32701
  0
ARC
  5
308
100
AcDbEntity
  8
0
370
    35
390
0
 62
     7
100
AcDbCircle
 10
212.088562
 20
145.594452
 30
0.0
 40
2.518341
210
0.0
220
0.0
230
1.0
100
AcDbArc
 50
267.309122
 51
275.274652
  0
ARC
  5
309
100
AcDbEntity
  8
0
370
    35
390
0
 62
     7
100
AcDbCircle
 10
212.153748
 20
144.861221
 30
0.0
 40
1.783113
210
0.0
220
0.0
230
1.0
100
AcDbArc
 50
312.872921
 51
49.983751
  0
ARC
  5
30A
100
AcDbEntity
  8
0
370
    35
390
0
 62
     7
100
AcDbCircle
 10
212.158844
 20
144.855316
 30
0.0
 40
1.775806
210
0.0
220
0.0
230
1.0
100
AcDbArc
 50
275.20939
 51
312.882128
  0
LINE
  5
30B
100
AcDbEntity
  8
0
370
    35
390
0
 62
     7
 48
0.305225
100
AcDbLine
 10
213.300049
 20
146.226532
 30
0.0
 11
203.947403
 21
154.074326
 31
0.0
210
0.0
220
0.0
230
1.0
  0
ARC
  5
30C
100
AcDbEntity
  8
0
370
    35
390
0
 62
     7
100
AcDbCircle
 10
191.67482
 20
154.457809
 30
0.0
 40
2.519021
210
0.0
220
0.0
230
1.0
100
AcDbArc
 50
76.055536
 51
83.213643
  0
ARC
  5
30D
100
AcDbEntity
  8
0
370
    35
390
0
 62
     7
100
AcDbCircle
 10
121.81871
 20
-428.718384
 30
0.0
 40
589.863337
210
0.0
220
0.0
230
1.0
100
AcDbArc
 50
83.169526
 51
85.046217
  0
ARC
  5
30E
100
AcDbEntity
  8
0
370
    35
390
0
 62
     7
100
AcDbCircle
 10
132.781204
 20
-306.818909
 30
0.0
 40
467.471709
210
0.0
220
0.0
230
1.0
100
AcDbArc
 50
85.094663
 51
85.960642
  0
ARC
  5
30F
100
AcDbEntity
  8
0
370
    35
390
0
 62
     7
100
AcDbCircle
 10
165.289246
 20
153.509918
 30
0.0
 40
5.996378
210
0.0
220
0.0
230
1.0
100
AcDbArc
 50
85.969371
 51
88.816665
  0
ARC
  5
310
100
AcDbEntity
  8
0
370
    35
390
0
 62
     7
100
AcDbCircle
 10
165.373428
 20
157.737061
 30
0.0
 40
1.767771
210
0.0
220
0.0
230
1.0
100
AcDbArc
 50
101.931926
 51
214.614806
  0
ARC
  5
311
100
AcDbEntity
  8
0
370
    35
390
0
 62
     7
100
AcDbCircle
 10
165.375946
 20
157.725983
 30
0.0
 40
1.779418
210
0.0
220
0.0
230
1.0
100
AcDbArc
 50
88.804296
 51
101.937739
  0
ARC
  5
312
100
AcDbEntity
  8
0
370
    35
390
0
 62
     7
100
AcDbCircle
 10
165.987152
 20
158.17041
 30
0.0
 40
2.518243
210
0.0
220
0.0
230
1.0
100
AcDbArc
 50
214.796995
 51
230.004206
  0
LINE
  5
313
100
AcDbEntity
  8
0
370
    35
390
0
 62
     7
 48
0.370933
100
AcDbLine
 10
164.368591
 20
156.24118
 30
0.0
 11
175.73465
 21
146.703934
 31
0.0
210
0.0
220
0.0
230
1.0
  0
ARC
  5
314
100
AcDbEntity
  8
0
370
    35
390
0
 62
     7
100
AcDbCircle
 10
183.521378
 20
155.984344
 30
0.0
 40
12.114427
210
0.0
220
0.0
230
1.0
100
AcDbArc
 50
230.00172
 51
233.124018
  0
ARC
  5
315
100
AcDbEntity
  8
0
370
    35
390
0
 62
     7
100
AcDbCircle
 10
178.381165
 20
149.130539
 30
0.0
 40
3.547136
210
0.0
220
0.0
230
1.0
100
AcDbArc
 50
233.107557
 51
292.539622
  0
ARC
  5
316
100
AcDbEntity
  8
0
370
    35
390
0
 62
     7
100
AcDbCircle
 10
177.803909
 20
150.511642
 30
0.0
 40
5.043981
210
0.0
220
0.0
230
1.0
100
AcDbArc
 50
294.646899
 51
301.11293
  0
LINE
  5
317
100
AcDbEntity
  8
0
370
    35
390
0
 62
     7
 48
0.004544
100
AcDbLine
 10
179.907379
 20
145.9272
 30
0.0
 11
179.740829
 21
145.854416
 31
0.0
210
0.0
220
0.0
230
1.0
  0
LINE
  5
318
100
AcDbEntity
  8
0
370
    35
390
0
 62
     7
 48
0.360883
100
AcDbLine
 10
180.410278
 20
146.193237
 30
0.0
 11
192.769043
 21
153.652405
 31
0.0
210
0.0
220
0.0
230
1.0
  0
ARC
  5
319
100
AcDbEntity
  8
0
370
    35
390
0
 62
     7
100
AcDbCircle
 10
191.850113
 20
155.176666
 30
0.0
 40
1.779908
210
0.0
220
0.0
230
1.0
100
AcDbArc
 50
301.084305
 51
75.955645
  0
ARC
  5
31A
100
AcDbEntity
  8
0
370
    35
390
0
 62
     7
100
AcDbCircle
 10
154.729019
 20
155.726364
 30
0.0
 40
3.567604
210
0.0
220
0.0
230
1.0
100
AcDbArc
 50
49.996916
 51
100.694494
  0
ARC
  5
31B
100
AcDbEntity
  8
0
370
    35
390
0
 62
     7
100
AcDbCircle
 10
154.728134
 20
155.732758
 30
0.0
 40
3.56115
210
0.0
220
0.0
230
1.0
100
AcDbArc
 50
100.699521
 51
121.126957
  0
LINE
  5
31C
100
AcDbEntity
  8
0
370
    35
390
0
 62
     7
 48
0.394328
100
AcDbLine
 10
139.38356
 20
150.629974
 30
0.0
 11
152.887238
 21
158.781189
 31
0.0
210
0.0
220
0.0
230
1.0
  0
ARC
  5
31D
100
AcDbEntity
  8
0
370
    35
390
0
 62
     7
100
AcDbCircle
 10
140.691864
 20
148.463135
 30
0.0
 40
2.531163
210
0.0
220
0.0
230
1.0
100
AcDbArc
 50
121.123037
 51
138.007838
  0
ARC
  5
31E
100
AcDbEntity
  8
0
370
    35
390
0
 62
     7
100
AcDbCircle
 10
140.129547
 20
148.977509
 30
0.0
 40
1.769927
210
0.0
220
0.0
230
1.0
100
AcDbArc
 50
138.205435
 51
261.626698
  0
ARC
  5
31F
100
AcDbEntity
  8
0
370
    35
390
0
 62
     7
100
AcDbCircle
 10
140.750977
 20
153.139252
 30
0.0
 40
5.978105
210
0.0
220
0.0
230
1.0
100
AcDbArc
 50
261.542741
 51
265.454513
  0
POLYLINE
  5
320
100
AcDbEntity
  8
0
370
    35
390
0
 62
     7
100
AcDb2dPolyline
 66
     1
 10
0.0
 20
0.0
 30
0.0
 71
     4
  0
VERTEX
  5
321
100
AcDbEntity
  8
0
370
     0
390
0
100
AcDbVertex
100
AcDb2dVertex
 10
140.277206
 20
147.179947
 30
0.0
  0
VERTEX
  5
322
100
AcDbEntity
  8
0
370
     0
390
0
100
AcDbVertex
100
AcDb2dVertex
 10
149.368805
 20
146.50061
 30
0.0
  0
VERTEX
  5
323
100
AcDbEntity
  8
0
370
     0
390
0
100
AcDbVertex
100
AcDb2dVertex
 10
158.45491
 20
145.891525
 30
0.0
  0
VERTEX
  5
324
100
AcDbEntity
  8
0
370
     0
390
0
100
AcDbVertex
100
AcDb2dVertex
 10
167.551727
 20
145.334335
 30
0.0
  0
SEQEND
  5
325
100
AcDbEntity
  8
0
370
     0
390
0
  0
ARC
  5
326
100
AcDbEntity
  8
0
370
    35
390
0
 62
     7
100
AcDbCircle
 10
167.700424
 20
147.864166
 30
0.0
 40
2.534196
210
0.0
220
0.0
230
1.0
100
AcDbArc
 50
266.635972
 51
275.566602
  0
ARC
  5
327
100
AcDbEntity
  8
0
370
    35
390
0
 62
     7
100
AcDbCircle
 10
167.769897
 20
147.114395
 30
0.0
 40
1.782663
210
0.0
220
0.0
230
1.0
100
AcDbArc
 50
291.973959
 51
49.981743
  0
ARC
  5
328
100
AcDbEntity
  8
0
370
    35
390
0
 62
     7
100
AcDbCircle
 10
167.773468
 20
147.117142
 30
0.0
 40
1.783608
210
0.0
220
0.0
230
1.0
100
AcDbArc
 50
275.559061
 51
291.834521
  0
LINE
  5
329
100
AcDbEntity
  8
0
370
    35
390
0
 62
     7
 48
0.388149
100
AcDbLine
 10
168.915939
 20
148.479309
 30
0.0
 11
157.022385
 21
158.459198
 31
0.0
210
0.0
220
0.0
230
1.0
  0
ARC
  5
32A
100
AcDbEntity
  8
0
370
    35
390
0
 62
     7
100
AcDbCircle
 10
131.191895
 20
158.563324
 30
0.0
 40
1.781531
210
0.0
220
0.0
230
1.0
100
AcDbArc
 50
98.244833
 51
180.006333
  0
LINE
  5
32B
100
AcDbEntity
  8
0
370
    35
390
0
 62
     7
 48
0.179343
100
AcDbLine
 10
129.410355
 20
151.389404
 30
0.0
 11
129.410355
 21
158.563126
 31
0.0
210
0.0
220
0.0
230
1.0
  0
ARC
  5
32C
100
AcDbEntity
  8
0
370
    35
390
0
 62
     7
100
AcDbCircle
 10
131.952377
 20
151.389404
 30
0.0
 40
2.542026
210
0.0
220
0.0
230
1.0
100
AcDbArc
 50
180.000255
 51
189.801808
  0
ARC
  5
32D
100
AcDbEntity
  8
0
370
    35
390
0
 62
     7
100
AcDbCircle
 10
131.198181
 20
151.261566
 30
0.0
 40
1.777423
210
0.0
220
0.0
230
1.0
100
AcDbArc
 50
189.879891
 51
282.97093
  0
ARC
  5
32E
100
AcDbEntity
  8
0
370
    35
390
0
 62
     7
100
AcDbCircle
 10
131.197113
 20
151.265884
 30
0.0
 40
1.78202
210
0.0
220
0.0
230
1.0
100
AcDbArc
 50
282.973231
 51
298.818512
  0
ARC
  5
32F
100
AcDbEntity
  8
0
370
    35
390
0
 62
     7
100
AcDbCircle
 10
129.190964
 20
154.914886
 30
0.0
 40
5.946142
210
0.0
220
0.0
230
1.0
100
AcDbArc
 50
298.806389
 51
301.121024
  0
LINE
  5
330
100
AcDbEntity
  8
0
370
    35
390
0
 62
     7
 48
0.347484
100
AcDbLine
 10
132.264221
 20
149.824524
 30
0.0
 11
144.163086
 21
157.008484
 31
0.0
210
0.0
220
0.0
230
1.0
  0
ARC
  5
331
100
AcDbEntity
  8
0
370
    35
390
0
 62
     7
100
AcDbCircle
 10
142.848755
 20
159.184875
 30
0.0
 40
2.542469
210
0.0
220
0.0
230
1.0
100
AcDbArc
 50
301.127792
 51
317.27076
  0
ARC
  5
332
100
AcDbEntity
  8
0
370
    35
390
0
 62
     7
100
AcDbCircle
 10
143.411087
 20
158.656952
 30
0.0
 40
1.772172
210
0.0
220
0.0
230
1.0
100
AcDbArc
 50
317.47279
 51
86.052351
  0
ARC
  5
333
100
AcDbEntity
  8
0
370
    35
390
0
 62
     7
100
AcDbCircle
 10
143.120636
 20
154.573456
 30
0.0
 40
5.866285
210
0.0
220
0.0
230
1.0
100
AcDbArc
 50
85.968155
 51
89.225787
  0
ARC
  5
334
100
AcDbEntity
  8
0
370
    35
390
0
 62
     7
100
AcDbCircle
 10
139.176254
 20
-112.543671
 30
0.0
 40
273.011684
210
0.0
220
0.0
230
1.0
100
AcDbArc
 50
89.155545
 51
91.669471
  0
ARC
  5
335
100
AcDbEntity
  8
0
370
    35
390
0
 62
     7
100
AcDbCircle
 10
131.299728
 20
157.813004
 30
0.0
 40
2.539509
210
0.0
220
0.0
230
1.0
100
AcDbArc
 50
91.743511
 51
97.775661
  0
LINE
  5
336
100
AcDbEntity
  8
0
370
    35
390
0
 62
     7
 48
0.000498
100
AcDbLine
 10
130.956146
 20
160.329163
 30
0.0
 11
130.936417
 21
160.326385
 31
0.0
210
0.0
220
0.0
230
1.0
  0
ARC
  5
337
100
AcDbEntity
  8
0
370
    35
390
0
 62
     7
100
AcDbCircle
 10
113.242844
 20
152.053009
 30
0.0
 40
2.432067
210
0.0
220
0.0
230
1.0
100
AcDbArc
 50
179.992888
 51
199.553269
  0
ARC
  5
338
100
AcDbEntity
  8
0
370
    35
390
0
 62
     7
100
AcDbCircle
 10
112.59671
 20
151.827667
 30
0.0
 40
1.747711
210
0.0
220
0.0
230
1.0
100
AcDbArc
 50
199.68083
 51
254.046725
  0
ARC
  5
339
100
AcDbEntity
  8
0
370
    35
390
0
 62
     7
100
AcDbCircle
 10
113.898621
 20
156.382248
 30
0.0
 40
6.484726
210
0.0
220
0.0
230
1.0
100
AcDbArc
 50
254.047442
 51
261.959458
  0
ARC
  5
33A
100
AcDbEntity
  8
0
370
    35
390
0
 62
     7
100
AcDbCircle
 10
152.837616
 20
434.609985
 30
0.0
 40
287.424335
210
0.0
220
0.0
230
1.0
100
AcDbArc
 50
262.031332
 51
263.304185
  0
ARC
  5
33B
100
AcDbEntity
  8
0
370
    35
390
0
 62
     7
100
AcDbCircle
 10
119.53421
 20
150.917969
 30
0.0
 40
1.784386
210
0.0
220
0.0
230
1.0
100
AcDbArc
 50
282.045125
 51
359.988625
  0
ARC
  5
33C
100
AcDbEntity
  8
0
370
    35
390
0
 62
     7
100
AcDbCircle
 10
119.534119
 20
150.91893
 30
0.0
 40
1.785414
210
0.0
220
0.0
230
1.0
100
AcDbArc
 50
263.255596
 51
282.041956
  0
LINE
  5
33D
100
AcDbEntity
  8
0
370
    35
390
0
 62
     7
 48
0.16918
100
AcDbLine
 10
121.318497
 20
150.917618
 30
0.0
 11
121.318497
 21
157.68483
 31
0.0
210
0.0
220
0.0
230
1.0
  0
ARC
  5
33E
100
AcDbEntity
  8
0
370
    35
390
0
 62
     7
100
AcDbCircle
 10
118.893311
 20
157.684982
 30
0.0
 40
2.42518
210
0.0
220
0.0
230
1.0
100
AcDbArc
 50
359.996379
 51
15.115784
  0
ARC
  5
33F
100
AcDbEntity
  8
0
370
    35
390
0
 62
     7
100
AcDbCircle
 10
119.534103
 20
157.856232
 30
0.0
 40
1.761824
210
0.0
220
0.0
230
1.0
100
AcDbArc
 50
15.173248
 51
88.90373
  0
ARC
  5
340
100
AcDbEntity
  8
0
370
    35
390
0
 62
     7
100
AcDbCircle
 10
119.444016
 20
153.106003
 30
0.0
 40
6.512943
210
0.0
220
0.0
230
1.0
100
AcDbArc
 50
88.910922
 51
95.326703
  0
ARC
  5
341
100
AcDbEntity
  8
0
370
    35
390
0
 62
     7
100
AcDbCircle
 10
132.161514
 20
16.485237
 30
0.0
 40
143.724252
210
0.0
220
0.0
230
1.0
100
AcDbArc
 50
95.3185
 51
97.055738
  0
ARC
  5
342
100
AcDbEntity
  8
0
370
    35
390
0
 62
     7
100
AcDbCircle
 10
130.131592
 20
33.157639
 30
0.0
 40
126.928662
210
0.0
220
0.0
230
1.0
100
AcDbArc
 50
97.070819
 51
98.05548
  0
ARC
  5
343
100
AcDbEntity
  8
0
370
    35
390
0
 62
     7
100
AcDbCircle
 10
112.595154
 20
157.067047
 30
0.0
 40
1.784448
210
0.0
220
0.0
230
1.0
100
AcDbArc
 50
98.063963
 51
179.993298
  0
LINE
  5
344
100
AcDbEntity
  8
0
370
    35
390
0
 62
     7
 48
0.125349
100
AcDbLine
 10
110.810745
 20
157.067261
 30
0.0
 11
110.810745
 21
152.053314
 31
0.0
210
0.0
220
0.0
230
1.0
  0
POLYLINE
  5
345
100
AcDbEntity
  8
0
370
    35
390
0
 62
     7
100
AcDb2dPolyline
 66
     1
 10
0.0
 20
0.0
 30
0.0
 71
     8
  0
VERTEX
  5
346
100
AcDbEntity
  8
0
370
     0
390
0
100
AcDbVertex
100
AcDb2dVertex
 10
94.512619
 20
153.856415
 30
0.0
  0
VERTEX
  5
347
100
AcDbEntity
  8
0
370
     0
390
0
100
AcDbVertex
100
AcDb2dVertex
 10
95.465332
 20
154.365601
 30
0.0
  0
VERTEX
  5
348
100
AcDbEntity
  8
0
370
     0
390
0
100
AcDbVertex
100
AcDb2dVertex
 10
96.952011
 20
155.052597
 30
0.0
  0
VERTEX
  5
349
100
AcDbEntity
  8
0
370
     0
390
0
100
AcDbVertex
100
AcDb2dVertex
 10
98.236877
 20
155.560593
 30
0.0
  0
VERTEX
  5
34A
100
AcDbEntity
  8
0
370
     0
390
0
100
AcDbVertex
100
AcDb2dVertex
 10
99.563705
 20
156.02124
 30
0.0
  0
VERTEX
  5
34B
100
AcDbEntity
  8
0
370
     0
390
0
100
AcDbVertex
100
AcDb2dVertex
 10
101.203629
 20
156.525574
 30
0.0
  0
VERTEX
  5
34C
100
AcDbEntity
  8
0
370
     0
390
0
100
AcDbVertex
100
AcDb2dVertex
 10
102.866928
 20
156.981537
 30
0.0
  0
VERTEX
  5
34D
100
AcDbEntity
  8
0
370
     0
390
0
100
AcDbVertex
100
AcDb2dVertex
 10
105.114349
 20
157.523941
 30
0.0
  0
SEQEND
  5
34E
100
AcDbEntity
  8
0
370
     0
390
0
  0
POLYLINE
  5
34F
100
AcDbEntity
  8
0
370
    35
390
0
 62
     7
100
AcDb2dPolyline
 66
     1
 10
0.0
 20
0.0
 30
0.0
 71
     6
  0
VERTEX
  5
350
100
AcDbEntity
  8
0
370
     0
390
0
100
AcDbVertex
100
AcDb2dVertex
 10
94.512619
 20
153.856415
 30
0.0
  0
VERTEX
  5
351
100
AcDbEntity
  8
0
370
     0
390
0
100
AcDbVertex
100
AcDb2dVertex
 10
95.512054
 20
153.504898
 30
0.0
  0
VERTEX
  5
352
100
AcDbEntity
  8
0
370
     0
390
0
100
AcDbVertex
100
AcDb2dVertex
 10
97.593582
 20
152.879944
 30
0.0
  0
VERTEX
  5
353
100
AcDbEntity
  8
0
370
     0
390
0
100
AcDbVertex
100
AcDb2dVertex
 10
100.261719
 20
152.204102
 30
0.0
  0
VERTEX
  5
354
100
AcDbEntity
  8
0
370
     0
390
0
100
AcDbVertex
100
AcDb2dVertex
 10
102.935013
 20
151.623215
 30
0.0
  0
VERTEX
  5
355
100
AcDbEntity
  8
0
370
     0
390
0
100
AcDbVertex
100
AcDb2dVertex
 10
105.116486
 20
151.204239
 30
0.0
  0
SEQEND
  5
356
100
AcDbEntity
  8
0
370
     0
390
0
  0
ARC
  5
357
100
AcDbEntity
  8
0
370
    35
390
0
 62
     7
100
AcDbCircle
 10
105.564682
 20
153.65567
 30
0.0
 40
2.492072
210
0.0
220
0.0
230
1.0
100
AcDbArc
 50
259.638915
 51
265.161307
  0
ARC
  5
358
100
AcDbEntity
  8
0
370
    35
390
0
 62
     7
100
AcDbCircle
 10
105.504242
 20
152.94957
 30
0.0
 40
1.783608
210
0.0
220
0.0
230
1.0
100
AcDbArc
 50
279.867319
 51
359.994948
  0
ARC
  5
359
100
AcDbEntity
  8
0
370
    35
390
0
 62
     7
100
AcDbCircle
 10
105.505096
 20
152.948975
 30
0.0
 40
1.782875
210
0.0
220
0.0
230
1.0
100
AcDbArc
 50
265.153575
 51
279.843236
  0
LINE
  5
35A
100
AcDbEntity
  8
0
370
    35
390
0
 62
     7
 48
0.070832
100
AcDbLine
 10
107.287781
 20
152.949417
 30
0.0
 11
107.287781
 21
155.782715
 31
0.0
210
0.0
220
0.0
230
1.0
  0
ARC
  5
35B
100
AcDbEntity
  8
0
370
    35
390
0
 62
     7
100
AcDbCircle
 10
105.503357
 20
155.7827
 30
0.0
 40
1.784476
210
0.0
220
0.0
230
1.0
100
AcDbArc
 50
0.000612
 51
96.991186
  0
ARC
  5
35C
100
AcDbEntity
  8
0
370
    35
390
0
 62
     7
100
AcDbCircle
 10
105.505173
 20
155.780319
 30
0.0
 40
1.786891
210
0.0
220
0.0
230
1.0
100
AcDbArc
 50
97.039831
 51
102.634001
  0
LINE
  5
35D
100
AcDbEntity
  8
0
370
    13
390
0
 62
     7
 48
0.003843
100
AcDbLine
 10
233.6082
 20
142.121292
 30
0.0
 11
233.686493
 21
142.253601
 31
0.0
210
0.0
220
0.0
230
1.0
  0
LINE
  5
35E
100
AcDbEntity
  8
0
370
    13
390
0
 62
     7
 48
0.003531
100
AcDbLine
 10
244.552795
 20
141.613815
 30
0.0
 11
244.591232
 21
141.749741
 31
0.0
210
0.0
220
0.0
230
1.0
  0
LINE
  5
35F
100
AcDbEntity
  8
0
370
    13
390
0
 62
     7
 48
0.006198
100
AcDbLine
 10
189.141373
 20
144.20192
 30
0.0
 11
189.359283
 21
144.320175
 31
0.0
210
0.0
220
0.0
230
1.0
  0
LINE
  5
360
100
AcDbEntity
  8
0
370
    13
390
0
 62
     7
 48
0.006174
100
AcDbLine
 10
189.456848
 20
144.177567
 30
0.0
 11
189.673645
 21
144.295868
 31
0.0
210
0.0
220
0.0
230
1.0
  0
LINE
  5
361
100
AcDbEntity
  8
0
370
    13
390
0
 62
     7
 48
0.006219
100
AcDbLine
 10
188.063721
 20
147.220642
 30
0.0
 11
188.287827
 21
147.328644
 31
0.0
210
0.0
220
0.0
230
1.0
  0
LINE
  5
362
100
AcDbEntity
  8
0
370
    13
390
0
 62
     7
 48
0.004664
100
AcDbLine
 10
211.970337
 20
143.078888
 30
0.0
 11
212.108047
 21
143.204727
 31
0.0
210
0.0
220
0.0
230
1.0
  0
LINE
  5
363
100
AcDbEntity
  8
0
370
    13
390
0
 62
     7
 48
0.006168
100
AcDbLine
 10
188.54335
 20
147.596283
 30
0.0
 11
188.765915
 21
147.702789
 31
0.0
210
0.0
220
0.0
230
1.0
  0
LINE
  5
364
100
AcDbEntity
  8
0
370
    13
390
0
 62
     7
 48
0.004639
100
AcDbLine
 10
212.320084
 20
143.086777
 30
0.0
 11
212.456558
 21
143.212524
 31
0.0
210
0.0
220
0.0
230
1.0
  0
LINE
  5
365
100
AcDbEntity
  8
0
370
    13
390
0
 62
     7
 48
0.005007
100
AcDbLine
 10
199.812271
 20
154.396332
 30
0.0
 11
199.993683
 21
154.481232
 31
0.0
210
0.0
220
0.0
230
1.0
  0
LINE
  5
366
100
AcDbEntity
  8
0
370
    13
390
0
 62
     7
 48
0.009684
100
AcDbLine
 10
139.871765
 20
147.226151
 30
0.0
 11
140.245941
 21
147.326355
 31
0.0
210
0.0
220
0.0
230
1.0
  0
LINE
  5
367
100
AcDbEntity
  8
0
370
    13
390
0
 62
     7
 48
0.00965
100
AcDbLine
 10
140.277206
 20
147.179947
 30
0.0
 11
140.649963
 21
147.280197
 31
0.0
210
0.0
220
0.0
230
1.0
  0
LINE
  5
368
100
AcDbEntity
  8
0
370
    13
390
0
 62
     7
 48
0.009788
100
AcDbLine
 10
138.810638
 20
150.156525
 30
0.0
 11
139.191544
 21
150.24707
 31
0.0
210
0.0
220
0.0
230
1.0
  0
LINE
  5
369
100
AcDbEntity
  8
0
370
    13
390
0
 62
     7
 48
0.007488
100
AcDbLine
 10
167.551727
 20
145.334335
 30
0.0
 11
167.829849
 21
145.445526
 31
0.0
210
0.0
220
0.0
230
1.0
  0
LINE
  5
36A
100
AcDbEntity
  8
0
370
    13
390
0
 62
     7
 48
0.009734
100
AcDbLine
 10
139.38356
 20
150.629974
 30
0.0
 11
139.762726
 21
150.718552
 31
0.0
210
0.0
220
0.0
230
1.0
  0
LINE
  5
36B
100
AcDbEntity
  8
0
370
    13
390
0
 62
     7
 48
0.007455
100
AcDbLine
 10
167.946259
 20
145.341919
 30
0.0
 11
168.223007
 21
145.452988
 31
0.0
210
0.0
220
0.0
230
1.0
  0
LINE
  5
36C
100
AcDbEntity
  8
0
370
    13
390
0
 62
     7
 48
0.00841
100
AcDbLine
 10
152.887238
 20
158.781189
 30
0.0
 11
153.217682
 21
158.844269
 31
0.0
210
0.0
220
0.0
230
1.0
  0
LINE
  5
36D
100
AcDbEntity
  8
0
370
    13
390
0
 62
     7
 48
0.01097
100
AcDbLine
 10
119.324432
 20
149.145874
 30
0.0
 11
119.753662
 21
149.23703
 31
0.0
210
0.0
220
0.0
230
1.0
  0
LINE
  5
36E
100
AcDbEntity
  8
0
370
    13
390
0
 62
     7
 48
0.011518
100
AcDbLine
 10
112.991577
 20
149.961288
 30
0.0
 11
113.444
 21
150.048431
 31
0.0
210
0.0
220
0.0
230
1.0
  0
LINE
  5
36F
100
AcDbEntity
  8
0
370
    13
390
0
 62
     7
 48
0.011602
100
AcDbLine
 10
112.116348
 20
150.147247
 30
0.0
 11
112.572205
 21
150.234314
 31
0.0
210
0.0
220
0.0
230
1.0
  0
LINE
  5
370
100
AcDbEntity
  8
0
370
    13
390
0
 62
     7
 48
0.011523
100
AcDbLine
 10
112.344833
 20
158.833862
 30
0.0
 11
112.802261
 21
158.89035
 31
0.0
210
0.0
220
0.0
230
1.0
  0
LINE
  5
371
100
AcDbEntity
  8
0
370
    13
390
0
 62
     7
 48
0.011747
100
AcDbLine
 10
110.951096
 20
151.239075
 30
0.0
 11
111.413269
 21
151.323807
 31
0.0
210
0.0
220
0.0
230
1.0
  0
LINE
  5
372
100
AcDbEntity
  8
0
370
    13
390
0
 62
     7
 48
0.011691
100
AcDbLine
 10
110.810745
 20
157.067261
 30
0.0
 11
111.274109
 21
157.130386
 31
0.0
210
0.0
220
0.0
230
1.0
  0
LINE
  5
373
100
AcDbEntity
  8
0
370
    13
390
0
 62
     7
 48
0.011763
100
AcDbLine
 10
110.810745
 20
152.053314
 30
0.0
 11
111.274109
 21
152.135147
 31
0.0
210
0.0
220
0.0
230
1.0
  0
LINE
  5
374
100
AcDbEntity
  8
0
370
    35
390
0
 62
     7
 48
0.010377
100
AcDbLine
 10
126.277039
 20
163.704681
 30
0.0
 11
125.864426
 21
163.659424
 31
0.0
210
0.0
220
0.0
230
1.0
  0
LINE
  5
375
100
AcDbEntity
  8
0
370
    35
390
0
 62
     7
 48
0.010496
100
AcDbLine
 10
124.864426
 20
153.874222
 30
0.0
 11
125.277039
 21
153.951797
 31
0.0
210
0.0
220
0.0
230
1.0
  0
LINE
  5
376
100
AcDbEntity
  8
0
370
    35
390
0
 62
     7
 48
0.010377
100
AcDbLine
 10
125.277039
 20
163.647583
 30
0.0
 11
124.864426
 21
163.602478
 31
0.0
210
0.0
220
0.0
230
1.0
  0
LINE
  5
377
100
AcDbEntity
  8
0
370
    35
390
0
 62
     7
 48
0.007049
100
AcDbLine
 10
330.988098
 20
132.920685
 30
0.0
 11
330.767334
 21
133.096085
 31
0.0
210
0.0
220
0.0
230
1.0
  0
LINE
  5
378
100
AcDbEntity
  8
0
370
    13
390
0
 62
     7
 48
0.008706
100
AcDbLine
 10
105.114349
 20
157.523941
 30
0.0
 11
105.459961
 21
157.566605
 31
0.0
210
0.0
220
0.0
230
1.0
  0
LINE
  5
379
100
AcDbEntity
  8
0
370
    35
390
0
 62
     7
 48
0.012933
100
AcDbLine
 10
94.512619
 20
153.856415
 30
0.0
 11
95.025116
 21
153.92691
 31
0.0
210
0.0
220
0.0
230
1.0
  0
LINE
  5
37A
100
AcDbEntity
  8
0
370
    13
390
0
 62
     7
 48
0.012059
100
AcDbLine
 10
105.116486
 20
151.204239
 30
0.0
 11
105.591827
 21
151.286331
 31
0.0
210
0.0
220
0.0
230
1.0
  0
LINE
  5
37B
100
AcDbEntity
  8
0
370
    13
390
0
 62
     7
 48
0.012039
100
AcDbLine
 10
105.354477
 20
151.172485
 30
0.0
 11
105.828964
 21
151.254669
 31
0.0
210
0.0
220
0.0
230
1.0
  0
LINE
  5
37C
100
AcDbEntity
  8
0
370
    13
390
0
 62
     7
 48
0.010207
100
AcDbLine
 10
129.410355
 20
158.563126
 30
0.0
 11
129.814072
 21
158.624115
 31
0.0
210
0.0
220
0.0
230
1.0
  0
LINE
  5
37D
100
AcDbEntity
  8
0
370
    13
390
0
 62
     7
 48
0.000988
100
AcDbLine
 10
130.936417
 20
160.326385
 30
0.0
 11
130.975586
 21
160.331726
 31
0.0
210
0.0
220
0.0
230
1.0
  0
LINE
  5
37E
100
AcDbEntity
  8
0
370
    13
390
0
 62
     7
 48
0.010318
100
AcDbLine
 10
129.410355
 20
151.389404
 30
0.0
 11
129.814072
 21
151.475143
 31
0.0
210
0.0
220
0.0
230
1.0
  0
LINE
  5
37F
100
AcDbEntity
  8
0
370
    13
390
0
 62
     7
 48
0.010318
100
AcDbLine
 10
129.447464
 20
150.95665
 30
0.0
 11
129.850876
 21
151.043884
 31
0.0
210
0.0
220
0.0
230
1.0
  0
LINE
  5
380
100
AcDbEntity
  8
0
370
    13
390
0
 62
     7
 48
0.006747
100
AcDbLine
 10
179.740829
 20
145.854416
 30
0.0
 11
179.986221
 21
145.966766
 31
0.0
210
0.0
220
0.0
230
1.0
  0
LINE
  5
381
100
AcDbEntity
  8
0
370
    13
390
0
 62
     7
 48
0.006979
100
AcDbLine
 10
176.251694
 20
146.293579
 30
0.0
 11
176.50914
 21
146.401474
 31
0.0
210
0.0
220
0.0
230
1.0
  0
LINE
  5
382
100
AcDbEntity
  8
0
370
    13
390
0
 62
     7
 48
0.007002
100
AcDbLine
 10
175.73465
 20
146.703934
 30
0.0
 11
175.993774
 21
146.810196
 31
0.0
210
0.0
220
0.0
230
1.0
  0
LINE
  5
383
100
AcDbEntity
  8
0
370
    13
390
0
 62
     7
 48
0.007709
100
AcDbLine
 10
163.919235
 20
156.733337
 30
0.0
 11
164.219345
 21
156.804245
 31
0.0
210
0.0
220
0.0
230
1.0
  0
LINE
  5
384
100
AcDbEntity
  8
0
370
    13
390
0
 62
     7
 48
0.00769
100
AcDbLine
 10
164.368591
 20
156.24118
 30
0.0
 11
164.667435
 21
156.314117
 31
0.0
210
0.0
220
0.0
230
1.0
  0
LINE
  5
385
100
AcDbEntity
  8
0
370
    13
390
0
 62
     7
 48
0.003421
100
AcDbLine
 10
231.271576
 20
148.035629
 30
0.0
 11
231.349319
 21
148.148254
 31
0.0
210
0.0
220
0.0
230
1.0
  0
LINE
  5
386
100
AcDbEntity
  8
0
370
    13
390
0
 62
     7
 48
0.004049
100
AcDbLine
 10
224.610916
 20
144.017532
 30
0.0
 11
224.713226
 21
144.143066
 31
0.0
210
0.0
220
0.0
230
1.0
  0
LINE
  5
387
100
AcDbEntity
  8
0
370
    13
390
0
 62
     7
 48
0.004091
100
AcDbLine
 10
224.133789
 20
143.76384
 30
0.0
 11
224.237915
 21
143.89006
 31
0.0
210
0.0
220
0.0
230
1.0
  0
LINE
  5
388
100
AcDbEntity
  8
0
370
    13
390
0
 62
     7
 48
0.004234
100
AcDbLine
 10
220.469864
 20
144.171234
 30
0.0
 11
220.586945
 21
144.29361
 31
0.0
210
0.0
220
0.0
230
1.0
  0
LINE
  5
389
100
AcDbEntity
  8
0
370
    13
390
0
 62
     7
 48
0.004391
100
AcDbLine
 10
212.188934
 20
151.168274
 30
0.0
 11
212.335236
 21
151.265457
 31
0.0
210
0.0
220
0.0
230
1.0
  0
LINE
  5
38A
100
AcDbEntity
  8
0
370
    13
390
0
 62
     7
 48
0.004235
100
AcDbLine
 10
220.057419
 20
144.502609
 30
0.0
 11
220.175888
 21
144.623688
 31
0.0
210
0.0
220
0.0
230
1.0
  0
LINE
  5
38B
100
AcDbEntity
  8
0
370
    13
390
0
 62
     7
 48
0.004389
100
AcDbLine
 10
212.53273
 20
150.816574
 30
0.0
 11
212.677979
 21
150.915176
 31
0.0
210
0.0
220
0.0
230
1.0
  0
LINE
  5
38C
100
AcDbEntity
  8
0
370
    13
390
0
 62
     7
 48
0.003197
100
AcDbLine
 10
254.739151
 20
143.580688
 30
0.0
 11
254.748459
 21
143.708221
 31
0.0
210
0.0
220
0.0
230
1.0
  0
LINE
  5
38D
100
AcDbEntity
  8
0
370
    13
390
0
 62
     7
 48
0.003316
100
AcDbLine
 10
253.404037
 20
142.678055
 30
0.0
 11
253.417709
 21
142.809998
 31
0.0
210
0.0
220
0.0
230
1.0
  0
LINE
  5
38E
100
AcDbEntity
  8
0
370
    13
390
0
 62
     7
 48
0.003133
100
AcDbLine
 10
249.363266
 20
145.923599
 30
0.0
 11
249.389633
 21
146.046127
 31
0.0
210
0.0
220
0.0
230
1.0
  0
LINE
  5
38F
100
AcDbEntity
  8
0
370
    13
390
0
 62
     7
 48
0.003326
100
AcDbLine
 10
252.424118
 20
143.136887
 30
0.0
 11
252.441544
 21
143.268768
 31
0.0
210
0.0
220
0.0
230
1.0
  0
LINE
  5
390
100
AcDbEntity
  8
0
370
    13
390
0
 62
     7
 48
0.003193
100
AcDbLine
 10
249.887436
 20
145.265411
 30
0.0
 11
249.912888
 21
145.390579
 31
0.0
210
0.0
220
0.0
230
1.0
  0
LINE
  5
391
100
AcDbEntity
  8
0
370
    35
390
0
 62
     7
 48
0.011582
100
AcDbLine
 10
117.033463
 20
162.969299
 30
0.0
 11
117.494232
 21
163.017548
 31
0.0
210
0.0
220
0.0
230
1.0
  0
ENDSEC
  0
SECTION
  2
OBJECTS
  0
DICTIONARY
  5
19
100
AcDbDictionary
280
     0
281
     1
  3
ACAD_GROUP
350
1A
  3
ACAD_MLINESTYLE
350
1B
  3
ACAD_LAYOUT
350
1E
  3
ACAD_PLOTSETTINGS
350
22
  3
ACAD_PLOTSTYLENAME
350
1F
  3
ACAD_WIPEOUT_VARS
350
23
  0
DICTIONARY
  5
1A
102
{ACAD_REACTORS
330
19
102
}
100
AcDbDictionary
280
     0
281
     1
  0
DICTIONARY
  5
1B
102
{ACAD_REACTORS
330
19
102
}
100
AcDbDictionary
280
     0
281
     1
  3
Standard
350
1C
  0
MLINESTYLE
  5
1C
102
{ACAD_REACTORS
330
1B
102
}
100
AcDbMlineStyle
  2
Standard
 70
     0
  3

 62
     0
 51
90.0
 52
90.0
 71
     2
 49
0.5
 62
   256
  6
ByLayer
 49
-0.5
 62
   256
  6
ByLayer
  0
ACDBDICTIONARYWDFLT
  5
1F
102
{ACAD_REACTORS
330
19
102
}
100
AcDbDictionary
281
     1
  3
Normal
350
1D
100
AcDbDictionaryWithDefault
340
1D
  0
ACDBPLACEHOLDER
  5
1D
102
{ACAD_REACTORS
330
1F
102
}
  0
LAYOUT
  5
20
102
{ACAD_REACTORS
330
1E
102
}
100
AcDbPlotSettings
  1

  2

  4

  6

 40
0.0
 41
0.0
 42
0.0
 43
0.0
 44
0.0
 45
0.0
 46
0.0
 47
0.0
 48
0.0
 49
0.0
140
0.0
141
0.0
142
1.0
143
1.0
 70
  1024
 72
     0
 73
     0
 74
     0
  7

 75
     0
147
1.0
148
0.0
149
0.0
100
AcDbLayout
  1
Model
 70
     0
 71
     0
 10
0.0
 20
0.0
 11
0.0
 21
0.0
 12
0.0
 22
0.0
 32
0.0
 14
0.0
 24
0.0
 34
0.0
 15
0.0
 25
0.0
 35
0.0
146
0.0
 13
0.0
 23
0.0
 33
0.0
 16
0.0
 26
0.0
 36
0.0
 17
0.0
 27
0.0
 37
0.0
 76
     0
330
A
331
0
345
0
346
0
  0
LAYOUT
  5
21
102
{ACAD_REACTORS
330
1E
102
}
100
AcDbPlotSettings
  1

  2

  4

  6

 40
0.0
 41
0.0
 42
0.0
 43
0.0
 44
0.0
 45
0.0
 46
0.0
 47
0.0
 48
0.0
 49
0.0
140
0.0
141
0.0
142
1.0
143
1.0
 70
     0
 72
     0
 73
     0
 74
     0
  7

 75
     0
147
1.0
148
0.0
149
0.0
100
AcDbLayout
  1
Layout1
 70
     0
 71
     0
 10
0.0
 20
0.0
 11
0.0
 21
0.0
 12
0.0
 22
0.0
 32
0.0
 14
0.0
 24
0.0
 34
0.0
 15
0.0
 25
0.0
 35
0.0
146
0.0
 13
0.0
 23
0.0
 33
0.0
 16
0.0
 26
0.0
 36
0.0
 17
0.0
 27
0.0
 37
0.0
 76
     0
330
B
331
0
345
0
346
0
  0
DICTIONARY
  5
1E
102
{ACAD_REACTORS
330
19
102
}
100
AcDbDictionary
280
     0
281
     1
  3
Layout1
350
21
  3
Model
350
20
  0
DICTIONARY
  5
22
102
{ACAD_REACTORS
330
19
102
}
100
AcDbDictionary
280
     0
281
     1
  0
WIPEOUTVARIABLES
  5
23
100
AcDbWipeoutVariables
 70
     1
  0
ENDSEC
  0
EOF
