  0
SECTION
  2
HEADER
  9
$ACADVER
  1
AC1015
  9
$ACADMAINTVER
 70
     6
  9
$DWGCODEPAGE
  3
ANSI_1252
  9
$INSBASE
 10
0.0
 20
0.0
 30
0.0
  9
$EXTMIN
 10
0.0
 20
0.0
 30
0.0
  9
$EXTMAX
 10
343.410675
 20
166.173492
 30
2.0
  9
$LIMMIN
 10
0.0
 20
0.0
  9
$LIMMAX
 10
420.0
 20
297.0
  9
$ORTHOMODE
 70
     0
  9
$REGENMODE
 70
     1
  9
$FILLMODE
 70
     1
  9
$QTEXTMODE
 70
     0
  9
$MIRRTEXT
 70
     1
  9
$LTSCALE
 40
1.0
  9
$ATTMODE
 70
     1
  9
$TEXTSIZE
 40
2.5
  9
$TRACEWID
 40
1.0
  9
$TEXTSTYLE
  7
Standard
  9
$CLAYER
  8
0
  9
$CELTYPE
  6
ByLayer
  9
$CECOLOR
 62
   256
  9
$CELTSCALE
 40
1.0
  9
$DISPSILH
 70
     0
  9
$DIMSCALE
 40
1.0
  9
$DIMASZ
 40
2.5
  9
$DIMEXO
 40
0.625
  9
$DIMDLI
 40
3.75
  9
$DIMRND
 40
0.0
  9
$DIMDLE
 40
0.0
  9
$DIMEXE
 40
1.25
  9
$DIMTP
 40
0.0
  9
$DIMTM
 40
0.0
  9
$DIMTXT
 40
2.5
  9
$DIMCEN
 40
2.5
  9
$DIMTSZ
 40
0.0
  9
$DIMTOL
 70
     0
  9
$DIMLIM
 70
     0
  9
$DIMTIH
 70
     0
  9
$DIMTOH
 70
     0
  9
$DIMSE1
 70
     0
  9
$DIMSE2
 70
     0
  9
$DIMTAD
 70
     1
  9
$DIMZIN
 70
     8
  9
$DIMBLK
  1

  9
$DIMASO
 70
     1
  9
$DIMSHO
 70
     1
  9
$DIMPOST
  1

  9
$DIMAPOST
  1

  9
$DIMALT
 70
     0
  9
$DIMALTD
 70
     3
  9
$DIMALTF
 40
0.03937
  9
$DIMLFAC
 40
1.0
  9
$DIMTOFL
 70
     1
  9
$DIMTVP
 40
0.0
  9
$DIMTIX
 70
     0
  9
$DIMSOXD
 70
     0
  9
$DIMSAH
 70
     0
  9
$DIMBLK1
  1

  9
$DIMBLK2
  1

  9
$DIMSTYLE
  2

  9
$DIMCLRD
 70
     0
  9
$DIMCLRE
 70
     0
  9
$DIMCLRT
 70
     0
  9
$DIMTFAC
 40
1.0
  9
$DIMGAP
 40
0.625
  9
$DIMJUST
 70
     0
  9
$DIMSD1
 70
     0
  9
$DIMSD2
 70
     0
  9
$DIMTOLJ
 70
     0
  9
$DIMTZIN
 70
     8
  9
$DIMALTZ
 70
     0
  9
$DIMALTTZ
 70
     0
  9
$DIMUPT
 70
     0
  9
$DIMDEC
 70
     2
  9
$DIMTDEC
 70
     2
  9
$DIMALTU
 70
     2
  9
$DIMALTTD
 70
     3
  9
$DIMTXSTY
  7
Standard
  9
$DIMAUNIT
 70
     0
  9
$DIMADEC
 70
     0
  9
$DIMALTRND
 40
0.0
  9
$DIMAZIN
 70
     0
  9
$DIMDSEP
 70
    44
  9
$DIMATFIT
 70
     0
  9
$DIMFRAC
 70
     0
  9
$DIMLDRBLK
  1

  9
$DIMLUNIT
 70
     2
  9
$DIMLWD
 70
    -2
  9
$DIMLWE
 70
    -2
  9
$DIMTMOVE
 70
     0
  9
$LUNITS
 70
     2
  9
$LUPREC
 70
     4
  9
$SKETCHINC
 40
1.0
  9
$FILLETRAD
 40
2.5
  9
$AUNITS
 70
     0
  9
$AUPREC
 70
     0
  9
$MENU
  1
.
  9
$ELEVATION
 40
0.0
  9
$PELEVATION
 40
0.0
  9
$THICKNESS
 40
0.0
  9
$LIMCHECK
 70
     0
  9
$CHAMFERA
 40
2.5
  9
$CHAMFERB
 40
2.5
  9
$CHAMFERC
 40
0.0
  9
$CHAMFERD
 40
0.0
  9
$SKPOLY
 70
     0
  9
$TDCREATE
 40
0.000000000
  9
$TDUCREATE
 40
0.000000000
  9
$TDUPDATE
 40
0.000000000
  9
$TDUUPDATE
 40
0.000000000
  9
$TDINDWG
 40
0.0000000000
  9
$TDUSRTIMER
 40
0.0000000000
  9
$USRTIMER
 70
     1
  9
$ANGBASE
 50
0.0
  9
$ANGDIR
 70
     0
  9
$PDMODE
 70
     0
  9
$PDSIZE
 40
0.0
  9
$PLINEWID
 40
0.0
  9
$SPLFRAME
 70
     0
  9
$SPLINETYPE
 70
     6
  9
$SPLINESEGS
 70
     8
  9
$HANDSEED
  5
3AE
  9
$SURFTAB1
 70
     6
  9
$SURFTAB2
 70
     6
  9
$SURFTYPE
 70
     6
  9
$SURFU
 70
     6
  9
$SURFV
 70
     6
  9
$UCSBASE
  2

  9
$UCSNAME
  2

  9
$UCSORG
 10
0.0
 20
0.0
 30
0.0
  9
$UCSXDIR
 10
1.0
 20
0.0
 30
0.0
  9
$UCSYDIR
 10
0.0
 20
1.0
 30
0.0
  9
$UCSORTHOREF
  2

  9
$UCSORTHOVIEW
 70
     1
  9
$UCSORGTOP
 10
0.0
 20
0.0
 30
0.0
  9
$UCSORGBOTTOM
 10
0.0
 20
0.0
 30
0.0
  9
$UCSORGLEFT
 10
0.0
 20
0.0
 30
0.0
  9
$UCSORGRIGHT
 10
0.0
 20
0.0
 30
0.0
  9
$UCSORGFRONT
 10
0.0
 20
0.0
 30
0.0
  9
$UCSORGBACK
 10
0.0
 20
0.0
 30
0.0
  9
$PUCSBASE
  2

  9
$PUCSNAME
  2

  9
$PUCSORG
 10
0.0
 20
0.0
 30
0.0
  9
$PUCSXDIR
 10
1.0
 20
0.0
 30
0.0
  9
$PUCSYDIR
 10
0.0
 20
1.0
 30
0.0
  9
$PUCSORTHOREF
  2

  9
$PUCSORTHOVIEW
 70
     0
  9
$PUCSORGTOP
 10
0.0
 20
0.0
 30
0.0
  9
$PUCSORGBOTTOM
 10
0.0
 20
0.0
 30
0.0
  9
$PUCSORGLEFT
 10
0.0
 20
0.0
 30
0.0
  9
$PUCSORGRIGHT
 10
0.0
 20
0.0
 30
0.0
  9
$PUCSORGFRONT
 10
0.0
 20
0.0
 30
0.0
  9
$PUCSORGBACK
 10
0.0
 20
0.0
 30
0.0
  9
$USERI1
 70
     0
  9
$USERI2
 70
     0
  9
$USERI3
 70
     0
  9
$USERI4
 70
     0
  9
$USERI5
 70
     0
  9
$USERR1
 40
0.0
  9
$USERR2
 40
0.0
  9
$USERR3
 40
0.0
  9
$USERR4
 40
0.0
  9
$USERR5
 40
0.0
  9
$WORLDVIEW
 70
     1
  9
$SHADEDGE
 70
     3
  9
$SHADEDIF
 70
    70
  9
$TILEMODE
 70
     1
  9
$MAXACTVP
 70
    48
  9
$PINSBASE
 10
0.0
 20
0.0
 30
0.0
  9
$PLIMCHECK
 70
     0
  9
$PEXTMIN
 10
0.0
 20
0.0
 30
0.0
  9
$PEXTMAX
 10
343.410675
 20
166.173492
 30
2.0
  9
$PLIMMIN
 10
0.0
 20
0.0
  9
$PLIMMAX
 10
420.0
 20
297.0
  9
$UNITMODE
 70
     0
  9
$VISRETAIN
 70
     0
  9
$PLINEGEN
 70
     0
  9
$PSLTSCALE
 70
     1
  9
$TREEDEPTH
 70
  3020
  9
$CMLSTYLE
  2
Standard
  9
$CMLJUST
 70
     0
  9
$CMLSCALE
 40
20.0
  9
$PROXYGRAPHICS
 70
     1
  9
$MEASUREMENT
 70
     1
  9
$CELWEIGHT
370
    -1
  9
$ENDCAPS
280
     0
  9
$JOINSTYLE
280
     0
  9
$LWDISPLAY
290
     0
  9
$INSUNITS
 70
     0
  9
$HYPERLINKBASE
  1

  9
$STYLESHEET
  1

  9
$XEDIT
290
     1
  9
$CEPSNTYPE
380
     0
  9
$PSTYLEMODE
290
     0
  9
$FINGERPRINTGUID
  2

  9
$VERSIONGUID
  2

  9
$EXTNAMES
290
     0
  9
$PSVPSCALE
 40
0.0
  0
ENDSEC
  0
SECTION
  2
CLASSES
  0
CLASS
  1
LWPOLYLINE
  2
AcDbPolyline
  3
AutoCAD 2000
 90
        0
280
     0
281
     1
  0
CLASS
  1
IMAGE
  2
AcDbRasterImage
  3
ISM
 90
      127
280
     0
281
     1
  0
CLASS
  1
OLE2FRAME
  2
AcDbOle2Frame
  3
AutoCAD 2000
 90
        0
280
     0
281
     1
  0
CLASS
  1
HATCH
  2
AcDbHatch
  3
AutoCAD 2000
 90
        0
280
     0
281
     1
  0
CLASS
  1
DICTIONARYVAR
  2
AcDbDictionaryVar
  3
AutoCAD 2000
 90
        0
280
     0
281
     0
  0
CLASS
  1
RASTERVARIABLES
  2
AcDbRasterVariables
  3
ISM
 90
        0
280
     0
281
     0
  0
CLASS
  1
IMAGEDEF
  2
AcDbRasterImageDef
  3
ISM
 90
        0
280
     0
281
     0
  0
CLASS
  1
IMAGEDEF_REACTOR
  2
AcDbRasterImageDefReactor
  3
ISM
 90
        1
280
     0
281
     0
  0
CLASS
  1
IDBUFFER
  2
AcDbIdBuffer
  3
AutoCAD 2000
 90
        0
280
     0
281
     0
  0
CLASS
  1
SPATIAL_FILTER
  2
AcDbSpatialFilter
  3
AutoCAD 2000
 90
        0
280
     0
281
     0
  0
CLASS
  1
XRECORD
  2
AcDbXrecord
  3
AutoCAD 2000
 90
        0
280
     0
281
     0
  0
CLASS
  1
SORTENTSTABLE
  2
AcDbSortentsTable
  3
AutoCAD 2000
 90
        0
280
     0
281
     0
  0
CLASS
  1
LAYER_INDEX
  2
AcDbLayerIndex
  3
AutoCAD 2000
 90
        0
280
     0
281
     0
  0
CLASS
  1
SPATIAL_INDEX
  2
AcDbSpatialIndex
  3
AutoCAD 2000
 90
        0
280
     0
281
     0
  0
CLASS
  1
OBJECT_PTR
  2
CAseDLPNTableRecord
  3
"ASE-LPNTableRecord"
 90
        1
280
     0
281
     0
  0
CLASS
  1
LAYOUT
  2
AcDbLayout
  3
AutoCAD 2000
 90
        0
280
     0
281
     0
  0
CLASS
  1
PLOTSETTINGS
  2
AcDbPlotSettings
  3
AutoCAD 2000
 90
        0
280
     0
281
     0
  0
CLASS
  1
ACDBDICTIONARYWDFLT
  2
AcDbDictionaryWithDefault
  3
AutoCAD 2000
 90
        0
280
     0
281
     0
  0
CLASS
  1
ACDBPLACEHOLDER
  2
AcDbPlaceHolder
  3
AutoCAD 2000
 90
        0
280
     0
281
     0
  0
CLASS
  1
VBA_PROJECT
  2
AcDbVbaProject
  3
acadvba
 90
        0
280
     0
281
     0
  0
CLASS
  1
WIPEOUT
  2
AcDbWipeout
  3
WipeOut|AutoCAD Express Tool|expresstools@autodesk.com
 90
      127
280
     0
281
     1
  0
CLASS
  1
WIPEOUTVARIABLES
  2
AcDbWipeoutVariables
  3
WipeOut|AutoCAD Express Tool|expresstools@autodesk.com
 90
        0
280
     0
281
     0
  0
CLASS
  1
RTEXT
  2
RText
  3
RText|AutoCAD Express Tool|expresstools@autodesk.com
 90
        0
280
     0
281
     1
  0
CLASS
  1
ARCALIGNEDTEXT
  2
AcDbArcAlignedText
  3
ATEXT|AutoCAD Express Tool|expresstools@autodesk.com
 90
        0
280
     0
281
     1
  0
ENDSEC
  0
SECTION
  2
TABLES
  0
TABLE
  2
VPORT
  5
7
100
AcDbSymbolTable
 70
     1
  0
VPORT
  5
15
100
AcDbSymbolTableRecord
100
AcDbViewportTableRecord
  2
*ACTIVE
 70
     0
 10
0.0
 20
0.0
 11
1.0
 21
1.0
 12
6.591288
 22
4.579184
 13
0.0
 23
0.0
 14
1.0
 24
1.0
 15
0.0
 25
0.0
 16
0.0
 26
0.0
 36
1.0
 17
0.0
 27
0.0
 37
0.0
 40
9.158369
 41
0.688564
 42
50.0
 43
0.0
 44
0.0
 50
0.0
 51
0.0
 71
     0
 72
   100
 73
     1
 74
     1
 75
     0
 76
     0
 77
     0
 78
     0
281
     0
 65
     0
110
0.0
120
0.0
130
0.0
111
1.0
121
0.0
131
0.0
112
0.0
122
1.0
132
0.0
345
0
346
0
 79
     0
146
0.0
  0
ENDTAB
  0
TABLE
  2
LTYPE
  5
4
100
AcDbSymbolTable
 70
     3
  0
LTYPE
  5
11
100
AcDbSymbolTableRecord
100
AcDbLinetypeTableRecord
  2
ByBlock
 70
    64
  3

 72
    65
 73
     0
 40
0.0
  0
LTYPE
  5
12
100
AcDbSymbolTableRecord
100
AcDbLinetypeTableRecord
  2
ByLayer
 70
    64
  3

 72
    65
 73
     0
 40
0.0
  0
LTYPE
  5
13
100
AcDbSymbolTableRecord
100
AcDbLinetypeTableRecord
  2
Continuous
 70
    64
  3
Solid line
 72
    65
 73
     0
 40
0.0
  0
ENDTAB
  0
TABLE
  2
LAYER
  5
2
100
AcDbSymbolTable
 70
     1
  0
LAYER
  5
14
100
AcDbSymbolTableRecord
100
AcDbLayerTableRecord
  2
0
 70
     0
 62
     7
  6
Continuous
290
     1
370
    -3
390
1D
  0
ENDTAB
  0
TABLE
  2
STYLE
  5
3
100
AcDbSymbolTable
 70
     1
  0
STYLE
  5
17
100
AcDbSymbolTableRecord
100
AcDbTextStyleTableRecord
  2
Standard
 70
     0
 40
0.0
 41
1.0
 50
0.0
 71
     0
 42
0.0
  3
txt
  4

  0
ENDTAB
  0
TABLE
  2
VIEW
  5
5
100
AcDbSymbolTable
 70
     0
  0
ENDTAB
  0
TABLE
  2
UCS
  5
6
100
AcDbSymbolTable
 70
     0
  0
ENDTAB
  0
TABLE
  2
APPID
  5
8
100
AcDbSymbolTable
 70
     1
  0
APPID
  5
16
100
AcDbSymbolTableRecord
100
AcDbRegAppTableRecord
  2
ACAD
 70
     0
  0
ENDTAB
  0
TABLE
  2
DIMSTYLE
  5
9
100
AcDbSymbolTable
 70
     1
100
AcDbDimStyleTable
 71
     0
  0
DIMSTYLE
105
18
100
AcDbSymbolTableRecord
100
AcDbDimStyleTableRecord
  2
Standard
 70
     0
  3

  4

 40
1.0
 41
0.18
 42
0.0625
 43
0.38
 44
0.18
 45
0.0
 46
0.0
 47
0.0
 48
0.0
 71
     0
 72
     0
 73
     1
 74
     1
 75
     0
 76
     0
 77
     0
 78
     0
 79
     0
140
0.18
141
0.09
142
0.0
143
25.4
144
1.0
145
0.0
146
1.0
147
0.09
148
0.0
170
     0
171
     2
172
     0
173
     0
174
     0
175
     0
176
     0
177
     0
178
     0
179
     0
271
     4
272
     4
273
     2
274
     2
275
     0
276
     0
277
     2
278
    46
279
     0
280
     0
281
     0
282
     0
283
     1
284
     0
285
     0
286
     0
288
     0
289
     3
340
17
341
0
342
0
343
0
344
0
371
    -2
372
    -2
  0
ENDTAB
  0
TABLE
  2
BLOCK_RECORD
  5
1
100
AcDbSymbolTable
 70
     0
  0
BLOCK_RECORD
  5
A
100
AcDbSymbolTableRecord
100
AcDbBlockTableRecord
  2
*MODEL_SPACE
340
20
  0
BLOCK_RECORD
  5
B
100
AcDbSymbolTableRecord
100
AcDbBlockTableRecord
  2
*PAPER_SPACE
340
21
  0
ENDTAB
  0
ENDSEC
  0
SECTION
  2
BLOCKS
  0
BLOCK
  5
D
100
AcDbEntity
  8
0
390
0
100
AcDbBlockBegin
  2
*MODEL_SPACE
 70
     0
 10
0.0
 20
0.0
 30
0.0
  3
*MODEL_SPACE
  1

  0
ENDBLK
  5
E
100
AcDbEntity
  8
0
390
0
100
AcDbBlockEnd
  0
BLOCK
  5
F
100
AcDbEntity
 67
     1
  8
0
390
0
100
AcDbBlockBegin
  2
*PAPER_SPACE
 70
     0
 10
0.0
 20
0.0
 30
0.0
  3
*PAPER_SPACE
  1

  0
ENDBLK
  5
10
100
AcDbEntity
 67
     1
  8
0
390
0
100
AcDbBlockEnd
  0
ENDSEC
  0
SECTION
  2
ENTITIES
  0
VIEWPORT
  5
3AD
100
AcDbEntity
 67
     1
  8
0
370
     0
390
0
 62
     0
 48
0.0
100
AcDbViewport
 10
0.0
 20
0.0
 30
0.0
 40
1000.0
 41
1000.0
 68
     1
 69
     1
 12
0.0
 22
0.0
 13
0.0
 23
0.0
 14
1.0
 24
1.0
 15
1.0
 25
1.0
 16
0.0
 26
0.0
 36
1.0
 17
0.0
 27
0.0
 37
0.0
 42
50.0
 43
0.0
 44
0.0
 45
1000.0
 50
0.0
 51
0.0
 72
   100
 90
        0
340
0
  1

281
     0
 71
     0
 74
     1
110
0.0
120
0.0
130
0.0
111
1.0
121
0.0
131
0.0
112
0.0
122
1.0
132
0.0
345
0
346
0
 79
     0
146
0.0
  0
POLYLINE
  5
24
100
AcDbEntity
  8
0
370
    13
390
0
 62
     7
100
AcDb2dPolyline
 66
     1
 10
0.0
 20
0.0
 30
0.0
 70
     1
 71
    10
  0
VERTEX
  5
25
100
AcDbEntity
  8
0
370
     0
390
0
100
AcDbVertex
100
AcDb2dVertex
 10
194.116089
 20
-21.419037
 30
0.0
  0
VERTEX
  5
26
100
AcDbEntity
  8
0
370
     0
390
0
100
AcDbVertex
100
AcDb2dVertex
 10
194.585114
 20
-21.419037
 30
0.0
  0
VERTEX
  5
27
100
AcDbEntity
  8
0
370
     0
390
0
100
AcDbVertex
100
AcDb2dVertex
 10
194.585114
 20
-19.810247
 30
0.0
  0
VERTEX
  5
28
100
AcDbEntity
  8
0
370
     0
390
0
100
AcDbVertex
100
AcDb2dVertex
 10
196.057739
 20
-19.810247
 30
0.0
  0
VERTEX
  5
29
100
AcDbEntity
  8
0
370
     0
390
0
100
AcDbVertex
100
AcDb2dVertex
 10
196.057739
 20
-19.391659
 30
0.0
  0
VERTEX
  5
2A
100
AcDbEntity
  8
0
370
     0
390
0
100
AcDbVertex
100
AcDb2dVertex
 10
194.585114
 20
-19.391659
 30
0.0
  0
VERTEX
  5
2B
100
AcDbEntity
  8
0
370
     0
390
0
100
AcDbVertex
100
AcDb2dVertex
 10
194.585114
 20
-18.342669
 30
0.0
  0
VERTEX
  5
2C
100
AcDbEntity
  8
0
370
     0
390
0
100
AcDbVertex
100
AcDb2dVertex
 10
196.39563
 20
-18.342669
 30
0.0
  0
VERTEX
  5
2D
100
AcDbEntity
  8
0
370
     0
390
0
100
AcDbVertex
100
AcDb2dVertex
 10
196.39563
 20
-17.919037
 30
0.0
  0
VERTEX
  5
2E
100
AcDbEntity
  8
0
370
     0
390
0
100
AcDbVertex
100
AcDb2dVertex
 10
194.116089
 20
-17.919037
 30
0.0
  0
SEQEND
  5
2F
100
AcDbEntity
  8
0
370
     0
390
0
  0
POLYLINE
  5
30
100
AcDbEntity
  8
0
370
    13
390
0
 62
     7
100
AcDb2dPolyline
 66
     1
 10
0.0
 20
0.0
 30
0.0
 70
     1
 71
    22
  0
VERTEX
  5
31
100
AcDbEntity
  8
0
370
     0
390
0
100
AcDbVertex
100
AcDb2dVertex
 10
197.308456
 20
-21.419037
 30
0.0
  0
VERTEX
  5
32
100
AcDbEntity
  8
0
370
     0
390
0
100
AcDbVertex
100
AcDb2dVertex
 10
197.752258
 20
-21.419037
 30
0.0
  0
VERTEX
  5
33
100
AcDbEntity
  8
0
370
     0
390
0
100
AcDbVertex
100
AcDb2dVertex
 10
197.752258
 20
-19.870766
 30
0.0
  0
VERTEX
  5
34
100
AcDbEntity
  8
0
370
     0
390
0
100
AcDbVertex
100
AcDb2dVertex
 10
197.797653
 20
-19.497566
 30
0.0
  0
VERTEX
  5
35
100
AcDbEntity
  8
0
370
     0
390
0
100
AcDbVertex
100
AcDb2dVertex
 10
197.933823
 20
-19.230276
 30
0.0
  0
VERTEX
  5
36
100
AcDbEntity
  8
0
370
     0
390
0
100
AcDbVertex
100
AcDb2dVertex
 10
198.155716
 20
-19.068893
 30
0.0
  0
VERTEX
  5
37
100
AcDbEntity
  8
0
370
     0
390
0
100
AcDbVertex
100
AcDb2dVertex
 10
198.453262
 20
-19.013416
 30
0.0
  0
VERTEX
  5
38
100
AcDbEntity
  8
0
370
     0
390
0
100
AcDbVertex
100
AcDb2dVertex
 10
198.675171
 20
-19.048719
 30
0.0
  0
VERTEX
  5
39
100
AcDbEntity
  8
0
370
     0
390
0
100
AcDbVertex
100
AcDb2dVertex
 10
198.841599
 20
-19.149584
 30
0.0
  0
VERTEX
  5
3A
100
AcDbEntity
  8
0
370
     0
390
0
100
AcDbVertex
100
AcDb2dVertex
 10
198.942459
 20
-19.321054
 30
0.0
  0
VERTEX
  5
3B
100
AcDbEntity
  8
0
370
     0
390
0
100
AcDbVertex
100
AcDb2dVertex
 10
198.977768
 20
-19.553043
 30
0.0
  0
VERTEX
  5
3C
100
AcDbEntity
  8
0
370
     0
390
0
100
AcDbVertex
100
AcDb2dVertex
 10
199.426605
 20
-19.553043
 30
0.0
  0
VERTEX
  5
3D
100
AcDbEntity
  8
0
370
     0
390
0
100
AcDbVertex
100
AcDb2dVertex
 10
199.366089
 20
-19.144541
 30
0.0
  0
VERTEX
  5
3E
100
AcDbEntity
  8
0
370
     0
390
0
100
AcDbVertex
100
AcDb2dVertex
 10
199.199661
 20
-18.852034
 30
0.0
  0
VERTEX
  5
3F
100
AcDbEntity
  8
0
370
     0
390
0
100
AcDbVertex
100
AcDb2dVertex
 10
198.922287
 20
-18.675522
 30
0.0
  0
VERTEX
  5
40
100
AcDbEntity
  8
0
370
     0
390
0
100
AcDbVertex
100
AcDb2dVertex
 10
198.544052
 20
-18.615002
 30
0.0
  0
VERTEX
  5
41
100
AcDbEntity
  8
0
370
     0
390
0
100
AcDbVertex
100
AcDb2dVertex
 10
198.286835
 20
-18.655348
 30
0.0
  0
VERTEX
  5
42
100
AcDbEntity
  8
0
370
     0
390
0
100
AcDbVertex
100
AcDb2dVertex
 10
198.064941
 20
-18.756212
 30
0.0
  0
VERTEX
  5
43
100
AcDbEntity
  8
0
370
     0
390
0
100
AcDbVertex
100
AcDb2dVertex
 10
197.868256
 20
-18.927683
 30
0.0
  0
VERTEX
  5
44
100
AcDbEntity
  8
0
370
     0
390
0
100
AcDbVertex
100
AcDb2dVertex
 10
197.711914
 20
-19.159672
 30
0.0
  0
VERTEX
  5
45
100
AcDbEntity
  8
0
370
     0
390
0
100
AcDbVertex
100
AcDb2dVertex
 10
197.711914
 20
-18.710823
 30
0.0
  0
VERTEX
  5
46
100
AcDbEntity
  8
0
370
     0
390
0
100
AcDbVertex
100
AcDb2dVertex
 10
197.308456
 20
-18.710823
 30
0.0
  0
SEQEND
  5
47
100
AcDbEntity
  8
0
370
     0
390
0
  0
POLYLINE
  5
48
100
AcDbEntity
  8
0
370
    13
390
0
 62
     7
100
AcDb2dPolyline
 66
     1
 10
0.0
 20
0.0
 30
0.0
 70
     1
 71
    16
  0
VERTEX
  5
49
100
AcDbEntity
  8
0
370
     0
390
0
100
AcDbVertex
100
AcDb2dVertex
 10
200.046936
 20
-20.067451
 30
0.0
  0
VERTEX
  5
4A
100
AcDbEntity
  8
0
370
     0
390
0
100
AcDbVertex
100
AcDb2dVertex
 10
200.127625
 20
-20.682726
 30
0.0
  0
VERTEX
  5
4B
100
AcDbEntity
  8
0
370
     0
390
0
100
AcDbVertex
100
AcDb2dVertex
 10
200.359604
 20
-21.136616
 30
0.0
  0
VERTEX
  5
4C
100
AcDbEntity
  8
0
370
     0
390
0
100
AcDbVertex
100
AcDb2dVertex
 10
200.727768
 20
-21.419037
 30
0.0
  0
VERTEX
  5
4D
100
AcDbEntity
  8
0
370
     0
390
0
100
AcDbVertex
100
AcDb2dVertex
 10
201.222
 20
-21.514858
 30
0.0
  0
VERTEX
  5
4E
100
AcDbEntity
  8
0
370
     0
390
0
100
AcDbVertex
100
AcDb2dVertex
 10
201.711197
 20
-21.419037
 30
0.0
  0
VERTEX
  5
4F
100
AcDbEntity
  8
0
370
     0
390
0
100
AcDbVertex
100
AcDb2dVertex
 10
202.079346
 20
-21.141659
 30
0.0
  0
VERTEX
  5
50
100
AcDbEntity
  8
0
370
     0
390
0
100
AcDbVertex
100
AcDb2dVertex
 10
202.31134
 20
-20.687769
 30
0.0
  0
VERTEX
  5
51
100
AcDbEntity
  8
0
370
     0
390
0
100
AcDbVertex
100
AcDb2dVertex
 10
202.397079
 20
-20.067451
 30
0.0
  0
VERTEX
  5
52
100
AcDbEntity
  8
0
370
     0
390
0
100
AcDbVertex
100
AcDb2dVertex
 10
202.31134
 20
-19.452179
 30
0.0
  0
VERTEX
  5
53
100
AcDbEntity
  8
0
370
     0
390
0
100
AcDbVertex
100
AcDb2dVertex
 10
202.079346
 20
-18.993244
 30
0.0
  0
VERTEX
  5
54
100
AcDbEntity
  8
0
370
     0
390
0
100
AcDbVertex
100
AcDb2dVertex
 10
201.711197
 20
-18.715866
 30
0.0
  0
VERTEX
  5
55
100
AcDbEntity
  8
0
370
     0
390
0
100
AcDbVertex
100
AcDb2dVertex
 10
201.222
 20
-18.615002
 30
0.0
  0
VERTEX
  5
56
100
AcDbEntity
  8
0
370
     0
390
0
100
AcDbVertex
100
AcDb2dVertex
 10
200.727768
 20
-18.715866
 30
0.0
  0
VERTEX
  5
57
100
AcDbEntity
  8
0
370
     0
390
0
100
AcDbVertex
100
AcDb2dVertex
 10
200.359604
 20
-18.998287
 30
0.0
  0
VERTEX
  5
58
100
AcDbEntity
  8
0
370
     0
390
0
100
AcDbVertex
100
AcDb2dVertex
 10
200.127625
 20
-19.452179
 30
0.0
  0
SEQEND
  5
59
100
AcDbEntity
  8
0
370
     0
390
0
  0
POLYLINE
  5
5A
100
AcDbEntity
  8
0
370
    13
390
0
 62
     7
100
AcDb2dPolyline
 66
     1
 10
0.0
 20
0.0
 30
0.0
 70
     1
 71
    16
  0
VERTEX
  5
5B
100
AcDbEntity
  8
0
370
     0
390
0
100
AcDbVertex
100
AcDb2dVertex
 10
200.500824
 20
-20.062408
 30
0.0
  0
VERTEX
  5
5C
100
AcDbEntity
  8
0
370
     0
390
0
100
AcDbVertex
100
AcDb2dVertex
 10
200.546204
 20
-19.608519
 30
0.0
  0
VERTEX
  5
5D
100
AcDbEntity
  8
0
370
     0
390
0
100
AcDbVertex
100
AcDb2dVertex
 10
200.687424
 20
-19.280708
 30
0.0
  0
VERTEX
  5
5E
100
AcDbEntity
  8
0
370
     0
390
0
100
AcDbVertex
100
AcDb2dVertex
 10
200.914368
 20
-19.078979
 30
0.0
  0
VERTEX
  5
5F
100
AcDbEntity
  8
0
370
     0
390
0
100
AcDbVertex
100
AcDb2dVertex
 10
201.222
 20
-19.008373
 30
0.0
  0
VERTEX
  5
60
100
AcDbEntity
  8
0
370
     0
390
0
100
AcDbVertex
100
AcDb2dVertex
 10
201.524597
 20
-19.078979
 30
0.0
  0
VERTEX
  5
61
100
AcDbEntity
  8
0
370
     0
390
0
100
AcDbVertex
100
AcDb2dVertex
 10
201.751541
 20
-19.275665
 30
0.0
  0
VERTEX
  5
62
100
AcDbEntity
  8
0
370
     0
390
0
100
AcDbVertex
100
AcDb2dVertex
 10
201.892746
 20
-19.608519
 30
0.0
  0
VERTEX
  5
63
100
AcDbEntity
  8
0
370
     0
390
0
100
AcDbVertex
100
AcDb2dVertex
 10
201.943176
 20
-20.062408
 30
0.0
  0
VERTEX
  5
64
100
AcDbEntity
  8
0
370
     0
390
0
100
AcDbVertex
100
AcDb2dVertex
 10
201.892746
 20
-20.521343
 30
0.0
  0
VERTEX
  5
65
100
AcDbEntity
  8
0
370
     0
390
0
100
AcDbVertex
100
AcDb2dVertex
 10
201.751541
 20
-20.854195
 30
0.0
  0
VERTEX
  5
66
100
AcDbEntity
  8
0
370
     0
390
0
100
AcDbVertex
100
AcDb2dVertex
 10
201.524597
 20
-21.055925
 30
0.0
  0
VERTEX
  5
67
100
AcDbEntity
  8
0
370
     0
390
0
100
AcDbVertex
100
AcDb2dVertex
 10
201.222
 20
-21.121487
 30
0.0
  0
VERTEX
  5
68
100
AcDbEntity
  8
0
370
     0
390
0
100
AcDbVertex
100
AcDb2dVertex
 10
200.914368
 20
-21.055925
 30
0.0
  0
VERTEX
  5
69
100
AcDbEntity
  8
0
370
     0
390
0
100
AcDbVertex
100
AcDb2dVertex
 10
200.687424
 20
-20.854195
 30
0.0
  0
VERTEX
  5
6A
100
AcDbEntity
  8
0
370
     0
390
0
100
AcDbVertex
100
AcDb2dVertex
 10
200.546204
 20
-20.521343
 30
0.0
  0
SEQEND
  5
6B
100
AcDbEntity
  8
0
370
     0
390
0
  0
POLYLINE
  5
6C
100
AcDbEntity
  8
0
370
    13
390
0
 62
     7
100
AcDb2dPolyline
 66
     1
 10
0.0
 20
0.0
 30
0.0
 70
     1
 71
    24
  0
VERTEX
  5
6D
100
AcDbEntity
  8
0
370
     0
390
0
100
AcDbVertex
100
AcDb2dVertex
 10
203.214081
 20
-21.419037
 30
0.0
  0
VERTEX
  5
6E
100
AcDbEntity
  8
0
370
     0
390
0
100
AcDbVertex
100
AcDb2dVertex
 10
203.657883
 20
-21.419037
 30
0.0
  0
VERTEX
  5
6F
100
AcDbEntity
  8
0
370
     0
390
0
100
AcDbVertex
100
AcDb2dVertex
 10
203.657883
 20
-19.855637
 30
0.0
  0
VERTEX
  5
70
100
AcDbEntity
  8
0
370
     0
390
0
100
AcDbVertex
100
AcDb2dVertex
 10
203.703262
 20
-19.497566
 30
0.0
  0
VERTEX
  5
71
100
AcDbEntity
  8
0
370
     0
390
0
100
AcDbVertex
100
AcDb2dVertex
 10
203.849518
 20
-19.235319
 30
0.0
  0
VERTEX
  5
72
100
AcDbEntity
  8
0
370
     0
390
0
100
AcDbVertex
100
AcDb2dVertex
 10
204.076462
 20
-19.073936
 30
0.0
  0
VERTEX
  5
73
100
AcDbEntity
  8
0
370
     0
390
0
100
AcDbVertex
100
AcDb2dVertex
 10
204.379059
 20
-19.013416
 30
0.0
  0
VERTEX
  5
74
100
AcDbEntity
  8
0
370
     0
390
0
100
AcDbVertex
100
AcDb2dVertex
 10
204.62114
 20
-19.06385
 30
0.0
  0
VERTEX
  5
75
100
AcDbEntity
  8
0
370
     0
390
0
100
AcDbVertex
100
AcDb2dVertex
 10
204.77243
 20
-19.200016
 30
0.0
  0
VERTEX
  5
76
100
AcDbEntity
  8
0
370
     0
390
0
100
AcDbVertex
100
AcDb2dVertex
 10
204.848083
 20
-19.426962
 30
0.0
  0
VERTEX
  5
77
100
AcDbEntity
  8
0
370
     0
390
0
100
AcDbVertex
100
AcDb2dVertex
 10
204.873291
 20
-19.729555
 30
0.0
  0
VERTEX
  5
78
100
AcDbEntity
  8
0
370
     0
390
0
100
AcDbVertex
100
AcDb2dVertex
 10
204.873291
 20
-21.419037
 30
0.0
  0
VERTEX
  5
79
100
AcDbEntity
  8
0
370
     0
390
0
100
AcDbVertex
100
AcDb2dVertex
 10
205.317108
 20
-21.419037
 30
0.0
  0
VERTEX
  5
7A
100
AcDbEntity
  8
0
370
     0
390
0
100
AcDbVertex
100
AcDb2dVertex
 10
205.317108
 20
-19.638777
 30
0.0
  0
VERTEX
  5
7B
100
AcDbEntity
  8
0
370
     0
390
0
100
AcDbVertex
100
AcDb2dVertex
 10
205.296936
 20
-19.280708
 30
0.0
  0
VERTEX
  5
7C
100
AcDbEntity
  8
0
370
     0
390
0
100
AcDbVertex
100
AcDb2dVertex
 10
205.206146
 20
-18.983158
 30
0.0
  0
VERTEX
  5
7D
100
AcDbEntity
  8
0
370
     0
390
0
100
AcDbVertex
100
AcDb2dVertex
 10
204.9086
 20
-18.710823
 30
0.0
  0
VERTEX
  5
7E
100
AcDbEntity
  8
0
370
     0
390
0
100
AcDbVertex
100
AcDb2dVertex
 10
204.444626
 20
-18.615002
 30
0.0
  0
VERTEX
  5
7F
100
AcDbEntity
  8
0
370
     0
390
0
100
AcDbVertex
100
AcDb2dVertex
 10
204.187424
 20
-18.650305
 30
0.0
  0
VERTEX
  5
80
100
AcDbEntity
  8
0
370
     0
390
0
100
AcDbVertex
100
AcDb2dVertex
 10
203.970566
 20
-18.746126
 30
0.0
  0
VERTEX
  5
81
100
AcDbEntity
  8
0
370
     0
390
0
100
AcDbVertex
100
AcDb2dVertex
 10
203.783966
 20
-18.907509
 30
0.0
  0
VERTEX
  5
82
100
AcDbEntity
  8
0
370
     0
390
0
100
AcDbVertex
100
AcDb2dVertex
 10
203.637711
 20
-19.124369
 30
0.0
  0
VERTEX
  5
83
100
AcDbEntity
  8
0
370
     0
390
0
100
AcDbVertex
100
AcDb2dVertex
 10
203.637711
 20
-18.710823
 30
0.0
  0
VERTEX
  5
84
100
AcDbEntity
  8
0
370
     0
390
0
100
AcDbVertex
100
AcDb2dVertex
 10
203.214081
 20
-18.710823
 30
0.0
  0
SEQEND
  5
85
100
AcDbEntity
  8
0
370
     0
390
0
  0
POLYLINE
  5
86
100
AcDbEntity
  8
0
370
    13
390
0
 62
     7
100
AcDb2dPolyline
 66
     1
 10
0.0
 20
0.0
 30
0.0
 70
     1
 71
    22
  0
VERTEX
  5
87
100
AcDbEntity
  8
0
370
     0
390
0
100
AcDbVertex
100
AcDb2dVertex
 10
206.8452
 20
-19.179844
 30
0.0
  0
VERTEX
  5
88
100
AcDbEntity
  8
0
370
     0
390
0
100
AcDbVertex
100
AcDb2dVertex
 10
206.8452
 20
-20.536472
 30
0.0
  0
VERTEX
  5
89
100
AcDbEntity
  8
0
370
     0
390
0
100
AcDbVertex
100
AcDb2dVertex
 10
206.875458
 20
-20.975233
 30
0.0
  0
VERTEX
  5
8A
100
AcDbEntity
  8
0
370
     0
390
0
100
AcDbVertex
100
AcDb2dVertex
 10
207.016663
 20
-21.277826
 30
0.0
  0
VERTEX
  5
8B
100
AcDbEntity
  8
0
370
     0
390
0
100
AcDbVertex
100
AcDb2dVertex
 10
207.299088
 20
-21.45434
 30
0.0
  0
VERTEX
  5
8C
100
AcDbEntity
  8
0
370
     0
390
0
100
AcDbVertex
100
AcDb2dVertex
 10
207.778198
 20
-21.514858
 30
0.0
  0
VERTEX
  5
8D
100
AcDbEntity
  8
0
370
     0
390
0
100
AcDbVertex
100
AcDb2dVertex
 10
208.302689
 20
-21.489641
 30
0.0
  0
VERTEX
  5
8E
100
AcDbEntity
  8
0
370
     0
390
0
100
AcDbVertex
100
AcDb2dVertex
 10
208.302689
 20
-21.106358
 30
0.0
  0
VERTEX
  5
8F
100
AcDbEntity
  8
0
370
     0
390
0
100
AcDbVertex
100
AcDb2dVertex
 10
207.919403
 20
-21.136616
 30
0.0
  0
VERTEX
  5
90
100
AcDbEntity
  8
0
370
     0
390
0
100
AcDbVertex
100
AcDb2dVertex
 10
207.571426
 20
-21.09627
 30
0.0
  0
VERTEX
  5
91
100
AcDbEntity
  8
0
370
     0
390
0
100
AcDbVertex
100
AcDb2dVertex
 10
207.384827
 20
-20.97019
 30
0.0
  0
VERTEX
  5
92
100
AcDbEntity
  8
0
370
     0
390
0
100
AcDbVertex
100
AcDb2dVertex
 10
207.304138
 20
-20.758373
 30
0.0
  0
VERTEX
  5
93
100
AcDbEntity
  8
0
370
     0
390
0
100
AcDbVertex
100
AcDb2dVertex
 10
207.289001
 20
-20.460823
 30
0.0
  0
VERTEX
  5
94
100
AcDbEntity
  8
0
370
     0
390
0
100
AcDbVertex
100
AcDb2dVertex
 10
207.289001
 20
-19.179844
 30
0.0
  0
VERTEX
  5
95
100
AcDbEntity
  8
0
370
     0
390
0
100
AcDbVertex
100
AcDb2dVertex
 10
208.302689
 20
-19.179844
 30
0.0
  0
VERTEX
  5
96
100
AcDbEntity
  8
0
370
     0
390
0
100
AcDbVertex
100
AcDb2dVertex
 10
208.302689
 20
-18.801601
 30
0.0
  0
VERTEX
  5
97
100
AcDbEntity
  8
0
370
     0
390
0
100
AcDbVertex
100
AcDb2dVertex
 10
207.289001
 20
-18.801601
 30
0.0
  0
VERTEX
  5
98
100
AcDbEntity
  8
0
370
     0
390
0
100
AcDbVertex
100
AcDb2dVertex
 10
207.289001
 20
-18.009815
 30
0.0
  0
VERTEX
  5
99
100
AcDbEntity
  8
0
370
     0
390
0
100
AcDbVertex
100
AcDb2dVertex
 10
206.8452
 20
-18.009815
 30
0.0
  0
VERTEX
  5
9A
100
AcDbEntity
  8
0
370
     0
390
0
100
AcDbVertex
100
AcDb2dVertex
 10
206.8452
 20
-18.801601
 30
0.0
  0
VERTEX
  5
9B
100
AcDbEntity
  8
0
370
     0
390
0
100
AcDbVertex
100
AcDb2dVertex
 10
206.078629
 20
-18.801601
 30
0.0
  0
VERTEX
  5
9C
100
AcDbEntity
  8
0
370
     0
390
0
100
AcDbVertex
100
AcDb2dVertex
 10
206.078629
 20
-19.179844
 30
0.0
  0
SEQEND
  5
9D
100
AcDbEntity
  8
0
370
     0
390
0
  0
POLYLINE
  5
9E
100
AcDbEntity
  8
0
370
    13
390
0
 62
     7
100
AcDb2dPolyline
 66
     1
 10
0.0
 20
0.0
 30
0.0
 70
     1
 71
     7
  0
VERTEX
  5
9F
100
AcDbEntity
  8
0
370
     0
390
0
100
AcDbVertex
100
AcDb2dVertex
 10
213.134109
 20
-21.419037
 30
0.0
  0
VERTEX
  5
A0
100
AcDbEntity
  8
0
370
     0
390
0
100
AcDbVertex
100
AcDb2dVertex
 10
213.603119
 20
-21.419037
 30
0.0
  0
VERTEX
  5
A1
100
AcDbEntity
  8
0
370
     0
390
0
100
AcDbVertex
100
AcDb2dVertex
 10
214.591599
 20
-18.710823
 30
0.0
  0
VERTEX
  5
A2
100
AcDbEntity
  8
0
370
     0
390
0
100
AcDbVertex
100
AcDb2dVertex
 10
214.13266
 20
-18.710823
 30
0.0
  0
VERTEX
  5
A3
100
AcDbEntity
  8
0
370
     0
390
0
100
AcDbVertex
100
AcDb2dVertex
 10
213.37114
 20
-20.894541
 30
0.0
  0
VERTEX
  5
A4
100
AcDbEntity
  8
0
370
     0
390
0
100
AcDbVertex
100
AcDb2dVertex
 10
212.594482
 20
-18.710823
 30
0.0
  0
VERTEX
  5
A5
100
AcDbEntity
  8
0
370
     0
390
0
100
AcDbVertex
100
AcDb2dVertex
 10
212.130508
 20
-18.710823
 30
0.0
  0
SEQEND
  5
A6
100
AcDbEntity
  8
0
370
     0
390
0
  0
POLYLINE
  5
A7
100
AcDbEntity
  8
0
370
    13
390
0
 62
     7
100
AcDb2dPolyline
 66
     1
 10
0.0
 20
0.0
 30
0.0
 70
     1
 71
    10
  0
VERTEX
  5
A8
100
AcDbEntity
  8
0
370
     0
390
0
100
AcDbVertex
100
AcDb2dVertex
 10
216.714798
 20
-21.045837
 30
0.0
  0
VERTEX
  5
A9
100
AcDbEntity
  8
0
370
     0
390
0
100
AcDbVertex
100
AcDb2dVertex
 10
216.714798
 20
-18.801601
 30
0.0
  0
VERTEX
  5
AA
100
AcDbEntity
  8
0
370
     0
390
0
100
AcDbVertex
100
AcDb2dVertex
 10
215.575027
 20
-18.801601
 30
0.0
  0
VERTEX
  5
AB
100
AcDbEntity
  8
0
370
     0
390
0
100
AcDbVertex
100
AcDb2dVertex
 10
215.575027
 20
-19.179844
 30
0.0
  0
VERTEX
  5
AC
100
AcDbEntity
  8
0
370
     0
390
0
100
AcDbVertex
100
AcDb2dVertex
 10
216.270996
 20
-19.179844
 30
0.0
  0
VERTEX
  5
AD
100
AcDbEntity
  8
0
370
     0
390
0
100
AcDbVertex
100
AcDb2dVertex
 10
216.270996
 20
-21.045837
 30
0.0
  0
VERTEX
  5
AE
100
AcDbEntity
  8
0
370
     0
390
0
100
AcDbVertex
100
AcDb2dVertex
 10
215.36322
 20
-21.045837
 30
0.0
  0
VERTEX
  5
AF
100
AcDbEntity
  8
0
370
     0
390
0
100
AcDbVertex
100
AcDb2dVertex
 10
215.36322
 20
-21.419037
 30
0.0
  0
VERTEX
  5
B0
100
AcDbEntity
  8
0
370
     0
390
0
100
AcDbVertex
100
AcDb2dVertex
 10
217.63266
 20
-21.419037
 30
0.0
  0
VERTEX
  5
B1
100
AcDbEntity
  8
0
370
     0
390
0
100
AcDbVertex
100
AcDb2dVertex
 10
217.63266
 20
-21.045837
 30
0.0
  0
SEQEND
  5
B2
100
AcDbEntity
  8
0
370
     0
390
0
  0
POLYLINE
  5
B3
100
AcDbEntity
  8
0
370
    13
390
0
 62
     7
100
AcDb2dPolyline
 66
     1
 10
0.0
 20
0.0
 30
0.0
 70
     1
 71
     4
  0
VERTEX
  5
B4
100
AcDbEntity
  8
0
370
     0
390
0
100
AcDbVertex
100
AcDb2dVertex
 10
216.729919
 20
-17.798
 30
0.0
  0
VERTEX
  5
B5
100
AcDbEntity
  8
0
370
     0
390
0
100
AcDbVertex
100
AcDb2dVertex
 10
216.26091
 20
-17.798
 30
0.0
  0
VERTEX
  5
B6
100
AcDbEntity
  8
0
370
     0
390
0
100
AcDbVertex
100
AcDb2dVertex
 10
216.26091
 20
-18.302322
 30
0.0
  0
VERTEX
  5
B7
100
AcDbEntity
  8
0
370
     0
390
0
100
AcDbVertex
100
AcDb2dVertex
 10
216.729919
 20
-18.302322
 30
0.0
  0
SEQEND
  5
B8
100
AcDbEntity
  8
0
370
     0
390
0
  0
POLYLINE
  5
B9
100
AcDbEntity
  8
0
370
    13
390
0
 62
     7
100
AcDb2dPolyline
 66
     1
 10
0.0
 20
0.0
 30
0.0
 70
     1
 71
    27
  0
VERTEX
  5
BA
100
AcDbEntity
  8
0
370
     0
390
0
100
AcDbVertex
100
AcDb2dVertex
 10
218.782516
 20
-20.193533
 30
0.0
  0
VERTEX
  5
BB
100
AcDbEntity
  8
0
370
     0
390
0
100
AcDbVertex
100
AcDb2dVertex
 10
220.557739
 20
-20.193533
 30
0.0
  0
VERTEX
  5
BC
100
AcDbEntity
  8
0
370
     0
390
0
100
AcDbVertex
100
AcDb2dVertex
 10
220.562775
 20
-19.986761
 30
0.0
  0
VERTEX
  5
BD
100
AcDbEntity
  8
0
370
     0
390
0
100
AcDbVertex
100
AcDb2dVertex
 10
220.482086
 20
-19.40679
 30
0.0
  0
VERTEX
  5
BE
100
AcDbEntity
  8
0
370
     0
390
0
100
AcDbVertex
100
AcDb2dVertex
 10
220.260193
 20
-18.973072
 30
0.0
  0
VERTEX
  5
BF
100
AcDbEntity
  8
0
370
     0
390
0
100
AcDbVertex
100
AcDb2dVertex
 10
219.907166
 20
-18.710823
 30
0.0
  0
VERTEX
  5
C0
100
AcDbEntity
  8
0
370
     0
390
0
100
AcDbVertex
100
AcDb2dVertex
 10
219.438141
 20
-18.615002
 30
0.0
  0
VERTEX
  5
C1
100
AcDbEntity
  8
0
370
     0
390
0
100
AcDbVertex
100
AcDb2dVertex
 10
218.979202
 20
-18.715866
 30
0.0
  0
VERTEX
  5
C2
100
AcDbEntity
  8
0
370
     0
390
0
100
AcDbVertex
100
AcDb2dVertex
 10
218.626175
 20
-18.998287
 30
0.0
  0
VERTEX
  5
C3
100
AcDbEntity
  8
0
370
     0
390
0
100
AcDbVertex
100
AcDb2dVertex
 10
218.399231
 20
-19.457222
 30
0.0
  0
VERTEX
  5
C4
100
AcDbEntity
  8
0
370
     0
390
0
100
AcDbVertex
100
AcDb2dVertex
 10
218.318542
 20
-20.062408
 30
0.0
  0
VERTEX
  5
C5
100
AcDbEntity
  8
0
370
     0
390
0
100
AcDbVertex
100
AcDb2dVertex
 10
218.394196
 20
-20.682726
 30
0.0
  0
VERTEX
  5
C6
100
AcDbEntity
  8
0
370
     0
390
0
100
AcDbVertex
100
AcDb2dVertex
 10
218.62114
 20
-21.136616
 30
0.0
  0
VERTEX
  5
C7
100
AcDbEntity
  8
0
370
     0
390
0
100
AcDbVertex
100
AcDb2dVertex
 10
218.969116
 20
-21.419037
 30
0.0
  0
VERTEX
  5
C8
100
AcDbEntity
  8
0
370
     0
390
0
100
AcDbVertex
100
AcDb2dVertex
 10
219.423004
 20
-21.514858
 30
0.0
  0
VERTEX
  5
C9
100
AcDbEntity
  8
0
370
     0
390
0
100
AcDbVertex
100
AcDb2dVertex
 10
219.816376
 20
-21.449297
 30
0.0
  0
VERTEX
  5
CA
100
AcDbEntity
  8
0
370
     0
390
0
100
AcDbVertex
100
AcDb2dVertex
 10
220.139145
 20
-21.277826
 30
0.0
  0
VERTEX
  5
CB
100
AcDbEntity
  8
0
370
     0
390
0
100
AcDbVertex
100
AcDb2dVertex
 10
220.376175
 20
-21.005491
 30
0.0
  0
VERTEX
  5
CC
100
AcDbEntity
  8
0
370
     0
390
0
100
AcDbVertex
100
AcDb2dVertex
 10
220.512344
 20
-20.64238
 30
0.0
  0
VERTEX
  5
CD
100
AcDbEntity
  8
0
370
     0
390
0
100
AcDbVertex
100
AcDb2dVertex
 10
220.073578
 20
-20.64238
 30
0.0
  0
VERTEX
  5
CE
100
AcDbEntity
  8
0
370
     0
390
0
100
AcDbVertex
100
AcDb2dVertex
 10
219.982803
 20
-20.844109
 30
0.0
  0
VERTEX
  5
CF
100
AcDbEntity
  8
0
370
     0
390
0
100
AcDbVertex
100
AcDb2dVertex
 10
219.851685
 20
-20.995405
 30
0.0
  0
VERTEX
  5
D0
100
AcDbEntity
  8
0
370
     0
390
0
100
AcDbVertex
100
AcDb2dVertex
 10
219.478485
 20
-21.116444
 30
0.0
  0
VERTEX
  5
D1
100
AcDbEntity
  8
0
370
     0
390
0
100
AcDbVertex
100
AcDb2dVertex
 10
219.191025
 20
-21.060968
 30
0.0
  0
VERTEX
  5
D2
100
AcDbEntity
  8
0
370
     0
390
0
100
AcDbVertex
100
AcDb2dVertex
 10
218.974167
 20
-20.884455
 30
0.0
  0
VERTEX
  5
D3
100
AcDbEntity
  8
0
370
     0
390
0
100
AcDbVertex
100
AcDb2dVertex
 10
218.832947
 20
-20.596991
 30
0.0
  0
VERTEX
  5
D4
100
AcDbEntity
  8
0
370
     0
390
0
100
AcDbVertex
100
AcDb2dVertex
 10
218.782516
 20
-20.208662
 30
0.0
  0
SEQEND
  5
D5
100
AcDbEntity
  8
0
370
     0
390
0
  0
POLYLINE
  5
D6
100
AcDbEntity
  8
0
370
    13
390
0
 62
     7
100
AcDb2dPolyline
 66
     1
 10
0.0
 20
0.0
 30
0.0
 70
     1
 71
     9
  0
VERTEX
  5
D7
100
AcDbEntity
  8
0
370
     0
390
0
100
AcDbVertex
100
AcDb2dVertex
 10
218.782516
 20
-19.820333
 30
0.0
  0
VERTEX
  5
D8
100
AcDbEntity
  8
0
370
     0
390
0
100
AcDbVertex
100
AcDb2dVertex
 10
218.837997
 20
-19.472351
 30
0.0
  0
VERTEX
  5
D9
100
AcDbEntity
  8
0
370
     0
390
0
100
AcDbVertex
100
AcDb2dVertex
 10
218.974167
 20
-19.215147
 30
0.0
  0
VERTEX
  5
DA
100
AcDbEntity
  8
0
370
     0
390
0
100
AcDbVertex
100
AcDb2dVertex
 10
219.180939
 20
-19.058807
 30
0.0
  0
VERTEX
  5
DB
100
AcDbEntity
  8
0
370
     0
390
0
100
AcDbVertex
100
AcDb2dVertex
 10
219.453278
 20
-19.00333
 30
0.0
  0
VERTEX
  5
DC
100
AcDbEntity
  8
0
370
     0
390
0
100
AcDbVertex
100
AcDb2dVertex
 10
219.720566
 20
-19.058807
 30
0.0
  0
VERTEX
  5
DD
100
AcDbEntity
  8
0
370
     0
390
0
100
AcDbVertex
100
AcDb2dVertex
 10
219.927338
 20
-19.215147
 30
0.0
  0
VERTEX
  5
DE
100
AcDbEntity
  8
0
370
     0
390
0
100
AcDbVertex
100
AcDb2dVertex
 10
220.053406
 20
-19.472351
 30
0.0
  0
VERTEX
  5
DF
100
AcDbEntity
  8
0
370
     0
390
0
100
AcDbVertex
100
AcDb2dVertex
 10
220.098801
 20
-19.820333
 30
0.0
  0
SEQEND
  5
E0
100
AcDbEntity
  8
0
370
     0
390
0
  0
POLYLINE
  5
E1
100
AcDbEntity
  8
0
370
    13
390
0
 62
     7
100
AcDb2dPolyline
 66
     1
 10
0.0
 20
0.0
 30
0.0
 70
     1
 71
    13
  0
VERTEX
  5
E2
100
AcDbEntity
  8
0
370
     0
390
0
100
AcDbVertex
100
AcDb2dVertex
 10
222.070709
 20
-21.419037
 30
0.0
  0
VERTEX
  5
E3
100
AcDbEntity
  8
0
370
     0
390
0
100
AcDbVertex
100
AcDb2dVertex
 10
222.474167
 20
-19.119326
 30
0.0
  0
VERTEX
  5
E4
100
AcDbEntity
  8
0
370
     0
390
0
100
AcDbVertex
100
AcDb2dVertex
 10
222.877625
 20
-21.419037
 30
0.0
  0
VERTEX
  5
E5
100
AcDbEntity
  8
0
370
     0
390
0
100
AcDbVertex
100
AcDb2dVertex
 10
223.301254
 20
-21.419037
 30
0.0
  0
VERTEX
  5
E6
100
AcDbEntity
  8
0
370
     0
390
0
100
AcDbVertex
100
AcDb2dVertex
 10
223.966949
 20
-18.710823
 30
0.0
  0
VERTEX
  5
E7
100
AcDbEntity
  8
0
370
     0
390
0
100
AcDbVertex
100
AcDb2dVertex
 10
223.538284
 20
-18.710823
 30
0.0
  0
VERTEX
  5
E8
100
AcDbEntity
  8
0
370
     0
390
0
100
AcDbVertex
100
AcDb2dVertex
 10
223.089432
 20
-21.010536
 30
0.0
  0
VERTEX
  5
E9
100
AcDbEntity
  8
0
370
     0
390
0
100
AcDbVertex
100
AcDb2dVertex
 10
222.691025
 20
-18.710823
 30
0.0
  0
VERTEX
  5
EA
100
AcDbEntity
  8
0
370
     0
390
0
100
AcDbVertex
100
AcDb2dVertex
 10
222.252258
 20
-18.710823
 30
0.0
  0
VERTEX
  5
EB
100
AcDbEntity
  8
0
370
     0
390
0
100
AcDbVertex
100
AcDb2dVertex
 10
221.853851
 20
-21.010536
 30
0.0
  0
VERTEX
  5
EC
100
AcDbEntity
  8
0
370
     0
390
0
100
AcDbVertex
100
AcDb2dVertex
 10
221.404999
 20
-18.710823
 30
0.0
  0
VERTEX
  5
ED
100
AcDbEntity
  8
0
370
     0
390
0
100
AcDbVertex
100
AcDb2dVertex
 10
220.981369
 20
-18.710823
 30
0.0
  0
VERTEX
  5
EE
100
AcDbEntity
  8
0
370
     0
390
0
100
AcDbVertex
100
AcDb2dVertex
 10
221.647064
 20
-21.419037
 30
0.0
  0
SEQEND
  5
EF
100
AcDbEntity
  8
0
370
     0
390
0
  0
POLYLINE
  5
F0
100
AcDbEntity
  8
0
370
    13
390
0
 62
     7
100
AcDb2dPolyline
 66
     1
 10
0.0
 20
0.0
 30
0.0
 70
     1
 71
    51
  0
VERTEX
  5
F1
100
AcDbEntity
  8
0
370
     0
390
0
100
AcDbVertex
100
AcDb2dVertex
 10
194.353119
 20
-26.310966
 30
0.0
  0
VERTEX
  5
F2
100
AcDbEntity
  8
0
370
     0
390
0
100
AcDbVertex
100
AcDb2dVertex
 10
193.894196
 20
-26.310966
 30
0.0
  0
VERTEX
  5
F3
100
AcDbEntity
  8
0
370
     0
390
0
100
AcDbVertex
100
AcDb2dVertex
 10
193.995056
 20
-26.845549
 30
0.0
  0
VERTEX
  5
F4
100
AcDbEntity
  8
0
370
     0
390
0
100
AcDbVertex
100
AcDb2dVertex
 10
194.247223
 20
-27.23892
 30
0.0
  0
VERTEX
  5
F5
100
AcDbEntity
  8
0
370
     0
390
0
100
AcDbVertex
100
AcDb2dVertex
 10
194.635544
 20
-27.475952
 30
0.0
  0
VERTEX
  5
F6
100
AcDbEntity
  8
0
370
     0
390
0
100
AcDbVertex
100
AcDb2dVertex
 10
195.160034
 20
-27.561687
 30
0.0
  0
VERTEX
  5
F7
100
AcDbEntity
  8
0
370
     0
390
0
100
AcDbVertex
100
AcDb2dVertex
 10
195.679489
 20
-27.480995
 30
0.0
  0
VERTEX
  5
F8
100
AcDbEntity
  8
0
370
     0
390
0
100
AcDbVertex
100
AcDb2dVertex
 10
196.067825
 20
-27.259094
 30
0.0
  0
VERTEX
  5
F9
100
AcDbEntity
  8
0
370
     0
390
0
100
AcDbVertex
100
AcDb2dVertex
 10
196.314941
 20
-26.911112
 30
0.0
  0
VERTEX
  5
FA
100
AcDbEntity
  8
0
370
     0
390
0
100
AcDbVertex
100
AcDb2dVertex
 10
196.405716
 20
-26.452177
 30
0.0
  0
VERTEX
  5
FB
100
AcDbEntity
  8
0
370
     0
390
0
100
AcDbVertex
100
AcDb2dVertex
 10
196.330063
 20
-26.038633
 30
0.0
  0
VERTEX
  5
FC
100
AcDbEntity
  8
0
370
     0
390
0
100
AcDbVertex
100
AcDb2dVertex
 10
196.118256
 20
-25.771341
 30
0.0
  0
VERTEX
  5
FD
100
AcDbEntity
  8
0
370
     0
390
0
100
AcDbVertex
100
AcDb2dVertex
 10
195.775314
 20
-25.59483
 30
0.0
  0
VERTEX
  5
FE
100
AcDbEntity
  8
0
370
     0
390
0
100
AcDbVertex
100
AcDb2dVertex
 10
195.316376
 20
-25.463705
 30
0.0
  0
VERTEX
  5
FF
100
AcDbEntity
  8
0
370
     0
390
0
100
AcDbVertex
100
AcDb2dVertex
 10
194.923004
 20
-25.367884
 30
0.0
  0
VERTEX
  5
100
100
AcDbEntity
  8
0
370
     0
390
0
100
AcDbVertex
100
AcDb2dVertex
 10
194.665802
 20
-25.256931
 30
0.0
  0
VERTEX
  5
101
100
AcDbEntity
  8
0
370
     0
390
0
100
AcDbVertex
100
AcDb2dVertex
 10
194.519547
 20
-25.095549
 30
0.0
  0
VERTEX
  5
102
100
AcDbEntity
  8
0
370
     0
390
0
100
AcDbVertex
100
AcDb2dVertex
 10
194.474167
 20
-24.843388
 30
0.0
  0
VERTEX
  5
103
100
AcDbEntity
  8
0
370
     0
390
0
100
AcDbVertex
100
AcDb2dVertex
 10
194.519547
 20
-24.616442
 30
0.0
  0
VERTEX
  5
104
100
AcDbEntity
  8
0
370
     0
390
0
100
AcDbVertex
100
AcDb2dVertex
 10
194.650681
 20
-24.444973
 30
0.0
  0
VERTEX
  5
105
100
AcDbEntity
  8
0
370
     0
390
0
100
AcDbVertex
100
AcDb2dVertex
 10
194.852402
 20
-24.328979
 30
0.0
  0
VERTEX
  5
106
100
AcDbEntity
  8
0
370
     0
390
0
100
AcDbVertex
100
AcDb2dVertex
 10
195.129776
 20
-24.288633
 30
0.0
  0
VERTEX
  5
107
100
AcDbEntity
  8
0
370
     0
390
0
100
AcDbVertex
100
AcDb2dVertex
 10
195.412201
 20
-24.339066
 30
0.0
  0
VERTEX
  5
108
100
AcDbEntity
  8
0
370
     0
390
0
100
AcDbVertex
100
AcDb2dVertex
 10
195.634109
 20
-24.475231
 30
0.0
  0
VERTEX
  5
109
100
AcDbEntity
  8
0
370
     0
390
0
100
AcDbVertex
100
AcDb2dVertex
 10
195.780365
 20
-24.702177
 30
0.0
  0
VERTEX
  5
10A
100
AcDbEntity
  8
0
370
     0
390
0
100
AcDbVertex
100
AcDb2dVertex
 10
195.850967
 20
-25.009815
 30
0.0
  0
VERTEX
  5
10B
100
AcDbEntity
  8
0
370
     0
390
0
100
AcDbVertex
100
AcDb2dVertex
 10
196.309891
 20
-25.009815
 30
0.0
  0
VERTEX
  5
10C
100
AcDbEntity
  8
0
370
     0
390
0
100
AcDbVertex
100
AcDb2dVertex
 10
196.309891
 20
-24.999727
 30
0.0
  0
VERTEX
  5
10D
100
AcDbEntity
  8
0
370
     0
390
0
100
AcDbVertex
100
AcDb2dVertex
 10
196.229202
 20
-24.525665
 30
0.0
  0
VERTEX
  5
10E
100
AcDbEntity
  8
0
370
     0
390
0
100
AcDbVertex
100
AcDb2dVertex
 10
195.992172
 20
-24.172638
 30
0.0
  0
VERTEX
  5
10F
100
AcDbEntity
  8
0
370
     0
390
0
100
AcDbVertex
100
AcDb2dVertex
 10
195.618973
 20
-23.950737
 30
0.0
  0
VERTEX
  5
110
100
AcDbEntity
  8
0
370
     0
390
0
100
AcDbVertex
100
AcDb2dVertex
 10
195.114655
 20
-23.875088
 30
0.0
  0
VERTEX
  5
111
100
AcDbEntity
  8
0
370
     0
390
0
100
AcDbVertex
100
AcDb2dVertex
 10
194.660767
 20
-23.950737
 30
0.0
  0
VERTEX
  5
112
100
AcDbEntity
  8
0
370
     0
390
0
100
AcDbVertex
100
AcDb2dVertex
 10
194.307739
 20
-24.162552
 30
0.0
  0
VERTEX
  5
113
100
AcDbEntity
  8
0
370
     0
390
0
100
AcDbVertex
100
AcDb2dVertex
 10
194.080795
 20
-24.490362
 30
0.0
  0
VERTEX
  5
114
100
AcDbEntity
  8
0
370
     0
390
0
100
AcDbVertex
100
AcDb2dVertex
 10
194.000092
 20
-24.913994
 30
0.0
  0
VERTEX
  5
115
100
AcDbEntity
  8
0
370
     0
390
0
100
AcDbVertex
100
AcDb2dVertex
 10
194.065659
 20
-25.292234
 30
0.0
  0
VERTEX
  5
116
100
AcDbEntity
  8
0
370
     0
390
0
100
AcDbVertex
100
AcDb2dVertex
 10
194.257309
 20
-25.54944
 30
0.0
  0
VERTEX
  5
117
100
AcDbEntity
  8
0
370
     0
390
0
100
AcDbVertex
100
AcDb2dVertex
 10
194.559891
 20
-25.720909
 30
0.0
  0
VERTEX
  5
118
100
AcDbEntity
  8
0
370
     0
390
0
100
AcDbVertex
100
AcDb2dVertex
 10
194.973434
 20
-25.852034
 30
0.0
  0
VERTEX
  5
119
100
AcDbEntity
  8
0
370
     0
390
0
100
AcDbVertex
100
AcDb2dVertex
 10
195.381943
 20
-25.968027
 30
0.0
  0
VERTEX
  5
11A
100
AcDbEntity
  8
0
370
     0
390
0
100
AcDbVertex
100
AcDb2dVertex
 10
195.689575
 20
-26.078978
 30
0.0
  0
VERTEX
  5
11B
100
AcDbEntity
  8
0
370
     0
390
0
100
AcDbVertex
100
AcDb2dVertex
 10
195.876175
 20
-26.240362
 30
0.0
  0
VERTEX
  5
11C
100
AcDbEntity
  8
0
370
     0
390
0
100
AcDbVertex
100
AcDb2dVertex
 10
195.941742
 20
-26.502609
 30
0.0
  0
VERTEX
  5
11D
100
AcDbEntity
  8
0
370
     0
390
0
100
AcDbVertex
100
AcDb2dVertex
 10
195.881226
 20
-26.769901
 30
0.0
  0
VERTEX
  5
11E
100
AcDbEntity
  8
0
370
     0
390
0
100
AcDbVertex
100
AcDb2dVertex
 10
195.724884
 20
-26.97163
 30
0.0
  0
VERTEX
  5
11F
100
AcDbEntity
  8
0
370
     0
390
0
100
AcDbVertex
100
AcDb2dVertex
 10
195.487854
 20
-27.09771
 30
0.0
  0
VERTEX
  5
120
100
AcDbEntity
  8
0
370
     0
390
0
100
AcDbVertex
100
AcDb2dVertex
 10
195.180206
 20
-27.138056
 30
0.0
  0
VERTEX
  5
121
100
AcDbEntity
  8
0
370
     0
390
0
100
AcDbVertex
100
AcDb2dVertex
 10
194.83728
 20
-27.082581
 30
0.0
  0
VERTEX
  5
122
100
AcDbEntity
  8
0
370
     0
390
0
100
AcDbVertex
100
AcDb2dVertex
 10
194.575027
 20
-26.921198
 30
0.0
  0
VERTEX
  5
123
100
AcDbEntity
  8
0
370
     0
390
0
100
AcDbVertex
100
AcDb2dVertex
 10
194.4086
 20
-26.658949
 30
0.0
  0
SEQEND
  5
124
100
AcDbEntity
  8
0
370
     0
390
0
  0
POLYLINE
  5
125
100
AcDbEntity
  8
0
370
    13
390
0
 62
     7
100
AcDb2dPolyline
 66
     1
 10
0.0
 20
0.0
 30
0.0
 70
     1
 71
    34
  0
VERTEX
  5
126
100
AcDbEntity
  8
0
370
     0
390
0
100
AcDbVertex
100
AcDb2dVertex
 10
198.866806
 20
-25.655348
 30
0.0
  0
VERTEX
  5
127
100
AcDbEntity
  8
0
370
     0
390
0
100
AcDbVertex
100
AcDb2dVertex
 10
199.305573
 20
-25.655348
 30
0.0
  0
VERTEX
  5
128
100
AcDbEntity
  8
0
370
     0
390
0
100
AcDbVertex
100
AcDb2dVertex
 10
199.214798
 20
-25.251888
 30
0.0
  0
VERTEX
  5
129
100
AcDbEntity
  8
0
370
     0
390
0
100
AcDbVertex
100
AcDb2dVertex
 10
198.99794
 20
-24.934166
 30
0.0
  0
VERTEX
  5
12A
100
AcDbEntity
  8
0
370
     0
390
0
100
AcDbVertex
100
AcDb2dVertex
 10
198.660034
 20
-24.73748
 30
0.0
  0
VERTEX
  5
12B
100
AcDbEntity
  8
0
370
     0
390
0
100
AcDbVertex
100
AcDb2dVertex
 10
198.221283
 20
-24.661831
 30
0.0
  0
VERTEX
  5
12C
100
AcDbEntity
  8
0
370
     0
390
0
100
AcDbVertex
100
AcDb2dVertex
 10
197.737137
 20
-24.762695
 30
0.0
  0
VERTEX
  5
12D
100
AcDbEntity
  8
0
370
     0
390
0
100
AcDbVertex
100
AcDb2dVertex
 10
197.368973
 20
-25.045116
 30
0.0
  0
VERTEX
  5
12E
100
AcDbEntity
  8
0
370
     0
390
0
100
AcDbVertex
100
AcDb2dVertex
 10
197.136993
 20
-25.504051
 30
0.0
  0
VERTEX
  5
12F
100
AcDbEntity
  8
0
370
     0
390
0
100
AcDbVertex
100
AcDb2dVertex
 10
197.05629
 20
-26.119324
 30
0.0
  0
VERTEX
  5
130
100
AcDbEntity
  8
0
370
     0
390
0
100
AcDbVertex
100
AcDb2dVertex
 10
197.131943
 20
-26.729555
 30
0.0
  0
VERTEX
  5
131
100
AcDbEntity
  8
0
370
     0
390
0
100
AcDbVertex
100
AcDb2dVertex
 10
197.358887
 20
-27.183445
 30
0.0
  0
VERTEX
  5
132
100
AcDbEntity
  8
0
370
     0
390
0
100
AcDbVertex
100
AcDb2dVertex
 10
197.716949
 20
-27.465866
 30
0.0
  0
VERTEX
  5
133
100
AcDbEntity
  8
0
370
     0
390
0
100
AcDbVertex
100
AcDb2dVertex
 10
198.206146
 20
-27.561687
 30
0.0
  0
VERTEX
  5
134
100
AcDbEntity
  8
0
370
     0
390
0
100
AcDbVertex
100
AcDb2dVertex
 10
198.639862
 20
-27.486038
 30
0.0
  0
VERTEX
  5
135
100
AcDbEntity
  8
0
370
     0
390
0
100
AcDbVertex
100
AcDb2dVertex
 10
198.977768
 20
-27.274223
 30
0.0
  0
VERTEX
  5
136
100
AcDbEntity
  8
0
370
     0
390
0
100
AcDbVertex
100
AcDb2dVertex
 10
199.209747
 20
-26.94137
 30
0.0
  0
VERTEX
  5
137
100
AcDbEntity
  8
0
370
     0
390
0
100
AcDbVertex
100
AcDb2dVertex
 10
199.310623
 20
-26.497566
 30
0.0
  0
VERTEX
  5
138
100
AcDbEntity
  8
0
370
     0
390
0
100
AcDbVertex
100
AcDb2dVertex
 10
198.886993
 20
-26.497566
 30
0.0
  0
VERTEX
  5
139
100
AcDbEntity
  8
0
370
     0
390
0
100
AcDbVertex
100
AcDb2dVertex
 10
198.81134
 20
-26.779987
 30
0.0
  0
VERTEX
  5
13A
100
AcDbEntity
  8
0
370
     0
390
0
100
AcDbVertex
100
AcDb2dVertex
 10
198.67012
 20
-26.991802
 30
0.0
  0
VERTEX
  5
13B
100
AcDbEntity
  8
0
370
     0
390
0
100
AcDbVertex
100
AcDb2dVertex
 10
198.468399
 20
-27.122927
 30
0.0
  0
VERTEX
  5
13C
100
AcDbEntity
  8
0
370
     0
390
0
100
AcDbVertex
100
AcDb2dVertex
 10
198.221283
 20
-27.163273
 30
0.0
  0
VERTEX
  5
13D
100
AcDbEntity
  8
0
370
     0
390
0
100
AcDbVertex
100
AcDb2dVertex
 10
197.913635
 20
-27.09771
 30
0.0
  0
VERTEX
  5
13E
100
AcDbEntity
  8
0
370
     0
390
0
100
AcDbVertex
100
AcDb2dVertex
 10
197.691742
 20
-26.895981
 30
0.0
  0
VERTEX
  5
13F
100
AcDbEntity
  8
0
370
     0
390
0
100
AcDbVertex
100
AcDb2dVertex
 10
197.555573
 20
-26.568172
 30
0.0
  0
VERTEX
  5
140
100
AcDbEntity
  8
0
370
     0
390
0
100
AcDbVertex
100
AcDb2dVertex
 10
197.510178
 20
-26.104195
 30
0.0
  0
VERTEX
  5
141
100
AcDbEntity
  8
0
370
     0
390
0
100
AcDbVertex
100
AcDb2dVertex
 10
197.555573
 20
-25.650305
 30
0.0
  0
VERTEX
  5
142
100
AcDbEntity
  8
0
370
     0
390
0
100
AcDbVertex
100
AcDb2dVertex
 10
197.696777
 20
-25.322495
 30
0.0
  0
VERTEX
  5
143
100
AcDbEntity
  8
0
370
     0
390
0
100
AcDbVertex
100
AcDb2dVertex
 10
197.923737
 20
-25.120766
 30
0.0
  0
VERTEX
  5
144
100
AcDbEntity
  8
0
370
     0
390
0
100
AcDbVertex
100
AcDb2dVertex
 10
198.221283
 20
-25.050159
 30
0.0
  0
VERTEX
  5
145
100
AcDbEntity
  8
0
370
     0
390
0
100
AcDbVertex
100
AcDb2dVertex
 10
198.483521
 20
-25.095549
 30
0.0
  0
VERTEX
  5
146
100
AcDbEntity
  8
0
370
     0
390
0
100
AcDbVertex
100
AcDb2dVertex
 10
198.680206
 20
-25.211544
 30
0.0
  0
VERTEX
  5
147
100
AcDbEntity
  8
0
370
     0
390
0
100
AcDbVertex
100
AcDb2dVertex
 10
198.81134
 20
-25.403187
 30
0.0
  0
SEQEND
  5
148
100
AcDbEntity
  8
0
370
     0
390
0
  0
POLYLINE
  5
149
100
AcDbEntity
  8
0
370
    13
390
0
 62
     7
100
AcDb2dPolyline
 66
     1
 10
0.0
 20
0.0
 30
0.0
 70
     1
 71
    42
  0
VERTEX
  5
14A
100
AcDbEntity
  8
0
370
     0
390
0
100
AcDbVertex
100
AcDb2dVertex
 10
201.786835
 20
-27.112841
 30
0.0
  0
VERTEX
  5
14B
100
AcDbEntity
  8
0
370
     0
390
0
100
AcDbVertex
100
AcDb2dVertex
 10
201.786835
 20
-27.12797
 30
0.0
  0
VERTEX
  5
14C
100
AcDbEntity
  8
0
370
     0
390
0
100
AcDbVertex
100
AcDb2dVertex
 10
201.812057
 20
-27.29944
 30
0.0
  0
VERTEX
  5
14D
100
AcDbEntity
  8
0
370
     0
390
0
100
AcDbVertex
100
AcDb2dVertex
 10
201.887711
 20
-27.420477
 30
0.0
  0
VERTEX
  5
14E
100
AcDbEntity
  8
0
370
     0
390
0
100
AcDbVertex
100
AcDb2dVertex
 10
202.205429
 20
-27.516298
 30
0.0
  0
VERTEX
  5
14F
100
AcDbEntity
  8
0
370
     0
390
0
100
AcDbVertex
100
AcDb2dVertex
 10
202.452545
 20
-27.475952
 30
0.0
  0
VERTEX
  5
150
100
AcDbEntity
  8
0
370
     0
390
0
100
AcDbVertex
100
AcDb2dVertex
 10
202.452545
 20
-27.133013
 30
0.0
  0
VERTEX
  5
151
100
AcDbEntity
  8
0
370
     0
390
0
100
AcDbVertex
100
AcDb2dVertex
 10
202.346634
 20
-27.148142
 30
0.0
  0
VERTEX
  5
152
100
AcDbEntity
  8
0
370
     0
390
0
100
AcDbVertex
100
AcDb2dVertex
 10
202.205429
 20
-27.082581
 30
0.0
  0
VERTEX
  5
153
100
AcDbEntity
  8
0
370
     0
390
0
100
AcDbVertex
100
AcDb2dVertex
 10
202.180206
 20
-26.880852
 30
0.0
  0
VERTEX
  5
154
100
AcDbEntity
  8
0
370
     0
390
0
100
AcDbVertex
100
AcDb2dVertex
 10
202.180206
 20
-25.478834
 30
0.0
  0
VERTEX
  5
155
100
AcDbEntity
  8
0
370
     0
390
0
100
AcDbVertex
100
AcDb2dVertex
 10
202.11969
 20
-25.120766
 30
0.0
  0
VERTEX
  5
156
100
AcDbEntity
  8
0
370
     0
390
0
100
AcDbVertex
100
AcDb2dVertex
 10
201.943176
 20
-24.868605
 30
0.0
  0
VERTEX
  5
157
100
AcDbEntity
  8
0
370
     0
390
0
100
AcDbVertex
100
AcDb2dVertex
 10
201.635544
 20
-24.717308
 30
0.0
  0
VERTEX
  5
158
100
AcDbEntity
  8
0
370
     0
390
0
100
AcDbVertex
100
AcDb2dVertex
 10
201.201828
 20
-24.661831
 30
0.0
  0
VERTEX
  5
159
100
AcDbEntity
  8
0
370
     0
390
0
100
AcDbVertex
100
AcDb2dVertex
 10
200.778198
 20
-24.722351
 30
0.0
  0
VERTEX
  5
15A
100
AcDbEntity
  8
0
370
     0
390
0
100
AcDbVertex
100
AcDb2dVertex
 10
200.465515
 20
-24.89382
 30
0.0
  0
VERTEX
  5
15B
100
AcDbEntity
  8
0
370
     0
390
0
100
AcDbVertex
100
AcDb2dVertex
 10
200.268829
 20
-25.161112
 30
0.0
  0
VERTEX
  5
15C
100
AcDbEntity
  8
0
370
     0
390
0
100
AcDbVertex
100
AcDb2dVertex
 10
200.203262
 20
-25.514137
 30
0.0
  0
VERTEX
  5
15D
100
AcDbEntity
  8
0
370
     0
390
0
100
AcDbVertex
100
AcDb2dVertex
 10
200.203262
 20
-25.544395
 30
0.0
  0
VERTEX
  5
15E
100
AcDbEntity
  8
0
370
     0
390
0
100
AcDbVertex
100
AcDb2dVertex
 10
200.601685
 20
-25.544395
 30
0.0
  0
VERTEX
  5
15F
100
AcDbEntity
  8
0
370
     0
390
0
100
AcDbVertex
100
AcDb2dVertex
 10
200.636993
 20
-25.332581
 30
0.0
  0
VERTEX
  5
160
100
AcDbEntity
  8
0
370
     0
390
0
100
AcDbVertex
100
AcDb2dVertex
 10
200.74794
 20
-25.181284
 30
0.0
  0
VERTEX
  5
161
100
AcDbEntity
  8
0
370
     0
390
0
100
AcDbVertex
100
AcDb2dVertex
 10
200.929489
 20
-25.090506
 30
0.0
  0
VERTEX
  5
162
100
AcDbEntity
  8
0
370
     0
390
0
100
AcDbVertex
100
AcDb2dVertex
 10
201.186691
 20
-25.055202
 30
0.0
  0
VERTEX
  5
163
100
AcDbEntity
  8
0
370
     0
390
0
100
AcDbVertex
100
AcDb2dVertex
 10
201.433823
 20
-25.08042
 30
0.0
  0
VERTEX
  5
164
100
AcDbEntity
  8
0
370
     0
390
0
100
AcDbVertex
100
AcDb2dVertex
 10
201.610336
 20
-25.156067
 30
0.0
  0
VERTEX
  5
165
100
AcDbEntity
  8
0
370
     0
390
0
100
AcDbVertex
100
AcDb2dVertex
 10
201.716232
 20
-25.287191
 30
0.0
  0
VERTEX
  5
166
100
AcDbEntity
  8
0
370
     0
390
0
100
AcDbVertex
100
AcDb2dVertex
 10
201.751541
 20
-25.468748
 30
0.0
  0
VERTEX
  5
167
100
AcDbEntity
  8
0
370
     0
390
0
100
AcDbVertex
100
AcDb2dVertex
 10
201.731369
 20
-25.680563
 30
0.0
  0
VERTEX
  5
168
100
AcDbEntity
  8
0
370
     0
390
0
100
AcDbVertex
100
AcDb2dVertex
 10
201.650681
 20
-25.78647
 30
0.0
  0
VERTEX
  5
169
100
AcDbEntity
  8
0
370
     0
390
0
100
AcDbVertex
100
AcDb2dVertex
 10
201.448944
 20
-25.836903
 30
0.0
  0
VERTEX
  5
16A
100
AcDbEntity
  8
0
370
     0
390
0
100
AcDbVertex
100
AcDb2dVertex
 10
201.070709
 20
-25.877249
 30
0.0
  0
VERTEX
  5
16B
100
AcDbEntity
  8
0
370
     0
390
0
100
AcDbVertex
100
AcDb2dVertex
 10
200.636993
 20
-25.968027
 30
0.0
  0
VERTEX
  5
16C
100
AcDbEntity
  8
0
370
     0
390
0
100
AcDbVertex
100
AcDb2dVertex
 10
200.329346
 20
-26.12941
 30
0.0
  0
VERTEX
  5
16D
100
AcDbEntity
  8
0
370
     0
390
0
100
AcDbVertex
100
AcDb2dVertex
 10
200.147797
 20
-26.381573
 30
0.0
  0
VERTEX
  5
16E
100
AcDbEntity
  8
0
370
     0
390
0
100
AcDbVertex
100
AcDb2dVertex
 10
200.092316
 20
-26.75477
 30
0.0
  0
VERTEX
  5
16F
100
AcDbEntity
  8
0
370
     0
390
0
100
AcDbVertex
100
AcDb2dVertex
 10
200.142746
 20
-27.087624
 30
0.0
  0
VERTEX
  5
170
100
AcDbEntity
  8
0
370
     0
390
0
100
AcDbVertex
100
AcDb2dVertex
 10
200.299088
 20
-27.334742
 30
0.0
  0
VERTEX
  5
171
100
AcDbEntity
  8
0
370
     0
390
0
100
AcDbVertex
100
AcDb2dVertex
 10
200.551254
 20
-27.491083
 30
0.0
  0
VERTEX
  5
172
100
AcDbEntity
  8
0
370
     0
390
0
100
AcDbVertex
100
AcDb2dVertex
 10
200.899231
 20
-27.546558
 30
0.0
  0
VERTEX
  5
173
100
AcDbEntity
  8
0
370
     0
390
0
100
AcDbVertex
100
AcDb2dVertex
 10
201.368256
 20
-27.440649
 30
0.0
  0
SEQEND
  5
174
100
AcDbEntity
  8
0
370
     0
390
0
  0
POLYLINE
  5
175
100
AcDbEntity
  8
0
370
    13
390
0
 62
     7
100
AcDb2dPolyline
 66
     1
 10
0.0
 20
0.0
 30
0.0
 70
     1
 71
    14
  0
VERTEX
  5
176
100
AcDbEntity
  8
0
370
     0
390
0
100
AcDbVertex
100
AcDb2dVertex
 10
201.736404
 20
-26.517738
 30
0.0
  0
VERTEX
  5
177
100
AcDbEntity
  8
0
370
     0
390
0
100
AcDbVertex
100
AcDb2dVertex
 10
201.675888
 20
-26.779987
 30
0.0
  0
VERTEX
  5
178
100
AcDbEntity
  8
0
370
     0
390
0
100
AcDbVertex
100
AcDb2dVertex
 10
201.514511
 20
-26.981716
 30
0.0
  0
VERTEX
  5
179
100
AcDbEntity
  8
0
370
     0
390
0
100
AcDbVertex
100
AcDb2dVertex
 10
201.27243
 20
-27.112841
 30
0.0
  0
VERTEX
  5
17A
100
AcDbEntity
  8
0
370
     0
390
0
100
AcDbVertex
100
AcDb2dVertex
 10
200.974884
 20
-27.15823
 30
0.0
  0
VERTEX
  5
17B
100
AcDbEntity
  8
0
370
     0
390
0
100
AcDbVertex
100
AcDb2dVertex
 10
200.783234
 20
-27.133013
 30
0.0
  0
VERTEX
  5
17C
100
AcDbEntity
  8
0
370
     0
390
0
100
AcDbVertex
100
AcDb2dVertex
 10
200.647079
 20
-27.05232
 30
0.0
  0
VERTEX
  5
17D
100
AcDbEntity
  8
0
370
     0
390
0
100
AcDbVertex
100
AcDb2dVertex
 10
200.56134
 20
-26.911112
 30
0.0
  0
VERTEX
  5
17E
100
AcDbEntity
  8
0
370
     0
390
0
100
AcDbVertex
100
AcDb2dVertex
 10
200.536118
 20
-26.714426
 30
0.0
  0
VERTEX
  5
17F
100
AcDbEntity
  8
0
370
     0
390
0
100
AcDbVertex
100
AcDb2dVertex
 10
200.55629
 20
-26.537912
 30
0.0
  0
VERTEX
  5
180
100
AcDbEntity
  8
0
370
     0
390
0
100
AcDbVertex
100
AcDb2dVertex
 10
200.636993
 20
-26.411831
 30
0.0
  0
VERTEX
  5
181
100
AcDbEntity
  8
0
370
     0
390
0
100
AcDbVertex
100
AcDb2dVertex
 10
200.959747
 20
-26.27062
 30
0.0
  0
VERTEX
  5
182
100
AcDbEntity
  8
0
370
     0
390
0
100
AcDbVertex
100
AcDb2dVertex
 10
201.368256
 20
-26.210102
 30
0.0
  0
VERTEX
  5
183
100
AcDbEntity
  8
0
370
     0
390
0
100
AcDbVertex
100
AcDb2dVertex
 10
201.736404
 20
-26.089066
 30
0.0
  0
SEQEND
  5
184
100
AcDbEntity
  8
0
370
     0
390
0
  0
POLYLINE
  5
185
100
AcDbEntity
  8
0
370
    13
390
0
 62
     7
100
AcDb2dPolyline
 66
     1
 10
0.0
 20
0.0
 30
0.0
 70
     1
 71
    10
  0
VERTEX
  5
186
100
AcDbEntity
  8
0
370
     0
390
0
100
AcDbVertex
100
AcDb2dVertex
 10
204.096634
 20
-24.218027
 30
0.0
  0
VERTEX
  5
187
100
AcDbEntity
  8
0
370
     0
390
0
100
AcDbVertex
100
AcDb2dVertex
 10
204.096634
 20
-27.092667
 30
0.0
  0
VERTEX
  5
188
100
AcDbEntity
  8
0
370
     0
390
0
100
AcDbVertex
100
AcDb2dVertex
 10
203.183823
 20
-27.092667
 30
0.0
  0
VERTEX
  5
189
100
AcDbEntity
  8
0
370
     0
390
0
100
AcDbVertex
100
AcDb2dVertex
 10
203.183823
 20
-27.465866
 30
0.0
  0
VERTEX
  5
18A
100
AcDbEntity
  8
0
370
     0
390
0
100
AcDbVertex
100
AcDb2dVertex
 10
205.448227
 20
-27.465866
 30
0.0
  0
VERTEX
  5
18B
100
AcDbEntity
  8
0
370
     0
390
0
100
AcDbVertex
100
AcDb2dVertex
 10
205.448227
 20
-27.092667
 30
0.0
  0
VERTEX
  5
18C
100
AcDbEntity
  8
0
370
     0
390
0
100
AcDbVertex
100
AcDb2dVertex
 10
204.540451
 20
-27.092667
 30
0.0
  0
VERTEX
  5
18D
100
AcDbEntity
  8
0
370
     0
390
0
100
AcDbVertex
100
AcDb2dVertex
 10
204.540451
 20
-23.84483
 30
0.0
  0
VERTEX
  5
18E
100
AcDbEntity
  8
0
370
     0
390
0
100
AcDbVertex
100
AcDb2dVertex
 10
203.400681
 20
-23.84483
 30
0.0
  0
VERTEX
  5
18F
100
AcDbEntity
  8
0
370
     0
390
0
100
AcDbVertex
100
AcDb2dVertex
 10
203.400681
 20
-24.218027
 30
0.0
  0
SEQEND
  5
190
100
AcDbEntity
  8
0
370
     0
390
0
  0
POLYLINE
  5
191
100
AcDbEntity
  8
0
370
    13
390
0
 62
     7
100
AcDb2dPolyline
 66
     1
 10
0.0
 20
0.0
 30
0.0
 70
     1
 71
    27
  0
VERTEX
  5
192
100
AcDbEntity
  8
0
370
     0
390
0
100
AcDbVertex
100
AcDb2dVertex
 10
206.638428
 20
-26.240362
 30
0.0
  0
VERTEX
  5
193
100
AcDbEntity
  8
0
370
     0
390
0
100
AcDbVertex
100
AcDb2dVertex
 10
208.413635
 20
-26.240362
 30
0.0
  0
VERTEX
  5
194
100
AcDbEntity
  8
0
370
     0
390
0
100
AcDbVertex
100
AcDb2dVertex
 10
208.418686
 20
-26.03359
 30
0.0
  0
VERTEX
  5
195
100
AcDbEntity
  8
0
370
     0
390
0
100
AcDbVertex
100
AcDb2dVertex
 10
208.337997
 20
-25.453619
 30
0.0
  0
VERTEX
  5
196
100
AcDbEntity
  8
0
370
     0
390
0
100
AcDbVertex
100
AcDb2dVertex
 10
208.116089
 20
-25.019901
 30
0.0
  0
VERTEX
  5
197
100
AcDbEntity
  8
0
370
     0
390
0
100
AcDbVertex
100
AcDb2dVertex
 10
207.763062
 20
-24.757652
 30
0.0
  0
VERTEX
  5
198
100
AcDbEntity
  8
0
370
     0
390
0
100
AcDbVertex
100
AcDb2dVertex
 10
207.294052
 20
-24.661831
 30
0.0
  0
VERTEX
  5
199
100
AcDbEntity
  8
0
370
     0
390
0
100
AcDbVertex
100
AcDb2dVertex
 10
206.835114
 20
-24.762695
 30
0.0
  0
VERTEX
  5
19A
100
AcDbEntity
  8
0
370
     0
390
0
100
AcDbVertex
100
AcDb2dVertex
 10
206.482086
 20
-25.045116
 30
0.0
  0
VERTEX
  5
19B
100
AcDbEntity
  8
0
370
     0
390
0
100
AcDbVertex
100
AcDb2dVertex
 10
206.255142
 20
-25.504051
 30
0.0
  0
VERTEX
  5
19C
100
AcDbEntity
  8
0
370
     0
390
0
100
AcDbVertex
100
AcDb2dVertex
 10
206.174454
 20
-26.109238
 30
0.0
  0
VERTEX
  5
19D
100
AcDbEntity
  8
0
370
     0
390
0
100
AcDbVertex
100
AcDb2dVertex
 10
206.250092
 20
-26.729555
 30
0.0
  0
VERTEX
  5
19E
100
AcDbEntity
  8
0
370
     0
390
0
100
AcDbVertex
100
AcDb2dVertex
 10
206.477051
 20
-27.183445
 30
0.0
  0
VERTEX
  5
19F
100
AcDbEntity
  8
0
370
     0
390
0
100
AcDbVertex
100
AcDb2dVertex
 10
206.825027
 20
-27.465866
 30
0.0
  0
VERTEX
  5
1A0
100
AcDbEntity
  8
0
370
     0
390
0
100
AcDbVertex
100
AcDb2dVertex
 10
207.278915
 20
-27.561687
 30
0.0
  0
VERTEX
  5
1A1
100
AcDbEntity
  8
0
370
     0
390
0
100
AcDbVertex
100
AcDb2dVertex
 10
207.672287
 20
-27.496126
 30
0.0
  0
VERTEX
  5
1A2
100
AcDbEntity
  8
0
370
     0
390
0
100
AcDbVertex
100
AcDb2dVertex
 10
207.995056
 20
-27.324656
 30
0.0
  0
VERTEX
  5
1A3
100
AcDbEntity
  8
0
370
     0
390
0
100
AcDbVertex
100
AcDb2dVertex
 10
208.232086
 20
-27.05232
 30
0.0
  0
VERTEX
  5
1A4
100
AcDbEntity
  8
0
370
     0
390
0
100
AcDbVertex
100
AcDb2dVertex
 10
208.368256
 20
-26.689209
 30
0.0
  0
VERTEX
  5
1A5
100
AcDbEntity
  8
0
370
     0
390
0
100
AcDbVertex
100
AcDb2dVertex
 10
207.929489
 20
-26.689209
 30
0.0
  0
VERTEX
  5
1A6
100
AcDbEntity
  8
0
370
     0
390
0
100
AcDbVertex
100
AcDb2dVertex
 10
207.838715
 20
-26.890938
 30
0.0
  0
VERTEX
  5
1A7
100
AcDbEntity
  8
0
370
     0
390
0
100
AcDbVertex
100
AcDb2dVertex
 10
207.707596
 20
-27.042234
 30
0.0
  0
VERTEX
  5
1A8
100
AcDbEntity
  8
0
370
     0
390
0
100
AcDbVertex
100
AcDb2dVertex
 10
207.334396
 20
-27.163273
 30
0.0
  0
VERTEX
  5
1A9
100
AcDbEntity
  8
0
370
     0
390
0
100
AcDbVertex
100
AcDb2dVertex
 10
207.046936
 20
-27.107798
 30
0.0
  0
VERTEX
  5
1AA
100
AcDbEntity
  8
0
370
     0
390
0
100
AcDbVertex
100
AcDb2dVertex
 10
206.830063
 20
-26.931284
 30
0.0
  0
VERTEX
  5
1AB
100
AcDbEntity
  8
0
370
     0
390
0
100
AcDbVertex
100
AcDb2dVertex
 10
206.688858
 20
-26.64382
 30
0.0
  0
VERTEX
  5
1AC
100
AcDbEntity
  8
0
370
     0
390
0
100
AcDbVertex
100
AcDb2dVertex
 10
206.638428
 20
-26.255491
 30
0.0
  0
SEQEND
  5
1AD
100
AcDbEntity
  8
0
370
     0
390
0
  0
POLYLINE
  5
1AE
100
AcDbEntity
  8
0
370
    13
390
0
 62
     7
100
AcDb2dPolyline
 66
     1
 10
0.0
 20
0.0
 30
0.0
 70
     1
 71
     9
  0
VERTEX
  5
1AF
100
AcDbEntity
  8
0
370
     0
390
0
100
AcDbVertex
100
AcDb2dVertex
 10
206.638428
 20
-25.867163
 30
0.0
  0
VERTEX
  5
1B0
100
AcDbEntity
  8
0
370
     0
390
0
100
AcDbVertex
100
AcDb2dVertex
 10
206.693909
 20
-25.51918
 30
0.0
  0
VERTEX
  5
1B1
100
AcDbEntity
  8
0
370
     0
390
0
100
AcDbVertex
100
AcDb2dVertex
 10
206.830063
 20
-25.261976
 30
0.0
  0
VERTEX
  5
1B2
100
AcDbEntity
  8
0
370
     0
390
0
100
AcDbVertex
100
AcDb2dVertex
 10
207.036835
 20
-25.105637
 30
0.0
  0
VERTEX
  5
1B3
100
AcDbEntity
  8
0
370
     0
390
0
100
AcDbVertex
100
AcDb2dVertex
 10
207.309174
 20
-25.050159
 30
0.0
  0
VERTEX
  5
1B4
100
AcDbEntity
  8
0
370
     0
390
0
100
AcDbVertex
100
AcDb2dVertex
 10
207.576462
 20
-25.105637
 30
0.0
  0
VERTEX
  5
1B5
100
AcDbEntity
  8
0
370
     0
390
0
100
AcDbVertex
100
AcDb2dVertex
 10
207.783234
 20
-25.261976
 30
0.0
  0
VERTEX
  5
1B6
100
AcDbEntity
  8
0
370
     0
390
0
100
AcDbVertex
100
AcDb2dVertex
 10
207.909317
 20
-25.51918
 30
0.0
  0
VERTEX
  5
1B7
100
AcDbEntity
  8
0
370
     0
390
0
100
AcDbVertex
100
AcDb2dVertex
 10
207.954712
 20
-25.867163
 30
0.0
  0
SEQEND
  5
1B8
100
AcDbEntity
  8
0
370
     0
390
0
  0
POLYLINE
  5
1B9
100
AcDbEntity
  8
0
370
    13
390
0
 62
     7
100
AcDb2dPolyline
 66
     1
 10
0.0
 20
0.0
 30
0.0
 70
     1
 71
     4
  0
VERTEX
  5
1BA
100
AcDbEntity
  8
0
370
     0
390
0
100
AcDbVertex
100
AcDb2dVertex
 10
209.982086
 20
-27.465866
 30
0.0
  0
VERTEX
  5
1BB
100
AcDbEntity
  8
0
370
     0
390
0
100
AcDbVertex
100
AcDb2dVertex
 10
210.678055
 20
-27.465866
 30
0.0
  0
VERTEX
  5
1BC
100
AcDbEntity
  8
0
370
     0
390
0
100
AcDbVertex
100
AcDb2dVertex
 10
210.678055
 20
-26.714426
 30
0.0
  0
VERTEX
  5
1BD
100
AcDbEntity
  8
0
370
     0
390
0
100
AcDbVertex
100
AcDb2dVertex
 10
209.982086
 20
-26.714426
 30
0.0
  0
SEQEND
  5
1BE
100
AcDbEntity
  8
0
370
     0
390
0
  0
POLYLINE
  5
1BF
100
AcDbEntity
  8
0
370
    13
390
0
 62
     7
100
AcDb2dPolyline
 66
     1
 10
0.0
 20
0.0
 30
0.0
 70
     1
 71
     4
  0
VERTEX
  5
1C0
100
AcDbEntity
  8
0
370
     0
390
0
100
AcDbVertex
100
AcDb2dVertex
 10
209.982086
 20
-25.509094
 30
0.0
  0
VERTEX
  5
1C1
100
AcDbEntity
  8
0
370
     0
390
0
100
AcDbVertex
100
AcDb2dVertex
 10
210.678055
 20
-25.509094
 30
0.0
  0
VERTEX
  5
1C2
100
AcDbEntity
  8
0
370
     0
390
0
100
AcDbVertex
100
AcDb2dVertex
 10
210.678055
 20
-24.757652
 30
0.0
  0
VERTEX
  5
1C3
100
AcDbEntity
  8
0
370
     0
390
0
100
AcDbVertex
100
AcDb2dVertex
 10
209.982086
 20
-24.757652
 30
0.0
  0
SEQEND
  5
1C4
100
AcDbEntity
  8
0
370
     0
390
0
  0
POLYLINE
  5
1C5
100
AcDbEntity
  8
0
370
    13
390
0
 62
     7
100
AcDb2dPolyline
 66
     1
 10
0.0
 20
0.0
 30
0.0
 70
     1
 71
    10
  0
VERTEX
  5
1C6
100
AcDbEntity
  8
0
370
     0
390
0
100
AcDbVertex
100
AcDb2dVertex
 10
219.347366
 20
-27.465866
 30
0.0
  0
VERTEX
  5
1C7
100
AcDbEntity
  8
0
370
     0
390
0
100
AcDbVertex
100
AcDb2dVertex
 10
219.80629
 20
-27.465866
 30
0.0
  0
VERTEX
  5
1C8
100
AcDbEntity
  8
0
370
     0
390
0
100
AcDbVertex
100
AcDb2dVertex
 10
219.80629
 20
-23.940651
 30
0.0
  0
VERTEX
  5
1C9
100
AcDbEntity
  8
0
370
     0
390
0
100
AcDbVertex
100
AcDb2dVertex
 10
219.463348
 20
-23.940651
 30
0.0
  0
VERTEX
  5
1CA
100
AcDbEntity
  8
0
370
     0
390
0
100
AcDbVertex
100
AcDb2dVertex
 10
219.372574
 20
-24.248287
 30
0.0
  0
VERTEX
  5
1CB
100
AcDbEntity
  8
0
370
     0
390
0
100
AcDbVertex
100
AcDb2dVertex
 10
219.191025
 20
-24.455059
 30
0.0
  0
VERTEX
  5
1CC
100
AcDbEntity
  8
0
370
     0
390
0
100
AcDbVertex
100
AcDb2dVertex
 10
218.913635
 20
-24.576096
 30
0.0
  0
VERTEX
  5
1CD
100
AcDbEntity
  8
0
370
     0
390
0
100
AcDbVertex
100
AcDb2dVertex
 10
218.530365
 20
-24.616442
 30
0.0
  0
VERTEX
  5
1CE
100
AcDbEntity
  8
0
370
     0
390
0
100
AcDbVertex
100
AcDb2dVertex
 10
218.530365
 20
-24.974512
 30
0.0
  0
VERTEX
  5
1CF
100
AcDbEntity
  8
0
370
     0
390
0
100
AcDbVertex
100
AcDb2dVertex
 10
219.347366
 20
-24.974512
 30
0.0
  0
SEQEND
  5
1D0
100
AcDbEntity
  8
0
370
     0
390
0
  0
POLYLINE
  5
1D1
100
AcDbEntity
  8
0
370
    13
390
0
 62
     7
100
AcDb2dPolyline
 66
     1
 10
0.0
 20
0.0
 30
0.0
 70
     1
 71
     4
  0
VERTEX
  5
1D2
100
AcDbEntity
  8
0
370
     0
390
0
100
AcDbVertex
100
AcDb2dVertex
 10
222.126175
 20
-27.465866
 30
0.0
  0
VERTEX
  5
1D3
100
AcDbEntity
  8
0
370
     0
390
0
100
AcDbVertex
100
AcDb2dVertex
 10
222.822144
 20
-27.465866
 30
0.0
  0
VERTEX
  5
1D4
100
AcDbEntity
  8
0
370
     0
390
0
100
AcDbVertex
100
AcDb2dVertex
 10
222.822144
 20
-26.714426
 30
0.0
  0
VERTEX
  5
1D5
100
AcDbEntity
  8
0
370
     0
390
0
100
AcDbVertex
100
AcDb2dVertex
 10
222.126175
 20
-26.714426
 30
0.0
  0
SEQEND
  5
1D6
100
AcDbEntity
  8
0
370
     0
390
0
  0
POLYLINE
  5
1D7
100
AcDbEntity
  8
0
370
    13
390
0
 62
     7
100
AcDb2dPolyline
 66
     1
 10
0.0
 20
0.0
 30
0.0
 70
     1
 71
     4
  0
VERTEX
  5
1D8
100
AcDbEntity
  8
0
370
     0
390
0
100
AcDbVertex
100
AcDb2dVertex
 10
222.126175
 20
-25.509094
 30
0.0
  0
VERTEX
  5
1D9
100
AcDbEntity
  8
0
370
     0
390
0
100
AcDbVertex
100
AcDb2dVertex
 10
222.822144
 20
-25.509094
 30
0.0
  0
VERTEX
  5
1DA
100
AcDbEntity
  8
0
370
     0
390
0
100
AcDbVertex
100
AcDb2dVertex
 10
222.822144
 20
-24.757652
 30
0.0
  0
VERTEX
  5
1DB
100
AcDbEntity
  8
0
370
     0
390
0
100
AcDbVertex
100
AcDb2dVertex
 10
222.126175
 20
-24.757652
 30
0.0
  0
SEQEND
  5
1DC
100
AcDbEntity
  8
0
370
     0
390
0
  0
POLYLINE
  5
1DD
100
AcDbEntity
  8
0
370
    13
390
0
 62
     7
100
AcDb2dPolyline
 66
     1
 10
0.0
 20
0.0
 30
0.0
 70
     1
 71
    10
  0
VERTEX
  5
1DE
100
AcDbEntity
  8
0
370
     0
390
0
100
AcDbVertex
100
AcDb2dVertex
 10
225.419403
 20
-27.465866
 30
0.0
  0
VERTEX
  5
1DF
100
AcDbEntity
  8
0
370
     0
390
0
100
AcDbVertex
100
AcDb2dVertex
 10
225.878342
 20
-27.465866
 30
0.0
  0
VERTEX
  5
1E0
100
AcDbEntity
  8
0
370
     0
390
0
100
AcDbVertex
100
AcDb2dVertex
 10
225.878342
 20
-23.940651
 30
0.0
  0
VERTEX
  5
1E1
100
AcDbEntity
  8
0
370
     0
390
0
100
AcDbVertex
100
AcDb2dVertex
 10
225.5354
 20
-23.940651
 30
0.0
  0
VERTEX
  5
1E2
100
AcDbEntity
  8
0
370
     0
390
0
100
AcDbVertex
100
AcDb2dVertex
 10
225.444626
 20
-24.248287
 30
0.0
  0
VERTEX
  5
1E3
100
AcDbEntity
  8
0
370
     0
390
0
100
AcDbVertex
100
AcDb2dVertex
 10
225.263062
 20
-24.455059
 30
0.0
  0
VERTEX
  5
1E4
100
AcDbEntity
  8
0
370
     0
390
0
100
AcDbVertex
100
AcDb2dVertex
 10
224.985687
 20
-24.576096
 30
0.0
  0
VERTEX
  5
1E5
100
AcDbEntity
  8
0
370
     0
390
0
100
AcDbVertex
100
AcDb2dVertex
 10
224.602402
 20
-24.616442
 30
0.0
  0
VERTEX
  5
1E6
100
AcDbEntity
  8
0
370
     0
390
0
100
AcDbVertex
100
AcDb2dVertex
 10
224.602402
 20
-24.974512
 30
0.0
  0
VERTEX
  5
1E7
100
AcDbEntity
  8
0
370
     0
390
0
100
AcDbVertex
100
AcDb2dVertex
 10
225.419403
 20
-24.974512
 30
0.0
  0
SEQEND
  5
1E8
100
AcDbEntity
  8
0
370
     0
390
0
  0
POLYLINE
  5
1E9
100
AcDbEntity
  8
0
370
    35
390
0
 62
     7
100
AcDb2dPolyline
 66
     1
 10
0.0
 20
0.0
 30
0.0
 71
    10
  0
VERTEX
  5
1EA
100
AcDbEntity
  8
0
370
     0
390
0
100
AcDbVertex
100
AcDb2dVertex
 10
343.174957
 20
130.784088
 30
0.0
  0
VERTEX
  5
1EB
100
AcDbEntity
  8
0
370
     0
390
0
100
AcDbVertex
100
AcDb2dVertex
 10
341.4758
 20
131.129242
 30
0.0
  0
VERTEX
  5
1EC
100
AcDbEntity
  8
0
370
     0
390
0
100
AcDbVertex
100
AcDb2dVertex
 10
338.089325
 20
131.875412
 30
0.0
  0
VERTEX
  5
1ED
100
AcDbEntity
  8
0
370
     0
390
0
100
AcDbVertex
100
AcDb2dVertex
 10
331.984161
 20
133.326401
 30
0.0
  0
VERTEX
  5
1EE
100
AcDbEntity
  8
0
370
     0
390
0
100
AcDbVertex
100
AcDb2dVertex
 10
322.851074
 20
135.601349
 30
0.0
  0
VERTEX
  5
1EF
100
AcDbEntity
  8
0
370
     0
390
0
100
AcDbVertex
100
AcDb2dVertex
 10
305.323486
 20
140.034073
 30
0.0
  0
VERTEX
  5
1F0
100
AcDbEntity
  8
0
370
     0
390
0
100
AcDbVertex
100
AcDb2dVertex
 10
291.947449
 20
143.333435
 30
0.0
  0
VERTEX
  5
1F1
100
AcDbEntity
  8
0
370
     0
390
0
100
AcDbVertex
100
AcDb2dVertex
 10
281.146393
 20
145.882751
 30
0.0
  0
VERTEX
  5
1F2
100
AcDbEntity
  8
0
370
     0
390
0
100
AcDbVertex
100
AcDb2dVertex
 10
270.315582
 20
148.302704
 30
0.0
  0
VERTEX
  5
1F3
100
AcDbEntity
  8
0
370
     0
390
0
100
AcDbVertex
100
AcDb2dVertex
 10
264.400238
 20
149.563492
 30
0.0
  0
SEQEND
  5
1F4
100
AcDbEntity
  8
0
370
     0
390
0
  0
LINE
  5
1F5
100
AcDbEntity
  8
0
370
    35
390
0
 62
     7
 48
0.006004
100
AcDbLine
 10
343.410675
 20
130.738174
 30
0.0
 11
343.174957
 21
130.784088
 31
0.0
210
0.0
220
0.0
230
1.0
  0
LINE
  5
1F6
100
AcDbEntity
  8
0
370
    35
390
0
 62
     7
 48
0.00554
100
AcDbLine
 10
343.190338
 20
130.761642
 30
0.0
 11
343.410675
 21
130.738174
 31
0.0
210
0.0
220
0.0
230
1.0
  0
POLYLINE
  5
1F7
100
AcDbEntity
  8
0
370
    35
390
0
 62
     7
100
AcDb2dPolyline
 66
     1
 10
0.0
 20
0.0
 30
0.0
 71
    20
  0
VERTEX
  5
1F8
100
AcDbEntity
  8
0
370
     0
390
0
100
AcDbVertex
100
AcDb2dVertex
 10
343.190338
 20
130.761642
 30
0.0
  0
VERTEX
  5
1F9
100
AcDbEntity
  8
0
370
     0
390
0
100
AcDbVertex
100
AcDb2dVertex
 10
339.574554
 20
131.116638
 30
0.0
  0
VERTEX
  5
1FA
100
AcDbEntity
  8
0
370
     0
390
0
100
AcDbVertex
100
AcDb2dVertex
 10
332.337067
 20
131.763718
 30
0.0
  0
VERTEX
  5
1FB
100
AcDbEntity
  8
0
370
     0
390
0
100
AcDbVertex
100
AcDb2dVertex
 10
327.681824
 20
132.150085
 30
0.0
  0
VERTEX
  5
1FC
100
AcDbEntity
  8
0
370
     0
390
0
100
AcDbVertex
100
AcDb2dVertex
 10
320.695923
 20
132.690933
 30
0.0
  0
VERTEX
  5
1FD
100
AcDbEntity
  8
0
370
     0
390
0
100
AcDbVertex
100
AcDb2dVertex
 10
313.707123
 20
133.193283
 30
0.0
  0
VERTEX
  5
1FE
100
AcDbEntity
  8
0
370
     0
390
0
100
AcDbVertex
100
AcDb2dVertex
 10
305.025665
 20
133.773956
 30
0.0
  0
VERTEX
  5
1FF
100
AcDbEntity
  8
0
370
     0
390
0
100
AcDbVertex
100
AcDb2dVertex
 10
296.341705
 20
134.315964
 30
0.0
  0
VERTEX
  5
200
100
AcDbEntity
  8
0
370
     0
390
0
100
AcDbVertex
100
AcDb2dVertex
 10
285.562408
 20
134.946014
 30
0.0
  0
VERTEX
  5
201
100
AcDbEntity
  8
0
370
     0
390
0
100
AcDbVertex
100
AcDb2dVertex
 10
274.781158
 20
135.541519
 30
0.0
  0
VERTEX
  5
202
100
AcDbEntity
  8
0
370
     0
390
0
100
AcDbVertex
100
AcDb2dVertex
 10
253.211472
 20
136.667999
 30
0.0
  0
VERTEX
  5
203
100
AcDbEntity
  8
0
370
     0
390
0
100
AcDbVertex
100
AcDb2dVertex
 10
231.639679
 20
137.751617
 30
0.0
  0
VERTEX
  5
204
100
AcDbEntity
  8
0
370
     0
390
0
100
AcDbVertex
100
AcDb2dVertex
 10
202.878082
 20
139.212631
 30
0.0
  0
VERTEX
  5
205
100
AcDbEntity
  8
0
370
     0
390
0
100
AcDbVertex
100
AcDb2dVertex
 10
188.499329
 20
139.981995
 30
0.0
  0
VERTEX
  5
206
100
AcDbEntity
  8
0
370
     0
390
0
100
AcDbVertex
100
AcDb2dVertex
 10
177.716904
 20
140.588593
 30
0.0
  0
VERTEX
  5
207
100
AcDbEntity
  8
0
370
     0
390
0
100
AcDbVertex
100
AcDb2dVertex
 10
166.936478
 20
141.229782
 30
0.0
  0
VERTEX
  5
208
100
AcDbEntity
  8
0
370
     0
390
0
100
AcDbVertex
100
AcDb2dVertex
 10
156.862091
 20
141.870407
 30
0.0
  0
VERTEX
  5
209
100
AcDbEntity
  8
0
370
     0
390
0
100
AcDbVertex
100
AcDb2dVertex
 10
146.791
 20
142.562958
 30
0.0
  0
VERTEX
  5
20A
100
AcDbEntity
  8
0
370
     0
390
0
100
AcDbVertex
100
AcDb2dVertex
 10
137.207535
 20
143.285889
 30
0.0
  0
VERTEX
  5
20B
100
AcDbEntity
  8
0
370
     0
390
0
100
AcDbVertex
100
AcDb2dVertex
 10
127.631119
 20
144.092255
 30
0.0
  0
SEQEND
  5
20C
100
AcDbEntity
  8
0
370
     0
390
0
  0
ARC
  5
20D
100
AcDbEntity
  8
0
370
    35
390
0
 62
     7
100
AcDbCircle
 10
186.195023
 20
801.785522
 30
0.0
 40
660.295259
210
0.0
220
0.0
230
1.0
100
AcDbArc
 50
263.999881
 51
264.911554
  0
LINE
  5
20E
100
AcDbEntity
  8
0
370
    35
390
0
 62
     7
 48
0.246121
100
AcDbLine
 10
117.174011
 20
145.107834
 30
0.0
 11
117.174011
 21
154.952682
 31
0.0
210
0.0
220
0.0
230
1.0
  0
LINE
  5
20F
100
AcDbEntity
  8
0
370
    35
390
0
 62
     7
 48
0.0125
100
AcDbLine
 10
117.174011
 20
154.952682
 30
0.0
 11
116.674011
 21
154.952682
 31
0.0
210
0.0
220
0.0
230
1.0
  0
LINE
  5
210
100
AcDbEntity
  8
0
370
    35
390
0
 62
     7
 48
0.0125
100
AcDbLine
 10
116.674011
 20
154.952682
 30
0.0
 11
116.174011
 21
154.952682
 31
0.0
210
0.0
220
0.0
230
1.0
  0
LINE
  5
211
100
AcDbEntity
  8
0
370
    35
390
0
 62
     7
 48
0.243458
100
AcDbLine
 10
116.174011
 20
145.214355
 30
0.0
 11
116.174011
 21
154.952682
 31
0.0
210
0.0
220
0.0
230
1.0
  0
POLYLINE
  5
212
100
AcDbEntity
  8
0
370
    35
390
0
 62
     7
100
AcDb2dPolyline
 66
     1
 10
0.0
 20
0.0
 30
0.0
 71
    22
  0
VERTEX
  5
213
100
AcDbEntity
  8
0
370
     0
390
0
100
AcDbVertex
100
AcDb2dVertex
 10
76.661652
 20
154.615524
 30
0.0
  0
VERTEX
  5
214
100
AcDbEntity
  8
0
370
     0
390
0
100
AcDbVertex
100
AcDb2dVertex
 10
76.674377
 20
154.408585
 30
0.0
  0
VERTEX
  5
215
100
AcDbEntity
  8
0
370
     0
390
0
100
AcDbVertex
100
AcDb2dVertex
 10
76.783356
 20
154.163605
 30
0.0
  0
VERTEX
  5
216
100
AcDbEntity
  8
0
370
     0
390
0
100
AcDbVertex
100
AcDb2dVertex
 10
77.065903
 20
153.813171
 30
0.0
  0
VERTEX
  5
217
100
AcDbEntity
  8
0
370
     0
390
0
100
AcDbVertex
100
AcDb2dVertex
 10
77.574112
 20
153.370529
 30
0.0
  0
VERTEX
  5
218
100
AcDbEntity
  8
0
370
     0
390
0
100
AcDbVertex
100
AcDb2dVertex
 10
77.985382
 20
153.082397
 30
0.0
  0
VERTEX
  5
219
100
AcDbEntity
  8
0
370
     0
390
0
100
AcDbVertex
100
AcDb2dVertex
 10
78.413513
 20
152.820282
 30
0.0
  0
VERTEX
  5
21A
100
AcDbEntity
  8
0
370
     0
390
0
100
AcDbVertex
100
AcDb2dVertex
 10
79.028214
 20
152.486969
 30
0.0
  0
VERTEX
  5
21B
100
AcDbEntity
  8
0
370
     0
390
0
100
AcDbVertex
100
AcDb2dVertex
 10
79.659622
 20
152.180542
 30
0.0
  0
VERTEX
  5
21C
100
AcDbEntity
  8
0
370
     0
390
0
100
AcDbVertex
100
AcDb2dVertex
 10
80.539154
 20
151.797928
 30
0.0
  0
VERTEX
  5
21D
100
AcDbEntity
  8
0
370
     0
390
0
100
AcDbVertex
100
AcDb2dVertex
 10
81.430344
 20
151.450485
 30
0.0
  0
VERTEX
  5
21E
100
AcDbEntity
  8
0
370
     0
390
0
100
AcDbVertex
100
AcDb2dVertex
 10
82.572021
 20
151.050568
 30
0.0
  0
VERTEX
  5
21F
100
AcDbEntity
  8
0
370
     0
390
0
100
AcDbVertex
100
AcDb2dVertex
 10
84.62439
 20
150.420975
 30
0.0
  0
VERTEX
  5
220
100
AcDbEntity
  8
0
370
     0
390
0
100
AcDbVertex
100
AcDb2dVertex
 10
86.703995
 20
149.861282
 30
0.0
  0
VERTEX
  5
221
100
AcDbEntity
  8
0
370
     0
390
0
100
AcDbVertex
100
AcDb2dVertex
 10
88.674286
 20
149.383362
 30
0.0
  0
VERTEX
  5
222
100
AcDbEntity
  8
0
370
     0
390
0
100
AcDbVertex
100
AcDb2dVertex
 10
90.652405
 20
148.946503
 30
0.0
  0
VERTEX
  5
223
100
AcDbEntity
  8
0
370
     0
390
0
100
AcDbVertex
100
AcDb2dVertex
 10
93.028931
 20
148.469482
 30
0.0
  0
VERTEX
  5
224
100
AcDbEntity
  8
0
370
     0
390
0
100
AcDbVertex
100
AcDb2dVertex
 10
95.411316
 20
148.032928
 30
0.0
  0
VERTEX
  5
225
100
AcDbEntity
  8
0
370
     0
390
0
100
AcDbVertex
100
AcDb2dVertex
 10
100.619492
 20
147.18338
 30
0.0
  0
VERTEX
  5
226
100
AcDbEntity
  8
0
370
     0
390
0
100
AcDbVertex
100
AcDb2dVertex
 10
105.851105
 20
146.441483
 30
0.0
  0
VERTEX
  5
227
100
AcDbEntity
  8
0
370
     0
390
0
100
AcDbVertex
100
AcDb2dVertex
 10
111.08873
 20
145.786774
 30
0.0
  0
VERTEX
  5
228
100
AcDbEntity
  8
0
370
     0
390
0
100
AcDbVertex
100
AcDb2dVertex
 10
116.174011
 20
145.214355
 30
0.0
  0
SEQEND
  5
229
100
AcDbEntity
  8
0
370
     0
390
0
  0
LINE
  5
22A
100
AcDbEntity
  8
0
370
    35
390
0
 62
     7
 48
0.001537
100
AcDbLine
 10
76.661652
 20
154.615524
 30
0.0
 11
76.669205
 21
154.676544
 31
0.0
210
0.0
220
0.0
230
1.0
  0
POLYLINE
  5
22B
100
AcDbEntity
  8
0
370
    35
390
0
 62
     7
100
AcDb2dPolyline
 66
     1
 10
0.0
 20
0.0
 30
0.0
 71
    26
  0
VERTEX
  5
22C
100
AcDbEntity
  8
0
370
     0
390
0
100
AcDbVertex
100
AcDb2dVertex
 10
76.669205
 20
154.676544
 30
0.0
  0
VERTEX
  5
22D
100
AcDbEntity
  8
0
370
     0
390
0
100
AcDbVertex
100
AcDb2dVertex
 10
76.708252
 20
154.848373
 30
0.0
  0
VERTEX
  5
22E
100
AcDbEntity
  8
0
370
     0
390
0
100
AcDbVertex
100
AcDb2dVertex
 10
76.837708
 20
155.175568
 30
0.0
  0
VERTEX
  5
22F
100
AcDbEntity
  8
0
370
     0
390
0
100
AcDbVertex
100
AcDb2dVertex
 10
77.180054
 20
155.741425
 30
0.0
  0
VERTEX
  5
230
100
AcDbEntity
  8
0
370
     0
390
0
100
AcDbVertex
100
AcDb2dVertex
 10
77.32486
 20
155.933167
 30
0.0
  0
VERTEX
  5
231
100
AcDbEntity
  8
0
370
     0
390
0
100
AcDbVertex
100
AcDb2dVertex
 10
77.802856
 20
156.474228
 30
0.0
  0
VERTEX
  5
232
100
AcDbEntity
  8
0
370
     0
390
0
100
AcDbVertex
100
AcDb2dVertex
 10
78.25444
 20
156.900574
 30
0.0
  0
VERTEX
  5
233
100
AcDbEntity
  8
0
370
     0
390
0
100
AcDbVertex
100
AcDb2dVertex
 10
78.734253
 20
157.294632
 30
0.0
  0
VERTEX
  5
234
100
AcDbEntity
  8
0
370
     0
390
0
100
AcDbVertex
100
AcDb2dVertex
 10
79.330688
 20
157.725861
 30
0.0
  0
VERTEX
  5
235
100
AcDbEntity
  8
0
370
     0
390
0
100
AcDbVertex
100
AcDb2dVertex
 10
79.94841
 20
158.12529
 30
0.0
  0
VERTEX
  5
236
100
AcDbEntity
  8
0
370
     0
390
0
100
AcDbVertex
100
AcDb2dVertex
 10
80.74205
 20
158.590851
 30
0.0
  0
VERTEX
  5
237
100
AcDbEntity
  8
0
370
     0
390
0
100
AcDbVertex
100
AcDb2dVertex
 10
81.552414
 20
159.026184
 30
0.0
  0
VERTEX
  5
238
100
AcDbEntity
  8
0
370
     0
390
0
100
AcDbVertex
100
AcDb2dVertex
 10
82.634552
 20
159.557617
 30
0.0
  0
VERTEX
  5
239
100
AcDbEntity
  8
0
370
     0
390
0
100
AcDbVertex
100
AcDb2dVertex
 10
83.73613
 20
160.046707
 30
0.0
  0
VERTEX
  5
23A
100
AcDbEntity
  8
0
370
     0
390
0
100
AcDbVertex
100
AcDb2dVertex
 10
85.007416
 20
160.553345
 30
0.0
  0
VERTEX
  5
23B
100
AcDbEntity
  8
0
370
     0
390
0
100
AcDbVertex
100
AcDb2dVertex
 10
86.296616
 20
161.014084
 30
0.0
  0
VERTEX
  5
23C
100
AcDbEntity
  8
0
370
     0
390
0
100
AcDbVertex
100
AcDb2dVertex
 10
87.737686
 20
161.479202
 30
0.0
  0
VERTEX
  5
23D
100
AcDbEntity
  8
0
370
     0
390
0
100
AcDbVertex
100
AcDb2dVertex
 10
89.190323
 20
161.906036
 30
0.0
  0
VERTEX
  5
23E
100
AcDbEntity
  8
0
370
     0
390
0
100
AcDbVertex
100
AcDb2dVertex
 10
90.975388
 20
162.383224
 30
0.0
  0
VERTEX
  5
23F
100
AcDbEntity
  8
0
370
     0
390
0
100
AcDbVertex
100
AcDb2dVertex
 10
92.770828
 20
162.817093
 30
0.0
  0
VERTEX
  5
240
100
AcDbEntity
  8
0
370
     0
390
0
100
AcDbVertex
100
AcDb2dVertex
 10
94.859451
 20
163.26828
 30
0.0
  0
VERTEX
  5
241
100
AcDbEntity
  8
0
370
     0
390
0
100
AcDbVertex
100
AcDb2dVertex
 10
96.958801
 20
163.669601
 30
0.0
  0
VERTEX
  5
242
100
AcDbEntity
  8
0
370
     0
390
0
100
AcDbVertex
100
AcDb2dVertex
 10
99.337631
 20
164.069901
 30
0.0
  0
VERTEX
  5
243
100
AcDbEntity
  8
0
370
     0
390
0
100
AcDbVertex
100
AcDb2dVertex
 10
101.723877
 20
164.422226
 30
0.0
  0
VERTEX
  5
244
100
AcDbEntity
  8
0
370
     0
390
0
100
AcDbVertex
100
AcDb2dVertex
 10
104.267929
 20
164.750763
 30
0.0
  0
VERTEX
  5
245
100
AcDbEntity
  8
0
370
     0
390
0
100
AcDbVertex
100
AcDb2dVertex
 10
106.816879
 20
165.03624
 30
0.0
  0
SEQEND
  5
246
100
AcDbEntity
  8
0
370
     0
390
0
  0
POLYLINE
  5
247
100
AcDbEntity
  8
0
370
    35
390
0
 62
     7
100
AcDb2dPolyline
 66
     1
 10
0.0
 20
0.0
 30
0.0
 71
    14
  0
VERTEX
  5
248
100
AcDbEntity
  8
0
370
     0
390
0
100
AcDbVertex
100
AcDb2dVertex
 10
106.816879
 20
165.03624
 30
0.0
  0
VERTEX
  5
249
100
AcDbEntity
  8
0
370
     0
390
0
100
AcDbVertex
100
AcDb2dVertex
 10
109.82457
 20
165.321625
 30
0.0
  0
VERTEX
  5
24A
100
AcDbEntity
  8
0
370
     0
390
0
100
AcDbVertex
100
AcDb2dVertex
 10
112.836914
 20
165.556595
 30
0.0
  0
VERTEX
  5
24B
100
AcDbEntity
  8
0
370
     0
390
0
100
AcDbVertex
100
AcDb2dVertex
 10
116.121292
 20
165.760864
 30
0.0
  0
VERTEX
  5
24C
100
AcDbEntity
  8
0
370
     0
390
0
100
AcDbVertex
100
AcDb2dVertex
 10
119.408234
 20
165.916595
 30
0.0
  0
VERTEX
  5
24D
100
AcDbEntity
  8
0
370
     0
390
0
100
AcDbVertex
100
AcDb2dVertex
 10
123.059296
 20
166.037796
 30
0.0
  0
VERTEX
  5
24E
100
AcDbEntity
  8
0
370
     0
390
0
100
AcDbVertex
100
AcDb2dVertex
 10
126.711609
 20
166.108612
 30
0.0
  0
VERTEX
  5
24F
100
AcDbEntity
  8
0
370
     0
390
0
100
AcDbVertex
100
AcDb2dVertex
 10
132.255585
 20
166.128098
 30
0.0
  0
VERTEX
  5
250
100
AcDbEntity
  8
0
370
     0
390
0
100
AcDbVertex
100
AcDb2dVertex
 10
137.799393
 20
166.052765
 30
0.0
  0
VERTEX
  5
251
100
AcDbEntity
  8
0
370
     0
390
0
100
AcDbVertex
100
AcDb2dVertex
 10
143.341171
 20
165.894226
 30
0.0
  0
VERTEX
  5
252
100
AcDbEntity
  8
0
370
     0
390
0
100
AcDbVertex
100
AcDb2dVertex
 10
148.100037
 20
165.699066
 30
0.0
  0
VERTEX
  5
253
100
AcDbEntity
  8
0
370
     0
390
0
100
AcDbVertex
100
AcDb2dVertex
 10
152.856628
 20
165.453857
 30
0.0
  0
VERTEX
  5
254
100
AcDbEntity
  8
0
370
     0
390
0
100
AcDbVertex
100
AcDb2dVertex
 10
161.02597
 20
164.920639
 30
0.0
  0
VERTEX
  5
255
100
AcDbEntity
  8
0
370
     0
390
0
100
AcDbVertex
100
AcDb2dVertex
 10
169.185425
 20
164.25325
 30
0.0
  0
SEQEND
  5
256
100
AcDbEntity
  8
0
370
     0
390
0
  0
POLYLINE
  5
257
100
AcDbEntity
  8
0
370
    35
390
0
 62
     7
100
AcDb2dPolyline
 66
     1
 10
0.0
 20
0.0
 30
0.0
 71
    12
  0
VERTEX
  5
258
100
AcDbEntity
  8
0
370
     0
390
0
100
AcDbVertex
100
AcDb2dVertex
 10
263.400238
 20
149.772415
 30
0.0
  0
VERTEX
  5
259
100
AcDbEntity
  8
0
370
     0
390
0
100
AcDbVertex
100
AcDb2dVertex
 10
256.100983
 20
151.261002
 30
0.0
  0
VERTEX
  5
25A
100
AcDbEntity
  8
0
370
     0
390
0
100
AcDbVertex
100
AcDb2dVertex
 10
246.274429
 20
153.166367
 30
0.0
  0
VERTEX
  5
25B
100
AcDbEntity
  8
0
370
     0
390
0
100
AcDbVertex
100
AcDb2dVertex
 10
236.428253
 20
154.968887
 30
0.0
  0
VERTEX
  5
25C
100
AcDbEntity
  8
0
370
     0
390
0
100
AcDbVertex
100
AcDb2dVertex
 10
226.56488
 20
156.674957
 30
0.0
  0
VERTEX
  5
25D
100
AcDbEntity
  8
0
370
     0
390
0
100
AcDbVertex
100
AcDb2dVertex
 10
216.685562
 20
158.2845
 30
0.0
  0
VERTEX
  5
25E
100
AcDbEntity
  8
0
370
     0
390
0
100
AcDbVertex
100
AcDb2dVertex
 10
206.538284
 20
159.821274
 30
0.0
  0
VERTEX
  5
25F
100
AcDbEntity
  8
0
370
     0
390
0
100
AcDbVertex
100
AcDb2dVertex
 10
197.222733
 20
161.113419
 30
0.0
  0
VERTEX
  5
260
100
AcDbEntity
  8
0
370
     0
390
0
100
AcDbVertex
100
AcDb2dVertex
 10
187.891556
 20
162.287827
 30
0.0
  0
VERTEX
  5
261
100
AcDbEntity
  8
0
370
     0
390
0
100
AcDbVertex
100
AcDb2dVertex
 10
178.545609
 20
163.338684
 30
0.0
  0
VERTEX
  5
262
100
AcDbEntity
  8
0
370
     0
390
0
100
AcDbVertex
100
AcDb2dVertex
 10
173.867294
 20
163.814285
 30
0.0
  0
VERTEX
  5
263
100
AcDbEntity
  8
0
370
     0
390
0
100
AcDbVertex
100
AcDb2dVertex
 10
169.185425
 20
164.25325
 30
0.0
  0
SEQEND
  5
264
100
AcDbEntity
  8
0
370
     0
390
0
  0
LINE
  5
265
100
AcDbEntity
  8
0
370
    35
390
0
 62
     7
 48
0.172044
100
AcDbLine
 10
263.400238
 20
149.772415
 30
0.0
 11
263.400238
 21
142.89064
 31
0.0
210
0.0
220
0.0
230
1.0
  0
LINE
  5
266
100
AcDbEntity
  8
0
370
    35
390
0
 62
     7
 48
0.025
100
AcDbLine
 10
263.400238
 20
142.89064
 30
0.0
 11
264.400238
 21
142.89064
 31
0.0
210
0.0
220
0.0
230
1.0
  0
LINE
  5
267
100
AcDbEntity
  8
0
370
    35
390
0
 62
     7
 48
0.166821
100
AcDbLine
 10
264.400238
 20
149.563492
 30
0.0
 11
264.400238
 21
142.89064
 31
0.0
210
0.0
220
0.0
230
1.0
  0
ARC
  5
268
100
AcDbEntity
  8
0
370
    35
390
0
 62
     7
100
AcDbCircle
 10
269.717865
 20
142.955109
 30
0.0
 40
1.47516
210
0.0
220
0.0
230
1.0
100
AcDbArc
 50
106.34845
 51
180.069841
  0
LINE
  5
269
100
AcDbEntity
  8
0
370
    35
390
0
 62
     7
 48
0.04105
100
AcDbLine
 10
268.242462
 20
141.31131
 30
0.0
 11
268.242462
 21
142.953308
 31
0.0
210
0.0
220
0.0
230
1.0
  0
ARC
  5
26A
100
AcDbEntity
  8
0
370
    35
390
0
 62
     7
100
AcDbCircle
 10
270.090668
 20
141.311066
 30
0.0
 40
1.848045
210
0.0
220
0.0
230
1.0
100
AcDbArc
 50
183.695906
 51
209.643603
  0
LINE
  5
26B
100
AcDbEntity
  8
0
370
    35
390
0
 62
     7
 48
0.002986
100
AcDbLine
 10
268.246368
 20
141.191925
 30
0.0
 11
268.242462
 21
141.31131
 31
0.0
210
0.0
220
0.0
230
1.0
  0
ARC
  5
26C
100
AcDbEntity
  8
0
370
    35
390
0
 62
     7
100
AcDbCircle
 10
269.757111
 20
141.131241
 30
0.0
 40
1.469195
210
0.0
220
0.0
230
1.0
100
AcDbArc
 50
209.982791
 51
264.745519
  0
ARC
  5
26D
100
AcDbEntity
  8
0
370
    35
390
0
 62
     7
100
AcDbCircle
 10
270.300476
 20
146.945206
 30
0.0
 40
7.308635
210
0.0
220
0.0
230
1.0
100
AcDbArc
 50
264.677839
 51
266.857673
  0
ARC
  5
26E
100
AcDbEntity
  8
0
370
    35
390
0
 62
     7
100
AcDbCircle
 10
75.32016
 20
-3445.913086
 30
0.0
 40
3590.835364
210
0.0
220
0.0
230
1.0
100
AcDbArc
 50
86.460407
 51
86.893742
  0
LINE
  5
26F
100
AcDbEntity
  8
0
370
    35
390
0
 62
     7
 48
0.010504
100
AcDbLine
 10
296.610809
 20
138.195526
 30
0.0
 11
297.012238
 21
138.071533
 31
0.0
210
0.0
220
0.0
230
1.0
  0
POLYLINE
  5
270
100
AcDbEntity
  8
0
370
    35
390
0
 62
     7
100
AcDb2dPolyline
 66
     1
 10
0.0
 20
0.0
 30
0.0
 71
     4
  0
VERTEX
  5
271
100
AcDbEntity
  8
0
370
     0
390
0
100
AcDbVertex
100
AcDb2dVertex
 10
296.610809
 20
138.195526
 30
0.0
  0
VERTEX
  5
272
100
AcDbEntity
  8
0
370
     0
390
0
100
AcDbVertex
100
AcDb2dVertex
 10
286.041962
 20
140.770325
 30
0.0
  0
VERTEX
  5
273
100
AcDbEntity
  8
0
370
     0
390
0
100
AcDbVertex
100
AcDb2dVertex
 10
275.503784
 20
143.220367
 30
0.0
  0
VERTEX
  5
274
100
AcDbEntity
  8
0
370
     0
390
0
100
AcDbVertex
100
AcDb2dVertex
 10
270.211578
 20
144.399643
 30
0.0
  0
SEQEND
  5
275
100
AcDbEntity
  8
0
370
     0
390
0
  0
ARC
  5
276
100
AcDbEntity
  8
0
370
    35
390
0
 62
     7
100
AcDbCircle
 10
269.814667
 20
142.586258
 30
0.0
 40
1.856293
210
0.0
220
0.0
230
1.0
100
AcDbArc
 50
77.65393
 51
106.010369
  0
LINE
  5
277
100
AcDbEntity
  8
0
370
    35
390
0
 62
     7
 48
0.005619
100
AcDbLine
 10
258.040039
 20
146.945816
 30
0.0
 11
258.259735
 21
146.898468
 31
0.0
210
0.0
220
0.0
230
1.0
  0
LINE
  5
278
100
AcDbEntity
  8
0
370
    35
390
0
 62
     7
 48
0.066118
100
AcDbLine
 10
258.040039
 20
146.945816
 30
0.0
 11
255.447342
 21
147.46785
 31
0.0
210
0.0
220
0.0
230
1.0
  0
ARC
  5
279
100
AcDbEntity
  8
0
370
    35
390
0
 62
     7
100
AcDbCircle
 10
255.050705
 20
145.50563
 30
0.0
 40
2.001704
210
0.0
220
0.0
230
1.0
100
AcDbArc
 50
78.571853
 51
111.004064
  0
ARC
  5
27A
100
AcDbEntity
  8
0
370
    35
390
0
 62
     7
100
AcDbCircle
 10
254.846848
 20
146.059219
 30
0.0
 40
1.411855
210
0.0
220
0.0
230
1.0
100
AcDbArc
 50
111.334214
 51
167.962138
  0
ARC
  5
27B
100
AcDbEntity
  8
0
370
    35
390
0
 62
     7
100
AcDbCircle
 10
254.841843
 20
146.056396
 30
0.0
 40
1.407741
210
0.0
220
0.0
230
1.0
100
AcDbArc
 50
167.807257
 51
203.114899
  0
ARC
  5
27C
100
AcDbEntity
  8
0
370
    35
390
0
 62
     7
100
AcDbCircle
 10
255.40123
 20
146.304504
 30
0.0
 40
2.019795
210
0.0
220
0.0
230
1.0
100
AcDbArc
 50
203.358614
 51
229.996078
  0
LINE
  5
27D
100
AcDbEntity
  8
0
370
    35
390
0
 62
     7
 48
0.09148
100
AcDbLine
 10
254.102798
 20
144.757294
 30
0.0
 11
256.905914
 21
142.405212
 31
0.0
210
0.0
220
0.0
230
1.0
  0
ARC
  5
27E
100
AcDbEntity
  8
0
370
    35
390
0
 62
     7
100
AcDbCircle
 10
258.189392
 20
143.924255
 30
0.0
 40
1.988362
210
0.0
220
0.0
230
1.0
100
AcDbArc
 50
229.804491
 51
264.85179
  0
ARC
  5
27F
100
AcDbEntity
  8
0
370
    35
390
0
 62
     7
100
AcDbCircle
 10
258.124664
 20
143.352112
 30
0.0
 40
1.412883
210
0.0
220
0.0
230
1.0
100
AcDbArc
 50
265.385119
 51
345.325224
  0
ARC
  5
280
100
AcDbEntity
  8
0
370
    35
390
0
 62
     7
100
AcDbCircle
 10
257.533417
 20
143.507935
 30
0.0
 40
2.024531
210
0.0
220
0.0
230
1.0
100
AcDbArc
 50
345.298165
 51
355.960642
  0
ARC
  5
281
100
AcDbEntity
  8
0
370
    35
390
0
 62
     7
100
AcDbCircle
 10
257.531738
 20
143.508682
 30
0.0
 40
2.026259
210
0.0
220
0.0
230
1.0
100
AcDbArc
 50
355.942603
 51
359.996341
  0
LINE
  5
282
100
AcDbEntity
  8
0
370
    35
390
0
 62
     7
 48
0.044045
100
AcDbLine
 10
259.558014
 20
143.50856
 30
0.0
 11
259.558014
 21
145.27037
 31
0.0
210
0.0
220
0.0
230
1.0
  0
ARC
  5
283
100
AcDbEntity
  8
0
370
    35
390
0
 62
     7
100
AcDbCircle
 10
257.887939
 20
145.270325
 30
0.0
 40
1.670007
210
0.0
220
0.0
230
1.0
100
AcDbArc
 50
0.001373
 51
77.136386
  0
ARC
  5
284
100
AcDbEntity
  8
0
370
    35
390
0
 62
     7
100
AcDbCircle
 10
242.710571
 20
144.939362
 30
0.0
 40
4.012236
210
0.0
220
0.0
230
1.0
100
AcDbArc
 50
50.003549
 51
120.735369
  0
LINE
  5
285
100
AcDbEntity
  8
0
370
    35
390
0
 62
     7
 48
0.159744
100
AcDbLine
 10
240.660019
 20
148.388031
 30
0.0
 11
235.16774
 21
145.122437
 31
0.0
210
0.0
220
0.0
230
1.0
  0
ARC
  5
286
100
AcDbEntity
  8
0
370
    35
390
0
 62
     7
100
AcDbCircle
 10
236.408676
 20
143.035431
 30
0.0
 40
2.428073
210
0.0
220
0.0
230
1.0
100
AcDbArc
 50
120.735779
 51
125.452393
  0
ARC
  5
287
100
AcDbEntity
  8
0
370
    35
390
0
 62
     7
100
AcDbCircle
 10
236.164124
 20
143.379074
 30
0.0
 40
2.006302
210
0.0
220
0.0
230
1.0
100
AcDbArc
 50
145.69191
 51
267.081751
  0
ARC
  5
288
100
AcDbEntity
  8
0
370
    35
390
0
 62
     7
100
AcDbCircle
 10
236.163452
 20
143.379623
 30
0.0
 40
2.005445
210
0.0
220
0.0
230
1.0
100
AcDbArc
 50
125.449074
 51
145.694219
  0
LINE
  5
289
100
AcDbEntity
  8
0
370
    35
390
0
 62
     7
 48
0.307228
100
AcDbLine
 10
248.335037
 20
140.747375
 30
0.0
 11
236.061981
 21
141.375351
 31
0.0
210
0.0
220
0.0
230
1.0
  0
ARC
  5
28A
100
AcDbEntity
  8
0
370
    35
390
0
 62
     7
100
AcDbCircle
 10
248.438217
 20
142.751816
 30
0.0
 40
2.007079
210
0.0
220
0.0
230
1.0
100
AcDbArc
 50
267.053413
 51
346.45054
  0
ARC
  5
28B
100
AcDbEntity
  8
0
370
    35
390
0
 62
     7
100
AcDbCircle
 10
248.438583
 20
142.75119
 30
0.0
 40
2.00655
210
0.0
220
0.0
230
1.0
100
AcDbArc
 50
346.465139
 51
49.99943
  0
LINE
  5
28C
100
AcDbEntity
  8
0
370
    35
390
0
 62
     7
 48
0.144868
100
AcDbLine
 10
249.728378
 20
144.288284
 30
0.0
 11
245.289368
 21
148.013046
 31
0.0
210
0.0
220
0.0
230
1.0
  0
ARC
  5
28D
100
AcDbEntity
  8
0
370
    35
390
0
 62
     7
100
AcDbCircle
 10
232.601288
 20
149.252945
 30
0.0
 40
2.436349
210
0.0
220
0.0
230
1.0
100
AcDbArc
 50
73.89693
 51
80.013467
  0
ARC
  5
28E
100
AcDbEntity
  8
0
370
    35
390
0
 62
     7
100
AcDbCircle
 10
59.324734
 20
-833.544434
 30
0.0
 40
1000.391757
210
0.0
220
0.0
230
1.0
100
AcDbArc
 50
80.001002
 51
81.079229
  0
LINE
  5
28F
100
AcDbEntity
  8
0
370
    35
390
0
 62
     7
 48
0.005236
100
AcDbLine
 10
214.453995
 20
154.745911
 30
0.0
 11
214.24678
 21
154.776367
 31
0.0
210
0.0
220
0.0
230
1.0
  0
ARC
  5
290
100
AcDbEntity
  8
0
370
    35
390
0
 62
     7
100
AcDbCircle
 10
213.972305
 20
152.794861
 30
0.0
 40
1.999111
210
0.0
220
0.0
230
1.0
100
AcDbArc
 50
121.609934
 51
216.963558
  0
ARC
  5
291
100
AcDbEntity
  8
0
370
    35
390
0
 62
     7
100
AcDbCircle
 10
213.972229
 20
152.798691
 30
0.0
 40
1.996537
210
0.0
220
0.0
230
1.0
100
AcDbArc
 50
82.096272
 51
121.665996
  0
ARC
  5
292
100
AcDbEntity
  8
0
370
    35
390
0
 62
     7
100
AcDbCircle
 10
214.320923
 20
153.060959
 30
0.0
 40
2.437103
210
0.0
220
0.0
230
1.0
100
AcDbArc
 50
217.033895
 51
229.999411
  0
LINE
  5
293
100
AcDbEntity
  8
0
370
    35
390
0
 62
     7
 48
0.274716
100
AcDbLine
 10
212.754364
 20
151.194046
 30
0.0
 11
221.17215
 21
144.130692
 31
0.0
210
0.0
220
0.0
230
1.0
  0
ARC
  5
294
100
AcDbEntity
  8
0
370
    35
390
0
 62
     7
100
AcDbCircle
 10
235.689026
 20
161.431793
 30
0.0
 40
22.584685
210
0.0
220
0.0
230
1.0
100
AcDbArc
 50
230.000887
 51
231.502873
  0
ARC
  5
295
100
AcDbEntity
  8
0
370
    35
390
0
 62
     7
100
AcDbCircle
 10
224.122849
 20
146.888824
 30
0.0
 40
4.003037
210
0.0
220
0.0
230
1.0
100
AcDbArc
 50
231.49596
 51
293.609735
  0
ARC
  5
296
100
AcDbEntity
  8
0
370
    35
390
0
 62
     7
100
AcDbCircle
 10
223.773605
 20
147.684402
 30
0.0
 40
4.871877
210
0.0
220
0.0
230
1.0
100
AcDbArc
 50
293.625895
 51
300.743007
  0
LINE
  5
297
100
AcDbEntity
  8
0
370
    35
390
0
 62
     7
 48
0.217573
100
AcDbLine
 10
233.743988
 20
147.945892
 30
0.0
 11
226.264053
 21
143.497162
 31
0.0
210
0.0
220
0.0
230
1.0
  0
ARC
  5
298
100
AcDbEntity
  8
0
370
    35
390
0
 62
     7
100
AcDbCircle
 10
232.71904
 20
149.668579
 30
0.0
 40
2.00504
210
0.0
220
0.0
230
1.0
100
AcDbArc
 50
325.761296
 51
73.835711
  0
ARC
  5
299
100
AcDbEntity
  8
0
370
    35
390
0
 62
     7
100
AcDbCircle
 10
232.720016
 20
149.670349
 30
0.0
 40
2.005527
210
0.0
220
0.0
230
1.0
100
AcDbArc
 50
300.701711
 51
325.704172
  0
ARC
  5
29A
100
AcDbEntity
  8
0
370
    35
390
0
 62
     7
100
AcDbCircle
 10
200.879044
 20
151.781921
 30
0.0
 40
4.011856
210
0.0
220
0.0
230
1.0
100
AcDbArc
 50
49.997401
 51
115.066093
  0
ARC
  5
29B
100
AcDbEntity
  8
0
370
    35
390
0
 62
     7
100
AcDbCircle
 10
200.879486
 20
151.782898
 30
0.0
 40
4.011098
210
0.0
220
0.0
230
1.0
100
AcDbArc
 50
115.077705
 51
120.75045
  0
LINE
  5
29C
100
AcDbEntity
  8
0
370
    35
390
0
 62
     7
 48
0.367703
100
AcDbLine
 10
186.188034
 20
147.710464
 30
0.0
 11
198.828613
 21
155.230057
 31
0.0
210
0.0
220
0.0
230
1.0
  0
ARC
  5
29D
100
AcDbEntity
  8
0
370
    35
390
0
 62
     7
100
AcDbCircle
 10
187.440811
 20
145.605255
 30
0.0
 40
2.449754
210
0.0
220
0.0
230
1.0
100
AcDbArc
 50
120.756092
 51
136.726358
  0
ARC
  5
29E
100
AcDbEntity
  8
0
370
    35
390
0
 62
     7
100
AcDbCircle
 10
187.115616
 20
145.916702
 30
0.0
 40
2.000184
210
0.0
220
0.0
230
1.0
100
AcDbArc
 50
136.836625
 51
264.987889
  0
ARC
  5
29F
100
AcDbEntity
  8
0
370
    35
390
0
 62
     7
100
AcDbCircle
 10
187.912933
 20
154.945847
 30
0.0
 40
11.064442
210
0.0
220
0.0
230
1.0
100
AcDbArc
 50
264.959851
 51
266.791099
  0
ARC
  5
2A0
100
AcDbEntity
  8
0
370
    35
390
0
 62
     7
100
AcDbCircle
 10
524.023193
 20
6185.716797
 30
0.0
 40
6051.194785
210
0.0
220
0.0
230
1.0
100
AcDbArc
 50
266.810026
 51
267.048502
  0
ARC
  5
2A1
100
AcDbEntity
  8
0
370
    35
390
0
 62
     7
100
AcDbCircle
 10
212.570282
 20
144.996063
 30
0.0
 40
2.450702
210
0.0
220
0.0
230
1.0
100
AcDbArc
 50
267.032526
 51
276.179154
  0
ARC
  5
2A2
100
AcDbEntity
  8
0
370
    35
390
0
 62
     7
100
AcDbCircle
 10
212.615952
 20
144.552734
 30
0.0
 40
2.00586
210
0.0
220
0.0
230
1.0
100
AcDbArc
 50
312.879198
 51
49.980695
  0
ARC
  5
2A3
100
AcDbEntity
  8
0
370
    35
390
0
 62
     7
100
AcDbCircle
 10
212.621063
 20
144.546936
 30
0.0
 40
1.998637
210
0.0
220
0.0
230
1.0
100
AcDbArc
 50
276.117764
 51
312.885041
  0
LINE
  5
2A4
100
AcDbEntity
  8
0
370
    35
390
0
 62
     7
 48
0.340958
100
AcDbLine
 10
213.905502
 20
146.088531
 30
0.0
 11
203.457962
 21
154.855072
 31
0.0
210
0.0
220
0.0
230
1.0
  0
ARC
  5
2A5
100
AcDbEntity
  8
0
370
    35
390
0
 62
     7
100
AcDbCircle
 10
190.092178
 20
155.670441
 30
0.0
 40
2.450062
210
0.0
220
0.0
230
1.0
100
AcDbArc
 50
74.694812
 51
82.916857
  0
ELLIPSE
  5
2A6
100
AcDbEntity
  8
0
370
    35
390
0
 62
     7
100
AcDbEllipse
 10
195.710434
 20
151.703156
 30
0.0
 11
63.902328491210938
 21
-8.4848556518554687
 31
0.0
210
0.0
220
0.0
230
1.0
 40
0.087939
 41
1.6657545083102314
 42
2.0145801138826509
  0
ARC
  5
2A7
100
AcDbEntity
  8
0
370
    35
390
0
 62
     7
100
AcDbCircle
 10
122.383514
 20
-353.197052
 30
0.0
 40
515.724713
210
0.0
220
0.0
230
1.0
100
AcDbArc
 50
84.81983
 51
85.696293
  0
ARC
  5
2A8
100
AcDbEntity
  8
0
370
    35
390
0
 62
     7
100
AcDbCircle
 10
160.278198
 20
150.326401
 30
0.0
 40
10.777247
210
0.0
220
0.0
230
1.0
100
AcDbArc
 50
85.705965
 51
87.475776
  0
ARC
  5
2A9
100
AcDbEntity
  8
0
370
    35
390
0
 62
     7
100
AcDbCircle
 10
160.662796
 20
159.101059
 30
0.0
 40
1.993812
210
0.0
220
0.0
230
1.0
100
AcDbArc
 50
101.937882
 51
212.370679
  0
ARC
  5
2AA
100
AcDbEntity
  8
0
370
    35
390
0
 62
     7
100
AcDbCircle
 10
160.664078
 20
159.091721
 30
0.0
 40
2.003428
210
0.0
220
0.0
230
1.0
100
AcDbArc
 50
87.460217
 51
101.918123
  0
ARC
  5
2AB
100
AcDbEntity
  8
0
370
    35
390
0
 62
     7
100
AcDbCircle
 10
161.044937
 20
159.350891
 30
0.0
 40
2.44962
210
0.0
220
0.0
230
1.0
100
AcDbArc
 50
212.520766
 51
229.998797
  0
LINE
  5
2AC
100
AcDbEntity
  8
0
370
    35
390
0
 62
     7
 48
0.414153
100
AcDbLine
 10
159.470306
 20
157.474396
 30
0.0
 11
172.16069
 21
146.825912
 31
0.0
210
0.0
220
0.0
230
1.0
  0
ARC
  5
2AD
100
AcDbEntity
  8
0
370
    35
390
0
 62
     7
100
AcDbCircle
 10
186.262115
 20
163.632416
 30
0.0
 40
21.938764
210
0.0
220
0.0
230
1.0
100
AcDbArc
 50
230.001815
 51
231.927519
  0
ARC
  5
2AE
100
AcDbEntity
  8
0
370
    35
390
0
 62
     7
100
AcDbCircle
 10
175.198456
 20
149.50705
 30
0.0
 40
3.996238
210
0.0
220
0.0
230
1.0
100
AcDbArc
 50
231.915238
 51
290.907616
  0
ARC
  5
2AF
100
AcDbEntity
  8
0
370
    35
390
0
 62
     7
100
AcDbCircle
 10
174.871429
 20
150.354218
 30
0.0
 40
4.904341
210
0.0
220
0.0
230
1.0
100
AcDbArc
 50
294.650738
 51
300.749181
  0
ARC
  5
2B0
100
AcDbEntity
  8
0
370
    35
390
0
 62
     7
100
AcDbCircle
 10
174.882797
 20
150.328979
 30
0.0
 40
4.876653
210
0.0
220
0.0
230
1.0
100
AcDbArc
 50
290.925949
 51
294.653094
  0
LINE
  5
2B1
100
AcDbEntity
  8
0
370
    35
390
0
 62
     7
 48
0.402972
100
AcDbLine
 10
177.378922
 20
146.139374
 30
0.0
 11
191.231461
 21
154.381073
 31
0.0
210
0.0
220
0.0
230
1.0
  0
ARC
  5
2B2
100
AcDbEntity
  8
0
370
    35
390
0
 62
     7
100
AcDbCircle
 10
190.207657
 20
156.102798
 30
0.0
 40
2.003299
210
0.0
220
0.0
230
1.0
100
AcDbArc
 50
300.737345
 51
74.616531
  0
ARC
  5
2B3
100
AcDbEntity
  8
0
370
    35
390
0
 62
     7
100
AcDbCircle
 10
148.986313
 20
156.894241
 30
0.0
 40
4.012311
210
0.0
220
0.0
230
1.0
100
AcDbArc
 50
49.998293
 51
100.697424
  0
ARC
  5
2B4
100
AcDbEntity
  8
0
370
    35
390
0
 62
     7
100
AcDbCircle
 10
148.98555
 20
156.899338
 30
0.0
 40
4.007149
210
0.0
220
0.0
230
1.0
100
AcDbArc
 50
100.70032
 51
120.760176
  0
LINE
  5
2B5
100
AcDbEntity
  8
0
370
    35
390
0
 62
     7
 48
0.440092
100
AcDbLine
 10
131.807907
 20
151.341248
 30
0.0
 11
146.936111
 21
160.342743
 31
0.0
210
0.0
220
0.0
230
1.0
  0
ARC
  5
2B6
100
AcDbEntity
  8
0
370
    35
390
0
 62
     7
100
AcDbCircle
 10
133.065628
 20
149.228561
 30
0.0
 40
2.45871
210
0.0
220
0.0
230
1.0
100
AcDbArc
 50
120.766146
 51
140.184128
  0
ARC
  5
2B7
100
AcDbEntity
  8
0
370
    35
390
0
 62
     7
100
AcDbCircle
 10
132.712845
 20
149.530029
 30
0.0
 40
1.995401
210
0.0
220
0.0
230
1.0
100
AcDbArc
 50
140.346468
 51
262.791307
  0
ARC
  5
2B8
100
AcDbEntity
  8
0
370
    35
390
0
 62
     7
100
AcDbCircle
 10
133.823257
 20
158.22702
 30
0.0
 40
10.763158
210
0.0
220
0.0
230
1.0
100
AcDbArc
 50
262.736385
 51
265.161724
  0
POLYLINE
  5
2B9
100
AcDbEntity
  8
0
370
    35
390
0
 62
     7
100
AcDb2dPolyline
 66
     1
 10
0.0
 20
0.0
 30
0.0
 71
     4
  0
VERTEX
  5
2BA
100
AcDbEntity
  8
0
370
     0
390
0
100
AcDbVertex
100
AcDb2dVertex
 10
132.915466
 20
147.502213
 30
0.0
  0
VERTEX
  5
2BB
100
AcDbEntity
  8
0
370
     0
390
0
100
AcDbVertex
100
AcDb2dVertex
 10
143.054108
 20
146.693283
 30
0.0
  0
VERTEX
  5
2BC
100
AcDbEntity
  8
0
370
     0
390
0
100
AcDbVertex
100
AcDb2dVertex
 10
153.194016
 20
145.963516
 30
0.0
  0
VERTEX
  5
2BD
100
AcDbEntity
  8
0
370
     0
390
0
100
AcDbVertex
100
AcDb2dVertex
 10
163.344223
 20
145.292267
 30
0.0
  0
SEQEND
  5
2BE
100
AcDbEntity
  8
0
370
     0
390
0
  0
ARC
  5
2BF
100
AcDbEntity
  8
0
370
    35
390
0
 62
     7
100
AcDbCircle
 10
163.500473
 20
147.746872
 30
0.0
 40
2.459569
210
0.0
220
0.0
230
1.0
100
AcDbArc
 50
266.357833
 51
276.62912
  0
ARC
  5
2C0
100
AcDbEntity
  8
0
370
    35
390
0
 62
     7
100
AcDbCircle
 10
163.54982
 20
147.29422
 30
0.0
 40
2.005578
210
0.0
220
0.0
230
1.0
100
AcDbArc
 50
291.954664
 51
49.977939
  0
ARC
  5
2C1
100
AcDbEntity
  8
0
370
    35
390
0
 62
     7
100
AcDbCircle
 10
163.55278
 20
147.298721
 30
0.0
 40
2.008367
210
0.0
220
0.0
230
1.0
100
AcDbArc
 50
276.622897
 51
291.82838
  0
LINE
  5
2C2
100
AcDbEntity
  8
0
370
    35
390
0
 62
     7
 48
0.433193
100
AcDbLine
 10
164.839264
 20
148.829712
 30
0.0
 11
151.56546
 21
159.967758
 31
0.0
210
0.0
220
0.0
230
1.0
  0
ARC
  5
2C3
100
AcDbEntity
  8
0
370
    35
390
0
 62
     7
100
AcDbCircle
 10
123.020599
 20
160.194534
 30
0.0
 40
2.004372
210
0.0
220
0.0
230
1.0
100
AcDbArc
 50
98.961306
 51
180.00382
  0
LINE
  5
2C4
100
AcDbEntity
  8
0
370
    35
390
0
 62
     7
 48
0.199976
100
AcDbLine
 10
121.016235
 20
152.195389
 30
0.0
 11
121.016235
 21
160.194412
 31
0.0
210
0.0
220
0.0
230
1.0
  0
ARC
  5
2C5
100
AcDbEntity
  8
0
370
    35
390
0
 62
     7
100
AcDbCircle
 10
123.479782
 20
152.195389
 30
0.0
 40
2.463554
210
0.0
220
0.0
230
1.0
100
AcDbArc
 50
180.000296
 51
191.283864
  0
ARC
  5
2C6
100
AcDbEntity
  8
0
370
    35
390
0
 62
     7
100
AcDbCircle
 10
123.025726
 20
152.106995
 30
0.0
 40
2.001284
210
0.0
220
0.0
230
1.0
100
AcDbArc
 50
191.345486
 51
282.96341
  0
ARC
  5
2C7
100
AcDbEntity
  8
0
370
    35
390
0
 62
     7
100
AcDbCircle
 10
123.024612
 20
152.110138
 30
0.0
 40
2.004721
210
0.0
220
0.0
230
1.0
100
AcDbArc
 50
282.974037
 51
299.338754
  0
LINE
  5
2C8
100
AcDbEntity
  8
0
370
    35
390
0
 62
     7
 48
0.006696
100
AcDbLine
 10
124.238754
 20
150.496628
 30
0.0
 11
124.006882
 21
150.362534
 31
0.0
210
0.0
220
0.0
230
1.0
  0
LINE
  5
2C9
100
AcDbEntity
  8
0
370
    35
390
0
 62
     7
 48
0.387499
100
AcDbLine
 10
124.238754
 20
150.496628
 30
0.0
 11
137.558578
 21
158.423264
 31
0.0
210
0.0
220
0.0
230
1.0
  0
ARC
  5
2CA
100
AcDbEntity
  8
0
370
    35
390
0
 62
     7
100
AcDbCircle
 10
136.297333
 20
160.541656
 30
0.0
 40
2.465426
210
0.0
220
0.0
230
1.0
100
AcDbArc
 50
300.768579
 51
319.348541
  0
ARC
  5
2CB
100
AcDbEntity
  8
0
370
    35
390
0
 62
     7
100
AcDbCircle
 10
136.649506
 20
160.23175
 30
0.0
 40
1.997178
210
0.0
220
0.0
230
1.0
100
AcDbArc
 50
319.512066
 51
86.964134
  0
ARC
  5
2CC
100
AcDbEntity
  8
0
370
    35
390
0
 62
     7
100
AcDbCircle
 10
136.191238
 20
151.776138
 30
0.0
 40
10.465336
210
0.0
220
0.0
230
1.0
100
AcDbArc
 50
86.910394
 51
88.946883
  0
ARC
  5
2CD
100
AcDbEntity
  8
0
370
    35
390
0
 62
     7
100
AcDbCircle
 10
130.478134
 20
-138.502625
 30
0.0
 40
300.799356
210
0.0
220
0.0
230
1.0
100
AcDbArc
 50
88.87507
 51
91.419391
  0
ARC
  5
2CE
100
AcDbEntity
  8
0
370
    35
390
0
 62
     7
100
AcDbCircle
 10
123.091522
 20
159.740219
 30
0.0
 40
2.464149
210
0.0
220
0.0
230
1.0
100
AcDbArc
 50
91.495664
 51
97.773297
  0
LINE
  5
2CF
100
AcDbEntity
  8
0
370
    35
390
0
 62
     7
 48
0.001259
100
AcDbLine
 10
122.758224
 20
162.181717
 30
0.0
 11
122.708389
 21
162.174393
 31
0.0
210
0.0
220
0.0
230
1.0
  0
ARC
  5
2D0
100
AcDbEntity
  8
0
370
    35
390
0
 62
     7
100
AcDbCircle
 10
102.827728
 20
152.990356
 30
0.0
 40
2.39877
210
0.0
220
0.0
230
1.0
100
AcDbArc
 50
180.007112
 51
202.337323
  0
ARC
  5
2D1
100
AcDbEntity
  8
0
370
    35
390
0
 62
     7
100
AcDbCircle
 10
102.436798
 20
152.834488
 30
0.0
 40
1.977852
210
0.0
220
0.0
230
1.0
100
AcDbArc
 50
202.464405
 51
256.779934
  0
ARC
  5
2D2
100
AcDbEntity
  8
0
370
    35
390
0
 62
     7
100
AcDbCircle
 10
104.672913
 20
162.338394
 30
0.0
 40
11.741283
210
0.0
220
0.0
230
1.0
100
AcDbArc
 50
256.763446
 51
261.680991
  0
ARC
  5
2D3
100
AcDbEntity
  8
0
370
    35
390
0
 62
     7
100
AcDbCircle
 10
148.538681
 20
465.033539
 30
0.0
 40
317.598623
210
0.0
220
0.0
230
1.0
100
AcDbArc
 50
261.75154
 51
263.044939
  0
ARC
  5
2D4
100
AcDbEntity
  8
0
370
    35
390
0
 62
     7
100
AcDbCircle
 10
110.325134
 20
151.763443
 30
0.0
 40
2.006759
210
0.0
220
0.0
230
1.0
100
AcDbArc
 50
282.048745
 51
359.989649
  0
ARC
  5
2D5
100
AcDbEntity
  8
0
370
    35
390
0
 62
     7
100
AcDbCircle
 10
110.325317
 20
151.763763
 30
0.0
 40
2.007109
210
0.0
220
0.0
230
1.0
100
AcDbArc
 50
262.990086
 51
282.041484
  0
LINE
  5
2D6
100
AcDbEntity
  8
0
370
    35
390
0
 62
     7
 48
0.190276
100
AcDbLine
 10
112.331787
 20
151.763077
 30
0.0
 11
112.331787
 21
159.3741
 31
0.0
210
0.0
220
0.0
230
1.0
  0
ARC
  5
2D7
100
AcDbEntity
  8
0
370
    35
390
0
 62
     7
100
AcDbCircle
 10
109.937943
 20
159.374023
 30
0.0
 40
2.393831
210
0.0
220
0.0
230
1.0
100
AcDbArc
 50
0.001923
 51
17.251248
  0
ARC
  5
2D8
100
AcDbEntity
  8
0
370
    35
390
0
 62
     7
100
AcDbCircle
 10
110.325119
 20
159.492203
 30
0.0
 40
1.988938
210
0.0
220
0.0
230
1.0
100
AcDbArc
 50
17.307457
 51
91.048075
  0
ARC
  5
2D9
100
AcDbEntity
  8
0
370
    35
390
0
 62
     7
100
AcDbCircle
 10
110.501877
 20
149.80162
 30
0.0
 40
11.681172
210
0.0
220
0.0
230
1.0
100
AcDbArc
 50
91.045506
 51
95.073392
  0
ARC
  5
2DA
100
AcDbEntity
  8
0
370
    35
390
0
 62
     7
100
AcDbCircle
 10
123.336716
 20
4.757141
 30
0.0
 40
157.29227
210
0.0
220
0.0
230
1.0
100
AcDbArc
 50
95.058099
 51
97.019169
  0
ARC
  5
2DB
100
AcDbEntity
  8
0
370
    35
390
0
 62
     7
100
AcDbCircle
 10
121.059509
 20
23.738106
 30
0.0
 40
138.175136
210
0.0
220
0.0
230
1.0
100
AcDbArc
 50
97.043785
 51
97.861154
  0
ARC
  5
2DC
100
AcDbEntity
  8
0
370
    35
390
0
 62
     7
100
AcDbCircle
 10
102.435577
 20
158.626923
 30
0.0
 40
2.00669
210
0.0
220
0.0
230
1.0
100
AcDbArc
 50
97.867568
 51
179.99506
  0
LINE
  5
2DD
100
AcDbEntity
  8
0
370
    35
390
0
 62
     7
 48
0.140926
100
AcDbLine
 10
100.428925
 20
158.627106
 30
0.0
 11
100.428925
 21
152.990067
 31
0.0
210
0.0
220
0.0
230
1.0
  0
POLYLINE
  5
2DE
100
AcDbEntity
  8
0
370
    35
390
0
 62
     7
100
AcDb2dPolyline
 66
     1
 10
0.0
 20
0.0
 30
0.0
 71
     8
  0
VERTEX
  5
2DF
100
AcDbEntity
  8
0
370
     0
390
0
100
AcDbVertex
100
AcDb2dVertex
 10
82.492737
 20
155.171082
 30
0.0
  0
VERTEX
  5
2E0
100
AcDbEntity
  8
0
370
     0
390
0
100
AcDbVertex
100
AcDb2dVertex
 10
83.5504
 20
155.737503
 30
0.0
  0
VERTEX
  5
2E1
100
AcDbEntity
  8
0
370
     0
390
0
100
AcDbVertex
100
AcDb2dVertex
 10
85.210297
 20
156.504211
 30
0.0
  0
VERTEX
  5
2E2
100
AcDbEntity
  8
0
370
     0
390
0
100
AcDbVertex
100
AcDb2dVertex
 10
86.641891
 20
157.067947
 30
0.0
  0
VERTEX
  5
2E3
100
AcDbEntity
  8
0
370
     0
390
0
100
AcDbVertex
100
AcDb2dVertex
 10
88.119781
 20
157.577026
 30
0.0
  0
VERTEX
  5
2E4
100
AcDbEntity
  8
0
370
     0
390
0
100
AcDbVertex
100
AcDb2dVertex
 10
90.565536
 20
158.305908
 30
0.0
  0
VERTEX
  5
2E5
100
AcDbEntity
  8
0
370
     0
390
0
100
AcDbVertex
100
AcDb2dVertex
 10
92.436096
 20
158.792404
 30
0.0
  0
VERTEX
  5
2E6
100
AcDbEntity
  8
0
370
     0
390
0
100
AcDbVertex
100
AcDb2dVertex
 10
94.322052
 20
159.230637
 30
0.0
  0
SEQEND
  5
2E7
100
AcDbEntity
  8
0
370
     0
390
0
  0
POLYLINE
  5
2E8
100
AcDbEntity
  8
0
370
    35
390
0
 62
     7
100
AcDb2dPolyline
 66
     1
 10
0.0
 20
0.0
 30
0.0
 71
     7
  0
VERTEX
  5
2E9
100
AcDbEntity
  8
0
370
     0
390
0
100
AcDbVertex
100
AcDb2dVertex
 10
82.492737
 20
155.171082
 30
0.0
  0
VERTEX
  5
2EA
100
AcDbEntity
  8
0
370
     0
390
0
100
AcDbVertex
100
AcDb2dVertex
 10
83.605652
 20
154.768127
 30
0.0
  0
VERTEX
  5
2EB
100
AcDbEntity
  8
0
370
     0
390
0
100
AcDbVertex
100
AcDb2dVertex
 10
84.752487
 20
154.398178
 30
0.0
  0
VERTEX
  5
2EC
100
AcDbEntity
  8
0
370
     0
390
0
100
AcDbVertex
100
AcDb2dVertex
 10
85.928787
 20
154.052338
 30
0.0
  0
VERTEX
  5
2ED
100
AcDbEntity
  8
0
370
     0
390
0
100
AcDbVertex
100
AcDb2dVertex
 10
88.912949
 20
153.277802
 30
0.0
  0
VERTEX
  5
2EE
100
AcDbEntity
  8
0
370
     0
390
0
100
AcDbVertex
100
AcDb2dVertex
 10
91.898163
 20
152.612488
 30
0.0
  0
VERTEX
  5
2EF
100
AcDbEntity
  8
0
370
     0
390
0
100
AcDbVertex
100
AcDb2dVertex
 10
94.33522
 20
152.131836
 30
0.0
  0
SEQEND
  5
2F0
100
AcDbEntity
  8
0
370
     0
390
0
  0
ARC
  5
2F1
100
AcDbEntity
  8
0
370
    35
390
0
 62
     7
100
AcDbCircle
 10
94.784744
 20
154.525375
 30
0.0
 40
2.435376
210
0.0
220
0.0
230
1.0
100
AcDbArc
 50
259.363289
 51
265.684199
  0
ARC
  5
2F2
100
AcDbEntity
  8
0
370
    35
390
0
 62
     7
100
AcDbCircle
 10
94.75177
 20
154.097168
 30
0.0
 40
2.006114
210
0.0
220
0.0
230
1.0
100
AcDbArc
 50
279.86609
 51
359.994232
  0
ARC
  5
2F3
100
AcDbEntity
  8
0
370
    35
390
0
 62
     7
100
AcDbCircle
 10
94.752625
 20
154.096893
 30
0.0
 40
2.0057
210
0.0
220
0.0
230
1.0
100
AcDbArc
 50
265.677779
 51
279.84342
  0
LINE
  5
2F4
100
AcDbEntity
  8
0
370
    35
390
0
 62
     7
 48
0.079342
100
AcDbLine
 10
96.757813
 20
154.096954
 30
0.0
 11
96.757813
 21
157.27063
 31
0.0
210
0.0
220
0.0
230
1.0
  0
ARC
  5
2F5
100
AcDbEntity
  8
0
370
    35
390
0
 62
     7
100
AcDbCircle
 10
94.751099
 20
157.270508
 30
0.0
 40
2.006796
210
0.0
220
0.0
230
1.0
100
AcDbArc
 50
0.003095
 51
96.998085
  0
ARC
  5
2F6
100
AcDbEntity
  8
0
370
    35
390
0
 62
     7
100
AcDbCircle
 10
94.75293
 20
157.26683
 30
0.0
 40
2.010514
210
0.0
220
0.0
230
1.0
100
AcDbArc
 50
97.037017
 51
102.375062
  0
POLYLINE
  5
2F7
100
AcDbEntity
  8
0
370
    35
390
0
 62
     7
100
AcDb2dPolyline
 66
     1
 10
0.0
 20
0.0
 30
0.0
 71
    10
  0
VERTEX
  5
2F8
100
AcDbEntity
  8
0
370
     0
390
0
100
AcDbVertex
100
AcDb2dVertex
 10
342.954834
 20
130.95932
 30
0.0
  0
VERTEX
  5
2F9
100
AcDbEntity
  8
0
370
     0
390
0
100
AcDbVertex
100
AcDb2dVertex
 10
341.258026
 20
131.303772
 30
0.0
  0
VERTEX
  5
2FA
100
AcDbEntity
  8
0
370
     0
390
0
100
AcDbVertex
100
AcDb2dVertex
 10
337.876221
 20
132.048492
 30
0.0
  0
VERTEX
  5
2FB
100
AcDbEntity
  8
0
370
     0
390
0
100
AcDbVertex
100
AcDb2dVertex
 10
331.777832
 20
133.497131
 30
0.0
  0
VERTEX
  5
2FC
100
AcDbEntity
  8
0
370
     0
390
0
100
AcDbVertex
100
AcDb2dVertex
 10
322.654846
 20
135.768387
 30
0.0
  0
VERTEX
  5
2FD
100
AcDbEntity
  8
0
370
     0
390
0
100
AcDbVertex
100
AcDb2dVertex
 10
305.159302
 20
140.190292
 30
0.0
  0
VERTEX
  5
2FE
100
AcDbEntity
  8
0
370
     0
390
0
100
AcDbVertex
100
AcDb2dVertex
 10
291.813843
 20
143.479614
 30
0.0
  0
VERTEX
  5
2FF
100
AcDbEntity
  8
0
370
     0
390
0
100
AcDbVertex
100
AcDb2dVertex
 10
281.038757
 20
146.020523
 30
0.0
  0
VERTEX
  5
300
100
AcDbEntity
  8
0
370
     0
390
0
100
AcDbVertex
100
AcDb2dVertex
 10
270.233978
 20
148.432251
 30
0.0
  0
VERTEX
  5
301
100
AcDbEntity
  8
0
370
     0
390
0
100
AcDbVertex
100
AcDb2dVertex
 10
264.400238
 20
149.674561
 30
0.0
  0
SEQEND
  5
302
100
AcDbEntity
  8
0
370
     0
390
0
  0
LINE
  5
303
100
AcDbEntity
  8
0
370
    35
390
0
 62
     7
 48
0.005987
100
AcDbLine
 10
343.189911
 20
130.913574
 30
0.0
 11
342.954834
 21
130.95932
 31
0.0
210
0.0
220
0.0
230
1.0
  0
LINE
  5
304
100
AcDbEntity
  8
0
370
    35
390
0
 62
     7
 48
0.240884
100
AcDbLine
 10
116.586624
 20
145.317322
 30
0.0
 11
116.586624
 21
154.952682
 31
0.0
210
0.0
220
0.0
230
1.0
  0
POLYLINE
  5
305
100
AcDbEntity
  8
0
370
    35
390
0
 62
     7
100
AcDb2dPolyline
 66
     1
 10
0.0
 20
0.0
 30
0.0
 71
    14
  0
VERTEX
  5
306
100
AcDbEntity
  8
0
370
     0
390
0
100
AcDbVertex
100
AcDb2dVertex
 10
107.277359
 20
165.08432
 30
0.0
  0
VERTEX
  5
307
100
AcDbEntity
  8
0
370
     0
390
0
100
AcDbVertex
100
AcDb2dVertex
 10
110.362305
 20
165.376312
 30
0.0
  0
VERTEX
  5
308
100
AcDbEntity
  8
0
370
     0
390
0
100
AcDbVertex
100
AcDb2dVertex
 10
113.362564
 20
165.609055
 30
0.0
  0
VERTEX
  5
309
100
AcDbEntity
  8
0
370
     0
390
0
100
AcDbVertex
100
AcDb2dVertex
 10
116.647568
 20
165.812119
 30
0.0
  0
VERTEX
  5
30A
100
AcDbEntity
  8
0
370
     0
390
0
100
AcDbVertex
100
AcDb2dVertex
 10
119.935104
 20
165.966675
 30
0.0
  0
VERTEX
  5
30B
100
AcDbEntity
  8
0
370
     0
390
0
100
AcDbVertex
100
AcDb2dVertex
 10
123.587448
 20
166.086578
 30
0.0
  0
VERTEX
  5
30C
100
AcDbEntity
  8
0
370
     0
390
0
100
AcDbVertex
100
AcDb2dVertex
 10
127.241058
 20
166.156036
 30
0.0
  0
VERTEX
  5
30D
100
AcDbEntity
  8
0
370
     0
390
0
100
AcDbVertex
100
AcDb2dVertex
 10
132.786331
 20
166.173492
 30
0.0
  0
VERTEX
  5
30E
100
AcDbEntity
  8
0
370
     0
390
0
100
AcDbVertex
100
AcDb2dVertex
 10
138.331375
 20
166.096161
 30
0.0
  0
VERTEX
  5
30F
100
AcDbEntity
  8
0
370
     0
390
0
100
AcDbVertex
100
AcDb2dVertex
 10
143.87439
 20
165.935715
 30
0.0
  0
VERTEX
  5
310
100
AcDbEntity
  8
0
370
     0
390
0
100
AcDbVertex
100
AcDb2dVertex
 10
148.619843
 20
165.739624
 30
0.0
  0
VERTEX
  5
311
100
AcDbEntity
  8
0
370
     0
390
0
100
AcDbVertex
100
AcDb2dVertex
 10
153.363007
 20
165.493759
 30
0.0
  0
VERTEX
  5
312
100
AcDbEntity
  8
0
370
     0
390
0
100
AcDbVertex
100
AcDb2dVertex
 10
161.410721
 20
164.967117
 30
0.0
  0
VERTEX
  5
313
100
AcDbEntity
  8
0
370
     0
390
0
100
AcDbVertex
100
AcDb2dVertex
 10
169.448822
 20
164.310028
 30
0.0
  0
SEQEND
  5
314
100
AcDbEntity
  8
0
370
     0
390
0
  0
POLYLINE
  5
315
100
AcDbEntity
  8
0
370
    35
390
0
 62
     7
100
AcDb2dPolyline
 66
     1
 10
0.0
 20
0.0
 30
0.0
 71
    12
  0
VERTEX
  5
316
100
AcDbEntity
  8
0
370
     0
390
0
100
AcDbVertex
100
AcDb2dVertex
 10
263.400238
 20
149.883331
 30
0.0
  0
VERTEX
  5
317
100
AcDbEntity
  8
0
370
     0
390
0
100
AcDbVertex
100
AcDb2dVertex
 10
256.040344
 20
151.382843
 30
0.0
  0
VERTEX
  5
318
100
AcDbEntity
  8
0
370
     0
390
0
100
AcDbVertex
100
AcDb2dVertex
 10
246.225204
 20
153.283539
 30
0.0
  0
VERTEX
  5
319
100
AcDbEntity
  8
0
370
     0
390
0
100
AcDbVertex
100
AcDb2dVertex
 10
236.390457
 20
155.081436
 30
0.0
  0
VERTEX
  5
31A
100
AcDbEntity
  8
0
370
     0
390
0
100
AcDbVertex
100
AcDb2dVertex
 10
226.538544
 20
156.782867
 30
0.0
  0
VERTEX
  5
31B
100
AcDbEntity
  8
0
370
     0
390
0
100
AcDbVertex
100
AcDb2dVertex
 10
216.6707
 20
158.387665
 30
0.0
  0
VERTEX
  5
31C
100
AcDbEntity
  8
0
370
     0
390
0
100
AcDbVertex
100
AcDb2dVertex
 10
206.546051
 20
159.917664
 30
0.0
  0
VERTEX
  5
31D
100
AcDbEntity
  8
0
370
     0
390
0
100
AcDbVertex
100
AcDb2dVertex
 10
197.294113
 20
161.197983
 30
0.0
  0
VERTEX
  5
31E
100
AcDbEntity
  8
0
370
     0
390
0
100
AcDbVertex
100
AcDb2dVertex
 10
188.026764
 20
162.361786
 30
0.0
  0
VERTEX
  5
31F
100
AcDbEntity
  8
0
370
     0
390
0
100
AcDbVertex
100
AcDb2dVertex
 10
178.744827
 20
163.403351
 30
0.0
  0
VERTEX
  5
320
100
AcDbEntity
  8
0
370
     0
390
0
100
AcDbVertex
100
AcDb2dVertex
 10
174.098587
 20
163.874802
 30
0.0
  0
VERTEX
  5
321
100
AcDbEntity
  8
0
370
     0
390
0
100
AcDbVertex
100
AcDb2dVertex
 10
169.448822
 20
164.310028
 30
0.0
  0
SEQEND
  5
322
100
AcDbEntity
  8
0
370
     0
390
0
  0
LINE
  5
323
100
AcDbEntity
  8
0
370
    35
390
0
 62
     7
 48
0.025
100
AcDbLine
 10
263.400238
 20
143.020706
 30
0.0
 11
264.400238
 21
143.020706
 31
0.0
210
0.0
220
0.0
230
1.0
  0
ARC
  5
324
100
AcDbEntity
  8
0
370
    35
390
0
 62
     7
100
AcDbCircle
 10
270.077362
 20
141.447067
 30
0.0
 40
1.843445
210
0.0
220
0.0
230
1.0
100
AcDbArc
 50
185.756314
 51
209.571176
  0
ARC
  5
325
100
AcDbEntity
  8
0
370
    35
390
0
 62
     7
100
AcDbCircle
 10
269.741608
 20
141.266068
 30
0.0
 40
1.462137
210
0.0
220
0.0
230
1.0
100
AcDbArc
 50
209.895501
 51
264.715931
  0
ARC
  5
326
100
AcDbEntity
  8
0
370
    35
390
0
 62
     7
100
AcDbCircle
 10
270.274841
 20
146.937927
 30
0.0
 40
7.159146
210
0.0
220
0.0
230
1.0
100
AcDbArc
 50
264.647021
 51
266.86436
  0
ARC
  5
327
100
AcDbEntity
  8
0
370
    35
390
0
 62
     7
100
AcDbCircle
 10
74.295517
 20
-3469.943848
 30
0.0
 40
3615.02723
210
0.0
220
0.0
230
1.0
100
AcDbArc
 50
86.47805
 51
86.89855
  0
ARC
  5
328
100
AcDbEntity
  8
0
370
    35
390
0
 62
     7
100
AcDbCircle
 10
254.859787
 20
146.178116
 30
0.0
 40
1.399643
210
0.0
220
0.0
230
1.0
100
AcDbArc
 50
170.323102
 51
203.220616
  0
ARC
  5
329
100
AcDbEntity
  8
0
370
    35
390
0
 62
     7
100
AcDbCircle
 10
255.427719
 20
146.430954
 30
0.0
 40
2.021424
210
0.0
220
0.0
230
1.0
100
AcDbArc
 50
203.459646
 51
229.996966
  0
LINE
  5
32A
100
AcDbEntity
  8
0
370
    35
390
0
 62
     7
 48
0.091219
100
AcDbLine
 10
254.12825
 20
144.882477
 30
0.0
 11
256.92337
 21
142.537094
 31
0.0
210
0.0
220
0.0
230
1.0
  0
ARC
  5
32B
100
AcDbEntity
  8
0
370
    35
390
0
 62
     7
100
AcDbCircle
 10
258.207794
 20
144.05719
 30
0.0
 40
1.989781
210
0.0
220
0.0
230
1.0
100
AcDbArc
 50
229.803248
 51
264.719394
  0
ARC
  5
32C
100
AcDbEntity
  8
0
370
    35
390
0
 62
     7
100
AcDbCircle
 10
258.140778
 20
143.47641
 30
0.0
 40
1.405473
210
0.0
220
0.0
230
1.0
100
AcDbArc
 50
265.260714
 51
345.382282
  0
ARC
  5
32D
100
AcDbEntity
  8
0
370
    35
390
0
 62
     7
100
AcDbCircle
 10
257.543854
 20
143.633362
 30
0.0
 40
2.022927
210
0.0
220
0.0
230
1.0
100
AcDbArc
 50
345.347789
 51
354.195114
  0
ARC
  5
32E
100
AcDbEntity
  8
0
370
    35
390
0
 62
     7
100
AcDbCircle
 10
236.241806
 20
143.50473
 30
0.0
 40
1.99963
210
0.0
220
0.0
230
1.0
100
AcDbArc
 50
147.79263
 51
267.089148
  0
LINE
  5
32F
100
AcDbEntity
  8
0
370
    35
390
0
 62
     7
 48
0.306228
100
AcDbLine
 10
248.373474
 20
140.883301
 30
0.0
 11
236.140259
 21
141.50766
 31
0.0
210
0.0
220
0.0
230
1.0
  0
ARC
  5
330
100
AcDbEntity
  8
0
370
    35
390
0
 62
     7
100
AcDbCircle
 10
248.476044
 20
142.881119
 30
0.0
 40
2.000444
210
0.0
220
0.0
230
1.0
100
AcDbArc
 50
267.06124
 51
344.587159
  0
ARC
  5
331
100
AcDbEntity
  8
0
370
    35
390
0
 62
     7
100
AcDbCircle
 10
214.111893
 20
152.889221
 30
0.0
 40
1.991996
210
0.0
220
0.0
230
1.0
100
AcDbArc
 50
124.016141
 51
217.01503
  0
ARC
  5
332
100
AcDbEntity
  8
0
370
    35
390
0
 62
     7
100
AcDbCircle
 10
214.466553
 20
153.160019
 30
0.0
 40
2.437684
210
0.0
220
0.0
230
1.0
100
AcDbArc
 50
217.078647
 51
229.999521
  0
LINE
  5
333
100
AcDbEntity
  8
0
370
    35
390
0
 62
     7
 48
0.273841
100
AcDbLine
 10
212.899628
 20
151.292648
 30
0.0
 11
221.290604
 21
144.25177
 31
0.0
210
0.0
220
0.0
230
1.0
  0
ARC
  5
334
100
AcDbEntity
  8
0
370
    35
390
0
 62
     7
100
AcDbCircle
 10
235.522476
 20
161.213211
 30
0.0
 40
22.141283
210
0.0
220
0.0
230
1.0
100
AcDbArc
 50
230.000887
 51
231.528062
  0
ARC
  5
335
100
AcDbEntity
  8
0
370
    35
390
0
 62
     7
100
AcDbCircle
 10
224.230194
 20
147.00177
 30
0.0
 40
3.989597
210
0.0
220
0.0
230
1.0
100
AcDbArc
 50
231.521068
 51
293.643776
  0
ARC
  5
336
100
AcDbEntity
  8
0
370
    35
390
0
 62
     7
100
AcDbCircle
 10
223.874603
 20
147.810516
 30
0.0
 40
4.87305
210
0.0
220
0.0
230
1.0
100
AcDbArc
 50
293.660066
 51
300.752692
  0
LINE
  5
337
100
AcDbEntity
  8
0
370
    35
390
0
 62
     7
 48
0.21688
100
AcDbLine
 10
233.821732
 20
148.058517
 30
0.0
 11
226.366364
 21
143.622711
 31
0.0
210
0.0
220
0.0
230
1.0
  0
ARC
  5
338
100
AcDbEntity
  8
0
370
    35
390
0
 62
     7
100
AcDbCircle
 10
232.800125
 20
149.777954
 30
0.0
 40
2.000006
210
0.0
220
0.0
230
1.0
100
AcDbArc
 50
300.716485
 51
323.752142
  0
ARC
  5
339
100
AcDbEntity
  8
0
370
    35
390
0
 62
     7
100
AcDbCircle
 10
201.054932
 20
151.879135
 30
0.0
 40
3.998327
210
0.0
220
0.0
230
1.0
100
AcDbArc
 50
116.513916
 51
120.759944
  0
LINE
  5
33A
100
AcDbEntity
  8
0
370
    35
390
0
 62
     7
 48
0.366543
100
AcDbLine
 10
186.410599
 20
147.816971
 30
0.0
 11
199.010025
 21
155.314972
 31
0.0
210
0.0
220
0.0
230
1.0
  0
ARC
  5
33B
100
AcDbEntity
  8
0
370
    35
390
0
 62
     7
100
AcDbCircle
 10
187.664108
 20
145.711319
 30
0.0
 40
2.450511
210
0.0
220
0.0
230
1.0
100
AcDbArc
 50
120.765668
 51
136.680377
  0
ARC
  5
33C
100
AcDbEntity
  8
0
370
    35
390
0
 62
     7
100
AcDbCircle
 10
187.333725
 20
146.028183
 30
0.0
 40
1.993443
210
0.0
220
0.0
230
1.0
100
AcDbArc
 50
136.791504
 51
264.965472
  0
ARC
  5
33D
100
AcDbEntity
  8
0
370
    35
390
0
 62
     7
100
AcDbCircle
 10
188.116226
 20
154.848694
 30
0.0
 40
10.848569
210
0.0
220
0.0
230
1.0
100
AcDbArc
 50
264.936826
 51
266.798626
  0
ARC
  5
33E
100
AcDbEntity
  8
0
370
    35
390
0
 62
     7
100
AcDbCircle
 10
522.422241
 20
6167.460938
 30
0.0
 40
6032.747841
210
0.0
220
0.0
230
1.0
100
AcDbArc
 50
266.817553
 51
267.056002
  0
ARC
  5
33F
100
AcDbEntity
  8
0
370
    35
390
0
 62
     7
100
AcDbCircle
 10
212.707718
 20
145.122711
 30
0.0
 40
2.451493
210
0.0
220
0.0
230
1.0
100
AcDbArc
 50
267.039964
 51
276.154804
  0
ARC
  5
340
100
AcDbEntity
  8
0
370
    35
390
0
 62
     7
100
AcDbCircle
 10
212.75885
 20
144.66684
 30
0.0
 40
1.992706
210
0.0
220
0.0
230
1.0
100
AcDbArc
 50
276.098387
 51
310.251655
  0
ARC
  5
341
100
AcDbEntity
  8
0
370
    35
390
0
 62
     7
100
AcDbCircle
 10
160.955872
 20
159.17012
 30
0.0
 40
1.986859
210
0.0
220
0.0
230
1.0
100
AcDbArc
 50
106.296233
 51
212.433954
  0
ARC
  5
342
100
AcDbEntity
  8
0
370
    35
390
0
 62
     7
100
AcDbCircle
 10
161.344284
 20
159.424438
 30
0.0
 40
2.450399
210
0.0
220
0.0
230
1.0
100
AcDbArc
 50
212.582019
 51
229.999042
  0
LINE
  5
343
100
AcDbEntity
  8
0
370
    35
390
0
 62
     7
 48
0.412857
100
AcDbLine
 10
159.76915
 20
157.547333
 30
0.0
 11
172.419815
 21
146.932175
 31
0.0
210
0.0
220
0.0
230
1.0
  0
ARC
  5
344
100
AcDbEntity
  8
0
370
    35
390
0
 62
     7
100
AcDbCircle
 10
186.24559
 20
163.410156
 30
0.0
 40
21.509911
210
0.0
220
0.0
230
1.0
100
AcDbArc
 50
230.001815
 51
231.959744
  0
ARC
  5
345
100
AcDbEntity
  8
0
370
    35
390
0
 62
     7
100
AcDbCircle
 10
175.445816
 20
149.605682
 30
0.0
 40
3.98273
210
0.0
220
0.0
230
1.0
100
AcDbArc
 50
231.947313
 51
290.951487
  0
LINE
  5
346
100
AcDbEntity
  8
0
370
    35
390
0
 62
     7
 48
0.004507
100
AcDbLine
 10
177.037064
 20
145.953934
 30
0.0
 11
176.869934
 21
145.886322
 31
0.0
210
0.0
220
0.0
230
1.0
  0
ARC
  5
347
100
AcDbEntity
  8
0
370
    35
390
0
 62
     7
100
AcDbCircle
 10
149.309738
 20
156.974274
 30
0.0
 40
3.993766
210
0.0
220
0.0
230
1.0
100
AcDbArc
 50
103.092512
 51
120.77008
  0
LINE
  5
348
100
AcDbEntity
  8
0
370
    35
390
0
 62
     7
 48
0.438719
100
AcDbLine
 10
132.187088
 20
151.42984
 30
0.0
 11
147.266541
 21
160.405838
 31
0.0
210
0.0
220
0.0
230
1.0
  0
ARC
  5
349
100
AcDbEntity
  8
0
370
    35
390
0
 62
     7
100
AcDbCircle
 10
133.445618
 20
149.316605
 30
0.0
 40
2.459598
210
0.0
220
0.0
230
1.0
100
AcDbArc
 50
120.775681
 51
140.125497
  0
ARC
  5
34A
100
AcDbEntity
  8
0
370
    35
390
0
 62
     7
100
AcDbCircle
 10
133.08725
 20
149.623367
 30
0.0
 40
1.988613
210
0.0
220
0.0
230
1.0
100
AcDbArc
 50
140.289094
 51
262.760058
  0
ARC
  5
34B
100
AcDbEntity
  8
0
370
    35
390
0
 62
     7
100
AcDbCircle
 10
134.177032
 20
158.120132
 30
0.0
 40
10.555155
210
0.0
220
0.0
230
1.0
100
AcDbArc
 50
262.704215
 51
265.169613
  0
POLYLINE
  5
34C
100
AcDbEntity
  8
0
370
    35
390
0
 62
     7
100
AcDb2dPolyline
 66
     1
 10
0.0
 20
0.0
 30
0.0
 71
     4
  0
VERTEX
  5
34D
100
AcDbEntity
  8
0
370
     0
390
0
100
AcDbVertex
100
AcDb2dVertex
 10
133.288223
 20
147.602478
 30
0.0
  0
VERTEX
  5
34E
100
AcDbEntity
  8
0
370
     0
390
0
100
AcDbVertex
100
AcDb2dVertex
 10
143.395447
 20
146.79744
 30
0.0
  0
VERTEX
  5
34F
100
AcDbEntity
  8
0
370
     0
390
0
100
AcDbVertex
100
AcDb2dVertex
 10
153.503738
 20
146.071289
 30
0.0
  0
VERTEX
  5
350
100
AcDbEntity
  8
0
370
     0
390
0
100
AcDbVertex
100
AcDb2dVertex
 10
163.62236
 20
145.403458
 30
0.0
  0
SEQEND
  5
351
100
AcDbEntity
  8
0
370
     0
390
0
  0
ARC
  5
352
100
AcDbEntity
  8
0
370
    35
390
0
 62
     7
100
AcDbCircle
 10
163.778336
 20
147.859039
 30
0.0
 40
2.460526
210
0.0
220
0.0
230
1.0
100
AcDbArc
 50
266.365299
 51
276.600501
  0
ARC
  5
353
100
AcDbEntity
  8
0
370
    35
390
0
 62
     7
100
AcDbCircle
 10
163.830673
 20
147.406326
 30
0.0
 40
2.00479
210
0.0
220
0.0
230
1.0
100
AcDbArc
 50
276.601935
 51
287.580023
  0
ARC
  5
354
100
AcDbEntity
  8
0
370
    35
390
0
 62
     7
100
AcDbCircle
 10
123.417725
 20
160.255478
 30
0.0
 40
1.997774
210
0.0
220
0.0
230
1.0
100
AcDbArc
 50
103.118603
 51
180.00244
  0
LINE
  5
355
100
AcDbEntity
  8
0
370
    35
390
0
 62
     7
 48
0.199357
100
AcDbLine
 10
121.419952
 20
152.281128
 30
0.0
 11
121.419952
 21
160.255402
 31
0.0
210
0.0
220
0.0
230
1.0
  0
ARC
  5
356
100
AcDbEntity
  8
0
370
    35
390
0
 62
     7
100
AcDbCircle
 10
123.884552
 20
152.281143
 30
0.0
 40
2.464592
210
0.0
220
0.0
230
1.0
100
AcDbArc
 50
180.000227
 51
191.243921
  0
ARC
  5
357
100
AcDbEntity
  8
0
370
    35
390
0
 62
     7
100
AcDbCircle
 10
123.422638
 20
152.191376
 30
0.0
 40
1.994324
210
0.0
220
0.0
230
1.0
100
AcDbArc
 50
191.301909
 51
277.140694
  0
ARC
  5
358
100
AcDbEntity
  8
0
370
    35
390
0
 62
     7
100
AcDbCircle
 10
103.290955
 20
153.072174
 30
0.0
 40
2.398643
210
0.0
220
0.0
230
1.0
100
AcDbArc
 50
180.006579
 51
202.262792
  0
ARC
  5
359
100
AcDbEntity
  8
0
370
    35
390
0
 62
     7
100
AcDbCircle
 10
102.893509
 20
152.9142
 30
0.0
 40
1.97089
210
0.0
220
0.0
230
1.0
100
AcDbArc
 50
202.390352
 51
256.707172
  0
ARC
  5
35A
100
AcDbEntity
  8
0
370
    35
390
0
 62
     7
100
AcDbCircle
 10
105.091125
 20
162.201752
 30
0.0
 40
11.514896
210
0.0
220
0.0
230
1.0
100
AcDbArc
 50
256.690903
 51
261.688333
  0
ARC
  5
35B
100
AcDbEntity
  8
0
370
    35
390
0
 62
     7
100
AcDbCircle
 10
148.819916
 20
464.228699
 30
0.0
 40
316.691298
210
0.0
220
0.0
230
1.0
100
AcDbArc
 50
261.759046
 51
263.051892
  0
ARC
  5
35C
100
AcDbEntity
  8
0
370
    35
390
0
 62
     7
100
AcDbCircle
 10
110.753525
 20
151.85022
 30
0.0
 40
2.002322
210
0.0
220
0.0
230
1.0
100
AcDbArc
 50
263.002598
 51
275.776555
  0
ARC
  5
35D
100
AcDbEntity
  8
0
370
    35
390
0
 62
     7
100
AcDbCircle
 10
121.368088
 20
24.994888
 30
0.0
 40
136.965778
210
0.0
220
0.0
230
1.0
100
AcDbArc
 50
97.160144
 51
97.868141
  0
ARC
  5
35E
100
AcDbEntity
  8
0
370
    35
390
0
 62
     7
100
AcDbCircle
 10
102.892273
 20
158.690063
 30
0.0
 40
2.000023
210
0.0
220
0.0
230
1.0
100
AcDbArc
 50
97.87282
 51
179.995005
  0
LINE
  5
35F
100
AcDbEntity
  8
0
370
    35
390
0
 62
     7
 48
0.140458
100
AcDbLine
 10
100.892288
 20
158.690231
 30
0.0
 11
100.892288
 21
153.071899
 31
0.0
210
0.0
220
0.0
230
1.0
  0
POLYLINE
  5
360
100
AcDbEntity
  8
0
370
    35
390
0
 62
     7
100
AcDb2dPolyline
 66
     1
 10
0.0
 20
0.0
 30
0.0
 71
     8
  0
VERTEX
  5
361
100
AcDbEntity
  8
0
370
     0
390
0
100
AcDbVertex
100
AcDb2dVertex
 10
83.005249
 20
155.241562
 30
0.0
  0
VERTEX
  5
362
100
AcDbEntity
  8
0
370
     0
390
0
100
AcDbVertex
100
AcDb2dVertex
 10
84.059708
 20
155.806259
 30
0.0
  0
VERTEX
  5
363
100
AcDbEntity
  8
0
370
     0
390
0
100
AcDbVertex
100
AcDb2dVertex
 10
85.714447
 20
156.570587
 30
0.0
  0
VERTEX
  5
364
100
AcDbEntity
  8
0
370
     0
390
0
100
AcDbVertex
100
AcDb2dVertex
 10
87.141647
 20
157.13266
 30
0.0
  0
VERTEX
  5
365
100
AcDbEntity
  8
0
370
     0
390
0
100
AcDbVertex
100
AcDb2dVertex
 10
88.615005
 20
157.640274
 30
0.0
  0
VERTEX
  5
366
100
AcDbEntity
  8
0
370
     0
390
0
100
AcDbVertex
100
AcDb2dVertex
 10
91.053146
 20
158.367126
 30
0.0
  0
VERTEX
  5
367
100
AcDbEntity
  8
0
370
     0
390
0
100
AcDbVertex
100
AcDb2dVertex
 10
92.890045
 20
158.845474
 30
0.0
  0
VERTEX
  5
368
100
AcDbEntity
  8
0
370
     0
390
0
100
AcDbVertex
100
AcDb2dVertex
 10
94.741882
 20
159.277084
 30
0.0
  0
SEQEND
  5
369
100
AcDbEntity
  8
0
370
     0
390
0
  0
POLYLINE
  5
36A
100
AcDbEntity
  8
0
370
    35
390
0
 62
     7
100
AcDb2dPolyline
 66
     1
 10
0.0
 20
0.0
 30
0.0
 71
     7
  0
VERTEX
  5
36B
100
AcDbEntity
  8
0
370
     0
390
0
100
AcDbVertex
100
AcDb2dVertex
 10
83.005249
 20
155.241562
 30
0.0
  0
VERTEX
  5
36C
100
AcDbEntity
  8
0
370
     0
390
0
100
AcDbVertex
100
AcDb2dVertex
 10
84.114746
 20
154.840164
 30
0.0
  0
VERTEX
  5
36D
100
AcDbEntity
  8
0
370
     0
390
0
100
AcDbVertex
100
AcDb2dVertex
 10
85.258041
 20
154.471619
 30
0.0
  0
VERTEX
  5
36E
100
AcDbEntity
  8
0
370
     0
390
0
100
AcDbVertex
100
AcDb2dVertex
 10
86.430634
 20
154.127106
 30
0.0
  0
VERTEX
  5
36F
100
AcDbEntity
  8
0
370
     0
390
0
100
AcDbVertex
100
AcDb2dVertex
 10
89.405319
 20
153.355515
 30
0.0
  0
VERTEX
  5
370
100
AcDbEntity
  8
0
370
     0
390
0
100
AcDbVertex
100
AcDb2dVertex
 10
92.381165
 20
152.692734
 30
0.0
  0
VERTEX
  5
371
100
AcDbEntity
  8
0
370
     0
390
0
100
AcDbVertex
100
AcDb2dVertex
 10
94.810562
 20
152.213943
 30
0.0
  0
SEQEND
  5
372
100
AcDbEntity
  8
0
370
     0
390
0
  0
ARC
  5
373
100
AcDbEntity
  8
0
370
    35
390
0
 62
     7
100
AcDbCircle
 10
95.259872
 20
154.608047
 30
0.0
 40
2.435907
210
0.0
220
0.0
230
1.0
100
AcDbArc
 50
259.370693
 51
265.670136
  0
ARC
  5
374
100
AcDbEntity
  8
0
370
    35
390
0
 62
     7
100
AcDbCircle
 10
95.227127
 20
154.174835
 30
0.0
 40
2.001446
210
0.0
220
0.0
230
1.0
100
AcDbArc
 50
265.668401
 51
272.931692
  0
LINE
  5
375
100
AcDbEntity
  8
0
370
    13
390
0
 62
     7
 48
0.003194
100
AcDbLine
 10
254.102798
 20
144.757294
 30
0.0
 11
254.12825
 21
144.882477
 31
0.0
210
0.0
220
0.0
230
1.0
  0
LINE
  5
376
100
AcDbEntity
  8
0
370
    13
390
0
 62
     7
 48
0.003326
100
AcDbLine
 10
256.905914
 20
142.405212
 30
0.0
 11
256.92337
 21
142.537094
 31
0.0
210
0.0
220
0.0
230
1.0
  0
LINE
  5
377
100
AcDbEntity
  8
0
370
    13
390
0
 62
     7
 48
0.003133
100
AcDbLine
 10
253.547165
 20
145.503754
 30
0.0
 11
253.573532
 21
145.626282
 31
0.0
210
0.0
220
0.0
230
1.0
  0
LINE
  5
378
100
AcDbEntity
  8
0
370
    13
390
0
 62
     7
 48
0.003316
100
AcDbLine
 10
258.011017
 20
141.944305
 30
0.0
 11
258.024719
 21
142.076248
 31
0.0
210
0.0
220
0.0
230
1.0
  0
LINE
  5
379
100
AcDbEntity
  8
0
370
    13
390
0
 62
     7
 48
0.003197
100
AcDbLine
 10
259.491669
 20
142.994125
 30
0.0
 11
259.500977
 21
143.121658
 31
0.0
210
0.0
220
0.0
230
1.0
  0
LINE
  5
37A
100
AcDbEntity
  8
0
370
    13
390
0
 62
     7
 48
0.004389
100
AcDbLine
 10
212.754364
 20
151.194046
 30
0.0
 11
212.899628
 21
151.292648
 31
0.0
210
0.0
220
0.0
230
1.0
  0
LINE
  5
37B
100
AcDbEntity
  8
0
370
    13
390
0
 62
     7
 48
0.004235
100
AcDbLine
 10
221.17215
 20
144.130692
 30
0.0
 11
221.290604
 21
144.25177
 31
0.0
210
0.0
220
0.0
230
1.0
  0
LINE
  5
37C
100
AcDbEntity
  8
0
370
    13
390
0
 62
     7
 48
0.004391
100
AcDbLine
 10
212.375443
 20
151.593124
 30
0.0
 11
212.521759
 21
151.690308
 31
0.0
210
0.0
220
0.0
230
1.0
  0
LINE
  5
37D
100
AcDbEntity
  8
0
370
    13
390
0
 62
     7
 48
0.004234
100
AcDbLine
 10
221.630615
 20
143.756119
 30
0.0
 11
221.747696
 21
143.87851
 31
0.0
210
0.0
220
0.0
230
1.0
  0
LINE
  5
37E
100
AcDbEntity
  8
0
370
    13
390
0
 62
     7
 48
0.004091
100
AcDbLine
 10
225.726074
 20
143.220871
 30
0.0
 11
225.830215
 21
143.347092
 31
0.0
210
0.0
220
0.0
230
1.0
  0
LINE
  5
37F
100
AcDbEntity
  8
0
370
    13
390
0
 62
     7
 48
0.004049
100
AcDbLine
 10
226.264053
 20
143.497162
 30
0.0
 11
226.366364
 21
143.622711
 31
0.0
210
0.0
220
0.0
230
1.0
  0
LINE
  5
380
100
AcDbEntity
  8
0
370
    13
390
0
 62
     7
 48
0.003421
100
AcDbLine
 10
233.743988
 20
147.945892
 30
0.0
 11
233.821732
 21
148.058517
 31
0.0
210
0.0
220
0.0
230
1.0
  0
LINE
  5
381
100
AcDbEntity
  8
0
370
    13
390
0
 62
     7
 48
0.007709
100
AcDbLine
 10
158.979446
 20
158.033981
 30
0.0
 11
159.279541
 21
158.104889
 31
0.0
210
0.0
220
0.0
230
1.0
  0
LINE
  5
382
100
AcDbEntity
  8
0
370
    13
390
0
 62
     7
 48
0.00769
100
AcDbLine
 10
159.470306
 20
157.474396
 30
0.0
 11
159.76915
 21
157.547333
 31
0.0
210
0.0
220
0.0
230
1.0
  0
LINE
  5
383
100
AcDbEntity
  8
0
370
    13
390
0
 62
     7
 48
0.007002
100
AcDbLine
 10
172.16069
 20
146.825912
 30
0.0
 11
172.419815
 21
146.932175
 31
0.0
210
0.0
220
0.0
230
1.0
  0
LINE
  5
384
100
AcDbEntity
  8
0
370
    13
390
0
 62
     7
 48
0.006978
100
AcDbLine
 10
172.733414
 20
146.361542
 30
0.0
 11
172.99086
 21
146.469421
 31
0.0
210
0.0
220
0.0
230
1.0
  0
LINE
  5
385
100
AcDbEntity
  8
0
370
    13
390
0
 62
     7
 48
0.006747
100
AcDbLine
 10
176.624542
 20
145.773972
 30
0.0
 11
176.869934
 21
145.886322
 31
0.0
210
0.0
220
0.0
230
1.0
  0
LINE
  5
386
100
AcDbEntity
  8
0
370
    13
390
0
 62
     7
 48
0.010318
100
AcDbLine
 10
121.063858
 20
151.713348
 30
0.0
 11
121.46727
 21
151.800583
 31
0.0
210
0.0
220
0.0
230
1.0
  0
LINE
  5
387
100
AcDbEntity
  8
0
370
    13
390
0
 62
     7
 48
0.010318
100
AcDbLine
 10
121.016235
 20
152.195389
 30
0.0
 11
121.419952
 21
152.281128
 31
0.0
210
0.0
220
0.0
230
1.0
  0
LINE
  5
388
100
AcDbEntity
  8
0
370
    13
390
0
 62
     7
 48
0.010207
100
AcDbLine
 10
121.016235
 20
160.194412
 30
0.0
 11
121.419952
 21
160.255402
 31
0.0
210
0.0
220
0.0
230
1.0
  0
LINE
  5
389
100
AcDbEntity
  8
0
370
    13
390
0
 62
     7
 48
0.002506
100
AcDbLine
 10
122.708389
 20
162.174393
 30
0.0
 11
122.807693
 21
162.187958
 31
0.0
210
0.0
220
0.0
230
1.0
  0
LINE
  5
38A
100
AcDbEntity
  8
0
370
    13
390
0
 62
     7
 48
0.01206
100
AcDbLine
 10
94.33522
 20
152.131836
 30
0.0
 11
94.810562
 21
152.213943
 31
0.0
210
0.0
220
0.0
230
1.0
  0
LINE
  5
38B
100
AcDbEntity
  8
0
370
    13
390
0
 62
     7
 48
0.012039
100
AcDbLine
 10
94.601471
 20
152.096909
 30
0.0
 11
95.075958
 21
152.179092
 31
0.0
210
0.0
220
0.0
230
1.0
  0
LINE
  5
38C
100
AcDbEntity
  8
0
370
    35
390
0
 62
     7
 48
0.012933
100
AcDbLine
 10
82.492737
 20
155.171082
 30
0.0
 11
83.005249
 21
155.241562
 31
0.0
210
0.0
220
0.0
230
1.0
  0
LINE
  5
38D
100
AcDbEntity
  8
0
370
    13
390
0
 62
     7
 48
0.009345
100
AcDbLine
 10
94.322052
 20
159.230637
 30
0.0
 11
94.693039
 21
159.276443
 31
0.0
210
0.0
220
0.0
230
1.0
  0
LINE
  5
38E
100
AcDbEntity
  8
0
370
    35
390
0
 62
     7
 48
0.007049
100
AcDbLine
 10
343.410675
 20
130.738174
 30
0.0
 11
343.189911
 21
130.913574
 31
0.0
210
0.0
220
0.0
230
1.0
  0
LINE
  5
38F
100
AcDbEntity
  8
0
370
    35
390
0
 62
     7
 48
0.002777
100
AcDbLine
 10
264.400238
 20
149.563492
 30
0.0
 11
264.400238
 21
149.674561
 31
0.0
210
0.0
220
0.0
230
1.0
  0
LINE
  5
390
100
AcDbEntity
  8
0
370
    35
390
0
 62
     7
 48
0.010632
100
AcDbLine
 10
116.174011
 20
145.214355
 30
0.0
 11
116.586624
 21
145.317322
 31
0.0
210
0.0
220
0.0
230
1.0
  0
LINE
  5
391
100
AcDbEntity
  8
0
370
    35
390
0
 62
     7
 48
0.002773
100
AcDbLine
 10
263.400238
 20
149.772415
 30
0.0
 11
263.400238
 21
149.883331
 31
0.0
210
0.0
220
0.0
230
1.0
  0
LINE
  5
392
100
AcDbEntity
  8
0
370
    13
390
0
 62
     7
 48
0.011691
100
AcDbLine
 10
100.428925
 20
158.627106
 30
0.0
 11
100.892288
 21
158.690231
 31
0.0
210
0.0
220
0.0
230
1.0
  0
LINE
  5
393
100
AcDbEntity
  8
0
370
    13
390
0
 62
     7
 48
0.011763
100
AcDbLine
 10
100.428925
 20
152.990067
 30
0.0
 11
100.892288
 21
153.071899
 31
0.0
210
0.0
220
0.0
230
1.0
  0
LINE
  5
394
100
AcDbEntity
  8
0
370
    13
390
0
 62
     7
 48
0.011747
100
AcDbLine
 10
100.609039
 20
152.07872
 30
0.0
 11
101.071198
 21
152.163467
 31
0.0
210
0.0
220
0.0
230
1.0
  0
LINE
  5
395
100
AcDbEntity
  8
0
370
    13
390
0
 62
     7
 48
0.011522
100
AcDbLine
 10
102.160904
 20
160.614716
 30
0.0
 11
102.618317
 21
160.671219
 31
0.0
210
0.0
220
0.0
230
1.0
  0
LINE
  5
396
100
AcDbEntity
  8
0
370
    13
390
0
 62
     7
 48
0.011602
100
AcDbLine
 10
101.984482
 20
150.909027
 30
0.0
 11
102.440338
 21
150.996109
 31
0.0
210
0.0
220
0.0
230
1.0
  0
LINE
  5
397
100
AcDbEntity
  8
0
370
    13
390
0
 62
     7
 48
0.011519
100
AcDbLine
 10
102.974136
 20
150.720673
 30
0.0
 11
103.426559
 21
150.807831
 31
0.0
210
0.0
220
0.0
230
1.0
  0
LINE
  5
398
100
AcDbEntity
  8
0
370
    13
390
0
 62
     7
 48
0.01097
100
AcDbLine
 10
110.080368
 20
149.771652
 30
0.0
 11
110.509598
 21
149.862808
 31
0.0
210
0.0
220
0.0
230
1.0
  0
LINE
  5
399
100
AcDbEntity
  8
0
370
    13
390
0
 62
     7
 48
0.00841
100
AcDbLine
 10
146.936111
 20
160.342743
 30
0.0
 11
147.266541
 21
160.405838
 31
0.0
210
0.0
220
0.0
230
1.0
  0
LINE
  5
39A
100
AcDbEntity
  8
0
370
    13
390
0
 62
     7
 48
0.007455
100
AcDbLine
 10
163.784409
 20
145.303757
 30
0.0
 11
164.061172
 21
145.414825
 31
0.0
210
0.0
220
0.0
230
1.0
  0
LINE
  5
39B
100
AcDbEntity
  8
0
370
    13
390
0
 62
     7
 48
0.009735
100
AcDbLine
 10
131.807907
 20
151.341248
 30
0.0
 11
132.187088
 21
151.42984
 31
0.0
210
0.0
220
0.0
230
1.0
  0
LINE
  5
39C
100
AcDbEntity
  8
0
370
    13
390
0
 62
     7
 48
0.007488
100
AcDbLine
 10
163.344223
 20
145.292267
 30
0.0
 11
163.62236
 21
145.403458
 31
0.0
210
0.0
220
0.0
230
1.0
  0
LINE
  5
39D
100
AcDbEntity
  8
0
370
    13
390
0
 62
     7
 48
0.009788
100
AcDbLine
 10
131.177109
 20
150.802902
 30
0.0
 11
131.558014
 21
150.893448
 31
0.0
210
0.0
220
0.0
230
1.0
  0
LINE
  5
39E
100
AcDbEntity
  8
0
370
    13
390
0
 62
     7
 48
0.00965
100
AcDbLine
 10
132.915466
 20
147.502213
 30
0.0
 11
133.288223
 21
147.602478
 31
0.0
210
0.0
220
0.0
230
1.0
  0
LINE
  5
39F
100
AcDbEntity
  8
0
370
    13
390
0
 62
     7
 48
0.009684
100
AcDbLine
 10
132.462433
 20
147.550232
 30
0.0
 11
132.836609
 21
147.650436
 31
0.0
210
0.0
220
0.0
230
1.0
  0
LINE
  5
3A0
100
AcDbEntity
  8
0
370
    13
390
0
 62
     7
 48
0.005008
100
AcDbLine
 10
198.828613
 20
155.230057
 30
0.0
 11
199.010025
 21
155.314972
 31
0.0
210
0.0
220
0.0
230
1.0
  0
LINE
  5
3A1
100
AcDbEntity
  8
0
370
    13
390
0
 62
     7
 48
0.004639
100
AcDbLine
 10
212.834076
 20
142.559601
 30
0.0
 11
212.970551
 21
142.685349
 31
0.0
210
0.0
220
0.0
230
1.0
  0
LINE
  5
3A2
100
AcDbEntity
  8
0
370
    13
390
0
 62
     7
 48
0.006168
100
AcDbLine
 10
186.188034
 20
147.710464
 30
0.0
 11
186.410599
 21
147.816971
 31
0.0
210
0.0
220
0.0
230
1.0
  0
LINE
  5
3A3
100
AcDbEntity
  8
0
370
    13
390
0
 62
     7
 48
0.004664
100
AcDbLine
 10
212.443405
 20
142.548645
 30
0.0
 11
212.581116
 21
142.674484
 31
0.0
210
0.0
220
0.0
230
1.0
  0
LINE
  5
3A4
100
AcDbEntity
  8
0
370
    13
390
0
 62
     7
 48
0.006219
100
AcDbLine
 10
185.657181
 20
147.284515
 30
0.0
 11
185.881287
 21
147.392532
 31
0.0
210
0.0
220
0.0
230
1.0
  0
LINE
  5
3A5
100
AcDbEntity
  8
0
370
    13
390
0
 62
     7
 48
0.006174
100
AcDbLine
 10
187.293579
 20
143.898758
 30
0.0
 11
187.510376
 21
144.017044
 31
0.0
210
0.0
220
0.0
230
1.0
  0
LINE
  5
3A6
100
AcDbEntity
  8
0
370
    13
390
0
 62
     7
 48
0.006199
100
AcDbLine
 10
186.940872
 20
143.924194
 30
0.0
 11
187.158798
 21
144.04245
 31
0.0
210
0.0
220
0.0
230
1.0
  0
LINE
  5
3A7
100
AcDbEntity
  8
0
370
    13
390
0
 62
     7
 48
0.003531
100
AcDbLine
 10
248.335037
 20
140.747375
 30
0.0
 11
248.373474
 21
140.883301
 31
0.0
210
0.0
220
0.0
230
1.0
  0
LINE
  5
3A8
100
AcDbEntity
  8
0
370
    13
390
0
 62
     7
 48
0.003843
100
AcDbLine
 10
236.061981
 20
141.375351
 30
0.0
 11
236.140259
 21
141.50766
 31
0.0
210
0.0
220
0.0
230
1.0
  0
LINE
  5
3A9
100
AcDbEntity
  8
0
370
    13
390
0
 62
     7
 48
0.003517
100
AcDbLine
 10
268.48465
 20
140.39711
 30
0.0
 11
268.474152
 21
140.537384
 31
0.0
210
0.0
220
0.0
230
1.0
  0
LINE
  5
3AA
100
AcDbEntity
  8
0
370
    13
390
0
 62
     7
 48
0.003569
100
AcDbLine
 10
269.622559
 20
139.668076
 30
0.0
 11
269.606934
 21
139.809998
 31
0.0
210
0.0
220
0.0
230
1.0
  0
LINE
  5
3AB
100
AcDbEntity
  8
0
370
    13
390
0
 62
     7
 48
0.003573
100
AcDbLine
 10
269.899841
 20
139.647552
 30
0.0
 11
269.883209
 21
139.78949
 31
0.0
210
0.0
220
0.0
230
1.0
  0
LINE
  5
3AC
100
AcDbEntity
  8
0
370
    35
390
0
 62
     7
 48
0.011575
100
AcDbLine
 10
106.816879
 20
165.03624
 30
0.0
 11
107.277359
 21
165.08432
 31
0.0
210
0.0
220
0.0
230
1.0
  0
ENDSEC
  0
SECTION
  2
OBJECTS
  0
DICTIONARY
  5
19
100
AcDbDictionary
280
     0
281
     1
  3
ACAD_GROUP
350
1A
  3
ACAD_MLINESTYLE
350
1B
  3
ACAD_LAYOUT
350
1E
  3
ACAD_PLOTSETTINGS
350
22
  3
ACAD_PLOTSTYLENAME
350
1F
  3
ACAD_WIPEOUT_VARS
350
23
  0
DICTIONARY
  5
1A
102
{ACAD_REACTORS
330
19
102
}
100
AcDbDictionary
280
     0
281
     1
  0
DICTIONARY
  5
1B
102
{ACAD_REACTORS
330
19
102
}
100
AcDbDictionary
280
     0
281
     1
  3
Standard
350
1C
  0
MLINESTYLE
  5
1C
102
{ACAD_REACTORS
330
1B
102
}
100
AcDbMlineStyle
  2
Standard
 70
     0
  3

 62
     0
 51
90.0
 52
90.0
 71
     2
 49
0.5
 62
   256
  6
ByLayer
 49
-0.5
 62
   256
  6
ByLayer
  0
ACDBDICTIONARYWDFLT
  5
1F
102
{ACAD_REACTORS
330
19
102
}
100
AcDbDictionary
281
     1
  3
Normal
350
1D
100
AcDbDictionaryWithDefault
340
1D
  0
ACDBPLACEHOLDER
  5
1D
102
{ACAD_REACTORS
330
1F
102
}
  0
LAYOUT
  5
20
102
{ACAD_REACTORS
330
1E
102
}
100
AcDbPlotSettings
  1

  2

  4

  6

 40
0.0
 41
0.0
 42
0.0
 43
0.0
 44
0.0
 45
0.0
 46
0.0
 47
0.0
 48
0.0
 49
0.0
140
0.0
141
0.0
142
1.0
143
1.0
 70
  1024
 72
     0
 73
     0
 74
     0
  7

 75
     0
147
1.0
148
0.0
149
0.0
100
AcDbLayout
  1
Model
 70
     0
 71
     0
 10
0.0
 20
0.0
 11
0.0
 21
0.0
 12
0.0
 22
0.0
 32
0.0
 14
0.0
 24
0.0
 34
0.0
 15
0.0
 25
0.0
 35
0.0
146
0.0
 13
0.0
 23
0.0
 33
0.0
 16
0.0
 26
0.0
 36
0.0
 17
0.0
 27
0.0
 37
0.0
 76
     0
330
A
331
0
345
0
346
0
  0
LAYOUT
  5
21
102
{ACAD_REACTORS
330
1E
102
}
100
AcDbPlotSettings
  1

  2

  4

  6

 40
0.0
 41
0.0
 42
0.0
 43
0.0
 44
0.0
 45
0.0
 46
0.0
 47
0.0
 48
0.0
 49
0.0
140
0.0
141
0.0
142
1.0
143
1.0
 70
     0
 72
     0
 73
     0
 74
     0
  7

 75
     0
147
1.0
148
0.0
149
0.0
100
AcDbLayout
  1
Layout1
 70
     0
 71
     0
 10
0.0
 20
0.0
 11
0.0
 21
0.0
 12
0.0
 22
0.0
 32
0.0
 14
0.0
 24
0.0
 34
0.0
 15
0.0
 25
0.0
 35
0.0
146
0.0
 13
0.0
 23
0.0
 33
0.0
 16
0.0
 26
0.0
 36
0.0
 17
0.0
 27
0.0
 37
0.0
 76
     0
330
B
331
0
345
0
346
0
  0
DICTIONARY
  5
1E
102
{ACAD_REACTORS
330
19
102
}
100
AcDbDictionary
280
     0
281
     1
  3
Layout1
350
21
  3
Model
350
20
  0
DICTIONARY
  5
22
102
{ACAD_REACTORS
330
19
102
}
100
AcDbDictionary
280
     0
281
     1
  0
WIPEOUTVARIABLES
  5
23
100
AcDbWipeoutVariables
 70
     1
  0
ENDSEC
  0
EOF
