  0
SECTION
  2
HEADER
  9
$ACADVER
  1
AC1015
  9
$ACADMAINTVER
 70
     6
  9
$DWGCODEPAGE
  3
ANSI_1252
  9
$INSBASE
 10
0.0
 20
0.0
 30
0.0
  9
$EXTMIN
 10
0.0
 20
0.0
 30
0.0
  9
$EXTMAX
 10
287.512207
 20
156.528641
 30
2.0
  9
$LIMMIN
 10
0.0
 20
0.0
  9
$LIMMAX
 10
420.0
 20
297.0
  9
$ORTHOMODE
 70
     0
  9
$REGENMODE
 70
     1
  9
$FILLMODE
 70
     1
  9
$QTEXTMODE
 70
     0
  9
$MIRRTEXT
 70
     1
  9
$LTSCALE
 40
1.0
  9
$ATTMODE
 70
     1
  9
$TEXTSIZE
 40
2.5
  9
$TRACEWID
 40
1.0
  9
$TEXTSTYLE
  7
Standard
  9
$CLAYER
  8
0
  9
$CELTYPE
  6
ByLayer
  9
$CECOLOR
 62
   256
  9
$CELTSCALE
 40
1.0
  9
$DISPSILH
 70
     0
  9
$DIMSCALE
 40
1.0
  9
$DIMASZ
 40
2.5
  9
$DIMEXO
 40
0.625
  9
$DIMDLI
 40
3.75
  9
$DIMRND
 40
0.0
  9
$DIMDLE
 40
0.0
  9
$DIMEXE
 40
1.25
  9
$DIMTP
 40
0.0
  9
$DIMTM
 40
0.0
  9
$DIMTXT
 40
2.5
  9
$DIMCEN
 40
2.5
  9
$DIMTSZ
 40
0.0
  9
$DIMTOL
 70
     0
  9
$DIMLIM
 70
     0
  9
$DIMTIH
 70
     0
  9
$DIMTOH
 70
     0
  9
$DIMSE1
 70
     0
  9
$DIMSE2
 70
     0
  9
$DIMTAD
 70
     1
  9
$DIMZIN
 70
     8
  9
$DIMBLK
  1

  9
$DIMASO
 70
     1
  9
$DIMSHO
 70
     1
  9
$DIMPOST
  1

  9
$DIMAPOST
  1

  9
$DIMALT
 70
     0
  9
$DIMALTD
 70
     3
  9
$DIMALTF
 40
0.03937
  9
$DIMLFAC
 40
1.0
  9
$DIMTOFL
 70
     1
  9
$DIMTVP
 40
0.0
  9
$DIMTIX
 70
     0
  9
$DIMSOXD
 70
     0
  9
$DIMSAH
 70
     0
  9
$DIMBLK1
  1

  9
$DIMBLK2
  1

  9
$DIMSTYLE
  2

  9
$DIMCLRD
 70
     0
  9
$DIMCLRE
 70
     0
  9
$DIMCLRT
 70
     0
  9
$DIMTFAC
 40
1.0
  9
$DIMGAP
 40
0.625
  9
$DIMJUST
 70
     0
  9
$DIMSD1
 70
     0
  9
$DIMSD2
 70
     0
  9
$DIMTOLJ
 70
     0
  9
$DIMTZIN
 70
     8
  9
$DIMALTZ
 70
     0
  9
$DIMALTTZ
 70
     0
  9
$DIMUPT
 70
     0
  9
$DIMDEC
 70
     2
  9
$DIMTDEC
 70
     2
  9
$DIMALTU
 70
     2
  9
$DIMALTTD
 70
     3
  9
$DIMTXSTY
  7
Standard
  9
$DIMAUNIT
 70
     0
  9
$DIMADEC
 70
     0
  9
$DIMALTRND
 40
0.0
  9
$DIMAZIN
 70
     0
  9
$DIMDSEP
 70
    44
  9
$DIMATFIT
 70
     0
  9
$DIMFRAC
 70
     0
  9
$DIMLDRBLK
  1

  9
$DIMLUNIT
 70
     2
  9
$DIMLWD
 70
    -2
  9
$DIMLWE
 70
    -2
  9
$DIMTMOVE
 70
     0
  9
$LUNITS
 70
     2
  9
$LUPREC
 70
     4
  9
$SKETCHINC
 40
1.0
  9
$FILLETRAD
 40
2.5
  9
$AUNITS
 70
     0
  9
$AUPREC
 70
     0
  9
$MENU
  1
.
  9
$ELEVATION
 40
0.0
  9
$PELEVATION
 40
0.0
  9
$THICKNESS
 40
0.0
  9
$LIMCHECK
 70
     0
  9
$CHAMFERA
 40
2.5
  9
$CHAMFERB
 40
2.5
  9
$CHAMFERC
 40
0.0
  9
$CHAMFERD
 40
0.0
  9
$SKPOLY
 70
     0
  9
$TDCREATE
 40
0.000000000
  9
$TDUCREATE
 40
0.000000000
  9
$TDUPDATE
 40
0.000000000
  9
$TDUUPDATE
 40
0.000000000
  9
$TDINDWG
 40
0.0000000000
  9
$TDUSRTIMER
 40
0.0000000000
  9
$USRTIMER
 70
     1
  9
$ANGBASE
 50
0.0
  9
$ANGDIR
 70
     0
  9
$PDMODE
 70
     0
  9
$PDSIZE
 40
0.0
  9
$PLINEWID
 40
0.0
  9
$SPLFRAME
 70
     0
  9
$SPLINETYPE
 70
     6
  9
$SPLINESEGS
 70
     8
  9
$HANDSEED
  5
37C
  9
$SURFTAB1
 70
     6
  9
$SURFTAB2
 70
     6
  9
$SURFTYPE
 70
     6
  9
$SURFU
 70
     6
  9
$SURFV
 70
     6
  9
$UCSBASE
  2

  9
$UCSNAME
  2

  9
$UCSORG
 10
0.0
 20
0.0
 30
0.0
  9
$UCSXDIR
 10
1.0
 20
0.0
 30
0.0
  9
$UCSYDIR
 10
0.0
 20
1.0
 30
0.0
  9
$UCSORTHOREF
  2

  9
$UCSORTHOVIEW
 70
     1
  9
$UCSORGTOP
 10
0.0
 20
0.0
 30
0.0
  9
$UCSORGBOTTOM
 10
0.0
 20
0.0
 30
0.0
  9
$UCSORGLEFT
 10
0.0
 20
0.0
 30
0.0
  9
$UCSORGRIGHT
 10
0.0
 20
0.0
 30
0.0
  9
$UCSORGFRONT
 10
0.0
 20
0.0
 30
0.0
  9
$UCSORGBACK
 10
0.0
 20
0.0
 30
0.0
  9
$PUCSBASE
  2

  9
$PUCSNAME
  2

  9
$PUCSORG
 10
0.0
 20
0.0
 30
0.0
  9
$PUCSXDIR
 10
1.0
 20
0.0
 30
0.0
  9
$PUCSYDIR
 10
0.0
 20
1.0
 30
0.0
  9
$PUCSORTHOREF
  2

  9
$PUCSORTHOVIEW
 70
     0
  9
$PUCSORGTOP
 10
0.0
 20
0.0
 30
0.0
  9
$PUCSORGBOTTOM
 10
0.0
 20
0.0
 30
0.0
  9
$PUCSORGLEFT
 10
0.0
 20
0.0
 30
0.0
  9
$PUCSORGRIGHT
 10
0.0
 20
0.0
 30
0.0
  9
$PUCSORGFRONT
 10
0.0
 20
0.0
 30
0.0
  9
$PUCSORGBACK
 10
0.0
 20
0.0
 30
0.0
  9
$USERI1
 70
     0
  9
$USERI2
 70
     0
  9
$USERI3
 70
     0
  9
$USERI4
 70
     0
  9
$USERI5
 70
     0
  9
$USERR1
 40
0.0
  9
$USERR2
 40
0.0
  9
$USERR3
 40
0.0
  9
$USERR4
 40
0.0
  9
$USERR5
 40
0.0
  9
$WORLDVIEW
 70
     1
  9
$SHADEDGE
 70
     3
  9
$SHADEDIF
 70
    70
  9
$TILEMODE
 70
     1
  9
$MAXACTVP
 70
    48
  9
$PINSBASE
 10
0.0
 20
0.0
 30
0.0
  9
$PLIMCHECK
 70
     0
  9
$PEXTMIN
 10
0.0
 20
0.0
 30
0.0
  9
$PEXTMAX
 10
287.512207
 20
156.528641
 30
2.0
  9
$PLIMMIN
 10
0.0
 20
0.0
  9
$PLIMMAX
 10
420.0
 20
297.0
  9
$UNITMODE
 70
     0
  9
$VISRETAIN
 70
     0
  9
$PLINEGEN
 70
     0
  9
$PSLTSCALE
 70
     1
  9
$TREEDEPTH
 70
  3020
  9
$CMLSTYLE
  2
Standard
  9
$CMLJUST
 70
     0
  9
$CMLSCALE
 40
20.0
  9
$PROXYGRAPHICS
 70
     1
  9
$MEASUREMENT
 70
     1
  9
$CELWEIGHT
370
    -1
  9
$ENDCAPS
280
     0
  9
$JOINSTYLE
280
     0
  9
$LWDISPLAY
290
     0
  9
$INSUNITS
 70
     0
  9
$HYPERLINKBASE
  1

  9
$STYLESHEET
  1

  9
$XEDIT
290
     1
  9
$CEPSNTYPE
380
     0
  9
$PSTYLEMODE
290
     0
  9
$FINGERPRINTGUID
  2

  9
$VERSIONGUID
  2

  9
$EXTNAMES
290
     0
  9
$PSVPSCALE
 40
0.0
  0
ENDSEC
  0
SECTION
  2
CLASSES
  0
CLASS
  1
LWPOLYLINE
  2
AcDbPolyline
  3
AutoCAD 2000
 90
        0
280
     0
281
     1
  0
CLASS
  1
IMAGE
  2
AcDbRasterImage
  3
ISM
 90
      127
280
     0
281
     1
  0
CLASS
  1
OLE2FRAME
  2
AcDbOle2Frame
  3
AutoCAD 2000
 90
        0
280
     0
281
     1
  0
CLASS
  1
HATCH
  2
AcDbHatch
  3
AutoCAD 2000
 90
        0
280
     0
281
     1
  0
CLASS
  1
DICTIONARYVAR
  2
AcDbDictionaryVar
  3
AutoCAD 2000
 90
        0
280
     0
281
     0
  0
CLASS
  1
RASTERVARIABLES
  2
AcDbRasterVariables
  3
ISM
 90
        0
280
     0
281
     0
  0
CLASS
  1
IMAGEDEF
  2
AcDbRasterImageDef
  3
ISM
 90
        0
280
     0
281
     0
  0
CLASS
  1
IMAGEDEF_REACTOR
  2
AcDbRasterImageDefReactor
  3
ISM
 90
        1
280
     0
281
     0
  0
CLASS
  1
IDBUFFER
  2
AcDbIdBuffer
  3
AutoCAD 2000
 90
        0
280
     0
281
     0
  0
CLASS
  1
SPATIAL_FILTER
  2
AcDbSpatialFilter
  3
AutoCAD 2000
 90
        0
280
     0
281
     0
  0
CLASS
  1
XRECORD
  2
AcDbXrecord
  3
AutoCAD 2000
 90
        0
280
     0
281
     0
  0
CLASS
  1
SORTENTSTABLE
  2
AcDbSortentsTable
  3
AutoCAD 2000
 90
        0
280
     0
281
     0
  0
CLASS
  1
LAYER_INDEX
  2
AcDbLayerIndex
  3
AutoCAD 2000
 90
        0
280
     0
281
     0
  0
CLASS
  1
SPATIAL_INDEX
  2
AcDbSpatialIndex
  3
AutoCAD 2000
 90
        0
280
     0
281
     0
  0
CLASS
  1
OBJECT_PTR
  2
CAseDLPNTableRecord
  3
"ASE-LPNTableRecord"
 90
        1
280
     0
281
     0
  0
CLASS
  1
LAYOUT
  2
AcDbLayout
  3
AutoCAD 2000
 90
        0
280
     0
281
     0
  0
CLASS
  1
PLOTSETTINGS
  2
AcDbPlotSettings
  3
AutoCAD 2000
 90
        0
280
     0
281
     0
  0
CLASS
  1
ACDBDICTIONARYWDFLT
  2
AcDbDictionaryWithDefault
  3
AutoCAD 2000
 90
        0
280
     0
281
     0
  0
CLASS
  1
ACDBPLACEHOLDER
  2
AcDbPlaceHolder
  3
AutoCAD 2000
 90
        0
280
     0
281
     0
  0
CLASS
  1
VBA_PROJECT
  2
AcDbVbaProject
  3
acadvba
 90
        0
280
     0
281
     0
  0
CLASS
  1
WIPEOUT
  2
AcDbWipeout
  3
WipeOut|AutoCAD Express Tool|expresstools@autodesk.com
 90
      127
280
     0
281
     1
  0
CLASS
  1
WIPEOUTVARIABLES
  2
AcDbWipeoutVariables
  3
WipeOut|AutoCAD Express Tool|expresstools@autodesk.com
 90
        0
280
     0
281
     0
  0
CLASS
  1
RTEXT
  2
RText
  3
RText|AutoCAD Express Tool|expresstools@autodesk.com
 90
        0
280
     0
281
     1
  0
CLASS
  1
ARCALIGNEDTEXT
  2
AcDbArcAlignedText
  3
ATEXT|AutoCAD Express Tool|expresstools@autodesk.com
 90
        0
280
     0
281
     1
  0
ENDSEC
  0
SECTION
  2
TABLES
  0
TABLE
  2
VPORT
  5
7
100
AcDbSymbolTable
 70
     1
  0
VPORT
  5
15
100
AcDbSymbolTableRecord
100
AcDbViewportTableRecord
  2
*ACTIVE
 70
     0
 10
0.0
 20
0.0
 11
1.0
 21
1.0
 12
6.591288
 22
4.579184
 13
0.0
 23
0.0
 14
1.0
 24
1.0
 15
0.0
 25
0.0
 16
0.0
 26
0.0
 36
1.0
 17
0.0
 27
0.0
 37
0.0
 40
9.158369
 41
0.688564
 42
50.0
 43
0.0
 44
0.0
 50
0.0
 51
0.0
 71
     0
 72
   100
 73
     1
 74
     1
 75
     0
 76
     0
 77
     0
 78
     0
281
     0
 65
     0
110
0.0
120
0.0
130
0.0
111
1.0
121
0.0
131
0.0
112
0.0
122
1.0
132
0.0
345
0
346
0
 79
     0
146
0.0
  0
ENDTAB
  0
TABLE
  2
LTYPE
  5
4
100
AcDbSymbolTable
 70
     3
  0
LTYPE
  5
11
100
AcDbSymbolTableRecord
100
AcDbLinetypeTableRecord
  2
ByBlock
 70
    64
  3

 72
    65
 73
     0
 40
0.0
  0
LTYPE
  5
12
100
AcDbSymbolTableRecord
100
AcDbLinetypeTableRecord
  2
ByLayer
 70
    64
  3

 72
    65
 73
     0
 40
0.0
  0
LTYPE
  5
13
100
AcDbSymbolTableRecord
100
AcDbLinetypeTableRecord
  2
Continuous
 70
    64
  3
Solid line
 72
    65
 73
     0
 40
0.0
  0
ENDTAB
  0
TABLE
  2
LAYER
  5
2
100
AcDbSymbolTable
 70
     1
  0
LAYER
  5
14
100
AcDbSymbolTableRecord
100
AcDbLayerTableRecord
  2
0
 70
     0
 62
     7
  6
Continuous
290
     1
370
    -3
390
1D
  0
ENDTAB
  0
TABLE
  2
STYLE
  5
3
100
AcDbSymbolTable
 70
     1
  0
STYLE
  5
17
100
AcDbSymbolTableRecord
100
AcDbTextStyleTableRecord
  2
Standard
 70
     0
 40
0.0
 41
1.0
 50
0.0
 71
     0
 42
0.0
  3
txt
  4

  0
ENDTAB
  0
TABLE
  2
VIEW
  5
5
100
AcDbSymbolTable
 70
     0
  0
ENDTAB
  0
TABLE
  2
UCS
  5
6
100
AcDbSymbolTable
 70
     0
  0
ENDTAB
  0
TABLE
  2
APPID
  5
8
100
AcDbSymbolTable
 70
     1
  0
APPID
  5
16
100
AcDbSymbolTableRecord
100
AcDbRegAppTableRecord
  2
ACAD
 70
     0
  0
ENDTAB
  0
TABLE
  2
DIMSTYLE
  5
9
100
AcDbSymbolTable
 70
     1
100
AcDbDimStyleTable
 71
     0
  0
DIMSTYLE
105
18
100
AcDbSymbolTableRecord
100
AcDbDimStyleTableRecord
  2
Standard
 70
     0
  3

  4

 40
1.0
 41
0.18
 42
0.0625
 43
0.38
 44
0.18
 45
0.0
 46
0.0
 47
0.0
 48
0.0
 71
     0
 72
     0
 73
     1
 74
     1
 75
     0
 76
     0
 77
     0
 78
     0
 79
     0
140
0.18
141
0.09
142
0.0
143
25.4
144
1.0
145
0.0
146
1.0
147
0.09
148
0.0
170
     0
171
     2
172
     0
173
     0
174
     0
175
     0
176
     0
177
     0
178
     0
179
     0
271
     4
272
     4
273
     2
274
     2
275
     0
276
     0
277
     2
278
    46
279
     0
280
     0
281
     0
282
     0
283
     1
284
     0
285
     0
286
     0
288
     0
289
     3
340
17
341
0
342
0
343
0
344
0
371
    -2
372
    -2
  0
ENDTAB
  0
TABLE
  2
BLOCK_RECORD
  5
1
100
AcDbSymbolTable
 70
     0
  0
BLOCK_RECORD
  5
A
100
AcDbSymbolTableRecord
100
AcDbBlockTableRecord
  2
*MODEL_SPACE
340
20
  0
BLOCK_RECORD
  5
B
100
AcDbSymbolTableRecord
100
AcDbBlockTableRecord
  2
*PAPER_SPACE
340
21
  0
ENDTAB
  0
ENDSEC
  0
SECTION
  2
BLOCKS
  0
BLOCK
  5
D
100
AcDbEntity
  8
0
390
0
100
AcDbBlockBegin
  2
*MODEL_SPACE
 70
     0
 10
0.0
 20
0.0
 30
0.0
  3
*MODEL_SPACE
  1

  0
ENDBLK
  5
E
100
AcDbEntity
  8
0
390
0
100
AcDbBlockEnd
  0
BLOCK
  5
F
100
AcDbEntity
 67
     1
  8
0
390
0
100
AcDbBlockBegin
  2
*PAPER_SPACE
 70
     0
 10
0.0
 20
0.0
 30
0.0
  3
*PAPER_SPACE
  1

  0
ENDBLK
  5
10
100
AcDbEntity
 67
     1
  8
0
390
0
100
AcDbBlockEnd
  0
ENDSEC
  0
SECTION
  2
ENTITIES
  0
VIEWPORT
  5
37B
100
AcDbEntity
 67
     1
  8
0
370
     0
390
0
 62
     0
 48
0.0
100
AcDbViewport
 10
0.0
 20
0.0
 30
0.0
 40
1000.0
 41
1000.0
 68
     1
 69
     1
 12
0.0
 22
0.0
 13
0.0
 23
0.0
 14
1.0
 24
1.0
 15
1.0
 25
1.0
 16
0.0
 26
0.0
 36
1.0
 17
0.0
 27
0.0
 37
0.0
 42
50.0
 43
0.0
 44
0.0
 45
1000.0
 50
0.0
 51
0.0
 72
   100
 90
        0
340
0
  1

281
     0
 71
     0
 74
     1
110
0.0
120
0.0
130
0.0
111
1.0
121
0.0
131
0.0
112
0.0
122
1.0
132
0.0
345
0
346
0
 79
     0
146
0.0
  0
POLYLINE
  5
24
100
AcDbEntity
  8
0
370
    13
390
0
 62
     7
100
AcDb2dPolyline
 66
     1
 10
0.0
 20
0.0
 30
0.0
 70
     1
 71
    10
  0
VERTEX
  5
25
100
AcDbEntity
  8
0
370
     0
390
0
100
AcDbVertex
100
AcDb2dVertex
 10
211.333618
 20
-28.103668
 30
0.0
  0
VERTEX
  5
26
100
AcDbEntity
  8
0
370
     0
390
0
100
AcDbVertex
100
AcDb2dVertex
 10
211.802643
 20
-28.103668
 30
0.0
  0
VERTEX
  5
27
100
AcDbEntity
  8
0
370
     0
390
0
100
AcDbVertex
100
AcDb2dVertex
 10
211.802643
 20
-26.494879
 30
0.0
  0
VERTEX
  5
28
100
AcDbEntity
  8
0
370
     0
390
0
100
AcDbVertex
100
AcDb2dVertex
 10
213.275269
 20
-26.494879
 30
0.0
  0
VERTEX
  5
29
100
AcDbEntity
  8
0
370
     0
390
0
100
AcDbVertex
100
AcDb2dVertex
 10
213.275269
 20
-26.07629
 30
0.0
  0
VERTEX
  5
2A
100
AcDbEntity
  8
0
370
     0
390
0
100
AcDbVertex
100
AcDb2dVertex
 10
211.802643
 20
-26.07629
 30
0.0
  0
VERTEX
  5
2B
100
AcDbEntity
  8
0
370
     0
390
0
100
AcDbVertex
100
AcDb2dVertex
 10
211.802643
 20
-25.0273
 30
0.0
  0
VERTEX
  5
2C
100
AcDbEntity
  8
0
370
     0
390
0
100
AcDbVertex
100
AcDb2dVertex
 10
213.613159
 20
-25.0273
 30
0.0
  0
VERTEX
  5
2D
100
AcDbEntity
  8
0
370
     0
390
0
100
AcDbVertex
100
AcDb2dVertex
 10
213.613159
 20
-24.603668
 30
0.0
  0
VERTEX
  5
2E
100
AcDbEntity
  8
0
370
     0
390
0
100
AcDbVertex
100
AcDb2dVertex
 10
211.333618
 20
-24.603668
 30
0.0
  0
SEQEND
  5
2F
100
AcDbEntity
  8
0
370
     0
390
0
  0
POLYLINE
  5
30
100
AcDbEntity
  8
0
370
    13
390
0
 62
     7
100
AcDb2dPolyline
 66
     1
 10
0.0
 20
0.0
 30
0.0
 70
     1
 71
    22
  0
VERTEX
  5
31
100
AcDbEntity
  8
0
370
     0
390
0
100
AcDbVertex
100
AcDb2dVertex
 10
214.525986
 20
-28.103668
 30
0.0
  0
VERTEX
  5
32
100
AcDbEntity
  8
0
370
     0
390
0
100
AcDbVertex
100
AcDb2dVertex
 10
214.969788
 20
-28.103668
 30
0.0
  0
VERTEX
  5
33
100
AcDbEntity
  8
0
370
     0
390
0
100
AcDbVertex
100
AcDb2dVertex
 10
214.969788
 20
-26.555397
 30
0.0
  0
VERTEX
  5
34
100
AcDbEntity
  8
0
370
     0
390
0
100
AcDbVertex
100
AcDb2dVertex
 10
215.015182
 20
-26.182198
 30
0.0
  0
VERTEX
  5
35
100
AcDbEntity
  8
0
370
     0
390
0
100
AcDbVertex
100
AcDb2dVertex
 10
215.151352
 20
-25.914907
 30
0.0
  0
VERTEX
  5
36
100
AcDbEntity
  8
0
370
     0
390
0
100
AcDbVertex
100
AcDb2dVertex
 10
215.373245
 20
-25.753525
 30
0.0
  0
VERTEX
  5
37
100
AcDbEntity
  8
0
370
     0
390
0
100
AcDbVertex
100
AcDb2dVertex
 10
215.670792
 20
-25.698048
 30
0.0
  0
VERTEX
  5
38
100
AcDbEntity
  8
0
370
     0
390
0
100
AcDbVertex
100
AcDb2dVertex
 10
215.8927
 20
-25.733351
 30
0.0
  0
VERTEX
  5
39
100
AcDbEntity
  8
0
370
     0
390
0
100
AcDbVertex
100
AcDb2dVertex
 10
216.059128
 20
-25.834215
 30
0.0
  0
VERTEX
  5
3A
100
AcDbEntity
  8
0
370
     0
390
0
100
AcDbVertex
100
AcDb2dVertex
 10
216.159988
 20
-26.005686
 30
0.0
  0
VERTEX
  5
3B
100
AcDbEntity
  8
0
370
     0
390
0
100
AcDbVertex
100
AcDb2dVertex
 10
216.195297
 20
-26.237675
 30
0.0
  0
VERTEX
  5
3C
100
AcDbEntity
  8
0
370
     0
390
0
100
AcDbVertex
100
AcDb2dVertex
 10
216.644135
 20
-26.237675
 30
0.0
  0
VERTEX
  5
3D
100
AcDbEntity
  8
0
370
     0
390
0
100
AcDbVertex
100
AcDb2dVertex
 10
216.583618
 20
-25.829172
 30
0.0
  0
VERTEX
  5
3E
100
AcDbEntity
  8
0
370
     0
390
0
100
AcDbVertex
100
AcDb2dVertex
 10
216.417191
 20
-25.536665
 30
0.0
  0
VERTEX
  5
3F
100
AcDbEntity
  8
0
370
     0
390
0
100
AcDbVertex
100
AcDb2dVertex
 10
216.139816
 20
-25.360153
 30
0.0
  0
VERTEX
  5
40
100
AcDbEntity
  8
0
370
     0
390
0
100
AcDbVertex
100
AcDb2dVertex
 10
215.761581
 20
-25.299633
 30
0.0
  0
VERTEX
  5
41
100
AcDbEntity
  8
0
370
     0
390
0
100
AcDbVertex
100
AcDb2dVertex
 10
215.504364
 20
-25.339979
 30
0.0
  0
VERTEX
  5
42
100
AcDbEntity
  8
0
370
     0
390
0
100
AcDbVertex
100
AcDb2dVertex
 10
215.282471
 20
-25.440844
 30
0.0
  0
VERTEX
  5
43
100
AcDbEntity
  8
0
370
     0
390
0
100
AcDbVertex
100
AcDb2dVertex
 10
215.085785
 20
-25.612314
 30
0.0
  0
VERTEX
  5
44
100
AcDbEntity
  8
0
370
     0
390
0
100
AcDbVertex
100
AcDb2dVertex
 10
214.929443
 20
-25.844303
 30
0.0
  0
VERTEX
  5
45
100
AcDbEntity
  8
0
370
     0
390
0
100
AcDbVertex
100
AcDb2dVertex
 10
214.929443
 20
-25.395454
 30
0.0
  0
VERTEX
  5
46
100
AcDbEntity
  8
0
370
     0
390
0
100
AcDbVertex
100
AcDb2dVertex
 10
214.525986
 20
-25.395454
 30
0.0
  0
SEQEND
  5
47
100
AcDbEntity
  8
0
370
     0
390
0
  0
POLYLINE
  5
48
100
AcDbEntity
  8
0
370
    13
390
0
 62
     7
100
AcDb2dPolyline
 66
     1
 10
0.0
 20
0.0
 30
0.0
 70
     1
 71
    16
  0
VERTEX
  5
49
100
AcDbEntity
  8
0
370
     0
390
0
100
AcDbVertex
100
AcDb2dVertex
 10
217.264465
 20
-26.752083
 30
0.0
  0
VERTEX
  5
4A
100
AcDbEntity
  8
0
370
     0
390
0
100
AcDbVertex
100
AcDb2dVertex
 10
217.345154
 20
-27.367357
 30
0.0
  0
VERTEX
  5
4B
100
AcDbEntity
  8
0
370
     0
390
0
100
AcDbVertex
100
AcDb2dVertex
 10
217.577133
 20
-27.821247
 30
0.0
  0
VERTEX
  5
4C
100
AcDbEntity
  8
0
370
     0
390
0
100
AcDbVertex
100
AcDb2dVertex
 10
217.945297
 20
-28.103668
 30
0.0
  0
VERTEX
  5
4D
100
AcDbEntity
  8
0
370
     0
390
0
100
AcDbVertex
100
AcDb2dVertex
 10
218.439529
 20
-28.19949
 30
0.0
  0
VERTEX
  5
4E
100
AcDbEntity
  8
0
370
     0
390
0
100
AcDbVertex
100
AcDb2dVertex
 10
218.928726
 20
-28.103668
 30
0.0
  0
VERTEX
  5
4F
100
AcDbEntity
  8
0
370
     0
390
0
100
AcDbVertex
100
AcDb2dVertex
 10
219.296875
 20
-27.82629
 30
0.0
  0
VERTEX
  5
50
100
AcDbEntity
  8
0
370
     0
390
0
100
AcDbVertex
100
AcDb2dVertex
 10
219.52887
 20
-27.3724
 30
0.0
  0
VERTEX
  5
51
100
AcDbEntity
  8
0
370
     0
390
0
100
AcDbVertex
100
AcDb2dVertex
 10
219.614609
 20
-26.752083
 30
0.0
  0
VERTEX
  5
52
100
AcDbEntity
  8
0
370
     0
390
0
100
AcDbVertex
100
AcDb2dVertex
 10
219.52887
 20
-26.13681
 30
0.0
  0
VERTEX
  5
53
100
AcDbEntity
  8
0
370
     0
390
0
100
AcDbVertex
100
AcDb2dVertex
 10
219.296875
 20
-25.677876
 30
0.0
  0
VERTEX
  5
54
100
AcDbEntity
  8
0
370
     0
390
0
100
AcDbVertex
100
AcDb2dVertex
 10
218.928726
 20
-25.400497
 30
0.0
  0
VERTEX
  5
55
100
AcDbEntity
  8
0
370
     0
390
0
100
AcDbVertex
100
AcDb2dVertex
 10
218.439529
 20
-25.299633
 30
0.0
  0
VERTEX
  5
56
100
AcDbEntity
  8
0
370
     0
390
0
100
AcDbVertex
100
AcDb2dVertex
 10
217.945297
 20
-25.400497
 30
0.0
  0
VERTEX
  5
57
100
AcDbEntity
  8
0
370
     0
390
0
100
AcDbVertex
100
AcDb2dVertex
 10
217.577133
 20
-25.682919
 30
0.0
  0
VERTEX
  5
58
100
AcDbEntity
  8
0
370
     0
390
0
100
AcDbVertex
100
AcDb2dVertex
 10
217.345154
 20
-26.13681
 30
0.0
  0
SEQEND
  5
59
100
AcDbEntity
  8
0
370
     0
390
0
  0
POLYLINE
  5
5A
100
AcDbEntity
  8
0
370
    13
390
0
 62
     7
100
AcDb2dPolyline
 66
     1
 10
0.0
 20
0.0
 30
0.0
 70
     1
 71
    16
  0
VERTEX
  5
5B
100
AcDbEntity
  8
0
370
     0
390
0
100
AcDbVertex
100
AcDb2dVertex
 10
217.718353
 20
-26.74704
 30
0.0
  0
VERTEX
  5
5C
100
AcDbEntity
  8
0
370
     0
390
0
100
AcDbVertex
100
AcDb2dVertex
 10
217.763733
 20
-26.29315
 30
0.0
  0
VERTEX
  5
5D
100
AcDbEntity
  8
0
370
     0
390
0
100
AcDbVertex
100
AcDb2dVertex
 10
217.904953
 20
-25.96534
 30
0.0
  0
VERTEX
  5
5E
100
AcDbEntity
  8
0
370
     0
390
0
100
AcDbVertex
100
AcDb2dVertex
 10
218.131897
 20
-25.763611
 30
0.0
  0
VERTEX
  5
5F
100
AcDbEntity
  8
0
370
     0
390
0
100
AcDbVertex
100
AcDb2dVertex
 10
218.439529
 20
-25.693005
 30
0.0
  0
VERTEX
  5
60
100
AcDbEntity
  8
0
370
     0
390
0
100
AcDbVertex
100
AcDb2dVertex
 10
218.742126
 20
-25.763611
 30
0.0
  0
VERTEX
  5
61
100
AcDbEntity
  8
0
370
     0
390
0
100
AcDbVertex
100
AcDb2dVertex
 10
218.96907
 20
-25.960297
 30
0.0
  0
VERTEX
  5
62
100
AcDbEntity
  8
0
370
     0
390
0
100
AcDbVertex
100
AcDb2dVertex
 10
219.110275
 20
-26.29315
 30
0.0
  0
VERTEX
  5
63
100
AcDbEntity
  8
0
370
     0
390
0
100
AcDbVertex
100
AcDb2dVertex
 10
219.160706
 20
-26.74704
 30
0.0
  0
VERTEX
  5
64
100
AcDbEntity
  8
0
370
     0
390
0
100
AcDbVertex
100
AcDb2dVertex
 10
219.110275
 20
-27.205975
 30
0.0
  0
VERTEX
  5
65
100
AcDbEntity
  8
0
370
     0
390
0
100
AcDbVertex
100
AcDb2dVertex
 10
218.96907
 20
-27.538826
 30
0.0
  0
VERTEX
  5
66
100
AcDbEntity
  8
0
370
     0
390
0
100
AcDbVertex
100
AcDb2dVertex
 10
218.742126
 20
-27.740557
 30
0.0
  0
VERTEX
  5
67
100
AcDbEntity
  8
0
370
     0
390
0
100
AcDbVertex
100
AcDb2dVertex
 10
218.439529
 20
-27.806118
 30
0.0
  0
VERTEX
  5
68
100
AcDbEntity
  8
0
370
     0
390
0
100
AcDbVertex
100
AcDb2dVertex
 10
218.131897
 20
-27.740557
 30
0.0
  0
VERTEX
  5
69
100
AcDbEntity
  8
0
370
     0
390
0
100
AcDbVertex
100
AcDb2dVertex
 10
217.904953
 20
-27.538826
 30
0.0
  0
VERTEX
  5
6A
100
AcDbEntity
  8
0
370
     0
390
0
100
AcDbVertex
100
AcDb2dVertex
 10
217.763733
 20
-27.205975
 30
0.0
  0
SEQEND
  5
6B
100
AcDbEntity
  8
0
370
     0
390
0
  0
POLYLINE
  5
6C
100
AcDbEntity
  8
0
370
    13
390
0
 62
     7
100
AcDb2dPolyline
 66
     1
 10
0.0
 20
0.0
 30
0.0
 70
     1
 71
    24
  0
VERTEX
  5
6D
100
AcDbEntity
  8
0
370
     0
390
0
100
AcDbVertex
100
AcDb2dVertex
 10
220.43161
 20
-28.103668
 30
0.0
  0
VERTEX
  5
6E
100
AcDbEntity
  8
0
370
     0
390
0
100
AcDbVertex
100
AcDb2dVertex
 10
220.875412
 20
-28.103668
 30
0.0
  0
VERTEX
  5
6F
100
AcDbEntity
  8
0
370
     0
390
0
100
AcDbVertex
100
AcDb2dVertex
 10
220.875412
 20
-26.540268
 30
0.0
  0
VERTEX
  5
70
100
AcDbEntity
  8
0
370
     0
390
0
100
AcDbVertex
100
AcDb2dVertex
 10
220.920792
 20
-26.182198
 30
0.0
  0
VERTEX
  5
71
100
AcDbEntity
  8
0
370
     0
390
0
100
AcDbVertex
100
AcDb2dVertex
 10
221.067047
 20
-25.91995
 30
0.0
  0
VERTEX
  5
72
100
AcDbEntity
  8
0
370
     0
390
0
100
AcDbVertex
100
AcDb2dVertex
 10
221.293991
 20
-25.758568
 30
0.0
  0
VERTEX
  5
73
100
AcDbEntity
  8
0
370
     0
390
0
100
AcDbVertex
100
AcDb2dVertex
 10
221.596588
 20
-25.698048
 30
0.0
  0
VERTEX
  5
74
100
AcDbEntity
  8
0
370
     0
390
0
100
AcDbVertex
100
AcDb2dVertex
 10
221.838669
 20
-25.748482
 30
0.0
  0
VERTEX
  5
75
100
AcDbEntity
  8
0
370
     0
390
0
100
AcDbVertex
100
AcDb2dVertex
 10
221.98996
 20
-25.884647
 30
0.0
  0
VERTEX
  5
76
100
AcDbEntity
  8
0
370
     0
390
0
100
AcDbVertex
100
AcDb2dVertex
 10
222.065613
 20
-26.111593
 30
0.0
  0
VERTEX
  5
77
100
AcDbEntity
  8
0
370
     0
390
0
100
AcDbVertex
100
AcDb2dVertex
 10
222.09082
 20
-26.414186
 30
0.0
  0
VERTEX
  5
78
100
AcDbEntity
  8
0
370
     0
390
0
100
AcDbVertex
100
AcDb2dVertex
 10
222.09082
 20
-28.103668
 30
0.0
  0
VERTEX
  5
79
100
AcDbEntity
  8
0
370
     0
390
0
100
AcDbVertex
100
AcDb2dVertex
 10
222.534637
 20
-28.103668
 30
0.0
  0
VERTEX
  5
7A
100
AcDbEntity
  8
0
370
     0
390
0
100
AcDbVertex
100
AcDb2dVertex
 10
222.534637
 20
-26.323408
 30
0.0
  0
VERTEX
  5
7B
100
AcDbEntity
  8
0
370
     0
390
0
100
AcDbVertex
100
AcDb2dVertex
 10
222.514465
 20
-25.96534
 30
0.0
  0
VERTEX
  5
7C
100
AcDbEntity
  8
0
370
     0
390
0
100
AcDbVertex
100
AcDb2dVertex
 10
222.423676
 20
-25.667789
 30
0.0
  0
VERTEX
  5
7D
100
AcDbEntity
  8
0
370
     0
390
0
100
AcDbVertex
100
AcDb2dVertex
 10
222.126129
 20
-25.395454
 30
0.0
  0
VERTEX
  5
7E
100
AcDbEntity
  8
0
370
     0
390
0
100
AcDbVertex
100
AcDb2dVertex
 10
221.662155
 20
-25.299633
 30
0.0
  0
VERTEX
  5
7F
100
AcDbEntity
  8
0
370
     0
390
0
100
AcDbVertex
100
AcDb2dVertex
 10
221.404953
 20
-25.334936
 30
0.0
  0
VERTEX
  5
80
100
AcDbEntity
  8
0
370
     0
390
0
100
AcDbVertex
100
AcDb2dVertex
 10
221.188095
 20
-25.430758
 30
0.0
  0
VERTEX
  5
81
100
AcDbEntity
  8
0
370
     0
390
0
100
AcDbVertex
100
AcDb2dVertex
 10
221.001495
 20
-25.59214
 30
0.0
  0
VERTEX
  5
82
100
AcDbEntity
  8
0
370
     0
390
0
100
AcDbVertex
100
AcDb2dVertex
 10
220.85524
 20
-25.809
 30
0.0
  0
VERTEX
  5
83
100
AcDbEntity
  8
0
370
     0
390
0
100
AcDbVertex
100
AcDb2dVertex
 10
220.85524
 20
-25.395454
 30
0.0
  0
VERTEX
  5
84
100
AcDbEntity
  8
0
370
     0
390
0
100
AcDbVertex
100
AcDb2dVertex
 10
220.43161
 20
-25.395454
 30
0.0
  0
SEQEND
  5
85
100
AcDbEntity
  8
0
370
     0
390
0
  0
POLYLINE
  5
86
100
AcDbEntity
  8
0
370
    13
390
0
 62
     7
100
AcDb2dPolyline
 66
     1
 10
0.0
 20
0.0
 30
0.0
 70
     1
 71
    22
  0
VERTEX
  5
87
100
AcDbEntity
  8
0
370
     0
390
0
100
AcDbVertex
100
AcDb2dVertex
 10
224.062729
 20
-25.864475
 30
0.0
  0
VERTEX
  5
88
100
AcDbEntity
  8
0
370
     0
390
0
100
AcDbVertex
100
AcDb2dVertex
 10
224.062729
 20
-27.221104
 30
0.0
  0
VERTEX
  5
89
100
AcDbEntity
  8
0
370
     0
390
0
100
AcDbVertex
100
AcDb2dVertex
 10
224.092987
 20
-27.659864
 30
0.0
  0
VERTEX
  5
8A
100
AcDbEntity
  8
0
370
     0
390
0
100
AcDbVertex
100
AcDb2dVertex
 10
224.234192
 20
-27.962458
 30
0.0
  0
VERTEX
  5
8B
100
AcDbEntity
  8
0
370
     0
390
0
100
AcDbVertex
100
AcDb2dVertex
 10
224.516617
 20
-28.138971
 30
0.0
  0
VERTEX
  5
8C
100
AcDbEntity
  8
0
370
     0
390
0
100
AcDbVertex
100
AcDb2dVertex
 10
224.995728
 20
-28.19949
 30
0.0
  0
VERTEX
  5
8D
100
AcDbEntity
  8
0
370
     0
390
0
100
AcDbVertex
100
AcDb2dVertex
 10
225.520218
 20
-28.174273
 30
0.0
  0
VERTEX
  5
8E
100
AcDbEntity
  8
0
370
     0
390
0
100
AcDbVertex
100
AcDb2dVertex
 10
225.520218
 20
-27.790989
 30
0.0
  0
VERTEX
  5
8F
100
AcDbEntity
  8
0
370
     0
390
0
100
AcDbVertex
100
AcDb2dVertex
 10
225.136932
 20
-27.821247
 30
0.0
  0
VERTEX
  5
90
100
AcDbEntity
  8
0
370
     0
390
0
100
AcDbVertex
100
AcDb2dVertex
 10
224.788956
 20
-27.780901
 30
0.0
  0
VERTEX
  5
91
100
AcDbEntity
  8
0
370
     0
390
0
100
AcDbVertex
100
AcDb2dVertex
 10
224.602356
 20
-27.654821
 30
0.0
  0
VERTEX
  5
92
100
AcDbEntity
  8
0
370
     0
390
0
100
AcDbVertex
100
AcDb2dVertex
 10
224.521667
 20
-27.443005
 30
0.0
  0
VERTEX
  5
93
100
AcDbEntity
  8
0
370
     0
390
0
100
AcDbVertex
100
AcDb2dVertex
 10
224.506531
 20
-27.145454
 30
0.0
  0
VERTEX
  5
94
100
AcDbEntity
  8
0
370
     0
390
0
100
AcDbVertex
100
AcDb2dVertex
 10
224.506531
 20
-25.864475
 30
0.0
  0
VERTEX
  5
95
100
AcDbEntity
  8
0
370
     0
390
0
100
AcDbVertex
100
AcDb2dVertex
 10
225.520218
 20
-25.864475
 30
0.0
  0
VERTEX
  5
96
100
AcDbEntity
  8
0
370
     0
390
0
100
AcDbVertex
100
AcDb2dVertex
 10
225.520218
 20
-25.486233
 30
0.0
  0
VERTEX
  5
97
100
AcDbEntity
  8
0
370
     0
390
0
100
AcDbVertex
100
AcDb2dVertex
 10
224.506531
 20
-25.486233
 30
0.0
  0
VERTEX
  5
98
100
AcDbEntity
  8
0
370
     0
390
0
100
AcDbVertex
100
AcDb2dVertex
 10
224.506531
 20
-24.694447
 30
0.0
  0
VERTEX
  5
99
100
AcDbEntity
  8
0
370
     0
390
0
100
AcDbVertex
100
AcDb2dVertex
 10
224.062729
 20
-24.694447
 30
0.0
  0
VERTEX
  5
9A
100
AcDbEntity
  8
0
370
     0
390
0
100
AcDbVertex
100
AcDb2dVertex
 10
224.062729
 20
-25.486233
 30
0.0
  0
VERTEX
  5
9B
100
AcDbEntity
  8
0
370
     0
390
0
100
AcDbVertex
100
AcDb2dVertex
 10
223.296158
 20
-25.486233
 30
0.0
  0
VERTEX
  5
9C
100
AcDbEntity
  8
0
370
     0
390
0
100
AcDbVertex
100
AcDb2dVertex
 10
223.296158
 20
-25.864475
 30
0.0
  0
SEQEND
  5
9D
100
AcDbEntity
  8
0
370
     0
390
0
  0
POLYLINE
  5
9E
100
AcDbEntity
  8
0
370
    13
390
0
 62
     7
100
AcDb2dPolyline
 66
     1
 10
0.0
 20
0.0
 30
0.0
 70
     1
 71
     7
  0
VERTEX
  5
9F
100
AcDbEntity
  8
0
370
     0
390
0
100
AcDbVertex
100
AcDb2dVertex
 10
230.351639
 20
-28.103668
 30
0.0
  0
VERTEX
  5
A0
100
AcDbEntity
  8
0
370
     0
390
0
100
AcDbVertex
100
AcDb2dVertex
 10
230.820648
 20
-28.103668
 30
0.0
  0
VERTEX
  5
A1
100
AcDbEntity
  8
0
370
     0
390
0
100
AcDbVertex
100
AcDb2dVertex
 10
231.809128
 20
-25.395454
 30
0.0
  0
VERTEX
  5
A2
100
AcDbEntity
  8
0
370
     0
390
0
100
AcDbVertex
100
AcDb2dVertex
 10
231.350189
 20
-25.395454
 30
0.0
  0
VERTEX
  5
A3
100
AcDbEntity
  8
0
370
     0
390
0
100
AcDbVertex
100
AcDb2dVertex
 10
230.588669
 20
-27.579172
 30
0.0
  0
VERTEX
  5
A4
100
AcDbEntity
  8
0
370
     0
390
0
100
AcDbVertex
100
AcDb2dVertex
 10
229.812012
 20
-25.395454
 30
0.0
  0
VERTEX
  5
A5
100
AcDbEntity
  8
0
370
     0
390
0
100
AcDbVertex
100
AcDb2dVertex
 10
229.348038
 20
-25.395454
 30
0.0
  0
SEQEND
  5
A6
100
AcDbEntity
  8
0
370
     0
390
0
  0
POLYLINE
  5
A7
100
AcDbEntity
  8
0
370
    13
390
0
 62
     7
100
AcDb2dPolyline
 66
     1
 10
0.0
 20
0.0
 30
0.0
 70
     1
 71
    10
  0
VERTEX
  5
A8
100
AcDbEntity
  8
0
370
     0
390
0
100
AcDbVertex
100
AcDb2dVertex
 10
233.932327
 20
-27.730469
 30
0.0
  0
VERTEX
  5
A9
100
AcDbEntity
  8
0
370
     0
390
0
100
AcDbVertex
100
AcDb2dVertex
 10
233.932327
 20
-25.486233
 30
0.0
  0
VERTEX
  5
AA
100
AcDbEntity
  8
0
370
     0
390
0
100
AcDbVertex
100
AcDb2dVertex
 10
232.792557
 20
-25.486233
 30
0.0
  0
VERTEX
  5
AB
100
AcDbEntity
  8
0
370
     0
390
0
100
AcDbVertex
100
AcDb2dVertex
 10
232.792557
 20
-25.864475
 30
0.0
  0
VERTEX
  5
AC
100
AcDbEntity
  8
0
370
     0
390
0
100
AcDbVertex
100
AcDb2dVertex
 10
233.488525
 20
-25.864475
 30
0.0
  0
VERTEX
  5
AD
100
AcDbEntity
  8
0
370
     0
390
0
100
AcDbVertex
100
AcDb2dVertex
 10
233.488525
 20
-27.730469
 30
0.0
  0
VERTEX
  5
AE
100
AcDbEntity
  8
0
370
     0
390
0
100
AcDbVertex
100
AcDb2dVertex
 10
232.58075
 20
-27.730469
 30
0.0
  0
VERTEX
  5
AF
100
AcDbEntity
  8
0
370
     0
390
0
100
AcDbVertex
100
AcDb2dVertex
 10
232.58075
 20
-28.103668
 30
0.0
  0
VERTEX
  5
B0
100
AcDbEntity
  8
0
370
     0
390
0
100
AcDbVertex
100
AcDb2dVertex
 10
234.850189
 20
-28.103668
 30
0.0
  0
VERTEX
  5
B1
100
AcDbEntity
  8
0
370
     0
390
0
100
AcDbVertex
100
AcDb2dVertex
 10
234.850189
 20
-27.730469
 30
0.0
  0
SEQEND
  5
B2
100
AcDbEntity
  8
0
370
     0
390
0
  0
POLYLINE
  5
B3
100
AcDbEntity
  8
0
370
    13
390
0
 62
     7
100
AcDb2dPolyline
 66
     1
 10
0.0
 20
0.0
 30
0.0
 70
     1
 71
     4
  0
VERTEX
  5
B4
100
AcDbEntity
  8
0
370
     0
390
0
100
AcDbVertex
100
AcDb2dVertex
 10
233.947449
 20
-24.482632
 30
0.0
  0
VERTEX
  5
B5
100
AcDbEntity
  8
0
370
     0
390
0
100
AcDbVertex
100
AcDb2dVertex
 10
233.478439
 20
-24.482632
 30
0.0
  0
VERTEX
  5
B6
100
AcDbEntity
  8
0
370
     0
390
0
100
AcDbVertex
100
AcDb2dVertex
 10
233.478439
 20
-24.986954
 30
0.0
  0
VERTEX
  5
B7
100
AcDbEntity
  8
0
370
     0
390
0
100
AcDbVertex
100
AcDb2dVertex
 10
233.947449
 20
-24.986954
 30
0.0
  0
SEQEND
  5
B8
100
AcDbEntity
  8
0
370
     0
390
0
  0
POLYLINE
  5
B9
100
AcDbEntity
  8
0
370
    13
390
0
 62
     7
100
AcDb2dPolyline
 66
     1
 10
0.0
 20
0.0
 30
0.0
 70
     1
 71
    27
  0
VERTEX
  5
BA
100
AcDbEntity
  8
0
370
     0
390
0
100
AcDbVertex
100
AcDb2dVertex
 10
236.000046
 20
-26.878164
 30
0.0
  0
VERTEX
  5
BB
100
AcDbEntity
  8
0
370
     0
390
0
100
AcDbVertex
100
AcDb2dVertex
 10
237.775269
 20
-26.878164
 30
0.0
  0
VERTEX
  5
BC
100
AcDbEntity
  8
0
370
     0
390
0
100
AcDbVertex
100
AcDb2dVertex
 10
237.780304
 20
-26.671392
 30
0.0
  0
VERTEX
  5
BD
100
AcDbEntity
  8
0
370
     0
390
0
100
AcDbVertex
100
AcDb2dVertex
 10
237.699615
 20
-26.091421
 30
0.0
  0
VERTEX
  5
BE
100
AcDbEntity
  8
0
370
     0
390
0
100
AcDbVertex
100
AcDb2dVertex
 10
237.477722
 20
-25.657703
 30
0.0
  0
VERTEX
  5
BF
100
AcDbEntity
  8
0
370
     0
390
0
100
AcDbVertex
100
AcDb2dVertex
 10
237.124695
 20
-25.395454
 30
0.0
  0
VERTEX
  5
C0
100
AcDbEntity
  8
0
370
     0
390
0
100
AcDbVertex
100
AcDb2dVertex
 10
236.65567
 20
-25.299633
 30
0.0
  0
VERTEX
  5
C1
100
AcDbEntity
  8
0
370
     0
390
0
100
AcDbVertex
100
AcDb2dVertex
 10
236.196732
 20
-25.400497
 30
0.0
  0
VERTEX
  5
C2
100
AcDbEntity
  8
0
370
     0
390
0
100
AcDbVertex
100
AcDb2dVertex
 10
235.843704
 20
-25.682919
 30
0.0
  0
VERTEX
  5
C3
100
AcDbEntity
  8
0
370
     0
390
0
100
AcDbVertex
100
AcDb2dVertex
 10
235.61676
 20
-26.141853
 30
0.0
  0
VERTEX
  5
C4
100
AcDbEntity
  8
0
370
     0
390
0
100
AcDbVertex
100
AcDb2dVertex
 10
235.536072
 20
-26.74704
 30
0.0
  0
VERTEX
  5
C5
100
AcDbEntity
  8
0
370
     0
390
0
100
AcDbVertex
100
AcDb2dVertex
 10
235.611725
 20
-27.367357
 30
0.0
  0
VERTEX
  5
C6
100
AcDbEntity
  8
0
370
     0
390
0
100
AcDbVertex
100
AcDb2dVertex
 10
235.838669
 20
-27.821247
 30
0.0
  0
VERTEX
  5
C7
100
AcDbEntity
  8
0
370
     0
390
0
100
AcDbVertex
100
AcDb2dVertex
 10
236.186646
 20
-28.103668
 30
0.0
  0
VERTEX
  5
C8
100
AcDbEntity
  8
0
370
     0
390
0
100
AcDbVertex
100
AcDb2dVertex
 10
236.640533
 20
-28.19949
 30
0.0
  0
VERTEX
  5
C9
100
AcDbEntity
  8
0
370
     0
390
0
100
AcDbVertex
100
AcDb2dVertex
 10
237.033905
 20
-28.133928
 30
0.0
  0
VERTEX
  5
CA
100
AcDbEntity
  8
0
370
     0
390
0
100
AcDbVertex
100
AcDb2dVertex
 10
237.356674
 20
-27.962458
 30
0.0
  0
VERTEX
  5
CB
100
AcDbEntity
  8
0
370
     0
390
0
100
AcDbVertex
100
AcDb2dVertex
 10
237.593704
 20
-27.690123
 30
0.0
  0
VERTEX
  5
CC
100
AcDbEntity
  8
0
370
     0
390
0
100
AcDbVertex
100
AcDb2dVertex
 10
237.729874
 20
-27.327011
 30
0.0
  0
VERTEX
  5
CD
100
AcDbEntity
  8
0
370
     0
390
0
100
AcDbVertex
100
AcDb2dVertex
 10
237.291107
 20
-27.327011
 30
0.0
  0
VERTEX
  5
CE
100
AcDbEntity
  8
0
370
     0
390
0
100
AcDbVertex
100
AcDb2dVertex
 10
237.200333
 20
-27.52874
 30
0.0
  0
VERTEX
  5
CF
100
AcDbEntity
  8
0
370
     0
390
0
100
AcDbVertex
100
AcDb2dVertex
 10
237.069214
 20
-27.680037
 30
0.0
  0
VERTEX
  5
D0
100
AcDbEntity
  8
0
370
     0
390
0
100
AcDbVertex
100
AcDb2dVertex
 10
236.696014
 20
-27.801075
 30
0.0
  0
VERTEX
  5
D1
100
AcDbEntity
  8
0
370
     0
390
0
100
AcDbVertex
100
AcDb2dVertex
 10
236.408554
 20
-27.7456
 30
0.0
  0
VERTEX
  5
D2
100
AcDbEntity
  8
0
370
     0
390
0
100
AcDbVertex
100
AcDb2dVertex
 10
236.191696
 20
-27.569086
 30
0.0
  0
VERTEX
  5
D3
100
AcDbEntity
  8
0
370
     0
390
0
100
AcDbVertex
100
AcDb2dVertex
 10
236.050476
 20
-27.281622
 30
0.0
  0
VERTEX
  5
D4
100
AcDbEntity
  8
0
370
     0
390
0
100
AcDbVertex
100
AcDb2dVertex
 10
236.000046
 20
-26.893293
 30
0.0
  0
SEQEND
  5
D5
100
AcDbEntity
  8
0
370
     0
390
0
  0
POLYLINE
  5
D6
100
AcDbEntity
  8
0
370
    13
390
0
 62
     7
100
AcDb2dPolyline
 66
     1
 10
0.0
 20
0.0
 30
0.0
 70
     1
 71
     9
  0
VERTEX
  5
D7
100
AcDbEntity
  8
0
370
     0
390
0
100
AcDbVertex
100
AcDb2dVertex
 10
236.000046
 20
-26.504965
 30
0.0
  0
VERTEX
  5
D8
100
AcDbEntity
  8
0
370
     0
390
0
100
AcDbVertex
100
AcDb2dVertex
 10
236.055527
 20
-26.156982
 30
0.0
  0
VERTEX
  5
D9
100
AcDbEntity
  8
0
370
     0
390
0
100
AcDbVertex
100
AcDb2dVertex
 10
236.191696
 20
-25.899778
 30
0.0
  0
VERTEX
  5
DA
100
AcDbEntity
  8
0
370
     0
390
0
100
AcDbVertex
100
AcDb2dVertex
 10
236.398468
 20
-25.743439
 30
0.0
  0
VERTEX
  5
DB
100
AcDbEntity
  8
0
370
     0
390
0
100
AcDbVertex
100
AcDb2dVertex
 10
236.670807
 20
-25.687962
 30
0.0
  0
VERTEX
  5
DC
100
AcDbEntity
  8
0
370
     0
390
0
100
AcDbVertex
100
AcDb2dVertex
 10
236.938095
 20
-25.743439
 30
0.0
  0
VERTEX
  5
DD
100
AcDbEntity
  8
0
370
     0
390
0
100
AcDbVertex
100
AcDb2dVertex
 10
237.144867
 20
-25.899778
 30
0.0
  0
VERTEX
  5
DE
100
AcDbEntity
  8
0
370
     0
390
0
100
AcDbVertex
100
AcDb2dVertex
 10
237.270935
 20
-26.156982
 30
0.0
  0
VERTEX
  5
DF
100
AcDbEntity
  8
0
370
     0
390
0
100
AcDbVertex
100
AcDb2dVertex
 10
237.31633
 20
-26.504965
 30
0.0
  0
SEQEND
  5
E0
100
AcDbEntity
  8
0
370
     0
390
0
  0
POLYLINE
  5
E1
100
AcDbEntity
  8
0
370
    13
390
0
 62
     7
100
AcDb2dPolyline
 66
     1
 10
0.0
 20
0.0
 30
0.0
 70
     1
 71
    13
  0
VERTEX
  5
E2
100
AcDbEntity
  8
0
370
     0
390
0
100
AcDbVertex
100
AcDb2dVertex
 10
239.288239
 20
-28.103668
 30
0.0
  0
VERTEX
  5
E3
100
AcDbEntity
  8
0
370
     0
390
0
100
AcDbVertex
100
AcDb2dVertex
 10
239.691696
 20
-25.803957
 30
0.0
  0
VERTEX
  5
E4
100
AcDbEntity
  8
0
370
     0
390
0
100
AcDbVertex
100
AcDb2dVertex
 10
240.095154
 20
-28.103668
 30
0.0
  0
VERTEX
  5
E5
100
AcDbEntity
  8
0
370
     0
390
0
100
AcDbVertex
100
AcDb2dVertex
 10
240.518784
 20
-28.103668
 30
0.0
  0
VERTEX
  5
E6
100
AcDbEntity
  8
0
370
     0
390
0
100
AcDbVertex
100
AcDb2dVertex
 10
241.184479
 20
-25.395454
 30
0.0
  0
VERTEX
  5
E7
100
AcDbEntity
  8
0
370
     0
390
0
100
AcDbVertex
100
AcDb2dVertex
 10
240.755814
 20
-25.395454
 30
0.0
  0
VERTEX
  5
E8
100
AcDbEntity
  8
0
370
     0
390
0
100
AcDbVertex
100
AcDb2dVertex
 10
240.306961
 20
-27.695168
 30
0.0
  0
VERTEX
  5
E9
100
AcDbEntity
  8
0
370
     0
390
0
100
AcDbVertex
100
AcDb2dVertex
 10
239.908554
 20
-25.395454
 30
0.0
  0
VERTEX
  5
EA
100
AcDbEntity
  8
0
370
     0
390
0
100
AcDbVertex
100
AcDb2dVertex
 10
239.469788
 20
-25.395454
 30
0.0
  0
VERTEX
  5
EB
100
AcDbEntity
  8
0
370
     0
390
0
100
AcDbVertex
100
AcDb2dVertex
 10
239.071381
 20
-27.695168
 30
0.0
  0
VERTEX
  5
EC
100
AcDbEntity
  8
0
370
     0
390
0
100
AcDbVertex
100
AcDb2dVertex
 10
238.622528
 20
-25.395454
 30
0.0
  0
VERTEX
  5
ED
100
AcDbEntity
  8
0
370
     0
390
0
100
AcDbVertex
100
AcDb2dVertex
 10
238.198898
 20
-25.395454
 30
0.0
  0
VERTEX
  5
EE
100
AcDbEntity
  8
0
370
     0
390
0
100
AcDbVertex
100
AcDb2dVertex
 10
238.864594
 20
-28.103668
 30
0.0
  0
SEQEND
  5
EF
100
AcDbEntity
  8
0
370
     0
390
0
  0
POLYLINE
  5
F0
100
AcDbEntity
  8
0
370
    13
390
0
 62
     7
100
AcDb2dPolyline
 66
     1
 10
0.0
 20
0.0
 30
0.0
 70
     1
 71
    51
  0
VERTEX
  5
F1
100
AcDbEntity
  8
0
370
     0
390
0
100
AcDbVertex
100
AcDb2dVertex
 10
211.570648
 20
-32.995598
 30
0.0
  0
VERTEX
  5
F2
100
AcDbEntity
  8
0
370
     0
390
0
100
AcDbVertex
100
AcDb2dVertex
 10
211.111725
 20
-32.995598
 30
0.0
  0
VERTEX
  5
F3
100
AcDbEntity
  8
0
370
     0
390
0
100
AcDbVertex
100
AcDb2dVertex
 10
211.212585
 20
-33.530182
 30
0.0
  0
VERTEX
  5
F4
100
AcDbEntity
  8
0
370
     0
390
0
100
AcDbVertex
100
AcDb2dVertex
 10
211.464752
 20
-33.923553
 30
0.0
  0
VERTEX
  5
F5
100
AcDbEntity
  8
0
370
     0
390
0
100
AcDbVertex
100
AcDb2dVertex
 10
211.853073
 20
-34.160583
 30
0.0
  0
VERTEX
  5
F6
100
AcDbEntity
  8
0
370
     0
390
0
100
AcDbVertex
100
AcDb2dVertex
 10
212.377563
 20
-34.246319
 30
0.0
  0
VERTEX
  5
F7
100
AcDbEntity
  8
0
370
     0
390
0
100
AcDbVertex
100
AcDb2dVertex
 10
212.897018
 20
-34.165627
 30
0.0
  0
VERTEX
  5
F8
100
AcDbEntity
  8
0
370
     0
390
0
100
AcDbVertex
100
AcDb2dVertex
 10
213.285355
 20
-33.943726
 30
0.0
  0
VERTEX
  5
F9
100
AcDbEntity
  8
0
370
     0
390
0
100
AcDbVertex
100
AcDb2dVertex
 10
213.532471
 20
-33.595741
 30
0.0
  0
VERTEX
  5
FA
100
AcDbEntity
  8
0
370
     0
390
0
100
AcDbVertex
100
AcDb2dVertex
 10
213.623245
 20
-33.13681
 30
0.0
  0
VERTEX
  5
FB
100
AcDbEntity
  8
0
370
     0
390
0
100
AcDbVertex
100
AcDb2dVertex
 10
213.547592
 20
-32.723263
 30
0.0
  0
VERTEX
  5
FC
100
AcDbEntity
  8
0
370
     0
390
0
100
AcDbVertex
100
AcDb2dVertex
 10
213.335785
 20
-32.455975
 30
0.0
  0
VERTEX
  5
FD
100
AcDbEntity
  8
0
370
     0
390
0
100
AcDbVertex
100
AcDb2dVertex
 10
212.992844
 20
-32.279461
 30
0.0
  0
VERTEX
  5
FE
100
AcDbEntity
  8
0
370
     0
390
0
100
AcDbVertex
100
AcDb2dVertex
 10
212.533905
 20
-32.148335
 30
0.0
  0
VERTEX
  5
FF
100
AcDbEntity
  8
0
370
     0
390
0
100
AcDbVertex
100
AcDb2dVertex
 10
212.140533
 20
-32.052513
 30
0.0
  0
VERTEX
  5
100
100
AcDbEntity
  8
0
370
     0
390
0
100
AcDbVertex
100
AcDb2dVertex
 10
211.883331
 20
-31.941563
 30
0.0
  0
VERTEX
  5
101
100
AcDbEntity
  8
0
370
     0
390
0
100
AcDbVertex
100
AcDb2dVertex
 10
211.737076
 20
-31.78018
 30
0.0
  0
VERTEX
  5
102
100
AcDbEntity
  8
0
370
     0
390
0
100
AcDbVertex
100
AcDb2dVertex
 10
211.691696
 20
-31.528019
 30
0.0
  0
VERTEX
  5
103
100
AcDbEntity
  8
0
370
     0
390
0
100
AcDbVertex
100
AcDb2dVertex
 10
211.737076
 20
-31.301073
 30
0.0
  0
VERTEX
  5
104
100
AcDbEntity
  8
0
370
     0
390
0
100
AcDbVertex
100
AcDb2dVertex
 10
211.86821
 20
-31.129604
 30
0.0
  0
VERTEX
  5
105
100
AcDbEntity
  8
0
370
     0
390
0
100
AcDbVertex
100
AcDb2dVertex
 10
212.069931
 20
-31.013611
 30
0.0
  0
VERTEX
  5
106
100
AcDbEntity
  8
0
370
     0
390
0
100
AcDbVertex
100
AcDb2dVertex
 10
212.347305
 20
-30.973265
 30
0.0
  0
VERTEX
  5
107
100
AcDbEntity
  8
0
370
     0
390
0
100
AcDbVertex
100
AcDb2dVertex
 10
212.62973
 20
-31.023697
 30
0.0
  0
VERTEX
  5
108
100
AcDbEntity
  8
0
370
     0
390
0
100
AcDbVertex
100
AcDb2dVertex
 10
212.851639
 20
-31.159863
 30
0.0
  0
VERTEX
  5
109
100
AcDbEntity
  8
0
370
     0
390
0
100
AcDbVertex
100
AcDb2dVertex
 10
212.997894
 20
-31.386808
 30
0.0
  0
VERTEX
  5
10A
100
AcDbEntity
  8
0
370
     0
390
0
100
AcDbVertex
100
AcDb2dVertex
 10
213.068497
 20
-31.694447
 30
0.0
  0
VERTEX
  5
10B
100
AcDbEntity
  8
0
370
     0
390
0
100
AcDbVertex
100
AcDb2dVertex
 10
213.52742
 20
-31.694447
 30
0.0
  0
VERTEX
  5
10C
100
AcDbEntity
  8
0
370
     0
390
0
100
AcDbVertex
100
AcDb2dVertex
 10
213.52742
 20
-31.684359
 30
0.0
  0
VERTEX
  5
10D
100
AcDbEntity
  8
0
370
     0
390
0
100
AcDbVertex
100
AcDb2dVertex
 10
213.446732
 20
-31.210297
 30
0.0
  0
VERTEX
  5
10E
100
AcDbEntity
  8
0
370
     0
390
0
100
AcDbVertex
100
AcDb2dVertex
 10
213.209702
 20
-30.857269
 30
0.0
  0
VERTEX
  5
10F
100
AcDbEntity
  8
0
370
     0
390
0
100
AcDbVertex
100
AcDb2dVertex
 10
212.836502
 20
-30.635368
 30
0.0
  0
VERTEX
  5
110
100
AcDbEntity
  8
0
370
     0
390
0
100
AcDbVertex
100
AcDb2dVertex
 10
212.332184
 20
-30.559719
 30
0.0
  0
VERTEX
  5
111
100
AcDbEntity
  8
0
370
     0
390
0
100
AcDbVertex
100
AcDb2dVertex
 10
211.878296
 20
-30.635368
 30
0.0
  0
VERTEX
  5
112
100
AcDbEntity
  8
0
370
     0
390
0
100
AcDbVertex
100
AcDb2dVertex
 10
211.525269
 20
-30.847183
 30
0.0
  0
VERTEX
  5
113
100
AcDbEntity
  8
0
370
     0
390
0
100
AcDbVertex
100
AcDb2dVertex
 10
211.298325
 20
-31.174994
 30
0.0
  0
VERTEX
  5
114
100
AcDbEntity
  8
0
370
     0
390
0
100
AcDbVertex
100
AcDb2dVertex
 10
211.217621
 20
-31.598625
 30
0.0
  0
VERTEX
  5
115
100
AcDbEntity
  8
0
370
     0
390
0
100
AcDbVertex
100
AcDb2dVertex
 10
211.283188
 20
-31.976866
 30
0.0
  0
VERTEX
  5
116
100
AcDbEntity
  8
0
370
     0
390
0
100
AcDbVertex
100
AcDb2dVertex
 10
211.474838
 20
-32.23407
 30
0.0
  0
VERTEX
  5
117
100
AcDbEntity
  8
0
370
     0
390
0
100
AcDbVertex
100
AcDb2dVertex
 10
211.77742
 20
-32.40554
 30
0.0
  0
VERTEX
  5
118
100
AcDbEntity
  8
0
370
     0
390
0
100
AcDbVertex
100
AcDb2dVertex
 10
212.190964
 20
-32.536663
 30
0.0
  0
VERTEX
  5
119
100
AcDbEntity
  8
0
370
     0
390
0
100
AcDbVertex
100
AcDb2dVertex
 10
212.599472
 20
-32.65266
 30
0.0
  0
VERTEX
  5
11A
100
AcDbEntity
  8
0
370
     0
390
0
100
AcDbVertex
100
AcDb2dVertex
 10
212.907104
 20
-32.763611
 30
0.0
  0
VERTEX
  5
11B
100
AcDbEntity
  8
0
370
     0
390
0
100
AcDbVertex
100
AcDb2dVertex
 10
213.093704
 20
-32.924992
 30
0.0
  0
VERTEX
  5
11C
100
AcDbEntity
  8
0
370
     0
390
0
100
AcDbVertex
100
AcDb2dVertex
 10
213.159271
 20
-33.187241
 30
0.0
  0
VERTEX
  5
11D
100
AcDbEntity
  8
0
370
     0
390
0
100
AcDbVertex
100
AcDb2dVertex
 10
213.098755
 20
-33.454533
 30
0.0
  0
VERTEX
  5
11E
100
AcDbEntity
  8
0
370
     0
390
0
100
AcDbVertex
100
AcDb2dVertex
 10
212.942413
 20
-33.656261
 30
0.0
  0
VERTEX
  5
11F
100
AcDbEntity
  8
0
370
     0
390
0
100
AcDbVertex
100
AcDb2dVertex
 10
212.705383
 20
-33.782341
 30
0.0
  0
VERTEX
  5
120
100
AcDbEntity
  8
0
370
     0
390
0
100
AcDbVertex
100
AcDb2dVertex
 10
212.397736
 20
-33.822689
 30
0.0
  0
VERTEX
  5
121
100
AcDbEntity
  8
0
370
     0
390
0
100
AcDbVertex
100
AcDb2dVertex
 10
212.05481
 20
-33.767212
 30
0.0
  0
VERTEX
  5
122
100
AcDbEntity
  8
0
370
     0
390
0
100
AcDbVertex
100
AcDb2dVertex
 10
211.792557
 20
-33.605827
 30
0.0
  0
VERTEX
  5
123
100
AcDbEntity
  8
0
370
     0
390
0
100
AcDbVertex
100
AcDb2dVertex
 10
211.626129
 20
-33.343582
 30
0.0
  0
SEQEND
  5
124
100
AcDbEntity
  8
0
370
     0
390
0
  0
POLYLINE
  5
125
100
AcDbEntity
  8
0
370
    13
390
0
 62
     7
100
AcDb2dPolyline
 66
     1
 10
0.0
 20
0.0
 30
0.0
 70
     1
 71
    34
  0
VERTEX
  5
126
100
AcDbEntity
  8
0
370
     0
390
0
100
AcDbVertex
100
AcDb2dVertex
 10
216.084335
 20
-32.339977
 30
0.0
  0
VERTEX
  5
127
100
AcDbEntity
  8
0
370
     0
390
0
100
AcDbVertex
100
AcDb2dVertex
 10
216.523102
 20
-32.339977
 30
0.0
  0
VERTEX
  5
128
100
AcDbEntity
  8
0
370
     0
390
0
100
AcDbVertex
100
AcDb2dVertex
 10
216.432327
 20
-31.93652
 30
0.0
  0
VERTEX
  5
129
100
AcDbEntity
  8
0
370
     0
390
0
100
AcDbVertex
100
AcDb2dVertex
 10
216.215469
 20
-31.618797
 30
0.0
  0
VERTEX
  5
12A
100
AcDbEntity
  8
0
370
     0
390
0
100
AcDbVertex
100
AcDb2dVertex
 10
215.877563
 20
-31.422112
 30
0.0
  0
VERTEX
  5
12B
100
AcDbEntity
  8
0
370
     0
390
0
100
AcDbVertex
100
AcDb2dVertex
 10
215.438812
 20
-31.346462
 30
0.0
  0
VERTEX
  5
12C
100
AcDbEntity
  8
0
370
     0
390
0
100
AcDbVertex
100
AcDb2dVertex
 10
214.954666
 20
-31.447327
 30
0.0
  0
VERTEX
  5
12D
100
AcDbEntity
  8
0
370
     0
390
0
100
AcDbVertex
100
AcDb2dVertex
 10
214.586502
 20
-31.729748
 30
0.0
  0
VERTEX
  5
12E
100
AcDbEntity
  8
0
370
     0
390
0
100
AcDbVertex
100
AcDb2dVertex
 10
214.354523
 20
-32.188683
 30
0.0
  0
VERTEX
  5
12F
100
AcDbEntity
  8
0
370
     0
390
0
100
AcDbVertex
100
AcDb2dVertex
 10
214.273819
 20
-32.803955
 30
0.0
  0
VERTEX
  5
130
100
AcDbEntity
  8
0
370
     0
390
0
100
AcDbVertex
100
AcDb2dVertex
 10
214.349472
 20
-33.414185
 30
0.0
  0
VERTEX
  5
131
100
AcDbEntity
  8
0
370
     0
390
0
100
AcDbVertex
100
AcDb2dVertex
 10
214.576416
 20
-33.868076
 30
0.0
  0
VERTEX
  5
132
100
AcDbEntity
  8
0
370
     0
390
0
100
AcDbVertex
100
AcDb2dVertex
 10
214.934479
 20
-34.150497
 30
0.0
  0
VERTEX
  5
133
100
AcDbEntity
  8
0
370
     0
390
0
100
AcDbVertex
100
AcDb2dVertex
 10
215.423676
 20
-34.246319
 30
0.0
  0
VERTEX
  5
134
100
AcDbEntity
  8
0
370
     0
390
0
100
AcDbVertex
100
AcDb2dVertex
 10
215.857391
 20
-34.17067
 30
0.0
  0
VERTEX
  5
135
100
AcDbEntity
  8
0
370
     0
390
0
100
AcDbVertex
100
AcDb2dVertex
 10
216.195297
 20
-33.958855
 30
0.0
  0
VERTEX
  5
136
100
AcDbEntity
  8
0
370
     0
390
0
100
AcDbVertex
100
AcDb2dVertex
 10
216.427277
 20
-33.626003
 30
0.0
  0
VERTEX
  5
137
100
AcDbEntity
  8
0
370
     0
390
0
100
AcDbVertex
100
AcDb2dVertex
 10
216.528152
 20
-33.182198
 30
0.0
  0
VERTEX
  5
138
100
AcDbEntity
  8
0
370
     0
390
0
100
AcDbVertex
100
AcDb2dVertex
 10
216.104523
 20
-33.182198
 30
0.0
  0
VERTEX
  5
139
100
AcDbEntity
  8
0
370
     0
390
0
100
AcDbVertex
100
AcDb2dVertex
 10
216.02887
 20
-33.464619
 30
0.0
  0
VERTEX
  5
13A
100
AcDbEntity
  8
0
370
     0
390
0
100
AcDbVertex
100
AcDb2dVertex
 10
215.88765
 20
-33.676434
 30
0.0
  0
VERTEX
  5
13B
100
AcDbEntity
  8
0
370
     0
390
0
100
AcDbVertex
100
AcDb2dVertex
 10
215.685928
 20
-33.807556
 30
0.0
  0
VERTEX
  5
13C
100
AcDbEntity
  8
0
370
     0
390
0
100
AcDbVertex
100
AcDb2dVertex
 10
215.438812
 20
-33.847904
 30
0.0
  0
VERTEX
  5
13D
100
AcDbEntity
  8
0
370
     0
390
0
100
AcDbVertex
100
AcDb2dVertex
 10
215.131165
 20
-33.782341
 30
0.0
  0
VERTEX
  5
13E
100
AcDbEntity
  8
0
370
     0
390
0
100
AcDbVertex
100
AcDb2dVertex
 10
214.909271
 20
-33.580612
 30
0.0
  0
VERTEX
  5
13F
100
AcDbEntity
  8
0
370
     0
390
0
100
AcDbVertex
100
AcDb2dVertex
 10
214.773102
 20
-33.252804
 30
0.0
  0
VERTEX
  5
140
100
AcDbEntity
  8
0
370
     0
390
0
100
AcDbVertex
100
AcDb2dVertex
 10
214.727707
 20
-32.788826
 30
0.0
  0
VERTEX
  5
141
100
AcDbEntity
  8
0
370
     0
390
0
100
AcDbVertex
100
AcDb2dVertex
 10
214.773102
 20
-32.334934
 30
0.0
  0
VERTEX
  5
142
100
AcDbEntity
  8
0
370
     0
390
0
100
AcDbVertex
100
AcDb2dVertex
 10
214.914307
 20
-32.007126
 30
0.0
  0
VERTEX
  5
143
100
AcDbEntity
  8
0
370
     0
390
0
100
AcDbVertex
100
AcDb2dVertex
 10
215.141266
 20
-31.805397
 30
0.0
  0
VERTEX
  5
144
100
AcDbEntity
  8
0
370
     0
390
0
100
AcDbVertex
100
AcDb2dVertex
 10
215.438812
 20
-31.734791
 30
0.0
  0
VERTEX
  5
145
100
AcDbEntity
  8
0
370
     0
390
0
100
AcDbVertex
100
AcDb2dVertex
 10
215.70105
 20
-31.78018
 30
0.0
  0
VERTEX
  5
146
100
AcDbEntity
  8
0
370
     0
390
0
100
AcDbVertex
100
AcDb2dVertex
 10
215.897736
 20
-31.896175
 30
0.0
  0
VERTEX
  5
147
100
AcDbEntity
  8
0
370
     0
390
0
100
AcDbVertex
100
AcDb2dVertex
 10
216.02887
 20
-32.087818
 30
0.0
  0
SEQEND
  5
148
100
AcDbEntity
  8
0
370
     0
390
0
  0
POLYLINE
  5
149
100
AcDbEntity
  8
0
370
    13
390
0
 62
     7
100
AcDb2dPolyline
 66
     1
 10
0.0
 20
0.0
 30
0.0
 70
     1
 71
    42
  0
VERTEX
  5
14A
100
AcDbEntity
  8
0
370
     0
390
0
100
AcDbVertex
100
AcDb2dVertex
 10
219.004364
 20
-33.79747
 30
0.0
  0
VERTEX
  5
14B
100
AcDbEntity
  8
0
370
     0
390
0
100
AcDbVertex
100
AcDb2dVertex
 10
219.004364
 20
-33.812603
 30
0.0
  0
VERTEX
  5
14C
100
AcDbEntity
  8
0
370
     0
390
0
100
AcDbVertex
100
AcDb2dVertex
 10
219.029587
 20
-33.98407
 30
0.0
  0
VERTEX
  5
14D
100
AcDbEntity
  8
0
370
     0
390
0
100
AcDbVertex
100
AcDb2dVertex
 10
219.10524
 20
-34.10511
 30
0.0
  0
VERTEX
  5
14E
100
AcDbEntity
  8
0
370
     0
390
0
100
AcDbVertex
100
AcDb2dVertex
 10
219.422958
 20
-34.200932
 30
0.0
  0
VERTEX
  5
14F
100
AcDbEntity
  8
0
370
     0
390
0
100
AcDbVertex
100
AcDb2dVertex
 10
219.670074
 20
-34.160583
 30
0.0
  0
VERTEX
  5
150
100
AcDbEntity
  8
0
370
     0
390
0
100
AcDbVertex
100
AcDb2dVertex
 10
219.670074
 20
-33.817646
 30
0.0
  0
VERTEX
  5
151
100
AcDbEntity
  8
0
370
     0
390
0
100
AcDbVertex
100
AcDb2dVertex
 10
219.564163
 20
-33.832775
 30
0.0
  0
VERTEX
  5
152
100
AcDbEntity
  8
0
370
     0
390
0
100
AcDbVertex
100
AcDb2dVertex
 10
219.422958
 20
-33.767212
 30
0.0
  0
VERTEX
  5
153
100
AcDbEntity
  8
0
370
     0
390
0
100
AcDbVertex
100
AcDb2dVertex
 10
219.397736
 20
-33.565483
 30
0.0
  0
VERTEX
  5
154
100
AcDbEntity
  8
0
370
     0
390
0
100
AcDbVertex
100
AcDb2dVertex
 10
219.397736
 20
-32.163467
 30
0.0
  0
VERTEX
  5
155
100
AcDbEntity
  8
0
370
     0
390
0
100
AcDbVertex
100
AcDb2dVertex
 10
219.337219
 20
-31.805397
 30
0.0
  0
VERTEX
  5
156
100
AcDbEntity
  8
0
370
     0
390
0
100
AcDbVertex
100
AcDb2dVertex
 10
219.160706
 20
-31.553236
 30
0.0
  0
VERTEX
  5
157
100
AcDbEntity
  8
0
370
     0
390
0
100
AcDbVertex
100
AcDb2dVertex
 10
218.853073
 20
-31.401939
 30
0.0
  0
VERTEX
  5
158
100
AcDbEntity
  8
0
370
     0
390
0
100
AcDbVertex
100
AcDb2dVertex
 10
218.419357
 20
-31.346462
 30
0.0
  0
VERTEX
  5
159
100
AcDbEntity
  8
0
370
     0
390
0
100
AcDbVertex
100
AcDb2dVertex
 10
217.995728
 20
-31.406982
 30
0.0
  0
VERTEX
  5
15A
100
AcDbEntity
  8
0
370
     0
390
0
100
AcDbVertex
100
AcDb2dVertex
 10
217.683044
 20
-31.578451
 30
0.0
  0
VERTEX
  5
15B
100
AcDbEntity
  8
0
370
     0
390
0
100
AcDbVertex
100
AcDb2dVertex
 10
217.486359
 20
-31.845743
 30
0.0
  0
VERTEX
  5
15C
100
AcDbEntity
  8
0
370
     0
390
0
100
AcDbVertex
100
AcDb2dVertex
 10
217.420792
 20
-32.198769
 30
0.0
  0
VERTEX
  5
15D
100
AcDbEntity
  8
0
370
     0
390
0
100
AcDbVertex
100
AcDb2dVertex
 10
217.420792
 20
-32.229027
 30
0.0
  0
VERTEX
  5
15E
100
AcDbEntity
  8
0
370
     0
390
0
100
AcDbVertex
100
AcDb2dVertex
 10
217.819214
 20
-32.229027
 30
0.0
  0
VERTEX
  5
15F
100
AcDbEntity
  8
0
370
     0
390
0
100
AcDbVertex
100
AcDb2dVertex
 10
217.854523
 20
-32.017212
 30
0.0
  0
VERTEX
  5
160
100
AcDbEntity
  8
0
370
     0
390
0
100
AcDbVertex
100
AcDb2dVertex
 10
217.965469
 20
-31.865915
 30
0.0
  0
VERTEX
  5
161
100
AcDbEntity
  8
0
370
     0
390
0
100
AcDbVertex
100
AcDb2dVertex
 10
218.147018
 20
-31.775137
 30
0.0
  0
VERTEX
  5
162
100
AcDbEntity
  8
0
370
     0
390
0
100
AcDbVertex
100
AcDb2dVertex
 10
218.404221
 20
-31.739834
 30
0.0
  0
VERTEX
  5
163
100
AcDbEntity
  8
0
370
     0
390
0
100
AcDbVertex
100
AcDb2dVertex
 10
218.651352
 20
-31.765051
 30
0.0
  0
VERTEX
  5
164
100
AcDbEntity
  8
0
370
     0
390
0
100
AcDbVertex
100
AcDb2dVertex
 10
218.827866
 20
-31.840698
 30
0.0
  0
VERTEX
  5
165
100
AcDbEntity
  8
0
370
     0
390
0
100
AcDbVertex
100
AcDb2dVertex
 10
218.933762
 20
-31.971823
 30
0.0
  0
VERTEX
  5
166
100
AcDbEntity
  8
0
370
     0
390
0
100
AcDbVertex
100
AcDb2dVertex
 10
218.96907
 20
-32.153378
 30
0.0
  0
VERTEX
  5
167
100
AcDbEntity
  8
0
370
     0
390
0
100
AcDbVertex
100
AcDb2dVertex
 10
218.948898
 20
-32.365196
 30
0.0
  0
VERTEX
  5
168
100
AcDbEntity
  8
0
370
     0
390
0
100
AcDbVertex
100
AcDb2dVertex
 10
218.86821
 20
-32.471104
 30
0.0
  0
VERTEX
  5
169
100
AcDbEntity
  8
0
370
     0
390
0
100
AcDbVertex
100
AcDb2dVertex
 10
218.666473
 20
-32.521534
 30
0.0
  0
VERTEX
  5
16A
100
AcDbEntity
  8
0
370
     0
390
0
100
AcDbVertex
100
AcDb2dVertex
 10
218.288239
 20
-32.561882
 30
0.0
  0
VERTEX
  5
16B
100
AcDbEntity
  8
0
370
     0
390
0
100
AcDbVertex
100
AcDb2dVertex
 10
217.854523
 20
-32.65266
 30
0.0
  0
VERTEX
  5
16C
100
AcDbEntity
  8
0
370
     0
390
0
100
AcDbVertex
100
AcDb2dVertex
 10
217.546875
 20
-32.814041
 30
0.0
  0
VERTEX
  5
16D
100
AcDbEntity
  8
0
370
     0
390
0
100
AcDbVertex
100
AcDb2dVertex
 10
217.365326
 20
-33.066204
 30
0.0
  0
VERTEX
  5
16E
100
AcDbEntity
  8
0
370
     0
390
0
100
AcDbVertex
100
AcDb2dVertex
 10
217.309845
 20
-33.439404
 30
0.0
  0
VERTEX
  5
16F
100
AcDbEntity
  8
0
370
     0
390
0
100
AcDbVertex
100
AcDb2dVertex
 10
217.360275
 20
-33.772255
 30
0.0
  0
VERTEX
  5
170
100
AcDbEntity
  8
0
370
     0
390
0
100
AcDbVertex
100
AcDb2dVertex
 10
217.516617
 20
-34.019375
 30
0.0
  0
VERTEX
  5
171
100
AcDbEntity
  8
0
370
     0
390
0
100
AcDbVertex
100
AcDb2dVertex
 10
217.768784
 20
-34.175713
 30
0.0
  0
VERTEX
  5
172
100
AcDbEntity
  8
0
370
     0
390
0
100
AcDbVertex
100
AcDb2dVertex
 10
218.11676
 20
-34.23119
 30
0.0
  0
VERTEX
  5
173
100
AcDbEntity
  8
0
370
     0
390
0
100
AcDbVertex
100
AcDb2dVertex
 10
218.585785
 20
-34.125282
 30
0.0
  0
SEQEND
  5
174
100
AcDbEntity
  8
0
370
     0
390
0
  0
POLYLINE
  5
175
100
AcDbEntity
  8
0
370
    13
390
0
 62
     7
100
AcDb2dPolyline
 66
     1
 10
0.0
 20
0.0
 30
0.0
 70
     1
 71
    14
  0
VERTEX
  5
176
100
AcDbEntity
  8
0
370
     0
390
0
100
AcDbVertex
100
AcDb2dVertex
 10
218.953934
 20
-33.20237
 30
0.0
  0
VERTEX
  5
177
100
AcDbEntity
  8
0
370
     0
390
0
100
AcDbVertex
100
AcDb2dVertex
 10
218.893417
 20
-33.464619
 30
0.0
  0
VERTEX
  5
178
100
AcDbEntity
  8
0
370
     0
390
0
100
AcDbVertex
100
AcDb2dVertex
 10
218.73204
 20
-33.666348
 30
0.0
  0
VERTEX
  5
179
100
AcDbEntity
  8
0
370
     0
390
0
100
AcDbVertex
100
AcDb2dVertex
 10
218.48996
 20
-33.79747
 30
0.0
  0
VERTEX
  5
17A
100
AcDbEntity
  8
0
370
     0
390
0
100
AcDbVertex
100
AcDb2dVertex
 10
218.192413
 20
-33.842861
 30
0.0
  0
VERTEX
  5
17B
100
AcDbEntity
  8
0
370
     0
390
0
100
AcDbVertex
100
AcDb2dVertex
 10
218.000763
 20
-33.817646
 30
0.0
  0
VERTEX
  5
17C
100
AcDbEntity
  8
0
370
     0
390
0
100
AcDbVertex
100
AcDb2dVertex
 10
217.864609
 20
-33.736954
 30
0.0
  0
VERTEX
  5
17D
100
AcDbEntity
  8
0
370
     0
390
0
100
AcDbVertex
100
AcDb2dVertex
 10
217.77887
 20
-33.595741
 30
0.0
  0
VERTEX
  5
17E
100
AcDbEntity
  8
0
370
     0
390
0
100
AcDbVertex
100
AcDb2dVertex
 10
217.753647
 20
-33.399055
 30
0.0
  0
VERTEX
  5
17F
100
AcDbEntity
  8
0
370
     0
390
0
100
AcDbVertex
100
AcDb2dVertex
 10
217.773819
 20
-33.222542
 30
0.0
  0
VERTEX
  5
180
100
AcDbEntity
  8
0
370
     0
390
0
100
AcDbVertex
100
AcDb2dVertex
 10
217.854523
 20
-33.096462
 30
0.0
  0
VERTEX
  5
181
100
AcDbEntity
  8
0
370
     0
390
0
100
AcDbVertex
100
AcDb2dVertex
 10
218.177277
 20
-32.955254
 30
0.0
  0
VERTEX
  5
182
100
AcDbEntity
  8
0
370
     0
390
0
100
AcDbVertex
100
AcDb2dVertex
 10
218.585785
 20
-32.894733
 30
0.0
  0
VERTEX
  5
183
100
AcDbEntity
  8
0
370
     0
390
0
100
AcDbVertex
100
AcDb2dVertex
 10
218.953934
 20
-32.773697
 30
0.0
  0
SEQEND
  5
184
100
AcDbEntity
  8
0
370
     0
390
0
  0
POLYLINE
  5
185
100
AcDbEntity
  8
0
370
    13
390
0
 62
     7
100
AcDb2dPolyline
 66
     1
 10
0.0
 20
0.0
 30
0.0
 70
     1
 71
    10
  0
VERTEX
  5
186
100
AcDbEntity
  8
0
370
     0
390
0
100
AcDbVertex
100
AcDb2dVertex
 10
221.314163
 20
-30.902658
 30
0.0
  0
VERTEX
  5
187
100
AcDbEntity
  8
0
370
     0
390
0
100
AcDbVertex
100
AcDb2dVertex
 10
221.314163
 20
-33.777298
 30
0.0
  0
VERTEX
  5
188
100
AcDbEntity
  8
0
370
     0
390
0
100
AcDbVertex
100
AcDb2dVertex
 10
220.401352
 20
-33.777298
 30
0.0
  0
VERTEX
  5
189
100
AcDbEntity
  8
0
370
     0
390
0
100
AcDbVertex
100
AcDb2dVertex
 10
220.401352
 20
-34.150497
 30
0.0
  0
VERTEX
  5
18A
100
AcDbEntity
  8
0
370
     0
390
0
100
AcDbVertex
100
AcDb2dVertex
 10
222.665756
 20
-34.150497
 30
0.0
  0
VERTEX
  5
18B
100
AcDbEntity
  8
0
370
     0
390
0
100
AcDbVertex
100
AcDb2dVertex
 10
222.665756
 20
-33.777298
 30
0.0
  0
VERTEX
  5
18C
100
AcDbEntity
  8
0
370
     0
390
0
100
AcDbVertex
100
AcDb2dVertex
 10
221.75798
 20
-33.777298
 30
0.0
  0
VERTEX
  5
18D
100
AcDbEntity
  8
0
370
     0
390
0
100
AcDbVertex
100
AcDb2dVertex
 10
221.75798
 20
-30.529461
 30
0.0
  0
VERTEX
  5
18E
100
AcDbEntity
  8
0
370
     0
390
0
100
AcDbVertex
100
AcDb2dVertex
 10
220.61821
 20
-30.529461
 30
0.0
  0
VERTEX
  5
18F
100
AcDbEntity
  8
0
370
     0
390
0
100
AcDbVertex
100
AcDb2dVertex
 10
220.61821
 20
-30.902658
 30
0.0
  0
SEQEND
  5
190
100
AcDbEntity
  8
0
370
     0
390
0
  0
POLYLINE
  5
191
100
AcDbEntity
  8
0
370
    13
390
0
 62
     7
100
AcDb2dPolyline
 66
     1
 10
0.0
 20
0.0
 30
0.0
 70
     1
 71
    27
  0
VERTEX
  5
192
100
AcDbEntity
  8
0
370
     0
390
0
100
AcDbVertex
100
AcDb2dVertex
 10
223.855957
 20
-32.924992
 30
0.0
  0
VERTEX
  5
193
100
AcDbEntity
  8
0
370
     0
390
0
100
AcDbVertex
100
AcDb2dVertex
 10
225.631165
 20
-32.924992
 30
0.0
  0
VERTEX
  5
194
100
AcDbEntity
  8
0
370
     0
390
0
100
AcDbVertex
100
AcDb2dVertex
 10
225.636215
 20
-32.71822
 30
0.0
  0
VERTEX
  5
195
100
AcDbEntity
  8
0
370
     0
390
0
100
AcDbVertex
100
AcDb2dVertex
 10
225.555527
 20
-32.138248
 30
0.0
  0
VERTEX
  5
196
100
AcDbEntity
  8
0
370
     0
390
0
100
AcDbVertex
100
AcDb2dVertex
 10
225.333618
 20
-31.704533
 30
0.0
  0
VERTEX
  5
197
100
AcDbEntity
  8
0
370
     0
390
0
100
AcDbVertex
100
AcDb2dVertex
 10
224.980591
 20
-31.442284
 30
0.0
  0
VERTEX
  5
198
100
AcDbEntity
  8
0
370
     0
390
0
100
AcDbVertex
100
AcDb2dVertex
 10
224.511581
 20
-31.346462
 30
0.0
  0
VERTEX
  5
199
100
AcDbEntity
  8
0
370
     0
390
0
100
AcDbVertex
100
AcDb2dVertex
 10
224.052643
 20
-31.447327
 30
0.0
  0
VERTEX
  5
19A
100
AcDbEntity
  8
0
370
     0
390
0
100
AcDbVertex
100
AcDb2dVertex
 10
223.699615
 20
-31.729748
 30
0.0
  0
VERTEX
  5
19B
100
AcDbEntity
  8
0
370
     0
390
0
100
AcDbVertex
100
AcDb2dVertex
 10
223.472672
 20
-32.188683
 30
0.0
  0
VERTEX
  5
19C
100
AcDbEntity
  8
0
370
     0
390
0
100
AcDbVertex
100
AcDb2dVertex
 10
223.391983
 20
-32.793869
 30
0.0
  0
VERTEX
  5
19D
100
AcDbEntity
  8
0
370
     0
390
0
100
AcDbVertex
100
AcDb2dVertex
 10
223.467621
 20
-33.414185
 30
0.0
  0
VERTEX
  5
19E
100
AcDbEntity
  8
0
370
     0
390
0
100
AcDbVertex
100
AcDb2dVertex
 10
223.69458
 20
-33.868076
 30
0.0
  0
VERTEX
  5
19F
100
AcDbEntity
  8
0
370
     0
390
0
100
AcDbVertex
100
AcDb2dVertex
 10
224.042557
 20
-34.150497
 30
0.0
  0
VERTEX
  5
1A0
100
AcDbEntity
  8
0
370
     0
390
0
100
AcDbVertex
100
AcDb2dVertex
 10
224.496445
 20
-34.246319
 30
0.0
  0
VERTEX
  5
1A1
100
AcDbEntity
  8
0
370
     0
390
0
100
AcDbVertex
100
AcDb2dVertex
 10
224.889816
 20
-34.180756
 30
0.0
  0
VERTEX
  5
1A2
100
AcDbEntity
  8
0
370
     0
390
0
100
AcDbVertex
100
AcDb2dVertex
 10
225.212585
 20
-34.009289
 30
0.0
  0
VERTEX
  5
1A3
100
AcDbEntity
  8
0
370
     0
390
0
100
AcDbVertex
100
AcDb2dVertex
 10
225.449615
 20
-33.736954
 30
0.0
  0
VERTEX
  5
1A4
100
AcDbEntity
  8
0
370
     0
390
0
100
AcDbVertex
100
AcDb2dVertex
 10
225.585785
 20
-33.37384
 30
0.0
  0
VERTEX
  5
1A5
100
AcDbEntity
  8
0
370
     0
390
0
100
AcDbVertex
100
AcDb2dVertex
 10
225.147018
 20
-33.37384
 30
0.0
  0
VERTEX
  5
1A6
100
AcDbEntity
  8
0
370
     0
390
0
100
AcDbVertex
100
AcDb2dVertex
 10
225.056244
 20
-33.575569
 30
0.0
  0
VERTEX
  5
1A7
100
AcDbEntity
  8
0
370
     0
390
0
100
AcDbVertex
100
AcDb2dVertex
 10
224.925125
 20
-33.726868
 30
0.0
  0
VERTEX
  5
1A8
100
AcDbEntity
  8
0
370
     0
390
0
100
AcDbVertex
100
AcDb2dVertex
 10
224.551926
 20
-33.847904
 30
0.0
  0
VERTEX
  5
1A9
100
AcDbEntity
  8
0
370
     0
390
0
100
AcDbVertex
100
AcDb2dVertex
 10
224.264465
 20
-33.792427
 30
0.0
  0
VERTEX
  5
1AA
100
AcDbEntity
  8
0
370
     0
390
0
100
AcDbVertex
100
AcDb2dVertex
 10
224.047592
 20
-33.615913
 30
0.0
  0
VERTEX
  5
1AB
100
AcDbEntity
  8
0
370
     0
390
0
100
AcDbVertex
100
AcDb2dVertex
 10
223.906387
 20
-33.328453
 30
0.0
  0
VERTEX
  5
1AC
100
AcDbEntity
  8
0
370
     0
390
0
100
AcDbVertex
100
AcDb2dVertex
 10
223.855957
 20
-32.940125
 30
0.0
  0
SEQEND
  5
1AD
100
AcDbEntity
  8
0
370
     0
390
0
  0
POLYLINE
  5
1AE
100
AcDbEntity
  8
0
370
    13
390
0
 62
     7
100
AcDb2dPolyline
 66
     1
 10
0.0
 20
0.0
 30
0.0
 70
     1
 71
     9
  0
VERTEX
  5
1AF
100
AcDbEntity
  8
0
370
     0
390
0
100
AcDbVertex
100
AcDb2dVertex
 10
223.855957
 20
-32.551796
 30
0.0
  0
VERTEX
  5
1B0
100
AcDbEntity
  8
0
370
     0
390
0
100
AcDbVertex
100
AcDb2dVertex
 10
223.911438
 20
-32.203812
 30
0.0
  0
VERTEX
  5
1B1
100
AcDbEntity
  8
0
370
     0
390
0
100
AcDbVertex
100
AcDb2dVertex
 10
224.047592
 20
-31.946608
 30
0.0
  0
VERTEX
  5
1B2
100
AcDbEntity
  8
0
370
     0
390
0
100
AcDbVertex
100
AcDb2dVertex
 10
224.254364
 20
-31.790268
 30
0.0
  0
VERTEX
  5
1B3
100
AcDbEntity
  8
0
370
     0
390
0
100
AcDbVertex
100
AcDb2dVertex
 10
224.526703
 20
-31.734791
 30
0.0
  0
VERTEX
  5
1B4
100
AcDbEntity
  8
0
370
     0
390
0
100
AcDbVertex
100
AcDb2dVertex
 10
224.793991
 20
-31.790268
 30
0.0
  0
VERTEX
  5
1B5
100
AcDbEntity
  8
0
370
     0
390
0
100
AcDbVertex
100
AcDb2dVertex
 10
225.000763
 20
-31.946608
 30
0.0
  0
VERTEX
  5
1B6
100
AcDbEntity
  8
0
370
     0
390
0
100
AcDbVertex
100
AcDb2dVertex
 10
225.126846
 20
-32.203812
 30
0.0
  0
VERTEX
  5
1B7
100
AcDbEntity
  8
0
370
     0
390
0
100
AcDbVertex
100
AcDb2dVertex
 10
225.172241
 20
-32.551796
 30
0.0
  0
SEQEND
  5
1B8
100
AcDbEntity
  8
0
370
     0
390
0
  0
POLYLINE
  5
1B9
100
AcDbEntity
  8
0
370
    13
390
0
 62
     7
100
AcDb2dPolyline
 66
     1
 10
0.0
 20
0.0
 30
0.0
 70
     1
 71
     4
  0
VERTEX
  5
1BA
100
AcDbEntity
  8
0
370
     0
390
0
100
AcDbVertex
100
AcDb2dVertex
 10
227.199615
 20
-34.150497
 30
0.0
  0
VERTEX
  5
1BB
100
AcDbEntity
  8
0
370
     0
390
0
100
AcDbVertex
100
AcDb2dVertex
 10
227.895584
 20
-34.150497
 30
0.0
  0
VERTEX
  5
1BC
100
AcDbEntity
  8
0
370
     0
390
0
100
AcDbVertex
100
AcDb2dVertex
 10
227.895584
 20
-33.399055
 30
0.0
  0
VERTEX
  5
1BD
100
AcDbEntity
  8
0
370
     0
390
0
100
AcDbVertex
100
AcDb2dVertex
 10
227.199615
 20
-33.399055
 30
0.0
  0
SEQEND
  5
1BE
100
AcDbEntity
  8
0
370
     0
390
0
  0
POLYLINE
  5
1BF
100
AcDbEntity
  8
0
370
    13
390
0
 62
     7
100
AcDb2dPolyline
 66
     1
 10
0.0
 20
0.0
 30
0.0
 70
     1
 71
     4
  0
VERTEX
  5
1C0
100
AcDbEntity
  8
0
370
     0
390
0
100
AcDbVertex
100
AcDb2dVertex
 10
227.199615
 20
-32.193726
 30
0.0
  0
VERTEX
  5
1C1
100
AcDbEntity
  8
0
370
     0
390
0
100
AcDbVertex
100
AcDb2dVertex
 10
227.895584
 20
-32.193726
 30
0.0
  0
VERTEX
  5
1C2
100
AcDbEntity
  8
0
370
     0
390
0
100
AcDbVertex
100
AcDb2dVertex
 10
227.895584
 20
-31.442284
 30
0.0
  0
VERTEX
  5
1C3
100
AcDbEntity
  8
0
370
     0
390
0
100
AcDbVertex
100
AcDb2dVertex
 10
227.199615
 20
-31.442284
 30
0.0
  0
SEQEND
  5
1C4
100
AcDbEntity
  8
0
370
     0
390
0
  0
POLYLINE
  5
1C5
100
AcDbEntity
  8
0
370
    13
390
0
 62
     7
100
AcDb2dPolyline
 66
     1
 10
0.0
 20
0.0
 30
0.0
 70
     1
 71
    10
  0
VERTEX
  5
1C6
100
AcDbEntity
  8
0
370
     0
390
0
100
AcDbVertex
100
AcDb2dVertex
 10
236.564896
 20
-34.150497
 30
0.0
  0
VERTEX
  5
1C7
100
AcDbEntity
  8
0
370
     0
390
0
100
AcDbVertex
100
AcDb2dVertex
 10
237.023819
 20
-34.150497
 30
0.0
  0
VERTEX
  5
1C8
100
AcDbEntity
  8
0
370
     0
390
0
100
AcDbVertex
100
AcDb2dVertex
 10
237.023819
 20
-30.625282
 30
0.0
  0
VERTEX
  5
1C9
100
AcDbEntity
  8
0
370
     0
390
0
100
AcDbVertex
100
AcDb2dVertex
 10
236.680878
 20
-30.625282
 30
0.0
  0
VERTEX
  5
1CA
100
AcDbEntity
  8
0
370
     0
390
0
100
AcDbVertex
100
AcDb2dVertex
 10
236.590103
 20
-30.932919
 30
0.0
  0
VERTEX
  5
1CB
100
AcDbEntity
  8
0
370
     0
390
0
100
AcDbVertex
100
AcDb2dVertex
 10
236.408554
 20
-31.13969
 30
0.0
  0
VERTEX
  5
1CC
100
AcDbEntity
  8
0
370
     0
390
0
100
AcDbVertex
100
AcDb2dVertex
 10
236.131165
 20
-31.260727
 30
0.0
  0
VERTEX
  5
1CD
100
AcDbEntity
  8
0
370
     0
390
0
100
AcDbVertex
100
AcDb2dVertex
 10
235.747894
 20
-31.301073
 30
0.0
  0
VERTEX
  5
1CE
100
AcDbEntity
  8
0
370
     0
390
0
100
AcDbVertex
100
AcDb2dVertex
 10
235.747894
 20
-31.659143
 30
0.0
  0
VERTEX
  5
1CF
100
AcDbEntity
  8
0
370
     0
390
0
100
AcDbVertex
100
AcDb2dVertex
 10
236.564896
 20
-31.659143
 30
0.0
  0
SEQEND
  5
1D0
100
AcDbEntity
  8
0
370
     0
390
0
  0
POLYLINE
  5
1D1
100
AcDbEntity
  8
0
370
    13
390
0
 62
     7
100
AcDb2dPolyline
 66
     1
 10
0.0
 20
0.0
 30
0.0
 70
     1
 71
     4
  0
VERTEX
  5
1D2
100
AcDbEntity
  8
0
370
     0
390
0
100
AcDbVertex
100
AcDb2dVertex
 10
239.343704
 20
-34.150497
 30
0.0
  0
VERTEX
  5
1D3
100
AcDbEntity
  8
0
370
     0
390
0
100
AcDbVertex
100
AcDb2dVertex
 10
240.039673
 20
-34.150497
 30
0.0
  0
VERTEX
  5
1D4
100
AcDbEntity
  8
0
370
     0
390
0
100
AcDbVertex
100
AcDb2dVertex
 10
240.039673
 20
-33.399055
 30
0.0
  0
VERTEX
  5
1D5
100
AcDbEntity
  8
0
370
     0
390
0
100
AcDbVertex
100
AcDb2dVertex
 10
239.343704
 20
-33.399055
 30
0.0
  0
SEQEND
  5
1D6
100
AcDbEntity
  8
0
370
     0
390
0
  0
POLYLINE
  5
1D7
100
AcDbEntity
  8
0
370
    13
390
0
 62
     7
100
AcDb2dPolyline
 66
     1
 10
0.0
 20
0.0
 30
0.0
 70
     1
 71
     4
  0
VERTEX
  5
1D8
100
AcDbEntity
  8
0
370
     0
390
0
100
AcDbVertex
100
AcDb2dVertex
 10
239.343704
 20
-32.193726
 30
0.0
  0
VERTEX
  5
1D9
100
AcDbEntity
  8
0
370
     0
390
0
100
AcDbVertex
100
AcDb2dVertex
 10
240.039673
 20
-32.193726
 30
0.0
  0
VERTEX
  5
1DA
100
AcDbEntity
  8
0
370
     0
390
0
100
AcDbVertex
100
AcDb2dVertex
 10
240.039673
 20
-31.442284
 30
0.0
  0
VERTEX
  5
1DB
100
AcDbEntity
  8
0
370
     0
390
0
100
AcDbVertex
100
AcDb2dVertex
 10
239.343704
 20
-31.442284
 30
0.0
  0
SEQEND
  5
1DC
100
AcDbEntity
  8
0
370
     0
390
0
  0
POLYLINE
  5
1DD
100
AcDbEntity
  8
0
370
    13
390
0
 62
     7
100
AcDb2dPolyline
 66
     1
 10
0.0
 20
0.0
 30
0.0
 70
     1
 71
    10
  0
VERTEX
  5
1DE
100
AcDbEntity
  8
0
370
     0
390
0
100
AcDbVertex
100
AcDb2dVertex
 10
242.636932
 20
-34.150497
 30
0.0
  0
VERTEX
  5
1DF
100
AcDbEntity
  8
0
370
     0
390
0
100
AcDbVertex
100
AcDb2dVertex
 10
243.095871
 20
-34.150497
 30
0.0
  0
VERTEX
  5
1E0
100
AcDbEntity
  8
0
370
     0
390
0
100
AcDbVertex
100
AcDb2dVertex
 10
243.095871
 20
-30.625282
 30
0.0
  0
VERTEX
  5
1E1
100
AcDbEntity
  8
0
370
     0
390
0
100
AcDbVertex
100
AcDb2dVertex
 10
242.75293
 20
-30.625282
 30
0.0
  0
VERTEX
  5
1E2
100
AcDbEntity
  8
0
370
     0
390
0
100
AcDbVertex
100
AcDb2dVertex
 10
242.662155
 20
-30.932919
 30
0.0
  0
VERTEX
  5
1E3
100
AcDbEntity
  8
0
370
     0
390
0
100
AcDbVertex
100
AcDb2dVertex
 10
242.480591
 20
-31.13969
 30
0.0
  0
VERTEX
  5
1E4
100
AcDbEntity
  8
0
370
     0
390
0
100
AcDbVertex
100
AcDb2dVertex
 10
242.203217
 20
-31.260727
 30
0.0
  0
VERTEX
  5
1E5
100
AcDbEntity
  8
0
370
     0
390
0
100
AcDbVertex
100
AcDb2dVertex
 10
241.819931
 20
-31.301073
 30
0.0
  0
VERTEX
  5
1E6
100
AcDbEntity
  8
0
370
     0
390
0
100
AcDbVertex
100
AcDb2dVertex
 10
241.819931
 20
-31.659143
 30
0.0
  0
VERTEX
  5
1E7
100
AcDbEntity
  8
0
370
     0
390
0
100
AcDbVertex
100
AcDb2dVertex
 10
242.636932
 20
-31.659143
 30
0.0
  0
SEQEND
  5
1E8
100
AcDbEntity
  8
0
370
     0
390
0
  0
ARC
  5
1E9
100
AcDbEntity
  8
0
370
    35
390
0
 62
     7
100
AcDbCircle
 10
166.746841
 20
33.768417
 30
0.0
 40
122.621615
210
0.0
220
0.0
230
1.0
100
AcDbArc
 50
95.17034
 51
96.106943
  0
LINE
  5
1EA
100
AcDbEntity
  8
0
370
    35
390
0
 62
     7
 48
0.147731
100
AcDbLine
 10
155.696548
 20
155.891129
 30
0.0
 11
155.696548
 21
149.981888
 31
0.0
210
0.0
220
0.0
230
1.0
  0
LINE
  5
1EB
100
AcDbEntity
  8
0
370
    35
390
0
 62
     7
 48
0.0125
100
AcDbLine
 10
156.196548
 20
149.981888
 30
0.0
 11
155.696548
 21
149.981888
 31
0.0
210
0.0
220
0.0
230
1.0
  0
LINE
  5
1EC
100
AcDbEntity
  8
0
370
    35
390
0
 62
     7
 48
0.002185
100
AcDbLine
 10
156.283936
 20
149.981888
 30
0.0
 11
156.196548
 21
149.981888
 31
0.0
210
0.0
220
0.0
230
1.0
  0
POLYLINE
  5
1ED
100
AcDbEntity
  8
0
370
    35
390
0
 62
     7
100
AcDb2dPolyline
 66
     1
 10
0.0
 20
0.0
 30
0.0
 71
     8
  0
VERTEX
  5
1EE
100
AcDbEntity
  8
0
370
     0
390
0
100
AcDbVertex
100
AcDb2dVertex
 10
186.175827
 20
156.140976
 30
0.0
  0
VERTEX
  5
1EF
100
AcDbEntity
  8
0
370
     0
390
0
100
AcDbVertex
100
AcDb2dVertex
 10
180.685913
 20
156.378998
 30
0.0
  0
VERTEX
  5
1F0
100
AcDbEntity
  8
0
370
     0
390
0
100
AcDbVertex
100
AcDb2dVertex
 10
175.199188
 20
156.510849
 30
0.0
  0
VERTEX
  5
1F1
100
AcDbEntity
  8
0
370
     0
390
0
100
AcDbVertex
100
AcDb2dVertex
 10
169.704147
 20
156.528641
 30
0.0
  0
VERTEX
  5
1F2
100
AcDbEntity
  8
0
370
     0
390
0
100
AcDbVertex
100
AcDb2dVertex
 10
166.68399
 20
156.483505
 30
0.0
  0
VERTEX
  5
1F3
100
AcDbEntity
  8
0
370
     0
390
0
100
AcDbVertex
100
AcDb2dVertex
 10
163.66478
 20
156.393097
 30
0.0
  0
VERTEX
  5
1F4
100
AcDbEntity
  8
0
370
     0
390
0
100
AcDbVertex
100
AcDb2dVertex
 10
161.194733
 20
156.281296
 30
0.0
  0
VERTEX
  5
1F5
100
AcDbEntity
  8
0
370
     0
390
0
100
AcDbVertex
100
AcDb2dVertex
 10
156.696548
 20
155.977951
 30
0.0
  0
SEQEND
  5
1F6
100
AcDbEntity
  8
0
370
     0
390
0
  0
POLYLINE
  5
1F7
100
AcDbEntity
  8
0
370
    35
390
0
 62
     7
100
AcDb2dPolyline
 66
     1
 10
0.0
 20
0.0
 30
0.0
 71
    19
  0
VERTEX
  5
1F8
100
AcDbEntity
  8
0
370
     0
390
0
100
AcDbVertex
100
AcDb2dVertex
 10
287.154602
 20
140.560974
 30
0.0
  0
VERTEX
  5
1F9
100
AcDbEntity
  8
0
370
     0
390
0
100
AcDbVertex
100
AcDb2dVertex
 10
285.855713
 20
140.777878
 30
0.0
  0
VERTEX
  5
1FA
100
AcDbEntity
  8
0
370
     0
390
0
100
AcDbVertex
100
AcDb2dVertex
 10
283.266846
 20
141.261963
 30
0.0
  0
VERTEX
  5
1FB
100
AcDbEntity
  8
0
370
     0
390
0
100
AcDbVertex
100
AcDb2dVertex
 10
281.31073
 20
141.652939
 30
0.0
  0
VERTEX
  5
1FC
100
AcDbEntity
  8
0
370
     0
390
0
100
AcDbVertex
100
AcDb2dVertex
 10
277.461792
 20
142.453064
 30
0.0
  0
VERTEX
  5
1FD
100
AcDbEntity
  8
0
370
     0
390
0
100
AcDbVertex
100
AcDb2dVertex
 10
268.114502
 20
144.452667
 30
0.0
  0
VERTEX
  5
1FE
100
AcDbEntity
  8
0
370
     0
390
0
100
AcDbVertex
100
AcDb2dVertex
 10
258.759705
 20
146.417252
 30
0.0
  0
VERTEX
  5
1FF
100
AcDbEntity
  8
0
370
     0
390
0
100
AcDbVertex
100
AcDb2dVertex
 10
253.379349
 20
147.496323
 30
0.0
  0
VERTEX
  5
200
100
AcDbEntity
  8
0
370
     0
390
0
100
AcDbVertex
100
AcDb2dVertex
 10
248.009354
 20
148.519745
 30
0.0
  0
VERTEX
  5
201
100
AcDbEntity
  8
0
370
     0
390
0
100
AcDbVertex
100
AcDb2dVertex
 10
243.341019
 20
149.361053
 30
0.0
  0
VERTEX
  5
202
100
AcDbEntity
  8
0
370
     0
390
0
100
AcDbVertex
100
AcDb2dVertex
 10
238.648117
 20
150.161102
 30
0.0
  0
VERTEX
  5
203
100
AcDbEntity
  8
0
370
     0
390
0
100
AcDbVertex
100
AcDb2dVertex
 10
231.913223
 20
151.231583
 30
0.0
  0
VERTEX
  5
204
100
AcDbEntity
  8
0
370
     0
390
0
100
AcDbVertex
100
AcDb2dVertex
 10
225.165375
 20
152.217667
 30
0.0
  0
VERTEX
  5
205
100
AcDbEntity
  8
0
370
     0
390
0
100
AcDbVertex
100
AcDb2dVertex
 10
218.406601
 20
153.125458
 30
0.0
  0
VERTEX
  5
206
100
AcDbEntity
  8
0
370
     0
390
0
100
AcDbVertex
100
AcDb2dVertex
 10
211.616241
 20
153.956223
 30
0.0
  0
VERTEX
  5
207
100
AcDbEntity
  8
0
370
     0
390
0
100
AcDbVertex
100
AcDb2dVertex
 10
204.879257
 20
154.686523
 30
0.0
  0
VERTEX
  5
208
100
AcDbEntity
  8
0
370
     0
390
0
100
AcDbVertex
100
AcDb2dVertex
 10
198.067474
 20
155.317871
 30
0.0
  0
VERTEX
  5
209
100
AcDbEntity
  8
0
370
     0
390
0
100
AcDbVertex
100
AcDb2dVertex
 10
192.124893
 20
155.776505
 30
0.0
  0
VERTEX
  5
20A
100
AcDbEntity
  8
0
370
     0
390
0
100
AcDbVertex
100
AcDb2dVertex
 10
186.175827
 20
156.140976
 30
0.0
  0
SEQEND
  5
20B
100
AcDbEntity
  8
0
370
     0
390
0
  0
LINE
  5
20C
100
AcDbEntity
  8
0
370
    35
390
0
 62
     7
 48
0.003463
100
AcDbLine
 10
287.291443
 20
140.539551
 30
0.0
 11
287.154602
 21
140.560974
 31
0.0
210
0.0
220
0.0
230
1.0
  0
ARC
  5
20D
100
AcDbEntity
  8
0
370
    35
390
0
 62
     7
100
AcDbCircle
 10
244.617722
 20
144.89537
 30
0.0
 40
0.499945
210
0.0
220
0.0
230
1.0
100
AcDbArc
 50
191.583094
 51
254.492647
  0
ARC
  5
20E
100
AcDbEntity
  8
0
370
    35
390
0
 62
     7
100
AcDbCircle
 10
244.617844
 20
144.896072
 30
0.0
 40
0.500677
210
0.0
220
0.0
230
1.0
100
AcDbArc
 50
254.501759
 51
269.074664
  0
ARC
  5
20F
100
AcDbEntity
  8
0
370
    35
390
0
 62
     7
100
AcDbCircle
 10
207.853073
 20
-2201.473633
 30
0.0
 40
2346.156911
210
0.0
220
0.0
230
1.0
100
AcDbArc
 50
88.809234
 51
89.102324
  0
ARC
  5
210
100
AcDbEntity
  8
0
370
    35
390
0
 62
     7
100
AcDbCircle
 10
235.06813
 20
147.702316
 30
0.0
 40
0.497706
210
0.0
220
0.0
230
1.0
100
AcDbArc
 50
174.869864
 51
230.135851
  0
LINE
  5
211
100
AcDbEntity
  8
0
370
    35
390
0
 62
     7
 48
0.01348
100
AcDbLine
 10
235.162125
 20
146.973648
 30
0.0
 11
234.749069
 21
147.320251
 31
0.0
210
0.0
220
0.0
230
1.0
  0
LINE
  5
212
100
AcDbEntity
  8
0
370
    35
390
0
 62
     7
 48
0.052092
100
AcDbLine
 10
235.162125
 20
146.973648
 30
0.0
 11
236.758316
 21
145.634308
 31
0.0
210
0.0
220
0.0
230
1.0
  0
LINE
  5
213
100
AcDbEntity
  8
0
370
    35
390
0
 62
     7
 48
0.017559
100
AcDbLine
 10
237.296341
 20
145.182831
 30
0.0
 11
236.758316
 21
145.634308
 31
0.0
210
0.0
220
0.0
230
1.0
  0
ARC
  5
214
100
AcDbEntity
  8
0
370
    35
390
0
 62
     7
100
AcDbCircle
 10
237.617661
 20
145.566132
 30
0.0
 40
0.500263
210
0.0
220
0.0
230
1.0
100
AcDbArc
 50
230.028603
 51
348.905632
  0
ARC
  5
215
100
AcDbEntity
  8
0
370
    35
390
0
 62
     7
100
AcDbCircle
 10
225.114288
 20
145.668961
 30
0.0
 40
0.999983
210
0.0
220
0.0
230
1.0
100
AcDbArc
 50
149.906219
 51
269.257173
  0
LINE
  5
216
100
AcDbEntity
  8
0
370
    35
390
0
 62
     7
 48
0.156391
100
AcDbLine
 10
231.35643
 20
144.586975
 30
0.0
 11
225.101318
 21
144.669052
 31
0.0
210
0.0
220
0.0
230
1.0
  0
ARC
  5
217
100
AcDbEntity
  8
0
370
    35
390
0
 62
     7
100
AcDbCircle
 10
231.369736
 20
145.58696
 30
0.0
 40
1.000071
210
0.0
220
0.0
230
1.0
100
AcDbArc
 50
269.236683
 51
342.664389
  0
ARC
  5
218
100
AcDbEntity
  8
0
370
    35
390
0
 62
     7
100
AcDbCircle
 10
212.328842
 20
150.348969
 30
0.0
 40
1.000521
210
0.0
220
0.0
230
1.0
100
AcDbArc
 50
126.5813
 51
229.965807
  0
LINE
  5
219
100
AcDbEntity
  8
0
370
    35
390
0
 62
     7
 48
0.007173
100
AcDbLine
 10
211.905289
 20
149.398712
 30
0.0
 11
211.685486
 21
149.58316
 31
0.0
210
0.0
220
0.0
230
1.0
  0
LINE
  5
21A
100
AcDbEntity
  8
0
370
    35
390
0
 62
     7
 48
0.142685
100
AcDbLine
 10
216.277405
 20
145.730072
 30
0.0
 11
211.905289
 21
149.398712
 31
0.0
210
0.0
220
0.0
230
1.0
  0
ARC
  5
21B
100
AcDbEntity
  8
0
370
    35
390
0
 62
     7
100
AcDbCircle
 10
217.563644
 20
147.263092
 30
0.0
 40
2.001141
210
0.0
220
0.0
230
1.0
100
AcDbArc
 50
230.002512
 51
238.811721
  0
ARC
  5
21C
100
AcDbEntity
  8
0
370
    35
390
0
 62
     7
100
AcDbCircle
 10
217.562973
 20
147.262299
 30
0.0
 40
2.00009
210
0.0
220
0.0
230
1.0
100
AcDbArc
 50
238.816339
 51
303.53597
  0
LINE
  5
21D
100
AcDbEntity
  8
0
370
    35
390
0
 62
     7
 48
0.007869
100
AcDbLine
 10
218.930313
 20
145.769028
 30
0.0
 11
218.667953
 21
145.595123
 31
0.0
210
0.0
220
0.0
230
1.0
  0
LINE
  5
21E
100
AcDbEntity
  8
0
370
    35
390
0
 62
     7
 48
0.113033
100
AcDbLine
 10
222.698914
 20
148.267014
 30
0.0
 11
218.930313
 21
145.769028
 31
0.0
210
0.0
220
0.0
230
1.0
  0
ARC
  5
21F
100
AcDbEntity
  8
0
370
    35
390
0
 62
     7
100
AcDbCircle
 10
222.144485
 20
149.103806
 30
0.0
 40
1.003795
210
0.0
220
0.0
230
1.0
100
AcDbArc
 50
303.526842
 51
321.826578
  0
ARC
  5
220
100
AcDbEntity
  8
0
370
    35
390
0
 62
     7
100
AcDbCircle
 10
204.545181
 20
149.699844
 30
0.0
 40
2.001201
210
0.0
220
0.0
230
1.0
100
AcDbArc
 50
117.949799
 51
123.538834
  0
LINE
  5
221
100
AcDbEntity
  8
0
370
    35
390
0
 62
     7
 48
0.192766
100
AcDbLine
 10
197.012558
 20
147.107819
 30
0.0
 11
203.439514
 21
151.367859
 31
0.0
210
0.0
220
0.0
230
1.0
  0
LINE
  5
222
100
AcDbEntity
  8
0
370
    35
390
0
 62
     7
 48
0.008962
100
AcDbLine
 10
196.71376
 20
146.90976
 30
0.0
 11
197.012558
 21
147.107819
 31
0.0
210
0.0
220
0.0
230
1.0
  0
ARC
  5
223
100
AcDbEntity
  8
0
370
    35
390
0
 62
     7
100
AcDbCircle
 10
197.266663
 20
146.076324
 30
0.0
 40
1.000381
210
0.0
220
0.0
230
1.0
100
AcDbArc
 50
123.56028
 51
268.929686
  0
ARC
  5
224
100
AcDbEntity
  8
0
370
    35
390
0
 62
     7
100
AcDbCircle
 10
258.157959
 20
3547.348389
 30
0.0
 40
3402.817276
210
0.0
220
0.0
230
1.0
100
AcDbArc
 50
268.974363
 51
269.196767
  0
LINE
  5
225
100
AcDbEntity
  8
0
370
    35
390
0
 62
     7
 48
0.005133
100
AcDbLine
 10
210.660645
 20
144.862305
 30
0.0
 11
210.455338
 21
144.865234
 31
0.0
210
0.0
220
0.0
230
1.0
  0
ARC
  5
226
100
AcDbEntity
  8
0
370
    35
390
0
 62
     7
100
AcDbCircle
 10
210.676239
 20
145.859985
 30
0.0
 40
0.997748
210
0.0
220
0.0
230
1.0
100
AcDbArc
 50
269.103972
 51
307.598792
  0
ARC
  5
227
100
AcDbEntity
  8
0
370
    35
390
0
 62
     7
100
AcDbCircle
 10
182.155075
 20
152.822571
 30
0.0
 40
1.000586
210
0.0
220
0.0
230
1.0
100
AcDbArc
 50
110.705981
 51
229.967569
  0
LINE
  5
228
100
AcDbEntity
  8
0
370
    35
390
0
 62
     7
 48
0.009882
100
AcDbLine
 10
181.814453
 20
151.802551
 30
0.0
 11
181.511642
 21
152.056641
 31
0.0
210
0.0
220
0.0
230
1.0
  0
LINE
  5
229
100
AcDbEntity
  8
0
370
    35
390
0
 62
     7
 48
0.218369
100
AcDbLine
 10
188.505676
 20
146.187958
 30
0.0
 11
181.814453
 21
151.802551
 31
0.0
210
0.0
220
0.0
230
1.0
  0
ARC
  5
22A
100
AcDbEntity
  8
0
370
    35
390
0
 62
     7
100
AcDbCircle
 10
189.792297
 20
147.721558
 30
0.0
 40
2.001832
210
0.0
220
0.0
230
1.0
100
AcDbArc
 50
230.005121
 51
241.142851
  0
ARC
  5
22B
100
AcDbEntity
  8
0
370
    35
390
0
 62
     7
100
AcDbCircle
 10
189.791229
 20
147.719986
 30
0.0
 40
1.999909
210
0.0
220
0.0
230
1.0
100
AcDbArc
 50
241.147755
 51
290.643903
  0
ARC
  5
22C
100
AcDbEntity
  8
0
370
    35
390
0
 62
     7
100
AcDbCircle
 10
175.15448
 20
151.516998
 30
0.0
 40
1.999422
210
0.0
220
0.0
230
1.0
100
AcDbArc
 50
105.473468
 51
123.542262
  0
LINE
  5
22D
100
AcDbEntity
  8
0
370
    35
390
0
 62
     7
 48
0.233024
100
AcDbLine
 10
166.280518
 20
148.033752
 30
0.0
 11
174.049698
 21
153.183487
 31
0.0
210
0.0
220
0.0
230
1.0
  0
LINE
  5
22E
100
AcDbEntity
  8
0
370
    35
390
0
 62
     7
 48
0.011055
100
AcDbLine
 10
165.911926
 20
147.789429
 30
0.0
 11
166.280518
 21
148.033752
 31
0.0
210
0.0
220
0.0
230
1.0
  0
ARC
  5
22F
100
AcDbEntity
  8
0
370
    35
390
0
 62
     7
100
AcDbCircle
 10
166.464767
 20
146.955963
 30
0.0
 40
1.000334
210
0.0
220
0.0
230
1.0
100
AcDbArc
 50
123.556934
 51
253.556297
  0
ARC
  5
230
100
AcDbEntity
  8
0
370
    35
390
0
 62
     7
100
AcDbCircle
 10
166.464615
 20
146.957153
 30
0.0
 40
1.001237
210
0.0
220
0.0
230
1.0
100
AcDbArc
 50
253.584007
 51
267.394437
  0
POLYLINE
  5
231
100
AcDbEntity
  8
0
370
    35
390
0
 62
     7
100
AcDb2dPolyline
 66
     1
 10
0.0
 20
0.0
 30
0.0
 71
     3
  0
VERTEX
  5
232
100
AcDbEntity
  8
0
370
     0
390
0
100
AcDbVertex
100
AcDb2dVertex
 10
182.559113
 20
145.397415
 30
0.0
  0
VERTEX
  5
233
100
AcDbEntity
  8
0
370
     0
390
0
100
AcDbVertex
100
AcDb2dVertex
 10
175.305283
 20
145.612183
 30
0.0
  0
VERTEX
  5
234
100
AcDbEntity
  8
0
370
     0
390
0
100
AcDbVertex
100
AcDb2dVertex
 10
166.419098
 20
145.95694
 30
0.0
  0
SEQEND
  5
235
100
AcDbEntity
  8
0
370
     0
390
0
  0
LINE
  5
236
100
AcDbEntity
  8
0
370
    35
390
0
 62
     7
 48
0.005837
100
AcDbLine
 10
182.792496
 20
145.391266
 30
0.0
 11
182.559113
 21
145.397415
 31
0.0
210
0.0
220
0.0
230
1.0
  0
ARC
  5
237
100
AcDbEntity
  8
0
370
    35
390
0
 62
     7
100
AcDbCircle
 10
182.819016
 20
146.395615
 30
0.0
 40
1.004695
210
0.0
220
0.0
230
1.0
100
AcDbArc
 50
268.487541
 51
283.261841
  0
ARC
  5
238
100
AcDbEntity
  8
0
370
    35
390
0
 62
     7
100
AcDbCircle
 10
160.196655
 20
152.719254
 30
0.0
 40
1.000129
210
0.0
220
0.0
230
1.0
100
AcDbArc
 50
107.621426
 51
179.995265
  0
LINE
  5
239
100
AcDbEntity
  8
0
370
    35
390
0
 62
     7
 48
0.106511
100
AcDbLine
 10
159.196548
 20
152.71933
 30
0.0
 11
159.196548
 21
148.458893
 31
0.0
210
0.0
220
0.0
230
1.0
  0
LINE
  5
23A
100
AcDbEntity
  8
0
370
    35
390
0
 62
     7
 48
0.006469
100
AcDbLine
 10
159.196548
 20
148.458893
 30
0.0
 11
159.196548
 21
148.200119
 31
0.0
210
0.0
220
0.0
230
1.0
  0
ARC
  5
23B
100
AcDbEntity
  8
0
370
    35
390
0
 62
     7
100
AcDbCircle
 10
160.196808
 20
148.200455
 30
0.0
 40
1.000388
210
0.0
220
0.0
230
1.0
100
AcDbArc
 50
180.018915
 51
271.240203
  0
LINE
  5
23C
100
AcDbEntity
  8
0
370
    35
390
0
 62
     7
 48
0.011788
100
AcDbLine
 10
147.613541
 20
148.189682
 30
0.0
 11
147.613541
 21
148.661209
 31
0.0
210
0.0
220
0.0
230
1.0
  0
ARC
  5
23D
100
AcDbEntity
  8
0
370
    35
390
0
 62
     7
100
AcDbCircle
 10
148.613586
 20
148.189713
 30
0.0
 40
1.000041
210
0.0
220
0.0
230
1.0
100
AcDbArc
 50
180.001347
 51
234.776159
  0
ARC
  5
23E
100
AcDbEntity
  8
0
370
    35
390
0
 62
     7
100
AcDbCircle
 10
148.615601
 20
148.195129
 30
0.0
 40
1.005661
210
0.0
220
0.0
230
1.0
100
AcDbArc
 50
234.861072
 51
263.865012
  0
ARC
  5
23F
100
AcDbEntity
  8
0
370
    35
390
0
 62
     7
100
AcDbCircle
 10
167.513199
 20
327.434845
 30
0.0
 40
181.238907
210
0.0
220
0.0
230
1.0
100
AcDbArc
 50
263.980777
 51
265.124936
  0
LINE
  5
240
100
AcDbEntity
  8
0
370
    35
390
0
 62
     7
 48
0.00191
100
AcDbLine
 10
152.187225
 20
146.847824
 30
0.0
 11
152.110916
 21
146.851456
 31
0.0
210
0.0
220
0.0
230
1.0
  0
ARC
  5
241
100
AcDbEntity
  8
0
370
    35
390
0
 62
     7
100
AcDbCircle
 10
163.111069
 20
64.178558
 30
0.0
 40
89.492775
210
0.0
220
0.0
230
1.0
100
AcDbArc
 50
97.347654
 51
99.429523
  0
ARC
  5
242
100
AcDbEntity
  8
0
370
    35
390
0
 62
     7
100
AcDbCircle
 10
148.613571
 20
151.475586
 30
0.0
 40
1.00004
210
0.0
220
0.0
230
1.0
100
AcDbArc
 50
99.466228
 51
179.998161
  0
LINE
  5
243
100
AcDbEntity
  8
0
370
    35
390
0
 62
     7
 48
0.07036
100
AcDbLine
 10
147.613541
 20
151.475616
 30
0.0
 11
147.613541
 21
148.661209
 31
0.0
210
0.0
220
0.0
230
1.0
  0
POLYLINE
  5
244
100
AcDbEntity
  8
0
370
    35
390
0
 62
     7
100
AcDb2dPolyline
 66
     1
 10
0.0
 20
0.0
 30
0.0
 71
     6
  0
VERTEX
  5
245
100
AcDbEntity
  8
0
370
     0
390
0
100
AcDbVertex
100
AcDb2dVertex
 10
137.097748
 20
149.13028
 30
0.0
  0
VERTEX
  5
246
100
AcDbEntity
  8
0
370
     0
390
0
100
AcDbVertex
100
AcDb2dVertex
 10
138.255325
 20
149.710846
 30
0.0
  0
VERTEX
  5
247
100
AcDbEntity
  8
0
370
     0
390
0
100
AcDbVertex
100
AcDb2dVertex
 10
139.476944
 20
150.213043
 30
0.0
  0
VERTEX
  5
248
100
AcDbEntity
  8
0
370
     0
390
0
100
AcDbVertex
100
AcDb2dVertex
 10
140.435287
 20
150.553421
 30
0.0
  0
VERTEX
  5
249
100
AcDbEntity
  8
0
370
     0
390
0
100
AcDbVertex
100
AcDb2dVertex
 10
141.407181
 20
150.865326
 30
0.0
  0
VERTEX
  5
24A
100
AcDbEntity
  8
0
370
     0
390
0
100
AcDbVertex
100
AcDb2dVertex
 10
143.239182
 20
151.381317
 30
0.0
  0
SEQEND
  5
24B
100
AcDbEntity
  8
0
370
     0
390
0
  0
POLYLINE
  5
24C
100
AcDbEntity
  8
0
370
    35
390
0
 62
     7
100
AcDb2dPolyline
 66
     1
 10
0.0
 20
0.0
 30
0.0
 71
     5
  0
VERTEX
  5
24D
100
AcDbEntity
  8
0
370
     0
390
0
100
AcDbVertex
100
AcDb2dVertex
 10
143.32933
 20
147.844376
 30
0.0
  0
VERTEX
  5
24E
100
AcDbEntity
  8
0
370
     0
390
0
100
AcDbVertex
100
AcDb2dVertex
 10
141.415863
 20
148.154922
 30
0.0
  0
VERTEX
  5
24F
100
AcDbEntity
  8
0
370
     0
390
0
100
AcDbVertex
100
AcDb2dVertex
 10
139.541565
 20
148.519806
 30
0.0
  0
VERTEX
  5
250
100
AcDbEntity
  8
0
370
     0
390
0
100
AcDbVertex
100
AcDb2dVertex
 10
138.306442
 20
148.803268
 30
0.0
  0
VERTEX
  5
251
100
AcDbEntity
  8
0
370
     0
390
0
100
AcDbVertex
100
AcDb2dVertex
 10
137.097748
 20
149.13028
 30
0.0
  0
SEQEND
  5
252
100
AcDbEntity
  8
0
370
     0
390
0
  0
LINE
  5
253
100
AcDbEntity
  8
0
370
    35
390
0
 62
     7
 48
0.003494
100
AcDbLine
 10
143.467575
 20
147.823868
 30
0.0
 11
143.32933
 21
147.844376
 31
0.0
210
0.0
220
0.0
230
1.0
  0
LINE
  5
254
100
AcDbEntity
  8
0
370
    35
390
0
 62
     7
 48
0.001899
100
AcDbLine
 10
143.543091
 20
147.815643
 30
0.0
 11
143.467575
 21
147.823868
 31
0.0
210
0.0
220
0.0
230
1.0
  0
POLYLINE
  5
255
100
AcDbEntity
  8
0
370
    35
390
0
 62
     7
100
AcDb2dPolyline
 66
     1
 10
0.0
 20
0.0
 30
0.0
 71
     9
  0
VERTEX
  5
256
100
AcDbEntity
  8
0
370
     0
390
0
100
AcDbVertex
100
AcDb2dVertex
 10
240.617752
 20
141.807922
 30
0.0
  0
VERTEX
  5
257
100
AcDbEntity
  8
0
370
     0
390
0
100
AcDbVertex
100
AcDb2dVertex
 10
227.343643
 20
141.996552
 30
0.0
  0
VERTEX
  5
258
100
AcDbEntity
  8
0
370
     0
390
0
100
AcDbVertex
100
AcDb2dVertex
 10
210.642624
 20
142.225891
 30
0.0
  0
VERTEX
  5
259
100
AcDbEntity
  8
0
370
     0
390
0
100
AcDbVertex
100
AcDb2dVertex
 10
202.314438
 20
142.355713
 30
0.0
  0
VERTEX
  5
25A
100
AcDbEntity
  8
0
370
     0
390
0
100
AcDbVertex
100
AcDb2dVertex
 10
189.800858
 20
142.594467
 30
0.0
  0
VERTEX
  5
25B
100
AcDbEntity
  8
0
370
     0
390
0
100
AcDbVertex
100
AcDb2dVertex
 10
181.273239
 20
142.804306
 30
0.0
  0
VERTEX
  5
25C
100
AcDbEntity
  8
0
370
     0
390
0
100
AcDbVertex
100
AcDb2dVertex
 10
172.747147
 20
143.07312
 30
0.0
  0
VERTEX
  5
25D
100
AcDbEntity
  8
0
370
     0
390
0
100
AcDbVertex
100
AcDb2dVertex
 10
167.510468
 20
143.279633
 30
0.0
  0
VERTEX
  5
25E
100
AcDbEntity
  8
0
370
     0
390
0
100
AcDbVertex
100
AcDb2dVertex
 10
162.275925
 20
143.529785
 30
0.0
  0
SEQEND
  5
25F
100
AcDbEntity
  8
0
370
     0
390
0
  0
POLYLINE
  5
260
100
AcDbEntity
  8
0
370
    35
390
0
 62
     7
100
AcDb2dPolyline
 66
     1
 10
0.0
 20
0.0
 30
0.0
 71
    19
  0
VERTEX
  5
261
100
AcDbEntity
  8
0
370
     0
390
0
100
AcDbVertex
100
AcDb2dVertex
 10
132.537766
 20
148.544724
 30
0.0
  0
VERTEX
  5
262
100
AcDbEntity
  8
0
370
     0
390
0
100
AcDbVertex
100
AcDb2dVertex
 10
132.598541
 20
148.315582
 30
0.0
  0
VERTEX
  5
263
100
AcDbEntity
  8
0
370
     0
390
0
100
AcDbVertex
100
AcDb2dVertex
 10
132.694519
 20
148.186996
 30
0.0
  0
VERTEX
  5
264
100
AcDbEntity
  8
0
370
     0
390
0
100
AcDbVertex
100
AcDb2dVertex
 10
132.990463
 20
147.91774
 30
0.0
  0
VERTEX
  5
265
100
AcDbEntity
  8
0
370
     0
390
0
100
AcDbVertex
100
AcDb2dVertex
 10
133.186386
 20
147.779312
 30
0.0
  0
VERTEX
  5
266
100
AcDbEntity
  8
0
370
     0
390
0
100
AcDbVertex
100
AcDb2dVertex
 10
133.811279
 20
147.429871
 30
0.0
  0
VERTEX
  5
267
100
AcDbEntity
  8
0
370
     0
390
0
100
AcDbVertex
100
AcDb2dVertex
 10
134.808105
 20
147.008026
 30
0.0
  0
VERTEX
  5
268
100
AcDbEntity
  8
0
370
     0
390
0
100
AcDbVertex
100
AcDb2dVertex
 10
135.573273
 20
146.745956
 30
0.0
  0
VERTEX
  5
269
100
AcDbEntity
  8
0
370
     0
390
0
100
AcDbVertex
100
AcDb2dVertex
 10
136.344681
 20
146.517502
 30
0.0
  0
VERTEX
  5
26A
100
AcDbEntity
  8
0
370
     0
390
0
100
AcDbVertex
100
AcDb2dVertex
 10
137.373749
 20
146.251038
 30
0.0
  0
VERTEX
  5
26B
100
AcDbEntity
  8
0
370
     0
390
0
100
AcDbVertex
100
AcDb2dVertex
 10
138.413895
 20
146.012817
 30
0.0
  0
VERTEX
  5
26C
100
AcDbEntity
  8
0
370
     0
390
0
100
AcDbVertex
100
AcDb2dVertex
 10
139.875565
 20
145.717575
 30
0.0
  0
VERTEX
  5
26D
100
AcDbEntity
  8
0
370
     0
390
0
100
AcDbVertex
100
AcDb2dVertex
 10
142.85141
 20
145.2267
 30
0.0
  0
VERTEX
  5
26E
100
AcDbEntity
  8
0
370
     0
390
0
100
AcDbVertex
100
AcDb2dVertex
 10
144.364883
 20
145.017944
 30
0.0
  0
VERTEX
  5
26F
100
AcDbEntity
  8
0
370
     0
390
0
100
AcDbVertex
100
AcDb2dVertex
 10
147.403641
 20
144.654785
 30
0.0
  0
VERTEX
  5
270
100
AcDbEntity
  8
0
370
     0
390
0
100
AcDbVertex
100
AcDb2dVertex
 10
150.449036
 20
144.351135
 30
0.0
  0
VERTEX
  5
271
100
AcDbEntity
  8
0
370
     0
390
0
100
AcDbVertex
100
AcDb2dVertex
 10
153.496429
 20
144.094421
 30
0.0
  0
VERTEX
  5
272
100
AcDbEntity
  8
0
370
     0
390
0
100
AcDbVertex
100
AcDb2dVertex
 10
159.601059
 20
143.679352
 30
0.0
  0
VERTEX
  5
273
100
AcDbEntity
  8
0
370
     0
390
0
100
AcDbVertex
100
AcDb2dVertex
 10
162.275925
 20
143.529785
 30
0.0
  0
SEQEND
  5
274
100
AcDbEntity
  8
0
370
     0
390
0
  0
LINE
  5
275
100
AcDbEntity
  8
0
370
    35
390
0
 62
     7
 48
0.000891
100
AcDbLine
 10
132.537766
 20
148.544724
 30
0.0
 11
132.540848
 21
148.580231
 31
0.0
210
0.0
220
0.0
230
1.0
  0
POLYLINE
  5
276
100
AcDbEntity
  8
0
370
    35
390
0
 62
     7
100
AcDb2dPolyline
 66
     1
 10
0.0
 20
0.0
 30
0.0
 71
    22
  0
VERTEX
  5
277
100
AcDbEntity
  8
0
370
     0
390
0
100
AcDbVertex
100
AcDb2dVertex
 10
132.540848
 20
148.580231
 30
0.0
  0
VERTEX
  5
278
100
AcDbEntity
  8
0
370
     0
390
0
100
AcDbVertex
100
AcDb2dVertex
 10
132.568024
 20
148.710648
 30
0.0
  0
VERTEX
  5
279
100
AcDbEntity
  8
0
370
     0
390
0
100
AcDbVertex
100
AcDb2dVertex
 10
132.667908
 20
148.957703
 30
0.0
  0
VERTEX
  5
27A
100
AcDbEntity
  8
0
370
     0
390
0
100
AcDbVertex
100
AcDb2dVertex
 10
132.954193
 20
149.401871
 30
0.0
  0
VERTEX
  5
27B
100
AcDbEntity
  8
0
370
     0
390
0
100
AcDbVertex
100
AcDb2dVertex
 10
133.212402
 20
149.702515
 30
0.0
  0
VERTEX
  5
27C
100
AcDbEntity
  8
0
370
     0
390
0
100
AcDbVertex
100
AcDb2dVertex
 10
133.496338
 20
149.979797
 30
0.0
  0
VERTEX
  5
27D
100
AcDbEntity
  8
0
370
     0
390
0
100
AcDbVertex
100
AcDb2dVertex
 10
133.897079
 20
150.312027
 30
0.0
  0
VERTEX
  5
27E
100
AcDbEntity
  8
0
370
     0
390
0
100
AcDbVertex
100
AcDb2dVertex
 10
134.319672
 20
150.615082
 30
0.0
  0
VERTEX
  5
27F
100
AcDbEntity
  8
0
370
     0
390
0
100
AcDbVertex
100
AcDb2dVertex
 10
134.881851
 20
150.972672
 30
0.0
  0
VERTEX
  5
280
100
AcDbEntity
  8
0
370
     0
390
0
100
AcDbVertex
100
AcDb2dVertex
 10
135.459595
 20
151.304016
 30
0.0
  0
VERTEX
  5
281
100
AcDbEntity
  8
0
370
     0
390
0
100
AcDbVertex
100
AcDb2dVertex
 10
136.281952
 20
151.726974
 30
0.0
  0
VERTEX
  5
282
100
AcDbEntity
  8
0
370
     0
390
0
100
AcDbVertex
100
AcDb2dVertex
 10
137.124191
 20
152.108826
 30
0.0
  0
VERTEX
  5
283
100
AcDbEntity
  8
0
370
     0
390
0
100
AcDbVertex
100
AcDb2dVertex
 10
138.113251
 20
152.503632
 30
0.0
  0
VERTEX
  5
284
100
AcDbEntity
  8
0
370
     0
390
0
100
AcDbVertex
100
AcDb2dVertex
 10
139.117035
 20
152.860153
 30
0.0
  0
VERTEX
  5
285
100
AcDbEntity
  8
0
370
     0
390
0
100
AcDbVertex
100
AcDb2dVertex
 10
140.33992
 20
153.249969
 30
0.0
  0
VERTEX
  5
286
100
AcDbEntity
  8
0
370
     0
390
0
100
AcDbVertex
100
AcDb2dVertex
 10
141.573181
 20
153.602844
 30
0.0
  0
VERTEX
  5
287
100
AcDbEntity
  8
0
370
     0
390
0
100
AcDbVertex
100
AcDb2dVertex
 10
143.119705
 20
153.994858
 30
0.0
  0
VERTEX
  5
288
100
AcDbEntity
  8
0
370
     0
390
0
100
AcDbVertex
100
AcDb2dVertex
 10
144.677963
 20
154.340347
 30
0.0
  0
VERTEX
  5
289
100
AcDbEntity
  8
0
370
     0
390
0
100
AcDbVertex
100
AcDb2dVertex
 10
146.433533
 20
154.680969
 30
0.0
  0
VERTEX
  5
28A
100
AcDbEntity
  8
0
370
     0
390
0
100
AcDbVertex
100
AcDb2dVertex
 10
148.196243
 20
154.98027
 30
0.0
  0
VERTEX
  5
28B
100
AcDbEntity
  8
0
370
     0
390
0
100
AcDbVertex
100
AcDb2dVertex
 10
150.305191
 20
155.2901
 30
0.0
  0
VERTEX
  5
28C
100
AcDbEntity
  8
0
370
     0
390
0
100
AcDbVertex
100
AcDb2dVertex
 10
153.23671
 20
155.644302
 30
0.0
  0
SEQEND
  5
28D
100
AcDbEntity
  8
0
370
     0
390
0
  0
ARC
  5
28E
100
AcDbEntity
  8
0
370
    35
390
0
 62
     7
100
AcDbCircle
 10
166.321762
 20
33.286369
 30
0.0
 40
123.055622
210
0.0
220
0.0
230
1.0
100
AcDbArc
 50
95.146222
 51
96.104054
  0
LINE
  5
28F
100
AcDbEntity
  8
0
370
    35
390
0
 62
     7
 48
0.148542
100
AcDbLine
 10
155.283936
 20
155.845978
 30
0.0
 11
155.283936
 21
149.904312
 31
0.0
210
0.0
220
0.0
230
1.0
  0
LINE
  5
290
100
AcDbEntity
  8
0
370
    35
390
0
 62
     7
 48
0.0125
100
AcDbLine
 10
155.283936
 20
149.904312
 30
0.0
 11
155.783936
 21
149.904312
 31
0.0
210
0.0
220
0.0
230
1.0
  0
LINE
  5
291
100
AcDbEntity
  8
0
370
    35
390
0
 62
     7
 48
0.0125
100
AcDbLine
 10
155.783936
 20
149.904312
 30
0.0
 11
156.283936
 21
149.904312
 31
0.0
210
0.0
220
0.0
230
1.0
  0
LINE
  5
292
100
AcDbEntity
  8
0
370
    35
390
0
 62
     7
 48
0.150702
100
AcDbLine
 10
156.283936
 20
155.932404
 30
0.0
 11
156.283936
 21
149.904312
 31
0.0
210
0.0
220
0.0
230
1.0
  0
POLYLINE
  5
293
100
AcDbEntity
  8
0
370
    35
390
0
 62
     7
100
AcDb2dPolyline
 66
     1
 10
0.0
 20
0.0
 30
0.0
 71
     8
  0
VERTEX
  5
294
100
AcDbEntity
  8
0
370
     0
390
0
100
AcDbVertex
100
AcDb2dVertex
 10
156.283936
 20
155.932404
 30
0.0
  0
VERTEX
  5
295
100
AcDbEntity
  8
0
370
     0
390
0
100
AcDbVertex
100
AcDb2dVertex
 10
159.992081
 20
156.190964
 30
0.0
  0
VERTEX
  5
296
100
AcDbEntity
  8
0
370
     0
390
0
100
AcDbVertex
100
AcDb2dVertex
 10
162.741928
 20
156.325531
 30
0.0
  0
VERTEX
  5
297
100
AcDbEntity
  8
0
370
     0
390
0
100
AcDbVertex
100
AcDb2dVertex
 10
165.500381
 20
156.417053
 30
0.0
  0
VERTEX
  5
298
100
AcDbEntity
  8
0
370
     0
390
0
100
AcDbVertex
100
AcDb2dVertex
 10
168.259888
 20
156.469666
 30
0.0
  0
VERTEX
  5
299
100
AcDbEntity
  8
0
370
     0
390
0
100
AcDbVertex
100
AcDb2dVertex
 10
173.779541
 20
156.47406
 30
0.0
  0
VERTEX
  5
29A
100
AcDbEntity
  8
0
370
     0
390
0
100
AcDbVertex
100
AcDb2dVertex
 10
179.848083
 20
156.344009
 30
0.0
  0
VERTEX
  5
29B
100
AcDbEntity
  8
0
370
     0
390
0
100
AcDbVertex
100
AcDb2dVertex
 10
185.91243
 20
156.084198
 30
0.0
  0
SEQEND
  5
29C
100
AcDbEntity
  8
0
370
     0
390
0
  0
POLYLINE
  5
29D
100
AcDbEntity
  8
0
370
    35
390
0
 62
     7
100
AcDb2dPolyline
 66
     1
 10
0.0
 20
0.0
 30
0.0
 71
    21
  0
VERTEX
  5
29E
100
AcDbEntity
  8
0
370
     0
390
0
100
AcDbVertex
100
AcDb2dVertex
 10
287.374756
 20
140.385742
 30
0.0
  0
VERTEX
  5
29F
100
AcDbEntity
  8
0
370
     0
390
0
100
AcDbVertex
100
AcDb2dVertex
 10
285.241638
 20
140.753403
 30
0.0
  0
VERTEX
  5
2A0
100
AcDbEntity
  8
0
370
     0
390
0
100
AcDbVertex
100
AcDb2dVertex
 10
280.994019
 20
141.589539
 30
0.0
  0
VERTEX
  5
2A1
100
AcDbEntity
  8
0
370
     0
390
0
100
AcDbVertex
100
AcDb2dVertex
 10
274.7948
 20
142.896927
 30
0.0
  0
VERTEX
  5
2A2
100
AcDbEntity
  8
0
370
     0
390
0
100
AcDbVertex
100
AcDb2dVertex
 10
267.911743
 20
144.375519
 30
0.0
  0
VERTEX
  5
2A3
100
AcDbEntity
  8
0
370
     0
390
0
100
AcDbVertex
100
AcDb2dVertex
 10
261.024048
 20
145.831955
 30
0.0
  0
VERTEX
  5
2A4
100
AcDbEntity
  8
0
370
     0
390
0
100
AcDbVertex
100
AcDb2dVertex
 10
255.989029
 20
146.862503
 30
0.0
  0
VERTEX
  5
2A5
100
AcDbEntity
  8
0
370
     0
390
0
100
AcDbVertex
100
AcDb2dVertex
 10
250.945877
 20
147.852478
 30
0.0
  0
VERTEX
  5
2A6
100
AcDbEntity
  8
0
370
     0
390
0
100
AcDbVertex
100
AcDb2dVertex
 10
245.893326
 20
148.793732
 30
0.0
  0
VERTEX
  5
2A7
100
AcDbEntity
  8
0
370
     0
390
0
100
AcDbVertex
100
AcDb2dVertex
 10
240.831467
 20
149.683594
 30
0.0
  0
VERTEX
  5
2A8
100
AcDbEntity
  8
0
370
     0
390
0
100
AcDbVertex
100
AcDb2dVertex
 10
235.76088
 20
150.522461
 30
0.0
  0
VERTEX
  5
2A9
100
AcDbEntity
  8
0
370
     0
390
0
100
AcDbVertex
100
AcDb2dVertex
 10
230.682327
 20
151.311661
 30
0.0
  0
VERTEX
  5
2AA
100
AcDbEntity
  8
0
370
     0
390
0
100
AcDbVertex
100
AcDb2dVertex
 10
225.59671
 20
152.053818
 30
0.0
  0
VERTEX
  5
2AB
100
AcDbEntity
  8
0
370
     0
390
0
100
AcDbVertex
100
AcDb2dVertex
 10
220.504822
 20
152.751678
 30
0.0
  0
VERTEX
  5
2AC
100
AcDbEntity
  8
0
370
     0
390
0
100
AcDbVertex
100
AcDb2dVertex
 10
215.40715
 20
153.405884
 30
0.0
  0
VERTEX
  5
2AD
100
AcDbEntity
  8
0
370
     0
390
0
100
AcDbVertex
100
AcDb2dVertex
 10
210.303635
 20
154.012848
 30
0.0
  0
VERTEX
  5
2AE
100
AcDbEntity
  8
0
370
     0
390
0
100
AcDbVertex
100
AcDb2dVertex
 10
202.187271
 20
154.862076
 30
0.0
  0
VERTEX
  5
2AF
100
AcDbEntity
  8
0
370
     0
390
0
100
AcDbVertex
100
AcDb2dVertex
 10
198.050659
 20
155.235931
 30
0.0
  0
VERTEX
  5
2B0
100
AcDbEntity
  8
0
370
     0
390
0
100
AcDbVertex
100
AcDb2dVertex
 10
193.910507
 20
155.568695
 30
0.0
  0
VERTEX
  5
2B1
100
AcDbEntity
  8
0
370
     0
390
0
100
AcDbVertex
100
AcDb2dVertex
 10
189.912857
 20
155.848633
 30
0.0
  0
VERTEX
  5
2B2
100
AcDbEntity
  8
0
370
     0
390
0
100
AcDbVertex
100
AcDb2dVertex
 10
185.91243
 20
156.084198
 30
0.0
  0
SEQEND
  5
2B3
100
AcDbEntity
  8
0
370
     0
390
0
  0
LINE
  5
2B4
100
AcDbEntity
  8
0
370
    35
390
0
 62
     7
 48
0.003478
100
AcDbLine
 10
287.512207
 20
140.364136
 30
0.0
 11
287.374756
 21
140.385742
 31
0.0
210
0.0
220
0.0
230
1.0
  0
LINE
  5
2B5
100
AcDbEntity
  8
0
370
    35
390
0
 62
     7
 48
0.003211
100
AcDbLine
 10
287.384094
 20
140.373077
 30
0.0
 11
287.512207
 21
140.364136
 31
0.0
210
0.0
220
0.0
230
1.0
  0
POLYLINE
  5
2B6
100
AcDbEntity
  8
0
370
    35
390
0
 62
     7
100
AcDb2dPolyline
 66
     1
 10
0.0
 20
0.0
 30
0.0
 71
     8
  0
VERTEX
  5
2B7
100
AcDbEntity
  8
0
370
     0
390
0
100
AcDbVertex
100
AcDb2dVertex
 10
287.384094
 20
140.373077
 30
0.0
  0
VERTEX
  5
2B8
100
AcDbEntity
  8
0
370
     0
390
0
100
AcDbVertex
100
AcDb2dVertex
 10
285.806885
 20
140.472092
 30
0.0
  0
VERTEX
  5
2B9
100
AcDbEntity
  8
0
370
     0
390
0
100
AcDbVertex
100
AcDb2dVertex
 10
282.650818
 20
140.644135
 30
0.0
  0
VERTEX
  5
2BA
100
AcDbEntity
  8
0
370
     0
390
0
100
AcDbVertex
100
AcDb2dVertex
 10
275.54657
 20
140.966644
 30
0.0
  0
VERTEX
  5
2BB
100
AcDbEntity
  8
0
370
     0
390
0
100
AcDbVertex
100
AcDb2dVertex
 10
270.216309
 20
141.158524
 30
0.0
  0
VERTEX
  5
2BC
100
AcDbEntity
  8
0
370
     0
390
0
100
AcDbVertex
100
AcDb2dVertex
 10
264.885071
 20
141.318893
 30
0.0
  0
VERTEX
  5
2BD
100
AcDbEntity
  8
0
370
     0
390
0
100
AcDbVertex
100
AcDb2dVertex
 10
252.372421
 20
141.606873
 30
0.0
  0
VERTEX
  5
2BE
100
AcDbEntity
  8
0
370
     0
390
0
100
AcDbVertex
100
AcDb2dVertex
 10
241.617752
 20
141.79245
 30
0.0
  0
SEQEND
  5
2BF
100
AcDbEntity
  8
0
370
     0
390
0
  0
LINE
  5
2C0
100
AcDbEntity
  8
0
370
    35
390
0
 62
     7
 48
0.098124
100
AcDbLine
 10
241.617752
 20
141.79245
 30
0.0
 11
241.617752
 21
145.717422
 31
0.0
210
0.0
220
0.0
230
1.0
  0
LINE
  5
2C1
100
AcDbEntity
  8
0
370
    35
390
0
 62
     7
 48
0.025
100
AcDbLine
 10
241.617752
 20
145.717422
 30
0.0
 11
240.617752
 21
145.717422
 31
0.0
210
0.0
220
0.0
230
1.0
  0
LINE
  5
2C2
100
AcDbEntity
  8
0
370
    35
390
0
 62
     7
 48
0.097738
100
AcDbLine
 10
240.617752
 20
141.807922
 30
0.0
 11
240.617752
 21
145.717422
 31
0.0
210
0.0
220
0.0
230
1.0
  0
ARC
  5
2C3
100
AcDbEntity
  8
0
370
    35
390
0
 62
     7
100
AcDbCircle
 10
244.632248
 20
145.956802
 30
0.0
 40
0.505503
210
0.0
220
0.0
230
1.0
100
AcDbArc
 50
80.244935
 51
180.005022
  0
LINE
  5
2C4
100
AcDbEntity
  8
0
370
    35
390
0
 62
     7
 48
0.018933
100
AcDbLine
 10
244.126633
 20
145.199448
 30
0.0
 11
244.126633
 21
145.956757
 31
0.0
210
0.0
220
0.0
230
1.0
  0
LINE
  5
2C5
100
AcDbEntity
  8
0
370
    35
390
0
 62
     7
 48
0.011108
100
AcDbLine
 10
244.12822
 20
144.755127
 30
0.0
 11
244.126633
 21
145.199448
 31
0.0
210
0.0
220
0.0
230
1.0
  0
ARC
  5
2C6
100
AcDbEntity
  8
0
370
    35
390
0
 62
     7
100
AcDbCircle
 10
244.633408
 20
144.758881
 30
0.0
 40
0.505188
210
0.0
220
0.0
230
1.0
100
AcDbArc
 50
184.40615
 51
254.648942
  0
LINE
  5
2C7
100
AcDbEntity
  8
0
370
    35
390
0
 62
     7
 48
0.000877
100
AcDbLine
 10
244.129715
 20
144.720062
 30
0.0
 11
244.12822
 21
144.755127
 31
0.0
210
0.0
220
0.0
230
1.0
  0
ARC
  5
2C8
100
AcDbEntity
  8
0
370
    35
390
0
 62
     7
100
AcDbCircle
 10
244.634903
 20
144.764252
 30
0.0
 40
0.510796
210
0.0
220
0.0
230
1.0
100
AcDbArc
 50
254.647863
 51
269.043156
  0
ARC
  5
2C9
100
AcDbEntity
  8
0
370
    35
390
0
 62
     7
100
AcDbCircle
 10
206.873947
 20
-2185.68335
 30
0.0
 40
2330.242324
210
0.0
220
0.0
230
1.0
100
AcDbArc
 50
88.763684
 51
89.071705
  0
LINE
  5
2CA
100
AcDbEntity
  8
0
370
    35
390
0
 62
     7
 48
0.006718
100
AcDbLine
 10
257.15155
 20
144.016403
 30
0.0
 11
257.420227
 21
144.011398
 31
0.0
210
0.0
220
0.0
230
1.0
  0
ARC
  5
2CB
100
AcDbEntity
  8
0
370
    35
390
0
 62
     7
100
AcDbCircle
 10
148.498199
 20
-387.343292
 30
0.0
 40
542.403183
210
0.0
220
0.0
230
1.0
100
AcDbArc
 50
78.415462
 51
79.736892
  0
LINE
  5
2CC
100
AcDbEntity
  8
0
370
    35
390
0
 62
     7
 48
0.010649
100
AcDbLine
 10
244.717911
 20
146.455063
 30
0.0
 11
245.137375
 21
146.381012
 31
0.0
210
0.0
220
0.0
230
1.0
  0
ARC
  5
2CD
100
AcDbEntity
  8
0
370
    35
390
0
 62
     7
100
AcDbCircle
 10
237.101486
 20
146.734894
 30
0.0
 40
1.01488
210
0.0
220
0.0
230
1.0
100
AcDbArc
 50
73.412724
 51
80.675271
  0
LINE
  5
2CE
100
AcDbEntity
  8
0
370
    35
390
0
 62
     7
 48
0.037843
100
AcDbLine
 10
237.265915
 20
147.736359
 30
0.0
 11
235.771835
 21
147.979416
 31
0.0
210
0.0
220
0.0
230
1.0
  0
LINE
  5
2CF
100
AcDbEntity
  8
0
370
    35
390
0
 62
     7
 48
0.016361
100
AcDbLine
 10
235.125351
 20
148.0811
 30
0.0
 11
235.771835
 21
147.979416
 31
0.0
210
0.0
220
0.0
230
1.0
  0
ARC
  5
2D0
100
AcDbEntity
  8
0
370
    35
390
0
 62
     7
100
AcDbCircle
 10
235.048752
 20
147.583527
 30
0.0
 40
0.503512
210
0.0
220
0.0
230
1.0
100
AcDbArc
 50
81.247689
 51
168.09224
  0
ARC
  5
2D1
100
AcDbEntity
  8
0
370
    35
390
0
 62
     7
100
AcDbCircle
 10
235.046616
 20
147.58139
 30
0.0
 40
0.50208
210
0.0
220
0.0
230
1.0
100
AcDbArc
 50
167.802967
 51
229.824763
  0
LINE
  5
2D2
100
AcDbEntity
  8
0
370
    35
390
0
 62
     7
 48
0.013541
100
AcDbLine
 10
235.136703
 20
146.84848
 30
0.0
 11
234.722672
 21
147.197723
 31
0.0
210
0.0
220
0.0
230
1.0
  0
LINE
  5
2D3
100
AcDbEntity
  8
0
370
    35
390
0
 62
     7
 48
0.052352
100
AcDbLine
 10
235.136703
 20
146.84848
 30
0.0
 11
236.74086
 21
145.502426
 31
0.0
210
0.0
220
0.0
230
1.0
  0
LINE
  5
2D4
100
AcDbEntity
  8
0
370
    35
390
0
 62
     7
 48
0.017632
100
AcDbLine
 10
236.74086
 20
145.502426
 30
0.0
 11
237.282639
 21
145.050888
 31
0.0
210
0.0
220
0.0
230
1.0
  0
ARC
  5
2D5
100
AcDbEntity
  8
0
370
    35
390
0
 62
     7
100
AcDbCircle
 10
237.603867
 20
145.43985
 30
0.0
 40
0.504619
210
0.0
220
0.0
230
1.0
100
AcDbArc
 50
230.44963
 51
355.75614
  0
LINE
  5
2D6
100
AcDbEntity
  8
0
370
    35
390
0
 62
     7
 48
0.000896
100
AcDbLine
 10
238.10704
 20
145.402512
 30
0.0
 11
238.108414
 21
145.438324
 31
0.0
210
0.0
220
0.0
230
1.0
  0
LINE
  5
2D7
100
AcDbEntity
  8
0
370
    35
390
0
 62
     7
 48
0.007459
100
AcDbLine
 10
238.108414
 20
145.438324
 30
0.0
 11
238.108841
 21
145.736694
 31
0.0
210
0.0
220
0.0
230
1.0
  0
LINE
  5
2D8
100
AcDbEntity
  8
0
370
    35
390
0
 62
     7
 48
0.025206
100
AcDbLine
 10
238.108841
 20
145.736694
 30
0.0
 11
238.108841
 21
146.744934
 31
0.0
210
0.0
220
0.0
230
1.0
  0
ARC
  5
2D9
100
AcDbEntity
  8
0
370
    35
390
0
 62
     7
100
AcDbCircle
 10
237.104355
 20
146.744888
 30
0.0
 40
1.004458
210
0.0
220
0.0
230
1.0
100
AcDbArc
 50
0.003365
 51
73.407636
  0
ARC
  5
2DA
100
AcDbEntity
  8
0
370
    35
390
0
 62
     7
100
AcDbCircle
 10
228.427444
 20
146.580643
 30
0.0
 40
2.013361
210
0.0
220
0.0
230
1.0
100
AcDbArc
 50
50.001418
 51
123.500858
  0
LINE
  5
2DB
100
AcDbEntity
  8
0
370
    35
390
0
 62
     7
 48
0.082451
100
AcDbLine
 10
227.316177
 20
148.259521
 30
0.0
 11
224.56604
 21
146.439117
 31
0.0
210
0.0
220
0.0
230
1.0
  0
LINE
  5
2DC
100
AcDbEntity
  8
0
370
    35
390
0
 62
     7
 48
0.002579
100
AcDbLine
 10
224.56604
 20
146.439117
 30
0.0
 11
224.480057
 21
146.382126
 31
0.0
210
0.0
220
0.0
230
1.0
  0
ARC
  5
2DD
100
AcDbEntity
  8
0
370
    35
390
0
 62
     7
100
AcDbCircle
 10
225.036575
 20
145.543304
 30
0.0
 40
1.006641
210
0.0
220
0.0
230
1.0
100
AcDbArc
 50
145.689643
 51
269.228842
  0
ARC
  5
2DE
100
AcDbEntity
  8
0
370
    35
390
0
 62
     7
100
AcDbCircle
 10
225.03627
 20
145.54364
 30
0.0
 40
1.00619
210
0.0
220
0.0
230
1.0
100
AcDbArc
 50
123.55789
 51
145.69553
  0
LINE
  5
2DF
100
AcDbEntity
  8
0
370
    35
390
0
 62
     7
 48
0.157388
100
AcDbLine
 10
231.317978
 20
144.45105
 30
0.0
 11
225.023041
 21
144.536743
 31
0.0
210
0.0
220
0.0
230
1.0
  0
ARC
  5
2E0
100
AcDbEntity
  8
0
370
    35
390
0
 62
     7
100
AcDbCircle
 10
231.331894
 20
145.457703
 30
0.0
 40
1.006748
210
0.0
220
0.0
230
1.0
100
AcDbArc
 50
269.208645
 51
346.51869
  0
ARC
  5
2E1
100
AcDbEntity
  8
0
370
    35
390
0
 62
     7
100
AcDbCircle
 10
231.331833
 20
145.457581
 30
0.0
 40
1.00676
210
0.0
220
0.0
230
1.0
100
AcDbArc
 50
346.52565
 51
49.996589
  0
LINE
  5
2E2
100
AcDbEntity
  8
0
370
    35
390
0
 62
     7
 48
0.073672
100
AcDbLine
 10
231.979019
 20
146.22876
 30
0.0
 11
229.721573
 21
148.122986
 31
0.0
210
0.0
220
0.0
230
1.0
  0
LINE
  5
2E3
100
AcDbEntity
  8
0
370
    35
390
0
 62
     7
 48
0.003401
100
AcDbLine
 10
222.202866
 20
149.990906
 30
0.0
 11
222.068085
 21
150.009338
 31
0.0
210
0.0
220
0.0
230
1.0
  0
ARC
  5
2E4
100
AcDbEntity
  8
0
370
    35
390
0
 62
     7
100
AcDbCircle
 10
144.185669
 20
-421.508759
 30
0.0
 40
576.800143
210
0.0
220
0.0
230
1.0
100
AcDbArc
 50
82.239938
 51
83.217317
  0
ARC
  5
2E5
100
AcDbEntity
  8
0
370
    35
390
0
 62
     7
100
AcDbCircle
 10
212.188232
 20
150.244476
 30
0.0
 40
1.01694
210
0.0
220
0.0
230
1.0
100
AcDbArc
 50
83.23942
 51
89.410052
  0
ARC
  5
2E6
100
AcDbEntity
  8
0
370
    35
390
0
 62
     7
100
AcDbCircle
 10
212.189056
 20
150.254807
 30
0.0
 40
1.007075
210
0.0
220
0.0
230
1.0
100
AcDbArc
 50
121.768298
 51
229.792675
  0
ARC
  5
2E7
100
AcDbEntity
  8
0
370
    35
390
0
 62
     7
100
AcDbCircle
 10
212.187195
 20
150.256256
 30
0.0
 40
1.005148
210
0.0
220
0.0
230
1.0
100
AcDbArc
 50
89.344065
 51
121.721662
  0
LINE
  5
2E8
100
AcDbEntity
  8
0
370
    35
390
0
 62
     7
 48
0.007217
100
AcDbLine
 10
211.76004
 20
149.30011
 30
0.0
 11
211.539169
 21
149.485962
 31
0.0
210
0.0
220
0.0
230
1.0
  0
LINE
  5
2E9
100
AcDbEntity
  8
0
370
    35
390
0
 62
     7
 48
0.143559
100
AcDbLine
 10
211.76004
 20
149.30011
 30
0.0
 11
216.158936
 21
145.608994
 31
0.0
210
0.0
220
0.0
230
1.0
  0
ARC
  5
2EA
100
AcDbEntity
  8
0
370
    35
390
0
 62
     7
100
AcDbCircle
 10
217.466705
 20
147.167664
 30
0.0
 40
2.034638
210
0.0
220
0.0
230
1.0
100
AcDbArc
 50
230.002335
 51
238.719241
  0
ARC
  5
2EB
100
AcDbEntity
  8
0
370
    35
390
0
 62
     7
100
AcDbCircle
 10
217.455368
 20
147.149292
 30
0.0
 40
2.013013
210
0.0
220
0.0
230
1.0
100
AcDbArc
 50
238.72338
 51
303.41053
  0
LINE
  5
2EC
100
AcDbEntity
  8
0
370
    35
390
0
 62
     7
 48
0.007916
100
AcDbLine
 10
218.828003
 20
145.643494
 30
0.0
 11
218.563812
 21
145.468918
 31
0.0
210
0.0
220
0.0
230
1.0
  0
LINE
  5
2ED
100
AcDbEntity
  8
0
370
    35
390
0
 62
     7
 48
0.113723
100
AcDbLine
 10
222.62117
 20
148.154388
 30
0.0
 11
218.828003
 21
145.643494
 31
0.0
210
0.0
220
0.0
230
1.0
  0
ARC
  5
2EE
100
AcDbEntity
  8
0
370
    35
390
0
 62
     7
100
AcDbCircle
 10
222.064758
 20
148.993423
 30
0.0
 40
1.007368
210
0.0
220
0.0
230
1.0
100
AcDbArc
 50
325.768089
 51
82.116619
  0
ARC
  5
2EF
100
AcDbEntity
  8
0
370
    35
390
0
 62
     7
100
AcDbCircle
 10
222.065186
 20
148.995422
 30
0.0
 40
1.008178
210
0.0
220
0.0
230
1.0
100
AcDbArc
 50
303.467911
 51
325.66022
  0
ARC
  5
2F0
100
AcDbEntity
  8
0
370
    35
390
0
 62
     7
100
AcDbCircle
 10
204.369339
 20
149.604004
 30
0.0
 40
2.013419
210
0.0
220
0.0
230
1.0
100
AcDbArc
 50
50.002012
 51
115.08657
  0
ARC
  5
2F1
100
AcDbEntity
  8
0
370
    35
390
0
 62
     7
100
AcDbCircle
 10
204.369751
 20
149.603699
 30
0.0
 40
2.01386
210
0.0
220
0.0
230
1.0
100
AcDbArc
 50
115.093537
 51
123.504546
  0
LINE
  5
2F2
100
AcDbEntity
  8
0
370
    35
390
0
 62
     7
 48
0.193921
100
AcDbLine
 10
196.789993
 20
147.001312
 30
0.0
 11
203.258102
 21
151.282944
 31
0.0
210
0.0
220
0.0
230
1.0
  0
LINE
  5
2F3
100
AcDbEntity
  8
0
370
    35
390
0
 62
     7
 48
0.009015
100
AcDbLine
 10
196.489655
 20
146.801758
 30
0.0
 11
196.789993
 21
147.001312
 31
0.0
210
0.0
220
0.0
230
1.0
  0
ARC
  5
2F4
100
AcDbEntity
  8
0
370
    35
390
0
 62
     7
100
AcDbCircle
 10
197.048553
 20
145.964645
 30
0.0
 40
1.00678
210
0.0
220
0.0
230
1.0
100
AcDbArc
 50
123.729314
 51
258.398204
  0
ARC
  5
2F5
100
AcDbEntity
  8
0
370
    35
390
0
 62
     7
100
AcDbCircle
 10
197.050308
 20
145.97522
 30
0.0
 40
1.017284
210
0.0
220
0.0
230
1.0
100
AcDbArc
 50
258.421358
 51
268.928928
  0
ARC
  5
2F6
100
AcDbEntity
  8
0
370
    35
390
0
 62
     7
100
AcDbCircle
 10
259.96936
 20
3570.875
 30
0.0
 40
3426.495058
210
0.0
220
0.0
230
1.0
100
AcDbArc
 50
268.947527
 51
269.169727
  0
LINE
  5
2F7
100
AcDbEntity
  8
0
370
    35
390
0
 62
     7
 48
0.005164
100
AcDbLine
 10
210.317627
 20
144.73941
 30
0.0
 11
210.524155
 21
144.736572
 31
0.0
210
0.0
220
0.0
230
1.0
  0
ARC
  5
2F8
100
AcDbEntity
  8
0
370
    35
390
0
 62
     7
100
AcDbCircle
 10
210.536774
 20
145.743393
 30
0.0
 40
1.006724
210
0.0
220
0.0
230
1.0
100
AcDbArc
 50
312.799565
 51
49.982631
  0
ARC
  5
2F9
100
AcDbEntity
  8
0
370
    35
390
0
 62
     7
100
AcDbCircle
 10
210.53862
 20
145.7397
 30
0.0
 40
1.003173
210
0.0
220
0.0
230
1.0
100
AcDbArc
 50
269.173613
 51
312.865339
  0
LINE
  5
2FA
100
AcDbEntity
  8
0
370
    35
390
0
 62
     7
 48
0.180161
100
AcDbLine
 10
211.183945
 20
146.514191
 30
0.0
 11
205.663483
 21
151.146408
 31
0.0
210
0.0
220
0.0
230
1.0
  0
LINE
  5
2FB
100
AcDbEntity
  8
0
370
    35
390
0
 62
     7
 48
0.004668
100
AcDbLine
 10
197.685272
 20
152.748734
 30
0.0
 11
197.499222
 21
152.764679
 31
0.0
210
0.0
220
0.0
230
1.0
  0
ARC
  5
2FC
100
AcDbEntity
  8
0
370
    35
390
0
 62
     7
100
AcDbCircle
 10
165.522369
 20
-222.101807
 30
0.0
 40
376.227395
210
0.0
220
0.0
230
1.0
100
AcDbArc
 50
85.124361
 51
86.867165
  0
ARC
  5
2FD
100
AcDbEntity
  8
0
370
    35
390
0
 62
     7
100
AcDbCircle
 10
169.768845
 20
-148.661865
 30
0.0
 40
302.664665
210
0.0
220
0.0
230
1.0
100
AcDbArc
 50
86.910059
 51
87.702279
  0
ARC
  5
2FE
100
AcDbEntity
  8
0
370
    35
390
0
 62
     7
100
AcDbCircle
 10
181.862701
 20
152.743378
 30
0.0
 40
1.016862
210
0.0
220
0.0
230
1.0
100
AcDbArc
 50
87.712572
 51
97.67441
  0
ARC
  5
2FF
100
AcDbEntity
  8
0
370
    35
390
0
 62
     7
100
AcDbCircle
 10
181.861694
 20
152.75386
 30
0.0
 40
1.006581
210
0.0
220
0.0
230
1.0
100
AcDbArc
 50
102.058736
 51
229.755109
  0
LINE
  5
300
100
AcDbEntity
  8
0
370
    35
390
0
 62
     7
 48
0.001915
100
AcDbLine
 10
181.651443
 20
153.738052
 30
0.0
 11
181.726898
 21
153.751144
 31
0.0
210
0.0
220
0.0
230
1.0
  0
LINE
  5
301
100
AcDbEntity
  8
0
370
    35
390
0
 62
     7
 48
0.009939
100
AcDbLine
 10
181.51561
 20
151.729614
 30
0.0
 11
181.211548
 21
151.985733
 31
0.0
210
0.0
220
0.0
230
1.0
  0
LINE
  5
302
100
AcDbEntity
  8
0
370
    35
390
0
 62
     7
 48
0.219666
100
AcDbLine
 10
181.51561
 20
151.729614
 30
0.0
 11
188.246552
 21
146.08168
 31
0.0
210
0.0
220
0.0
230
1.0
  0
ARC
  5
303
100
AcDbEntity
  8
0
370
    35
390
0
 62
     7
100
AcDbCircle
 10
189.554169
 20
147.640305
 30
0.0
 40
2.034485
210
0.0
220
0.0
230
1.0
100
AcDbArc
 50
230.004739
 51
241.028077
  0
ARC
  5
304
100
AcDbEntity
  8
0
370
    35
390
0
 62
     7
100
AcDbCircle
 10
189.543442
 20
147.621277
 30
0.0
 40
2.012612
210
0.0
220
0.0
230
1.0
100
AcDbArc
 50
241.032831
 51
294.480611
  0
ARC
  5
305
100
AcDbEntity
  8
0
370
    35
390
0
 62
     7
100
AcDbCircle
 10
189.544205
 20
147.620544
 30
0.0
 40
2.011637
210
0.0
220
0.0
230
1.0
100
AcDbArc
 50
294.469526
 51
303.375365
  0
LINE
  5
306
100
AcDbEntity
  8
0
370
    35
390
0
 62
     7
 48
0.011151
100
AcDbLine
 10
190.650848
 20
145.940659
 30
0.0
 11
191.023026
 21
146.186462
 31
0.0
210
0.0
220
0.0
230
1.0
  0
LINE
  5
307
100
AcDbEntity
  8
0
370
    35
390
0
 62
     7
 48
0.213785
100
AcDbLine
 10
191.023026
 20
146.186462
 30
0.0
 11
198.153641
 21
150.906708
 31
0.0
210
0.0
220
0.0
230
1.0
  0
ARC
  5
308
100
AcDbEntity
  8
0
370
    35
390
0
 62
     7
100
AcDbCircle
 10
197.59758
 20
151.74588
 30
0.0
 40
1.006976
210
0.0
220
0.0
230
1.0
100
AcDbArc
 50
303.528676
 51
85.00277
  0
ARC
  5
309
100
AcDbEntity
  8
0
370
    35
390
0
 62
     7
100
AcDbCircle
 10
174.830521
 20
151.441528
 30
0.0
 40
2.013345
210
0.0
220
0.0
230
1.0
100
AcDbArc
 50
50.001161
 51
100.716112
  0
ARC
  5
30A
100
AcDbEntity
  8
0
370
    35
390
0
 62
     7
100
AcDbCircle
 10
174.830246
 20
151.442398
 30
0.0
 40
2.012463
210
0.0
220
0.0
230
1.0
100
AcDbArc
 50
100.713024
 51
123.508248
  0
LINE
  5
30B
100
AcDbEntity
  8
0
370
    35
390
0
 62
     7
 48
0.234391
100
AcDbLine
 10
165.901352
 20
147.945175
 30
0.0
 11
173.719254
 21
153.120407
 31
0.0
210
0.0
220
0.0
230
1.0
  0
LINE
  5
30C
100
AcDbEntity
  8
0
370
    35
390
0
 62
     7
 48
0.011119
100
AcDbLine
 10
165.531006
 20
147.698898
 30
0.0
 11
165.901352
 21
147.945175
 31
0.0
210
0.0
220
0.0
230
1.0
  0
ARC
  5
30D
100
AcDbEntity
  8
0
370
    35
390
0
 62
     7
100
AcDbCircle
 10
166.090363
 20
146.86232
 30
0.0
 40
1.006549
210
0.0
220
0.0
230
1.0
100
AcDbArc
 50
123.767344
 51
253.674753
  0
ARC
  5
30E
100
AcDbEntity
  8
0
370
    35
390
0
 62
     7
100
AcDbCircle
 10
166.093079
 20
146.873077
 30
0.0
 40
1.017467
210
0.0
220
0.0
230
1.0
100
AcDbArc
 50
253.697613
 51
267.367069
  0
POLYLINE
  5
30F
100
AcDbEntity
  8
0
370
    35
390
0
 62
     7
100
AcDb2dPolyline
 66
     1
 10
0.0
 20
0.0
 30
0.0
 71
     3
  0
VERTEX
  5
310
100
AcDbEntity
  8
0
370
     0
390
0
100
AcDbVertex
100
AcDb2dVertex
 10
182.280991
 20
145.286224
 30
0.0
  0
VERTEX
  5
311
100
AcDbEntity
  8
0
370
     0
390
0
100
AcDbVertex
100
AcDb2dVertex
 10
174.174957
 20
145.533234
 30
0.0
  0
VERTEX
  5
312
100
AcDbEntity
  8
0
370
     0
390
0
100
AcDbVertex
100
AcDb2dVertex
 10
166.046341
 20
145.856689
 30
0.0
  0
SEQEND
  5
313
100
AcDbEntity
  8
0
370
     0
390
0
  0
LINE
  5
314
100
AcDbEntity
  8
0
370
    35
390
0
 62
     7
 48
0.00587
100
AcDbLine
 10
182.280991
 20
145.286224
 30
0.0
 11
182.515732
 21
145.280197
 31
0.0
210
0.0
220
0.0
230
1.0
  0
ARC
  5
315
100
AcDbEntity
  8
0
370
    35
390
0
 62
     7
100
AcDbCircle
 10
182.539368
 20
146.286667
 30
0.0
 40
1.007457
210
0.0
220
0.0
230
1.0
100
AcDbArc
 50
291.91761
 51
49.950901
  0
ARC
  5
316
100
AcDbEntity
  8
0
370
    35
390
0
 62
     7
100
AcDbCircle
 10
182.541122
 20
146.287888
 30
0.0
 40
1.007992
210
0.0
220
0.0
230
1.0
100
AcDbArc
 50
268.557291
 51
291.799175
  0
LINE
  5
317
100
AcDbEntity
  8
0
370
    35
390
0
 62
     7
 48
0.230493
100
AcDbLine
 10
183.187347
 20
147.057556
 30
0.0
 11
176.124634
 21
152.983856
 31
0.0
210
0.0
220
0.0
230
1.0
  0
ARC
  5
318
100
AcDbEntity
  8
0
370
    35
390
0
 62
     7
100
AcDbCircle
 10
159.799484
 20
152.658295
 30
0.0
 40
1.006673
210
0.0
220
0.0
230
1.0
100
AcDbArc
 50
97.796575
 51
179.996945
  0
LINE
  5
319
100
AcDbEntity
  8
0
370
    35
390
0
 62
     7
 48
0.001875
100
AcDbLine
 10
159.662918
 20
153.65564
 30
0.0
 11
159.737564
 21
153.663025
 31
0.0
210
0.0
220
0.0
230
1.0
  0
LINE
  5
31A
100
AcDbEntity
  8
0
370
    35
390
0
 62
     7
 48
0.10713
100
AcDbLine
 10
158.792831
 20
148.373138
 30
0.0
 11
158.792831
 21
152.65834
 31
0.0
210
0.0
220
0.0
230
1.0
  0
LINE
  5
31B
100
AcDbEntity
  8
0
370
    35
390
0
 62
     7
 48
0.006506
100
AcDbLine
 10
158.792831
 20
148.373138
 30
0.0
 11
158.793137
 21
148.1129
 31
0.0
210
0.0
220
0.0
230
1.0
  0
ARC
  5
31C
100
AcDbEntity
  8
0
370
    35
390
0
 62
     7
100
AcDbCircle
 10
159.799835
 20
148.115692
 30
0.0
 40
1.006826
210
0.0
220
0.0
230
1.0
100
AcDbArc
 50
180.159685
 51
282.941089
  0
ARC
  5
31D
100
AcDbEntity
  8
0
370
    35
390
0
 62
     7
100
AcDbCircle
 10
159.798538
 20
148.11731
 30
0.0
 40
1.008641
210
0.0
220
0.0
230
1.0
100
AcDbArc
 50
282.991885
 51
295.420828
  0
ARC
  5
31E
100
AcDbEntity
  8
0
370
    35
390
0
 62
     7
100
AcDbCircle
 10
159.795212
 20
148.124603
 30
0.0
 40
1.016665
210
0.0
220
0.0
230
1.0
100
AcDbArc
 50
295.413622
 51
303.501669
  0
LINE
  5
31F
100
AcDbEntity
  8
0
370
    35
390
0
 62
     7
 48
0.207638
100
AcDbLine
 10
160.356369
 20
147.27684
 30
0.0
 11
167.281937
 21
151.861404
 31
0.0
210
0.0
220
0.0
230
1.0
  0
LINE
  5
320
100
AcDbEntity
  8
0
370
    35
390
0
 62
     7
 48
0.010731
100
AcDbLine
 10
167.639374
 20
152.09906
 30
0.0
 11
167.281937
 21
151.861404
 31
0.0
210
0.0
220
0.0
230
1.0
  0
ARC
  5
321
100
AcDbEntity
  8
0
370
    35
390
0
 62
     7
100
AcDbCircle
 10
167.080078
 20
152.935745
 30
0.0
 40
1.006681
210
0.0
220
0.0
230
1.0
100
AcDbArc
 50
303.76136
 51
79.788269
  0
ARC
  5
322
100
AcDbEntity
  8
0
370
    35
390
0
 62
     7
100
AcDbCircle
 10
167.078629
 20
152.925385
 30
0.0
 40
1.016913
210
0.0
220
0.0
230
1.0
100
AcDbArc
 50
79.811239
 51
91.043382
  0
ARC
  5
323
100
AcDbEntity
  8
0
370
    35
390
0
 62
     7
100
AcDbCircle
 10
170.10405
 20
-22.850601
 30
0.0
 40
176.818509
210
0.0
220
0.0
230
1.0
100
AcDbArc
 50
90.986398
 51
93.305438
  0
LINE
  5
324
100
AcDbEntity
  8
0
370
    35
390
0
 62
     7
 48
0.004292
100
AcDbLine
 10
159.90892
 20
153.67334
 30
0.0
 11
159.737564
 21
153.663025
 31
0.0
210
0.0
220
0.0
230
1.0
  0
LINE
  5
325
100
AcDbEntity
  8
0
370
    35
390
0
 62
     7
 48
0.011861
100
AcDbLine
 10
147.150177
 20
148.579376
 30
0.0
 11
147.151382
 21
148.10495
 31
0.0
210
0.0
220
0.0
230
1.0
  0
ARC
  5
326
100
AcDbEntity
  8
0
370
    35
390
0
 62
     7
100
AcDbCircle
 10
148.156921
 20
148.10994
 30
0.0
 40
1.00556
210
0.0
220
0.0
230
1.0
100
AcDbArc
 50
180.284513
 51
235.053505
  0
ARC
  5
327
100
AcDbEntity
  8
0
370
    35
390
0
 62
     7
100
AcDbCircle
 10
148.165298
 20
148.124619
 30
0.0
 40
1.022417
210
0.0
220
0.0
230
1.0
100
AcDbArc
 50
235.140071
 51
263.845792
  0
ARC
  5
328
100
AcDbEntity
  8
0
370
    35
390
0
 62
     7
100
AcDbCircle
 10
167.247192
 20
328.238739
 30
0.0
 40
182.144617
210
0.0
220
0.0
230
1.0
100
AcDbArc
 50
263.951851
 51
265.097704
  0
ARC
  5
329
100
AcDbEntity
  8
0
370
    35
390
0
 62
     7
100
AcDbCircle
 10
151.768234
 20
147.763367
 30
0.0
 40
1.006864
210
0.0
220
0.0
230
1.0
100
AcDbArc
 50
282.06289
 51
359.991607
  0
ARC
  5
32A
100
AcDbEntity
  8
0
370
    35
390
0
 62
     7
100
AcDbCircle
 10
151.768539
 20
147.763199
 30
0.0
 40
1.00665
210
0.0
220
0.0
230
1.0
100
AcDbArc
 50
265.050597
 51
282.047393
  0
LINE
  5
32B
100
AcDbEntity
  8
0
370
    35
390
0
 62
     7
 48
0.095346
100
AcDbLine
 10
152.775055
 20
147.763214
 30
0.0
 11
152.775055
 21
151.577057
 31
0.0
210
0.0
220
0.0
230
1.0
  0
LINE
  5
32C
100
AcDbEntity
  8
0
370
    35
390
0
 62
     7
 48
0.009053
100
AcDbLine
 10
152.774338
 20
151.939163
 30
0.0
 11
152.775055
 21
151.577057
 31
0.0
210
0.0
220
0.0
230
1.0
  0
ARC
  5
32D
100
AcDbEntity
  8
0
370
    35
390
0
 62
     7
100
AcDbCircle
 10
151.768295
 20
151.935181
 30
0.0
 40
1.006017
210
0.0
220
0.0
230
1.0
100
AcDbArc
 50
0.226959
 51
73.882259
  0
ARC
  5
32E
100
AcDbEntity
  8
0
370
    35
390
0
 62
     7
100
AcDbCircle
 10
151.764984
 20
151.920593
 30
0.0
 40
1.020992
210
0.0
220
0.0
230
1.0
100
AcDbArc
 50
73.930719
 51
97.078537
  0
ARC
  5
32F
100
AcDbEntity
  8
0
370
    35
390
0
 62
     7
100
AcDbCircle
 10
162.793472
 20
63.008709
 30
0.0
 40
90.614029
210
0.0
220
0.0
230
1.0
100
AcDbArc
 50
97.130754
 51
99.401403
  0
LINE
  5
330
100
AcDbEntity
  8
0
370
    35
390
0
 62
     7
 48
0.002369
100
AcDbLine
 10
151.545151
 20
152.922012
 30
0.0
 11
151.63916
 21
152.933792
 31
0.0
210
0.0
220
0.0
230
1.0
  0
ARC
  5
331
100
AcDbEntity
  8
0
370
    35
390
0
 62
     7
100
AcDbCircle
 10
148.156891
 20
151.412445
 30
0.0
 40
1.006711
210
0.0
220
0.0
230
1.0
100
AcDbArc
 50
99.445396
 51
179.997997
  0
LINE
  5
332
100
AcDbEntity
  8
0
370
    35
390
0
 62
     7
 48
0.070827
100
AcDbLine
 10
147.150177
 20
151.412476
 30
0.0
 11
147.150177
 21
148.579376
 31
0.0
210
0.0
220
0.0
230
1.0
  0
POLYLINE
  5
333
100
AcDbEntity
  8
0
370
    35
390
0
 62
     7
100
AcDb2dPolyline
 66
     1
 10
0.0
 20
0.0
 30
0.0
 71
     6
  0
VERTEX
  5
334
100
AcDbEntity
  8
0
370
     0
390
0
100
AcDbVertex
100
AcDb2dVertex
 10
136.585251
 20
149.059784
 30
0.0
  0
VERTEX
  5
335
100
AcDbEntity
  8
0
370
     0
390
0
100
AcDbVertex
100
AcDb2dVertex
 10
137.749466
 20
149.643738
 30
0.0
  0
VERTEX
  5
336
100
AcDbEntity
  8
0
370
     0
390
0
100
AcDbVertex
100
AcDb2dVertex
 10
138.35408
 20
149.903915
 30
0.0
  0
VERTEX
  5
337
100
AcDbEntity
  8
0
370
     0
390
0
100
AcDbVertex
100
AcDb2dVertex
 10
139.617966
 20
150.379883
 30
0.0
  0
VERTEX
  5
338
100
AcDbEntity
  8
0
370
     0
390
0
100
AcDbVertex
100
AcDb2dVertex
 10
141.573792
 20
150.99826
 30
0.0
  0
VERTEX
  5
339
100
AcDbEntity
  8
0
370
     0
390
0
100
AcDbVertex
100
AcDb2dVertex
 10
142.890442
 20
151.355194
 30
0.0
  0
SEQEND
  5
33A
100
AcDbEntity
  8
0
370
     0
390
0
  0
POLYLINE
  5
33B
100
AcDbEntity
  8
0
370
    35
390
0
 62
     7
100
AcDb2dPolyline
 66
     1
 10
0.0
 20
0.0
 30
0.0
 71
     5
  0
VERTEX
  5
33C
100
AcDbEntity
  8
0
370
     0
390
0
100
AcDbVertex
100
AcDb2dVertex
 10
136.585251
 20
149.059784
 30
0.0
  0
VERTEX
  5
33D
100
AcDbEntity
  8
0
370
     0
390
0
100
AcDbVertex
100
AcDb2dVertex
 10
137.80098
 20
148.729813
 30
0.0
  0
VERTEX
  5
33E
100
AcDbEntity
  8
0
370
     0
390
0
100
AcDbVertex
100
AcDb2dVertex
 10
138.421173
 20
148.58197
 30
0.0
  0
VERTEX
  5
33F
100
AcDbEntity
  8
0
370
     0
390
0
100
AcDbVertex
100
AcDb2dVertex
 10
140.612518
 20
148.132751
 30
0.0
  0
VERTEX
  5
340
100
AcDbEntity
  8
0
370
     0
390
0
100
AcDbVertex
100
AcDb2dVertex
 10
142.853989
 20
147.762283
 30
0.0
  0
SEQEND
  5
341
100
AcDbEntity
  8
0
370
     0
390
0
  0
LINE
  5
342
100
AcDbEntity
  8
0
370
    35
390
0
 62
     7
 48
0.003515
100
AcDbLine
 10
142.853989
 20
147.762283
 30
0.0
 11
142.993073
 21
147.741669
 31
0.0
210
0.0
220
0.0
230
1.0
  0
ARC
  5
343
100
AcDbEntity
  8
0
370
    35
390
0
 62
     7
100
AcDbCircle
 10
143.138931
 20
148.737823
 30
0.0
 40
1.006862
210
0.0
220
0.0
230
1.0
100
AcDbArc
 50
279.849164
 51
359.990696
  0
ARC
  5
344
100
AcDbEntity
  8
0
370
    35
390
0
 62
     7
100
AcDbCircle
 10
143.139297
 20
148.737488
 30
0.0
 40
1.00648
210
0.0
220
0.0
230
1.0
100
AcDbArc
 50
261.64641
 51
279.831823
  0
LINE
  5
345
100
AcDbEntity
  8
0
370
    35
390
0
 62
     7
 48
0.041052
100
AcDbLine
 10
144.145737
 20
148.737656
 30
0.0
 11
144.145737
 21
150.37973
 31
0.0
210
0.0
220
0.0
230
1.0
  0
ARC
  5
346
100
AcDbEntity
  8
0
370
    35
390
0
 62
     7
100
AcDbCircle
 10
143.138916
 20
150.379547
 30
0.0
 40
1.006887
210
0.0
220
0.0
230
1.0
100
AcDbArc
 50
0.00997
 51
97.017202
  0
ARC
  5
347
100
AcDbEntity
  8
0
370
    35
390
0
 62
     7
100
AcDbCircle
 10
143.13974
 20
150.377411
 30
0.0
 40
1.009069
210
0.0
220
0.0
230
1.0
100
AcDbArc
 50
97.048942
 51
104.303457
  0
LINE
  5
348
100
AcDbEntity
  8
0
370
    13
390
0
 62
     7
 48
0.003193
100
AcDbLine
 10
235.136703
 20
146.84848
 30
0.0
 11
235.162125
 21
146.973648
 31
0.0
210
0.0
220
0.0
230
1.0
  0
LINE
  5
349
100
AcDbEntity
  8
0
370
    13
390
0
 62
     7
 48
0.003326
100
AcDbLine
 10
236.74086
 20
145.502426
 30
0.0
 11
236.758316
 21
145.634308
 31
0.0
210
0.0
220
0.0
230
1.0
  0
LINE
  5
34A
100
AcDbEntity
  8
0
370
    13
390
0
 62
     7
 48
0.003133
100
AcDbLine
 10
234.722672
 20
147.197723
 30
0.0
 11
234.749069
 21
147.320251
 31
0.0
210
0.0
220
0.0
230
1.0
  0
LINE
  5
34B
100
AcDbEntity
  8
0
370
    13
390
0
 62
     7
 48
0.003316
100
AcDbLine
 10
237.282639
 20
145.050888
 30
0.0
 11
237.296341
 21
145.182831
 31
0.0
210
0.0
220
0.0
230
1.0
  0
LINE
  5
34C
100
AcDbEntity
  8
0
370
    13
390
0
 62
     7
 48
0.004389
100
AcDbLine
 10
211.76004
 20
149.30011
 30
0.0
 11
211.905289
 21
149.398712
 31
0.0
210
0.0
220
0.0
230
1.0
  0
LINE
  5
34D
100
AcDbEntity
  8
0
370
    13
390
0
 62
     7
 48
0.004235
100
AcDbLine
 10
216.158936
 20
145.608994
 30
0.0
 11
216.277405
 21
145.730072
 31
0.0
210
0.0
220
0.0
230
1.0
  0
LINE
  5
34E
100
AcDbEntity
  8
0
370
    13
390
0
 62
     7
 48
0.004391
100
AcDbLine
 10
211.539169
 20
149.485962
 30
0.0
 11
211.685486
 21
149.58316
 31
0.0
210
0.0
220
0.0
230
1.0
  0
LINE
  5
34F
100
AcDbEntity
  8
0
370
    13
390
0
 62
     7
 48
0.004234
100
AcDbLine
 10
216.410263
 20
145.428802
 30
0.0
 11
216.527344
 21
145.551178
 31
0.0
210
0.0
220
0.0
230
1.0
  0
LINE
  5
350
100
AcDbEntity
  8
0
370
    13
390
0
 62
     7
 48
0.004091
100
AcDbLine
 10
218.563812
 20
145.468918
 30
0.0
 11
218.667953
 21
145.595123
 31
0.0
210
0.0
220
0.0
230
1.0
  0
LINE
  5
351
100
AcDbEntity
  8
0
370
    13
390
0
 62
     7
 48
0.003421
100
AcDbLine
 10
222.62117
 20
148.154388
 30
0.0
 11
222.698914
 21
148.267014
 31
0.0
210
0.0
220
0.0
230
1.0
  0
LINE
  5
352
100
AcDbEntity
  8
0
370
    13
390
0
 62
     7
 48
0.007709
100
AcDbLine
 10
181.211548
 20
151.985733
 30
0.0
 11
181.511642
 21
152.056641
 31
0.0
210
0.0
220
0.0
230
1.0
  0
LINE
  5
353
100
AcDbEntity
  8
0
370
    13
390
0
 62
     7
 48
0.00769
100
AcDbLine
 10
181.51561
 20
151.729614
 30
0.0
 11
181.814453
 21
151.802551
 31
0.0
210
0.0
220
0.0
230
1.0
  0
LINE
  5
354
100
AcDbEntity
  8
0
370
    13
390
0
 62
     7
 48
0.007002
100
AcDbLine
 10
188.246552
 20
146.08168
 30
0.0
 11
188.505676
 21
146.187958
 31
0.0
210
0.0
220
0.0
230
1.0
  0
LINE
  5
355
100
AcDbEntity
  8
0
370
    13
390
0
 62
     7
 48
0.006979
100
AcDbLine
 10
188.56871
 20
145.860413
 30
0.0
 11
188.826157
 21
145.968307
 31
0.0
210
0.0
220
0.0
230
1.0
  0
LINE
  5
356
100
AcDbEntity
  8
0
370
    13
390
0
 62
     7
 48
0.010318
100
AcDbLine
 10
158.793137
 20
148.1129
 30
0.0
 11
159.196548
 21
148.200119
 31
0.0
210
0.0
220
0.0
230
1.0
  0
LINE
  5
357
100
AcDbEntity
  8
0
370
    13
390
0
 62
     7
 48
0.010318
100
AcDbLine
 10
158.792831
 20
148.373138
 30
0.0
 11
159.196548
 21
148.458893
 31
0.0
210
0.0
220
0.0
230
1.0
  0
LINE
  5
358
100
AcDbEntity
  8
0
370
    13
390
0
 62
     7
 48
0.010207
100
AcDbLine
 10
158.792831
 20
152.65834
 30
0.0
 11
159.196548
 21
152.71933
 31
0.0
210
0.0
220
0.0
230
1.0
  0
LINE
  5
359
100
AcDbEntity
  8
0
370
    13
390
0
 62
     7
 48
0.012059
100
AcDbLine
 10
142.853989
 20
147.762283
 30
0.0
 11
143.32933
 21
147.844376
 31
0.0
210
0.0
220
0.0
230
1.0
  0
LINE
  5
35A
100
AcDbEntity
  8
0
370
    13
390
0
 62
     7
 48
0.012039
100
AcDbLine
 10
142.993073
 20
147.741669
 30
0.0
 11
143.467575
 21
147.823868
 31
0.0
210
0.0
220
0.0
230
1.0
  0
LINE
  5
35B
100
AcDbEntity
  8
0
370
    35
390
0
 62
     7
 48
0.012933
100
AcDbLine
 10
136.585251
 20
149.059784
 30
0.0
 11
137.097748
 21
149.13028
 31
0.0
210
0.0
220
0.0
230
1.0
  0
LINE
  5
35C
100
AcDbEntity
  8
0
370
    13
390
0
 62
     7
 48
0.006375
100
AcDbLine
 10
142.890442
 20
151.355194
 30
0.0
 11
143.143524
 21
151.386444
 31
0.0
210
0.0
220
0.0
230
1.0
  0
LINE
  5
35D
100
AcDbEntity
  8
0
370
    35
390
0
 62
     7
 48
0.007049
100
AcDbLine
 10
287.512207
 20
140.364136
 30
0.0
 11
287.291443
 21
140.539551
 31
0.0
210
0.0
220
0.0
230
1.0
  0
LINE
  5
35E
100
AcDbEntity
  8
0
370
    35
390
0
 62
     7
 48
0.010377
100
AcDbLine
 10
155.696548
 20
155.891129
 30
0.0
 11
155.283936
 21
155.845978
 31
0.0
210
0.0
220
0.0
230
1.0
  0
LINE
  5
35F
100
AcDbEntity
  8
0
370
    35
390
0
 62
     7
 48
0.010496
100
AcDbLine
 10
155.283936
 20
149.904312
 30
0.0
 11
155.696548
 21
149.981888
 31
0.0
210
0.0
220
0.0
230
1.0
  0
LINE
  5
360
100
AcDbEntity
  8
0
370
    35
390
0
 62
     7
 48
0.010378
100
AcDbLine
 10
156.696548
 20
155.977951
 30
0.0
 11
156.283936
 21
155.932404
 31
0.0
210
0.0
220
0.0
230
1.0
  0
LINE
  5
361
100
AcDbEntity
  8
0
370
    13
390
0
 62
     7
 48
0.011691
100
AcDbLine
 10
147.150177
 20
151.412476
 30
0.0
 11
147.613541
 21
151.475616
 31
0.0
210
0.0
220
0.0
230
1.0
  0
LINE
  5
362
100
AcDbEntity
  8
0
370
    13
390
0
 62
     7
 48
0.011763
100
AcDbLine
 10
147.150177
 20
148.579376
 30
0.0
 11
147.613541
 21
148.661209
 31
0.0
210
0.0
220
0.0
230
1.0
  0
LINE
  5
363
100
AcDbEntity
  8
0
370
    13
390
0
 62
     7
 48
0.011747
100
AcDbLine
 10
147.151382
 20
148.10495
 30
0.0
 11
147.613541
 21
148.189682
 31
0.0
210
0.0
220
0.0
230
1.0
  0
LINE
  5
364
100
AcDbEntity
  8
0
370
    13
390
0
 62
     7
 48
0.011522
100
AcDbLine
 10
147.991684
 20
152.405502
 30
0.0
 11
148.449097
 21
152.462006
 31
0.0
210
0.0
220
0.0
230
1.0
  0
LINE
  5
365
100
AcDbEntity
  8
0
370
    13
390
0
 62
     7
 48
0.011602
100
AcDbLine
 10
147.580933
 20
147.28569
 30
0.0
 11
148.036789
 21
147.372772
 31
0.0
210
0.0
220
0.0
230
1.0
  0
LINE
  5
366
100
AcDbEntity
  8
0
370
    13
390
0
 62
     7
 48
0.011518
100
AcDbLine
 10
148.055695
 20
147.108109
 30
0.0
 11
148.508118
 21
147.195251
 31
0.0
210
0.0
220
0.0
230
1.0
  0
LINE
  5
367
100
AcDbEntity
  8
0
370
    13
390
0
 62
     7
 48
0.01097
100
AcDbLine
 10
151.681686
 20
146.7603
 30
0.0
 11
152.110916
 21
146.851456
 31
0.0
210
0.0
220
0.0
230
1.0
  0
LINE
  5
368
100
AcDbEntity
  8
0
370
    13
390
0
 62
     7
 48
0.00841
100
AcDbLine
 10
173.719254
 20
153.120407
 30
0.0
 11
174.049698
 21
153.183487
 31
0.0
210
0.0
220
0.0
230
1.0
  0
LINE
  5
369
100
AcDbEntity
  8
0
370
    13
390
0
 62
     7
 48
0.007455
100
AcDbLine
 10
182.515732
 20
145.280197
 30
0.0
 11
182.792496
 21
145.391266
 31
0.0
210
0.0
220
0.0
230
1.0
  0
LINE
  5
36A
100
AcDbEntity
  8
0
370
    13
390
0
 62
     7
 48
0.009734
100
AcDbLine
 10
165.901352
 20
147.945175
 30
0.0
 11
166.280518
 21
148.033752
 31
0.0
210
0.0
220
0.0
230
1.0
  0
LINE
  5
36B
100
AcDbEntity
  8
0
370
    13
390
0
 62
     7
 48
0.007488
100
AcDbLine
 10
182.280991
 20
145.286224
 30
0.0
 11
182.559113
 21
145.397415
 31
0.0
210
0.0
220
0.0
230
1.0
  0
LINE
  5
36C
100
AcDbEntity
  8
0
370
    13
390
0
 62
     7
 48
0.009788
100
AcDbLine
 10
165.531006
 20
147.698898
 30
0.0
 11
165.911926
 21
147.789429
 31
0.0
210
0.0
220
0.0
230
1.0
  0
LINE
  5
36D
100
AcDbEntity
  8
0
370
    13
390
0
 62
     7
 48
0.00965
100
AcDbLine
 10
166.046341
 20
145.856689
 30
0.0
 11
166.419098
 21
145.95694
 31
0.0
210
0.0
220
0.0
230
1.0
  0
LINE
  5
36E
100
AcDbEntity
  8
0
370
    13
390
0
 62
     7
 48
0.009684
100
AcDbLine
 10
165.80748
 20
145.896515
 30
0.0
 11
166.181656
 21
145.996719
 31
0.0
210
0.0
220
0.0
230
1.0
  0
LINE
  5
36F
100
AcDbEntity
  8
0
370
    13
390
0
 62
     7
 48
0.005008
100
AcDbLine
 10
203.258102
 20
151.282944
 30
0.0
 11
203.439514
 21
151.367859
 31
0.0
210
0.0
220
0.0
230
1.0
  0
LINE
  5
370
100
AcDbEntity
  8
0
370
    13
390
0
 62
     7
 48
0.004639
100
AcDbLine
 10
210.524155
 20
144.736572
 30
0.0
 11
210.660645
 21
144.862305
 31
0.0
210
0.0
220
0.0
230
1.0
  0
LINE
  5
371
100
AcDbEntity
  8
0
370
    13
390
0
 62
     7
 48
0.006168
100
AcDbLine
 10
196.789993
 20
147.001312
 30
0.0
 11
197.012558
 21
147.107819
 31
0.0
210
0.0
220
0.0
230
1.0
  0
LINE
  5
372
100
AcDbEntity
  8
0
370
    13
390
0
 62
     7
 48
0.004663
100
AcDbLine
 10
210.317627
 20
144.73941
 30
0.0
 11
210.455338
 21
144.865234
 31
0.0
210
0.0
220
0.0
230
1.0
  0
LINE
  5
373
100
AcDbEntity
  8
0
370
    13
390
0
 62
     7
 48
0.006219
100
AcDbLine
 10
196.489655
 20
146.801758
 30
0.0
 11
196.71376
 21
146.90976
 31
0.0
210
0.0
220
0.0
230
1.0
  0
LINE
  5
374
100
AcDbEntity
  8
0
370
    13
390
0
 62
     7
 48
0.006174
100
AcDbLine
 10
197.031296
 20
144.958115
 30
0.0
 11
197.248093
 21
145.076416
 31
0.0
210
0.0
220
0.0
230
1.0
  0
LINE
  5
375
100
AcDbEntity
  8
0
370
    13
390
0
 62
     7
 48
0.006198
100
AcDbLine
 10
196.84613
 20
144.978638
 30
0.0
 11
197.064041
 21
145.096893
 31
0.0
210
0.0
220
0.0
230
1.0
  0
LINE
  5
376
100
AcDbEntity
  8
0
370
    13
390
0
 62
     7
 48
0.003531
100
AcDbLine
 10
231.317978
 20
144.45105
 30
0.0
 11
231.35643
 21
144.586975
 31
0.0
210
0.0
220
0.0
230
1.0
  0
LINE
  5
377
100
AcDbEntity
  8
0
370
    13
390
0
 62
     7
 48
0.003843
100
AcDbLine
 10
225.023041
 20
144.536743
 30
0.0
 11
225.101318
 21
144.669052
 31
0.0
210
0.0
220
0.0
230
1.0
  0
LINE
  5
378
100
AcDbEntity
  8
0
370
    13
390
0
 62
     7
 48
0.003569
100
AcDbLine
 10
244.499649
 20
144.271683
 30
0.0
 11
244.484055
 21
144.413605
 31
0.0
210
0.0
220
0.0
230
1.0
  0
LINE
  5
379
100
AcDbEntity
  8
0
370
    13
390
0
 62
     7
 48
0.003573
100
AcDbLine
 10
244.626358
 20
144.253525
 30
0.0
 11
244.609756
 21
144.395462
 31
0.0
210
0.0
220
0.0
230
1.0
  0
LINE
  5
37A
100
AcDbEntity
  8
0
370
    35
390
0
 62
     7
 48
0.011694
100
AcDbLine
 10
153.23671
 20
155.644302
 30
0.0
 11
153.701797
 21
155.694153
 31
0.0
210
0.0
220
0.0
230
1.0
  0
ENDSEC
  0
SECTION
  2
OBJECTS
  0
DICTIONARY
  5
19
100
AcDbDictionary
280
     0
281
     1
  3
ACAD_GROUP
350
1A
  3
ACAD_MLINESTYLE
350
1B
  3
ACAD_LAYOUT
350
1E
  3
ACAD_PLOTSETTINGS
350
22
  3
ACAD_PLOTSTYLENAME
350
1F
  3
ACAD_WIPEOUT_VARS
350
23
  0
DICTIONARY
  5
1A
102
{ACAD_REACTORS
330
19
102
}
100
AcDbDictionary
280
     0
281
     1
  0
DICTIONARY
  5
1B
102
{ACAD_REACTORS
330
19
102
}
100
AcDbDictionary
280
     0
281
     1
  3
Standard
350
1C
  0
MLINESTYLE
  5
1C
102
{ACAD_REACTORS
330
1B
102
}
100
AcDbMlineStyle
  2
Standard
 70
     0
  3

 62
     0
 51
90.0
 52
90.0
 71
     2
 49
0.5
 62
   256
  6
ByLayer
 49
-0.5
 62
   256
  6
ByLayer
  0
ACDBDICTIONARYWDFLT
  5
1F
102
{ACAD_REACTORS
330
19
102
}
100
AcDbDictionary
281
     1
  3
Normal
350
1D
100
AcDbDictionaryWithDefault
340
1D
  0
ACDBPLACEHOLDER
  5
1D
102
{ACAD_REACTORS
330
1F
102
}
  0
LAYOUT
  5
20
102
{ACAD_REACTORS
330
1E
102
}
100
AcDbPlotSettings
  1

  2

  4

  6

 40
0.0
 41
0.0
 42
0.0
 43
0.0
 44
0.0
 45
0.0
 46
0.0
 47
0.0
 48
0.0
 49
0.0
140
0.0
141
0.0
142
1.0
143
1.0
 70
  1024
 72
     0
 73
     0
 74
     0
  7

 75
     0
147
1.0
148
0.0
149
0.0
100
AcDbLayout
  1
Model
 70
     0
 71
     0
 10
0.0
 20
0.0
 11
0.0
 21
0.0
 12
0.0
 22
0.0
 32
0.0
 14
0.0
 24
0.0
 34
0.0
 15
0.0
 25
0.0
 35
0.0
146
0.0
 13
0.0
 23
0.0
 33
0.0
 16
0.0
 26
0.0
 36
0.0
 17
0.0
 27
0.0
 37
0.0
 76
     0
330
A
331
0
345
0
346
0
  0
LAYOUT
  5
21
102
{ACAD_REACTORS
330
1E
102
}
100
AcDbPlotSettings
  1

  2

  4

  6

 40
0.0
 41
0.0
 42
0.0
 43
0.0
 44
0.0
 45
0.0
 46
0.0
 47
0.0
 48
0.0
 49
0.0
140
0.0
141
0.0
142
1.0
143
1.0
 70
     0
 72
     0
 73
     0
 74
     0
  7

 75
     0
147
1.0
148
0.0
149
0.0
100
AcDbLayout
  1
Layout1
 70
     0
 71
     0
 10
0.0
 20
0.0
 11
0.0
 21
0.0
 12
0.0
 22
0.0
 32
0.0
 14
0.0
 24
0.0
 34
0.0
 15
0.0
 25
0.0
 35
0.0
146
0.0
 13
0.0
 23
0.0
 33
0.0
 16
0.0
 26
0.0
 36
0.0
 17
0.0
 27
0.0
 37
0.0
 76
     0
330
B
331
0
345
0
346
0
  0
DICTIONARY
  5
1E
102
{ACAD_REACTORS
330
19
102
}
100
AcDbDictionary
280
     0
281
     1
  3
Layout1
350
21
  3
Model
350
20
  0
DICTIONARY
  5
22
102
{ACAD_REACTORS
330
19
102
}
100
AcDbDictionary
280
     0
281
     1
  0
WIPEOUTVARIABLES
  5
23
100
AcDbWipeoutVariables
 70
     1
  0
ENDSEC
  0
EOF
