  0
SECTION
  2
HEADER
  9
$ACADVER
  1
AC1015
  9
$ACADMAINTVER
 70
     6
  9
$DWGCODEPAGE
  3
ANSI_1252
  9
$INSBASE
 10
0.0
 20
0.0
 30
0.0
  9
$EXTMIN
 10
0.0
 20
0.0
 30
0.0
  9
$EXTMAX
 10
280.177429
 20
158.589569
 30
2.0
  9
$LIMMIN
 10
0.0
 20
0.0
  9
$LIMMAX
 10
420.0
 20
297.0
  9
$ORTHOMODE
 70
     0
  9
$REGENMODE
 70
     1
  9
$FILLMODE
 70
     1
  9
$QTEXTMODE
 70
     0
  9
$MIRRTEXT
 70
     1
  9
$LTSCALE
 40
1.0
  9
$ATTMODE
 70
     1
  9
$TEXTSIZE
 40
2.5
  9
$TRACEWID
 40
1.0
  9
$TEXTSTYLE
  7
Standard
  9
$CLAYER
  8
0
  9
$CELTYPE
  6
ByLayer
  9
$CECOLOR
 62
   256
  9
$CELTSCALE
 40
1.0
  9
$DISPSILH
 70
     0
  9
$DIMSCALE
 40
1.0
  9
$DIMASZ
 40
2.5
  9
$DIMEXO
 40
0.625
  9
$DIMDLI
 40
3.75
  9
$DIMRND
 40
0.0
  9
$DIMDLE
 40
0.0
  9
$DIMEXE
 40
1.25
  9
$DIMTP
 40
0.0
  9
$DIMTM
 40
0.0
  9
$DIMTXT
 40
2.5
  9
$DIMCEN
 40
2.5
  9
$DIMTSZ
 40
0.0
  9
$DIMTOL
 70
     0
  9
$DIMLIM
 70
     0
  9
$DIMTIH
 70
     0
  9
$DIMTOH
 70
     0
  9
$DIMSE1
 70
     0
  9
$DIMSE2
 70
     0
  9
$DIMTAD
 70
     1
  9
$DIMZIN
 70
     8
  9
$DIMBLK
  1

  9
$DIMASO
 70
     1
  9
$DIMSHO
 70
     1
  9
$DIMPOST
  1

  9
$DIMAPOST
  1

  9
$DIMALT
 70
     0
  9
$DIMALTD
 70
     3
  9
$DIMALTF
 40
0.03937
  9
$DIMLFAC
 40
1.0
  9
$DIMTOFL
 70
     1
  9
$DIMTVP
 40
0.0
  9
$DIMTIX
 70
     0
  9
$DIMSOXD
 70
     0
  9
$DIMSAH
 70
     0
  9
$DIMBLK1
  1

  9
$DIMBLK2
  1

  9
$DIMSTYLE
  2

  9
$DIMCLRD
 70
     0
  9
$DIMCLRE
 70
     0
  9
$DIMCLRT
 70
     0
  9
$DIMTFAC
 40
1.0
  9
$DIMGAP
 40
0.625
  9
$DIMJUST
 70
     0
  9
$DIMSD1
 70
     0
  9
$DIMSD2
 70
     0
  9
$DIMTOLJ
 70
     0
  9
$DIMTZIN
 70
     8
  9
$DIMALTZ
 70
     0
  9
$DIMALTTZ
 70
     0
  9
$DIMUPT
 70
     0
  9
$DIMDEC
 70
     2
  9
$DIMTDEC
 70
     2
  9
$DIMALTU
 70
     2
  9
$DIMALTTD
 70
     3
  9
$DIMTXSTY
  7
Standard
  9
$DIMAUNIT
 70
     0
  9
$DIMADEC
 70
     0
  9
$DIMALTRND
 40
0.0
  9
$DIMAZIN
 70
     0
  9
$DIMDSEP
 70
    44
  9
$DIMATFIT
 70
     0
  9
$DIMFRAC
 70
     0
  9
$DIMLDRBLK
  1

  9
$DIMLUNIT
 70
     2
  9
$DIMLWD
 70
    -2
  9
$DIMLWE
 70
    -2
  9
$DIMTMOVE
 70
     0
  9
$LUNITS
 70
     2
  9
$LUPREC
 70
     4
  9
$SKETCHINC
 40
1.0
  9
$FILLETRAD
 40
2.5
  9
$AUNITS
 70
     0
  9
$AUPREC
 70
     0
  9
$MENU
  1
.
  9
$ELEVATION
 40
0.0
  9
$PELEVATION
 40
0.0
  9
$THICKNESS
 40
0.0
  9
$LIMCHECK
 70
     0
  9
$CHAMFERA
 40
2.5
  9
$CHAMFERB
 40
2.5
  9
$CHAMFERC
 40
0.0
  9
$CHAMFERD
 40
0.0
  9
$SKPOLY
 70
     0
  9
$TDCREATE
 40
0.000000000
  9
$TDUCREATE
 40
0.000000000
  9
$TDUPDATE
 40
0.000000000
  9
$TDUUPDATE
 40
0.000000000
  9
$TDINDWG
 40
0.0000000000
  9
$TDUSRTIMER
 40
0.0000000000
  9
$USRTIMER
 70
     1
  9
$ANGBASE
 50
0.0
  9
$ANGDIR
 70
     0
  9
$PDMODE
 70
     0
  9
$PDSIZE
 40
0.0
  9
$PLINEWID
 40
0.0
  9
$SPLFRAME
 70
     0
  9
$SPLINETYPE
 70
     6
  9
$SPLINESEGS
 70
     8
  9
$HANDSEED
  5
390
  9
$SURFTAB1
 70
     6
  9
$SURFTAB2
 70
     6
  9
$SURFTYPE
 70
     6
  9
$SURFU
 70
     6
  9
$SURFV
 70
     6
  9
$UCSBASE
  2

  9
$UCSNAME
  2

  9
$UCSORG
 10
0.0
 20
0.0
 30
0.0
  9
$UCSXDIR
 10
1.0
 20
0.0
 30
0.0
  9
$UCSYDIR
 10
0.0
 20
1.0
 30
0.0
  9
$UCSORTHOREF
  2

  9
$UCSORTHOVIEW
 70
     1
  9
$UCSORGTOP
 10
0.0
 20
0.0
 30
0.0
  9
$UCSORGBOTTOM
 10
0.0
 20
0.0
 30
0.0
  9
$UCSORGLEFT
 10
0.0
 20
0.0
 30
0.0
  9
$UCSORGRIGHT
 10
0.0
 20
0.0
 30
0.0
  9
$UCSORGFRONT
 10
0.0
 20
0.0
 30
0.0
  9
$UCSORGBACK
 10
0.0
 20
0.0
 30
0.0
  9
$PUCSBASE
  2

  9
$PUCSNAME
  2

  9
$PUCSORG
 10
0.0
 20
0.0
 30
0.0
  9
$PUCSXDIR
 10
1.0
 20
0.0
 30
0.0
  9
$PUCSYDIR
 10
0.0
 20
1.0
 30
0.0
  9
$PUCSORTHOREF
  2

  9
$PUCSORTHOVIEW
 70
     0
  9
$PUCSORGTOP
 10
0.0
 20
0.0
 30
0.0
  9
$PUCSORGBOTTOM
 10
0.0
 20
0.0
 30
0.0
  9
$PUCSORGLEFT
 10
0.0
 20
0.0
 30
0.0
  9
$PUCSORGRIGHT
 10
0.0
 20
0.0
 30
0.0
  9
$PUCSORGFRONT
 10
0.0
 20
0.0
 30
0.0
  9
$PUCSORGBACK
 10
0.0
 20
0.0
 30
0.0
  9
$USERI1
 70
     0
  9
$USERI2
 70
     0
  9
$USERI3
 70
     0
  9
$USERI4
 70
     0
  9
$USERI5
 70
     0
  9
$USERR1
 40
0.0
  9
$USERR2
 40
0.0
  9
$USERR3
 40
0.0
  9
$USERR4
 40
0.0
  9
$USERR5
 40
0.0
  9
$WORLDVIEW
 70
     1
  9
$SHADEDGE
 70
     3
  9
$SHADEDIF
 70
    70
  9
$TILEMODE
 70
     1
  9
$MAXACTVP
 70
    48
  9
$PINSBASE
 10
0.0
 20
0.0
 30
0.0
  9
$PLIMCHECK
 70
     0
  9
$PEXTMIN
 10
0.0
 20
0.0
 30
0.0
  9
$PEXTMAX
 10
280.177429
 20
158.589569
 30
2.0
  9
$PLIMMIN
 10
0.0
 20
0.0
  9
$PLIMMAX
 10
420.0
 20
297.0
  9
$UNITMODE
 70
     0
  9
$VISRETAIN
 70
     0
  9
$PLINEGEN
 70
     0
  9
$PSLTSCALE
 70
     1
  9
$TREEDEPTH
 70
  3020
  9
$CMLSTYLE
  2
Standard
  9
$CMLJUST
 70
     0
  9
$CMLSCALE
 40
20.0
  9
$PROXYGRAPHICS
 70
     1
  9
$MEASUREMENT
 70
     1
  9
$CELWEIGHT
370
    -1
  9
$ENDCAPS
280
     0
  9
$JOINSTYLE
280
     0
  9
$LWDISPLAY
290
     0
  9
$INSUNITS
 70
     0
  9
$HYPERLINKBASE
  1

  9
$STYLESHEET
  1

  9
$XEDIT
290
     1
  9
$CEPSNTYPE
380
     0
  9
$PSTYLEMODE
290
     0
  9
$FINGERPRINTGUID
  2

  9
$VERSIONGUID
  2

  9
$EXTNAMES
290
     0
  9
$PSVPSCALE
 40
0.0
  0
ENDSEC
  0
SECTION
  2
CLASSES
  0
CLASS
  1
LWPOLYLINE
  2
AcDbPolyline
  3
AutoCAD 2000
 90
        0
280
     0
281
     1
  0
CLASS
  1
IMAGE
  2
AcDbRasterImage
  3
ISM
 90
      127
280
     0
281
     1
  0
CLASS
  1
OLE2FRAME
  2
AcDbOle2Frame
  3
AutoCAD 2000
 90
        0
280
     0
281
     1
  0
CLASS
  1
HATCH
  2
AcDbHatch
  3
AutoCAD 2000
 90
        0
280
     0
281
     1
  0
CLASS
  1
DICTIONARYVAR
  2
AcDbDictionaryVar
  3
AutoCAD 2000
 90
        0
280
     0
281
     0
  0
CLASS
  1
RASTERVARIABLES
  2
AcDbRasterVariables
  3
ISM
 90
        0
280
     0
281
     0
  0
CLASS
  1
IMAGEDEF
  2
AcDbRasterImageDef
  3
ISM
 90
        0
280
     0
281
     0
  0
CLASS
  1
IMAGEDEF_REACTOR
  2
AcDbRasterImageDefReactor
  3
ISM
 90
        1
280
     0
281
     0
  0
CLASS
  1
IDBUFFER
  2
AcDbIdBuffer
  3
AutoCAD 2000
 90
        0
280
     0
281
     0
  0
CLASS
  1
SPATIAL_FILTER
  2
AcDbSpatialFilter
  3
AutoCAD 2000
 90
        0
280
     0
281
     0
  0
CLASS
  1
XRECORD
  2
AcDbXrecord
  3
AutoCAD 2000
 90
        0
280
     0
281
     0
  0
CLASS
  1
SORTENTSTABLE
  2
AcDbSortentsTable
  3
AutoCAD 2000
 90
        0
280
     0
281
     0
  0
CLASS
  1
LAYER_INDEX
  2
AcDbLayerIndex
  3
AutoCAD 2000
 90
        0
280
     0
281
     0
  0
CLASS
  1
SPATIAL_INDEX
  2
AcDbSpatialIndex
  3
AutoCAD 2000
 90
        0
280
     0
281
     0
  0
CLASS
  1
OBJECT_PTR
  2
CAseDLPNTableRecord
  3
"ASE-LPNTableRecord"
 90
        1
280
     0
281
     0
  0
CLASS
  1
LAYOUT
  2
AcDbLayout
  3
AutoCAD 2000
 90
        0
280
     0
281
     0
  0
CLASS
  1
PLOTSETTINGS
  2
AcDbPlotSettings
  3
AutoCAD 2000
 90
        0
280
     0
281
     0
  0
CLASS
  1
ACDBDICTIONARYWDFLT
  2
AcDbDictionaryWithDefault
  3
AutoCAD 2000
 90
        0
280
     0
281
     0
  0
CLASS
  1
ACDBPLACEHOLDER
  2
AcDbPlaceHolder
  3
AutoCAD 2000
 90
        0
280
     0
281
     0
  0
CLASS
  1
VBA_PROJECT
  2
AcDbVbaProject
  3
acadvba
 90
        0
280
     0
281
     0
  0
CLASS
  1
WIPEOUT
  2
AcDbWipeout
  3
WipeOut|AutoCAD Express Tool|expresstools@autodesk.com
 90
      127
280
     0
281
     1
  0
CLASS
  1
WIPEOUTVARIABLES
  2
AcDbWipeoutVariables
  3
WipeOut|AutoCAD Express Tool|expresstools@autodesk.com
 90
        0
280
     0
281
     0
  0
CLASS
  1
RTEXT
  2
RText
  3
RText|AutoCAD Express Tool|expresstools@autodesk.com
 90
        0
280
     0
281
     1
  0
CLASS
  1
ARCALIGNEDTEXT
  2
AcDbArcAlignedText
  3
ATEXT|AutoCAD Express Tool|expresstools@autodesk.com
 90
        0
280
     0
281
     1
  0
ENDSEC
  0
SECTION
  2
TABLES
  0
TABLE
  2
VPORT
  5
7
100
AcDbSymbolTable
 70
     1
  0
VPORT
  5
15
100
AcDbSymbolTableRecord
100
AcDbViewportTableRecord
  2
*ACTIVE
 70
     0
 10
0.0
 20
0.0
 11
1.0
 21
1.0
 12
6.591288
 22
4.579184
 13
0.0
 23
0.0
 14
1.0
 24
1.0
 15
0.0
 25
0.0
 16
0.0
 26
0.0
 36
1.0
 17
0.0
 27
0.0
 37
0.0
 40
9.158369
 41
0.688564
 42
50.0
 43
0.0
 44
0.0
 50
0.0
 51
0.0
 71
     0
 72
   100
 73
     1
 74
     1
 75
     0
 76
     0
 77
     0
 78
     0
281
     0
 65
     0
110
0.0
120
0.0
130
0.0
111
1.0
121
0.0
131
0.0
112
0.0
122
1.0
132
0.0
345
0
346
0
 79
     0
146
0.0
  0
ENDTAB
  0
TABLE
  2
LTYPE
  5
4
100
AcDbSymbolTable
 70
     3
  0
LTYPE
  5
11
100
AcDbSymbolTableRecord
100
AcDbLinetypeTableRecord
  2
ByBlock
 70
    64
  3

 72
    65
 73
     0
 40
0.0
  0
LTYPE
  5
12
100
AcDbSymbolTableRecord
100
AcDbLinetypeTableRecord
  2
ByLayer
 70
    64
  3

 72
    65
 73
     0
 40
0.0
  0
LTYPE
  5
13
100
AcDbSymbolTableRecord
100
AcDbLinetypeTableRecord
  2
Continuous
 70
    64
  3
Solid line
 72
    65
 73
     0
 40
0.0
  0
ENDTAB
  0
TABLE
  2
LAYER
  5
2
100
AcDbSymbolTable
 70
     1
  0
LAYER
  5
14
100
AcDbSymbolTableRecord
100
AcDbLayerTableRecord
  2
0
 70
     0
 62
     7
  6
Continuous
290
     1
370
    -3
390
1D
  0
ENDTAB
  0
TABLE
  2
STYLE
  5
3
100
AcDbSymbolTable
 70
     1
  0
STYLE
  5
17
100
AcDbSymbolTableRecord
100
AcDbTextStyleTableRecord
  2
Standard
 70
     0
 40
0.0
 41
1.0
 50
0.0
 71
     0
 42
0.0
  3
txt
  4

  0
ENDTAB
  0
TABLE
  2
VIEW
  5
5
100
AcDbSymbolTable
 70
     0
  0
ENDTAB
  0
TABLE
  2
UCS
  5
6
100
AcDbSymbolTable
 70
     0
  0
ENDTAB
  0
TABLE
  2
APPID
  5
8
100
AcDbSymbolTable
 70
     1
  0
APPID
  5
16
100
AcDbSymbolTableRecord
100
AcDbRegAppTableRecord
  2
ACAD
 70
     0
  0
ENDTAB
  0
TABLE
  2
DIMSTYLE
  5
9
100
AcDbSymbolTable
 70
     1
100
AcDbDimStyleTable
 71
     0
  0
DIMSTYLE
105
18
100
AcDbSymbolTableRecord
100
AcDbDimStyleTableRecord
  2
Standard
 70
     0
  3

  4

 40
1.0
 41
0.18
 42
0.0625
 43
0.38
 44
0.18
 45
0.0
 46
0.0
 47
0.0
 48
0.0
 71
     0
 72
     0
 73
     1
 74
     1
 75
     0
 76
     0
 77
     0
 78
     0
 79
     0
140
0.18
141
0.09
142
0.0
143
25.4
144
1.0
145
0.0
146
1.0
147
0.09
148
0.0
170
     0
171
     2
172
     0
173
     0
174
     0
175
     0
176
     0
177
     0
178
     0
179
     0
271
     4
272
     4
273
     2
274
     2
275
     0
276
     0
277
     2
278
    46
279
     0
280
     0
281
     0
282
     0
283
     1
284
     0
285
     0
286
     0
288
     0
289
     3
340
17
341
0
342
0
343
0
344
0
371
    -2
372
    -2
  0
ENDTAB
  0
TABLE
  2
BLOCK_RECORD
  5
1
100
AcDbSymbolTable
 70
     0
  0
BLOCK_RECORD
  5
A
100
AcDbSymbolTableRecord
100
AcDbBlockTableRecord
  2
*MODEL_SPACE
340
20
  0
BLOCK_RECORD
  5
B
100
AcDbSymbolTableRecord
100
AcDbBlockTableRecord
  2
*PAPER_SPACE
340
21
  0
ENDTAB
  0
ENDSEC
  0
SECTION
  2
BLOCKS
  0
BLOCK
  5
D
100
AcDbEntity
  8
0
390
0
100
AcDbBlockBegin
  2
*MODEL_SPACE
 70
     0
 10
0.0
 20
0.0
 30
0.0
  3
*MODEL_SPACE
  1

  0
ENDBLK
  5
E
100
AcDbEntity
  8
0
390
0
100
AcDbBlockEnd
  0
BLOCK
  5
F
100
AcDbEntity
 67
     1
  8
0
390
0
100
AcDbBlockBegin
  2
*PAPER_SPACE
 70
     0
 10
0.0
 20
0.0
 30
0.0
  3
*PAPER_SPACE
  1

  0
ENDBLK
  5
10
100
AcDbEntity
 67
     1
  8
0
390
0
100
AcDbBlockEnd
  0
ENDSEC
  0
SECTION
  2
ENTITIES
  0
VIEWPORT
  5
38F
100
AcDbEntity
 67
     1
  8
0
370
     0
390
0
 62
     0
 48
0.0
100
AcDbViewport
 10
0.0
 20
0.0
 30
0.0
 40
1000.0
 41
1000.0
 68
     1
 69
     1
 12
0.0
 22
0.0
 13
0.0
 23
0.0
 14
1.0
 24
1.0
 15
1.0
 25
1.0
 16
0.0
 26
0.0
 36
1.0
 17
0.0
 27
0.0
 37
0.0
 42
50.0
 43
0.0
 44
0.0
 45
1000.0
 50
0.0
 51
0.0
 72
   100
 90
        0
340
0
  1

281
     0
 71
     0
 74
     1
110
0.0
120
0.0
130
0.0
111
1.0
121
0.0
131
0.0
112
0.0
122
1.0
132
0.0
345
0
346
0
 79
     0
146
0.0
  0
POLYLINE
  5
24
100
AcDbEntity
  8
0
370
    13
390
0
 62
     7
100
AcDb2dPolyline
 66
     1
 10
0.0
 20
0.0
 30
0.0
 70
     1
 71
    10
  0
VERTEX
  5
25
100
AcDbEntity
  8
0
370
     0
390
0
100
AcDbVertex
100
AcDb2dVertex
 10
194.838226
 20
-23.658546
 30
0.0
  0
VERTEX
  5
26
100
AcDbEntity
  8
0
370
     0
390
0
100
AcDbVertex
100
AcDb2dVertex
 10
195.307251
 20
-23.658546
 30
0.0
  0
VERTEX
  5
27
100
AcDbEntity
  8
0
370
     0
390
0
100
AcDbVertex
100
AcDb2dVertex
 10
195.307251
 20
-22.049757
 30
0.0
  0
VERTEX
  5
28
100
AcDbEntity
  8
0
370
     0
390
0
100
AcDbVertex
100
AcDb2dVertex
 10
196.779877
 20
-22.049757
 30
0.0
  0
VERTEX
  5
29
100
AcDbEntity
  8
0
370
     0
390
0
100
AcDbVertex
100
AcDb2dVertex
 10
196.779877
 20
-21.631168
 30
0.0
  0
VERTEX
  5
2A
100
AcDbEntity
  8
0
370
     0
390
0
100
AcDbVertex
100
AcDb2dVertex
 10
195.307251
 20
-21.631168
 30
0.0
  0
VERTEX
  5
2B
100
AcDbEntity
  8
0
370
     0
390
0
100
AcDbVertex
100
AcDb2dVertex
 10
195.307251
 20
-20.582178
 30
0.0
  0
VERTEX
  5
2C
100
AcDbEntity
  8
0
370
     0
390
0
100
AcDbVertex
100
AcDb2dVertex
 10
197.117767
 20
-20.582178
 30
0.0
  0
VERTEX
  5
2D
100
AcDbEntity
  8
0
370
     0
390
0
100
AcDbVertex
100
AcDb2dVertex
 10
197.117767
 20
-20.158546
 30
0.0
  0
VERTEX
  5
2E
100
AcDbEntity
  8
0
370
     0
390
0
100
AcDbVertex
100
AcDb2dVertex
 10
194.838226
 20
-20.158546
 30
0.0
  0
SEQEND
  5
2F
100
AcDbEntity
  8
0
370
     0
390
0
  0
POLYLINE
  5
30
100
AcDbEntity
  8
0
370
    13
390
0
 62
     7
100
AcDb2dPolyline
 66
     1
 10
0.0
 20
0.0
 30
0.0
 70
     1
 71
    22
  0
VERTEX
  5
31
100
AcDbEntity
  8
0
370
     0
390
0
100
AcDbVertex
100
AcDb2dVertex
 10
198.030594
 20
-23.658546
 30
0.0
  0
VERTEX
  5
32
100
AcDbEntity
  8
0
370
     0
390
0
100
AcDbVertex
100
AcDb2dVertex
 10
198.474396
 20
-23.658546
 30
0.0
  0
VERTEX
  5
33
100
AcDbEntity
  8
0
370
     0
390
0
100
AcDbVertex
100
AcDb2dVertex
 10
198.474396
 20
-22.110275
 30
0.0
  0
VERTEX
  5
34
100
AcDbEntity
  8
0
370
     0
390
0
100
AcDbVertex
100
AcDb2dVertex
 10
198.519791
 20
-21.737076
 30
0.0
  0
VERTEX
  5
35
100
AcDbEntity
  8
0
370
     0
390
0
100
AcDbVertex
100
AcDb2dVertex
 10
198.65596
 20
-21.469786
 30
0.0
  0
VERTEX
  5
36
100
AcDbEntity
  8
0
370
     0
390
0
100
AcDbVertex
100
AcDb2dVertex
 10
198.877853
 20
-21.308403
 30
0.0
  0
VERTEX
  5
37
100
AcDbEntity
  8
0
370
     0
390
0
100
AcDbVertex
100
AcDb2dVertex
 10
199.1754
 20
-21.252926
 30
0.0
  0
VERTEX
  5
38
100
AcDbEntity
  8
0
370
     0
390
0
100
AcDbVertex
100
AcDb2dVertex
 10
199.397308
 20
-21.288229
 30
0.0
  0
VERTEX
  5
39
100
AcDbEntity
  8
0
370
     0
390
0
100
AcDbVertex
100
AcDb2dVertex
 10
199.563736
 20
-21.389093
 30
0.0
  0
VERTEX
  5
3A
100
AcDbEntity
  8
0
370
     0
390
0
100
AcDbVertex
100
AcDb2dVertex
 10
199.664597
 20
-21.560564
 30
0.0
  0
VERTEX
  5
3B
100
AcDbEntity
  8
0
370
     0
390
0
100
AcDbVertex
100
AcDb2dVertex
 10
199.699905
 20
-21.792553
 30
0.0
  0
VERTEX
  5
3C
100
AcDbEntity
  8
0
370
     0
390
0
100
AcDbVertex
100
AcDb2dVertex
 10
200.148743
 20
-21.792553
 30
0.0
  0
VERTEX
  5
3D
100
AcDbEntity
  8
0
370
     0
390
0
100
AcDbVertex
100
AcDb2dVertex
 10
200.088226
 20
-21.38405
 30
0.0
  0
VERTEX
  5
3E
100
AcDbEntity
  8
0
370
     0
390
0
100
AcDbVertex
100
AcDb2dVertex
 10
199.921799
 20
-21.091543
 30
0.0
  0
VERTEX
  5
3F
100
AcDbEntity
  8
0
370
     0
390
0
100
AcDbVertex
100
AcDb2dVertex
 10
199.644424
 20
-20.915031
 30
0.0
  0
VERTEX
  5
40
100
AcDbEntity
  8
0
370
     0
390
0
100
AcDbVertex
100
AcDb2dVertex
 10
199.26619
 20
-20.854511
 30
0.0
  0
VERTEX
  5
41
100
AcDbEntity
  8
0
370
     0
390
0
100
AcDbVertex
100
AcDb2dVertex
 10
199.008972
 20
-20.894857
 30
0.0
  0
VERTEX
  5
42
100
AcDbEntity
  8
0
370
     0
390
0
100
AcDbVertex
100
AcDb2dVertex
 10
198.787079
 20
-20.995722
 30
0.0
  0
VERTEX
  5
43
100
AcDbEntity
  8
0
370
     0
390
0
100
AcDbVertex
100
AcDb2dVertex
 10
198.590393
 20
-21.167192
 30
0.0
  0
VERTEX
  5
44
100
AcDbEntity
  8
0
370
     0
390
0
100
AcDbVertex
100
AcDb2dVertex
 10
198.434052
 20
-21.399181
 30
0.0
  0
VERTEX
  5
45
100
AcDbEntity
  8
0
370
     0
390
0
100
AcDbVertex
100
AcDb2dVertex
 10
198.434052
 20
-20.950333
 30
0.0
  0
VERTEX
  5
46
100
AcDbEntity
  8
0
370
     0
390
0
100
AcDbVertex
100
AcDb2dVertex
 10
198.030594
 20
-20.950333
 30
0.0
  0
SEQEND
  5
47
100
AcDbEntity
  8
0
370
     0
390
0
  0
POLYLINE
  5
48
100
AcDbEntity
  8
0
370
    13
390
0
 62
     7
100
AcDb2dPolyline
 66
     1
 10
0.0
 20
0.0
 30
0.0
 70
     1
 71
    16
  0
VERTEX
  5
49
100
AcDbEntity
  8
0
370
     0
390
0
100
AcDbVertex
100
AcDb2dVertex
 10
200.769073
 20
-22.306961
 30
0.0
  0
VERTEX
  5
4A
100
AcDbEntity
  8
0
370
     0
390
0
100
AcDbVertex
100
AcDb2dVertex
 10
200.849762
 20
-22.922235
 30
0.0
  0
VERTEX
  5
4B
100
AcDbEntity
  8
0
370
     0
390
0
100
AcDbVertex
100
AcDb2dVertex
 10
201.081741
 20
-23.376125
 30
0.0
  0
VERTEX
  5
4C
100
AcDbEntity
  8
0
370
     0
390
0
100
AcDbVertex
100
AcDb2dVertex
 10
201.449905
 20
-23.658546
 30
0.0
  0
VERTEX
  5
4D
100
AcDbEntity
  8
0
370
     0
390
0
100
AcDbVertex
100
AcDb2dVertex
 10
201.944138
 20
-23.754368
 30
0.0
  0
VERTEX
  5
4E
100
AcDbEntity
  8
0
370
     0
390
0
100
AcDbVertex
100
AcDb2dVertex
 10
202.433334
 20
-23.658546
 30
0.0
  0
VERTEX
  5
4F
100
AcDbEntity
  8
0
370
     0
390
0
100
AcDbVertex
100
AcDb2dVertex
 10
202.801483
 20
-23.381168
 30
0.0
  0
VERTEX
  5
50
100
AcDbEntity
  8
0
370
     0
390
0
100
AcDbVertex
100
AcDb2dVertex
 10
203.033478
 20
-22.927279
 30
0.0
  0
VERTEX
  5
51
100
AcDbEntity
  8
0
370
     0
390
0
100
AcDbVertex
100
AcDb2dVertex
 10
203.119217
 20
-22.306961
 30
0.0
  0
VERTEX
  5
52
100
AcDbEntity
  8
0
370
     0
390
0
100
AcDbVertex
100
AcDb2dVertex
 10
203.033478
 20
-21.691689
 30
0.0
  0
VERTEX
  5
53
100
AcDbEntity
  8
0
370
     0
390
0
100
AcDbVertex
100
AcDb2dVertex
 10
202.801483
 20
-21.232754
 30
0.0
  0
VERTEX
  5
54
100
AcDbEntity
  8
0
370
     0
390
0
100
AcDbVertex
100
AcDb2dVertex
 10
202.433334
 20
-20.955376
 30
0.0
  0
VERTEX
  5
55
100
AcDbEntity
  8
0
370
     0
390
0
100
AcDbVertex
100
AcDb2dVertex
 10
201.944138
 20
-20.854511
 30
0.0
  0
VERTEX
  5
56
100
AcDbEntity
  8
0
370
     0
390
0
100
AcDbVertex
100
AcDb2dVertex
 10
201.449905
 20
-20.955376
 30
0.0
  0
VERTEX
  5
57
100
AcDbEntity
  8
0
370
     0
390
0
100
AcDbVertex
100
AcDb2dVertex
 10
201.081741
 20
-21.237797
 30
0.0
  0
VERTEX
  5
58
100
AcDbEntity
  8
0
370
     0
390
0
100
AcDbVertex
100
AcDb2dVertex
 10
200.849762
 20
-21.691689
 30
0.0
  0
SEQEND
  5
59
100
AcDbEntity
  8
0
370
     0
390
0
  0
POLYLINE
  5
5A
100
AcDbEntity
  8
0
370
    13
390
0
 62
     7
100
AcDb2dPolyline
 66
     1
 10
0.0
 20
0.0
 30
0.0
 70
     1
 71
    16
  0
VERTEX
  5
5B
100
AcDbEntity
  8
0
370
     0
390
0
100
AcDbVertex
100
AcDb2dVertex
 10
201.222961
 20
-22.301918
 30
0.0
  0
VERTEX
  5
5C
100
AcDbEntity
  8
0
370
     0
390
0
100
AcDbVertex
100
AcDb2dVertex
 10
201.268341
 20
-21.848028
 30
0.0
  0
VERTEX
  5
5D
100
AcDbEntity
  8
0
370
     0
390
0
100
AcDbVertex
100
AcDb2dVertex
 10
201.409561
 20
-21.520218
 30
0.0
  0
VERTEX
  5
5E
100
AcDbEntity
  8
0
370
     0
390
0
100
AcDbVertex
100
AcDb2dVertex
 10
201.636505
 20
-21.318489
 30
0.0
  0
VERTEX
  5
5F
100
AcDbEntity
  8
0
370
     0
390
0
100
AcDbVertex
100
AcDb2dVertex
 10
201.944138
 20
-21.247883
 30
0.0
  0
VERTEX
  5
60
100
AcDbEntity
  8
0
370
     0
390
0
100
AcDbVertex
100
AcDb2dVertex
 10
202.246735
 20
-21.318489
 30
0.0
  0
VERTEX
  5
61
100
AcDbEntity
  8
0
370
     0
390
0
100
AcDbVertex
100
AcDb2dVertex
 10
202.473679
 20
-21.515175
 30
0.0
  0
VERTEX
  5
62
100
AcDbEntity
  8
0
370
     0
390
0
100
AcDbVertex
100
AcDb2dVertex
 10
202.614883
 20
-21.848028
 30
0.0
  0
VERTEX
  5
63
100
AcDbEntity
  8
0
370
     0
390
0
100
AcDbVertex
100
AcDb2dVertex
 10
202.665314
 20
-22.301918
 30
0.0
  0
VERTEX
  5
64
100
AcDbEntity
  8
0
370
     0
390
0
100
AcDbVertex
100
AcDb2dVertex
 10
202.614883
 20
-22.760853
 30
0.0
  0
VERTEX
  5
65
100
AcDbEntity
  8
0
370
     0
390
0
100
AcDbVertex
100
AcDb2dVertex
 10
202.473679
 20
-23.093704
 30
0.0
  0
VERTEX
  5
66
100
AcDbEntity
  8
0
370
     0
390
0
100
AcDbVertex
100
AcDb2dVertex
 10
202.246735
 20
-23.295435
 30
0.0
  0
VERTEX
  5
67
100
AcDbEntity
  8
0
370
     0
390
0
100
AcDbVertex
100
AcDb2dVertex
 10
201.944138
 20
-23.360996
 30
0.0
  0
VERTEX
  5
68
100
AcDbEntity
  8
0
370
     0
390
0
100
AcDbVertex
100
AcDb2dVertex
 10
201.636505
 20
-23.295435
 30
0.0
  0
VERTEX
  5
69
100
AcDbEntity
  8
0
370
     0
390
0
100
AcDbVertex
100
AcDb2dVertex
 10
201.409561
 20
-23.093704
 30
0.0
  0
VERTEX
  5
6A
100
AcDbEntity
  8
0
370
     0
390
0
100
AcDbVertex
100
AcDb2dVertex
 10
201.268341
 20
-22.760853
 30
0.0
  0
SEQEND
  5
6B
100
AcDbEntity
  8
0
370
     0
390
0
  0
POLYLINE
  5
6C
100
AcDbEntity
  8
0
370
    13
390
0
 62
     7
100
AcDb2dPolyline
 66
     1
 10
0.0
 20
0.0
 30
0.0
 70
     1
 71
    24
  0
VERTEX
  5
6D
100
AcDbEntity
  8
0
370
     0
390
0
100
AcDbVertex
100
AcDb2dVertex
 10
203.936218
 20
-23.658546
 30
0.0
  0
VERTEX
  5
6E
100
AcDbEntity
  8
0
370
     0
390
0
100
AcDbVertex
100
AcDb2dVertex
 10
204.38002
 20
-23.658546
 30
0.0
  0
VERTEX
  5
6F
100
AcDbEntity
  8
0
370
     0
390
0
100
AcDbVertex
100
AcDb2dVertex
 10
204.38002
 20
-22.095146
 30
0.0
  0
VERTEX
  5
70
100
AcDbEntity
  8
0
370
     0
390
0
100
AcDbVertex
100
AcDb2dVertex
 10
204.4254
 20
-21.737076
 30
0.0
  0
VERTEX
  5
71
100
AcDbEntity
  8
0
370
     0
390
0
100
AcDbVertex
100
AcDb2dVertex
 10
204.571655
 20
-21.474829
 30
0.0
  0
VERTEX
  5
72
100
AcDbEntity
  8
0
370
     0
390
0
100
AcDbVertex
100
AcDb2dVertex
 10
204.798599
 20
-21.313446
 30
0.0
  0
VERTEX
  5
73
100
AcDbEntity
  8
0
370
     0
390
0
100
AcDbVertex
100
AcDb2dVertex
 10
205.101196
 20
-21.252926
 30
0.0
  0
VERTEX
  5
74
100
AcDbEntity
  8
0
370
     0
390
0
100
AcDbVertex
100
AcDb2dVertex
 10
205.343277
 20
-21.30336
 30
0.0
  0
VERTEX
  5
75
100
AcDbEntity
  8
0
370
     0
390
0
100
AcDbVertex
100
AcDb2dVertex
 10
205.494568
 20
-21.439526
 30
0.0
  0
VERTEX
  5
76
100
AcDbEntity
  8
0
370
     0
390
0
100
AcDbVertex
100
AcDb2dVertex
 10
205.570221
 20
-21.666471
 30
0.0
  0
VERTEX
  5
77
100
AcDbEntity
  8
0
370
     0
390
0
100
AcDbVertex
100
AcDb2dVertex
 10
205.595428
 20
-21.969065
 30
0.0
  0
VERTEX
  5
78
100
AcDbEntity
  8
0
370
     0
390
0
100
AcDbVertex
100
AcDb2dVertex
 10
205.595428
 20
-23.658546
 30
0.0
  0
VERTEX
  5
79
100
AcDbEntity
  8
0
370
     0
390
0
100
AcDbVertex
100
AcDb2dVertex
 10
206.039246
 20
-23.658546
 30
0.0
  0
VERTEX
  5
7A
100
AcDbEntity
  8
0
370
     0
390
0
100
AcDbVertex
100
AcDb2dVertex
 10
206.039246
 20
-21.878286
 30
0.0
  0
VERTEX
  5
7B
100
AcDbEntity
  8
0
370
     0
390
0
100
AcDbVertex
100
AcDb2dVertex
 10
206.019073
 20
-21.520218
 30
0.0
  0
VERTEX
  5
7C
100
AcDbEntity
  8
0
370
     0
390
0
100
AcDbVertex
100
AcDb2dVertex
 10
205.928284
 20
-21.222668
 30
0.0
  0
VERTEX
  5
7D
100
AcDbEntity
  8
0
370
     0
390
0
100
AcDbVertex
100
AcDb2dVertex
 10
205.630737
 20
-20.950333
 30
0.0
  0
VERTEX
  5
7E
100
AcDbEntity
  8
0
370
     0
390
0
100
AcDbVertex
100
AcDb2dVertex
 10
205.166763
 20
-20.854511
 30
0.0
  0
VERTEX
  5
7F
100
AcDbEntity
  8
0
370
     0
390
0
100
AcDbVertex
100
AcDb2dVertex
 10
204.909561
 20
-20.889814
 30
0.0
  0
VERTEX
  5
80
100
AcDbEntity
  8
0
370
     0
390
0
100
AcDbVertex
100
AcDb2dVertex
 10
204.692703
 20
-20.985636
 30
0.0
  0
VERTEX
  5
81
100
AcDbEntity
  8
0
370
     0
390
0
100
AcDbVertex
100
AcDb2dVertex
 10
204.506104
 20
-21.147018
 30
0.0
  0
VERTEX
  5
82
100
AcDbEntity
  8
0
370
     0
390
0
100
AcDbVertex
100
AcDb2dVertex
 10
204.359848
 20
-21.363878
 30
0.0
  0
VERTEX
  5
83
100
AcDbEntity
  8
0
370
     0
390
0
100
AcDbVertex
100
AcDb2dVertex
 10
204.359848
 20
-20.950333
 30
0.0
  0
VERTEX
  5
84
100
AcDbEntity
  8
0
370
     0
390
0
100
AcDbVertex
100
AcDb2dVertex
 10
203.936218
 20
-20.950333
 30
0.0
  0
SEQEND
  5
85
100
AcDbEntity
  8
0
370
     0
390
0
  0
POLYLINE
  5
86
100
AcDbEntity
  8
0
370
    13
390
0
 62
     7
100
AcDb2dPolyline
 66
     1
 10
0.0
 20
0.0
 30
0.0
 70
     1
 71
    22
  0
VERTEX
  5
87
100
AcDbEntity
  8
0
370
     0
390
0
100
AcDbVertex
100
AcDb2dVertex
 10
207.567337
 20
-21.419353
 30
0.0
  0
VERTEX
  5
88
100
AcDbEntity
  8
0
370
     0
390
0
100
AcDbVertex
100
AcDb2dVertex
 10
207.567337
 20
-22.775982
 30
0.0
  0
VERTEX
  5
89
100
AcDbEntity
  8
0
370
     0
390
0
100
AcDbVertex
100
AcDb2dVertex
 10
207.597595
 20
-23.214743
 30
0.0
  0
VERTEX
  5
8A
100
AcDbEntity
  8
0
370
     0
390
0
100
AcDbVertex
100
AcDb2dVertex
 10
207.7388
 20
-23.517336
 30
0.0
  0
VERTEX
  5
8B
100
AcDbEntity
  8
0
370
     0
390
0
100
AcDbVertex
100
AcDb2dVertex
 10
208.021225
 20
-23.69385
 30
0.0
  0
VERTEX
  5
8C
100
AcDbEntity
  8
0
370
     0
390
0
100
AcDbVertex
100
AcDb2dVertex
 10
208.500336
 20
-23.754368
 30
0.0
  0
VERTEX
  5
8D
100
AcDbEntity
  8
0
370
     0
390
0
100
AcDbVertex
100
AcDb2dVertex
 10
209.024826
 20
-23.729151
 30
0.0
  0
VERTEX
  5
8E
100
AcDbEntity
  8
0
370
     0
390
0
100
AcDbVertex
100
AcDb2dVertex
 10
209.024826
 20
-23.345867
 30
0.0
  0
VERTEX
  5
8F
100
AcDbEntity
  8
0
370
     0
390
0
100
AcDbVertex
100
AcDb2dVertex
 10
208.641541
 20
-23.376125
 30
0.0
  0
VERTEX
  5
90
100
AcDbEntity
  8
0
370
     0
390
0
100
AcDbVertex
100
AcDb2dVertex
 10
208.293564
 20
-23.335779
 30
0.0
  0
VERTEX
  5
91
100
AcDbEntity
  8
0
370
     0
390
0
100
AcDbVertex
100
AcDb2dVertex
 10
208.106964
 20
-23.2097
 30
0.0
  0
VERTEX
  5
92
100
AcDbEntity
  8
0
370
     0
390
0
100
AcDbVertex
100
AcDb2dVertex
 10
208.026276
 20
-22.997883
 30
0.0
  0
VERTEX
  5
93
100
AcDbEntity
  8
0
370
     0
390
0
100
AcDbVertex
100
AcDb2dVertex
 10
208.011139
 20
-22.700333
 30
0.0
  0
VERTEX
  5
94
100
AcDbEntity
  8
0
370
     0
390
0
100
AcDbVertex
100
AcDb2dVertex
 10
208.011139
 20
-21.419353
 30
0.0
  0
VERTEX
  5
95
100
AcDbEntity
  8
0
370
     0
390
0
100
AcDbVertex
100
AcDb2dVertex
 10
209.024826
 20
-21.419353
 30
0.0
  0
VERTEX
  5
96
100
AcDbEntity
  8
0
370
     0
390
0
100
AcDbVertex
100
AcDb2dVertex
 10
209.024826
 20
-21.041111
 30
0.0
  0
VERTEX
  5
97
100
AcDbEntity
  8
0
370
     0
390
0
100
AcDbVertex
100
AcDb2dVertex
 10
208.011139
 20
-21.041111
 30
0.0
  0
VERTEX
  5
98
100
AcDbEntity
  8
0
370
     0
390
0
100
AcDbVertex
100
AcDb2dVertex
 10
208.011139
 20
-20.249325
 30
0.0
  0
VERTEX
  5
99
100
AcDbEntity
  8
0
370
     0
390
0
100
AcDbVertex
100
AcDb2dVertex
 10
207.567337
 20
-20.249325
 30
0.0
  0
VERTEX
  5
9A
100
AcDbEntity
  8
0
370
     0
390
0
100
AcDbVertex
100
AcDb2dVertex
 10
207.567337
 20
-21.041111
 30
0.0
  0
VERTEX
  5
9B
100
AcDbEntity
  8
0
370
     0
390
0
100
AcDbVertex
100
AcDb2dVertex
 10
206.800766
 20
-21.041111
 30
0.0
  0
VERTEX
  5
9C
100
AcDbEntity
  8
0
370
     0
390
0
100
AcDbVertex
100
AcDb2dVertex
 10
206.800766
 20
-21.419353
 30
0.0
  0
SEQEND
  5
9D
100
AcDbEntity
  8
0
370
     0
390
0
  0
POLYLINE
  5
9E
100
AcDbEntity
  8
0
370
    13
390
0
 62
     7
100
AcDb2dPolyline
 66
     1
 10
0.0
 20
0.0
 30
0.0
 70
     1
 71
     7
  0
VERTEX
  5
9F
100
AcDbEntity
  8
0
370
     0
390
0
100
AcDbVertex
100
AcDb2dVertex
 10
213.856247
 20
-23.658546
 30
0.0
  0
VERTEX
  5
A0
100
AcDbEntity
  8
0
370
     0
390
0
100
AcDbVertex
100
AcDb2dVertex
 10
214.325256
 20
-23.658546
 30
0.0
  0
VERTEX
  5
A1
100
AcDbEntity
  8
0
370
     0
390
0
100
AcDbVertex
100
AcDb2dVertex
 10
215.313736
 20
-20.950333
 30
0.0
  0
VERTEX
  5
A2
100
AcDbEntity
  8
0
370
     0
390
0
100
AcDbVertex
100
AcDb2dVertex
 10
214.854797
 20
-20.950333
 30
0.0
  0
VERTEX
  5
A3
100
AcDbEntity
  8
0
370
     0
390
0
100
AcDbVertex
100
AcDb2dVertex
 10
214.093277
 20
-23.13405
 30
0.0
  0
VERTEX
  5
A4
100
AcDbEntity
  8
0
370
     0
390
0
100
AcDbVertex
100
AcDb2dVertex
 10
213.31662
 20
-20.950333
 30
0.0
  0
VERTEX
  5
A5
100
AcDbEntity
  8
0
370
     0
390
0
100
AcDbVertex
100
AcDb2dVertex
 10
212.852646
 20
-20.950333
 30
0.0
  0
SEQEND
  5
A6
100
AcDbEntity
  8
0
370
     0
390
0
  0
POLYLINE
  5
A7
100
AcDbEntity
  8
0
370
    13
390
0
 62
     7
100
AcDb2dPolyline
 66
     1
 10
0.0
 20
0.0
 30
0.0
 70
     1
 71
    10
  0
VERTEX
  5
A8
100
AcDbEntity
  8
0
370
     0
390
0
100
AcDbVertex
100
AcDb2dVertex
 10
217.436935
 20
-23.285347
 30
0.0
  0
VERTEX
  5
A9
100
AcDbEntity
  8
0
370
     0
390
0
100
AcDbVertex
100
AcDb2dVertex
 10
217.436935
 20
-21.041111
 30
0.0
  0
VERTEX
  5
AA
100
AcDbEntity
  8
0
370
     0
390
0
100
AcDbVertex
100
AcDb2dVertex
 10
216.297165
 20
-21.041111
 30
0.0
  0
VERTEX
  5
AB
100
AcDbEntity
  8
0
370
     0
390
0
100
AcDbVertex
100
AcDb2dVertex
 10
216.297165
 20
-21.419353
 30
0.0
  0
VERTEX
  5
AC
100
AcDbEntity
  8
0
370
     0
390
0
100
AcDbVertex
100
AcDb2dVertex
 10
216.993134
 20
-21.419353
 30
0.0
  0
VERTEX
  5
AD
100
AcDbEntity
  8
0
370
     0
390
0
100
AcDbVertex
100
AcDb2dVertex
 10
216.993134
 20
-23.285347
 30
0.0
  0
VERTEX
  5
AE
100
AcDbEntity
  8
0
370
     0
390
0
100
AcDbVertex
100
AcDb2dVertex
 10
216.085358
 20
-23.285347
 30
0.0
  0
VERTEX
  5
AF
100
AcDbEntity
  8
0
370
     0
390
0
100
AcDbVertex
100
AcDb2dVertex
 10
216.085358
 20
-23.658546
 30
0.0
  0
VERTEX
  5
B0
100
AcDbEntity
  8
0
370
     0
390
0
100
AcDbVertex
100
AcDb2dVertex
 10
218.354797
 20
-23.658546
 30
0.0
  0
VERTEX
  5
B1
100
AcDbEntity
  8
0
370
     0
390
0
100
AcDbVertex
100
AcDb2dVertex
 10
218.354797
 20
-23.285347
 30
0.0
  0
SEQEND
  5
B2
100
AcDbEntity
  8
0
370
     0
390
0
  0
POLYLINE
  5
B3
100
AcDbEntity
  8
0
370
    13
390
0
 62
     7
100
AcDb2dPolyline
 66
     1
 10
0.0
 20
0.0
 30
0.0
 70
     1
 71
     4
  0
VERTEX
  5
B4
100
AcDbEntity
  8
0
370
     0
390
0
100
AcDbVertex
100
AcDb2dVertex
 10
217.452057
 20
-20.03751
 30
0.0
  0
VERTEX
  5
B5
100
AcDbEntity
  8
0
370
     0
390
0
100
AcDbVertex
100
AcDb2dVertex
 10
216.983047
 20
-20.03751
 30
0.0
  0
VERTEX
  5
B6
100
AcDbEntity
  8
0
370
     0
390
0
100
AcDbVertex
100
AcDb2dVertex
 10
216.983047
 20
-20.541832
 30
0.0
  0
VERTEX
  5
B7
100
AcDbEntity
  8
0
370
     0
390
0
100
AcDbVertex
100
AcDb2dVertex
 10
217.452057
 20
-20.541832
 30
0.0
  0
SEQEND
  5
B8
100
AcDbEntity
  8
0
370
     0
390
0
  0
POLYLINE
  5
B9
100
AcDbEntity
  8
0
370
    13
390
0
 62
     7
100
AcDb2dPolyline
 66
     1
 10
0.0
 20
0.0
 30
0.0
 70
     1
 71
    27
  0
VERTEX
  5
BA
100
AcDbEntity
  8
0
370
     0
390
0
100
AcDbVertex
100
AcDb2dVertex
 10
219.504654
 20
-22.433043
 30
0.0
  0
VERTEX
  5
BB
100
AcDbEntity
  8
0
370
     0
390
0
100
AcDbVertex
100
AcDb2dVertex
 10
221.279877
 20
-22.433043
 30
0.0
  0
VERTEX
  5
BC
100
AcDbEntity
  8
0
370
     0
390
0
100
AcDbVertex
100
AcDb2dVertex
 10
221.284912
 20
-22.226271
 30
0.0
  0
VERTEX
  5
BD
100
AcDbEntity
  8
0
370
     0
390
0
100
AcDbVertex
100
AcDb2dVertex
 10
221.204224
 20
-21.646299
 30
0.0
  0
VERTEX
  5
BE
100
AcDbEntity
  8
0
370
     0
390
0
100
AcDbVertex
100
AcDb2dVertex
 10
220.98233
 20
-21.212582
 30
0.0
  0
VERTEX
  5
BF
100
AcDbEntity
  8
0
370
     0
390
0
100
AcDbVertex
100
AcDb2dVertex
 10
220.629303
 20
-20.950333
 30
0.0
  0
VERTEX
  5
C0
100
AcDbEntity
  8
0
370
     0
390
0
100
AcDbVertex
100
AcDb2dVertex
 10
220.160278
 20
-20.854511
 30
0.0
  0
VERTEX
  5
C1
100
AcDbEntity
  8
0
370
     0
390
0
100
AcDbVertex
100
AcDb2dVertex
 10
219.70134
 20
-20.955376
 30
0.0
  0
VERTEX
  5
C2
100
AcDbEntity
  8
0
370
     0
390
0
100
AcDbVertex
100
AcDb2dVertex
 10
219.348312
 20
-21.237797
 30
0.0
  0
VERTEX
  5
C3
100
AcDbEntity
  8
0
370
     0
390
0
100
AcDbVertex
100
AcDb2dVertex
 10
219.121368
 20
-21.696732
 30
0.0
  0
VERTEX
  5
C4
100
AcDbEntity
  8
0
370
     0
390
0
100
AcDbVertex
100
AcDb2dVertex
 10
219.04068
 20
-22.301918
 30
0.0
  0
VERTEX
  5
C5
100
AcDbEntity
  8
0
370
     0
390
0
100
AcDbVertex
100
AcDb2dVertex
 10
219.116333
 20
-22.922235
 30
0.0
  0
VERTEX
  5
C6
100
AcDbEntity
  8
0
370
     0
390
0
100
AcDbVertex
100
AcDb2dVertex
 10
219.343277
 20
-23.376125
 30
0.0
  0
VERTEX
  5
C7
100
AcDbEntity
  8
0
370
     0
390
0
100
AcDbVertex
100
AcDb2dVertex
 10
219.691254
 20
-23.658546
 30
0.0
  0
VERTEX
  5
C8
100
AcDbEntity
  8
0
370
     0
390
0
100
AcDbVertex
100
AcDb2dVertex
 10
220.145142
 20
-23.754368
 30
0.0
  0
VERTEX
  5
C9
100
AcDbEntity
  8
0
370
     0
390
0
100
AcDbVertex
100
AcDb2dVertex
 10
220.538513
 20
-23.688807
 30
0.0
  0
VERTEX
  5
CA
100
AcDbEntity
  8
0
370
     0
390
0
100
AcDbVertex
100
AcDb2dVertex
 10
220.861282
 20
-23.517336
 30
0.0
  0
VERTEX
  5
CB
100
AcDbEntity
  8
0
370
     0
390
0
100
AcDbVertex
100
AcDb2dVertex
 10
221.098312
 20
-23.245001
 30
0.0
  0
VERTEX
  5
CC
100
AcDbEntity
  8
0
370
     0
390
0
100
AcDbVertex
100
AcDb2dVertex
 10
221.234482
 20
-22.881889
 30
0.0
  0
VERTEX
  5
CD
100
AcDbEntity
  8
0
370
     0
390
0
100
AcDbVertex
100
AcDb2dVertex
 10
220.795715
 20
-22.881889
 30
0.0
  0
VERTEX
  5
CE
100
AcDbEntity
  8
0
370
     0
390
0
100
AcDbVertex
100
AcDb2dVertex
 10
220.704941
 20
-23.083618
 30
0.0
  0
VERTEX
  5
CF
100
AcDbEntity
  8
0
370
     0
390
0
100
AcDbVertex
100
AcDb2dVertex
 10
220.573822
 20
-23.234915
 30
0.0
  0
VERTEX
  5
D0
100
AcDbEntity
  8
0
370
     0
390
0
100
AcDbVertex
100
AcDb2dVertex
 10
220.200623
 20
-23.355953
 30
0.0
  0
VERTEX
  5
D1
100
AcDbEntity
  8
0
370
     0
390
0
100
AcDbVertex
100
AcDb2dVertex
 10
219.913162
 20
-23.300478
 30
0.0
  0
VERTEX
  5
D2
100
AcDbEntity
  8
0
370
     0
390
0
100
AcDbVertex
100
AcDb2dVertex
 10
219.696304
 20
-23.123964
 30
0.0
  0
VERTEX
  5
D3
100
AcDbEntity
  8
0
370
     0
390
0
100
AcDbVertex
100
AcDb2dVertex
 10
219.555084
 20
-22.8365
 30
0.0
  0
VERTEX
  5
D4
100
AcDbEntity
  8
0
370
     0
390
0
100
AcDbVertex
100
AcDb2dVertex
 10
219.504654
 20
-22.448172
 30
0.0
  0
SEQEND
  5
D5
100
AcDbEntity
  8
0
370
     0
390
0
  0
POLYLINE
  5
D6
100
AcDbEntity
  8
0
370
    13
390
0
 62
     7
100
AcDb2dPolyline
 66
     1
 10
0.0
 20
0.0
 30
0.0
 70
     1
 71
     9
  0
VERTEX
  5
D7
100
AcDbEntity
  8
0
370
     0
390
0
100
AcDbVertex
100
AcDb2dVertex
 10
219.504654
 20
-22.059843
 30
0.0
  0
VERTEX
  5
D8
100
AcDbEntity
  8
0
370
     0
390
0
100
AcDbVertex
100
AcDb2dVertex
 10
219.560135
 20
-21.711861
 30
0.0
  0
VERTEX
  5
D9
100
AcDbEntity
  8
0
370
     0
390
0
100
AcDbVertex
100
AcDb2dVertex
 10
219.696304
 20
-21.454657
 30
0.0
  0
VERTEX
  5
DA
100
AcDbEntity
  8
0
370
     0
390
0
100
AcDbVertex
100
AcDb2dVertex
 10
219.903076
 20
-21.298317
 30
0.0
  0
VERTEX
  5
DB
100
AcDbEntity
  8
0
370
     0
390
0
100
AcDbVertex
100
AcDb2dVertex
 10
220.175415
 20
-21.24284
 30
0.0
  0
VERTEX
  5
DC
100
AcDbEntity
  8
0
370
     0
390
0
100
AcDbVertex
100
AcDb2dVertex
 10
220.442703
 20
-21.298317
 30
0.0
  0
VERTEX
  5
DD
100
AcDbEntity
  8
0
370
     0
390
0
100
AcDbVertex
100
AcDb2dVertex
 10
220.649475
 20
-21.454657
 30
0.0
  0
VERTEX
  5
DE
100
AcDbEntity
  8
0
370
     0
390
0
100
AcDbVertex
100
AcDb2dVertex
 10
220.775543
 20
-21.711861
 30
0.0
  0
VERTEX
  5
DF
100
AcDbEntity
  8
0
370
     0
390
0
100
AcDbVertex
100
AcDb2dVertex
 10
220.820938
 20
-22.059843
 30
0.0
  0
SEQEND
  5
E0
100
AcDbEntity
  8
0
370
     0
390
0
  0
POLYLINE
  5
E1
100
AcDbEntity
  8
0
370
    13
390
0
 62
     7
100
AcDb2dPolyline
 66
     1
 10
0.0
 20
0.0
 30
0.0
 70
     1
 71
    13
  0
VERTEX
  5
E2
100
AcDbEntity
  8
0
370
     0
390
0
100
AcDbVertex
100
AcDb2dVertex
 10
222.792847
 20
-23.658546
 30
0.0
  0
VERTEX
  5
E3
100
AcDbEntity
  8
0
370
     0
390
0
100
AcDbVertex
100
AcDb2dVertex
 10
223.196304
 20
-21.358835
 30
0.0
  0
VERTEX
  5
E4
100
AcDbEntity
  8
0
370
     0
390
0
100
AcDbVertex
100
AcDb2dVertex
 10
223.599762
 20
-23.658546
 30
0.0
  0
VERTEX
  5
E5
100
AcDbEntity
  8
0
370
     0
390
0
100
AcDbVertex
100
AcDb2dVertex
 10
224.023392
 20
-23.658546
 30
0.0
  0
VERTEX
  5
E6
100
AcDbEntity
  8
0
370
     0
390
0
100
AcDbVertex
100
AcDb2dVertex
 10
224.689087
 20
-20.950333
 30
0.0
  0
VERTEX
  5
E7
100
AcDbEntity
  8
0
370
     0
390
0
100
AcDbVertex
100
AcDb2dVertex
 10
224.260422
 20
-20.950333
 30
0.0
  0
VERTEX
  5
E8
100
AcDbEntity
  8
0
370
     0
390
0
100
AcDbVertex
100
AcDb2dVertex
 10
223.811569
 20
-23.250046
 30
0.0
  0
VERTEX
  5
E9
100
AcDbEntity
  8
0
370
     0
390
0
100
AcDbVertex
100
AcDb2dVertex
 10
223.413162
 20
-20.950333
 30
0.0
  0
VERTEX
  5
EA
100
AcDbEntity
  8
0
370
     0
390
0
100
AcDbVertex
100
AcDb2dVertex
 10
222.974396
 20
-20.950333
 30
0.0
  0
VERTEX
  5
EB
100
AcDbEntity
  8
0
370
     0
390
0
100
AcDbVertex
100
AcDb2dVertex
 10
222.575989
 20
-23.250046
 30
0.0
  0
VERTEX
  5
EC
100
AcDbEntity
  8
0
370
     0
390
0
100
AcDbVertex
100
AcDb2dVertex
 10
222.127136
 20
-20.950333
 30
0.0
  0
VERTEX
  5
ED
100
AcDbEntity
  8
0
370
     0
390
0
100
AcDbVertex
100
AcDb2dVertex
 10
221.703506
 20
-20.950333
 30
0.0
  0
VERTEX
  5
EE
100
AcDbEntity
  8
0
370
     0
390
0
100
AcDbVertex
100
AcDb2dVertex
 10
222.369202
 20
-23.658546
 30
0.0
  0
SEQEND
  5
EF
100
AcDbEntity
  8
0
370
     0
390
0
  0
POLYLINE
  5
F0
100
AcDbEntity
  8
0
370
    13
390
0
 62
     7
100
AcDb2dPolyline
 66
     1
 10
0.0
 20
0.0
 30
0.0
 70
     1
 71
    51
  0
VERTEX
  5
F1
100
AcDbEntity
  8
0
370
     0
390
0
100
AcDbVertex
100
AcDb2dVertex
 10
195.075256
 20
-28.550476
 30
0.0
  0
VERTEX
  5
F2
100
AcDbEntity
  8
0
370
     0
390
0
100
AcDbVertex
100
AcDb2dVertex
 10
194.616333
 20
-28.550476
 30
0.0
  0
VERTEX
  5
F3
100
AcDbEntity
  8
0
370
     0
390
0
100
AcDbVertex
100
AcDb2dVertex
 10
194.717194
 20
-29.085058
 30
0.0
  0
VERTEX
  5
F4
100
AcDbEntity
  8
0
370
     0
390
0
100
AcDbVertex
100
AcDb2dVertex
 10
194.96936
 20
-29.47843
 30
0.0
  0
VERTEX
  5
F5
100
AcDbEntity
  8
0
370
     0
390
0
100
AcDbVertex
100
AcDb2dVertex
 10
195.357681
 20
-29.715462
 30
0.0
  0
VERTEX
  5
F6
100
AcDbEntity
  8
0
370
     0
390
0
100
AcDbVertex
100
AcDb2dVertex
 10
195.882172
 20
-29.801197
 30
0.0
  0
VERTEX
  5
F7
100
AcDbEntity
  8
0
370
     0
390
0
100
AcDbVertex
100
AcDb2dVertex
 10
196.401627
 20
-29.720505
 30
0.0
  0
VERTEX
  5
F8
100
AcDbEntity
  8
0
370
     0
390
0
100
AcDbVertex
100
AcDb2dVertex
 10
196.789963
 20
-29.498604
 30
0.0
  0
VERTEX
  5
F9
100
AcDbEntity
  8
0
370
     0
390
0
100
AcDbVertex
100
AcDb2dVertex
 10
197.037079
 20
-29.150621
 30
0.0
  0
VERTEX
  5
FA
100
AcDbEntity
  8
0
370
     0
390
0
100
AcDbVertex
100
AcDb2dVertex
 10
197.127853
 20
-28.691687
 30
0.0
  0
VERTEX
  5
FB
100
AcDbEntity
  8
0
370
     0
390
0
100
AcDbVertex
100
AcDb2dVertex
 10
197.0522
 20
-28.278143
 30
0.0
  0
VERTEX
  5
FC
100
AcDbEntity
  8
0
370
     0
390
0
100
AcDbVertex
100
AcDb2dVertex
 10
196.840393
 20
-28.010851
 30
0.0
  0
VERTEX
  5
FD
100
AcDbEntity
  8
0
370
     0
390
0
100
AcDbVertex
100
AcDb2dVertex
 10
196.497452
 20
-27.834339
 30
0.0
  0
VERTEX
  5
FE
100
AcDbEntity
  8
0
370
     0
390
0
100
AcDbVertex
100
AcDb2dVertex
 10
196.038513
 20
-27.703215
 30
0.0
  0
VERTEX
  5
FF
100
AcDbEntity
  8
0
370
     0
390
0
100
AcDbVertex
100
AcDb2dVertex
 10
195.645142
 20
-27.607393
 30
0.0
  0
VERTEX
  5
100
100
AcDbEntity
  8
0
370
     0
390
0
100
AcDbVertex
100
AcDb2dVertex
 10
195.387939
 20
-27.496441
 30
0.0
  0
VERTEX
  5
101
100
AcDbEntity
  8
0
370
     0
390
0
100
AcDbVertex
100
AcDb2dVertex
 10
195.241684
 20
-27.335058
 30
0.0
  0
VERTEX
  5
102
100
AcDbEntity
  8
0
370
     0
390
0
100
AcDbVertex
100
AcDb2dVertex
 10
195.196304
 20
-27.082897
 30
0.0
  0
VERTEX
  5
103
100
AcDbEntity
  8
0
370
     0
390
0
100
AcDbVertex
100
AcDb2dVertex
 10
195.241684
 20
-26.855951
 30
0.0
  0
VERTEX
  5
104
100
AcDbEntity
  8
0
370
     0
390
0
100
AcDbVertex
100
AcDb2dVertex
 10
195.372818
 20
-26.684483
 30
0.0
  0
VERTEX
  5
105
100
AcDbEntity
  8
0
370
     0
390
0
100
AcDbVertex
100
AcDb2dVertex
 10
195.574539
 20
-26.568489
 30
0.0
  0
VERTEX
  5
106
100
AcDbEntity
  8
0
370
     0
390
0
100
AcDbVertex
100
AcDb2dVertex
 10
195.851913
 20
-26.528143
 30
0.0
  0
VERTEX
  5
107
100
AcDbEntity
  8
0
370
     0
390
0
100
AcDbVertex
100
AcDb2dVertex
 10
196.134338
 20
-26.578575
 30
0.0
  0
VERTEX
  5
108
100
AcDbEntity
  8
0
370
     0
390
0
100
AcDbVertex
100
AcDb2dVertex
 10
196.356247
 20
-26.714741
 30
0.0
  0
VERTEX
  5
109
100
AcDbEntity
  8
0
370
     0
390
0
100
AcDbVertex
100
AcDb2dVertex
 10
196.502502
 20
-26.941687
 30
0.0
  0
VERTEX
  5
10A
100
AcDbEntity
  8
0
370
     0
390
0
100
AcDbVertex
100
AcDb2dVertex
 10
196.573105
 20
-27.249325
 30
0.0
  0
VERTEX
  5
10B
100
AcDbEntity
  8
0
370
     0
390
0
100
AcDbVertex
100
AcDb2dVertex
 10
197.032028
 20
-27.249325
 30
0.0
  0
VERTEX
  5
10C
100
AcDbEntity
  8
0
370
     0
390
0
100
AcDbVertex
100
AcDb2dVertex
 10
197.032028
 20
-27.239237
 30
0.0
  0
VERTEX
  5
10D
100
AcDbEntity
  8
0
370
     0
390
0
100
AcDbVertex
100
AcDb2dVertex
 10
196.95134
 20
-26.765175
 30
0.0
  0
VERTEX
  5
10E
100
AcDbEntity
  8
0
370
     0
390
0
100
AcDbVertex
100
AcDb2dVertex
 10
196.71431
 20
-26.412148
 30
0.0
  0
VERTEX
  5
10F
100
AcDbEntity
  8
0
370
     0
390
0
100
AcDbVertex
100
AcDb2dVertex
 10
196.34111
 20
-26.190247
 30
0.0
  0
VERTEX
  5
110
100
AcDbEntity
  8
0
370
     0
390
0
100
AcDbVertex
100
AcDb2dVertex
 10
195.836792
 20
-26.114597
 30
0.0
  0
VERTEX
  5
111
100
AcDbEntity
  8
0
370
     0
390
0
100
AcDbVertex
100
AcDb2dVertex
 10
195.382904
 20
-26.190247
 30
0.0
  0
VERTEX
  5
112
100
AcDbEntity
  8
0
370
     0
390
0
100
AcDbVertex
100
AcDb2dVertex
 10
195.029877
 20
-26.402061
 30
0.0
  0
VERTEX
  5
113
100
AcDbEntity
  8
0
370
     0
390
0
100
AcDbVertex
100
AcDb2dVertex
 10
194.802933
 20
-26.729872
 30
0.0
  0
VERTEX
  5
114
100
AcDbEntity
  8
0
370
     0
390
0
100
AcDbVertex
100
AcDb2dVertex
 10
194.722229
 20
-27.153503
 30
0.0
  0
VERTEX
  5
115
100
AcDbEntity
  8
0
370
     0
390
0
100
AcDbVertex
100
AcDb2dVertex
 10
194.787796
 20
-27.531744
 30
0.0
  0
VERTEX
  5
116
100
AcDbEntity
  8
0
370
     0
390
0
100
AcDbVertex
100
AcDb2dVertex
 10
194.979446
 20
-27.78895
 30
0.0
  0
VERTEX
  5
117
100
AcDbEntity
  8
0
370
     0
390
0
100
AcDbVertex
100
AcDb2dVertex
 10
195.282028
 20
-27.960419
 30
0.0
  0
VERTEX
  5
118
100
AcDbEntity
  8
0
370
     0
390
0
100
AcDbVertex
100
AcDb2dVertex
 10
195.695572
 20
-28.091543
 30
0.0
  0
VERTEX
  5
119
100
AcDbEntity
  8
0
370
     0
390
0
100
AcDbVertex
100
AcDb2dVertex
 10
196.10408
 20
-28.207537
 30
0.0
  0
VERTEX
  5
11A
100
AcDbEntity
  8
0
370
     0
390
0
100
AcDbVertex
100
AcDb2dVertex
 10
196.411713
 20
-28.318487
 30
0.0
  0
VERTEX
  5
11B
100
AcDbEntity
  8
0
370
     0
390
0
100
AcDbVertex
100
AcDb2dVertex
 10
196.598312
 20
-28.479872
 30
0.0
  0
VERTEX
  5
11C
100
AcDbEntity
  8
0
370
     0
390
0
100
AcDbVertex
100
AcDb2dVertex
 10
196.663879
 20
-28.742119
 30
0.0
  0
VERTEX
  5
11D
100
AcDbEntity
  8
0
370
     0
390
0
100
AcDbVertex
100
AcDb2dVertex
 10
196.603363
 20
-29.009411
 30
0.0
  0
VERTEX
  5
11E
100
AcDbEntity
  8
0
370
     0
390
0
100
AcDbVertex
100
AcDb2dVertex
 10
196.447021
 20
-29.21114
 30
0.0
  0
VERTEX
  5
11F
100
AcDbEntity
  8
0
370
     0
390
0
100
AcDbVertex
100
AcDb2dVertex
 10
196.209991
 20
-29.337219
 30
0.0
  0
VERTEX
  5
120
100
AcDbEntity
  8
0
370
     0
390
0
100
AcDbVertex
100
AcDb2dVertex
 10
195.902344
 20
-29.377565
 30
0.0
  0
VERTEX
  5
121
100
AcDbEntity
  8
0
370
     0
390
0
100
AcDbVertex
100
AcDb2dVertex
 10
195.559418
 20
-29.32209
 30
0.0
  0
VERTEX
  5
122
100
AcDbEntity
  8
0
370
     0
390
0
100
AcDbVertex
100
AcDb2dVertex
 10
195.297165
 20
-29.160707
 30
0.0
  0
VERTEX
  5
123
100
AcDbEntity
  8
0
370
     0
390
0
100
AcDbVertex
100
AcDb2dVertex
 10
195.130737
 20
-28.898458
 30
0.0
  0
SEQEND
  5
124
100
AcDbEntity
  8
0
370
     0
390
0
  0
POLYLINE
  5
125
100
AcDbEntity
  8
0
370
    13
390
0
 62
     7
100
AcDb2dPolyline
 66
     1
 10
0.0
 20
0.0
 30
0.0
 70
     1
 71
    34
  0
VERTEX
  5
126
100
AcDbEntity
  8
0
370
     0
390
0
100
AcDbVertex
100
AcDb2dVertex
 10
199.588943
 20
-27.894857
 30
0.0
  0
VERTEX
  5
127
100
AcDbEntity
  8
0
370
     0
390
0
100
AcDbVertex
100
AcDb2dVertex
 10
200.02771
 20
-27.894857
 30
0.0
  0
VERTEX
  5
128
100
AcDbEntity
  8
0
370
     0
390
0
100
AcDbVertex
100
AcDb2dVertex
 10
199.936935
 20
-27.491398
 30
0.0
  0
VERTEX
  5
129
100
AcDbEntity
  8
0
370
     0
390
0
100
AcDbVertex
100
AcDb2dVertex
 10
199.720078
 20
-27.173676
 30
0.0
  0
VERTEX
  5
12A
100
AcDbEntity
  8
0
370
     0
390
0
100
AcDbVertex
100
AcDb2dVertex
 10
199.382172
 20
-26.97699
 30
0.0
  0
VERTEX
  5
12B
100
AcDbEntity
  8
0
370
     0
390
0
100
AcDbVertex
100
AcDb2dVertex
 10
198.94342
 20
-26.90134
 30
0.0
  0
VERTEX
  5
12C
100
AcDbEntity
  8
0
370
     0
390
0
100
AcDbVertex
100
AcDb2dVertex
 10
198.459274
 20
-27.002205
 30
0.0
  0
VERTEX
  5
12D
100
AcDbEntity
  8
0
370
     0
390
0
100
AcDbVertex
100
AcDb2dVertex
 10
198.09111
 20
-27.284626
 30
0.0
  0
VERTEX
  5
12E
100
AcDbEntity
  8
0
370
     0
390
0
100
AcDbVertex
100
AcDb2dVertex
 10
197.859131
 20
-27.743561
 30
0.0
  0
VERTEX
  5
12F
100
AcDbEntity
  8
0
370
     0
390
0
100
AcDbVertex
100
AcDb2dVertex
 10
197.778427
 20
-28.358833
 30
0.0
  0
VERTEX
  5
130
100
AcDbEntity
  8
0
370
     0
390
0
100
AcDbVertex
100
AcDb2dVertex
 10
197.85408
 20
-28.969065
 30
0.0
  0
VERTEX
  5
131
100
AcDbEntity
  8
0
370
     0
390
0
100
AcDbVertex
100
AcDb2dVertex
 10
198.081024
 20
-29.422955
 30
0.0
  0
VERTEX
  5
132
100
AcDbEntity
  8
0
370
     0
390
0
100
AcDbVertex
100
AcDb2dVertex
 10
198.439087
 20
-29.705376
 30
0.0
  0
VERTEX
  5
133
100
AcDbEntity
  8
0
370
     0
390
0
100
AcDbVertex
100
AcDb2dVertex
 10
198.928284
 20
-29.801197
 30
0.0
  0
VERTEX
  5
134
100
AcDbEntity
  8
0
370
     0
390
0
100
AcDbVertex
100
AcDb2dVertex
 10
199.362
 20
-29.725548
 30
0.0
  0
VERTEX
  5
135
100
AcDbEntity
  8
0
370
     0
390
0
100
AcDbVertex
100
AcDb2dVertex
 10
199.699905
 20
-29.513733
 30
0.0
  0
VERTEX
  5
136
100
AcDbEntity
  8
0
370
     0
390
0
100
AcDbVertex
100
AcDb2dVertex
 10
199.931885
 20
-29.18088
 30
0.0
  0
VERTEX
  5
137
100
AcDbEntity
  8
0
370
     0
390
0
100
AcDbVertex
100
AcDb2dVertex
 10
200.032761
 20
-28.737076
 30
0.0
  0
VERTEX
  5
138
100
AcDbEntity
  8
0
370
     0
390
0
100
AcDbVertex
100
AcDb2dVertex
 10
199.609131
 20
-28.737076
 30
0.0
  0
VERTEX
  5
139
100
AcDbEntity
  8
0
370
     0
390
0
100
AcDbVertex
100
AcDb2dVertex
 10
199.533478
 20
-29.019497
 30
0.0
  0
VERTEX
  5
13A
100
AcDbEntity
  8
0
370
     0
390
0
100
AcDbVertex
100
AcDb2dVertex
 10
199.392258
 20
-29.231312
 30
0.0
  0
VERTEX
  5
13B
100
AcDbEntity
  8
0
370
     0
390
0
100
AcDbVertex
100
AcDb2dVertex
 10
199.190536
 20
-29.362436
 30
0.0
  0
VERTEX
  5
13C
100
AcDbEntity
  8
0
370
     0
390
0
100
AcDbVertex
100
AcDb2dVertex
 10
198.94342
 20
-29.402782
 30
0.0
  0
VERTEX
  5
13D
100
AcDbEntity
  8
0
370
     0
390
0
100
AcDbVertex
100
AcDb2dVertex
 10
198.635773
 20
-29.337219
 30
0.0
  0
VERTEX
  5
13E
100
AcDbEntity
  8
0
370
     0
390
0
100
AcDbVertex
100
AcDb2dVertex
 10
198.413879
 20
-29.13549
 30
0.0
  0
VERTEX
  5
13F
100
AcDbEntity
  8
0
370
     0
390
0
100
AcDbVertex
100
AcDb2dVertex
 10
198.27771
 20
-28.807682
 30
0.0
  0
VERTEX
  5
140
100
AcDbEntity
  8
0
370
     0
390
0
100
AcDbVertex
100
AcDb2dVertex
 10
198.232315
 20
-28.343704
 30
0.0
  0
VERTEX
  5
141
100
AcDbEntity
  8
0
370
     0
390
0
100
AcDbVertex
100
AcDb2dVertex
 10
198.27771
 20
-27.889814
 30
0.0
  0
VERTEX
  5
142
100
AcDbEntity
  8
0
370
     0
390
0
100
AcDbVertex
100
AcDb2dVertex
 10
198.418915
 20
-27.562004
 30
0.0
  0
VERTEX
  5
143
100
AcDbEntity
  8
0
370
     0
390
0
100
AcDbVertex
100
AcDb2dVertex
 10
198.645874
 20
-27.360275
 30
0.0
  0
VERTEX
  5
144
100
AcDbEntity
  8
0
370
     0
390
0
100
AcDbVertex
100
AcDb2dVertex
 10
198.94342
 20
-27.289669
 30
0.0
  0
VERTEX
  5
145
100
AcDbEntity
  8
0
370
     0
390
0
100
AcDbVertex
100
AcDb2dVertex
 10
199.205658
 20
-27.335058
 30
0.0
  0
VERTEX
  5
146
100
AcDbEntity
  8
0
370
     0
390
0
100
AcDbVertex
100
AcDb2dVertex
 10
199.402344
 20
-27.451054
 30
0.0
  0
VERTEX
  5
147
100
AcDbEntity
  8
0
370
     0
390
0
100
AcDbVertex
100
AcDb2dVertex
 10
199.533478
 20
-27.642696
 30
0.0
  0
SEQEND
  5
148
100
AcDbEntity
  8
0
370
     0
390
0
  0
POLYLINE
  5
149
100
AcDbEntity
  8
0
370
    13
390
0
 62
     7
100
AcDb2dPolyline
 66
     1
 10
0.0
 20
0.0
 30
0.0
 70
     1
 71
    42
  0
VERTEX
  5
14A
100
AcDbEntity
  8
0
370
     0
390
0
100
AcDbVertex
100
AcDb2dVertex
 10
202.508972
 20
-29.35235
 30
0.0
  0
VERTEX
  5
14B
100
AcDbEntity
  8
0
370
     0
390
0
100
AcDbVertex
100
AcDb2dVertex
 10
202.508972
 20
-29.367479
 30
0.0
  0
VERTEX
  5
14C
100
AcDbEntity
  8
0
370
     0
390
0
100
AcDbVertex
100
AcDb2dVertex
 10
202.534195
 20
-29.53895
 30
0.0
  0
VERTEX
  5
14D
100
AcDbEntity
  8
0
370
     0
390
0
100
AcDbVertex
100
AcDb2dVertex
 10
202.609848
 20
-29.659986
 30
0.0
  0
VERTEX
  5
14E
100
AcDbEntity
  8
0
370
     0
390
0
100
AcDbVertex
100
AcDb2dVertex
 10
202.927567
 20
-29.755808
 30
0.0
  0
VERTEX
  5
14F
100
AcDbEntity
  8
0
370
     0
390
0
100
AcDbVertex
100
AcDb2dVertex
 10
203.174683
 20
-29.715462
 30
0.0
  0
VERTEX
  5
150
100
AcDbEntity
  8
0
370
     0
390
0
100
AcDbVertex
100
AcDb2dVertex
 10
203.174683
 20
-29.372522
 30
0.0
  0
VERTEX
  5
151
100
AcDbEntity
  8
0
370
     0
390
0
100
AcDbVertex
100
AcDb2dVertex
 10
203.068771
 20
-29.387651
 30
0.0
  0
VERTEX
  5
152
100
AcDbEntity
  8
0
370
     0
390
0
100
AcDbVertex
100
AcDb2dVertex
 10
202.927567
 20
-29.32209
 30
0.0
  0
VERTEX
  5
153
100
AcDbEntity
  8
0
370
     0
390
0
100
AcDbVertex
100
AcDb2dVertex
 10
202.902344
 20
-29.120361
 30
0.0
  0
VERTEX
  5
154
100
AcDbEntity
  8
0
370
     0
390
0
100
AcDbVertex
100
AcDb2dVertex
 10
202.902344
 20
-27.718344
 30
0.0
  0
VERTEX
  5
155
100
AcDbEntity
  8
0
370
     0
390
0
100
AcDbVertex
100
AcDb2dVertex
 10
202.841827
 20
-27.360275
 30
0.0
  0
VERTEX
  5
156
100
AcDbEntity
  8
0
370
     0
390
0
100
AcDbVertex
100
AcDb2dVertex
 10
202.665314
 20
-27.108114
 30
0.0
  0
VERTEX
  5
157
100
AcDbEntity
  8
0
370
     0
390
0
100
AcDbVertex
100
AcDb2dVertex
 10
202.357681
 20
-26.956818
 30
0.0
  0
VERTEX
  5
158
100
AcDbEntity
  8
0
370
     0
390
0
100
AcDbVertex
100
AcDb2dVertex
 10
201.923965
 20
-26.90134
 30
0.0
  0
VERTEX
  5
159
100
AcDbEntity
  8
0
370
     0
390
0
100
AcDbVertex
100
AcDb2dVertex
 10
201.500336
 20
-26.961861
 30
0.0
  0
VERTEX
  5
15A
100
AcDbEntity
  8
0
370
     0
390
0
100
AcDbVertex
100
AcDb2dVertex
 10
201.187653
 20
-27.133329
 30
0.0
  0
VERTEX
  5
15B
100
AcDbEntity
  8
0
370
     0
390
0
100
AcDbVertex
100
AcDb2dVertex
 10
200.990967
 20
-27.400621
 30
0.0
  0
VERTEX
  5
15C
100
AcDbEntity
  8
0
370
     0
390
0
100
AcDbVertex
100
AcDb2dVertex
 10
200.9254
 20
-27.753647
 30
0.0
  0
VERTEX
  5
15D
100
AcDbEntity
  8
0
370
     0
390
0
100
AcDbVertex
100
AcDb2dVertex
 10
200.9254
 20
-27.783905
 30
0.0
  0
VERTEX
  5
15E
100
AcDbEntity
  8
0
370
     0
390
0
100
AcDbVertex
100
AcDb2dVertex
 10
201.323822
 20
-27.783905
 30
0.0
  0
VERTEX
  5
15F
100
AcDbEntity
  8
0
370
     0
390
0
100
AcDbVertex
100
AcDb2dVertex
 10
201.359131
 20
-27.57209
 30
0.0
  0
VERTEX
  5
160
100
AcDbEntity
  8
0
370
     0
390
0
100
AcDbVertex
100
AcDb2dVertex
 10
201.470078
 20
-27.420794
 30
0.0
  0
VERTEX
  5
161
100
AcDbEntity
  8
0
370
     0
390
0
100
AcDbVertex
100
AcDb2dVertex
 10
201.651627
 20
-27.330015
 30
0.0
  0
VERTEX
  5
162
100
AcDbEntity
  8
0
370
     0
390
0
100
AcDbVertex
100
AcDb2dVertex
 10
201.908829
 20
-27.294712
 30
0.0
  0
VERTEX
  5
163
100
AcDbEntity
  8
0
370
     0
390
0
100
AcDbVertex
100
AcDb2dVertex
 10
202.15596
 20
-27.319929
 30
0.0
  0
VERTEX
  5
164
100
AcDbEntity
  8
0
370
     0
390
0
100
AcDbVertex
100
AcDb2dVertex
 10
202.332474
 20
-27.395576
 30
0.0
  0
VERTEX
  5
165
100
AcDbEntity
  8
0
370
     0
390
0
100
AcDbVertex
100
AcDb2dVertex
 10
202.43837
 20
-27.526701
 30
0.0
  0
VERTEX
  5
166
100
AcDbEntity
  8
0
370
     0
390
0
100
AcDbVertex
100
AcDb2dVertex
 10
202.473679
 20
-27.708258
 30
0.0
  0
VERTEX
  5
167
100
AcDbEntity
  8
0
370
     0
390
0
100
AcDbVertex
100
AcDb2dVertex
 10
202.453506
 20
-27.920073
 30
0.0
  0
VERTEX
  5
168
100
AcDbEntity
  8
0
370
     0
390
0
100
AcDbVertex
100
AcDb2dVertex
 10
202.372818
 20
-28.02598
 30
0.0
  0
VERTEX
  5
169
100
AcDbEntity
  8
0
370
     0
390
0
100
AcDbVertex
100
AcDb2dVertex
 10
202.171082
 20
-28.076412
 30
0.0
  0
VERTEX
  5
16A
100
AcDbEntity
  8
0
370
     0
390
0
100
AcDbVertex
100
AcDb2dVertex
 10
201.792847
 20
-28.116758
 30
0.0
  0
VERTEX
  5
16B
100
AcDbEntity
  8
0
370
     0
390
0
100
AcDbVertex
100
AcDb2dVertex
 10
201.359131
 20
-28.207537
 30
0.0
  0
VERTEX
  5
16C
100
AcDbEntity
  8
0
370
     0
390
0
100
AcDbVertex
100
AcDb2dVertex
 10
201.051483
 20
-28.368919
 30
0.0
  0
VERTEX
  5
16D
100
AcDbEntity
  8
0
370
     0
390
0
100
AcDbVertex
100
AcDb2dVertex
 10
200.869934
 20
-28.621082
 30
0.0
  0
VERTEX
  5
16E
100
AcDbEntity
  8
0
370
     0
390
0
100
AcDbVertex
100
AcDb2dVertex
 10
200.814453
 20
-28.99428
 30
0.0
  0
VERTEX
  5
16F
100
AcDbEntity
  8
0
370
     0
390
0
100
AcDbVertex
100
AcDb2dVertex
 10
200.864883
 20
-29.327133
 30
0.0
  0
VERTEX
  5
170
100
AcDbEntity
  8
0
370
     0
390
0
100
AcDbVertex
100
AcDb2dVertex
 10
201.021225
 20
-29.574251
 30
0.0
  0
VERTEX
  5
171
100
AcDbEntity
  8
0
370
     0
390
0
100
AcDbVertex
100
AcDb2dVertex
 10
201.273392
 20
-29.730593
 30
0.0
  0
VERTEX
  5
172
100
AcDbEntity
  8
0
370
     0
390
0
100
AcDbVertex
100
AcDb2dVertex
 10
201.621368
 20
-29.786068
 30
0.0
  0
VERTEX
  5
173
100
AcDbEntity
  8
0
370
     0
390
0
100
AcDbVertex
100
AcDb2dVertex
 10
202.090393
 20
-29.680159
 30
0.0
  0
SEQEND
  5
174
100
AcDbEntity
  8
0
370
     0
390
0
  0
POLYLINE
  5
175
100
AcDbEntity
  8
0
370
    13
390
0
 62
     7
100
AcDb2dPolyline
 66
     1
 10
0.0
 20
0.0
 30
0.0
 70
     1
 71
    14
  0
VERTEX
  5
176
100
AcDbEntity
  8
0
370
     0
390
0
100
AcDbVertex
100
AcDb2dVertex
 10
202.458542
 20
-28.757248
 30
0.0
  0
VERTEX
  5
177
100
AcDbEntity
  8
0
370
     0
390
0
100
AcDbVertex
100
AcDb2dVertex
 10
202.398026
 20
-29.019497
 30
0.0
  0
VERTEX
  5
178
100
AcDbEntity
  8
0
370
     0
390
0
100
AcDbVertex
100
AcDb2dVertex
 10
202.236649
 20
-29.221226
 30
0.0
  0
VERTEX
  5
179
100
AcDbEntity
  8
0
370
     0
390
0
100
AcDbVertex
100
AcDb2dVertex
 10
201.994568
 20
-29.35235
 30
0.0
  0
VERTEX
  5
17A
100
AcDbEntity
  8
0
370
     0
390
0
100
AcDbVertex
100
AcDb2dVertex
 10
201.697021
 20
-29.397739
 30
0.0
  0
VERTEX
  5
17B
100
AcDbEntity
  8
0
370
     0
390
0
100
AcDbVertex
100
AcDb2dVertex
 10
201.505371
 20
-29.372522
 30
0.0
  0
VERTEX
  5
17C
100
AcDbEntity
  8
0
370
     0
390
0
100
AcDbVertex
100
AcDb2dVertex
 10
201.369217
 20
-29.29183
 30
0.0
  0
VERTEX
  5
17D
100
AcDbEntity
  8
0
370
     0
390
0
100
AcDbVertex
100
AcDb2dVertex
 10
201.283478
 20
-29.150621
 30
0.0
  0
VERTEX
  5
17E
100
AcDbEntity
  8
0
370
     0
390
0
100
AcDbVertex
100
AcDb2dVertex
 10
201.258255
 20
-28.953936
 30
0.0
  0
VERTEX
  5
17F
100
AcDbEntity
  8
0
370
     0
390
0
100
AcDbVertex
100
AcDb2dVertex
 10
201.278427
 20
-28.777422
 30
0.0
  0
VERTEX
  5
180
100
AcDbEntity
  8
0
370
     0
390
0
100
AcDbVertex
100
AcDb2dVertex
 10
201.359131
 20
-28.65134
 30
0.0
  0
VERTEX
  5
181
100
AcDbEntity
  8
0
370
     0
390
0
100
AcDbVertex
100
AcDb2dVertex
 10
201.681885
 20
-28.51013
 30
0.0
  0
VERTEX
  5
182
100
AcDbEntity
  8
0
370
     0
390
0
100
AcDbVertex
100
AcDb2dVertex
 10
202.090393
 20
-28.449612
 30
0.0
  0
VERTEX
  5
183
100
AcDbEntity
  8
0
370
     0
390
0
100
AcDbVertex
100
AcDb2dVertex
 10
202.458542
 20
-28.328575
 30
0.0
  0
SEQEND
  5
184
100
AcDbEntity
  8
0
370
     0
390
0
  0
POLYLINE
  5
185
100
AcDbEntity
  8
0
370
    13
390
0
 62
     7
100
AcDb2dPolyline
 66
     1
 10
0.0
 20
0.0
 30
0.0
 70
     1
 71
    10
  0
VERTEX
  5
186
100
AcDbEntity
  8
0
370
     0
390
0
100
AcDbVertex
100
AcDb2dVertex
 10
204.818771
 20
-26.457537
 30
0.0
  0
VERTEX
  5
187
100
AcDbEntity
  8
0
370
     0
390
0
100
AcDbVertex
100
AcDb2dVertex
 10
204.818771
 20
-29.332176
 30
0.0
  0
VERTEX
  5
188
100
AcDbEntity
  8
0
370
     0
390
0
100
AcDbVertex
100
AcDb2dVertex
 10
203.90596
 20
-29.332176
 30
0.0
  0
VERTEX
  5
189
100
AcDbEntity
  8
0
370
     0
390
0
100
AcDbVertex
100
AcDb2dVertex
 10
203.90596
 20
-29.705376
 30
0.0
  0
VERTEX
  5
18A
100
AcDbEntity
  8
0
370
     0
390
0
100
AcDbVertex
100
AcDb2dVertex
 10
206.170364
 20
-29.705376
 30
0.0
  0
VERTEX
  5
18B
100
AcDbEntity
  8
0
370
     0
390
0
100
AcDbVertex
100
AcDb2dVertex
 10
206.170364
 20
-29.332176
 30
0.0
  0
VERTEX
  5
18C
100
AcDbEntity
  8
0
370
     0
390
0
100
AcDbVertex
100
AcDb2dVertex
 10
205.262589
 20
-29.332176
 30
0.0
  0
VERTEX
  5
18D
100
AcDbEntity
  8
0
370
     0
390
0
100
AcDbVertex
100
AcDb2dVertex
 10
205.262589
 20
-26.084339
 30
0.0
  0
VERTEX
  5
18E
100
AcDbEntity
  8
0
370
     0
390
0
100
AcDbVertex
100
AcDb2dVertex
 10
204.122818
 20
-26.084339
 30
0.0
  0
VERTEX
  5
18F
100
AcDbEntity
  8
0
370
     0
390
0
100
AcDbVertex
100
AcDb2dVertex
 10
204.122818
 20
-26.457537
 30
0.0
  0
SEQEND
  5
190
100
AcDbEntity
  8
0
370
     0
390
0
  0
POLYLINE
  5
191
100
AcDbEntity
  8
0
370
    13
390
0
 62
     7
100
AcDb2dPolyline
 66
     1
 10
0.0
 20
0.0
 30
0.0
 70
     1
 71
    27
  0
VERTEX
  5
192
100
AcDbEntity
  8
0
370
     0
390
0
100
AcDbVertex
100
AcDb2dVertex
 10
207.360565
 20
-28.479872
 30
0.0
  0
VERTEX
  5
193
100
AcDbEntity
  8
0
370
     0
390
0
100
AcDbVertex
100
AcDb2dVertex
 10
209.135773
 20
-28.479872
 30
0.0
  0
VERTEX
  5
194
100
AcDbEntity
  8
0
370
     0
390
0
100
AcDbVertex
100
AcDb2dVertex
 10
209.140823
 20
-28.2731
 30
0.0
  0
VERTEX
  5
195
100
AcDbEntity
  8
0
370
     0
390
0
100
AcDbVertex
100
AcDb2dVertex
 10
209.060135
 20
-27.693129
 30
0.0
  0
VERTEX
  5
196
100
AcDbEntity
  8
0
370
     0
390
0
100
AcDbVertex
100
AcDb2dVertex
 10
208.838226
 20
-27.259411
 30
0.0
  0
VERTEX
  5
197
100
AcDbEntity
  8
0
370
     0
390
0
100
AcDbVertex
100
AcDb2dVertex
 10
208.485199
 20
-26.997162
 30
0.0
  0
VERTEX
  5
198
100
AcDbEntity
  8
0
370
     0
390
0
100
AcDbVertex
100
AcDb2dVertex
 10
208.01619
 20
-26.90134
 30
0.0
  0
VERTEX
  5
199
100
AcDbEntity
  8
0
370
     0
390
0
100
AcDbVertex
100
AcDb2dVertex
 10
207.557251
 20
-27.002205
 30
0.0
  0
VERTEX
  5
19A
100
AcDbEntity
  8
0
370
     0
390
0
100
AcDbVertex
100
AcDb2dVertex
 10
207.204224
 20
-27.284626
 30
0.0
  0
VERTEX
  5
19B
100
AcDbEntity
  8
0
370
     0
390
0
100
AcDbVertex
100
AcDb2dVertex
 10
206.97728
 20
-27.743561
 30
0.0
  0
VERTEX
  5
19C
100
AcDbEntity
  8
0
370
     0
390
0
100
AcDbVertex
100
AcDb2dVertex
 10
206.896591
 20
-28.348747
 30
0.0
  0
VERTEX
  5
19D
100
AcDbEntity
  8
0
370
     0
390
0
100
AcDbVertex
100
AcDb2dVertex
 10
206.972229
 20
-28.969065
 30
0.0
  0
VERTEX
  5
19E
100
AcDbEntity
  8
0
370
     0
390
0
100
AcDbVertex
100
AcDb2dVertex
 10
207.199188
 20
-29.422955
 30
0.0
  0
VERTEX
  5
19F
100
AcDbEntity
  8
0
370
     0
390
0
100
AcDbVertex
100
AcDb2dVertex
 10
207.547165
 20
-29.705376
 30
0.0
  0
VERTEX
  5
1A0
100
AcDbEntity
  8
0
370
     0
390
0
100
AcDbVertex
100
AcDb2dVertex
 10
208.001053
 20
-29.801197
 30
0.0
  0
VERTEX
  5
1A1
100
AcDbEntity
  8
0
370
     0
390
0
100
AcDbVertex
100
AcDb2dVertex
 10
208.394424
 20
-29.735636
 30
0.0
  0
VERTEX
  5
1A2
100
AcDbEntity
  8
0
370
     0
390
0
100
AcDbVertex
100
AcDb2dVertex
 10
208.717194
 20
-29.564165
 30
0.0
  0
VERTEX
  5
1A3
100
AcDbEntity
  8
0
370
     0
390
0
100
AcDbVertex
100
AcDb2dVertex
 10
208.954224
 20
-29.29183
 30
0.0
  0
VERTEX
  5
1A4
100
AcDbEntity
  8
0
370
     0
390
0
100
AcDbVertex
100
AcDb2dVertex
 10
209.090393
 20
-28.928719
 30
0.0
  0
VERTEX
  5
1A5
100
AcDbEntity
  8
0
370
     0
390
0
100
AcDbVertex
100
AcDb2dVertex
 10
208.651627
 20
-28.928719
 30
0.0
  0
VERTEX
  5
1A6
100
AcDbEntity
  8
0
370
     0
390
0
100
AcDbVertex
100
AcDb2dVertex
 10
208.560852
 20
-29.130447
 30
0.0
  0
VERTEX
  5
1A7
100
AcDbEntity
  8
0
370
     0
390
0
100
AcDbVertex
100
AcDb2dVertex
 10
208.429733
 20
-29.281744
 30
0.0
  0
VERTEX
  5
1A8
100
AcDbEntity
  8
0
370
     0
390
0
100
AcDbVertex
100
AcDb2dVertex
 10
208.056534
 20
-29.402782
 30
0.0
  0
VERTEX
  5
1A9
100
AcDbEntity
  8
0
370
     0
390
0
100
AcDbVertex
100
AcDb2dVertex
 10
207.769073
 20
-29.347307
 30
0.0
  0
VERTEX
  5
1AA
100
AcDbEntity
  8
0
370
     0
390
0
100
AcDbVertex
100
AcDb2dVertex
 10
207.5522
 20
-29.170794
 30
0.0
  0
VERTEX
  5
1AB
100
AcDbEntity
  8
0
370
     0
390
0
100
AcDbVertex
100
AcDb2dVertex
 10
207.410995
 20
-28.883329
 30
0.0
  0
VERTEX
  5
1AC
100
AcDbEntity
  8
0
370
     0
390
0
100
AcDbVertex
100
AcDb2dVertex
 10
207.360565
 20
-28.495001
 30
0.0
  0
SEQEND
  5
1AD
100
AcDbEntity
  8
0
370
     0
390
0
  0
POLYLINE
  5
1AE
100
AcDbEntity
  8
0
370
    13
390
0
 62
     7
100
AcDb2dPolyline
 66
     1
 10
0.0
 20
0.0
 30
0.0
 70
     1
 71
     9
  0
VERTEX
  5
1AF
100
AcDbEntity
  8
0
370
     0
390
0
100
AcDbVertex
100
AcDb2dVertex
 10
207.360565
 20
-28.106672
 30
0.0
  0
VERTEX
  5
1B0
100
AcDbEntity
  8
0
370
     0
390
0
100
AcDbVertex
100
AcDb2dVertex
 10
207.416046
 20
-27.75869
 30
0.0
  0
VERTEX
  5
1B1
100
AcDbEntity
  8
0
370
     0
390
0
100
AcDbVertex
100
AcDb2dVertex
 10
207.5522
 20
-27.501486
 30
0.0
  0
VERTEX
  5
1B2
100
AcDbEntity
  8
0
370
     0
390
0
100
AcDbVertex
100
AcDb2dVertex
 10
207.758972
 20
-27.345146
 30
0.0
  0
VERTEX
  5
1B3
100
AcDbEntity
  8
0
370
     0
390
0
100
AcDbVertex
100
AcDb2dVertex
 10
208.031311
 20
-27.289669
 30
0.0
  0
VERTEX
  5
1B4
100
AcDbEntity
  8
0
370
     0
390
0
100
AcDbVertex
100
AcDb2dVertex
 10
208.298599
 20
-27.345146
 30
0.0
  0
VERTEX
  5
1B5
100
AcDbEntity
  8
0
370
     0
390
0
100
AcDbVertex
100
AcDb2dVertex
 10
208.505371
 20
-27.501486
 30
0.0
  0
VERTEX
  5
1B6
100
AcDbEntity
  8
0
370
     0
390
0
100
AcDbVertex
100
AcDb2dVertex
 10
208.631454
 20
-27.75869
 30
0.0
  0
VERTEX
  5
1B7
100
AcDbEntity
  8
0
370
     0
390
0
100
AcDbVertex
100
AcDb2dVertex
 10
208.676849
 20
-28.106672
 30
0.0
  0
SEQEND
  5
1B8
100
AcDbEntity
  8
0
370
     0
390
0
  0
POLYLINE
  5
1B9
100
AcDbEntity
  8
0
370
    13
390
0
 62
     7
100
AcDb2dPolyline
 66
     1
 10
0.0
 20
0.0
 30
0.0
 70
     1
 71
     4
  0
VERTEX
  5
1BA
100
AcDbEntity
  8
0
370
     0
390
0
100
AcDbVertex
100
AcDb2dVertex
 10
210.704224
 20
-29.705376
 30
0.0
  0
VERTEX
  5
1BB
100
AcDbEntity
  8
0
370
     0
390
0
100
AcDbVertex
100
AcDb2dVertex
 10
211.400192
 20
-29.705376
 30
0.0
  0
VERTEX
  5
1BC
100
AcDbEntity
  8
0
370
     0
390
0
100
AcDbVertex
100
AcDb2dVertex
 10
211.400192
 20
-28.953936
 30
0.0
  0
VERTEX
  5
1BD
100
AcDbEntity
  8
0
370
     0
390
0
100
AcDbVertex
100
AcDb2dVertex
 10
210.704224
 20
-28.953936
 30
0.0
  0
SEQEND
  5
1BE
100
AcDbEntity
  8
0
370
     0
390
0
  0
POLYLINE
  5
1BF
100
AcDbEntity
  8
0
370
    13
390
0
 62
     7
100
AcDb2dPolyline
 66
     1
 10
0.0
 20
0.0
 30
0.0
 70
     1
 71
     4
  0
VERTEX
  5
1C0
100
AcDbEntity
  8
0
370
     0
390
0
100
AcDbVertex
100
AcDb2dVertex
 10
210.704224
 20
-27.748604
 30
0.0
  0
VERTEX
  5
1C1
100
AcDbEntity
  8
0
370
     0
390
0
100
AcDbVertex
100
AcDb2dVertex
 10
211.400192
 20
-27.748604
 30
0.0
  0
VERTEX
  5
1C2
100
AcDbEntity
  8
0
370
     0
390
0
100
AcDbVertex
100
AcDb2dVertex
 10
211.400192
 20
-26.997162
 30
0.0
  0
VERTEX
  5
1C3
100
AcDbEntity
  8
0
370
     0
390
0
100
AcDbVertex
100
AcDb2dVertex
 10
210.704224
 20
-26.997162
 30
0.0
  0
SEQEND
  5
1C4
100
AcDbEntity
  8
0
370
     0
390
0
  0
POLYLINE
  5
1C5
100
AcDbEntity
  8
0
370
    13
390
0
 62
     7
100
AcDb2dPolyline
 66
     1
 10
0.0
 20
0.0
 30
0.0
 70
     1
 71
    10
  0
VERTEX
  5
1C6
100
AcDbEntity
  8
0
370
     0
390
0
100
AcDbVertex
100
AcDb2dVertex
 10
220.069504
 20
-29.705376
 30
0.0
  0
VERTEX
  5
1C7
100
AcDbEntity
  8
0
370
     0
390
0
100
AcDbVertex
100
AcDb2dVertex
 10
220.528427
 20
-29.705376
 30
0.0
  0
VERTEX
  5
1C8
100
AcDbEntity
  8
0
370
     0
390
0
100
AcDbVertex
100
AcDb2dVertex
 10
220.528427
 20
-26.180161
 30
0.0
  0
VERTEX
  5
1C9
100
AcDbEntity
  8
0
370
     0
390
0
100
AcDbVertex
100
AcDb2dVertex
 10
220.185486
 20
-26.180161
 30
0.0
  0
VERTEX
  5
1CA
100
AcDbEntity
  8
0
370
     0
390
0
100
AcDbVertex
100
AcDb2dVertex
 10
220.094711
 20
-26.487797
 30
0.0
  0
VERTEX
  5
1CB
100
AcDbEntity
  8
0
370
     0
390
0
100
AcDbVertex
100
AcDb2dVertex
 10
219.913162
 20
-26.694569
 30
0.0
  0
VERTEX
  5
1CC
100
AcDbEntity
  8
0
370
     0
390
0
100
AcDbVertex
100
AcDb2dVertex
 10
219.635773
 20
-26.815605
 30
0.0
  0
VERTEX
  5
1CD
100
AcDbEntity
  8
0
370
     0
390
0
100
AcDbVertex
100
AcDb2dVertex
 10
219.252502
 20
-26.855951
 30
0.0
  0
VERTEX
  5
1CE
100
AcDbEntity
  8
0
370
     0
390
0
100
AcDbVertex
100
AcDb2dVertex
 10
219.252502
 20
-27.214022
 30
0.0
  0
VERTEX
  5
1CF
100
AcDbEntity
  8
0
370
     0
390
0
100
AcDbVertex
100
AcDb2dVertex
 10
220.069504
 20
-27.214022
 30
0.0
  0
SEQEND
  5
1D0
100
AcDbEntity
  8
0
370
     0
390
0
  0
POLYLINE
  5
1D1
100
AcDbEntity
  8
0
370
    13
390
0
 62
     7
100
AcDb2dPolyline
 66
     1
 10
0.0
 20
0.0
 30
0.0
 70
     1
 71
     4
  0
VERTEX
  5
1D2
100
AcDbEntity
  8
0
370
     0
390
0
100
AcDbVertex
100
AcDb2dVertex
 10
222.848312
 20
-29.705376
 30
0.0
  0
VERTEX
  5
1D3
100
AcDbEntity
  8
0
370
     0
390
0
100
AcDbVertex
100
AcDb2dVertex
 10
223.544281
 20
-29.705376
 30
0.0
  0
VERTEX
  5
1D4
100
AcDbEntity
  8
0
370
     0
390
0
100
AcDbVertex
100
AcDb2dVertex
 10
223.544281
 20
-28.953936
 30
0.0
  0
VERTEX
  5
1D5
100
AcDbEntity
  8
0
370
     0
390
0
100
AcDbVertex
100
AcDb2dVertex
 10
222.848312
 20
-28.953936
 30
0.0
  0
SEQEND
  5
1D6
100
AcDbEntity
  8
0
370
     0
390
0
  0
POLYLINE
  5
1D7
100
AcDbEntity
  8
0
370
    13
390
0
 62
     7
100
AcDb2dPolyline
 66
     1
 10
0.0
 20
0.0
 30
0.0
 70
     1
 71
     4
  0
VERTEX
  5
1D8
100
AcDbEntity
  8
0
370
     0
390
0
100
AcDbVertex
100
AcDb2dVertex
 10
222.848312
 20
-27.748604
 30
0.0
  0
VERTEX
  5
1D9
100
AcDbEntity
  8
0
370
     0
390
0
100
AcDbVertex
100
AcDb2dVertex
 10
223.544281
 20
-27.748604
 30
0.0
  0
VERTEX
  5
1DA
100
AcDbEntity
  8
0
370
     0
390
0
100
AcDbVertex
100
AcDb2dVertex
 10
223.544281
 20
-26.997162
 30
0.0
  0
VERTEX
  5
1DB
100
AcDbEntity
  8
0
370
     0
390
0
100
AcDbVertex
100
AcDb2dVertex
 10
222.848312
 20
-26.997162
 30
0.0
  0
SEQEND
  5
1DC
100
AcDbEntity
  8
0
370
     0
390
0
  0
POLYLINE
  5
1DD
100
AcDbEntity
  8
0
370
    13
390
0
 62
     7
100
AcDb2dPolyline
 66
     1
 10
0.0
 20
0.0
 30
0.0
 70
     1
 71
    10
  0
VERTEX
  5
1DE
100
AcDbEntity
  8
0
370
     0
390
0
100
AcDbVertex
100
AcDb2dVertex
 10
226.141541
 20
-29.705376
 30
0.0
  0
VERTEX
  5
1DF
100
AcDbEntity
  8
0
370
     0
390
0
100
AcDbVertex
100
AcDb2dVertex
 10
226.600479
 20
-29.705376
 30
0.0
  0
VERTEX
  5
1E0
100
AcDbEntity
  8
0
370
     0
390
0
100
AcDbVertex
100
AcDb2dVertex
 10
226.600479
 20
-26.180161
 30
0.0
  0
VERTEX
  5
1E1
100
AcDbEntity
  8
0
370
     0
390
0
100
AcDbVertex
100
AcDb2dVertex
 10
226.257538
 20
-26.180161
 30
0.0
  0
VERTEX
  5
1E2
100
AcDbEntity
  8
0
370
     0
390
0
100
AcDbVertex
100
AcDb2dVertex
 10
226.166763
 20
-26.487797
 30
0.0
  0
VERTEX
  5
1E3
100
AcDbEntity
  8
0
370
     0
390
0
100
AcDbVertex
100
AcDb2dVertex
 10
225.985199
 20
-26.694569
 30
0.0
  0
VERTEX
  5
1E4
100
AcDbEntity
  8
0
370
     0
390
0
100
AcDbVertex
100
AcDb2dVertex
 10
225.707825
 20
-26.815605
 30
0.0
  0
VERTEX
  5
1E5
100
AcDbEntity
  8
0
370
     0
390
0
100
AcDbVertex
100
AcDb2dVertex
 10
225.324539
 20
-26.855951
 30
0.0
  0
VERTEX
  5
1E6
100
AcDbEntity
  8
0
370
     0
390
0
100
AcDbVertex
100
AcDb2dVertex
 10
225.324539
 20
-27.214022
 30
0.0
  0
VERTEX
  5
1E7
100
AcDbEntity
  8
0
370
     0
390
0
100
AcDbVertex
100
AcDb2dVertex
 10
226.141541
 20
-27.214022
 30
0.0
  0
SEQEND
  5
1E8
100
AcDbEntity
  8
0
370
     0
390
0
  0
POLYLINE
  5
1E9
100
AcDbEntity
  8
0
370
    35
390
0
 62
     7
100
AcDb2dPolyline
 66
     1
 10
0.0
 20
0.0
 30
0.0
 71
     9
  0
VERTEX
  5
1EA
100
AcDbEntity
  8
0
370
     0
390
0
100
AcDbVertex
100
AcDb2dVertex
 10
274.122375
 20
138.808624
 30
0.0
  0
VERTEX
  5
1EB
100
AcDbEntity
  8
0
370
     0
390
0
100
AcDbVertex
100
AcDb2dVertex
 10
260.256165
 20
139.242706
 30
0.0
  0
VERTEX
  5
1EC
100
AcDbEntity
  8
0
370
     0
390
0
100
AcDbVertex
100
AcDb2dVertex
 10
244.722351
 20
139.715179
 30
0.0
  0
VERTEX
  5
1ED
100
AcDbEntity
  8
0
370
     0
390
0
100
AcDbVertex
100
AcDb2dVertex
 10
229.189087
 20
140.206451
 30
0.0
  0
VERTEX
  5
1EE
100
AcDbEntity
  8
0
370
     0
390
0
100
AcDbVertex
100
AcDb2dVertex
 10
213.657684
 20
140.751602
 30
0.0
  0
VERTEX
  5
1EF
100
AcDbEntity
  8
0
370
     0
390
0
100
AcDbVertex
100
AcDb2dVertex
 10
203.582581
 20
141.154083
 30
0.0
  0
VERTEX
  5
1F0
100
AcDbEntity
  8
0
370
     0
390
0
100
AcDbVertex
100
AcDb2dVertex
 10
193.509827
 20
141.615295
 30
0.0
  0
VERTEX
  5
1F1
100
AcDbEntity
  8
0
370
     0
390
0
100
AcDbVertex
100
AcDb2dVertex
 10
185.071304
 20
142.065887
 30
0.0
  0
VERTEX
  5
1F2
100
AcDbEntity
  8
0
370
     0
390
0
100
AcDbVertex
100
AcDb2dVertex
 10
176.638107
 20
142.600861
 30
0.0
  0
SEQEND
  5
1F3
100
AcDbEntity
  8
0
370
     0
390
0
  0
POLYLINE
  5
1F4
100
AcDbEntity
  8
0
370
    35
390
0
 62
     7
100
AcDb2dPolyline
 66
     1
 10
0.0
 20
0.0
 30
0.0
 71
    21
  0
VERTEX
  5
1F5
100
AcDbEntity
  8
0
370
     0
390
0
100
AcDbVertex
100
AcDb2dVertex
 10
139.822845
 20
149.451904
 30
0.0
  0
VERTEX
  5
1F6
100
AcDbEntity
  8
0
370
     0
390
0
100
AcDbVertex
100
AcDb2dVertex
 10
139.88858
 20
149.174637
 30
0.0
  0
VERTEX
  5
1F7
100
AcDbEntity
  8
0
370
     0
390
0
100
AcDbVertex
100
AcDb2dVertex
 10
140.084366
 20
148.921738
 30
0.0
  0
VERTEX
  5
1F8
100
AcDbEntity
  8
0
370
     0
390
0
100
AcDbVertex
100
AcDb2dVertex
 10
140.234756
 20
148.778076
 30
0.0
  0
VERTEX
  5
1F9
100
AcDbEntity
  8
0
370
     0
390
0
100
AcDbVertex
100
AcDb2dVertex
 10
140.733078
 20
148.407944
 30
0.0
  0
VERTEX
  5
1FA
100
AcDbEntity
  8
0
370
     0
390
0
100
AcDbVertex
100
AcDb2dVertex
 10
141.5457
 20
147.958755
 30
0.0
  0
VERTEX
  5
1FB
100
AcDbEntity
  8
0
370
     0
390
0
100
AcDbVertex
100
AcDb2dVertex
 10
142.178543
 20
147.671555
 30
0.0
  0
VERTEX
  5
1FC
100
AcDbEntity
  8
0
370
     0
390
0
100
AcDbVertex
100
AcDb2dVertex
 10
142.823715
 20
147.414078
 30
0.0
  0
VERTEX
  5
1FD
100
AcDbEntity
  8
0
370
     0
390
0
100
AcDbVertex
100
AcDb2dVertex
 10
143.711639
 20
147.102524
 30
0.0
  0
VERTEX
  5
1FE
100
AcDbEntity
  8
0
370
     0
390
0
100
AcDbVertex
100
AcDb2dVertex
 10
144.606934
 20
146.825531
 30
0.0
  0
VERTEX
  5
1FF
100
AcDbEntity
  8
0
370
     0
390
0
100
AcDbVertex
100
AcDb2dVertex
 10
145.781372
 20
146.501907
 30
0.0
  0
VERTEX
  5
200
100
AcDbEntity
  8
0
370
     0
390
0
100
AcDbVertex
100
AcDb2dVertex
 10
146.967743
 20
146.207916
 30
0.0
  0
VERTEX
  5
201
100
AcDbEntity
  8
0
370
     0
390
0
100
AcDbVertex
100
AcDb2dVertex
 10
148.594116
 20
145.845764
 30
0.0
  0
VERTEX
  5
202
100
AcDbEntity
  8
0
370
     0
390
0
100
AcDbVertex
100
AcDb2dVertex
 10
150.226654
 20
145.522156
 30
0.0
  0
VERTEX
  5
203
100
AcDbEntity
  8
0
370
     0
390
0
100
AcDbVertex
100
AcDb2dVertex
 10
152.095795
 20
145.19191
 30
0.0
  0
VERTEX
  5
204
100
AcDbEntity
  8
0
370
     0
390
0
100
AcDbVertex
100
AcDb2dVertex
 10
153.969467
 20
144.89418
 30
0.0
  0
VERTEX
  5
205
100
AcDbEntity
  8
0
370
     0
390
0
100
AcDbVertex
100
AcDb2dVertex
 10
157.731903
 20
144.369339
 30
0.0
  0
VERTEX
  5
206
100
AcDbEntity
  8
0
370
     0
390
0
100
AcDbVertex
100
AcDb2dVertex
 10
161.506058
 20
143.920029
 30
0.0
  0
VERTEX
  5
207
100
AcDbEntity
  8
0
370
     0
390
0
100
AcDbVertex
100
AcDb2dVertex
 10
165.283813
 20
143.53096
 30
0.0
  0
VERTEX
  5
208
100
AcDbEntity
  8
0
370
     0
390
0
100
AcDbVertex
100
AcDb2dVertex
 10
169.066101
 20
143.18689
 30
0.0
  0
VERTEX
  5
209
100
AcDbEntity
  8
0
370
     0
390
0
100
AcDbVertex
100
AcDb2dVertex
 10
176.638107
 20
142.600861
 30
0.0
  0
SEQEND
  5
20A
100
AcDbEntity
  8
0
370
     0
390
0
  0
LINE
  5
20B
100
AcDbEntity
  8
0
370
    35
390
0
 62
     7
 48
0.001106
100
AcDbLine
 10
139.822845
 20
149.451904
 30
0.0
 11
139.827423
 21
149.495911
 31
0.0
210
0.0
220
0.0
230
1.0
  0
POLYLINE
  5
20C
100
AcDbEntity
  8
0
370
    35
390
0
 62
     7
100
AcDb2dPolyline
 66
     1
 10
0.0
 20
0.0
 30
0.0
 71
    23
  0
VERTEX
  5
20D
100
AcDbEntity
  8
0
370
     0
390
0
100
AcDbVertex
100
AcDb2dVertex
 10
139.827423
 20
149.495911
 30
0.0
  0
VERTEX
  5
20E
100
AcDbEntity
  8
0
370
     0
390
0
100
AcDbVertex
100
AcDb2dVertex
 10
139.8591
 20
149.641327
 30
0.0
  0
VERTEX
  5
20F
100
AcDbEntity
  8
0
370
     0
390
0
100
AcDbVertex
100
AcDb2dVertex
 10
139.970322
 20
149.917252
 30
0.0
  0
VERTEX
  5
210
100
AcDbEntity
  8
0
370
     0
390
0
100
AcDbVertex
100
AcDb2dVertex
 10
140.278397
 20
150.405258
 30
0.0
  0
VERTEX
  5
211
100
AcDbEntity
  8
0
370
     0
390
0
100
AcDbVertex
100
AcDb2dVertex
 10
140.554504
 20
150.737061
 30
0.0
  0
VERTEX
  5
212
100
AcDbEntity
  8
0
370
     0
390
0
100
AcDbVertex
100
AcDb2dVertex
 10
140.858047
 20
151.045471
 30
0.0
  0
VERTEX
  5
213
100
AcDbEntity
  8
0
370
     0
390
0
100
AcDbVertex
100
AcDb2dVertex
 10
141.280243
 20
151.411835
 30
0.0
  0
VERTEX
  5
214
100
AcDbEntity
  8
0
370
     0
390
0
100
AcDbVertex
100
AcDb2dVertex
 10
141.727005
 20
151.746887
 30
0.0
  0
VERTEX
  5
215
100
AcDbEntity
  8
0
370
     0
390
0
100
AcDbVertex
100
AcDb2dVertex
 10
142.299026
 20
152.125473
 30
0.0
  0
VERTEX
  5
216
100
AcDbEntity
  8
0
370
     0
390
0
100
AcDbVertex
100
AcDb2dVertex
 10
142.888092
 20
152.476746
 30
0.0
  0
VERTEX
  5
217
100
AcDbEntity
  8
0
370
     0
390
0
100
AcDbVertex
100
AcDb2dVertex
 10
143.705032
 20
152.918365
 30
0.0
  0
VERTEX
  5
218
100
AcDbEntity
  8
0
370
     0
390
0
100
AcDbVertex
100
AcDb2dVertex
 10
144.539581
 20
153.324692
 30
0.0
  0
VERTEX
  5
219
100
AcDbEntity
  8
0
370
     0
390
0
100
AcDbVertex
100
AcDb2dVertex
 10
145.58638
 20
153.778214
 30
0.0
  0
VERTEX
  5
21A
100
AcDbEntity
  8
0
370
     0
390
0
100
AcDbVertex
100
AcDb2dVertex
 10
146.652206
 20
154.186707
 30
0.0
  0
VERTEX
  5
21B
100
AcDbEntity
  8
0
370
     0
390
0
100
AcDbVertex
100
AcDb2dVertex
 10
147.852203
 20
154.597534
 30
0.0
  0
VERTEX
  5
21C
100
AcDbEntity
  8
0
370
     0
390
0
100
AcDbVertex
100
AcDb2dVertex
 10
149.063644
 20
154.972183
 30
0.0
  0
VERTEX
  5
21D
100
AcDbEntity
  8
0
370
     0
390
0
100
AcDbVertex
100
AcDb2dVertex
 10
150.591293
 20
155.398331
 30
0.0
  0
VERTEX
  5
21E
100
AcDbEntity
  8
0
370
     0
390
0
100
AcDbVertex
100
AcDb2dVertex
 10
152.129852
 20
155.781586
 30
0.0
  0
VERTEX
  5
21F
100
AcDbEntity
  8
0
370
     0
390
0
100
AcDbVertex
100
AcDb2dVertex
 10
153.930176
 20
156.177399
 30
0.0
  0
VERTEX
  5
220
100
AcDbEntity
  8
0
370
     0
390
0
100
AcDbVertex
100
AcDb2dVertex
 10
155.740768
 20
156.526398
 30
0.0
  0
VERTEX
  5
221
100
AcDbEntity
  8
0
370
     0
390
0
100
AcDbVertex
100
AcDb2dVertex
 10
157.776596
 20
156.870285
 30
0.0
  0
VERTEX
  5
222
100
AcDbEntity
  8
0
370
     0
390
0
100
AcDbVertex
100
AcDb2dVertex
 10
159.818741
 20
157.171432
 30
0.0
  0
VERTEX
  5
223
100
AcDbEntity
  8
0
370
     0
390
0
100
AcDbVertex
100
AcDb2dVertex
 10
163.592102
 20
157.628403
 30
0.0
  0
SEQEND
  5
224
100
AcDbEntity
  8
0
370
     0
390
0
  0
ARC
  5
225
100
AcDbEntity
  8
0
370
    35
390
0
 62
     7
100
AcDbCircle
 10
178.715073
 20
13.306358
 30
0.0
 40
145.112371
210
0.0
220
0.0
230
1.0
100
AcDbArc
 50
94.172107
 51
95.981978
  0
LINE
  5
226
100
AcDbEntity
  8
0
370
    35
390
0
 62
     7
 48
0.189091
100
AcDbLine
 10
168.157745
 20
158.034332
 30
0.0
 11
168.157745
 21
150.470673
 31
0.0
210
0.0
220
0.0
230
1.0
  0
LINE
  5
227
100
AcDbEntity
  8
0
370
    35
390
0
 62
     7
 48
0.0125
100
AcDbLine
 10
168.157745
 20
150.470673
 30
0.0
 11
168.657745
 21
150.470673
 31
0.0
210
0.0
220
0.0
230
1.0
  0
LINE
  5
228
100
AcDbEntity
  8
0
370
    35
390
0
 62
     7
 48
0.0125
100
AcDbLine
 10
168.657745
 20
150.470673
 30
0.0
 11
169.157745
 21
150.470673
 31
0.0
210
0.0
220
0.0
230
1.0
  0
LINE
  5
229
100
AcDbEntity
  8
0
370
    35
390
0
 62
     7
 48
0.190854
100
AcDbLine
 10
169.157745
 20
158.104828
 30
0.0
 11
169.157745
 21
150.470673
 31
0.0
210
0.0
220
0.0
230
1.0
  0
POLYLINE
  5
22A
100
AcDbEntity
  8
0
370
    35
390
0
 62
     7
100
AcDb2dPolyline
 66
     1
 10
0.0
 20
0.0
 30
0.0
 71
    10
  0
VERTEX
  5
22B
100
AcDbEntity
  8
0
370
     0
390
0
100
AcDbVertex
100
AcDb2dVertex
 10
169.157745
 20
158.104828
 30
0.0
  0
VERTEX
  5
22C
100
AcDbEntity
  8
0
370
     0
390
0
100
AcDbVertex
100
AcDb2dVertex
 10
173.089493
 20
158.325958
 30
0.0
  0
VERTEX
  5
22D
100
AcDbEntity
  8
0
370
     0
390
0
100
AcDbVertex
100
AcDb2dVertex
 10
176.135971
 20
158.440857
 30
0.0
  0
VERTEX
  5
22E
100
AcDbEntity
  8
0
370
     0
390
0
100
AcDbVertex
100
AcDb2dVertex
 10
179.365829
 20
158.51413
 30
0.0
  0
VERTEX
  5
22F
100
AcDbEntity
  8
0
370
     0
390
0
100
AcDbVertex
100
AcDb2dVertex
 10
182.596542
 20
158.542252
 30
0.0
  0
VERTEX
  5
230
100
AcDbEntity
  8
0
370
     0
390
0
100
AcDbVertex
100
AcDb2dVertex
 10
186.174896
 20
158.526154
 30
0.0
  0
VERTEX
  5
231
100
AcDbEntity
  8
0
370
     0
390
0
100
AcDbVertex
100
AcDb2dVertex
 10
189.752594
 20
158.465622
 30
0.0
  0
VERTEX
  5
232
100
AcDbEntity
  8
0
370
     0
390
0
100
AcDbVertex
100
AcDb2dVertex
 10
196.602646
 20
158.239014
 30
0.0
  0
VERTEX
  5
233
100
AcDbEntity
  8
0
370
     0
390
0
100
AcDbVertex
100
AcDb2dVertex
 10
201.426758
 20
157.996979
 30
0.0
  0
VERTEX
  5
234
100
AcDbEntity
  8
0
370
     0
390
0
100
AcDbVertex
100
AcDb2dVertex
 10
206.247223
 20
157.690796
 30
0.0
  0
SEQEND
  5
235
100
AcDbEntity
  8
0
370
     0
390
0
  0
POLYLINE
  5
236
100
AcDbEntity
  8
0
370
    35
390
0
 62
     7
100
AcDb2dPolyline
 66
     1
 10
0.0
 20
0.0
 30
0.0
 71
    12
  0
VERTEX
  5
237
100
AcDbEntity
  8
0
370
     0
390
0
100
AcDbVertex
100
AcDb2dVertex
 10
280.177429
 20
147.455322
 30
0.0
  0
VERTEX
  5
238
100
AcDbEntity
  8
0
370
     0
390
0
100
AcDbVertex
100
AcDb2dVertex
 10
273.107239
 20
148.812653
 30
0.0
  0
VERTEX
  5
239
100
AcDbEntity
  8
0
370
     0
390
0
100
AcDbVertex
100
AcDb2dVertex
 10
267.063416
 20
149.907318
 30
0.0
  0
VERTEX
  5
23A
100
AcDbEntity
  8
0
370
     0
390
0
100
AcDbVertex
100
AcDb2dVertex
 10
261.009644
 20
150.945374
 30
0.0
  0
VERTEX
  5
23B
100
AcDbEntity
  8
0
370
     0
390
0
100
AcDbVertex
100
AcDb2dVertex
 10
255.806046
 20
151.793549
 30
0.0
  0
VERTEX
  5
23C
100
AcDbEntity
  8
0
370
     0
390
0
100
AcDbVertex
100
AcDb2dVertex
 10
245.387894
 20
153.377258
 30
0.0
  0
VERTEX
  5
23D
100
AcDbEntity
  8
0
370
     0
390
0
100
AcDbVertex
100
AcDb2dVertex
 10
240.173935
 20
154.11235
 30
0.0
  0
VERTEX
  5
23E
100
AcDbEntity
  8
0
370
     0
390
0
100
AcDbVertex
100
AcDb2dVertex
 10
231.735962
 20
155.208298
 30
0.0
  0
VERTEX
  5
23F
100
AcDbEntity
  8
0
370
     0
390
0
100
AcDbVertex
100
AcDb2dVertex
 10
223.254059
 20
156.178497
 30
0.0
  0
VERTEX
  5
240
100
AcDbEntity
  8
0
370
     0
390
0
100
AcDbVertex
100
AcDb2dVertex
 10
214.757278
 20
157.010666
 30
0.0
  0
VERTEX
  5
241
100
AcDbEntity
  8
0
370
     0
390
0
100
AcDbVertex
100
AcDb2dVertex
 10
210.503845
 20
157.371307
 30
0.0
  0
VERTEX
  5
242
100
AcDbEntity
  8
0
370
     0
390
0
100
AcDbVertex
100
AcDb2dVertex
 10
206.247223
 20
157.690796
 30
0.0
  0
SEQEND
  5
243
100
AcDbEntity
  8
0
370
     0
390
0
  0
LINE
  5
244
100
AcDbEntity
  8
0
370
    35
390
0
 62
     7
 48
0.007628
100
AcDbLine
 10
279.903442
 20
147.321075
 30
0.0
 11
280.177429
 21
147.455322
 31
0.0
210
0.0
220
0.0
230
1.0
  0
POLYLINE
  5
245
100
AcDbEntity
  8
0
370
    35
390
0
 62
     7
100
AcDb2dPolyline
 66
     1
 10
0.0
 20
0.0
 30
0.0
 71
     9
  0
VERTEX
  5
246
100
AcDbEntity
  8
0
370
     0
390
0
100
AcDbVertex
100
AcDb2dVertex
 10
279.903442
 20
147.321075
 30
0.0
  0
VERTEX
  5
247
100
AcDbEntity
  8
0
370
     0
390
0
100
AcDbVertex
100
AcDb2dVertex
 10
279.306641
 20
146.973694
 30
0.0
  0
VERTEX
  5
248
100
AcDbEntity
  8
0
370
     0
390
0
100
AcDbVertex
100
AcDb2dVertex
 10
278.761353
 20
146.545746
 30
0.0
  0
VERTEX
  5
249
100
AcDbEntity
  8
0
370
     0
390
0
100
AcDbVertex
100
AcDb2dVertex
 10
278.278259
 20
146.045563
 30
0.0
  0
VERTEX
  5
24A
100
AcDbEntity
  8
0
370
     0
390
0
100
AcDbVertex
100
AcDb2dVertex
 10
277.862732
 20
145.476303
 30
0.0
  0
VERTEX
  5
24B
100
AcDbEntity
  8
0
370
     0
390
0
100
AcDbVertex
100
AcDb2dVertex
 10
277.528564
 20
144.854187
 30
0.0
  0
VERTEX
  5
24C
100
AcDbEntity
  8
0
370
     0
390
0
100
AcDbVertex
100
AcDb2dVertex
 10
277.282288
 20
144.191254
 30
0.0
  0
VERTEX
  5
24D
100
AcDbEntity
  8
0
370
     0
390
0
100
AcDbVertex
100
AcDb2dVertex
 10
277.109253
 20
143.358383
 30
0.0
  0
VERTEX
  5
24E
100
AcDbEntity
  8
0
370
     0
390
0
100
AcDbVertex
100
AcDb2dVertex
 10
277.074829
 20
142.508148
 30
0.0
  0
SEQEND
  5
24F
100
AcDbEntity
  8
0
370
     0
390
0
  0
POLYLINE
  5
250
100
AcDbEntity
  8
0
370
    35
390
0
 62
     7
100
AcDb2dPolyline
 66
     1
 10
0.0
 20
0.0
 30
0.0
 71
     8
  0
VERTEX
  5
251
100
AcDbEntity
  8
0
370
     0
390
0
100
AcDbVertex
100
AcDb2dVertex
 10
277.074829
 20
142.508148
 30
0.0
  0
VERTEX
  5
252
100
AcDbEntity
  8
0
370
     0
390
0
100
AcDbVertex
100
AcDb2dVertex
 10
277.110596
 20
142.080429
 30
0.0
  0
VERTEX
  5
253
100
AcDbEntity
  8
0
370
     0
390
0
100
AcDbVertex
100
AcDb2dVertex
 10
277.246948
 20
141.384918
 30
0.0
  0
VERTEX
  5
254
100
AcDbEntity
  8
0
370
     0
390
0
100
AcDbVertex
100
AcDb2dVertex
 10
277.477051
 20
140.715637
 30
0.0
  0
VERTEX
  5
255
100
AcDbEntity
  8
0
370
     0
390
0
100
AcDbVertex
100
AcDb2dVertex
 10
277.796326
 20
140.085693
 30
0.0
  0
VERTEX
  5
256
100
AcDbEntity
  8
0
370
     0
390
0
100
AcDbVertex
100
AcDb2dVertex
 10
278.164795
 20
139.549789
 30
0.0
  0
VERTEX
  5
257
100
AcDbEntity
  8
0
370
     0
390
0
100
AcDbVertex
100
AcDb2dVertex
 10
278.597595
 20
139.067001
 30
0.0
  0
VERTEX
  5
258
100
AcDbEntity
  8
0
370
     0
390
0
100
AcDbVertex
100
AcDb2dVertex
 10
279.087341
 20
138.645538
 30
0.0
  0
SEQEND
  5
259
100
AcDbEntity
  8
0
370
     0
390
0
  0
LINE
  5
25A
100
AcDbEntity
  8
0
370
    35
390
0
 62
     7
 48
0.099178
100
AcDbLine
 10
279.087341
 20
138.645538
 30
0.0
 11
275.122375
 21
138.776199
 31
0.0
210
0.0
220
0.0
230
1.0
  0
LINE
  5
25B
100
AcDbEntity
  8
0
370
    35
390
0
 62
     7
 48
0.122063
100
AcDbLine
 10
275.122375
 20
138.776199
 30
0.0
 11
275.122375
 21
143.658737
 31
0.0
210
0.0
220
0.0
230
1.0
  0
LINE
  5
25C
100
AcDbEntity
  8
0
370
    35
390
0
 62
     7
 48
0.025
100
AcDbLine
 10
275.122375
 20
143.658737
 30
0.0
 11
274.122375
 21
143.658737
 31
0.0
210
0.0
220
0.0
230
1.0
  0
LINE
  5
25D
100
AcDbEntity
  8
0
370
    35
390
0
 62
     7
 48
0.121253
100
AcDbLine
 10
274.122375
 20
138.808624
 30
0.0
 11
274.122375
 21
143.658737
 31
0.0
210
0.0
220
0.0
230
1.0
  0
ARC
  5
25E
100
AcDbEntity
  8
0
370
    35
390
0
 62
     7
100
AcDbCircle
 10
269.736206
 20
144.353561
 30
0.0
 40
2.035828
210
0.0
220
0.0
230
1.0
100
AcDbArc
 50
75.153589
 51
79.675161
  0
LINE
  5
25F
100
AcDbEntity
  8
0
370
    35
390
0
 62
     7
 48
0.04726
100
AcDbLine
 10
270.101074
 20
146.35643
 30
0.0
 11
268.240784
 21
146.692474
 31
0.0
210
0.0
220
0.0
230
1.0
  0
ARC
  5
260
100
AcDbEntity
  8
0
370
    35
390
0
 62
     7
100
AcDbCircle
 10
267.701904
 20
143.690216
 30
0.0
 40
3.050221
210
0.0
220
0.0
230
1.0
100
AcDbArc
 50
79.824038
 51
94.954635
  0
ARC
  5
261
100
AcDbEntity
  8
0
370
    35
390
0
 62
     7
100
AcDbCircle
 10
267.510437
 20
145.978806
 30
0.0
 40
0.754298
210
0.0
220
0.0
230
1.0
100
AcDbArc
 50
95.480546
 51
168.238419
  0
ARC
  5
262
100
AcDbEntity
  8
0
370
    35
390
0
 62
     7
100
AcDbCircle
 10
267.504578
 20
145.971695
 30
0.0
 40
0.750465
210
0.0
220
0.0
230
1.0
100
AcDbArc
 50
167.616244
 51
217.334273
  0
ARC
  5
263
100
AcDbEntity
  8
0
370
    35
390
0
 62
     7
100
AcDbCircle
 10
269.351013
 20
147.394531
 30
0.0
 40
3.081401
210
0.0
220
0.0
230
1.0
100
AcDbArc
 50
217.548168
 51
229.972432
  0
LINE
  5
264
100
AcDbEntity
  8
0
370
    35
390
0
 62
     7
 48
0.065394
100
AcDbLine
 10
267.369202
 20
145.035004
 30
0.0
 11
269.372986
 21
143.353607
 31
0.0
210
0.0
220
0.0
230
1.0
  0
ARC
  5
265
100
AcDbEntity
  8
0
370
    35
390
0
 62
     7
100
AcDbCircle
 10
271.336487
 20
145.691254
 30
0.0
 40
3.052846
210
0.0
220
0.0
230
1.0
100
AcDbArc
 50
229.971367
 51
246.158922
  0
POLYLINE
  5
266
100
AcDbEntity
  8
0
370
    35
390
0
 62
     7
100
AcDb2dPolyline
 66
     1
 10
0.0
 20
0.0
 30
0.0
 71
     6
  0
VERTEX
  5
267
100
AcDbEntity
  8
0
370
     0
390
0
100
AcDbVertex
100
AcDb2dVertex
 10
270.102539
 20
142.898941
 30
0.0
  0
VERTEX
  5
268
100
AcDbEntity
  8
0
370
     0
390
0
100
AcDbVertex
100
AcDb2dVertex
 10
270.366394
 20
142.838196
 30
0.0
  0
VERTEX
  5
269
100
AcDbEntity
  8
0
370
     0
390
0
100
AcDbVertex
100
AcDb2dVertex
 10
270.639771
 20
142.879166
 30
0.0
  0
VERTEX
  5
26A
100
AcDbEntity
  8
0
370
     0
390
0
100
AcDbVertex
100
AcDb2dVertex
 10
270.884888
 20
143.019852
 30
0.0
  0
VERTEX
  5
26B
100
AcDbEntity
  8
0
370
     0
390
0
100
AcDbVertex
100
AcDb2dVertex
 10
271.062683
 20
143.240997
 30
0.0
  0
VERTEX
  5
26C
100
AcDbEntity
  8
0
370
     0
390
0
100
AcDbVertex
100
AcDb2dVertex
 10
271.146606
 20
143.507172
 30
0.0
  0
SEQEND
  5
26D
100
AcDbEntity
  8
0
370
     0
390
0
  0
ARC
  5
26E
100
AcDbEntity
  8
0
370
    35
390
0
 62
     7
100
AcDbCircle
 10
268.091919
 20
143.877869
 30
0.0
 40
3.077085
210
0.0
220
0.0
230
1.0
100
AcDbArc
 50
355.920915
 51
359.994323
  0
LINE
  5
26F
100
AcDbEntity
  8
0
370
    35
390
0
 62
     7
 48
0.003813
100
AcDbLine
 10
271.161194
 20
143.658981
 30
0.0
 11
271.146606
 21
143.507172
 31
0.0
210
0.0
220
0.0
230
1.0
  0
LINE
  5
270
100
AcDbEntity
  8
0
370
    35
390
0
 62
     7
 48
0.031486
100
AcDbLine
 10
271.169006
 20
143.877563
 30
0.0
 11
271.169006
 21
145.136993
 31
0.0
210
0.0
220
0.0
230
1.0
  0
ARC
  5
271
100
AcDbEntity
  8
0
370
    35
390
0
 62
     7
100
AcDbCircle
 10
269.943604
 20
145.137009
 30
0.0
 40
1.225374
210
0.0
220
0.0
230
1.0
100
AcDbArc
 50
359.999487
 51
75.141288
  0
ARC
  5
272
100
AcDbEntity
  8
0
370
    35
390
0
 62
     7
100
AcDbCircle
 10
259.09967
 20
144.917786
 30
0.0
 40
2.678686
210
0.0
220
0.0
230
1.0
100
AcDbArc
 50
50.005536
 51
122.141568
  0
LINE
  5
273
100
AcDbEntity
  8
0
370
    35
390
0
 62
     7
 48
0.108184
100
AcDbLine
 10
257.674561
 20
147.185944
 30
0.0
 11
254.010391
 21
144.883789
 31
0.0
210
0.0
220
0.0
230
1.0
  0
LINE
  5
274
100
AcDbEntity
  8
0
370
    35
390
0
 62
     7
 48
0.003384
100
AcDbLine
 10
254.010391
 20
144.883789
 30
0.0
 11
253.897278
 21
144.809448
 31
0.0
210
0.0
220
0.0
230
1.0
  0
ARC
  5
275
100
AcDbEntity
  8
0
370
    35
390
0
 62
     7
100
AcDbCircle
 10
254.655945
 20
143.705444
 30
0.0
 40
1.339585
210
0.0
220
0.0
230
1.0
100
AcDbArc
 50
145.693426
 51
268.168441
  0
ARC
  5
276
100
AcDbEntity
  8
0
370
    35
390
0
 62
     7
100
AcDbCircle
 10
254.655411
 20
143.705872
 30
0.0
 40
1.338893
210
0.0
220
0.0
230
1.0
100
AcDbArc
 50
124.488339
 51
145.695243
  0
LINE
  5
277
100
AcDbEntity
  8
0
370
    35
390
0
 62
     7
 48
0.207299
100
AcDbLine
 10
262.900818
 20
142.100067
 30
0.0
 11
254.613129
 21
142.366531
 31
0.0
210
0.0
220
0.0
230
1.0
  0
ARC
  5
278
100
AcDbEntity
  8
0
370
    35
390
0
 62
     7
100
AcDbCircle
 10
262.944214
 20
143.43985
 30
0.0
 40
1.340471
210
0.0
220
0.0
230
1.0
100
AcDbArc
 50
268.143081
 51
346.508666
  0
ARC
  5
279
100
AcDbEntity
  8
0
370
    35
390
0
 62
     7
100
AcDbCircle
 10
262.944824
 20
143.439194
 30
0.0
 40
1.339722
210
0.0
220
0.0
230
1.0
100
AcDbArc
 50
346.530434
 51
50.002603
  0
LINE
  5
27A
100
AcDbEntity
  8
0
370
    35
390
0
 62
     7
 48
0.097404
100
AcDbLine
 10
263.805908
 20
144.465515
 30
0.0
 11
260.821289
 21
146.969925
 31
0.0
210
0.0
220
0.0
230
1.0
  0
ARC
  5
27B
100
AcDbEntity
  8
0
370
    35
390
0
 62
     7
100
AcDbCircle
 10
251.115936
 20
146.133057
 30
0.0
 40
3.347325
210
0.0
220
0.0
230
1.0
100
AcDbArc
 50
78.12548
 51
81.158295
  0
ARC
  5
27C
100
AcDbEntity
  8
0
370
    35
390
0
 62
     7
100
AcDbCircle
 10
141.409698
 20
-558.061646
 30
0.0
 40
716.036103
210
0.0
220
0.0
230
1.0
100
AcDbArc
 50
81.145154
 51
82.171984
  0
ARC
  5
27D
100
AcDbEntity
  8
0
370
    35
390
0
 62
     7
100
AcDbCircle
 10
238.631989
 20
149.100632
 30
0.0
 40
2.22174
210
0.0
220
0.0
230
1.0
100
AcDbArc
 50
82.193807
 51
85.873714
  0
ARC
  5
27E
100
AcDbEntity
  8
0
370
    35
390
0
 62
     7
100
AcDbCircle
 10
238.69368
 20
149.987869
 30
0.0
 40
1.331265
210
0.0
220
0.0
230
1.0
100
AcDbArc
 50
121.656734
 51
223.497112
  0
ARC
  5
27F
100
AcDbEntity
  8
0
370
    35
390
0
 62
     7
100
AcDbCircle
 10
238.694305
 20
149.988495
 30
0.0
 40
1.331635
210
0.0
220
0.0
230
1.0
100
AcDbArc
 50
85.799101
 51
121.693357
  0
ARC
  5
280
100
AcDbEntity
  8
0
370
    35
390
0
 62
     7
100
AcDbCircle
 10
240.160553
 20
151.387299
 30
0.0
 40
3.358022
210
0.0
220
0.0
230
1.0
100
AcDbArc
 50
223.590563
 51
229.997362
  0
LINE
  5
281
100
AcDbEntity
  8
0
370
    35
390
0
 62
     7
 48
0.187278
100
AcDbLine
 10
238.001938
 20
148.815002
 30
0.0
 11
243.740463
 21
143.999802
 31
0.0
210
0.0
220
0.0
230
1.0
  0
ARC
  5
282
100
AcDbEntity
  8
0
370
    35
390
0
 62
     7
100
AcDbCircle
 10
246.602676
 20
147.410858
 30
0.0
 40
4.452822
210
0.0
220
0.0
230
1.0
100
AcDbArc
 50
229.999944
 51
235.191216
  0
ARC
  5
283
100
AcDbEntity
  8
0
370
    35
390
0
 62
     7
100
AcDbCircle
 10
245.584091
 20
145.945038
 30
0.0
 40
2.667747
210
0.0
220
0.0
230
1.0
100
AcDbArc
 50
235.181995
 51
298.614317
  0
ARC
  5
284
100
AcDbEntity
  8
0
370
    35
390
0
 62
     7
100
AcDbCircle
 10
243.646164
 20
149.492554
 30
0.0
 40
6.71005
210
0.0
220
0.0
230
1.0
100
AcDbArc
 50
298.633803
 51
302.153017
  0
LINE
  5
285
100
AcDbEntity
  8
0
370
    35
390
0
 62
     7
 48
0.148297
100
AcDbLine
 10
252.239227
 20
146.968475
 30
0.0
 11
247.217133
 21
143.81163
 31
0.0
210
0.0
220
0.0
230
1.0
  0
ARC
  5
286
100
AcDbEntity
  8
0
370
    35
390
0
 62
     7
100
AcDbCircle
 10
251.527786
 20
148.100815
 30
0.0
 40
1.337492
210
0.0
220
0.0
230
1.0
100
AcDbArc
 50
325.729458
 51
78.045307
  0
ARC
  5
287
100
AcDbEntity
  8
0
370
    35
390
0
 62
     7
100
AcDbCircle
 10
251.527115
 20
148.103027
 30
0.0
 40
1.339513
210
0.0
220
0.0
230
1.0
100
AcDbArc
 50
302.11496
 51
325.667607
  0
ARC
  5
288
100
AcDbEntity
  8
0
370
    35
390
0
 62
     7
100
AcDbCircle
 10
229.117004
 20
149.214661
 30
0.0
 40
2.678291
210
0.0
220
0.0
230
1.0
100
AcDbArc
 50
49.995038
 51
115.070588
  0
ARC
  5
289
100
AcDbEntity
  8
0
370
    35
390
0
 62
     7
100
AcDbCircle
 10
229.116959
 20
149.216675
 30
0.0
 40
2.676397
210
0.0
220
0.0
230
1.0
100
AcDbArc
 50
115.088045
 51
122.167509
  0
LINE
  5
28A
100
AcDbEntity
  8
0
370
    35
390
0
 62
     7
 48
0.251775
100
AcDbLine
 10
219.166458
 20
146.121277
 30
0.0
 11
227.692047
 21
151.482224
 31
0.0
210
0.0
220
0.0
230
1.0
  0
ARC
  5
28B
100
AcDbEntity
  8
0
370
    35
390
0
 62
     7
100
AcDbCircle
 10
220.979996
 20
143.237961
 30
0.0
 40
3.406233
210
0.0
220
0.0
230
1.0
100
AcDbArc
 50
122.169026
 51
130.027145
  0
ARC
  5
28C
100
AcDbEntity
  8
0
370
    35
390
0
 62
     7
100
AcDbCircle
 10
219.647949
 20
144.828827
 30
0.0
 40
1.332033
210
0.0
220
0.0
230
1.0
100
AcDbArc
 50
130.16312
 51
261.664762
  0
ARC
  5
28D
100
AcDbEntity
  8
0
370
    35
390
0
 62
     7
100
AcDbCircle
 10
219.777191
 20
145.695175
 30
0.0
 40
2.208103
210
0.0
220
0.0
230
1.0
100
AcDbArc
 50
261.605244
 51
267.888547
  0
ARC
  5
28E
100
AcDbEntity
  8
0
370
    35
390
0
 62
     7
100
AcDbCircle
 10
374.611084
 20
4380.658203
 30
0.0
 40
4240.000508
210
0.0
220
0.0
230
1.0
100
AcDbArc
 50
267.906142
 51
268.139256
  0
ARC
  5
28F
100
AcDbEntity
  8
0
370
    35
390
0
 62
     7
100
AcDbCircle
 10
237.048309
 20
146.294662
 30
0.0
 40
3.403762
210
0.0
220
0.0
230
1.0
100
AcDbArc
 50
268.120521
 51
272.631464
  0
ARC
  5
290
100
AcDbEntity
  8
0
370
    35
390
0
 62
     7
100
AcDbCircle
 10
237.141144
 20
144.230881
 30
0.0
 40
1.338588
210
0.0
220
0.0
230
1.0
100
AcDbArc
 50
312.845009
 51
49.987754
  0
ARC
  5
291
100
AcDbEntity
  8
0
370
    35
390
0
 62
     7
100
AcDbCircle
 10
237.145218
 20
144.225555
 30
0.0
 40
1.332322
210
0.0
220
0.0
230
1.0
100
AcDbArc
 50
272.553471
 51
312.872388
  0
LINE
  5
292
100
AcDbEntity
  8
0
370
    35
390
0
 62
     7
 48
0.23376
100
AcDbLine
 10
238.001587
 20
145.255875
 30
0.0
 11
230.83876
 21
151.266205
 31
0.0
210
0.0
220
0.0
230
1.0
  0
ARC
  5
293
100
AcDbEntity
  8
0
370
    35
390
0
 62
     7
100
AcDbCircle
 10
220.688675
 20
150.030411
 30
0.0
 40
3.415149
210
0.0
220
0.0
230
1.0
100
AcDbArc
 50
80.024532
 51
84.072368
  0
ARC
  5
294
100
AcDbEntity
  8
0
370
    35
390
0
 62
     7
100
AcDbCircle
 10
172.491226
 20
-310.977295
 30
0.0
 40
466.934841
210
0.0
220
0.0
230
1.0
100
AcDbArc
 50
84.031817
 51
85.850041
  0
ARC
  5
295
100
AcDbEntity
  8
0
370
    35
390
0
 62
     7
100
AcDbCircle
 10
179.633652
 20
-216.625854
 30
0.0
 40
372.31328
210
0.0
220
0.0
230
1.0
100
AcDbArc
 50
85.895557
 51
86.729462
  0
ARC
  5
296
100
AcDbEntity
  8
0
370
    35
390
0
 62
     7
100
AcDbCircle
 10
200.749985
 20
152.900955
 30
0.0
 40
2.183593
210
0.0
220
0.0
230
1.0
100
AcDbArc
 50
86.734653
 51
92.72925
  0
ARC
  5
297
100
AcDbEntity
  8
0
370
    35
390
0
 62
     7
100
AcDbCircle
 10
200.706284
 20
153.758392
 30
0.0
 40
1.324459
210
0.0
220
0.0
230
1.0
100
AcDbArc
 50
101.934324
 51
221.263777
  0
ARC
  5
298
100
AcDbEntity
  8
0
370
    35
390
0
 62
     7
100
AcDbCircle
 10
200.709732
 20
153.746277
 30
0.0
 40
1.33731
210
0.0
220
0.0
230
1.0
100
AcDbArc
 50
92.731231
 51
101.97161
  0
ARC
  5
299
100
AcDbEntity
  8
0
370
    35
390
0
 62
     7
100
AcDbCircle
 10
202.283813
 20
155.156738
 30
0.0
 40
3.431745
210
0.0
220
0.0
230
1.0
100
AcDbArc
 50
221.442099
 51
229.993237
  0
LINE
  5
29A
100
AcDbEntity
  8
0
370
    35
390
0
 62
     7
 48
0.284495
100
AcDbLine
 10
200.077621
 20
152.528122
 30
0.0
 11
208.795059
 21
145.213333
 31
0.0
210
0.0
220
0.0
230
1.0
  0
ARC
  5
29B
100
AcDbEntity
  8
0
370
    35
390
0
 62
     7
100
AcDbCircle
 10
211.614075
 20
148.572906
 30
0.0
 40
4.385605
210
0.0
220
0.0
230
1.0
100
AcDbArc
 50
229.999862
 51
236.613152
  0
ARC
  5
29C
100
AcDbEntity
  8
0
370
    35
390
0
 62
     7
100
AcDbCircle
 10
210.665009
 20
147.131775
 30
0.0
 40
2.659945
210
0.0
220
0.0
230
1.0
100
AcDbArc
 50
236.60053
 51
294.530793
  0
LINE
  5
29D
100
AcDbEntity
  8
0
370
    35
390
0
 62
     7
 48
0.00324
100
AcDbLine
 10
211.769348
 20
144.711975
 30
0.0
 11
211.885864
 21
144.768677
 31
0.0
210
0.0
220
0.0
230
1.0
  0
ARC
  5
29E
100
AcDbEntity
  8
0
370
    35
390
0
 62
     7
100
AcDbCircle
 10
208.735779
 20
150.857208
 30
0.0
 40
6.855166
210
0.0
220
0.0
230
1.0
100
AcDbArc
 50
297.356066
 51
302.167395
  0
LINE
  5
29F
100
AcDbEntity
  8
0
370
    35
390
0
 62
     7
 48
0.276768
100
AcDbLine
 10
212.385437
 20
145.054337
 30
0.0
 11
221.756699
 21
150.948395
 31
0.0
210
0.0
220
0.0
230
1.0
  0
ARC
  5
2A0
100
AcDbEntity
  8
0
370
    35
390
0
 62
     7
100
AcDbCircle
 10
221.046356
 20
152.07959
 30
0.0
 40
1.335728
210
0.0
220
0.0
230
1.0
100
AcDbArc
 50
302.126926
 51
79.909286
  0
ARC
  5
2A1
100
AcDbEntity
  8
0
370
    35
390
0
 62
     7
100
AcDbCircle
 10
192.126648
 20
152.143387
 30
0.0
 40
2.678851
210
0.0
220
0.0
230
1.0
100
AcDbArc
 50
49.996807
 51
100.700614
  0
ARC
  5
2A2
100
AcDbEntity
  8
0
370
    35
390
0
 62
     7
100
AcDbCircle
 10
192.12587
 20
152.148834
 30
0.0
 40
2.67335
210
0.0
220
0.0
230
1.0
100
AcDbArc
 50
100.705873
 51
122.182631
  0
LINE
  5
2A3
100
AcDbEntity
  8
0
370
    35
390
0
 62
     7
 48
0.302871
100
AcDbLine
 10
180.447327
 20
147.96077
 30
0.0
 11
190.701996
 21
154.411438
 31
0.0
210
0.0
220
0.0
230
1.0
  0
ARC
  5
2A4
100
AcDbEntity
  8
0
370
    35
390
0
 62
     7
100
AcDbCircle
 10
182.288147
 20
145.035767
 30
0.0
 40
3.456054
210
0.0
220
0.0
230
1.0
100
AcDbArc
 50
122.183888
 51
131.675979
  0
ARC
  5
2A5
100
AcDbEntity
  8
0
370
    35
390
0
 62
     7
100
AcDbCircle
 10
180.874817
 20
146.629929
 30
0.0
 40
1.326414
210
0.0
220
0.0
230
1.0
100
AcDbArc
 50
131.863919
 51
258.173607
  0
ARC
  5
2A6
100
AcDbEntity
  8
0
370
    35
390
0
 62
     7
100
AcDbCircle
 10
181.053757
 20
147.465714
 30
0.0
 40
2.181477
210
0.0
220
0.0
230
1.0
100
AcDbArc
 50
258.072479
 51
266.304715
  0
POLYLINE
  5
2A7
100
AcDbEntity
  8
0
370
    35
390
0
 62
     7
100
AcDb2dPolyline
 66
     1
 10
0.0
 20
0.0
 30
0.0
 71
     4
  0
VERTEX
  5
2A8
100
AcDbEntity
  8
0
370
     0
390
0
100
AcDbVertex
100
AcDb2dVertex
 10
180.913162
 20
145.288773
 30
0.0
  0
VERTEX
  5
2A9
100
AcDbEntity
  8
0
370
     0
390
0
100
AcDbVertex
100
AcDb2dVertex
 10
187.911224
 20
144.868576
 30
0.0
  0
VERTEX
  5
2AA
100
AcDbEntity
  8
0
370
     0
390
0
100
AcDbVertex
100
AcDb2dVertex
 10
194.889435
 20
144.500885
 30
0.0
  0
VERTEX
  5
2AB
100
AcDbEntity
  8
0
370
     0
390
0
100
AcDbVertex
100
AcDb2dVertex
 10
201.879181
 20
144.171814
 30
0.0
  0
SEQEND
  5
2AC
100
AcDbEntity
  8
0
370
     0
390
0
  0
ARC
  5
2AD
100
AcDbEntity
  8
0
370
    35
390
0
 62
     7
100
AcDbCircle
 10
202.033051
 20
147.616089
 30
0.0
 40
3.447695
210
0.0
220
0.0
230
1.0
100
AcDbArc
 50
267.442256
 51
272.483065
  0
ARC
  5
2AE
100
AcDbEntity
  8
0
370
    35
390
0
 62
     7
100
AcDbCircle
 10
202.121368
 20
145.507187
 30
0.0
 40
1.338345
210
0.0
220
0.0
230
1.0
100
AcDbArc
 50
291.980298
 51
49.980138
  0
ARC
  5
2AF
100
AcDbEntity
  8
0
370
    35
390
0
 62
     7
100
AcDbCircle
 10
202.124985
 20
145.507751
 30
0.0
 40
1.33735
210
0.0
220
0.0
230
1.0
100
AcDbArc
 50
272.461092
 51
291.827759
  0
LINE
  5
2B0
100
AcDbEntity
  8
0
370
    35
390
0
 62
     7
 48
0.298059
100
AcDbLine
 10
202.981766
 20
146.531845
 30
0.0
 11
193.848694
 21
154.195404
 31
0.0
210
0.0
220
0.0
230
1.0
  0
ARC
  5
2B1
100
AcDbEntity
  8
0
370
    35
390
0
 62
     7
100
AcDbCircle
 10
173.448486
 20
154.054108
 30
0.0
 40
1.337404
210
0.0
220
0.0
230
1.0
100
AcDbArc
 50
97.828765
 51
180.007522
  0
LINE
  5
2B2
100
AcDbEntity
  8
0
370
    35
390
0
 62
     7
 48
0.000973
100
AcDbLine
 10
173.266327
 20
155.378998
 30
0.0
 11
173.304962
 21
155.383728
 31
0.0
210
0.0
220
0.0
230
1.0
  0
LINE
  5
2B3
100
AcDbEntity
  8
0
370
    35
390
0
 62
     7
 48
0.138079
100
AcDbLine
 10
172.111084
 20
148.530792
 30
0.0
 11
172.111084
 21
154.05394
 31
0.0
210
0.0
220
0.0
230
1.0
  0
ARC
  5
2B4
100
AcDbEntity
  8
0
370
    35
390
0
 62
     7
100
AcDbCircle
 10
175.592697
 20
148.530914
 30
0.0
 40
3.481616
210
0.0
220
0.0
230
1.0
100
AcDbArc
 50
180.001866
 51
185.50969
  0
ARC
  5
2B5
100
AcDbEntity
  8
0
370
    35
390
0
 62
     7
100
AcDbCircle
 10
173.45401
 20
148.326553
 30
0.0
 40
1.333521
210
0.0
220
0.0
230
1.0
100
AcDbArc
 50
185.592431
 51
282.976599
  0
ARC
  5
2B6
100
AcDbEntity
  8
0
370
    35
390
0
 62
     7
100
AcDbCircle
 10
173.453049
 20
148.331039
 30
0.0
 40
1.338252
210
0.0
220
0.0
230
1.0
100
AcDbArc
 50
282.973634
 51
297.312189
  0
ARC
  5
2B7
100
AcDbEntity
  8
0
370
    35
390
0
 62
     7
100
AcDbCircle
 10
173.069992
 20
149.073608
 30
0.0
 40
2.173808
210
0.0
220
0.0
230
1.0
100
AcDbArc
 50
297.302238
 51
302.176657
  0
LINE
  5
2B8
100
AcDbEntity
  8
0
370
    35
390
0
 62
     7
 48
0.267515
100
AcDbLine
 10
174.227615
 20
147.233673
 30
0.0
 11
183.284607
 21
152.932266
 31
0.0
210
0.0
220
0.0
230
1.0
  0
ARC
  5
2B9
100
AcDbEntity
  8
0
370
    35
390
0
 62
     7
100
AcDbCircle
 10
181.427124
 20
155.883179
 30
0.0
 40
3.486842
210
0.0
220
0.0
230
1.0
100
AcDbArc
 50
302.188637
 51
311.245761
  0
ARC
  5
2BA
100
AcDbEntity
  8
0
370
    35
390
0
 62
     7
100
AcDbCircle
 10
182.847198
 20
154.256592
 30
0.0
 40
1.328538
210
0.0
220
0.0
230
1.0
100
AcDbArc
 50
311.447208
 51
83.34425
  0
ARC
  5
2BB
100
AcDbEntity
  8
0
370
    35
390
0
 62
     7
100
AcDbCircle
 10
182.746323
 20
153.426834
 30
0.0
 40
2.164738
210
0.0
220
0.0
230
1.0
100
AcDbArc
 50
83.237719
 51
90.033675
  0
ARC
  5
2BC
100
AcDbEntity
  8
0
370
    35
390
0
 62
     7
100
AcDbCircle
 10
182.622482
 20
-62.165932
 30
0.0
 40
217.756928
210
0.0
220
0.0
230
1.0
100
AcDbArc
 50
89.96775
 51
92.394291
  0
ARC
  5
2BD
100
AcDbEntity
  8
0
370
    35
390
0
 62
     7
100
AcDbCircle
 10
173.673599
 20
151.956436
 30
0.0
 40
3.447065
210
0.0
220
0.0
230
1.0
100
AcDbArc
 50
92.463044
 51
96.139161
  0
ARC
  5
2BE
100
AcDbEntity
  8
0
370
    35
390
0
 62
     7
100
AcDbCircle
 10
160.684906
 20
148.933807
 30
0.0
 40
3.198028
210
0.0
220
0.0
230
1.0
100
AcDbArc
 50
180.011156
 51
191.191424
  0
ARC
  5
2BF
100
AcDbEntity
  8
0
370
    35
390
0
 62
     7
100
AcDbCircle
 10
158.828186
 20
148.567642
 30
0.0
 40
1.305518
210
0.0
220
0.0
230
1.0
100
AcDbArc
 50
191.242555
 51
245.778282
  0
ARC
  5
2C0
100
AcDbEntity
  8
0
370
    35
390
0
 62
     7
100
AcDbCircle
 10
159.224045
 20
149.457458
 30
0.0
 40
2.279468
210
0.0
220
0.0
230
1.0
100
AcDbArc
 50
245.880072
 51
262.815342
  0
ARC
  5
2C1
100
AcDbEntity
  8
0
370
    35
390
0
 62
     7
100
AcDbCircle
 10
187.181168
 20
372.744934
 30
0.0
 40
227.310532
210
0.0
220
0.0
230
1.0
100
AcDbArc
 50
262.862832
 51
264.077117
  0
ARC
  5
2C2
100
AcDbEntity
  8
0
370
    35
390
0
 62
     7
100
AcDbCircle
 10
163.864609
 20
147.980362
 30
0.0
 40
1.339878
210
0.0
220
0.0
230
1.0
100
AcDbArc
 50
282.045152
 51
359.988222
  0
ARC
  5
2C3
100
AcDbEntity
  8
0
370
    35
390
0
 62
     7
100
AcDbCircle
 10
163.86441
 20
147.981369
 30
0.0
 40
1.340965
210
0.0
220
0.0
230
1.0
100
AcDbArc
 50
264.034292
 51
282.044578
  0
LINE
  5
2C4
100
AcDbEntity
  8
0
370
    35
390
0
 62
     7
 48
0.126989
100
AcDbLine
 10
165.204407
 20
147.980087
 30
0.0
 11
165.204407
 21
153.059647
 31
0.0
210
0.0
220
0.0
230
1.0
  0
ARC
  5
2C5
100
AcDbEntity
  8
0
370
    35
390
0
 62
     7
100
AcDbCircle
 10
162.041397
 20
153.059341
 30
0.0
 40
3.16301
210
0.0
220
0.0
230
1.0
100
AcDbArc
 50
0.005477
 51
8.697908
  0
ARC
  5
2C6
100
AcDbEntity
  8
0
370
    35
390
0
 62
     7
100
AcDbCircle
 10
163.864441
 20
153.337677
 30
0.0
 40
1.318801
210
0.0
220
0.0
230
1.0
100
AcDbArc
 50
8.721759
 51
82.419237
  0
ARC
  5
2C7
100
AcDbEntity
  8
0
370
    35
390
0
 62
     7
100
AcDbCircle
 10
163.737289
 20
152.363968
 30
0.0
 40
2.300832
210
0.0
220
0.0
230
1.0
100
AcDbArc
 50
82.479431
 51
96.098282
  0
ARC
  5
2C8
100
AcDbEntity
  8
0
370
    35
390
0
 62
     7
100
AcDbCircle
 10
174.462402
 20
49.725952
 30
0.0
 40
105.495124
210
0.0
220
0.0
230
1.0
100
AcDbArc
 50
97.072677
 51
98.634038
  0
ARC
  5
2C9
100
AcDbEntity
  8
0
370
    35
390
0
 62
     7
100
AcDbCircle
 10
176.007065
 20
37.473305
 30
0.0
 40
117.844801
210
0.0
220
0.0
230
1.0
100
AcDbArc
 50
96.095864
 51
97.084466
  0
ARC
  5
2CA
100
AcDbEntity
  8
0
370
    35
390
0
 62
     7
100
AcDbCircle
 10
158.826828
 20
152.70076
 30
0.0
 40
1.339977
210
0.0
220
0.0
230
1.0
100
AcDbArc
 50
98.654037
 51
179.992464
  0
LINE
  5
2CB
100
AcDbEntity
  8
0
370
    35
390
0
 62
     7
 48
0.094194
100
AcDbLine
 10
157.486877
 20
152.700928
 30
0.0
 11
157.486877
 21
148.933182
 31
0.0
210
0.0
220
0.0
230
1.0
  0
POLYLINE
  5
2CC
100
AcDbEntity
  8
0
370
    35
390
0
 62
     7
100
AcDb2dPolyline
 66
     1
 10
0.0
 20
0.0
 30
0.0
 71
     7
  0
VERTEX
  5
2CD
100
AcDbEntity
  8
0
370
     0
390
0
100
AcDbVertex
100
AcDb2dVertex
 10
144.464859
 20
149.980469
 30
0.0
  0
VERTEX
  5
2CE
100
AcDbEntity
  8
0
370
     0
390
0
100
AcDbVertex
100
AcDb2dVertex
 10
145.20256
 20
150.372543
 30
0.0
  0
VERTEX
  5
2CF
100
AcDbEntity
  8
0
370
     0
390
0
100
AcDbVertex
100
AcDb2dVertex
 10
146.739105
 20
151.065308
 30
0.0
  0
VERTEX
  5
2D0
100
AcDbEntity
  8
0
370
     0
390
0
100
AcDbVertex
100
AcDb2dVertex
 10
148.363037
 20
151.662735
 30
0.0
  0
VERTEX
  5
2D1
100
AcDbEntity
  8
0
370
     0
390
0
100
AcDbVertex
100
AcDb2dVertex
 10
149.200806
 20
151.93396
 30
0.0
  0
VERTEX
  5
2D2
100
AcDbEntity
  8
0
370
     0
390
0
100
AcDbVertex
100
AcDb2dVertex
 10
150.897461
 20
152.427917
 30
0.0
  0
VERTEX
  5
2D3
100
AcDbEntity
  8
0
370
     0
390
0
100
AcDbVertex
100
AcDb2dVertex
 10
152.611435
 20
152.863922
 30
0.0
  0
SEQEND
  5
2D4
100
AcDbEntity
  8
0
370
     0
390
0
  0
POLYLINE
  5
2D5
100
AcDbEntity
  8
0
370
    35
390
0
 62
     7
100
AcDb2dPolyline
 66
     1
 10
0.0
 20
0.0
 30
0.0
 71
     5
  0
VERTEX
  5
2D6
100
AcDbEntity
  8
0
370
     0
390
0
100
AcDbVertex
100
AcDb2dVertex
 10
144.464859
 20
149.980469
 30
0.0
  0
VERTEX
  5
2D7
100
AcDbEntity
  8
0
370
     0
390
0
100
AcDbVertex
100
AcDb2dVertex
 10
146.029022
 20
149.502686
 30
0.0
  0
VERTEX
  5
2D8
100
AcDbEntity
  8
0
370
     0
390
0
100
AcDbVertex
100
AcDb2dVertex
 10
147.647537
 20
149.088287
 30
0.0
  0
VERTEX
  5
2D9
100
AcDbEntity
  8
0
370
     0
390
0
100
AcDbVertex
100
AcDb2dVertex
 10
150.098663
 20
148.556198
 30
0.0
  0
VERTEX
  5
2DA
100
AcDbEntity
  8
0
370
     0
390
0
100
AcDbVertex
100
AcDb2dVertex
 10
152.591522
 20
148.102386
 30
0.0
  0
SEQEND
  5
2DB
100
AcDbEntity
  8
0
370
     0
390
0
  0
ARC
  5
2DC
100
AcDbEntity
  8
0
370
    35
390
0
 62
     7
100
AcDbCircle
 10
153.139832
 20
151.36113
 30
0.0
 40
3.30456
210
0.0
220
0.0
230
1.0
100
AcDbArc
 50
260.448866
 51
263.626365
  0
ARC
  5
2DD
100
AcDbEntity
  8
0
370
    35
390
0
 62
     7
100
AcDbCircle
 10
152.921066
 20
149.407791
 30
0.0
 40
1.339201
210
0.0
220
0.0
230
1.0
100
AcDbArc
 50
279.864607
 51
359.995021
  0
ARC
  5
2DE
100
AcDbEntity
  8
0
370
    35
390
0
 62
     7
100
AcDbCircle
 10
152.921799
 20
149.406952
 30
0.0
 40
1.338259
210
0.0
220
0.0
230
1.0
100
AcDbArc
 50
263.615936
 51
279.840005
  0
LINE
  5
2DF
100
AcDbEntity
  8
0
370
    35
390
0
 62
     7
 48
0.053815
100
AcDbLine
 10
154.260208
 20
149.407669
 30
0.0
 11
154.260208
 21
151.560272
 31
0.0
210
0.0
220
0.0
230
1.0
  0
ARC
  5
2E0
100
AcDbEntity
  8
0
370
    35
390
0
 62
     7
100
AcDbCircle
 10
152.920258
 20
151.560272
 30
0.0
 40
1.34
210
0.0
220
0.0
230
1.0
100
AcDbArc
 50
0.000137
 51
96.98956
  0
ARC
  5
2E1
100
AcDbEntity
  8
0
370
    35
390
0
 62
     7
100
AcDbCircle
 10
152.921692
 20
151.558914
 30
0.0
 40
1.341378
210
0.0
220
0.0
230
1.0
100
AcDbArc
 50
97.043656
 51
103.373656
  0
ARC
  5
2E2
100
AcDbEntity
  8
0
370
    35
390
0
 62
     7
100
AcDbCircle
 10
179.134521
 20
13.807312
 30
0.0
 40
144.658253
210
0.0
220
0.0
230
1.0
100
AcDbArc
 50
94.18794
 51
95.98499
  0
LINE
  5
2E3
100
AcDbEntity
  8
0
370
    35
390
0
 62
     7
 48
0.18828
100
AcDbLine
 10
168.570358
 20
158.079453
 30
0.0
 11
168.570358
 21
150.548248
 31
0.0
210
0.0
220
0.0
230
1.0
  0
LINE
  5
2E4
100
AcDbEntity
  8
0
370
    35
390
0
 62
     7
 48
0.0125
100
AcDbLine
 10
168.570358
 20
150.548248
 30
0.0
 11
169.070358
 21
150.548248
 31
0.0
210
0.0
220
0.0
230
1.0
  0
LINE
  5
2E5
100
AcDbEntity
  8
0
370
    35
390
0
 62
     7
 48
0.002185
100
AcDbLine
 10
169.070358
 20
150.548248
 30
0.0
 11
169.157745
 21
150.548248
 31
0.0
210
0.0
220
0.0
230
1.0
  0
POLYLINE
  5
2E6
100
AcDbEntity
  8
0
370
    35
390
0
 62
     7
100
AcDb2dPolyline
 66
     1
 10
0.0
 20
0.0
 30
0.0
 71
    10
  0
VERTEX
  5
2E7
100
AcDbEntity
  8
0
370
     0
390
0
100
AcDbVertex
100
AcDb2dVertex
 10
169.570358
 20
158.150192
 30
0.0
  0
VERTEX
  5
2E8
100
AcDbEntity
  8
0
370
     0
390
0
100
AcDbVertex
100
AcDb2dVertex
 10
173.613586
 20
158.377197
 30
0.0
  0
VERTEX
  5
2E9
100
AcDbEntity
  8
0
370
     0
390
0
100
AcDbVertex
100
AcDb2dVertex
 10
176.661453
 20
158.490875
 30
0.0
  0
VERTEX
  5
2EA
100
AcDbEntity
  8
0
370
     0
390
0
100
AcDbVertex
100
AcDb2dVertex
 10
179.877151
 20
158.562592
 30
0.0
  0
VERTEX
  5
2EB
100
AcDbEntity
  8
0
370
     0
390
0
100
AcDbVertex
100
AcDb2dVertex
 10
183.093689
 20
158.589569
 30
0.0
  0
VERTEX
  5
2EC
100
AcDbEntity
  8
0
370
     0
390
0
100
AcDbVertex
100
AcDb2dVertex
 10
186.672897
 20
158.572479
 30
0.0
  0
VERTEX
  5
2ED
100
AcDbEntity
  8
0
370
     0
390
0
100
AcDbVertex
100
AcDb2dVertex
 10
190.251434
 20
158.510986
 30
0.0
  0
VERTEX
  5
2EE
100
AcDbEntity
  8
0
370
     0
390
0
100
AcDbVertex
100
AcDb2dVertex
 10
197.074722
 20
158.283615
 30
0.0
  0
VERTEX
  5
2EF
100
AcDbEntity
  8
0
370
     0
390
0
100
AcDbVertex
100
AcDb2dVertex
 10
203.892136
 20
157.920822
 30
0.0
  0
VERTEX
  5
2F0
100
AcDbEntity
  8
0
370
     0
390
0
100
AcDbVertex
100
AcDb2dVertex
 10
206.510605
 20
157.747559
 30
0.0
  0
SEQEND
  5
2F1
100
AcDbEntity
  8
0
370
     0
390
0
  0
POLYLINE
  5
2F2
100
AcDbEntity
  8
0
370
    35
390
0
 62
     7
100
AcDb2dPolyline
 66
     1
 10
0.0
 20
0.0
 30
0.0
 71
    12
  0
VERTEX
  5
2F3
100
AcDbEntity
  8
0
370
     0
390
0
100
AcDbVertex
100
AcDb2dVertex
 10
280.152222
 20
147.5728
 30
0.0
  0
VERTEX
  5
2F4
100
AcDbEntity
  8
0
370
     0
390
0
100
AcDbVertex
100
AcDb2dVertex
 10
273.030518
 20
148.937469
 30
0.0
  0
VERTEX
  5
2F5
100
AcDbEntity
  8
0
370
     0
390
0
100
AcDbVertex
100
AcDb2dVertex
 10
266.997498
 20
150.027618
 30
0.0
  0
VERTEX
  5
2F6
100
AcDbEntity
  8
0
370
     0
390
0
100
AcDbVertex
100
AcDb2dVertex
 10
260.954529
 20
151.061157
 30
0.0
  0
VERTEX
  5
2F7
100
AcDbEntity
  8
0
370
     0
390
0
100
AcDbVertex
100
AcDb2dVertex
 10
255.757599
 20
151.90593
 30
0.0
  0
VERTEX
  5
2F8
100
AcDbEntity
  8
0
370
     0
390
0
100
AcDbVertex
100
AcDb2dVertex
 10
245.365067
 20
153.480988
 30
0.0
  0
VERTEX
  5
2F9
100
AcDbEntity
  8
0
370
     0
390
0
100
AcDbVertex
100
AcDb2dVertex
 10
240.17009
 20
154.210907
 30
0.0
  0
VERTEX
  5
2FA
100
AcDbEntity
  8
0
370
     0
390
0
100
AcDbVertex
100
AcDb2dVertex
 10
231.764435
 20
155.298309
 30
0.0
  0
VERTEX
  5
2FB
100
AcDbEntity
  8
0
370
     0
390
0
100
AcDbVertex
100
AcDb2dVertex
 10
223.36058
 20
156.255432
 30
0.0
  0
VERTEX
  5
2FC
100
AcDbEntity
  8
0
370
     0
390
0
100
AcDbVertex
100
AcDb2dVertex
 10
214.942123
 20
157.076462
 30
0.0
  0
VERTEX
  5
2FD
100
AcDbEntity
  8
0
370
     0
390
0
100
AcDbVertex
100
AcDb2dVertex
 10
210.727936
 20
157.432297
 30
0.0
  0
VERTEX
  5
2FE
100
AcDbEntity
  8
0
370
     0
390
0
100
AcDbVertex
100
AcDb2dVertex
 10
206.510605
 20
157.747559
 30
0.0
  0
SEQEND
  5
2FF
100
AcDbEntity
  8
0
370
     0
390
0
  0
POLYLINE
  5
300
100
AcDbEntity
  8
0
370
    35
390
0
 62
     7
100
AcDb2dPolyline
 66
     1
 10
0.0
 20
0.0
 30
0.0
 71
     8
  0
VERTEX
  5
301
100
AcDbEntity
  8
0
370
     0
390
0
100
AcDbVertex
100
AcDb2dVertex
 10
277.07251
 20
142.574585
 30
0.0
  0
VERTEX
  5
302
100
AcDbEntity
  8
0
370
     0
390
0
100
AcDbVertex
100
AcDb2dVertex
 10
277.105164
 20
142.213791
 30
0.0
  0
VERTEX
  5
303
100
AcDbEntity
  8
0
370
     0
390
0
100
AcDbVertex
100
AcDb2dVertex
 10
277.241943
 20
141.518402
 30
0.0
  0
VERTEX
  5
304
100
AcDbEntity
  8
0
370
     0
390
0
100
AcDbVertex
100
AcDb2dVertex
 10
277.472717
 20
140.84938
 30
0.0
  0
VERTEX
  5
305
100
AcDbEntity
  8
0
370
     0
390
0
100
AcDbVertex
100
AcDb2dVertex
 10
277.792786
 20
140.219818
 30
0.0
  0
VERTEX
  5
306
100
AcDbEntity
  8
0
370
     0
390
0
100
AcDbVertex
100
AcDb2dVertex
 10
278.157043
 20
139.690872
 30
0.0
  0
VERTEX
  5
307
100
AcDbEntity
  8
0
370
     0
390
0
100
AcDbVertex
100
AcDb2dVertex
 10
278.58429
 20
139.213776
 30
0.0
  0
VERTEX
  5
308
100
AcDbEntity
  8
0
370
     0
390
0
100
AcDbVertex
100
AcDb2dVertex
 10
279.0672
 20
138.796524
 30
0.0
  0
SEQEND
  5
309
100
AcDbEntity
  8
0
370
     0
390
0
  0
ARC
  5
30A
100
AcDbEntity
  8
0
370
    35
390
0
 62
     7
100
AcDbCircle
 10
267.523438
 20
146.092438
 30
0.0
 40
0.7434
210
0.0
220
0.0
230
1.0
100
AcDbArc
 50
172.324471
 51
217.574478
  0
ARC
  5
30B
100
AcDbEntity
  8
0
370
    35
390
0
 62
     7
100
AcDbCircle
 10
269.401062
 20
147.548904
 30
0.0
 40
3.119589
210
0.0
220
0.0
230
1.0
100
AcDbArc
 50
217.74709
 51
229.971298
  0
LINE
  5
30C
100
AcDbEntity
  8
0
370
    35
390
0
 62
     7
 48
0.065135
100
AcDbLine
 10
267.394592
 20
145.160172
 30
0.0
 11
269.390442
 21
143.485474
 31
0.0
210
0.0
220
0.0
230
1.0
  0
ARC
  5
30D
100
AcDbEntity
  8
0
370
    35
390
0
 62
     7
100
AcDbCircle
 10
271.378845
 20
145.853104
 30
0.0
 40
3.091799
210
0.0
220
0.0
230
1.0
100
AcDbArc
 50
229.975355
 51
245.897401
  0
POLYLINE
  5
30E
100
AcDbEntity
  8
0
370
    35
390
0
 62
     7
100
AcDb2dPolyline
 66
     1
 10
0.0
 20
0.0
 30
0.0
 71
     6
  0
VERTEX
  5
30F
100
AcDbEntity
  8
0
370
     0
390
0
100
AcDbVertex
100
AcDb2dVertex
 10
270.116272
 20
143.030884
 30
0.0
  0
VERTEX
  5
310
100
AcDbEntity
  8
0
370
     0
390
0
100
AcDbVertex
100
AcDb2dVertex
 10
270.378906
 20
142.969315
 30
0.0
  0
VERTEX
  5
311
100
AcDbEntity
  8
0
370
     0
390
0
100
AcDbVertex
100
AcDb2dVertex
 10
270.651306
 20
143.00943
 30
0.0
  0
VERTEX
  5
312
100
AcDbEntity
  8
0
370
     0
390
0
100
AcDbVertex
100
AcDb2dVertex
 10
270.89563
 20
143.149246
 30
0.0
  0
VERTEX
  5
313
100
AcDbEntity
  8
0
370
     0
390
0
100
AcDbVertex
100
AcDb2dVertex
 10
271.072693
 20
143.369492
 30
0.0
  0
VERTEX
  5
314
100
AcDbEntity
  8
0
370
     0
390
0
100
AcDbVertex
100
AcDb2dVertex
 10
271.155945
 20
143.634705
 30
0.0
  0
SEQEND
  5
315
100
AcDbEntity
  8
0
370
     0
390
0
  0
LINE
  5
316
100
AcDbEntity
  8
0
370
    35
390
0
 62
     7
 48
0.002158
100
AcDbLine
 10
271.164978
 20
143.720551
 30
0.0
 11
271.155945
 21
143.634705
 31
0.0
210
0.0
220
0.0
230
1.0
  0
ARC
  5
317
100
AcDbEntity
  8
0
370
    35
390
0
 62
     7
100
AcDbCircle
 10
254.733658
 20
143.8311
 30
0.0
 40
1.332923
210
0.0
220
0.0
230
1.0
100
AcDbArc
 50
148.850681
 51
268.184581
  0
LINE
  5
318
100
AcDbEntity
  8
0
370
    35
390
0
 62
     7
 48
0.206299
100
AcDbLine
 10
262.939209
 20
142.235992
 30
0.0
 11
254.691422
 21
142.49884
 31
0.0
210
0.0
220
0.0
230
1.0
  0
ARC
  5
319
100
AcDbEntity
  8
0
370
    35
390
0
 62
     7
100
AcDbCircle
 10
262.982056
 20
143.569153
 30
0.0
 40
1.333844
210
0.0
220
0.0
230
1.0
100
AcDbArc
 50
268.160286
 51
343.617591
  0
ARC
  5
31A
100
AcDbEntity
  8
0
370
    35
390
0
 62
     7
100
AcDbCircle
 10
238.833267
 20
150.082123
 30
0.0
 40
1.32432
210
0.0
220
0.0
230
1.0
100
AcDbArc
 50
125.2725
 51
223.605343
  0
ARC
  5
31B
100
AcDbEntity
  8
0
370
    35
390
0
 62
     7
100
AcDbCircle
 10
240.32869
 20
151.513153
 30
0.0
 40
3.39362
210
0.0
220
0.0
230
1.0
100
AcDbArc
 50
223.687169
 51
229.997239
  0
LINE
  5
31C
100
AcDbEntity
  8
0
370
    35
390
0
 62
     7
 48
0.186403
100
AcDbLine
 10
238.147186
 20
148.913605
 30
0.0
 11
243.858917
 21
144.120895
 31
0.0
210
0.0
220
0.0
230
1.0
  0
ARC
  5
31D
100
AcDbEntity
  8
0
370
    35
390
0
 62
     7
100
AcDbCircle
 10
246.678253
 20
147.480835
 30
0.0
 40
4.386093
210
0.0
220
0.0
230
1.0
100
AcDbArc
 50
229.99993
 51
235.245598
  0
ARC
  5
31E
100
AcDbEntity
  8
0
370
    35
390
0
 62
     7
100
AcDbCircle
 10
245.691544
 20
146.057999
 30
0.0
 40
2.654526
210
0.0
220
0.0
230
1.0
100
AcDbArc
 50
235.2365
 51
298.688308
  0
ARC
  5
31F
100
AcDbEntity
  8
0
370
    35
390
0
 62
     7
100
AcDbCircle
 10
243.708588
 20
149.676941
 30
0.0
 40
6.781099
210
0.0
220
0.0
230
1.0
100
AcDbArc
 50
298.707638
 51
302.173761
  0
LINE
  5
320
100
AcDbEntity
  8
0
370
    35
390
0
 62
     7
 48
0.147605
100
AcDbLine
 10
252.316971
 20
147.081085
 30
0.0
 11
247.319443
 21
143.937164
 31
0.0
210
0.0
220
0.0
230
1.0
  0
ARC
  5
321
100
AcDbEntity
  8
0
370
    35
390
0
 62
     7
100
AcDbCircle
 10
251.607071
 20
148.210815
 30
0.0
 40
1.334248
210
0.0
220
0.0
230
1.0
100
AcDbArc
 50
302.144241
 51
322.781374
  0
ARC
  5
322
100
AcDbEntity
  8
0
370
    35
390
0
 62
     7
100
AcDbCircle
 10
229.292389
 20
149.312866
 30
0.0
 40
2.66366
210
0.0
220
0.0
230
1.0
100
AcDbArc
 50
117.234337
 51
122.187727
  0
LINE
  5
323
100
AcDbEntity
  8
0
370
    35
390
0
 62
     7
 48
0.250617
100
AcDbLine
 10
219.389023
 20
146.227783
 30
0.0
 11
227.873459
 21
151.567139
 31
0.0
210
0.0
220
0.0
230
1.0
  0
ARC
  5
324
100
AcDbEntity
  8
0
370
    35
390
0
 62
     7
100
AcDbCircle
 10
221.223053
 20
143.31424
 30
0.0
 40
3.442729
210
0.0
220
0.0
230
1.0
100
AcDbArc
 50
122.18983
 51
129.928967
  0
ARC
  5
325
100
AcDbEntity
  8
0
370
    35
390
0
 62
     7
100
AcDbCircle
 10
219.866043
 20
144.940399
 30
0.0
 40
1.325442
210
0.0
220
0.0
230
1.0
100
AcDbArc
 50
130.064014
 51
261.6151
  0
ARC
  5
326
100
AcDbEntity
  8
0
370
    35
390
0
 62
     7
100
AcDbCircle
 10
219.992172
 20
145.780731
 30
0.0
 40
2.175319
210
0.0
220
0.0
230
1.0
100
AcDbArc
 50
261.555992
 51
267.904666
  0
ARC
  5
327
100
AcDbEntity
  8
0
370
    35
390
0
 62
     7
100
AcDbCircle
 10
373.018005
 20
4363.753906
 30
0.0
 40
4222.923536
210
0.0
220
0.0
230
1.0
100
AcDbArc
 50
267.92224
 51
268.155225
  0
ARC
  5
328
100
AcDbEntity
  8
0
370
    35
390
0
 62
     7
100
AcDbCircle
 10
237.186249
 20
146.456772
 30
0.0
 40
3.440029
210
0.0
220
0.0
230
1.0
100
AcDbArc
 50
268.136524
 51
272.579418
  0
ARC
  5
329
100
AcDbEntity
  8
0
370
    35
390
0
 62
     7
100
AcDbCircle
 10
237.28299
 20
144.345428
 30
0.0
 40
1.326407
210
0.0
220
0.0
230
1.0
100
AcDbArc
 50
272.509177
 51
308.924979
  0
ARC
  5
32A
100
AcDbEntity
  8
0
370
    35
390
0
 62
     7
100
AcDbCircle
 10
200.999222
 20
153.827301
 30
0.0
 40
1.317712
210
0.0
220
0.0
230
1.0
100
AcDbArc
 50
108.470432
 51
221.403727
  0
ARC
  5
32B
100
AcDbEntity
  8
0
370
    35
390
0
 62
     7
100
AcDbCircle
 10
202.606766
 20
155.258362
 30
0.0
 40
3.469208
210
0.0
220
0.0
230
1.0
100
AcDbArc
 50
221.572474
 51
229.99295
  0
LINE
  5
32C
100
AcDbEntity
  8
0
370
    35
390
0
 62
     7
 48
0.283198
100
AcDbLine
 10
200.37648
 20
152.601059
 30
0.0
 11
209.054169
 21
145.319611
 31
0.0
210
0.0
220
0.0
230
1.0
  0
ARC
  5
32D
100
AcDbEntity
  8
0
370
    35
390
0
 62
     7
100
AcDbCircle
 10
211.831558
 20
148.629547
 30
0.0
 40
4.320832
210
0.0
220
0.0
230
1.0
100
AcDbArc
 50
229.999835
 51
236.681727
  0
ARC
  5
32E
100
AcDbEntity
  8
0
370
    35
390
0
 62
     7
100
AcDbCircle
 10
210.912613
 20
147.230637
 30
0.0
 40
2.646991
210
0.0
220
0.0
230
1.0
100
AcDbArc
 50
236.670976
 51
291.659572
  0
ARC
  5
32F
100
AcDbEntity
  8
0
370
    35
390
0
 62
     7
100
AcDbCircle
 10
192.450043
 20
152.223679
 30
0.0
 40
2.660047
210
0.0
220
0.0
230
1.0
100
AcDbArc
 50
104.287092
 51
122.203354
  0
LINE
  5
330
100
AcDbEntity
  8
0
370
    35
390
0
 62
     7
 48
0.3015
100
AcDbLine
 10
180.826492
 20
148.049362
 30
0.0
 11
191.032425
 21
154.474518
 31
0.0
210
0.0
220
0.0
230
1.0
  0
ARC
  5
331
100
AcDbEntity
  8
0
370
    35
390
0
 62
     7
100
AcDbCircle
 10
182.688492
 20
145.093094
 30
0.0
 40
3.493791
210
0.0
220
0.0
230
1.0
100
AcDbArc
 50
122.204747
 51
131.551984
  0
ARC
  5
332
100
AcDbEntity
  8
0
370
    35
390
0
 62
     7
100
AcDbCircle
 10
181.249222
 20
146.723404
 30
0.0
 40
1.319875
210
0.0
220
0.0
230
1.0
100
AcDbArc
 50
131.738298
 51
258.104854
  0
ARC
  5
333
100
AcDbEntity
  8
0
370
    35
390
0
 62
     7
100
AcDbCircle
 10
181.423843
 20
147.534103
 30
0.0
 40
2.149498
210
0.0
220
0.0
230
1.0
100
AcDbArc
 50
258.004423
 51
266.32134
  0
POLYLINE
  5
334
100
AcDbEntity
  8
0
370
    35
390
0
 62
     7
100
AcDb2dPolyline
 66
     1
 10
0.0
 20
0.0
 30
0.0
 71
     4
  0
VERTEX
  5
335
100
AcDbEntity
  8
0
370
     0
390
0
100
AcDbVertex
100
AcDb2dVertex
 10
181.285919
 20
145.389038
 30
0.0
  0
VERTEX
  5
336
100
AcDbEntity
  8
0
370
     0
390
0
100
AcDbVertex
100
AcDb2dVertex
 10
188.252579
 20
144.972733
 30
0.0
  0
VERTEX
  5
337
100
AcDbEntity
  8
0
370
     0
390
0
100
AcDbVertex
100
AcDb2dVertex
 10
195.199173
 20
144.608643
 30
0.0
  0
VERTEX
  5
338
100
AcDbEntity
  8
0
370
     0
390
0
100
AcDbVertex
100
AcDb2dVertex
 10
202.157318
 20
144.28302
 30
0.0
  0
SEQEND
  5
339
100
AcDbEntity
  8
0
370
     0
390
0
  0
ARC
  5
33A
100
AcDbEntity
  8
0
370
    35
390
0
 62
     7
100
AcDbCircle
 10
202.311874
 20
147.764435
 30
0.0
 40
3.48485
210
0.0
220
0.0
230
1.0
100
AcDbArc
 50
267.458088
 51
272.422584
  0
ARC
  5
33B
100
AcDbEntity
  8
0
370
    35
390
0
 62
     7
100
AcDbCircle
 10
202.402985
 20
145.615387
 30
0.0
 40
1.333862
210
0.0
220
0.0
230
1.0
100
AcDbArc
 50
272.414504
 51
285.400059
  0
ARC
  5
33C
100
AcDbEntity
  8
0
370
    35
390
0
 62
     7
100
AcDbCircle
 10
173.845718
 20
154.115021
 30
0.0
 40
1.330924
210
0.0
220
0.0
230
1.0
100
AcDbArc
 50
105.278459
 51
180.003683
  0
LINE
  5
33D
100
AcDbEntity
  8
0
370
    35
390
0
 62
     7
 48
0.13746
100
AcDbLine
 10
172.514801
 20
148.616547
 30
0.0
 11
172.514801
 21
154.114929
 31
0.0
210
0.0
220
0.0
230
1.0
  0
ARC
  5
33E
100
AcDbEntity
  8
0
370
    35
390
0
 62
     7
100
AcDbCircle
 10
176.034561
 20
148.616669
 30
0.0
 40
3.519763
210
0.0
220
0.0
230
1.0
100
AcDbArc
 50
180.001935
 51
185.425706
  0
ARC
  5
33F
100
AcDbEntity
  8
0
370
    35
390
0
 62
     7
100
AcDbCircle
 10
173.850769
 20
148.410934
 30
0.0
 40
1.326579
210
0.0
220
0.0
230
1.0
100
AcDbArc
 50
185.498448
 51
274.208787
  0
ARC
  5
340
100
AcDbEntity
  8
0
370
    35
390
0
 62
     7
100
AcDbCircle
 10
161.181152
 20
149.015686
 30
0.0
 40
3.230918
210
0.0
220
0.0
230
1.0
100
AcDbArc
 50
180.011825
 51
191.024207
  0
ARC
  5
341
100
AcDbEntity
  8
0
370
    35
390
0
 62
     7
100
AcDbCircle
 10
159.284851
 20
148.647385
 30
0.0
 40
1.299164
210
0.0
220
0.0
230
1.0
100
AcDbArc
 50
191.073275
 51
245.612623
  0
ARC
  5
342
100
AcDbEntity
  8
0
370
    35
390
0
 62
     7
100
AcDbCircle
 10
159.671432
 20
149.509903
 30
0.0
 40
2.244398
210
0.0
220
0.0
230
1.0
100
AcDbArc
 50
245.716264
 51
262.832329
  0
ARC
  5
343
100
AcDbEntity
  8
0
370
    35
390
0
 62
     7
100
AcDbCircle
 10
187.456543
 20
371.945526
 30
0.0
 40
226.408871
210
0.0
220
0.0
230
1.0
100
AcDbArc
 50
262.879416
 51
264.092587
  0
ARC
  5
344
100
AcDbEntity
  8
0
370
    35
390
0
 62
     7
100
AcDbCircle
 10
164.292618
 20
148.068039
 30
0.0
 40
1.336402
210
0.0
220
0.0
230
1.0
100
AcDbArc
 50
264.057207
 51
272.633063
  0
ARC
  5
345
100
AcDbEntity
  8
0
370
    35
390
0
 62
     7
100
AcDbCircle
 10
174.79808
 20
50.768806
 30
0.0
 40
104.501662
210
0.0
220
0.0
230
1.0
100
AcDbArc
 50
97.212628
 51
98.649235
  0
ARC
  5
346
100
AcDbEntity
  8
0
370
    35
390
0
 62
     7
100
AcDbCircle
 10
159.283524
 20
152.763885
 30
0.0
 40
1.33331
210
0.0
220
0.0
230
1.0
100
AcDbArc
 50
98.665914
 51
179.992519
  0
LINE
  5
347
100
AcDbEntity
  8
0
370
    35
390
0
 62
     7
 48
0.093726
100
AcDbLine
 10
157.950241
 20
152.764069
 30
0.0
 11
157.950241
 21
149.015015
 31
0.0
210
0.0
220
0.0
230
1.0
  0
POLYLINE
  5
348
100
AcDbEntity
  8
0
370
    35
390
0
 62
     7
100
AcDb2dPolyline
 66
     1
 10
0.0
 20
0.0
 30
0.0
 71
     7
  0
VERTEX
  5
349
100
AcDbEntity
  8
0
370
     0
390
0
100
AcDbVertex
100
AcDb2dVertex
 10
144.977356
 20
150.050949
 30
0.0
  0
VERTEX
  5
34A
100
AcDbEntity
  8
0
370
     0
390
0
100
AcDbVertex
100
AcDb2dVertex
 10
145.711838
 20
150.441269
 30
0.0
  0
VERTEX
  5
34B
100
AcDbEntity
  8
0
370
     0
390
0
100
AcDbVertex
100
AcDb2dVertex
 10
147.241501
 20
151.130981
 30
0.0
  0
VERTEX
  5
34C
100
AcDbEntity
  8
0
370
     0
390
0
100
AcDbVertex
100
AcDb2dVertex
 10
148.858246
 20
151.725983
 30
0.0
  0
VERTEX
  5
34D
100
AcDbEntity
  8
0
370
     0
390
0
100
AcDbVertex
100
AcDb2dVertex
 10
149.69223
 20
151.996155
 30
0.0
  0
VERTEX
  5
34E
100
AcDbEntity
  8
0
370
     0
390
0
100
AcDbVertex
100
AcDb2dVertex
 10
151.330872
 20
152.474533
 30
0.0
  0
VERTEX
  5
34F
100
AcDbEntity
  8
0
370
     0
390
0
100
AcDbVertex
100
AcDb2dVertex
 10
152.985718
 20
152.898438
 30
0.0
  0
SEQEND
  5
350
100
AcDbEntity
  8
0
370
     0
390
0
  0
POLYLINE
  5
351
100
AcDbEntity
  8
0
370
    35
390
0
 62
     7
100
AcDb2dPolyline
 66
     1
 10
0.0
 20
0.0
 30
0.0
 71
     6
  0
VERTEX
  5
352
100
AcDbEntity
  8
0
370
     0
390
0
100
AcDbVertex
100
AcDb2dVertex
 10
144.977356
 20
150.050949
 30
0.0
  0
VERTEX
  5
353
100
AcDbEntity
  8
0
370
     0
390
0
100
AcDbVertex
100
AcDb2dVertex
 10
146.139191
 20
149.687668
 30
0.0
  0
VERTEX
  5
354
100
AcDbEntity
  8
0
370
     0
390
0
100
AcDbVertex
100
AcDb2dVertex
 10
147.336594
 20
149.363556
 30
0.0
  0
VERTEX
  5
355
100
AcDbEntity
  8
0
370
     0
390
0
100
AcDbVertex
100
AcDb2dVertex
 10
148.754913
 20
149.022766
 30
0.0
  0
VERTEX
  5
356
100
AcDbEntity
  8
0
370
     0
390
0
100
AcDbVertex
100
AcDb2dVertex
 10
150.177444
 20
148.71727
 30
0.0
  0
VERTEX
  5
357
100
AcDbEntity
  8
0
370
     0
390
0
100
AcDbVertex
100
AcDb2dVertex
 10
153.066864
 20
148.184479
 30
0.0
  0
SEQEND
  5
358
100
AcDbEntity
  8
0
370
     0
390
0
  0
ARC
  5
359
100
AcDbEntity
  8
0
370
    35
390
0
 62
     7
100
AcDbCircle
 10
153.619781
 20
151.476227
 30
0.0
 40
3.337854
210
0.0
220
0.0
230
1.0
100
AcDbArc
 50
260.464883
 51
263.596033
  0
ARC
  5
35A
100
AcDbEntity
  8
0
370
    35
390
0
 62
     7
100
AcDbCircle
 10
153.396362
 20
149.484985
 30
0.0
 40
1.334129
210
0.0
220
0.0
230
1.0
100
AcDbArc
 50
263.592952
 51
269.445482
  0
LINE
  5
35B
100
AcDbEntity
  8
0
370
    13
390
0
 62
     7
 48
0.003843
100
AcDbLine
 10
254.613129
 20
142.366531
 30
0.0
 11
254.691422
 21
142.49884
 31
0.0
210
0.0
220
0.0
230
1.0
  0
LINE
  5
35C
100
AcDbEntity
  8
0
370
    13
390
0
 62
     7
 48
0.003531
100
AcDbLine
 10
262.900818
 20
142.100067
 30
0.0
 11
262.939209
 21
142.235992
 31
0.0
210
0.0
220
0.0
230
1.0
  0
LINE
  5
35D
100
AcDbEntity
  8
0
370
    13
390
0
 62
     7
 48
0.006198
100
AcDbLine
 10
219.454834
 20
143.510742
 30
0.0
 11
219.672745
 21
143.628998
 31
0.0
210
0.0
220
0.0
230
1.0
  0
LINE
  5
35E
100
AcDbEntity
  8
0
370
    13
390
0
 62
     7
 48
0.006174
100
AcDbLine
 10
219.695847
 20
143.488571
 30
0.0
 11
219.912643
 21
143.606873
 31
0.0
210
0.0
220
0.0
230
1.0
  0
LINE
  5
35F
100
AcDbEntity
  8
0
370
    13
390
0
 62
     7
 48
0.006219
100
AcDbLine
 10
218.789276
 20
145.846252
 30
0.0
 11
219.013382
 21
145.954254
 31
0.0
210
0.0
220
0.0
230
1.0
  0
LINE
  5
360
100
AcDbEntity
  8
0
370
    13
390
0
 62
     7
 48
0.004664
100
AcDbLine
 10
236.936676
 20
142.892731
 30
0.0
 11
237.074387
 21
143.01857
 31
0.0
210
0.0
220
0.0
230
1.0
  0
LINE
  5
361
100
AcDbEntity
  8
0
370
    13
390
0
 62
     7
 48
0.006168
100
AcDbLine
 10
219.166458
 20
146.121277
 30
0.0
 11
219.389023
 21
146.227783
 31
0.0
210
0.0
220
0.0
230
1.0
  0
LINE
  5
362
100
AcDbEntity
  8
0
370
    13
390
0
 62
     7
 48
0.00464
100
AcDbLine
 10
237.204575
 20
142.894485
 30
0.0
 11
237.341064
 21
143.020233
 31
0.0
210
0.0
220
0.0
230
1.0
  0
LINE
  5
363
100
AcDbEntity
  8
0
370
    13
390
0
 62
     7
 48
0.005008
100
AcDbLine
 10
227.692047
 20
151.482224
 30
0.0
 11
227.873459
 21
151.567139
 31
0.0
210
0.0
220
0.0
230
1.0
  0
LINE
  5
364
100
AcDbEntity
  8
0
370
    13
390
0
 62
     7
 48
0.009684
100
AcDbLine
 10
180.602905
 20
145.331329
 30
0.0
 11
180.977097
 21
145.431534
 31
0.0
210
0.0
220
0.0
230
1.0
  0
LINE
  5
365
100
AcDbEntity
  8
0
370
    13
390
0
 62
     7
 48
0.00965
100
AcDbLine
 10
180.913162
 20
145.288773
 30
0.0
 11
181.285919
 21
145.389038
 31
0.0
210
0.0
220
0.0
230
1.0
  0
LINE
  5
366
100
AcDbEntity
  8
0
370
    13
390
0
 62
     7
 48
0.009788
100
AcDbLine
 10
179.990158
 20
147.617142
 30
0.0
 11
180.371063
 21
147.707687
 31
0.0
210
0.0
220
0.0
230
1.0
  0
LINE
  5
367
100
AcDbEntity
  8
0
370
    13
390
0
 62
     7
 48
0.007489
100
AcDbLine
 10
201.879181
 20
144.171814
 30
0.0
 11
202.157318
 21
144.28302
 31
0.0
210
0.0
220
0.0
230
1.0
  0
LINE
  5
368
100
AcDbEntity
  8
0
370
    13
390
0
 62
     7
 48
0.009734
100
AcDbLine
 10
180.447327
 20
147.96077
 30
0.0
 11
180.826492
 21
148.049362
 31
0.0
210
0.0
220
0.0
230
1.0
  0
LINE
  5
369
100
AcDbEntity
  8
0
370
    13
390
0
 62
     7
 48
0.007455
100
AcDbLine
 10
202.182419
 20
144.171631
 30
0.0
 11
202.459167
 21
144.2827
 31
0.0
210
0.0
220
0.0
230
1.0
  0
LINE
  5
36A
100
AcDbEntity
  8
0
370
    13
390
0
 62
     7
 48
0.00841
100
AcDbLine
 10
190.701996
 20
154.411438
 30
0.0
 11
191.032425
 21
154.474518
 31
0.0
210
0.0
220
0.0
230
1.0
  0
LINE
  5
36B
100
AcDbEntity
  8
0
370
    13
390
0
 62
     7
 48
0.01097
100
AcDbLine
 10
163.725037
 20
146.647659
 30
0.0
 11
164.154266
 21
146.738815
 31
0.0
210
0.0
220
0.0
230
1.0
  0
LINE
  5
36C
100
AcDbEntity
  8
0
370
    13
390
0
 62
     7
 48
0.011519
100
AcDbLine
 10
158.93895
 20
147.195877
 30
0.0
 11
159.391388
 21
147.28302
 31
0.0
210
0.0
220
0.0
230
1.0
  0
LINE
  5
36D
100
AcDbEntity
  8
0
370
    13
390
0
 62
     7
 48
0.011603
100
AcDbLine
 10
158.292557
 20
147.377045
 30
0.0
 11
158.748428
 21
147.464127
 31
0.0
210
0.0
220
0.0
230
1.0
  0
LINE
  5
36E
100
AcDbEntity
  8
0
370
    13
390
0
 62
     7
 48
0.011523
100
AcDbLine
 10
158.625198
 20
154.025482
 30
0.0
 11
159.082626
 21
154.081985
 31
0.0
210
0.0
220
0.0
230
1.0
  0
LINE
  5
36F
100
AcDbEntity
  8
0
370
    13
390
0
 62
     7
 48
0.011747
100
AcDbLine
 10
157.547714
 20
148.31311
 30
0.0
 11
158.009872
 21
148.397858
 31
0.0
210
0.0
220
0.0
230
1.0
  0
LINE
  5
370
100
AcDbEntity
  8
0
370
    13
390
0
 62
     7
 48
0.011691
100
AcDbLine
 10
157.486877
 20
152.700928
 30
0.0
 11
157.950241
 21
152.764069
 31
0.0
210
0.0
220
0.0
230
1.0
  0
LINE
  5
371
100
AcDbEntity
  8
0
370
    13
390
0
 62
     7
 48
0.011763
100
AcDbLine
 10
157.486877
 20
148.933182
 30
0.0
 11
157.950241
 21
149.015015
 31
0.0
210
0.0
220
0.0
230
1.0
  0
LINE
  5
372
100
AcDbEntity
  8
0
370
    35
390
0
 62
     7
 48
0.003808
100
AcDbLine
 10
279.087341
 20
138.645538
 30
0.0
 11
279.0672
 21
138.796524
 31
0.0
210
0.0
220
0.0
230
1.0
  0
LINE
  5
373
100
AcDbEntity
  8
0
370
    35
390
0
 62
     7
 48
0.010377
100
AcDbLine
 10
169.570358
 20
158.150192
 30
0.0
 11
169.157745
 21
158.104828
 31
0.0
210
0.0
220
0.0
230
1.0
  0
LINE
  5
374
100
AcDbEntity
  8
0
370
    35
390
0
 62
     7
 48
0.010496
100
AcDbLine
 10
168.157745
 20
150.470673
 30
0.0
 11
168.570358
 21
150.548248
 31
0.0
210
0.0
220
0.0
230
1.0
  0
LINE
  5
375
100
AcDbEntity
  8
0
370
    35
390
0
 62
     7
 48
0.010377
100
AcDbLine
 10
168.570358
 20
158.079453
 30
0.0
 11
168.157745
 21
158.034332
 31
0.0
210
0.0
220
0.0
230
1.0
  0
LINE
  5
376
100
AcDbEntity
  8
0
370
    35
390
0
 62
     7
 48
0.003004
100
AcDbLine
 10
280.152222
 20
147.5728
 30
0.0
 11
280.177429
 21
147.455322
 31
0.0
210
0.0
220
0.0
230
1.0
  0
LINE
  5
377
100
AcDbEntity
  8
0
370
    13
390
0
 62
     7
 48
0.007395
100
AcDbLine
 10
152.611435
 20
152.863922
 30
0.0
 11
152.905014
 21
152.900162
 31
0.0
210
0.0
220
0.0
230
1.0
  0
LINE
  5
378
100
AcDbEntity
  8
0
370
    35
390
0
 62
     7
 48
0.012933
100
AcDbLine
 10
144.464859
 20
149.980469
 30
0.0
 11
144.977356
 21
150.050949
 31
0.0
210
0.0
220
0.0
230
1.0
  0
LINE
  5
379
100
AcDbEntity
  8
0
370
    13
390
0
 62
     7
 48
0.012059
100
AcDbLine
 10
152.591522
 20
148.102386
 30
0.0
 11
153.066864
 21
148.184479
 31
0.0
210
0.0
220
0.0
230
1.0
  0
LINE
  5
37A
100
AcDbEntity
  8
0
370
    13
390
0
 62
     7
 48
0.012039
100
AcDbLine
 10
152.772995
 20
148.076996
 30
0.0
 11
153.247482
 21
148.159195
 31
0.0
210
0.0
220
0.0
230
1.0
  0
LINE
  5
37B
100
AcDbEntity
  8
0
370
    13
390
0
 62
     7
 48
0.010207
100
AcDbLine
 10
172.111084
 20
154.05394
 30
0.0
 11
172.514801
 21
154.114929
 31
0.0
210
0.0
220
0.0
230
1.0
  0
LINE
  5
37C
100
AcDbEntity
  8
0
370
    13
390
0
 62
     7
 48
0.010318
100
AcDbLine
 10
172.111084
 20
148.530792
 30
0.0
 11
172.514801
 21
148.616547
 31
0.0
210
0.0
220
0.0
230
1.0
  0
LINE
  5
37D
100
AcDbEntity
  8
0
370
    13
390
0
 62
     7
 48
0.010318
100
AcDbLine
 10
172.127167
 20
148.196625
 30
0.0
 11
172.530579
 21
148.283859
 31
0.0
210
0.0
220
0.0
230
1.0
  0
LINE
  5
37E
100
AcDbEntity
  8
0
370
    13
390
0
 62
     7
 48
0.006978
100
AcDbLine
 10
209.200729
 20
144.911041
 30
0.0
 11
209.458176
 21
145.018921
 31
0.0
210
0.0
220
0.0
230
1.0
  0
LINE
  5
37F
100
AcDbEntity
  8
0
370
    13
390
0
 62
     7
 48
0.007001
100
AcDbLine
 10
208.795059
 20
145.213333
 30
0.0
 11
209.054169
 21
145.319611
 31
0.0
210
0.0
220
0.0
230
1.0
  0
LINE
  5
380
100
AcDbEntity
  8
0
370
    13
390
0
 62
     7
 48
0.007709
100
AcDbLine
 10
199.711304
 20
152.885391
 30
0.0
 11
200.011398
 21
152.956299
 31
0.0
210
0.0
220
0.0
230
1.0
  0
LINE
  5
381
100
AcDbEntity
  8
0
370
    13
390
0
 62
     7
 48
0.007691
100
AcDbLine
 10
200.077621
 20
152.528122
 30
0.0
 11
200.37648
 21
152.601059
 31
0.0
210
0.0
220
0.0
230
1.0
  0
LINE
  5
382
100
AcDbEntity
  8
0
370
    13
390
0
 62
     7
 48
0.003421
100
AcDbLine
 10
252.239227
 20
146.968475
 30
0.0
 11
252.316971
 21
147.081085
 31
0.0
210
0.0
220
0.0
230
1.0
  0
LINE
  5
383
100
AcDbEntity
  8
0
370
    13
390
0
 62
     7
 48
0.004049
100
AcDbLine
 10
247.217133
 20
143.81163
 30
0.0
 11
247.319443
 21
143.937164
 31
0.0
210
0.0
220
0.0
230
1.0
  0
LINE
  5
384
100
AcDbEntity
  8
0
370
    13
390
0
 62
     7
 48
0.004091
100
AcDbLine
 10
246.861694
 20
143.603149
 30
0.0
 11
246.96582
 21
143.72937
 31
0.0
210
0.0
220
0.0
230
1.0
  0
LINE
  5
385
100
AcDbEntity
  8
0
370
    13
390
0
 62
     7
 48
0.004234
100
AcDbLine
 10
244.060837
 20
143.754822
 30
0.0
 11
244.177917
 21
143.877197
 31
0.0
210
0.0
220
0.0
230
1.0
  0
LINE
  5
386
100
AcDbEntity
  8
0
370
    13
390
0
 62
     7
 48
0.004391
100
AcDbLine
 10
237.728378
 20
149.07193
 30
0.0
 11
237.874695
 21
149.169113
 31
0.0
210
0.0
220
0.0
230
1.0
  0
LINE
  5
387
100
AcDbEntity
  8
0
370
    13
390
0
 62
     7
 48
0.004235
100
AcDbLine
 10
243.740463
 20
143.999802
 30
0.0
 11
243.858917
 21
144.120895
 31
0.0
210
0.0
220
0.0
230
1.0
  0
LINE
  5
388
100
AcDbEntity
  8
0
370
    13
390
0
 62
     7
 48
0.004389
100
AcDbLine
 10
238.001938
 20
148.815002
 30
0.0
 11
238.147186
 21
148.913605
 31
0.0
210
0.0
220
0.0
230
1.0
  0
LINE
  5
389
100
AcDbEntity
  8
0
370
    13
390
0
 62
     7
 48
0.003197
100
AcDbLine
 10
271.146606
 20
143.507172
 30
0.0
 11
271.155945
 21
143.634705
 31
0.0
210
0.0
220
0.0
230
1.0
  0
LINE
  5
38A
100
AcDbEntity
  8
0
370
    13
390
0
 62
     7
 48
0.003316
100
AcDbLine
 10
270.102539
 20
142.898941
 30
0.0
 11
270.116272
 21
143.030884
 31
0.0
210
0.0
220
0.0
230
1.0
  0
LINE
  5
38B
100
AcDbEntity
  8
0
370
    13
390
0
 62
     7
 48
0.003133
100
AcDbLine
 10
266.907959
 20
145.516647
 30
0.0
 11
266.934326
 21
145.639175
 31
0.0
210
0.0
220
0.0
230
1.0
  0
LINE
  5
38C
100
AcDbEntity
  8
0
370
    13
390
0
 62
     7
 48
0.003325
100
AcDbLine
 10
269.372986
 20
143.353607
 30
0.0
 11
269.390442
 21
143.485474
 31
0.0
210
0.0
220
0.0
230
1.0
  0
LINE
  5
38D
100
AcDbEntity
  8
0
370
    13
390
0
 62
     7
 48
0.003193
100
AcDbLine
 10
267.369202
 20
145.035004
 30
0.0
 11
267.394592
 21
145.160172
 31
0.0
210
0.0
220
0.0
230
1.0
  0
LINE
  5
38E
100
AcDbEntity
  8
0
370
    35
390
0
 62
     7
 48
0.011544
100
AcDbLine
 10
163.592102
 20
157.628403
 30
0.0
 11
164.051315
 21
157.676926
 31
0.0
210
0.0
220
0.0
230
1.0
  0
ENDSEC
  0
SECTION
  2
OBJECTS
  0
DICTIONARY
  5
19
100
AcDbDictionary
280
     0
281
     1
  3
ACAD_GROUP
350
1A
  3
ACAD_MLINESTYLE
350
1B
  3
ACAD_LAYOUT
350
1E
  3
ACAD_PLOTSETTINGS
350
22
  3
ACAD_PLOTSTYLENAME
350
1F
  3
ACAD_WIPEOUT_VARS
350
23
  0
DICTIONARY
  5
1A
102
{ACAD_REACTORS
330
19
102
}
100
AcDbDictionary
280
     0
281
     1
  0
DICTIONARY
  5
1B
102
{ACAD_REACTORS
330
19
102
}
100
AcDbDictionary
280
     0
281
     1
  3
Standard
350
1C
  0
MLINESTYLE
  5
1C
102
{ACAD_REACTORS
330
1B
102
}
100
AcDbMlineStyle
  2
Standard
 70
     0
  3

 62
     0
 51
90.0
 52
90.0
 71
     2
 49
0.5
 62
   256
  6
ByLayer
 49
-0.5
 62
   256
  6
ByLayer
  0
ACDBDICTIONARYWDFLT
  5
1F
102
{ACAD_REACTORS
330
19
102
}
100
AcDbDictionary
281
     1
  3
Normal
350
1D
100
AcDbDictionaryWithDefault
340
1D
  0
ACDBPLACEHOLDER
  5
1D
102
{ACAD_REACTORS
330
1F
102
}
  0
LAYOUT
  5
20
102
{ACAD_REACTORS
330
1E
102
}
100
AcDbPlotSettings
  1

  2

  4

  6

 40
0.0
 41
0.0
 42
0.0
 43
0.0
 44
0.0
 45
0.0
 46
0.0
 47
0.0
 48
0.0
 49
0.0
140
0.0
141
0.0
142
1.0
143
1.0
 70
  1024
 72
     0
 73
     0
 74
     0
  7

 75
     0
147
1.0
148
0.0
149
0.0
100
AcDbLayout
  1
Model
 70
     0
 71
     0
 10
0.0
 20
0.0
 11
0.0
 21
0.0
 12
0.0
 22
0.0
 32
0.0
 14
0.0
 24
0.0
 34
0.0
 15
0.0
 25
0.0
 35
0.0
146
0.0
 13
0.0
 23
0.0
 33
0.0
 16
0.0
 26
0.0
 36
0.0
 17
0.0
 27
0.0
 37
0.0
 76
     0
330
A
331
0
345
0
346
0
  0
LAYOUT
  5
21
102
{ACAD_REACTORS
330
1E
102
}
100
AcDbPlotSettings
  1

  2

  4

  6

 40
0.0
 41
0.0
 42
0.0
 43
0.0
 44
0.0
 45
0.0
 46
0.0
 47
0.0
 48
0.0
 49
0.0
140
0.0
141
0.0
142
1.0
143
1.0
 70
     0
 72
     0
 73
     0
 74
     0
  7

 75
     0
147
1.0
148
0.0
149
0.0
100
AcDbLayout
  1
Layout1
 70
     0
 71
     0
 10
0.0
 20
0.0
 11
0.0
 21
0.0
 12
0.0
 22
0.0
 32
0.0
 14
0.0
 24
0.0
 34
0.0
 15
0.0
 25
0.0
 35
0.0
146
0.0
 13
0.0
 23
0.0
 33
0.0
 16
0.0
 26
0.0
 36
0.0
 17
0.0
 27
0.0
 37
0.0
 76
     0
330
B
331
0
345
0
346
0
  0
DICTIONARY
  5
1E
102
{ACAD_REACTORS
330
19
102
}
100
AcDbDictionary
280
     0
281
     1
  3
Layout1
350
21
  3
Model
350
20
  0
DICTIONARY
  5
22
102
{ACAD_REACTORS
330
19
102
}
100
AcDbDictionary
280
     0
281
     1
  0
WIPEOUTVARIABLES
  5
23
100
AcDbWipeoutVariables
 70
     1
  0
ENDSEC
  0
EOF
