  0
SECTION
  2
HEADER
  9
$ACADVER
  1
AC1015
  9
$ACADMAINTVER
 70
     6
  9
$DWGCODEPAGE
  3
ANSI_1252
  9
$INSBASE
 10
0.0
 20
0.0
 30
0.0
  9
$EXTMIN
 10
0.0
 20
0.0
 30
0.0
  9
$EXTMAX
 10
380.678345
 20
172.603943
 30
2.0
  9
$LIMMIN
 10
0.0
 20
0.0
  9
$LIMMAX
 10
420.0
 20
297.0
  9
$ORTHOMODE
 70
     0
  9
$REGENMODE
 70
     1
  9
$FILLMODE
 70
     1
  9
$QTEXTMODE
 70
     0
  9
$MIRRTEXT
 70
     1
  9
$LTSCALE
 40
1.0
  9
$ATTMODE
 70
     1
  9
$TEXTSIZE
 40
2.5
  9
$TRACEWID
 40
1.0
  9
$TEXTSTYLE
  7
Standard
  9
$CLAYER
  8
0
  9
$CELTYPE
  6
ByLayer
  9
$CECOLOR
 62
   256
  9
$CELTSCALE
 40
1.0
  9
$DISPSILH
 70
     0
  9
$DIMSCALE
 40
1.0
  9
$DIMASZ
 40
2.5
  9
$DIMEXO
 40
0.625
  9
$DIMDLI
 40
3.75
  9
$DIMRND
 40
0.0
  9
$DIMDLE
 40
0.0
  9
$DIMEXE
 40
1.25
  9
$DIMTP
 40
0.0
  9
$DIMTM
 40
0.0
  9
$DIMTXT
 40
2.5
  9
$DIMCEN
 40
2.5
  9
$DIMTSZ
 40
0.0
  9
$DIMTOL
 70
     0
  9
$DIMLIM
 70
     0
  9
$DIMTIH
 70
     0
  9
$DIMTOH
 70
     0
  9
$DIMSE1
 70
     0
  9
$DIMSE2
 70
     0
  9
$DIMTAD
 70
     1
  9
$DIMZIN
 70
     8
  9
$DIMBLK
  1

  9
$DIMASO
 70
     1
  9
$DIMSHO
 70
     1
  9
$DIMPOST
  1

  9
$DIMAPOST
  1

  9
$DIMALT
 70
     0
  9
$DIMALTD
 70
     3
  9
$DIMALTF
 40
0.03937
  9
$DIMLFAC
 40
1.0
  9
$DIMTOFL
 70
     1
  9
$DIMTVP
 40
0.0
  9
$DIMTIX
 70
     0
  9
$DIMSOXD
 70
     0
  9
$DIMSAH
 70
     0
  9
$DIMBLK1
  1

  9
$DIMBLK2
  1

  9
$DIMSTYLE
  2

  9
$DIMCLRD
 70
     0
  9
$DIMCLRE
 70
     0
  9
$DIMCLRT
 70
     0
  9
$DIMTFAC
 40
1.0
  9
$DIMGAP
 40
0.625
  9
$DIMJUST
 70
     0
  9
$DIMSD1
 70
     0
  9
$DIMSD2
 70
     0
  9
$DIMTOLJ
 70
     0
  9
$DIMTZIN
 70
     8
  9
$DIMALTZ
 70
     0
  9
$DIMALTTZ
 70
     0
  9
$DIMUPT
 70
     0
  9
$DIMDEC
 70
     2
  9
$DIMTDEC
 70
     2
  9
$DIMALTU
 70
     2
  9
$DIMALTTD
 70
     3
  9
$DIMTXSTY
  7
Standard
  9
$DIMAUNIT
 70
     0
  9
$DIMADEC
 70
     0
  9
$DIMALTRND
 40
0.0
  9
$DIMAZIN
 70
     0
  9
$DIMDSEP
 70
    44
  9
$DIMATFIT
 70
     0
  9
$DIMFRAC
 70
     0
  9
$DIMLDRBLK
  1

  9
$DIMLUNIT
 70
     2
  9
$DIMLWD
 70
    -2
  9
$DIMLWE
 70
    -2
  9
$DIMTMOVE
 70
     0
  9
$LUNITS
 70
     2
  9
$LUPREC
 70
     4
  9
$SKETCHINC
 40
1.0
  9
$FILLETRAD
 40
2.5
  9
$AUNITS
 70
     0
  9
$AUPREC
 70
     0
  9
$MENU
  1
.
  9
$ELEVATION
 40
0.0
  9
$PELEVATION
 40
0.0
  9
$THICKNESS
 40
0.0
  9
$LIMCHECK
 70
     0
  9
$CHAMFERA
 40
2.5
  9
$CHAMFERB
 40
2.5
  9
$CHAMFERC
 40
0.0
  9
$CHAMFERD
 40
0.0
  9
$SKPOLY
 70
     0
  9
$TDCREATE
 40
0.000000000
  9
$TDUCREATE
 40
0.000000000
  9
$TDUPDATE
 40
0.000000000
  9
$TDUUPDATE
 40
0.000000000
  9
$TDINDWG
 40
0.0000000000
  9
$TDUSRTIMER
 40
0.0000000000
  9
$USRTIMER
 70
     1
  9
$ANGBASE
 50
0.0
  9
$ANGDIR
 70
     0
  9
$PDMODE
 70
     0
  9
$PDSIZE
 40
0.0
  9
$PLINEWID
 40
0.0
  9
$SPLFRAME
 70
     0
  9
$SPLINETYPE
 70
     6
  9
$SPLINESEGS
 70
     8
  9
$HANDSEED
  5
494
  9
$SURFTAB1
 70
     6
  9
$SURFTAB2
 70
     6
  9
$SURFTYPE
 70
     6
  9
$SURFU
 70
     6
  9
$SURFV
 70
     6
  9
$UCSBASE
  2

  9
$UCSNAME
  2

  9
$UCSORG
 10
0.0
 20
0.0
 30
0.0
  9
$UCSXDIR
 10
1.0
 20
0.0
 30
0.0
  9
$UCSYDIR
 10
0.0
 20
1.0
 30
0.0
  9
$UCSORTHOREF
  2

  9
$UCSORTHOVIEW
 70
     1
  9
$UCSORGTOP
 10
0.0
 20
0.0
 30
0.0
  9
$UCSORGBOTTOM
 10
0.0
 20
0.0
 30
0.0
  9
$UCSORGLEFT
 10
0.0
 20
0.0
 30
0.0
  9
$UCSORGRIGHT
 10
0.0
 20
0.0
 30
0.0
  9
$UCSORGFRONT
 10
0.0
 20
0.0
 30
0.0
  9
$UCSORGBACK
 10
0.0
 20
0.0
 30
0.0
  9
$PUCSBASE
  2

  9
$PUCSNAME
  2

  9
$PUCSORG
 10
0.0
 20
0.0
 30
0.0
  9
$PUCSXDIR
 10
1.0
 20
0.0
 30
0.0
  9
$PUCSYDIR
 10
0.0
 20
1.0
 30
0.0
  9
$PUCSORTHOREF
  2

  9
$PUCSORTHOVIEW
 70
     0
  9
$PUCSORGTOP
 10
0.0
 20
0.0
 30
0.0
  9
$PUCSORGBOTTOM
 10
0.0
 20
0.0
 30
0.0
  9
$PUCSORGLEFT
 10
0.0
 20
0.0
 30
0.0
  9
$PUCSORGRIGHT
 10
0.0
 20
0.0
 30
0.0
  9
$PUCSORGFRONT
 10
0.0
 20
0.0
 30
0.0
  9
$PUCSORGBACK
 10
0.0
 20
0.0
 30
0.0
  9
$USERI1
 70
     0
  9
$USERI2
 70
     0
  9
$USERI3
 70
     0
  9
$USERI4
 70
     0
  9
$USERI5
 70
     0
  9
$USERR1
 40
0.0
  9
$USERR2
 40
0.0
  9
$USERR3
 40
0.0
  9
$USERR4
 40
0.0
  9
$USERR5
 40
0.0
  9
$WORLDVIEW
 70
     1
  9
$SHADEDGE
 70
     3
  9
$SHADEDIF
 70
    70
  9
$TILEMODE
 70
     1
  9
$MAXACTVP
 70
    48
  9
$PINSBASE
 10
0.0
 20
0.0
 30
0.0
  9
$PLIMCHECK
 70
     0
  9
$PEXTMIN
 10
0.0
 20
0.0
 30
0.0
  9
$PEXTMAX
 10
380.678345
 20
172.603943
 30
2.0
  9
$PLIMMIN
 10
0.0
 20
0.0
  9
$PLIMMAX
 10
420.0
 20
297.0
  9
$UNITMODE
 70
     0
  9
$VISRETAIN
 70
     0
  9
$PLINEGEN
 70
     0
  9
$PSLTSCALE
 70
     1
  9
$TREEDEPTH
 70
  3020
  9
$CMLSTYLE
  2
Standard
  9
$CMLJUST
 70
     0
  9
$CMLSCALE
 40
20.0
  9
$PROXYGRAPHICS
 70
     1
  9
$MEASUREMENT
 70
     1
  9
$CELWEIGHT
370
    -1
  9
$ENDCAPS
280
     0
  9
$JOINSTYLE
280
     0
  9
$LWDISPLAY
290
     0
  9
$INSUNITS
 70
     0
  9
$HYPERLINKBASE
  1

  9
$STYLESHEET
  1

  9
$XEDIT
290
     1
  9
$CEPSNTYPE
380
     0
  9
$PSTYLEMODE
290
     0
  9
$FINGERPRINTGUID
  2

  9
$VERSIONGUID
  2

  9
$EXTNAMES
290
     0
  9
$PSVPSCALE
 40
0.0
  0
ENDSEC
  0
SECTION
  2
CLASSES
  0
CLASS
  1
LWPOLYLINE
  2
AcDbPolyline
  3
AutoCAD 2000
 90
        0
280
     0
281
     1
  0
CLASS
  1
IMAGE
  2
AcDbRasterImage
  3
ISM
 90
      127
280
     0
281
     1
  0
CLASS
  1
OLE2FRAME
  2
AcDbOle2Frame
  3
AutoCAD 2000
 90
        0
280
     0
281
     1
  0
CLASS
  1
HATCH
  2
AcDbHatch
  3
AutoCAD 2000
 90
        0
280
     0
281
     1
  0
CLASS
  1
DICTIONARYVAR
  2
AcDbDictionaryVar
  3
AutoCAD 2000
 90
        0
280
     0
281
     0
  0
CLASS
  1
RASTERVARIABLES
  2
AcDbRasterVariables
  3
ISM
 90
        0
280
     0
281
     0
  0
CLASS
  1
IMAGEDEF
  2
AcDbRasterImageDef
  3
ISM
 90
        0
280
     0
281
     0
  0
CLASS
  1
IMAGEDEF_REACTOR
  2
AcDbRasterImageDefReactor
  3
ISM
 90
        1
280
     0
281
     0
  0
CLASS
  1
IDBUFFER
  2
AcDbIdBuffer
  3
AutoCAD 2000
 90
        0
280
     0
281
     0
  0
CLASS
  1
SPATIAL_FILTER
  2
AcDbSpatialFilter
  3
AutoCAD 2000
 90
        0
280
     0
281
     0
  0
CLASS
  1
XRECORD
  2
AcDbXrecord
  3
AutoCAD 2000
 90
        0
280
     0
281
     0
  0
CLASS
  1
SORTENTSTABLE
  2
AcDbSortentsTable
  3
AutoCAD 2000
 90
        0
280
     0
281
     0
  0
CLASS
  1
LAYER_INDEX
  2
AcDbLayerIndex
  3
AutoCAD 2000
 90
        0
280
     0
281
     0
  0
CLASS
  1
SPATIAL_INDEX
  2
AcDbSpatialIndex
  3
AutoCAD 2000
 90
        0
280
     0
281
     0
  0
CLASS
  1
OBJECT_PTR
  2
CAseDLPNTableRecord
  3
"ASE-LPNTableRecord"
 90
        1
280
     0
281
     0
  0
CLASS
  1
LAYOUT
  2
AcDbLayout
  3
AutoCAD 2000
 90
        0
280
     0
281
     0
  0
CLASS
  1
PLOTSETTINGS
  2
AcDbPlotSettings
  3
AutoCAD 2000
 90
        0
280
     0
281
     0
  0
CLASS
  1
ACDBDICTIONARYWDFLT
  2
AcDbDictionaryWithDefault
  3
AutoCAD 2000
 90
        0
280
     0
281
     0
  0
CLASS
  1
ACDBPLACEHOLDER
  2
AcDbPlaceHolder
  3
AutoCAD 2000
 90
        0
280
     0
281
     0
  0
CLASS
  1
VBA_PROJECT
  2
AcDbVbaProject
  3
acadvba
 90
        0
280
     0
281
     0
  0
CLASS
  1
WIPEOUT
  2
AcDbWipeout
  3
WipeOut|AutoCAD Express Tool|expresstools@autodesk.com
 90
      127
280
     0
281
     1
  0
CLASS
  1
WIPEOUTVARIABLES
  2
AcDbWipeoutVariables
  3
WipeOut|AutoCAD Express Tool|expresstools@autodesk.com
 90
        0
280
     0
281
     0
  0
CLASS
  1
RTEXT
  2
RText
  3
RText|AutoCAD Express Tool|expresstools@autodesk.com
 90
        0
280
     0
281
     1
  0
CLASS
  1
ARCALIGNEDTEXT
  2
AcDbArcAlignedText
  3
ATEXT|AutoCAD Express Tool|expresstools@autodesk.com
 90
        0
280
     0
281
     1
  0
ENDSEC
  0
SECTION
  2
TABLES
  0
TABLE
  2
VPORT
  5
7
100
AcDbSymbolTable
 70
     1
  0
VPORT
  5
15
100
AcDbSymbolTableRecord
100
AcDbViewportTableRecord
  2
*ACTIVE
 70
     0
 10
0.0
 20
0.0
 11
1.0
 21
1.0
 12
6.591288
 22
4.579184
 13
0.0
 23
0.0
 14
1.0
 24
1.0
 15
0.0
 25
0.0
 16
0.0
 26
0.0
 36
1.0
 17
0.0
 27
0.0
 37
0.0
 40
9.158369
 41
0.688564
 42
50.0
 43
0.0
 44
0.0
 50
0.0
 51
0.0
 71
     0
 72
   100
 73
     1
 74
     1
 75
     0
 76
     0
 77
     0
 78
     0
281
     0
 65
     0
110
0.0
120
0.0
130
0.0
111
1.0
121
0.0
131
0.0
112
0.0
122
1.0
132
0.0
345
0
346
0
 79
     0
146
0.0
  0
ENDTAB
  0
TABLE
  2
LTYPE
  5
4
100
AcDbSymbolTable
 70
     3
  0
LTYPE
  5
11
100
AcDbSymbolTableRecord
100
AcDbLinetypeTableRecord
  2
ByBlock
 70
    64
  3

 72
    65
 73
     0
 40
0.0
  0
LTYPE
  5
12
100
AcDbSymbolTableRecord
100
AcDbLinetypeTableRecord
  2
ByLayer
 70
    64
  3

 72
    65
 73
     0
 40
0.0
  0
LTYPE
  5
13
100
AcDbSymbolTableRecord
100
AcDbLinetypeTableRecord
  2
Continuous
 70
    64
  3
Solid line
 72
    65
 73
     0
 40
0.0
  0
ENDTAB
  0
TABLE
  2
LAYER
  5
2
100
AcDbSymbolTable
 70
     1
  0
LAYER
  5
14
100
AcDbSymbolTableRecord
100
AcDbLayerTableRecord
  2
0
 70
     0
 62
     7
  6
Continuous
290
     1
370
    -3
390
1D
  0
ENDTAB
  0
TABLE
  2
STYLE
  5
3
100
AcDbSymbolTable
 70
     1
  0
STYLE
  5
17
100
AcDbSymbolTableRecord
100
AcDbTextStyleTableRecord
  2
Standard
 70
     0
 40
0.0
 41
1.0
 50
0.0
 71
     0
 42
0.0
  3
txt
  4

  0
ENDTAB
  0
TABLE
  2
VIEW
  5
5
100
AcDbSymbolTable
 70
     0
  0
ENDTAB
  0
TABLE
  2
UCS
  5
6
100
AcDbSymbolTable
 70
     0
  0
ENDTAB
  0
TABLE
  2
APPID
  5
8
100
AcDbSymbolTable
 70
     1
  0
APPID
  5
16
100
AcDbSymbolTableRecord
100
AcDbRegAppTableRecord
  2
ACAD
 70
     0
  0
ENDTAB
  0
TABLE
  2
DIMSTYLE
  5
9
100
AcDbSymbolTable
 70
     1
100
AcDbDimStyleTable
 71
     0
  0
DIMSTYLE
105
18
100
AcDbSymbolTableRecord
100
AcDbDimStyleTableRecord
  2
Standard
 70
     0
  3

  4

 40
1.0
 41
0.18
 42
0.0625
 43
0.38
 44
0.18
 45
0.0
 46
0.0
 47
0.0
 48
0.0
 71
     0
 72
     0
 73
     1
 74
     1
 75
     0
 76
     0
 77
     0
 78
     0
 79
     0
140
0.18
141
0.09
142
0.0
143
25.4
144
1.0
145
0.0
146
1.0
147
0.09
148
0.0
170
     0
171
     2
172
     0
173
     0
174
     0
175
     0
176
     0
177
     0
178
     0
179
     0
271
     4
272
     4
273
     2
274
     2
275
     0
276
     0
277
     2
278
    46
279
     0
280
     0
281
     0
282
     0
283
     1
284
     0
285
     0
286
     0
288
     0
289
     3
340
17
341
0
342
0
343
0
344
0
371
    -2
372
    -2
  0
ENDTAB
  0
TABLE
  2
BLOCK_RECORD
  5
1
100
AcDbSymbolTable
 70
     0
  0
BLOCK_RECORD
  5
A
100
AcDbSymbolTableRecord
100
AcDbBlockTableRecord
  2
*MODEL_SPACE
340
20
  0
BLOCK_RECORD
  5
B
100
AcDbSymbolTableRecord
100
AcDbBlockTableRecord
  2
*PAPER_SPACE
340
21
  0
ENDTAB
  0
ENDSEC
  0
SECTION
  2
BLOCKS
  0
BLOCK
  5
D
100
AcDbEntity
  8
0
390
0
100
AcDbBlockBegin
  2
*MODEL_SPACE
 70
     0
 10
0.0
 20
0.0
 30
0.0
  3
*MODEL_SPACE
  1

  0
ENDBLK
  5
E
100
AcDbEntity
  8
0
390
0
100
AcDbBlockEnd
  0
BLOCK
  5
F
100
AcDbEntity
 67
     1
  8
0
390
0
100
AcDbBlockBegin
  2
*PAPER_SPACE
 70
     0
 10
0.0
 20
0.0
 30
0.0
  3
*PAPER_SPACE
  1

  0
ENDBLK
  5
10
100
AcDbEntity
 67
     1
  8
0
390
0
100
AcDbBlockEnd
  0
ENDSEC
  0
SECTION
  2
ENTITIES
  0
VIEWPORT
  5
493
100
AcDbEntity
 67
     1
  8
0
370
     0
390
0
 62
     0
 48
0.0
100
AcDbViewport
 10
0.0
 20
0.0
 30
0.0
 40
1000.0
 41
1000.0
 68
     1
 69
     1
 12
0.0
 22
0.0
 13
0.0
 23
0.0
 14
1.0
 24
1.0
 15
1.0
 25
1.0
 16
0.0
 26
0.0
 36
1.0
 17
0.0
 27
0.0
 37
0.0
 42
50.0
 43
0.0
 44
0.0
 45
1000.0
 50
0.0
 51
0.0
 72
   100
 90
        0
340
0
  1

281
     0
 71
     0
 74
     1
110
0.0
120
0.0
130
0.0
111
1.0
121
0.0
131
0.0
112
0.0
122
1.0
132
0.0
345
0
346
0
 79
     0
146
0.0
  0
POLYLINE
  5
24
100
AcDbEntity
  8
0
370
    13
390
0
 62
     7
100
AcDb2dPolyline
 66
     1
 10
0.0
 20
0.0
 30
0.0
 70
     1
 71
    10
  0
VERTEX
  5
25
100
AcDbEntity
  8
0
370
     0
390
0
100
AcDbVertex
100
AcDb2dVertex
 10
189.306427
 20
-10.411652
 30
0.0
  0
VERTEX
  5
26
100
AcDbEntity
  8
0
370
     0
390
0
100
AcDbVertex
100
AcDb2dVertex
 10
189.775452
 20
-10.411652
 30
0.0
  0
VERTEX
  5
27
100
AcDbEntity
  8
0
370
     0
390
0
100
AcDbVertex
100
AcDb2dVertex
 10
189.775452
 20
-8.802862
 30
0.0
  0
VERTEX
  5
28
100
AcDbEntity
  8
0
370
     0
390
0
100
AcDbVertex
100
AcDb2dVertex
 10
191.248077
 20
-8.802862
 30
0.0
  0
VERTEX
  5
29
100
AcDbEntity
  8
0
370
     0
390
0
100
AcDbVertex
100
AcDb2dVertex
 10
191.248077
 20
-8.384274
 30
0.0
  0
VERTEX
  5
2A
100
AcDbEntity
  8
0
370
     0
390
0
100
AcDbVertex
100
AcDb2dVertex
 10
189.775452
 20
-8.384274
 30
0.0
  0
VERTEX
  5
2B
100
AcDbEntity
  8
0
370
     0
390
0
100
AcDbVertex
100
AcDb2dVertex
 10
189.775452
 20
-7.335283
 30
0.0
  0
VERTEX
  5
2C
100
AcDbEntity
  8
0
370
     0
390
0
100
AcDbVertex
100
AcDb2dVertex
 10
191.585968
 20
-7.335283
 30
0.0
  0
VERTEX
  5
2D
100
AcDbEntity
  8
0
370
     0
390
0
100
AcDbVertex
100
AcDb2dVertex
 10
191.585968
 20
-6.911652
 30
0.0
  0
VERTEX
  5
2E
100
AcDbEntity
  8
0
370
     0
390
0
100
AcDbVertex
100
AcDb2dVertex
 10
189.306427
 20
-6.911652
 30
0.0
  0
SEQEND
  5
2F
100
AcDbEntity
  8
0
370
     0
390
0
  0
POLYLINE
  5
30
100
AcDbEntity
  8
0
370
    13
390
0
 62
     7
100
AcDb2dPolyline
 66
     1
 10
0.0
 20
0.0
 30
0.0
 70
     1
 71
    22
  0
VERTEX
  5
31
100
AcDbEntity
  8
0
370
     0
390
0
100
AcDbVertex
100
AcDb2dVertex
 10
192.498795
 20
-10.411652
 30
0.0
  0
VERTEX
  5
32
100
AcDbEntity
  8
0
370
     0
390
0
100
AcDbVertex
100
AcDb2dVertex
 10
192.942596
 20
-10.411652
 30
0.0
  0
VERTEX
  5
33
100
AcDbEntity
  8
0
370
     0
390
0
100
AcDbVertex
100
AcDb2dVertex
 10
192.942596
 20
-8.86338
 30
0.0
  0
VERTEX
  5
34
100
AcDbEntity
  8
0
370
     0
390
0
100
AcDbVertex
100
AcDb2dVertex
 10
192.987991
 20
-8.490182
 30
0.0
  0
VERTEX
  5
35
100
AcDbEntity
  8
0
370
     0
390
0
100
AcDbVertex
100
AcDb2dVertex
 10
193.124161
 20
-8.222891
 30
0.0
  0
VERTEX
  5
36
100
AcDbEntity
  8
0
370
     0
390
0
100
AcDbVertex
100
AcDb2dVertex
 10
193.346054
 20
-8.061507
 30
0.0
  0
VERTEX
  5
37
100
AcDbEntity
  8
0
370
     0
390
0
100
AcDbVertex
100
AcDb2dVertex
 10
193.6436
 20
-8.006032
 30
0.0
  0
VERTEX
  5
38
100
AcDbEntity
  8
0
370
     0
390
0
100
AcDbVertex
100
AcDb2dVertex
 10
193.865509
 20
-8.041334
 30
0.0
  0
VERTEX
  5
39
100
AcDbEntity
  8
0
370
     0
390
0
100
AcDbVertex
100
AcDb2dVertex
 10
194.031937
 20
-8.142199
 30
0.0
  0
VERTEX
  5
3A
100
AcDbEntity
  8
0
370
     0
390
0
100
AcDbVertex
100
AcDb2dVertex
 10
194.132797
 20
-8.313669
 30
0.0
  0
VERTEX
  5
3B
100
AcDbEntity
  8
0
370
     0
390
0
100
AcDbVertex
100
AcDb2dVertex
 10
194.168106
 20
-8.545657
 30
0.0
  0
VERTEX
  5
3C
100
AcDbEntity
  8
0
370
     0
390
0
100
AcDbVertex
100
AcDb2dVertex
 10
194.616943
 20
-8.545657
 30
0.0
  0
VERTEX
  5
3D
100
AcDbEntity
  8
0
370
     0
390
0
100
AcDbVertex
100
AcDb2dVertex
 10
194.556427
 20
-8.137156
 30
0.0
  0
VERTEX
  5
3E
100
AcDbEntity
  8
0
370
     0
390
0
100
AcDbVertex
100
AcDb2dVertex
 10
194.389999
 20
-7.844648
 30
0.0
  0
VERTEX
  5
3F
100
AcDbEntity
  8
0
370
     0
390
0
100
AcDbVertex
100
AcDb2dVertex
 10
194.112625
 20
-7.668136
 30
0.0
  0
VERTEX
  5
40
100
AcDbEntity
  8
0
370
     0
390
0
100
AcDbVertex
100
AcDb2dVertex
 10
193.73439
 20
-7.607617
 30
0.0
  0
VERTEX
  5
41
100
AcDbEntity
  8
0
370
     0
390
0
100
AcDbVertex
100
AcDb2dVertex
 10
193.477173
 20
-7.647963
 30
0.0
  0
VERTEX
  5
42
100
AcDbEntity
  8
0
370
     0
390
0
100
AcDbVertex
100
AcDb2dVertex
 10
193.25528
 20
-7.748827
 30
0.0
  0
VERTEX
  5
43
100
AcDbEntity
  8
0
370
     0
390
0
100
AcDbVertex
100
AcDb2dVertex
 10
193.058594
 20
-7.920297
 30
0.0
  0
VERTEX
  5
44
100
AcDbEntity
  8
0
370
     0
390
0
100
AcDbVertex
100
AcDb2dVertex
 10
192.902252
 20
-8.152286
 30
0.0
  0
VERTEX
  5
45
100
AcDbEntity
  8
0
370
     0
390
0
100
AcDbVertex
100
AcDb2dVertex
 10
192.902252
 20
-7.703438
 30
0.0
  0
VERTEX
  5
46
100
AcDbEntity
  8
0
370
     0
390
0
100
AcDbVertex
100
AcDb2dVertex
 10
192.498795
 20
-7.703438
 30
0.0
  0
SEQEND
  5
47
100
AcDbEntity
  8
0
370
     0
390
0
  0
POLYLINE
  5
48
100
AcDbEntity
  8
0
370
    13
390
0
 62
     7
100
AcDb2dPolyline
 66
     1
 10
0.0
 20
0.0
 30
0.0
 70
     1
 71
    16
  0
VERTEX
  5
49
100
AcDbEntity
  8
0
370
     0
390
0
100
AcDbVertex
100
AcDb2dVertex
 10
195.237274
 20
-9.060066
 30
0.0
  0
VERTEX
  5
4A
100
AcDbEntity
  8
0
370
     0
390
0
100
AcDbVertex
100
AcDb2dVertex
 10
195.317963
 20
-9.675341
 30
0.0
  0
VERTEX
  5
4B
100
AcDbEntity
  8
0
370
     0
390
0
100
AcDbVertex
100
AcDb2dVertex
 10
195.549942
 20
-10.12923
 30
0.0
  0
VERTEX
  5
4C
100
AcDbEntity
  8
0
370
     0
390
0
100
AcDbVertex
100
AcDb2dVertex
 10
195.918106
 20
-10.411652
 30
0.0
  0
VERTEX
  5
4D
100
AcDbEntity
  8
0
370
     0
390
0
100
AcDbVertex
100
AcDb2dVertex
 10
196.412338
 20
-10.507473
 30
0.0
  0
VERTEX
  5
4E
100
AcDbEntity
  8
0
370
     0
390
0
100
AcDbVertex
100
AcDb2dVertex
 10
196.901535
 20
-10.411652
 30
0.0
  0
VERTEX
  5
4F
100
AcDbEntity
  8
0
370
     0
390
0
100
AcDbVertex
100
AcDb2dVertex
 10
197.269684
 20
-10.134274
 30
0.0
  0
VERTEX
  5
50
100
AcDbEntity
  8
0
370
     0
390
0
100
AcDbVertex
100
AcDb2dVertex
 10
197.501678
 20
-9.680384
 30
0.0
  0
VERTEX
  5
51
100
AcDbEntity
  8
0
370
     0
390
0
100
AcDbVertex
100
AcDb2dVertex
 10
197.587418
 20
-9.060066
 30
0.0
  0
VERTEX
  5
52
100
AcDbEntity
  8
0
370
     0
390
0
100
AcDbVertex
100
AcDb2dVertex
 10
197.501678
 20
-8.444793
 30
0.0
  0
VERTEX
  5
53
100
AcDbEntity
  8
0
370
     0
390
0
100
AcDbVertex
100
AcDb2dVertex
 10
197.269684
 20
-7.985859
 30
0.0
  0
VERTEX
  5
54
100
AcDbEntity
  8
0
370
     0
390
0
100
AcDbVertex
100
AcDb2dVertex
 10
196.901535
 20
-7.708482
 30
0.0
  0
VERTEX
  5
55
100
AcDbEntity
  8
0
370
     0
390
0
100
AcDbVertex
100
AcDb2dVertex
 10
196.412338
 20
-7.607617
 30
0.0
  0
VERTEX
  5
56
100
AcDbEntity
  8
0
370
     0
390
0
100
AcDbVertex
100
AcDb2dVertex
 10
195.918106
 20
-7.708482
 30
0.0
  0
VERTEX
  5
57
100
AcDbEntity
  8
0
370
     0
390
0
100
AcDbVertex
100
AcDb2dVertex
 10
195.549942
 20
-7.990902
 30
0.0
  0
VERTEX
  5
58
100
AcDbEntity
  8
0
370
     0
390
0
100
AcDbVertex
100
AcDb2dVertex
 10
195.317963
 20
-8.444793
 30
0.0
  0
SEQEND
  5
59
100
AcDbEntity
  8
0
370
     0
390
0
  0
POLYLINE
  5
5A
100
AcDbEntity
  8
0
370
    13
390
0
 62
     7
100
AcDb2dPolyline
 66
     1
 10
0.0
 20
0.0
 30
0.0
 70
     1
 71
    16
  0
VERTEX
  5
5B
100
AcDbEntity
  8
0
370
     0
390
0
100
AcDbVertex
100
AcDb2dVertex
 10
195.691162
 20
-9.055023
 30
0.0
  0
VERTEX
  5
5C
100
AcDbEntity
  8
0
370
     0
390
0
100
AcDbVertex
100
AcDb2dVertex
 10
195.736542
 20
-8.601133
 30
0.0
  0
VERTEX
  5
5D
100
AcDbEntity
  8
0
370
     0
390
0
100
AcDbVertex
100
AcDb2dVertex
 10
195.877762
 20
-8.273323
 30
0.0
  0
VERTEX
  5
5E
100
AcDbEntity
  8
0
370
     0
390
0
100
AcDbVertex
100
AcDb2dVertex
 10
196.104706
 20
-8.071594
 30
0.0
  0
VERTEX
  5
5F
100
AcDbEntity
  8
0
370
     0
390
0
100
AcDbVertex
100
AcDb2dVertex
 10
196.412338
 20
-8.000989
 30
0.0
  0
VERTEX
  5
60
100
AcDbEntity
  8
0
370
     0
390
0
100
AcDbVertex
100
AcDb2dVertex
 10
196.714935
 20
-8.071594
 30
0.0
  0
VERTEX
  5
61
100
AcDbEntity
  8
0
370
     0
390
0
100
AcDbVertex
100
AcDb2dVertex
 10
196.941879
 20
-8.26828
 30
0.0
  0
VERTEX
  5
62
100
AcDbEntity
  8
0
370
     0
390
0
100
AcDbVertex
100
AcDb2dVertex
 10
197.083084
 20
-8.601133
 30
0.0
  0
VERTEX
  5
63
100
AcDbEntity
  8
0
370
     0
390
0
100
AcDbVertex
100
AcDb2dVertex
 10
197.133514
 20
-9.055023
 30
0.0
  0
VERTEX
  5
64
100
AcDbEntity
  8
0
370
     0
390
0
100
AcDbVertex
100
AcDb2dVertex
 10
197.083084
 20
-9.513957
 30
0.0
  0
VERTEX
  5
65
100
AcDbEntity
  8
0
370
     0
390
0
100
AcDbVertex
100
AcDb2dVertex
 10
196.941879
 20
-9.84681
 30
0.0
  0
VERTEX
  5
66
100
AcDbEntity
  8
0
370
     0
390
0
100
AcDbVertex
100
AcDb2dVertex
 10
196.714935
 20
-10.048539
 30
0.0
  0
VERTEX
  5
67
100
AcDbEntity
  8
0
370
     0
390
0
100
AcDbVertex
100
AcDb2dVertex
 10
196.412338
 20
-10.114101
 30
0.0
  0
VERTEX
  5
68
100
AcDbEntity
  8
0
370
     0
390
0
100
AcDbVertex
100
AcDb2dVertex
 10
196.104706
 20
-10.048539
 30
0.0
  0
VERTEX
  5
69
100
AcDbEntity
  8
0
370
     0
390
0
100
AcDbVertex
100
AcDb2dVertex
 10
195.877762
 20
-9.84681
 30
0.0
  0
VERTEX
  5
6A
100
AcDbEntity
  8
0
370
     0
390
0
100
AcDbVertex
100
AcDb2dVertex
 10
195.736542
 20
-9.513957
 30
0.0
  0
SEQEND
  5
6B
100
AcDbEntity
  8
0
370
     0
390
0
  0
POLYLINE
  5
6C
100
AcDbEntity
  8
0
370
    13
390
0
 62
     7
100
AcDb2dPolyline
 66
     1
 10
0.0
 20
0.0
 30
0.0
 70
     1
 71
    24
  0
VERTEX
  5
6D
100
AcDbEntity
  8
0
370
     0
390
0
100
AcDbVertex
100
AcDb2dVertex
 10
198.404419
 20
-10.411652
 30
0.0
  0
VERTEX
  5
6E
100
AcDbEntity
  8
0
370
     0
390
0
100
AcDbVertex
100
AcDb2dVertex
 10
198.848221
 20
-10.411652
 30
0.0
  0
VERTEX
  5
6F
100
AcDbEntity
  8
0
370
     0
390
0
100
AcDbVertex
100
AcDb2dVertex
 10
198.848221
 20
-8.848251
 30
0.0
  0
VERTEX
  5
70
100
AcDbEntity
  8
0
370
     0
390
0
100
AcDbVertex
100
AcDb2dVertex
 10
198.8936
 20
-8.490182
 30
0.0
  0
VERTEX
  5
71
100
AcDbEntity
  8
0
370
     0
390
0
100
AcDbVertex
100
AcDb2dVertex
 10
199.039856
 20
-8.227934
 30
0.0
  0
VERTEX
  5
72
100
AcDbEntity
  8
0
370
     0
390
0
100
AcDbVertex
100
AcDb2dVertex
 10
199.2668
 20
-8.066551
 30
0.0
  0
VERTEX
  5
73
100
AcDbEntity
  8
0
370
     0
390
0
100
AcDbVertex
100
AcDb2dVertex
 10
199.569397
 20
-8.006032
 30
0.0
  0
VERTEX
  5
74
100
AcDbEntity
  8
0
370
     0
390
0
100
AcDbVertex
100
AcDb2dVertex
 10
199.811478
 20
-8.056464
 30
0.0
  0
VERTEX
  5
75
100
AcDbEntity
  8
0
370
     0
390
0
100
AcDbVertex
100
AcDb2dVertex
 10
199.962769
 20
-8.192632
 30
0.0
  0
VERTEX
  5
76
100
AcDbEntity
  8
0
370
     0
390
0
100
AcDbVertex
100
AcDb2dVertex
 10
200.038422
 20
-8.419577
 30
0.0
  0
VERTEX
  5
77
100
AcDbEntity
  8
0
370
     0
390
0
100
AcDbVertex
100
AcDb2dVertex
 10
200.063629
 20
-8.72217
 30
0.0
  0
VERTEX
  5
78
100
AcDbEntity
  8
0
370
     0
390
0
100
AcDbVertex
100
AcDb2dVertex
 10
200.063629
 20
-10.411652
 30
0.0
  0
VERTEX
  5
79
100
AcDbEntity
  8
0
370
     0
390
0
100
AcDbVertex
100
AcDb2dVertex
 10
200.507446
 20
-10.411652
 30
0.0
  0
VERTEX
  5
7A
100
AcDbEntity
  8
0
370
     0
390
0
100
AcDbVertex
100
AcDb2dVertex
 10
200.507446
 20
-8.631392
 30
0.0
  0
VERTEX
  5
7B
100
AcDbEntity
  8
0
370
     0
390
0
100
AcDbVertex
100
AcDb2dVertex
 10
200.487274
 20
-8.273323
 30
0.0
  0
VERTEX
  5
7C
100
AcDbEntity
  8
0
370
     0
390
0
100
AcDbVertex
100
AcDb2dVertex
 10
200.396484
 20
-7.975773
 30
0.0
  0
VERTEX
  5
7D
100
AcDbEntity
  8
0
370
     0
390
0
100
AcDbVertex
100
AcDb2dVertex
 10
200.098938
 20
-7.703438
 30
0.0
  0
VERTEX
  5
7E
100
AcDbEntity
  8
0
370
     0
390
0
100
AcDbVertex
100
AcDb2dVertex
 10
199.634964
 20
-7.607617
 30
0.0
  0
VERTEX
  5
7F
100
AcDbEntity
  8
0
370
     0
390
0
100
AcDbVertex
100
AcDb2dVertex
 10
199.377762
 20
-7.64292
 30
0.0
  0
VERTEX
  5
80
100
AcDbEntity
  8
0
370
     0
390
0
100
AcDbVertex
100
AcDb2dVertex
 10
199.160904
 20
-7.738741
 30
0.0
  0
VERTEX
  5
81
100
AcDbEntity
  8
0
370
     0
390
0
100
AcDbVertex
100
AcDb2dVertex
 10
198.974304
 20
-7.900125
 30
0.0
  0
VERTEX
  5
82
100
AcDbEntity
  8
0
370
     0
390
0
100
AcDbVertex
100
AcDb2dVertex
 10
198.828049
 20
-8.116983
 30
0.0
  0
VERTEX
  5
83
100
AcDbEntity
  8
0
370
     0
390
0
100
AcDbVertex
100
AcDb2dVertex
 10
198.828049
 20
-7.703438
 30
0.0
  0
VERTEX
  5
84
100
AcDbEntity
  8
0
370
     0
390
0
100
AcDbVertex
100
AcDb2dVertex
 10
198.404419
 20
-7.703438
 30
0.0
  0
SEQEND
  5
85
100
AcDbEntity
  8
0
370
     0
390
0
  0
POLYLINE
  5
86
100
AcDbEntity
  8
0
370
    13
390
0
 62
     7
100
AcDb2dPolyline
 66
     1
 10
0.0
 20
0.0
 30
0.0
 70
     1
 71
    22
  0
VERTEX
  5
87
100
AcDbEntity
  8
0
370
     0
390
0
100
AcDbVertex
100
AcDb2dVertex
 10
202.035538
 20
-8.172459
 30
0.0
  0
VERTEX
  5
88
100
AcDbEntity
  8
0
370
     0
390
0
100
AcDbVertex
100
AcDb2dVertex
 10
202.035538
 20
-9.529087
 30
0.0
  0
VERTEX
  5
89
100
AcDbEntity
  8
0
370
     0
390
0
100
AcDbVertex
100
AcDb2dVertex
 10
202.065796
 20
-9.967848
 30
0.0
  0
VERTEX
  5
8A
100
AcDbEntity
  8
0
370
     0
390
0
100
AcDbVertex
100
AcDb2dVertex
 10
202.207001
 20
-10.270441
 30
0.0
  0
VERTEX
  5
8B
100
AcDbEntity
  8
0
370
     0
390
0
100
AcDbVertex
100
AcDb2dVertex
 10
202.489426
 20
-10.446954
 30
0.0
  0
VERTEX
  5
8C
100
AcDbEntity
  8
0
370
     0
390
0
100
AcDbVertex
100
AcDb2dVertex
 10
202.968536
 20
-10.507473
 30
0.0
  0
VERTEX
  5
8D
100
AcDbEntity
  8
0
370
     0
390
0
100
AcDbVertex
100
AcDb2dVertex
 10
203.493027
 20
-10.482257
 30
0.0
  0
VERTEX
  5
8E
100
AcDbEntity
  8
0
370
     0
390
0
100
AcDbVertex
100
AcDb2dVertex
 10
203.493027
 20
-10.098971
 30
0.0
  0
VERTEX
  5
8F
100
AcDbEntity
  8
0
370
     0
390
0
100
AcDbVertex
100
AcDb2dVertex
 10
203.109741
 20
-10.12923
 30
0.0
  0
VERTEX
  5
90
100
AcDbEntity
  8
0
370
     0
390
0
100
AcDbVertex
100
AcDb2dVertex
 10
202.761765
 20
-10.088885
 30
0.0
  0
VERTEX
  5
91
100
AcDbEntity
  8
0
370
     0
390
0
100
AcDbVertex
100
AcDb2dVertex
 10
202.575165
 20
-9.962805
 30
0.0
  0
VERTEX
  5
92
100
AcDbEntity
  8
0
370
     0
390
0
100
AcDbVertex
100
AcDb2dVertex
 10
202.494476
 20
-9.750989
 30
0.0
  0
VERTEX
  5
93
100
AcDbEntity
  8
0
370
     0
390
0
100
AcDbVertex
100
AcDb2dVertex
 10
202.47934
 20
-9.453439
 30
0.0
  0
VERTEX
  5
94
100
AcDbEntity
  8
0
370
     0
390
0
100
AcDbVertex
100
AcDb2dVertex
 10
202.47934
 20
-8.172459
 30
0.0
  0
VERTEX
  5
95
100
AcDbEntity
  8
0
370
     0
390
0
100
AcDbVertex
100
AcDb2dVertex
 10
203.493027
 20
-8.172459
 30
0.0
  0
VERTEX
  5
96
100
AcDbEntity
  8
0
370
     0
390
0
100
AcDbVertex
100
AcDb2dVertex
 10
203.493027
 20
-7.794216
 30
0.0
  0
VERTEX
  5
97
100
AcDbEntity
  8
0
370
     0
390
0
100
AcDbVertex
100
AcDb2dVertex
 10
202.47934
 20
-7.794216
 30
0.0
  0
VERTEX
  5
98
100
AcDbEntity
  8
0
370
     0
390
0
100
AcDbVertex
100
AcDb2dVertex
 10
202.47934
 20
-7.00243
 30
0.0
  0
VERTEX
  5
99
100
AcDbEntity
  8
0
370
     0
390
0
100
AcDbVertex
100
AcDb2dVertex
 10
202.035538
 20
-7.00243
 30
0.0
  0
VERTEX
  5
9A
100
AcDbEntity
  8
0
370
     0
390
0
100
AcDbVertex
100
AcDb2dVertex
 10
202.035538
 20
-7.794216
 30
0.0
  0
VERTEX
  5
9B
100
AcDbEntity
  8
0
370
     0
390
0
100
AcDbVertex
100
AcDb2dVertex
 10
201.268967
 20
-7.794216
 30
0.0
  0
VERTEX
  5
9C
100
AcDbEntity
  8
0
370
     0
390
0
100
AcDbVertex
100
AcDb2dVertex
 10
201.268967
 20
-8.172459
 30
0.0
  0
SEQEND
  5
9D
100
AcDbEntity
  8
0
370
     0
390
0
  0
POLYLINE
  5
9E
100
AcDbEntity
  8
0
370
    13
390
0
 62
     7
100
AcDb2dPolyline
 66
     1
 10
0.0
 20
0.0
 30
0.0
 70
     1
 71
     7
  0
VERTEX
  5
9F
100
AcDbEntity
  8
0
370
     0
390
0
100
AcDbVertex
100
AcDb2dVertex
 10
208.324448
 20
-10.411652
 30
0.0
  0
VERTEX
  5
A0
100
AcDbEntity
  8
0
370
     0
390
0
100
AcDbVertex
100
AcDb2dVertex
 10
208.793457
 20
-10.411652
 30
0.0
  0
VERTEX
  5
A1
100
AcDbEntity
  8
0
370
     0
390
0
100
AcDbVertex
100
AcDb2dVertex
 10
209.781937
 20
-7.703438
 30
0.0
  0
VERTEX
  5
A2
100
AcDbEntity
  8
0
370
     0
390
0
100
AcDbVertex
100
AcDb2dVertex
 10
209.322998
 20
-7.703438
 30
0.0
  0
VERTEX
  5
A3
100
AcDbEntity
  8
0
370
     0
390
0
100
AcDbVertex
100
AcDb2dVertex
 10
208.561478
 20
-9.887156
 30
0.0
  0
VERTEX
  5
A4
100
AcDbEntity
  8
0
370
     0
390
0
100
AcDbVertex
100
AcDb2dVertex
 10
207.784821
 20
-7.703438
 30
0.0
  0
VERTEX
  5
A5
100
AcDbEntity
  8
0
370
     0
390
0
100
AcDbVertex
100
AcDb2dVertex
 10
207.320847
 20
-7.703438
 30
0.0
  0
SEQEND
  5
A6
100
AcDbEntity
  8
0
370
     0
390
0
  0
POLYLINE
  5
A7
100
AcDbEntity
  8
0
370
    13
390
0
 62
     7
100
AcDb2dPolyline
 66
     1
 10
0.0
 20
0.0
 30
0.0
 70
     1
 71
    10
  0
VERTEX
  5
A8
100
AcDbEntity
  8
0
370
     0
390
0
100
AcDbVertex
100
AcDb2dVertex
 10
211.905136
 20
-10.038453
 30
0.0
  0
VERTEX
  5
A9
100
AcDbEntity
  8
0
370
     0
390
0
100
AcDbVertex
100
AcDb2dVertex
 10
211.905136
 20
-7.794216
 30
0.0
  0
VERTEX
  5
AA
100
AcDbEntity
  8
0
370
     0
390
0
100
AcDbVertex
100
AcDb2dVertex
 10
210.765366
 20
-7.794216
 30
0.0
  0
VERTEX
  5
AB
100
AcDbEntity
  8
0
370
     0
390
0
100
AcDbVertex
100
AcDb2dVertex
 10
210.765366
 20
-8.172459
 30
0.0
  0
VERTEX
  5
AC
100
AcDbEntity
  8
0
370
     0
390
0
100
AcDbVertex
100
AcDb2dVertex
 10
211.461334
 20
-8.172459
 30
0.0
  0
VERTEX
  5
AD
100
AcDbEntity
  8
0
370
     0
390
0
100
AcDbVertex
100
AcDb2dVertex
 10
211.461334
 20
-10.038453
 30
0.0
  0
VERTEX
  5
AE
100
AcDbEntity
  8
0
370
     0
390
0
100
AcDbVertex
100
AcDb2dVertex
 10
210.553558
 20
-10.038453
 30
0.0
  0
VERTEX
  5
AF
100
AcDbEntity
  8
0
370
     0
390
0
100
AcDbVertex
100
AcDb2dVertex
 10
210.553558
 20
-10.411652
 30
0.0
  0
VERTEX
  5
B0
100
AcDbEntity
  8
0
370
     0
390
0
100
AcDbVertex
100
AcDb2dVertex
 10
212.822998
 20
-10.411652
 30
0.0
  0
VERTEX
  5
B1
100
AcDbEntity
  8
0
370
     0
390
0
100
AcDbVertex
100
AcDb2dVertex
 10
212.822998
 20
-10.038453
 30
0.0
  0
SEQEND
  5
B2
100
AcDbEntity
  8
0
370
     0
390
0
  0
POLYLINE
  5
B3
100
AcDbEntity
  8
0
370
    13
390
0
 62
     7
100
AcDb2dPolyline
 66
     1
 10
0.0
 20
0.0
 30
0.0
 70
     1
 71
     4
  0
VERTEX
  5
B4
100
AcDbEntity
  8
0
370
     0
390
0
100
AcDbVertex
100
AcDb2dVertex
 10
211.920258
 20
-6.790614
 30
0.0
  0
VERTEX
  5
B5
100
AcDbEntity
  8
0
370
     0
390
0
100
AcDbVertex
100
AcDb2dVertex
 10
211.451248
 20
-6.790614
 30
0.0
  0
VERTEX
  5
B6
100
AcDbEntity
  8
0
370
     0
390
0
100
AcDbVertex
100
AcDb2dVertex
 10
211.451248
 20
-7.294937
 30
0.0
  0
VERTEX
  5
B7
100
AcDbEntity
  8
0
370
     0
390
0
100
AcDbVertex
100
AcDb2dVertex
 10
211.920258
 20
-7.294937
 30
0.0
  0
SEQEND
  5
B8
100
AcDbEntity
  8
0
370
     0
390
0
  0
POLYLINE
  5
B9
100
AcDbEntity
  8
0
370
    13
390
0
 62
     7
100
AcDb2dPolyline
 66
     1
 10
0.0
 20
0.0
 30
0.0
 70
     1
 71
    27
  0
VERTEX
  5
BA
100
AcDbEntity
  8
0
370
     0
390
0
100
AcDbVertex
100
AcDb2dVertex
 10
213.972855
 20
-9.186148
 30
0.0
  0
VERTEX
  5
BB
100
AcDbEntity
  8
0
370
     0
390
0
100
AcDbVertex
100
AcDb2dVertex
 10
215.748077
 20
-9.186148
 30
0.0
  0
VERTEX
  5
BC
100
AcDbEntity
  8
0
370
     0
390
0
100
AcDbVertex
100
AcDb2dVertex
 10
215.753113
 20
-8.979375
 30
0.0
  0
VERTEX
  5
BD
100
AcDbEntity
  8
0
370
     0
390
0
100
AcDbVertex
100
AcDb2dVertex
 10
215.672424
 20
-8.399404
 30
0.0
  0
VERTEX
  5
BE
100
AcDbEntity
  8
0
370
     0
390
0
100
AcDbVertex
100
AcDb2dVertex
 10
215.450531
 20
-7.965686
 30
0.0
  0
VERTEX
  5
BF
100
AcDbEntity
  8
0
370
     0
390
0
100
AcDbVertex
100
AcDb2dVertex
 10
215.097504
 20
-7.703438
 30
0.0
  0
VERTEX
  5
C0
100
AcDbEntity
  8
0
370
     0
390
0
100
AcDbVertex
100
AcDb2dVertex
 10
214.628479
 20
-7.607617
 30
0.0
  0
VERTEX
  5
C1
100
AcDbEntity
  8
0
370
     0
390
0
100
AcDbVertex
100
AcDb2dVertex
 10
214.16954
 20
-7.708482
 30
0.0
  0
VERTEX
  5
C2
100
AcDbEntity
  8
0
370
     0
390
0
100
AcDbVertex
100
AcDb2dVertex
 10
213.816513
 20
-7.990902
 30
0.0
  0
VERTEX
  5
C3
100
AcDbEntity
  8
0
370
     0
390
0
100
AcDbVertex
100
AcDb2dVertex
 10
213.589569
 20
-8.449836
 30
0.0
  0
VERTEX
  5
C4
100
AcDbEntity
  8
0
370
     0
390
0
100
AcDbVertex
100
AcDb2dVertex
 10
213.508881
 20
-9.055023
 30
0.0
  0
VERTEX
  5
C5
100
AcDbEntity
  8
0
370
     0
390
0
100
AcDbVertex
100
AcDb2dVertex
 10
213.584534
 20
-9.675341
 30
0.0
  0
VERTEX
  5
C6
100
AcDbEntity
  8
0
370
     0
390
0
100
AcDbVertex
100
AcDb2dVertex
 10
213.811478
 20
-10.12923
 30
0.0
  0
VERTEX
  5
C7
100
AcDbEntity
  8
0
370
     0
390
0
100
AcDbVertex
100
AcDb2dVertex
 10
214.159454
 20
-10.411652
 30
0.0
  0
VERTEX
  5
C8
100
AcDbEntity
  8
0
370
     0
390
0
100
AcDbVertex
100
AcDb2dVertex
 10
214.613342
 20
-10.507473
 30
0.0
  0
VERTEX
  5
C9
100
AcDbEntity
  8
0
370
     0
390
0
100
AcDbVertex
100
AcDb2dVertex
 10
215.006714
 20
-10.441911
 30
0.0
  0
VERTEX
  5
CA
100
AcDbEntity
  8
0
370
     0
390
0
100
AcDbVertex
100
AcDb2dVertex
 10
215.329483
 20
-10.270441
 30
0.0
  0
VERTEX
  5
CB
100
AcDbEntity
  8
0
370
     0
390
0
100
AcDbVertex
100
AcDb2dVertex
 10
215.566513
 20
-9.998107
 30
0.0
  0
VERTEX
  5
CC
100
AcDbEntity
  8
0
370
     0
390
0
100
AcDbVertex
100
AcDb2dVertex
 10
215.702682
 20
-9.634995
 30
0.0
  0
VERTEX
  5
CD
100
AcDbEntity
  8
0
370
     0
390
0
100
AcDbVertex
100
AcDb2dVertex
 10
215.263916
 20
-9.634995
 30
0.0
  0
VERTEX
  5
CE
100
AcDbEntity
  8
0
370
     0
390
0
100
AcDbVertex
100
AcDb2dVertex
 10
215.173141
 20
-9.836723
 30
0.0
  0
VERTEX
  5
CF
100
AcDbEntity
  8
0
370
     0
390
0
100
AcDbVertex
100
AcDb2dVertex
 10
215.042023
 20
-9.988021
 30
0.0
  0
VERTEX
  5
D0
100
AcDbEntity
  8
0
370
     0
390
0
100
AcDbVertex
100
AcDb2dVertex
 10
214.668823
 20
-10.109058
 30
0.0
  0
VERTEX
  5
D1
100
AcDbEntity
  8
0
370
     0
390
0
100
AcDbVertex
100
AcDb2dVertex
 10
214.381363
 20
-10.053582
 30
0.0
  0
VERTEX
  5
D2
100
AcDbEntity
  8
0
370
     0
390
0
100
AcDbVertex
100
AcDb2dVertex
 10
214.164505
 20
-9.877069
 30
0.0
  0
VERTEX
  5
D3
100
AcDbEntity
  8
0
370
     0
390
0
100
AcDbVertex
100
AcDb2dVertex
 10
214.023285
 20
-9.589605
 30
0.0
  0
VERTEX
  5
D4
100
AcDbEntity
  8
0
370
     0
390
0
100
AcDbVertex
100
AcDb2dVertex
 10
213.972855
 20
-9.201277
 30
0.0
  0
SEQEND
  5
D5
100
AcDbEntity
  8
0
370
     0
390
0
  0
POLYLINE
  5
D6
100
AcDbEntity
  8
0
370
    13
390
0
 62
     7
100
AcDb2dPolyline
 66
     1
 10
0.0
 20
0.0
 30
0.0
 70
     1
 71
     9
  0
VERTEX
  5
D7
100
AcDbEntity
  8
0
370
     0
390
0
100
AcDbVertex
100
AcDb2dVertex
 10
213.972855
 20
-8.812948
 30
0.0
  0
VERTEX
  5
D8
100
AcDbEntity
  8
0
370
     0
390
0
100
AcDbVertex
100
AcDb2dVertex
 10
214.028336
 20
-8.464966
 30
0.0
  0
VERTEX
  5
D9
100
AcDbEntity
  8
0
370
     0
390
0
100
AcDbVertex
100
AcDb2dVertex
 10
214.164505
 20
-8.207761
 30
0.0
  0
VERTEX
  5
DA
100
AcDbEntity
  8
0
370
     0
390
0
100
AcDbVertex
100
AcDb2dVertex
 10
214.371277
 20
-8.051421
 30
0.0
  0
VERTEX
  5
DB
100
AcDbEntity
  8
0
370
     0
390
0
100
AcDbVertex
100
AcDb2dVertex
 10
214.643616
 20
-7.995945
 30
0.0
  0
VERTEX
  5
DC
100
AcDbEntity
  8
0
370
     0
390
0
100
AcDbVertex
100
AcDb2dVertex
 10
214.910904
 20
-8.051421
 30
0.0
  0
VERTEX
  5
DD
100
AcDbEntity
  8
0
370
     0
390
0
100
AcDbVertex
100
AcDb2dVertex
 10
215.117676
 20
-8.207761
 30
0.0
  0
VERTEX
  5
DE
100
AcDbEntity
  8
0
370
     0
390
0
100
AcDbVertex
100
AcDb2dVertex
 10
215.243744
 20
-8.464966
 30
0.0
  0
VERTEX
  5
DF
100
AcDbEntity
  8
0
370
     0
390
0
100
AcDbVertex
100
AcDb2dVertex
 10
215.289139
 20
-8.812948
 30
0.0
  0
SEQEND
  5
E0
100
AcDbEntity
  8
0
370
     0
390
0
  0
POLYLINE
  5
E1
100
AcDbEntity
  8
0
370
    13
390
0
 62
     7
100
AcDb2dPolyline
 66
     1
 10
0.0
 20
0.0
 30
0.0
 70
     1
 71
    13
  0
VERTEX
  5
E2
100
AcDbEntity
  8
0
370
     0
390
0
100
AcDbVertex
100
AcDb2dVertex
 10
217.261047
 20
-10.411652
 30
0.0
  0
VERTEX
  5
E3
100
AcDbEntity
  8
0
370
     0
390
0
100
AcDbVertex
100
AcDb2dVertex
 10
217.664505
 20
-8.111939
 30
0.0
  0
VERTEX
  5
E4
100
AcDbEntity
  8
0
370
     0
390
0
100
AcDbVertex
100
AcDb2dVertex
 10
218.067963
 20
-10.411652
 30
0.0
  0
VERTEX
  5
E5
100
AcDbEntity
  8
0
370
     0
390
0
100
AcDbVertex
100
AcDb2dVertex
 10
218.491592
 20
-10.411652
 30
0.0
  0
VERTEX
  5
E6
100
AcDbEntity
  8
0
370
     0
390
0
100
AcDbVertex
100
AcDb2dVertex
 10
219.157288
 20
-7.703438
 30
0.0
  0
VERTEX
  5
E7
100
AcDbEntity
  8
0
370
     0
390
0
100
AcDbVertex
100
AcDb2dVertex
 10
218.728622
 20
-7.703438
 30
0.0
  0
VERTEX
  5
E8
100
AcDbEntity
  8
0
370
     0
390
0
100
AcDbVertex
100
AcDb2dVertex
 10
218.27977
 20
-10.00315
 30
0.0
  0
VERTEX
  5
E9
100
AcDbEntity
  8
0
370
     0
390
0
100
AcDbVertex
100
AcDb2dVertex
 10
217.881363
 20
-7.703438
 30
0.0
  0
VERTEX
  5
EA
100
AcDbEntity
  8
0
370
     0
390
0
100
AcDbVertex
100
AcDb2dVertex
 10
217.442596
 20
-7.703438
 30
0.0
  0
VERTEX
  5
EB
100
AcDbEntity
  8
0
370
     0
390
0
100
AcDbVertex
100
AcDb2dVertex
 10
217.044189
 20
-10.00315
 30
0.0
  0
VERTEX
  5
EC
100
AcDbEntity
  8
0
370
     0
390
0
100
AcDbVertex
100
AcDb2dVertex
 10
216.595337
 20
-7.703438
 30
0.0
  0
VERTEX
  5
ED
100
AcDbEntity
  8
0
370
     0
390
0
100
AcDbVertex
100
AcDb2dVertex
 10
216.171707
 20
-7.703438
 30
0.0
  0
VERTEX
  5
EE
100
AcDbEntity
  8
0
370
     0
390
0
100
AcDbVertex
100
AcDb2dVertex
 10
216.837402
 20
-10.411652
 30
0.0
  0
SEQEND
  5
EF
100
AcDbEntity
  8
0
370
     0
390
0
  0
POLYLINE
  5
F0
100
AcDbEntity
  8
0
370
    13
390
0
 62
     7
100
AcDb2dPolyline
 66
     1
 10
0.0
 20
0.0
 30
0.0
 70
     1
 71
    51
  0
VERTEX
  5
F1
100
AcDbEntity
  8
0
370
     0
390
0
100
AcDbVertex
100
AcDb2dVertex
 10
189.543457
 20
-15.303581
 30
0.0
  0
VERTEX
  5
F2
100
AcDbEntity
  8
0
370
     0
390
0
100
AcDbVertex
100
AcDb2dVertex
 10
189.084534
 20
-15.303581
 30
0.0
  0
VERTEX
  5
F3
100
AcDbEntity
  8
0
370
     0
390
0
100
AcDbVertex
100
AcDb2dVertex
 10
189.185394
 20
-15.838163
 30
0.0
  0
VERTEX
  5
F4
100
AcDbEntity
  8
0
370
     0
390
0
100
AcDbVertex
100
AcDb2dVertex
 10
189.437561
 20
-16.231535
 30
0.0
  0
VERTEX
  5
F5
100
AcDbEntity
  8
0
370
     0
390
0
100
AcDbVertex
100
AcDb2dVertex
 10
189.825882
 20
-16.468567
 30
0.0
  0
VERTEX
  5
F6
100
AcDbEntity
  8
0
370
     0
390
0
100
AcDbVertex
100
AcDb2dVertex
 10
190.350372
 20
-16.554302
 30
0.0
  0
VERTEX
  5
F7
100
AcDbEntity
  8
0
370
     0
390
0
100
AcDbVertex
100
AcDb2dVertex
 10
190.869827
 20
-16.47361
 30
0.0
  0
VERTEX
  5
F8
100
AcDbEntity
  8
0
370
     0
390
0
100
AcDbVertex
100
AcDb2dVertex
 10
191.258163
 20
-16.251709
 30
0.0
  0
VERTEX
  5
F9
100
AcDbEntity
  8
0
370
     0
390
0
100
AcDbVertex
100
AcDb2dVertex
 10
191.50528
 20
-15.903726
 30
0.0
  0
VERTEX
  5
FA
100
AcDbEntity
  8
0
370
     0
390
0
100
AcDbVertex
100
AcDb2dVertex
 10
191.596054
 20
-15.444792
 30
0.0
  0
VERTEX
  5
FB
100
AcDbEntity
  8
0
370
     0
390
0
100
AcDbVertex
100
AcDb2dVertex
 10
191.520401
 20
-15.031247
 30
0.0
  0
VERTEX
  5
FC
100
AcDbEntity
  8
0
370
     0
390
0
100
AcDbVertex
100
AcDb2dVertex
 10
191.308594
 20
-14.763956
 30
0.0
  0
VERTEX
  5
FD
100
AcDbEntity
  8
0
370
     0
390
0
100
AcDbVertex
100
AcDb2dVertex
 10
190.965652
 20
-14.587443
 30
0.0
  0
VERTEX
  5
FE
100
AcDbEntity
  8
0
370
     0
390
0
100
AcDbVertex
100
AcDb2dVertex
 10
190.506714
 20
-14.45632
 30
0.0
  0
VERTEX
  5
FF
100
AcDbEntity
  8
0
370
     0
390
0
100
AcDbVertex
100
AcDb2dVertex
 10
190.113342
 20
-14.360498
 30
0.0
  0
VERTEX
  5
100
100
AcDbEntity
  8
0
370
     0
390
0
100
AcDbVertex
100
AcDb2dVertex
 10
189.85614
 20
-14.249547
 30
0.0
  0
VERTEX
  5
101
100
AcDbEntity
  8
0
370
     0
390
0
100
AcDbVertex
100
AcDb2dVertex
 10
189.709885
 20
-14.088163
 30
0.0
  0
VERTEX
  5
102
100
AcDbEntity
  8
0
370
     0
390
0
100
AcDbVertex
100
AcDb2dVertex
 10
189.664505
 20
-13.836002
 30
0.0
  0
VERTEX
  5
103
100
AcDbEntity
  8
0
370
     0
390
0
100
AcDbVertex
100
AcDb2dVertex
 10
189.709885
 20
-13.609057
 30
0.0
  0
VERTEX
  5
104
100
AcDbEntity
  8
0
370
     0
390
0
100
AcDbVertex
100
AcDb2dVertex
 10
189.841019
 20
-13.437588
 30
0.0
  0
VERTEX
  5
105
100
AcDbEntity
  8
0
370
     0
390
0
100
AcDbVertex
100
AcDb2dVertex
 10
190.04274
 20
-13.321593
 30
0.0
  0
VERTEX
  5
106
100
AcDbEntity
  8
0
370
     0
390
0
100
AcDbVertex
100
AcDb2dVertex
 10
190.320114
 20
-13.281247
 30
0.0
  0
VERTEX
  5
107
100
AcDbEntity
  8
0
370
     0
390
0
100
AcDbVertex
100
AcDb2dVertex
 10
190.602539
 20
-13.331679
 30
0.0
  0
VERTEX
  5
108
100
AcDbEntity
  8
0
370
     0
390
0
100
AcDbVertex
100
AcDb2dVertex
 10
190.824448
 20
-13.467847
 30
0.0
  0
VERTEX
  5
109
100
AcDbEntity
  8
0
370
     0
390
0
100
AcDbVertex
100
AcDb2dVertex
 10
190.970703
 20
-13.694792
 30
0.0
  0
VERTEX
  5
10A
100
AcDbEntity
  8
0
370
     0
390
0
100
AcDbVertex
100
AcDb2dVertex
 10
191.041306
 20
-14.002429
 30
0.0
  0
VERTEX
  5
10B
100
AcDbEntity
  8
0
370
     0
390
0
100
AcDbVertex
100
AcDb2dVertex
 10
191.500229
 20
-14.002429
 30
0.0
  0
VERTEX
  5
10C
100
AcDbEntity
  8
0
370
     0
390
0
100
AcDbVertex
100
AcDb2dVertex
 10
191.500229
 20
-13.992342
 30
0.0
  0
VERTEX
  5
10D
100
AcDbEntity
  8
0
370
     0
390
0
100
AcDbVertex
100
AcDb2dVertex
 10
191.41954
 20
-13.518279
 30
0.0
  0
VERTEX
  5
10E
100
AcDbEntity
  8
0
370
     0
390
0
100
AcDbVertex
100
AcDb2dVertex
 10
191.18251
 20
-13.165253
 30
0.0
  0
VERTEX
  5
10F
100
AcDbEntity
  8
0
370
     0
390
0
100
AcDbVertex
100
AcDb2dVertex
 10
190.809311
 20
-12.943351
 30
0.0
  0
VERTEX
  5
110
100
AcDbEntity
  8
0
370
     0
390
0
100
AcDbVertex
100
AcDb2dVertex
 10
190.304993
 20
-12.867702
 30
0.0
  0
VERTEX
  5
111
100
AcDbEntity
  8
0
370
     0
390
0
100
AcDbVertex
100
AcDb2dVertex
 10
189.851105
 20
-12.943351
 30
0.0
  0
VERTEX
  5
112
100
AcDbEntity
  8
0
370
     0
390
0
100
AcDbVertex
100
AcDb2dVertex
 10
189.498077
 20
-13.155167
 30
0.0
  0
VERTEX
  5
113
100
AcDbEntity
  8
0
370
     0
390
0
100
AcDbVertex
100
AcDb2dVertex
 10
189.271133
 20
-13.482977
 30
0.0
  0
VERTEX
  5
114
100
AcDbEntity
  8
0
370
     0
390
0
100
AcDbVertex
100
AcDb2dVertex
 10
189.19043
 20
-13.906608
 30
0.0
  0
VERTEX
  5
115
100
AcDbEntity
  8
0
370
     0
390
0
100
AcDbVertex
100
AcDb2dVertex
 10
189.255997
 20
-14.284849
 30
0.0
  0
VERTEX
  5
116
100
AcDbEntity
  8
0
370
     0
390
0
100
AcDbVertex
100
AcDb2dVertex
 10
189.447647
 20
-14.542054
 30
0.0
  0
VERTEX
  5
117
100
AcDbEntity
  8
0
370
     0
390
0
100
AcDbVertex
100
AcDb2dVertex
 10
189.750229
 20
-14.713524
 30
0.0
  0
VERTEX
  5
118
100
AcDbEntity
  8
0
370
     0
390
0
100
AcDbVertex
100
AcDb2dVertex
 10
190.163773
 20
-14.844648
 30
0.0
  0
VERTEX
  5
119
100
AcDbEntity
  8
0
370
     0
390
0
100
AcDbVertex
100
AcDb2dVertex
 10
190.572281
 20
-14.960642
 30
0.0
  0
VERTEX
  5
11A
100
AcDbEntity
  8
0
370
     0
390
0
100
AcDbVertex
100
AcDb2dVertex
 10
190.879913
 20
-15.071593
 30
0.0
  0
VERTEX
  5
11B
100
AcDbEntity
  8
0
370
     0
390
0
100
AcDbVertex
100
AcDb2dVertex
 10
191.066513
 20
-15.232977
 30
0.0
  0
VERTEX
  5
11C
100
AcDbEntity
  8
0
370
     0
390
0
100
AcDbVertex
100
AcDb2dVertex
 10
191.13208
 20
-15.495224
 30
0.0
  0
VERTEX
  5
11D
100
AcDbEntity
  8
0
370
     0
390
0
100
AcDbVertex
100
AcDb2dVertex
 10
191.071564
 20
-15.762515
 30
0.0
  0
VERTEX
  5
11E
100
AcDbEntity
  8
0
370
     0
390
0
100
AcDbVertex
100
AcDb2dVertex
 10
190.915222
 20
-15.964245
 30
0.0
  0
VERTEX
  5
11F
100
AcDbEntity
  8
0
370
     0
390
0
100
AcDbVertex
100
AcDb2dVertex
 10
190.678192
 20
-16.090324
 30
0.0
  0
VERTEX
  5
120
100
AcDbEntity
  8
0
370
     0
390
0
100
AcDbVertex
100
AcDb2dVertex
 10
190.370544
 20
-16.130671
 30
0.0
  0
VERTEX
  5
121
100
AcDbEntity
  8
0
370
     0
390
0
100
AcDbVertex
100
AcDb2dVertex
 10
190.027618
 20
-16.075195
 30
0.0
  0
VERTEX
  5
122
100
AcDbEntity
  8
0
370
     0
390
0
100
AcDbVertex
100
AcDb2dVertex
 10
189.765366
 20
-15.913813
 30
0.0
  0
VERTEX
  5
123
100
AcDbEntity
  8
0
370
     0
390
0
100
AcDbVertex
100
AcDb2dVertex
 10
189.598938
 20
-15.651565
 30
0.0
  0
SEQEND
  5
124
100
AcDbEntity
  8
0
370
     0
390
0
  0
POLYLINE
  5
125
100
AcDbEntity
  8
0
370
    13
390
0
 62
     7
100
AcDb2dPolyline
 66
     1
 10
0.0
 20
0.0
 30
0.0
 70
     1
 71
    34
  0
VERTEX
  5
126
100
AcDbEntity
  8
0
370
     0
390
0
100
AcDbVertex
100
AcDb2dVertex
 10
194.057144
 20
-14.647963
 30
0.0
  0
VERTEX
  5
127
100
AcDbEntity
  8
0
370
     0
390
0
100
AcDbVertex
100
AcDb2dVertex
 10
194.495911
 20
-14.647963
 30
0.0
  0
VERTEX
  5
128
100
AcDbEntity
  8
0
370
     0
390
0
100
AcDbVertex
100
AcDb2dVertex
 10
194.405136
 20
-14.244504
 30
0.0
  0
VERTEX
  5
129
100
AcDbEntity
  8
0
370
     0
390
0
100
AcDbVertex
100
AcDb2dVertex
 10
194.188278
 20
-13.926781
 30
0.0
  0
VERTEX
  5
12A
100
AcDbEntity
  8
0
370
     0
390
0
100
AcDbVertex
100
AcDb2dVertex
 10
193.850372
 20
-13.730095
 30
0.0
  0
VERTEX
  5
12B
100
AcDbEntity
  8
0
370
     0
390
0
100
AcDbVertex
100
AcDb2dVertex
 10
193.411621
 20
-13.654446
 30
0.0
  0
VERTEX
  5
12C
100
AcDbEntity
  8
0
370
     0
390
0
100
AcDbVertex
100
AcDb2dVertex
 10
192.927475
 20
-13.755311
 30
0.0
  0
VERTEX
  5
12D
100
AcDbEntity
  8
0
370
     0
390
0
100
AcDbVertex
100
AcDb2dVertex
 10
192.559311
 20
-14.037731
 30
0.0
  0
VERTEX
  5
12E
100
AcDbEntity
  8
0
370
     0
390
0
100
AcDbVertex
100
AcDb2dVertex
 10
192.327332
 20
-14.496665
 30
0.0
  0
VERTEX
  5
12F
100
AcDbEntity
  8
0
370
     0
390
0
100
AcDbVertex
100
AcDb2dVertex
 10
192.246628
 20
-15.111939
 30
0.0
  0
VERTEX
  5
130
100
AcDbEntity
  8
0
370
     0
390
0
100
AcDbVertex
100
AcDb2dVertex
 10
192.322281
 20
-15.72217
 30
0.0
  0
VERTEX
  5
131
100
AcDbEntity
  8
0
370
     0
390
0
100
AcDbVertex
100
AcDb2dVertex
 10
192.549225
 20
-16.17606
 30
0.0
  0
VERTEX
  5
132
100
AcDbEntity
  8
0
370
     0
390
0
100
AcDbVertex
100
AcDb2dVertex
 10
192.907288
 20
-16.458481
 30
0.0
  0
VERTEX
  5
133
100
AcDbEntity
  8
0
370
     0
390
0
100
AcDbVertex
100
AcDb2dVertex
 10
193.396484
 20
-16.554302
 30
0.0
  0
VERTEX
  5
134
100
AcDbEntity
  8
0
370
     0
390
0
100
AcDbVertex
100
AcDb2dVertex
 10
193.8302
 20
-16.478653
 30
0.0
  0
VERTEX
  5
135
100
AcDbEntity
  8
0
370
     0
390
0
100
AcDbVertex
100
AcDb2dVertex
 10
194.168106
 20
-16.266838
 30
0.0
  0
VERTEX
  5
136
100
AcDbEntity
  8
0
370
     0
390
0
100
AcDbVertex
100
AcDb2dVertex
 10
194.400085
 20
-15.933985
 30
0.0
  0
VERTEX
  5
137
100
AcDbEntity
  8
0
370
     0
390
0
100
AcDbVertex
100
AcDb2dVertex
 10
194.500961
 20
-15.490181
 30
0.0
  0
VERTEX
  5
138
100
AcDbEntity
  8
0
370
     0
390
0
100
AcDbVertex
100
AcDb2dVertex
 10
194.077332
 20
-15.490181
 30
0.0
  0
VERTEX
  5
139
100
AcDbEntity
  8
0
370
     0
390
0
100
AcDbVertex
100
AcDb2dVertex
 10
194.001678
 20
-15.772602
 30
0.0
  0
VERTEX
  5
13A
100
AcDbEntity
  8
0
370
     0
390
0
100
AcDbVertex
100
AcDb2dVertex
 10
193.860458
 20
-15.984417
 30
0.0
  0
VERTEX
  5
13B
100
AcDbEntity
  8
0
370
     0
390
0
100
AcDbVertex
100
AcDb2dVertex
 10
193.658737
 20
-16.115541
 30
0.0
  0
VERTEX
  5
13C
100
AcDbEntity
  8
0
370
     0
390
0
100
AcDbVertex
100
AcDb2dVertex
 10
193.411621
 20
-16.155888
 30
0.0
  0
VERTEX
  5
13D
100
AcDbEntity
  8
0
370
     0
390
0
100
AcDbVertex
100
AcDb2dVertex
 10
193.103973
 20
-16.090324
 30
0.0
  0
VERTEX
  5
13E
100
AcDbEntity
  8
0
370
     0
390
0
100
AcDbVertex
100
AcDb2dVertex
 10
192.88208
 20
-15.888597
 30
0.0
  0
VERTEX
  5
13F
100
AcDbEntity
  8
0
370
     0
390
0
100
AcDbVertex
100
AcDb2dVertex
 10
192.745911
 20
-15.560786
 30
0.0
  0
VERTEX
  5
140
100
AcDbEntity
  8
0
370
     0
390
0
100
AcDbVertex
100
AcDb2dVertex
 10
192.700516
 20
-15.096809
 30
0.0
  0
VERTEX
  5
141
100
AcDbEntity
  8
0
370
     0
390
0
100
AcDbVertex
100
AcDb2dVertex
 10
192.745911
 20
-14.642919
 30
0.0
  0
VERTEX
  5
142
100
AcDbEntity
  8
0
370
     0
390
0
100
AcDbVertex
100
AcDb2dVertex
 10
192.887115
 20
-14.315109
 30
0.0
  0
VERTEX
  5
143
100
AcDbEntity
  8
0
370
     0
390
0
100
AcDbVertex
100
AcDb2dVertex
 10
193.114075
 20
-14.11338
 30
0.0
  0
VERTEX
  5
144
100
AcDbEntity
  8
0
370
     0
390
0
100
AcDbVertex
100
AcDb2dVertex
 10
193.411621
 20
-14.042774
 30
0.0
  0
VERTEX
  5
145
100
AcDbEntity
  8
0
370
     0
390
0
100
AcDbVertex
100
AcDb2dVertex
 10
193.673859
 20
-14.088163
 30
0.0
  0
VERTEX
  5
146
100
AcDbEntity
  8
0
370
     0
390
0
100
AcDbVertex
100
AcDb2dVertex
 10
193.870544
 20
-14.204158
 30
0.0
  0
VERTEX
  5
147
100
AcDbEntity
  8
0
370
     0
390
0
100
AcDbVertex
100
AcDb2dVertex
 10
194.001678
 20
-14.395801
 30
0.0
  0
SEQEND
  5
148
100
AcDbEntity
  8
0
370
     0
390
0
  0
POLYLINE
  5
149
100
AcDbEntity
  8
0
370
    13
390
0
 62
     7
100
AcDb2dPolyline
 66
     1
 10
0.0
 20
0.0
 30
0.0
 70
     1
 71
    42
  0
VERTEX
  5
14A
100
AcDbEntity
  8
0
370
     0
390
0
100
AcDbVertex
100
AcDb2dVertex
 10
196.977173
 20
-16.105455
 30
0.0
  0
VERTEX
  5
14B
100
AcDbEntity
  8
0
370
     0
390
0
100
AcDbVertex
100
AcDb2dVertex
 10
196.977173
 20
-16.120584
 30
0.0
  0
VERTEX
  5
14C
100
AcDbEntity
  8
0
370
     0
390
0
100
AcDbVertex
100
AcDb2dVertex
 10
197.002396
 20
-16.292055
 30
0.0
  0
VERTEX
  5
14D
100
AcDbEntity
  8
0
370
     0
390
0
100
AcDbVertex
100
AcDb2dVertex
 10
197.078049
 20
-16.413092
 30
0.0
  0
VERTEX
  5
14E
100
AcDbEntity
  8
0
370
     0
390
0
100
AcDbVertex
100
AcDb2dVertex
 10
197.395767
 20
-16.508913
 30
0.0
  0
VERTEX
  5
14F
100
AcDbEntity
  8
0
370
     0
390
0
100
AcDbVertex
100
AcDb2dVertex
 10
197.642883
 20
-16.468567
 30
0.0
  0
VERTEX
  5
150
100
AcDbEntity
  8
0
370
     0
390
0
100
AcDbVertex
100
AcDb2dVertex
 10
197.642883
 20
-16.125628
 30
0.0
  0
VERTEX
  5
151
100
AcDbEntity
  8
0
370
     0
390
0
100
AcDbVertex
100
AcDb2dVertex
 10
197.536972
 20
-16.140757
 30
0.0
  0
VERTEX
  5
152
100
AcDbEntity
  8
0
370
     0
390
0
100
AcDbVertex
100
AcDb2dVertex
 10
197.395767
 20
-16.075195
 30
0.0
  0
VERTEX
  5
153
100
AcDbEntity
  8
0
370
     0
390
0
100
AcDbVertex
100
AcDb2dVertex
 10
197.370544
 20
-15.873466
 30
0.0
  0
VERTEX
  5
154
100
AcDbEntity
  8
0
370
     0
390
0
100
AcDbVertex
100
AcDb2dVertex
 10
197.370544
 20
-14.471449
 30
0.0
  0
VERTEX
  5
155
100
AcDbEntity
  8
0
370
     0
390
0
100
AcDbVertex
100
AcDb2dVertex
 10
197.310028
 20
-14.11338
 30
0.0
  0
VERTEX
  5
156
100
AcDbEntity
  8
0
370
     0
390
0
100
AcDbVertex
100
AcDb2dVertex
 10
197.133514
 20
-13.861218
 30
0.0
  0
VERTEX
  5
157
100
AcDbEntity
  8
0
370
     0
390
0
100
AcDbVertex
100
AcDb2dVertex
 10
196.825882
 20
-13.709922
 30
0.0
  0
VERTEX
  5
158
100
AcDbEntity
  8
0
370
     0
390
0
100
AcDbVertex
100
AcDb2dVertex
 10
196.392166
 20
-13.654446
 30
0.0
  0
VERTEX
  5
159
100
AcDbEntity
  8
0
370
     0
390
0
100
AcDbVertex
100
AcDb2dVertex
 10
195.968536
 20
-13.714965
 30
0.0
  0
VERTEX
  5
15A
100
AcDbEntity
  8
0
370
     0
390
0
100
AcDbVertex
100
AcDb2dVertex
 10
195.655853
 20
-13.886435
 30
0.0
  0
VERTEX
  5
15B
100
AcDbEntity
  8
0
370
     0
390
0
100
AcDbVertex
100
AcDb2dVertex
 10
195.459167
 20
-14.153726
 30
0.0
  0
VERTEX
  5
15C
100
AcDbEntity
  8
0
370
     0
390
0
100
AcDbVertex
100
AcDb2dVertex
 10
195.3936
 20
-14.506752
 30
0.0
  0
VERTEX
  5
15D
100
AcDbEntity
  8
0
370
     0
390
0
100
AcDbVertex
100
AcDb2dVertex
 10
195.3936
 20
-14.537011
 30
0.0
  0
VERTEX
  5
15E
100
AcDbEntity
  8
0
370
     0
390
0
100
AcDbVertex
100
AcDb2dVertex
 10
195.792023
 20
-14.537011
 30
0.0
  0
VERTEX
  5
15F
100
AcDbEntity
  8
0
370
     0
390
0
100
AcDbVertex
100
AcDb2dVertex
 10
195.827332
 20
-14.325195
 30
0.0
  0
VERTEX
  5
160
100
AcDbEntity
  8
0
370
     0
390
0
100
AcDbVertex
100
AcDb2dVertex
 10
195.938278
 20
-14.173899
 30
0.0
  0
VERTEX
  5
161
100
AcDbEntity
  8
0
370
     0
390
0
100
AcDbVertex
100
AcDb2dVertex
 10
196.119827
 20
-14.08312
 30
0.0
  0
VERTEX
  5
162
100
AcDbEntity
  8
0
370
     0
390
0
100
AcDbVertex
100
AcDb2dVertex
 10
196.377029
 20
-14.047818
 30
0.0
  0
VERTEX
  5
163
100
AcDbEntity
  8
0
370
     0
390
0
100
AcDbVertex
100
AcDb2dVertex
 10
196.624161
 20
-14.073034
 30
0.0
  0
VERTEX
  5
164
100
AcDbEntity
  8
0
370
     0
390
0
100
AcDbVertex
100
AcDb2dVertex
 10
196.800674
 20
-14.148683
 30
0.0
  0
VERTEX
  5
165
100
AcDbEntity
  8
0
370
     0
390
0
100
AcDbVertex
100
AcDb2dVertex
 10
196.90657
 20
-14.279806
 30
0.0
  0
VERTEX
  5
166
100
AcDbEntity
  8
0
370
     0
390
0
100
AcDbVertex
100
AcDb2dVertex
 10
196.941879
 20
-14.461363
 30
0.0
  0
VERTEX
  5
167
100
AcDbEntity
  8
0
370
     0
390
0
100
AcDbVertex
100
AcDb2dVertex
 10
196.921707
 20
-14.673178
 30
0.0
  0
VERTEX
  5
168
100
AcDbEntity
  8
0
370
     0
390
0
100
AcDbVertex
100
AcDb2dVertex
 10
196.841019
 20
-14.779086
 30
0.0
  0
VERTEX
  5
169
100
AcDbEntity
  8
0
370
     0
390
0
100
AcDbVertex
100
AcDb2dVertex
 10
196.639282
 20
-14.829518
 30
0.0
  0
VERTEX
  5
16A
100
AcDbEntity
  8
0
370
     0
390
0
100
AcDbVertex
100
AcDb2dVertex
 10
196.261047
 20
-14.869864
 30
0.0
  0
VERTEX
  5
16B
100
AcDbEntity
  8
0
370
     0
390
0
100
AcDbVertex
100
AcDb2dVertex
 10
195.827332
 20
-14.960642
 30
0.0
  0
VERTEX
  5
16C
100
AcDbEntity
  8
0
370
     0
390
0
100
AcDbVertex
100
AcDb2dVertex
 10
195.519684
 20
-15.122025
 30
0.0
  0
VERTEX
  5
16D
100
AcDbEntity
  8
0
370
     0
390
0
100
AcDbVertex
100
AcDb2dVertex
 10
195.338135
 20
-15.374187
 30
0.0
  0
VERTEX
  5
16E
100
AcDbEntity
  8
0
370
     0
390
0
100
AcDbVertex
100
AcDb2dVertex
 10
195.282654
 20
-15.747386
 30
0.0
  0
VERTEX
  5
16F
100
AcDbEntity
  8
0
370
     0
390
0
100
AcDbVertex
100
AcDb2dVertex
 10
195.333084
 20
-16.080238
 30
0.0
  0
VERTEX
  5
170
100
AcDbEntity
  8
0
370
     0
390
0
100
AcDbVertex
100
AcDb2dVertex
 10
195.489426
 20
-16.327356
 30
0.0
  0
VERTEX
  5
171
100
AcDbEntity
  8
0
370
     0
390
0
100
AcDbVertex
100
AcDb2dVertex
 10
195.741592
 20
-16.483698
 30
0.0
  0
VERTEX
  5
172
100
AcDbEntity
  8
0
370
     0
390
0
100
AcDbVertex
100
AcDb2dVertex
 10
196.089569
 20
-16.539173
 30
0.0
  0
VERTEX
  5
173
100
AcDbEntity
  8
0
370
     0
390
0
100
AcDbVertex
100
AcDb2dVertex
 10
196.558594
 20
-16.433264
 30
0.0
  0
SEQEND
  5
174
100
AcDbEntity
  8
0
370
     0
390
0
  0
POLYLINE
  5
175
100
AcDbEntity
  8
0
370
    13
390
0
 62
     7
100
AcDb2dPolyline
 66
     1
 10
0.0
 20
0.0
 30
0.0
 70
     1
 71
    14
  0
VERTEX
  5
176
100
AcDbEntity
  8
0
370
     0
390
0
100
AcDbVertex
100
AcDb2dVertex
 10
196.926743
 20
-15.510354
 30
0.0
  0
VERTEX
  5
177
100
AcDbEntity
  8
0
370
     0
390
0
100
AcDbVertex
100
AcDb2dVertex
 10
196.866226
 20
-15.772602
 30
0.0
  0
VERTEX
  5
178
100
AcDbEntity
  8
0
370
     0
390
0
100
AcDbVertex
100
AcDb2dVertex
 10
196.704849
 20
-15.974331
 30
0.0
  0
VERTEX
  5
179
100
AcDbEntity
  8
0
370
     0
390
0
100
AcDbVertex
100
AcDb2dVertex
 10
196.462769
 20
-16.105455
 30
0.0
  0
VERTEX
  5
17A
100
AcDbEntity
  8
0
370
     0
390
0
100
AcDbVertex
100
AcDb2dVertex
 10
196.165222
 20
-16.150845
 30
0.0
  0
VERTEX
  5
17B
100
AcDbEntity
  8
0
370
     0
390
0
100
AcDbVertex
100
AcDb2dVertex
 10
195.973572
 20
-16.125628
 30
0.0
  0
VERTEX
  5
17C
100
AcDbEntity
  8
0
370
     0
390
0
100
AcDbVertex
100
AcDb2dVertex
 10
195.837418
 20
-16.044935
 30
0.0
  0
VERTEX
  5
17D
100
AcDbEntity
  8
0
370
     0
390
0
100
AcDbVertex
100
AcDb2dVertex
 10
195.751678
 20
-15.903726
 30
0.0
  0
VERTEX
  5
17E
100
AcDbEntity
  8
0
370
     0
390
0
100
AcDbVertex
100
AcDb2dVertex
 10
195.726456
 20
-15.70704
 30
0.0
  0
VERTEX
  5
17F
100
AcDbEntity
  8
0
370
     0
390
0
100
AcDbVertex
100
AcDb2dVertex
 10
195.746628
 20
-15.530527
 30
0.0
  0
VERTEX
  5
180
100
AcDbEntity
  8
0
370
     0
390
0
100
AcDbVertex
100
AcDb2dVertex
 10
195.827332
 20
-15.404447
 30
0.0
  0
VERTEX
  5
181
100
AcDbEntity
  8
0
370
     0
390
0
100
AcDbVertex
100
AcDb2dVertex
 10
196.150085
 20
-15.263236
 30
0.0
  0
VERTEX
  5
182
100
AcDbEntity
  8
0
370
     0
390
0
100
AcDbVertex
100
AcDb2dVertex
 10
196.558594
 20
-15.202717
 30
0.0
  0
VERTEX
  5
183
100
AcDbEntity
  8
0
370
     0
390
0
100
AcDbVertex
100
AcDb2dVertex
 10
196.926743
 20
-15.081679
 30
0.0
  0
SEQEND
  5
184
100
AcDbEntity
  8
0
370
     0
390
0
  0
POLYLINE
  5
185
100
AcDbEntity
  8
0
370
    13
390
0
 62
     7
100
AcDb2dPolyline
 66
     1
 10
0.0
 20
0.0
 30
0.0
 70
     1
 71
    10
  0
VERTEX
  5
186
100
AcDbEntity
  8
0
370
     0
390
0
100
AcDbVertex
100
AcDb2dVertex
 10
199.286972
 20
-13.210642
 30
0.0
  0
VERTEX
  5
187
100
AcDbEntity
  8
0
370
     0
390
0
100
AcDbVertex
100
AcDb2dVertex
 10
199.286972
 20
-16.085281
 30
0.0
  0
VERTEX
  5
188
100
AcDbEntity
  8
0
370
     0
390
0
100
AcDbVertex
100
AcDb2dVertex
 10
198.374161
 20
-16.085281
 30
0.0
  0
VERTEX
  5
189
100
AcDbEntity
  8
0
370
     0
390
0
100
AcDbVertex
100
AcDb2dVertex
 10
198.374161
 20
-16.458481
 30
0.0
  0
VERTEX
  5
18A
100
AcDbEntity
  8
0
370
     0
390
0
100
AcDbVertex
100
AcDb2dVertex
 10
200.638565
 20
-16.458481
 30
0.0
  0
VERTEX
  5
18B
100
AcDbEntity
  8
0
370
     0
390
0
100
AcDbVertex
100
AcDb2dVertex
 10
200.638565
 20
-16.085281
 30
0.0
  0
VERTEX
  5
18C
100
AcDbEntity
  8
0
370
     0
390
0
100
AcDbVertex
100
AcDb2dVertex
 10
199.730789
 20
-16.085281
 30
0.0
  0
VERTEX
  5
18D
100
AcDbEntity
  8
0
370
     0
390
0
100
AcDbVertex
100
AcDb2dVertex
 10
199.730789
 20
-12.837443
 30
0.0
  0
VERTEX
  5
18E
100
AcDbEntity
  8
0
370
     0
390
0
100
AcDbVertex
100
AcDb2dVertex
 10
198.591019
 20
-12.837443
 30
0.0
  0
VERTEX
  5
18F
100
AcDbEntity
  8
0
370
     0
390
0
100
AcDbVertex
100
AcDb2dVertex
 10
198.591019
 20
-13.210642
 30
0.0
  0
SEQEND
  5
190
100
AcDbEntity
  8
0
370
     0
390
0
  0
POLYLINE
  5
191
100
AcDbEntity
  8
0
370
    13
390
0
 62
     7
100
AcDb2dPolyline
 66
     1
 10
0.0
 20
0.0
 30
0.0
 70
     1
 71
    27
  0
VERTEX
  5
192
100
AcDbEntity
  8
0
370
     0
390
0
100
AcDbVertex
100
AcDb2dVertex
 10
201.828766
 20
-15.232977
 30
0.0
  0
VERTEX
  5
193
100
AcDbEntity
  8
0
370
     0
390
0
100
AcDbVertex
100
AcDb2dVertex
 10
203.603973
 20
-15.232977
 30
0.0
  0
VERTEX
  5
194
100
AcDbEntity
  8
0
370
     0
390
0
100
AcDbVertex
100
AcDb2dVertex
 10
203.609024
 20
-15.026204
 30
0.0
  0
VERTEX
  5
195
100
AcDbEntity
  8
0
370
     0
390
0
100
AcDbVertex
100
AcDb2dVertex
 10
203.528336
 20
-14.446233
 30
0.0
  0
VERTEX
  5
196
100
AcDbEntity
  8
0
370
     0
390
0
100
AcDbVertex
100
AcDb2dVertex
 10
203.306427
 20
-14.012515
 30
0.0
  0
VERTEX
  5
197
100
AcDbEntity
  8
0
370
     0
390
0
100
AcDbVertex
100
AcDb2dVertex
 10
202.9534
 20
-13.750267
 30
0.0
  0
VERTEX
  5
198
100
AcDbEntity
  8
0
370
     0
390
0
100
AcDbVertex
100
AcDb2dVertex
 10
202.48439
 20
-13.654446
 30
0.0
  0
VERTEX
  5
199
100
AcDbEntity
  8
0
370
     0
390
0
100
AcDbVertex
100
AcDb2dVertex
 10
202.025452
 20
-13.755311
 30
0.0
  0
VERTEX
  5
19A
100
AcDbEntity
  8
0
370
     0
390
0
100
AcDbVertex
100
AcDb2dVertex
 10
201.672424
 20
-14.037731
 30
0.0
  0
VERTEX
  5
19B
100
AcDbEntity
  8
0
370
     0
390
0
100
AcDbVertex
100
AcDb2dVertex
 10
201.44548
 20
-14.496665
 30
0.0
  0
VERTEX
  5
19C
100
AcDbEntity
  8
0
370
     0
390
0
100
AcDbVertex
100
AcDb2dVertex
 10
201.364792
 20
-15.101852
 30
0.0
  0
VERTEX
  5
19D
100
AcDbEntity
  8
0
370
     0
390
0
100
AcDbVertex
100
AcDb2dVertex
 10
201.44043
 20
-15.72217
 30
0.0
  0
VERTEX
  5
19E
100
AcDbEntity
  8
0
370
     0
390
0
100
AcDbVertex
100
AcDb2dVertex
 10
201.667389
 20
-16.17606
 30
0.0
  0
VERTEX
  5
19F
100
AcDbEntity
  8
0
370
     0
390
0
100
AcDbVertex
100
AcDb2dVertex
 10
202.015366
 20
-16.458481
 30
0.0
  0
VERTEX
  5
1A0
100
AcDbEntity
  8
0
370
     0
390
0
100
AcDbVertex
100
AcDb2dVertex
 10
202.469254
 20
-16.554302
 30
0.0
  0
VERTEX
  5
1A1
100
AcDbEntity
  8
0
370
     0
390
0
100
AcDbVertex
100
AcDb2dVertex
 10
202.862625
 20
-16.488741
 30
0.0
  0
VERTEX
  5
1A2
100
AcDbEntity
  8
0
370
     0
390
0
100
AcDbVertex
100
AcDb2dVertex
 10
203.185394
 20
-16.31727
 30
0.0
  0
VERTEX
  5
1A3
100
AcDbEntity
  8
0
370
     0
390
0
100
AcDbVertex
100
AcDb2dVertex
 10
203.422424
 20
-16.044935
 30
0.0
  0
VERTEX
  5
1A4
100
AcDbEntity
  8
0
370
     0
390
0
100
AcDbVertex
100
AcDb2dVertex
 10
203.558594
 20
-15.681824
 30
0.0
  0
VERTEX
  5
1A5
100
AcDbEntity
  8
0
370
     0
390
0
100
AcDbVertex
100
AcDb2dVertex
 10
203.119827
 20
-15.681824
 30
0.0
  0
VERTEX
  5
1A6
100
AcDbEntity
  8
0
370
     0
390
0
100
AcDbVertex
100
AcDb2dVertex
 10
203.029053
 20
-15.883553
 30
0.0
  0
VERTEX
  5
1A7
100
AcDbEntity
  8
0
370
     0
390
0
100
AcDbVertex
100
AcDb2dVertex
 10
202.897934
 20
-16.034849
 30
0.0
  0
VERTEX
  5
1A8
100
AcDbEntity
  8
0
370
     0
390
0
100
AcDbVertex
100
AcDb2dVertex
 10
202.524734
 20
-16.155888
 30
0.0
  0
VERTEX
  5
1A9
100
AcDbEntity
  8
0
370
     0
390
0
100
AcDbVertex
100
AcDb2dVertex
 10
202.237274
 20
-16.100412
 30
0.0
  0
VERTEX
  5
1AA
100
AcDbEntity
  8
0
370
     0
390
0
100
AcDbVertex
100
AcDb2dVertex
 10
202.020401
 20
-15.923899
 30
0.0
  0
VERTEX
  5
1AB
100
AcDbEntity
  8
0
370
     0
390
0
100
AcDbVertex
100
AcDb2dVertex
 10
201.879196
 20
-15.636435
 30
0.0
  0
VERTEX
  5
1AC
100
AcDbEntity
  8
0
370
     0
390
0
100
AcDbVertex
100
AcDb2dVertex
 10
201.828766
 20
-15.248106
 30
0.0
  0
SEQEND
  5
1AD
100
AcDbEntity
  8
0
370
     0
390
0
  0
POLYLINE
  5
1AE
100
AcDbEntity
  8
0
370
    13
390
0
 62
     7
100
AcDb2dPolyline
 66
     1
 10
0.0
 20
0.0
 30
0.0
 70
     1
 71
     9
  0
VERTEX
  5
1AF
100
AcDbEntity
  8
0
370
     0
390
0
100
AcDbVertex
100
AcDb2dVertex
 10
201.828766
 20
-14.859777
 30
0.0
  0
VERTEX
  5
1B0
100
AcDbEntity
  8
0
370
     0
390
0
100
AcDbVertex
100
AcDb2dVertex
 10
201.884247
 20
-14.511795
 30
0.0
  0
VERTEX
  5
1B1
100
AcDbEntity
  8
0
370
     0
390
0
100
AcDbVertex
100
AcDb2dVertex
 10
202.020401
 20
-14.25459
 30
0.0
  0
VERTEX
  5
1B2
100
AcDbEntity
  8
0
370
     0
390
0
100
AcDbVertex
100
AcDb2dVertex
 10
202.227173
 20
-14.09825
 30
0.0
  0
VERTEX
  5
1B3
100
AcDbEntity
  8
0
370
     0
390
0
100
AcDbVertex
100
AcDb2dVertex
 10
202.499512
 20
-14.042774
 30
0.0
  0
VERTEX
  5
1B4
100
AcDbEntity
  8
0
370
     0
390
0
100
AcDbVertex
100
AcDb2dVertex
 10
202.7668
 20
-14.09825
 30
0.0
  0
VERTEX
  5
1B5
100
AcDbEntity
  8
0
370
     0
390
0
100
AcDbVertex
100
AcDb2dVertex
 10
202.973572
 20
-14.25459
 30
0.0
  0
VERTEX
  5
1B6
100
AcDbEntity
  8
0
370
     0
390
0
100
AcDbVertex
100
AcDb2dVertex
 10
203.099655
 20
-14.511795
 30
0.0
  0
VERTEX
  5
1B7
100
AcDbEntity
  8
0
370
     0
390
0
100
AcDbVertex
100
AcDb2dVertex
 10
203.14505
 20
-14.859777
 30
0.0
  0
SEQEND
  5
1B8
100
AcDbEntity
  8
0
370
     0
390
0
  0
POLYLINE
  5
1B9
100
AcDbEntity
  8
0
370
    13
390
0
 62
     7
100
AcDb2dPolyline
 66
     1
 10
0.0
 20
0.0
 30
0.0
 70
     1
 71
     4
  0
VERTEX
  5
1BA
100
AcDbEntity
  8
0
370
     0
390
0
100
AcDbVertex
100
AcDb2dVertex
 10
205.172424
 20
-16.458481
 30
0.0
  0
VERTEX
  5
1BB
100
AcDbEntity
  8
0
370
     0
390
0
100
AcDbVertex
100
AcDb2dVertex
 10
205.868393
 20
-16.458481
 30
0.0
  0
VERTEX
  5
1BC
100
AcDbEntity
  8
0
370
     0
390
0
100
AcDbVertex
100
AcDb2dVertex
 10
205.868393
 20
-15.70704
 30
0.0
  0
VERTEX
  5
1BD
100
AcDbEntity
  8
0
370
     0
390
0
100
AcDbVertex
100
AcDb2dVertex
 10
205.172424
 20
-15.70704
 30
0.0
  0
SEQEND
  5
1BE
100
AcDbEntity
  8
0
370
     0
390
0
  0
POLYLINE
  5
1BF
100
AcDbEntity
  8
0
370
    13
390
0
 62
     7
100
AcDb2dPolyline
 66
     1
 10
0.0
 20
0.0
 30
0.0
 70
     1
 71
     4
  0
VERTEX
  5
1C0
100
AcDbEntity
  8
0
370
     0
390
0
100
AcDbVertex
100
AcDb2dVertex
 10
205.172424
 20
-14.501709
 30
0.0
  0
VERTEX
  5
1C1
100
AcDbEntity
  8
0
370
     0
390
0
100
AcDbVertex
100
AcDb2dVertex
 10
205.868393
 20
-14.501709
 30
0.0
  0
VERTEX
  5
1C2
100
AcDbEntity
  8
0
370
     0
390
0
100
AcDbVertex
100
AcDb2dVertex
 10
205.868393
 20
-13.750267
 30
0.0
  0
VERTEX
  5
1C3
100
AcDbEntity
  8
0
370
     0
390
0
100
AcDbVertex
100
AcDb2dVertex
 10
205.172424
 20
-13.750267
 30
0.0
  0
SEQEND
  5
1C4
100
AcDbEntity
  8
0
370
     0
390
0
  0
POLYLINE
  5
1C5
100
AcDbEntity
  8
0
370
    13
390
0
 62
     7
100
AcDb2dPolyline
 66
     1
 10
0.0
 20
0.0
 30
0.0
 70
     1
 71
    10
  0
VERTEX
  5
1C6
100
AcDbEntity
  8
0
370
     0
390
0
100
AcDbVertex
100
AcDb2dVertex
 10
214.537704
 20
-16.458481
 30
0.0
  0
VERTEX
  5
1C7
100
AcDbEntity
  8
0
370
     0
390
0
100
AcDbVertex
100
AcDb2dVertex
 10
214.996628
 20
-16.458481
 30
0.0
  0
VERTEX
  5
1C8
100
AcDbEntity
  8
0
370
     0
390
0
100
AcDbVertex
100
AcDb2dVertex
 10
214.996628
 20
-12.933265
 30
0.0
  0
VERTEX
  5
1C9
100
AcDbEntity
  8
0
370
     0
390
0
100
AcDbVertex
100
AcDb2dVertex
 10
214.653687
 20
-12.933265
 30
0.0
  0
VERTEX
  5
1CA
100
AcDbEntity
  8
0
370
     0
390
0
100
AcDbVertex
100
AcDb2dVertex
 10
214.562912
 20
-13.240902
 30
0.0
  0
VERTEX
  5
1CB
100
AcDbEntity
  8
0
370
     0
390
0
100
AcDbVertex
100
AcDb2dVertex
 10
214.381363
 20
-13.447674
 30
0.0
  0
VERTEX
  5
1CC
100
AcDbEntity
  8
0
370
     0
390
0
100
AcDbVertex
100
AcDb2dVertex
 10
214.103973
 20
-13.568711
 30
0.0
  0
VERTEX
  5
1CD
100
AcDbEntity
  8
0
370
     0
390
0
100
AcDbVertex
100
AcDb2dVertex
 10
213.720703
 20
-13.609057
 30
0.0
  0
VERTEX
  5
1CE
100
AcDbEntity
  8
0
370
     0
390
0
100
AcDbVertex
100
AcDb2dVertex
 10
213.720703
 20
-13.967127
 30
0.0
  0
VERTEX
  5
1CF
100
AcDbEntity
  8
0
370
     0
390
0
100
AcDbVertex
100
AcDb2dVertex
 10
214.537704
 20
-13.967127
 30
0.0
  0
SEQEND
  5
1D0
100
AcDbEntity
  8
0
370
     0
390
0
  0
POLYLINE
  5
1D1
100
AcDbEntity
  8
0
370
    13
390
0
 62
     7
100
AcDb2dPolyline
 66
     1
 10
0.0
 20
0.0
 30
0.0
 70
     1
 71
     4
  0
VERTEX
  5
1D2
100
AcDbEntity
  8
0
370
     0
390
0
100
AcDbVertex
100
AcDb2dVertex
 10
217.316513
 20
-16.458481
 30
0.0
  0
VERTEX
  5
1D3
100
AcDbEntity
  8
0
370
     0
390
0
100
AcDbVertex
100
AcDb2dVertex
 10
218.012482
 20
-16.458481
 30
0.0
  0
VERTEX
  5
1D4
100
AcDbEntity
  8
0
370
     0
390
0
100
AcDbVertex
100
AcDb2dVertex
 10
218.012482
 20
-15.70704
 30
0.0
  0
VERTEX
  5
1D5
100
AcDbEntity
  8
0
370
     0
390
0
100
AcDbVertex
100
AcDb2dVertex
 10
217.316513
 20
-15.70704
 30
0.0
  0
SEQEND
  5
1D6
100
AcDbEntity
  8
0
370
     0
390
0
  0
POLYLINE
  5
1D7
100
AcDbEntity
  8
0
370
    13
390
0
 62
     7
100
AcDb2dPolyline
 66
     1
 10
0.0
 20
0.0
 30
0.0
 70
     1
 71
     4
  0
VERTEX
  5
1D8
100
AcDbEntity
  8
0
370
     0
390
0
100
AcDbVertex
100
AcDb2dVertex
 10
217.316513
 20
-14.501709
 30
0.0
  0
VERTEX
  5
1D9
100
AcDbEntity
  8
0
370
     0
390
0
100
AcDbVertex
100
AcDb2dVertex
 10
218.012482
 20
-14.501709
 30
0.0
  0
VERTEX
  5
1DA
100
AcDbEntity
  8
0
370
     0
390
0
100
AcDbVertex
100
AcDb2dVertex
 10
218.012482
 20
-13.750267
 30
0.0
  0
VERTEX
  5
1DB
100
AcDbEntity
  8
0
370
     0
390
0
100
AcDbVertex
100
AcDb2dVertex
 10
217.316513
 20
-13.750267
 30
0.0
  0
SEQEND
  5
1DC
100
AcDbEntity
  8
0
370
     0
390
0
  0
POLYLINE
  5
1DD
100
AcDbEntity
  8
0
370
    13
390
0
 62
     7
100
AcDb2dPolyline
 66
     1
 10
0.0
 20
0.0
 30
0.0
 70
     1
 71
    10
  0
VERTEX
  5
1DE
100
AcDbEntity
  8
0
370
     0
390
0
100
AcDbVertex
100
AcDb2dVertex
 10
220.609741
 20
-16.458481
 30
0.0
  0
VERTEX
  5
1DF
100
AcDbEntity
  8
0
370
     0
390
0
100
AcDbVertex
100
AcDb2dVertex
 10
221.06868
 20
-16.458481
 30
0.0
  0
VERTEX
  5
1E0
100
AcDbEntity
  8
0
370
     0
390
0
100
AcDbVertex
100
AcDb2dVertex
 10
221.06868
 20
-12.933265
 30
0.0
  0
VERTEX
  5
1E1
100
AcDbEntity
  8
0
370
     0
390
0
100
AcDbVertex
100
AcDb2dVertex
 10
220.725739
 20
-12.933265
 30
0.0
  0
VERTEX
  5
1E2
100
AcDbEntity
  8
0
370
     0
390
0
100
AcDbVertex
100
AcDb2dVertex
 10
220.634964
 20
-13.240902
 30
0.0
  0
VERTEX
  5
1E3
100
AcDbEntity
  8
0
370
     0
390
0
100
AcDbVertex
100
AcDb2dVertex
 10
220.4534
 20
-13.447674
 30
0.0
  0
VERTEX
  5
1E4
100
AcDbEntity
  8
0
370
     0
390
0
100
AcDbVertex
100
AcDb2dVertex
 10
220.176025
 20
-13.568711
 30
0.0
  0
VERTEX
  5
1E5
100
AcDbEntity
  8
0
370
     0
390
0
100
AcDbVertex
100
AcDb2dVertex
 10
219.79274
 20
-13.609057
 30
0.0
  0
VERTEX
  5
1E6
100
AcDbEntity
  8
0
370
     0
390
0
100
AcDbVertex
100
AcDb2dVertex
 10
219.79274
 20
-13.967127
 30
0.0
  0
VERTEX
  5
1E7
100
AcDbEntity
  8
0
370
     0
390
0
100
AcDbVertex
100
AcDb2dVertex
 10
220.609741
 20
-13.967127
 30
0.0
  0
SEQEND
  5
1E8
100
AcDbEntity
  8
0
370
     0
390
0
  0
POLYLINE
  5
1E9
100
AcDbEntity
  8
0
370
    35
390
0
 62
     7
100
AcDb2dPolyline
 66
     1
 10
0.0
 20
0.0
 30
0.0
 71
     7
  0
VERTEX
  5
1EA
100
AcDbEntity
  8
0
370
     0
390
0
100
AcDbVertex
100
AcDb2dVertex
 10
76.393944
 20
171.293747
 30
0.0
  0
VERTEX
  5
1EB
100
AcDbEntity
  8
0
370
     0
390
0
100
AcDbVertex
100
AcDb2dVertex
 10
79.438416
 20
171.586975
 30
0.0
  0
VERTEX
  5
1EC
100
AcDbEntity
  8
0
370
     0
390
0
100
AcDbVertex
100
AcDb2dVertex
 10
82.486839
 20
171.836639
 30
0.0
  0
VERTEX
  5
1ED
100
AcDbEntity
  8
0
370
     0
390
0
100
AcDbVertex
100
AcDb2dVertex
 10
87.460007
 20
172.158173
 30
0.0
  0
VERTEX
  5
1EE
100
AcDbEntity
  8
0
370
     0
390
0
100
AcDbVertex
100
AcDb2dVertex
 10
92.438553
 20
172.385529
 30
0.0
  0
VERTEX
  5
1EF
100
AcDbEntity
  8
0
370
     0
390
0
100
AcDbVertex
100
AcDb2dVertex
 10
97.41996
 20
172.52948
 30
0.0
  0
VERTEX
  5
1F0
100
AcDbEntity
  8
0
370
     0
390
0
100
AcDbVertex
100
AcDb2dVertex
 10
100.830757
 20
172.583954
 30
0.0
  0
SEQEND
  5
1F1
100
AcDbEntity
  8
0
370
     0
390
0
  0
LINE
  5
1F2
100
AcDbEntity
  8
0
370
    35
390
0
 62
     7
 48
0.0125
100
AcDbLine
 10
100.830757
 20
158.027634
 30
0.0
 11
101.330757
 21
158.027634
 31
0.0
210
0.0
220
0.0
230
1.0
  0
LINE
  5
1F3
100
AcDbEntity
  8
0
370
    35
390
0
 62
     7
 48
0.0125
100
AcDbLine
 10
101.330757
 20
158.027634
 30
0.0
 11
101.830757
 21
158.027634
 31
0.0
210
0.0
220
0.0
230
1.0
  0
POLYLINE
  5
1F4
100
AcDbEntity
  8
0
370
    35
390
0
 62
     7
100
AcDb2dPolyline
 66
     1
 10
0.0
 20
0.0
 30
0.0
 71
    10
  0
VERTEX
  5
1F5
100
AcDbEntity
  8
0
370
     0
390
0
100
AcDbVertex
100
AcDb2dVertex
 10
101.830757
 20
172.593475
 30
0.0
  0
VERTEX
  5
1F6
100
AcDbEntity
  8
0
370
     0
390
0
100
AcDbVertex
100
AcDb2dVertex
 10
105.703522
 20
172.603943
 30
0.0
  0
VERTEX
  5
1F7
100
AcDbEntity
  8
0
370
     0
390
0
100
AcDbVertex
100
AcDb2dVertex
 10
109.576271
 20
172.574509
 30
0.0
  0
VERTEX
  5
1F8
100
AcDbEntity
  8
0
370
     0
390
0
100
AcDbVertex
100
AcDb2dVertex
 10
117.320221
 20
172.406494
 30
0.0
  0
VERTEX
  5
1F9
100
AcDbEntity
  8
0
370
     0
390
0
100
AcDbVertex
100
AcDb2dVertex
 10
125.060097
 20
172.109268
 30
0.0
  0
VERTEX
  5
1FA
100
AcDbEntity
  8
0
370
     0
390
0
100
AcDbVertex
100
AcDb2dVertex
 10
130.467133
 20
171.833817
 30
0.0
  0
VERTEX
  5
1FB
100
AcDbEntity
  8
0
370
     0
390
0
100
AcDbVertex
100
AcDb2dVertex
 10
135.871353
 20
171.507401
 30
0.0
  0
VERTEX
  5
1FC
100
AcDbEntity
  8
0
370
     0
390
0
100
AcDbVertex
100
AcDb2dVertex
 10
143.354599
 20
170.974289
 30
0.0
  0
VERTEX
  5
1FD
100
AcDbEntity
  8
0
370
     0
390
0
100
AcDbVertex
100
AcDb2dVertex
 10
150.830994
 20
170.350418
 30
0.0
  0
VERTEX
  5
1FE
100
AcDbEntity
  8
0
370
     0
390
0
100
AcDbVertex
100
AcDb2dVertex
 10
158.2995
 20
169.64035
 30
0.0
  0
SEQEND
  5
1FF
100
AcDbEntity
  8
0
370
     0
390
0
  0
POLYLINE
  5
200
100
AcDbEntity
  8
0
370
    35
390
0
 62
     7
100
AcDb2dPolyline
 66
     1
 10
0.0
 20
0.0
 30
0.0
 71
    25
  0
VERTEX
  5
201
100
AcDbEntity
  8
0
370
     0
390
0
100
AcDbVertex
100
AcDb2dVertex
 10
380.156982
 20
124.44252
 30
0.0
  0
VERTEX
  5
202
100
AcDbEntity
  8
0
370
     0
390
0
100
AcDbVertex
100
AcDb2dVertex
 10
375.98407
 20
125.362228
 30
0.0
  0
VERTEX
  5
203
100
AcDbEntity
  8
0
370
     0
390
0
100
AcDbVertex
100
AcDb2dVertex
 10
373.212006
 20
126.01944
 30
0.0
  0
VERTEX
  5
204
100
AcDbEntity
  8
0
370
     0
390
0
100
AcDbVertex
100
AcDb2dVertex
 10
367.682312
 20
127.392204
 30
0.0
  0
VERTEX
  5
205
100
AcDbEntity
  8
0
370
     0
390
0
100
AcDbVertex
100
AcDb2dVertex
 10
357.605713
 20
129.9991
 30
0.0
  0
VERTEX
  5
206
100
AcDbEntity
  8
0
370
     0
390
0
100
AcDbVertex
100
AcDb2dVertex
 10
342.513306
 20
133.994003
 30
0.0
  0
VERTEX
  5
207
100
AcDbEntity
  8
0
370
     0
390
0
100
AcDbVertex
100
AcDb2dVertex
 10
327.90155
 20
137.84227
 30
0.0
  0
VERTEX
  5
208
100
AcDbEntity
  8
0
370
     0
390
0
100
AcDbVertex
100
AcDb2dVertex
 10
320.585358
 20
139.736771
 30
0.0
  0
VERTEX
  5
209
100
AcDbEntity
  8
0
370
     0
390
0
100
AcDbVertex
100
AcDb2dVertex
 10
307.203644
 20
143.112732
 30
0.0
  0
VERTEX
  5
20A
100
AcDbEntity
  8
0
370
     0
390
0
100
AcDbVertex
100
AcDb2dVertex
 10
300.506622
 20
144.747192
 30
0.0
  0
VERTEX
  5
20B
100
AcDbEntity
  8
0
370
     0
390
0
100
AcDbVertex
100
AcDb2dVertex
 10
293.78653
 20
146.345169
 30
0.0
  0
VERTEX
  5
20C
100
AcDbEntity
  8
0
370
     0
390
0
100
AcDbVertex
100
AcDb2dVertex
 10
284.868774
 20
148.398178
 30
0.0
  0
VERTEX
  5
20D
100
AcDbEntity
  8
0
370
     0
390
0
100
AcDbVertex
100
AcDb2dVertex
 10
275.924713
 20
150.380066
 30
0.0
  0
VERTEX
  5
20E
100
AcDbEntity
  8
0
370
     0
390
0
100
AcDbVertex
100
AcDb2dVertex
 10
266.974701
 20
152.287415
 30
0.0
  0
VERTEX
  5
20F
100
AcDbEntity
  8
0
370
     0
390
0
100
AcDbVertex
100
AcDb2dVertex
 10
255.862793
 20
154.553329
 30
0.0
  0
VERTEX
  5
210
100
AcDbEntity
  8
0
370
     0
390
0
100
AcDbVertex
100
AcDb2dVertex
 10
244.730469
 20
156.716568
 30
0.0
  0
VERTEX
  5
211
100
AcDbEntity
  8
0
370
     0
390
0
100
AcDbVertex
100
AcDb2dVertex
 10
233.579742
 20
158.783005
 30
0.0
  0
VERTEX
  5
212
100
AcDbEntity
  8
0
370
     0
390
0
100
AcDbVertex
100
AcDb2dVertex
 10
222.411697
 20
160.753662
 30
0.0
  0
VERTEX
  5
213
100
AcDbEntity
  8
0
370
     0
390
0
100
AcDbVertex
100
AcDb2dVertex
 10
210.825974
 20
162.684479
 30
0.0
  0
VERTEX
  5
214
100
AcDbEntity
  8
0
370
     0
390
0
100
AcDbVertex
100
AcDb2dVertex
 10
200.353775
 20
164.315353
 30
0.0
  0
VERTEX
  5
215
100
AcDbEntity
  8
0
370
     0
390
0
100
AcDbVertex
100
AcDb2dVertex
 10
189.864441
 20
165.832092
 30
0.0
  0
VERTEX
  5
216
100
AcDbEntity
  8
0
370
     0
390
0
100
AcDbVertex
100
AcDb2dVertex
 10
179.358566
 20
167.230301
 30
0.0
  0
VERTEX
  5
217
100
AcDbEntity
  8
0
370
     0
390
0
100
AcDbVertex
100
AcDb2dVertex
 10
168.836853
 20
168.503983
 30
0.0
  0
VERTEX
  5
218
100
AcDbEntity
  8
0
370
     0
390
0
100
AcDbVertex
100
AcDb2dVertex
 10
163.570145
 20
169.09053
 30
0.0
  0
VERTEX
  5
219
100
AcDbEntity
  8
0
370
     0
390
0
100
AcDbVertex
100
AcDb2dVertex
 10
158.2995
 20
169.64035
 30
0.0
  0
SEQEND
  5
21A
100
AcDbEntity
  8
0
370
     0
390
0
  0
LINE
  5
21B
100
AcDbEntity
  8
0
370
    35
390
0
 62
     7
 48
0.007673
100
AcDbLine
 10
380.457581
 20
124.380562
 30
0.0
 11
380.156982
 21
124.44252
 31
0.0
210
0.0
220
0.0
230
1.0
  0
ARC
  5
21C
100
AcDbEntity
  8
0
370
    35
390
0
 62
     7
100
AcDbCircle
 10
291.18161
 20
139.253143
 30
0.0
 40
6.941012
210
0.0
220
0.0
230
1.0
100
AcDbArc
 50
183.083088
 51
185.234502
  0
ARC
  5
21D
100
AcDbEntity
  8
0
370
    35
390
0
 62
     7
100
AcDbCircle
 10
286.54248
 20
138.830872
 30
0.0
 40
2.282864
210
0.0
220
0.0
230
1.0
100
AcDbArc
 50
185.302886
 51
263.370554
  0
ARC
  5
21E
100
AcDbEntity
  8
0
370
    35
390
0
 62
     7
100
AcDbCircle
 10
286.675659
 20
139.954391
 30
0.0
 40
3.414544
210
0.0
220
0.0
230
1.0
100
AcDbArc
 50
263.327231
 51
266.332097
  0
POLYLINE
  5
21F
100
AcDbEntity
  8
0
370
    35
390
0
 62
     7
100
AcDb2dPolyline
 66
     1
 10
0.0
 20
0.0
 30
0.0
 71
     4
  0
VERTEX
  5
220
100
AcDbEntity
  8
0
370
     0
390
0
100
AcDbVertex
100
AcDb2dVertex
 10
323.59317
 20
134.03273
 30
0.0
  0
VERTEX
  5
221
100
AcDbEntity
  8
0
370
     0
390
0
100
AcDbVertex
100
AcDb2dVertex
 10
312.855682
 20
134.793915
 30
0.0
  0
VERTEX
  5
222
100
AcDbEntity
  8
0
370
     0
390
0
100
AcDbVertex
100
AcDb2dVertex
 10
299.671387
 20
135.686356
 30
0.0
  0
VERTEX
  5
223
100
AcDbEntity
  8
0
370
     0
390
0
100
AcDbVertex
100
AcDb2dVertex
 10
286.457214
 20
136.546829
 30
0.0
  0
SEQEND
  5
224
100
AcDbEntity
  8
0
370
     0
390
0
  0
ARC
  5
225
100
AcDbEntity
  8
0
370
    35
390
0
 62
     7
100
AcDbCircle
 10
268.058655
 20
145.300949
 30
0.0
 40
1.933201
210
0.0
220
0.0
230
1.0
100
AcDbArc
 50
169.494669
 51
205.300177
  0
ARC
  5
226
100
AcDbEntity
  8
0
370
    35
390
0
 62
     7
100
AcDbCircle
 10
269.299103
 20
145.904526
 30
0.0
 40
3.312793
210
0.0
220
0.0
230
1.0
100
AcDbArc
 50
205.569614
 51
228.223453
  0
LINE
  5
227
100
AcDbEntity
  8
0
370
    35
390
0
 62
     7
 48
0.115671
100
AcDbLine
 10
270.543701
 20
140.35289
 30
0.0
 11
267.09198
 21
143.433975
 31
0.0
210
0.0
220
0.0
230
1.0
  0
LINE
  5
228
100
AcDbEntity
  8
0
370
    35
390
0
 62
     7
 48
0.003652
100
AcDbLine
 10
270.654114
 20
140.257263
 30
0.0
 11
270.543701
 21
140.35289
 31
0.0
210
0.0
220
0.0
230
1.0
  0
POLYLINE
  5
229
100
AcDbEntity
  8
0
370
    35
390
0
 62
     7
100
AcDb2dPolyline
 66
     1
 10
0.0
 20
0.0
 30
0.0
 71
    11
  0
VERTEX
  5
22A
100
AcDbEntity
  8
0
370
     0
390
0
100
AcDbVertex
100
AcDb2dVertex
 10
270.654114
 20
140.257263
 30
0.0
  0
VERTEX
  5
22B
100
AcDbEntity
  8
0
370
     0
390
0
100
AcDbVertex
100
AcDb2dVertex
 10
270.976257
 20
140.036758
 30
0.0
  0
VERTEX
  5
22C
100
AcDbEntity
  8
0
370
     0
390
0
100
AcDbVertex
100
AcDb2dVertex
 10
271.335358
 20
139.883987
 30
0.0
  0
VERTEX
  5
22D
100
AcDbEntity
  8
0
370
     0
390
0
100
AcDbVertex
100
AcDb2dVertex
 10
271.717224
 20
139.805084
 30
0.0
  0
VERTEX
  5
22E
100
AcDbEntity
  8
0
370
     0
390
0
100
AcDbVertex
100
AcDb2dVertex
 10
272.106659
 20
139.802933
 30
0.0
  0
VERTEX
  5
22F
100
AcDbEntity
  8
0
370
     0
390
0
100
AcDbVertex
100
AcDb2dVertex
 10
272.488556
 20
139.877243
 30
0.0
  0
VERTEX
  5
230
100
AcDbEntity
  8
0
370
     0
390
0
100
AcDbVertex
100
AcDb2dVertex
 10
272.8479
 20
140.024857
 30
0.0
  0
VERTEX
  5
231
100
AcDbEntity
  8
0
370
     0
390
0
100
AcDbVertex
100
AcDb2dVertex
 10
273.169556
 20
140.239059
 30
0.0
  0
VERTEX
  5
232
100
AcDbEntity
  8
0
370
     0
390
0
100
AcDbVertex
100
AcDb2dVertex
 10
273.442169
 20
140.511856
 30
0.0
  0
VERTEX
  5
233
100
AcDbEntity
  8
0
370
     0
390
0
100
AcDbVertex
100
AcDb2dVertex
 10
273.65509
 20
140.832397
 30
0.0
  0
VERTEX
  5
234
100
AcDbEntity
  8
0
370
     0
390
0
100
AcDbVertex
100
AcDb2dVertex
 10
273.792175
 20
141.161331
 30
0.0
  0
SEQEND
  5
235
100
AcDbEntity
  8
0
370
     0
390
0
  0
ARC
  5
236
100
AcDbEntity
  8
0
370
    35
390
0
 62
     7
100
AcDbCircle
 10
270.655945
 20
142.136536
 30
0.0
 40
3.284401
210
0.0
220
0.0
230
1.0
100
AcDbArc
 50
342.727235
 51
356.161402
  0
ARC
  5
237
100
AcDbEntity
  8
0
370
    35
390
0
 62
     7
100
AcDbCircle
 10
245.433899
 20
141.744034
 30
0.0
 40
2.631257
210
0.0
220
0.0
230
1.0
100
AcDbArc
 50
176.201464
 51
261.745243
  0
ARC
  5
238
100
AcDbEntity
  8
0
370
    35
390
0
 62
     7
100
AcDbCircle
 10
246.373596
 20
148.304153
 30
0.0
 40
9.257981
210
0.0
220
0.0
230
1.0
100
AcDbArc
 50
261.818913
 51
266.51738
  0
LINE
  5
239
100
AcDbEntity
  8
0
370
    35
390
0
 62
     7
 48
0.353434
100
AcDbLine
 10
259.922363
 20
138.202637
 30
0.0
 11
245.811218
 21
139.063263
 31
0.0
210
0.0
220
0.0
230
1.0
  0
ARC
  5
23A
100
AcDbEntity
  8
0
370
    35
390
0
 62
     7
100
AcDbCircle
 10
260.48822
 20
147.441986
 30
0.0
 40
9.256668
210
0.0
220
0.0
230
1.0
100
AcDbArc
 50
266.495284
 51
270.316304
  0
ARC
  5
23B
100
AcDbEntity
  8
0
370
    35
390
0
 62
     7
100
AcDbCircle
 10
260.522461
 20
140.82193
 30
0.0
 40
2.636762
210
0.0
220
0.0
230
1.0
100
AcDbArc
 50
270.366594
 51
355.68826
  0
ARC
  5
23C
100
AcDbEntity
  8
0
370
    35
390
0
 62
     7
100
AcDbCircle
 10
240.244522
 20
157.881271
 30
0.0
 40
19.719647
210
0.0
220
0.0
230
1.0
100
AcDbArc
 50
228.490308
 51
231.518309
  0
ARC
  5
23D
100
AcDbEntity
  8
0
370
    35
390
0
 62
     7
100
AcDbCircle
 10
231.250351
 20
146.567444
 30
0.0
 40
5.266389
210
0.0
220
0.0
230
1.0
100
AcDbArc
 50
231.523759
 51
298.331458
  0
ARC
  5
23E
100
AcDbEntity
  8
0
370
    35
390
0
 62
     7
100
AcDbCircle
 10
224.385254
 20
159.292542
 30
0.0
 40
19.725155
210
0.0
220
0.0
230
1.0
100
AcDbArc
 50
298.342537
 51
301.92717
  0
LINE
  5
23F
100
AcDbEntity
  8
0
370
    35
390
0
 62
     7
 48
0.238619
100
AcDbLine
 10
234.816711
 20
142.551392
 30
0.0
 11
242.917404
 21
147.599258
 31
0.0
210
0.0
220
0.0
230
1.0
  0
ARC
  5
240
100
AcDbEntity
  8
0
370
    35
390
0
 62
     7
100
AcDbCircle
 10
241.017426
 20
150.648193
 30
0.0
 40
3.592481
210
0.0
220
0.0
230
1.0
100
AcDbArc
 50
301.929547
 51
305.136287
  0
ARC
  5
241
100
AcDbEntity
  8
0
370
    35
390
0
 62
     7
100
AcDbCircle
 10
241.577194
 20
149.859055
 30
0.0
 40
2.624836
210
0.0
220
0.0
230
1.0
100
AcDbArc
 50
305.057634
 51
354.399972
  0
ARC
  5
242
100
AcDbEntity
  8
0
370
    35
390
0
 62
     7
100
AcDbCircle
 10
218.960358
 20
153.90155
 30
0.0
 40
2.633261
210
0.0
220
0.0
230
1.0
100
AcDbArc
 50
181.728907
 51
228.482904
  0
LINE
  5
243
100
AcDbEntity
  8
0
370
    35
390
0
 62
     7
 48
0.332532
100
AcDbLine
 10
227.175385
 20
143.114334
 30
0.0
 11
217.214935
 21
151.929886
 31
0.0
210
0.0
220
0.0
230
1.0
  0
ARC
  5
244
100
AcDbEntity
  8
0
370
    35
390
0
 62
     7
100
AcDbCircle
 10
186.645309
 20
145.402115
 30
0.0
 40
2.589516
210
0.0
220
0.0
230
1.0
100
AcDbArc
 50
187.993994
 51
258.098919
  0
ARC
  5
245
100
AcDbEntity
  8
0
370
    35
390
0
 62
     7
100
AcDbCircle
 10
188.187607
 20
152.847443
 30
0.0
 40
10.19234
210
0.0
220
0.0
230
1.0
100
AcDbArc
 50
258.246499
 51
266.254212
  0
ARC
  5
246
100
AcDbEntity
  8
0
370
    35
390
0
 62
     7
100
AcDbCircle
 10
739.190552
 20
8657.454102
 30
0.0
 40
8532.629577
210
0.0
220
0.0
230
1.0
100
AcDbArc
 50
266.293008
 51
266.487074
  0
ARC
  5
247
100
AcDbEntity
  8
0
370
    35
390
0
 62
     7
100
AcDbCircle
 10
216.988541
 20
151.00441
 30
0.0
 40
10.167115
210
0.0
220
0.0
230
1.0
100
AcDbArc
 50
266.483898
 51
272.506199
  0
ARC
  5
248
100
AcDbEntity
  8
0
370
    35
390
0
 62
     7
100
AcDbCircle
 10
217.312943
 20
143.458969
 30
0.0
 40
2.615294
210
0.0
220
0.0
230
1.0
100
AcDbArc
 50
272.634217
 51
355.815533
  0
ARC
  5
249
100
AcDbEntity
  8
0
370
    35
390
0
 62
     7
100
AcDbCircle
 10
172.579346
 20
150.295792
 30
0.0
 40
5.245029
210
0.0
220
0.0
230
1.0
100
AcDbArc
 50
228.443535
 51
295.238229
  0
ARC
  5
24A
100
AcDbEntity
  8
0
370
    35
390
0
 62
     7
100
AcDbCircle
 10
166.339233
 20
163.481232
 30
0.0
 40
19.832089
210
0.0
220
0.0
230
1.0
100
AcDbArc
 50
295.302946
 51
301.915641
  0
LINE
  5
24B
100
AcDbEntity
  8
0
370
    35
390
0
 62
     7
 48
0.439921
100
AcDbLine
 10
176.823868
 20
146.647217
 30
0.0
 11
191.758804
 21
155.952942
 31
0.0
210
0.0
220
0.0
230
1.0
  0
ARC
  5
24C
100
AcDbEntity
  8
0
370
    35
390
0
 62
     7
100
AcDbCircle
 10
189.858124
 20
159.002441
 30
0.0
 40
3.593326
210
0.0
220
0.0
230
1.0
100
AcDbArc
 50
301.934445
 51
313.073264
  0
ARC
  5
24D
100
AcDbEntity
  8
0
370
    35
390
0
 62
     7
100
AcDbCircle
 10
190.532639
 20
158.285797
 30
0.0
 40
2.608993
210
0.0
220
0.0
230
1.0
100
AcDbArc
 50
313.000697
 51
1.759418
  0
ARC
  5
24E
100
AcDbEntity
  8
0
370
    35
390
0
 62
     7
100
AcDbCircle
 10
154.832733
 20
162.515045
 30
0.0
 40
2.632629
210
0.0
220
0.0
230
1.0
100
AcDbArc
 50
193.463281
 51
228.486811
  0
LINE
  5
24F
100
AcDbEntity
  8
0
370
    35
390
0
 62
     7
100
AcDbLine
 10
169.099792
 20
146.370667
 30
0.0
 11
153.08786
 21
160.543732
 31
0.0
210
0.0
220
0.0
230
1.0
  0
ARC
  5
250
100
AcDbEntity
  8
0
370
    35
390
0
 62
     7
100
AcDbCircle
 10
120.463127
 20
150.359619
 30
0.0
 40
2.559954
210
0.0
220
0.0
230
1.0
100
AcDbArc
 50
184.454221
 51
254.037702
  0
ARC
  5
251
100
AcDbEntity
  8
0
370
    35
390
0
 62
     7
100
AcDbCircle
 10
122.247238
 20
156.653763
 30
0.0
 40
9.101448
210
0.0
220
0.0
230
1.0
100
AcDbArc
 50
254.135906
 51
264.901494
  0
POLYLINE
  5
252
100
AcDbEntity
  8
0
370
    35
390
0
 62
     7
100
AcDb2dPolyline
 66
     1
 10
0.0
 20
0.0
 30
0.0
 71
     4
  0
VERTEX
  5
253
100
AcDbEntity
  8
0
370
     0
390
0
100
AcDbVertex
100
AcDb2dVertex
 10
121.438408
 20
147.588333
 30
0.0
  0
VERTEX
  5
254
100
AcDbEntity
  8
0
370
     0
390
0
100
AcDbVertex
100
AcDb2dVertex
 10
133.598984
 20
146.551758
 30
0.0
  0
VERTEX
  5
255
100
AcDbEntity
  8
0
370
     0
390
0
100
AcDbVertex
100
AcDb2dVertex
 10
145.764236
 20
145.592651
 30
0.0
  0
VERTEX
  5
256
100
AcDbEntity
  8
0
370
     0
390
0
100
AcDbVertex
100
AcDb2dVertex
 10
157.936279
 20
144.692032
 30
0.0
  0
SEQEND
  5
257
100
AcDbEntity
  8
0
370
     0
390
0
  0
ARC
  5
258
100
AcDbEntity
  8
0
370
    35
390
0
 62
     7
100
AcDbCircle
 10
158.590546
 20
153.787476
 30
0.0
 40
9.118947
210
0.0
220
0.0
230
1.0
100
AcDbArc
 50
265.885614
 51
269.311166
  0
ARC
  5
259
100
AcDbEntity
  8
0
370
    35
390
0
 62
     7
100
AcDbCircle
 10
158.510315
 20
147.308075
 30
0.0
 40
2.639329
210
0.0
220
0.0
230
1.0
100
AcDbArc
 50
269.361511
 51
7.678868
  0
ARC
  5
25A
100
AcDbEntity
  8
0
370
    35
390
0
 62
     7
100
AcDbCircle
 10
110.284676
 20
154.579651
 30
0.0
 40
3.801196
210
0.0
220
0.0
230
1.0
100
AcDbArc
 50
184.104584
 51
213.587464
  0
ARC
  5
25B
100
AcDbEntity
  8
0
370
    35
390
0
 62
     7
100
AcDbCircle
 10
109.124863
 20
153.831009
 30
0.0
 40
2.419977
210
0.0
220
0.0
230
1.0
100
AcDbArc
 50
214.01263
 51
283.367388
  0
ARC
  5
25C
100
AcDbEntity
  8
0
370
    35
390
0
 62
     7
100
AcDbCircle
 10
107.849335
 20
159.19574
 30
0.0
 40
7.934198
210
0.0
220
0.0
230
1.0
100
AcDbArc
 50
283.372244
 51
302.127145
  0
LINE
  5
25D
100
AcDbEntity
  8
0
370
    35
390
0
 62
     7
 48
0.444359
100
AcDbLine
 10
112.068741
 20
152.476501
 30
0.0
 11
127.120667
 21
161.929947
 31
0.0
210
0.0
220
0.0
230
1.0
  0
ARC
  5
25E
100
AcDbEntity
  8
0
370
    35
390
0
 62
     7
100
AcDbCircle
 10
125.039635
 20
165.257233
 30
0.0
 40
3.924192
210
0.0
220
0.0
230
1.0
100
AcDbArc
 50
302.023708
 51
329.081328
  0
ARC
  5
25F
100
AcDbEntity
  8
0
370
    35
390
0
 62
     7
100
AcDbCircle
 10
126.226257
 20
164.537415
 30
0.0
 40
2.535921
210
0.0
220
0.0
230
1.0
100
AcDbArc
 50
329.257889
 51
18.628306
  0
ARC
  5
260
100
AcDbEntity
  8
0
370
    35
390
0
 62
     7
100
AcDbCircle
 10
89.849083
 20
152.000427
 30
0.0
 40
6.311936
210
0.0
220
0.0
230
1.0
100
AcDbArc
 50
149.409186
 51
159.103069
  0
POLYLINE
  5
261
100
AcDbEntity
  8
0
370
    35
390
0
 62
     7
100
AcDb2dPolyline
 66
     1
 10
0.0
 20
0.0
 30
0.0
 71
     9
  0
VERTEX
  5
262
100
AcDbEntity
  8
0
370
     0
390
0
100
AcDbVertex
100
AcDb2dVertex
 10
83.952431
 20
154.25177
 30
0.0
  0
VERTEX
  5
263
100
AcDbEntity
  8
0
370
     0
390
0
100
AcDbVertex
100
AcDb2dVertex
 10
83.836052
 20
153.776077
 30
0.0
  0
VERTEX
  5
264
100
AcDbEntity
  8
0
370
     0
390
0
100
AcDbVertex
100
AcDb2dVertex
 10
83.83709
 20
153.269028
 30
0.0
  0
VERTEX
  5
265
100
AcDbEntity
  8
0
370
     0
390
0
100
AcDbVertex
100
AcDb2dVertex
 10
83.961914
 20
152.762924
 30
0.0
  0
VERTEX
  5
266
100
AcDbEntity
  8
0
370
     0
390
0
100
AcDbVertex
100
AcDb2dVertex
 10
84.214813
 20
152.280197
 30
0.0
  0
VERTEX
  5
267
100
AcDbEntity
  8
0
370
     0
390
0
100
AcDbVertex
100
AcDb2dVertex
 10
84.58194
 20
151.865387
 30
0.0
  0
VERTEX
  5
268
100
AcDbEntity
  8
0
370
     0
390
0
100
AcDbVertex
100
AcDb2dVertex
 10
85.042694
 20
151.546402
 30
0.0
  0
VERTEX
  5
269
100
AcDbEntity
  8
0
370
     0
390
0
100
AcDbVertex
100
AcDb2dVertex
 10
85.434761
 20
151.382843
 30
0.0
  0
VERTEX
  5
26A
100
AcDbEntity
  8
0
370
     0
390
0
100
AcDbVertex
100
AcDb2dVertex
 10
85.850784
 20
151.292114
 30
0.0
  0
SEQEND
  5
26B
100
AcDbEntity
  8
0
370
     0
390
0
  0
LINE
  5
26C
100
AcDbEntity
  8
0
370
    35
390
0
 62
     7
 48
0.038685
100
AcDbLine
 10
85.850784
 20
151.292114
 30
0.0
 11
87.386475
 21
151.102158
 31
0.0
210
0.0
220
0.0
230
1.0
  0
POLYLINE
  5
26D
100
AcDbEntity
  8
0
370
    35
390
0
 62
     7
100
AcDb2dPolyline
 66
     1
 10
0.0
 20
0.0
 30
0.0
 71
     8
  0
VERTEX
  5
26E
100
AcDbEntity
  8
0
370
     0
390
0
100
AcDbVertex
100
AcDb2dVertex
 10
87.386475
 20
151.102158
 30
0.0
  0
VERTEX
  5
26F
100
AcDbEntity
  8
0
370
     0
390
0
100
AcDbVertex
100
AcDb2dVertex
 10
88.374687
 20
151.051331
 30
0.0
  0
VERTEX
  5
270
100
AcDbEntity
  8
0
370
     0
390
0
100
AcDbVertex
100
AcDb2dVertex
 10
89.343369
 20
151.13942
 30
0.0
  0
VERTEX
  5
271
100
AcDbEntity
  8
0
370
     0
390
0
100
AcDbVertex
100
AcDb2dVertex
 10
90.257156
 20
151.356659
 30
0.0
  0
VERTEX
  5
272
100
AcDbEntity
  8
0
370
     0
390
0
100
AcDbVertex
100
AcDb2dVertex
 10
90.746048
 20
151.533371
 30
0.0
  0
VERTEX
  5
273
100
AcDbEntity
  8
0
370
     0
390
0
100
AcDbVertex
100
AcDb2dVertex
 10
91.200325
 20
151.741699
 30
0.0
  0
VERTEX
  5
274
100
AcDbEntity
  8
0
370
     0
390
0
100
AcDbVertex
100
AcDb2dVertex
 10
91.632645
 20
151.986664
 30
0.0
  0
VERTEX
  5
275
100
AcDbEntity
  8
0
370
     0
390
0
100
AcDbVertex
100
AcDb2dVertex
 10
92.331444
 20
152.510864
 30
0.0
  0
SEQEND
  5
276
100
AcDbEntity
  8
0
370
     0
390
0
  0
LINE
  5
277
100
AcDbEntity
  8
0
370
    35
390
0
 62
     7
 48
0.096215
100
AcDbLine
 10
95.193214
 20
155.084198
 30
0.0
 11
92.331444
 21
152.510864
 31
0.0
210
0.0
220
0.0
230
1.0
  0
POLYLINE
  5
278
100
AcDbEntity
  8
0
370
    35
390
0
 62
     7
100
AcDb2dPolyline
 66
     1
 10
0.0
 20
0.0
 30
0.0
 71
     5
  0
VERTEX
  5
279
100
AcDbEntity
  8
0
370
     0
390
0
100
AcDbVertex
100
AcDb2dVertex
 10
95.193214
 20
155.084198
 30
0.0
  0
VERTEX
  5
27A
100
AcDbEntity
  8
0
370
     0
390
0
100
AcDbVertex
100
AcDb2dVertex
 10
95.566887
 20
155.503265
 30
0.0
  0
VERTEX
  5
27B
100
AcDbEntity
  8
0
370
     0
390
0
100
AcDbVertex
100
AcDb2dVertex
 10
95.882706
 20
156.053833
 30
0.0
  0
VERTEX
  5
27C
100
AcDbEntity
  8
0
370
     0
390
0
100
AcDbVertex
100
AcDb2dVertex
 10
96.081078
 20
156.636093
 30
0.0
  0
VERTEX
  5
27D
100
AcDbEntity
  8
0
370
     0
390
0
100
AcDbVertex
100
AcDb2dVertex
 10
96.174706
 20
157.265015
 30
0.0
  0
SEQEND
  5
27E
100
AcDbEntity
  8
0
370
     0
390
0
  0
ARC
  5
27F
100
AcDbEntity
  8
0
370
    35
390
0
 62
     7
100
AcDbCircle
 10
92.42321
 20
164.596756
 30
0.0
 40
2.135502
210
0.0
220
0.0
230
1.0
100
AcDbArc
 50
137.650824
 51
149.577386
  0
LINE
  5
280
100
AcDbEntity
  8
0
370
    35
390
0
 62
     7
 48
0.303674
100
AcDbLine
 10
84.415535
 20
155.212646
 30
0.0
 11
90.581726
 21
165.678131
 31
0.0
210
0.0
220
0.0
230
1.0
  0
POLYLINE
  5
281
100
AcDbEntity
  8
0
370
    35
390
0
 62
     7
100
AcDb2dPolyline
 66
     1
 10
0.0
 20
0.0
 30
0.0
 71
     6
  0
VERTEX
  5
282
100
AcDbEntity
  8
0
370
     0
390
0
100
AcDbVertex
100
AcDb2dVertex
 10
74.76841
 20
164.768188
 30
0.0
  0
VERTEX
  5
283
100
AcDbEntity
  8
0
370
     0
390
0
100
AcDbVertex
100
AcDb2dVertex
 10
75.255936
 20
165.212753
 30
0.0
  0
VERTEX
  5
284
100
AcDbEntity
  8
0
370
     0
390
0
100
AcDbVertex
100
AcDb2dVertex
 10
75.836533
 20
165.627625
 30
0.0
  0
VERTEX
  5
285
100
AcDbEntity
  8
0
370
     0
390
0
100
AcDbVertex
100
AcDb2dVertex
 10
76.500053
 20
165.991867
 30
0.0
  0
VERTEX
  5
286
100
AcDbEntity
  8
0
370
     0
390
0
100
AcDbVertex
100
AcDb2dVertex
 10
77.322517
 20
166.317612
 30
0.0
  0
VERTEX
  5
287
100
AcDbEntity
  8
0
370
     0
390
0
100
AcDbVertex
100
AcDb2dVertex
 10
78.207901
 20
166.539566
 30
0.0
  0
SEQEND
  5
288
100
AcDbEntity
  8
0
370
     0
390
0
  0
ARC
  5
289
100
AcDbEntity
  8
0
370
    35
390
0
 62
     7
100
AcDbCircle
 10
200.522598
 20
42.520416
 30
0.0
 40
175.381414
210
0.0
220
0.0
230
1.0
100
AcDbArc
 50
135.810033
 51
136.698204
  0
POLYLINE
  5
28A
100
AcDbEntity
  8
0
370
    35
390
0
 62
     7
100
AcDb2dPolyline
 66
     1
 10
0.0
 20
0.0
 30
0.0
 71
     6
  0
VERTEX
  5
28B
100
AcDbEntity
  8
0
370
     0
390
0
100
AcDbVertex
100
AcDb2dVertex
 10
72.068901
 20
160.620789
 30
0.0
  0
VERTEX
  5
28C
100
AcDbEntity
  8
0
370
     0
390
0
100
AcDbVertex
100
AcDb2dVertex
 10
72.10775
 20
161.138428
 30
0.0
  0
VERTEX
  5
28D
100
AcDbEntity
  8
0
370
     0
390
0
100
AcDbVertex
100
AcDb2dVertex
 10
72.221848
 20
161.6362
 30
0.0
  0
VERTEX
  5
28E
100
AcDbEntity
  8
0
370
     0
390
0
100
AcDbVertex
100
AcDb2dVertex
 10
72.403336
 20
162.094788
 30
0.0
  0
VERTEX
  5
28F
100
AcDbEntity
  8
0
370
     0
390
0
100
AcDbVertex
100
AcDb2dVertex
 10
72.629036
 20
162.482178
 30
0.0
  0
VERTEX
  5
290
100
AcDbEntity
  8
0
370
     0
390
0
100
AcDbVertex
100
AcDb2dVertex
 10
72.888527
 20
162.80423
 30
0.0
  0
SEQEND
  5
291
100
AcDbEntity
  8
0
370
     0
390
0
  0
LINE
  5
292
100
AcDbEntity
  8
0
370
    35
390
0
 62
     7
 48
0.091977
100
AcDbLine
 10
72.068901
 20
160.620789
 30
0.0
 11
72.068901
 21
156.941727
 31
0.0
210
0.0
220
0.0
230
1.0
  0
ARC
  5
293
100
AcDbEntity
  8
0
370
    35
390
0
 62
     7
100
AcDbCircle
 10
79.166649
 20
156.9263
 30
0.0
 40
7.09731
210
0.0
220
0.0
230
1.0
100
AcDbArc
 50
179.875463
 51
202.071847
  0
POLYLINE
  5
294
100
AcDbEntity
  8
0
370
    35
390
0
 62
     7
100
AcDb2dPolyline
 66
     1
 10
0.0
 20
0.0
 30
0.0
 71
     6
  0
VERTEX
  5
295
100
AcDbEntity
  8
0
370
     0
390
0
100
AcDbVertex
100
AcDb2dVertex
 10
72.589996
 20
154.259552
 30
0.0
  0
VERTEX
  5
296
100
AcDbEntity
  8
0
370
     0
390
0
100
AcDbVertex
100
AcDb2dVertex
 10
72.862831
 20
153.777954
 30
0.0
  0
VERTEX
  5
297
100
AcDbEntity
  8
0
370
     0
390
0
100
AcDbVertex
100
AcDb2dVertex
 10
73.254822
 20
153.370865
 30
0.0
  0
VERTEX
  5
298
100
AcDbEntity
  8
0
370
     0
390
0
100
AcDbVertex
100
AcDb2dVertex
 10
73.742218
 20
153.068802
 30
0.0
  0
VERTEX
  5
299
100
AcDbEntity
  8
0
370
     0
390
0
100
AcDbVertex
100
AcDb2dVertex
 10
74.095047
 20
152.940048
 30
0.0
  0
VERTEX
  5
29A
100
AcDbEntity
  8
0
370
     0
390
0
100
AcDbVertex
100
AcDb2dVertex
 10
74.465317
 20
152.869278
 30
0.0
  0
SEQEND
  5
29B
100
AcDbEntity
  8
0
370
     0
390
0
  0
ARC
  5
29C
100
AcDbEntity
  8
0
370
    35
390
0
 62
     7
100
AcDbCircle
 10
75.234604
 20
159.940857
 30
0.0
 40
7.113261
210
0.0
220
0.0
230
1.0
100
AcDbArc
 50
263.791492
 51
277.903749
  0
ARC
  5
29D
100
AcDbEntity
  8
0
370
    35
390
0
 62
     7
100
AcDbCircle
 10
75.898132
 20
155.135208
 30
0.0
 40
2.261933
210
0.0
220
0.0
230
1.0
100
AcDbArc
 50
277.994789
 51
283.982522
  0
ARC
  5
29E
100
AcDbEntity
  8
0
370
    35
390
0
 62
     7
100
AcDbCircle
 10
64.903221
 20
159.959747
 30
0.0
 40
4.911766
210
0.0
220
0.0
230
1.0
100
AcDbArc
 50
98.408689
 51
100.818162
  0
POLYLINE
  5
29F
100
AcDbEntity
  8
0
370
    35
390
0
 62
     7
100
AcDb2dPolyline
 66
     1
 10
0.0
 20
0.0
 30
0.0
 71
    10
  0
VERTEX
  5
2A0
100
AcDbEntity
  8
0
370
     0
390
0
100
AcDbVertex
100
AcDb2dVertex
 10
47.110634
 20
159.373123
 30
0.0
  0
VERTEX
  5
2A1
100
AcDbEntity
  8
0
370
     0
390
0
100
AcDbVertex
100
AcDb2dVertex
 10
48.236877
 20
159.979202
 30
0.0
  0
VERTEX
  5
2A2
100
AcDbEntity
  8
0
370
     0
390
0
100
AcDbVertex
100
AcDb2dVertex
 10
50.195286
 20
160.895828
 30
0.0
  0
VERTEX
  5
2A3
100
AcDbEntity
  8
0
370
     0
390
0
100
AcDbVertex
100
AcDb2dVertex
 10
51.812492
 20
161.545929
 30
0.0
  0
VERTEX
  5
2A4
100
AcDbEntity
  8
0
370
     0
390
0
100
AcDbVertex
100
AcDb2dVertex
 10
53.471027
 20
162.1315
 30
0.0
  0
VERTEX
  5
2A5
100
AcDbEntity
  8
0
370
     0
390
0
100
AcDbVertex
100
AcDb2dVertex
 10
55.174362
 20
162.667694
 30
0.0
  0
VERTEX
  5
2A6
100
AcDbEntity
  8
0
370
     0
390
0
100
AcDbVertex
100
AcDb2dVertex
 10
56.907459
 20
163.161774
 30
0.0
  0
VERTEX
  5
2A7
100
AcDbEntity
  8
0
370
     0
390
0
100
AcDbVertex
100
AcDb2dVertex
 10
58.659069
 20
163.618118
 30
0.0
  0
VERTEX
  5
2A8
100
AcDbEntity
  8
0
370
     0
390
0
100
AcDbVertex
100
AcDb2dVertex
 10
60.420208
 20
164.038666
 30
0.0
  0
VERTEX
  5
2A9
100
AcDbEntity
  8
0
370
     0
390
0
100
AcDbVertex
100
AcDb2dVertex
 10
63.981323
 20
164.78421
 30
0.0
  0
SEQEND
  5
2AA
100
AcDbEntity
  8
0
370
     0
390
0
  0
ARC
  5
2AB
100
AcDbEntity
  8
0
370
    35
390
0
 62
     7
100
AcDbCircle
 10
52.202652
 20
157.735779
 30
0.0
 40
5.348773
210
0.0
220
0.0
230
1.0
100
AcDbArc
 50
162.174796
 51
165.288174
  0
POLYLINE
  5
2AC
100
AcDbEntity
  8
0
370
    35
390
0
 62
     7
100
AcDb2dPolyline
 66
     1
 10
0.0
 20
0.0
 30
0.0
 71
     8
  0
VERTEX
  5
2AD
100
AcDbEntity
  8
0
370
     0
390
0
100
AcDbVertex
100
AcDb2dVertex
 10
47.029251
 20
159.094131
 30
0.0
  0
VERTEX
  5
2AE
100
AcDbEntity
  8
0
370
     0
390
0
100
AcDbVertex
100
AcDb2dVertex
 10
48.386341
 20
158.57608
 30
0.0
  0
VERTEX
  5
2AF
100
AcDbEntity
  8
0
370
     0
390
0
100
AcDbVertex
100
AcDb2dVertex
 10
49.781395
 20
158.100403
 30
0.0
  0
VERTEX
  5
2B0
100
AcDbEntity
  8
0
370
     0
390
0
100
AcDbVertex
100
AcDb2dVertex
 10
52.072712
 20
157.402618
 30
0.0
  0
VERTEX
  5
2B1
100
AcDbEntity
  8
0
370
     0
390
0
100
AcDbVertex
100
AcDb2dVertex
 10
55.143757
 20
156.576279
 30
0.0
  0
VERTEX
  5
2B2
100
AcDbEntity
  8
0
370
     0
390
0
100
AcDbVertex
100
AcDb2dVertex
 10
59.105862
 20
155.644806
 30
0.0
  0
VERTEX
  5
2B3
100
AcDbEntity
  8
0
370
     0
390
0
100
AcDbVertex
100
AcDb2dVertex
 10
61.774826
 20
155.083786
 30
0.0
  0
VERTEX
  5
2B4
100
AcDbEntity
  8
0
370
     0
390
0
100
AcDbVertex
100
AcDb2dVertex
 10
64.47718
 20
154.557709
 30
0.0
  0
SEQEND
  5
2B5
100
AcDbEntity
  8
0
370
     0
390
0
  0
ARC
  5
2B6
100
AcDbEntity
  8
0
370
    35
390
0
 62
     7
100
AcDbCircle
 10
65.40863
 20
159.513626
 30
0.0
 40
5.042695
210
0.0
220
0.0
230
1.0
100
AcDbArc
 50
259.355598
 51
263.539977
  0
ARC
  5
2B7
100
AcDbEntity
  8
0
370
    35
390
0
 62
     7
100
AcDbCircle
 10
65.132378
 20
157.071732
 30
0.0
 40
2.585221
210
0.0
220
0.0
230
1.0
100
AcDbArc
 50
263.534636
 51
280.199574
  0
POLYLINE
  5
2B8
100
AcDbEntity
  8
0
370
    35
390
0
 62
     7
100
AcDb2dPolyline
 66
     1
 10
0.0
 20
0.0
 30
0.0
 71
    11
  0
VERTEX
  5
2B9
100
AcDbEntity
  8
0
370
     0
390
0
100
AcDbVertex
100
AcDb2dVertex
 10
278.590576
 20
132.238312
 30
0.0
  0
VERTEX
  5
2BA
100
AcDbEntity
  8
0
370
     0
390
0
100
AcDbVertex
100
AcDb2dVertex
 10
249.928436
 20
134.01384
 30
0.0
  0
VERTEX
  5
2BB
100
AcDbEntity
  8
0
370
     0
390
0
100
AcDbVertex
100
AcDb2dVertex
 10
222.318375
 20
135.701996
 30
0.0
  0
VERTEX
  5
2BC
100
AcDbEntity
  8
0
370
     0
390
0
100
AcDbVertex
100
AcDb2dVertex
 10
194.710754
 20
137.430527
 30
0.0
  0
VERTEX
  5
2BD
100
AcDbEntity
  8
0
370
     0
390
0
100
AcDbVertex
100
AcDb2dVertex
 10
180.909164
 20
138.329315
 30
0.0
  0
VERTEX
  5
2BE
100
AcDbEntity
  8
0
370
     0
390
0
100
AcDbVertex
100
AcDb2dVertex
 10
167.109894
 20
139.262558
 30
0.0
  0
VERTEX
  5
2BF
100
AcDbEntity
  8
0
370
     0
390
0
100
AcDbVertex
100
AcDb2dVertex
 10
153.193405
 20
140.250305
 30
0.0
  0
VERTEX
  5
2C0
100
AcDbEntity
  8
0
370
     0
390
0
100
AcDbVertex
100
AcDb2dVertex
 10
139.281143
 20
141.299866
 30
0.0
  0
VERTEX
  5
2C1
100
AcDbEntity
  8
0
370
     0
390
0
100
AcDbVertex
100
AcDb2dVertex
 10
125.375175
 20
142.43132
 30
0.0
  0
VERTEX
  5
2C2
100
AcDbEntity
  8
0
370
     0
390
0
100
AcDbVertex
100
AcDb2dVertex
 10
114.951981
 20
143.351151
 30
0.0
  0
VERTEX
  5
2C3
100
AcDbEntity
  8
0
370
     0
390
0
100
AcDbVertex
100
AcDb2dVertex
 10
104.536613
 20
144.351532
 30
0.0
  0
SEQEND
  5
2C4
100
AcDbEntity
  8
0
370
     0
390
0
  0
POLYLINE
  5
2C5
100
AcDbEntity
  8
0
370
    35
390
0
 62
     7
100
AcDb2dPolyline
 66
     1
 10
0.0
 20
0.0
 30
0.0
 71
    28
  0
VERTEX
  5
2C6
100
AcDbEntity
  8
0
370
     0
390
0
100
AcDbVertex
100
AcDb2dVertex
 10
39.41293
 20
158.547012
 30
0.0
  0
VERTEX
  5
2C7
100
AcDbEntity
  8
0
370
     0
390
0
100
AcDbVertex
100
AcDb2dVertex
 10
39.427299
 20
158.277481
 30
0.0
  0
VERTEX
  5
2C8
100
AcDbEntity
  8
0
370
     0
390
0
100
AcDbVertex
100
AcDb2dVertex
 10
39.527843
 20
158.02594
 30
0.0
  0
VERTEX
  5
2C9
100
AcDbEntity
  8
0
370
     0
390
0
100
AcDbVertex
100
AcDb2dVertex
 10
39.613262
 20
157.887711
 30
0.0
  0
VERTEX
  5
2CA
100
AcDbEntity
  8
0
370
     0
390
0
100
AcDbVertex
100
AcDb2dVertex
 10
39.811596
 20
157.632202
 30
0.0
  0
VERTEX
  5
2CB
100
AcDbEntity
  8
0
370
     0
390
0
100
AcDbVertex
100
AcDb2dVertex
 10
40.330925
 20
157.128418
 30
0.0
  0
VERTEX
  5
2CC
100
AcDbEntity
  8
0
370
     0
390
0
100
AcDbVertex
100
AcDb2dVertex
 10
40.75235
 20
156.797928
 30
0.0
  0
VERTEX
  5
2CD
100
AcDbEntity
  8
0
370
     0
390
0
100
AcDbVertex
100
AcDb2dVertex
 10
41.19228
 20
156.495377
 30
0.0
  0
VERTEX
  5
2CE
100
AcDbEntity
  8
0
370
     0
390
0
100
AcDbVertex
100
AcDb2dVertex
 10
41.802097
 20
156.123352
 30
0.0
  0
VERTEX
  5
2CF
100
AcDbEntity
  8
0
370
     0
390
0
100
AcDbVertex
100
AcDb2dVertex
 10
42.430462
 20
155.778915
 30
0.0
  0
VERTEX
  5
2D0
100
AcDbEntity
  8
0
370
     0
390
0
100
AcDbVertex
100
AcDb2dVertex
 10
43.290752
 20
155.351929
 30
0.0
  0
VERTEX
  5
2D1
100
AcDbEntity
  8
0
370
     0
390
0
100
AcDbVertex
100
AcDb2dVertex
 10
44.166767
 20
154.957504
 30
0.0
  0
VERTEX
  5
2D2
100
AcDbEntity
  8
0
370
     0
390
0
100
AcDbVertex
100
AcDb2dVertex
 10
45.307632
 20
154.49118
 30
0.0
  0
VERTEX
  5
2D3
100
AcDbEntity
  8
0
370
     0
390
0
100
AcDbVertex
100
AcDb2dVertex
 10
46.459675
 20
154.063324
 30
0.0
  0
VERTEX
  5
2D4
100
AcDbEntity
  8
0
370
     0
390
0
100
AcDbVertex
100
AcDb2dVertex
 10
47.878922
 20
153.581833
 30
0.0
  0
VERTEX
  5
2D5
100
AcDbEntity
  8
0
370
     0
390
0
100
AcDbVertex
100
AcDb2dVertex
 10
50.424889
 20
152.808258
 30
0.0
  0
VERTEX
  5
2D6
100
AcDbEntity
  8
0
370
     0
390
0
100
AcDbVertex
100
AcDb2dVertex
 10
52.999741
 20
152.108795
 30
0.0
  0
VERTEX
  5
2D7
100
AcDbEntity
  8
0
370
     0
390
0
100
AcDbVertex
100
AcDb2dVertex
 10
55.344227
 20
151.527847
 30
0.0
  0
VERTEX
  5
2D8
100
AcDbEntity
  8
0
370
     0
390
0
100
AcDbVertex
100
AcDb2dVertex
 10
57.696739
 20
150.990997
 30
0.0
  0
VERTEX
  5
2D9
100
AcDbEntity
  8
0
370
     0
390
0
100
AcDbVertex
100
AcDb2dVertex
 10
60.427486
 20
150.416809
 30
0.0
  0
VERTEX
  5
2DA
100
AcDbEntity
  8
0
370
     0
390
0
100
AcDbVertex
100
AcDb2dVertex
 10
63.165104
 20
149.883835
 30
0.0
  0
VERTEX
  5
2DB
100
AcDbEntity
  8
0
370
     0
390
0
100
AcDbVertex
100
AcDb2dVertex
 10
66.449364
 20
149.288635
 30
0.0
  0
VERTEX
  5
2DC
100
AcDbEntity
  8
0
370
     0
390
0
100
AcDbVertex
100
AcDb2dVertex
 10
69.742928
 20
148.7314
 30
0.0
  0
VERTEX
  5
2DD
100
AcDbEntity
  8
0
370
     0
390
0
100
AcDbVertex
100
AcDb2dVertex
 10
76.431816
 20
147.70282
 30
0.0
  0
VERTEX
  5
2DE
100
AcDbEntity
  8
0
370
     0
390
0
100
AcDbVertex
100
AcDb2dVertex
 10
83.130165
 20
146.78685
 30
0.0
  0
VERTEX
  5
2DF
100
AcDbEntity
  8
0
370
     0
390
0
100
AcDbVertex
100
AcDb2dVertex
 10
89.837692
 20
145.955246
 30
0.0
  0
VERTEX
  5
2E0
100
AcDbEntity
  8
0
370
     0
390
0
100
AcDbVertex
100
AcDb2dVertex
 10
97.183899
 20
145.120712
 30
0.0
  0
VERTEX
  5
2E1
100
AcDbEntity
  8
0
370
     0
390
0
100
AcDbVertex
100
AcDb2dVertex
 10
104.536613
 20
144.351532
 30
0.0
  0
SEQEND
  5
2E2
100
AcDbEntity
  8
0
370
     0
390
0
  0
LINE
  5
2E3
100
AcDbEntity
  8
0
370
    35
390
0
 62
     7
 48
0.001969
100
AcDbLine
 10
39.41293
 20
158.547012
 30
0.0
 11
39.423454
 21
158.625061
 31
0.0
210
0.0
220
0.0
230
1.0
  0
POLYLINE
  5
2E4
100
AcDbEntity
  8
0
370
    35
390
0
 62
     7
100
AcDb2dPolyline
 66
     1
 10
0.0
 20
0.0
 30
0.0
 71
    28
  0
VERTEX
  5
2E5
100
AcDbEntity
  8
0
370
     0
390
0
100
AcDbVertex
100
AcDb2dVertex
 10
39.423454
 20
158.625061
 30
0.0
  0
VERTEX
  5
2E6
100
AcDbEntity
  8
0
370
     0
390
0
100
AcDbVertex
100
AcDb2dVertex
 10
39.468525
 20
158.819916
 30
0.0
  0
VERTEX
  5
2E7
100
AcDbEntity
  8
0
370
     0
390
0
100
AcDbVertex
100
AcDb2dVertex
 10
39.612625
 20
159.19223
 30
0.0
  0
VERTEX
  5
2E8
100
AcDbEntity
  8
0
370
     0
390
0
100
AcDbVertex
100
AcDb2dVertex
 10
39.981888
 20
159.825974
 30
0.0
  0
VERTEX
  5
2E9
100
AcDbEntity
  8
0
370
     0
390
0
100
AcDbVertex
100
AcDb2dVertex
 10
40.296616
 20
160.244568
 30
0.0
  0
VERTEX
  5
2EA
100
AcDbEntity
  8
0
370
     0
390
0
100
AcDbVertex
100
AcDb2dVertex
 10
40.640011
 20
160.640579
 30
0.0
  0
VERTEX
  5
2EB
100
AcDbEntity
  8
0
370
     0
390
0
100
AcDbVertex
100
AcDb2dVertex
 10
41.109169
 20
161.113297
 30
0.0
  0
VERTEX
  5
2EC
100
AcDbEntity
  8
0
370
     0
390
0
100
AcDbVertex
100
AcDb2dVertex
 10
41.608002
 20
161.554932
 30
0.0
  0
VERTEX
  5
2ED
100
AcDbEntity
  8
0
370
     0
390
0
100
AcDbVertex
100
AcDb2dVertex
 10
42.228188
 20
162.040558
 30
0.0
  0
VERTEX
  5
2EE
100
AcDbEntity
  8
0
370
     0
390
0
100
AcDbVertex
100
AcDb2dVertex
 10
42.873436
 20
162.491592
 30
0.0
  0
VERTEX
  5
2EF
100
AcDbEntity
  8
0
370
     0
390
0
100
AcDbVertex
100
AcDb2dVertex
 10
43.663162
 20
162.99028
 30
0.0
  0
VERTEX
  5
2F0
100
AcDbEntity
  8
0
370
     0
390
0
100
AcDbVertex
100
AcDb2dVertex
 10
44.471725
 20
163.457642
 30
0.0
  0
VERTEX
  5
2F1
100
AcDbEntity
  8
0
370
     0
390
0
100
AcDbVertex
100
AcDb2dVertex
 10
45.523495
 20
164.017563
 30
0.0
  0
VERTEX
  5
2F2
100
AcDbEntity
  8
0
370
     0
390
0
100
AcDbVertex
100
AcDb2dVertex
 10
46.592838
 20
164.542374
 30
0.0
  0
VERTEX
  5
2F3
100
AcDbEntity
  8
0
370
     0
390
0
100
AcDbVertex
100
AcDb2dVertex
 10
47.929214
 20
165.143112
 30
0.0
  0
VERTEX
  5
2F4
100
AcDbEntity
  8
0
370
     0
390
0
100
AcDbVertex
100
AcDb2dVertex
 10
49.286152
 20
165.695831
 30
0.0
  0
VERTEX
  5
2F5
100
AcDbEntity
  8
0
370
     0
390
0
100
AcDbVertex
100
AcDb2dVertex
 10
50.764488
 20
166.240479
 30
0.0
  0
VERTEX
  5
2F6
100
AcDbEntity
  8
0
370
     0
390
0
100
AcDbVertex
100
AcDb2dVertex
 10
52.259125
 20
166.740036
 30
0.0
  0
VERTEX
  5
2F7
100
AcDbEntity
  8
0
370
     0
390
0
100
AcDbVertex
100
AcDb2dVertex
 10
54.036469
 20
167.280716
 30
0.0
  0
VERTEX
  5
2F8
100
AcDbEntity
  8
0
370
     0
390
0
100
AcDbVertex
100
AcDb2dVertex
 10
55.826149
 20
167.77774
 30
0.0
  0
VERTEX
  5
2F9
100
AcDbEntity
  8
0
370
     0
390
0
100
AcDbVertex
100
AcDb2dVertex
 10
57.79406
 20
168.278183
 30
0.0
  0
VERTEX
  5
2FA
100
AcDbEntity
  8
0
370
     0
390
0
100
AcDbVertex
100
AcDb2dVertex
 10
59.771458
 20
168.737686
 30
0.0
  0
VERTEX
  5
2FB
100
AcDbEntity
  8
0
370
     0
390
0
100
AcDbVertex
100
AcDb2dVertex
 10
62.134659
 20
169.233704
 30
0.0
  0
VERTEX
  5
2FC
100
AcDbEntity
  8
0
370
     0
390
0
100
AcDbVertex
100
AcDb2dVertex
 10
64.508476
 20
169.678467
 30
0.0
  0
VERTEX
  5
2FD
100
AcDbEntity
  8
0
370
     0
390
0
100
AcDbVertex
100
AcDb2dVertex
 10
67.062019
 20
170.10379
 30
0.0
  0
VERTEX
  5
2FE
100
AcDbEntity
  8
0
370
     0
390
0
100
AcDbVertex
100
AcDb2dVertex
 10
69.623024
 20
170.482544
 30
0.0
  0
VERTEX
  5
2FF
100
AcDbEntity
  8
0
370
     0
390
0
100
AcDbVertex
100
AcDb2dVertex
 10
72.514008
 20
170.860062
 30
0.0
  0
VERTEX
  5
300
100
AcDbEntity
  8
0
370
     0
390
0
100
AcDbVertex
100
AcDb2dVertex
 10
75.934196
 20
171.245972
 30
0.0
  0
SEQEND
  5
301
100
AcDbEntity
  8
0
370
     0
390
0
  0
POLYLINE
  5
302
100
AcDbEntity
  8
0
370
    35
390
0
 62
     7
100
AcDb2dPolyline
 66
     1
 10
0.0
 20
0.0
 30
0.0
 71
     7
  0
VERTEX
  5
303
100
AcDbEntity
  8
0
370
     0
390
0
100
AcDbVertex
100
AcDb2dVertex
 10
75.934196
 20
171.245972
 30
0.0
  0
VERTEX
  5
304
100
AcDbEntity
  8
0
370
     0
390
0
100
AcDbVertex
100
AcDb2dVertex
 10
78.945091
 20
171.53624
 30
0.0
  0
VERTEX
  5
305
100
AcDbEntity
  8
0
370
     0
390
0
100
AcDbVertex
100
AcDb2dVertex
 10
81.959854
 20
171.783951
 30
0.0
  0
VERTEX
  5
306
100
AcDbEntity
  8
0
370
     0
390
0
100
AcDbVertex
100
AcDb2dVertex
 10
86.932243
 20
172.107071
 30
0.0
  0
VERTEX
  5
307
100
AcDbEntity
  8
0
370
     0
390
0
100
AcDbVertex
100
AcDb2dVertex
 10
91.910027
 20
172.336014
 30
0.0
  0
VERTEX
  5
308
100
AcDbEntity
  8
0
370
     0
390
0
100
AcDbVertex
100
AcDb2dVertex
 10
96.890732
 20
172.481506
 30
0.0
  0
VERTEX
  5
309
100
AcDbEntity
  8
0
370
     0
390
0
100
AcDbVertex
100
AcDb2dVertex
 10
100.830757
 20
172.542633
 30
0.0
  0
SEQEND
  5
30A
100
AcDbEntity
  8
0
370
     0
390
0
  0
LINE
  5
30B
100
AcDbEntity
  8
0
370
    35
390
0
 62
     7
 48
0.365067
100
AcDbLine
 10
100.830757
 20
172.542633
 30
0.0
 11
100.830757
 21
157.939957
 31
0.0
210
0.0
220
0.0
230
1.0
  0
LINE
  5
30C
100
AcDbEntity
  8
0
370
    35
390
0
 62
     7
 48
0.0125
100
AcDbLine
 10
100.830757
 20
157.939957
 30
0.0
 11
101.330757
 21
157.939957
 31
0.0
210
0.0
220
0.0
230
1.0
  0
LINE
  5
30D
100
AcDbEntity
  8
0
370
    35
390
0
 62
     7
 48
0.0125
100
AcDbLine
 10
101.330757
 20
157.939957
 30
0.0
 11
101.830757
 21
157.939957
 31
0.0
210
0.0
220
0.0
230
1.0
  0
LINE
  5
30E
100
AcDbEntity
  8
0
370
    35
390
0
 62
     7
 48
0.365275
100
AcDbLine
 10
101.830757
 20
172.550949
 30
0.0
 11
101.830757
 21
157.939957
 31
0.0
210
0.0
220
0.0
230
1.0
  0
POLYLINE
  5
30F
100
AcDbEntity
  8
0
370
    35
390
0
 62
     7
100
AcDb2dPolyline
 66
     1
 10
0.0
 20
0.0
 30
0.0
 71
    10
  0
VERTEX
  5
310
100
AcDbEntity
  8
0
370
     0
390
0
100
AcDbVertex
100
AcDb2dVertex
 10
101.830757
 20
172.550949
 30
0.0
  0
VERTEX
  5
311
100
AcDbEntity
  8
0
370
     0
390
0
100
AcDbVertex
100
AcDb2dVertex
 10
105.614342
 20
172.557343
 30
0.0
  0
VERTEX
  5
312
100
AcDbEntity
  8
0
370
     0
390
0
100
AcDbVertex
100
AcDb2dVertex
 10
109.397888
 20
172.525925
 30
0.0
  0
VERTEX
  5
313
100
AcDbEntity
  8
0
370
     0
390
0
100
AcDbVertex
100
AcDb2dVertex
 10
116.963432
 20
172.359451
 30
0.0
  0
VERTEX
  5
314
100
AcDbEntity
  8
0
370
     0
390
0
100
AcDbVertex
100
AcDb2dVertex
 10
124.525085
 20
172.069916
 30
0.0
  0
VERTEX
  5
315
100
AcDbEntity
  8
0
370
     0
390
0
100
AcDbVertex
100
AcDb2dVertex
 10
129.929092
 20
171.796158
 30
0.0
  0
VERTEX
  5
316
100
AcDbEntity
  8
0
370
     0
390
0
100
AcDbVertex
100
AcDb2dVertex
 10
135.330307
 20
171.471497
 30
0.0
  0
VERTEX
  5
317
100
AcDbEntity
  8
0
370
     0
390
0
100
AcDbVertex
100
AcDb2dVertex
 10
142.906265
 20
170.933517
 30
0.0
  0
VERTEX
  5
318
100
AcDbEntity
  8
0
370
     0
390
0
100
AcDbVertex
100
AcDb2dVertex
 10
150.47522
 20
170.302643
 30
0.0
  0
VERTEX
  5
319
100
AcDbEntity
  8
0
370
     0
390
0
100
AcDbVertex
100
AcDb2dVertex
 10
158.036102
 20
169.583572
 30
0.0
  0
SEQEND
  5
31A
100
AcDbEntity
  8
0
370
     0
390
0
  0
POLYLINE
  5
31B
100
AcDbEntity
  8
0
370
    35
390
0
 62
     7
100
AcDb2dPolyline
 66
     1
 10
0.0
 20
0.0
 30
0.0
 71
    25
  0
VERTEX
  5
31C
100
AcDbEntity
  8
0
370
     0
390
0
100
AcDbVertex
100
AcDb2dVertex
 10
380.377106
 20
124.267273
 30
0.0
  0
VERTEX
  5
31D
100
AcDbEntity
  8
0
370
     0
390
0
100
AcDbVertex
100
AcDb2dVertex
 10
376.200073
 20
125.188202
 30
0.0
  0
VERTEX
  5
31E
100
AcDbEntity
  8
0
370
     0
390
0
100
AcDbVertex
100
AcDb2dVertex
 10
373.425323
 20
125.846252
 30
0.0
  0
VERTEX
  5
31F
100
AcDbEntity
  8
0
370
     0
390
0
100
AcDbVertex
100
AcDb2dVertex
 10
367.890198
 20
127.220749
 30
0.0
  0
VERTEX
  5
320
100
AcDbEntity
  8
0
370
     0
390
0
100
AcDbVertex
100
AcDb2dVertex
 10
357.804565
 20
129.830719
 30
0.0
  0
VERTEX
  5
321
100
AcDbEntity
  8
0
370
     0
390
0
100
AcDbVertex
100
AcDb2dVertex
 10
342.6987
 20
133.83049
 30
0.0
  0
VERTEX
  5
322
100
AcDbEntity
  8
0
370
     0
390
0
100
AcDbVertex
100
AcDb2dVertex
 10
328.055176
 20
137.68869
 30
0.0
  0
VERTEX
  5
323
100
AcDbEntity
  8
0
370
     0
390
0
100
AcDbVertex
100
AcDb2dVertex
 10
320.723175
 20
139.58812
 30
0.0
  0
VERTEX
  5
324
100
AcDbEntity
  8
0
370
     0
390
0
100
AcDbVertex
100
AcDb2dVertex
 10
307.315369
 20
142.972382
 30
0.0
  0
VERTEX
  5
325
100
AcDbEntity
  8
0
370
     0
390
0
100
AcDbVertex
100
AcDb2dVertex
 10
300.605316
 20
144.610962
 30
0.0
  0
VERTEX
  5
326
100
AcDbEntity
  8
0
370
     0
390
0
100
AcDbVertex
100
AcDb2dVertex
 10
293.872162
 20
146.212982
 30
0.0
  0
VERTEX
  5
327
100
AcDbEntity
  8
0
370
     0
390
0
100
AcDbVertex
100
AcDb2dVertex
 10
284.944092
 20
148.269684
 30
0.0
  0
VERTEX
  5
328
100
AcDbEntity
  8
0
370
     0
390
0
100
AcDbVertex
100
AcDb2dVertex
 10
275.989838
 20
150.255219
 30
0.0
  0
VERTEX
  5
329
100
AcDbEntity
  8
0
370
     0
390
0
100
AcDbVertex
100
AcDb2dVertex
 10
267.029449
 20
152.166214
 30
0.0
  0
VERTEX
  5
32A
100
AcDbEntity
  8
0
370
     0
390
0
100
AcDbVertex
100
AcDb2dVertex
 10
255.907608
 20
154.436035
 30
0.0
  0
VERTEX
  5
32B
100
AcDbEntity
  8
0
370
     0
390
0
100
AcDbVertex
100
AcDb2dVertex
 10
244.765305
 20
156.603149
 30
0.0
  0
VERTEX
  5
32C
100
AcDbEntity
  8
0
370
     0
390
0
100
AcDbVertex
100
AcDb2dVertex
 10
233.604599
 20
158.673462
 30
0.0
  0
VERTEX
  5
32D
100
AcDbEntity
  8
0
370
     0
390
0
100
AcDbVertex
100
AcDb2dVertex
 10
222.426559
 20
160.648056
 30
0.0
  0
VERTEX
  5
32E
100
AcDbEntity
  8
0
370
     0
390
0
100
AcDbVertex
100
AcDb2dVertex
 10
210.82309
 20
162.584381
 30
0.0
  0
VERTEX
  5
32F
100
AcDbEntity
  8
0
370
     0
390
0
100
AcDbVertex
100
AcDb2dVertex
 10
200.299072
 20
164.225693
 30
0.0
  0
VERTEX
  5
330
100
AcDbEntity
  8
0
370
     0
390
0
100
AcDbVertex
100
AcDb2dVertex
 10
189.757767
 20
165.752029
 30
0.0
  0
VERTEX
  5
331
100
AcDbEntity
  8
0
370
     0
390
0
100
AcDbVertex
100
AcDb2dVertex
 10
179.199799
 20
167.158966
 30
0.0
  0
VERTEX
  5
332
100
AcDbEntity
  8
0
370
     0
390
0
100
AcDbVertex
100
AcDb2dVertex
 10
168.625839
 20
168.440445
 30
0.0
  0
VERTEX
  5
333
100
AcDbEntity
  8
0
370
     0
390
0
100
AcDbVertex
100
AcDb2dVertex
 10
163.332962
 20
169.030518
 30
0.0
  0
VERTEX
  5
334
100
AcDbEntity
  8
0
370
     0
390
0
100
AcDbVertex
100
AcDb2dVertex
 10
158.036102
 20
169.583572
 30
0.0
  0
SEQEND
  5
335
100
AcDbEntity
  8
0
370
     0
390
0
  0
LINE
  5
336
100
AcDbEntity
  8
0
370
    35
390
0
 62
     7
 48
0.007689
100
AcDbLine
 10
380.678345
 20
124.205154
 30
0.0
 11
380.377106
 21
124.267273
 31
0.0
210
0.0
220
0.0
230
1.0
  0
LINE
  5
337
100
AcDbEntity
  8
0
370
    35
390
0
 62
     7
 48
0.007094
100
AcDbLine
 10
380.396515
 20
124.238319
 30
0.0
 11
380.678345
 21
124.205154
 31
0.0
210
0.0
220
0.0
230
1.0
  0
POLYLINE
  5
338
100
AcDbEntity
  8
0
370
    35
390
0
 62
     7
100
AcDb2dPolyline
 66
     1
 10
0.0
 20
0.0
 30
0.0
 71
    10
  0
VERTEX
  5
339
100
AcDbEntity
  8
0
370
     0
390
0
100
AcDbVertex
100
AcDb2dVertex
 10
380.396515
 20
124.238319
 30
0.0
  0
VERTEX
  5
33A
100
AcDbEntity
  8
0
370
     0
390
0
100
AcDbVertex
100
AcDb2dVertex
 10
376.309509
 20
124.687599
 30
0.0
  0
VERTEX
  5
33B
100
AcDbEntity
  8
0
370
     0
390
0
100
AcDbVertex
100
AcDb2dVertex
 10
368.128235
 20
125.517075
 30
0.0
  0
VERTEX
  5
33C
100
AcDbEntity
  8
0
370
     0
390
0
100
AcDbVertex
100
AcDb2dVertex
 10
354.968781
 20
126.736198
 30
0.0
  0
VERTEX
  5
33D
100
AcDbEntity
  8
0
370
     0
390
0
100
AcDbVertex
100
AcDb2dVertex
 10
347.067932
 20
127.409424
 30
0.0
  0
VERTEX
  5
33E
100
AcDbEntity
  8
0
370
     0
390
0
100
AcDbVertex
100
AcDb2dVertex
 10
337.595123
 20
128.171219
 30
0.0
  0
VERTEX
  5
33F
100
AcDbEntity
  8
0
370
     0
390
0
100
AcDbVertex
100
AcDb2dVertex
 10
328.119171
 20
128.892532
 30
0.0
  0
VERTEX
  5
340
100
AcDbEntity
  8
0
370
     0
390
0
100
AcDbVertex
100
AcDb2dVertex
 10
316.63147
 20
129.722122
 30
0.0
  0
VERTEX
  5
341
100
AcDbEntity
  8
0
370
     0
390
0
100
AcDbVertex
100
AcDb2dVertex
 10
305.140961
 20
130.512451
 30
0.0
  0
VERTEX
  5
342
100
AcDbEntity
  8
0
370
     0
390
0
100
AcDbVertex
100
AcDb2dVertex
 10
279.590576
 20
132.175125
 30
0.0
  0
SEQEND
  5
343
100
AcDbEntity
  8
0
370
     0
390
0
  0
LINE
  5
344
100
AcDbEntity
  8
0
370
    35
390
0
 62
     7
 48
0.217882
100
AcDbLine
 10
279.590576
 20
132.175125
 30
0.0
 11
279.590576
 21
140.890411
 31
0.0
210
0.0
220
0.0
230
1.0
  0
LINE
  5
345
100
AcDbEntity
  8
0
370
    35
390
0
 62
     7
 48
0.025
100
AcDbLine
 10
279.590576
 20
140.890411
 30
0.0
 11
278.590576
 21
140.890411
 31
0.0
210
0.0
220
0.0
230
1.0
  0
LINE
  5
346
100
AcDbEntity
  8
0
370
    35
390
0
 62
     7
 48
0.216302
100
AcDbLine
 10
278.590576
 20
132.238312
 30
0.0
 11
278.590576
 21
140.890411
 31
0.0
210
0.0
220
0.0
230
1.0
  0
ARC
  5
347
100
AcDbEntity
  8
0
370
    35
390
0
 62
     7
100
AcDbCircle
 10
290.970856
 20
139.113678
 30
0.0
 40
6.724276
210
0.0
220
0.0
230
1.0
100
AcDbArc
 50
182.550989
 51
185.42531
  0
ARC
  5
348
100
AcDbEntity
  8
0
370
    35
390
0
 62
     7
100
AcDbCircle
 10
290.975464
 20
139.114349
 30
0.0
 40
6.728902
210
0.0
220
0.0
230
1.0
100
AcDbArc
 50
180.002249
 51
182.554923
  0
ARC
  5
349
100
AcDbEntity
  8
0
370
    35
390
0
 62
     7
100
AcDbCircle
 10
286.560547
 20
138.697647
 30
0.0
 40
2.294537
210
0.0
220
0.0
230
1.0
100
AcDbArc
 50
185.495565
 51
263.427566
  0
ARC
  5
34A
100
AcDbEntity
  8
0
370
    35
390
0
 62
     7
100
AcDbCircle
 10
286.700897
 20
139.892456
 30
0.0
 40
3.49787
210
0.0
220
0.0
230
1.0
100
AcDbArc
 50
263.383689
 51
266.326988
  0
POLYLINE
  5
34B
100
AcDbEntity
  8
0
370
    35
390
0
 62
     7
100
AcDb2dPolyline
 66
     1
 10
0.0
 20
0.0
 30
0.0
 71
     4
  0
VERTEX
  5
34C
100
AcDbEntity
  8
0
370
     0
390
0
100
AcDbVertex
100
AcDb2dVertex
 10
324.15509
 20
133.845245
 30
0.0
  0
VERTEX
  5
34D
100
AcDbEntity
  8
0
370
     0
390
0
100
AcDbVertex
100
AcDb2dVertex
 10
312.96521
 20
134.640411
 30
0.0
  0
VERTEX
  5
34E
100
AcDbEntity
  8
0
370
     0
390
0
100
AcDbVertex
100
AcDb2dVertex
 10
299.735291
 20
135.537201
 30
0.0
  0
VERTEX
  5
34F
100
AcDbEntity
  8
0
370
     0
390
0
100
AcDbVertex
100
AcDb2dVertex
 10
286.476807
 20
136.401779
 30
0.0
  0
SEQEND
  5
350
100
AcDbEntity
  8
0
370
     0
390
0
  0
LINE
  5
351
100
AcDbEntity
  8
0
370
    35
390
0
 62
     7
 48
0.002325
100
AcDbLine
 10
324.15509
 20
133.845245
 30
0.0
 11
324.246338
 21
133.863144
 31
0.0
210
0.0
220
0.0
230
1.0
  0
POLYLINE
  5
352
100
AcDbEntity
  8
0
370
    35
390
0
 62
     7
100
AcDb2dPolyline
 66
     1
 10
0.0
 20
0.0
 30
0.0
 71
     5
  0
VERTEX
  5
353
100
AcDbEntity
  8
0
370
     0
390
0
100
AcDbVertex
100
AcDb2dVertex
 10
324.246338
 20
133.863144
 30
0.0
  0
VERTEX
  5
354
100
AcDbEntity
  8
0
370
     0
390
0
100
AcDbVertex
100
AcDb2dVertex
 10
313.140747
 20
136.71283
 30
0.0
  0
VERTEX
  5
355
100
AcDbEntity
  8
0
370
     0
390
0
100
AcDbVertex
100
AcDb2dVertex
 10
302.126282
 20
139.449921
 30
0.0
  0
VERTEX
  5
356
100
AcDbEntity
  8
0
370
     0
390
0
100
AcDbVertex
100
AcDb2dVertex
 10
298.45932
 20
140.337326
 30
0.0
  0
VERTEX
  5
357
100
AcDbEntity
  8
0
370
     0
390
0
100
AcDbVertex
100
AcDb2dVertex
 10
287.432343
 20
142.928284
 30
0.0
  0
SEQEND
  5
358
100
AcDbEntity
  8
0
370
     0
390
0
  0
ARC
  5
359
100
AcDbEntity
  8
0
370
    35
390
0
 62
     7
100
AcDbCircle
 10
285.930939
 20
136.388229
 30
0.0
 40
6.710186
210
0.0
220
0.0
230
1.0
100
AcDbArc
 50
77.070571
 51
82.040086
  0
ARC
  5
35A
100
AcDbEntity
  8
0
370
    35
390
0
 62
     7
100
AcDbCircle
 10
286.545258
 20
140.757401
 30
0.0
 40
2.298504
210
0.0
220
0.0
230
1.0
100
AcDbArc
 50
82.123941
 51
180.040525
  0
LINE
  5
35B
100
AcDbEntity
  8
0
370
    35
390
0
 62
     7
 48
0.041042
100
AcDbLine
 10
284.246552
 20
140.755783
 30
0.0
 11
284.246552
 21
139.11409
 31
0.0
210
0.0
220
0.0
230
1.0
  0
ARC
  5
35C
100
AcDbEntity
  8
0
370
    35
390
0
 62
     7
100
AcDbCircle
 10
271.432068
 20
143.028412
 30
0.0
 40
3.370577
210
0.0
220
0.0
230
1.0
100
AcDbArc
 50
67.601893
 51
77.874293
  0
ARC
  5
35D
100
AcDbEntity
  8
0
370
    35
390
0
 62
     7
100
AcDbCircle
 10
32.785919
 20
-967.82312
 30
0.0
 40
1139.56731
210
0.0
220
0.0
230
1.0
100
AcDbArc
 50
77.875331
 51
78.063646
  0
ARC
  5
35E
100
AcDbEntity
  8
0
370
    35
390
0
 62
     7
100
AcDbCircle
 10
268.066681
 20
145.180038
 30
0.0
 40
1.967178
210
0.0
220
0.0
230
1.0
100
AcDbArc
 50
77.964519
 51
167.696922
  0
ARC
  5
35F
100
AcDbEntity
  8
0
370
    35
390
0
 62
     7
100
AcDbCircle
 10
268.034424
 20
145.190765
 30
0.0
 40
1.93266
210
0.0
220
0.0
230
1.0
100
AcDbArc
 50
167.803459
 51
205.690372
  0
ARC
  5
360
100
AcDbEntity
  8
0
370
    35
390
0
 62
     7
100
AcDbCircle
 10
269.340912
 20
145.837112
 30
0.0
 40
3.390391
210
0.0
220
0.0
230
1.0
100
AcDbArc
 50
205.962241
 51
228.158607
  0
LINE
  5
361
100
AcDbEntity
  8
0
370
    35
390
0
 62
     7
 48
0.116004
100
AcDbLine
 10
270.537415
 20
140.217377
 30
0.0
 11
267.079254
 21
143.311249
 31
0.0
210
0.0
220
0.0
230
1.0
  0
LINE
  5
362
100
AcDbEntity
  8
0
370
    35
390
0
 62
     7
 48
0.003662
100
AcDbLine
 10
270.648071
 20
140.121414
 30
0.0
 11
270.537415
 21
140.217377
 31
0.0
210
0.0
220
0.0
230
1.0
  0
POLYLINE
  5
363
100
AcDbEntity
  8
0
370
    35
390
0
 62
     7
100
AcDb2dPolyline
 66
     1
 10
0.0
 20
0.0
 30
0.0
 71
    11
  0
VERTEX
  5
364
100
AcDbEntity
  8
0
370
     0
390
0
100
AcDbVertex
100
AcDb2dVertex
 10
270.648071
 20
140.121414
 30
0.0
  0
VERTEX
  5
365
100
AcDbEntity
  8
0
370
     0
390
0
100
AcDbVertex
100
AcDb2dVertex
 10
270.971252
 20
139.90036
 30
0.0
  0
VERTEX
  5
366
100
AcDbEntity
  8
0
370
     0
390
0
100
AcDbVertex
100
AcDb2dVertex
 10
271.331512
 20
139.747467
 30
0.0
  0
VERTEX
  5
367
100
AcDbEntity
  8
0
370
     0
390
0
100
AcDbVertex
100
AcDb2dVertex
 10
271.7146
 20
139.668915
 30
0.0
  0
VERTEX
  5
368
100
AcDbEntity
  8
0
370
     0
390
0
100
AcDbVertex
100
AcDb2dVertex
 10
272.105164
 20
139.667603
 30
0.0
  0
VERTEX
  5
369
100
AcDbEntity
  8
0
370
     0
390
0
100
AcDbVertex
100
AcDb2dVertex
 10
272.487946
 20
139.743195
 30
0.0
  0
VERTEX
  5
36A
100
AcDbEntity
  8
0
370
     0
390
0
100
AcDbVertex
100
AcDb2dVertex
 10
272.847809
 20
139.892441
 30
0.0
  0
VERTEX
  5
36B
100
AcDbEntity
  8
0
370
     0
390
0
100
AcDbVertex
100
AcDb2dVertex
 10
273.169464
 20
140.108536
 30
0.0
  0
VERTEX
  5
36C
100
AcDbEntity
  8
0
370
     0
390
0
100
AcDbVertex
100
AcDb2dVertex
 10
273.441559
 20
140.383331
 30
0.0
  0
VERTEX
  5
36D
100
AcDbEntity
  8
0
370
     0
390
0
100
AcDbVertex
100
AcDb2dVertex
 10
273.65332
 20
140.705872
 30
0.0
  0
VERTEX
  5
36E
100
AcDbEntity
  8
0
370
     0
390
0
100
AcDbVertex
100
AcDb2dVertex
 10
273.788727
 20
141.036209
 30
0.0
  0
SEQEND
  5
36F
100
AcDbEntity
  8
0
370
     0
390
0
  0
ARC
  5
370
100
AcDbEntity
  8
0
370
    35
390
0
 62
     7
100
AcDbCircle
 10
270.568909
 20
142.015594
 30
0.0
 40
3.365508
210
0.0
220
0.0
230
1.0
100
AcDbArc
 50
343.081466
 51
357.287377
  0
LINE
  5
371
100
AcDbEntity
  8
0
370
    35
390
0
 62
     7
 48
0.004024
100
AcDbLine
 10
273.930695
 20
141.856323
 30
0.0
 11
273.93457
 21
142.017242
 31
0.0
210
0.0
220
0.0
230
1.0
  0
LINE
  5
372
100
AcDbEntity
  8
0
370
    35
390
0
 62
     7
 48
0.057601
100
AcDbLine
 10
273.93457
 20
142.017242
 30
0.0
 11
273.93457
 21
144.321289
 31
0.0
210
0.0
220
0.0
230
1.0
  0
ARC
  5
373
100
AcDbEntity
  8
0
370
    35
390
0
 62
     7
100
AcDbCircle
 10
271.962189
 20
144.322556
 30
0.0
 40
1.972214
210
0.0
220
0.0
230
1.0
100
AcDbArc
 50
359.963198
 51
67.514241
  0
ARC
  5
374
100
AcDbEntity
  8
0
370
    35
390
0
 62
     7
100
AcDbCircle
 10
245.440308
 20
133.807678
 30
0.0
 40
17.797458
210
0.0
220
0.0
230
1.0
100
AcDbArc
 50
48.378913
 51
50.417861
  0
ARC
  5
375
100
AcDbEntity
  8
0
370
    35
390
0
 62
     7
100
AcDbCircle
 10
253.408173
 20
143.446182
 30
0.0
 40
5.291912
210
0.0
220
0.0
230
1.0
100
AcDbArc
 50
50.4117
 51
117.889912
  0
ARC
  5
376
100
AcDbEntity
  8
0
370
    35
390
0
 62
     7
100
AcDbCircle
 10
259.269592
 20
132.382751
 30
0.0
 40
17.811992
210
0.0
220
0.0
230
1.0
100
AcDbArc
 50
117.907302
 51
122.055699
  0
LINE
  5
377
100
AcDbEntity
  8
0
370
    35
390
0
 62
     7
 48
0.169107
100
AcDbLine
 10
244.083191
 20
143.888687
 30
0.0
 11
249.815979
 21
147.479004
 31
0.0
210
0.0
220
0.0
230
1.0
  0
ARC
  5
378
100
AcDbEntity
  8
0
370
    35
390
0
 62
     7
100
AcDbCircle
 10
246.082153
 20
140.696945
 30
0.0
 40
3.766043
210
0.0
220
0.0
230
1.0
100
AcDbArc
 50
122.058718
 51
125.197149
  0
ARC
  5
379
100
AcDbEntity
  8
0
370
    35
390
0
 62
     7
100
AcDbCircle
 10
245.427444
 20
141.610321
 30
0.0
 40
2.63699
210
0.0
220
0.0
230
1.0
100
AcDbArc
 50
174.74524
 51
261.551354
  0
ARC
  5
37A
100
AcDbEntity
  8
0
370
    35
390
0
 62
     7
100
AcDbCircle
 10
245.43692
 20
141.61174
 30
0.0
 40
2.646601
210
0.0
220
0.0
230
1.0
100
AcDbArc
 50
125.197163
 51
174.79454
  0
ARC
  5
37B
100
AcDbEntity
  8
0
370
    35
390
0
 62
     7
100
AcDbCircle
 10
246.337509
 20
147.819092
 30
0.0
 40
8.911721
210
0.0
220
0.0
230
1.0
100
AcDbArc
 50
261.62861
 51
266.512735
  0
LINE
  5
37C
100
AcDbEntity
  8
0
370
    35
390
0
 62
     7
 48
0.353678
100
AcDbLine
 10
259.91626
 20
138.061447
 30
0.0
 11
245.795441
 21
138.923859
 31
0.0
210
0.0
220
0.0
230
1.0
  0
ARC
  5
37D
100
AcDbEntity
  8
0
370
    35
390
0
 62
     7
100
AcDbCircle
 10
260.461792
 20
146.956131
 30
0.0
 40
8.911396
210
0.0
220
0.0
230
1.0
100
AcDbArc
 50
266.490366
 51
270.462046
  0
ARC
  5
37E
100
AcDbEntity
  8
0
370
    35
390
0
 62
     7
100
AcDbCircle
 10
260.509918
 20
140.68721
 30
0.0
 40
2.642555
210
0.0
220
0.0
230
1.0
100
AcDbArc
 50
270.514557
 51
357.166109
  0
ARC
  5
37F
100
AcDbEntity
  8
0
370
    35
390
0
 62
     7
100
AcDbCircle
 10
260.506073
 20
140.688965
 30
0.0
 40
2.646639
210
0.0
220
0.0
230
1.0
100
AcDbArc
 50
357.132318
 51
48.370061
  0
LINE
  5
380
100
AcDbEntity
  8
0
370
    35
390
0
 62
     7
 48
0.167308
100
AcDbLine
 10
262.264252
 20
142.667175
 30
0.0
 11
257.261414
 21
147.112244
 31
0.0
210
0.0
220
0.0
230
1.0
  0
ARC
  5
381
100
AcDbEntity
  8
0
370
    35
390
0
 62
     7
100
AcDbCircle
 10
239.75238
 20
157.17308
 30
0.0
 40
18.965764
210
0.0
220
0.0
230
1.0
100
AcDbArc
 50
228.430107
 51
231.578852
  0
ARC
  5
382
100
AcDbEntity
  8
0
370
    35
390
0
 62
     7
100
AcDbCircle
 10
231.245605
 20
146.449173
 30
0.0
 40
5.277579
210
0.0
220
0.0
230
1.0
100
AcDbArc
 50
231.584411
 51
298.258471
  0
ARC
  5
383
100
AcDbEntity
  8
0
370
    35
390
0
 62
     7
100
AcDbCircle
 10
224.759155
 20
158.508865
 30
0.0
 40
18.970952
210
0.0
220
0.0
230
1.0
100
AcDbArc
 50
298.269802
 51
301.997385
  0
LINE
  5
384
100
AcDbEntity
  8
0
370
    35
390
0
 62
     7
 48
0.238643
100
AcDbLine
 10
234.811493
 20
142.42012
 30
0.0
 11
242.906799
 21
147.478455
 31
0.0
210
0.0
220
0.0
230
1.0
  0
ARC
  5
385
100
AcDbEntity
  8
0
370
    35
390
0
 62
     7
100
AcDbCircle
 10
240.969406
 20
150.578964
 30
0.0
 40
3.656053
210
0.0
220
0.0
230
1.0
100
AcDbArc
 50
301.999857
 51
305.151207
  0
ARC
  5
386
100
AcDbEntity
  8
0
370
    35
390
0
 62
     7
100
AcDbCircle
 10
241.573242
 20
149.75087
 30
0.0
 40
2.619636
210
0.0
220
0.0
230
1.0
100
AcDbArc
 50
355.49037
 51
73.195531
  0
ARC
  5
387
100
AcDbEntity
  8
0
370
    35
390
0
 62
     7
100
AcDbCircle
 10
241.562759
 20
149.742569
 30
0.0
 40
2.630414
210
0.0
220
0.0
230
1.0
100
AcDbArc
 50
305.072681
 51
355.688775
  0
ARC
  5
388
100
AcDbEntity
  8
0
370
    35
390
0
 62
     7
100
AcDbCircle
 10
239.611038
 20
143.20015
 30
0.0
 40
9.457225
210
0.0
220
0.0
230
1.0
100
AcDbArc
 50
73.289091
 51
79.37483
  0
ARC
  5
389
100
AcDbEntity
  8
0
370
    35
390
0
 62
     7
100
AcDbCircle
 10
2.852849
 20
-1119.089478
 30
0.0
 40
1293.758215
210
0.0
220
0.0
230
1.0
100
AcDbArc
 50
79.376873
 51
80.332532
  0
ARC
  5
38A
100
AcDbEntity
  8
0
370
    35
390
0
 62
     7
100
AcDbCircle
 10
218.53064
 20
146.983978
 30
0.0
 40
9.445378
210
0.0
220
0.0
230
1.0
100
AcDbArc
 50
80.354532
 51
86.472387
  0
ARC
  5
38B
100
AcDbEntity
  8
0
370
    35
390
0
 62
     7
100
AcDbCircle
 10
218.956329
 20
153.788956
 30
0.0
 40
2.627801
210
0.0
220
0.0
230
1.0
100
AcDbArc
 50
86.606819
 51
180.551683
  0
ARC
  5
38C
100
AcDbEntity
  8
0
370
    35
390
0
 62
     7
100
AcDbCircle
 10
218.966965
 20
153.784927
 30
0.0
 40
2.638927
210
0.0
220
0.0
230
1.0
100
AcDbArc
 50
180.462153
 51
228.422075
  0
LINE
  5
38D
100
AcDbEntity
  8
0
370
    35
390
0
 62
     7
 48
0.332569
100
AcDbLine
 10
227.167953
 20
142.983902
 30
0.0
 11
217.215698
 21
151.810898
 31
0.0
210
0.0
220
0.0
230
1.0
  0
ARC
  5
38E
100
AcDbEntity
  8
0
370
    35
390
0
 62
     7
100
AcDbCircle
 10
194.032639
 20
141.429077
 30
0.0
 40
19.483874
210
0.0
220
0.0
230
1.0
100
AcDbArc
 50
48.450633
 51
50.239289
  0
ARC
  5
38F
100
AcDbEntity
  8
0
370
    35
390
0
 62
     7
100
AcDbCircle
 10
203.125626
 20
152.361084
 30
0.0
 40
5.264296
210
0.0
220
0.0
230
1.0
100
AcDbArc
 50
50.218327
 51
116.580824
  0
ARC
  5
390
100
AcDbEntity
  8
0
370
    35
390
0
 62
     7
100
AcDbCircle
 10
209.517517
 20
139.618713
 30
0.0
 40
19.519683
210
0.0
220
0.0
230
1.0
100
AcDbArc
 50
116.62365
 51
121.968778
  0
LINE
  5
391
100
AcDbEntity
  8
0
370
    35
390
0
 62
     7
 48
0.406234
100
AcDbLine
 10
185.398544
 20
147.573349
 30
0.0
 11
199.182678
 21
156.177979
 31
0.0
210
0.0
220
0.0
230
1.0
  0
ARC
  5
392
100
AcDbEntity
  8
0
370
    35
390
0
 62
     7
100
AcDbCircle
 10
187.312729
 20
144.50737
 30
0.0
 40
3.614465
210
0.0
220
0.0
230
1.0
100
AcDbArc
 50
121.977726
 51
128.511662
  0
ARC
  5
393
100
AcDbEntity
  8
0
370
    35
390
0
 62
     7
100
AcDbCircle
 10
186.665604
 20
145.271393
 30
0.0
 40
2.594617
210
0.0
220
0.0
230
1.0
100
AcDbArc
 50
186.531008
 51
257.760059
  0
ARC
  5
394
100
AcDbEntity
  8
0
370
    35
390
0
 62
     7
100
AcDbCircle
 10
186.697327
 20
145.278671
 30
0.0
 40
2.627635
210
0.0
220
0.0
230
1.0
100
AcDbArc
 50
128.483822
 51
186.609856
  0
ARC
  5
395
100
AcDbEntity
  8
0
370
    35
390
0
 62
     7
100
AcDbCircle
 10
188.164841
 20
152.309494
 30
0.0
 40
9.790027
210
0.0
220
0.0
230
1.0
100
AcDbArc
 50
257.91785
 51
266.25217
  0
ARC
  5
396
100
AcDbEntity
  8
0
370
    35
390
0
 62
     7
100
AcDbCircle
 10
743.099304
 20
8710.636719
 30
0.0
 40
8586.089882
210
0.0
220
0.0
230
1.0
100
AcDbArc
 50
266.290009
 51
266.482846
  0
ARC
  5
397
100
AcDbEntity
  8
0
370
    35
390
0
 62
     7
100
AcDbCircle
 10
216.964767
 20
150.469772
 30
0.0
 40
9.769858
210
0.0
220
0.0
230
1.0
100
AcDbArc
 50
266.479472
 51
272.745351
  0
ARC
  5
398
100
AcDbEntity
  8
0
370
    35
390
0
 62
     7
100
AcDbCircle
 10
217.301071
 20
143.327957
 30
0.0
 40
2.620749
210
0.0
220
0.0
230
1.0
100
AcDbArc
 50
272.879933
 51
357.251426
  0
ARC
  5
399
100
AcDbEntity
  8
0
370
    35
390
0
 62
     7
100
AcDbCircle
 10
217.287399
 20
143.332703
 30
0.0
 40
2.635134
210
0.0
220
0.0
230
1.0
100
AcDbArc
 50
357.162443
 51
48.443124
  0
LINE
  5
39A
100
AcDbEntity
  8
0
370
    35
390
0
 62
     7
 48
0.403531
100
AcDbLine
 10
219.035431
 20
145.30455
 30
0.0
 11
206.955612
 21
156.010513
 31
0.0
210
0.0
220
0.0
230
1.0
  0
ARC
  5
39B
100
AcDbEntity
  8
0
370
    35
390
0
 62
     7
100
AcDbCircle
 10
172.599777
 20
150.179535
 30
0.0
 40
5.255774
210
0.0
220
0.0
230
1.0
100
AcDbArc
 50
228.382501
 51
295.041575
  0
ARC
  5
39C
100
AcDbEntity
  8
0
370
    35
390
0
 62
     7
100
AcDbCircle
 10
166.732407
 20
162.685852
 30
0.0
 40
19.069584
210
0.0
220
0.0
230
1.0
100
AcDbArc
 50
295.108326
 51
301.985801
  0
LINE
  5
39D
100
AcDbEntity
  8
0
370
    35
390
0
 62
     7
 48
0.439956
100
AcDbLine
 10
176.83374
 20
146.511429
 30
0.0
 11
191.758453
 21
155.836212
 31
0.0
210
0.0
220
0.0
230
1.0
  0
ARC
  5
39E
100
AcDbEntity
  8
0
370
    35
390
0
 62
     7
100
AcDbCircle
 10
189.820419
 20
158.937164
 30
0.0
 40
3.656767
210
0.0
220
0.0
230
1.0
100
AcDbArc
 50
302.004577
 51
312.951133
  0
ARC
  5
39F
100
AcDbEntity
  8
0
370
    35
390
0
 62
     7
100
AcDbCircle
 10
190.563873
 20
158.186584
 30
0.0
 40
2.581979
210
0.0
220
0.0
230
1.0
100
AcDbArc
 50
2.788926
 51
72.930561
  0
ARC
  5
3A0
100
AcDbEntity
  8
0
370
    35
390
0
 62
     7
100
AcDbCircle
 10
190.533295
 20
158.176407
 30
0.0
 40
2.614012
210
0.0
220
0.0
230
1.0
100
AcDbArc
 50
312.876401
 51
2.97925
  0
ARC
  5
3A1
100
AcDbEntity
  8
0
370
    35
390
0
 62
     7
100
AcDbCircle
 10
188.559128
 20
151.576187
 30
0.0
 40
9.488969
210
0.0
220
0.0
230
1.0
100
AcDbArc
 50
73.074964
 51
82.06671
  0
ARC
  5
3A2
100
AcDbEntity
  8
0
370
    35
390
0
 62
     7
100
AcDbCircle
 10
72.021271
 20
-684.32019
 30
0.0
 40
853.469067
210
0.0
220
0.0
230
1.0
100
AcDbArc
 50
82.063213
 51
83.751445
  0
ARC
  5
3A3
100
AcDbEntity
  8
0
370
    35
390
0
 62
     7
100
AcDbCircle
 10
88.450325
 20
-538.225952
 30
0.0
 40
706.453727
210
0.0
220
0.0
230
1.0
100
AcDbArc
 50
83.786347
 51
84.525934
  0
ARC
  5
3A4
100
AcDbEntity
  8
0
370
    35
390
0
 62
     7
100
AcDbCircle
 10
154.948456
 20
155.649399
 30
0.0
 40
9.399209
210
0.0
220
0.0
230
1.0
100
AcDbArc
 50
84.541076
 51
90.870927
  0
ARC
  5
3A5
100
AcDbEntity
  8
0
370
    35
390
0
 62
     7
100
AcDbCircle
 10
154.852036
 20
162.418472
 30
0.0
 40
2.630233
210
0.0
220
0.0
230
1.0
100
AcDbArc
 50
91.01197
 51
192.434218
  0
ARC
  5
3A6
100
AcDbEntity
  8
0
370
    35
390
0
 62
     7
100
AcDbCircle
 10
154.860291
 20
162.415802
 30
0.0
 40
2.638322
210
0.0
220
0.0
230
1.0
100
AcDbArc
 50
192.338868
 51
228.425968
  0
LINE
  5
3A7
100
AcDbEntity
  8
0
370
    35
390
0
 62
     7
100
AcDbLine
 10
169.108902
 20
146.250092
 30
0.0
 11
153.109543
 21
160.442078
 31
0.0
210
0.0
220
0.0
230
1.0
  0
LINE
  5
3A8
100
AcDbEntity
  8
0
370
    35
390
0
 62
     7
 48
0.005041
100
AcDbLine
 10
144.015976
 20
163.613297
 30
0.0
 11
144.16745
 21
163.480225
 31
0.0
210
0.0
220
0.0
230
1.0
  0
ARC
  5
3A9
100
AcDbEntity
  8
0
370
    35
390
0
 62
     7
100
AcDbCircle
 10
140.547546
 20
159.622543
 30
0.0
 40
5.287209
210
0.0
220
0.0
230
1.0
100
AcDbArc
 50
49.005552
 51
116.648033
  0
ARC
  5
3AA
100
AcDbEntity
  8
0
370
    35
390
0
 62
     7
100
AcDbCircle
 10
146.087097
 20
148.606094
 30
0.0
 40
17.61779
210
0.0
220
0.0
230
1.0
100
AcDbArc
 50
116.681119
 51
122.064168
  0
LINE
  5
3AB
100
AcDbEntity
  8
0
370
    35
390
0
 62
     7
100
AcDbLine
 10
119.406532
 20
152.679672
 30
0.0
 11
136.734375
 21
163.536346
 31
0.0
210
0.0
220
0.0
230
1.0
  0
ARC
  5
3AC
100
AcDbEntity
  8
0
370
    35
390
0
 62
     7
100
AcDbCircle
 10
121.419029
 20
149.469833
 30
0.0
 40
3.78856
210
0.0
220
0.0
230
1.0
100
AcDbArc
 50
122.086749
 51
140.141261
  0
ARC
  5
3AD
100
AcDbEntity
  8
0
370
    35
390
0
 62
     7
100
AcDbCircle
 10
120.474907
 20
150.228958
 30
0.0
 40
2.564665
210
0.0
220
0.0
230
1.0
100
AcDbArc
 50
182.977561
 51
253.603719
  0
ARC
  5
3AE
100
AcDbEntity
  8
0
370
    35
390
0
 62
     7
100
AcDbCircle
 10
120.501518
 20
150.236816
 30
0.0
 40
2.59249
210
0.0
220
0.0
230
1.0
100
AcDbArc
 50
140.157463
 51
183.120544
  0
ARC
  5
3AF
100
AcDbEntity
  8
0
370
    35
390
0
 62
     7
100
AcDbCircle
 10
122.206512
 20
156.174438
 30
0.0
 40
8.756515
210
0.0
220
0.0
230
1.0
100
AcDbArc
 50
253.715597
 51
264.911268
  0
POLYLINE
  5
3B0
100
AcDbEntity
  8
0
370
    35
390
0
 62
     7
100
AcDb2dPolyline
 66
     1
 10
0.0
 20
0.0
 30
0.0
 71
     4
  0
VERTEX
  5
3B1
100
AcDbEntity
  8
0
370
     0
390
0
100
AcDbVertex
100
AcDb2dVertex
 10
121.429825
 20
147.452438
 30
0.0
  0
VERTEX
  5
3B2
100
AcDbEntity
  8
0
370
     0
390
0
100
AcDbVertex
100
AcDb2dVertex
 10
133.600403
 20
146.416
 30
0.0
  0
VERTEX
  5
3B3
100
AcDbEntity
  8
0
370
     0
390
0
100
AcDbVertex
100
AcDb2dVertex
 10
145.775299
 20
145.456589
 30
0.0
  0
VERTEX
  5
3B4
100
AcDbEntity
  8
0
370
     0
390
0
100
AcDbVertex
100
AcDb2dVertex
 10
157.956955
 20
144.555313
 30
0.0
  0
SEQEND
  5
3B5
100
AcDbEntity
  8
0
370
     0
390
0
  0
ARC
  5
3B6
100
AcDbEntity
  8
0
370
    35
390
0
 62
     7
100
AcDbCircle
 10
158.587128
 20
153.314819
 30
0.0
 40
8.782135
210
0.0
220
0.0
230
1.0
100
AcDbArc
 50
265.885136
 51
269.444812
  0
ARC
  5
3B7
100
AcDbEntity
  8
0
370
    35
390
0
 62
     7
100
AcDbCircle
 10
158.525238
 20
147.177856
 30
0.0
 40
2.645149
210
0.0
220
0.0
230
1.0
100
AcDbArc
 50
269.497036
 51
9.100185
  0
ARC
  5
3B8
100
AcDbEntity
  8
0
370
    35
390
0
 62
     7
100
AcDbCircle
 10
158.523331
 20
147.17926
 30
0.0
 40
2.646985
210
0.0
220
0.0
230
1.0
100
AcDbArc
 50
9.063378
 51
48.365816
  0
LINE
  5
3B9
100
AcDbEntity
  8
0
370
    35
390
0
 62
     7
100
AcDbLine
 10
160.281906
 20
149.157623
 30
0.0
 11
144.16745
 21
163.480225
 31
0.0
210
0.0
220
0.0
230
1.0
  0
ARC
  5
3BA
100
AcDbEntity
  8
0
370
    35
390
0
 62
     7
100
AcDbCircle
 10
110.377136
 20
154.49202
 30
0.0
 40
3.888174
210
0.0
220
0.0
230
1.0
100
AcDbArc
 50
183.398615
 51
212.920318
  0
ARC
  5
3BB
100
AcDbEntity
  8
0
370
    35
390
0
 62
     7
100
AcDbCircle
 10
110.548637
 20
154.523285
 30
0.0
 40
4.06188
210
0.0
220
0.0
230
1.0
100
AcDbArc
 50
180.000473
 51
183.695523
  0
ARC
  5
3BC
100
AcDbEntity
  8
0
370
    35
390
0
 62
     7
100
AcDbCircle
 10
109.136757
 20
153.709976
 30
0.0
 40
2.421209
210
0.0
220
0.0
230
1.0
100
AcDbArc
 50
213.337725
 51
282.680189
  0
ARC
  5
3BD
100
AcDbEntity
  8
0
370
    35
390
0
 62
     7
100
AcDbCircle
 10
107.986847
 20
158.802063
 30
0.0
 40
7.641517
210
0.0
220
0.0
230
1.0
100
AcDbArc
 50
282.710993
 51
302.215493
  0
LINE
  5
3BE
100
AcDbEntity
  8
0
370
    35
390
0
 62
     7
 48
0.445287
100
AcDbLine
 10
112.0606
 20
152.336929
 30
0.0
 11
127.131645
 21
161.829666
 31
0.0
210
0.0
220
0.0
230
1.0
  0
ARC
  5
3BF
100
AcDbEntity
  8
0
370
    35
390
0
 62
     7
100
AcDbCircle
 10
125.000771
 20
165.226532
 30
0.0
 40
4.009622
210
0.0
220
0.0
230
1.0
100
AcDbArc
 50
302.100384
 51
328.631608
  0
ARC
  5
3C0
100
AcDbEntity
  8
0
370
    35
390
0
 62
     7
100
AcDbCircle
 10
126.253647
 20
164.459213
 30
0.0
 40
2.536226
210
0.0
220
0.0
230
1.0
100
AcDbArc
 50
19.586182
 51
75.966108
  0
ARC
  5
3C1
100
AcDbEntity
  8
0
370
    35
390
0
 62
     7
100
AcDbCircle
 10
126.251442
 20
164.455078
 30
0.0
 40
2.539787
210
0.0
220
0.0
230
1.0
100
AcDbArc
 50
328.804497
 51
19.657356
  0
ARC
  5
3C2
100
AcDbEntity
  8
0
370
    35
390
0
 62
     7
100
AcDbCircle
 10
125.028008
 20
159.538239
 30
0.0
 40
7.607515
210
0.0
220
0.0
230
1.0
100
AcDbArc
 50
75.998203
 51
87.372716
  0
ARC
  5
3C3
100
AcDbEntity
  8
0
370
    35
390
0
 62
     7
100
AcDbCircle
 10
105.257912
 20
-269.454346
 30
0.0
 40
437.054698
210
0.0
220
0.0
230
1.0
100
AcDbArc
 50
87.361589
 51
89.46595
  0
ARC
  5
3C4
100
AcDbEntity
  8
0
370
    35
390
0
 62
     7
100
AcDbCircle
 10
109.267563
 20
160.041992
 30
0.0
 40
7.538948
210
0.0
220
0.0
230
1.0
100
AcDbArc
 50
89.513386
 51
91.465864
  0
ARC
  5
3C5
100
AcDbEntity
  8
0
370
    35
390
0
 62
     7
100
AcDbCircle
 10
109.142799
 20
164.923309
 30
0.0
 40
2.6561
210
0.0
220
0.0
230
1.0
100
AcDbArc
 50
91.469094
 51
179.996822
  0
LINE
  5
3C6
100
AcDbEntity
  8
0
370
    35
390
0
 62
     7
 48
0.260005
100
AcDbLine
 10
106.486755
 20
164.923462
 30
0.0
 11
106.486755
 21
154.523254
 31
0.0
210
0.0
220
0.0
230
1.0
  0
ARC
  5
3C7
100
AcDbEntity
  8
0
370
    35
390
0
 62
     7
100
AcDbCircle
 10
89.851112
 20
151.69754
 30
0.0
 40
6.634261
210
0.0
220
0.0
230
1.0
100
AcDbArc
 50
148.708477
 51
158.040892
  0
POLYLINE
  5
3C8
100
AcDbEntity
  8
0
370
    35
390
0
 62
     7
100
AcDb2dPolyline
 66
     1
 10
0.0
 20
0.0
 30
0.0
 71
     9
  0
VERTEX
  5
3C9
100
AcDbEntity
  8
0
370
     0
390
0
100
AcDbVertex
100
AcDb2dVertex
 10
83.698257
 20
154.178345
 30
0.0
  0
VERTEX
  5
3CA
100
AcDbEntity
  8
0
370
     0
390
0
100
AcDbVertex
100
AcDb2dVertex
 10
83.572243
 20
153.699005
 30
0.0
  0
VERTEX
  5
3CB
100
AcDbEntity
  8
0
370
     0
390
0
100
AcDbVertex
100
AcDb2dVertex
 10
83.566025
 20
153.185974
 30
0.0
  0
VERTEX
  5
3CC
100
AcDbEntity
  8
0
370
     0
390
0
100
AcDbVertex
100
AcDb2dVertex
 10
83.686409
 20
152.672546
 30
0.0
  0
VERTEX
  5
3CD
100
AcDbEntity
  8
0
370
     0
390
0
100
AcDbVertex
100
AcDb2dVertex
 10
83.937927
 20
152.181808
 30
0.0
  0
VERTEX
  5
3CE
100
AcDbEntity
  8
0
370
     0
390
0
100
AcDbVertex
100
AcDb2dVertex
 10
84.306633
 20
151.75972
 30
0.0
  0
VERTEX
  5
3CF
100
AcDbEntity
  8
0
370
     0
390
0
100
AcDbVertex
100
AcDb2dVertex
 10
84.771416
 20
151.435059
 30
0.0
  0
VERTEX
  5
3D0
100
AcDbEntity
  8
0
370
     0
390
0
100
AcDbVertex
100
AcDb2dVertex
 10
85.167572
 20
151.268753
 30
0.0
  0
VERTEX
  5
3D1
100
AcDbEntity
  8
0
370
     0
390
0
100
AcDbVertex
100
AcDb2dVertex
 10
85.588257
 20
151.176727
 30
0.0
  0
SEQEND
  5
3D2
100
AcDbEntity
  8
0
370
     0
390
0
  0
LINE
  5
3D3
100
AcDbEntity
  8
0
370
    35
390
0
 62
     7
 48
0.039129
100
AcDbLine
 10
85.588257
 20
151.176727
 30
0.0
 11
87.141609
 21
150.984909
 31
0.0
210
0.0
220
0.0
230
1.0
  0
POLYLINE
  5
3D4
100
AcDbEntity
  8
0
370
    35
390
0
 62
     7
100
AcDb2dPolyline
 66
     1
 10
0.0
 20
0.0
 30
0.0
 71
     8
  0
VERTEX
  5
3D5
100
AcDbEntity
  8
0
370
     0
390
0
100
AcDbVertex
100
AcDb2dVertex
 10
87.141609
 20
150.984909
 30
0.0
  0
VERTEX
  5
3D6
100
AcDbEntity
  8
0
370
     0
390
0
100
AcDbVertex
100
AcDb2dVertex
 10
88.141098
 20
150.931702
 30
0.0
  0
VERTEX
  5
3D7
100
AcDbEntity
  8
0
370
     0
390
0
100
AcDbVertex
100
AcDb2dVertex
 10
89.121475
 20
151.015091
 30
0.0
  0
VERTEX
  5
3D8
100
AcDbEntity
  8
0
370
     0
390
0
100
AcDbVertex
100
AcDb2dVertex
 10
90.048126
 20
151.225479
 30
0.0
  0
VERTEX
  5
3D9
100
AcDbEntity
  8
0
370
     0
390
0
100
AcDbVertex
100
AcDb2dVertex
 10
90.534416
 20
151.393173
 30
0.0
  0
VERTEX
  5
3DA
100
AcDbEntity
  8
0
370
     0
390
0
100
AcDbVertex
100
AcDb2dVertex
 10
90.988426
 20
151.590729
 30
0.0
  0
VERTEX
  5
3DB
100
AcDbEntity
  8
0
370
     0
390
0
100
AcDbVertex
100
AcDb2dVertex
 10
91.441605
 20
151.833893
 30
0.0
  0
VERTEX
  5
3DC
100
AcDbEntity
  8
0
370
     0
390
0
100
AcDbVertex
100
AcDb2dVertex
 10
92.171471
 20
152.3508
 30
0.0
  0
SEQEND
  5
3DD
100
AcDbEntity
  8
0
370
     0
390
0
  0
LINE
  5
3DE
100
AcDbEntity
  8
0
370
    35
390
0
 62
     7
 48
0.097376
100
AcDbLine
 10
95.147713
 20
154.863449
 30
0.0
 11
92.171471
 21
152.3508
 31
0.0
210
0.0
220
0.0
230
1.0
  0
POLYLINE
  5
3DF
100
AcDbEntity
  8
0
370
    35
390
0
 62
     7
100
AcDb2dPolyline
 66
     1
 10
0.0
 20
0.0
 30
0.0
 71
     5
  0
VERTEX
  5
3E0
100
AcDbEntity
  8
0
370
     0
390
0
100
AcDbVertex
100
AcDb2dVertex
 10
95.147713
 20
154.863449
 30
0.0
  0
VERTEX
  5
3E1
100
AcDbEntity
  8
0
370
     0
390
0
100
AcDbVertex
100
AcDb2dVertex
 10
95.536407
 20
155.277847
 30
0.0
  0
VERTEX
  5
3E2
100
AcDbEntity
  8
0
370
     0
390
0
100
AcDbVertex
100
AcDb2dVertex
 10
95.864761
 20
155.829346
 30
0.0
  0
VERTEX
  5
3E3
100
AcDbEntity
  8
0
370
     0
390
0
100
AcDbVertex
100
AcDb2dVertex
 10
96.083595
 20
156.468094
 30
0.0
  0
VERTEX
  5
3E4
100
AcDbEntity
  8
0
370
     0
390
0
100
AcDbVertex
100
AcDb2dVertex
 10
96.173271
 20
157.160355
 30
0.0
  0
SEQEND
  5
3E5
100
AcDbEntity
  8
0
370
     0
390
0
  0
LINE
  5
3E6
100
AcDbEntity
  8
0
370
    35
390
0
 62
     7
 48
0.002562
100
AcDbLine
 10
96.173271
 20
157.160355
 30
0.0
 11
96.174759
 21
157.262833
 31
0.0
210
0.0
220
0.0
230
1.0
  0
LINE
  5
3E7
100
AcDbEntity
  8
0
370
    35
390
0
 62
     7
 48
0.115784
100
AcDbLine
 10
96.174751
 20
157.262833
 30
0.0
 11
96.174751
 21
161.894211
 31
0.0
210
0.0
220
0.0
230
1.0
  0
POLYLINE
  5
3E8
100
AcDbEntity
  8
0
370
    35
390
0
 62
     7
100
AcDb2dPolyline
 66
     1
 10
0.0
 20
0.0
 30
0.0
 71
     7
  0
VERTEX
  5
3E9
100
AcDbEntity
  8
0
370
     0
390
0
100
AcDbVertex
100
AcDb2dVertex
 10
94.543739
 20
166.397095
 30
0.0
  0
VERTEX
  5
3EA
100
AcDbEntity
  8
0
370
     0
390
0
100
AcDbVertex
100
AcDb2dVertex
 10
94.976257
 20
165.848404
 30
0.0
  0
VERTEX
  5
3EB
100
AcDbEntity
  8
0
370
     0
390
0
100
AcDbVertex
100
AcDb2dVertex
 10
95.368172
 20
165.204956
 30
0.0
  0
VERTEX
  5
3EC
100
AcDbEntity
  8
0
370
     0
390
0
100
AcDbVertex
100
AcDb2dVertex
 10
95.697975
 20
164.481308
 30
0.0
  0
VERTEX
  5
3ED
100
AcDbEntity
  8
0
370
     0
390
0
100
AcDbVertex
100
AcDb2dVertex
 10
95.958519
 20
163.658234
 30
0.0
  0
VERTEX
  5
3EE
100
AcDbEntity
  8
0
370
     0
390
0
100
AcDbVertex
100
AcDb2dVertex
 10
96.120094
 20
162.788101
 30
0.0
  0
VERTEX
  5
3EF
100
AcDbEntity
  8
0
370
     0
390
0
100
AcDbVertex
100
AcDb2dVertex
 10
96.174759
 20
161.894211
 30
0.0
  0
SEQEND
  5
3F0
100
AcDbEntity
  8
0
370
     0
390
0
  0
POLYLINE
  5
3F1
100
AcDbEntity
  8
0
370
    35
390
0
 62
     7
100
AcDb2dPolyline
 66
     1
 10
0.0
 20
0.0
 30
0.0
 71
     6
  0
VERTEX
  5
3F2
100
AcDbEntity
  8
0
370
     0
390
0
100
AcDbVertex
100
AcDb2dVertex
 10
92.391464
 20
166.891159
 30
0.0
  0
VERTEX
  5
3F3
100
AcDbEntity
  8
0
370
     0
390
0
100
AcDbVertex
100
AcDb2dVertex
 10
92.885933
 20
167.003647
 30
0.0
  0
VERTEX
  5
3F4
100
AcDbEntity
  8
0
370
     0
390
0
100
AcDbVertex
100
AcDb2dVertex
 10
93.378593
 20
166.997757
 30
0.0
  0
VERTEX
  5
3F5
100
AcDbEntity
  8
0
370
     0
390
0
100
AcDbVertex
100
AcDb2dVertex
 10
93.839409
 20
166.880188
 30
0.0
  0
VERTEX
  5
3F6
100
AcDbEntity
  8
0
370
     0
390
0
100
AcDbVertex
100
AcDb2dVertex
 10
94.229141
 20
166.674133
 30
0.0
  0
VERTEX
  5
3F7
100
AcDbEntity
  8
0
370
     0
390
0
100
AcDbVertex
100
AcDb2dVertex
 10
94.543739
 20
166.397095
 30
0.0
  0
SEQEND
  5
3F8
100
AcDbEntity
  8
0
370
     0
390
0
  0
ARC
  5
3F9
100
AcDbEntity
  8
0
370
    35
390
0
 62
     7
100
AcDbCircle
 10
94.563705
 20
160.73262
 30
0.0
 40
6.5303
210
0.0
220
0.0
230
1.0
100
AcDbArc
 50
109.428824
 51
120.183148
  0
ARC
  5
3FA
100
AcDbEntity
  8
0
370
    35
390
0
 62
     7
100
AcDbCircle
 10
92.315552
 20
164.611908
 30
0.0
 40
2.046598
210
0.0
220
0.0
230
1.0
100
AcDbArc
 50
120.379571
 51
136.620627
  0
ARC
  5
3FB
100
AcDbEntity
  8
0
370
    35
390
0
 62
     7
100
AcDbCircle
 10
92.379303
 20
164.549652
 30
0.0
 40
2.135748
210
0.0
220
0.0
230
1.0
100
AcDbArc
 50
136.581476
 51
148.870407
  0
LINE
  5
3FC
100
AcDbEntity
  8
0
370
    35
390
0
 62
     7
 48
0.307242
100
AcDbLine
 10
84.181816
 20
155.143372
 30
0.0
 11
90.551094
 21
165.653793
 31
0.0
210
0.0
220
0.0
230
1.0
  0
ARC
  5
3FD
100
AcDbEntity
  8
0
370
    35
390
0
 62
     7
100
AcDbCircle
 10
80.486153
 20
159.287674
 30
0.0
 40
7.426268
210
0.0
220
0.0
230
1.0
100
AcDbArc
 50
78.91298
 51
94.355314
  0
LINE
  5
3FE
100
AcDbEntity
  8
0
370
    35
390
0
 62
     7
 48
0.030415
100
AcDbLine
 10
79.922188
 20
166.692505
 30
0.0
 11
78.70929
 21
166.59758
 31
0.0
210
0.0
220
0.0
230
1.0
  0
POLYLINE
  5
3FF
100
AcDbEntity
  8
0
370
    35
390
0
 62
     7
100
AcDb2dPolyline
 66
     1
 10
0.0
 20
0.0
 30
0.0
 71
     6
  0
VERTEX
  5
400
100
AcDbEntity
  8
0
370
     0
390
0
100
AcDbVertex
100
AcDb2dVertex
 10
74.505913
 20
164.760406
 30
0.0
  0
VERTEX
  5
401
100
AcDbEntity
  8
0
370
     0
390
0
100
AcDbVertex
100
AcDb2dVertex
 10
75.010078
 20
165.198914
 30
0.0
  0
VERTEX
  5
402
100
AcDbEntity
  8
0
370
     0
390
0
100
AcDbVertex
100
AcDb2dVertex
 10
75.605423
 20
165.608032
 30
0.0
  0
VERTEX
  5
403
100
AcDbEntity
  8
0
370
     0
390
0
100
AcDbVertex
100
AcDb2dVertex
 10
76.281982
 20
165.967209
 30
0.0
  0
VERTEX
  5
404
100
AcDbEntity
  8
0
370
     0
390
0
100
AcDbVertex
100
AcDb2dVertex
 10
77.158951
 20
166.301453
 30
0.0
  0
VERTEX
  5
405
100
AcDbEntity
  8
0
370
     0
390
0
100
AcDbVertex
100
AcDb2dVertex
 10
78.102234
 20
166.522903
 30
0.0
  0
SEQEND
  5
406
100
AcDbEntity
  8
0
370
     0
390
0
  0
ARC
  5
407
100
AcDbEntity
  8
0
370
    35
390
0
 62
     7
100
AcDbCircle
 10
79.304642
 20
159.252747
 30
0.0
 40
7.368915
210
0.0
220
0.0
230
1.0
100
AcDbArc
 50
94.634095
 51
99.391116
  0
ARC
  5
408
100
AcDbEntity
  8
0
370
    35
390
0
 62
     7
100
AcDbCircle
 10
193.495636
 20
42.802917
 30
0.0
 40
170.388347
210
0.0
220
0.0
230
1.0
100
AcDbArc
 50
134.294319
 51
135.220137
  0
POLYLINE
  5
409
100
AcDbEntity
  8
0
370
    35
390
0
 62
     7
100
AcDb2dPolyline
 66
     1
 10
0.0
 20
0.0
 30
0.0
 71
     6
  0
VERTEX
  5
40A
100
AcDbEntity
  8
0
370
     0
390
0
100
AcDbVertex
100
AcDb2dVertex
 10
71.698425
 20
160.624664
 30
0.0
  0
VERTEX
  5
40B
100
AcDbEntity
  8
0
370
     0
390
0
100
AcDbVertex
100
AcDb2dVertex
 10
71.738831
 20
161.148346
 30
0.0
  0
VERTEX
  5
40C
100
AcDbEntity
  8
0
370
     0
390
0
100
AcDbVertex
100
AcDb2dVertex
 10
71.857483
 20
161.651337
 30
0.0
  0
VERTEX
  5
40D
100
AcDbEntity
  8
0
370
     0
390
0
100
AcDbVertex
100
AcDb2dVertex
 10
72.046288
 20
162.113495
 30
0.0
  0
VERTEX
  5
40E
100
AcDbEntity
  8
0
370
     0
390
0
100
AcDbVertex
100
AcDb2dVertex
 10
72.280945
 20
162.50174
 30
0.0
  0
VERTEX
  5
40F
100
AcDbEntity
  8
0
370
     0
390
0
100
AcDbVertex
100
AcDb2dVertex
 10
72.550842
 20
162.821899
 30
0.0
  0
SEQEND
  5
410
100
AcDbEntity
  8
0
370
     0
390
0
  0
LINE
  5
411
100
AcDbEntity
  8
0
370
    35
390
0
 62
     7
 48
0.093074
100
AcDbLine
 10
71.698425
 20
160.624664
 30
0.0
 11
71.698425
 21
156.901703
 31
0.0
210
0.0
220
0.0
230
1.0
  0
ARC
  5
412
100
AcDbEntity
  8
0
370
    35
390
0
 62
     7
100
AcDbCircle
 10
79.104111
 20
156.887146
 30
0.0
 40
7.405281
210
0.0
220
0.0
230
1.0
100
AcDbArc
 50
179.887348
 51
201.41552
  0
POLYLINE
  5
413
100
AcDbEntity
  8
0
370
    35
390
0
 62
     7
100
AcDb2dPolyline
 66
     1
 10
0.0
 20
0.0
 30
0.0
 71
     6
  0
VERTEX
  5
414
100
AcDbEntity
  8
0
370
     0
390
0
100
AcDbVertex
100
AcDb2dVertex
 10
72.210594
 20
154.183441
 30
0.0
  0
VERTEX
  5
415
100
AcDbEntity
  8
0
370
     0
390
0
100
AcDbVertex
100
AcDb2dVertex
 10
72.434647
 20
153.759872
 30
0.0
  0
VERTEX
  5
416
100
AcDbEntity
  8
0
370
     0
390
0
100
AcDbVertex
100
AcDb2dVertex
 10
72.750587
 20
153.387848
 30
0.0
  0
VERTEX
  5
417
100
AcDbEntity
  8
0
370
     0
390
0
100
AcDbVertex
100
AcDb2dVertex
 10
73.144325
 20
153.08812
 30
0.0
  0
VERTEX
  5
418
100
AcDbEntity
  8
0
370
     0
390
0
100
AcDbVertex
100
AcDb2dVertex
 10
73.602112
 20
152.875717
 30
0.0
  0
VERTEX
  5
419
100
AcDbEntity
  8
0
370
     0
390
0
100
AcDbVertex
100
AcDb2dVertex
 10
74.097763
 20
152.766113
 30
0.0
  0
SEQEND
  5
41A
100
AcDbEntity
  8
0
370
     0
390
0
  0
ARC
  5
41B
100
AcDbEntity
  8
0
370
    35
390
0
 62
     7
100
AcDbCircle
 10
74.906776
 20
160.134567
 30
0.0
 40
7.412701
210
0.0
220
0.0
230
1.0
100
AcDbArc
 50
263.734351
 51
277.438531
  0
ARC
  5
41C
100
AcDbEntity
  8
0
370
    35
390
0
 62
     7
100
AcDbCircle
 10
75.550636
 20
155.087448
 30
0.0
 40
2.325894
210
0.0
220
0.0
230
1.0
100
AcDbArc
 50
288.385979
 51
311.001138
  0
ARC
  5
41D
100
AcDbEntity
  8
0
370
    35
390
0
 62
     7
100
AcDbCircle
 10
75.568092
 20
155.039734
 30
0.0
 40
2.275062
210
0.0
220
0.0
230
1.0
100
AcDbArc
 50
277.535288
 51
288.347812
  0
ARC
  5
41E
100
AcDbEntity
  8
0
370
    35
390
0
 62
     7
100
AcDbCircle
 10
72.281357
 20
158.876785
 30
0.0
 40
7.330405
210
0.0
220
0.0
230
1.0
100
AcDbArc
 50
310.854368
 51
328.382317
  0
LINE
  5
41F
100
AcDbEntity
  8
0
370
    35
390
0
 62
     7
 48
0.237012
100
AcDbLine
 10
78.523438
 20
155.033981
 30
0.0
 11
83.473694
 21
163.119415
 31
0.0
210
0.0
220
0.0
230
1.0
  0
POLYLINE
  5
420
100
AcDbEntity
  8
0
370
    35
390
0
 62
     7
100
AcDb2dPolyline
 66
     1
 10
0.0
 20
0.0
 30
0.0
 71
    10
  0
VERTEX
  5
421
100
AcDbEntity
  8
0
370
     0
390
0
100
AcDbVertex
100
AcDb2dVertex
 10
83.473694
 20
163.119415
 30
0.0
  0
VERTEX
  5
422
100
AcDbEntity
  8
0
370
     0
390
0
100
AcDbVertex
100
AcDb2dVertex
 10
83.703934
 20
163.636169
 30
0.0
  0
VERTEX
  5
423
100
AcDbEntity
  8
0
370
     0
390
0
100
AcDbVertex
100
AcDb2dVertex
 10
83.79686
 20
164.207062
 30
0.0
  0
VERTEX
  5
424
100
AcDbEntity
  8
0
370
     0
390
0
100
AcDbVertex
100
AcDb2dVertex
 10
83.741394
 20
164.791931
 30
0.0
  0
VERTEX
  5
425
100
AcDbEntity
  8
0
370
     0
390
0
100
AcDbVertex
100
AcDb2dVertex
 10
83.600098
 20
165.220154
 30
0.0
  0
VERTEX
  5
426
100
AcDbEntity
  8
0
370
     0
390
0
100
AcDbVertex
100
AcDb2dVertex
 10
83.378273
 20
165.615067
 30
0.0
  0
VERTEX
  5
427
100
AcDbEntity
  8
0
370
     0
390
0
100
AcDbVertex
100
AcDb2dVertex
 10
83.084435
 20
165.960617
 30
0.0
  0
VERTEX
  5
428
100
AcDbEntity
  8
0
370
     0
390
0
100
AcDbVertex
100
AcDb2dVertex
 10
82.734047
 20
166.240631
 30
0.0
  0
VERTEX
  5
429
100
AcDbEntity
  8
0
370
     0
390
0
100
AcDbVertex
100
AcDb2dVertex
 10
82.338623
 20
166.448013
 30
0.0
  0
VERTEX
  5
42A
100
AcDbEntity
  8
0
370
     0
390
0
100
AcDbVertex
100
AcDb2dVertex
 10
81.914207
 20
166.575241
 30
0.0
  0
SEQEND
  5
42B
100
AcDbEntity
  8
0
370
     0
390
0
  0
ARC
  5
42C
100
AcDbEntity
  8
0
370
    35
390
0
 62
     7
100
AcDbCircle
 10
64.526741
 20
159.717377
 30
0.0
 40
5.112819
210
0.0
220
0.0
230
1.0
100
AcDbArc
 50
83.189484
 51
96.101492
  0
ARC
  5
42D
100
AcDbEntity
  8
0
370
    35
390
0
 62
     7
100
AcDbCircle
 10
64.519997
 20
159.735855
 30
0.0
 40
5.093789
210
0.0
220
0.0
230
1.0
100
AcDbArc
 50
96.04821
 51
100.770815
  0
POLYLINE
  5
42E
100
AcDbEntity
  8
0
370
    35
390
0
 62
     7
100
AcDb2dPolyline
 66
     1
 10
0.0
 20
0.0
 30
0.0
 71
    10
  0
VERTEX
  5
42F
100
AcDbEntity
  8
0
370
     0
390
0
100
AcDbVertex
100
AcDb2dVertex
 10
46.586555
 20
159.299362
 30
0.0
  0
VERTEX
  5
430
100
AcDbEntity
  8
0
370
     0
390
0
100
AcDbVertex
100
AcDb2dVertex
 10
47.719711
 20
159.909775
 30
0.0
  0
VERTEX
  5
431
100
AcDbEntity
  8
0
370
     0
390
0
100
AcDbVertex
100
AcDb2dVertex
 10
49.690979
 20
160.832642
 30
0.0
  0
VERTEX
  5
432
100
AcDbEntity
  8
0
370
     0
390
0
100
AcDbVertex
100
AcDb2dVertex
 10
51.319176
 20
161.486832
 30
0.0
  0
VERTEX
  5
433
100
AcDbEntity
  8
0
370
     0
390
0
100
AcDbVertex
100
AcDb2dVertex
 10
52.989021
 20
162.075775
 30
0.0
  0
VERTEX
  5
434
100
AcDbEntity
  8
0
370
     0
390
0
100
AcDbVertex
100
AcDb2dVertex
 10
54.703949
 20
162.614838
 30
0.0
  0
VERTEX
  5
435
100
AcDbEntity
  8
0
370
     0
390
0
100
AcDbVertex
100
AcDb2dVertex
 10
56.448605
 20
163.111328
 30
0.0
  0
VERTEX
  5
436
100
AcDbEntity
  8
0
370
     0
390
0
100
AcDbVertex
100
AcDb2dVertex
 10
58.211567
 20
163.569687
 30
0.0
  0
VERTEX
  5
437
100
AcDbEntity
  8
0
370
     0
390
0
100
AcDbVertex
100
AcDb2dVertex
 10
59.983944
 20
163.991882
 30
0.0
  0
VERTEX
  5
438
100
AcDbEntity
  8
0
370
     0
390
0
100
AcDbVertex
100
AcDb2dVertex
 10
63.568069
 20
164.739899
 30
0.0
  0
SEQEND
  5
439
100
AcDbEntity
  8
0
370
     0
390
0
  0
ARC
  5
43A
100
AcDbEntity
  8
0
370
    35
390
0
 62
     7
100
AcDbCircle
 10
51.551624
 20
157.97226
 30
0.0
 40
5.139352
210
0.0
220
0.0
230
1.0
100
AcDbArc
 50
165.035293
 51
168.243474
  0
POLYLINE
  5
43B
100
AcDbEntity
  8
0
370
    35
390
0
 62
     7
100
AcDb2dPolyline
 66
     1
 10
0.0
 20
0.0
 30
0.0
 71
     8
  0
VERTEX
  5
43C
100
AcDbEntity
  8
0
370
     0
390
0
100
AcDbVertex
100
AcDb2dVertex
 10
46.5201
 20
159.019409
 30
0.0
  0
VERTEX
  5
43D
100
AcDbEntity
  8
0
370
     0
390
0
100
AcDbVertex
100
AcDb2dVertex
 10
47.886082
 20
158.498016
 30
0.0
  0
VERTEX
  5
43E
100
AcDbEntity
  8
0
370
     0
390
0
100
AcDbVertex
100
AcDb2dVertex
 10
49.290207
 20
158.019455
 30
0.0
  0
VERTEX
  5
43F
100
AcDbEntity
  8
0
370
     0
390
0
100
AcDbVertex
100
AcDb2dVertex
 10
51.596256
 20
157.317627
 30
0.0
  0
VERTEX
  5
440
100
AcDbEntity
  8
0
370
     0
390
0
100
AcDbVertex
100
AcDb2dVertex
 10
54.686852
 20
156.486755
 30
0.0
  0
VERTEX
  5
441
100
AcDbEntity
  8
0
370
     0
390
0
100
AcDbVertex
100
AcDb2dVertex
 10
58.675037
 20
155.550278
 30
0.0
  0
VERTEX
  5
442
100
AcDbEntity
  8
0
370
     0
390
0
100
AcDbVertex
100
AcDb2dVertex
 10
61.362053
 20
154.986267
 30
0.0
  0
VERTEX
  5
443
100
AcDbEntity
  8
0
370
     0
390
0
100
AcDbVertex
100
AcDb2dVertex
 10
64.082253
 20
154.457458
 30
0.0
  0
SEQEND
  5
444
100
AcDbEntity
  8
0
370
     0
390
0
  0
ARC
  5
445
100
AcDbEntity
  8
0
370
    35
390
0
 62
     7
100
AcDbCircle
 10
65.040512
 20
159.563141
 30
0.0
 40
5.194839
210
0.0
220
0.0
230
1.0
100
AcDbArc
 50
259.370154
 51
263.458343
  0
ARC
  5
446
100
AcDbEntity
  8
0
370
    35
390
0
 62
     7
100
AcDbCircle
 10
64.749947
 20
156.966599
 30
0.0
 40
2.579803
210
0.0
220
0.0
230
1.0
100
AcDbArc
 50
284.562398
 51
347.75248
  0
ARC
  5
447
100
AcDbEntity
  8
0
370
    35
390
0
 62
     7
100
AcDbCircle
 10
64.744057
 20
156.975174
 30
0.0
 40
2.589936
210
0.0
220
0.0
230
1.0
100
AcDbArc
 50
263.451376
 51
284.640727
  0
ARC
  5
448
100
AcDbEntity
  8
0
370
    35
390
0
 62
     7
100
AcDbCircle
 10
62.158554
 20
157.513474
 30
0.0
 40
5.227861
210
0.0
220
0.0
230
1.0
100
AcDbArc
 50
347.920124
 51
0.002206
  0
LINE
  5
449
100
AcDbEntity
  8
0
370
    35
390
0
 62
     7
 48
0.118027
100
AcDbLine
 10
67.386429
 20
157.513672
 30
0.0
 11
67.386429
 21
162.234741
 31
0.0
210
0.0
220
0.0
230
1.0
  0
POLYLINE
  5
44A
100
AcDbEntity
  8
0
370
    35
390
0
 62
     7
100
AcDb2dPolyline
 66
     1
 10
0.0
 20
0.0
 30
0.0
 71
     9
  0
VERTEX
  5
44B
100
AcDbEntity
  8
0
370
     0
390
0
100
AcDbVertex
100
AcDb2dVertex
 10
67.386429
 20
162.234741
 30
0.0
  0
VERTEX
  5
44C
100
AcDbEntity
  8
0
370
     0
390
0
100
AcDbVertex
100
AcDb2dVertex
 10
67.337914
 20
162.734146
 30
0.0
  0
VERTEX
  5
44D
100
AcDbEntity
  8
0
370
     0
390
0
100
AcDbVertex
100
AcDb2dVertex
 10
67.194122
 20
163.214523
 30
0.0
  0
VERTEX
  5
44E
100
AcDbEntity
  8
0
370
     0
390
0
100
AcDbVertex
100
AcDb2dVertex
 10
66.960663
 20
163.657578
 30
0.0
  0
VERTEX
  5
44F
100
AcDbEntity
  8
0
370
     0
390
0
100
AcDbVertex
100
AcDb2dVertex
 10
66.647507
 20
164.045822
 30
0.0
  0
VERTEX
  5
450
100
AcDbEntity
  8
0
370
     0
390
0
100
AcDbVertex
100
AcDb2dVertex
 10
66.266411
 20
164.365707
 30
0.0
  0
VERTEX
  5
451
100
AcDbEntity
  8
0
370
     0
390
0
100
AcDbVertex
100
AcDb2dVertex
 10
65.832138
 20
164.60527
 30
0.0
  0
VERTEX
  5
452
100
AcDbEntity
  8
0
370
     0
390
0
100
AcDbVertex
100
AcDb2dVertex
 10
65.488808
 20
164.724869
 30
0.0
  0
VERTEX
  5
453
100
AcDbEntity
  8
0
370
     0
390
0
100
AcDbVertex
100
AcDb2dVertex
 10
65.133041
 20
164.794037
 30
0.0
  0
SEQEND
  5
454
100
AcDbEntity
  8
0
370
     0
390
0
  0
LINE
  5
455
100
AcDbEntity
  8
0
370
    13
390
0
 62
     7
 48
0.003085
100
AcDbLine
 10
267.079254
 20
143.311249
 30
0.0
 11
267.09198
 21
143.433975
 31
0.0
210
0.0
220
0.0
230
1.0
  0
LINE
  5
456
100
AcDbEntity
  8
0
370
    13
390
0
 62
     7
 48
0.003391
100
AcDbLine
 10
270.537415
 20
140.217377
 30
0.0
 11
270.543701
 21
140.35289
 31
0.0
210
0.0
220
0.0
230
1.0
  0
LINE
  5
457
100
AcDbEntity
  8
0
370
    13
390
0
 62
     7
 48
0.0034
100
AcDbLine
 10
270.648071
 20
140.121414
 30
0.0
 11
270.654114
 21
140.257263
 31
0.0
210
0.0
220
0.0
230
1.0
  0
LINE
  5
458
100
AcDbEntity
  8
0
370
    13
390
0
 62
     7
 48
0.003079
100
AcDbLine
 10
266.292877
 20
144.352966
 30
0.0
 11
266.310944
 21
144.474792
 31
0.0
210
0.0
220
0.0
230
1.0
  0
LINE
  5
459
100
AcDbEntity
  8
0
370
    13
390
0
 62
     7
 48
0.003129
100
AcDbLine
 10
273.788727
 20
141.036209
 30
0.0
 11
273.792175
 21
141.161331
 31
0.0
210
0.0
220
0.0
230
1.0
  0
LINE
  5
45A
100
AcDbEntity
  8
0
370
    13
390
0
 62
     7
 48
0.003028
100
AcDbLine
 10
243.074326
 20
147.589645
 30
0.0
 11
243.084976
 21
147.710312
 31
0.0
210
0.0
220
0.0
230
1.0
  0
LINE
  5
45B
100
AcDbEntity
  8
0
370
    13
390
0
 62
     7
 48
0.003032
100
AcDbLine
 10
242.906799
 20
147.478455
 30
0.0
 11
242.917404
 21
147.599258
 31
0.0
210
0.0
220
0.0
230
1.0
  0
LINE
  5
45C
100
AcDbEntity
  8
0
370
    13
390
0
 62
     7
 48
0.003284
100
AcDbLine
 10
234.811493
 20
142.42012
 30
0.0
 11
234.816711
 21
142.551392
 31
0.0
210
0.0
220
0.0
230
1.0
  0
LINE
  5
45D
100
AcDbEntity
  8
0
370
    13
390
0
 62
     7
 48
0.003286
100
AcDbLine
 10
233.744247
 20
141.800629
 30
0.0
 11
233.749603
 21
141.931946
 31
0.0
210
0.0
220
0.0
230
1.0
  0
LINE
  5
45E
100
AcDbEntity
  8
0
370
    13
390
0
 62
     7
 48
0.003268
100
AcDbLine
 10
227.966339
 20
142.314087
 30
0.0
 11
227.973679
 21
142.444595
 31
0.0
210
0.0
220
0.0
230
1.0
  0
LINE
  5
45F
100
AcDbEntity
  8
0
370
    13
390
0
 62
     7
 48
0.002975
100
AcDbLine
 10
217.215698
 20
151.810898
 30
0.0
 11
217.214935
 21
151.929886
 31
0.0
210
0.0
220
0.0
230
1.0
  0
LINE
  5
460
100
AcDbEntity
  8
0
370
    13
390
0
 62
     7
 48
0.003266
100
AcDbLine
 10
227.167953
 20
142.983902
 30
0.0
 11
227.175385
 21
143.114334
 31
0.0
210
0.0
220
0.0
230
1.0
  0
LINE
  5
461
100
AcDbEntity
  8
0
370
    13
390
0
 62
     7
 48
0.002923
100
AcDbLine
 10
192.312042
 20
156.260651
 30
0.0
 11
192.312119
 21
156.377579
 31
0.0
210
0.0
220
0.0
230
1.0
  0
LINE
  5
462
100
AcDbEntity
  8
0
370
    13
390
0
 62
     7
 48
0.002918
100
AcDbLine
 10
191.758453
 20
155.836212
 30
0.0
 11
191.758804
 21
155.952942
 31
0.0
210
0.0
220
0.0
230
1.0
  0
LINE
  5
463
100
AcDbEntity
  8
0
370
    13
390
0
 62
     7
 48
0.003404
100
AcDbLine
 10
176.83374
 20
146.511429
 30
0.0
 11
176.823868
 21
146.647217
 31
0.0
210
0.0
220
0.0
230
1.0
  0
LINE
  5
464
100
AcDbEntity
  8
0
370
    13
390
0
 62
     7
 48
0.003348
100
AcDbLine
 10
174.824219
 20
145.418198
 30
0.0
 11
174.815552
 21
145.551834
 31
0.0
210
0.0
220
0.0
230
1.0
  0
LINE
  5
465
100
AcDbEntity
  8
0
370
    13
390
0
 62
     7
 48
0.002599
100
AcDbLine
 10
153.109543
 20
160.442078
 30
0.0
 11
153.08786
 21
160.543732
 31
0.0
210
0.0
220
0.0
230
1.0
  0
LINE
  5
466
100
AcDbEntity
  8
0
370
    13
390
0
 62
     7
 48
0.003023
100
AcDbLine
 10
169.108902
 20
146.250092
 30
0.0
 11
169.099792
 21
146.370667
 31
0.0
210
0.0
220
0.0
230
1.0
  0
LINE
  5
467
100
AcDbEntity
  8
0
370
    13
390
0
 62
     7
 48
0.002579
100
AcDbLine
 10
128.424026
 20
163.139557
 30
0.0
 11
128.405869
 21
163.241089
 31
0.0
210
0.0
220
0.0
230
1.0
  0
LINE
  5
468
100
AcDbEntity
  8
0
370
    13
390
0
 62
     7
 48
0.002522
100
AcDbLine
 10
127.131645
 20
161.829666
 30
0.0
 11
127.120667
 21
161.929947
 31
0.0
210
0.0
220
0.0
230
1.0
  0
LINE
  5
469
100
AcDbEntity
  8
0
370
    13
390
0
 62
     7
 48
0.003495
100
AcDbLine
 10
112.0606
 20
152.336929
 30
0.0
 11
112.068741
 21
152.476501
 31
0.0
210
0.0
220
0.0
230
1.0
  0
LINE
  5
46A
100
AcDbEntity
  8
0
370
    13
390
0
 62
     7
 48
0.003244
100
AcDbLine
 10
109.668228
 20
151.347855
 30
0.0
 11
109.684334
 21
151.476624
 31
0.0
210
0.0
220
0.0
230
1.0
  0
LINE
  5
46B
100
AcDbEntity
  8
0
370
    13
390
0
 62
     7
 48
0.002453
100
AcDbLine
 10
107.113861
 20
152.379272
 30
0.0
 11
107.118805
 21
152.477264
 31
0.0
210
0.0
220
0.0
230
1.0
  0
LINE
  5
46C
100
AcDbEntity
  8
0
370
    13
390
0
 62
     7
 48
0.009316
100
AcDbLine
 10
71.698425
 20
156.901703
 30
0.0
 11
72.068901
 21
156.941727
 31
0.0
210
0.0
220
0.0
230
1.0
  0
LINE
  5
46D
100
AcDbEntity
  8
0
370
    13
390
0
 62
     7
 48
0.009674
100
AcDbLine
 10
72.210594
 20
154.183441
 30
0.0
 11
72.589996
 21
154.259552
 31
0.0
210
0.0
220
0.0
230
1.0
  0
LINE
  5
46E
100
AcDbEntity
  8
0
370
    13
390
0
 62
     7
 48
0.009262
100
AcDbLine
 10
71.698425
 20
160.624664
 30
0.0
 11
72.068901
 21
160.620789
 31
0.0
210
0.0
220
0.0
230
1.0
  0
LINE
  5
46F
100
AcDbEntity
  8
0
370
    13
390
0
 62
     7
 48
0.009544
100
AcDbLine
 10
74.097763
 20
152.766113
 30
0.0
 11
74.465317
 21
152.869278
 31
0.0
210
0.0
220
0.0
230
1.0
  0
LINE
  5
470
100
AcDbEntity
  8
0
370
    13
390
0
 62
     7
 48
0.008454
100
AcDbLine
 10
72.550842
 20
162.821899
 30
0.0
 11
72.888527
 21
162.80423
 31
0.0
210
0.0
220
0.0
230
1.0
  0
LINE
  5
471
100
AcDbEntity
  8
0
370
    13
390
0
 62
     7
 48
0.009091
100
AcDbLine
 10
75.866432
 20
152.784332
 30
0.0
 11
76.21273
 21
152.895264
 31
0.0
210
0.0
220
0.0
230
1.0
  0
LINE
  5
472
100
AcDbEntity
  8
0
370
    13
390
0
 62
     7
 48
0.006565
100
AcDbLine
 10
74.505913
 20
164.760406
 30
0.0
 11
74.76841
 21
164.768188
 31
0.0
210
0.0
220
0.0
230
1.0
  0
LINE
  5
473
100
AcDbEntity
  8
0
370
    35
390
0
 62
     7
 48
0.001063
100
AcDbLine
 10
101.830757
 20
172.593475
 30
0.0
 11
101.830757
 21
172.550949
 31
0.0
210
0.0
220
0.0
230
1.0
  0
LINE
  5
474
100
AcDbEntity
  8
0
370
    35
390
0
 62
     7
 48
0.001033
100
AcDbLine
 10
100.830757
 20
172.583954
 30
0.0
 11
100.830757
 21
172.542633
 31
0.0
210
0.0
220
0.0
230
1.0
  0
LINE
  5
475
100
AcDbEntity
  8
0
370
    35
390
0
 62
     7
 48
0.007049
100
AcDbLine
 10
380.678345
 20
124.205154
 30
0.0
 11
380.457581
 21
124.380562
 31
0.0
210
0.0
220
0.0
230
1.0
  0
LINE
  5
476
100
AcDbEntity
  8
0
370
    13
390
0
 62
     7
 48
0.010391
100
AcDbLine
 10
63.568069
 20
164.739899
 30
0.0
 11
63.981323
 21
164.78421
 31
0.0
210
0.0
220
0.0
230
1.0
  0
LINE
  5
477
100
AcDbEntity
  8
0
370
    35
390
0
 62
     7
 48
0.013231
100
AcDbLine
 10
46.586555
 20
159.299362
 30
0.0
 11
47.110634
 21
159.373123
 31
0.0
210
0.0
220
0.0
230
1.0
  0
LINE
  5
478
100
AcDbEntity
  8
0
370
    35
390
0
 62
     7
 48
0.012865
100
AcDbLine
 10
46.5201
 20
159.019409
 30
0.0
 11
47.029251
 21
159.094131
 31
0.0
210
0.0
220
0.0
230
1.0
  0
LINE
  5
479
100
AcDbEntity
  8
0
370
    13
390
0
 62
     7
 48
0.010133
100
AcDbLine
 10
64.448685
 20
154.40213
 30
0.0
 11
64.841278
 21
154.502945
 31
0.0
210
0.0
220
0.0
230
1.0
  0
LINE
  5
47A
100
AcDbEntity
  8
0
370
    13
390
0
 62
     7
 48
0.010186
100
AcDbLine
 10
64.082253
 20
154.457458
 30
0.0
 11
64.47718
 21
154.557709
 31
0.0
210
0.0
220
0.0
230
1.0
  0
LINE
  5
47B
100
AcDbEntity
  8
0
370
    13
390
0
 62
     7
 48
0.000978
100
AcDbLine
 10
90.551094
 20
165.653793
 30
0.0
 11
90.581726
 21
165.678131
 31
0.0
210
0.0
220
0.0
230
1.0
  0
LINE
  5
47C
100
AcDbEntity
  8
0
370
    13
390
0
 62
     7
 48
0.006094
100
AcDbLine
 10
84.181816
 20
155.143372
 30
0.0
 11
84.415535
 21
155.212646
 31
0.0
210
0.0
220
0.0
230
1.0
  0
LINE
  5
47D
100
AcDbEntity
  8
0
370
    13
390
0
 62
     7
 48
0.006614
100
AcDbLine
 10
83.698257
 20
154.178345
 30
0.0
 11
83.952431
 21
154.25177
 31
0.0
210
0.0
220
0.0
230
1.0
  0
LINE
  5
47E
100
AcDbEntity
  8
0
370
    13
390
0
 62
     7
 48
0.007169
100
AcDbLine
 10
85.588257
 20
151.176727
 30
0.0
 11
85.850784
 21
151.292114
 31
0.0
210
0.0
220
0.0
230
1.0
  0
LINE
  5
47F
100
AcDbEntity
  8
0
370
    13
390
0
 62
     7
 48
0.006787
100
AcDbLine
 10
87.141609
 20
150.984909
 30
0.0
 11
87.386475
 21
151.102158
 31
0.0
210
0.0
220
0.0
230
1.0
  0
LINE
  5
480
100
AcDbEntity
  8
0
370
    13
390
0
 62
     7
 48
0.005658
100
AcDbLine
 10
92.171471
 20
152.3508
 30
0.0
 11
92.331444
 21
152.510864
 31
0.0
210
0.0
220
0.0
230
1.0
  0
LINE
  5
481
100
AcDbEntity
  8
0
370
    13
390
0
 62
     7
 48
0.005635
100
AcDbLine
 10
95.147713
 20
154.863449
 30
0.0
 11
95.193214
 21
155.084198
 31
0.0
210
0.0
220
0.0
230
1.0
  0
LINE
  5
482
100
AcDbEntity
  8
0
370
    13
390
0
 62
     7
 48
0.003443
100
AcDbLine
 10
158.502029
 20
144.533096
 30
0.0
 11
158.480911
 21
144.669189
 31
0.0
210
0.0
220
0.0
230
1.0
  0
LINE
  5
483
100
AcDbEntity
  8
0
370
    13
390
0
 62
     7
 48
0.003457
100
AcDbLine
 10
157.956955
 20
144.555313
 30
0.0
 11
157.936279
 21
144.692032
 31
0.0
210
0.0
220
0.0
230
1.0
  0
LINE
  5
484
100
AcDbEntity
  8
0
370
    13
390
0
 62
     7
 48
0.003404
100
AcDbLine
 10
121.429825
 20
147.452438
 30
0.0
 11
121.438408
 21
147.588333
 31
0.0
210
0.0
220
0.0
230
1.0
  0
LINE
  5
485
100
AcDbEntity
  8
0
370
    13
390
0
 62
     7
 48
0.00325
100
AcDbLine
 10
119.751137
 20
147.769211
 30
0.0
 11
119.759293
 21
147.898941
 31
0.0
210
0.0
220
0.0
230
1.0
  0
LINE
  5
486
100
AcDbEntity
  8
0
370
    13
390
0
 62
     7
 48
0.003397
100
AcDbLine
 10
217.432724
 20
140.711136
 30
0.0
 11
217.433121
 21
140.847015
 31
0.0
210
0.0
220
0.0
230
1.0
  0
LINE
  5
487
100
AcDbEntity
  8
0
370
    13
390
0
 62
     7
 48
0.003452
100
AcDbLine
 10
216.364838
 20
140.718369
 30
0.0
 11
216.365005
 21
140.856445
 31
0.0
210
0.0
220
0.0
230
1.0
  0
LINE
  5
488
100
AcDbEntity
  8
0
370
    13
390
0
 62
     7
 48
0.003413
100
AcDbLine
 10
187.524918
 20
142.540421
 30
0.0
 11
187.521744
 21
142.676895
 31
0.0
210
0.0
220
0.0
230
1.0
  0
LINE
  5
489
100
AcDbEntity
  8
0
370
    13
390
0
 62
     7
 48
0.003313
100
AcDbLine
 10
186.115646
 20
142.736343
 30
0.0
 11
186.111404
 21
142.86879
 31
0.0
210
0.0
220
0.0
230
1.0
  0
LINE
  5
48A
100
AcDbEntity
  8
0
370
    13
390
0
 62
     7
 48
0.003514
100
AcDbLine
 10
260.533661
 20
138.045013
 30
0.0
 11
260.539337
 21
138.185455
 31
0.0
210
0.0
220
0.0
230
1.0
  0
LINE
  5
48B
100
AcDbEntity
  8
0
370
    13
390
0
 62
     7
 48
0.003533
100
AcDbLine
 10
259.91626
 20
138.061447
 30
0.0
 11
259.922363
 21
138.202637
 31
0.0
210
0.0
220
0.0
230
1.0
  0
LINE
  5
48C
100
AcDbEntity
  8
0
370
    13
390
0
 62
     7
 48
0.003507
100
AcDbLine
 10
245.795441
 20
138.923859
 30
0.0
 11
245.811218
 21
139.063263
 31
0.0
210
0.0
220
0.0
230
1.0
  0
LINE
  5
48D
100
AcDbEntity
  8
0
370
    13
390
0
 62
     7
 48
0.003475
100
AcDbLine
 10
245.040054
 20
139.002319
 30
0.0
 11
245.056168
 21
139.140381
 31
0.0
210
0.0
220
0.0
230
1.0
  0
LINE
  5
48E
100
AcDbEntity
  8
0
370
    13
390
0
 62
     7
 48
0.003554
100
AcDbLine
 10
284.276703
 20
138.477921
 30
0.0
 11
284.269562
 21
138.619904
 31
0.0
210
0.0
220
0.0
230
1.0
  0
LINE
  5
48F
100
AcDbEntity
  8
0
370
    13
390
0
 62
     7
 48
0.003658
100
AcDbLine
 10
286.297882
 20
136.417892
 30
0.0
 11
286.2789
 21
136.562973
 31
0.0
210
0.0
220
0.0
230
1.0
  0
LINE
  5
490
100
AcDbEntity
  8
0
370
    13
390
0
 62
     7
 48
0.003659
100
AcDbLine
 10
286.476807
 20
136.401779
 30
0.0
 11
286.457214
 21
136.546829
 31
0.0
210
0.0
220
0.0
230
1.0
  0
LINE
  5
491
100
AcDbEntity
  8
0
370
    35
390
0
 62
     7
 48
0.001886
100
AcDbLine
 10
324.15509
 20
133.845245
 30
0.0
 11
324.103455
 21
133.900253
 31
0.0
210
0.0
220
0.0
230
1.0
  0
LINE
  5
492
100
AcDbEntity
  8
0
370
    35
390
0
 62
     7
 48
0.011556
100
AcDbLine
 10
75.934196
 20
171.245972
 30
0.0
 11
76.393944
 21
171.293747
 31
0.0
210
0.0
220
0.0
230
1.0
  0
ENDSEC
  0
SECTION
  2
OBJECTS
  0
DICTIONARY
  5
19
100
AcDbDictionary
280
     0
281
     1
  3
ACAD_GROUP
350
1A
  3
ACAD_MLINESTYLE
350
1B
  3
ACAD_LAYOUT
350
1E
  3
ACAD_PLOTSETTINGS
350
22
  3
ACAD_PLOTSTYLENAME
350
1F
  3
ACAD_WIPEOUT_VARS
350
23
  0
DICTIONARY
  5
1A
102
{ACAD_REACTORS
330
19
102
}
100
AcDbDictionary
280
     0
281
     1
  0
DICTIONARY
  5
1B
102
{ACAD_REACTORS
330
19
102
}
100
AcDbDictionary
280
     0
281
     1
  3
Standard
350
1C
  0
MLINESTYLE
  5
1C
102
{ACAD_REACTORS
330
1B
102
}
100
AcDbMlineStyle
  2
Standard
 70
     0
  3

 62
     0
 51
90.0
 52
90.0
 71
     2
 49
0.5
 62
   256
  6
ByLayer
 49
-0.5
 62
   256
  6
ByLayer
  0
ACDBDICTIONARYWDFLT
  5
1F
102
{ACAD_REACTORS
330
19
102
}
100
AcDbDictionary
281
     1
  3
Normal
350
1D
100
AcDbDictionaryWithDefault
340
1D
  0
ACDBPLACEHOLDER
  5
1D
102
{ACAD_REACTORS
330
1F
102
}
  0
LAYOUT
  5
20
102
{ACAD_REACTORS
330
1E
102
}
100
AcDbPlotSettings
  1

  2

  4

  6

 40
0.0
 41
0.0
 42
0.0
 43
0.0
 44
0.0
 45
0.0
 46
0.0
 47
0.0
 48
0.0
 49
0.0
140
0.0
141
0.0
142
1.0
143
1.0
 70
  1024
 72
     0
 73
     0
 74
     0
  7

 75
     0
147
1.0
148
0.0
149
0.0
100
AcDbLayout
  1
Model
 70
     0
 71
     0
 10
0.0
 20
0.0
 11
0.0
 21
0.0
 12
0.0
 22
0.0
 32
0.0
 14
0.0
 24
0.0
 34
0.0
 15
0.0
 25
0.0
 35
0.0
146
0.0
 13
0.0
 23
0.0
 33
0.0
 16
0.0
 26
0.0
 36
0.0
 17
0.0
 27
0.0
 37
0.0
 76
     0
330
A
331
0
345
0
346
0
  0
LAYOUT
  5
21
102
{ACAD_REACTORS
330
1E
102
}
100
AcDbPlotSettings
  1

  2

  4

  6

 40
0.0
 41
0.0
 42
0.0
 43
0.0
 44
0.0
 45
0.0
 46
0.0
 47
0.0
 48
0.0
 49
0.0
140
0.0
141
0.0
142
1.0
143
1.0
 70
     0
 72
     0
 73
     0
 74
     0
  7

 75
     0
147
1.0
148
0.0
149
0.0
100
AcDbLayout
  1
Layout1
 70
     0
 71
     0
 10
0.0
 20
0.0
 11
0.0
 21
0.0
 12
0.0
 22
0.0
 32
0.0
 14
0.0
 24
0.0
 34
0.0
 15
0.0
 25
0.0
 35
0.0
146
0.0
 13
0.0
 23
0.0
 33
0.0
 16
0.0
 26
0.0
 36
0.0
 17
0.0
 27
0.0
 37
0.0
 76
     0
330
B
331
0
345
0
346
0
  0
DICTIONARY
  5
1E
102
{ACAD_REACTORS
330
19
102
}
100
AcDbDictionary
280
     0
281
     1
  3
Layout1
350
21
  3
Model
350
20
  0
DICTIONARY
  5
22
102
{ACAD_REACTORS
330
19
102
}
100
AcDbDictionary
280
     0
281
     1
  0
WIPEOUTVARIABLES
  5
23
100
AcDbWipeoutVariables
 70
     1
  0
ENDSEC
  0
EOF
